<!-- by TradingView --><svg width="56" height="56" xmlns="http://www.w3.org/2000/svg"><path fill="#0069C8" d="M0 0h56v56H0z"/><path d="M10.545 30L10 26l-1.506 4h2.051zM9 23h3l2 10h-3l-.122-1.002H7.484L7 32.999H4l5-10zM18.043 30.39c.523 0 1.033-.374 1.125-.919.123-.573-.232-.946-.756-.946-.523 0-.954.373-1.078.946-.092.574.185.918.709.918zm.822 1.61c-.831.832-1.746 1-2.639 1-1.57 0-2.555-1.348-2.124-3.443.43-2.209 1.878-3.557 3.51-3.557.862 0 1.713.344 2.144 1.061L20 26h3l-1.365 7h-3.031l.261-1zM23.353 26h2.983l-.227 1.172c.79-.867 1.947-1.232 2.891-1.172l-.698 3a1.771 1.771 0 00-.883-.23c-.852 0-1.713.703-1.865 1.54L25 33h-3l1.353-7zM33.356 29.5c.118-.545-.147-.89-.618-.89-.472 0-.855.345-.973.89-.117.545.148.889.62.889.47 0 .853-.344.971-.89zm1.355 2.581a4.772 4.772 0 01-2.857.918c-1.06 0-1.886-.315-2.504-.918-.678-.66-.943-1.606-.737-2.581.177-1.004.825-1.922 1.738-2.582A4.749 4.749 0 0133.18 26c1.061 0 1.915.316 2.505.918.677.66.913 1.606.736 2.582-.147 1.004-.766 1.922-1.709 2.581zM37.403 26h2.875l-.243 1.162C40.787 26.387 42.091 26 43 26c1.504 0 2.245.923 1.932 2.442L44.022 33H41l.697-3.425c.125-.596-.45-.864-.826-.864-.408 0-1.092.268-1.186.864L38.995 33H36L37.403 26zM45.997 27h-.995l.546-3h1.454l-1.005 3zM46.11 30.263c.626.49 1.166.72 1.565.72.341 0 .54-.144.597-.374.057-.317-.284-.288-.768-.433-1.138-.287-1.593-.864-1.394-1.843.256-1.325 1.622-2.333 3.5-2.333.882 0 1.707.173 2.39.518l-1.138 1.96c-.513-.375-.94-.606-1.28-.606-.285 0-.513.144-.541.346-.057.288.284.317.939.46 1.166.289 1.678.865 1.508 1.815C51.23 31.905 49.808 33 47.845 33c-1.052 0-2.02-.259-2.845-.72l1.11-2.016z" fill="#fff"/></svg>