<!-- by TradingView --><svg width="56" height="56" xmlns="http://www.w3.org/2000/svg"><path fill="#101E40" d="M0 0h56v56H0z"/><path d="M17.027 19.032c.227 8.953 5.598 14.21 7.435 14.396.107.012-.116-.197-.116-.197-2.2-1.737-5.906-4.963-6.299-14.206l-1.02.007z" fill="#FFB608"/><path d="M34.548 33.179v-.914l-.923-.744.305.245c.345.196.536.407.536.628a.624.624 0 01-.073.337c-.915.429-1.873.763-2.857.997a.573.573 0 00-.496-.207c-.438 0-.965.499-1.035.571a.505.505 0 00-.632-.212l-.086.034.04.088c.028.064.048.132.062.2a.956.956 0 00-.557-.64 1.834 1.834 0 00-.908-.03 1.09 1.09 0 00-.48.308.434.434 0 00-.172-.036.705.705 0 00-.454.286.056.056 0 01-.023.018.146.146 0 01-.046-.05.696.696 0 00-.365-.29 1.564 1.564 0 00-.548-.054.973.973 0 00-.27.068c-.138.042-.283.06-.427.051-.127 0-.254-.015-.377-.045a15.067 15.067 0 01-3.074-1.06.43.43 0 01-.1-.346l-.109-.119c-.065.134-.124.27-.175.41-.327-.165-.788-.354-1.1-.538-.147.121-.145.121-.29.243.117.186.246.364.386.533.189.117.364.05.486.083a.822.822 0 01.37.248c.148.137.282.287.4.45.2.285.51.45.91.674.171.113.372.175.578.18.11.005.218.024.323.057a.64.64 0 01.295.225c.166.186.366.339.59.45.152.078.313.139.478.182.093.02.182.057.261.11a.988.988 0 01.268.335.885.885 0 00.252.313c.158.105.34.17.53.184 0 .405.19.635.522.644 0 .333.136.393.307.43a.373.373 0 00.056.258c.03.043.075.074.125.088v.015a.522.522 0 00.062.378.226.226 0 00.175.072c.03.05.066.102.097.151.262.318.406.715.41 1.125a2.9 2.9 0 01-.257 1.048 2.473 2.473 0 00-.228.844c0 .24.04.48.12.708v.027c-.244-.276-.372-.846-.376-1.7.003-.635.08-1.268.227-1.886a.106.106 0 010-.033c.027-.133-.025-.207-.086-.225-.062-.018-.169 0-.257.14a5.458 5.458 0 00-.543 2.29c0 .957.29 1.857.7 2.2h.886c.108-.1.194-.22.252-.354.046-.176.069-.358.068-.54a6.97 6.97 0 01.211-.816c.156-.354.28-.72.373-1.096 0 .025.015.052.022.074.075.304.134.612.175.923 0 .076.041.28.173.283.132.002.177-.193.19-.277.038-.46.024-.923-.04-1.38a1.37 1.37 0 00-.082-.27 2.337 2.337 0 01-.18-.964c.008-.302.042-.603.1-.9.021-.107.035-.19.041-.253a.626.626 0 00-.059-.36.402.402 0 00.13 0 .36.36 0 00.077-.03.11.11 0 01.048-.01.388.388 0 01.027.206v.047c-.02.128-.02.258 0 .385.021.08.055.156.102.225.043.062.071.133.082.207v.052c.086.486-.111 2.634-.175 2.953-.027.13-.043.245-.059.347-.015.123-.04.245-.077.364-.027.047-.068.106-.116.178-.159.225-.377.544-.386.805.009.08.036.157.08.225h1.669a.858.858 0 00.1-.166.341.341 0 00-.132-.387 1.702 1.702 0 00-.252-.162c-.132-.08-.284-.164-.288-.248a.566.566 0 01.102-.265.69.69 0 00.118-.295.253.253 0 00-.098-.23c-.032-.03-.038-.038-.027-.1a1.63 1.63 0 01.057-.185c.354-.996.571-2.035.647-3.089a2.343 2.343 0 00-.227-1.124.162.162 0 00.093.051.177.177 0 00.134-.063c.213-.24.348-.537.386-.854l.046-.2a.845.845 0 01.159-.061c.194-.05.378-.132.545-.241.216-.175.411-.373.581-.592.09-.118.191-.226.305-.321a.3.3 0 01.195.018c.102.034.211.046.318.033.536-.078 1.322-.807 1.892-1.35.203-.188.334-.4.455-.483.185-.114.4-.172.618-.166.072-.023.227-.027.284-.095.12-.14.36-.792.98-1.206l-3.07 1.96zm-5.966 3.62c-.16.01.148.127.134.35-.01.142-.156.205-.3.225-.143.02.037.099.087.187.073.123-.095.24-.273.25a4.055 4.055 0 01-.577 0c-.19-.025-.156-.138-.05-.17.107-.03.266-.062.4-.114.227-.086.082-.14.016-.15-.066-.012-.257-.037-.493-.089-.154-.035-.202-.157-.154-.245.025-.047.095-.06.163-.067.205-.01.409-.031.611-.063.152-.034.227-.187 0-.205-.17-.013-.493 0-.806-.045a1.002 1.002 0 01-.727-.389c-.2-.243-.227-.751-.418-1.044a.678.678 0 00-.525-.306.523.523 0 00-.272.05c-.062.027-.068.056 0 .085.184.086.215.396.175.385a3.254 3.254 0 00-1.18-.648 2.278 2.278 0 01-.51-.313c-.094-.054-.455-.303-.605-.299a.896.896 0 01-.94-.524c-.084-.146.116-.092.177-.067.318.202.66.365 1.018.485.454.142.615.097.958.225.243.097.439.392.704.38.312-.013.334-.19.784-.263.156-.012.312-.005.466.02.213.068.204.095.309.095.145 0 .286-.106.37-.115a.125.125 0 01.092.03.124.124 0 01.042.085c0 .054-.018.28-.011.376a.625.625 0 00.336.596c.209.138.45.221.7.243v.252a4.197 4.197 0 01-.437-.07c-.05 0-.07 0-.079.025-.01.025-.034.108.04.133.076.024.244.056.303.083.06.027.164.186.239.247.075.061.134.043.124-.052a.156.156 0 01.17-.175c.228 0 .441.016.441.297 0 .281-.242.288-.502.308zm3.815-2.743c-.273 0-.538.086-.757.247-.023.018-.04.045-.066.066-.084.072-.1.027-.107 0-.006-.027-.077-.086-.14.024-.33.574-.568.713-.91.858-.076.035-.104.031-.083-.032.043-.14.066-.285.07-.432a1.047 1.047 0 00-.09-.4c-.019-.045-.06-.068-.014-.084.237-.12.497-.188.763-.2.19 0 .227.126.305.144.077.018.09-.04.109-.067a.526.526 0 01.352-.225c.19-.03.383-.014.565.047.05.03.037.054.003.054z" fill="#FFB608"/><path d="M12 19.007c0 2.63 2.81 15.521 16.099 15.521C40.46 34.528 44 22.791 44 19.007h-.545c0 2.364-2.774 15.134-15.383 15.134-10.554 0-15.465-9.79-15.465-15.134H12z" fill="#FFB608"/><path d="M23.66 19.007c.323 8.59 2.17 14.172 3.26 14.412.111.025-.166-.647-.166-.647-.718-2.133-1.279-4.614-1.847-13.772l-1.247.007zM32.465 19.007c-.323 8.59-2.17 14.172-3.258 14.412-.109.025.164-.647.164-.647.716-2.133 1.279-4.614 1.849-13.772l1.245.007zM39.007 19.032c-.227 8.953-5.597 14.21-7.437 14.396-.107.012.116-.197.116-.197 2.201-1.737 5.906-4.963 6.301-14.206l1.02.007z" fill="#FFB608"/><path d="M13.86 24.707c.777-2.436 9.364-4.274 14.005-4.274 5.245 0 14.084 2.137 14.204 4.126l-.15.796c-.377-2.25-7.723-3.928-14.084-3.928-5.697 0-13.375 1.492-13.677 3.977l-.298-.697zM16.798 29.228c.829-2.31 6.451-3.194 11.092-3.194 5.248 0 11.245 1.258 11.37 3.246l-.378.572c-.175-2.214-4.693-3.197-11.042-3.197-5.697 0-10.088.9-10.676 3.178l-.366-.605zM21.238 32.684c.178-1.615 3.408-2.324 6.652-2.324 2.937 0 6.978.434 6.826 2.349l-.302.272c.427-.943-1.052-2.101-6.577-2.101-5.697 0-6.349 1.255-6.274 1.95l-.325-.146z" fill="#FFB608"/></svg>