<!-- by TradingView --><svg width="56" height="56" xmlns="http://www.w3.org/2000/svg"><path fill="#E9282C" d="M0 0h56v56H0z"/><path d="M14 20v8H9l3-8h2zM15 20v8h5l-3-8h-2zM20.375 29H15v4h3l1 3h4l-2.625-7zM14 33v-4H8.625L6 36h4l1-3h3zM26 29h4v7h-4v-7zM31 35.987c2.498-.128 6-1.245 6-4.987 0-.772-.116-1.434-.307-2H31v6.987zM39 29v7h4v-7h-4zM44 35.987c2.498-.128 6-1.245 6-4.987 0-.772-.116-1.434-.307-2H44v6.987zM49.231 28c-.672-1.113-1.631-1.7-2.231-2 .5-.333 1.5-1.3 1.5-2.5 0-2.8-2-3.5-3-3.5H44v8h5.231zM43 20v8h-4v-8h4zM36.231 28H31v-8h1.5c1 0 3 .7 3 3.5 0 1.2-1 2.167-1.5 2.5.6.3 1.56.887 2.231 2zM30 20v8h-4v-8h4z" fill="#fff"/></svg>