<!-- by TradingView --><svg width="56" height="56" xmlns="http://www.w3.org/2000/svg"><path fill="#00448C" d="M0 0h56v56H0z"/><path d="M31.717 31.545c1.727-.866 1.055-5.444-1.49-4.062-1.026.558-1.055 1.838-.793 2.767.256.92 1 1.935 2.283 1.295zM31.5 34a3.266 3.266 0 01-2.15-.728l-.063.728H27l-.063-11.957L29.414 22l.02 3.812.125-.075c1.14-.685 2.188-1.315 3.813-.233 2.206 1.473 2.666 5.435.3 7.649-.554.516-1.36.826-2.172.847zM8.21 27.284c1.943-.225 2.405 3.243.907 4.211-1.5.966-3.063-.75-2.463-2.93.2-.725.834-1.198 1.556-1.281zm1.645-1.452c-1.036-1.105-2.945-1.069-4.208-.132-2.167 1.616-2.245 5.958.059 7.631.663.48 1.274.67 1.865.669.836 0 1.629-.378 2.462-.838l.013.838h2.356l-.02-9H10v1s-.107-.127-.145-.168zM16 34v-5.298c0-.702.621-1.635 1.478-1.398.938.261.884 1.612.825 3.08-.055 1.368-.114 2.838.626 3.616h2.458c-.659-1.294-.655-1.46-.631-2.553.006-.265.013-.583.012-.984 0-.135-.003-.28-.006-.431-.023-1.191-.053-2.747 1.24-2.747 1.203 0 1.145 1.38 1.08 2.932-.06 1.436-.127 3.018.797 3.783h2.472c-.936-.996-.862-2.412-.784-3.913.056-1.057.113-2.156-.178-3.18-.267-.932-1.065-1.762-2.231-1.878-1.419-.142-1.883.258-2.575.855-.092.079-.187.161-.29.246-.136-.104-.255-.218-.373-.33-.379-.362-.756-.72-1.688-.776-1.117-.068-1.714.289-2.232.88V25h-2.5v9H16zm22.355-5.352c.383-2.077 2.647-2.04 2.937.005l-2.937-.005zm5.013 2.443l-.005.001v-.001h.005zm-.005.001l-.225.08c-1.64.587-4.178 1.495-4.787-.726l5.414-.1c.106-2.452-.644-4.325-2.41-5.027-4.66-1.85-7.523 4.832-4.069 7.673 1.452 1.196 4.258 1.423 5.777.162.242-.489.29-1.341.3-2.062zm6.02-6.038l2.612-.05.005.006L49.126 34h-2.72c-.367-.657-2.83-8.229-2.912-8.995L46.078 25l1.626 5.872 1.678-5.818z" fill="#fff"/></svg>