<!-- by TradingView --><svg width="56" height="56" xmlns="http://www.w3.org/2000/svg"><path fill="#D91E18" d="M0 0h56v56H0z"/><path d="M12 31v1H9v-1h.696l-.6-2H6.85l-.588 2H7v1H4v-1h.67l2.053-7H6v-1h2.65l2.764 8H12zm-3.141-3L8 25l-.859 3H8.86zM13.5 32h-1v-2.722l1-.243c.211 1.136 1.06 1.53 2.316 1.53.711 0 1.753-.382 1.753-1.244 0-.944-1.358-1.133-2.039-1.316-1.28-.307-2.732-.992-2.732-2.503 0-1.65 1.452-2.502 2.936-2.502.664 0 1.715.215 2.266.57V23h1v2.985h-1v-.175c-.082-.878-1.043-1.41-2.021-1.41-.614 0-1.794.274-1.794 1.058 0 .788 1.052.923 1.63 1.054 1.507.405 3.181.859 3.181 2.766 0 1.664-1.445 2.721-3.017 2.721-.897 0-1.908-.152-2.479-.503V32zM26.827 28.427c.127.316.17.588.17.904 0 .407-.085.769-.254 1.176-.464.995-1.435 1.492-2.954 1.492H20V31h1v-7h-1v-1h3.789c1.223 0 2.068.407 2.49 1.176.21.407.337.814.337 1.22 0 .182-.042.408-.084.589-.127.497-.38.904-.718 1.175.465.272.802.724 1.013 1.267zM22.5 26.573c.884 0 2.519.22 2.519-1.176C25.019 24 23.354 24 22.5 24v2.573zm0 4.427c.955 0 3.025.132 3-1.487-.025-1.62-2.001-1.513-3-1.513v3zM42.883 31c-.701-1.197-1.32-2.724-1.815-3.168 1.094-.271 1.856-1.217 1.856-2.35 0-1.745-1.413-2.482-3.011-2.482H32v1h1v4.054c0 1.291-.115 2.982-1.772 2.946-1.656-.036-1.728-1.772-1.728-2.946V24h1.048v-1H27v1h1v4.098c0 2.146.525 3.902 3.228 3.902 2.704 0 3.272-1.64 3.272-3.902V24H36.003v7H35v1h3.5v-1h-1v-3h1.216c.328 0 .633.123.908.32.247.177 1.113 1.446 1.444 2.68H40v1h3.997v-1h-1.114zM37.5 27v-3c1.142 0 3.995-.346 4 1.483.005 1.828-2.97 1.517-4 1.517zM47.247 28.246L45.013 24h-1.016v-1h3.494v1h-.69l1.197 2.502L49.4 24h-.893v-1H52v1h-.894l-2.356 4.246V31H50v1h-4v-1h1.247v-2.754z" fill="#fff"/></svg>