<!-- by TradingView --><svg width="56" height="56" xmlns="http://www.w3.org/2000/svg"><path fill="#F01428" d="M0 0h56v56H0z"/><path d="M28.591 35.615c0-1.211.508-1.384 1.69-.692a81.04 81.04 0 004.057 2.25c0-.692.676-1.212 1.86-.865 1.182.346 2.365.519 2.365.519s-.676-1.558-1.014-2.25c-.507-1.212 0-1.904.507-2.077 0 0-.676-.52-1.183-.865-1.014-.693-.845-1.558.17-1.904 1.351-.693 3.21-1.385 3.21-1.385-.507-.346-1.183-1.211-.507-2.423.676-1.038 1.86-2.596 1.86-2.596h-3.212c-1.183 0-1.52-1.039-1.52-1.73 0 0-1.86 1.384-3.212 2.25-1.183.864-2.197 0-2.028-1.386.338-2.076.507-4.5.507-4.5-.676.693-1.86.52-2.535-.519-.845-1.73-1.69-3.807-1.69-3.807s-.846 2.076-1.69 3.807c-.508 1.039-1.69 1.212-2.367.693 0 0 .17 2.423.507 4.5.17 1.211-.845 2.076-2.028 1.211a172.06 172.06 0 01-3.38-2.25c0 .692-.338 1.558-1.521 1.73h-3.212s1.184 1.559 1.86 2.597c.676 1.039 0 2.077-.508 2.423 0 0 1.69.866 3.212 1.385 1.014.519 1.352 1.211.169 1.904-.338.346-1.183.865-1.183.865.676.173 1.183.865.676 2.077-.338.692-1.014 2.25-1.014 2.25s1.183-.346 2.366-.52c1.183-.346 1.69.347 1.859.866 0 0 2.028-1.212 4.056-2.25 1.014-.692 1.69-.346 1.69.692v2.943c0 1.73-.338 3.404-.845 4.442C18.958 42.135 12 35.962 12 27.654 12 19.174 19.38 12 28 12c8.62 0 16 7.173 16 15.654 0 7.961-7.1 14.48-14.875 15.346v2.135C38.252 44.269 46 36.827 46 27.654 46 17.788 37.887 10 27.916 10 18.113 10 10 17.788 10 27.48c0 8.482 6.253 15.578 14.535 17.135 1.352.346 2.197.52 3.043 1.385.845-1.73 1.014-5.192 1.014-7.096v-3.289z" fill="#fff"/></svg>