<!-- by TradingView --><svg width="56" height="56" xmlns="http://www.w3.org/2000/svg"><path fill="#FF5A00" d="M0 0h56v56H0z"/><path d="M24.73 27c.951 0 1.439.432 1.774.928L28 26.744C27.315 25.688 26.336 25 24.73 25 22.497 25 21 26.752 21 29s1.49 4 3.73 4c1.606 0 2.57-.688 3.27-1.744l-1.489-1.184c-.335.496-.822.928-1.774.928C23.77 31 23 30.18 23 29c0-1.18.762-2 1.73-2zm7.63 4c-.967 0-1.866-.712-1.866-2s.899-2 1.866-2c.967 0 1.866.712 1.866 2s-.899 2-1.866 2zm0-6c-2.231 0-3.983 1.752-3.983 4s1.744 4 3.983 4c2.231 0 3.983-1.752 3.983-4s-1.752-4-3.983-4zM39 27.28c0-.28.412-.496 1.021-.496.7 0 1.508.168 2.46.752l.685-1.616c-.525-.384-1.462-.92-3.084-.92C38.094 25 37 26.04 37 27.472c0 2.904 4 2.008 4 3.144 0 .472-.354.648-.865.648-1.248 0-2.756-.792-2.772-.808l-.7 1.632S38.315 33 40.02 33c2.133 0 2.98-.968 2.98-2.544.007-2.888-4-1.976-4-3.176zM8.31 25l1.561 4H6.005l-1.562 4h2l.809-2h3.411l.785 2h1.707l-3.13-8H8.31zm40.545 0h-2.004l1.569 4H44.56l-1.56 4h2l.805-2h3.406l.784 2H52l-3.145-8zm-31.493 4H16.03v-2h1.332c.708 0 1.168.384 1.168 1-.008.616-.46 1-1.168 1zm3.168-1c0-2.864-2.627-3-3.473-3H14.03v8h2v-2h1.248l1.252 2 2.259-.086-1.632-2.41c.708-.384 1.373-1.168 1.373-2.504z" fill="#fff"/></svg>