<!-- by TradingView --><svg width="56" height="56" xmlns="http://www.w3.org/2000/svg"><path fill="#EE2E24" d="M0 0h56v56H0z"/><path d="M36.91 21.52c-.545-.963-1.937-1.52-5.336-1.52-4.89 0-5.876.922-6.91 4.281l-1.882 5.985c-.099.34-.181.66-.247.957-.135.614-.2 1.121-.2 1.48 0 .466.058.894.2 1.275.476 1.265 1.903 2.021 5.372 2.021 4.867 0 5.854-.89 6.77-3.703L35.817 29h-5.126l-.785 2.344c-.317.672-.444 1.187-1.27 1.187-.682 0-1.034-.515-.8-1.187l1.976-6.531c.164-.656.399-1.282 1.41-1.282.658 0 1.01.5.776 1.188L31.363 27h5.03l.4-1.36c.043-.136.082-.269.118-.4.24-.882.329-1.647.329-2.068 0-.634-.067-1.19-.33-1.653zm13.76 0c-.545-.963-1.937-1.52-5.336-1.52-4.89 0-5.876.922-6.91 4.282l-1.881 5.984c-.1.34-.182.661-.248.957-.135.614-.199 1.122-.199 1.48 0 .467.057.894.2 1.275.474 1.265 1.901 2.022 5.37 2.022 4.867 0 5.854-.89 6.77-3.703L49.578 29h-5.126l-.785 2.344c-.317.673-.443 1.187-1.27 1.187-.682 0-1.034-.515-.799-1.187l1.975-6.53c.164-.657.4-1.282 1.41-1.282.658 0 1.01.5.776 1.187L45.123 27h5.03l.4-1.36c.043-.135.082-.268.118-.4.24-.881.33-1.646.33-2.068 0-.633-.068-1.19-.33-1.652zM16.797 29h-2.693l3.855-5.462h.166L16.797 29zm6.489-9h-7.83L4 36h5.976l2.13-3h3.917l-.709 3h5.67l2.302-14.716.2-1.284" fill="#fff"/></svg>