<!-- by TradingView --><svg xmlns="http://www.w3.org/2000/svg" width="56" height="56"><path fill="#F0F3FA" d="M0 0h56v56H0z"/><path d="M26.08 30.48l-3.3-9.83h-.07l-3.66 10.52-.02.02-1.83 5.5a3.3 3.3 0 00-.27 1.16c0 1.28 1.06 1.18 1.83 1.18h1.02V40h-6.8v-.97h.47c1.44-.11 2.12-.8 2.57-2.07L24.82 12h.56l10.17 27.03h1.75V40H25.62v-.97h3.51l-3.05-8.5v-.05z" fill="#63666A"/><path d="M46.1 31.63c-1.22.45-2.62.89-4.13 1.21a19 19 0 01-9.31-.27 73.6 73.6 0 01-5.13-1.79c-1.54-.57-2.6-.96-3.64-1.12-.66.07-1.3.14-1.88.23H22c-4.63.7-7.35 2.35-9.99 5.21l1.02.64c2.23-2.9 4.58-4.6 9.08-5.28 1.06-.11 3.53.2 4.3 1.95a7.1 7.1 0 01.56 2.6l-.02 1.7.56-1.6c.16-.49.41-.55.48-.55.59-.14 1.51.68 1.8 1 1.7 2.18 6.24 1.28 6.42 1.24l1-.2-.95-.35c-.95-.34-1.22-.92-1.1-1.21.08-.23.44-.4 1.05-.16 1.68.61 4.7 1.44 4.73 1.46l1.3.37-1.05-.87c-.2-.16-.19-.44-.12-.67.12-.3.39-.57.77-.55a3.88 3.88 0 002.96-1.1 21.3 21.3 0 011.7-1.44l1.5-1.16-1.79.66c-.04.02-.06.05-.1.05z" fill="#F68D2E"/><path d="M27.68 30.16c1.3.48 2.92 1.08 5.11 1.76 4.02 1.26 8.1.74 11.35-.2l-.28-.16c-.9-.64-.92-2.15-.92-2.17v-.5l-.4.24c-1.68 1.03-3.1 1.4-4.14 1.08-.66-.2-.98-.62-1.09-.8.52-1.2 3.62-2.06 4.8-2.31l1.21-.25-1.2-.3c-.52-.14-.8-.37-.9-.66-.2-.71.68-1.83 1.02-2.2l.27-.28-.34-.18a.5.5 0 01-.23-.3c-.18-.75.75-2.35 1.13-2.9l1.45-2.15-1.85 1.76c-.03.02-2.53 2.38-5.83 4.76-4.34 3.13-8.12 4.9-10.9 5.05h-.1c.51.23 1.14.46 1.84.71z" fill="#F68D2E"/></svg>