<!-- by TradingView --><svg width="56" height="56" xmlns="http://www.w3.org/2000/svg"><path fill="#00B8E4" d="M0 0h56v56H0z"/><path d="M9.952 25.002h.02l.77 4.002h-2.3l1.51-4.002zM9 22L4 34h2.992L8 30.998h2.743L11 34h3l-2-12H9zM21 29.525h-6.454L15 26.53h6.538L21 29.525zM22.548 25H15l.578-2.996H23L22.548 25zM22 31h-7.641L14 34h7.422L22 31zM30 31c-.541.218-1.905.285-2.45.285-1.736 0-2.891-1.305-2.85-3.16.063-1.945 1.465-3.36 3.369-3.36.9 0 1.694.31 2.406.95L30.998 23c-1.088-.685-1.998-.996-3.149-.996-3.138 0-5.722 2.762-5.847 6.253-.105 3.38 1.966 5.744 5.042 5.744.544 0 1.988 0 2.527-.234L30 31z" fill="#F6F8FD"/><path d="M37.478 28.392c.381-1.94-.28-3.462-1.624-3.77-1.463-.331-2.806.904-3.207 2.954-.381 1.94.28 3.461 1.623 3.77 1.464.33 2.807-.904 3.208-2.954zm-1.724-6.375c2.807.22 4.53 2.759 4.21 6.088-.32 3.462-2.847 6.107-5.713 5.886-2.807-.22-4.531-2.821-4.21-6.15.32-3.462 2.866-6.044 5.713-5.824zM48.998 22l-2.846 6.759L45 22h-3l-3 12h2.996l1.59-7.035L45 34h1l3.35-7.035L49.002 34H52V22h-3.002z" fill="#F6F8FD"/></svg>