<!-- by TradingView --><svg xmlns="http://www.w3.org/2000/svg" width="56" height="56"><path fill="#18B2F0" d="M0 0h56v56H0z"/><path d="M24.12 26.41l2.68-4.1-2.91 6.6-.23-1.4-2.61 3.67 2.9-6.05.17 1.28zM5.95 28.46h3.72l.6.93c.06.14.09.23.09.28v.05c0 .07.01.12-.12.14V30h1.41v-.14a.62.62 0 01-.33-.14l-.18-.34-.12-.25-2.57-4.56a.99.99 0 01-.07-.22v-.02c0-.06 0-.12.12-.16V24H7.04v.14c.11.02.1.07.1.12v.05c0 .04-.03.12-.08.23l-2.54 4.73c-.1.23-.17.38-.24.45a.54.54 0 01-.28.14V30h1.62v-.14c-.16-.03-.25-.07-.25-.17 0-.04.02-.12.07-.23l.51-1zm1.77-3.66l1.67 3.1H6.17l1.55-3.1zm42.3 3.66h-3.74l-.52 1a.77.77 0 00-.07.23c0 .1.1.14.26.17V30h-1.63v-.14a.54.54 0 00.29-.14c.07-.07.14-.22.23-.45l2.55-4.73a.77.77 0 00.07-.23v-.05c.02-.05.02-.1-.09-.12V24h1.46v.17c-.12.04-.12.1-.11.16v.02c0 .03.02.1.07.22l2.57 4.56.13.25.18.34c.05.04.16.11.33.14V30h-1.42v-.14c.14-.02.13-.07.12-.14v-.05a.74.74 0 00-.1-.28l-.58-.93zm-.26-.56l-1.68-3.1-1.56 3.1h3.24zm-31.42-2.24l.62-1.06-.1-.05c-.09.12-.15.16-.2.16a4.88 4.88 0 00-2.52-.71c-1.26 0-2.2.4-2.89 1.17-.39.5-.6 1.13-.6 1.82 0 .87.33 1.6.97 2.18.62.55 1.4.83 2.38.83.5 0 .99-.07 1.4-.2a4.54 4.54 0 001.21-.69c.07-.08.14-.1.16-.1.07 0 .14.05.21.12l.11-.1-.75-.92-.1.1c.05.09.08.16.08.2 0 .1-.12.23-.37.42-.55.41-1.17.62-1.9.62-.74 0-1.35-.23-1.86-.7a2.24 2.24 0 01-.78-1.76c0-.71.25-1.29.76-1.75a2.76 2.76 0 011.92-.67c.58 0 1.13.12 1.63.37.37.19.55.32.55.44l-.03.14-.02.07.12.07zM30 27.3v2.18c0 .12 0 .21.02.26.05.05.12.1.22.12V30h-1.26v-.14c.12-.03.19-.07.21-.12.05-.05.05-.14.05-.26v-4.96a.63.63 0 00-.05-.26.46.46 0 00-.21-.12V24h3.3c.45 0 .8.02 1.06.07s.5.14.7.26c.18.12.35.29.47.5.14.24.2.52.2.83 0 .45-.13.83-.44 1.11-.31.29-.71.46-1.26.5l1.52 2.37c.1.15.21.22.4.22V30h-1.4v-.14c.15-.03.22-.07.22-.12a.98.98 0 00-.17-.29l-1.37-2.15H30zm0-.57h2.42c.33 0 .6-.03.76-.05.16-.02.3-.07.45-.14.3-.17.45-.48.45-.88 0-.43-.17-.71-.48-.88a1.43 1.43 0 00-.45-.14 5.65 5.65 0 00-.78-.05H30v2.14zm7.17-2.26v5.06c0 .1 0 .16-.07.21-.02.05-.12.1-.21.12V30h3.16c.67 0 1.2-.1 1.61-.28.4-.2.76-.5 1.02-.95.3-.5.44-1.08.44-1.77 0-.57-.11-1.09-.33-1.54-.23-.52-.61-.9-1.08-1.15-.4-.22-.95-.31-1.66-.31H36.9v.14c.1.03.16.07.21.12.05.05.07.12.07.21zm2.88 4.94H37.9v-4.84h2.18c.47 0 .85.07 1.13.16.28.12.52.29.71.55.33.44.52 1.04.52 1.72 0 .38-.05.73-.17 1.06-.16.48-.44.83-.8 1.07-.3.19-.78.28-1.42.28zm-18.68-2.42c0-.69.23-1.23.66-1.69a2.7 2.7 0 012-.73c.32 0 .6.05.87.1l.34-.51a4.12 4.12 0 00-1.21-.16c-.58 0-1.08.1-1.5.25a2.88 2.88 0 00-1.85 2.72 2.91 2.91 0 00.96 2.19l.1.06.34-.52-.07-.07a2.18 2.18 0 01-.64-1.64zm5.8-1.1a2.63 2.63 0 00-1.08-1.32l-.35.5a2.32 2.32 0 01.96 1.96c0 .67-.22 1.21-.66 1.65-.48.48-1.17.73-2.01.73-.44 0-.8-.07-1.15-.19l-.34.5a4.57 4.57 0 003 .02 2.86 2.86 0 001.85-2.68c0-.44-.09-.82-.23-1.17zM4 31.5h48v.5H4v-.5z" fill="#fff"/></svg>