<!-- by TradingView --><svg xmlns="http://www.w3.org/2000/svg" width="56" height="56"><path fill="#F0F3FA" d="M0 0h56v56H0z"/><path d="M22.16 21.85C25.12 17.35 29 13 35.2 13a9 9 0 015.8 2.47v1.42A7.13 7.13 0 0036.06 15c-5.23 0-7.95 3.28-10.44 6.85L14.6 40H11l11.16-18.15zM41 17.86v1.77A4.9 4.9 0 0037.12 18C32.63 18 29 22.89 29 28c0 5.37 2.53 9 6.5 9a11 11 0 002.5-.26v2.45c-1.1.54-2.24.81-3.37.81C28.5 40 26 34.01 26 29.1 26 22.37 29.66 16 36.38 16c1.84 0 3.5.69 4.62 1.86zm0 4.32A2.87 2.87 0 0038.62 21c-2.7 0-4.62 3.4-4.62 6.56 0 3.16.95 4.44 3.13 4.44H38v3.53c-.79.35-1.6.47-2.38.47-3.75 0-5.62-3.75-5.62-7.81C30 23 33.56 19 37.47 19c1.66 0 2.85.68 3.53 1.61v1.57zM24.97 40h-3l3.7-6c.42 1.3.78 1.92 1.33 2.78L24.97 40z" fill="#1C2E69"/><path d="M17.5 40h3.53L26 32.06a20.3 20.3 0 010-6.03L17.5 40z" fill="#FEBF3E"/></svg>