<!-- by TradingView --><svg xmlns="http://www.w3.org/2000/svg" width="56" height="56"><path fill="#F0F3FA" d="M0 0h56v56H0z"/><circle cx="27.5" cy="27.5" r="14.5" fill="url(#acunb4xs0)"/><path d="M17.1 38.94c-.52.91-2.1 4.54.81 4.49-1.08-1.42 6.11-8.88 13.4-14 7.3-5.12 12.32-7.51 13.3-6.63.8.7-1.6 3.77-2.9 5.22 2.21-2.02 6.23-6.38 4.58-7.71-2.07-1.66-10.74 2.58-17.14 6.97-6.49 4.45-11.24 10.18-12.06 11.66z" fill="url(#bcunb4xs0)"/><path d="M17.69 45c2.32-.04 5.93-2.2 7.44-3.27-1.94 1.24-6.15 3.27-6.9 2.3-1.08-1.42 6.11-8.88 13.4-14 7.3-5.13 12.32-7.52 13.3-6.64.79.7-1.6 3.77-2.9 5.22 2.21-2.01 6.23-6.38 4.58-7.7-2.07-1.66-10.74 2.58-17.15 6.97C22.98 32.33 18.51 37.42 17.1 39c-1.44 1.6-2.3 6.05.6 6z" fill="url(#ccunb4xs0)"/><path d="M15.01 26.13c2.53-12.29 8.7-16.05 11.4-16-3.93 2.87-7.19 6.91-9.32 14.83-1.7 6.33-1.01 13.9-.45 16.89l.45 2.78c-1.02-1.37-4.12-8.6-2.08-18.5z" fill="url(#dcunb4xs0)"/><path d="M25.59 10c2.73 0 4.6 1.94 5 2.5l-3.48-.65-3.52-.22c-3.03 2.77-5.56 6.66-7.32 13.2-1.7 6.32-1.01 13.9-.45 16.89l.45 2.77c-1.01-1.37-4.11-8.6-2.08-18.49 2.54-12.3 8.7-16 11.4-16z" fill="url(#ecunb4xs0)"/><path d="M38.05 41.03c2.05-.68 1.67-3.2.99-5.06.43 3.13-.6 3.39-1.28 3.58-2.43 0-7.05-3.8-10.7-11.46-4.3-9.04-3.43-13.07-1.4-14.91.86-.78 4.22-.62 5.73.25-3.3-2.96-6.27-3.49-8.16-1.06-2.07 2.66-2.25 7.43 1.9 16.39 4.13 8.96 9.8 13.29 12.92 12.27z" fill="url(#fcunb4xs0)"/><path d="M37.86 42.12c2.56-.6 1.85-4.48 1.17-6.34.43 3.13-.8 4.3-1.48 4.5-2.97.04-6.32-2.3-11.44-11.57-5.01-9.09-3.62-14.15-1.6-16 1.63-1.47 5.35-.22 6.87.65-3.47-4.28-7.16-3.24-9.05-.45-1.89 2.79-2.25 7.43 1.9 16.38 4.13 8.96 10.44 13.6 13.63 12.83z" fill="url(#gcunb4xs0)"/><defs><linearGradient id="acunb4xs0" x1="37.06" y1="13.73" x2="16.18" y2="35.68" gradientUnits="userSpaceOnUse"><stop stop-color="#C1C2C4"/><stop offset=".29" stop-color="#D5D6D8"/><stop offset=".68" stop-color="#414244"/></linearGradient><linearGradient id="bcunb4xs0" x1="45.92" y1="19.94" x2="16.44" y2="43.71" gradientUnits="userSpaceOnUse"><stop stop-color="#2C3994"/><stop offset=".31" stop-color="#2397D9"/><stop offset=".49" stop-color="#EBF6F8"/><stop offset=".72" stop-color="#239DDB"/><stop offset="1" stop-color="#2B3897"/></linearGradient><linearGradient id="ccunb4xs0" x1="46.01" y1="20.54" x2="16.49" y2="44.5" gradientUnits="userSpaceOnUse"><stop stop-color="#2860AB"/><stop offset=".11" stop-color="#47B0E1"/><stop offset=".25" stop-color="#EEF6FC"/><stop offset=".46" stop-color="#1AA5DE"/><stop offset=".73" stop-color="#2C3995"/><stop offset="1" stop-color="#2B3897"/></linearGradient><linearGradient id="dcunb4xs0" x1="22.81" y1="10.14" x2="17.85" y2="44.63" gradientUnits="userSpaceOnUse"><stop stop-color="#1B96D2"/><stop offset=".21" stop-color="#2A3C9A"/><stop offset=".44" stop-color="#1AA0DD"/><stop offset=".63" stop-color="#ECF0FD"/><stop offset=".8" stop-color="#2689C8"/><stop offset="1" stop-color="#2B3897"/></linearGradient><linearGradient id="ecunb4xs0" x1="24.26" y1="10" x2="18.06" y2="44.49" gradientUnits="userSpaceOnUse"><stop stop-color="#1B96D2"/><stop offset=".29" stop-color="#99CAEB"/><stop offset=".79" stop-color="#1B7DBD"/><stop offset="1" stop-color="#2B3897"/></linearGradient><linearGradient id="fcunb4xs0" x1="26.43" y1="10.84" x2="38.14" y2="41.63" gradientUnits="userSpaceOnUse"><stop stop-color="#313A9F"/><stop offset=".29" stop-color="#2B3A8F"/><stop offset=".52" stop-color="#2786C9"/><stop offset=".66" stop-color="#E3F0FE"/><stop offset=".82" stop-color="#1C6CB5"/><stop offset="1" stop-color="#2B3898"/></linearGradient><linearGradient id="gcunb4xs0" x1="26.25" y1="10.48" x2="36.06" y2="42.2" gradientUnits="userSpaceOnUse"><stop stop-color="#1B96D2"/><stop offset=".27" stop-color="#E9F3FC"/><stop offset=".57" stop-color="#1B9DD9"/><stop offset="1" stop-color="#2C3A93"/></linearGradient></defs></svg>