<!-- by TradingView --><svg width="56" height="56" fill="none" xmlns="http://www.w3.org/2000/svg"><path fill="#00465A" d="M0 0h56v56H0z"/><path d="M32 24.5a.5.5 0 01.5-.5h4.018a.5.5 0 010 1H33v2h2.98a.5.5 0 110 1H33v1.998h3.518a.5.5 0 110 1H32.5a.5.5 0 01-.5-.5V24.5z" fill="#fff"/><path d="M23.5 24.5h-2v6h2a3 3 0 100-6z" stroke="#fff" stroke-linejoin="round"/><path d="M39 24.642v5.812c0 .732.99.777 1 0 .012-1.022 0-3.388 0-4.41l3 4.866c.319.217 1 .032 1-.456V24.5c0-.642-1-.642-1 0v4.484l-3-4.9c-.496-.235-1 .049-1 .558z" fill="#fff"/><path d="M46 24.5a.5.5 0 01.5-.5h4a.5.5 0 010 1H49v5.5a.5.5 0 01-1 0V25h-1.5a.5.5 0 01-.5-.5z" fill="#fff"/><path d="M24.356 18.45a.57.57 0 010 .806l-4.05 4.05a.57.57 0 11-.806-.806l4.05-4.05a.57.57 0 01.806 0zM11.306 32a.57.57 0 010 .806l-4.05 4.05a.57.57 0 11-.806-.806L10.5 32a.57.57 0 01.806 0z" fill="#BED733"/><path d="M29.5 24a.5.5 0 01.5.5v6a.5.5 0 01-1 0v-6a.5.5 0 01.5-.5zM18.675 23.958a.5.5 0 01.314.464v6.218a.5.5 0 11-1 0V30h-4.151l-.945.986a.5.5 0 01-.722-.692l5.957-6.218a.5.5 0 01.547-.118zM14.795 29h3.194v-3.333L14.796 29z" fill="#fff"/></svg>