<!-- by TradingView --><svg width="56" height="56" xmlns="http://www.w3.org/2000/svg"><path fill="url(#paint0_linear)" d="M0 0h56v56H0z"/><path d="M44.089 40.989c-1.778 0-2.832-.92-2.912-2.247h1.699c0 .442.242 1.03 1.293 1.067.729 0 1.132-.442 1.132-.774-.08-.515-.729-.552-1.374-.665-.728-.107-1.293-.256-1.699-.439-.565-.296-.89-.923-.89-1.585 0-1.18.973-2.1 2.67-2.1 1.618 0 2.67.847 2.747 2.136H45.14c0-.329-.08-.884-1.051-.884-.648 0-1.052.11-1.132.589 0 .664 1.373.628 2.425.884.97.259 1.618.884 1.618 1.771 0 1.622-1.293 2.247-2.911 2.247zM13.124 30.108l5.58-3.28 2.992 5.197h-7.52" fill="#fff"/><path d="M24.072 34.233V41h1.567v-6.767h-1.567z" fill="#fff"/><path d="M10.564 37.61c0 1.03.906 1.878 1.892 1.878a1.874 1.874 0 001.895-1.878c0-.994-.821-1.878-1.895-1.878-.986 0-1.892.884-1.892 1.878zm1.81 3.39C10.564 41 9 39.488 9 37.61c0-1.878 1.564-3.354 3.374-3.354.742 0 1.402.186 1.977.589v-.515H16V41h-1.649v-.555c-.493.37-1.235.555-1.977.555zM33.905 32.024l-7.762-13.707L31.722 15l9.703 17.024M17.974 37.61c0 1.03.81 1.878 1.86 1.878.969 0 1.861-.848 1.861-1.878 0-.994-.892-1.878-1.86-1.878-1.051 0-1.86.884-1.86 1.878zm1.78 3.39c-1.86 0-3.315-1.512-3.315-3.39 0-1.878 1.455-3.354 3.315-3.354.726 0 1.374.186 1.941.589v-2.762h1.616V41h-1.616v-.555c-.567.37-1.215.555-1.94.555zM19.674 24.25l5.66-3.242 6.227 11.015h-5.905v1.622h-1.615v-1.622M35.272 37.61c0 1.03.81 1.878 1.861 1.878.97 0 1.858-.848 1.858-1.878 0-.994-.888-1.878-1.858-1.878-1.051 0-1.86.884-1.86 1.878zM37.05 41c-1.858 0-3.313-1.512-3.313-3.39 0-1.878 1.455-3.354 3.313-3.354.728 0 1.376.186 1.94.589v-.515h1.539V41H38.99v-.555c-.565.37-1.213.555-1.941.555zM27.839 37.61c0 1.03.89 1.878 1.86 1.878 1.051 0 1.86-.848 1.86-1.878 0-.994-.809-1.878-1.86-1.878-.97 0-1.86.884-1.86 1.878zm3.72-5.527h1.616V41H31.56v-.555c-.487.37-1.135.555-1.86.555a3.399 3.399 0 01-3.396-3.39c0-1.878 1.535-3.354 3.395-3.354.726 0 1.374.186 1.86.589v-2.762z" fill="#fff"/><defs><linearGradient id="paint0_linear" x1="10.418" y1="9.712" x2="68.147" y2="76.017" gradientUnits="userSpaceOnUse"><stop stop-color="#1A1E21"/><stop offset="1" stop-color="#06060A"/></linearGradient></defs></svg>