<!-- by TradingView --><svg width="56" height="56" xmlns="http://www.w3.org/2000/svg"><path fill="#0061AA" d="M0 0h56v56H0z"/><path d="M29.045 37H23V19h6.045C34.162 19 38 22.822 38 27.988 38 33.154 34.162 37 29.045 37zm0-14.076h-2.157v10.128h2.157c2.96 0 5.067-2.051 5.067-5.064s-2.108-5.064-5.067-5.064z" fill="#fff"/><path d="M38.46 37V23.004H33V19h15v4.004h-5.512V37H38.46z" fill="#fff"/><path d="M47.796 18.689v3.781h-5.355v13.85h-3.928V22.47h-5.311V18.69h14.596-.002zM48.5 18h-16v5.15h5.311V37h5.326V23.15h5.357V18h.006z" fill="#0061AA"/><path d="M21.834 37l-.957-1.833h-7.73L12.165 37H7l10.013-19L27 37h-5.166zm-3.292-6.244l-1.53-2.916-1.556 2.916h3.086z" fill="#fff"/><path d="M17.233 18.527l9.324 17.779h-4.323l-.95-1.823h-8.1l-.975 1.823H7.886l9.347-17.779zM15.11 30.793h4.225l-2.1-4.008-2.125 4.008zM17.235 17l-.636 1.212L7.25 35.99 6.71 37h5.919l.204-.375.776-1.447h7.227l.75 1.441.205.381h5.919l-.529-1.01-9.31-17.778L17.234 17zm-.953 13.089l.95-1.785.938 1.785h-1.888z" fill="#0061AA"/></svg>