<!-- by TradingView --><svg xmlns="http://www.w3.org/2000/svg" width="56" height="56"><path fill="#F0F3FA" d="M0 0h56v56H0z"/><path d="M12 25.23a.12.12 0 00-.03-.1l-.18-.04V25h2.48c1.4 0 2.05.85 2.05 1.98 0 .26-.04.53-.13.77-.26.72-.93 1.25-1.99 1.25h-2.4v-.1c.1 0 .15-.02.18-.04a.12.12 0 00.03-.09v-3.54zM14.08 28c.7 0 1.12-.32 1.12-1.02 0-.68-.45-.98-1.13-.98H13v2h1.08zm6.99.9c.07 0 .12-.04.12-.07l-.06-.15-.16-.34c-.39-.92-.85-1.85-1.24-2.77a19.82 19.82 0 01-.2-.43.13.13 0 00-.09-.05V25h1.37v.1c-.06 0-.1.01-.12.03a.07.07 0 00-.03.06l.03.1.15.3.3.68.57 1.24.54-1.22.3-.68a4.33 4.33 0 00.17-.44c0-.02 0-.04-.02-.05-.01-.02-.04-.02-.09-.03V25h1.3v.1a.38.38 0 00-.07.02c-.01.01-.03.03-.04.07 0 .03-.04.1-.09.22l-.18.43-.25.57-.27.64-.27.66a111.66 111.66 0 00-.45 1.12c0 .05.03.07.1.07v.1h-1.32v-.1zm13.43.01c.05 0 .1-.04.17-.13l1.5-1.87-1.37-1.72a.3.3 0 00-.1-.07.2.2 0 00-.07-.02V25h1.62v.1l-.13.01c-.03.01-.05.04-.05.08l.1.15.64.77.64-.77.1-.14c0-.05-.03-.07-.06-.08a.34.34 0 00-.1-.02V25h1.65v.1a.25.25 0 00-.2.08l-1.39 1.73 1.59 1.96c.01.02.03.03.06.04h.08v.1h-1.63v-.1c.1 0 .14-.01.14-.04 0-.02-.02-.06-.07-.13-.17-.25-.81-1.03-.81-1.03l-.67.84a3.6 3.6 0 00-.19.27c0 .04.03.07.07.08h.12v.1H34.5v-.09zm8.29 0c.1 0 .15-.02.18-.05a.12.12 0 00.03-.08v-3.55a.12.12 0 00-.03-.09.48.48 0 00-.18-.04V25h1.42v.09a.39.39 0 00-.18.05.12.12 0 00-.03.09v3.54c0 .04.01.07.03.1l.18.04V29H42.8v-.09zm5.79-1.45l-.02.16c0 .05.05.1.13.17a2.82 2.82 0 001.33.37c.35 0 .6-.05.77-.14.16-.09.24-.21.24-.38 0-.09-.07-.15-.21-.19a3.58 3.58 0 00-.53-.08l-.69-.08a3.21 3.21 0 01-.68-.14 1.38 1.38 0 01-.53-.32.75.75 0 01-.22-.56 1.1 1.1 0 01.46-.91 2.15 2.15 0 011.23-.36 4.17 4.17 0 011.19.15 8.29 8.29 0 01.62.16c.05 0 .09-.01.11-.04a.48.48 0 00.08-.08l.08.03-.48 1.05-.08-.05v-.08c0-.05-.05-.1-.14-.14a3.89 3.89 0 00-1.3-.25c-.3 0-.51.04-.63.11-.12.08-.18.16-.18.24 0 .09.04.15.12.2a5.95 5.95 0 00.78.14 8.44 8.44 0 011.06.15c.17.04.32.1.46.2.13.08.24.2.32.34.09.14.13.32.13.53 0 .17-.03.33-.1.49-.05.16-.16.3-.3.43-.16.13-.36.23-.61.3a5.36 5.36 0 01-2.23-.03 3.67 3.67 0 01-.35-.11.57.57 0 00-.19-.06.1.1 0 00-.07.03l-.07.07-.08-.02.5-1.33.08.03zM5.28 28.9c-.02-.02-.02-.04-.02-.07v-.04l.01-.02a13.36 13.36 0 01.29-.76L7.45 28a119.1 119.1 0 00.32.82c0 .05-.05.08-.14.09V29H9v-.1a.14.14 0 01-.11-.04.75.75 0 01-.1-.18l-.14-.34-.13-.33a140.03 140.03 0 00-1.07-2.62 1.75 1.75 0 01-.08-.2c0-.04.02-.07.04-.08a.4.4 0 01.1-.02V25H5.48v.1l.1.01c.04.01.05.03.05.06l-.05.16a33.31 33.31 0 01-.74 1.77 31.1 31.1 0 00-.65 1.63.36.36 0 01-.07.13.24.24 0 01-.12.05V29h1.4l-.01-.1h-.1zm1.9-1.5H5.8l.7-1.69.69 1.69zm20.6 1.5c-.02-.02-.02-.04-.02-.07v-.04l.01-.02a11 11 0 01.29-.76l1.89-.01a118.27 118.27 0 00.32.82c0 .05-.05.08-.14.09V29h1.37v-.1a.14.14 0 01-.11-.04.75.75 0 01-.1-.18l-.14-.34-.13-.33-.44-1.06a95.56 95.56 0 01-.7-1.76c0-.04 0-.07.03-.08a.4.4 0 01.1-.02V25h-2.03v.1l.1.01c.04.01.05.03.05.06l-.05.16c-.14.38-.37.91-.59 1.41l-.15.36a31.05 31.05 0 00-.65 1.63.36.36 0 01-.07.13.24.24 0 01-.12.05V29h1.39v-.1h-.1zm1.9-1.5H28.3l.7-1.69.69 1.69z" fill="#F68729"/><path d="M11.49 32.77l-.77-1.35V33h-.37v-2h.58l.66 1.22.66-1.22h.58v2h-.37v-1.58l-.76 1.35h-.21zM9 31h.37v2H9v-2zm5.2.43l.76 1.33h.21l.77-1.34V33h.37v-2h-.58l-.66 1.21L14.4 31h-.57v2h.37v-1.57zm4.9-.43v1.13a.8.8 0 01-.25.64.97.97 0 01-.66.23 1 1 0 01-.67-.22.78.78 0 01-.27-.63V31h.38v1.1c0 .19.05.33.15.44.1.1.23.15.4.15.18 0 .31-.05.4-.15.1-.1.15-.24.15-.42V31h.37zm2.53 0v1.51L20.37 31H20v2h.37v-1.47L21.6 33h.4v-2h-.37zm3.22 1.7c-.22.2-.5.3-.82.3-.33 0-.6-.1-.82-.29a.9.9 0 01-.34-.7c0-.3.1-.53.33-.72.22-.2.52-.29.82-.29.33 0 .6.1.83.28a.9.9 0 01.33.72.9.9 0 01-.33.7zm-.28-1.2a.79.79 0 00-.55-.2c-.21 0-.4.07-.55.2a.65.65 0 00-.22.5c0 .2.08.36.23.5.15.13.33.2.55.2a.8.8 0 00.55-.2c.15-.14.22-.3.22-.5s-.08-.36-.23-.5zm2.28 1.5v-1.7h.67V31h-1.7v.3h.66V33h.37zm1.5 0v-2h.37v.84h1.09V31h.37v2h-.37v-.85h-1.09V33h-.37zm4.37-1.7V31H31.2v2h1.58v-.3h-1.22v-.6h1.06v-.28h-1.06v-.51h1.17zm2.67.32c0 .32-.15.52-.47.6l.58.78h-.49l-.51-.7H34v.7h-.38v-2h.84c.67 0 .93.19.93.62zm-.38 0c0-.25-.13-.33-.53-.32H34v.7h.47c.42 0 .54-.12.54-.38zM38.37 33l-.98-2h-.35l-.96 2h.37l.23-.5h1.05l.27.5h.37zm-1.16-1.55l.38.74h-.75l.37-.74zm3.27-.28c.16.1.23.28.23.51 0 .24-.07.41-.23.52-.15.1-.4.16-.72.16h-.4l.01.64H39v-2h.75c.34 0 .58.05.73.17zm-.26.8c.08-.07.11-.18.11-.31s-.04-.23-.14-.28a.91.91 0 00-.44-.08h-.38v.77h.43c.21 0 .35-.04.42-.1zM42 31h-.37v2H42v-2zm2.54 0v.3l-1.17.01v.51h1.06v.29h-1.06v.58h1.22V33H43v-2h1.54zm1.2.54a.2.2 0 01.1-.17.45.45 0 01.26-.07c.22 0 .42.06.6.18l.21-.26c-.24-.15-.5-.22-.8-.22-.22 0-.4.05-.54.16a.48.48 0 00-.21.41c0 .17.06.3.2.39.06.04.13.08.22.1.08.04.2.07.37.1.16.04.27.07.34.11.06.05.1.1.1.18 0 .07-.04.13-.1.18a.52.52 0 01-.3.07c-.23 0-.46-.09-.68-.26l-.23.25c.26.2.57.31.9.31.24 0 .43-.05.58-.16.14-.1.21-.24.21-.41 0-.17-.06-.3-.17-.38a1.3 1.3 0 00-.5-.2c-.23-.05-.38-.1-.45-.14a.19.19 0 01-.1-.17z" fill="#4D95DD"/></svg>