<!-- by TradingView --><svg width="56" height="56" xmlns="http://www.w3.org/2000/svg"><path fill="#0069B4" d="M0 0h56v56H0z"/><path d="M14.103 33l.438-1.696h3.504L19 34.336 8.05 38 4 25.17 16.462 21l.629 2h-1.793L12.43 33h1.673zm2.232-7.23L17.612 30h-2.555l1.278-4.23z" fill="#fff"/><path d="M31.81 26.478c-.183-.762-.734-1.819-2.18-1.819-1.74 0-2.462 1.685-2.462 3.34 0 1.658.723 3.343 2.462 3.343 1.163 0 2.217-.842 2.217-2.342h-1.848v-1.442h3.342V33h-1.42v-1.057c-.576.71-1.532 1.056-2.291 1.056-2.793 0-4.177-2.313-4.177-5 0-2.686 1.568-4.999 4.177-4.999 1.776 0 3.05.976 3.711 2.794l-1.53.684zM42.908 28c0 2.687-1.6 5-4.265 5-2.66 0-4.26-2.313-4.26-5 0-2.686 1.6-5 4.26-5 2.665 0 4.265 2.314 4.265 5zm-6.775 0c0 1.658.739 3.343 2.51 3.343 1.776 0 2.514-1.685 2.514-3.344 0-1.655-.738-3.34-2.514-3.34-1.771 0-2.51 1.685-2.51 3.34zM25 31.257h-4.591v-2.584h3.59V27h-3.59v-2.258h4.59V23h-6.308v4.722L20.256 33H25v-1.743zM49.436 23v6.76L45.633 23H44v10h1.564v-6.857L49.424 33H51V23h-1.564zM45 35H21l.296 1H45v-1z" fill="#fff"/></svg>