<!-- by TradingView --><svg xmlns="http://www.w3.org/2000/svg" width="56" height="56"><path fill="#054899" d="M0 0h56v56H0z"/><path d="M19.66 7.31c-.74 1.75-.64 6.1 5.69 9.48l.78.4c1.81.9 4.67 2.34 4.69 4.2.02 2.17-.72 1.3-1.1.6-.3-.45-1.04-1.21-1.44-.6-.07.11-.1.46.27.99.48.66.84 2.16.28 3.12-.55.96-4.25 6.04-7.31 7.5l-.03.02a21.94 21.94 0 01-6.47 2.23 14 14 0 017.8-18.26l-.93-.7a15 15 0 1011.39-.34l.4 1.25a14 14 0 01-1.52 26.17c1.38-5.56.13-6.98-.54-7.02-.66-.04-1.86.8-2.61 1.31l-.18.12c-.58.4-.43-.16-.28-.5.67-1.2 2.06-3.97 2.27-5.42.2-1.46 1.62-1.2 2.3-.9 2.12 1.3 3.7 1.56 4.23 1.52 1.99-.42 1.25-1.55.63-2.05-3.47-2.75-3.8-5.44-4.12-7.97-.12-.93-.24-1.84-.5-2.72-.87-2.9-3.39-4.35-5.97-5.85l-1.06-.62c-2.34-1.4-1.63-4.76-.98-6.27-.39.2-1.2 1.16-1.39 3.48-.19 2.33 2.98 4.82 4.6 5.77 0 0 .12.13 0 .24-.06.04-.28 0-.28 0-7.07-1.83-8.7-6.88-8.62-9.18zm4.38 35.79c.63-.05 2.2-.47 3.52-1.75l.83-.83c.83-.84.99-1 2.11-1.6l.02-.01c.27-.14.6-.32.61.01.02.43.09 2.99-.36 3.96-.47 1.03-3.9 1.19-6.73.22zm11.63-13.83c-.49-.35-1.44-1.2-1.32-1.68.13-.6 1.24 1.4 1.32 1.68z" fill="#fff"/></svg>