<!-- by TradingView --><svg width="56" height="56" xmlns="http://www.w3.org/2000/svg"><path fill="#1C4480" d="M0 0h56v56H0z"/><path d="M15 25c-.495 4.529-2.738 12.248-4 15h29c-.592-.717-1.928-2.551-2.149-4.15-.22-1.597-1.472-4.743-2.07-6.116 0-1.765 1.756-2.458 2.634-2.583.073.014.62.034 2.232 0s2.739-.742 3.101-1.151l-5.897.031c-1.415.313-1.756.342-2.07.17 0-.58 1.059-1.011 1.588-1.154 2.457-.668 4.981-.415 5.937-.206v-.836h.442c0 .665.763.972 1.145 1.042h.808c.135 0 .555.556.748.835 1.906-5.54-1.588-6.788-3.573-6.882h-4.243v1.116c-1.415 0-1.712 1.657-1.675 2.014.03.286-.559.815-.856 1.043v-.81c-.775.41-1.696 1.158-1.803 1.034-.107-.124.538-.907.865-1.624-1.49.26-2.476-1.112-2.782-1.773-.736.582-2.386 1.047-2.38.796.007-.252 1.495-1.585 2.128-1.796H38c.298-2.15-1.405-2.94-2.22-3H23c-3.737 2.87-6.713 7.161-8 9z" fill="#fff"/></svg>