<!-- by TradingView --><svg width="56" height="56" xmlns="http://www.w3.org/2000/svg"><path fill="#013870" d="M0 0h56v56H0z"/><path d="M42.723 19.094c1.374 0 3.055-.473 3.666-1.104-.611 1.104-1.375 1.892-3.36 2.522-.612.316-.612.63.152.63s1.68-.63 1.986-.787c-.458.63-.764 1.26-2.75 1.576-.458.158-.305.788.764.315-.305.316-.764.473-1.222.63-.611.159-.458.631.611.474-.611.473-1.375.473-1.833.63-.458.158-.153.63.916.473-.458.316-.763.473-1.833.473-.153 0-.153 0-.305.158-.764.157-1.68.315-2.139.788-.764.788-1.375 2.837-1.833 4.098-.458 1.262-2.597 4.887-5.347 4.414.153.316.306.788.459.946.305.788 1.069 2.837 2.902 4.099 1.528.945 2.291 1.418 2.291 2.364 0 .473-.152.315-.458.315-.305 0-.61 0-.61.316 0 .315-.306.473-.612.315-.305-.158-.61 0-.764.315-.152.316-.152.158-.458.158-.305 0-.458 0-.61.157-.154.158-.46.158-.765 0-.305-.157-.458-.157-.764 0-.305.158-.458-.157-.763-.315-.153-.157-.306-.315-.611-.157-.306.157-.459-.158-.611-.316-.153-.157-.306-.315-.459-.315-.305 0-.61-.158-.764-.63 0-.316-.305-.473-.458-.473-.305 0-.458.157-.458-.158-.153-.158 0-.473.305-.788.306-.316.764-.946.764-1.577 0-.473-1.07-.315-1.07 1.104-.152 0-.305-.158-.305-.315-.305.472-.458 1.103-.305 1.418-.153-.157-.306-.473-.306-.473s-.763.63-.916 1.42c-.153-.79-.459-.474-.459-.474l-.152.158c-.153.473 0 .946.152.946.153 0 .459.157.764.315.153.315.459.788 0 1.261.153-.315 0-.63-.152-.63-.459.157-.917-.316-1.07-.473-.152-.158-.764 0-1.07 0-.305.157-.763.473-.763.945-.153-.157-.458-.63-.153-.945-.152 0-.61.315-.61.473-.153-.158-.306-.473 0-.789-.153 0-.612.158-.612.473-.764-.946 1.222-1.26 1.68-1.26 0-.158-.152-.316-.305-.474-.305 0-.764-.315-.916-.473-.764-.473-1.375-.315-1.375 0-.153-.157-.306-.473.152-.788-.305-.157-.458 0-.763.315 0 0 0-.63.458-.788-.153-.157-.764-.157-.916.158.458-1.261 1.985-.158 2.444.157.458.158.763-.472.763-1.103.153-.473.153-.63.306-.946.153-.157.153-.315.153-.315 0-.158.152-.158.152-.158.153-.157.153-.473.306-.788.305-.946.764-2.207 0-2.995a1.757 1.757 0 00-1.833-.473c-.306 0-.764.158-1.222.315-.306.158-.764.316-.917.316-.152-.158 0-.316.153-.473-.306-.158-.611.157-.611.788-.611-.788-.458-1.576 0-1.892-.458-.788.458-1.576 1.222-1.891.611-.316 2.139-.63 1.68-1.734-.305-.63-.61-1.261-1.222-1.892-.916-.946-2.138-1.734-3.208-2.364-1.069-.631-2.138-.946-3.208-1.42-.305-.157-.61-.314-.763-.472.458.158 1.069 0 .61-.158-.458-.315-1.069-.788-1.374-1.26.61.314 1.07.314.764 0-.459-.316-1.223-.947-1.528-1.735.458.473 1.375.788 1.07.473-.306-.315-2.14-2.05-1.223-5.044.153 1.734.459 1.891.611 2.05-.305-1.893 0-3.469.306-3.942 0 1.734.305 2.207.61 2.68-.305-1.892.306-3.153.612-3.468-.306 2.05-.153 4.256 1.833 5.36v-.789s0 .473.611.946c.458.473 2.597 1.734 3.972 2.995 1.527 1.104 2.597 2.365 3.513 4.256.917 1.892 1.833 3.784 2.75 4.257 0 0 2.291 0 3.36-5.045.459-1.891 2.14-4.886 5.347-6.148 2.597-.945 5.958-2.837 6.874-4.256 0 .788-.458 1.892-1.222 2.523 1.528-.473 3.514-2.05 4.125-3.31-.153 1.418-1.528 3.31-3.055 4.098 2.291-.63 4.277-2.365 4.888-3.468.153 1.26-1.833 3.625-3.055 4.098 1.527-.315 2.75-.788 3.666-1.734-.611 1.104-1.68 2.522-4.277 3.31zM23.475 40.217c0-.316-.764 0-1.07.473.153.157.459.473.306.788.153.157.153.473.153.473.611-.158.611-1.419.611-1.734z" fill="#fff"/></svg>