<!-- by TradingView --><svg width="56" height="56" xmlns="http://www.w3.org/2000/svg"><path fill="#F15D22" d="M0 0h56v56H0z"/><path d="M16.138 23a.11.11 0 00-.107.092l-2.029 9.77a.118.118 0 00.023.096c.02.027.052.042.085.042h5.305a.11.11 0 00.108-.09l.106-.771a.112.112 0 00-.02-.095.108.108 0 00-.086-.044h-3.549c.048-.246.798-3.834.83-4h3.033c.053 0 .097-.04.108-.093l.193-.77a.087.087 0 00.002-.021.118.118 0 00-.025-.075.114.114 0 00-.085-.041H17c.047-.244.648-2.835.681-3h3.366a.114.114 0 00.108-.092l.153-.771c.003-.008.003-.015.003-.022a.124.124 0 00-.025-.074A.108.108 0 0021.2 23h-5.062zM48.641 23h-2.01c-.046 0-.087.039-.095.092l-1.534 9.771a.119.119 0 00.02.095.09.09 0 00.077.042h1.43c.046 0 .085-.038.095-.091 0 0 .646-4.735.678-4.909h.427c.878 0 1.875.084 2.701-.356 1.543-.751 1.58-2.306 1.569-2.611-.026-.886-.488-1.513-1.336-1.812C50.023 23 49.29 23 48.642 23zm.12 1c.752 0 1.556.045 1.585 1.015v.061c0 .642-.288 1.346-.845 1.662-.454.262-1.115.262-1.6.262h-.438c.042-.245.52-2.832.55-3h.748zM34.966 23c-1.278.037-2.416.593-3.295 1.612a6.859 6.859 0 00-1.668 4.671c.054 1.708.953 3.708 3.304 3.717h1.298a.06.06 0 00.054-.034l.483-.862a.078.078 0 000-.067c-.012-.022-.032-.036-.054-.036h-1.564c-1.443 0-1.971-1.253-2.018-2.718-.058-1.836.595-3.192 1.551-4.273.577-.652 1.423-1 2.176-1l2.545-.003c.029 0 .055-.022.061-.052l.16-.875a.076.076 0 00-.013-.055.061.061 0 00-.049-.025h-2.971zM9.69 23a.067.067 0 00-.055.034l-5.626 9.863a.07.07 0 000 .067c.011.021.032.036.054.036h1.37a.065.065 0 00.056-.036l2.069-3.888h2.92l.697 3.868c.006.032.032.056.063.056h1.698c.02 0 .038-.01.05-.027.012-.016.017-.037.012-.056l-2.166-9.863a.065.065 0 00-.063-.054H9.69zm-.028 2.093c.062.308.562 2.764.59 2.907-.136.004-1.876-.006-2.073 0 .098-.185 1.338-2.632 1.483-2.907zM23.117 23a.119.119 0 00-.117.092l-1.998 9.77a.117.117 0 00.117.138h1.702a.119.119 0 00.117-.092s.933-4.746.97-4.92h.438c.068.107 2.361 4.957 2.361 4.957.02.034.06.055.1.055h1.826a.12.12 0 00.104-.06.108.108 0 00.014-.054.118.118 0 00-.018-.064s-2.406-4.762-2.593-5.039c2.076-.318 2.996-1.578 2.996-2.745 0-.027 0-.054-.003-.08C29.071 23.054 26.651 23 25.112 23h-1.995zm2.105.963c1.088 0 1.924.075 1.96 1.02v.052c0 .371-.126 1.055-.611 1.515-.545.544-1.321.45-2.071.45h-.403c.05-.247.624-2.869.659-3.037h.466zM40.874 23a.112.112 0 00-.093.057l-4.767 9.77a.126.126 0 000 .116.11.11 0 00.096.057h1.187c.04 0 .075-.022.094-.057 0 0 1.697-3.83 1.757-3.943h2.39l.69 3.907a.11.11 0 00.106.093h1.558a.104.104 0 00.084-.043.12.12 0 00.022-.096L42 23.089a.11.11 0 00-.107-.089h-1.019zm0 1.885c.091.451.398 2.892.443 3.115h-1.752c.145-.272 1.094-2.707 1.31-3.115z" fill="#fff"/></svg>