<!-- by TradingView --><svg width="56" height="56" xmlns="http://www.w3.org/2000/svg"><path fill="#F0F3FA" d="M0 0h56v56H0z"/><path d="M37.8 14.046c-7.483-4.673-16.918-1.921-20.314 1.417 0 0 8.49-6.603 18.677 1.444 3.87 3.057 6.73 9.657 6.185 16.095-.61 6.302-2.74 8.558-2.74 8.558s3.54-3.48 4.74-8.022c1.659-6.266-.422-15.667-6.548-19.492z" fill="#144379"/><path d="M38.09 14.233c-9.134-6.168-17.118-2.207-20.5 1.14 0 0 8.924-6.66 19.074 1.41 3.855 3.065 7.045 9.346 6.502 15.802C42.558 38.905 38.272 43 38.272 43s4.625-4.02 6.162-9.759c1.681-6.276-.372-14.975-6.343-19.008z" fill="#6EB9E6"/><path d="M24.99 39.338c4.99 0 9.038-2.89 9.038-6.456 0-3.338-3.548-6.085-8.098-6.42.297-.023.599-.035.904-.035 4.992 0 9.038 3.13 9.038 6.993 0 3.863-4.046 6.994-9.038 6.994-2.354 0-4.498-.697-6.106-1.837 1.27.485 2.72.76 4.261.76z" fill="#144379"/><path fill-rule="evenodd" d="M26.834 44c7.64 0 13.834-4.737 13.834-10.58s-6.193-10.58-13.834-10.58C19.194 22.84 13 27.578 13 33.42S19.194 44 26.834 44zm0-3.586c4.992 0 9.039-3.131 9.039-6.994 0-3.862-4.047-6.993-9.039-6.993-4.991 0-9.038 3.131-9.038 6.993 0 3.863 4.047 6.994 9.038 6.994z" fill="#6EB9E6"/></svg>