<!-- by TradingView --><svg width="56" height="56" fill="none" xmlns="http://www.w3.org/2000/svg"><path fill="#51ADFB" d="M0 0h56v56H0z"/><path fill-rule="evenodd" clip-rule="evenodd" d="M28.787 10.041c.736.681 1.67 2.016 2.698 3.782 1.049 1.803 2.165 4.003 3.231 6.288 2.134 4.575 4.045 9.45 4.798 12.115l.071.248c.125.434.255.888.335 1.344.097.547.108 1.03-.017 1.417-.109.337-.337.562-.75.68-.445.125-1.103.121-2.003-.078-1.795-.397-4.352-1.524-7.618-3.475a.504.504 0 00-.69.172.499.499 0 00.173.686c3.296 1.969 5.963 3.162 7.917 3.594.973.215 1.82.254 2.495.063.706-.2 1.212-.65 1.433-1.335.199-.616.157-1.29.05-1.897-.09-.513-.237-1.025-.362-1.458v-.002a48.18 48.18 0 01-.066-.23c-.774-2.739-2.71-7.669-4.854-12.266-1.074-2.301-2.204-4.53-3.273-6.367-1.06-1.821-2.09-3.312-2.968-4.09a.902.902 0 00-1.24.03c-.459.455-.998 1.212-1.582 2.152a59.085 59.085 0 00-1.936 3.416c-1.38 2.6-2.905 5.753-4.325 8.798A433.425 433.425 0 0015.15 35.14l-.11.256.925.392-.925-.391a.503.503 0 00.925.391l.11-.254.312-.725a447.973 447.973 0 014.83-10.76c1.415-3.038 2.933-6.174 4.3-8.752a58.044 58.044 0 011.902-3.357c.544-.873 1.007-1.519 1.367-1.899zM18.104 39a.2.2 0 00-.184.122l-1.896 4.46A.3.3 0 0016.3 44h.175a.2.2 0 00.184-.122l.437-1.028h2.382l.45 1.028a.2.2 0 00.184.122h.175a.3.3 0 00.276-.417l-1.909-4.461A.2.2 0 0018.47 39h-.366zm.183 1.048l-.893 2.102h1.787l-.894-2.102zM23.402 39a.3.3 0 00-.3.3v4.4a.3.3 0 00.3.3h2.45a.3.3 0 00.3-.3v-.1a.3.3 0 00-.3-.3h-2.05v-1.45h2.05a.3.3 0 00.3-.3v-.1a.3.3 0 00-.3-.3h-2.05V39.7h2.05a.3.3 0 00.3-.3v-.1a.3.3 0 00-.3-.3h-2.45zm6.822 4.804a.3.3 0 00.282.196h.332a.3.3 0 00.281-.196l1.619-4.4a.3.3 0 00-.282-.404h-.18a.2.2 0 00-.188.132l-1.416 3.895-1.416-3.895a.2.2 0 00-.189-.132h-.18a.3.3 0 00-.281.404l1.618 4.4zm6.13-4.615a.3.3 0 01.28-.189h.35a.3.3 0 01.279.19l1.746 4.4a.3.3 0 01-.278.41h-.18a.2.2 0 01-.186-.127l-.461-1.173h-2.19l-.461 1.173a.2.2 0 01-.186.127h-.18a.3.3 0 01-.279-.41l1.747-4.4zM37.63 42l-.82-2.088-.82 2.088h1.64z" fill="#fff"/></svg>