<!-- by TradingView --><svg width="56" height="56" xmlns="http://www.w3.org/2000/svg"><path fill="#E31B23" d="M0 0h56v56H0z"/><path d="M48.508 30.62c-2.46-.191-.398-1.34-3.815-1.792-8.316-1.101-13.752 2.12-12.181-.859.49-.93.658-1.133 1.22-2.244.89-1.764.934-3.392-1.778-4.07-9.902-2.471-27.262 3.354-28.373 3.685 0 0-.272.098-.428.168-.428.192.177.097.177.097 4.34-1.12 15.219-3.62 22.393-3.447 6.87.166 9.052 1.001 6.42 5.485-1.872 3.187-.017 2.718.732 2.607 6.63-.981 12.717-.986 13.061.055.267.804 2.224.968 2.285.976 1.31.16 2.228.515 1.641 1.47-2.794-.419-6.452.608-8.021 2.005-.095.084.002.083.066.047 2.566-1.427 7.999-1.92 8.2-1.113 1.599-1.992 1.041-2.865-1.599-3.07z" fill="#fff"/></svg>