<!-- by TradingView --><svg width="56" height="56" xmlns="http://www.w3.org/2000/svg"><path fill="#19245D" d="M0 0h56v56H0z"/><path d="M28.284 17.03l1.413.539 1.086-.626-.076-.237-2.501.085.078.239zM39 32.692v-4.794C39 25.249 37.699 24 35.858 24c-1.677 0-2.733 1.103-3.43 2.358h-.04C31.876 24.83 31.026 24 29.697 24c-1.491 0-2.42.865-2.697 2-.02-.594-.547-1-1.163-1H23.85l.78-1.65 2.077-5.227c.731-1.58 1.657-2.264 2.533-2.423 1.434-.186 1.832.333 1.832.333l.547.66c.637.01 2.892.17 3.224 1.2.331 1.029-.713 1.207-.713 1.207s.27-.609-.2-.827c-.47-.218-2.692.467-2.692.467s.403.396 1.414.014a.927.927 0 01.947.149l-.168.82s2.386-.358 1.878-1.933c-.57-1.77-3.39-1.717-3.39-1.717l-.635-.732s-1.556-.746-3.486-.032c-1.724.814-3.302 3.986-4.528 6.832l-.3.691L22.096 25h-6.468l-.22.55 6.458-.017-2.438 5.538c-2.387 5.557-2.936 7.392-4.222 6.99-.695-.218-1.336-1.296-1.87-1.463-.563-.176-1.285.352-1.331.524-.07.261.627 1.451 1.645 1.77.937.292 2.267-.014 3.33-.84 1.354-1.052 2.33-2.314 3.734-5.606l2.907-6.896.781-.017c.598.017.598.88.598 2.365v2.488c0 3.196-.113 3.497-.257 3.817-.327.205-.426.286-1.122.286H23V35h4v-7.385c0-1.233.932-2.615 2.384-2.615C31.184 25 31 26.313 31 28.46v1.574c0 3.562.078 3.974-.066 4.294-.327.204-1.237.272-1.934.272v.4h6v-.4c-.696 0-1.548 0-1.813-.273-.143-.32-.187-.731-.187-4.384v-2.328c0-1.233.905-2.615 2.358-2.615 1.8 0 1.642 1.313 1.642 3.46v4.8c0 1.597 1.673 1.74 5.668 1.74l.332-.4c-3.313 0-4-.447-4-1.908z" fill="#fff"/></svg>