<!-- by TradingView --><svg xmlns="http://www.w3.org/2000/svg" width="56" height="56"><path fill="#7A99AD" d="M0 0h56v56H0z"/><path d="M4.38 28.52A7.1 7.1 0 0017.68 32h.46a7.5 7.5 0 11-6.66-11 7.5 7.5 0 016.66 4h-.45a7.1 7.1 0 00-13.3 3.52zM16.3 30.8l.2.2h-.9s.06-.17.02-.29l-.88-2.15h-2.26l-.88 2.14c-.1.22.1.3.1.3H11s.25-.1.35-.32l2.12-5.22-.07-.15.34-.61 2.56 6.1zm-2.7-5l-1 2.47h2.02L13.6 25.8zm36.1 2.76a8.87 8.87 0 001.28 1.66c.22.24.7.7 1.02.71 0 0-.7.33-1.48-.41 0 0-.58-.47-1.47-1.8h-.47v2.05c0 .1.1.23.1.23h-.79s.11-.12.11-.23v-4.54c0-.1-.1-.23-.1-.23H49c.8 0 1.57.5 1.57 1.32 0 .27-.15.93-.86 1.24zm-1.12-.08h.4c.42 0 1.04-.42 1.03-1.16-.02-.45-.4-1.1-1.04-1.1h-.4v2.26zm-11.02 2.3h-1.24V28.7h1.2c.16 0 .2.17.2.17v-.6s-.05.18-.2.18h-1.2v-2.22h1.2c.16 0 .2.18.2.18V26h-2.08s.11.12.11.22v4.55c0 .1-.11.22-.11.22h2.1l.12-.4-.05.03c-.05.06-.15.15-.25.15zm7.6 0h1.25c.1 0 .2-.1.25-.15.02-.02.04-.04.05-.03l-.11.4h-2.11s.1-.12.1-.22v-4.55c0-.1-.1-.23-.1-.23h2.07v.4s-.03-.17-.18-.17h-1.22v2.22h1.22c.14 0 .18-.17.18-.17v.59s-.03-.17-.18-.17h-1.22v2.08zm-11.55-4.55c0-.1.08-.23.08-.23h-.8s.12.12.12.2L31.47 30l-1.56-3.77c-.04-.1 0-.23 0-.23h-.72c.1.07.25.24.23.36l-.43 4.4a.3.3 0 01-.16.24h.52s-.16-.07-.14-.22l.37-3.94 1.7 4.16 1.8-4.36.39 4.15c0 .1-.1.21-.1.21h.8s-.1-.12-.12-.22l-.44-4.55zM26.35 26h.77s-.1.13-.12.23v4.55c0 .1.12.22.12.22h-.77s.1-.12.1-.22v-4.55c0-.1-.1-.23-.1-.23zm-5.7.4s.04-.19.2-.19h1.6v4.56c0 .09-.11.23-.11.23h.77s-.11-.12-.11-.23v-4.56h1.62c.15 0 .19.2.19.2V26h-4.15v.4zm18.54-.19c-.16 0-.19.2-.19.2V26h4.15v.4s-.03-.2-.19-.2h-1.62v4.57c0 .1.11.22.11.22h-.77s.11-.14.11-.22V26.2h-1.6zm-19.47 4.56h-1.38v-4.54c0-.07.06-.17.1-.23h-.76c.04.06.1.16.1.23v4.54c0 .07-.05.15-.1.21V31h2.23l.11-.4c-.08.07-.2.17-.3.17z" fill="#fff"/></svg>