<!-- by TradingView --><svg xmlns="http://www.w3.org/2000/svg" width="56" height="56"><path fill="#F0F3FA" d="M0 0h56v56H0z"/><path d="M25.5 15.78a1.45 1.45 0 112.9-.34l1.49 12.78a1.45 1.45 0 01-2.89.33l-1.5-12.77z" fill="url(#ar0gqoxzv)"/><path d="M35.65 18.4a1.45 1.45 0 012.73 1l-3.54 9.68a1.45 1.45 0 11-2.73-1l3.54-9.68z" fill="url(#br0gqoxzv)"/><path d="M41.37 25.45a1.45 1.45 0 012.15 1.96l-4.07 4.47a1.45 1.45 0 01-2.15-1.96l4.07-4.47z" fill="url(#cr0gqoxzv)"/><path d="M14.78 22.97a1.45 1.45 0 012.27-1.82L25.1 31.2a1.45 1.45 0 11-2.27 1.8l-8.05-10.04z" fill="url(#dr0gqoxzv)"/><path d="M12.94 39.29a1.45 1.45 0 01.45-2.87l9.3 1.48a1.45 1.45 0 11-.47 2.87l-9.28-1.48z" fill="url(#er0gqoxzv)"/><defs><linearGradient id="ar0gqoxzv" x1="25.78" y1="15.21" x2="28.88" y2="17.55" gradientUnits="userSpaceOnUse"><stop stop-color="#001CB0"/><stop offset="1" stop-color="#29E4F0"/></linearGradient><linearGradient id="br0gqoxzv" x1="38.37" y1="19.27" x2="35.24" y2="21.25" gradientUnits="userSpaceOnUse"><stop stop-color="#002DB5"/><stop offset="1" stop-color="#29E4F0"/></linearGradient><linearGradient id="cr0gqoxzv" x1="43.43" y1="25.36" x2="41.51" y2="27.72" gradientUnits="userSpaceOnUse"><stop stop-color="#0037B8"/><stop offset="1" stop-color="#29E4F0"/></linearGradient><linearGradient id="dr0gqoxzv" x1="14.51" y1="22.19" x2="18.97" y2="24.86" gradientUnits="userSpaceOnUse"><stop stop-color="#002AB5"/><stop offset="1" stop-color="#29E4F0"/></linearGradient><linearGradient id="er0gqoxzv" x1="12.3" y1="36.46" x2="14.11" y2="39.38" gradientUnits="userSpaceOnUse"><stop stop-color="#001CB0"/><stop offset="1" stop-color="#29E4F0"/></linearGradient></defs></svg>