<!-- by TradingView --><svg width="56" height="56" xmlns="http://www.w3.org/2000/svg"><path fill="#90072A" d="M0 0h56v56H0z"/><path d="M11.576 24h1.9l-.99-2.186-.91 2.186zM9 27v-.302c.155 0 .412-.025.541-.075.132-.053.25-.125.352-.218.185-.165.382-.494.59-.986L12.808 20h.184l2.632 5.8c.169.384.326.628.471.734a.93.93 0 00.258.119c.102.03.218.045.347.045V27h-3.04v-.302c.156 0 .285-.01.388-.03a.683.683 0 00.238-.084c.105-.06.158-.172.158-.338a.598.598 0 00-.02-.143.953.953 0 00-.05-.169l-.59-1.383h-2.362l-.572 1.458-.04.133-.01.13c0 .135.052.237.154.307.053.03.132.057.238.084.11.023.23.035.362.035V27H9zM17 26.755v-1.232h.235c.086.369.253.66.5.875.25.215.62.322.958.322.297 0 .54-.082.728-.245a.78.78 0 00.284-.616.709.709 0 00-.186-.49c-.123-.14-.394-.32-.812-.542l-.02-.01c-1.055-.551-1.568-.82-1.568-1.361 0-.42.17-.768.51-1.043.343-.275.784-.413 1.323-.413.215 0 .435.019.662.056.226.035.455.089.658.161v1.218h-.217c-.056-.369-.2-.657-.434-.865-.231-.207-.523-.311-.875-.311a.97.97 0 00-.654.234.72.72 0 00-.273.57c0 .183.07.343.21.48.14.138.454.321.944.55.563.263.948.518 1.155.763.46.53.357 1.258-.203 1.724-.336.28-.786.42-1.35.42-.217 0-.456-.022-.714-.067-.257-.041-.623-.101-.861-.178zM21.213 26.755v-1.232h.235c.086.369.253.66.5.875.25.215.544.322.882.322.296 0 .539-.082.728-.245a.78.78 0 00.283-.616.71.71 0 00-.185-.49c-.124-.14-.394-.32-.812-.542l-.021-.01c-1.055-.551-1.568-.82-1.568-1.361 0-.42.17-.768.511-1.043.343-.275.784-.413 1.323-.413.215 0 .435.019.661.056.227.035.441.089.644.161 0 0 .014.812.014 1.218h-.217c-.056-.369-.2-.657-.434-.865-.23-.207-.522-.311-.875-.311a.97.97 0 00-.654.234.719.719 0 00-.273.57c0 .183.07.343.21.48.14.138.455.321.945.55.562.263.947.518 1.155.763.46.53.356 1.258-.203 1.724-.336.28-.787.42-1.351.42-.217 0-.455-.022-.714-.067a5.639 5.639 0 01-.784-.178zM25.481 22.217V22h2.068v.217a.722.722 0 00-.265.042.436.436 0 00-.172.115c-.075.094-.112.286-.112.578v2.092c0 1.09.77 1.986 1.86 1.55.212-.084.393-.205.542-.364.152-.16.259-.369.322-.623s.095-.688.095-1.302c0-.378-.003-.668-.008-.871-.004-.205-.009-.263-.014-.524 0-.105-.008-.197-.024-.277a.692.692 0 00-.052-.182.375.375 0 00-.183-.168.708.708 0 00-.154-.045.824.824 0 00-.192-.021V22c.512.013 1.536 0 1.536 0v.217a.83.83 0 00-.2.021.64.64 0 00-.153.06.38.38 0 00-.175.195c-.047.124-.07.312-.07.917 0 .254-.005.558-.014.913-.007.352-.01.552-.01.598 0 .346-.05.651-.148.917a1.756 1.756 0 01-.416.658c-.343.336-.869.504-1.578.504-.721 0-.998-.182-1.38-.546-.383-.366-.574-.893-.574-1.582V22.91c0-.292-.034-.474-.102-.546-.065-.075-.207-.124-.427-.147zM31.447 27v-.213a.78.78 0 00.266-.039.408.408 0 00.171-.108c.078-.09.116-.268.116-.536v-3.201c0-.24-.038-.405-.116-.494a.418.418 0 00-.171-.101.746.746 0 00-.262-.042V22h2.352c.53 0 .942.119 1.239.357.296.236.444.568.444.997 0 .292-.093.437-.28.654-.187.217-.447.37-.78.462l.923 1.75c.117.212.245.373.385.483.077.058.153.103.228.136.075.03.154.046.238.046v.157l-.193.014-.2.007c-.389 0-.713-.078-.972-.235-.259-.158-.46-.402-.602-.73l-.416-.939c-.091-.2-.192-.333-.301-.399a.786.786 0 00-.214-.077 1.403 1.403 0 00-.3-.028l-.004 1.477c0 .252.037.422.112.511.04.042.097.077.171.105a.807.807 0 00.263.038V27h-2.097zm1.554-4.706v2.113h.441c.362 0 .629-.08.802-.242.172-.163.259-.306.259-.646 0-.41-.1-.718-.298-.92-.198-.204-.5-.305-.906-.305H33zM36.851 27.005v-.214a.782.782 0 00.266-.038.41.41 0 00.172-.108c.077-.09.115-.268.115-.536v-3.255c0-.24-.038-.405-.115-.494a.417.417 0 00-.172-.101.747.747 0 00-.262-.042V22h3.552v1.169h-.193c-.056-.327-.185-.56-.388-.7-.2-.14-.52-.21-.959-.21l-.122.003c-.056.003-.1.004-.133.004h-.165a3.753 3.753 0 01-.112.014l.004 1.967h.066c.023 0 .051.003.084.007h.228c.364 0 .607-.048.731-.143a.441.441 0 00.147-.203.922.922 0 00.052-.336l.22.003.004 1.652h-.224c0-.14-.017-.258-.052-.353a.502.502 0 00-.136-.224c-.11-.098-.344-.147-.7-.147l-.252.003-.168.004-.004 1.627c0 .229.053.387.158.476.107.089.3.133.58.133.44 0 .768-.08.987-.241.22-.162.364-.43.434-.805h.198v1.305c-1.255-.012-2.587 0-3.84 0zM43 22.329v3.815c0 .368.172.595.546.595.656 0 1.168-.19 1.536-.57.371-.38.557-.91.557-1.586 0-.749-.188-1.254-.564-1.67-.568-.631-1.106-.584-2.075-.584zm-1.602 4.676v-.214c.229 0 .386-.044.472-.133.087-.088.13-.248.13-.479v-3.364c0-.21-.044-.357-.133-.44-.089-.087-.245-.13-.469-.13V22h2.428c.51 0 .928.049 1.253.147.678.203 1.131.55 1.413 1.218.143.33.214.826.214 1.173 0 .812-.258 1.297-.773 1.77-.514.474-1.214.697-2.1.697h-2.435z" fill="#fff"/><path d="M13.419 20.195h.366l3.018 6.13s.045.108 0 .136a.336.336 0 01-.303.039c-.066-.024-.113-.102-.113-.102l-2.968-6.203zM14.134 20.5h.366l2.303 4.735s.043.565 0 .565c-.042 0-.216-.379-.216-.379L14.134 20.5zM11 28.273v1.72h-.327c-.08-.576-.339-.96-.778-1.273-.44-.318-1.023-.476-1.75-.476-.83 0-1.474.258-1.934.773-.46.512-.689 1.236-.689 2.172 0 1.09.286 1.984.858 2.682.571.697 1.299 1.046 2.181 1.046.278 0 .517-.041.719-.124.202-.086.591-.215.72-.387V33.01c0-.265-.05-.45-.149-.556a.523.523 0 00-.218-.119 1.647 1.647 0 00-.409-.044v-.298h2.49l-.005.298a.946.946 0 00-.327.05.533.533 0 00-.223.138c-.106.113-.159.293-.159.54v1.725a6.644 6.644 0 01-2.107.55c-.254.027-.515.04-.783.04-1.27 0-2.272-.334-3.01-1.001-.733-.671-1.1-1.58-1.1-2.727 0-1.157.373-2.07 1.12-2.742.747-.67 1.775-1.006 3.084-1.006.374 0 .783.033 1.23.1.446.065.998.171 1.566.316zM11.89 28.235V28h2.27v.235a.78.78 0 00-.287.046.475.475 0 00-.186.125c-.081.1-.122.279-.122.595l.016 2.872c0 .579.136 1.026.409 1.342.275.316.667.474 1.175.474.258 0 .5-.045.728-.136.23-.091.426-.223.588-.395.164-.174.28-.399.349-.675.068-.275.102-.745.102-1.41 0-.41-.003-.783-.008-1.003-.005-.222-.01-.832-.015-1.115 0-.113-.009-.213-.026-.3-.015-.085-.034-.12-.057-.166a.406.406 0 00-.197-.182.778.778 0 00-.167-.05.89.89 0 00-.209-.022V28h1.665v.235a.897.897 0 00-.216.023.696.696 0 00-.167.064c-.086.046-.15.086-.19.182-.05.134-.076.885-.076 1.54 0 .276-.005.664-.015 1.048l-.011.649c0 .373-.053.705-.16.993a1.902 1.902 0 01-.45.712c-.372.364-.942.546-1.71.546-.781 0-1.38-.197-1.794-.591-.414-.397-.621-.968-.621-1.714l-.015-2.732c0-.315-.068-.482-.14-.56-.072-.082-.226-.135-.463-.16zM19.22 31.622h1.57l-.838-2.242-.731 2.242zM17.317 34v-.231c.705 0 .875-.599 1.105-1.142L20.199 28h.14l2.013 5.083c.129.293.25.48.36.56a.706.706 0 00.197.092.95.95 0 00.266.034V34H20.85v-.231c.119 0 .217-.008.296-.023a.522.522 0 00.181-.064c.081-.046.122-.132.122-.258a.458.458 0 00-.015-.11.73.73 0 00-.038-.13L20.946 32h-1.847l-.398 1.234-.03.11-.008.099c0 .103.04.182.118.235a.77.77 0 00.182.064c.083.018.175.027.277.027V34h-1.924zM23.401 34v-.239a.847.847 0 00.288-.042.443.443 0 00.186-.117c.083-.096.125-.29.125-.58V28.97c0-.26-.056-.485-.14-.58a.453.453 0 00-.186-.11.807.807 0 00-.284-.046L23.386 28h2.502c.574 0 1.021.129 1.342.387.321.255.49.608.49 1.073 0 .316-.102.591-.304.826s-.484.402-.846.5l1.001 2.205c.127.23.361.5.513.618.083.064.165.113.246.148a.68.68 0 00.258.05v.17l-.209.015-.216.008c-.422 0-.773-.085-1.054-.254-.28-.172-.593-.531-.747-.888l-.451-1.016c-.099-.217-.208-.361-.326-.432a.85.85 0 00-.232-.083c-.09-.02-.227-.03-.353-.03v1.755c0 .273.064.458.145.554a.487.487 0 00.186.113c.08.028.175.042.284.042V34h-2.214zM25 28.319v2.4h.505c.392 0 .681-.088.868-.262.187-.177.28-.45.28-.82 0-.444-.114-.769-.329-.989-.215-.22-.542-.33-.982-.33H25zM30.855 31.693h1.57l-.839-2.313-.731 2.313zM29.008 34v-.231a.902.902 0 00.326-.057.895.895 0 00.27-.167c.141-.126.291-.47.45-.848l1.779-4.705h.14l2.099 5.083c.128.293.249.48.36.561a.711.711 0 00.197.091.954.954 0 00.265.034v.231H32.57v-.23c.12 0 .218-.008.296-.024a.52.52 0 00.182-.064c.08-.045.121-.132.121-.258a.458.458 0 00-.015-.11.73.73 0 00-.038-.129L32.546 32h-1.779l-.432 1.242-.03.102-.008.099c0 .103.04.182.118.235a.77.77 0 00.182.064c.083.018.175.027.276.027V34h-1.865zM36 28.918v1.217c0 .64-.012 1.136-.01 1.49l.008.974c0 .187.004.424.011.525.008.099.02.197.038.296a.4.4 0 00.178.246.696.696 0 00.398.103V34h-1.626l-.004-.231a.725.725 0 00.28-.05.497.497 0 00.194-.132c.089-.109.133-.393.133-.681l.045-4.083v-.03c0-.198-.046-.332-.14-.418a.454.454 0 00-.19-.102 1.147 1.147 0 00-.315-.038V28h1.453L40 32.447v-3.505c-.008-.165.002-.272-.014-.335a.394.394 0 00-.185-.27.692.692 0 00-.395-.102V28c.543.009 1.052 0 1.594 0v.235a.572.572 0 00-.252.05.455.455 0 00-.185.132c-.089.109-.133.298-.133.584V34h-.458L36 28.918zM42.674 34v-.231a.683.683 0 00.262-.046.512.512 0 00.186-.14c.093-.116.14-.296.14-.538v-4.616h-.595c-.382 0-.656.08-.823.242-.164.162-.273.459-.326.891l-.25-.004V28h5.053v1.558l-.238.004c-.054-.427-.166-.723-.338-.887-.17-.164-.442-.246-.819-.246h-.599v4.616c0 .242.047.422.14.538.051.058.114.104.19.136.076.033.166.05.27.05V34h-2.253zM48 34v-.231c.255 0 .44-.05.553-.148.117-.099.175-.254.175-.466V32l-1.17-3.06c-.122-.28-.246-.465-.372-.553a.844.844 0 00-.235-.106 1.002 1.002 0 00-.311-.046l.007-.235H49.1v.235c-.121 0-.22.008-.296.023a.665.665 0 00-.185.064.22.22 0 00-.13.213c0 .04.003.073.009.098l.03.099 1.065 2.832 1.228-2.802.042-.114.011-.087a.238.238 0 00-.121-.22c-.079-.048-.221-.083-.429-.106V28H52v.235a.857.857 0 00-.413.129c-.104.068-.216.213-.338.436l-1.527 3.14v1.222c0 .228.043.382.132.463.048.04.12.074.216.102.099.028.213.042.345.042V34H48z" fill="#fff"/></svg>