<!-- by TradingView --><svg width="56" height="56" xmlns="http://www.w3.org/2000/svg"><path fill="#4F892D" d="M0 0h56v56H0z"/><path d="M21.474 27.574c-2.28 4.884.95 7.541 2.851 8.722.208.129.486.29.868.412C40.328 40.033 34.295 16.92 32.66 14c-.274 6.596-8.685 8.219-11.186 13.574z" fill="#69ACE5"/><path d="M30.246 27.574c-2.28 4.884.95 7.541 2.852 8.722.207.129.486.29.868.412C49.1 40.033 43.068 16.92 41.433 14c-.274 6.596-8.686 8.219-11.187 13.574z" fill="#F6A704"/><path d="M34.912 22.59c-1.895 1.44-3.71 2.94-4.665 4.984-1.953 4.183.137 6.733 1.972 8.12 3.17-2.521 3.368-8.165 2.693-13.104z" fill="#F18903"/><path d="M12.784 27.573c-2.28 4.884.95 7.541 2.852 8.723.207.128.486.29.868.412 15.135 3.325 9.175-19.784 7.54-22.703-.271 7.077-8.759 8.213-11.26 13.568z" fill="#A2D06B"/><path d="M23.492 35.73c-1.845-1.38-3.989-3.937-2.018-8.156.975-2.087 2.848-3.608 4.787-5.077.68 4.984.475 10.713-2.768 13.233z" fill="#1F9BDE"/><path d="M15.372 43c-.29-3.803.048-6.008.252-6.702.278.13.818.376.818.376-.378 1.939.142 4.987.456 6.326h-1.526z" fill="#A2D06B"/><path d="M19.994 26.872c-2.203 3.774-3.827 7.89-4.364 9.476-1.2-.702-3.6-2.49-3.6-5.938 0-5.475 5.473-7.525 8.811-10.318 3.22-2.694 3.008-6.191 3.22-6.065.72 6.19-1.313 8.128-4.067 12.845z" fill="#E2EFC3"/><path d="M15.357 26.277c.233 2.682 1.238 5.135 2.014 5.943.068-.264.304-.76.304-.76-.91-.961-2.214-5.04-2.318-5.183zM18.611 23.47c.157 1.803.832 3.45 1.353 3.994.046-.177.324-.663.324-.663-.613-.645-1.607-3.235-1.677-3.331zM21.596 20.696c.095 1.103.509 2.112.828 2.444.028-.108.314-.72.314-.72-.375-.395-1.1-1.665-1.142-1.724z" fill="#A2D06B"/></svg>