<!-- by TradingView --><svg xmlns="http://www.w3.org/2000/svg" width="56" height="56"><path fill="#546393" d="M0 0h56v56H0z"/><path d="M11 22l4.03 7H7l4-7zm-.74-1L4 32h1.29l1.19-2h9l1.21 2H18l-6.21-11h-1.53zM29 21h-1v-1h1v1zm0 11h-1V22h1v10zm1-11h1v11h-1V21zm13 6.5c0 .72-.15 1.04-.37 1.5H34.3c.71.84 1.6 2 3.7 2 1.08 0 1.87-.28 2.4-.72l.9.61A5.23 5.23 0 0138 32c-2.53 0-5-1.82-5-4.5 0-2.68 2.46-4.5 5-4.5s5 1.82 5 4.5zm-1 0c0-1.99-2.17-3.5-4-3.5s-4 1.52-4 3.5c0 .22.05.3.1.5h7.81l.09-.5z" fill="#fff"/><path d="M26 32.33C26 35.1 23.49 37 20.86 37c-1.27 0-2.43-.4-3.4-1.15l.95-.64c.7.52 1.52.79 2.45.79 1.9 0 4.14-1.44 4.14-3.66v-.98c-.81.41-1.94.64-2.86.64-2.62 0-5.14-1.73-5.14-4.5s2.52-4.5 5.15-4.5a6 6 0 012.85.72V23h1v9.33zm-1-2.17v-5.3a4.99 4.99 0 00-2.86-.86c-1.89 0-4.17 1.09-4.14 3.5.03 2.41 2.25 3.5 4.14 3.5 1.05 0 2.14-.29 2.86-.84z" fill="#fff"/><path d="M27.04 34.43h-.62V34h1.76v.43h-.62V37h-.52v-2.57zm1.52-.43h.51v1.23h.83V34h.51v3h-.5v-1.33h-.84V37h-.51v-3zM31 34h1.47v.43h-.96v.81h.9v.43h-.9v.86h1V37H31v-3zm1.98 0h.87c.5 0 .83.28.83.81 0 .38-.22.64-.54.69.1.02.22.07.31.35l.37 1.15h-.55l-.27-.99c-.07-.23-.2-.3-.4-.3h-.11V37h-.51v-3zm.72 1.31c.27 0 .45-.14.45-.44 0-.34-.16-.46-.45-.46h-.21v.9h.2zm2.93.95h-.96l-.2.74h-.51l.93-3h.57l.9 3h-.53l-.2-.74zm-.1-.41l-.36-1.4-.4 1.4h.75zM37.65 34h.8c.58 0 .88.38.88.93s-.3.89-.87.89h-.3V37h-.5v-3zm.7 1.4c.33 0 .47-.16.47-.47 0-.32-.14-.52-.46-.52h-.2v1h.2zm1.4-1.4h1.48v.43h-.96v.81h.9v.43h-.9v.9h1V37h-1.51v-3zm2.5 0v1.93c0 .48.14.64.44.64s.44-.16.44-.64V34h.51v1.93c0 .77-.42 1.07-.95 1.07s-.95-.3-.95-1.07V34h.51zm2.37.43H44V34h1.76v.43h-.62V37h-.52v-2.57zm1.52-.43h.51v3h-.5v-3zm2.9 2.9c-.11.05-.36.1-.61.1-.85 0-1.3-.65-1.3-1.5s.45-1.5 1.28-1.5c.28 0 .52.08.62.12l-.03.48c-.1-.05-.27-.16-.53-.16-.42 0-.79.3-.79 1.06s.37 1.06.8 1.06a.9.9 0 00.52-.15l.03.49zm.4-.5c.1.06.32.17.6.17.22 0 .42-.13.42-.42 0-.2-.12-.3-.36-.44l-.26-.15a.82.82 0 01-.46-.77c0-.52.41-.79.88-.79.3 0 .5.08.59.1l-.03.45a1.28 1.28 0 00-.52-.12c-.26 0-.4.14-.4.34 0 .22.15.3.3.4l.3.17c.33.19.49.37.49.78 0 .6-.4.88-.94.88-.28 0-.5-.04-.64-.13l.03-.48z" fill="#C999C3"/></svg>