<!-- by TradingView --><svg width="56" height="56" fill="none" xmlns="http://www.w3.org/2000/svg"><path fill="#101C36" d="M0 0h56v56H0z"/><path d="M43.17 23v1.469h-.147c-.087-.34-.184-.582-.291-.729a1.108 1.108 0 00-.439-.356c-.103-.048-.285-.072-.545-.072h-.414v4.76c0 .277.015.45.045.52.033.07.095.13.185.184a.79.79 0 00.377.076h.184V29h-2.91v-.148h.185a.784.784 0 00.39-.084.386.386 0 00.167-.192c.03-.064.045-.232.045-.504v-4.76h-.401c-.375 0-.647.078-.816.232-.238.216-.388.524-.45.925h-.157V23h4.993zM33.228 23l.041 1.911h-.154c-.073-.479-.253-.864-.54-1.154-.284-.293-.592-.44-.923-.44-.257 0-.46.078-.611.233a.735.735 0 00-.223.528c0 .127.027.24.08.338.072.133.19.264.35.394.118.093.391.258.818.494.599.33 1.002.642 1.21.935.207.293.31.628.31 1.006 0 .48-.167.892-.502 1.24-.331.343-.754.515-1.267.515-.16 0-.313-.018-.456-.055a3.192 3.192 0 01-.539-.207.746.746 0 00-.298-.085.346.346 0 00-.207.085.587.587 0 00-.177.258H30V26.83h.14c.11.609.323 1.074.637 1.395.316.319.657.478 1.022.478.281 0 .505-.086.67-.258a.832.832 0 00.155-.994 1.165 1.165 0 00-.29-.359c-.13-.116-.362-.265-.694-.448-.465-.257-.8-.475-1.003-.656a1.988 1.988 0 01-.471-.604 1.662 1.662 0 01-.162-.736c0-.457.15-.846.448-1.167A1.48 1.48 0 0131.585 23c.166 0 .326.023.482.068.118.034.262.097.43.19.171.09.29.135.358.135a.19.19 0 00.155-.067c.038-.046.073-.154.106-.326h.113zM25 28.852V29h-2.643v-.148h.151c.133 0 .24-.028.32-.084a.355.355 0 00.135-.192c.025-.064.037-.232.037-.504v-4.144c0-.277-.012-.45-.037-.52a.367.367 0 00-.152-.18.51.51 0 00-.303-.08h-.151V23H25v.148h-.152a.551.551 0 00-.32.084.371.371 0 00-.137.192c-.025.064-.038.232-.038.504v4.144c0 .277.013.45.037.52.027.07.078.13.152.184.076.05.178.076.306.076H25z" fill="#fff"/><path opacity=".9" fill-rule="evenodd" clip-rule="evenodd" d="M49.009 23l-1.727 4.59c-.18.483-.332.802-.455.957a.758.758 0 01-.47.28V29h1.767v-.173c-.277-.025-.45-.062-.521-.112-.12-.084-.18-.215-.18-.392 0-.134.036-.303.11-.509l.223-.616h1.877l.282.789c.073.205.112.322.118.35.015.06.023.117.023.173 0 .093-.029.165-.086.214-.084.069-.229.103-.435.103h-.106V29H52v-.173a.563.563 0 01-.376-.168c-.118-.127-.268-.437-.45-.929L49.426 23h-.418zm-.301 1.672l.792 2.18h-1.607l.815-2.18z" fill="#fff"/><path fill-rule="evenodd" clip-rule="evenodd" d="M6.82 23l-1.837 4.59c-.191.483-.352.802-.483.957a.817.817 0 01-.5.28V29h1.88v-.173c-.295-.025-.48-.062-.555-.112-.128-.084-.192-.215-.192-.392 0-.134.04-.303.117-.509l.237-.616h1.996l.3.789c.078.205.12.322.125.35.017.06.025.117.025.173a.26.26 0 01-.091.214c-.09.069-.243.103-.463.103h-.112V29H10v-.173a.616.616 0 01-.4-.168c-.125-.127-.285-.437-.48-.929L7.265 23H6.82zm-.32 1.672l.842 2.18H5.633l.867-2.18z" fill="#fff"/><path d="M18 23v.16c-.171.035-.324.149-.458.342-.097.144-.241.483-.433 1.016L15.489 29h-.114l-1.612-4.663c-.194-.563-.325-.893-.392-.99-.065-.099-.188-.161-.371-.187V23h2.254v.16h-.076c-.204 0-.343.032-.417.095-.053.044-.08.107-.08.19 0 .052.01.114.028.187.019.069.081.258.188.566l1.002 2.92.929-2.6c.111-.314.18-.524.205-.631.025-.107.038-.198.038-.273a.464.464 0 00-.056-.229.361.361 0 00-.163-.151.9.9 0 00-.395-.074V23H18z" fill="#fff"/><path d="M28 31c-12 0-14.905 1.007-24 2 8.407-.6 18-1 24-1 6.18.035 13.68.22 24 1-3.853-.62-12-2-24-2z" fill="#86AAD1"/></svg>