<!-- by TradingView --><svg xmlns="http://www.w3.org/2000/svg" width="56" height="56"><path fill="#F0F3FA" d="M0 0h56v56H0z"/><path d="M23.47 33.51l-.35-.12c-.21-.08-.3-.17-.33-.2a2.1 2.1 0 01-.47-.9c-.1-.32-.29-1-.65-2.42l-2.06-7.01c-.24-.77-.47-1.65-.6-2.03-.22-.73-.35-1.17-.52-1.83h-.56l-.44 1.68c-.49 1.66-.8 2.72-.92 3.18 0 0-2.28 8.03-2.58 8.8-.14.35-.32.6-.52.73-.08.06-.34.1-.79.16-.1 0-.14.02-.18.02l-.14.02-.36.04V34h2.22l2.4-8.93c.15-.65.43-1.55.79-2.72.2-.67.33-1.18.37-1.27l.06.25.82 2.65L21.42 34H24v-.37s-.3-.05-.53-.12zm6.53.11V34v-.38zm0 0c-.2-.03-1-.15-1-.38V20h-.38a64.43 64.43 0 01-1.57.75v.24l.55.35c.18.11.3.22.35.34.06.11.05.09.05.34V34h2v-.38zm3.3 0V34H31v-6.37c0-.9-.04-1.38-1-1.67v-.33A3.1 3.1 0 0031.73 24H32v8.51c0 .69.26.76.82.97.23.08.3.1.49.14z"/><path d="M35.29 26.55c.43-.7.98-1.01 1.65-1.01.62 0 1.14.37 1.36.95.05.14.38 1.17 0 1.22-.06 0-.17.06-.4.07-1.46.12-2.3.15-2.63.18h-.45c.04-.38.16-.9.47-1.4zm1.13 1.88h3.26v-.21c0-1.5-1.04-3.22-2.68-3.22-.5 0-.93.1-1.3.31-3 1.69-3.1 8.33.95 8.68a3.1 3.1 0 002.14-.77c.32-.26.74-.7.93-1.1.03-.07.01-.03.01-.22v-.46c-.42.44-.84.93-1.41 1.17-1.83.76-3.38-.9-3.66-2.61a4 4 0 01.05-1.54l1.71-.03zm7.85 4.68c-1.95 0-2.6-1.93-2.6-3.5 0-1.53.42-4.05 2.42-4.05.77 0 1.58.77 1.77 1.48.1.36.14 1.22.14 2.57v2.84c-.36.43-1.2.66-1.73.66zm-2.96-6.57C40.04 28.41 39.89 34 43.26 34c.75 0 1.41-.25 2.3-.76l.44-.21V34c.1 0 .45-.01.63-.06l1-.22c.2-.04.38-.1.56-.15v-.37c-.13 0-.85.04-1.08-.27-.06-.07-.11-.39-.11-.93V19l-.2.01c-.57.25-1.38.43-2.16.54v.38l.19.07c.55.2.9.4 1 .59.12.19.18.34.18 1.04L46 24.17v1.56S45 25 44.1 25c-1.1 0-2.17.61-2.8 1.54z"/><path d="M31.45 23c.72.01 1.01-.58 1.02-.98a1 1 0 10-1.02.98z" fill="#DC2D35"/><path d="M11.25 37.25c-1.43.78-2.78 1.01-3.3.65-1.4-1 6.17-9.27 12.18-13.64 7.14-5.18 13.78-6.6 14.8-5.23.31.42-.56 1.8-2.09 3.55l1.13-1.13c1.93-2.13 1.65-2.48 1.32-2.92-1.13-1.54-9.6.27-16.11 5.46-8.96 7.14-12.83 12.53-12.1 14.08.26.53.95 1.52 5.7-1.67l-1.53.85z" fill="#DC2D35"/><path d="M25 34h2v-.38c-.2-.03-.99-.16-1-.38V22h-.36a68.6 68.6 0 01-1.56.74v.24c.1.07.28.2.55.35.18.11.3.22.35.33.05.12.02 2.14.02 2.39V34z"/></svg>