<!-- by TradingView --><svg width="56" height="56" xmlns="http://www.w3.org/2000/svg"><path fill="#002386" d="M0 0h56v56H0z"/><path d="M26.456 8c.102 1.667 1.714 6.14 7.344 10.69 7.037 5.69 8.2 11.066 8.2 12.88 0 1.813-.367 4.376-3.427 8.69.55-1.355 1.64-4.427 1.591-5.877-.033-.983-.174-2.418-1.231-4.383H22.996a1 1 0 110-2h14.652c-.91-1.227-2.153-2.61-3.848-4.162-1.321-1.209-2.485-2.209-3.5-3.081L29.42 20H20a1 1 0 110-2h7.245c-1.482-1.517-2.267-2.885-2.441-4.998-.154-.9 0-3.286 1.652-5.002zm3.089 40c-.102-1.667-1.714-6.14-7.344-10.69-7.037-5.69-8.2-11.066-8.2-12.88 0-1.813.367-4.376 3.427-8.69-.55 1.355-1.64 4.427-1.591 5.877.013.389.043.848.14 1.383H30a1 1 0 110 2H16.586c.774 1.82 2.357 4.18 5.615 7.162.318.29.627.57.927.838H35a1 1 0 110 2h-9.581l.283.243c3.5 3.007 5.227 4.49 5.495 7.755.154.9 0 3.286-1.652 5.002z" fill="#fff"/></svg>