<!-- by TradingView --><svg width="56" height="56" xmlns="http://www.w3.org/2000/svg"><path fill="#1156A1" d="M0 0h56v56H0z"/><path d="M47 30v2h-3v-2l-1.966-5H45l.5 3 .5-3h3l-2 5zm-29 0h2v2h-5v-7h3v5zm20-5l2 3.995V25h2v7h-2.997L37 28v4h-2v-7h3zm-15.008 3.286h2.928c.66.31.99.81 1.1 1.571.155 1.381-1.364 2.143-2.64 2.143h-1.388v-1.595h1.1c.441 0 .928-.077.908-.73-.02-.651-.445-.675-.907-.675h-1.1v-.714z" fill="#fff"/><path d="M22.999 25h1.255c1.466 0 2.355.116 2.51 1.552.088.741-.265 1.464-.903 1.812h-2.862V28h.974c.33.046.698-.15.698-.682 0-.533-.28-.72-.698-.72h-.974V25z" fill="#fff"/><path fill-rule="evenodd" d="M20 32h3v-7h-3v7zM15 33l-2 4-1.066-5.974h-1.697L10 32H7l2-7h4l2 8zm-4.56-3l.56-3 .61 3h-1.17zM35 32h-3l-.228-1h-1.484l-.286 1H27l2-7h4l2 7zm-4.52-2l.52-3 .584 3H30.48z" fill="#fff"/></svg>