<!-- by TradingView --><svg width="56" height="56" viewBox="0 0 56 56" xmlns="http://www.w3.org/2000/svg"><path fill="#1C2674" d="M0 0h56v56H0z"/><path d="M43.66 27.92a14.68 14.68 0 0 0-14.59-14.4c-7.97 0-14.26 6.5-14.26 14.48H12c0-8.82 6.96-15.83 15.73-16 8.76 0 16.06 7.14 16.06 15.92h-.13z" fill="#fff"/><path d="M43.5 28.08c0-6.46-5.12-11.63-11.62-11.63-6.46 0-11.11 5.04-11.11 11.55h-3.15c0-7.3 5.96-13.02 13.25-13.19 7.13 0 12.92 6.64 13.09 13.1l-.46.17z" fill="#fff"/><path d="M43.66 27.92c0-4.67-3.98-8.49-8.76-8.49-4.82 0-8.3 3.78-8.3 8.57h-3.02c0-5.63 4.32-10.25 9.93-10.25 5.62 0 10.11 4.66 10.28 10.12h-.13v.05zM12.34 28.08A14.44 14.44 0 1 0 41.19 28H44a16 16 0 0 1-15.9 16c-8.76 0-15.89-7.14-16.06-15.92h.3z" fill="#fff"/><path d="M12.34 27.92c0 6.46 5.11 11.63 11.61 11.63 6.5 0 11.28-5.04 11.12-11.55h3.14c0 7.3-5.95 13.19-13.08 13.19-7.3 0-13.09-6.64-13.09-13.1l.3-.17z" fill="#fff"/><path d="M12.17 28.08a8.9 8.9 0 0 0 8.76 8.49c4.83 0 8.3-3.78 8.3-8.57h2.98c0 5.63-4.32 10.25-9.94 10.25a10.1 10.1 0 0 1-10.1-10.17z" fill="#fff"/></svg>