<!-- by TradingView --><svg width="56" height="56" xmlns="http://www.w3.org/2000/svg"><path fill="#1F196B" d="M0 0h56v56H0z"/><path d="M23.945 17.423L18 31l3-2 4.187-9 2.607 5.46C21.366 29.497 14.586 34.995 12 37.24l.491.896c5.327-4.78 12.832-9.657 15.92-11.497l.343.717c-6.204 3.72-13.072 9.278-15.73 11.591l.688.82c4.873-4.445 12.362-9.278 15.498-11.138l.334.607c-4.948 3.068-12.186 8.86-15.146 11.344l.761.76c5.507-4.69 12.347-9.103 15.05-10.7l3.69 7.496c.715 1.402.11 1.776-.283 1.864H30v1.996h13l-4.334-7.48c2.951-2.42 4.743-5.804 5.334-7.225l-.591-2.584c-2.098-1.315-6.754.74-8.855 1.932l-.354-.707c5.53-2.746 8.354-2.328 9.098-1.776l-.473-1.45c-2.229-.963-7.068.933-9.209 2.001l-.337-.551c5.303-2.845 8.495-2.421 9.428-1.854l-.884-1.736c-2.608-.828-7.22 1.082-9.2 2.14L27 12h-2l-2 3.582.945 1.841z" fill="#fff"/><path d="M41.677 27.04c-1.117-1.316-4.704.128-6.39.96l2.954 5.618c2.419-2.343 4.833-4.933 3.436-6.578z" fill="#1F196B"/></svg>