<!-- by TradingView --><svg width="56" height="56" xmlns="http://www.w3.org/2000/svg"><path fill="#F0F3FA" d="M0 0h56v56H0z"/><path d="M21.072 34.878c-5.493 3.21-8.109.72-8.73-.926-1.373 2.675 1.275 9.672 10.005 3.704C29.33 32.882 34.716 27.23 36.023 25h-1.079c-1.994 1.955-8.38 6.668-13.872 9.878z" fill="#0054A4"/><path d="M44 16l-13 9h7l6-9z" fill="#B32317"/><path d="M36.005 28c-5.688 7.692-4.148 11.106-2.666 11.852-2.608.655-3.309-1.02-3.333-1.938-.06-4.055 3.974-8.299 5.999-9.914z" fill="#0054A4"/></svg>