<!-- by TradingView --><svg width="56" height="56" xmlns="http://www.w3.org/2000/svg"><path fill="#DD1D29" d="M0 0h56v56H0z"/><path d="M11.898 32.544c-.19.32-.666.488-1.014.438-.779-.226-1.01-1.354-1.278-1.99-1.269 0-1.924.018-3.21 0-.269.634-.437 1.288-.931 1.79-.332.276-.731.254-1.103.042-.508-.221-.374-.85-.236-1.27l2.857-7.529s.28-.995 1.001-.995c.722 0 1.003.995 1.003.995l2.869 7.489c.104.318.253.723.042 1.03zM8 26l-.947 3h1.85L8 26zM19.944 32.374c-.048.312-.328.565-.639.607-.389.053-.854-.116-1.083-.437l-3.236-5.015v4.084c0 .595-.138 1.369-1 1.369-.861 0-1.056-.878-1.002-1.369l.002-7.588c.028-.331.226-.702.527-.882.226-.146.561-.173.82-.113.508.207.802.764 1.097 1.2l2.554 4.284v-4.489c0-.462.397-.995 1.004-.995s1 .54 1 1.002v7.27c0 .436.046.64-.044 1.072zM29.989 27.53c.07 1.183-.098 2.415-.625 3.486-.943 1.916-4.048 2.05-6.017 1.966-.343 0-.857.024-1.111-.29-.208-.142-.247-.579-.247-.579v-8.145c0-.218.121-.593.315-.734.116-.098.273-.204.486-.204h2.528c1.716.053 3.743 1.445 4.324 2.989.194.508.31 1.012.347 1.51zm-1.998.58c-.038-1.573-1.318-3.09-3.256-3.09h-.746v5.972c.287-.01.474.018.733 0 1.848.024 3.308-1.266 3.268-2.881zM30.991 30.992v-6.236c0-.735.064-1.726 1.005-1.726.942 0 .989.935.996 1.726v6.236c0 .468 0 1.564-1.001 1.564-.93 0-1-.816-1-1.564zM41.708 31.74h-1.84l-.412-.043-2.46-4.168v4.38l-.19.117h-1.623l-.19-.117v-7.884c.043-.506.467-.931 1-.995.773-.087 1.107.685 1.484 1.242l2.512 4.242v-4.411c0-.134.225-1.073 1.005-1.073.575 0 1 .611 1 1.073v7.594l-.286.043zM51 31.722h-2.003l-.283-.73H45.38l-.385.73h-2.004l2.896-7.262c.196-.598.409-1.43 1.108-1.43.738 0 .92.84 1.137 1.43L51 31.722zM46.996 26L46 29h2.088l-1.092-3zM17.294 35.465C30.5 32.337 45.267 31.869 51 32.026v.99c-8.484-1.734-23.108 1.348-29.36 3.106 4.076.094 4.817 1.04 4.292.8-.524-.241-4.05-.418-6.12-.055-1.256.221-2.518.208-2.88-.363-.288-.458.121-.883.362-1.04z" fill="#fff"/></svg>