<!-- by TradingView --><svg width="56" height="56" fill="none" xmlns="http://www.w3.org/2000/svg"><path fill="#434343" d="M0 0h56v56H0z"/><path d="M46.163 17.76c.034 0 .067 0 .1.034.264.066.529.099.76.165l.133-.1v-.032l.165-.133c.033-.033.066 0 .066 0l.1.133c.032.033 0 .066 0 .066l-.166.099c.132.033.231.033.264.033.265.033.496.1.76.165.464-.33.761-.562 1.158-.793.232-.132.463-.232.695-.232.033.033 0 .133-.033.199s-.1.165-.166.231-.132.166-.198.232c-.132.132-.298.264-.463.396-.132.1-.265.232-.463.364-.033 0-.033.033-.066.066s-.066.033-.066.067c-.033.033 0 .099-.033.132 0 .099-.033.496-.1.959l.133-.133c.033-.033.066 0 .066 0l.1.133v.066l-.166.1v-.034l-.133.1c-.033.264-.033.528-.066.793v.331c-.033.43-.033.76-.033.86 0 .065 0 .165-.033.198-.099.099-.198.132-.297.198-.066-.397-.166-1.157-.166-1.157V21.2c0-.067 0-.133-.033-.166 0-.066 0-.099-.033-.165v-.066l-.132-.53-.033-.065-.1-.265v-.066l-.099-.298c-.198.133-.33.232-.496.364-.165.132-.363.265-.529.397-.066.033-.165.099-.198.132-.232.165-.496.265-.728.43-.066.364-.099.76-.165 1.124 0 .066 0 .133-.033.199-.033.033-.132.099-.165.132-.033-.033-.033-.132-.066-.165l-.298-.893c-.066.033-.1.033-.165.033-.133.1-.298.231-.463.33.099-.099.43-.363.43-.363s.033-.066.099-.133c-.232-.165-.496-.363-.76-.529h-.034c-.066-.033-.1-.066-.132-.099.066-.033.165-.165.231-.132.1 0 .199.033.331.066.298.066.661.1.959.132.198-.198.397-.43.595-.595l.199-.165c.033-.033.66-.53.992-.76-.066-.067-.232-.166-.232-.166l-.066-.033-.231-.166-.067-.033-.463-.297-.066-.033-.33-.133-.034-.033s-.694-.297-1.058-.463l.133-.132c.066-.066.132-.132.231-.132.033 0 .066.033.132.033.199.066.496.132.827.198l.198.067z" fill="#fff"/><path d="M16.932 28.739l22.221-.1M17.196 25.63l21.461-.066M19.015 22.522l17.824-.066M22.553 19.48l10.78-.066M21.065 37.965l13.856-.033M18.486 34.89l19.113-.067M17.03 31.814l21.858-.099M27.745 18.157l.1 22.023M30.026 18.356c5.457 10.879.728 21.725.728 21.725M33.201 19.48c7.606 10.45.893 18.782.893 18.782M22.553 19.513c-7.539 10.482-.562 18.882-.562 18.882M25.595 18.389C20.205 29.235 25 40.048 25 40.048" stroke="#69C" stroke-width=".5"/><path d="M27.943 17v1.323c5.49 0 10.152 4.299 10.582 9.788.463 5.853-3.902 10.945-9.755 11.408-.265.033-.562.033-.86.033-5.489 0-10.152-4.299-10.581-9.788-.43-5.82 3.935-10.945 9.787-11.408.265-.033.563-.033.86-.033L27.943 17zm0 0c-.297 0-.628 0-.959.033-6.547.53-11.474 6.25-10.945 12.83.496 6.25 5.72 11.012 11.904 11.012.298 0 .628 0 .96-.033 6.547-.53 11.44-6.25 10.944-12.83A11.932 11.932 0 0027.943 17z" fill="#fff"/><path d="M27.745 21.2l-7.473 15.74-1.025-1.125 8.498-17.89 8.961 17.89-.992 1.158-7.87-15.674" fill="#fff"/><path d="M44.543 22.258c-3.01 2.248-10.416 8.597-22.387 10.714l.695-1.488c7.936-1.455 15.674-6.052 20.898-10.318" stroke="#fff" stroke-linejoin="bevel"/></svg>