<!-- by TradingView --><svg xmlns="http://www.w3.org/2000/svg" width="56" height="56"><path fill="#005CB9" d="M0 0h56v56H0z"/><path d="M45.66 22.98c.27-.64 1.1-2.61.95-5.98l-2.3 7.76 6.87-3.09s-4.87.86-5.48 1.44c-.16.16-.15.12-.04-.13zm-1.85 1.9l-5.8 1.43c2.65-1.77 3.56-1.9 3.8-1.86-.61-.5-3.6-4.24-3.6-4.24l5.6 4.66zm.56.19L52 23.15c-2.88 1.93-4.57 2.14-5.26 2.22-.25.03-.37.05-.36.13.04.28 2.33 2.92 3.6 4.23l-5.6-4.66zm-.93-2.42s.33-3.78 1.87-5.53l-1.29 7.54-5.15-5.7c2.91 1.48 3.88 2.86 4.28 3.43.15.22.22.32.29.26zm.7 2.73l5.5 5.33c-3.05-1.28-3.96-2.47-4.36-3-.15-.2-.23-.3-.32-.3-.21.02-1.38 3.59-1.38 3.59l.56-5.62z" fill="#FF9B31"/><path d="M8.78 25.74c-.38.9-1 2.5-1.33 3.39.31.02.76.02 1.11.02.4 0 .95 0 1.3-.02-.21-.75-.7-2.32-1.08-3.39zM13 33h-2.03c-.19-.75-.54-2.06-.87-3.12-.43-.03-1.02-.03-1.49-.03s-1.04 0-1.42.03A26.1 26.1 0 006.2 33H5c1.35-3.07 2.57-6.1 3.68-9h1.28c.92 2.85 2.43 7.38 3.04 9zm2.46 0h-1.73c.05-.95.1-2.55.1-3.64v-1.41c0-1.09-.05-3-.1-3.95h1.7c-.04.95-.06 2.86-.06 3.95v1.41c0 1.1.05 2.66.1 3.64zm4.07-5.15c-.6 0-1.02.5-1.17 1.19-.1.43-.1.94-.1 1.44 0 1.18.4 1.95 1.22 1.95.9 0 1.3-1.05 1.3-2.34 0-1.12-.3-2.24-1.25-2.24zm.19 5.15c-.82 0-1.46-.24-1.9-.61-.12.08-.49.41-.68.61h-.35c.07-.92.09-2.6.09-3.68V27.9c0-1.08-.02-3.18-.09-3.9.33.02.56.02.84.02l.78-.02c-.09.74-.11 2.78-.11 3.74v.27h.04c.26-.42.82-1.01 1.79-1.01 1.7 0 2.24 1.51 2.24 2.98-.03 1.5-.78 3.02-2.65 3.02zm4.88-7.17c-.48 0-.85-.41-.85-.92 0-.5.39-.91.85-.91.48 0 .85.42.85.9 0 .52-.37.93-.85.93zm.88 7.17h-1.73a38 38 0 00.09-2.85v-.58c0-.74-.02-1.85-.1-2.57h1.71c-.04.74-.07 1.8-.07 2.57v.58c0 .77.03 2.13.1 2.85zm4.97-4.53l-.11.02c-.14-.18-.42-.25-.67-.25-.85 0-1.18.75-1.18 1.85v.4c0 .75.03 1.8.1 2.51h-1.73c.07-.69.09-2.06.09-2.82v-.57c0-.73-.02-1.79-.1-2.61h1.64c-.04.25-.07.85-.07 1.33h.05c.4-.8.97-1.33 1.75-1.33.28 0 .48.05.62.11l.03.07c-.12.28-.33.9-.42 1.29zm2.93 1.01l1.22-.02c0-.83-.07-1.92-.96-1.92-.83 0-1.1 1.18-1.1 1.94h.84zm2.3 2.09l.17.08c-.06.28-.13.61-.13.78-.44.35-1.15.57-1.93.57C32 33 31 31.87 31 30.02c0-1.74 1-3.02 2.7-3.02 1.64 0 2.3 1.2 2.3 2.48l-.04.54-.07.07c-.74-.02-1.63-.02-2.25-.02h-1.17v.15c0 1.08.47 2.02 1.76 2.02.68.02 1.2-.28 1.45-.67zm2.76-1.58c0 1.02.22 2.42 1.32 2.42 1.08 0 1.32-1.35 1.32-2.42 0-1.07-.24-2.42-1.32-2.42s-1.32 1.33-1.32 2.42zm1.3 3.01c-2.14 0-2.88-1.61-2.88-3.01 0-1.68.95-2.99 2.88-2.99 2 0 2.9 1.29 2.9 2.99.01 1.74-1.09 3.01-2.9 3.01z" fill="#fff"/></svg>