<!-- by TradingView --><svg width="56" height="56" fill="none" xmlns="http://www.w3.org/2000/svg"><path fill="#F0F3FA" d="M0 0h56v56H0z"/><path fill-rule="evenodd" clip-rule="evenodd" d="M8.039 29.735H10.3l.377.98.007.02c.208.549.395 1.04-.333 1.04h-.14V32h3.53v-.225c-.209-.016-.376-.08-.488-.209-.153-.16-.348-.546-.585-1.172L10.301 24h-.41l-2.479 6.217c-.223.61-.432 1.012-.585 1.22-.167.194-.362.29-.613.338V32h2.324v-.225l-.03-.002c-.404-.036-.9-.08-.9-.624 0-.177.04-.386.138-.643l.293-.77zM9.2 26.8l.938 2.485H8.22L9.2 26.8zm10.804 5.191l.265-2.798h-.223c-.153.627-.32 1.11-.501 1.432-.364.646-.907.932-1.64.932l-.09.001c-.29.004-.642.009-.76-.306-.041-.113-.055-.386-.055-.788v-5.07c0-.401.014-.642.056-.739.055-.145.125-.241.209-.29a.9.9 0 01.487-.128h.182v-.225H14v.209h.237c.195 0 .348.032.46.112.11.08.18.177.222.274.042.112.056.37.056.772v5.23c0 .401-.014.643-.056.74-.115.3-.383.417-.696.417H14v.225h6.004zM26 24.011v2.155h-.181c-.111-.498-.223-.852-.362-1.077-.284-.458-.706-.627-1.226-.627h-.243v6.146c0 .402.014.66.056.772a.655.655 0 00.223.274c.111.08.264.112.473.112h.223v.225h-3.938v-.225h.223a.9.9 0 00.487-.128c.084-.049.154-.145.21-.29.041-.096.055-.337.055-.74v-6.13h-.502c-.825 0-1.223 1.017-1.303 1.705H20v-2.171h6zm7.525 2.648V24h-.209c-.027.184-.07.323-.153.415a.338.338 0 01-.278.138c-.084 0-.293-.061-.6-.2-.543-.23-1.058-.353-1.545-.353a3.57 3.57 0 00-1.867.538c-.585.369-1.045.876-1.393 1.521-.327.62-.46 1.267-.48 1.941a4.32 4.32 0 00.438 2.086 3.257 3.257 0 001.324 1.414c.57.323 1.233.5 1.972.5 1.15 0 2.045-.542 2.791-1.395v-.661c-.614.794-1.39 1.525-2.451 1.525C29.5 31.5 29.018 29.511 29 28c-.017-1.441.5-3.5 2.102-3.477.529 0 .989.184 1.393.553.404.369.682.891.835 1.583h.195z" fill="#1B2644"/><path d="M39.586 29.735h-2.261l-.293.771c-.097.257-.14.466-.14.643 0 .558.524.59.932.626V32H35.5v-.225c.25-.048.446-.144.613-.337.153-.209.362-.61.585-1.22L39.178 24h.408l2.368 6.394c.237.626.432 1.012.585 1.172.112.129.279.193.488.21V32h-3.53v-.225h.14c.736 0 .537-.503.325-1.06l-.376-.98zm-.163-.45l-.937-2.485-.98 2.485h1.917zM49.518 24.015v2.644h-.195c-.154-.692-.432-1.214-.836-1.583a1.997 1.997 0 00-1.393-.553c-1.602-.023-2.119 2.036-2.102 3.477.018 1.51.5 3.5 2.074 3.47 1.06 0 1.838-.732 2.452-1.526v.66c-.747.854-1.64 1.396-2.792 1.396a3.961 3.961 0 01-1.972-.5 3.257 3.257 0 01-1.324-1.414A4.32 4.32 0 0142.992 28c.02-.674.154-1.32.48-1.94.348-.646.808-1.153 1.393-1.522A3.57 3.57 0 0146.732 24c.487 0 1.003.123 1.546.354.306.138.515.2.599.2a.338.338 0 00.278-.139c.084-.092.126-.23.154-.415h.209v.015z" fill="#00A0CC"/></svg>