<!-- by TradingView --><svg width="56" height="56" xmlns="http://www.w3.org/2000/svg"><path fill="#50104A" d="M0 0h56v56H0z"/><path d="M12.897 34.923c-2.188-.372-4.075-1.664-5.094-3.611a6.983 6.983 0 01.05-6.596c.907-1.684 2.573-3.054 4.41-3.518.73-.184.862-.199 1.807-.198.825 0 .9.005 1.307.086 1.42.28 2.663 1.004 3.679 2.017 1.156 1.151 1.729 2.598 1.912 4.25.02.17.032 1.682.032 3.848 0 3.226-.005 3.763-.05 3.78-.064.025-3.885.025-3.95 0-.044-.017 0-.398 0-2.011 0-.99.015-1.808 0-1.817-.026-.016-.62.638-2.581 2.735-1.02 1.02-1.098 1.098-1.155 1.093a11.678 11.678 0 01-.367-.058zM17 29.453c.006-1.04.023-1.654 0-1.817a2.963 2.963 0 00-2.064-2.428c-1.386-.435-2.9.212-3.562 1.522a3.127 3.127 0 00-.309 1.508c.093 1.217.842 2.21 1.973 2.596.167.058.382.117.477.133.094.016.917.026 1.828.024L17 30.987v-1.533zm21.221 7.872c-.892 2.105-1.1 2.624-1.064 2.646.025.016 1.025.029 2.257.029 1.721 0 2.222-.008 2.261-.039.028-.022.288-.656.58-1.41a135088.013 135088.013 0 016.228-16.081c.293-.76.526-1.402.517-1.426-.015-.038-.364-.044-2.269-.044-1.238 0-2.269.012-2.291.025-.022.014-.298.783-.612 1.71l-1.399 4.123c-.455 1.342-.84 2.462-.855 2.488-.042.072-.078-.017-.557-1.383-.234-.667-.6-1.71-.815-2.316-1.168-3.304-1.586-4.494-1.586-4.512 0-.011-.024-.046-.054-.078-.051-.055-.164-.057-2.282-.057-1.226 0-2.25.013-2.274.028-.036.022.076.333.558 1.552a19771.07 19771.07 0 014.428 11.203c.186.472.339.873.339.891 0 .019-.5 1.212-1.11 2.651zM23 16h4v19h-4zm6 0h4v19h-4z" fill="#fff"/></svg>