<!-- by TradingView --><svg xmlns="http://www.w3.org/2000/svg" width="56" height="56"><path fill="#959595" d="M0 0h56v56H0z"/><path d="M12.88 14.93L29.31 13a1 1 0 01.47.05l13.57 5.1a1 1 0 01.65.93v19.45a1 1 0 01-.8.98l-16.4 3.45a1 1 0 01-.64-.07l-13.6-6.54a1 1 0 01-.56-.9V15.92a1 1 0 01.88-1zM30 20.48l-3.18.53c-.25.09-.75.47-.82 1.32v11.75l3.24-.5c.25-.11.76-.53.76-1.25V20.48z" fill="#DDD"/><path d="M30 14.76a1.67 1.67 0 00-1.29-1.67c.5-.13.96-.1 1.09-.05l13.5 5.1L30 20.46v-5.7zm-4 26.82v-7.5c-3.64.62-11.64 1.84-12.52 1.93-.88.09-1.37-.35-1.48-.69 0 .54.16.82.55 1.04l13.17 6.33c.68.43 1 .3 1.28.24-.97-.07-1.01-.95-1-1.35z" fill="#CECECE"/><path d="M26 22.4c.06-.93.55-1.28.85-1.4L13 14.93c-.61 0-.99.5-.99 1l14 6.47zm3.92 10.39c-.1.4-.47.69-.64.77l13.73 6c.99-.13.99-.84.99-1.4l-14.08-5.37z" fill="#EBEBEB"/></svg>