<!-- by TradingView --><svg width="56" height="56" xmlns="http://www.w3.org/2000/svg"><path fill="#F0F3FA" d="M0 0h56v56H0z"/><path d="M31.884 27.057c-3.883-4.88-10.861-4.25-12.803 1.678 0 .106-.105.158-.21.158-.158 0-.262-.105-.262-.261-.105-11.492 13.485-12.7 17.578-5.353.21.524.42.997.42 1.574 0 1.574-1.312 2.886-2.886 2.886-.683 0-1.417-.21-1.837-.682z" fill="#CC203C"/><path d="M24.119 28.999c3.883 4.878 10.862 4.25 12.803-1.68 0-.105.105-.157.21-.157.157 0 .262.105.262.262.105 11.491-13.485 12.698-17.578 5.352-.21-.473-.42-.997-.42-1.574a2.877 2.877 0 012.886-2.887c.682 0 1.417.211 1.837.684z" fill="#3A3B92"/><path d="M11.893 33.563c-.63-1.94-.893-3.567-.893-5.51C11 18.61 18.609 11 28.001 11c6.35 0 11.86 3.463 14.798 8.606.21.472.367.944.367 1.469a3.158 3.158 0 01-3.148 3.148c-.84 0-1.732-.262-2.204-.944-9.97-13.17-27.549-3.726-25.344 10.179 0 .158-.105.316-.263.316-.157.052-.262-.053-.314-.21z" fill="#3A3B92"/><path d="M44.11 22.492c.63 1.941.892 3.568.892 5.562 0 9.393-7.61 17.001-17.002 17.001-6.349 0-11.858-3.464-14.797-8.606a3.375 3.375 0 01-.367-1.47 3.156 3.156 0 013.149-3.147c.839 0 1.678.261 2.203.944 9.97 13.171 27.548 3.725 25.345-10.18 0-.157.105-.315.262-.315.158-.051.263.053.315.21z" fill="#CC203C"/></svg>