<!-- by TradingView --><svg width="56" height="56" xmlns="http://www.w3.org/2000/svg"><path fill="#005395" d="M0 0h56v56H0z"/><path d="M3 33h50v3H3v-3z" fill="#fff"/><path d="M10.2 31h2.531L9.245 20.962H6.487L3 31h2.208l.705-2h3.581l.706 2zm-3.591-4.003l1.095-3.183 1.095 3.183h-2.19zM16 23v4.662s0 1.838 1.214 1.846C18.5 29.518 19 28.302 19 26.993V23h2v8h-2v-1.187S18.383 31 16.572 31c0 0-2.572-.002-2.572-2.5v-5.788L16 23zm9.542-2.003L25.5 23h2v1.5h-2l.042 4.297s.03.492.212.694c.181.203.187.334.826.346.638.014.764-.078.82-.1v.998s-.366.186-.867.248c-.5.062-.959.017-1.244.017-.286 0-1.967 0-1.967-1.952V24.5H22l.095-.936 3.447-2.567zm6.988 1.972h-.056c-2.171.022-3.974 1.34-3.974 4.007 0 2.197 1.325 3.981 3.974 4.006v.001h.056v-.001c2.648-.025 3.973-1.809 3.973-4.006 0-2.667-1.803-3.985-3.973-4.007zm-.028 6.377c-1.13 0-1.696-1.084-1.696-2.423 0-1.626.772-2.423 1.696-2.423.924 0 1.696.797 1.696 2.423 0 1.339-.565 2.423-1.696 2.423zM38 21.316V31h2V19l-2 2.316zM44 22v-3l-2 2.316V22h2zm-2 1v8h2v-8h-2zm11.009 0H51.5l-2 5-1.902-5H45l3 8h2l3.009-8z" fill="#fff"/></svg>