<!-- by TradingView --><svg width="56" height="56" xmlns="http://www.w3.org/2000/svg"><path fill="#002F87" d="M0 0h56v56H0z"/><path d="M32 37h4V22.937c0-1.38-.592-1.937-1.938-1.937H32v16zm-2 0V18.875c0-1.407-.432-1.88-1.8-1.88h-3.203V19h.246c.814 0 .757.864.757 2v16h4zm-6 0V21h-2.063C20.593 21 20 21.558 20 22.937V37h4z" fill="#fff"/><path d="M41.281 28.002c0 7.78-5.593 13.438-13.28 13.438-7.687 0-13.282-5.657-13.282-13.438 0-7.784 5.595-13.441 13.282-13.441S41.28 20.253 41.28 28zm2.719 0C44 18.852 37.155 12 28.001 12 18.842 12 12 18.852 12 28.002c0 9.161 6.843 15.996 16.001 15.996C37.155 43.998 44 37.163 44 28.002z" fill="#fff"/></svg>