<!-- by TradingView --><svg width="56" height="56" fill="none" xmlns="http://www.w3.org/2000/svg"><path fill="#F0F3FA" d="M0 0h56v56H0z"/><path opacity=".5" d="M15.737 20.155C11.061 23.693 10 26.955 10 28.453c0 2.675 1.817 5.476 3.641 7.54 2.767 3.131 7.5 6.391 11.475 7.577 6.663 1.987 13.053-3.226 15.988-9.156-2.435 4.146-8.897 3.106-12.596 1.58-2.122-.877-4.54-2.216-6.66-3.894-4.682-3.708-8.349-9.848-3.873-13.51a36.693 36.693 0 00-2.238 1.565z" fill="#31209E"/><path d="M12.348 23.33c.832-1.002 1.936-2.075 3.39-3.175a36.69 36.69 0 012.237-1.565c-3.199 2.617-2.238 6.5.279 9.856-.34.358-.624.679-.857.951a13.205 13.205 0 00-1.216 1.666c-1.194 1.998-1.573 3.36-1.578 4.35-.005 1.04.4 1.69.715 2.194l.117.19a23.061 23.061 0 01-1.794-1.804 22.428 22.428 0 01-.68-.807C11.391 33.231 10 30.794 10 28.453c0-.187.017-.402.055-.642.172-1.08.783-2.664 2.293-4.482z" fill="url(#paint0_linear_3186)"/><path d="M18.254 28.446c1.153-1.218 2.932-2.872 5.39-4.538.704-2.503 1.711-5.06 3.106-7.117.941-1.388 1.918-2.554 3.588-3.404a22.32 22.32 0 00-1.208.282c-3.877 1.01-7.729 2.71-11.155 4.921-3.199 2.617-2.238 6.5.279 9.856z" fill="url(#paint1_linear_3186)"/><g opacity=".5" fill="#076A2E"><path d="M15.86 38.173a26.76 26.76 0 000 0zM25.489 43.673a10.48 10.48 0 01-.373-.104c-3.015-.899-6.467-2.992-9.166-5.317l-.09-.078c1.519 1.178 3.639 1.207 5.455 1.005.47-.052.947-.122 1.426-.208.788 3.117 2.2 4.393 2.748 4.702z"/></g><path d="M31.992 13.118c-.19.023-.38.048-.57.077 2.032.069 3.448 2.26 4.115 5.509.431-.077.866-.14 1.302-.19 4.873-.553 6.452 1.132 6.992 2.757a13.291 13.291 0 00-.388-1.685c-.718-2.396-2.69-6.252-8.674-6.566a15.67 15.67 0 00-1.251-.014c-.513.015-1.021.053-1.526.112z" fill="url(#paint2_linear_3186)"/><path d="M30.338 13.388c-1.67.849-2.647 2.015-3.588 3.403-1.395 2.057-2.402 4.614-3.105 7.118 2.382-1.615 5.402-3.24 9.109-4.493a19.264 19.264 0 012.783-.712c-.667-3.248-2.083-5.44-4.115-5.509a19.466 19.466 0 01-1.084.193z" fill="url(#paint3_linear_3186)"/><path d="M26.893 43.934c5.298.606 10.236-3.07 13.159-7.657.418-.655.794-1.329 1.125-2.011.942-1.945 2.893-6.666 2.821-11.126a12.894 12.894 0 00-.055-1c-.105 2.367-1.295 4.196-2.557 5.796-1.711 2.231-4.246 4.445-7.165 6.317a34.29 34.29 0 01-.253.753c-1.798 5.152-4.636 8.928-7.075 8.928z" fill="url(#paint4_linear_3186)"/><path d="M36.847 18.5c4.817-.547 6.414 1.12 6.973 2.728.011.033.02.063.025.098.024.165.071.557.094.74.012.097.01.122.004.223-.143 2.301-1.311 4.09-2.55 5.66-1.71 2.231-4.245 4.445-7.165 6.317a37 37 0 001.67-8.65c.184-2.555.063-4.92-.354-6.916.432-.077.866-.15 1.303-.2z" fill="url(#paint5_linear_3186)"/><path d="M18.254 28.446c1.005 1.34 2.258 2.596 3.594 3.654.127.1.255.2.384.298.045-.864.128-1.789.255-2.779.214-1.67.585-3.673 1.158-5.71-.154.103-.305.207-.453.311-2.226 1.56-3.857 3.084-4.938 4.226z" fill="url(#paint6_linear_3186)"/><path d="M22.232 32.398a24.588 24.588 0 01-.384-.298c-1.336-1.058-2.59-2.314-3.594-3.654-.34.358-.624.679-.857.951a13.187 13.187 0 00-1.216 1.666c-1.194 1.998-1.573 3.36-1.578 4.35-.005 1.04.4 1.69.715 2.194.185.296.436.498.714.694 1.523 1.069 3.523 1.074 5.283.878a21.44 21.44 0 001.426-.208c-.415-1.64-.657-3.788-.51-6.573z" fill="url(#paint7_linear_3186)"/><path d="M28.508 35.993c.48.198 1.004.387 1.56.559-2.398 1.13-4.904 1.983-7.327 2.419-.415-1.64-.657-3.788-.51-6.573a28.83 28.83 0 006.277 3.595z" fill="url(#paint8_linear_3186)"/><path d="M22.74 38.97c-.478.087-.954.157-1.425.21-1.816.201-3.936.172-5.455-1.006a27.875 27.875 0 000 0l.09.078c2.7 2.325 6.151 4.418 9.166 5.317.124.038.248.072.373.104-.547-.31-1.96-1.584-2.748-4.702z" fill="url(#paint9_linear_3186)"/><path d="M33.098 37.214a29.324 29.324 0 001.123-2.961 36.748 36.748 0 01-4.152 2.298c.943.29 1.976.528 3.029.663z" fill="url(#paint10_linear_3186)"/><path d="M26.893 43.934c2.075 0 4.438-2.732 6.205-6.72a18.364 18.364 0 01-3.03-.663c-2.398 1.131-4.904 1.984-7.327 2.42l.035.138c.593 2.251 1.512 3.514 2.163 4.137.222.212.413.35.55.427.47.122.938.208 1.403.261z" fill="url(#paint11_linear_3186)"/><path d="M40.052 36.277c.387-.608.74-1.232 1.052-1.863-1.586 2.7-4.88 3.2-8.006 2.8-1.767 3.988-4.13 6.72-6.206 6.72.757.087 1.507.086 2.244.008 1.68-.179 3.296-.76 4.793-1.627 2.444-1.418 4.569-3.6 6.123-6.038z" fill="url(#paint12_linear_3186)"/><defs><linearGradient id="paint0_linear_3186" x1="16.217" y1="20.382" x2="11.872" y2="32.956" gradientUnits="userSpaceOnUse"><stop stop-color="#02102F"/><stop offset="1" stop-color="#01122C"/></linearGradient><linearGradient id="paint1_linear_3186" x1="27.123" y1="15.292" x2="17.507" y2="26.956" gradientUnits="userSpaceOnUse"><stop stop-color="#05A0CD"/><stop offset=".143" stop-color="#1197D1"/><stop offset="1" stop-color="#034D78"/></linearGradient><linearGradient id="paint2_linear_3186" x1="33.571" y1="13.681" x2="42.174" y2="18.166" gradientUnits="userSpaceOnUse"><stop stop-color="#43A95C"/><stop offset="1" stop-color="#1C9443"/></linearGradient><linearGradient id="paint3_linear_3186" x1="34.352" y1="16.495" x2="24.408" y2="22.259" gradientUnits="userSpaceOnUse"><stop stop-color="#74C598"/><stop offset=".685" stop-color="#DCEBF1"/><stop offset="1" stop-color="#92BDD1"/></linearGradient><linearGradient id="paint4_linear_3186" x1="43.997" y1="25.584" x2="33.717" y2="36.267" gradientUnits="userSpaceOnUse"><stop stop-color="#01A3DB"/><stop offset=".472" stop-color="#227FB4"/><stop offset="1" stop-color="#196285"/></linearGradient><linearGradient id="paint5_linear_3186" x1="39.088" y1="18.42" x2="34.687" y2="33.263" gradientUnits="userSpaceOnUse"><stop stop-color="#65BF88"/><stop offset=".634" stop-color="#C4E3EF"/><stop offset="1" stop-color="#7CAEC3"/></linearGradient><linearGradient id="paint6_linear_3186" x1="23.642" y1="24.825" x2="20.754" y2="30.768" gradientUnits="userSpaceOnUse"><stop stop-color="#81D1EF"/><stop offset=".513" stop-color="#A2D8F0"/><stop offset="1" stop-color="#78B0CB"/></linearGradient><linearGradient id="paint7_linear_3186" x1="20.285" y1="30.86" x2="18.539" y2="39.25" gradientUnits="userSpaceOnUse"><stop stop-color="#08496C"/><stop offset="1" stop-color="#003557"/></linearGradient><linearGradient id="paint8_linear_3186" x1="22.931" y1="33.747" x2="28.776" y2="36.5" gradientUnits="userSpaceOnUse"><stop stop-color="#6299B5"/><stop offset="1" stop-color="#BADEE6"/></linearGradient><linearGradient id="paint9_linear_3186" x1="19.894" y1="39.486" x2="23.801" y2="42.934" gradientUnits="userSpaceOnUse"><stop stop-color="#010D25"/><stop offset="1" stop-color="#01122E"/></linearGradient><linearGradient id="paint10_linear_3186" x1="33.891" y1="34.673" x2="30.761" y2="36.646" gradientUnits="userSpaceOnUse"><stop stop-color="#A7CEDF"/><stop offset="1" stop-color="#7CAEC3"/></linearGradient><linearGradient id="paint11_linear_3186" x1="31.759" y1="37.709" x2="24.313" y2="40.044" gradientUnits="userSpaceOnUse"><stop stop-color="#3379AC"/><stop offset="1" stop-color="#0F3D60"/></linearGradient><linearGradient id="paint12_linear_3186" x1="37.532" y1="37.375" x2="28.581" y2="43.65" gradientUnits="userSpaceOnUse"><stop stop-color="#054682"/><stop offset="1" stop-color="#012146"/></linearGradient></defs></svg>