<!-- by TradingView --><svg width="56" height="56" xmlns="http://www.w3.org/2000/svg"><path fill="#035643" d="M0 0h56v56H0z"/><path d="M48.762 28.747L12 44.561V12.249l-1-.754V46l38.443-16.941-.681-.312z" fill="#fff"/><path d="M13 10v33.26l37-16.256L13 10zm6.976 20l-.433-1.377h-2.476L16.633 30H14.9l2.476-7h2.105l2.607 7h-2.112zm10.276 0h-1.485v-5.363L27.28 30h-1.548l-1.362-5.363V30h-1.485v-7h2.785l1.053 5 .99-5h2.662l-.124 7zm4.334-.007C32.5 30 31.49 28.17 31.49 26.24S32.667 23 34.586 23c1.485-.062 3.095.187 3.095 1.993h-1.733c-.062-.623-.558-.81-1.115-.81-1.176 0-1.61 1.06-1.61 2.056 0 1.245.59 2.57 1.858 2.57.31 0 .61-.062.919-.124v-1.183h-1.352v-1.184h2.971v3.364c-1.238.187-1.486.311-3.033.311z" fill="#fff"/><path d="M18.305 24.823L17.5 27.44h1.672l-.805-2.616h-.062z" fill="#fff"/></svg>