<!-- by TradingView --><svg width="56" height="56" xmlns="http://www.w3.org/2000/svg"><path fill="#F0F3FA" d="M0 0h56v56H0z"/><path d="M30.412 41.962L24.914 34h5.488l4.03 6c-.553 1.271-1.6 3.543-2.202 3.543-.246 0-1.25-.846-1.818-1.581z" fill="#34B234"/><path d="M37.232 22.971l-5.498.033L38 33h5c0-.586-.113-.816-.31-1.216l-.005-.01-5.453-8.803z" fill="#003C6A"/><path d="M24.418 33l7.317-10 2.605 4.174L29.998 33h-5.58z" fill="#015BBB"/><path d="M23.384 13.942L17.957 22h5.579l3.857-5.8c-.571-1.275-1.89-3.948-2.467-3.716-.465.188-1.084.787-1.542 1.458z" fill="#AD98DB"/><path d="M36.638 22h-5.47l-6.347-9.467c.409-.301 1.027-.443 1.286-.476.259-.033.662-.057 2.205-.057 1.106 0 2.062.789 2.632 1.465L36.638 22z" fill="#663AB6"/><path d="M38.083 42.466l4.832-7.662C43 34.591 43 34.2 43 34h-4.74l-6.16 9.501c.397.299.992.413 1.243.446.25.033.79.071 2.1.03.935-.03 1.796-.476 2.64-1.511z" fill="#018B96"/><path d="M17.265 22.998L11 33h5.554l3.748-5.998-3.037-4.004z" fill="#5EB6E4"/><path d="M24.422 33l-7.16-10.002h5.52l4.437 6.178L24.422 33z" fill="#0098DB"/><path d="M24.915 34L17.31 44h5.555l4.673-6.226L24.915 34z" fill="#7BB801"/></svg>