<!-- by TradingView --><svg width="56" height="56" xmlns="http://www.w3.org/2000/svg"><path fill="#01253E" d="M0 0h56v56H0z"/><path fill-rule="evenodd" d="M41.864 21.072c1.183 1.157 1.74 2.3 1.46 3.278a1.925 1.925 0 01-.38.705c.935 1.09 1.341 2.15 1.077 3.074-.118.413-.364.778-.723 1.092-.138-.648-.484-1.353-1.01-2.09a2.42 2.42 0 01-.598.501c.61.599 1.079 1.194 1.383 1.77.08-.059.155-.119.225-.181.064.298.084.584.058.855.148.486.167.953.041 1.39-.123.432-.38.813-.753 1.14a4.49 4.49 0 00-.297-.891c-.385.265-.87.469-1.44.612.241.338.428.672.555.998.47-.202.868-.441 1.182-.718.123.58.087 1.118-.126 1.593-.218.489-.609.882-1.146 1.182-.13.218-.3.418-.51.601a3.765 3.765 0 00-.085-.327 7.3 7.3 0 01-1.762.392c.08.297.103.584.066.86.742-.233 1.345-.541 1.782-.925.119.557.085 1.072-.12 1.528-.352.788-1.175 1.317-2.347 1.596-.028.158-.074.31-.139.456-.382.854-1.37 1.376-2.777 1.578-.024.107-.059.211-.104.312-.464 1.04-1.953 1.516-4.024 1.456-.013.04-.028.081-.046.12-.715 1.606-4.773 1.359-9.064-.552a21.343 21.343 0 01-2.902-1.562c1.004.489 2.157.932 3.404 1.29.497.144.99.268 1.472.373a12.42 12.42 0 01-1.85-.66 12.467 12.467 0 01-1.698-.913c.587.286 1.261.545 1.991.756 1.61.463 3.117.58 4.109.378a30.762 30.762 0 01-4.178-1.515 30.598 30.598 0 01-4.06-2.17c-.055.698.787 1.676 2.138 2.55-1.53-.745-2.47-1.67-2.268-2.37a.705.705 0 01.096-.202l-.012-.008.012.007a.839.839 0 01.045-.059.77.77 0 00-.01.075c1.409.68 3.022 1.298 4.765 1.802 1.43.413 2.826.714 4.139.906-.345-.54-.995-1.138-1.852-1.694a38.3 38.3 0 01-3.688-1.589c-1.608-.221-2.907-.042-3.354.5a.712.712 0 01.05-.16c.295-.664 1.58-.781 3.2-.391a34.722 34.722 0 01-3.236-1.826 36.011 36.011 0 005.616 2.128c1.7.492 3.36.85 4.917 1.076-1.119-.902-2.581-1.79-4.256-2.537a21.437 21.437 0 00-2.995-1.083c.446.071.904.16 1.371.265a38.507 38.507 0 01-4.04-2.243c1.816.879 3.898 1.679 6.15 2.331 2.998.868 5.88 1.354 8.365 1.475-.795-.815-1.823-1.65-3.031-2.455a41.575 41.575 0 01-5.112-1.886 42.06 42.06 0 01-4.233-2.166c-2.234-.304-4.214-.289-5.691.03.99.895 2.188 1.8 3.551 2.671-1.632-.79-3.05-1.642-4.183-2.507-.553.171-1.011.395-1.356.67.84 1.094 2.098 2.253 3.672 3.381 1.123-.215 2.73-.064 4.537.434-1.563-.247-2.975-.28-4.076-.11.257.176.522.352.794.526a28.39 28.39 0 01-.977-.496c-.847.153-1.492.434-1.855.837.771.7 1.702 1.407 2.76 2.089a20.168 20.168 0 01-2.816-1.636c.112 1.177 1.516 2.729 3.673 4.126-2.63-1.28-4.248-2.873-3.9-4.079.016-.057.036-.112.061-.166-1.878-1.367-2.874-2.795-2.54-3.958.044-.155.111-.301.2-.44-.914-1.03-1.317-2.031-1.068-2.903.076-.264.209-.506.394-.727-.155.84.21 1.849.997 2.929.204-.368.546-.658 1.003-.872-.86-.714-1.52-1.432-1.941-2.124l-.06.067a1.97 1.97 0 01.027-.121c-.455-.77-.614-1.506-.423-2.174.083-.289.228-.554.43-.795-.117.638.04 1.364.434 2.143.399-.447 1.021-.763 1.82-.953-.666-.604-1.19-1.207-1.551-1.794-.28.18-.516.382-.702.604A2.114 2.114 0 0113 24.55c-.341-.69-.444-1.352-.27-1.958a2.25 2.25 0 01.448-.83c-.123.67.042 1.434.458 2.254.634-.391 1.505-.633 2.56-.73-.881-.855-1.458-1.702-1.665-2.494-.575.264-1.032.588-1.353.97.033-.175.085-.343.157-.504.213-.478.592-.865 1.112-1.163a2.062 2.062 0 01.508-1.305 2.67 2.67 0 00.031 1.047c.825-.328 1.894-.491 3.146-.495-.498-.644-.783-1.272-.816-1.858-1.065.293-1.877.73-2.36 1.306.03-.167.08-.328.149-.482.35-.783 1.165-1.31 2.324-1.591.077-.204.19-.394.337-.57-.03.162-.04.33-.032.503.849-.166 1.861-.213 2.996-.143-.32-.559-.428-1.097-.287-1.585.009-.03.018-.06.029-.09-1.248.254-2.188.695-2.706 1.315.027-.148.071-.291.132-.428.392-.876 1.43-1.395 2.908-1.57.018-.06.04-.117.065-.173.417-.936 1.712-1.387 3.518-1.376.89-.822 3.112-.84 5.762-.108-2.095-.333-3.919-.279-5.086.133 1.106.07 2.368.293 3.714.663.65-.088 1.542.01 2.536.285a9.556 9.556 0 00-1.68-.131 29.763 29.763 0 014.186 1.123c-.235-.121-.48-.24-.733-.352a12.844 12.844 0 00-1.773-.64c.5.08 1.027.198 1.565.353 1.453.42 2.688 1.03 3.466 1.655.355.165.698.334 1.027.507-1.115-.894-2.567-1.774-4.227-2.514a21.442 21.442 0 00-2.995-1.082c.846.133 1.736.33 2.645.592 4.022 1.158 7.056 3.193 7.33 4.802 1.325 1.112 1.993 2.24 1.737 3.186zm-23.198-1.119c-1.343.066-2.517.259-3.462.575.345.846.993 1.766 1.892 2.712 1.816-.029 4.052.304 6.49.982-2.174-.355-4.184-.483-5.898-.392 1.056 1.005 2.38 2.027 3.914 3.009-1.908-.923-3.522-1.932-4.732-2.947-1.151.116-2.14.342-2.92.675.407.655.96 1.338 1.641 2.032 1.795-.215 4.224.062 6.932.809a35.375 35.375 0 01-.92-.57c.474.23.966.454 1.475.672 1.246.221 2.545.523 3.87.907a37.033 37.033 0 014.622 1.669c1.805.342 3.514.534 5.057.578-2.018-1.59-4.639-3.16-7.631-4.487a39.691 39.691 0 00-5.41-1.955c.814.133 1.651.297 2.505.494a32.549 32.549 0 01-2.496-1.447 34.34 34.34 0 005.407 2.05c3.182.92 6.216 1.345 8.671 1.305-1.423-1.065-3.098-2.112-4.961-3.08a28.728 28.728 0 01-3.348-1.251 29.26 29.26 0 01-2.504-1.258 38.19 38.19 0 00-2.171-.675c.485.079.979.169 1.479.27-.208-.127-.411-.254-.61-.382.328.16.667.314 1.017.465 1.005.214 2.034.47 3.076.772a43.38 43.38 0 013.521 1.183c1.72.295 3.308.396 4.647.31a35.922 35.922 0 00-4.08-2.456 21.27 21.27 0 01-3.181-1.133 21.771 21.771 0 01-2.459-1.284c-.705-.241-1.4-.457-2.078-.646.465.076.937.163 1.415.26-1.941-.98-3.29-2.125-3.639-3.137-1.138-.024-2.172.043-3.062.2.033.542.282 1.147.715 1.784 1.388.139 2.934.438 4.57.893a31.087 31.087 0 00-4.213-.412c.84 1.046 2.134 2.156 3.752 3.201-2.039-.99-3.613-2.123-4.466-3.208-1.21.007-2.301.112-3.232.311.189.627.58 1.307 1.143 2.012 1.67.085 3.607.42 5.685.997-1.877-.305-3.636-.447-5.2-.43 1.009 1.103 2.412 2.25 4.106 3.339-2.124-1.03-3.832-2.183-4.929-3.316zm18.317 4.428a24.436 24.436 0 013.223 1.996 7.902 7.902 0 001.197-.331 18.785 18.785 0 00-1.927-1.81c-.687.163-1.532.21-2.493.145zm2.652 3.869c-1.223.14-2.742.048-4.44-.27 1.61.827 2.984 1.713 4.047 2.604a11.721 11.721 0 002.17-.406 15.18 15.18 0 00-1.777-1.928zM15.4 27.276c-.914.172-1.674.437-2.24.795.45.765 1.116 1.575 1.963 2.397 1.415-.388 3.531-.279 5.965.303-.344-.205-.68-.413-1.007-.622.606.293 1.24.578 1.9.852 1.191.192 2.446.472 3.727.842a31.014 31.014 0 014.347 1.605c1.925.383 3.752.603 5.404.665-.994-.885-2.207-1.776-3.59-2.629a40.066 40.066 0 01-5.015-1.843 40.4 40.4 0 01-4.313-2.223c-2.424-.391-4.622-.473-6.376-.26 1.072 1.001 2.395 2.015 3.916 2.99-1.861-.9-3.454-1.881-4.681-2.872zm22.394 6.81c.727-.047 1.4-.134 2.01-.26a12.45 12.45 0 00-1.05-1.247c-.917.014-1.94-.064-3.043-.231.835.574 1.538 1.16 2.083 1.738zm-.457 2.027a21.684 21.684 0 01-3.417-.374c.714.564 1.274 1.134 1.648 1.687.89-.028 1.708-.112 2.435-.25a7.226 7.226 0 00-.666-1.063zm-15.349-5.11c1.266.353 2.602.824 3.958 1.413a42.363 42.363 0 01-3.958-1.412zm8.835 8.399c-.428-.413-.98-.828-1.63-1.227 2.168.648 4.195 1.03 5.934 1.137l.023.043c-1.236.17-2.705.187-4.327.047zm-7.254-11.687c1 .312 2.031.685 3.075 1.117a40.639 40.639 0 01-3.075-1.117zm3.944-9.981c-1.571-1.039-2.724-2.156-3.239-3.137 1.012.043 2.099.156 3.236.34l.172.048c.315.556 1.103 1.164 2.178 1.686.509.327 1.089.641 1.72.921 1.676.745 3.291 1.065 4.312.925.71.42 1.376.85 1.995 1.287-.918.156-2.063.165-3.34.021-1.18-.468-2.438-.9-3.754-1.28a42.036 42.036 0 00-3.28-.811zm-3.515-4.439c-.053.284-.013.598.11.933 1.056.138 2.201.375 3.402.708l.16.027c-.13-.239-.172-.467-.113-.675a.717.717 0 01.142-.263c-.054.288.06.63.31.996a36.02 36.02 0 013.698.864 34.922 34.922 0 014.855 1.79 1.43 1.43 0 00.4-.24c.03.151.028.293-.01.422.924.441 1.773.906 2.53 1.384.036-.024.07-.049.102-.074-.656-.663-1.474-1.338-2.422-1.994a.804.804 0 01-.2.262 1.75 1.75 0 00-.245-.563 27.914 27.914 0 00-3.975-2.155 28.676 28.676 0 00-3.387-1.264c-.789.05-1.382.243-1.656.572a.709.709 0 01.05-.159c.139-.313.502-.504 1.017-.576-1.681-.265-3.227-.34-4.521-.234a1.655 1.655 0 00-.247.24zm0 0a1.25 1.25 0 00-.243.453c-.04.14-.054.283-.043.432-1.022-.113-1.953-.13-2.76-.047.618-.567 1.707-.924 3.11-1.06-.028.072-.05.146-.064.223zm7.877 4.14a12.752 12.752 0 01-2.015-.764c-.802-.517-1.428-1.068-1.798-1.576a35.04 35.04 0 014.204 1.56c.898.4 1.758.823 2.571 1.265-.863-.016-1.89-.175-2.962-.485zm5.32 3.563c.729-.021 1.334-.15 1.77-.388a17.825 17.825 0 011.837 1.66c-.23.125-.492.235-.783.33a26.844 26.844 0 00-2.824-1.602zm3.865 2.333c.5.378.945.758 1.33 1.136-.243-.521-.609-1.07-1.083-1.634a1.582 1.582 0 01-.247.498zM39.73 19.4a1.48 1.48 0 00-.003-.087c.07.073.138.146.204.22a18.426 18.426 0 00-.201-.133zm-8.64 22.007c-.956.02-2.012-.04-3.137-.181.02-.366-.235-.78-.697-1.193 1.23.386 2.414.68 3.522.882.12.167.225.331.312.492zm-17.82-9.014c.87.944 2.164 1.907 3.77 2.811-.631.166-1.077.467-1.272.905-.03.066-.053.134-.07.204-1.55-1.416-2.447-2.808-2.428-3.92zm18.55 8.982c.477-.033.923-.088 1.333-.165a18.364 18.364 0 01-1.327-.13c.01.1.008.199-.006.295zm-6.158 1.465c.941.078 1.65-.08 1.926-.486.848.207 1.658.357 2.415.45-1.102.266-2.622.283-4.341.036z" fill="#fff"/></svg>