<!-- by TradingView --><svg xmlns="http://www.w3.org/2000/svg" width="56" height="56"><path fill="#FF6000" d="M0 0h56v56H0z"/><path d="M9.5 20L4 32h1l5-10.5 2.99 6.32c-2.17-.83-4.26-.07-4.31-.05-.05.01-.18.1-.11.18.05.07.2.06.26.05 3.5-.68 5.49 2.22 6.17 4h1l-5.5-12h-1zm7.5 4v8h1v-6.03c.8-.87 1.75-.97 2.15-.97 1.32 0 1.85 1.21 1.85 2.06V32h1v-5.8c.79-.87 1.47-1.21 2.04-1.21A1.92 1.92 0 0127 26.84V32h1v-5.16c0-1.16-.73-2.84-2.48-2.84-1.4 0-2.27 1.24-2.54 1.86-.04-.24-.86-1.86-2.41-1.86-1.24 0-2.29 1.05-2.57 1.58V24h-1zm14 0h-1v13h1V25.18c3.35-.78 5 1.26 5 2.8 0 3.1-2.65 3.7-3.89 3.66-.09 0-.27.01-.29.13-.02.11.19.18.3.2 1.91.3 4.88-.66 4.88-3.99 0-3.11-3.07-4-4.1-3.98a4.71 4.71 0 00-1.9.34V24zm8 0h1v8h-1z" fill="#fff"/><circle cx="39.5" cy="22.5" r=".5" fill="#fff"/><path d="M50.03 27.06a4.22 4.22 0 01-8.27 1.22 4.64 4.64 0 105.22-5.27 4.21 4.21 0 013.05 4.05zm-1.18-1.46c.22.45.32.93.33 1.4a3.06 3.06 0 01-3.03 3.28c.18-.02.36-.07.54-.14a2.67 2.67 0 001.68-3.39 2.5 2.5 0 00-.5-.82 2.58 2.58 0 00-2.1-.76c-1.42.15-2.4 1.5-2.2 3.02.09.7.42 1.31.89 1.75a2.98 2.98 0 01-.96-4.45c.1-.15.2-.29.33-.42a3.12 3.12 0 00-1.33 3.07A3.41 3.41 0 0144.3 24a3.4 3.4 0 014.55 1.59z" fill="#fff"/></svg>