<!-- by TradingView --><svg xmlns="http://www.w3.org/2000/svg" width="56" height="56"><path fill="#F0F3FA" d="M0 0h56v56H0z"/><path fill-rule="evenodd" d="M12.34 34.08c1.8 4.85 10.28 6.05 18.93 2.7 8.65-3.37 14.2-10.02 12.39-14.86-1.8-4.84-10.28-6.04-18.93-2.68s-14.2 10-12.39 14.84zm1.44-2.04c1.35 3.6 8.56 4.16 16.12 1.22 7.55-2.93 12.58-8.23 11.24-11.84-1.35-3.61-8.56-4.16-16.12-1.23-7.55 2.94-12.58 8.24-11.24 11.85z" fill="#0265A5"/><path fill-rule="evenodd" d="M25.85 44.96c5.03.67 10.07-6.39 11.26-15.75 1.2-9.37-1.92-17.5-6.96-18.16-5.03-.67-10.08 6.38-11.26 15.75-1.2 9.36 1.92 17.5 6.96 18.16zm-1.09-2.26c3.75.5 7.64-5.74 8.68-13.92 1.03-8.18-1.16-15.21-4.92-15.7-3.75-.5-7.63 5.73-8.67 13.9C18.8 35.18 21 42.2 24.76 42.7z" fill="#01853F"/><path d="M20.57 35.15c-.82 0-1.57-.09-1.87-.13l.51 3.47c.61.11 1.63.17 2.16.18l-.8-3.52z" fill="#0265A5"/></svg>