<!-- by TradingView --><svg xmlns="http://www.w3.org/2000/svg" width="56" height="56"><path fill="#47188B" d="M0 0h56v56H0z"/><path d="M4.49 24.9c1-1.15 6.51-1.85 6.51 2.15v4c0 .5.49 1 .49 1s-2 .9-2.5-.6c-.94 1.03-2.59 1.08-3.69.48-1.22-.63-1.74-2.57-.86-3.64.68-.83 1.96-1.24 3.06-1.24h1.49c0-1.5-2.2-2.2-4.2-.7-.33-.17-.72-.97-.3-1.45zM9 30.05v-2c-4.5-.5-3 4.5 0 2zm8.25-6.25c-.93 0-1.75.46-2.25 1.17 0 0-.19-.97-1-.97h-1v8h2v-4.7a1.5 1.5 0 013 0V32h2v-4.7a1.5 1.5 0 013 0V32h2v-5.45a2.75 2.75 0 00-5.25-1.15 2.75 2.75 0 00-2.5-1.6zm8.69.2l2.58 8h.98l-.16.44c-.38 1.04-1.37 1.2-2.34.56-.24-.16-.53.41-.61.9-.08.43.16.65.61.82 2.47.97 3.89-.58 4.55-2.72L34 24h-1.5c-.57 0-.93 1.12-.93 1.12l-1.54 5.02-1.63-5.02S28.06 24 27.5 24h-1.56zM37 25.5c.33-1 1.5-2.5 4-1.3-.17.77-.9 2.2-2.5 1.8-1.17-.3-1.5.5-1.5 1v5h-2v-8h1c1 0 1 1 1 1v.5zm5-1.5h1c.77 0 1 1 1 1v7h-1c-.8 0-1-1-1-1v-7z" fill="#fff"/><circle cx="43" cy="22" r="1" fill="#fff"/><path d="M45.8 25c1.6-2 5.2-1.2 5.7-.2 0 .64-.27 1.27-.5 1.4-1.09-.87-2.18-.93-2.84-.73-.84.25-.8.96 0 1.27.25.1.57.17.9.25.49.12 1.01.25 1.44.51 1.16.7 1.37 1.66 1.2 2.5-.28 1.45-1.48 2.16-2.89 2.34-1.37.17-2.89-.12-3.61-.84-.4-.4.3-1.3.8-1.5.5.5 1.8 1.3 3 .5.59-.4.64-.94 0-1.3-1.17-.66-2.68-.35-3.4-1.7a2.33 2.33 0 01.2-2.5z" fill="#fff"/></svg>