<!-- by TradingView --><svg width="56" height="56" fill="none" xmlns="http://www.w3.org/2000/svg"><path fill="#003D79" d="M0 0h56v56H0z"/><path fill-rule="evenodd" clip-rule="evenodd" d="M23.035 20.997c1.255-.017 2.544.376 3.665.892l-.389.891c-1.048-.482-2.116-.797-3.276-.78-1.398.02-3.044.706-3.035 2.355.008 1.455 1.18 2.27 2.43 2.765.254.1.521.194.794.29.7.246 1.437.505 2.096.93 1.117.72 1.756 1.872 1.672 3.22-.074 1.171-.56 2.024-1.306 2.587-.79.595-1.816.829-2.834.851-1.346.03-2.755-.309-3.772-.805l.408-.893c.887.433 2.166.73 3.364.7.896-.023 1.688-.17 2.258-.6.514-.387.832-.983.89-1.9.126-2.004-1.667-2.663-3.25-3.245-.227-.084-.45-.166-.663-.25-1.552-.615-3.07-1.822-3.087-3.634-.02-2.116 2.15-3.348 4.035-3.373zM29 27.533V21h1v6.533h7V21h1v14h-1v-6.467h-7V35h-1v-7.467zm18.7-5.642c-1.12-.515-2.41-.908-3.664-.89-1.886.025-4.055 1.257-4.036 3.372.017 1.812 1.535 3.019 3.087 3.634.213.084.436.166.663.25 1.584.581 3.376 1.24 3.25 3.244-.057.916-.376 1.512-.89 1.9-.57.43-1.361.577-2.258.6-1.197.03-2.477-.268-3.364-.7l-.408.892c1.017.497 2.426.835 3.772.805 1.019-.022 2.045-.256 2.835-.851.745-.562 1.232-1.415 1.306-2.586.084-1.348-.555-2.5-1.672-3.22-.66-.424-1.397-.683-2.097-.93a21.68 21.68 0 01-.794-.29c-1.25-.494-2.422-1.31-2.43-2.763-.008-1.65 1.638-2.334 3.036-2.355 1.16-.017 2.228.298 3.276.78l.389-.892zM9.453 29L12 22.73 14.548 29H9.452zm-.406 1l-2.032 5H6l5.69-14h.62L18 35h-1.014l-2.032-5H9.046z" fill="#fff"/></svg>