<!-- by TradingView --><svg width="56" height="56" xmlns="http://www.w3.org/2000/svg"><path fill="url(#paint0_linear)" d="M0 0h56v56H0z"/><path d="M13.998 32v-.704c-.216.354-.928.704-1.82.704-.91 0-1.178-.55-1.178-2.16V27h1v2.66c0 .82-.002 1.307.615 1.353.415.032 1.383-.188 1.383-1.013v-3H15v3.543c0 .588-.02 1.051 0 1.457h-1.002zM16 27v-1.518L17 25v2h1v1h-1v1.868c0 .659.041 1.235.535 1.235.241 0 .318-.045.465-.09v.855c-.189.078-.338.132-.747.132-.474 0-.605-.135-.846-.415-.273-.31-.407-.802-.407-1.516V27zm20.999 0v-1.518L38 25v2h1v1h-1v1.82c0 .541-.075 1.037.518 1.18.13.031.28 0 .482 0v.875c-.189.078-.15.085-.58.125-.472 0-.78-.135-1.022-.415-.273-.31-.4-.802-.4-1.516V27zM40 32v-5h1v5h-1zm-18.5-5c-1.359 0-2.5 1-2.5 2.573S20.084 32 21.5 32s2.47-.952 2.5-2.507C24.03 27.937 22.859 27 21.5 27zm0 4.013c-.813 0-1.5-.373-1.5-1.44S20.587 28 21.5 28s1.5.725 1.5 1.493c0 .768-.687 1.52-1.5 1.52zM44.51 27c-1.302 0-2.552.842-2.51 2.534.042 1.691 1.044 2.466 2.473 2.466 1.428 0 2.532-.944 2.527-2.551C46.995 27.842 45.813 27 44.51 27zm-.003 4c-.735 0-1.504-.595-1.504-1.466 0-.892.79-1.534 1.504-1.534.712 0 1.475.623 1.475 1.449 0 .999-.74 1.551-1.475 1.551zm-8.503 1H35v-.729c-.337.374-1.124.729-1.832.729-1.34 0-1.734-.787-1.734-1.515 0-1.211 1.543-1.821 3.566-1.812 0-.315-.465-.915-1.431-.915-.54 0-1.198.235-1.569.442l-.297-.74c.404-.217 1.216-.46 2.081-.46 1.754 0 2.216.88 2.216 1.922l.004 1.732V32zM35 29.46c-.978-.02-2.195.168-2.195.896 0 .472.326.644.764.644.55 0 1.26-.257 1.384-.602A.857.857 0 0035 30.12v-.66zM48 27h1v.678c.212-.392.443-.72 1.259-.678.855.044 1.741.379 1.741 1.961V32h-1v-2.894c0-.72-.339-1.236-1.014-1.236-.494 0-.805.168-.936.548-.03.113-.05.43-.05.575V32h-.998L48 28.418V27zM8 25H7l-3 7h1l1-2h2.997L10 32h1l-3-7zm-1.577 4L7.5 26l1.08 3H6.423zM25 32v-7h1l4 5v-5h1v7h-1l-4-5v5h-1zM25 34c7.126-1.21 20.969-1.22 27-1v1c-5.756-.745-20.398-.31-27 0z" fill="#fff"/><path d="M31 34.29c8.918-.596 17.716-.292 21 .013V35c-4.574-.65-15.906-.745-21-.71z" fill="#E07498"/><defs><linearGradient id="paint0_linear" x1="10.418" y1="9.712" x2="68.147" y2="76.017" gradientUnits="userSpaceOnUse"><stop stop-color="#1A1E21"/><stop offset="1" stop-color="#06060A"/></linearGradient></defs></svg>