<!-- by TradingView --><svg width="56" height="56" xmlns="http://www.w3.org/2000/svg"><path fill="#F0F3FA" d="M0 0h56v56H0z"/><path d="M18 27h-1.363v-4.797L15.262 27h-1.43l-1.48-4.774V27H11v-7h2l1.564 5.122h.022L16 20h2v7zM23.82 21.226H20v1.488h3.526V24H20v1.762h4V27h-5.272v-7h5.091v1.226zM26 21.215V23h1.776c.316 0 .571-.087.766-.261.196-.182.293-.328.293-.593a.857.857 0 00-.293-.67c-.187-.174-.428-.26-.72-.26H26zM30 27h-1.39v-1.81c0-.341-.087-.83-.26-.974-.164-.144-.442-.216-.833-.216H26v3h-1.418l-.016-7h3.515c.322 0 .615.053.878.159.27.098.5.238.687.42.195.182.346.398.45.647.106.243.159.508.159.795 0 .386-.094.723-.282 1.011a1.61 1.61 0 01-.789.613c.308.099.526.25.654.454.127.197.175.484.175.893L30 27zM32.341 27H31v-7h1.341v7zM37.792 22.294c-.097-.394-.285-.7-.563-.92a1.44 1.44 0 00-.935-.34c-.278 0-.525.06-.743.181a1.723 1.723 0 00-.564.511c-.15.22-.266.48-.349.784a4.01 4.01 0 00-.112.988c0 .355.037.685.112.988.083.295.196.552.338.772.15.212.327.382.53.51.21.122.447.183.71.183.427 0 .773-.118 1.036-.352.262-.235.443-.572.54-1.011h1.453a3.804 3.804 0 01-.371 1.09 2.984 2.984 0 01-.631.829c-.248.227-.54.401-.879.522a3.02 3.02 0 01-1.104.193c-.45 0-.87-.08-1.261-.238a2.839 2.839 0 01-1.025-.681 3.374 3.374 0 01-.676-1.147c-.158-.455-.237-.98-.237-1.579 0-.59.075-1.12.226-1.59.15-.47.364-.867.642-1.192a2.726 2.726 0 011.013-.761 3.311 3.311 0 011.34-.261c.436 0 .827.068 1.172.204a2.669 2.669 0 011.51 1.34c.15.303.244.629.281.977h-1.453zM42.438 21.567L41.56 24h1.757l-.867-2.433h-.012zM45.75 27h-1.577l-.632-2H41.37l-.676 2H39.16l2.466-7h1.679l2.444 7zM52 27h-1.442l-2.85-4.706V27h-1.352v-7h1.532l2.76 4.565V20H52v7zM7.188 21.583l-.879 2.433h1.758l-.868-2.433h-.01zM10.5 27H8.923l-.632-1.984H6.12L5.442 27H3.91l2.467-6.984h1.678L10.5 27z" fill="#EE2E24"/><path d="M11.5 35H9.773L7 30.294V35H5.572v-7h1.532L10 32.7V28h1.5v7zM15.102 29.567L14.223 32h1.757l-.867-2.433h-.011zM18.413 35h-1.577l-.631-2H14l-.644 2h-1.532l2.467-7h1.678l2.444 7zM22.667 29h-2.095v6H19v-6h-2v-1h5.667v1zM24.953 35.018H23.5v-6.984h1.453v6.984zM26.888 31.588c0 .826.162 1.431.485 1.818.33.378.8.567 1.408.567.263 0 .507-.045.732-.136a1.62 1.62 0 00.597-.431c.173-.197.308-.447.405-.75a3.49 3.49 0 00.147-1.067c0-.826-.162-1.45-.484-1.874-.323-.432-.789-.648-1.397-.648s-1.078.216-1.408.648c-.323.424-.485 1.048-.485 1.873zm1.893-3.815c1.074 0 1.892.333 2.455 1 .571.665.857 1.604.857 2.816 0 1.218-.282 2.13-.845 2.736-.556.598-1.378.897-2.467.897-1.09 0-1.915-.31-2.478-.93-.564-.622-.845-1.534-.845-2.738 0-.59.071-1.12.214-1.59.15-.469.364-.862.642-1.18a2.838 2.838 0 011.047-.75c.413-.174.887-.261 1.42-.261zM38.367 35h-1.442L34 30.294V35l-1.173.004V28h1.532l2.64 4.565V28h1.352l.016 7zM42.356 29.567L41.477 32h1.758l-.868-2.433h-.01zM45.668 35H44.09l-.632-2h-2.172l-.677 2h-1.532l2.467-7h1.678l2.445 7zM47.453 33.712h3.546V35h-5v-7h1.454v5.712z" fill="#0054A6"/></svg>