<!-- by TradingView --><svg width="56" height="56" xmlns="http://www.w3.org/2000/svg"><path fill="url(#paint0_linear)" d="M0 0h56v56H0z"/><path d="M18.594 31c-.555 0-1.039.456-1.039 1.144 0 .54.364.842.465.946-.498.297-1.006.748-1.02 1.54.014.616.388 1.37 1.345 1.37.512 0 .938-.236 1.379-.748.086.16.23.396.32.506.125.143.465.242.78.242.33 0 .814-.143 1.14-.55.019-.077-.029-.149-.096-.16a.918.918 0 01-.536.21c-.474 0-.78-.314-1.063-.82-.043-.083-.052-.154-.01-.226.293-.478.532-.89.69-1.199.23-.445.368-.665.713-.748l.306-.077c.053-.06.034-.187-.014-.214-.153.016-.775.044-1.115.044h-.369c-.067.033-.081.148-.019.214l.192.039c.186.038.162.115.047.407-.191.49-.425 1.012-.64 1.336-.35-.627-.604-.979-1.116-1.358.225-.154.627-.336.627-.913 0-.529-.373-.985-.967-.985zm.397 2.965c.197.247.383.539.541.83.081.143.081.187-.02.292a1.081 1.081 0 01-.774.352c-.58 0-1.044-.457-1.044-1.095 0-.385.182-.775.407-.957.053-.05.12-.093.153-.093.034 0 .426.275.737.67zm-.426-2.69c.254 0 .421.28.421.682 0 .32-.095.572-.22.732-.014.01-.048.038-.067.038-.014 0-.067-.038-.105-.066-.292-.247-.455-.478-.455-.797 0-.352.197-.589.426-.589zM24.185 29.034c-.373 0-.756-.011-1.05-.034-.07.046-.079.234-.019.308l.11.017c.168 0 .274.109.274 1.221v3.908c0 1.112-.078 1.21-.273 1.21l-.19.028c-.054.074-.05.262.02.308.39-.023.773-.034 1.146-.034.374 0 .382.011.921.034.07-.046.078-.234.018-.308l-.354-.051c-.288 0-.288-.227-.288-1.187v-1.472c0-.262.192-.285.39-.285h.497c.742 0 .876.023.954.462l.065.41c.05.075.212.075.258-.01-.01-.326-.028-.702-.028-1.09 0-.388.018-.776.028-1.05-.046-.086-.208-.086-.258-.012l-.065.36c-.078.44-.212.462-.954.462h-.497c-.198 0-.39-.023-.39-.285V30.06c0-.587.187-.605.542-.605h.433c.272 0 .484.006.71.08.322.109.46.411.543 1.021.088.063.24.04.272-.04-.014-.496-.014-1.283-.014-1.517-.18.023-.654.034-1.198.034h-1.603zM31.392 33c.07-.044.102-.136.111-.232 0-.083-.018-.144-.07-.17h-.66c-.162 0-.273-.044-.273-.174l-.007-.378c-.042-.065-.23-.07-.308-.021-.12.218-.297.285-.458.399-.19.126-.383.23-.67.335-.078.048-.06.197.024.241h.231c.134 0 .188.084.188.367v1.63c0 .563.168 1.003.976 1.003.517 0 .909-.218 1.08-.44.013-.092-.038-.153-.111-.162-.139.088-.24.144-.411.144-.54 0-.534-.449-.534-.954V33.35c0-.257.173-.35.325-.35h.567zM36.474 30.503l.026-1.317a.2.2 0 00-.234-.184c-.329.153-.735.36-1.043.466-.056.032-.047.185 0 .222l.109.09c.177.127.168.196.168.847v4.182c0 .72-.017.826-.285.879l-.178.026c-.056.069-.047.244.018.286.333-.021.605-.032.86-.032.295 0 .681.032.958.053.065-.042.074-.217.017-.286l-.12-.02c-.273-.059-.296-.186-.296-.906v-1.308c0-.353.025-.92.515-.92.472 0 .511.386.511.852v1.376c0 .72.095.826-.173.884l-.122.021c-.056.069-.047.244.018.286.277-.021.55-.032.813-.032.295 0 .563.01.9.032.078-.042.087-.217.013-.286l-.181-.026c-.273-.053-.268-.16-.268-.879v-1.45c0-.832-.368-1.36-1.057-1.36-.398 0-.692.211-.969.465v-1.961zM10.924 25.443c.218 0 .244 0 .32.28l.373 1.399c.103.442.077.503-.205.548l-.176.028c-.047.061-.038.246.026.302.274-.011.62-.034.963-.034.407 0 .698.012 1.024.034.056-.056.056-.23-.009-.302l-.12-.028c-.398-.095-.44-.168-.62-.856l-1.135-4.32c-.129-.459-.232-.946-.356-1.41-.03-.05-.072-.084-.132-.084-.018 0-.279.425-.553.498.022.174-.047.42-.15.75l-1.079 3.67c-.167.554-.29.985-.39 1.254-.115.341-.2.436-.432.476l-.235.05c-.056.095-.047.246.008.302.274-.022.518-.034.78-.034.325.012.582.012.835.034.064-.045.072-.23.017-.302l-.227-.05c-.296-.05-.326-.084-.167-.689l.32-1.236c.074-.28.065-.28.27-.28h1.05zm-.925-.465c-.189 0-.21 0-.124-.296l.33-1.209c.14-.481.205-.738.235-.811h.017c.038.073.086.268.223.811l.33 1.237c.064.246.03.268-.189.268h-.822zM14.5 22.466c0-.412-.019-.999 0-1.385-.019-.047-.071-.091-.124-.08-.363.15-.87.454-1.205.559-.062.031-.053.182 0 .219l.124.088c.191.126.2.193.2.835v4.328c0 .36-.028.866-.028.902 0 .032.053.068.09.068.025 0 .044 0 .063-.005.052-.068.277-.256.382-.256.105 0 .515.261 1.17.261 1.15 0 2.082-.787 2.082-2.154 0-1.064-.65-2.049-1.681-2.049-.349 0-.64.144-.922.327-.052 0-.15-.02-.15-.151v-1.507zm0 2.503c0-.329.099-.454.175-.511a.81.81 0 01.435-.126c.62 0 1.069.62 1.069 1.746 0 .814-.229 1.536-.816 1.536a.71.71 0 01-.588-.323c-.143-.204-.275-.543-.275-.965V24.97zM40.246 22.466c0-.412-.019-1 0-1.385-.019-.047-.071-.091-.124-.081-.363.151-.87.455-1.205.56-.062.031-.053.182 0 .219l.124.088c.191.125.2.193.2.835v4.328c0 .36-.028.866-.028.902 0 .031.053.068.09.068.025 0 .044 0 .063-.005.053-.068.277-.256.382-.256.105 0 .516.26 1.17.26 1.15 0 2.082-.787 2.082-2.153 0-1.064-.65-2.049-1.681-2.049-.349 0-.64.144-.922.327-.052 0-.15-.02-.15-.151v-1.507zm0 2.502c0-.328.099-.453.175-.51a.81.81 0 01.435-.126c.62 0 1.069.62 1.069 1.746 0 .814-.229 1.536-.816 1.536a.71.71 0 01-.588-.323c-.143-.204-.275-.543-.275-.965v-1.358zM19.907 25.622c.335 0 .525-.042.575-.124a.46.46 0 00.045-.221c0-.824-.634-1.277-1.25-1.277-1.12 0-1.762 1.035-1.762 2.105 0 1.076.643 1.895 1.608 1.895.512 0 1.128-.283 1.413-1.045-.009-.082-.104-.18-.186-.15-.19.35-.466.474-.801.474-.743 0-1.26-.684-1.26-1.534 0-.113.018-.123.177-.123h1.44zm-1.432-.381c-.1 0-.118-.026-.118-.067 0-.201.259-.814.816-.814.362 0 .552.273.552.613 0 .088-.031.165-.081.2-.06.042-.168.068-.412.068h-.757zM25.379 24c-1.38 0-2.112 1.014-2.112 2.121 0 .55.195 1.045.498 1.364.29.314.737.515 1.194.515.541 0 1.198-.268 1.51-1.035-.009-.113-.102-.18-.181-.17-.172.273-.368.505-.928.505-.779 0-1.066-.731-1.066-1.498 0-.89.348-1.421.838-1.421.33 0 .592.299.778.576.06.083.103.104.163.104.07 0 .215-.145.215-.443 0-.222-.06-.37-.172-.484a1.927 1.927 0 00-.737-.134zM33.678 32c-1.38 0-2.113 1.014-2.113 2.121 0 .55.196 1.045.5 1.364.288.314.736.515 1.193.515.54 0 1.198-.268 1.51-1.035-.009-.113-.102-.18-.181-.17-.173.273-.369.505-.928.505-.779 0-1.066-.731-1.066-1.498 0-.89.348-1.421.837-1.421.331 0 .593.298.78.577.06.082.102.102.162.102.07 0 .215-.144.215-.442 0-.222-.06-.37-.173-.484a1.927 1.927 0 00-.736-.134zM27 26.85c0 .695-.046.797-.32.848l-.145.026c-.057.067-.048.235.014.276.308-.02.577-.03.846-.03.3 0 .577.01 1.062.03.066-.04.075-.21.017-.276l-.217-.026c-.282-.04-.257-.153-.257-.848v-1.279c0-.465-.032-.678.157-.678.048 0 .106.011.308.17a.378.378 0 00.22.076c.217 0 .455-.179.455-.546 0-.246-.163-.46-.45-.46-.273 0-.36.28-.61.49-.05 0-.08-.05-.08-.112 0-.087-.01-.245 0-.424-.014-.056-.049-.087-.097-.087-.247.169-.856.378-1.204.51-.036.047-.036.174-.01.215l.098.067c.202.138.213.25.213.674v1.384z" fill="#fff"/><path d="M21 26.85c0 .695-.046.797-.32.848l-.145.026c-.057.067-.048.235.014.276.308-.02.577-.03.846-.03.3 0 .577.01 1.062.03.066-.04.075-.21.017-.276l-.217-.026c-.282-.04-.257-.153-.257-.848v-1.279c0-.465-.032-.678.157-.678.048 0 .106.011.308.17a.378.378 0 00.22.076c.217 0 .455-.179.455-.546 0-.246-.163-.46-.45-.46-.273 0-.36.28-.61.49-.05 0-.08-.05-.08-.112 0-.087-.01-.245 0-.424-.014-.056-.049-.087-.097-.087-.247.169-.856.378-1.204.51-.036.047-.036.174-.01.215l.098.067c.202.138.213.25.213.674v1.384zM31.035 24C29.95 24 29 24.798 29 26.064c0 1.241.894 1.936 1.965 1.936C32.07 28 33 27.3 33 25.951c0-1.23-.914-1.951-1.965-1.951zM30 25.951c0-1.055.47-1.57.944-1.57.687 0 1.056.89 1.056 1.683 0 .731-.283 1.555-.924 1.555-.672 0-1.076-.808-1.076-1.668zM33.5 26.85c0 .695-.052.797-.322.849l-.141.025c-.056.067-.047.235.017.276.3-.02.557-.03.818-.03.292 0 .715.01.989.03.064-.04.073-.21.017-.276l-.12-.02c-.265-.056-.258-.159-.258-.853v-1.262c0-.368.01-.608.01-.608 0-.19.19-.378.46-.378.458 0 .53.47.53.97v1.278c0 .694.039.797-.231.853l-.103.02c-.056.067-.047.235.017.276a10.857 10.857 0 011.615 0c.065-.04.073-.21.017-.276l-.12-.02c-.265-.056-.195-.159-.195-.853v-1.385c0-.26.056-.54.056-.54.071-.2.24-.323.472-.323.497 0 .472.47.472.97v1.278c0 .694.016.802-.25.853l-.128.025c-.056.067-.047.23.017.271.283-.02.662-.03.923-.03.291 0 .557.01.9.03.03-.04.068-.21 0-.276l-.176-.025c-.27-.052-.286-.154-.286-.848v-1.456c0-.736-.325-1.395-.99-1.395-.538 0-.787.294-1.02.567-.094.066-.116.102-.15.102-.03 0-.077-.056-.124-.143-.112-.179-.38-.526-.72-.526-.724 0-.935.336-1.003.51 0-.076 0-.255.018-.433-.018-.041-.047-.077-.103-.077-.253.169-.866.393-1.213.51-.034.047-.034.174-.008.215l.094.067c.197.138.219.25.219.674v1.385zM44.502 25.336c0-.365-.019-.923 0-1.22-.028-.043-.069-.106-.122-.116-.245.151-.705.537-1.16.674-.04.044-.04.165-.01.204l.105.064c.221.131.185.238.185.642v1.32c0 .663.003.76-.3.809l-.159.024c-.062.063-.052.224.02.263a15.805 15.805 0 011.883 0c.067-.039.077-.2.014-.263l-.158-.024c-.298-.049-.3-.146-.3-.809l.002-1.568zm-.505-2.206a.546.546 0 00.567-.565.546.546 0 00-.567-.565.546.546 0 00-.566.565c0 .321.23.565.566.565zM28.503 33.336c0-.365-.02-.923 0-1.22-.03-.044-.07-.106-.123-.116-.245.151-.704.537-1.16.674-.04.044-.04.165-.01.204l.105.064c.221.131.185.238.185.642v1.32c0 .662.003.76-.3.809l-.159.024c-.062.063-.052.224.02.263a15.805 15.805 0 011.883 0c.067-.039.077-.2.014-.263l-.158-.024c-.298-.049-.3-.147-.3-.809l.003-1.568zm-.506-2.206a.546.546 0 00.567-.565.546.546 0 00-.567-.565.546.546 0 00-.567.565c0 .321.231.565.567.565zM47.375 25.622c.333 0 .522-.042.571-.124a.463.463 0 00.045-.221A1.23 1.23 0 0046.75 24C45.639 24 45 25.035 45 26.105c0 1.076.639 1.895 1.597 1.895.508 0 1.12-.283 1.403-1.045-.009-.082-.103-.18-.184-.15-.19.35-.464.474-.797.474-.737 0-1.25-.684-1.25-1.534 0-.113.018-.123.175-.123h1.43zm-1.422-.381c-.098 0-.116-.026-.116-.067 0-.201.256-.814.81-.814.359 0 .548.273.548.613 0 .088-.032.165-.081.2-.058.042-.166.068-.41.068h-.75z" fill="#fff"/><defs><linearGradient id="paint0_linear" x1="10.418" y1="9.712" x2="68.147" y2="76.017" gradientUnits="userSpaceOnUse"><stop stop-color="#1A1E21"/><stop offset="1" stop-color="#06060A"/></linearGradient></defs></svg>