<!-- by TradingView --><svg xmlns="http://www.w3.org/2000/svg" width="56" height="56"><path fill="#081C45" d="M0 0h56v56H0z"/><path d="M36.55 25.26c0 1.23-.24 2.4-.67 3.48a9.18 9.18 0 00-9.03-10.72 9.16 9.16 0 00-8.44 5.63 9.18 9.18 0 019-7.65 9.2 9.2 0 019.14 9.26zm-9 5.48c0-1.23.24-2.4.67-3.48a9.18 9.18 0 009.03 10.72c3.8 0 7.05-2.33 8.44-5.63a9.18 9.18 0 01-9 7.65 9.2 9.2 0 01-9.14-9.26z" fill="#FF1056"/><path fill-rule="evenodd" d="M7.5 23.5L4 32h1l2.5-6 2.5 6h1l-3.5-8.5zm33 9L37 24h1l2.5 6 2.5-6h1l-3.5 8.5zM12 32v-8l6 5.5V24h1v8l-6-5.5V32h-1zm8-8v8h1v-5.5l6 5.5v-8h-1v5.5L20 24zm26 0h-1v8h1v-8zm3.7 3.35c1.27 0 2.3 1.04 2.3 2.32A2.31 2.31 0 0149.7 32a2.31 2.31 0 01-2.3-2.33v-.04h1v.02c0 .73.58 1.32 1.3 1.32.72 0 1.3-.59 1.3-1.32a1.3 1.3 0 00-1.3-1.31 2.15 2.15 0 01-2.14-2.17c0-1.2.96-2.17 2.14-2.17 1.16 0 2.1.94 2.14 2.1h-1.01a1.13 1.13 0 00-1.13-1.04c-.62 0-1.12.51-1.12 1.14 0 .63.5 1.15 1.12 1.15zM36 28a4 4 0 11-8 0 4 4 0 018 0zm-1 0a3 3 0 11-6 0 3 3 0 016 0z" fill="#fff"/></svg>