<!-- by TradingView --><svg xmlns="http://www.w3.org/2000/svg" width="56" height="56"><path fill="#F0F3FA" d="M0 0h56v56H0z"/><path fill-rule="evenodd" d="M12.07 17.3L7 31h3.57l1.01-3h4.67l-1.06-3h-2.57l1.85-5.3L18.33 31H22l-5.55-15h-2.5a2 2 0 00-1.88 1.3zm30.86 0L48 31h-3.57l-1.01-3h-4.67l1.06-3h2.57l-1.85-5.3L36.67 31H33l5.55-15h2.5a2 2 0 011.88 1.3zM29.5 16H24v15h3v-5h2.5a5 5 0 000-10zm0 3H27v4h2.5a2 2 0 100-4z" fill="#DBA925"/><path fill-rule="evenodd" d="M37 31.5V33h1v1h-1v1.5c0 .28.22.5.5.5h.5v1h-.8a1.2 1.2 0 01-1.2-1.2V34h-.58v-1h.28a.3.3 0 00.3-.3v-.5c0-.39.31-.7.7-.7h.3zM11.5 35a2.52 2.52 0 01-2.47 2 2.51 2.51 0 01-2.53-2.5c0-1.38 1.13-2.5 2.53-2.5 1.22 0 2.24.86 2.47 2h-1.1a1.5 1.5 0 00-2.9.5 1.5 1.5 0 002.9.5h1.1zm2.5 2a2 2 0 100-4 2 2 0 000 4zm0-1a1 1 0 100-2 1 1 0 000 2zm12 1a2 2 0 100-4 2 2 0 000 4zm0-1a1 1 0 100-2 1 1 0 000 2zm18-1a2 2 0 11-4 0 2 2 0 014 0zm-1 0a1 1 0 11-2 0 1 1 0 012 0zm-10.19 2c.47 0 .9-.2 1.22-.51.08.3.35.51.67.51h.3v-4h-1v.49c-.32-.3-.73-.49-1.19-.49-1 0-1.8.9-1.8 2s.8 2 1.8 2zm.19-1a1 1 0 001-.94v-.12A1 1 0 1033 36zm-12.5-3h-1v5h1v-1.44c.32.27.72.44 1.16.44 1.01 0 1.84-.9 1.84-2s-.83-2-1.84-2c-.44 0-.84.17-1.16.44V33zm0 2.06c0 .57.45 1.04 1 1.04s1-.47 1-1.04c0-.57-.45-1.03-1-1.03s-1 .46-1 1.03zM16.53 33h1v.62A1.7 1.7 0 0118.8 33v1.04c-.71.01-1.1.47-1.26.84V37h-1v-4zm13.02 0h-1v4h1v-2.12c.16-.37.54-.83 1.26-.84V33c-.29 0-.9.14-1.26.62V33zm9.44-.31a.6.6 0 100-1.19.6.6 0 000 1.19zm.5.31h-1v4h1v-4zm5.01 0h1v.5a1.42 1.42 0 012.5.92V37h-1v-2.2a.8.8 0 00-1.5-.4V37h-1v-4z"/></svg>