<!-- by TradingView --><svg width="56" height="56" xmlns="http://www.w3.org/2000/svg"><path fill="#EAE4E1" d="M0 0h56v56H0z"/><path d="M44.627 28c0 8.947-7.454 16.2-16.65 16.2-9.195 0-16.65-7.253-16.65-16.2s7.455-16.2 16.65-16.2c9.196 0 16.65 7.253 16.65 16.2z" fill="#F8F5F5"/><path fill-rule="evenodd" d="M27.977 43.8c8.985 0 16.25-7.084 16.25-15.8 0-8.716-7.265-15.8-16.25-15.8s-16.25 7.084-16.25 15.8c0 8.716 7.265 15.8 16.25 15.8zm0 .4c9.196 0 16.65-7.253 16.65-16.2s-7.454-16.2-16.65-16.2c-9.195 0-16.65 7.253-16.65 16.2s7.455 16.2 16.65 16.2z" fill="#577F73"/><path d="M19.105 38.35c2.25-4.95 8.587-22.05 8.587-22.05h.9c2.85 7.35 8.73 22.14 9.45 22.5.72.36 1.35.45 1.8.45 1.05 0 1.118.9.45.9h-7.65c-.218 0-.45-.9 0-.9s.735-.316.735-.45l-5.685-16.2-5.85 16.2s-.45.45 1.8.45c.351 0 .351.9 0 .9h-7.2c-.45 0-.352-.9 0-.9.863 0 2.22.073 2.663-.9z" fill="#7C7C7F"/><path d="M30.942 31.6h-6.75l.45-1.35h5.85l.45 1.35z" fill="#7C7C7F"/><path d="M28.4 46V10H28v36h.4z" fill="#577F73"/><path d="M9.663 28.438h36.9v-.4h-36.9v.4z" fill="#577F73"/><path fill-rule="evenodd" d="M39.727 16.7h-23.05v23.05h23.05V16.7zm-23.45-.4v23.85h23.85V16.3h-23.85z" fill="#577F73"/><path d="M39.677 39.955L16.473 16.75l.255-.255L39.93 39.7l-.254.255z" fill="#577F73"/><path fill-rule="evenodd" d="M16.473 40.044L39.677 16.84l-.254-.254-23.205 23.204.255.255zM26.627 17.8a.6.6 0 100-1.2.6.6 0 000 1.2zm0 .3a.9.9 0 100-1.8.9.9 0 000 1.8zM29.642 17.81a.6.6 0 100-1.2.6.6 0 000 1.2zm0 .3a.9.9 0 100-1.8.9.9 0 000 1.8zM32.477 39.223a.6.6 0 100-1.2.6.6 0 000 1.2zm0 .3a.9.9 0 100-1.8.9.9 0 000 1.8zM22.594 39.125a.6.6 0 100-1.2.6.6 0 000 1.2zm0 .3a.9.9 0 100-1.8.9.9 0 000 1.8zM39.329 39.149a1.725 1.725 0 100-3.45 1.725 1.725 0 000 3.45zm0 .3a2.025 2.025 0 100-4.05 2.025 2.025 0 000 4.05z" fill="#577F73"/><path fill-rule="evenodd" d="M17.402 39.175a1.725 1.725 0 100-3.45 1.725 1.725 0 000 3.45zm0 .3a2.025 2.025 0 100-4.05 2.025 2.025 0 000 4.05z" fill="#577F73"/></svg>