<!-- by TradingView --><svg xmlns="http://www.w3.org/2000/svg" width="56" height="56"><path fill="#F0F3FA" d="M0 0h56v56H0z"/><path d="M23 14h5v1.5h-5V14z"/><path d="M23 16.5h5V18h-5v-1.5z" fill="#CF0C35"/><path d="M23 19h5v1.5h-5zm0 2.5h5V23h-5v-1.5zm0 2.5h11v1.5H23zm0 2.5h11V28H23zM29 14h5v1.5h-5V14z"/><path fill="#CF0C35" d="M29 16.5h5V18h-5z"/><path d="M29 19h5v1.5h-5zm0 2.5h5V23h-5z"/><path d="M10.02 31L8 37h1.21l1.56-4.58L12.28 37h1.22l-1.96-6h-1.52z" fill="#CF0C35"/><path d="M37 31h-1v3.5a2.5 2.5 0 005 0V31h-1v3.5a1.5 1.5 0 01-3 0V31zm-17.5 0v1H21v5h1v-5h1.5v-1h-4zM16 31h-1v6h1v-6zm1 0h-1v1h1a1 1 0 110 2h-.4l.52 1a2 2 0 00-.12-4z"/><path fill-rule="evenodd" d="M27 37a3 3 0 100-6 3 3 0 000 6zm0-1c1.05 0 1.9-.9 1.9-2s-.85-2-1.9-2c-1.05 0-1.9.9-1.9 2s.85 2 1.9 2z"/><path d="M31 31h2a2 2 0 011.1 3.67L35.3 37h-1.2l-1.23-2.55-.23-.45H33a1 1 0 100-2h-1v5h-1v-6zm11 0v6h1v-3.97L44.98 37 47 33.03V37h1v-6h-1.3l-1.72 3.6L43.3 31H42z"/></svg>