<!-- by TradingView --><svg width="56" height="56" xmlns="http://www.w3.org/2000/svg"><path fill="#F0F3FA" d="M0 0h56v56H0z"/><rect x="25" y="17" width="22" height="4" rx="2" fill="#00A0DC"/><rect x="21.643" y="36" width="9.36" height="4" rx="2" fill="#005F9B"/><path d="M9 38a2 2 0 012-2h5.464a2 2 0 110 4H11a2 2 0 01-2-2z" fill="#005F9B"/><rect x="28" y="16.245" width="9.608" height="4.269" rx="2.134" transform="rotate(60 28 16.245)" fill="#005F9B"/><path d="M35.128 36.67a1.983 1.983 0 01-.715-2.689L43.45 18.11a1.904 1.904 0 013.318 1.87L37.87 35.93a1.983 1.983 0 01-2.741.74z" fill="#00A0DC"/><path d="M10.11 39.597a2.045 2.045 0 01-.756-2.783l8.705-15.311a2.045 2.045 0 113.556 2.021l-8.704 15.312a2.045 2.045 0 01-2.801.76z" fill="#005F9B"/><path d="M29.966 39.71a1.976 1.976 0 00.73-2.689l-8.904-15.65a1.976 1.976 0 00-3.434 1.954l8.903 15.65a1.976 1.976 0 002.705.734z" fill="#005F9B"/><path d="M27.272 20.997a2.273 2.273 0 01-.125.003C25.96 21 25 20.105 25 19s.961-2 2.146-2c.825 0 1.54.433 1.9 1.068v-.002l1.685 2.93h-3.459z" fill="#004981"/><rect x="34.114" y="27.297" width="9.608" height="4.139" rx="2.069" transform="rotate(60 34.114 27.297)" fill="#005F9B"/><path d="M44.728 20.997c.041.002.083.003.125.003C46.04 21 47 20.105 47 19s-.961-2-2.147-2c-.992 0-1.827.628-2.073 1.48l-.99 2.517h2.938z" fill="#008EC0"/><path d="M18.337 23.655a2.095 2.095 0 113.31.015l-1.601 2.623-1.71-2.638z" fill="#003571"/><path d="M34.457 33.479a2.134 2.134 0 103.357-.018l-1.642-2.611-1.715 2.629z" fill="#004981"/><path d="M29.002 36a2 2 0 11-1.813 2.849L25.564 36h3.438zm-16.433 3.028a1.906 1.906 0 01-1.648.972C9.86 40 9 39.105 9 38s.86-2 1.92-2h3.62l-1.97 3.03-.001-.002z" fill="#003571"/></svg>