<!-- by TradingView --><svg xmlns="http://www.w3.org/2000/svg" width="56" height="56"><path fill="#F0F3FA" d="M0 0h56v56H0z"/><path d="M37.26 39.83c.05.1.15.17.27.17h3.97a.5.5 0 00.45-.71l-13.5-29A.5.5 0 0028 10a.5.5 0 00-.45.29l-13.5 29a.5.5 0 00.45.71h4.1a.3.3 0 00.28-.17L28 20l9.26 19.83z" fill="#1A658B"/><path d="M41.1 29.72c.08 0 .35-1.27.42-1.49.09-.18.37-.93.84-1.07.36.07.66-.35.93-.63.14-.29-.38-.13-.47-.06-.5.26-1.42.87-1.42 1.5 0 .14-.43.5-.3.65.12.14-.26 1.1 0 1.1zm-.05.29c0-.08.07-.1.1.07 0 .09.07.27.04.37 0 .02-.04.07-.04.16l.02.27a1.62 1.62 0 01-.12-.87z" fill="#E46A29"/><path fill-rule="evenodd" d="M41.89 31.93a3 3 0 001 .54c.32.1.94.4 1.22.1a1.7 1.7 0 01-1.26-.52c-.4-.43-1.31-.92-1.29-1.6.02-.43-.23-.7.08-.93.1-.08.3-.64.08-.64-.03-.4.64-1.17.44-1.08-.2.1-.44.68-.6.92-.1.16-.04-.4.36-.95.21-.29.38-.37.54-.54.51-.55.94-1.2 1.84-1.23 1.01-.04 1.47.32 1.97.63.73.45.87 1.15 1.28 1.81.32.5.5 1.06.44 1.66-.13 1.1-1.07 2.57-2.32 2.57-.5.14-.97.33-1.5.33-.55 0-1.1-.17-1.6-.35-.32-.22-.73-.38-.94-.72-.1-.1-.5-.62-.48-.74.02-.12.64.64.74.74zm3.08-5.3c.49.25 1.08.3 1.5.74.03.04.22.28.1.21-.18-.1-.74-.45-1.07-.58-.21-.08.35.28.37.3.6.53-1.1-.28-1.64-.2-.28 0-.57.04-.85.09-.1 0-.18.07-.28.08-.16.01.1-.17.28-.36.08-.09.58-.12.5-.19-.16-.02-.7.04-.46-.12.07-.04.2-.07.37-.07.4.21.8-.05 1.18.1zm.35 3.72a.99.99 0 01-.35.58c-.25.27-.82.53-1.2.4-.19 0-.61-.26-.61-.5.06-.57.15-1.08.28-1.64.1-.35.33-.57.65-.71.2-.1.36.05.58.12.68.21.65 1.17.65 1.75z" fill="#E46A29"/><path d="M15.88 27.66c0-.28 2.16 0 3.79-.18.6 0 1.21-.05 1.82-.05 2.62 0 5.18-.07 7.77-.3.44-.05.9 0 1.34-.05 2.93 0 6-.07 8.98-.07.17 0 .85-.09.85.2 0 .16-.23.1-.34.12-.45.15-.88.3-1.36.23a1.6 1.6 0 00-.5.02c-.27.08-.56.05-.84.1-.26.05-.49 0-.75.03-1.31.12-2.74-.04-4.05-.13-.75-.05-1.5.1-2.25.07h-.51c-.66.07-1.25.05-1.98.13a33.8 33.8 0 01-4.04.26c-.79-.06-1.58.05-2.37-.02-.62-.05-1.25-.02-1.87-.08-.35-.04-3.69 0-3.69-.28zm19.35 4.11h1.08c.46 0 .95-.07 1.41-.15.47-.07.28-.47.1-.47-.34 0-.55.22-.92.22-.83.07-2.31-.3-2.88.18-.44.43-2.52-.15-3.19-.13-.82 0-1.62-.18-2.43-.17-.85.01-1.67.25-2.53.25-.56 0-1.15.01-1.7.07-1.21 0-2.38.19-3.6.16-1.32-.03-2.58-.1-4.07-.16-1.03-.09-2.13-.01-3.11-.17a1.98 1.98 0 00-.93.07s1.39.3 1.57.3c.49 0 1.08.08 1.6.08 1.76.18 3.51.04 5.27.15 3.68 0 7.28-.5 10.96-.14.65.06 1.3.13 1.95.14.66.01 1.02-.23 1.42-.23z" fill="#1598D2"/><path d="M36.7 31.1c.42 0 .83-.08 1.21-.2.06-.02.22-.05.16-.2-.11-.03-.41.02-.41-.13 0-.1.15-.1.21-.1.24-.03.45-.12.69-.15.34-.03.63 0 1-.19.23-.03.18-.15.38-.34.2-.2 1.06-.94 1.06-1.2 0-.49-.56-.29-.77-.58-.29-.28-1.31.21-1.75.08-.3-.1-.64-.03-.78-.04-.24-.02-.33.2-.04.23.18.02.53.1.21.2-.23 0-2.34.35-2.34-.02 0-.14 1.35-.2 1.59-.18.23.03.15-.22-.08-.22-.63.06-1.3 0-1.93 0-1.28-.2-2.67-.02-4.02 0-3.39.32-5.88.66-9.05.28-1.69-.21-3.5.04-5.17.04-1.09-.11-2.08.06-3.16-.05-.62-.06-1.22-.12-1.83-.1-.47 0-.56.08-.8.43l-1.05.15c-.49 0-1.06.06-1.55.13-.72.12-1.79-.21-2.44 0-.14.13.11.58.26.63.24.06.48.12.72.2.35.2.73.12 1.1.12.33.05.79.08 1.11.08.72-.07 1.38.35 2.06.35.67 0 1.26.33 1.74.45 1.23.3 2.59.16 3.84.28 1.73.17 3.64.29 5.35.05 1.77-.15 3.66-.34 5.43-.2 2.52.27 5.1.38 7.54.38.53 0 1.01-.18 1.51-.18z" fill="#1598D2"/></svg>