<!-- by TradingView --><svg width="56" height="56" xmlns="http://www.w3.org/2000/svg"><path fill="#00A7E1" d="M0 0h56v56H0z"/><path d="M12.208 26c.897 0 1.432.296 1.66.602V26h.628v9h-.692v-4.75c-.31.393-.876.748-1.692.748-1.326 0-2.279-.997-2.279-2.409 0-1.886 1.201-2.589 2.375-2.589zm35.813 0l1.661 3.935L51.261 26H52l-1.579 3.629c-.3.718-.552 1.281-.803 1.735-.443.845-1.116 1.636-2.148 1.636-.272 0-.55-.037-.748-.122l.156-.544c.151.054.39.111.598.111.618 0 1.094-.505 1.455-1.077.13-.205.246-.43.346-.677l.003-.026a.567.567 0 00-.057-.176L47.283 26h.738zm-32.018 0v2.726c0 1.134.412 1.686 1.257 1.686.737 0 1.227-.49 1.424-.909.031-.087.088-.279.088-.49V26h.692v4.997h-.64v-.795a2.1 2.1 0 01-1.68.796c-.551 0-1.832-.213-1.832-2.183V26h.691zm19.723 0v2.726c0 1.134.411 1.686 1.258 1.686.735 0 1.226-.49 1.423-.91.03-.086.088-.278.088-.489V26h.692v4.997h-.64v-.795a2.098 2.098 0 01-1.68.795c-.551 0-1.832-.212-1.832-2.182V26h.691zM31.9 26c1.47 0 2.51.967 2.51 2.48 0 1.792-1.317 2.518-2.531 2.518h.037c-1.476 0-2.465-.95-2.465-2.44C29.45 26.768 30.694 26 31.9 26zm-9.791 0C23.32 26 24 26.684 24 27.816v3.181h-.622v-.673c-.313.349-.912.673-1.638.673-1.091 0-1.588-.72-1.588-1.39 0-.447.161-.822.48-1.116.511-.472 1.448-.711 2.682-.711v-.044c0-.48-.107-.679-.343-.897-.2-.184-.543-.276-.915-.273-.466 0-.903.12-1.233.34l-.092.061-.234-.508.064-.04A3.075 3.075 0 0122.108 26zM46 25v1h.872l.242.525H46v3.002c0 .802.363.895.644.895.285 0 .459-.035.554-.065l.102-.032.093.524-.07.024a2.248 2.248 0 01-.743.127c-.41 0-.736-.136-.941-.37-.228-.241-.34-.631-.34-1.192v-2.913h-.86V26h.86v-1H46zm-19.526-1c.907 0 1.52.184 1.934.58.317.285.472.66.472 1.148 0 .625-.43 1.202-1.088 1.487.675.212 1.374.763 1.374 1.728 0 .52-.187.968-.556 1.335-.476.445-1.224.72-2.321.72h-1.35V24h1.535zM7.272 24l2.645 7h-.714l-.902-2.446H5.595L4.715 31H4l2.656-7h.616zm35.125 1.86c.313 0 1.874.101 1.874 2.094V31h-.691v-3.04c-.007-.588-.194-1.534-1.32-1.534-.652 0-1.244.427-1.442 1.038-.037.127-.06.274-.06.391V31L40 30.997V26h.706v.642c.361-.482.997-.782 1.691-.782zm-30.19.742c-1.032 0-1.678.736-1.678 1.952 0 .827.431 1.878 1.679 1.878a1.57 1.57 0 001.506-1.051c.056-.146.09-.314.09-.438v-1.019a1.32 1.32 0 00-.049-.4c-.158-.548-.727-.922-1.547-.922zm10.96 1.74c-.941 0-1.649.162-2.002.481a.899.899 0 00-.3.704c0 .667.48.905.928.905.807 0 1.315-.461 1.473-.892a.687.687 0 00.048-.26v-.936l-.146-.002zm8.721-1.767c-1.204 0-1.746.952-1.746 1.954 0 1.136.745 1.903 1.746 1.903h.01c1.032 0 1.82-.78 1.82-1.933 0-.796-.526-1.924-1.83-1.924zm-5.445.96h-.812v2.802c.176.025.415.035.79.035h.04c.764-.006 1.992-.206 1.992-1.419 0-.888-.751-1.419-2.01-1.419zM6.953 24.96L5.82 27.988h2.254L6.953 24.96zm19.49-.395c-.358 0-.63.017-.812.052v2.36h.95c.94 0 1.596-.502 1.596-1.22 0-.791-.583-1.192-1.734-1.192z" fill="#fff"/></svg>