<!-- by TradingView --><svg width="56" height="56" xmlns="http://www.w3.org/2000/svg"><path fill="#46823D" d="M0 0h56v56H0z"/><path d="M32.28 25.625a5588.076 5588.076 0 01-20.277-9.705v-1.104c6.162 2.97 14.422 6.91 20.707 9.906a10697.682 10697.682 0 0010.19 4.85l.838.398-.214.452-.214.451-.84-.399a7450.296 7450.296 0 01-10.19-4.85zm11.722 7.649l-32-15.42v-1.12l32 15.433v1.107zm0 1.996l-32-15.481v-1.02l32 15.332v1.17z" fill="#fff"/><path d="M28.004 12L12 44h5l14.005-27H33v27h5V12h-9.996z" fill="#fff"/><path d="M44 27H12v4h32v-4z" fill="#fff"/></svg>