<!-- by TradingView --><svg width="56" height="56" xmlns="http://www.w3.org/2000/svg"><path fill="url(#paint0_linear)" d="M0 0h56v56H0z"/><path d="M24.912 20.058L8 24.766c.328.688 1.353 2.475 2.884 3.533 1.53 1.058 3.396.652 4.137.317l9.58-5.596C23.636 25.418 21.834 31.071 22 34.5c.166 3.427 3.345 5.095 5 5.501.017-5.237.041-16.186 0-18.09-.041-1.905-1.382-2.028-2.088-1.852z" fill="#F15B44"/><path d="M31.088 20.058L48 24.766c-.328.688-1.354 2.506-2.885 3.564-1.53 1.058-3.396.652-4.137.317l-9.58-5.627c.966 2.398 2.768 8.051 2.602 11.479-.166 3.427-3.345 5.095-5 5.501-.017-5.237-.041-16.186 0-18.09.041-1.905 1.382-2.028 2.088-1.852z" fill="#4081C3"/><defs><linearGradient id="paint0_linear" x1="10.418" y1="9.712" x2="68.147" y2="76.017" gradientUnits="userSpaceOnUse"><stop stop-color="#1A1E21"/><stop offset="1" stop-color="#06060A"/></linearGradient></defs></svg>