<!-- by TradingView --><svg width="56" height="56" xmlns="http://www.w3.org/2000/svg"><path fill="#569BCA" d="M0 0h56v56H0z"/><path d="M49 23v4h-4v-4h-3v10h3v-4h4v4h3V23h-3zM40 27v-4h-8.305a1.666 1.666 0 00-1.198.503A1.723 1.723 0 0030 24.72v6.56a1.746 1.746 0 00.497 1.217 1.688 1.688 0 001.198.503H40v-4h-3v2h-4v-6h4v2h3zM12 23H9L4 33h3l3.5-7 2.5 5h-3l1 2h5.999L12 23zM21 25h4v3h-4v-3zm6.986-.282c0-.92-.75-1.71-1.677-1.718H18v10h3v-3h2.61L25 33h3l-1.404-3c.768-.134 1.404-.642 1.404-1.374l-.014-3.908z" fill="#fff"/></svg>