<!-- by TradingView --><svg width="56" height="56" xmlns="http://www.w3.org/2000/svg"><path fill="#1A6594" d="M0 0h56v56H0z"/><path d="M28.003 14.004c-7.732 0-14 6.266-14 13.996s6.268 13.996 14 13.996C35.734 41.996 42 35.73 42 28s-6.267-13.996-13.998-13.996zm.488 27.016c-6.921 0-12.533-5.61-12.533-12.53 0-6.922 5.612-12.53 12.533-12.53 6.923 0 12.532 5.61 12.532 12.53 0 6.92-5.611 12.53-12.532 12.53z" fill="#fff"/><path d="M39.83 12.537c-3.2-2.257-11.011 2.837-17.444 11.378-6.433 8.54-9.054 17.293-5.853 19.55 3.2 2.257 11.01-2.835 17.441-11.376 6.436-8.54 9.055-17.295 5.855-19.552zm-7.178 18.617C26.74 39 19.748 43.81 17.032 41.895c-2.715-1.915-.124-9.828 5.787-17.674 5.911-7.848 12.904-12.656 15.618-10.741 2.717 1.912.126 9.828-5.785 17.674z" fill="#fff"/></svg>