<!-- by TradingView --><svg width="56" height="56" xmlns="http://www.w3.org/2000/svg"><path fill="#003C69" d="M0 0h56v56H0z"/><path d="M34 28l10-12-14.382 12H34zm.632 0H38l5.954-11.83L34.632 28zm9.185-11.927L23 28h5.705l15.112-11.927zm-8.82 18.472L37.586 29c-1.507.063-2.557.205-3.904.303l-3.971 4.69c1.803.074 3.53.137 5.288.552zm-13.668 0c1.415-.22 3.998-.624 6.92-.624h.57l3.904-4.541c-2.032.146-4.086.39-5.913.683l-.41.318-5.071 4.164zm-1.025.67l-1.164.22 6.587-5.253C15.933 31.94 9.598 35.337 8 36.264c.616 0 9.542-.122 16.162 3.736l4.543-5.493h-.456c-4.292 0-7.945.708-7.945.708z" fill="#fff"/></svg>