<!-- by TradingView --><svg xmlns="http://www.w3.org/2000/svg" width="56" height="56"><path fill="#013471" d="M0 0h56v56H0z"/><path fill-rule="evenodd" d="M34 34a5 5 0 100-10 5 5 0 000 10zm0-1a4 4 0 100-8 4 4 0 000 8z" fill="#fff"/><path d="M26 20a1 1 0 011 1v13h-1V20z" fill="#fff"/><path fill-rule="evenodd" d="M11 34a5 5 0 004-2v2h1V24h-1v2a5 5 0 10-4 8zm0-1a4 4 0 100-8 4 4 0 000 8zm9-6c0-1.1.9-2 2-2h2v-1h-2a3 3 0 00-3 3v7h1v-7z" fill="#fff"/><path d="M46.07 21.12l3.48-3.98.14-.18c.26-.35.45-.62.57-.93.12-.33.15-.71.05-1.3l-5 5.74a5.34 5.34 0 00-1.29 3.7l.02.3-2.4-2.89c-.2-.2-.4-.39-.64-.55-.38-.27-.8-.49-1.23-.67l-.24-.1.25-.09a4.7 4.7 0 011.29-.24 2.28 2.28 0 011.8.78v.01l.08.1.77-.65-.1-.11a3.4 3.4 0 00-2.85-1.11c-.47.07-.86.25-1.24.42l-.03.01c-.4.18-.8.35-1.28.4h-2.84c.85.18 2.11.46 3.03.77a8.18 8.18 0 012.48 1.7l2.94 3.48c.37.3.84.47 1.85.5a4.32 4.32 0 01.39-5.11z" fill="#3FFCBD"/><path d="M48.64 27.42l.14.15.65.75c.38.34.83.54 1.84.57l-3.04-3.45a2.2 2.2 0 01-.55-1.45c0-.53.3-1.05.64-1.44l1.15-1.32.23-.32c.24-.33.42-.58.54-.87.13-.33.18-.72.07-1.34l-2.75 3.2c-.27.31-.56.65-.69 1a3.18 3.18 0 00.6 3.2l1.17 1.32z" fill="#3FFCBD"/></svg>