<!-- by TradingView --><svg width="56" height="56" xmlns="http://www.w3.org/2000/svg"><path fill="#F0F3FA" d="M0 0h56v56H0z"/><path d="M32 34V23.997l8 7.721v-7.72h1V34l-8-7.733V34h-1z" fill="#3951A0"/><path d="M31 30h-6v1h6v-1z" fill="#A9D481"/><path d="M23 24h8v1h-7v8h7v1h-8V24z" fill="#A9D481"/><path d="M15 24v10h1v-9h1.642c1.276 0 3.288.052 3.358 2.701.07 2.65-2.51 3.428-4 3.298L20.194 34h1.278L19 31.595c1.137-.007 3-1.283 3-3.894C22 24.931 19.82 24 18.72 24H15zM9 23.999l-5 10h1L9 26l4 7.999h1l-5-10zM47 24l-5 10h1l4-8 4 8h1l-5-10z" fill="#3951A0"/></svg>