<!-- by TradingView --><svg width="56" height="56" xmlns="http://www.w3.org/2000/svg"><path fill="#00B0B9" d="M0 0h56v56H0z"/><path d="M37.969 28.048l6.967-4.24L29 14.772v8.453l8.969 4.823zm-19.457-.016L27 23.225v-8.452l-15.932 9.033 7.444 4.226zM10 32.839l6.467-3.644-6.467-3.644v7.288zm27 5.403V29.79L28 24.97l-7.444 4.223 16.445 9.05zm2 0l7-4.241v-8.454l-7 4.245v8.45zm-20.487.566l7.446-4.226-7.448-4.228-7.444 4.227 7.446 4.227zm19.034 2.096L28 35.741l-9.069 5.148a.854.854 0 01-.84 0L8.418 35.4A.824.824 0 018 34.686V23.702c0-.3.166-.577.434-.723l19.148-10.868a.851.851 0 01.841 0L47.58 22.987c.26.147.42.42.42.715l.002 10.985c-.001.293-.16.565-.418.712l-9.191 5.506a.853.853 0 01-.845 0z" fill="#fff"/></svg>