<!-- by TradingView --><svg width="56" height="56" xmlns="http://www.w3.org/2000/svg"><path fill="url(#paint0_linear)" d="M0 0h56v56H0z"/><path d="M43.485 26c1.156 0 2.157.708 2.515 1.117l-1.362 1.402c-.459-.45-.826-.505-1.153-.519-.406-.017-1.447.319-1.485 1.404-.038 1.086.83 1.596 1.616 1.596.503 0 .89-.283 1.022-.437l1.231 1.456c-.655.585-1.454.98-2.384.98C42.555 33 40 32.4 40 29.404 40 26.872 42.135 26 43.485 26z" fill="#96989B"/><path d="M20.007 26.016c1.156 0 2.157.708 2.515 1.116l-1.362 1.403c-.459-.45-.825-.506-1.153-.52-.406-.016-1.446.32-1.485 1.405-.038 1.085.83 1.596 1.616 1.596.503 0 .891-.283 1.022-.438l1.231 1.456c-.655.586-1.454.98-2.384.98-.93 0-3.485-.598-3.485-3.594 0-2.533 2.136-3.404 3.485-3.404zM4 33l3.5-10h2L13 33h-2l-.79-2H6.85L6 33H4z" fill="#fff"/><path d="M7.414 29l1.05-3 1.086 3H7.414z" fill="#131619"/><path d="M13 32.983V26h2v1.113c.28-1.055 1.127-1.188 1.522-1.113v2.257c-1.29-.189-1.548.8-1.522 1.319v3.407h-2z" fill="#fff"/><path d="M29.5 33.015V26.03h2v1.113c.28-1.055 1.127-1.187 1.522-1.113v2.257c-1.29-.189-1.548.8-1.522 1.319v3.408h-2z" fill="#96989B"/><path d="M23 33V23h2v3.85c.583-.782 1.513-.868 1.846-.85 1.83.072 2.2 1.322 2.15 2.063v4.936H27v-4.004c-.006-.422-.323-1.024-1-.995-.677.029-.994.651-1 .995v4.004h-2z" fill="#fff"/><ellipse cx="36.5" cy="29.507" rx="3.5" ry="3.507" fill="#96989B"/><ellipse cx="36.5" cy="29.503" rx="1.5" ry="1.503" fill="#131619"/><ellipse cx="36.499" cy="29.5" rx="1.026" ry="1.028" fill="#fff"/><path d="M46 33V23h2v6l2-3h2l-2.267 3.469L52 33h-2l-2-3v3h-2z" fill="#96989B"/><defs><linearGradient id="paint0_linear" x1="10.418" y1="9.712" x2="68.147" y2="76.017" gradientUnits="userSpaceOnUse"><stop stop-color="#1A1E21"/><stop offset="1" stop-color="#06060A"/></linearGradient></defs></svg>