<!-- by TradingView --><svg width="56" height="56" xmlns="http://www.w3.org/2000/svg"><path fill="url(#paint0_linear)" d="M0 0h56v56H0z"/><path d="M32.273 30.99c.77 0 .727-.4.727-.844v-3.824c0-.355.17-.755.642-.755h.674c.513 0 .684.444.684.755v5.3C35 32.29 34.316 33 33.674 33h-5.558c-.616 0-.855-.222-1.112-.71l-2.01-4.268v-2.178c0-.444-.128-.844-.684-.844h-.669c-.513 0-.684.356-.684.8L23 31.622c-.043.845-.87 1.378-1.426 1.378h-1.409c-.665 0-.773-.138-1.03-.627L17 28.067v-2.223c0-.489-.128-.844-.641-.844h-.515c-.513 0-.844.356-.844.844v5.734c0 .8-.5 1.422-1.166 1.422h-1.881c-.953 0-1.155-.71-1.283-1.244l-1.112-6.223c-.043-.355-.342-.533-.684-.533H8.79c-.3 0-.6.178-.685.533L7 32.333c-.086.49-.257.667-.77.667h.043-.478c-.514 0-.899-.222-.77-.8l1.454-7.911c.17-.844.77-1.289 1.54-1.289h1.923c.514.044 1.155.578 1.283 1.333l1.155 6.311c.043.223.085.356.257.356h.17c.17 0 .193-.07.193-.247v-6.375C13 23.71 14.005 23 14.56 23h3.379c.598.044 1.197.756 1.197 1.333v3.556L20.658 31H21v-6.668c0-.578.701-1.332 1.3-1.332h3.293c.598 0 1.407.711 1.407 1.333v3.512s.969 2.478 1.097 2.745c.129.266.385.4.684.4h3.492z" fill="#fff"/><path d="M43.25 25l.75 6.845c.214.755.5 1.155 1.408 1.155h2.321c.771 0 1.229-.8 1.271-1.2l.99-8c.043-.267-.042-.71-.47-.8h-.923c-.554 0-.597.667-.597.756l-.782 6.622c-.086.4-.17.622-.64.622h-.086c-.47 0-.597-.311-.64-.711l-.896-6c-.085-.756-.598-1.2-1.152-1.289h-1.237c-.682 0-1.44.622-1.567 1.2l-.694 6.178c-.086.4-.128.622-.64.622h-.086.042c-.468 0-.597-.267-.64-.711l-.895-5.911c-.129-.845-.64-1.378-1.408-1.378h-6.186c-.725 0-1.45.667-1.493 1.378v5.287c0 .489.213.844.597.844h.802c.384 0 .598-.31.598-.844v-4.043c.042-.578.34-.622.853-.622l3.468-.033c.384 0 .64.177.682.533l1 6.3c.128.444.5 1.2 1.237 1.2h2.665c.598 0 1.024-.667 1.109-1.334L42.949 25h.3z" fill="#fff"/><defs><linearGradient id="paint0_linear" x1="10.418" y1="9.712" x2="68.147" y2="76.017" gradientUnits="userSpaceOnUse"><stop stop-color="#1A1E21"/><stop offset="1" stop-color="#06060A"/></linearGradient></defs></svg>