<!-- by TradingView --><svg width="56" height="56" xmlns="http://www.w3.org/2000/svg"><path fill="#00009A" d="M0 0h56v56H0z"/><path d="M12.066 28.029c0-13.014 12.076-17.867 20.88-15.113-2.856.17-3.785 1.31-4.656 2.567l-10.146 17.65c-4.73-.172-6.146-3.88-6.078-5.105z" fill="#fff"/><path d="M36.596 14.482c11.224 5.836 7.76 21.805 2.366 25.081 1.509-2.543.826-3.969.19-5.36L29.023 16.49c2.563-3.98 6.554-2.692 7.572-2.008z" fill="#fff"/><path d="M35.452 42.057c-12.566 6.198-22.55-4.008-23.166-11.052 1.484 2.558 3.448 2.902 4.972 3.024h20.749c2.224 4.179-.872 7.158-2.555 8.028z" fill="#fff"/></svg>