<!-- by TradingView --><svg width="56" height="56" fill="none" xmlns="http://www.w3.org/2000/svg"><path fill="#F0F3FA" d="M0 0h56v56H0z"/><path d="M18.175 23.927c0 2.045-1.623 3.672-3.587 3.672-1.965 0-3.588-1.627-3.588-3.672s1.623-3.672 3.588-3.672c1.964 0 3.587 1.627 3.587 3.672z" stroke="#CDDB28" stroke-width="2"/><path d="M41 17.672c0 2.045-1.623 3.671-3.588 3.671-1.964 0-3.587-1.626-3.587-3.671S35.448 14 37.412 14C39.377 14 41 15.627 41 17.672z" stroke="#68CBDB" stroke-width="2"/><path d="M34.376 40.328c0 2.045-1.623 3.672-3.588 3.672-1.964 0-3.587-1.627-3.587-3.672s1.623-3.671 3.587-3.671c1.965 0 3.588 1.626 3.588 3.671z" stroke="#3EBFAB" stroke-width="2"/><path d="M14.106 24.075l16.991-4.845m6.505-2.175L33.04 34.06m-1.942 6.427L19.447 28.82" stroke="#88817C" stroke-width="2" stroke-linecap="round"/></svg>