<!-- by TradingView --><svg width="56" height="56" xmlns="http://www.w3.org/2000/svg"><path fill="#F0F3FA" d="M0 0h56v56H0z"/><path d="M11 29.995l2.87-3.998H14l-.289 1.538-.44 2.46H11zM10 32h3l-.234 1.997h4.698l.536-12h-5l-9 12h5L10 32z" fill="#02458D"/><path d="M18.774 29.723l.163.164c.555.559 1.338 1.018 2.415 1.018.424-.032 1.24-.197 1.436-.722.228-.526-.36-.56-.75-.625l-.85-.131c-1.664-.263-2.773-1.216-1.99-3.024 1.142-2.76 4.503-4.338 7.245-4.404 1.436-.033 2.61.296 3.557.953l-2.48 2.99c-.555-.46-1.306-.854-2.285-.82-.391 0-1.044.164-1.24.623-.163.428.36.493.686.56l.946.196c1.763.362 2.96 1.25 2.144 3.222-1.142 2.793-4.657 4.239-7.365 4.272-1.6.033-3.264-.33-4.406-.953l2.774-3.32zM42 21.997l-2.592 6.979c-1.374 3.473-4.11 5.023-7.408 5.023-3.299 0-4.87-1.55-3.496-5.023l2.536-6.98H35l-2.089 6.575c-.366.944-.911 2.429.295 2.418 1.411 0 1.798-1.474 2.165-2.418L38 21.997h4zm4.067 3.236h.336c.733 0 1.344.102.977 1.012-.366.877-1.099.977-1.802.977h-.305l.794-1.989zM39 33.996h4l1.609-4.009h.061l.33 4.01 4 .002-.49-4.012c-.092-.37-.274-.54-.427-.708l.03-.1c1.802-.54 2.81-1.282 3.513-3.069 1.19-3-.611-4.113-3.269-4.113H43l-4 12z" fill="#02458D"/><path d="M18.774 29.723l.163.164c.555.559 1.338 1.018 2.415 1.018.424-.032 1.24-.197 1.436-.722.228-.526-.36-.56-.75-.625l-.85-.131c-1.664-.263-2.773-1.216-1.99-3.024 1.142-2.76 4.503-4.338 7.245-4.404 1.436-.033 2.61.296 3.557.953l-2.48 2.99c-.555-.46-1.306-.854-2.285-.82-.391 0-1.044.164-1.24.623-.163.428.36.493.686.56l.946.196c1.763.362 2.96 1.25 2.144 3.222-1.142 2.793-4.657 4.239-7.365 4.272-1.6.033-3.264-.33-4.406-.953l2.774-3.32z" fill="#009688"/></svg>