<!-- by TradingView --><svg xmlns="http://www.w3.org/2000/svg" width="56" height="56"><path fill="url(#afy5qtrbc)" d="M0 0h56v56H0z"/><path d="M49.18 31.43l.6-.51c.32-.3.6-.64.82-1.04.17-.33.28-.67.26-1.06-.01-.3-.1-.59-.25-.85-.21-.35-.49-.63-.8-.87a7.17 7.17 0 00-1.47-.88c-.89-.4-1.81-.7-2.74-.96a35.7 35.7 0 00-3.46-.75 62.68 62.68 0 00-3.6-.5c-.49-.05-.98-.08-1.48-.12-.9-.07-1.8-.12-2.7-.12-1 0-2 0-3.01.03A58.5 58.5 0 0020 25.38l.07-.03c.88-.34 1.78-.59 2.7-.8a32.85 32.85 0 014.27-.73 62.6 62.6 0 012.97-.26c.8-.04 1.6-.08 2.4-.1.63-.02 1.27-.01 1.91 0 .49 0 .97 0 1.45.02a112.89 112.89 0 013.68.25 45.01 45.01 0 016.45 1.09c1.05.27 2.09.6 3.1 1.04.59.26 1.16.54 1.69.93.33.25.66.51.91.87.09.11.16.23.23.36.24.49.23.98-.02 1.45-.17.32-.4.57-.65.8-.4.34-.84.62-1.3.85-.22.12-.45.22-.67.33l-.01-.02zM20 27h2.9c.1 0 .19 0 .28.03.48.1.77.43.81.94.03.41-.02.6-.27 1.03.11.15.2.33.23.52C24.04 30 24 31 24 31h-1v-1.1c0-.08-.01-.15-.03-.23a.38.38 0 00-.34-.32.7.7 0 00-.1 0H21V31h-1v-4zm1 1.65l1.65.01c.62 0 .6-.97-.02-.99H21v.98zM14 27v.67h-2.68c-.07 0-.15 0-.22.02-.42.09-.38.9.05.96h.13l1.55.01c.2 0 .38.04.56.12.77.34.84 1.62.1 2.05-.2.12-.42.17-.64.17L10 30.99v-.66l2.67-.01c.07 0 .15 0 .22-.02.43-.09.36-.9-.06-.95-.05-.01-.1 0-.14 0l-1.66-.01c-.1 0-.2 0-.3-.03-1.04-.26-1-2.17.1-2.3H14z" fill="#fff"/><path d="M39 27v.67h-2.65c-.35 0-.36.11-.35.37v.62h2.21l.01.68H36v.75c0 .15.07.21.22.23H39v.67l-2.94.01c-.5 0-1-.21-1.05-.77l-.01-.17v-2.13c0-.1.02-.21.04-.32.1-.45.54-.56.95-.6l.25-.01H39zm10 4h-1v-1.64h-2V31h-1v-3.99l1-.01v1.65h2V27h1v4zM9 31H8v-1.78H6.77c-.09 0-.14.03-.2.1-.39.45-.8 1.12-1.19 1.58a.25.25 0 01-.22.1H4s2.26-2.54 3.4-3.72c.48-.48 1.6-.44 1.6.37V31zm-1-2.42v-.73c0-.12-.07-.06-.13 0l-.61.73H8zM44 27v.67h-2.69l-.15.01c-.1.02-.14.07-.16.19v2.23c.01.14.07.2.2.22H44V31h-2.98c-.14 0-.28-.02-.42-.06-.4-.1-.6-.38-.6-.83v-2.19l.02-.24a.72.72 0 01.42-.57c.17-.08.35-.1.53-.1L44 27zm-26.5 4h-1v-3.37H15V27h4v.63h-1.5V31zm15 0h-1v-3.37H30V27h4v.63h-1.5V31zM27 31h-1c-.14 0-.29-.02-.43-.06-.38-.1-.57-.39-.57-.82v-2.25c0-.43.2-.7.58-.81.13-.04.27-.06.41-.06H28c.17 0 .34.02.5.08.28.11.45.33.48.66l.02.23a672.31 672.31 0 01-.02 2.3c-.03.3-.18.5-.43.62-.18.08-.36.1-.55.1h-1zm1.17-2v-1.08c0-.17-.06-.24-.2-.25H26.1c-.24 0-.3.06-.3.32l.01 2.02c0 .25.05.3.28.3a896.4 896.4 0 001.93 0 .18.18 0 00.14-.16V29z" fill="#fff"/><defs><linearGradient id="afy5qtrbc" x1="10.42" y1="9.71" x2="68.15" y2="76.02" gradientUnits="userSpaceOnUse"><stop stop-color="#1A1E21"/><stop offset="1" stop-color="#06060A"/></linearGradient></defs></svg>