<!-- by TradingView --><svg width="56" height="56" fill="none" xmlns="http://www.w3.org/2000/svg"><path fill="url(#paint0_linear_3186)" d="M0 0h56v56H0z"/><path d="M27.784 35.77a.504.504 0 00.588-.001l16.42-11.855c.393-.284.191-.901-.294-.901H11.502c-.487 0-.688.62-.293.902L27.784 35.77z" fill="#B8B8BA"/><path d="M27.518 11.341a.502.502 0 01.952 0l10.347 31.002c.152.456-.37.84-.765.564l-9.769-6.843a.504.504 0 00-.578 0l-9.769 6.843c-.395.277-.916-.108-.764-.564l10.346-31.002z" fill="#fff"/><defs><linearGradient id="paint0_linear_3186" x1="10.418" y1="9.712" x2="68.147" y2="76.017" gradientUnits="userSpaceOnUse"><stop stop-color="#1A1E21"/><stop offset="1" stop-color="#06060A"/></linearGradient></defs></svg>