<!-- by TradingView --><svg width="56" height="56" xmlns="http://www.w3.org/2000/svg"><path fill="#F6F8FD" d="M0 0h56v56H0z"/><path d="M26.986 9l3.889 5.411 5.747-3.373.662 5.962h6.663l-2.741 6.695L47 26.985l-5.411 3.89 3.373 5.747-5.962.662v6.663l-6.695-2.741L29.015 47l-3.89-5.411-5.747 3.373L18.716 39h-6.663l2.741-6.695L9 29.015l5.411-3.89-3.373-5.747L17 18.716v-6.663l6.695 2.741L26.985 9z" fill="#000"/><path d="M29.187 15.786l.063 19.48-14.443-2.958-.153-.083L9 29.015l5.411-3.89-3.373-5.747L17 18.716v-6.663l6.695 2.741L26.985 9l3.89 5.411-1.688 1.375z" fill="#015138"/><circle cx="23.5" cy="23.5" r="1.5" fill="#F0EA78"/><path d="M39.26 28c-.33-7.98-6.775-11.408-10.068-12.2L25.625 28h13.634z" fill="#FF7D01"/><circle cx="31.5" cy="23.5" r="1.5" fill="#000"/><path d="M39.258 28H29v10.688c8.316-.875 10.296-7.51 10.258-10.688z" fill="#F0EA78"/><path d="M34.83 31.78c-.734 1.31-3.024 4.03-6.52 4.42-1.772.196-3.415-.288-4.712-.923-1.295-.634-2.323-1.456-2.903-2.057l1.64-1.58c.401.416 1.215 1.078 2.264 1.591 1.047.513 2.249.839 3.46.704 2.473-.275 4.237-2.291 4.784-3.268l1.987 1.114z" fill="#F0EA78"/><path d="M29 36.139c2.966-.716 4.976-3.066 5.642-4.253l-1.987-1.114c-.455.811-1.812 2.314-3.655 2.966v2.4z" fill="#000"/></svg>