<!-- by TradingView --><svg xmlns="http://www.w3.org/2000/svg" width="56" height="56"><path fill="#F0F3FA" d="M0 0h56v56H0z"/><path d="M28 15l11 22h-2.17l-1.12-2.21L28 19.3 20.19 35h8.6l3.73 2H17l11-22z" fill="url(#ajgtuaufc)"/><path d="M17.77 27h14.07l.99 2H13l4.77-2z" fill="#F68121"/><path fill-rule="evenodd" d="M28 45a17 17 0 100-34 17 17 0 000 34zm0 1a18 18 0 100-36 18 18 0 000 36z" fill="url(#bjgtuaufc)"/><path d="M17.32 14.77a17.26 17.26 0 00-3.15 3.34l-.8-.6c.96-1.32 2.06-2.5 3.32-3.51l.63.77z" fill="url(#cjgtuaufc)"/><defs><linearGradient id="ajgtuaufc" x1="30.06" y1="29.36" x2="16.99" y2="36.97" gradientUnits="userSpaceOnUse"><stop stop-color="#00477D"/><stop offset="1" stop-color="#03EAF0"/></linearGradient><linearGradient id="bjgtuaufc" x1="40.47" y1="14.62" x2="17.69" y2="43.07" gradientUnits="userSpaceOnUse"><stop stop-color="#00477D"/><stop offset="1" stop-color="#03EAF0"/></linearGradient><linearGradient id="cjgtuaufc" x1="18.13" y1="14.06" x2="13.24" y2="19.08" gradientUnits="userSpaceOnUse"><stop stop-color="#0186A9"/><stop offset=".49" stop-color="#D88130"/><stop offset="1" stop-color="#019EBA"/></linearGradient></defs></svg>