<!-- by TradingView --><svg width="56" height="56" xmlns="http://www.w3.org/2000/svg"><path fill="#0D2C73" d="M0 0h56v56H0z"/><path d="M31.615 29.897c.013-.055-.008-.152-.061-.169l-.012-.002c-.741-.05-.919-.307-1.358-1.384l-1.748-4.265c-.015-.042-.063-.072-.123-.077a.148.148 0 00-.146.073l-2.11 4.269s-1.89 3.588-2.492 3.65l-.043.004H4V33h19.522c.433 0 1.06-.846 1.244-1.14.217-.349.57-1.145 1.034-2.028l2.2-4.54.846 2.155.378.945.318.779.2.49.008.018c.095.238.149.32.684.32h1.071c.055.006.098-.048.11-.102zM30.997 32L31 33h21v-1H30.997z" fill="#85D925"/><path d="M36.77 29.016l-.027.015-.006.02c-.13.49-.15.478-1.65.478h-.558c-.436 0-.529-.04-.529-1.174v-2.71c0-1.305.052-1.33.914-1.399.017 0 .042-.008.063-.042.023-.04.04-.117.005-.165-.02-.028-.054-.041-.094-.038h-2.774a.085.085 0 00-.082.021c-.036.036-.032.1-.016.143.015.045.042.073.088.081.844.087.896.09.896 1.4v2.71c0 1.286.048 1.286-.83 1.373l-.082.008c-.068.013-.097.118-.086.181.011.061.054.082.09.082-.004 0 .002 0 0 0h4.446c.17 0 .265-.044.323-.232.05-.165.105-.387.14-.693.006-.024-.005-.033-.027-.049-.047-.033-.166-.027-.204-.01zM42.75 29.02l-.026.014-.005.02c-.134.547-.158.503-1.664.503h-.515c-.393 0-.54-.048-.54-1.234V27l.708.003c.888 0 .911.11.963.356.012.033.06.052.09.057.005 0 .194.018.239-.032v-1.03s-.187-.011-.24 0c-.034.008-.046.028-.051.043l-.013.055c-.035.166-.046.216-.988.216L40 26.666v-2.218h.92c1.296 0 1.724.133 1.795.491.022.063.166.064.21.054.054-.013.08-.05.075-.074L42.998 24h-4.891a.1.1 0 00-.09.042c-.035.05-.012.133.01.173.017.029.039.044.059.044l.078.009c.88.096.836.096.836 1.387v2.704c0 1.283.044 1.283-.835 1.37l-.073.008c-.017 0-.041.007-.06.04-.022.04-.048.134-.008.188.016.023.04.035.068.035-.003 0 .004 0 0 0h4.4c.175 0 .263-.041.32-.232.06-.192.15-.446.188-.667.005-.024-.015-.048-.038-.064-.047-.034-.172-.036-.212-.017zM51.977 29.76c-.018-.036-.041-.043-.054-.043-.911-.075-.923-.222-.923-1.267v-2.813c-.027-1.25-.002-1.306.914-1.382.017 0 .04-.008.059-.041.023-.041.04-.125.005-.175a.093.093 0 00-.09-.037H50l-1.784 4.242-2.215-4.242h-1.896a.079.079 0 00-.078.021c-.039.04-.028.114-.016.152.015.045.04.072.078.08.706.07.92.35.911.932v3.154c-.028 1.239-.113 1.286-.913 1.372-.022.005-.052.022-.071.08-.014.04-.025.118.015.16.02.02.063.05.087.045h1.198l.953.002s.06-.024.08-.047c.043-.05.027-.156.007-.197-.017-.034-.049-.041-.052-.04-.828-.068-.826-.191-.808-1.373v-2.746l2.379 4.33a.14.14 0 00.13.073h.006c.056-.002.102-.029.118-.067L50 25.361v2.982c0 1.173.07 1.304-.643 1.375-.023.004-.053.021-.072.078-.013.04-.025.12.016.16.02.02.047.05.072.044h2.524c.03.008.06-.024.079-.046.043-.051.018-.158 0-.195zM8.162 27.398H6.328l1.006-2.104.828 2.104zm2.772 2.352l-.011-.002c-.754-.05-.934-.309-1.38-1.39l-1.775-4.28c-.015-.043-.064-.073-.125-.077a.147.147 0 00-.147.073l-2.084 4.282c-.469.97-.705 1.34-1.328 1.383-.018 0-.042.007-.06.042-.018.035-.044.141 0 .191.02.023.05.031.075.025l.975-.001.832.002s.046-.002.067-.026c.041-.047.03-.138.008-.183-.022-.042-.053-.048-.066-.048-.469-.038-.477-.081-.477-.232 0-.242.172-.602.41-1.1l.322-.681h2.123l.335.82c.156.376.303.732.303.96 0 .165-.332.184-.703.218l-.135.013c-.018 0-.043.007-.06.042-.019.036-.044.141 0 .192.016.017.058.026.058.026l2.793-.002c.054 0 .1-.022.112-.078.013-.055-.008-.152-.062-.169zM17 27.215c0 1.442-.719 2.395-2.002 2.395-.998 0-.958-.13-.998-.97V24.38h.613c1.632 0 2.387 1.017 2.387 2.834zM14.87 24h-2.775c-.045 0-.069.021-.079.037-.03.048-.011.123.008.163.016.03.035.046.062.047.912.047.914.049.914 1.358v2.71c0 1.3-.171 1.342-.9 1.42l-.018.002c-.022 0-.041.014-.056.043-.018.036-.044.128-.009.183.015.024.068.037.068.037h2.674C16.606 30 18 28.75 18 27c0-1.783-1.2-3-3.13-3zM24.79 24.012l-.027.014-.006.022c-.063.26-.116.27-1.414.27h-2.71c-1.31 0-1.317-.026-1.378-.27l-.007-.026-.027-.007s-.177-.03-.221.02v.928c.041.044.215.034.228.031l.026-.006.007-.025c.107-.28.256-.253 1.372-.253h.867v3.707c0 1.25.057 1.252-.69 1.326l-.025.003c-.022.005-.05.02-.069.076-.013.039-.024.115.015.155a.074.074 0 00.052.023h1.321l1.11-.002s.067-.01.087-.039c.032-.047.025-.124 0-.17-.02-.038-.049-.044-.061-.044-.79-.057-.74-.081-.74-1.328V24.71h.843c1.177 0 1.304 0 1.35.235l.006.034.027.012c.032.014.223.039.274-.046v-.917c-.042-.04-.178-.03-.21-.016z" fill="#fff"/></svg>