<!-- by TradingView --><svg width="56" height="56" xmlns="http://www.w3.org/2000/svg"><path fill="#11175E" d="M0 0h56v56H0z"/><path d="M15.979 17.683A22.728 22.728 0 0013 20.003c8.497 1.514 15.333 5.903 19.581 12.21-2.344-7.013-7.715-12.008-16.602-14.53z" fill="#fff"/><path d="M22.083 14.858a22.155 22.155 0 00-4.541 1.866c11.182 3.582 15.626 10.998 17.09 18.112-.048-8.122-4.247-14.832-12.549-19.978z" fill="#fff"/><path d="M35.804 37.61c2.393-11.048-2.88-18.969-7.52-23.56-.293 0-.585-.05-.878-.05-1.172 0-2.344.1-3.467.353 10.4 7.063 12.598 15.791 11.865 23.258z" fill="#fff"/><path d="M36.732 39.477c3.32-7.416 3.076-15.236-.733-23.005-1.709-1.009-3.564-1.766-5.615-2.119 4.395 4.843 9.522 13.42 6.348 25.125z" fill="#fff"/><path d="M41.859 22.526c-1.026-1.665-2.247-3.178-3.712-4.44C41.37 26.16 40.98 34.383 36.977 42c2.636-3.885 4.346-8.425 4.834-13.47.244-2.018.244-4.036.049-6.004z" fill="#fff"/></svg>