<!-- by TradingView --><svg xmlns="http://www.w3.org/2000/svg" width="56" height="56"><path fill="#F0F3FA" d="M0 0h56v56H0z"/><path d="M13 14h29v21L27.5 14.5 13 35V14z" fill="#005A3B"/><path d="M27.5 22l5.5 9H22l5.5-9z" fill="#7BC353"/><path d="M18.17 40.87a.1.1 0 01-.1.13h-.86a.1.1 0 01-.1-.07l-.38-1.1a.1.1 0 00-.1-.07h-1.6a.1.1 0 00-.1.07l-.37 1.1a.1.1 0 01-.1.07h-.82a.1.1 0 01-.1-.13l1.77-5.2a.1.1 0 01.1-.07h.85a.1.1 0 01.1.07l1.8 5.2zm-1.73-2.01l.02-.03-.62-1.83a.02.02 0 00-.04 0l-.59 1.83c0 .01 0 .03.02.03h1.21zm3.8-1.85c.05 0 .1.04.1.1v.62a.1.1 0 01-.1.1h-.32a.1.1 0 00-.1.1v1.48c0 .33.01.54.04.62.02.08.1.11.2.11.07 0 .15-.01.24-.05.07-.02.14.02.14.1l.06.59a.1.1 0 01-.06.1c-.19.08-.5.12-.74.12a.9.9 0 01-.56-.16.71.71 0 01-.26-.4 4.43 4.43 0 01-.06-.9v-1.6a.1.1 0 00-.1-.1h-.22a.1.1 0 01-.1-.1v-.63c0-.06.05-.1.1-.1h.22a.1.1 0 00.1-.1v-.62a.1.1 0 01.04-.09l.8-.46a.1.1 0 01.16.08v1.09c0 .06.04.1.1.1h.32zm1.66-1.41c.06 0 .1.04.1.1v1.82c.15-.4.7-.56 1-.51.2.02.36.09.5.2.18.13.33.3.4.51.07.22.1.54.1.98v2.2a.1.1 0 01-.1.1h-.8a.1.1 0 01-.1-.1v-1.97c0-.36-.01-.6-.04-.73-.09-.48-.6-.53-.87-.14-.13.18-.09.5-.09.97v1.87a.1.1 0 01-.1.1h-.8a.1.1 0 01-.1-.1v-5.2c0-.06.04-.1.1-.1h.8zm7.6 5.3a.1.1 0 01-.1.1h-.8a.1.1 0 01-.1-.1v-3.8c0-.06.04-.1.1-.1h.74c.05 0 .1.04.1.1v.46c0 .02.02.02.03 0 .1-.17.21-.3.32-.4a.65.65 0 01.42-.16c.18 0 .36.05.53.15a.1.1 0 01.04.11l-.21.7c-.02.06-.1.09-.16.05a.64.64 0 00-.31-.09c-.23 0-.39.13-.47.37a5.5 5.5 0 00-.13 1.5v1.11zm1.5-1a.1.1 0 01.08-.12l.7-.12c.06-.01.1.02.12.08.1.34.33.51.7.51.22 0 .38-.03.49-.1.1-.07.16-.18.16-.31 0-.1-.03-.17-.08-.21a.72.72 0 00-.29-.13c-.55-.14-.94-.19-1.15-.3a1.08 1.08 0 01-.63-1c0-.35.12-.64.36-.87.23-.22.59-.33 1.06-.33.45 0 .8.08 1.03.25.21.15.37.37.46.68a.1.1 0 01-.07.12l-.66.14a.1.1 0 01-.12-.07c-.1-.26-.3-.38-.62-.38a1 1 0 00-.45.08.26.26 0 00-.15.24c0 .1.05.18.15.23.1.06.36.14.78.25.56.15.92.32 1.06.53.15.21.22.37.22.62 0 .38-.13.7-.4.94-.28.25-.65.37-1.13.37-.88 0-1.42-.37-1.62-1.1zm3.4-2.77a.1.1 0 01.1-.13h.74a.1.1 0 01.1.07l.77 2.72c0 .02.03.02.04 0l.75-2.72A.1.1 0 0137 37h.72a.1.1 0 01.1.13l-1.17 3.7c-.18.58-.3.95-.39 1.12a1 1 0 01-.38.44c-.18.12-.41.18-.7.18-.17 0-.32-.02-.46-.05a.1.1 0 01-.07-.08l-.06-.6a.1.1 0 01.12-.11l.24.02c.23 0 .39-.08.48-.23.1-.15.16-.31.21-.5a.1.1 0 000-.05l-1.24-3.84zm3.75 2.77a.1.1 0 01.07-.12l.7-.12c.06-.01.11.02.13.08.1.34.33.51.7.51.22 0 .38-.03.49-.1.1-.07.16-.18.16-.31 0-.1-.03-.17-.08-.21a.72.72 0 00-.29-.13c-.55-.14-.94-.19-1.16-.3a1.08 1.08 0 01-.62-1c0-.35.11-.64.35-.87.24-.22.6-.33 1.07-.33.45 0 .8.08 1.03.25.21.15.36.37.46.68a.1.1 0 01-.08.12l-.65.14a.1.1 0 01-.12-.07c-.1-.26-.3-.38-.62-.38a1 1 0 00-.46.08.26.26 0 00-.15.24c0 .1.05.18.16.23.1.06.36.14.77.25.57.15.92.32 1.07.53.15.21.22.37.22.62 0 .38-.14.7-.41.94a1.6 1.6 0 01-1.13.37c-.87 0-1.41-.37-1.61-1.1zm-11.24-.14a.11.11 0 01.13-.07l.74.13c.06.01.1.07.08.13-.26.7-.78 1.05-1.54 1.05-.6 0-1.05-.19-1.34-.57a2.1 2.1 0 01-.43-1.36c0-.6.15-1.1.45-1.49.3-.39.7-.58 1.22-.58 1.13 0 1.7.74 1.73 2.23a.1.1 0 01-.1.1h-2.2c-.06 0-.11.05-.1.1.02.4.32.8.78.8.28 0 .48-.16.58-.47zm-.02-1.06c.06 0 .1-.04.1-.1a.94.94 0 00-.21-.58.65.65 0 00-.5-.23.61.61 0 00-.52.25.96.96 0 00-.2.56c0 .06.04.1.1.1h1.23zm-4.34 4.46a.05.05 0 01-.05-.05v-.2c0-.04.02-.06.05-.06h.16c.03 0 .05.02.05.05v.2c0 .03-.02.06-.05.06h-.16zm0 1.84a.05.05 0 01-.05-.05v-1.46c0-.02.02-.05.05-.05h.16c.03 0 .05.03.05.05v1.46c0 .03-.02.05-.05.05h-.16zm4.35 0a.05.05 0 01-.05-.05v-1.46c0-.02.02-.05.05-.05h.16c.03 0 .05.03.05.05v.15h.02c.13-.15.3-.23.53-.23.1 0 .2.02.29.05.08.03.15.08.2.13.04.06.07.12.08.2l.02.25v.91c0 .03-.02.05-.05.05H28a.05.05 0 01-.04-.05v-.9c0-.1-.01-.18-.04-.24a.26.26 0 00-.12-.12.5.5 0 00-.53.06c-.08.07-.13.2-.13.4v.8c0 .03-.02.05-.05.05h-.19zm6-.6a.05.05 0 00-.07.04.39.39 0 01-.14.25.48.48 0 01-.3.1.5.5 0 01-.38-.15c-.1-.1-.14-.25-.14-.45 0-.21.05-.33.15-.42a.5.5 0 01.38-.14c.1 0 .2.02.26.08a.4.4 0 01.14.19c.01.02.04.04.06.04l.2-.03c.04 0 .06-.03.05-.06a.56.56 0 00-.23-.31.85.85 0 00-.5-.13.9.9 0 00-.43.1.63.63 0 00-.3.28.8.8 0 00-.1.4c0 .26.08.46.23.6.15.14.35.21.6.21.2 0 .38-.05.51-.15.13-.1.2-.21.25-.37a.05.05 0 00-.04-.06l-.2-.02z"/></svg>