<!-- by TradingView --><svg width="56" height="56" xmlns="http://www.w3.org/2000/svg"><path fill="#0675AA" d="M0 0h56v56H0z"/><path d="M27.983 12l-3.4 7.523 3.36 6.685 3.405-6.617L27.983 12zM29.257 26.695l2.414-6.964 7.522-3.072-3.066 7.637-6.87 2.399zM36.242 24.597L44 27.984l-7.596 3.24-6.6-3.246 6.438-3.381zM36.197 31.525l-6.951-2.293 2.471 7.113 7.477 2.996-2.998-7.816zM27.977 29.787l3.392 6.65L27.987 44l-3.381-7.54 3.371-6.673zM26.73 29.233l-2.425 7.089-7.549 3.004 3.024-7.848 6.95-2.245zM12 27.984l7.664-3.318 6.581 3.268-6.697 3.267L12 27.984zM19.848 24.342l-3.14-7.693 7.55 3.013 2.472 7-6.882-2.32z" fill="#F6F8FD"/></svg>