<!-- by TradingView --><svg xmlns="http://www.w3.org/2000/svg" width="56" height="56"><path d="M0 28a28 28 0 1156 0 28 28 0 01-56 0z" fill="#F0F3FA"/><path fill-rule="evenodd" d="M36.08 25.9c-3.5-3.78-7.28-6.59-11.27-6.53a9.16 9.16 0 00-9.2 9.08c0 4.95 4.03 9 9.2 9.07 3.97.06 7.7-2.65 11.15-6.37.8-.87 1.58-1.78 2.33-2.7a58.62 58.62 0 00-2.2-2.54zm3.3 1.18a58.8 58.8 0 00-2.04-2.33c-3.54-3.83-7.77-7.16-12.55-7.08A10.87 10.87 0 0013.9 28.45c0 5.92 4.81 10.68 10.88 10.78 4.75.07 8.92-3.14 12.42-6.92.74-.8 1.47-1.65 2.17-2.5l1.56 2 .93 1.22c1.14 1.5 2.22 2.93 3.2 4.08l1.3-1.1a95.61 95.61 0 01-3.12-3.99l-.96-1.25c-.58-.76-1.19-1.55-1.81-2.33 1.11-1.43 2.17-2.86 3.15-4.2.92-1.24 1.77-2.4 2.55-3.38l-1.34-1.06c-.85 1.07-1.74 2.28-2.68 3.56a181 181 0 01-2.79 3.72z" fill="#A3D4FA"/><path d="M14.85 29.79a1.32 1.32 0 100-2.64 1.32 1.32 0 000 2.64z" fill="#2B468B"/><path d="M31 25H9v3h22v-3z" fill="url(#awtmngdnn)"/><path opacity=".8" d="M29.66 26.5H10.1l-.88-1.25h21.32l-.88 1.25z" fill="url(#bwtmngdnn)"/><path opacity=".2" d="M30.54 27.75H9.22l.88-1.25h19.56l.88 1.25z" fill="url(#cwtmngdnn)"/><path d="M31 29H9v3h22v-3z" fill="url(#dwtmngdnn)"/><path opacity=".8" d="M29.66 30.5H10.1l-.88-1.25h21.32l-.88 1.25z" fill="url(#ewtmngdnn)"/><path opacity=".2" d="M30.54 31.75H9.22l.88-1.25h19.56l.88 1.25z" fill="url(#fwtmngdnn)"/><path d="M43.07 15l-6.3 6.3 1.94 1.93 6.3-6.3L43.06 15z" fill="#00B0F0"/><path opacity=".8" d="M38.52 21.48l4.74-4.74 1.43.2-5.98 5.98-.2-1.44z" fill="#4EF6FF"/><path opacity=".3" d="M37.08 21.3l5.99-6 .19 1.44-4.74 4.74-1.44-.19z" fill="#4EF6FF"/><path d="M38.7 33.59l-1.93 1.93 6.3 6.3L45 39.88l-6.3-6.3z" fill="#00B0F0"/><path opacity=".8" d="M38.52 35.33l4.74 4.74-.2 1.44-5.98-5.99 1.44-.19z" fill="#4EF6FF"/><path opacity=".3" d="M38.7 33.9l6 5.98-1.44.2-4.74-4.75.19-1.43z" fill="#4EF6FF"/><path d="M35.27 25.61a1.32 1.32 0 100-2.64 1.32 1.32 0 000 2.64zm-3.74-3.95a1.32 1.32 0 100-2.64 1.32 1.32 0 000 2.64zm-4.8-1.54a1.32 1.32 0 100-2.64 1.32 1.32 0 000 2.64zm-5.31.66a1.32 1.32 0 100-2.64 1.32 1.32 0 000 2.64zm-4.4 3.08a1.32 1.32 0 100-2.64 1.32 1.32 0 000 2.64zm0 12.3a1.32 1.32 0 100-2.63 1.32 1.32 0 000 2.63zm4.4 2.86a1.32 1.32 0 100-2.64 1.32 1.32 0 000 2.64zm5.28.88a1.32 1.32 0 100-2.64 1.32 1.32 0 000 2.64zm4.83-1.98a1.32 1.32 0 100-2.64 1.32 1.32 0 000 2.64zm3.74-3.73a1.32 1.32 0 100-2.64 1.32 1.32 0 000 2.64z" fill="#2B468B"/><path d="M38.88 29.79a1.32 1.32 0 100-2.64 1.32 1.32 0 000 2.64z" fill="#364F90"/><path d="M41.86 26.05a1.32 1.32 0 100-2.64 1.32 1.32 0 000 2.64zm3.51-3.95a1.32 1.32 0 100-2.64 1.32 1.32 0 000 2.64zm0 15.6a1.32 1.32 0 100-2.64 1.32 1.32 0 000 2.64zm-3.51-3.95a1.32 1.32 0 100-2.64 1.32 1.32 0 000 2.64z" fill="#2B468B"/><path opacity=".5" d="M9 25l1 1.5L9 28v-3z" fill="#0491C5"/><defs><linearGradient id="awtmngdnn" x1="9.84" y1="30.51" x2="30.52" y2="23.57" gradientUnits="userSpaceOnUse"><stop stop-color="#00B0F0"/><stop offset=".5" stop-color="#C8C8C8"/><stop offset="1" stop-color="#02215E"/></linearGradient><linearGradient id="bwtmngdnn" x1="9.22" y1="25.88" x2="30.54" y2="25.88" gradientUnits="userSpaceOnUse"><stop stop-color="#4EF6FF"/><stop offset=".48" stop-color="#fff" stop-opacity=".6"/></linearGradient><linearGradient id="cwtmngdnn" x1="20.09" y1="61.28" x2="1084.47" y2="61.28" gradientUnits="userSpaceOnUse"><stop stop-color="#4EF6FF"/><stop offset=".48" stop-color="#fff" stop-opacity=".6"/></linearGradient><linearGradient id="dwtmngdnn" x1="9.84" y1="34.51" x2="30.52" y2="27.57" gradientUnits="userSpaceOnUse"><stop stop-color="#00B0F0"/><stop offset=".5" stop-color="#C8C8C8"/><stop offset="1" stop-color="#02215E"/></linearGradient><linearGradient id="ewtmngdnn" x1="9.22" y1="29.88" x2="30.54" y2="29.88" gradientUnits="userSpaceOnUse"><stop stop-color="#4EF6FF"/><stop offset=".48" stop-color="#fff" stop-opacity=".6"/></linearGradient><linearGradient id="fwtmngdnn" x1="20.09" y1="65.28" x2="1084.47" y2="65.28" gradientUnits="userSpaceOnUse"><stop stop-color="#4EF6FF"/><stop offset=".48" stop-color="#fff" stop-opacity=".6"/></linearGradient></defs></svg>