<!-- by TradingView --><svg xmlns="http://www.w3.org/2000/svg" width="56" height="56"><path d="M0 28a28 28 0 1156 0 28 28 0 01-56 0z" fill="#D87163"/><path d="M51.62 32.66c-.24.12-.6.33-1.06.55l-.78.34-.45.19-.49.17c-.34.11-.7.26-1.08.37l-1.23.33-1.35.3-1.46.22c-.5.07-1.02.11-1.55.17l-1.63.09c-.55 0-1.11.02-1.68.01-.57-.02-1.14-.01-1.72-.06-.58-.03-1.17-.06-1.75-.13l-.88-.08-.88-.1a60.14 60.14 0 01-6.8-1.28 71.22 71.22 0 01-5.79-1.66 75.23 75.23 0 01-4.39-1.6 22.4 22.4 0 01-1.94-5.08c-.5-1.97-.92-3.77-1.29-5.41a18.35 18.35 0 01-1.62 3.73 25.58 25.58 0 01-2.68 3.91 6.47 6.47 0 00-1.29-.13c-.47 0-.91.07-1.33.2-.42.13-.79.34-1.11.63a3.72 3.72 0 012.04-.53c.45 0 .92.05 1.42.17a19.19 19.19 0 01-3.4 2.74c-.97.56-1.45.93-1.45 1.09 0 .2.04.35.13.43.08.08.23.12.44.12.43 0 1-.31 1.72-.93.72-.62 1.34-1.23 1.86-1.83l1.25-1.44c1.85.53 3.37 1.36 4.57 2.5l2.36 2.65c.83.8 1.84 1.21 3.03 1.21h1.27a7.1 7.1 0 01-2.58-1.92 79.91 79.91 0 0011.94 2.8c1.17.17 2.36.32 3.55.42l.9.07.9.05c.59.04 1.18.04 1.77.05.6.02 1.18 0 1.76-.01.57-.01 1.14-.06 1.7-.09l1.65-.16 1.56-.23 1.47-.3 1.35-.35 1.22-.39c.39-.12.74-.29 1.08-.41l.48-.2.44-.2c.28-.15.54-.27.77-.38.46-.24.8-.47 1.04-.6l.37-.21-.38.2zM12.1 28.53c-.74-.28-1.54-.53-2.4-.73a29 29 0 001.53-2.14c.45-.7.85-1.41 1.2-2.15.19 1.23.43 2.41.73 3.57.3 1.15.58 1.97.82 2.45a7.4 7.4 0 00-1.88-1z" fill="#fff"/><path d="M20.16 24.19h1.17c-.13.26-.3.41-.52.47-.23.06-.44.1-.65.1v4.05c0 .2.08.3.24.3.13 0 .3-.07.5-.18.21-.12.46-.3.74-.55-.26.47-.58.86-.94 1.16-.36.3-.73.46-1.1.46-.29 0-.48-.11-.6-.33-.1-.22-.16-.6-.16-1.17v-3.73H18c.03-.2.28-.44.76-.7.49-.25.95-.9 1.4-1.97v2.09zm7.02 1.23v3.75c.01.11.07.17.17.17.15 0 .27-.12.67-.39-.13.3-.18.5-.44.72-.27.22-.56.33-.88.33-.33 0-.55-.1-.69-.29a1.2 1.2 0 01-.2-.7v-2.9c0-.2-.02-.34-.05-.44-.04-.1-.16-.16-.36-.16-.32 0-.64.22-.99.66-.34.44-.51.74-.51.92v1.6c0 .33-.14.64-.4.9-.27.27-.6.41-.99.41v-6.68c0-.64.19-1.2.56-1.64a1.8 1.8 0 011.46-.68h1.28c-.3.52-.7.8-1.18.82-.49.03-.73.12-.73.25v4.33c.47-.75.92-1.31 1.36-1.68.43-.36.8-.55 1.08-.55.35 0 .57.1.68.27.1.18.16.5.16.98zm4.34-1.27a2 2 0 01.93.19c.24.12.57.38.99.77l-3.47 3.27c.19.3.42.48.7.57.29.08.6.13.95.13.36 0 .69-.08 1-.24.3-.15.59-.31.83-.49-.38.55-.8.96-1.25 1.24a3 3 0 01-1.58.41c-.84 0-1.44-.26-1.8-.77a2.85 2.85 0 01-.52-1.65c0-1.03.3-1.87.92-2.5a3.1 3.1 0 012.3-.93zm-1.68 3.92l1-.91c.5-.51.76-.9.76-1.16 0-.31-.09-.56-.25-.73a.84.84 0 00-.64-.27c-.33 0-.6.2-.79.56-.19.37-.28.82-.28 1.33 0 .21.01.42.04.61.03.2.08.38.16.57zm9.2 1.02c0 .2.07.3.22.3.19 0 .46-.15.8-.45-.2.34-.43.6-.72.78-.29.19-.54.28-.77.28a.86.86 0 01-.61-.22c-.16-.15-.24-.37-.24-.68v-3c0-.2-.02-.37-.07-.49s-.18-.18-.4-.18c-.24 0-.56.24-.96.7-.4.47-.6.75-.6.83v2.27c-.04.18-.2.36-.48.52-.28.17-.56.25-.83.25v-4.57c0-.14-.06-.21-.17-.21-.14 0-.41.12-.81.36.36-.43.68-.77.98-1.01.3-.25.53-.37.7-.37.27 0 .44.14.51.4.07.28.1.7.1 1.27v.5c.38-.54.77-1.04 1.18-1.5.41-.44.85-.67 1.3-.67.35 0 .58.11.7.34.11.22.17.55.17 1v3.55zm4.45-4.94a2 2 0 01.92.19c.24.12.57.38.99.77l-3.47 3.27c.19.3.42.48.7.57.29.08.6.13.96.13.35 0 .68-.08.99-.24.3-.15.59-.31.83-.49-.38.55-.8.96-1.25 1.24a3 3 0 01-1.57.41c-.85 0-1.45-.26-1.8-.77a2.85 2.85 0 01-.53-1.65c0-1.03.3-1.87.93-2.5a3.1 3.1 0 012.3-.93zm-1.7 3.92c.34-.3.68-.6 1-.91.51-.51.77-.9.77-1.16 0-.31-.08-.56-.25-.73a.83.83 0 00-.64-.27c-.33 0-.6.2-.78.56-.2.37-.3.82-.3 1.33 0 .21.02.42.05.61.03.2.08.38.16.57zm4.05-5.96c.62 0 .94.24 1.3.7.35.47 1.13 2.53 1.35 3.17l.56-.83c.28-.4.42-.69.42-.9 0-.2-.2-.38-.6-.56h2.53c-.55.2-1 .46-1.38.8a7.9 7.9 0 00-1.33 1.89c.23.72.53 1.39.9 2 .36.6.76.9 1.2.9.16 0 .3-.03.44-.09l.77-.37c-.18.38-.42.67-.73.86-.32.2-.69.3-1.1.3-.62 0-1.12-.22-1.52-.66-.4-.43-.76-1-1.08-1.67-.18.26-.48.67-.72 1.05-.25.39-.37.63-.37.75 0 .09.07.19.22.3.14.1.32.2.52.25H44.9c.41-.13.84-.42 1.28-.9.44-.47.8-1.18 1.19-1.95-.31-.86-.95-3.04-1.26-3.53-.31-.5-.67-.74-1.07-.74-.24 0-.6.1-1.1.32.46-.5.8-.8 1-.92.2-.11.5-.17.9-.17z" fill="#fff"/></svg>