<!-- by TradingView --><svg width="56" height="56" xmlns="http://www.w3.org/2000/svg"><path fill="#F0F3FA" d="M0 0h56v56H0z"/><path d="M9.014 22.654l2.899 13.309-.978-6.41s3.982 5.222 6.445 5.45c3.108.286 5.467-4.942 8.139-9.205.873-1.393 1.746-2.637 2.602-3.598.995 1.153 1.98 2.783 2.934 4.262 3.86 6.34 5.113 7.93 6.654 8.418 2.533.803 5.997-3.179 7.563-5.31l-.96 6.376 2.969-13.292s-3.144 5.607-4.699 7.685c-1.554 2.078-2.885 3.612-4.226 3.319-1.467-.321-2.184-1.904-3.441-4.14C33.909 27.73 28.4 16 28.121 16c-.28 0-5.025 10.096-7.3 14.461-.581 1.113-.944 1.572-1.276 2.026-.332.454-1.275 1.38-2.323 1.188-2.095-.168-6.345-7.417-8.208-11.02z" fill="#EBC718"/><path d="M12.332 36.05l-.611-3.912s1.03 2.393 3.965 5.013c4.177 3.487 9.358 4.408 11.991 4.473.221.003.445.002.671-.002-.2.007-.424.009-.67.002-3.364-.037-6.157-.837-9.058-1.836-2.638-.908-5.135-2.637-6.288-3.738z" fill="#7DAE3E"/></svg>