<!-- by TradingView --><svg width="56" height="56" xmlns="http://www.w3.org/2000/svg"><path fill="url(#paint0_linear)" d="M0 0h56v56H0z"/><path d="M32.999 16h5v8.536h-5V16z" fill="#888"/><path fill-rule="evenodd" d="M25.98 39.906c6.611 0 11.97-5.36 11.97-11.97 0-6.612-5.359-11.971-11.97-11.971-6.612 0-11.971 5.36-11.971 11.97 0 6.612 5.36 11.971 11.97 11.971zm0-5.074a6.897 6.897 0 100-13.793 6.897 6.897 0 000 13.793z" fill="url(#paint2_angular)"/><path d="M34.38 19.407l-3.571 3.6c1.168 1.084 2.775 3.637 6.157 9.738C39.807 37.871 43.78 40.295 47 40v-5c-.884 0-3.613-.41-6.343-6.06-2.183-4.522-4.896-8.21-6.278-9.533z" fill="#fff"/><defs><linearGradient id="paint0_linear" x1="10.418" y1="9.712" x2="68.147" y2="76.017" gradientUnits="userSpaceOnUse"><stop stop-color="#1A1E21"/><stop offset="1" stop-color="#06060A"/></linearGradient><radialGradient id="paint2_angular" cx="0" cy="0" r="1" gradientUnits="userSpaceOnUse" gradientTransform="rotate(-45.406 46.376 -17.081) scale(11.9792)"><stop stop-color="#535353"/><stop offset="1" stop-color="#fff"/></radialGradient></defs></svg>