<!-- by TradingView --><svg width="56" height="56" xmlns="http://www.w3.org/2000/svg"><path fill="#E18C1F" d="M0 0h56v56H0z"/><path d="M44.999 40.272h-.108c.236.165.536.33.536.372l-3.254-1.532c-.107.041-.172.041-.193 0l-.086-.124c-.021-.041-.128-.041-.32.041-.022.042-.15-.083-.365-.29-.085-.041-.235.042-.364 0l-.92-.29-.086-.082-.278.041c-.043 0-.064-.124-.086-.124l-.685-.083-.085-.124-.45.083-.77-.042-.022-.083h-.086c-.064.083-.171-.04-.15.042.771.455 1.542.414 2.334.621 2.847.414 4.817 2.07 7.707 3.52-.022.041-.107.041-.214.041.32.207 1.006.704.942.745-.15.083-.257.083-.364.042-.129-.041-.279-.083-.471-.166l-.129-.165c-.064 0-.128-.042-.214-.083l-.021-.083-.086-.083h-.15l-.042.042.042.041.022.083c-.022.041-.236-.166-.578-.331-.043-.042.085-.166.064-.166-.129.041-.193.041-.236.041l-.92-.455c-.043 0-.086.041-.107 0l-.086-.124c-.235-.083-.385-.125-.364-.208.043-.04.086-.082.086-.165a.995.995 0 01-.514-.041 1.004 1.004 0 01-.043-.249l-.192.083-.043-.166-.022.042v.082l-.021.042-.043-.124-.043-.042-.021.042v.165c-.021.124-.428-.083-1.178-.455l.108.124-.022.083c-.214-.083-.47-.042-.47-.124v-.083l-.022-.083h-.171l-.108.083c-.107 0-.235-.042-.342-.083-1.05-.745-2.57-1.16-3.66-1.16-.493-.29-.772-.413-.814-.372-.022.041-.043.041-.107.083-.065 0-.215 0-.471-.083l-.022-.041-.085-.083h-.065l-.064.041-.021.083.064.166h-.428c-1.499-.332-2.634-.29-3.212-.373l.022-.58.171-1.366c.792-.58 1.156.041 2.098-.042h.343l.15.042h.15l.128.041.107.083c.021 0 .085 0 .15-.083l.128-.041.107-.042h.193l.021.083 2.976.787.064.165c.086.042.15-.041.214-.041l.3.124.492.083h-.107l-.042.041.042.042h.043c.065-.041.107-.041.15-.083.043 0 .129.041.257.083l-.021-.083v-.083h.085l.043.042.064.041.086.083-.086.041h-.042l.042.083c.172.041.471-.124.535 0l-.02.083.02.083.065.041h.107c.107-.083.214-.124.3-.166.107 0 .235 0 .256.042l.043.414h.107l.022-.083v.249l-.065-.083-.021-.042-.043-.124.064-.041c.236.041.514.165.835.331.065.124-.085.29-.021.29.193-.124.3-.083.45-.083.128.041.3.207.492.456v.082l.021.083.043-.041v-.083l.043-.041h.107l.021.082c.108 0 .172 0 .193.042l-.021.083.085-.166h.043l.043.041.021.166v.083h.086c.193 0 .364.041.364.083l-.021.083.042.165.065.042zM17.116 39.816c-.444.414-.869.083-1.257.704l-.074.124-.074.166-.056.165c-.018.042-.148.083-.406.125-.98.497-1.942 1.035-2.626 1.615-.758.62-1.757 1.325-2.57 1.283-.13 0-.444-.786-.537-.745-.222 0-.462-.041-.72-.166l-.093-.083c-.24.125-.407.166-.537.166-.11-.083-.166-.124-.166-.248.48-.911 1.146-1.036 1.72-1.45 1.294-.662 2.7-1.739 4.03-2.029l.038-.165c.037-.083.148-.083.314-.042l.037-.041.019-.083c.018-.083.443.041.443-.041a.666.666 0 01.056-.207c.758-.166 1.48-.621 2.237-.828-.018.745.037 1.325.222 1.78zM27.465 39.154h-.084l-.88-.042c-1.466-.041-2.597.042-3.98.166l-1.298.124.083-1.325-.335-.497h.21l.754-.166c1.047-.207 1.508-.248 2.346-.33.838-.084 1.843-.125 2.556.04v.083c.544.207.838.456 1.005.911l-.377 1.036zM30.567 15.84c-.755-.703-1.425-.662-2.137-1.076-.42-.621-.21-1.988.628-2.484a1.12 1.12 0 01.42-.249c.167-.041.376-.041.586 0 1.173 0 1.34.58 1.97 1.284 1.005 1.035 2.304 1.242 3.435 2.443 2.095 2.236 3.352 5.217.461 7.246-.419.331-.754.828-1.09 1.45l-.083.414c.126.497.167.993.167 1.532-.041.248-.125.414-.21.62l-.041.25c-.042.165-.293.248-.293.372v.041l-.084.166-.084.041c-.084.207-.168.332-.293.539l-.168.083v.082l-.042.083h-.042l-.041-.041-.126.083v.041l-.042.041a1.18 1.18 0 01-.377.415 4.224 4.224 0 01-.336.124c-.25.207-.502.331-.837.455l-.461.124h-.084l-.042-.041a1.108 1.108 0 00-.252.207l-.586.124-.042-.041h-.21l-.042.083-.041-.042c-.084-.083-.21-.083-.336 0l-.251-.124c-.126-.124.503-.456.922-.704.628-.704.712-1.45.712-1.45.754-1.738-.377-3.395.126-4.761l.293-.704.629-1.118.251-.497.21-.497V19.9c.041-.539-.377-1.74-.67-2.195-.127-.207.041-.331.209-.621l.21-.083c.292-.248.67-1.118-.294-1.863-.084-.083-.377-.083-.587.082-.042.166-.46 1.118-1.005.622z" fill="#fff"/><path d="M25.58 27.228c-.335 1.74-.502 3.768-.083 5.549 0 .331-.042.455.125.786.545 1.533 1.257 2.816 2.389 3.976.125 0 .21-.083.293-.249.042-.455.168-.786.293-.952l.168-.042c.21-.828.419-1.739.293-2.608-.042-.29-.126-.621-.168-.911l-.041-.124v-.166l.041-.041h.126l.587 1.739-.042.786.084.166.084.497-.042.662.042.704v.166c0 .704-.629 1.242-.838 1.946l-.294.663-.251.704-.126.165-.084.828.126.166-.042.331.042.042c.084.455.587.745.964.372.21-.745-.503-1.159-.126-1.49l.168.041.21.083.209.166.125.165.168.331v.166l-.042.207-.084.207-.125.207-.294.249-.167.124-.168.083v.041c-.377 0-.545 0-.88-.166-.503-.33-.46-.496-.754-.87-.168-.206-.335-.496-.335-.744v-.539l.042-.29.167-.372.168-.911.084-.249c.125-.29.251-.786 0-1.035-.629-.455-1.09-.828-1.635-1.408-1.089-1.2-1.55-2.401-1.843-3.975a2.396 2.396 0 01-.084-.538c0-.249 0-.414-.042-.539-.46.042-.796.083-.964.166-.084.042-.167.124-.251.207-.042.124-.042.29 0 .497l.084.166-.042.165c-.042.456-.294 1.408-.545 1.78-.293.622-.628.995-1.09 1.492l-.377.33v.25l.084.248.042.207c.252.538.335.62.754 1.035.503.455.587 1.242.42 1.863-.043.166-.713.207-1.132.207-.377 0-.796-.124-1.299-.165-.084-.042-.126-.042 0-.083l.126-.041.335-.166.084-.083.084-.041v-.042c.21-.29.167-.331.21-.662a.383.383 0 01.293-.124c.209.124.25.455.377.455.041-.166.083-.041.041-.248v-.083c-.083-.911-.712-1.243-1.047-1.988-.712-1.242 1.09-2.402 1.425-4.14.083-.415-.084-.953.125-1.409l.126-.29.335-.496.21-.207.21-.166.25-.166.252-.124.293-.124.922-.124c.461-.953.377-2.402.922-3.851.042 0 .126.082.168.331.084.331.167.828.167 1.325zM35.386 27.228l-.126.29v2.401l.293 1.74v.62l-.042.29c-.042.829-.335 1.823-.712 2.526-.503.994-1.215 1.615-1.55 2.692-.462.497-.545 1.242-.294 1.863h-.042v.042l.126.207.042.083.042.041v.041l.042.042.083.207c.126.29.168.58.21.91l-.084.332-.042.042v.041l-.042.083-.125.041-.252.249-.084.041-.084.083v.041l-.083.042v.041c-.335.207-.67.373-1.09.456-.125-.083-.167-.207-.125-.373a1.47 1.47 0 00.377-.29c.251-.29.377-.497.46-.787 0-1.076-.46-3.52 0-4.43.126-.249.545-.994.503-1.284l.042-.083.042-.331.503-.745.21-.415.21-.372.167-.414c.377-.87.586-1.574.67-2.526a8.05 8.05 0 00.042-1.74l-.042-.455-.042-.29.042-.248.084-.331.126-.29.126-.249.167-.207v-.041h.042c.168.041.251.207.21.414z" fill="#fff"/><path d="M31.53 42.01c-.376.29-.628.415-1.047.622v.041l-.168.042-.125-.083v-.083l.125-.166.042-.083.084-.04.21-.29v-.166c-.042-.125-.042-.208 0-.249h.084v-.083-.248l.041-.041h.042v-.125-.248h.084l.084.041v.042l.21.207c.083.124.251.165.335.455.042.166.084.331 0 .456zM18.038 36.876c.042.083-.294.331-.335.497.251.62.46 1.408.46 1.822l-.041.083-.168.124c-.084.372-.168.58-.293.662a1.563 1.563 0 01-.713-.331l-.125-.166-.168-.33-.042-.166-.042-.249v-.497l.042-.248.042-.042c.377-.372.712-1.16 1.048-1.283.083 0 .251.041.335.124zM19.043 38.118c.084-.124.126-.207.252-.083l.042.083.041.124.126.497.042.042c.126.165.084.414.042.62v.083l-.084.083h-.084c-.46-.083-.628.207-.921.166v-.041l.167-.166.084-.042.042-.082.084-.083.084-.166v-.165c-.042-.125-.042-.166 0-.249h.083v-.165h-.041l-.042-.166v-.166h.083v-.124zM27.802 13.687l-.084-.041c-.378 0-.545.124-.755.455-.46.953-1.34 1.45-1.885 2.61-.21.33-.293.62-.377.827-.042.456.125.911.335 1.284.084.207.126.373.167.538.252 1.284-.544 1.988.42 3.271.963 1.284 2.514 3.396 2.262 4.804v.166l-.084.165-.041.166s-.084.041-.126.165c0 .166.042.373-.168.787-.084.083-.167.124-.293.083-.084-.124-.084-.29 0-.538.084-.083.084-.125.168-.249.083-.124 0-.414 0-.414-.461-2.194-3.017-2.857-3.353-5.217-.335.331-.921.745-1.718 1.242-1.885 1.408-2.346 3.727-2.681 5.921 0 .414-.042.704-.126.911-.084.207-.168.373-.293.497h-.042l-.042.042v.207a.645.645 0 01-.252.33c-.125.125-.251.208-.419.332-.083.083-.083.249-.125.414l-.126.207v.042l.042.041v.041l-.042.042-.084.041c-.084.083-.167.166-.167.249l-.294.165a.594.594 0 01-.084.29h-.125l-.126.042-.293.124-.252.166-.21.124h-.083l-.042.041-.084.042-.125.041h-.084l-.042.041-.21.042c-.293.041-.712.041-1.34.041-.084-.041-.168-.083-.252-.165l-.126-.083-.125-.042-.168-.082-.335-.249c-.754-.87-.922-2.195.251-2.899v-.165l.084-.083h.126c.335.042.712-.041.922.29.125 0 .251.041.377.083.167.124.251.538 0 .745-.293.248-.629.414-.922.663-.293.165-.42.082-.503.248-.084.331 0 .538.21.787.21.248.502.414.838.373.125.04.21.04.293.04a.865.865 0 01.168-.248c.083-.041.335-.124.67-.207.126-.041.21-.041.293-.124.168-.083.294-.165.461-.248.126-.083.294-.207.42-.373l.041-.041h.042l.168-.166.083-.124.084-.083.084-.248v-.083l.042-.042.042-.124c.838-3.271-.377-5.217 1.634-7.66.503-.663 1.76-1.367 2.598-1.657.46-.124.838-.124 1.299-.041.335 0 .293-.042.545-.166-.42-1.905 0-1.325-1.257-2.898a2.465 2.465 0 01-.378-.622c-.544-2.029 1.341-2.484 2.556-3.685.629-.455 1.467-1.45 2.18-1.615h.209l.251.042.168.041.168.083.083.083.042.082v.083h-.084z" fill="#fff"/><path d="M26.712 16.544c.083.125-.587.994-.587 1.119l-.126.04c-.083-.206.084-.496.042-.537-.083-.125-.251 0-.251-.166-.084-.083-.21-.124-.168-.248 0-.332.88-.497 1.09-.207zM30.149 16.669l-.084.041c.042.083-.042.083-.042.207-.042.166-.293.249-.42.249-.083 0-.335.372-.796.207-.251-.042-.335.372-.628.372-.126 0 .083-.248.083-.33.168-.25.252-.456.378-.705l.167-.083c.252 0 .503-.041.797.083l.126.041.125-.04c.084-.166.21-.208.294-.042zM27.34 18.076c.252.29.67-.165.713.125.041.124-.587.414-.67.414l-.294.166c-.252.165-.21.455-.294.62 0 .166.252.249.378.332.251.165.46.704.838.58.377-.042.544-.166.838-.083 0 .165.167-.042.21.124l.125.124c0 .124-.168.207-.293.249-.294.124-.503.165-.796.082-.378.083-.587-.29-.88-.414-.084-.124-.252-.165-.336-.248-.126-.083-.167-.041-.335.041-.377.166-.545.497-.754.373.042-.248.125-.414.419-.745.084-.083.335-.125.335-.373 0-.166-.21-.58-.21-.621-.125-.083-.083-.166-.167-.207-.545-.373-.42-.497-.294-.538.294-.042.964-.29 1.467 0zM28.304 21.555l.838-.373c.125 0-.252.332-.336.497-.21.29-.502.373-.838.621-.041.083-.167.166-.125.373-.042.124-.126.207-.168.248-.126.042-.628-.207-.712-.33-.293-.374-.46-.456-.67-.663a.662.662 0 01-.21-.456l.042-.041.251.124.796.124c.294.083.922 0 1.132-.124z" fill="#fff"/></svg>