<!-- by TradingView --><svg xmlns="http://www.w3.org/2000/svg" width="56" height="56"><path fill="#F0F3FA" d="M0 0h56v56H0z"/><path d="M12.73 25.78A3.6 3.6 0 0115 25c1.4 0 2.61.51 2.61.51l-.01 1.88h-.25c-.5-1.1-1.11-1.78-2.35-1.78-3.23 0-3.17 6.76-.27 6.76 1.13 0 1.27-.3 1.27-1.3 0-.31-.09-.51-.27-.61-.11-.06-.38-.2-.73-.2V30h2.61v2.37c-.75.5-2.01.63-2.88.63a3.56 3.56 0 01-3.69-3.21 4.2 4.2 0 011.69-4.01zm9.01 6.88c.72 0 1.21-.45 1.48-1.36.14-.49.27-1 .27-1.79a4.7 4.7 0 00-.46-2.34c-.3-.55-.71-.83-1.24-.83-.72 0-1.22.46-1.49 1.38a6.2 6.2 0 00-.21 1.8c0 .78.02 1.3.16 1.78.27.9.76 1.36 1.49 1.36zm.05-6.66c.97 0 1.78.33 2.42 1 .66.67.99 1.44.99 2.51 0 1.07-.39 1.82-1.05 2.5-.64.66-1.45.99-2.41.99a3.21 3.21 0 01-2.51-1.09 3.25 3.25 0 01-.85-2.34c0-1.07.31-1.84.95-2.53A3.2 3.2 0 0121.79 26zm3.87 6.74c.27 0 .45-.04.57-.1.19-.11.28-.31.28-.61v-5.05c0-.3-.09-.5-.27-.6-.1-.07-.3-.1-.58-.12V26H29v.26c-.4.01-.68.07-.8.17-.14.1-.2.36-.2.76v4.93c0 .23.05.38.16.45.12.07.33.1.66.1.57 0 1.1-.13 1.5-.4.4-.27.73-.8 1.02-1.57h.28l-.4 2.3h-5.56v-.26zm6.34 0c.24-.01.61-.05.72-.1.19-.11.28-.3.28-.57v-5.14c0-.26-.09-.45-.27-.55-.1-.06-.48-.1-.73-.12V26h3.13c1.19 0 1.93.33 2.55 1 .56.61.85 1.56.85 2.59A3.32 3.32 0 0135.07 33H32v-.26zm2.55-.68c.01.21.05.36.11.45.07.1.2.14.41.14.57 0 .87-.2 1.24-.63.36-.43.55-1.25.55-2.45 0-.72-.1-1.47-.3-1.99-.32-.83-.69-1.24-1.44-1.24-.25 0-.42.05-.5.17a.93.93 0 00-.07.42v5.13zM39 33v-.26c.27 0 .62-.05.73-.12.18-.1.27-.3.27-.6v-5.04c0-.3-.1-.5-.28-.6a2.4 2.4 0 00-.72-.12V26h5.53v2h-.23c-.12-.66-.33-1.05-.63-1.3-.29-.24-.67-.36-1.44-.36-.3 0-.48.04-.56.1-.08.06-.12.2-.12.38v2.49c.85 0 1.06-.51 1.2-1.31H43v3h-.24c-.09-.69-.55-1.34-1.21-1.34v2.46c0 .22.05.36.15.44.1.08.33.12.65.12.61 0 .96-.13 1.35-.38.39-.25.73-.6 1.03-1.3H45l-.39 2H39zm6.4-.26c.36 0 .6-.08.7-.21.1-.14.15-.34.15-.6V27l-.54-.61a.51.51 0 00-.29-.12V26h2.04l3.3 4.41h.05v-3.15c0-.34-.06-.59-.18-.73-.12-.15-.27-.24-.63-.27V26h2v.26c-.3.05-.51.12-.62.21-.1.1-.15.3-.15.6V33h-.27l-4.22-5.38h-.07v4.12c0 .32.04.54.12.66.13.21.4.33.8.34V33H45.4v-.26z" fill="#72470D"/><path d="M25 16.5C18 15.5 7.5 20 4 30c3.62-7.23 8.5-10.5 15.5-12 2-1 4.5-1.5 5.5-1.5z" fill="#DDA62D"/><path d="M19.5 18c2-1 4.5-1.5 5.5-1.5a15.7 15.7 0 00-4.77.1c-1.43.6-2.13 1.1-3.23 2.04.8-.24 1.63-.45 2.5-.64z" fill="#714614"/><path d="M22.5 19.5C13 19.5 7 24 4 31.5c2.64-5.6 6.22-8.4 11.5-10 1.3-.4 2.5-.6 2.5-.6s2.84-1.35 4.5-1.4z" fill="#DDA62D"/><path d="M22.5 19.5c-1.66.05-4.5 1.4-4.5 1.4l-2.5.6c1-.8 2.41-1.6 2.41-1.6 1.43-.27 2.96-.4 4.59-.4z" fill="#714614"/><path d="M16.5 23.6C11.5 24.1 6 28.5 4 33c.4-1.2 4.5-11.1 17-10.8-1.6.2-3.67 1-4.5 1.4z" fill="#DDA62D"/><path d="M21 22.2c-1.6.2-3.67 1-4.5 1.4-.67.07-1.34.2-2.02.4.52-.5 2.37-1.5 2.37-1.5 1.27-.23 2.65-.34 4.15-.3z" fill="#714614"/></svg>