<!-- by TradingView --><svg width="56" height="56" xmlns="http://www.w3.org/2000/svg"><path fill="url(#paint0_linear)" d="M0 0h56v56H0z"/><path d="M5.402 31.997c.174-.315.174-.814.174-1.234v-.853c0-.657-.239-1.287-.543-2.062-.316-.774-.718-1.51-1.033-1.85h.674c.282 0 .337.078.467.354.305.59.663 1.654.816 2.323.032.145.065.29.12.29.053 0 .111-.171.184-.329l.532-1.142c.174-.38.348-.84.348-1.116a.602.602 0 00-.12-.38H8l-.88 1.666c-.544.998-.848 1.471-.848 2.705v.394c0 .42 0 .919.174 1.234H5.402zM9.904 26.969c-.023-.066-.07-.224-.139-.224-.081 0-.128.184-.14.224l-.73 2.021h1.59l-.58-2.021zm1.625 5.028l-.905-2.639H8.756c-.36.827-.77 1.746-.77 2.285 0 .118.003.236.014.354H7l.176-.272c.476-.683 2.206-4.704 2.206-5.479v-.249h.986c.534 1.878 1.068 3.913 1.892 5.659l.174.341h-.905zM17.857 25.997c-.187.35-.165.854-.165 1.319 0 1.112-.033 2.263.066 3.375.044.414.07.931.246 1.306h-1.158c.144-.465.14-1.241.14-1.759v-3.077c0-.09 0-.207-.055-.207s-.077.065-.1.142l-1.774 4.901-1.5-4.552c-.088-.258-.143-.491-.209-.491-.077 0-.077.168-.077.31l-.011 3.013c0 .724.009 1.41.185 1.72h-.937l.067-.116c.297-.492.321-2.043.321-3.052v-2.315c0-.245-.011-.375-.198-.517h.98c.089 0 .21.013.243.142l1.169 4.035c.033.142.066.297.121.297.077 0 .1-.09.144-.22l1.367-3.866c.077-.194.132-.388.33-.388h.805z" fill="#fff"/><path d="M20.89 26.969c-.015-.066-.072-.224-.14-.224-.08 0-.126.184-.138.224l-.72 2.021h1.57l-.572-2.021zm1.608 5.028l-.903-2.639h-1.84c-.354.827-.77 1.746-.77 2.285 0 .118.004.236.015.354h-1l.188-.28c.457-.683 2.184-4.696 2.184-5.47l.012-.25h.96c.525 1.878 1.051 3.913 1.874 5.659l.16.341h-.88zM23.483 31.996c.278-.77.265-1.94.265-2.761v-1.996c0-.456-.011-.965-.256-1.239h.813c.144 0 .222 0 .311.144.167.26.68 1.265.924 1.682l1.592 2.622c.056.091.126.222.167.222.056 0 .056-.092.056-.17v-3.3c0-.64-.078-.952-.19-1.2h.824c-.189.43-.233.913-.233 1.396v3.73c0 .313.01.587.01.874H27.2l-2.917-4.865c-.033-.065-.055-.105-.085-.105-.037 0-.048.053-.048.131v2.413c0 .743.002 1.718.247 2.422h-.913zM30.878 26.972c-.023-.066-.07-.224-.138-.224-.08 0-.126.184-.15.224l-.71 2.021h1.57l-.572-2.021zM32.482 32l-.89-2.639h-1.85c-.355.827-.78 1.753-.78 2.292 0 .118.026.229.038.347h-1l.195-.262c.47-.683 2.167-4.714 2.167-5.488V26h.974c.527 1.878 1.055 3.913 1.869 5.659l.172.341h-.895z" fill="#fff"/><path d="M38 27c-.589-.5-1.334-.6-1.995-.6C34.67 26.4 34 27.575 34 28.875c0 1.663.663 2.738 2.317 2.738.217 0 .421-.025.637-.063.046-.316.046-.925.046-.925v-.437c0-.4.038-.863-.154-1.175h1.325c-.193.312-.171 1.215-.171 1.215V32h-1.96c-1.814 0-3.04-.825-3.04-2.837C33 26.988 34.514 26 36.438 26c.556 0 1.086 0 1.562.17V27zM41.013 26.4c-1.225 0-1.655 1.2-1.655 2.488 0 1.174.276 2.725 1.655 2.725 1.217 0 1.66-1.2 1.66-2.488 0-1.175-.301-2.725-1.66-2.725zm-.075 5.6c-1.779 0-2.561-1.287-2.561-2.875 0-1.7.925-3.125 2.69-3.125 1.791 0 2.573 1.3 2.573 2.887 0 1.7-.936 3.113-2.703 3.113zM44 27.208c0-.42-.085-.893-.26-1.208h1.49c-.187.315-.23.814-.23 1.234v4.385h.676c.468 0 .54-.16.963-.619l-.15 1h-2.75c.258-.368.26-1.72.26-2.166v-2.626zM48 30.857c0 .655.366.77 1.23.77 1.424 0 1.77-1.11 1.77-2.627 0-1.58-.593-2.64-2.028-2.64-.292 0-.793-.039-.972 0v4.497zm-1-3.65V26h2.746C51.08 26 52 27.156 52 28.8c0 2.056-1.234 3.2-2.76 3.2H47v-4.792z" fill="#A29320"/><defs><linearGradient id="paint0_linear" x1="10.418" y1="9.712" x2="68.147" y2="76.017" gradientUnits="userSpaceOnUse"><stop stop-color="#1A1E21"/><stop offset="1" stop-color="#06060A"/></linearGradient></defs></svg>