<!-- by TradingView --><svg width="56" height="56" xmlns="http://www.w3.org/2000/svg"><path fill="#003768" d="M0 0h56v56H0z"/><path d="M29.541 33h4.587c2.615 0 2.762-2.35 2.433-3.013-.713-1.446-2.386-1.029-2.386-1.616a.397.397 0 01.025-.156.368.368 0 01.082-.13.328.328 0 01.125-.079.301.301 0 01.143-.006H37l.344-2h-4.05c-.642 0-2.715.27-2.715 2.442 0 1.67 2.568 1.42 2.517 2.191a.448.448 0 01-.14.291.431.431 0 01-.288.076h-2.782l-.345 2zM14.505 26.534l2.931-.498.564-3.034h-3.822l.327 3.532zM17.325 26.582l-2.758.535.033.277 2.665-.42.06-.392zM17.154 27.5l-2.5.48-.004.279 2.429-.41.075-.349zM12.962 29.021l-.255.035.017 3.946h.672l-.434-3.98zM13.933 29.021l-.229.03L13.69 33h.67l-.427-3.98zM13.88 23.002L13.19 23l.327 4.002.361-.07.002-3.93zM11.966 28.473l-4.787.694-.564.676 5.386-1.094-.035-.276zM14.65 28.861v4.14H16l.98-4.59-2.33.45zM12.56 27.002l.345-.072v-3.928h-.678l.01.121.323 3.88zM12.032 29.333l-5.683.836L4 33.002h4.318L9.706 31.5h2.548l-.222-2.167zM12 26.997V23.26l-3.732 4.513L12 26.997zM12 27.597l-3.994.57-.514.613 4.509-.902v-.28zM26 33h3l1.304-7H27.36L26 33zM45 26h-6.424L38 28h1.97l-.974 5h3l.964-5h1.586L45 26zM49 33h3l-1-7h-5l-2.998 7H46l.495-1h2.408L49 33zm-2-2l1.246-3.009L48.74 31H47zM25.493 26H23.09l-.212.48 2.616-.48zM22.696 26.86L21 31l.015-3.775-3.126.676L18.46 33h4.756l3.45-7-3.971.86zM20.99 26.01V26h-3.316l.058.545 3.257-.536zM17.784 27.013l.047.388 3.175-.581-.009-.46-3.213.653z" fill="#fff"/></svg>