<!-- by TradingView --><svg width="56" height="56" xmlns="http://www.w3.org/2000/svg"><path fill="#F0F3FA" d="M0 0h56v56H0z"/><path transform="matrix(.71442 -.69972 .72488 .68888 10.636 27.087)" fill="url(#paint0_linear)" d="M0 0h2.64v7.132H0z"/><path transform="matrix(.71442 -.69972 .72488 .68888 35.566 27.087)" fill="url(#paint1_linear)" d="M0 0h2.64v7.132H0z"/><path transform="matrix(.71442 -.69972 .72488 .68888 16.591 25.848)" fill="url(#paint2_linear)" d="M0 0h2.64v7.132H0z"/><path transform="matrix(1 0 0 -1 44 30)" fill="url(#paint3_linear)" d="M0 0h2v6H0z"/><path d="M11.623 24.381c-.525-.507-1.366-.507-1.866 0L4 29.904l1.866 1.799 4.811-4.637c1.051-.988 2.734-.988 3.76 0l-2.814-2.685zM36.57 24.38a1.367 1.367 0 00-1.892 0l-5.732 5.523 1.867 1.799 4.81-4.636c1.026-.988 2.708-.988 3.76 0L36.57 24.38z" fill="#255FAA"/><path d="M22.322 31.322a1.368 1.368 0 001.893 0l5.73-5.523L28.078 24l-4.81 4.636c-1.025.988-2.708.988-3.76 0l2.814 2.686z" fill="#D22417"/><path d="M44 30.784c0 .659.553 1.216 1.263 1.216H52v-2h-5.502C45.105 30 44 28.92 44 27.602v3.182z" fill="#255FAA"/><defs><linearGradient id="paint0_linear" x1="1.32" y1="0" x2="1.32" y2="7.132" gradientUnits="userSpaceOnUse"><stop stop-color="#1C3A63"/><stop offset="1" stop-color="#255FAA"/></linearGradient><linearGradient id="paint1_linear" x1="1.32" y1="0" x2="1.32" y2="7.132" gradientUnits="userSpaceOnUse"><stop stop-color="#1C3A63"/><stop offset="1" stop-color="#255FAA"/></linearGradient><linearGradient id="paint2_linear" x1="1.32" y1="0" x2="1.32" y2="7.132" gradientUnits="userSpaceOnUse"><stop stop-color="#D22417"/><stop offset="1" stop-color="#9C1D2B"/></linearGradient><linearGradient id="paint3_linear" x1="1" y1="0" x2="1" y2="6" gradientUnits="userSpaceOnUse"><stop stop-color="#1C3A63"/><stop offset="1" stop-color="#255FAA"/></linearGradient></defs></svg>