<!-- by TradingView --><svg xmlns="http://www.w3.org/2000/svg" width="56" height="56"><path fill="#F0F3FA" d="M0 0h56v56H0z"/><path d="M29 19h7v2h-7v-2zm0 5h7v2h-7v-2zm7 5h-7v2h7v-2zM13.54 19H11.4L7 31h2.14l3.33-9.18L14.01 26h-2.07l-.7 2h3.5l1.1 3h2.14l-4.44-12z" fill="#1A3797"/><path d="M22 31h.74C23.83 27.1 27 18.6 31 15.8c-4.5 1.5-8.3 9-9.6 13-.13-.12-.27-.21-.41-.32a16.46 16.46 0 01-2.3-2.1l1.12 2.92.04.11c.09.24.18.47.33.68.3.39.89.91 1.82.91z" fill="#197A5D"/><path d="M18.38 25.54a16.08 16.08 0 002.79 2.7l.03.03-3.3-8.77-1.9-.2 2.38 6.24z" fill="#197A5D"/><path fill-rule="evenodd" d="M44 29a4 4 0 100-8 4 4 0 000 8zm0 2a6 6 0 100-12 6 6 0 000 12z" fill="#1A3797"/><path d="M13 33h1.12L16 36.3V33h1v5h-1.1L14 34.7V38h-1v-5zm17 0h1.02v4H33v1h-3v-5z" fill="#1A3797"/><path fill-rule="evenodd" d="M9.5 37a1.5 1.5 0 100-3 1.5 1.5 0 000 3zm0 1a2.5 2.5 0 100-5 2.5 2.5 0 000 5zm17-1a1.5 1.5 0 100-3 1.5 1.5 0 000 3zm0 1a2.5 2.5 0 100-5 2.5 2.5 0 000 5zm9.5-1a1.5 1.5 0 100-3 1.5 1.5 0 000 3zm0 1a2.5 2.5 0 100-5 2.5 2.5 0 000 5z" fill="#1A3797"/><path d="M21.69 36.5c-.28.3-.7.5-1.14.5-.85 0-1.55-.67-1.55-1.5s.7-1.5 1.55-1.5c.45 0 .86.2 1.14.5h1.2a2.55 2.55 0 00-2.34-1.5A2.52 2.52 0 0018 35.5c0 1.38 1.14 2.5 2.55 2.5 1.04 0 1.94-.62 2.33-1.5h-1.2zm21.51-.1a1.5 1.5 0 11-.18-2h1.23a2.5 2.5 0 10.25 1h-3v1h1.7zm1.74-3.4l1.56 3.03V38h1v-1.97L49.06 33h-1.13L47 34.81 46.07 33h-1.13z" fill="#1A3797"/></svg>