<!-- by TradingView --><svg xmlns="http://www.w3.org/2000/svg" width="56" height="56"><path fill="url(#a2zum1tbq)" d="M0 0h56v56H0z"/><path d="M37.3 22.05c-3.1-4.48-7.35-1.95-8.15-1.38a7.3 7.3 0 00-5.28 1.26 7.34 7.34 0 00-2.06 9.98l-3.1 2.07c3.21 4.7 7.8 1.6 8.26 1.26a7.3 7.3 0 005.27-1.26A7.34 7.34 0 0034.31 24l2.98-1.95zM28 33.4a5.5 5.5 0 110-11.01 5.5 5.5 0 010 11.01z" fill="#DC3138"/><path fill-rule="evenodd" d="M28 41a13 13 0 100-26 13 13 0 000 26zm0 3a16 16 0 100-32 16 16 0 000 32z" fill="#D2D0CE"/><defs><linearGradient id="a2zum1tbq" x1="10.42" y1="9.71" x2="68.15" y2="76.02" gradientUnits="userSpaceOnUse"><stop stop-color="#1A1E21"/><stop offset="1" stop-color="#06060A"/></linearGradient></defs></svg>