<!-- by TradingView --><svg xmlns="http://www.w3.org/2000/svg" width="56" height="56"><path fill="#F0F3FA" d="M0 0h56v56H0z"/><path d="M34.27 35c.95 0 1.73-.74 1.73-1.64v-10.7A1.7 1.7 0 0034.27 21h-1.55A1.7 1.7 0 0031 22.66v10.7c0 .9.77 1.64 1.73 1.64h1.55zM12.2 21.64c.41-.85 1.13-.85 1.57 0l6.06 11.82c.42.85.05 1.54-.88 1.54H7.05c-.92 0-1.3-.69-.87-1.54l6.02-11.82zm10.05 12.72c.41.85 1.13.85 1.57 0l6-11.82c.44-.85.05-1.54-.86-1.54H17.04c-.9 0-1.3.69-.86 1.54l6.07 11.82zm27.14-7.22c.81.49.81 1.28 0 1.75l-9.92 5.91c-.8.47-1.47.08-1.47-.88V22.08c0-.96.66-1.35 1.47-.88l9.92 5.94z" fill="#7825E7"/></svg>