<!-- by TradingView --><svg width="56" height="56" xmlns="http://www.w3.org/2000/svg"><path fill="#FC6600" d="M0 0h56v56H0z"/><path d="M9.002 31s-.557-.969-.886-1.337l-.463 1.089c.667.987 1.106 1.84 1.349 2.248.47-.799 1.623-3.165 3.998-5.381L12.733 27c-1.544 1.144-2.861 2.888-3.731 4z" fill="#fff"/><path d="M30.511 30.008c0 .554.344.918 1 1v2c-1.959-.02-3-.76-3-2.163v-7.837h2v7zM42 32.998V29c.288-.669.832-1 1.657-1H44v-2.002c-.883 0-1.526.367-2 .914V26h-2v6.998h2zM23.418 25.998c-1.905 0-3.418 1.553-3.418 3.5 0 1.954 1.458 3.5 3.28 3.5.921 0 1.28-.32 1.72-.824V33h2v-7h-2v.604c0-.201-.675-.606-1.582-.606zm.185 5.32c-.63 0-1.603-.566-1.603-1.82s.907-1.906 1.603-1.906.982.149 1.397.472v2.665c0 .314-.766.59-1.397.59zM47.417 25.998c-1.904 0-3.417 1.553-3.417 3.5 0 1.954 1.458 3.5 3.28 3.5.921 0 1.28-.32 1.72-.824V33h2v-7h-2v.604c0-.201-.675-.606-1.583-.606zm.186 5.32c-.63 0-1.603-.566-1.603-1.82s.907-1.906 1.603-1.906.982.149 1.397.472v2.665c0 .314-.766.59-1.397.59zM35.417 25.998c-1.904 0-3.417 1.553-3.417 3.5 0 1.954 1.458 3.5 3.28 3.5.921 0 1.28-.32 1.72-.824V33h2v-7h-2v.604c0-.201-.675-.606-1.583-.606zm.186 5.32c-.63 0-1.603-.566-1.603-1.82s.907-1.906 1.603-1.906.982.149 1.397.472v2.665c0 .314-.766.59-1.397.59z" fill="#fff"/><path d="M12 33h2.004l-1.687-3.676c-.493.479-.943.95-1.317 1.4L12 33zM18 25.998L16.5 31 15 25.998h-2l2.5 7h2l2.5-7h-2zM10 23.003H8L4 33.008 6 33l3-7 1 2c.392-.399.904-.908 1.354-1.278L10 23.003z" fill="#fff"/></svg>