<!-- by TradingView --><svg width="56" height="56" xmlns="http://www.w3.org/2000/svg"><path fill="#FD7F50" d="M0 0h56v56H0z"/><path d="M8 32l2.5-6h1l2.5 6H8zM21 32l2.5-6h1l2.5 6h-6z" fill="#fff"/><path d="M11.016 27.45l1.37 3.55h-2.74l1.37-3.55zM24.016 27.45l1.37 3.55h-2.74l1.37-3.55z" fill="#FD7F50"/><path d="M16.5 32.003L14 26h1l2 4.5 2-4.5h1l-2.5 6.003h-1zM29 32v-6h1l3 4v-4h1v6h-1l-3-4v4h-1z" fill="#fff"/><circle cx="39" cy="29" r="3" fill="#fff"/><ellipse cx="39.002" cy="29" rx="2.002" ry="2" fill="#FD7F50"/><path d="M45.9 26c.84-.019 1.596.358 1.869.548l-.604.794A2.372 2.372 0 0045.9 27c-.517 0-.919.292-.901.651.018.36.687.654 1.47.875.843.237 1.53.882 1.53 1.724 0 1.021-1.13 1.714-2.162 1.749-.982.033-1.928-.591-2.278-.907l.685-.69c.237.242.994.663 1.656.598.827-.082 1.072-.497 1.099-.75.13-1.24-3-1.015-3-2.599 0-1.014.895-1.627 1.9-1.65z" fill="#fff"/></svg>