<!-- by TradingView --><svg xmlns="http://www.w3.org/2000/svg" width="56" height="56"><path fill="#F0F3FA" d="M0 0h56v56H0z"/><path d="M16.34 34c-1.58 0-2.62-.75-2.62-2.6 0-2.75 3.12-8.46 6.03-10.47a5.29 5.29 0 00-2.58-.93h-.57C11.82 20 8 27.57 8 31.14 8 34.06 10.17 36 13.5 36c3.3 0 5.83-2.34 6.5-3.13a3.7 3.7 0 00-.05-.1c-.61.38-1.97 1.23-3.61 1.23z" fill="url(#ajbhp0mhc)"/><path d="M31.8 32.88l-4.1-9.57A5.28 5.28 0 0022.82 20H17.2a5.34 5.34 0 014.38 3.12l4.1 9.57a5.28 5.28 0 004.9 3.3h.17a5.15 5.15 0 002.55-1.17 5.3 5.3 0 01-1.5-1.94z" fill="url(#bjbhp0mhc)"/><path d="M43.76 20a5.28 5.28 0 00-4.9 3.3l-4.1 9.58A5.44 5.44 0 0130.7 36H36a5.28 5.28 0 004.89-3.3l4.1-9.58a5.2 5.2 0 014.01-3V20h-5.24z" fill="url(#cjbhp0mhc)"/><defs><linearGradient id="ajbhp0mhc" x1="19.14" y1="20.79" x2="11.68" y2="35.97" gradientUnits="userSpaceOnUse"><stop stop-color="#0064C8"/><stop offset=".9" stop-color="#2EC4FF"/></linearGradient><linearGradient id="bjbhp0mhc" x1="20.84" y1="17.1" x2="29.29" y2="36.87" gradientUnits="userSpaceOnUse"><stop stop-color="#07D364"/><stop offset="1" stop-color="#2EC4FF"/></linearGradient><linearGradient id="cjbhp0mhc" x1="36.02" y1="37.34" x2="43.26" y2="19.94" gradientUnits="userSpaceOnUse"><stop stop-color="#0064C8"/><stop offset=".8" stop-color="#2EC4FF"/></linearGradient></defs></svg>