<!-- by TradingView --><svg width="56" height="56" xmlns="http://www.w3.org/2000/svg"><path fill="#DA291C" d="M0 0h56v56H0z"/><path d="M4 33l4.82-10h1.418l4.82 10h-1.984l-3.545-7.47L7.494 30h3.495l.499 1H6.995l-1.01 2H4zM21.97 33l4.821-10h1.418l4.82 10h-1.984L27.5 25.53 25.465 30h3.494l.5 1h-4.493l-1.01 2H21.97zM39.941 33l4.82-10h1.418L51 33h-1.984l-3.544-7.47L43.435 30h3.495l.499 1h-4.493l-1.01 2h-1.985zM13.216 23l4.761 10h1.418l4.88-10H22.29l-3.545 7.784L15.2 23h-1.984zM31.762 23l4.28 10.056L34.199 37h1.985l6.637-14h-2.127l-3.66 7.926L33.89 23h-2.127z" fill="#fff"/></svg>