<!-- by TradingView --><svg width="56" height="56" xmlns="http://www.w3.org/2000/svg"><path fill="#361888" d="M0 0h56v56H0z"/><path d="M14.603 27.57l-.126-.57h-.336c-.787-1.826-2.649-3-4.86-3C6.364 24 4 26.239 4 29s2.364 5 5.28 5c2.146 0 3.992-1.26 4.819-3h.378v-1.995c.041-.517.577-.96 1.523-.96V27a2.016 2.016 0 00-1.397.57zM13.825 31c-.81 1.608-2.542 2.77-4.55 2.77-2.781 0-5.037-2.136-5.037-4.77 0-2.634 2.256-4.77 5.038-4.77 2.074 0 3.785 1.074 4.557 2.77h-.353v4h.345zm30.74-4c-.541 0-1.092.203-1.393.512h-.02L43 27h-.996v1.997c-.08-1.163-1.295-2.153-3.192-2.153-1.38 0-2.505.505-2.958 1.218L35.857 27c-.665.01-1.423.285-1.732.588L34.002 27H33l.015 4h.987v-1.978c.04-.506.896-.946 1.852-.96-.158.285-.297.697-.296 1.02 0 1.226 1.282 2.213 3.254 2.213 1.897 0 3.112-.896 3.192-2.059V31H43v-2.04c0-.465.414-.88 1.056-.88.817 0 .94.62.94.981V31h1.008v-2.303c0-1.344-.974-1.697-1.438-1.697zm-5.753 3.313c-1.088 0-1.812-.536-1.812-1.231 0-.695.724-1.25 1.812-1.25 1.086 0 1.76.555 1.76 1.25 0 .694-.673 1.23-1.76 1.23zM22.532 27c-.604-.002-1.39.355-1.717.711-.287-.38-.789-.711-1.538-.711-.542 0-.808.203-1.108.512h-.02L18.014 27H17v4h1v-2.04a.97.97 0 011.003-.963c.818 0 .997.704.997 1.065V31h1v-2.04a.966.966 0 011-.963c.817 0 1 .704 1 1.065V31h1v-2.21c.001-1.796-1.052-1.791-1.468-1.79z" fill="#F6F8FD"/><path d="M12.924 31.012L10 26H8l-3 5.012h1.459L7 30h4l.539 1.012h1.385zM8 29l.999-2.003L10 29H8zm23 .822V28h1v-.99h-1V26h-1v.993l-.817.002V28c-.313-1.06-1.517-1.007-2.48-1.007-1.625 0-2.229.553-2.229 1.387 0 1.655 3.429.654 3.429 1.344 0 .252-.347.543-.929.543-.861 0-.983-.226-.995-.485h-1.472c.05 1.04 1.305 1.243 2.49 1.243.813 0 2.282-.19 2.282-1.301 0-1.627-3.3-.782-3.3-1.495 0-.38.514-.534 1.018-.534s.81.08 1.004.305H30v2.242c0 .207.087.407.247.553.16.147.466.23.693.23l1.643.006v-1.028h-1.46c-.096 0-.123-.052-.123-.181zm19.566-2.825l-.101.362c-.398-.171-.82-.363-1.258-.362-1.487 0-2.848 1.075-2.848 2.277 0 1.202 1.349 2.056 2.835 2.056.544 0 1.383-.124 1.806-.327.015 1.373-2.166 1.732-2.586.997H47c.136.815 1.168 1 2.453 1C51.296 33 52 32.117 52 31.11v-4.113h-1.434zm-1.174 3.416c-.752 0-1.633-.393-1.633-1.139 0-.745.554-1.286 1.633-1.286.959 0 1.608.65 1.608 1.286s-.621 1.14-1.608 1.14z" fill="#F6F8FD"/></svg>