<!-- by TradingView --><svg width="56" height="56" xmlns="http://www.w3.org/2000/svg"><path fill="#06568B" d="M0 0h56v56H0z"/><path d="M28 12c1.682 0 3 1.354 3 3s-1.318 3-3 3-3-1.354-3-3 1.318-3 3-3zm-4.267 7.248c1.482 0 2.69 1.182 2.69 2.632 0 1.45-1.209 2.63-2.69 2.63-1.48 0-2.688-1.181-2.688-2.63 0-1.45 1.208-2.632 2.688-2.632zm-4.146 6.906c1.22 0 2.214.974 2.214 2.167 0 1.192-.994 2.166-2.214 2.166-1.219 0-2.213-.973-2.213-2.166 0-1.194.994-2.167 2.213-2.167zm-4.611 6.283c.892 0 1.62.713 1.62 1.586 0 .873-.727 1.585-1.62 1.585-.893 0-1.62-.712-1.62-1.585s.728-1.586 1.62-1.586zM11 38a.994.994 0 011 1c0 .558-.43 1-1 1-.57 0-1-.442-1-1 0-.56.446-.998 1-1zm8.518-.027c.274 0 .538.108.732.298.194.19.303.447.303.716 0 .557-.465 1.013-1.035 1.013-.57 0-1.036-.455-1.036-1.013 0-.269.11-.526.304-.716a1.05 1.05 0 01.732-.298zM28 38a.995.995 0 011 1 .995.995 0 01-1 1 .995.995 0 01-1-1 .994.994 0 011-1zm8.481-.027c.275 0 .539.108.733.297.194.19.303.448.304.717 0 .268-.11.526-.304.716a1.05 1.05 0 01-1.464 0 1.004 1.004 0 01-.304-.716c0-.269.11-.526.304-.716a1.05 1.05 0 01.731-.298zM45 38a.994.994 0 011 1c0 .558-.43 1-1 1-.57 0-1-.442-1-1a.995.995 0 011-1zm-21.474-5.563c.892 0 1.62.713 1.62 1.586 0 .873-.728 1.585-1.62 1.585-.892 0-1.62-.712-1.62-1.585s.728-1.586 1.62-1.586zm9.015 0c.893 0 1.62.713 1.62 1.586 0 .873-.727 1.585-1.62 1.585-.892 0-1.62-.712-1.62-1.585s.728-1.586 1.62-1.586zm8.3 0c.893 0 1.62.713 1.62 1.586 0 .873-.727 1.585-1.62 1.585-.892 0-1.62-.712-1.62-1.585s.728-1.586 1.62-1.586zm-4.832-6.283c1.219 0 2.213.974 2.213 2.167 0 1.192-.994 2.166-2.213 2.166-1.22 0-2.214-.973-2.214-2.166 0-1.194.995-2.167 2.214-2.167zm-3.72-6.906c1.48 0 2.688 1.182 2.688 2.632 0 1.45-1.208 2.63-2.688 2.63-1.481 0-2.69-1.181-2.69-2.63 0-1.45 1.209-2.632 2.69-2.632zM28 26.154c1.22 0 2.214.973 2.214 2.167 0 1.193-.994 2.166-2.214 2.166s-2.213-.973-2.213-2.166c0-1.194.994-2.167 2.213-2.167z" fill="#fff"/></svg>