<!-- by TradingView --><svg width="56" height="56" xmlns="http://www.w3.org/2000/svg"><path fill="#223759" d="M0 0h56v56H0z"/><path fill-rule="evenodd" d="M14.995 28.478a4.497 4.497 0 11-8.995 0 4.497 4.497 0 018.995 0zm.009 3.15a5.497 5.497 0 110-6.298V23.5a.5.5 0 011 0v10a.5.5 0 11-1 0v-1.873z" fill="#fff"/><path fill-rule="evenodd" d="M10.497 32.976a4.497 4.497 0 100-8.995 4.497 4.497 0 000 8.995zm0 1a5.497 5.497 0 100-10.995 5.497 5.497 0 000 10.995zM35.5 33a4.5 4.5 0 100-9 4.5 4.5 0 000 9zm0 1a5.5 5.5 0 100-11 5.5 5.5 0 000 11z" fill="#fff"/><path d="M18.152 23.141a.5.5 0 01.707.011l5.185 5.348-5.185 5.348a.5.5 0 11-.718-.696l4.51-4.652-4.51-4.652a.5.5 0 01.011-.707z" fill="#FAA749"/><path d="M28.85 23.141a.5.5 0 00-.708.011l-3.854 3.976.718.696 3.854-3.976a.5.5 0 00-.01-.707zm.01 10.011l-3.854-3.976-.718.696 3.854 3.976a.5.5 0 10.718-.696zM45.893 23.056c1.423-.137 2.591.507 3.244 1.422a.5.5 0 01-.814.581c-.455-.637-1.282-1.109-2.334-1.007-.548.053-1.04.23-1.391.524-.339.282-.574.691-.597 1.287-.02.564.212 1.021.636 1.387.436.377 1.075.652 1.82.79.98.183 1.771.47 2.335.925.587.475.89 1.104.937 1.866.042.686-.13 1.463-.652 2.088-.532.636-1.376 1.056-2.559 1.111-1.888.088-3.05-.825-3.432-1.397a.5.5 0 01.832-.555c.185.278 1.013 1.025 2.554.953.96-.044 1.52-.372 1.837-.753.327-.39.452-.898.422-1.385-.032-.505-.215-.865-.568-1.15-.376-.304-.978-.55-1.889-.719-.862-.16-1.683-.492-2.29-1.017-.62-.535-1.016-1.272-.982-2.182.033-.877.398-1.553.956-2.018.544-.454 1.244-.684 1.935-.75z" fill="#fff"/></svg>