<!-- by TradingView --><svg xmlns="http://www.w3.org/2000/svg" width="56" height="56"><path fill="#F0F3FA" d="M0 0h56v56H0z"/><path fill-rule="evenodd" d="M47.7 26.22c0-.14.1-.22.26-.22H52v-2h-5.21c-.77 0-1.37.64-1.37 1.4v1.58c0 .78.63 1.4 1.37 1.4h2.7c.14 0 .27.07.27.24v.17c0 .14-.1.21-.27.21h-4.04v2h5.19c.76 0 1.36-.64 1.36-1.4v-1.58c0-.78-.63-1.4-1.36-1.4h-2.68c-.14 0-.26-.07-.26-.24v-.16zM9.1 24l2.9 7H9.78l-.44-1H6.6l-.4 1H4l2.9-7h2.2zm-1.11 2.62l-.7 1.76h1.43l-.73-1.76zm9.2 4.38H12v-7h5.18c.74 0 1.37.61 1.37 1.4v.8c0 .45-.22.84-.55 1.1.33.24.55.63.55 1.08v1.2c0 .8-.63 1.42-1.37 1.42zm-3.2-4.24V26h2.16c.18 0 .3.14.3.28v.17a.3.3 0 01-.3.3H14zm.01 1.49V29h2.22c.14 0 .28-.14.28-.3v-.17a.28.28 0 00-.28-.28H14zm7 .2V31h-2v-7h5.18c.77 0 1.37.64 1.37 1.4v.8c0 .45-.22.84-.55 1.1.33.24.55.63.55 1.08V31H23.5v-2.27a.28.28 0 00-.28-.28H21zM21 26v.76h2.23c.14 0 .28-.14.28-.31v-.17a.28.28 0 00-.28-.28H21zm14.55 4.51L38.44 34H52v-.5H38.66l-3.11-3.8-3.12 3.8H4v.5h28.65l2.9-3.49zM4 33h28.19l3.36-4.12L38.9 33H52v-1.69l-11.9.03-.54-.66.3-.68h2.75l.44 1h2.21l-2.92-7h-2.21l-2.02 4.88-1.28-1.53L39.58 24h-2.56l-1.45 1.77-1.5-1.77h-2.56l2.75 3.35-1.28 1.53L30.96 24h-2.2l-2.93 7h2.21l.44-1h2.75l.3.68-.54.66L4 31.31V33zm25.81-6.37l-.7 1.72h1.45l-.75-1.72zM42 28.38l-.72-1.75-.74 1.75H42z" fill="#004A8B"/></svg>