<!-- by TradingView --><svg width="56" height="56" xmlns="http://www.w3.org/2000/svg"><path fill="#D54A35" d="M0 0h56v56H0z"/><path d="M41.536 25.413c-1.245-6.393-6.842-11.216-13.56-11.216-7.632 0-13.82 6.225-13.82 13.905s6.188 13.904 13.82 13.904c4.211 0 7.982-1.896 10.517-4.885l2.262.066c-2.866 4.076-7.588 6.739-12.929 6.739C19.086 43.926 12 36.796 12 28c0-8.794 7.085-15.924 15.826-15.924 7.863 0 14.386 5.77 15.617 13.33l-1.907.006z" fill="#FEFEFE"/><path d="M21.833 23H20l1.547-2.776h.032L21.833 23zm-2.676 4.07l.292-1.07c-.68 0-.935-.005-.935-.303 0-.241.986-1.697.986-1.697h2.425l.223 2h-1.12l-.27 1h4.555l.233-1h-.635l-1.23-9h-1.57l-4.702 7.79c-.387.583-.681 1.067-1.454 1.21l-.449 1.07h3.65z" fill="#FEFEFE"/><path d="M28.574 26H26.53l1.9-2.784h.031L28.574 26zm-2.79 4l.291-1c-.68 0-.934.03-.934-.267 0-.242.934-1.733.934-1.733h2.767L29 29h-1l-.314 1h4.934l.336-1h-1.084l-1.346-9H29.12l-5.085 7.758c-.386.582-.85 1.1-1.623 1.242l-.28 1h3.652z" fill="#FEFEFE"/><path d="M31.012 26.037l5.46-.037.711 5h.224l3.74-5H45l-.15 1h-1.235s-2.056 7.849-1.832 7.961c.097.05.311.04.524.039h.56l-.187 1h-5.31l.224-1s.935.039 1.234-.113c.3-.152 1.085-4.72 1.085-4.72L35.985 36h-.934l-1.01-6.137-.86 3.66c-.109.314-.225.82-.225 1.061 0 .289.225.43.461.43L33.93 35l-.15 1h-4.038l.224-1c1.233 0 1.372-.323 1.574-.893L33.106 27H31.14l-.128-.963z" fill="#FEFEFE"/></svg>