<!-- by TradingView --><svg width="56" height="56" xmlns="http://www.w3.org/2000/svg"><path fill="#00ADEE" d="M0 0h56v56H0z"/><path d="M41.338 16c-.53 0-1.096.029-1.682.086-3.528.343-7.613 1.553-11.843 3.506l.598.192c2.785-1.111 5.46-1.798 7.954-2.04a17.74 17.74 0 011.701-.087c3.492 0 5.542 1.258 5.773 3.543.1.983-.157 2.084-.764 3.272l1.539.492c1.707-2.174 2.526-4.145 2.368-5.706C46.769 17.157 44.765 16 41.338 16zM22.119 37.807a25.296 25.296 0 01-2.708.42c-.51.049-1.023.074-1.528.074h-.058a14 14 0 01-.847-.028c-3.147-.203-4.997-1.45-5.21-3.515-.116-1.136.26-2.433 1.118-3.858l-1.098-.345c-1.983 2.355-2.94 4.49-2.765 6.18C9.24 38.842 11.287 40 14.787 40c.662-.002 1.323-.04 1.98-.113l.105-.011c.283-.031.565-.067.847-.106a31.04 31.04 0 002.805-.54 37.344 37.344 0 002.105-.569 46.757 46.757 0 005.023-1.845 52.762 52.762 0 001.66-.75l-.892-.28c-.094.04-.188.08-.282.118-2.065.857-4.09 1.497-6.02 1.903z" fill="#F6F8FD"/><path d="M23.996 33l2.262-4.316L28.005 33h1.993l-2.728-6.207L29.998 22H29l-2.165 3.683L25 22h-2l2.755 5.527L23 33h.996z" fill="#221F1F"/><path d="M41 30c-.01-.402-.089-.9-.248-1.285l-.014-.035a.19.19 0 00-.017-.032c-.26-.581-.644-1.056-.924-1.395l-.987-1.195c-.463-.556-.938-1.202-.978-2.065-.072-1.563 1.55-2.516 2.168-2.81V21c-1.146.385-4.119 1.489-4 4.067.037.797.56 1.628 1.062 2.245l.896 1.092c.253.308.58.632.795 1.21.037.103.07.207.097.311.119.434.17.794.15 1.074-.13 1.832-2.9 3.328-5 3.876V35c1.276-.167 6.128-1.135 6.9-4.176l.004-.002c.011-.047.018-.092.027-.139a2.603 2.603 0 00.062-.401l.005-.044c.008-.11.004-.123.002-.238z" fill="#231F20"/><path d="M34.007 22H32l.004 11h2.003V22zM17 29l1-4 1.133 4H17zm1.997-7H18l-.512 1.815L15 33h1l.832-2.997h2.406l.76 2.997H22l-2.305-8.471s-.461-1.698-.698-2.529z" fill="#221F1F"/></svg>