<!-- by TradingView --><svg xmlns="http://www.w3.org/2000/svg" width="56" height="56"><path fill="#F0F3FA" d="M0 0h56v56H0z"/><path d="M28 46a18 18 0 10-3.9-35.57l.48-.1c1.56.38 5.62 1.83 8.36 4.82a13.9 13.9 0 01-.12 26.2c-.9 1.13-3.6 3.37-7.36 4.47.83.12 1.68.18 2.54.18zm3.05-31.38a19.23 19.23 0 00-7.48-4.07 18 18 0 00.34 34.98 23.75 23.75 0 007.06-3.67 13.89 13.89 0 11.08-27.24z" fill="url(#apqlafkhj)"/><path fill-rule="evenodd" d="M24.15 10.73l-.58-.18a18 18 0 00.34 34.98 23.52 23.52 0 007.06-3.67 13.88 13.88 0 01-2.7.26 13.89 13.89 0 112.78-27.5c-.2-.18-.44-.4-.73-.63a19.95 19.95 0 00-6.16-3.26h-.01zm-.06-.3l.5-.1c.28.07.66.18 1.1.32 1.9.65 5.02 2.06 7.25 4.5a13.9 13.9 0 01-.12 26.2c-.8 1.02-3.06 2.92-6.23 4.1-.36.13-.74.26-1.13.37A18.03 18.03 0 0046 28a18 18 0 00-21.41-17.68l-.05.01-.45.1zm2.73.1c1.92.77 4.47 2.11 6.4 4.2a14.4 14.4 0 01-.1 27.05c-.83.98-2.72 2.56-5.34 3.72H28a17.5 17.5 0 10-1.18-34.96zm2.53 3.36a20.2 20.2 0 00-5.79-2.82 17.5 17.5 0 00.34 33.95c1.06-.33 3.03-1.11 5.11-2.42-.25.02-.5.02-.75.02a14.39 14.39 0 111.1-28.73z" fill="url(#bpqlafkhj)"/><path d="M25.46 45.82c7.27-2.07 12.63-9.17 12.63-17.6 0-8.84-5.87-16.2-13.66-17.87a18 18 0 111.03 35.47z" fill="url(#cpqlafkhj)"/><path fill-rule="evenodd" d="M25.46 45.82A18.04 18.04 0 0046 28a18 18 0 00-21.57-17.65l1.2.3c7.18 2.14 12.46 9.2 12.46 17.57 0 7.98-4.8 14.77-11.47 17.23-.38.14-.77.26-1.16.37zm2.35-.32H28a17.5 17.5 0 10-1.16-34.96c6.86 2.55 11.75 9.52 11.75 17.68 0 7.77-4.44 14.45-10.78 17.28z" fill="url(#dpqlafkhj)"/><path d="M32 28a4 4 0 11-8 0 4 4 0 018 0z" fill="url(#epqlafkhj)"/><path fill-rule="evenodd" d="M28 31.5a3.5 3.5 0 100-7 3.5 3.5 0 000 7zm0 .5a4 4 0 100-8 4 4 0 000 8z" fill="url(#fpqlafkhj)"/><defs><linearGradient id="apqlafkhj" x1="23.46" y1="10.72" x2="23.22" y2="45.13" gradientUnits="userSpaceOnUse"><stop stop-color="#EDBA4F"/><stop offset=".33" stop-color="#FAF39B"/><stop offset=".7" stop-color="#A26628"/><stop offset="1" stop-color="#DBA737"/></linearGradient><linearGradient id="bpqlafkhj" x1="23.57" y1="10.6" x2="23.22" y2="45.36" gradientUnits="userSpaceOnUse"><stop stop-color="#FFF8D7"/><stop offset=".16" stop-color="#977642"/><stop offset=".58" stop-color="#FFFCC9"/><stop offset="1" stop-color="#E6BD50"/></linearGradient><linearGradient id="cpqlafkhj" x1="35.22" y1="10" x2="35.22" y2="46" gradientUnits="userSpaceOnUse"><stop stop-color="#BEC2C5"/><stop offset=".34" stop-color="#F1F2F4"/><stop offset=".74" stop-color="#4B5053"/><stop offset="1" stop-color="#AFB3B6"/></linearGradient><linearGradient id="dpqlafkhj" x1="35.22" y1="10" x2="35.22" y2="46" gradientUnits="userSpaceOnUse"><stop stop-color="#BFBFBF"/><stop offset=".25" stop-color="#535456"/><stop offset=".75" stop-color="#FBFCFC"/><stop offset="1" stop-color="#C7C8C8"/></linearGradient><linearGradient id="epqlafkhj" x1="26.2" y1="24.71" x2="29.59" y2="32" gradientUnits="userSpaceOnUse"><stop offset="0" stop-color="#EEEFF1"/><stop offset=".31" stop-color="#BBBEC3"/><stop offset=".91" stop-color="#74777C"/></linearGradient><linearGradient id="fpqlafkhj" x1="25.97" y1="24.71" x2="30.05" y2="31.38" gradientUnits="userSpaceOnUse"><stop stop-color="#CECFD1"/><stop offset=".31" stop-color="#F5F5F5"/><stop offset=".71" stop-color="#5B5F60"/><stop offset="1" stop-color="#A5A5A5"/></linearGradient></defs></svg>