<!-- by TradingView --><svg width="56" height="56" xmlns="http://www.w3.org/2000/svg"><path fill="#68737A" d="M0 0h56v56H0z"/><path d="M23.922 31.004h-1.324L23.54 26h1.325l-.944 5.004zm7.27 0L32.492 24h1.574c.993 0 1.435.422 1.435 1.282 0 .765-.475 1.782-1.248 1.877.718 0 1.132.542 1.132 1.243 0 1.435-1.045 2.602-2.232 2.602h-1.96zm3.557-2.57c0-.542-.276-.956-1.077-.956h-1.241l-.52 2.92h1.158c1.049 0 1.68-1.007 1.68-1.964zm.143-3.056c0-.446-.275-.765-.8-.765H32.96l-.42 2.26h1.104c.718 0 1.248-.826 1.248-1.495zm-14.094 4.925l-.142.7h1.27L22.847 26h-1.325l-.614 3.347c-.249.159-.47.318-.8.318-.222 0-.387-.127-.387-.51 0-.095 0-.382.027-.542.055-.255.505-2.613.505-2.613h-1.325l-.56 2.996c-.027.191-.11.51-.11.733 0 .829.414 1.275 1.132 1.275.551 0 1.131-.383 1.407-.701zM30.348 26l-1.12 2.88-.344-2.88H26.98l.348-2.004h-1.325L25.655 26h-.47l-.18.872h.47l-.41 2.38c-.056.254-.084.382-.084.636 0 .797.47 1.116 1.243 1.116.276 0 .717-.064.938-.128.028-.254.166-.988.22-1.21a1.168 1.168 0 01-.579.19c-.276 0-.414-.095-.414-.382 0-.191.028-.382.083-.574l.328-2.028h.91l.58 3.793-.552 1.339h1.38L31.728 26h-1.38zM23.9 23.996l-.276 1.283h1.325l.276-1.283h-1.325zM17.427 26c-1.905 0-2.8 1.319-2.8 2.657 0 1.34.801 2.346 1.905 2.346.47 0 .994-.19 1.132-.287.055-.19.193-1.051.248-1.338-.276.191-.662.382-.993.382-.58 0-.94-.624-.94-1.262 0-.925.537-1.277 1.392-1.277.359 0 .773.224.911.383.055-.319.194-1.02.249-1.339-.194-.096-.663-.265-1.104-.265zm26.794 1.854l-.58 3.15h.58l.635-3.373c.055-.191.055-.478.055-.605 0-.574-.331-1.148-.966-1.148-.552 0-1.049.383-1.463.701l.11-.579h-.58l-.966 5.004h.608l.717-3.82c.36-.254.857-.637 1.353-.637.386 0 .58.32.58.702 0 .159-.028.382-.083.605zm-3.865.71l-.155 1.197c-.524.414-.883.637-1.297.637-.387 0-.69-.191-.69-.67 0-1.147 1.066-1.133 2.142-1.165zm-.265 1.77l-.125.67h.579l.608-3.526.058-.287c.145-.8-.525-1.179-1.38-1.179-.387 0-1.05.16-1.243.223-.027.16-.11.542-.138.701.304-.159.884-.35 1.298-.35.413 0 .894.184.842.674l-.123.73c-.359.031-.773.063-1.298.159-.938.16-1.59.592-1.59 1.612 0 .796.441 1.243 1.159 1.243.331 0 .966-.255 1.353-.67zm-1.888-4.386c-.663 0-1.076.478-1.408.733l.139-.669h-.58l-.97 4.992h.607l.694-3.685c.359-.255.635-.606 1.38-.606.028-.191.083-.542.138-.765zm10.512-1.944l-.41 2.346c-.304-.19-.607-.35-1.05-.35-1.352 0-2.156 1.765-2.156 3.232 0 .924.332 1.768 1.16 1.768.58 0 1.104-.494 1.297-.685l-.088.685h.58l1.247-6.996h-.58zm-1.021 5.737c-.359.255-.773.574-1.215.574-.579 0-.773-.574-.773-1.116 0-1.084.473-2.562 1.577-2.562.332 0 .746.191.883.319l-.472 2.785zm1.406-2.116c0-.86.718-1.625 1.767-1.625.414 0 .855.16 1.131.319-.036.236-.082.47-.138.701-.303-.255-.717-.446-1.131-.446-.608 0-.994.414-.994.893 0 1.083 1.987.19 1.987 1.848 0 1.02-.8 1.685-1.739 1.685-.497 0-1.048-.186-1.38-.441.027-.16.11-.478.165-.765.332.35.773.573 1.298.573.607 0 1.048-.35 1.048-.924 0-1.148-2.014-.192-2.014-1.818zm-37.73 1.256a8.853 8.853 0 01-1.38-.255L9 31.003h1.533l.837-2.122zm1.463-.638c.358.064.993.16 1.408.16L13.756 24h-1.573l-1.834 3.924c.414.128.883.223 1.325.32l.994-2.168.165 2.167zM14.24 28.434c-.33.149-.993.26-1.38.335l.14 2.229h1.461l-.22-2.564z" fill="#fff"/><path d="M11.066 24.736a5.886 5.886 0 00-.773-.064c-1.159 0-3.008.287-3.008 1.148 0 1.466 3.974 2.613 6.348 2.613.11 0 .47-.032.607-.032-1.545-.159-5.078-1.274-5.078-2.581 0-.702 1.021-.988 1.904-1.084z" fill="#fff"/><path d="M7.726 24.736a5.89 5.89 0 00-.773-.064c-1.27 0-2.953.415-2.953 1.37 0 1.754 3.782 2.901 6.514 2.901.11 0 .718-.03.856-.062-1.822-.16-5.548-1.276-5.548-2.902 0-.829.883-1.147 1.904-1.243z" fill="#fff"/></svg>