<!-- by TradingView --><svg width="56" height="56" xmlns="http://www.w3.org/2000/svg"><path fill="#0090C8" d="M0 0h56v56H0z"/><path d="M11.622 31s-1.011-.012-1.199 0c-.355.016-.4-.47-.423-.85v-5.199c-.011-.12-.05-.24-.147-.312l-.036-.022c-.011-.008-.023-.018-.038-.027-.297-.166-.85-.307-1.27-.407l-.031-.009A7.181 7.181 0 006.886 24c-.732 0-1.382.149-2.097.33l.211.941c.574-.095 1.173-.259 1.755-.267.812-.012 1.464.177 2.248.386v2.02l-2.036.052c-2.038.06-2.981.83-2.967 2.381-.003.705.229 1.269.67 1.634.412.342 1.013.523 1.736.523h.003c.963 0 1.976-.26 2.759-.832 0 .404.211.832.44.832H11.622v-1zM9 30.316c-.507.334-1.695.684-2.316.684-.911-.019-1.666-.373-1.684-1.206.02-.96.862-1.41 2-1.48l2 .03v1.972zM33 32v-8h1s0 .235-.002.346v.337l.072-.11c.33-.34 1.43-.573 2.247-.573h.682v1.005h-.89c-.542 0-2.11.183-2.11 1.147V32H33zM28.02 24C26.114 24 25 25.271 25 28.121c0 2.613.973 3.879 3.41 3.879.605 0 1.727-.156 2.28-.463l-.258-.782c-.68.13-1.326.245-2.022.245-1.732 0-2.41-1.388-2.41-2.997h5v-.31-.815C30.999 24.901 30.002 24 28.02 24zM30 27h-4c.047-1.624 1.115-2 2-2s2 .241 2 2c0 .1.016-.118 0 0zM38 34.996v-.989h.995c1.445-.016 2.186-1.614 2.186-2.49L38 24h1L41.693 30 44 24h1l-3.033 8.492c-.622 1.738-1.705 2.503-3.967 2.503zM51 31.997L49 29l-2 2.997h-.999l2.417-4L46 24h1l2 3 2.003-3H52l-2.37 3.998 2.37 4h-1zM15.257 32c-.381 0-.748-.06-1.066-.173a1.633 1.633 0 01-.686-.417c-.459-.49-.5-1.101-.505-1.91V21h1v8.5c.003.428.083.965.265 1.189.181.223.368.311.583.311H17v1h-.296-1.447zM23 31.005h-1.995c-.34 0-.595-.098-.758-.284-.154-.177-.239-.73-.247-1.267v-4.453L22 25v-1h-2v-3h-1v3h-1v1h1v4.367c.004.849-.032 1.493.417 2.013.344.392 1.13.617 1.877.62H23v-.995z" fill="#F6F8FD"/></svg>