<!-- by TradingView --><svg width="56" height="56" xmlns="http://www.w3.org/2000/svg"><path fill="#027D78" d="M0 0h56v56H0z"/><path d="M12.103 14.317V14h3.306a4.3 4.3 0 011.381.212c.419.135.778.329 1.078.582a2.5 2.5 0 01.71.907c.175.353.262.747.262 1.182v1.014c0 .253-.052.49-.156.714a2.185 2.185 0 01-.387.6 2.18 2.18 0 01-.524.44c-.195.112-.39.18-.585.203.167.03.359.094.575.194.216.094.422.238.617.432.202.188.37.432.502.732.14.3.21.667.21 1.102v1.075c0 .424-.091.809-.272 1.155-.175.347-.415.45-.722.698-.307.24-.663.429-1.067.564a4.15 4.15 0 01-1.277.194h-3.651V14.317zm1.993 6.295v4.073h1.45c.271 0 .505-.044.7-.132a1.41 1.41 0 00.481-.344 1.393 1.393 0 00.387-.952V22.2c0-.288-.049-.532-.146-.732a1.345 1.345 0 00-.387-.484 1.442 1.442 0 00-.534-.283 2.057 2.057 0 00-.596-.088h-1.355zm0-5.087v3.712h1.167c.14 0 .303-.018.491-.053.196-.035.38-.1.555-.194.181-.094.334-.22.46-.38.126-.164.188-.375.188-.634v-1.005c0-.494-.153-.858-.46-1.093-.307-.235-.7-.353-1.182-.353h-1.22zm29.668.481c.21 0 .216-.006.216-.006l.004.236v.784a.476.476 0 01-.01.088c0 .03-.011.065-.032.106l-.01.009-3.568 7.136-.23.273h3.846v1.402h-.143L38.003 26c.063 0-.07 0 0 0 0 .065 0-.06 0 0v-1c0 .101-.005.098 0 0-.02.041.021-.047 0 0l3.69-7.354.178-.22h-3.867V16l.404.006h5.356zM20.073 42H18.08l-.996-3.408h-1.992L14.096 42h-1.993l2.989-12h1.992l2.989 12zm-4.981-5h1.992l-.79-3.746-.096-.377-.11-.377-.18.754L15.093 37zm6.973-6.91V30h1.992v12h-1.992V30.089zm3.985 0V30h1.992v10.5c0 .035 0 .185 0 0V42h-1.993V30.089zm13.946 11.604V42h-1.993V32h2.024v1c0-.504.462-.685.735-.822.23-.113.545-.178.865-.178.348 0 .664.06.95.178.29.12.539.287.744.502.212.215.374.615.488.915.114.3.172.632.172.995V42h-1.985v-7.402a1.24 1.24 0 00-.086-.408 1.01 1.01 0 00-.205-.357.851.851 0 00-.334-.238 1.066 1.066 0 00-.462-.093c-.143 0-.541.03-.672.093-.166.08-.241.238-.241.238v7.861zm-10.062-6.853c0-.39.082-.755.244-1.098a2.84 2.84 0 01.66-.907c.284-.262.615-.467.994-.614A3.29 3.29 0 0133.039 32c.433 0 .832.074 1.197.222.365.147.68.352.943.614.264.256.467.558.609.907.149.343.223.709.223 1.098v1.86c0 .093-.02.198-.02.312H31.76v2.146a1.278 1.278 0 00.375.886c.122.114.26.209.416.282.162.068.338.101.527.101.19 0 .362-.033.518-.1.155-.075.287-.172.395-.293a1.364 1.364 0 00.345-.896v-.605h1.655v.625c0 .396-.075.765-.223 1.108a2.83 2.83 0 01-.599.907 2.793 2.793 0 01-.933.604 3.162 3.162 0 01-1.197.222 3.29 3.29 0 01-2.202-.826 3.012 3.012 0 01-.659-.907 2.556 2.556 0 01-.244-1.108V34.84zm1.827.892h2.576v-.882a1.307 1.307 0 00-.355-.896 1.185 1.185 0 00-.395-.272 1.26 1.26 0 00-1.035 0 1.436 1.436 0 00-.416.272 1.262 1.262 0 00-.274.413 1.194 1.194 0 00-.101.483v.882zM21.069 18.841c0-.396.08-.765.243-1.108a2.83 2.83 0 01.66-.907 3.253 3.253 0 012.19-.826c.434 0 .84.07 1.218.212.386.14.72.339 1.005.594a2.676 2.676 0 01.912 2.035v4.318c0 .416-.08.799-.243 1.148a2.816 2.816 0 01-.67.897 3.18 3.18 0 01-.994.584 3.459 3.459 0 01-1.217.212 3.43 3.43 0 01-1.207-.212 3.178 3.178 0 01-.994-.584 2.888 2.888 0 01-.66-.897 2.692 2.692 0 01-.243-1.148V18.84zm1.816 4.277c0 .168.03.33.09.484.069.154.16.292.275.413.122.114.26.208.416.282.162.067.334.101.517.101.19 0 .362-.034.518-.1.155-.075.29-.169.405-.283a1.27 1.27 0 00.264-.413c.068-.154.101-.316.101-.484v-4.226c0-.168-.033-.33-.101-.484a1.142 1.142 0 00-.264-.413 1.198 1.198 0 00-.416-.282 1.167 1.167 0 00-.507-.111c-.19 0-.365.037-.527.11a1.232 1.232 0 00-.406.283 1.29 1.29 0 00-.274.403 1.304 1.304 0 00-.091.484v4.236zm6.065-4.277c0-.396.082-.765.244-1.108a2.83 2.83 0 01.66-.907 3.253 3.253 0 012.19-.826c.434 0 .84.07 1.218.212.386.14.72.339 1.004.594a2.676 2.676 0 01.913 2.035v4.318c0 .416-.08.799-.243 1.148a2.816 2.816 0 01-.67.897 3.18 3.18 0 01-.994.584 3.459 3.459 0 01-1.217.212 3.43 3.43 0 01-1.207-.212 3.178 3.178 0 01-.995-.584 2.888 2.888 0 01-.659-.897 2.692 2.692 0 01-.243-1.148V18.84zm1.816 4.277c0 .168.03.33.092.484.067.154.159.292.274.413.121.114.26.208.415.282.163.067.335.101.518.101.19 0 .362-.034.517-.1.156-.075.291-.169.406-.283a1.27 1.27 0 00.264-.413c.067-.154.101-.316.101-.484v-4.226c0-.168-.034-.33-.101-.484a1.142 1.142 0 00-.264-.413 1.198 1.198 0 00-.416-.282 1.167 1.167 0 00-.507-.111 1.274 1.274 0 00-.933.393 1.29 1.29 0 00-.274.403 1.305 1.305 0 00-.092.484v4.236z" fill="#fff"/></svg>