<!-- by TradingView --><svg width="56" height="56" xmlns="http://www.w3.org/2000/svg"><path fill="url(#paint0_linear)" d="M0 0h56v56H0z"/><path d="M17.004 8c-.913 0-1.35 1.158-.679 1.797L35.411 28l1.01-.962C43.522 20.263 38.887 8 29.224 8h-12.22z" fill="url(#paint2_linear)"/><path d="M27.192 35.838L16.329 46.197c-.672.642-.233 1.803.682 1.803h12.446c9.58 0 14.176-12.16 7.134-18.875L35.411 28l-7.302-6.962c3.322 4.402 3.457 10.607-.918 14.8z" fill="url(#paint3_linear)"/><defs><linearGradient id="paint0_linear" x1="10.418" y1="9.712" x2="68.147" y2="76.017" gradientUnits="userSpaceOnUse"><stop stop-color="#1A1E21"/><stop offset="1" stop-color="#06060A"/></linearGradient><linearGradient id="paint2_linear" x1="16" y1="18" x2="39.859" y2="18" gradientUnits="userSpaceOnUse"><stop stop-color="#F25C19"/><stop offset=".599" stop-color="#FBC707"/></linearGradient><linearGradient id="paint3_linear" x1="36.525" y1="25.847" x2="22.535" y2="50.325" gradientUnits="userSpaceOnUse"><stop stop-color="#1C63B7"/><stop offset=".515" stop-color="#33BDF2"/></linearGradient></defs></svg>