<!-- by TradingView --><svg xmlns="http://www.w3.org/2000/svg" width="56" height="56"><path fill="#0E4073" d="M0 0h56v56H0z"/><path fill-rule="evenodd" d="M20.33 30.3c1.76-5.96 6.56-6.26 7.34-4.9 1.36-1.06 1.81.16 1.52.7a6.59 6.59 0 00-.82 2.76c.04.93.8.4 1.17 0l3.01-3.98c1.85-1.8 2.67-.62 2.86.2.5-.7 1.76-2.08 2.87-2.08 1.12 0 1.37 2.16 1.4 3.24a44.1 44.1 0 013-3.01c.57-.43 1.62-.23 1.62.8 0 1.04.44 2.66.72 2.69.3.02 1.2-.85 1.44-1.17.24-.32 1.3-.58.98.32-.3.9-1.94 2.94-3.14 3-.95.04-1.42-2.3-1.63-3.47-.4.2-1.02 1.15-1.63 2.11-.72 1.12-1.44 2.24-1.84 2.19-1.16-.15-1.16-2.74-1.16-3.95v-.13c0-.9-.46-.53-.7-.22l-.45.49c-.71.76-1.62 1.73-2.71 3.15-.9 1.17-1.63 1.69-2.03 1.47-.4-.23.22-2.04 1.1-3.23.72-.95.8-1.5.74-1.66-.1-.25-.53-.35-1.44 1.32-1.13 2.08-3.36 4.33-4.42 4.33-.84 0-1.24-1.25-1.34-1.88-1.16 1.43-3.82 4.25-5.2 4.09-1.37-.16-1.44-2.5-1.26-3.17zm1.5.05c.75-2.57 3.47-4.13 4.25-4.13 1.1 0 .81 1.11.44 1.54-1.05 1.24-3.35 3.72-4.12 3.8-.77.08-.7-.77-.57-1.2zM6.07 26.73c-.15-.23-.08-.76.41-.98a23.33 23.33 0 019.89-2.57c4.46-.11 3.36 2.5 2.08 3.65a29.53 29.53 0 01-6.85 4.5c-.07.1.12.32 1.5.41l.6.03c2.03.1 5.96.31 6.03 1.72.08 1.55-5.81 3.78-7.6 4.32-.34.15-1.14.56-1.57.96-.43.41-1.11.17-1.4 0-.53.13-1.6.25-1.71-.3-.1-.53.69-.84 1.1-.93v-4.46c-.43-.03-1.3-.23-1.43-.72-.12-.5.9-.89 1.43-1.02v-5.16l-1.43.65c-.27.11-.87.18-1.05-.1zm5.1 1.17c0-1.12.43-3.06 3.34-2.93 2.9.13 2.33 1.36 1.67 1.95l-4.02 2.64c-.33.16-1 .26-1-.52V27.9zm1.4 5.03c-1.44 0-1.7.8-1.65 1.33 0 2.07.28 2.36.77 2.19 3.7-1.29 4.94-2.34 5.1-2.7 0-.4-2.75-.82-4.21-.82z" fill="#fff"/><path d="M48 19.5a1.5 1.5 0 11-3 0 1.5 1.5 0 013 0zm1 2.5a1 1 0 11-2 0 1 1 0 012 0zm-1.46 2.71a.68.68 0 100-1.37.68.68 0 000 1.37z" fill="#FFDC05"/></svg>