<!-- by TradingView --><svg width="56" height="56" xmlns="http://www.w3.org/2000/svg"><path fill="url(#paint0_linear)" d="M0 0h56v56H0z"/><path d="M40.36 28h-4.357L37 22h4.456c2.633 0 3.56 1.419 3.56 2.552 0 1.602-1.042 3.448-4.657 3.448zm2.622 5.487c0 1.603-.93 3.513-4.344 3.513H34l1-6h4.516c2.656 0 3.466 1.359 3.466 2.487zM29.596 23H25l1-6h4.67c2.309 0 3.33 1.431 3.33 2.564C34 21.167 33.043 23 29.596 23zm2.364 5.434c0 1.183-.997 3.566-3.968 3.566h-5.077l1-6h5.155c2.01 0 2.89 1.658 2.89 2.434zM30 37.462c0 1.607-1.056 3.538-3.714 3.538H21l1-6h5.356c1.714 0 2.643 1.33 2.643 2.462zM17.225 23H13l1-6h4.302C20.985 17 22 18.431 22 19.564 22 21.167 20.84 23 17.225 23zM20 28.434C20 30.036 18.965 32 15.63 32H11l1-6h4.699C18.997 26 20 27.3 20 28.434z" fill="#F6F8FD"/><defs><linearGradient id="paint0_linear" x1="10.418" y1="9.712" x2="68.147" y2="76.017" gradientUnits="userSpaceOnUse"><stop stop-color="#1A1E21"/><stop offset="1" stop-color="#06060A"/></linearGradient></defs></svg>