<!-- by TradingView --><svg width="56" height="56" xmlns="http://www.w3.org/2000/svg"><path fill="#194F8B" d="M0 0h56v56H0z"/><path d="M40.267 29h5.899c8.745 0 9.452 6 0 6h-5.9v-6zM26.27 35c2.503 0 4.554-1.345 4.554-2.987 0-1.648-2.05-3.013-4.554-3.013-2.514 0-4.56 1.365-4.56 3.013 0 1.642 2.047 2.987 4.56 2.987zM8.038 35H5v-6h2.789s2.3.098 2.3 1.631c0 0 .094 1.053-.815 1.36 0 0 1.132.303 1.132 1.377S9.352 35 8.038 35zm44.463-10.047l.328.188s-.42.598-1.077 1.24L53 28h-.566l-1.009-1.316c-.112.099-.23.197-.351.292-1.028.798-1.852 1.024-2.595 1.024-.747 0-2.074-.393-2.074-1.785s.93-2.049 1.834-2.654c.219-.148.416-.275.594-.388 0 0-.833-.82-.833-1.665 0-.85.724-1.508 1.545-1.508.825 0 1.455.747 1.455 1.534 0 .744-.731 1.199-1.548 1.78.399.527 1.252 1.666 2.022 2.695.357-.337.7-.69 1.028-1.056zM27.986 28l3.318-8 3.334 8h-.514l-1.065-2.565h-3.474L28.509 28h-.524zM15 20h1.834c5.11 0 5.224 8-.12 8H15v-8zm10.793 8h-2.01v-8h1.818s1.953.032 2.036 1.982c0 0 .114 1.277-.883 1.82 0 0 1.584.323 1.584 2.007 0 1.7-1.345 2.191-2.545 2.191zM7.077 28H5v-8h1.89s2.032.032 2.11 1.982c0 0 .04 1.277-.962 1.82 0 0 1.594.323 1.594 2.007 0 1.7-1.355 2.191-2.555 2.191z" fill="#fff"/><path d="M45 33h.522c3.355 0 3.355-2 0-2H45v2z" fill="#194F8B"/><path d="M31 29h3l3 3v-3h3v6h-3l-3-3v3h-3v-6z" fill="#fff"/><path d="M26.27 30.87c.858 0 1.554.512 1.554 1.143 0 .625-.696 1.141-1.553 1.141s-1.558-.516-1.558-1.141c0-.631.701-1.142 1.558-1.142z" fill="#194F8B"/><path d="M10.646 29H18l1 2 1-2h3l-2.5 3.446V35h-3v-2.64L15 29.134v1.494h-2v.59h2.027v1.542H13v.611h2V35h-4.354v-6z" fill="#fff"/><path d="M7.104 31.424h.545c.581 0 .581-.876 0-.876h-.545v.876zm0 1.204h.623c.815 0 .815.954 0 .954h-.623v-.954zm44.042-6.322l-2.033-2.753c-.735.512-.95.645-1.311.92-.384.303-.924.752-.924 1.606 0 .856.726 1.5 1.609 1.5.648.001 1.499-.259 2.66-1.273zm-1.967-3.354c.37-.236.643-.422.866-.657.374-.397.436-.647.436-.897 0-.245-.165-.976-.985-.976-.827 0-1.01.668-1.01 1.038.002.335.21.823.693 1.492z" fill="#194F8B"/><path d="M38.486 23.495h5.016v-3.463H44V28h-.498v-4h-5.016v4H38v-7.968h.486v3.463zM33 20h4.443v.485h-1.984V28h-.463v-7.515H33V20z" fill="#fff"/><path d="M32.86 25l-1.574-3.9-1.531 3.9h3.105zm-17.28-4.468h1.046c4.565 0 4.508 7.002 0 7.002H15.58v-7.002z" fill="#194F8B"/><path d="M10 20h3.998v.5h-3.485l-.002 3.025h3.487V24H10.51l.002 3.506h3.485V28H10v-8z" fill="#fff"/><path d="M24.23 20.522h1.34c2.108 0 2.114 3.154 0 3.154h-1.34v-3.154zm-18.716 0h1.34c2.108 0 2.114 3.154 0 3.154h-1.34v-3.154zm18.727 3.67h1.78c2.504 0 2.436 3.358-.067 3.358h-1.713v-3.358zm-18.711 0h1.776c2.508 0 2.44 3.358-.068 3.358H5.53v-3.358z" fill="#194F8B"/></svg>