<!-- by TradingView --><svg xmlns="http://www.w3.org/2000/svg" width="56" height="56"><path fill="#0D63B6" d="M0 0h56v56H0z"/><path fill-rule="evenodd" d="M5.76 34.16a14.27 14.27 0 01-.02-12.46 14.37 14.37 0 016.2-1.38c2.18.03 4.31.54 6.26 1.5.95 1.96 1.45 4.1 1.47 6.28-.02 2.14-.51 4.25-1.45 6.17A14.53 14.53 0 0112 35.65a14.6 14.6 0 01-6.24-1.5zm-.25.28a14.9 14.9 0 01-.03-13A15.05 15.05 0 0111.94 20c2.27.03 4.5.57 6.53 1.57.99 2.04 1.5 4.28 1.53 6.55a14.95 14.95 0 01-1.5 6.44A15.2 15.2 0 0112 36a15.3 15.3 0 01-6.5-1.56zm6-4.85v2.55h-.26a2.72 2.72 0 00-1.13-2.17c-.52-.35-1.2-.6-2.4-.89-1.12-.28-1.42-1.45-1.09-2.33a1.98 1.98 0 011.89-1.35c1.12-.13 3 1.65 2.98 4.2zm-.79 1.46c.18.34.28.71.28 1.1h-.25c-.13-.65-.96-.97-1.48-.86-.47.11-.95.17-1.43.18a1.6 1.6 0 01-1.42-1.27c-.07-.4 0-1.09.3-1.4a1.29 1.29 0 00.85.55c1.14.3 1.86.52 2.38.87.32.2.59.5.77.83zm-1.38-7.1c0-1.58 1.2-2.5 2.58-2.5h-.06c1.39 0 2.58.92 2.58 2.5 0 1.03-.64 1.69-1.1 2.17-.15.14-.27.27-.36.39a4.76 4.76 0 00-.92 3v2.64h-.3l-.01-.36c0-.52 0-1.37-.03-2.22a4.92 4.92 0 00-.92-3.07c-.09-.12-.2-.24-.35-.38-.46-.48-1.1-1.14-1.1-2.17zm2.94 8.2v-2.56c0-2.54 1.83-4.33 3-4.19a1.98 1.98 0 011.86 1.35c.33.88.03 2.05-1.09 2.33-1.2.3-1.88.54-2.4.89a2.7 2.7 0 00-1.1 2.18h-.27zm.78-1.1c-.19.34-.28.71-.28 1.1H13c.14-.65.96-.97 1.48-.86.48.11.96.17 1.44.18a1.61 1.61 0 001.42-1.27c.07-.4 0-1.09-.3-1.4a1.27 1.27 0 01-.84.55c-1.15.3-1.86.52-2.39.87-.32.2-.58.5-.76.83zm.14 3.73l-.17-1.29.43-.06a.34.34 0 01.29.06c.05.06.07.14.08.22a.28.28 0 01-.14.3c.13 0 .22.1.24.27v.2c-.03.17-.13.22-.3.24l-.43.06zm.28-.23c.05 0 .1-.01.14-.03.06-.04.06-.13.05-.2-.02-.13-.06-.19-.21-.16h-.1l.07.37.05.02zm-.07-.6c.06 0 .13 0 .16-.06a.2.2 0 00.03-.15c-.02-.1-.05-.15-.17-.13h-.11l.04.34h.05zm1.65.13v-.07l-.23.06v.06c.03.1.07.24-.07.26-.16.03-.2-.14-.22-.24l-.08-.36v-.04c-.02-.12-.06-.31.11-.34.1 0 .14.11.16.2v.02l.25-.05a.85.85 0 00-.03-.1.32.32 0 00-.41-.26c-.38.08-.38.33-.33.65l.04.19c.06.34.15.58.53.5.28-.05.3-.24.28-.48zm.38.32l-.08-1.34.31-.1.66 1.17-.25.07-.16-.28-.27.09.04.33-.25.06zm.19-.63l.2-.06-.27-.54.07.6zm-7.42-.83c-.38-.1-.47.13-.56.44l-.03.19c-.1.34-.13.59.25.7a.25.25 0 00.27-.12l-.06.15.17.03.18-.67-.37-.12-.06.2.17.04c-.05.2-.1.33-.27.29-.16-.05-.12-.22-.1-.32l.1-.35c.03-.1.1-.32.26-.27.15.04.14.15.1.28l.24.06.03-.16c0-.22-.12-.31-.32-.37zm.87 1.02l-.12.55-.26-.06.28-1.28.45.1c.26.05.34.17.3.4-.02.15-.09.3-.25.28.13.05.15.12.12.24a.9.9 0 01-.01.1c-.02.12-.06.3-.02.32v.04l-.27-.07c0-.11.01-.23.04-.33v-.06c.02-.07.02-.14-.03-.17a.55.55 0 00-.16-.04l-.07-.02zm.05-.2l.17.05c.1 0 .17-.05.19-.17.02-.13 0-.17-.1-.19l-.2-.04-.06.35zm1.9-.28l-.26-.03-.12.9c-.02.12-.04.21-.2.2-.15 0-.15-.12-.14-.2v-.05l.12-.89-.26-.03-.1.9c-.03.3.05.44.37.48.31.04.43-.09.48-.37l.11-.9zm.27 1.33l.08-1.3.5.03c.23 0 .3.2.29.38a.4.4 0 01-.14.3.44.44 0 01-.28.06h-.16l-.03.55-.26-.02zm.3-.72h.13c.1 0 .18-.04.18-.2.01-.16-.05-.17-.18-.18h-.11l-.02.38zm30.03-7.75l1.77-3.21-2.44-1.3-.3.39c-.31-.12-.64-.2-.97-.22A7.6 7.6 0 0032 29.23c0 2.47 1.58 4.88 5.5 4.77a9.16 9.16 0 001.82-.3l1.75-3.73a5.56 5.56 0 01-2.6 1.03c-2.2 0-2.82-1.5-2.82-2.46 0-1.3 1-3.14 3.46-3.14.92 0 1.82.34 2.52.94zM51 34l-.5-12h-5.56l-1.63 3h.95l-4.4 9h4.04l.84-2h2.54v2H51zm-5.19-5l1.44-3.33.04 3.33h-1.48zm-16.47-7c1.94 0 3.04 1.04 3.04 2.54 0 1.36-1.16 2.58-2.43 3.2 1.3.48 1.42 1.63 1.42 2.45 0 1.97-2.02 3.81-4.65 3.81H21l2.48-9h-.92l1.63-3h5.15zm-1.86 5c.5.06 1.13-.54 1.26-1 .19-.82-.48-1-.8-1H26.8l-.48 2h1.16zm-1.64 2l-.53 2h1.34c.53 0 1.25-.3 1.42-.94.17-.56-.3-1.09-.86-1.06h-1.37z" fill="#fff"/></svg>