<!-- by TradingView --><svg xmlns="http://www.w3.org/2000/svg" width="56" height="56"><path fill="#F0F3FA" d="M0 0h56v56H0z"/><path d="M28 12.08V12l-.7.01.7.07zm-6.94 30.34c-4-2.68-6.74-8.08-6.74-14.31 0-6.97 3.42-12.9 8.2-15.15a16 16 0 00-1.46 29.46z" fill="#BBB"/><path fill-rule="evenodd" d="M43.72 31a16 16 0 01-20.54 12.26c-4.26-2.89-7.68-7.73-7.68-14.89v-.22c0 .52.04 1.03.1 1.54V26.3l-.08.95c.02-.47.05-.93.09-1.38v-.02c.56-5.79 3.1-9.85 7.57-13.12a16 16 0 0118.79 7.45A15.9 15.9 0 0143.72 25H45a3 3 0 110 6h-1.28zm-27.86-6a12.42 12.42 0 0124.1 0H41a3 3 0 110 6h-1.04a12.42 12.42 0 01-24.1 0H18a3 3 0 100-6h-2.14z" fill="#0E467A"/><path d="M12 25h2a3 3 0 110 6h-2v-6z" fill="#F0F3FA"/></svg>