<!-- by TradingView --><svg xmlns="http://www.w3.org/2000/svg" width="56" height="56"><path fill="url(#axeay0tqk)" d="M0 0h56v56H0z"/><path d="M49.2 25.1l1.64-.36s-.51 3.05-2.57 5.09a4.97 4.97 0 01-6.83-.01 4.72 4.72 0 01-.01-6.78c1.7-1.69 4.52-2.32 7.6-2.74l-.42.81L52 20l-2.8 5.1zm-6.04-.45a2.41 2.41 0 000 3.43c.96.95 2.52.95 3.47 0 .96-.95.96-2.48 0-3.43a2.46 2.46 0 00-3.47 0zm-5.94.19c-1.34-1.46-4.28-.64-4.28 1.68 0 2.08 2.73 3.21 4.28 1.7l1.16 2.05a5.3 5.3 0 01-2.94.9 4.81 4.81 0 01-4.94-4.68 4.81 4.81 0 014.94-4.67c1.11 0 2.13.36 2.98.95l-1.2 2.07zM24.83 22c-.86 0-1.75.41-2.42 1.02L22 22h-2v9h2.5v-4.35c0-1.27.82-2.15 2-2.15 1.18 0 2 .9 2 2.15V31H29v-4.35c0-2.58-1.75-4.65-4.17-4.65zm-9.33 9v-9H18v9h-2.5zM4 22l4.6 9h.8l4.6-9h-2.5L9 27l-2.5-5H4zm8.46 12l-1.22 3h-.47l-1.21-3h.46l.99 2.43L12 34h.46zm2.94.42v.85H17v.41h-1.6v.91H17V37h-2v-3h2v.4h-1.6v.02zm4.7-.42h-.42v3h.42v-2.27L21.72 37h.42v-3h-.42v2.27L20.1 34zm5.5.4h-.92V34h2.27v.4H26V37h-.41v-2.6zm4-.4v1.7c0 .75.5 1.29 1.23 1.3.7 0 1.18-.54 1.18-1.3V34h-.42v1.7c0 .52-.3.9-.76.9-.48 0-.82-.38-.82-.9V34h-.4zm6.66 1.9l.72 1.1h-.48l-.7-1.05h-.65V37h-.42v-3h1.2c.6 0 1.05.4 1.05.98 0 .46-.29.82-.72.93zm-1.1-.35h.72c.4 0 .69-.22.69-.57s-.28-.57-.7-.57h-.71v1.14zm4.76-.28v-.86h1.6V34h-2v3h2v-.4h-1.6v-.92h1.6v-.4h-1.6zm3.89 1.29l.24-.32c.25.24.55.4.94.4.4 0 .59-.2.59-.44 0-.27-.24-.38-.7-.5-.59-.13-.98-.31-.98-.84 0-.49.41-.86 1-.86.43 0 .76.17 1.03.4l-.23.33a1.22 1.22 0 00-.82-.36c-.32 0-.54.21-.54.45 0 .27.25.36.71.47.57.13.96.33.96.85 0 .5-.37.86-1.03.86-.47.02-.87-.15-1.17-.44z" fill="#fff"/><defs><linearGradient id="axeay0tqk" x1="46.86" y1="9.2" x2="6.76" y2="46.09" gradientUnits="userSpaceOnUse"><stop stop-color="#FFBB03"/><stop offset="1" stop-color="#FF009C"/></linearGradient></defs></svg>