<!-- by TradingView --><svg width="56" height="56" xmlns="http://www.w3.org/2000/svg"><path fill="#1A559B" d="M0 0h56v56H0z"/><path fill-rule="evenodd" d="M46.32 30h-4.096l2.033-6.457L46.32 30zm-.644-9c1.102 0 1.385.261 1.804 1.43L52 35h-4.027l-.982-3h-5.42l-.977 3H38.27l4.559-14h2.847zM22.116 27.16l1.243-1.742c.315-.438.38-.712.38-1.019 0-.854-.799-1.399-1.722-1.399H20v10h1.165c1.772 0 3.116-.778 3.116-2.883 0-1.735-.866-2.662-2.165-2.958zM22.86 35H17V21h6.088c3.041 0 4.1 2.328 2.561 4.475l-.728 1.015C30.023 28.978 28.363 35 22.86 35zM9.515 27.16l1.242-1.742c.314-.438.38-.712.38-1.019 0-.854-.8-1.399-1.72-1.399H7v10h1.563c1.771 0 3.116-.778 3.116-2.883 0-1.735-.868-2.662-2.164-2.958zm.743 7.84H4V21h6.487c3.04 0 4.1 2.328 2.56 4.475l-.728 1.015c5.1 2.488 3.442 8.51-2.061 8.51z" fill="#fff"/><path d="M37.663 21h2.352l-4.54 13.993-3.576-.002-4.871-13.99L29.66 21c1.015 0 1.283.246 1.815 1.831l2.819 8.798L37.663 21z" fill="#fff"/></svg>