<!-- by TradingView --><svg xmlns="http://www.w3.org/2000/svg" width="56" height="56"><path fill="#F0F3FA" d="M0 0h56v56H0z"/><path d="M28 45c-9.53 0-17-7.47-17-17 0-9.53 7.47-17 17-17 9.53 0 17 7.47 17 17a16.84 16.84 0 01-17 17zm0-35a18 18 0 100 36 18 18 0 000-36z" fill="#0056A2"/><path d="M38 28a10 10 0 11-20 0 10 10 0 0120 0zm-8.52 11.66l-.53.04c-.1.14-.22.27-.35.39-.17.1-.35.2-.53.25l.02.56h.02c.19-.05.37-.1.55-.18l.1-.07.17 2.4v.02l.76-.05-.21-3.35v-.02zm2.68.94a.53.53 0 01-.33.25.51.51 0 01-.64-.36.47.47 0 01.06-.4.54.54 0 01.46-.25.47.47 0 01.48.35c.05.13.03.28-.03.4v.01zm-.36-1.46c-.15 0-.3.02-.44.06-.32.09-.6.3-.77.59a1.24 1.24 0 00-.09.97 1.15 1.15 0 001.46.77.73.73 0 00.3-.15c-.12.34-.28.67-.46.98v.02l.6.25c.18-.34.34-.69.47-1.05.17-.47.2-.98.07-1.46-.18-.62-.6-.98-1.14-.98zm2.47-.44c.1-.05.2-.08.3-.08a.46.46 0 01.41.23.5.5 0 01-.19.73.55.55 0 01-.53 0 .5.5 0 01-.18-.2.5.5 0 01.19-.68zm.37-.8c-.25 0-.48.08-.69.2a1.2 1.2 0 00-.46 1.72 1.15 1.15 0 001.59.4c.1-.05.18-.12.24-.2-.03.35-.1.7-.21 1.05v.02l.65.1c.1-.37.17-.75.2-1.14.06-.5-.04-1-.27-1.43a1.25 1.25 0 00-1.05-.72zm2.59-2.38l-.01-.03-1.94 1.85-.01.01.43.46 1.12-1.07.78 3.05.64-.6-1.01-3.67zm-18.1 3.01l.44-.46-.77-.74.48-.5.87.83.44-.46-1.43-1.37-2.32 2.42-.02.02 1.51 1.44.47-.48-.95-.9.51-.53.77.73zm2.87-.48c-.2-.13-.44-.2-.69-.2a.88.88 0 00-.78.43c-.2.33-.16.71.11 1.16L21 40c.08.11.1.26.04.39a.3.3 0 01-.36.15 1.35 1.35 0 01-.63-.76v-.02l-.67.3v.02c.15.4.44.73.81.94.22.14.48.22.74.23a.93.93 0 00.81-.48c.26-.44.05-.88-.17-1.22l-.28-.45a.37.37 0 01-.06-.44.25.25 0 01.23-.13c.08 0 .16.03.23.07.2.13.35.31.42.54v.02l.64-.29v-.02a1.73 1.73 0 00-.74-.8zm3.04 2.04l.2-.61-2.05-.7-.2.61.65.23-.88 2.59.75.25.88-2.6.65.23zm-.25 1.86a.45.45 0 100 .9.45.45 0 000-.9zm-9.6-7.65c-.8-.13-1.76-.86-1.63-1.74a.8.8 0 01.56-.66c.15-.05.31-.07.47-.07l.52.1c.27-.31.65-.5 1.06-.54a.93.93 0 01.84.64c.2.75-.47 1.8-1.1 2.17a.6.6 0 01-.1.05c-.2.07-.42.09-.63.05zm1.36-3.08a.7.7 0 01-.63-.08c-.2-.14-.2-.47-.09-.66.1-.13.25-.17.4-.18.23 0 .54.1.63.33.11.28-.07.49-.31.6zm-1.52.25c.21-.07.39-.27.37-.5-.04-.18-.16-.4-.38-.43-.26-.01-.52.27-.62.49-.04.1-.05.2 0 .3.07.17.29.2.46.2.03-.01.19-.06.17-.07zm-1.8.5c-.21-.11-.11-.44 0-.6.13-.21.45-.26.66-.14.24.16.06.43-.13.57-.13.12-.35.28-.53.18zM40.8 34.3c.78-.13 1.75-.86 1.62-1.74a.8.8 0 00-.57-.66c-.15-.05-.3-.07-.46-.07l-.52.1a1.6 1.6 0 00-1.07-.54.95.95 0 00-.83.64c-.2.75.47 1.8 1.1 2.17l.1.05c.2.07.42.09.63.05zm-1.16-3.04c.28.01.51-.14.56-.43.02-.3-.15-.5-.47-.52-.31 0-.64.17-.65.5-.04.29.33.45.56.45zm1.3.2c-.2-.06-.38-.26-.35-.48.04-.2.16-.42.38-.44.21 0 .42.18.54.34.11.16.19.41 0 .55-.14.13-.4.1-.56.04zm1.28.34c.15.14.5.34.63.07.08-.21-.03-.52-.23-.63-.2-.11-.48-.1-.62.07-.13.15.1.4.22.49zm-27.16-6.03l.07-.4c.06-.38.2-.52.47-.47a.3.3 0 01.23.17c.04.12.05.24.02.36l-.07.46-.71-.12zm-1.27-.53a.42.42 0 01.36-.43h.04a.33.33 0 01.25.13c.06.13.08.27.04.4l-.05.32-.69-.1.05-.32zm1.98-1.1h-.16a.81.81 0 00-.74.42.73.73 0 00-.6-.51c-.6-.1-.98.27-1.11 1.1l-.18 1.08 3.33.54.22-1.36a1.18 1.18 0 00-.16-.9.93.93 0 00-.6-.36zm1-3.1l-1.8-.84h-.02l-.33.7 1.76.84c.47.23.58.45.4.83a.52.52 0 01-.47.35c-.15 0-.3-.05-.44-.12l-1.74-.82h-.02l-.33.7 1.8.87c.2.1.43.16.67.16.5 0 .9-.3 1.16-.84a1.32 1.32 0 00.1-1.14c-.15-.3-.4-.55-.73-.68zm-1.13-1.85l.47-.63 2.7 2.03-.47.63-2.7-2.03zm3.75-.2l-1.87-1.96-.57.54L19.26 20l.02.01 1.42-1.36-.46-.49-.86.82zm2.21-1.7l-.19.12-1.06-1.76.12-.08c.2-.13.44-.2.68-.22a.96.96 0 01.83.54.95.95 0 01-.37 1.4zm1.07-1.76c-.36-.6-.82-.9-1.36-.9-.42.02-.83.16-1.18.39l-.8.48 1.75 2.9.98-.6a1.57 1.57 0 00.6-2.27zm1.33-.82l1.18-.3.16.62-1.18.3-.16-.62zm4.3.16h-.53l.25-.54.27.54zm-.23-2.22l-1.72 3.53h.84l.35-.75.98.01.34.77h.83l-1.6-3.51-.02-.05zm2.67 2.37l.17-.62 1.17.31-.17.63-1.17-.32zm3.8.8l.35-.6.28.16a.6.6 0 01.28.28.3.3 0 01-.02.25.31.31 0 01-.28.18.68.68 0 01-.32-.1l-.29-.17zm.31 1.36c-.11.2-.3.21-.6.05l-.4-.23.36-.63.36.21c.32.19.4.37.27.6h.01zm.58-.56a.75.75 0 00.7-.37c.3-.54.08-1.02-.65-1.44l-.96-.54-1.68 2.93 1.2.68c.2.13.44.2.67.2a.9.9 0 00.79-.47.84.84 0 00-.07-.99zm.98 2.2l.5-.53.77.72.44-.47-.78-.72.47-.5.88.8.44-.47-1.46-1.34-2.3 2.48 1.54 1.41.45-.49-.95-.88zm3.19 2l-.34.52-.27-.45.6-.07zm-2.44-.46h-.03l.42.74.83-.09.5.85-.47.68.42.72 2.2-3.26-3.87.36zm4.63 4.49a.55.55 0 01-.15.01.43.43 0 01-.4-.37l-.07-.31.78-.21.08.3c.08.3 0 .5-.24.57zm.86-.7l-.3-1.1-3.24.86h-.02l.2.76 1.47-.39-1.2 1.35.26.97 1.11-1.41a.86.86 0 00.74.46c.11 0 .22-.01.33-.04.6-.16.86-.71.66-1.47" fill="#0056A2"/><path d="M35.67 29.93a1.66 1.66 0 001.14-1.56 1.7 1.7 0 00-1.65-1.66h-.3l-.31.07c-.44.1-.65.2-1.11.32-.59.14-1.2.1-1.77-.1a6.01 6.01 0 01-1.01-.46 3.77 3.77 0 001.49-2.57 1.75 1.75 0 10-1.65-2.96c-.37-.11-.75-.2-1.13-.24-.2-.2-.63-.57-1.03-.5 0 0-.08.01 0 .07l.11.1.14.14.03.04a.05.05 0 010 .04.05.05 0 01-.04.03h-.01a2.44 2.44 0 00-1.71-.28c-.06.04-.1.09-.06.13.04.04.38.15.54.26-.8.13-1.56.38-2.28.75a1.75 1.75 0 10-1.02 3.24 3.74 3.74 0 001.27 1.8c-.31.17-.64.32-.97.43-.57.2-1.19.24-1.77.1-.46-.12-.67-.23-1.11-.32a1.8 1.8 0 00-.31-.07h-.32a1.7 1.7 0 00-1.65 1.66 1.67 1.67 0 001.15 1.56c1.07.5 3.15.54 3.15.54s-.28 1.09-.58 1.33c-.19.14-.54.06-.79-.03a1.93 1.93 0 00-.27-.12h-.03a1.58 1.58 0 00-.38-.07h-.03c-.17 0-.34.01-.5.07-.96.32-1.39 1.67-.94 3.02.4 1.2 1.34 1.97 2.22 1.91.4-.01.8-.11 1.15-.3.65-.29 1.32-.53 2-.72.87-.27 2.64-.27 2.67-.27.03 0 1.8 0 2.66.28.68.19 1.35.43 2 .72.36.18.75.28 1.15.3.88.05 1.82-.73 2.22-1.92.45-1.34.02-2.7-.95-3.02a1.38 1.38 0 00-.48-.07h-.04c-.13 0-.25.03-.38.07h-.01c-.1.03-.2.07-.28.12-.25.09-.6.17-.79.03-.3-.24-.6-1.33-.6-1.33s2.09-.05 3.15-.55" fill="#ECB02E"/><path d="M22.82 33.77c.26.78.06 1.72-.54 1.92-.59.2-1.35-.42-1.6-1.2-.27-.77-.02-1.7.57-1.9.59-.2 1.3.4 1.57 1.2v-.02zm10.4 0c-.25.78-.05 1.72.54 1.92.6.2 1.35-.42 1.61-1.2.27-.77.02-1.7-.57-1.9-.6-.2-1.3.4-1.57 1.2v-.02zm-3.6-9.25c-.37-.47-.96-1.09-1.62-1.02-.66.07-1.13.77-1.4 1.32-.28.54-.58 1.38-.1 1.85.48.47 1.22.5 1.85.46.63-.04 1.36-.27 1.72-.81.36-.54-.08-1.34-.45-1.8" fill="#F4DDA1"/><path d="M29.57 28.9a.77.77 0 00-.73-.3.6.6 0 00-.54.68c.07.44.2.8 1.45 1.53a.1.1 0 00.18-.02c.98-1.07 1.01-1.45.94-1.89a.61.61 0 00-.72-.52.77.77 0 00-.6.5" fill="#EE2F53"/><path d="M28.03 23.84c-.6.06-.84.2-.55.57a.67.67 0 001.2-.11c.22-.43-.04-.52-.65-.46zm1.09 1.97a.04.04 0 00-.04 0c-.14.1-.29.16-.44.2a.33.33 0 01-.42-.21.03.03 0 00-.03-.02h-.03a.49.49 0 01-.3.23.56.56 0 01-.24-.02.65.65 0 01-.44-.39.03.03 0 00-.04-.02.04.04 0 00-.03.02.82.82 0 00.62.62l.2.04h.2c.09 0 .18 0 .26-.02a1.2 1.2 0 00.74-.42.02.02 0 000-.02l-.01.01zm-5.4-3.63a.13.13 0 00-.12-.08h-.05a.8.8 0 00-.45.65c-.01.14 0 .28.02.42a.04.04 0 00.04.03.04.04 0 00.04-.02 1.25 1.25 0 01.5-.9.1.1 0 00.02-.1zm8.95-.34a.8.8 0 00-.56-.55h-.05a.13.13 0 00-.1.1.1.1 0 00.04.1 1.24 1.24 0 01.66.79l.01.01.03.01.02-.01.01-.02c0-.14-.02-.28-.06-.42zm-6.08.2l-.05.02a.6.6 0 00-.38.64h.02a.02.02 0 00.02 0c.1-.18.26-.33.45-.43a.12.12 0 00.02-.2.12.12 0 00-.09-.02zm2.51-.23h.05a.6.6 0 01.5.55h-.04a1.13 1.13 0 00-.52-.34.12.12 0 01-.08-.13.12.12 0 01.1-.1v.02z" fill="#0056A2"/><path d="M28.96 22.62a.4.4 0 01.34.4.38.38 0 01-.3.46.4.4 0 01-.34-.4.37.37 0 01.27-.45h.03zm-2.06.21a.4.4 0 01.34.4.38.38 0 01-.3.46.4.4 0 01-.34-.4.37.37 0 01.27-.45h.03z" fill="#F4DDA1"/><path d="M26.94 23.6a.32.32 0 01-.24-.33c.02.03.05.05.08.05a.18.18 0 00.16-.18.2.2 0 00-.06-.2.3.3 0 01.25.3.28.28 0 01-.2.35zm2.06-.21a.32.32 0 01-.24-.32.12.12 0 00.08.04.18.18 0 00.16-.18.2.2 0 00-.06-.2.3.3 0 01.24.3.28.28 0 01-.18.35h-.01" fill="#0056A2"/></svg>