<!-- by TradingView --><svg width="56" height="56" xmlns="http://www.w3.org/2000/svg"><path fill="#1E3566" d="M0 0h56v56H0z"/><path d="M49.03 27.67l2.813-2.528h-.812l-2.654 2.504h-.008v-2.504H47.8v5.857h.568v-3.25h.008l2.788 3.25H52l-2.97-3.33zm-4.64 2.833c-1.433 0-2.291-1.275-2.291-2.574 0-1.3.874-2.433 2.316-2.433.709 0 1.268.37 1.504.732l.473-.346c-.386-.544-1.166-.882-1.985-.882-1.662 0-2.907 1.236-2.907 2.93 0 1.692 1.197 3.069 2.883 3.069 1 0 1.717-.48 2.087-1.04l-.44-.283c-.387.575-1.001.827-1.64.827zM39.42 31H40v-5.858h-.58V31zm-3.14-.785h-.016l-1.396-5.073h-.677l-1.394 5.073h-.015l-1.38-5.073h-.598L32.45 31h.662l1.401-5.07h.016L35.933 31h.661l1.646-5.858h-.599l-1.362 5.073zm-8.044-2.593c-.622-.205-1.213-.386-1.213-1.094 0-.717.638-1.048 1.19-1.048.527 0 .913.22 1.15.56l.449-.363c-.268-.362-.827-.677-1.576-.677-.819 0-1.78.457-1.78 1.535 0 1.008.756 1.331 1.497 1.56.709.22 1.376.559 1.376 1.338 0 .717-.661 1.079-1.236 1.079a1.483 1.483 0 01-1.277-.7l-.488.361c.402.552 1.08.827 1.757.827.882 0 1.82-.488 1.82-1.606s-.881-1.512-1.669-1.772zm-3.953 2.551h-.016L21.02 25h-.709v6h.567v-5.22h.016L24.141 31h.709v-6h-.567v5.173zm-6.339-1.452c0 .897-.386 1.78-1.52 1.78s-1.52-.883-1.52-1.78l.02-3.721h-.566l-.022 3.784c0 .929.418 2.22 2.088 2.22 1.67 0 2.087-1.291 2.087-2.22L18.533 25h-.568l-.02 3.72zm-8.037-1.099v-2.134h1.009c.843 0 1.402.268 1.402 1 0 .662-.52 1.134-1.426 1.134h-.985zm2.978-1.134c0-1.086-.803-1.488-1.906-1.488H9.34v6.004h.567V28.11h.946l1.544 2.894h.693l-1.63-2.941a1.576 1.576 0 001.425-1.575zm-7.29 4.032H4.539l.028-2.473h1.158c.906 0 1.406.654 1.406 1.386 0 .78-.717 1.087-1.536 1.087zm-1.056-5.032h.985c.732 0 1.339.268 1.339.977 0 .74-.61 1.118-1.154 1.118H4.567l-.028-2.095zm1.934 2.292v-.016c.591-.134.957-.756.957-1.339C7.43 25.307 6.485 25 5.634 25H4v6h1.626c1.284 0 2.08-.606 2.08-1.535 0-.811-.508-1.607-1.233-1.685z" fill="#fff"/></svg>