<!-- by TradingView --><svg width="56" height="56" xmlns="http://www.w3.org/2000/svg"><path fill="#2D62AF" d="M0 0h56v56H0z"/><path d="M18.65 31c0-1.16-.764-2.036-2.095-2.357-.389-.093-1.066-.143-1.665-.143h-1.897v5h2.332c2.353 0 3.326-1.09 3.326-2.5zm-5.657-4.5h.955c.528 0 .908-.043 1.167-.091 1.551-.291 1.827-1.428 1.826-2.104 0-.8-.417-1.44-1.295-1.753-.445-.159-1.062-.236-1.844-.236h-.81V26.5zm22.068 7.292C33.354 35.358 31.453 36 29.111 36c-3.648 0-6.207-1.681-7.257-4.594-.258 2.482-2.348 4.473-5.625 4.594H10V20h3.923c2.007 0 3.636.407 4.83 1.34a3.384 3.384 0 011.302 2.683c0 1.156-.554 2.168-1.612 2.876 1.17.334 2.284 1.05 2.913 2.09a11.692 11.692 0 01-.033-.878c0-4.507 3.009-8.111 7.818-8.111 2.064 0 3.91.5 5.597 2.073l-1.762 1.88c-1.217-1.075-2.424-1.492-3.737-1.492-2.995 0-4.665 2.49-4.665 5.5 0 3.305 1.76 5.525 4.74 5.525 1.486 0 2.838-.53 3.996-1.535l1.751 1.84zM36 20h9v3h-6v3h5v3h-5v4h7v3H36V20z" fill="#fff"/></svg>