<!-- by TradingView --><svg xmlns="http://www.w3.org/2000/svg" width="56" height="56"><path fill="#F0F3FA" d="M0 0h56v56H0z"/><path d="M30 43.17l-1.26.83-12.09-6.4A5.88 5.88 0 0114 32.72v-9.95c.1-2.5 1.77-4.2 4.02-5.44l.2 1.59.2 1.45c-.7.54-1.35 1.35-1.42 2.23v10.12c.09.95.81 1.8 1.58 2.36L27 39.44c0-3.18-1.34-6.7-2.76-10.4C22.67 24.93 21 20.57 21 16.17V12h3v4.06c0 4.41 1.55 8.35 3.07 12.24C28.54 32.06 30 35.78 30 39.8v3.37zm-4-30.34l1.26-.83 12.09 6.4A5.88 5.88 0 0142 23.28v9.95c-.1 2.5-1.77 4.2-4.02 5.44l-.2-1.59-.2-1.45c.7-.54 1.35-1.35 1.42-2.23V23.28c-.09-.95-.81-1.8-1.58-2.36L29 16.44c0 3.53 1.4 7.16 2.85 10.92C33.4 31.38 35 35.55 35 39.88V44h-3v-4.03c0-4.3-1.54-8.29-3.06-12.22C27.46 23.92 26 20.15 26 16.2v-3.37z"/></svg>