<!-- by TradingView --><svg xmlns="http://www.w3.org/2000/svg" width="56" height="56"><path fill="#F0F3FA" d="M0 0h56v56H0z"/><path d="M6 19h44v.33H6V19zm0 .74h44v.58H6v-.58zm44 .99H6v.7h44v-.7zm-44 1.1h44v1H6v-1zm44 1.4H6v1.18h44v-1.18zm-44 1.6h44v1.43H6v-1.44zm44 1.84H6v1.57h44v-1.57zM6 28.65h44v1.88H6v-1.88zM50 31H6v2h44v-2z" fill="#661F67"/><path fill-rule="evenodd" d="M7.71 19.76h8.03a3.23 3.23 0 012.1 5.7 3.71 3.71 0 01-1.96 6.87H7.7V19.76zm2.6 2.58h4.98a1.1 1.1 0 110 2.21H10.3v-2.21zm0 4.62h5.31a1.38 1.38 0 110 2.76H10.3v-2.76z" fill="#36B04C"/><path fill-rule="evenodd" d="M18.06 25.24a3.22 3.22 0 00-2.32-5.48H7.71v12.57h8.17a3.72 3.72 0 001.95-6.88l.23-.21zM8 32h7.88a3.4 3.4 0 001.8-6.3l-.36-.21.32-.27a2.98 2.98 0 00-1.9-5.22H8l.01 5.92L8 32zm2-10h5.3c.77 0 1.4.67 1.4 1.45 0 .77-.63 1.4-1.4 1.4H10V22zm0 4.72h5.62c.93 0 1.68.7 1.68 1.62 0 .93-.75 1.66-1.68 1.66H10v-3.28zm.3-4.38h5a1.1 1.1 0 110 2.21h-5v-2.21zm0 4.66h5.32c.76 0 1.38.58 1.38 1.34 0 .77-.62 1.38-1.38 1.38H10.3V27z"/><path d="M34.57 26.83c-.36 3.87-3.15 5.79-6.55 5.79-3.64 0-6.59-2.08-6.59-6.63 0-4.04 2.95-6.52 6.59-6.52 3.66 0 5.85 1.5 6.43 4.66h-2.9c-.49-1.52-1.7-2.12-3.59-2.12-2.1 0-3.82 1.5-3.82 3.93 0 2.74 1.71 4 3.82 4 2.49 0 3.58-.9 3.79-3.1h2.82z" fill="#36B04C"/><path d="M34.57 26.83h-2.82c-.21 2.2-1.3 3.1-3.79 3.1-2.1 0-3.82-1.25-3.82-4 0-2.43 1.71-3.92 3.82-3.92 1.89 0 3.1.6 3.59 2.12h2.9a7.8 7.8 0 00-.06-.3c-.67-2.95-2.83-4.36-6.37-4.36-3.64 0-6.59 2.48-6.59 6.52 0 4.55 2.95 6.63 6.59 6.63 3.3 0 6.05-1.82 6.51-5.49l.04-.3zm-.34.3a5.75 5.75 0 01-1.99 3.81 6.55 6.55 0 01-4.22 1.38c-1.77 0-3.33-.5-4.46-1.53-1.11-1.02-1.83-2.6-1.83-4.8 0-1.94.71-3.5 1.84-4.56a6.4 6.4 0 014.45-1.66c1.79 0 3.18.37 4.2 1.09a4.85 4.85 0 011.86 2.97h-2.32a2.99 2.99 0 00-1.33-1.59 4.95 4.95 0 00-2.47-.53c-1.12 0-2.16.4-2.9 1.14a4.23 4.23 0 00-1.22 3.09 4.3 4.3 0 001.21 3.24c.76.72 1.8 1.05 2.91 1.05 1.27 0 2.25-.22 2.94-.79.64-.52.98-1.3 1.12-2.3h2.21z"/><path d="M36.7 20h2.6v4.7h6.4V20h2.62v12H45.7v-4.7h-6.4V32h-2.6V20z" fill="#36B04C"/><path fill-rule="evenodd" d="M39.3 27.3h6.4V32h2.62V20H45.7v4.7h-6.4V20h-2.6v12h2.6v-4.7zm-.3 4.4V27h7v4.7h2V20.3h-2V25h-7v-4.7h-2v11.4h2z"/><path d="M6 34h44v3H6v-3z"/><path fill="#C6C6C6" d="M8 35h40v1H8z"/></svg>