<!-- by TradingView --><svg width="56" height="56" xmlns="http://www.w3.org/2000/svg"><path fill="#154995" d="M0 0h56v56H0z"/><path d="M44.907 29h2.302s.075 1.191 1.345 1.191c1.266 0 1.017-.727 1.017-.727s.04-.428-1.196-.693c-1.23-.264-3.203-.902-3.203-2.75 0-1.849 1.44-2.477 3.243-2.477 1.799 0 3.144.733 3.144 2.477h-2.242s-.02-.727-1.002-.727c-.981 0-.881.627-.817.727.06.1.25.304 1.266.543 1.021.24 2.028.463 2.805 1.49.782 1.03.19 2.815-.931 3.418-1.117.608-2.084.528-2.084.528-.244 0-3.522-.11-3.647-3z" fill="#fff"/><path d="M42.855 27.745L45.59 32h-2.91L40 27.935 42.73 24h2.8l-2.675 3.745zM30 32h2v-3.722c0-.278.322-.488.5-.278l2.5 4h2v-8h-2v3.76c0 .24-.148.449-.396.03L32.302 24H30v8zm8-8h2v8h-2v-8zm-11 0h2v8h-2v-8zm-7 8v-8h3.806s2.626-.042 2.626 2.176c0 0 .05 1.4-1.176 1.993 0 0 1.091.388 1.091 2.267v.668s-.05.512.334.896h-2.307s-.239-.194-.25-.837c-.01-.638-.039-1.515-.358-1.814-.319-.3-.508-.35-.961-.35h-.618v-1.627h1.225c.723.043.913-1.372-.08-1.372h-1.145s-.187.008-.187.277V32h-2zm-3.822 0h-4.156v-8h4.215s2.437.03 2.437 2.038c0 0 .085.925-.807 1.523 0 0 1.205.548 1.205 1.928 0 1.385-1.04 2.51-2.894 2.51zM10 24h1v8h-1v-8zm-2 0h1v8H8v-8zm-1.907 0h.548v8h-.548v-8zM4 24h.379v8H4v-8z" fill="#fff"/><path d="M16 30h-1.795S14 29.994 14 29.725V26.21s-.03-.209.22-.209h1.698c.287 0 .667.133.667.74 0 .608-.548.668-.692.668h-.756s-.137-.035-.137.14v.848s-.012.13.177.13h.868s.712-.016.712.737c0 .752-.712.737-.757.737z" fill="#154995"/></svg>