<!-- by TradingView --><svg width="56" height="56" xmlns="http://www.w3.org/2000/svg"><path fill="url(#paint0_linear)" d="M0 0h56v56H0z"/><path d="M4 32h2.804C7.464 32 9 31.85 9 30.456c0-.68-.336-1.32-1.12-1.48l-.414-.064.362-.106c.678-.284.806-.81.806-1.37v-.02a1.208 1.208 0 00-.373-.91C7.925 26.176 7.388 26 6.71 26H4v6zm2.804-.998H5V29.5h1.654c1.42 0 1.34.575 1.346.812.006.236-.268.69-1.196.69zM6.561 28.5H5V27h1.56c1.015 0 1.268.34 1.268.75 0 .408-.352.75-1.267.75zM11 32h4v-1h-3v-5h-1v6zM17.017 26.002v3.43c0 1.657.887 2.568 2.488 2.568 1.602 0 2.512-.932 2.512-2.623v-3.375H21v3.02C21 30.264 20.64 31 19.5 31c-1.14 0-1.5-.708-1.5-1.978V26l-.983.002zM34.006 26C32.295 26 31 27.29 31 29v.018c0 1.7 1.283 2.982 2.994 2.982C35.705 32 37 30.71 37 29v-.018c-.006-1.7-1.292-2.982-2.994-2.982zM34 31c-1.276 0-2.003-.933-2-2 .003-1.067.652-2.018 2-2 1.348.018 1.99.99 2 2 .01 1.01-.724 2-2 2zM42.849 32h1.139l-1.59-2.158c.659-.184 1.59-.612 1.6-2.011v-.018a1.693 1.693 0 00-.49-1.235c-.398-.376-1.01-.578-1.763-.578h-2.747v6H40v-2h1.324l1.525 2zm-1.19-3H40v-2h1.649c1.012 0 1.337.43 1.35 1.018.012.587-.382.982-1.34.982zM50.997 32H52l-2.5-6h-1L46 32h1l.482-1.003h3.031L50.997 32zm-.822-2h-2.341l1.162-3 1.18 3z" fill="#fff"/><path d="M29.297 30.446c-.515.464-1.002.731-1.723.731a1.69 1.69 0 01-.338-.037 2.713 2.713 0 001.598-.857l-.015-.013c-.496.429-1.059.52-1.758.571-.185.011-.37 0-.553-.034a2.274 2.274 0 01-.87-1.738v-.018c0-1.161.814-2.094 1.937-2.094.672 0 1.175.297 1.76.804l.663-.771c-.76-.587-1.332-.99-2.414-.99a2.606 2.606 0 011.494.847 2.733 2.733 0 00-1.708-.691h-.015a2.88 2.88 0 00-1.414.274c-.469.255-.863.631-1.14 1.09a3.068 3.068 0 00-.444 1.523 1.613 1.613 0 01-.083-.499c0-.527.12-1.311.514-1.794a2.538 2.538 0 00-.782 2.017v.016c.032.5.21.979.51 1.377.32.987 1.082 1.596 2.02 1.84a2.821 2.821 0 01-1.054-1.07c.157.071.32.127.488.167.547.669 1.389 1 2.391.84.565-.09 1.115-.447 1.555-.857l.01-.01-.63-.624zm-4.113-.267a3.27 3.27 0 01-.075-.408v-.017a2.986 2.986 0 01.707-2.35 3.012 3.012 0 00-.488 2.073v.017c.036.328.118.648.245.952a3.123 3.123 0 01-.39-.272v.005z" fill="#0096D6"/><defs><linearGradient id="paint0_linear" x1="10.418" y1="9.712" x2="68.147" y2="76.017" gradientUnits="userSpaceOnUse"><stop stop-color="#1A1E21"/><stop offset="1" stop-color="#06060A"/></linearGradient></defs></svg>