<!-- by TradingView --><svg width="56" height="56" xmlns="http://www.w3.org/2000/svg"><path fill="#004985" d="M0 0h56v56H0z"/><path d="M7 29h.236c.825-.009 1.739-.01 1.764 1 .025 1.013-1.069 1.001-1.834 1H7v-2zm0-4c.875 0 1.407.24 1.407 1.015 0 .775-.476.985-1.359.985H7v-2zm-3-2v9.999h4.161c2.4 0 3.639-1.003 3.639-2.816 0-1.407-.523-2.294-1.725-2.569.607-.41.923-1.039.923-1.94C10.998 23.9 9.946 23 7.87 23H4zm14 0h-6v9.999h6V31h-3v-2h3v-2h-3v-2h3v-2zm12.06 9.587c1.969-.544 3.347-2.202 3.369-4.579v-.028c-.027-2.37-1.404-4.024-3.37-4.567 2.243.445 3.927 2.082 3.941 4.603-.006 2.532-1.692 4.125-3.94 4.572zm2.348-4.596c-.02-2.063-1.19-3.635-2.954-4.043 1.967.285 3.543 1.84 3.546 4.046-.003 2.206-1.579 3.782-3.546 4.067 1.765-.407 2.933-2.008 2.954-4.07zm-3.39 3.467c1.479-.341 2.439-1.746 2.462-3.467-.023-1.72-.983-3.162-2.463-3.503 1.651.239 2.977 1.664 2.983 3.512a3.456 3.456 0 01-2.983 3.458zM28 25c2.06-.036 3 1.451 3 2.999 0 1.564-.94 2.989-3 3.001v-6zm1.286-2L25 23.001V33l4.286-.001c2.886 0 5.234-2.243 5.234-5 0-2.756-2.348-4.999-5.234-4.999zm-7.617 0H19v9.999h5V31h-2v-8h-.331zM41 23h-6v10h6v-2h-3v-2h3v-2h-3v-2h3v-2zm10.838 0H49v5l-4-5h-3v10h3v-5l4 5h3V23h-.162z" fill="#fff"/></svg>