<!-- by TradingView --><svg width="56" height="56" xmlns="http://www.w3.org/2000/svg"><path fill="#7C0303" d="M0 0h56v56H0z"/><path d="M32.236 28.708c-.329.957-1.592 1.959-3.236 2.735V28.5h3.319c-.022.098-.048.106-.083.208zM29 24.504c1.672.803 3.024 1.769 3.32 2.996H29v-2.996c.093.044-.095-.046 0 0zm-17 9.444V28.5h1.837c-.018-.01.02.004 0 0 3.405 1.882 1.224 3.957-1.837 5.448zm0-11.896c3.03 1.476 5.33 3.58 2.078 5.448.033-.009-.014.008 0 0H12v-5.448zM52 28.5s-7.017-.78-8.932-1.435c-1.916-.655-2.662-1.4-2.662-1.4.627 1.32 1.724 1.835 1.724 1.835h-6.366c-.5-1.808-3.185-3.027-6.764-3.83v-2.9l-1-.138v2.86c-.844-.172-1.972-.323-2.821-.456 0 0 1.27.373 2.821 1.078V27.5h-8.067c2.62-3.012-3.16-5.2-7.933-6.405v-.326l-1-.138v.235C8.568 20.296 6.584 20 6.584 20s2.196.636 4.416 1.616V27.5H4v1h7v5.885A39.807 39.807 0 016.584 36s1.984-.295 4.416-.866v.138l1-.138v-.23c4.828-1.218 10.688-3.337 7.836-6.404H28v3.323c-1.388.602-2.821.996-2.821.996s1.348-.143 2.821-.448v2.9l1-.137v-2.945c2.915-.667 6.294-1.797 6.781-3.689H52z" fill="#fff"/></svg>