<!-- by TradingView --><svg xmlns="http://www.w3.org/2000/svg" width="56" height="56"><path fill="#F0F3FA" d="M0 0h56v56H0z"/><path d="M44 28a16 16 0 11-32 0 16 16 0 0132 0z" fill="#1E1E1E"/><path d="M44 28a16 16 0 11-32 0 16 16 0 0132 0z" fill="url(#abossiu5a)"/><path d="M35 16.5c0 1.9-3.1 3.5-6.94 3.5-3.83 0-7.06-1.54-7.06-3.45 0-1.9 3.1-3.55 6.94-3.55 3.83 0 7.06 1.6 7.06 3.5z" fill="url(#bbossiu5a)"/><g style="mix-blend-mode:color-dodge"><path d="M25.21 12.24c-.89 2.08-5.04 12.53-1.9 21.1 2.27 6.19 5.23 9.44 6.43 10.57a16.19 16.19 0 01-2.69.06c-.8-1.03-5.26-7.68-5.64-13.4-.4-6.07.3-9.06 1.37-13.15a53.1 53.1 0 011.81-5.05h.01c.2-.05.4-.1.61-.13zm.59-.09c-.32.8-1.24 3.25-1.74 5.6a22.2 22.2 0 00-.4 7.56c1.11 9.44 8.74 15.7 10.9 17.29a15.6 15.6 0 002.23-1.23c-1.1-.62-6.22-3.77-10.6-11.3-3.93-6.76-.57-16.12.17-17.99l-.56.07zm-.11 12.04c-1.22-5.15.76-10.84 1.26-12.16l.51-.02c-.52 1.38-2.8 8-.6 11.87C31.17 31.4 41.6 33.74 42.84 34a15.97 15.97 0 01-1.7 3.14c-1.3-.57-13.86-6.27-15.44-12.96zM28.03 12c-.4 1.08-1.85 5.42-.29 8.28 2.78 5.1 15.56 6.7 16.23 6.78A16 16 0 0028.03 12zm-5.78 27.63a56 56 0 002 3.93A16 16 0 0124 12.5c-.84 1.9-4 9.58-4 16.13 0 3.8.42 6.89 2.25 11z" fill="#ADADAD"/><path d="M25.21 12.24c-.89 2.08-5.04 12.53-1.9 21.1 2.27 6.19 5.23 9.44 6.43 10.57a16.19 16.19 0 01-2.69.06c-.8-1.03-5.26-7.68-5.64-13.4-.4-6.07.3-9.06 1.37-13.15a53.1 53.1 0 011.81-5.05h.01c.2-.05.4-.1.61-.13zm.59-.09c-.32.8-1.24 3.25-1.74 5.6a22.2 22.2 0 00-.4 7.56c1.11 9.44 8.74 15.7 10.9 17.29a15.6 15.6 0 002.23-1.23c-1.1-.62-6.22-3.77-10.6-11.3-3.93-6.76-.57-16.12.17-17.99l-.56.07zm-.11 12.04c-1.22-5.15.76-10.84 1.26-12.16l.51-.02c-.52 1.38-2.8 8-.6 11.87C31.17 31.4 41.6 33.74 42.84 34a15.97 15.97 0 01-1.7 3.14c-1.3-.57-13.86-6.27-15.44-12.96zM28.03 12c-.4 1.08-1.85 5.42-.29 8.28 2.78 5.1 15.56 6.7 16.23 6.78A16 16 0 0028.03 12zm-5.78 27.63a56 56 0 002 3.93A16 16 0 0124 12.5c-.84 1.9-4 9.58-4 16.13 0 3.8.42 6.89 2.25 11z" fill="url(#cbossiu5a)"/><path d="M25.21 12.24c-.89 2.08-5.04 12.53-1.9 21.1 2.27 6.19 5.23 9.44 6.43 10.57a16.19 16.19 0 01-2.69.06c-.8-1.03-5.26-7.68-5.64-13.4-.4-6.07.3-9.06 1.37-13.15a53.1 53.1 0 011.81-5.05h.01c.2-.05.4-.1.61-.13zm.59-.09c-.32.8-1.24 3.25-1.74 5.6a22.2 22.2 0 00-.4 7.56c1.11 9.44 8.74 15.7 10.9 17.29a15.6 15.6 0 002.23-1.23c-1.1-.62-6.22-3.77-10.6-11.3-3.93-6.76-.57-16.12.17-17.99l-.56.07zm-.11 12.04c-1.22-5.15.76-10.84 1.26-12.16l.51-.02c-.52 1.38-2.8 8-.6 11.87C31.17 31.4 41.6 33.74 42.84 34a15.97 15.97 0 01-1.7 3.14c-1.3-.57-13.86-6.27-15.44-12.96zM28.03 12c-.4 1.08-1.85 5.42-.29 8.28 2.78 5.1 15.56 6.7 16.23 6.78A16 16 0 0028.03 12zm-5.78 27.63a56 56 0 002 3.93A16 16 0 0124 12.5c-.84 1.9-4 9.58-4 16.13 0 3.8.42 6.89 2.25 11z" fill="url(#dbossiu5a)"/></g><circle opacity=".7" cx="36.04" cy="17.16" r=".66" fill="#C2C5CB"/><circle opacity=".8" cx="36.04" cy="17.16" r=".45" fill="#F0F3FA"/><defs><linearGradient id="abossiu5a" x1="16.31" y1="12" x2="41.25" y2="45.75" gradientUnits="userSpaceOnUse"><stop/><stop offset=".4" stop-color="#414141"/><stop offset=".64" stop-color="#262525" stop-opacity=".51"/><stop offset=".76" stop-color="#1E1E1E" stop-opacity=".8"/><stop offset=".83" stop-opacity=".62"/></linearGradient><linearGradient id="bbossiu5a" x1="27" y1="9.88" x2="29.13" y2="29.38" gradientUnits="userSpaceOnUse"><stop offset=".2" stop-color="#080808" stop-opacity=".28"/><stop offset=".64" stop-color="#3F3F3F"/></linearGradient><linearGradient id="cbossiu5a" x1="19.25" y1="9.75" x2="25.38" y2="54.38" gradientUnits="userSpaceOnUse"><stop offset=".09" stop-opacity=".92"/><stop offset=".13" stop-opacity=".72"/><stop offset=".33" stop-color="#7E7E7E" stop-opacity=".18"/><stop offset=".56" stop-color="#E5E5E5" stop-opacity=".53"/><stop offset=".68" stop-color="#fff" stop-opacity=".66"/><stop offset=".81"/></linearGradient><linearGradient id="dbossiu5a" x1="41.75" y1="13.5" x2="10.75" y2="40.88" gradientUnits="userSpaceOnUse"><stop offset=".09"/><stop offset=".27" stop-color="#96989C" stop-opacity=".29"/><stop offset=".48" stop-color="#C1C4CD" stop-opacity=".26"/><stop offset=".72" stop-color="#717171" stop-opacity=".65"/><stop offset=".86"/></linearGradient></defs></svg>