<!-- by TradingView --><svg width="56" height="56" fill="none" xmlns="http://www.w3.org/2000/svg"><path fill="#3673EB" d="M0 0h56v56H0z"/><path fill-rule="evenodd" clip-rule="evenodd" d="M13 20.5a7.5 7.5 0 017.5-7.5h15a7.5 7.5 0 017.5 7.5v15a7.5 7.5 0 01-7.5 7.5h-15a7.5 7.5 0 01-7.5-7.5v-15zm15.898 1.802a1.5 1.5 0 00-1.794 0l-7.39 5.51a1.5 1.5 0 01-1.793-2.404l7.39-5.511a4.5 4.5 0 015.38 0l7.389 5.51a1.5 1.5 0 11-1.794 2.405l-7.388-5.51zm-6.667 8.506a1.5 1.5 0 10-2.865.888c1.155 3.728 4.598 6.305 8.633 6.305 4.035 0 7.478-2.577 8.633-6.305a1.5 1.5 0 10-2.865-.888c-.765 2.468-3.043 4.193-5.768 4.193-2.725 0-5.003-1.725-5.768-4.193z" fill="#fff"/></svg>