<!-- by TradingView --><svg width="56" height="56" xmlns="http://www.w3.org/2000/svg"><path fill="#F0F3FA" d="M0 0h56v56H0z"/><path d="M26 26V10.434c-.623 1.868-2.888 6.16-5.906 9.34C17.35 22.666 12 26 12 26h14z" fill="#C8DA30"/><path d="M26 30v15.5c-.623-1.868-2.888-6.17-5.906-9.35C17.35 33.259 12 30 12 30h14z" fill="#5AA2D0"/><path d="M30 26V10.434c.623 1.868 2.888 6.16 5.906 9.34C38.65 22.666 44 26 44 26H30z" fill="#A2A5A7"/><path d="M30 30v15.5c.623-1.868 2.888-6.17 5.906-9.35C38.65 33.259 44 30 44 30H30z" fill="#EF6B52"/></svg>