<!-- by TradingView --><svg width="56" height="56" xmlns="http://www.w3.org/2000/svg"><path fill="#F0F3FA" d="M0 0h56v56H0z"/><path d="M17.487 42.122L9 30c3.182 3.463 10.135 3.193 13 3l5.644 6c-1.411 1.784-4.659 5-6.447 5a4.619 4.619 0 01-3.71-1.878z" fill="#C62D27"/><path d="M38.512 42.122L47 30c-3.182 3.463-10.135 3.193-13 3l-5.588 6c1.41 1.784 4.602 5 6.39 5 1.789 0 3.145-1.004 3.71-1.878z" fill="#0B2343"/><path d="M37.188 12.894C34.014 11.468 29.74 15.822 28 18c4.72 5.108 7.904 11.344 9 14 6.421-.346 8.645-2.178 9.585-3.118.752-.753.313-2.129 0-2.723-1.81-3.828-6.223-11.84-9.397-13.265z" fill="#C62D27"/><path d="M19 12c-5.686 4.805-8.497 11.444-9.703 14.703-.267.72-.498 1.277 0 1.86 2.733 3.212 7.27 3.614 9.329 3.383C25.208 16.855 32.14 12.36 35 12H19z" fill="#0B2343"/></svg>