<!-- by TradingView --><svg width="56" height="56" xmlns="http://www.w3.org/2000/svg"><path fill="#F0F3FA" d="M0 0h56v56H0z"/><path d="M6 36.861c11.534 1.154 19.503-4.928 29.324-4.928 7.2 0 11.289 3.11 16.776 3.74v.245c-6.466.105-10.485-1.678-16.846-1.678-7.69 0-16.217 3.74-22.473 3.775-4.824.035-6.571-.874-6.781-.909v-.245z" fill="#008540"/><path d="M25.503 22.287c-8.039 1.852-8.843 9.367-8.598 12.372.873-.174 1.747-.42 2.516-.664-.035-2.726.944-7.759 6.746-9.192 6.046-1.468 9.506 3.25 10.52 5.802.909.035 1.748.105 2.621.28-.07-1.958-4.753-10.73-13.805-8.598zM7.398 30.465c.07-.384.35-.873 1.188-.734 1.189.21 5.907 1.398 5.767 2.097-.07.385-.664.91-6.011-.174-1.014-.175-.979-.944-.944-1.189zm4.754-10.345c.174-.315.699-.664 1.433-.21 1.013.63 4.927 3.39 4.403 4.194-.07.105-.594.07-5.417-2.516-.909-.455-.56-1.224-.42-1.468zm11.918-7.095c.384-.105.978.105 1.153.978.245 1.154.909 5.872.035 5.977-.07 0-.28-.105-.63-.874-.349-.804-.873-3.006-1.362-4.648-.245-1.014.559-1.398.804-1.433zm13.56 1.992c.385.21.734.769.175 1.538-.734.944-3.18 4.928-3.88 4.439-.07-.035-.209-.385 0-1.189.21-.804 1.294-2.586 2.273-4.299.489-.873 1.153-.629 1.432-.489zm8.564 7.724c.244.385.28 1.084-.56 1.468-1.083.524-5.102 2.831-5.522 2.062-.035-.07 0-.42.63-.979.663-.559 2.271-1.712 3.914-2.76.839-.525 1.363-.036 1.538.21z" fill="#F1BD19"/></svg>