<!-- by TradingView --><svg width="56" height="56" fill="none" xmlns="http://www.w3.org/2000/svg"><path fill="#F0F3FA" d="M0 0h56v56H0z"/><path fill-rule="evenodd" clip-rule="evenodd" d="M9.276 28L28 9.276 46.724 28 28 46.724 9.276 28zM28 48L8 28 28 8l20 20-20 20zm-8.831-20.095l.005.001-.004.002.004.008-.005-.01zm.005.001l.128.022c.097.015.193.031.288.052.394.086.745.264.96.682.181.358.226.8.12 1.197-.107.396-.359.733-.684.91a1.952 1.952 0 01-.94.23c-.46.002-2.112 0-3 0h-.647v-.18c.465-.07.606-.362.601-.778v-4.084c-.006-.39-.124-.69-.568-.771V25s.045.002.068 0h.878c.9 0 1.76 0 2.695.012.216.008.43.056.634.14.846.327.96 1.573.327 2.193-.26.237-.55.426-.86.561zm-1.775.006s.567-.049.84-.099c.72-.132 1.077-.599 1.064-1.368-.01-.608-.261-1.018-.74-1.14a4.03 4.03 0 00-1.359-.044c-.208.01-.206.295-.205.453v.012L17 29.952c0 .928 1.282.954 1.92.692.41-.19.686-.69.664-1.2-.028-.596-.279-.994-.758-1.139a5.597 5.597 0 00-1.24-.189 9.008 9.008 0 01-.185-.008l-.002-.197zm9.304 2.906v.177H24.28v-.177l.202-.031c.242-.039.505-.123.5-.457.014-.149.02-.298.017-.448 0-1.339-.002-2.678-.005-4.017l-.001-.096c-.019-.377-.115-.495-.438-.541l-.191-.028-.047-.007V25h1.033c.954-.001 2.02-.002 2.868.005.227-.003.454.029.674.094.195.056.373.17.518.332.146.161.253.364.311.588.058.225.066.463.022.692a1.45 1.45 0 01-.271.614 1.996 1.996 0 01-.62.543l-.122.074.136.286c.11.234.22.466.332.695a7.961 7.961 0 001.043 1.636c.262.276.888.378 1.138.042.103-.138.12-.383.12-.564.002-1.35.002-2.712 0-4.063 0-.133-.01-.266-.029-.397a.407.407 0 00-.088-.222c-.096-.118-.3-.159-.444-.185V25h2.302v.171l-.058.011-.058.01c-.081.016-.163.03-.243.047a.335.335 0 00-.217.127.448.448 0 00-.095.26 3.945 3.945 0 00-.025.398c-.002 1.323-.002 2.66 0 3.982v.056c0 .179-.002.41.107.54.098.116.263.159.418.183l.047.007.035.005h.001l.048.007.077.012v.18h-.075c-.378-.001-.77 0-1.168.002-.69.002-1.394.005-2.05-.003-.358-.004-.721-.07-.99-.386a3.895 3.895 0 01-.47-.719c-.18-.346-.343-.705-.506-1.063a64.577 64.577 0 00-.115-.252.682.682 0 00-.222-.296.538.538 0 00-.323-.11 4.976 4.976 0 01-.394-.038l-.2-.023V27.9l.194-.014c.137-.01.272-.02.406-.035.26-.02.514-.1.745-.24.175-.108.318-.274.412-.478.094-.204.133-.436.114-.666a2.014 2.014 0 00-.053-.425 1.059 1.059 0 00-.31-.554.803.803 0 00-.535-.218c-.34-.027-1.102-.03-1.442-.01-.208.007-.272.098-.292.336a1.812 1.812 0 00-.004.143v4.242c.001.128.01.256.023.382.005.19.135.36.295.385a8.037 8.037 0 00.385.07zm7.88-2.748l-.3-.456c.09-.128.17-.243.253-.357.095-.132.188-.265.282-.399.22-.312.438-.624.672-.92.261-.378.631-.63 1.04-.712.064-.009.127-.02.19-.03h.001l.09-.014V25h-2.276v.183l.09.015c.078.013.153.026.227.044.206.05.245.149.119.338l-.123.185c-.33.494-.659.989-1.004 1.466-.224.308-.472.6-.844.664v.215a.652.652 0 01.372.105c.114.073.21.18.277.31.038.061.08.12.122.178l.068.096c.483.697.963 1.395 1.442 2.094a.237.237 0 00.087.083.197.197 0 00.111.023c.489-.005 1.469 0 1.469 0v-.196a1.003 1.003 0 01-.445-.146 1.188 1.188 0 01-.358-.343c-.301-.4-.597-.807-.882-1.223-.23-.335-.454-.676-.68-1.02zm6.142-1.639c-.128.08-.178.027-.23-.104-.318-.814-1.17-1.262-1.868-.99-.483.156-.885.822-.523 1.31.155.212.354.377.578.48.15.079.302.153.456.227.506.246 1.022.496 1.421.916.633.652.452 1.58.02 2.087-.427.472-1.005.625-1.591.643a3.125 3.125 0 01-1.611-.396c-.176-.096-.321-.217-.328-.452-.02-.232-.059-.461-.099-.696-.017-.102-.035-.205-.05-.31l.186-.058.06.141c.04.1.081.199.129.292.23.493.607.879 1.062 1.09.207.09.43.127.65.107.383-.034.83-.241.99-.652a.976.976 0 00.034-.591c-.128-.452-.638-.712-1.066-.929-.127-.065-.247-.126-.347-.187a13.823 13.823 0 00-.239-.14c-.498-.291-1.004-.586-1.207-1.21-.178-.614.05-1.315.558-1.642.442-.264.92-.356 1.416-.365.44-.008.878.043 1.308.152h.002c.07.017.134.032.147.143.03.246.064.492.098.738l.046.333a.326.326 0 01-.002.063zM21.375 25v.168l.017.003c.191.032.42.07.524.225.093.137.089.332.085.502l-.001.107a1665.5 1665.5 0 010 3.999c0 .15-.008.313-.024.448-.037.294-.335.344-.597.382V31h2.342v-.166l-.097-.012c-.263-.032-.565-.069-.6-.37A4.973 4.973 0 0123 29.9c-.002-1.295-.003-3.895-.003-3.895v-.05c.003-.47.004-.684.45-.746.067-.01.135-.018.202-.027l.077-.01V25h-2.351z" fill="#000"/></svg>