<!-- by TradingView --><svg width="56" height="56" xmlns="http://www.w3.org/2000/svg"><path fill="#ED1C24" d="M0 0h56v56H0z"/><path d="M12 14a2 2 0 012-2h28a2 2 0 012 2v28a2 2 0 01-2 2H14a2 2 0 01-2-2V14z" fill="#fff"/><path d="M15.5 15a.5.5 0 00-.5.5v12a.5.5 0 01-1 0v-12a1.5 1.5 0 013 0v5a.5.5 0 00.5.5h2.1a.4.4 0 00.4-.4v-6.1a.5.5 0 011 0v6.1c0 .22.18.4.4.4h2.1a.5.5 0 00.5-.5v-5a1.5 1.5 0 013 0v12a.5.5 0 01-1 0v-12a.5.5 0 00-1 0v5a1.5 1.5 0 01-1.5 1.5H21v1.6c0 .22.18.4.4.4h2.1a.5.5 0 010 1h-2.1a.4.4 0 00-.4.4v1.2c0 .22.18.4.4.4h3.1a.5.5 0 010 1h-8a.5.5 0 010-1h3.1a.4.4 0 00.4-.4v-1.2a.4.4 0 00-.4-.4h-2.1a.5.5 0 010-1h2.1a.4.4 0 00.4-.4V22h-2.5a1.5 1.5 0 01-1.5-1.5v-5a.5.5 0 00-.5-.5zM29 14.5a.5.5 0 01.5-.5h12a.5.5 0 010 1h-5.1a.4.4 0 00-.4.4v2.774c0 .52.774.826 1.404.826H40.6a.4.4 0 00.4-.4v-1.1a.5.5 0 011 0v8a2.5 2.5 0 01-2.5 2.5h-8a2.5 2.5 0 01-2.5-2.5v-8a.5.5 0 011 0v1.1c0 .22.18.4.4.4h3.196c.63 0 1.404-.288 1.404-.826V15.4a.4.4 0 00-.4-.4h-5.1a.5.5 0 01-.5-.5zm6.828 4.935a.53.53 0 00-.656 0 2.507 2.507 0 01-1.576.565H30.4a.4.4 0 00-.4.4v2.2c0 .22.18.4.4.4h10.2a.4.4 0 00.4-.4v-2.2a.4.4 0 00-.4-.4h-3.196a2.507 2.507 0 01-1.576-.565zM41 24.4a.4.4 0 00-.4-.4H30.4a.4.4 0 00-.4.4v1.1a1.5 1.5 0 001.5 1.5h8a1.5 1.5 0 001.5-1.5v-1.1zM14.5 29a.5.5 0 01.5.5v6.999a1.5 1.5 0 001 1.414V29.5a.5.5 0 011 0v8.413a1.5 1.5 0 001-1.414V29.5a.5.5 0 011 0v6.999a2.5 2.5 0 01-2 2.45V40h1.5a.5.5 0 010 1H17v.553a.5.5 0 11-1 0V41h-1.5a.5.5 0 010-1H16v-1.051a2.5 2.5 0 01-2-2.45V29.5a.5.5 0 01.5-.5zM19.988 30.489c0-.827.67-1.503 1.5-1.503H26.5a.5.5 0 110 1h-5.012a.503.503 0 000 1.006h3.019a2.5 2.5 0 012.5 2.5v7.03a1.5 1.5 0 01-1.5 1.5h-5.019a.5.5 0 110-1h5.019a.5.5 0 00.5-.5v-.475h-5.519a.5.5 0 110-1h5.519V37.5h-5.519a.5.5 0 110-1h5.519v-1.545h-5.519a.5.5 0 110-1h5.519v-.464a1.5 1.5 0 00-1.5-1.5h-3.019c-.83 0-1.5-.677-1.5-1.503zM29.5 29a.5.5 0 01.5.5v4a.5.5 0 01-1 0v-4a.5.5 0 01.5-.5zM31.5 35.004a.5.5 0 01.5.5V41.5a.5.5 0 01-1 0v-5.996a.5.5 0 01.5-.5zM33 33.45c0-.83.633-1.5 1.462-1.5h.07c.828 0 1.468.67 1.468 1.5v3.05c0 .828-.64 1.5-1.469 1.5a.531.531 0 00-.531.531V39h7v-.509a.487.487 0 00-.487-.487 1.51 1.51 0 01-1.513-1.5v-3.076a1.49 1.49 0 011.491-1.479c.817 0 1.509.662 1.509 1.479v7.086c0 .829-.702 1.486-1.53 1.486h-6.008C33.633 42 33 41.343 33 40.514V33.45zm7.513 3.554c.269 0 .487-.218.487-.487v-3.09c0-.264-.245-.478-.509-.478a.49.49 0 00-.491.479v3.076c0 .276.236.5.513.5zM41 40h-7v.514c0 .276.186.486.462.486h6.008c.276 0 .53-.21.53-.486V40zm-7-3.531c0 .293.238.531.531.531.276 0 .469-.224.469-.5v-3.05c0-.277-.193-.5-.469-.5h-.07c-.275 0-.461.223-.461.5v3.019z" fill="#ED1C24"/><path d="M31.5 29a.5.5 0 01.5.5v3.17a2.5 2.5 0 01-.734 1.77l-.826.824a1.5 1.5 0 00-.44 1.062V41.5a.5.5 0 01-1 0v-5.174c0-.664.264-1.3.734-1.77l.826-.824A1.5 1.5 0 0031 32.67V29.5a.5.5 0 01.5-.5zM36.033 29.547a4 4 0 012.945 0l3.269 1.296a.5.5 0 01-.369.93l-1.709-.677a1 1 0 00-1.14.294l-.573.695A2 2 0 0038 33.356v4.154a.5.5 0 11-1 0v-4.212a2 2 0 00-.404-1.206l-.543-.718a1 1 0 00-1.176-.323l-1.755.716a.497.497 0 11-.37-.923l3.281-1.297zm.527.838l.346.459a.8.8 0 001.256.026l.354-.43-.093-.036a2.594 2.594 0 00-1.863-.018z" fill="#ED1C24"/></svg>