<!-- by TradingView --><svg width="56" height="56" xmlns="http://www.w3.org/2000/svg"><path fill="#EE3E33" d="M0 0h56v56H0z"/><path d="M28.002 14c-5.148 0-10.024 1.337-13.73 3.766C10.229 20.416 8 24.05 8 27.999c0 3.95 2.228 7.584 6.273 10.235C17.978 40.663 22.853 42 28.002 42c5.147 0 10.022-1.338 13.728-3.768C45.773 35.583 48 31.948 48 28c0-3.948-2.227-7.583-6.271-10.232C38.024 15.337 33.149 14 28.002 14z" fill="#221F20"/><path d="M41.152 18.58C37.613 16.272 32.942 15 28.001 15c-4.942 0-9.613 1.271-13.153 3.58C11.077 21.037 9 24.383 9 27.998s2.077 6.961 5.848 9.421c3.54 2.308 8.21 3.58 13.153 3.58s9.613-1.272 13.152-3.581c3.77-2.458 5.847-5.804 5.847-9.42 0-3.616-2.077-6.96-5.848-9.42z" fill="#FEFEFE"/><path d="M40.547 19.37C37.18 17.197 32.724 16 28.002 16c-4.723 0-9.179 1.197-12.546 3.37C11.938 21.639 10 24.703 10 27.998c0 3.296 1.938 6.36 5.456 8.631C18.825 38.803 23.28 40 28.002 40c4.72 0 9.176-1.197 12.546-3.371 3.516-2.27 5.452-5.335 5.452-8.63 0-3.296-1.936-6.36-5.452-8.63" fill="#EE3E33"/><path d="M45.974 27.419l-.45-1.298c-.026-.03-.037-.065-.073-.089a.192.192 0 00-.108-.032H37v-.404c0-.957-.193-4.347 1.308-4.347 1.5 0 2.046.654 3.118 2.707.288.553.557 1.115.779 1.64.007.038.04.074.071.096a.192.192 0 00.111.034l1.416-.031c.05 0 .099-.02.135-.056a.198.198 0 00.062-.135v-6.31a.192.192 0 00-.02-.076l-.47-1.032a.193.193 0 00-.178-.118L41.844 18a.197.197 0 00-.119.04l-1.53 1.16c-1.09-.796-2.392-1.2-3.875-1.2-2.575 0-6.219 1.777-7.249 6.468-.33-.512-.953-.9-1.801-.9a2.92 2.92 0 00-1.179.228c-.008-.732-.08-2.18-.39-2.84-.407-.837-.834-1.438-1.628-1.992-.88-.614-2.195-.964-3.482-.964H10.177c-.1 0-.176.08-.177.181v1.815l.556 1.171a.192.192 0 00.107.032l.337.012V34h-.808c-.05 0-.1.03-.135.065A.193.193 0 0010 34.2v1.579c0 .061.006.105.033.158.117.294.27.673.43.953a.234.234 0 00.073.082.19.19 0 00.106.032h8.409c.144 0 .293 0 .446.003h.507c1.422 0 2.903-.08 4.113-.67 1.505-.734 2.289-2.622 2.289-4.6 0-.219-.014-.427-.037-.627.417-.002.849-.09 1.356-.276.365.182.628.276 1.06.276.169 0 .495-.08.662-.11.477 1.272 1 2.5 1.892 3.541C32.716 36.15 34.609 37 36.811 37c1.438 0 3.224-.378 5.719-1.543.642-.306 1.259-.457 1.939-.457h.32c.098.001.21-.08.211-.181V29h.8c.106 0 .2-.108.2-.214v-1.288a.193.193 0 00-.026-.08z" fill="#221F20"/><path d="M37.004 27L37 28h1v4.1c0 1.305.127 3.295-1 3.295-.94 0-1-1.433-1-2.424v-7.623c0-2.28-.345-5.24 2.14-5.24 2.011 0 3.64 2.492 4.4 4.585H43V19h-.65l-1.782 1.341c-1.16-.966-2.522-1.341-3.91-1.341-2.85 0-6.445 2.226-6.883 7.657h.768c.477 0 .864.38.864.849v.113c0 .356-.254.678-.622.796a3.65 3.65 0 01-.09.377c.185.029.353.11.479.235a.839.839 0 01.247.595l-.001.026c-.022.862-.142 1.354-.877 1.653C31.623 34.116 33.968 36 37 36c1.33 0 1.71-.186 4.228-1.355C41.932 34.313 43.222 34 44 34v-6h1v-1h-7.996zM20 32.638C20 34.093 19.508 35 18.099 35H17v-7h.754c.927 0 2.246.415 2.246 1.619v3.019zm-3-12.637h.754C18.7 20 20 20.477 20 21.855v3.206C20 26.383 18.823 27 18.099 27H17v-7zm6.756 9.309c0-.478.124-.864.31-1.18-.55-.35-1.194-.552-1.843-.628A20.95 20.95 0 0021 27.386V27c1.821-.046 4.327-.857 4.327-3.67 0-2.949-2.64-4.33-4.551-4.33H11v1h1v15h-1v1h7.75c2.524 0 6.698-.226 6.883-4.474-1.235-.323-1.877-1.274-1.877-2.216z" fill="#FEFEFE"/><path d="M27.487 24.957c.372 0 .452.3.452.551 0 .38-.13.642-.404.839-.148-.374-.295-.757-.295-1.12 0-.27.172-.27.247-.27zm-.758 4.517a3.732 3.732 0 01-.54-.818c-.151-.31-.252-.61-.252-.805 0-.114.037-.192.21-.293.372.712.825 1.498 1.453 2.24a.846.846 0 01-.163.026c-.344 0-.475-.1-.708-.35zm3.47-.447l-.034.156c-.113.549-.213.549-.288.549-.098 0-.244-.02-.528-.353a2.892 2.892 0 00.83-1.659c.034-.238.034-.238.377-.263l.187-.013v-.479H28.83v.487l.195.007c.509.017.509.18.509.26 0 .304-.24.836-.558 1.185-.41-.587-.747-1.198-1.064-1.796l-.142-.263c.718-.304 1.169-.779 1.169-1.29 0-.461-.442-1.108-1.429-1.108-1.25 0-1.81.733-1.81 1.46 0 .413.156.91.245 1.162-.92.442-1.525.94-1.525 1.846 0 .79.677 1.638 2.157 1.638.484 0 .965-.12 1.466-.336.293.21.709.336 1.155.336.966 0 1.535-.485 1.557-1.33l.006-.196h-.563z" fill="#FEFEFE"/></svg>