<!-- by TradingView --><svg xmlns="http://www.w3.org/2000/svg" width="56" height="56"><path fill="#F0F3FA" d="M0 0h56v56H0z"/><path d="M14.77 24h-3.5c-.14 0-.27 0-.27-.1 0 0 0-.1.25-.13s.75-.14.75-.48v-3.54c0-.43-.54-.48-.75-.5h-.03c-.17-.02-.22-.05-.22-.14 0-.1.2-.11.37-.11h3.05c.63 0 2.18.12 2.18 1.26 0 .5-.28.78-.62 1l.06.01c.34.1.96.28.96 1.28C17 23.8 15.65 24 14.77 24zm-1.63-4.57c-.05 0-.14.03-.14.14v1.56h1.64c.42 0 .97-.15.97-.86 0-.7-.68-.84-1.21-.84h-1.26zm1.92 2.12H13v1.87c0 .12.1.16.16.16h1.77c.4 0 1.07-.14 1.07-1.03 0-.8-.5-1-.94-1zM19 22.96c0 .25.04.5.07.58.08.18.33.26.46.26.03 0 .29.01.29.1 0 .1-.13.1-.25.1h-2.12c-.12 0-.25 0-.25-.1 0-.09.26-.1.29-.1.13 0 .38-.09.46-.26.03-.08.05-.25.05-.58v-2.1c0-.21-.02-.34-.05-.4-.08-.18-.33-.26-.46-.26-.03 0-.29-.01-.29-.1 0-.1.13-.1.25-.1h2.12c.12 0 .25 0 .25.1 0 .09-.26.1-.29.1-.13 0-.38.08-.46.26l-.02.04c-.03.05-.05.1-.05.36v2.1zm12.04 8.58a2.37 2.37 0 01-.04-.58v-2.1c0-.3.02-.34.05-.4v-.03c.1-.16.35-.2.5-.23h.08c.1-.02.2-.03.2-.1 0-.1-.13-.1-.25-.1h-2.12c-.12 0-.25 0-.25.1 0 .06.09.08.19.09l.1.01c.13.03.38.08.46.26.02.06.04.19.04.4v2.1a2 2 0 01-.04.58c-.08.18-.3.23-.46.26h-.08c-.12.02-.2.03-.2.1 0 .1.12.1.24.1h2.12c.12 0 .25 0 .25-.1 0-.07-.11-.08-.22-.1h-.07c-.11-.02-.42-.08-.5-.26zM24 37.98v.05c0 .23 0 .46.03.52.07.16.46.22.63.24h.05l.07.02c.1 0 .22.02.22.1 0 .09-.13.09-.26.09h-2.5c-.11 0-.24 0-.24-.1 0-.07.08-.08.2-.1h.12c.18-.03.55-.08.63-.25.03-.08.05-.24.05-.57v-2.15c0-.2-.03-.33-.05-.4-.07-.14-.38-.19-.56-.21l-.1-.02-.1-.01c-.1-.01-.2-.03-.2-.1 0-.09.14-.09.26-.09h2.5c.12 0 .25 0 .25.1 0 .07-.1.08-.2.1h-.09l-.1.02c-.18.02-.49.05-.57.19-.03.08-.04.1-.04.42v2.15zM44 23v-2.15c0-.31.01-.34.04-.42.1-.17.35-.21.5-.24h.07c.1-.02.19-.03.19-.1 0-.1-.11-.1-.23-.1h-2.12c-.12 0-.25 0-.25.1 0 .06.09.08.19.09l.1.01c.12.03.38.08.46.26.02.06.05.19.05.4v2.1c0 .33-.02.5-.05.58-.08.18-.3.23-.47.26h-.08c-.12.02-.2.03-.2.1 0 .1.13.1.25.1h2.12c.12 0 .23 0 .23-.1 0-.07-.1-.08-.2-.1h-.07c-.11-.02-.42-.08-.5-.26-.03-.07-.03-.3-.03-.53zm-16.35.47c0 .17.47.17.74.16h.07c.5 0 1.24-.08 1.36-.8 0-.09.05-.1.09-.1.05 0 .09.02.09.08 0 .27-.02.58-.07.83 0 .37-1.36.35-1.5.35h-2.21c-.1 0-.22 0-.22-.1 0-.09.23-.1.25-.1.11 0 .34-.09.4-.26.04-.08.04-.25.04-.58v-1.92c0-.33 0-.5-.03-.58-.07-.18-.3-.26-.41-.26-.02 0-.25-.01-.25-.1 0-.1.11-.1.22-.1h1.89c.1 0 .22 0 .22.1 0 .09-.23.1-.25.1-.12 0-.32.08-.4.26-.02.08-.04.25-.04.58v2.44zm-5.84 8.16c-.23 0-.81 0-.81-.1v-2.5c0-.34 0-.5.04-.58a.44.44 0 01.38-.26c.03 0 .25-.01.25-.1 0-.1-.11-.1-.22-.1h-1.9c-.11 0-.23 0-.23.1 0 .09.23.1.25.1.12 0 .34.08.4.26.03.06.03.19.03.4v2.29c0 .22 0 .32-.02.39-.07.17-.3.26-.4.26-.03 0-.26.01-.26.1 0 .1.12.1.22.1h2.22c.04 0 1.48 0 1.68-.36.06-.27.06-.56.06-.83 0-.06-.07-.09-.12-.09-.04 0-.09.02-.09.12-.11.71-.99.8-1.48.8zM36 23.9c0 .1-.1.1-.2.1h-1.72c-.11 0-.37 0-.37-.13 0-.06.1-.08.2-.1.13-.04.29-.08.29-.2a.55.55 0 00-.07-.23l-.44-.85h-1.72l-.29.51c-.1.17-.13.3-.13.4 0 .3.27.37.46.43.1.04.18.06.18.1 0 .04-.04.07-.08.07h-1.97c-.12 0-.14-.05-.14-.08 0-.06.14-.1.2-.11h.01c.4-.09.74-.41 1-.88l1.36-2.51c-.1-.16-.34-.24-.52-.24-.05 0-.07-.05-.07-.1 0-.04.02-.08.07-.08h.64c.31 0 .6.04.73.27l1.13 2.09c.24.46.39.72.52.92.33.47.63.52.8.54.08.02.13.03.13.08zm-3.16-3l-.67 1.22h1.32l-.65-1.22zm4.16.06V23c0 .32 0 .48-.03.56-.07.17-.3.25-.41.25-.03 0-.26.02-.26.1 0 .1.1.1.2.1h2.01c.1 0 .2 0 .2-.1 0-.08-.23-.1-.25-.1-.12 0-.34-.08-.42-.25a2.1 2.1 0 01-.04-.58V22h.98l.02.06.07.13c.25.42.53.92.85 1.27.48.55 1.31 1.14 1.88 1.14h.1c.13 0 .38-.05.38-.15 0-.05-.03-.05-.11-.07-.03 0-.07 0-.11-.02a2.35 2.35 0 01-1.01-.62 8.68 8.68 0 01-1.2-1.74l-.02-.04c.48-.13.84-.38.84-.94 0-1.02-1.22-1.02-1.9-1.02h-2.24c-.11 0-.23 0-.23.1 0 .07.1.08.18.1h.08c.1.03.34.08.41.26a2 2 0 01.03.5zm1.27.64H38v-1.2h.84c.35 0 .91.06.91.62 0 .55-.48.59-.84.59h-.64zM9 29h3v-1c0-.3-.01-.45-.04-.54-.07-.18-.59-.25-.7-.25-.02 0-.26-.02-.26-.11 0-.1.12-.1.23-.1h2.55c.1 0 .22 0 .22.1 0 .09-.23.1-.25.1-.11 0-.62.09-.69.26A1.7 1.7 0 0013 28v2.95c0 .34.03.5.06.59.07.18.58.25.69.25.02 0 .25.02.25.11 0 .1-.11.1-.22.1h-2.54c-.1 0-.24 0-.24-.1 0-.09.25-.1.27-.1.12 0 .61-.09.69-.26.02-.07.04-.2.04-.45v-1.64H9v1.54c0 .3 0 .47.03.55.07.18.6.25.72.25.02 0 .25.02.25.11 0 .1-.11.1-.22.1H7.24c-.1 0-.24 0-.24-.1 0-.09.25-.1.27-.1.12 0 .63-.09.7-.26.03-.08.03-.24.03-.55v-3.02c0-.28 0-.43-.03-.5-.07-.19-.6-.26-.7-.26-.03 0-.27-.02-.27-.11 0-.1.13-.1.23-.1h2.55c.1 0 .22 0 .22.1 0 .09-.23.1-.25.1-.11 0-.65.09-.72.27-.03.07-.03.22-.03.5V29zm7.26 3h.05c1.13 0 2.69-.6 2.69-2.1 0-1.27-1.38-1.9-2.32-1.9-1.1 0-2.4.62-2.66 1.83l-.02.27c.03 1.21 1.25 1.9 2.26 1.9zm.15-3.6c.8 0 1.59.72 1.59 1.7 0 .91-.63 1.5-1.34 1.5-.86 0-1.66-.68-1.66-1.7 0-.8.62-1.5 1.41-1.5zm7.49-.4h2.3c1.13 0 2.8.4 2.8 2.01 0 1.48-1.55 2-2.63 2H23.9c-.12 0-.14 0-.16-.05-.04-.04-.04-.05-.04-.06 0-.09.2-.1.23-.1.36 0 .45-.36.45-.8v-2.05c0-.41-.1-.75-.45-.75-.03 0-.23-.02-.23-.1l.04-.07c.02-.03.04-.03.16-.03zm2.46.4h-.87c-.07 0-.11 0-.11.09v3c0 .07.09.11.1.11h1.04c.7 0 1.48-.62 1.48-1.6 0-1.04-.88-1.6-1.64-1.6zm6.15-.2c.37 0 .5.34.5.75v1.99c0 .32-.02.53-.06.61-.08.18-.32.26-.45.26-.03 0-.28.01-.28.1 0 .1.1.1.22.09h1.64c.1 0 .22 0 .22-.09s-.26-.1-.28-.1c-.13 0-.38-.08-.46-.26a2.24 2.24 0 01-.05-.61v-2.12l3.22 3c.1.1.3.18.48.18.17 0 .3-.06.3-.24v-2.73c0-.33.02-.5.05-.57.08-.18.33-.26.46-.26.02 0 .28-.02.28-.1 0-.1-.13-.1-.25-.1h-1.59c-.12 0-.24 0-.24.1 0 .08.25.1.28.1.12 0 .37.08.45.26.03.06.05.18.05.4v2.07l-2.72-2.53c-.24-.22-.47-.4-.86-.4h-.94c-.13 0-.21 0-.21.1 0 .08.2.1.24.1zM26 36.71c0-.3-.07-.56-.36-.56-.02 0-.18-.01-.18-.08s.07-.07.16-.07h.7c.3 0 .47.13.65.3L29 38.12v-1.48a.86.86 0 00-.04-.3.32.32 0 00-.27-.19c-.09 0-.21-.01-.21-.08s.1-.07.18-.07h1.15c.09 0 .19 0 .19.07s-.07.08-.2.08c-.12 0-.22.06-.28.2a1.4 1.4 0 00-.04.42v2.05c0 .13-.14.18-.27.18-.14 0-.2-.07-.28-.14l-2.44-2.15v1.5c0 .24.01.4.04.45.06.14.17.17.28.2a1 1 0 00.07 0c.07.02.12.02.12.07 0 .07-.07.07-.15.07h-1.26c-.08 0-.16 0-.16-.07 0-.05.05-.05.13-.06l.08-.02c.1-.02.28-.06.34-.19.02-.05.02-.18.02-.39v-1.56zm18.94-4.94a5.9 5.9 0 001.75.23c.8 0 2.32-.24 2.31-1.31 0-.27-.2-.52-.46-.71-.46-.33-1-.38-1.56-.43-.39-.04-.78-.08-1.15-.2-.23-.1-.39-.22-.39-.42 0-.51 1.05-.55 1.39-.55.76 0 1.38.18 1.58.92.02.05.07.08.11.08.1 0 .2-.08.2-.27v-.42c0-.37-.04-.4-.12-.4-.08 0-.14-.04-.2-.06l-.09-.04a5.95 5.95 0 00-1.64-.2c-.85 0-2.17.33-2.17 1.16 0 .83 1.42 1 1.98 1.04l.2.03c.62.08 1.32.17 1.32.71 0 .6-.98.7-1.4.7-.77 0-1.35-.1-1.58-.91-.02-.07-.05-.1-.08-.1-.1 0-.23.17-.23.37v.63c0 .13.05.15.23.15zM32.71 38.7c.33 0 .65-.1.9-.33.06-.06.13-.18.19-.28.06-.1.11-.2.14-.2.06 0 .06.1.06.27v.3c0 .29-.05.3-.27.37l-.05.01h-.02c-.29.1-.63.15-.94.15-.96 0-2.22-.36-2.22-1.5 0-1.06 1.23-1.5 2.17-1.5.36 0 .71.04.99.14l.19.03c.11.01.14.01.14.3v.36c0 .11 0 .26-.05.26-.02 0-.1-.02-.12-.07-.17-.62-.69-.74-1.13-.74-.7 0-1.38.44-1.38 1.22 0 .8.68 1.21 1.4 1.21zm1.97.29a.33.33 0 100-.66.33.33 0 000 .66zM25 23.36c0 .52-1.42.64-1.99.64-1.17 0-2.99-.37-2.99-2 0-1.49 1.8-2 2.97-2 .57 0 1.1.07 1.6.24a.37.37 0 01.12-.03c.1 0 .13.11.13.48v.1c0 .35 0 .64-.16.64-.03 0-.07-.02-.08-.07-.22-.88-.84-1-1.6-1-.9 0-2 .6-2 1.64 0 1.14 1.18 1.63 1.98 1.63.36 0 .8-.1 1.02-.28v-.43c0-.31-.02-.41-.09-.56-.05-.12-.14-.14-.24-.16l-.06-.01-.12-.02c-.1-.01-.19-.02-.19-.08 0-.09.19-.09.3-.09h1.78c.12 0 .22 0 .22.09 0 .06-.12.07-.21.09h-.1v.01a.34.34 0 00-.24.17c-.05.11-.05.22-.05.44v.56zM41.41 32c.57 0 2-.12 2-.64v-.44l-.01-.12c0-.23 0-.33.06-.44.06-.13.18-.16.23-.17l.1-.02c.1 0 .21-.02.21-.08 0-.1-.1-.1-.22-.1h-1.77c-.12 0-.3 0-.3.1 0 .06.08.07.18.08l.12.02.06.01c.1.02.2.04.24.16.07.15.1.25.1.56v.43c-.24.18-.67.28-1.03.28-.8 0-1.98-.5-1.98-1.63 0-1.04 1.1-1.64 2-1.64.76 0 1.39.12 1.6 1 .01.05.05.07.08.07.17 0 .17-.29.16-.65v-.09c0-.37-.03-.48-.13-.48a.38.38 0 00-.11.03 4.9 4.9 0 00-1.61-.24c-1.17 0-2.97.5-2.97 2 0 1.63 1.83 2 3 2z" fill="#58595B"/></svg>