<!-- by TradingView --><svg width="56" height="56" xmlns="http://www.w3.org/2000/svg"><path fill="#00A1E3" d="M0 0h56v56H0z"/><path d="M10.604 24.388c.71-.254 1.098-.724 1.098-1.543v-.01c0-1.23-.98-1.835-3.25-1.835H5v7h3.698c2.143 0 3.208-.674 3.208-2.04 0-.867-.458-1.338-1.302-1.572zM7 22.513h1.463c.789 0 1.098.166 1.098.595v.01c0 .44-.352.616-1.077.616H7v-1.22zm2.668 3.116c0 .44-.287.621-1.311.621H7V25h1.378c.97 0 1.29.154 1.29.613v.016zM14.936 21l-2.95 7h2.218l.458-1h2.867l.48 1h2.216l-2.987-7h-2.302zm.298 4.5l.842-2.47.864 2.47h-1.706zM25 24.72c0 1.2-.616 1.603-1.468 1.603-.83 0-1.532-.433-1.532-1.603V21h-2v3.779c0 2.391 1.138 3.444 3.533 3.444C25.76 28.223 27 27.18 27 24.78V21h-2v3.72zM31.876 23.701c-1.205-.158-1.791-.258-1.791-.723 0-.346.288-.604 1.026-.604.61 0 1.225.032 1.3.626h2.203c-.17-1.603-1.332-2.18-3.463-2.18-2.11 0-3.24.92-3.24 2.257 0 1.515 1.215 1.92 2.717 2.126 1.269.159 1.93.258 1.93.783 0 .405-.352.643-1.12.643-.895 0-1.364-.326-1.428-.97v-.03h-2.312v.01c.128 1.703 1.065 2.614 3.655 2.614 2.249 0 3.378-.953 3.378-2.376 0-1.533-1.277-1.968-2.855-2.176zM40.656 25c-.085.817-.501 1.443-1.439 1.443-1.012 0-1.535-.547-1.535-1.682v-.408c0-1.184.534-1.741 1.545-1.741.918 0 1.342.612 1.421 1.388h2.324c-.152-1.982-1.567-3.18-3.745-3.18-2.28 0-3.772 1.184-3.772 3.454v.566c0 2.33 1.386 3.434 3.71 3.434 2.323 0 3.687-1.194 3.836-3.274h-2.345z" fill="#fff"/><path d="M50.987 21v2.5H49V21h1.987zM49 25.5v-2h-3V21h-2v7h2v-2.5h3zm1.987 0V28H49v-2.5h1.987zm.013 0h2v-2h-2v2z" fill="#fff"/><path d="M10 33H6v-3H5v7h1v-3h4v3h1v-7h-1v3zM14.865 31.4c-1.835 0-2.986 1.144-2.986 2.885v.115c0 1.702.995 2.788 2.954 2.788 1.462 0 2.468-.77 2.81-1.906h-.919c-.228.644-.988 1.116-1.849 1.116-1.223 0-1.928-.541-2-1.666h4.851c0-1.835-.925-3.332-2.861-3.332zm-1.98 2.6c.124-1.068.85-1.84 1.99-1.84 1.14 0 1.762.801 1.849 1.84h-3.84zM21.381 31.4c-1.728 0-2.77.953-2.866 2.144h1.038c.064-.77.684-1.413 1.871-1.413 1.1 0 1.583.413 1.583.988 0 .51-.6.605-1.668.74-1.23.164-1.733.27-2.224.558a1.58 1.58 0 00-.589.56 1.38 1.38 0 00-.2.75c0 .885.684 1.462 1.999 1.462 1.359 0 2.3-.664 2.727-1.51L23.17 37H24v-3.734c-.002-1.097-.8-1.866-2.619-1.866zm1.637 3.048c0 .923-.974 2-2.374 2-.802 0-1.21-.327-1.21-.837 0-.316.14-.547.45-.73.332-.202.749-.288 1.68-.424.662-.096 1.177-.202 1.454-.413v.404zM25 33.477V37h1v-7h-1v3.477zM29 30h-.798c-.021.434-.096.929-.598.984-.157.04-.412.02-.604.02V32h1v2.789c0 1.664.472 2.211 2.108 2.211H31v-1h-.658C29.252 36 29 35.856 29 34.651V32h2v-.996h-2V30zM34.897 31.47c-.975 0-1.559.49-1.897 1.234V30h-1v7h1v-2.826c0-1.112.506-1.904 1.558-1.904 1.082 0 1.442.689 1.442 1.668V37h1v-3.288c0-1.366-.694-2.242-2.103-2.242z" fill="#fff"/></svg>