<!-- by TradingView --><svg width="56" height="56" xmlns="http://www.w3.org/2000/svg"><path fill="#00659F" d="M0 0h56v56H0z"/><path d="M4 31v-6l5 3.007L4 31zM10 30.999V25h2.817c1.019 0 1.677.621 1.688 1.582.008.768-.457 1.11-.69 1.186.772.37.888 1.148.849 1.491-.009 1.446-1.299 1.762-1.943 1.74H10z" fill="#fff"/><path d="M12.725 26H11v1.352c.466.004 1.469.01 1.725 0 .32-.011.734-.146.734-.709 0-.45-.49-.64-.734-.643zM12.893 28.376H11V30c.514.005 1.61.012 1.893 0 .352-.014.81-.177.81-.893 0-.573-.54-.726-.81-.73z" fill="#00659F"/><path d="M17.11 27c1.611-.012 1.929 1.5 1.886 2.258H16c.009.52.557.986 1.11.955.441-.025.654-.285.705-.412h1.13c-.333 1.006-1.362 1.216-1.836 1.195-1.887 0-2.09-1.528-2.108-1.97-.017-.443.094-2.01 2.108-2.026z" fill="#fff"/><path d="M17.005 27.806a.98.98 0 00-1.005.823h2c-.034-.29-.241-.823-.995-.823z" fill="#00659F"/><path d="M20 27v3.998h1c.003-.739.007-2.094 0-2.247-.009-.19.37-.736 1.101-.751.586-.012.896.396.899.62v2.378h.989c.008-.774.02-2.414 0-2.779-.026-.457-.345-1.188-1.387-1.218-.834-.024-1.456.447-1.602.685V27h-1zM27.067 27.011c1.434 0 1.914.948 1.933 1.44l-.983.139c-.029-.218-.468-.592-1.011-.592-.544 0-.997.366-1.006.97-.01.602.435 1.032 1.067 1.032.633 0 .918-.39.95-.603l.983.12c0 .081-.349 1.483-1.933 1.483-1.445 0-2.064-1.188-2.064-2.033 0-.772.51-1.956 2.064-1.956zM29.998 30.998V25H31v2.55c.257-.37 1-.55 1.53-.55 1 0 1.438.74 1.468 1.121v2.877H33v-2.183c0-.364-.264-.815-.972-.815-.71 0-1.015.569-1.028.815v2.183h-1.002zM36 31.005h-1V27l1 .006v.68c.084-.227.28-.686.887-.686.606 0 .911.42.988.628.268-.531.79-.642 1.018-.628.85-.033 1.092.805 1.107 1.225v2.78h-1v-2.307c0-.24-.013-.702-.453-.702s-.544.461-.547.702v2.306h-1v-2.306c.02-.213-.008-.702-.477-.702-.47 0-.52.489-.523.702v2.306zM42.642 27.005c-1.513 0-1.866.865-1.855 1.346h1.006c.103-.424.493-.535.802-.557.31-.023.673.157.673.462 0 .305-.88.408-1.522.452-.642.045-1.118.543-1.102 1.198.016.655.539 1.079 1.355 1.094.654.012 1.044-.243 1.158-.372l.11.372h1.017v-2.336c0-.546-.175-1.66-1.642-1.66z" fill="#fff"/><path d="M42.204 30.278c1.13-.053 1.206-.832 1.102-1.215-.196.125-.88.24-1.196.282a.516.516 0 00-.49.489c-.03.373.377.451.584.444z" fill="#00659F"/><path d="M45 31v-4h1v.567c.366-.544.776-.597 1-.556V28c-.852-.14-.997.512-1 .835V31h-1zM48 30.998V25h1v3.511l1.703-1.48H52l-1.414 1.48L52 30.998h-1.18l-1.077-1.788-.743.556v1.232h-1z" fill="#fff"/></svg>