<!-- by TradingView --><svg width="56" height="56" xmlns="http://www.w3.org/2000/svg"><path fill="#E65400" d="M0 0h56v56H0z"/><path d="M29.536 17.866c2.103 0 4.278 1.706 4.278 4.313 0 3.215-2.508 3.434-3.33 5.886-.799 2.372 1.261 4.607 1.261 7.244 0 3.368-2.73 5.691-5.554 5.691-3.006 0-5.59-2.37-5.59-5.68 0-5.1 4.938-5.241 5.451-8.232.399-2.326-.693-2.967-.693-4.937 0-2.517 2.198-4.285 4.177-4.285zm10.132-.532c-1.667 3.876-4.883 12.404-6.148 16.506-.858 2.782.658 6.253 3.467 6.981 3.514.909 5.91-1.865 6.518-4.05.596-2.143 2.813-12.306 3.45-17.17.29-2.213-.852-3.908-2.753-4.449-1.923-.547-3.779.428-4.534 2.182zM9 35.514c0 2.873 2.277 5.203 5.087 5.203 2.808 0 5.085-2.33 5.085-5.202 0-2.873-2.277-5.203-5.085-5.203-2.81 0-5.087 2.33-5.087 5.203zm5.092-10.037c0 1.992 1.58 3.608 3.528 3.608 1.947 0 3.528-1.616 3.528-3.607 0-1.992-1.58-3.606-3.527-3.606-1.95 0-3.53 1.614-3.53 3.605z" fill="#fff"/></svg>