<!-- by TradingView --><svg width="56" height="56" fill="none" xmlns="http://www.w3.org/2000/svg"><path fill="#174EC9" d="M0 0h56v56H0z"/><path d="M14.575 25.71l-2.085-1.204v-2.408l2.085-1.205 2.084 1.205v2.408l-2.084 1.204zm0-5.21l-2.426 1.4v2.802l2.426 1.401L17 24.702V21.9l-2.425-1.4z" fill="#fff"/><path d="M17.15 16.251l2.101 1.213v2.426l-2.1 1.213-2.102-1.213v-2.426l2.101-1.213zm0 5.249l2.445-1.412v-2.822l-2.445-1.411-2.444 1.411v2.823l2.445 1.41zM14.5 37.846l-2.1-1.213v-2.426l2.1-1.214 2.101 1.213v2.427l-2.1 1.213zm0-5.249l-2.444 1.411v2.823l2.445 1.411 2.444-1.411v-2.823l-2.445-1.41z" fill="#58BD2B"/><path d="M7.5 24a.5.5 0 01.5.5v7a.5.5 0 01-1 0v-7a.5.5 0 01.5-.5z" fill="#fff"/><path d="M12.08 29.25a2.25 2.25 0 11-4.5 0 2.25 2.25 0 014.5 0zM20.75 29.25a2.25 2.25 0 11-4.5 0 2.25 2.25 0 014.5 0zM33.5 29.25a2.25 2.25 0 11-4.5 0 2.25 2.25 0 014.5 0z" stroke="#fff"/><path d="M14.5 26.5a.5.5 0 01.5.5v4.5a.5.5 0 01-1 0V27a.5.5 0 01.5-.5zM23.5 24a.5.5 0 01.5.5v2.564c.445-.299.98-.439 1.5-.439.598 0 1.217.186 1.695.585.49.408.805 1.018.805 1.79v2.5a.5.5 0 01-1 0V29c0-.478-.185-.805-.445-1.022-.272-.227-.653-.353-1.055-.353-.402 0-.783.127-1.055.353-.26.217-.445.544-.445 1.022v2.5a.5.5 0 01-1 0v-7a.5.5 0 01.5-.5zM33.5 26.5a.5.5 0 01.5.5v4.5a.5.5 0 01-1 0V27a.5.5 0 01.5-.5zM34.797 26.543a.5.5 0 01.66.254L37 30.269l1.543-3.472a.5.5 0 11.914.406l-2 4.5a.5.5 0 01-.914 0l-2-4.5a.5.5 0 01.254-.66zM39.864 30.117c-.41-1.703.748-3.617 2.636-3.617.836 0 1.555.272 2.074.79.516.516.79 1.231.823 2.04a.645.645 0 01-.647.67h-3.879c.203.575.848 1 1.63 1h.006c.358 0 .808 0 1.368-.48a.5.5 0 11.65.76c-.836.717-1.587.72-2.025.72-1.167 0-2.348-.687-2.636-1.883M40.818 29h3.54c-.076-.428-.251-.763-.491-1.002-.303-.303-.753-.498-1.367-.498-.833 0-1.515.661-1.682 1.5zM50.209 27.01c.498.447.791 1.123.791 1.99v2.5a.5.5 0 11-1 0V29c0-.633-.207-1.02-.459-1.245-.259-.232-.62-.343-1.01-.319C47.735 27.486 47 28.07 47 29v2.5a.5.5 0 11-1 0V27a.5.5 0 011-.022 2.773 2.773 0 011.469-.54c.61-.038 1.249.133 1.74.572z" fill="#fff"/></svg>