<!-- by TradingView --><svg width="56" height="56" xmlns="http://www.w3.org/2000/svg"><path fill="#F15C22" d="M0 0h56v56H0z"/><path d="M9.707 28.384v-.069c.731-.243 1.097-.994 1.097-1.757 0-2.012-1.65-2.558-3.269-2.558H4v9h4.133C9.597 33 11 32.329 11 30.537c0-1.04-.384-1.817-1.293-2.153zM7 26.246c.443 0 1-.046 1 .601 0 .601-.465.648-.908.648H7v-1.249zm.158 4.532H7v-1.446h.114c.488 0 1.263-.01 1.263.718 0 .716-.72.728-1.219.728zm40.048-.095a27.13 27.13 0 01.074-1.666c-.374-.639-1.047-1.004-1.737-1.318l-.527-.241c-.275-.129-.562-.264-.783-.447-.214-.178-.547-.503-.489-1.012-.008.053 0-.057 0 0 .059-.51.49-.999 1.256-.999.767 0 1.094.278 1.386.804l.062.112.046.083.126-.083.743-.343-.09-.175c-.46-.881-1.28-1.398-2.246-1.398-1.23 0-2.367.836-2.437 2.19a2.265 2.265 0 00-.003.134c0 1.331.998 1.82 1.928 2.26l.485.218c.77.366 1.281.703 1.281 1.511 0 .798-.652 1.686-1.413 1.686-.736 0-1.47-.62-1.574-1.38l-.033-.243-1.122.114.039.196c.273 1.38 1.306 2.314 2.69 2.314a2.69 2.69 0 002.345-1.358 13.54 13.54 0 01-.006-.266l-.007-.424h.002c.002-.062.004-.27.004-.27zM12 33h3v-9h-3v9zm15-9h-1v9h3v-1h-2v-8zm15 0h-5v1h2v8h1v-8h2v-1zm-8.87 0C30.745 24 29 26.006 29 28.5c0 2.506 1.744 4.5 4.13 4.5 2.387 0 3.9-1.983 3.9-4.49 0-2.492-1.512-4.51-3.9-4.51zm0 8c-1.819 0-3.168-1.51-3.13-3.49.038-1.979 1.311-3.54 3.13-3.51 1.82.03 2.848 1.531 2.87 3.51.022 1.98-1.05 3.49-2.87 3.49zM20 30h1.735c-.14.315-.63.537-1.107.537-.985 0-1.628-.885-1.628-1.844 0-1.05.544-2.02 1.628-2.02.487 0 .919.23 1.151.67l2.834-1.085c-.654-1.49-2.645-2.24-4.096-2.24-2.622 0-4.517 1.653-4.517 4.492 0 2.795 1.95 4.49 4.495 4.49 1.296 0 2.657-.543 3.542-1.548.985-1.108.94-2.032.963-3.452h-5v2z" fill="#fff"/><path d="M47.61 30.304c.035-2.493.441-5.442 1.204-7.304l3.186.663c-1.21 2.008-2.026 4.63-2.462 6.937l-1.928-.296zm.11 2.458a17.176 17.176 0 01-.109-1.735l1.801.296c-.094.594-.162 1.159-.203 1.677l-1.49-.238z" fill="#fff"/></svg>