<!-- by TradingView --><svg xmlns="http://www.w3.org/2000/svg" width="56" height="56"><path fill="#F0F3FA" d="M0 0h56v56H0z"/><path fill-rule="evenodd" d="M9.25 23H6v10h3.75a2.75 2.75 0 001.3-5.17A2.75 2.75 0 009.25 23zM7 24h2.25a1.75 1.75 0 110 3.5H7V24zm2.75 4.5H7V32h2.75a1.75 1.75 0 100-3.5z" fill="#216690"/><path fill="#216690" d="M14 26h1v7h-1zm1.5-2a1 1 0 11-2 0 1 1 0 012 0z"/><path fill-rule="evenodd" d="M19.85 33.4a3.85 3.85 0 100-7.7 3.85 3.85 0 000 7.7zm0-1.02a2.82 2.82 0 100-5.65 2.82 2.82 0 000 5.65z" fill="url(#aj53wm323)"/><path d="M30.55 31.5a2.82 2.82 0 11.06-3.93l.64-.82a3.85 3.85 0 10-.07 5.56l-.63-.82z" fill="#216690"/><path fill-rule="evenodd" d="M35.32 33.4a3.85 3.85 0 003.23-1.74l-.83-.62A2.82 2.82 0 0132.53 30h6.62a3.85 3.85 0 10-3.83 3.4zM38.1 29a2.82 2.82 0 00-5.54 0h5.54zm9.61.5a3.85 3.85 0 01-6.7 2.58V36h-1V26h1v.92a3.85 3.85 0 016.7 2.58zm-1.02 0a2.82 2.82 0 11-5.65 0 2.82 2.82 0 015.65 0z" fill="#216690"/><path d="M49 24h1v2h1v1h-1v4.5a.5.5 0 00.5.5h.5v1h-1a1 1 0 01-1-1v-5h-1v-1h1v-2z" fill="#216690"/><path d="M17.85 26.27l-2.35.85 2.51 1.65-.16-2.5z" fill="#BD292E"/><defs><radialGradient id="aj53wm323" cx="0" cy="0" r="1" gradientUnits="userSpaceOnUse" gradientTransform="rotate(-140.19 15.34 11.13) scale(3.90512)"><stop offset=".74" stop-color="#C13E37"/><stop offset=".98" stop-color="#BD2B2F"/><stop offset="1" stop-color="#F6E7E1"/></radialGradient></defs></svg>