<!-- by TradingView --><svg xmlns="http://www.w3.org/2000/svg" width="56" height="56"><path fill="#024B98" d="M0 0h56v56H0z"/><path fill-rule="evenodd" d="M14 33V23a9.1 9.1 0 00-2 .4V33h2zM7.08 23c-1.5.01-2.68.24-3.08.35v9.38c.27.1 1.25.3 3.08.27 2.28-.03 3.92-.86 3.92-2.82 0-1.66-1.1-2.33-1.66-2.46.49-.02 1.42-.7 1.42-2.1 0-2.03-1.82-2.64-3.68-2.62zm1.52 2.84c0-1.22-1.72-1.1-2.6-.9v1.98c.86.12 2.6.32 2.6-1.08zM6 28.95c1.01-.22 3-.34 3 .98 0 1.53-2.01 1.31-3 1.18v-2.16zM15 27a4 4 0 014-4h1a4 4 0 014 4v2a4 4 0 01-4 4h-1a4 4 0 01-4-4v-2zm2 0c0-1.1.9-2 2-2h1a2 2 0 012 2v2a2 2 0 01-2 2h-1a2 2 0 01-2-2v-2zm10-4a9.1 9.1 0 00-2 .4V33h5v-2h-3v-8zm6.72.35L31 33h2.04l.54-2h2.9l.51 2h2l-2.87-10c-.8.07-1.94.27-2.4.35zM34 29h2l-1.02-4-.98 4zm8.64-6h2.96v2h-2.35c-.96 0-1.25.33-1.25.7 0 .71.63.95 1.2 1.17l.26.1c1.08.45 2.57 1.27 2.54 3.37A2.54 2.54 0 0143.46 33H40v-2h2.75c.5 0 1.25-.18 1.25-.82 0-.87-.64-1.13-1.25-1.36-.97-.38-2.75-1.08-2.75-3.21 0-2.08 1.82-2.61 2.64-2.61zM52 23h-5v10h5v-2h-3v-2h2.17l.2-2H49v-2h2.78l.22-2z" fill="#fff"/></svg>