<!-- by TradingView --><svg xmlns="http://www.w3.org/2000/svg" width="56" height="56"><path fill="#C03" d="M0 0h56v56H0z"/><path d="M41.15 15.22l1.81-.01C44.94 13.15 46 12 46 12s-2.25 1.25-4.85 3.22zM29 42c1.81-1.67 3.02-4.78 3-7.87V18h-5v15.74c.02 2.6-.18 4.13-2 5.26l4 3zm-10-2h-8V18h8.05c2.97-.02 5.52 2.17 5.52 5.8 0 1.41-.52 3.41-2.57 4.2 1.81.54 3 2.94 3 5.03 0 3.56-1.74 6.94-6 6.97zm-1-18h-2v5h2c1.29 0 2-1.43 2-2.55-.01-1.11-.75-2.46-2-2.45zm0 8h-2v5h2c1.35-.01 2.01-1.07 2-2.4 0-1.08-.38-2.61-2-2.6zm22.22 10c-1.77.02-4.42-.9-6.22-2l2-3a8.2 8.2 0 004 1.37c.75 0 1-.41 1-.93 0-2.4-6-1.26-6-5.44 0-2.9 2.46-4.96 5.58-5 2.17-.02 4 1.23 5.42 2l-2 3c-.82-.63-1.01-1.23-2.5-1.29-.75-.03-1.5.63-1.5 1.29.02 2.22 5.99.27 6 5 .01 3.05-2.34 4.95-5.78 5z" fill="#fff"/><path d="M40.85 15.45C37.85 17.76 36 20 36 20l-3-3 2 8s2.17-3.36 5.42-7.04c.82-.93 1.71-1.9 2.58-2.8h-1.78l-.37.3z" fill="#fff"/></svg>