<!-- by TradingView --><svg width="56" height="56" xmlns="http://www.w3.org/2000/svg"><path fill="#F0F3FA" d="M0 0h56v56H0z"/><path d="M29.74 15.212c.12-.172.25-.334.384-.49a8.143 8.143 0 00-.265-.602c-.457-.962-.91-1.57-.91-1.57s-2.894 2.229-3.319 5.415c-.427 3.186 1.776 6.12 1.776 6.12s1.507-1.165 2.508-3.012c-.83.294-1.419.39-1.419.39s-.597-3.638 1.245-6.251z" fill="#3A7C4A"/><path d="M35.167 12s-3.127.521-5.044 2.722c.442 1.094.795 2.495.6 3.945a6.866 6.866 0 01-.608 2.005c-.064.137-.135.27-.202.4.745-.266 1.682-.685 2.548-1.336a6.768 6.768 0 001.457-1.485c1.005-1.423 1.285-3.152 1.33-4.43.043-1.068-.081-1.821-.081-1.821z" fill="#80AA89"/><path d="M30.723 18.667c.195-1.45-.158-2.851-.6-3.945a6.387 6.387 0 00-.384.49c-1.841 2.613-1.244 6.251-1.244 6.251s.589-.097 1.418-.39c.066-.131.137-.264.202-.4.288-.61.51-1.285.608-2.006z" fill="#5A9166"/><path d="M20.676 26.795s-.903 1.886-.903 4.115c1.11.648 2.697 1.825 3.497 3.618.433.972.582 2.002.587 2.941.347.215.57.326.57.326s1.591-3.316.554-6.354c-1.034-3.04-4.305-4.646-4.305-4.646zM35.788 28.646c1.172-2.337.903-5.018.903-5.018s-3.615.371-5.612 2.863c-2 2.494-1.627 6.163-1.627 6.163s.261-.028.682-.115c.416-.827.996-1.664 1.795-2.326 1.2-.987 2.67-1.401 3.859-1.567z" fill="#80AA89"/><path d="M35.788 28.646a6.032 6.032 0 01-.726 1.142c-1.461 1.824-3.785 2.514-4.928 2.75-.863 1.707-1.032 3.37-1.032 3.37s3.61.386 6.07-1.642C37.63 32.24 38 28.57 38 28.57s-.953-.1-2.212.075z" fill="#3A7C4A"/><path d="M35.061 29.788c.292-.36.53-.745.726-1.142-1.19.166-2.659.58-3.858 1.567-.8.662-1.38 1.5-1.796 2.326 1.143-.237 3.467-.927 4.928-2.75z" fill="#5A9166"/><path d="M20.125 33.148a6.907 6.907 0 01-.351-2.238c-.702-.406-1.212-.605-1.212-.605s-1.282 3.455.026 6.382c1.308 2.928 4.709 4.223 4.709 4.223s.573-1.543.56-3.44c-.98-.611-2.966-2.076-3.732-4.322z" fill="#3A7C4A"/><path d="M19.773 30.91c0 .729.097 1.493.352 2.237.765 2.247 2.751 3.712 3.732 4.322-.005-.94-.154-1.969-.587-2.94-.8-1.794-2.387-2.972-3.497-3.62z" fill="#5A9166"/><path d="M23.97 43.995c3.962-4.185 3.153-8.228 3.8-13.393.872-7.01 5.295-9.536 5.22-9.488.144-.088.099-.085-.12.02-1.215.59-5.273 3.078-6.106 10.412-.529 4.659.511 7.027-2.8 12.445-.005.01 0 .012.006.004z" fill="#3A7C4A"/></svg>