<!-- by TradingView --><svg width="56" height="56" xmlns="http://www.w3.org/2000/svg"><path fill="url(#paint0_linear)" d="M0 0h56v56H0z"/><path d="M31.5 23h5.969l.255-1h-6.99l.766 1zM10.663 21H28.5c-.392-.291-1.26-.996-1.786-.996L10.884 20l-.221 1zM27.332 22H10.414l-.266 1H26.4c.173-.178.718-.868.932-1zM20.761 24l-.261 1H26c.012-.16.053-.848.09-1H20.76zM9.895 24l-.254 1h8.099l.26-1H9.895zM37 25l.264-1h-5.253c.036.152.061.84.073 1H37z" fill="#fff"/><path d="M32.228 24.587a3.127 3.127 0 11-6.255 0 3.127 3.127 0 016.255 0z" fill="#F48126"/><path d="M28.302 25.825l.496-2.072c-.735.163-1.75.582-2.773 1.05l-.794.37c-.34.16-.79.676-1.105.827H9.359l-.238 1H17c-2 1-4.725.903-6.977.877-.44-.006-.826-.004-1.144 0L6.887 36h17.09a2.353 2.353 0 002.323-1.977l.963-3.973a2.354 2.354 0 00-1.73-2.582c.162.035.338.052.51.052a2.363 2.363 0 002.26-1.695zM18.512 33H15.69l.565-2h2.824l-.566 2zm.988-6h3.64c-.64.5-1.14 1-1.64 1-.804-.031-1.5-.5-2-1zM40.835 21h7.9l.261-1h-7.909l-.252 1zM29.969 21h7.96l.252-1h-7.966l-.246 1zM40.547 22l-.246 1h7.992l.249-1h-7.995zM40.09 24l-.254 1h7.918l.262-1H40.09zM47.5 26h-15s-.47-.505-.56-.578c-1.08-.9-2.083-1.746-2.645-1.74h-.014l-.91 3.754-2.152 8.552h8.078L35.553 31h2.828l-1.252 4.988H45L47 28c-1.503 0-3.012-.305-4.353-1h4.584l.269-1zm-12 2c-.334-.05-1.5-1-1.5-1h4.5s-2.5 1.075-3 1z" fill="#fff"/><defs><linearGradient id="paint0_linear" x1="10.418" y1="9.712" x2="68.147" y2="76.017" gradientUnits="userSpaceOnUse"><stop stop-color="#1A1E21"/><stop offset="1" stop-color="#06060A"/></linearGradient></defs></svg>