<!-- by TradingView --><svg width="56" height="56" xmlns="http://www.w3.org/2000/svg"><path fill="#E0B81B" d="M0 0h56v56H0z"/><path d="M28.712 30.019c-.642-.536-1.287-.832-1.891-.978l-.043-.01a4.284 4.284 0 00-.599-.095c-1.403-.12-2.449.486-2.455.489-.707.803-1.263 1.43-1.263 1.43s.614 2.388 2.29 4.543a13.747 13.747 0 00.382.464l.1.11a9.387 9.387 0 001.026.992l.357-.54 3.3-5.006c-.436-.608-.85-1.104-1.204-1.4zm5.316 8.545a83.656 83.656 0 00-2.532-4.678l-3.088 3.938-.35.448c.383.25.782.5 1.188.745.2.102.416.212.649.326.729.361 1.599.764 2.49 1.121 1.044.419 1.968.596 2.336.655-.164-.627-.404-1.52-.693-2.555z" fill="#D7AC11"/><path d="M29.125 14.071c.002-.002.004-.003.005-.006.321-.767-.134-2.062-1.656-2.062-.81.001-2.973 2.045-4.228 1.416-.576-.29-.964-.939-.964-.939s.14 1.093.686 1.379c.584.305 1.432.145 1.432.145s-.584.254-.723.322a4.308 4.308 0 00-.099.049l-.007.004a2.648 2.648 0 00-.155.082l-.041.022h-.002s-.62.196-1.524 1.276-.962 1.607-1.975 1.607a.777.777 0 00-.135.007c-.018.003-.023.008-.02.013.03.04.794.117 1.359-.065.756-.243 1.028-1.376 1.956-2.031.8-.567 1.608-.9 2.579-1.361.608-.29 1.38-.786 2.108-.822 1.155-.058 1.289 1.204 1.404.964z" fill="#E6E7E8"/><path d="M19.477 25.957a4.933 4.933 0 00.235.165c.086.056.184.114.291.175-.032-.03-.6-.578-.3-1.713.202-.768.763-1.094.763-1.094l-.06.012c-.387.12-.707.269-.966.4a4.774 4.774 0 00-.367.233c-.367.267-.729.61-.729.61s.497.722 1.133 1.212zm9.536-.28a14.73 14.73 0 00-.177-.287c-.45-.72-.945-1.43-.945-1.43s-.294.545-.905 1.451l-.002-.001-.001.001.003.002-.172.252v-.001l-.018.024c-.05.075-.103.15-.156.227l-.012.016a24.98 24.98 0 01-.908 1.2c-.065.079-.13.157-.195.233-.556.643-1.228 1.408-1.8 2.058l-.003.003c.006-.003 1.052-.608 2.455-.49a3.784 3.784 0 01.6.096l.042.01c.604.146 1.248.442 1.891.978.354.295.768.791 1.204 1.4l1.14-1.73.033-.049a47.086 47.086 0 00-2.074-3.962zm-3.676-6.127l-1.26-.345v.001a6.38 6.38 0 00.052.253c.025.11.052.217.079.324l.04.16c.039.144.075.281.105.416a7.402 7.402 0 00.061.259v.004l.049.185a6.29 6.29 0 00.042.16l.132.507.039.134c.016.06.032.118.048.171l.827.42-.214-2.649zm.397-3.388c.813-1.078 1.732-.96 1.732-.96v-.541s-.07-.004-.173-.005c-.218-.003-.6 0-.891.061-.584.123-1 .466-1.505 1.125a4.508 4.508 0 00-.717 1.392l-.03.097-.03.112a3.59 3.59 0 00-.037.155l-.019.087c-.009.05-.017.092-.022.127l-.01.071a3.338 3.338 0 00-.007.055l1.166.23s.004-1.29.543-2.006zm11.424 5.147l-.12.059-2.175 3.277v-.001l-.522.785-.704 1.057-1.667 2.511-.698 1.05-.04.06-1.088 1.639-3.252 4.896-.362.545-.005.006.306.315s.015-.023.041-.058l.377-.53a2852.103 2852.103 0 004.291-6.065l.05-.07.85-1.207a747.784 747.784 0 002.85-4.071l.153-.223c.909-1.313 1.552-2.26 1.673-2.488.416-.783.152-1.317.042-1.487zM32.329 32.82l-.047.06-.788 1.006a83.733 83.733 0 012.532 4.678s-.902-3.301-1.697-5.744zm-13.094-5.668l-.007-.005c-.355-.24-.743-.486-.785-.514l-.009-.005-.034.06-.077.131c-.099.175-.27.48-.532.964-.468.865-.675 1.35-.802 1.893l-.004.013-.066.298c-.127.446-.21.907-.307 1.311l-.026.1c-.118.478-.129.825-.129.825s.162-.106.473-.253c.324-.153.742-.178.775-.18h.005s.222-1.444.688-2.52c.294-.68.725-1.228.892-1.616.098-.224.107-.394-.055-.502zm4.98 12.035l-.001.003c-.187.328-.238.45-.238.45l.634.457 1.146.827.004.004.027-.078.008-.023.006-.011.01-.026c.026-.056.058-.12.094-.188.017-.031.033-.063.053-.097.027-.048-1.74-1.316-1.742-1.318zm-.985-.58l-.13.34-5.176-3-.001-.002s.02-.044.054-.111c.016-.03.032-.065.053-.103.036-.07.08-.147.13-.226.136-.214.297-.405.297-.405l.005.003 4.768 3.503z" fill="#E6E7E8"/><path d="M24.793 24.754c-.833-.806-1.164-1.615-1.27-1.938a.557.557 0 00-.122-.012.9.9 0 00-.221.03c-.328.085-.485.202-.51.222l-.07.071c.06.287.135.732.155 1.221.035.84-.338 1.696-.338 1.696s-.024-1.002-.14-1.624a2.496 2.496 0 00-.25-.71 2.872 2.872 0 00-.276-.43l-.147.009a4.824 4.824 0 00-1.199.213l.06-.011s-.56.326-.763 1.093c-.3 1.135.269 1.684.301 1.713.223.127.483.262.743.392a37.113 37.113 0 001.396.66v.546l.128 1.617c.544-.404 1.49-1.135 2.122-1.767.692-.691 1.355-1.648 1.652-2.095a5.338 5.338 0 01-1.25-.896zM23.345 36.87l-1.202-1.283-1.522-1.626c-.297.004-1.22.09-2.017.97-.052.06-.096.115-.143.172l4.77 3.503-.131.34-5.177-3c-.146.33-.192.587-.201.739l5.324 2.48c.059-.25.167-.565.356-.802.197-.248.525-.456.783-.595l-.84-.898zm5.808-18.318c-.75.117-1.687.234-1.687.234V15.2s-.92-.117-1.733.961c-.537.716-.543 2.006-.543 2.006l-1.164-.23c-.013.11-.022.219-.025.324v.038a4.462 4.462 0 00.004.325c.006.086.013.17.022.253l.007.048a4.909 4.909 0 00.043.28l1.26.344.214 2.65-.827-.42.085.285c.008.029.017.06.025.08l2.632 1.486v-3.71l.002-.001h-.002l-3.194-1.017-.075-.444 2.905.561.177.333h.339l.122-.333 2.465-.395.002-.01.048-.341c-.349.11-.762.224-1.102.277zm10.859 1.368l-2.854 1.389c.11.17.374.704-.042 1.487-.12.228-.764 1.175-1.674 2.488l-.153.223-.643.921c-.675.968-1.433 2.05-2.207 3.15l-.85 1.208c-.017.022-.033.046-.049.069l-1.022 1.448a3199.495 3199.495 0 01-3.27 4.618l-.376.53-.04.056-.307-.314.647.666.09-.127.367-.513 3.186-4.45.95-1.329.055-.076.852-1.19 2.736-3.822.425-.594.151-.21 4.349-6.078-.321.45zM23.976 39.64s.05-.123.238-.451c-.212.339-.312.632-.312.632l.591.438 1.192.884s.016-.08.07-.22l-1.145-.826-.634-.457zm1.149-1.303s-.295.06-.672.517a3.04 3.04 0 00-.238.332c.003.002 1.77 1.27 1.742 1.318.03-.053.062-.107.098-.162.307-.484.668-.94.668-.94l-1.598-1.066zm-5.102-7.92a9.146 9.146 0 00.594-2.056l.025-.16c-.382-.136-.995-.366-1.352-.547-.167.386-.599.935-.893 1.616-.465 1.075-.687 2.519-.687 2.519h-.006c.491.01.953.202 1.257.366.284-.373.767-1.056 1.062-1.738zm6.476 8.413l-1.474-1.042-1.02-1.087.47-.166 4.924 3.205-.139.882-2.762-1.792z" fill="#9D9FA2"/><path d="M24.392 14s-.583.254-.722.323a4.628 4.628 0 00-.167.084l-.094.05c-.023.013-.04.021-.041.023h-.002s-.04-.01-.098-.03a1.386 1.386 0 01-.527-.31c-.26-.263-.315-.358-.417-.815-.102-.456-.05-.848-.05-.848s.141 1.092.687 1.378c.583.306 1.431.146 1.431.146zm7.99 26.464a35.658 35.658 0 01-2.49-1.12 44.91 44.91 0 01-.648-.327 38.948 38.948 0 01-1.19-.745l.351-.448 3.089-3.938.788-1.005.047-.06c.795 2.442 1.697 5.743 1.697 5.743h-.001c.29 1.035.53 1.928.694 2.555a11.393 11.393 0 01-2.336-.655zm-3.121.16L26.5 38.832l1.462 1.033-1.463-1.034-1.474-1.042-1.02-1.087.47-.166 4.924 3.205-.138.883zm-3.206-.282c-.036.056-.069.11-.098.163-.021.037-.035.066-.052.097a3.527 3.527 0 00-.094.189l-.01.025a.045.045 0 01-.006.011l-.008.023a.999.999 0 00-.027.078l-.005-.004c-.053.14-.069.22-.069.22l-1.193-.884-.591-.439s.1-.293.312-.63l.002-.004c.067-.108.146-.222.237-.332.377-.457.672-.518.672-.518l1.598 1.066s-.36.456-.668.94zm-3.01-1.178l-5.323-2.48c.01-.15.055-.408.202-.738 0 0 .02-.045.053-.112a3.454 3.454 0 01.182-.328c.137-.215.298-.406.298-.406l.005.003c.047-.057.09-.113.143-.171.796-.88 1.72-.967 2.016-.971l1.523 1.627 1.201 1.282.84.898c-.257.14-.586.347-.783.595-.189.238-.297.552-.357.801zM16.93 31.97c-.31.147-.473.253-.473.253s.011-.347.13-.825c.008-.033.015-.065.025-.1.096-.404.18-.865.307-1.31l.066-.299c.002-.004.002-.01.004-.013.127-.543.334-1.028.802-1.893a43.663 43.663 0 01.643-1.155l.008.005c.043.028.43.274.786.514l.007.005c.162.108.153.278.055.502.357.182.971.412 1.352.549l-.026.16c0 .01-.153 1.04-.592 2.055-.295.681-.778 1.365-1.063 1.738-.303-.163-.765-.356-1.256-.366-.033.002-.451.027-.775.18zm5.139 2.662l-1.162-1.24-.116-.012c-.01 0-.063-.006-.15-.006-.11 0-.261.007-.443.035v-.294s.739-.985.89-1.218c.125-.194.444-.766.66-1.308l.32 4.043zm-2.996-10.497l.113-.076a5.29 5.29 0 01.253-.157c.26-.131.58-.28.966-.4.27-.082.57-.151.906-.188a6.436 6.436 0 01.44-.033c.082.104.181.25.275.43.105.198.2.435.251.709.116.623.14 1.624.14 1.624s.374-.856.339-1.695a7.765 7.765 0 00-.156-1.222l.07-.07c.025-.021.182-.138.51-.222a.91.91 0 01.222-.03c.05 0 .09.005.12.012.107.323.438 1.131 1.272 1.937.43.415.871.7 1.25.896-.296.447-.96 1.404-1.652 2.095-.631.632-1.578 1.363-2.12 1.767l-.129-1.617v-.546l-.33-.15c-.268-.123-.667-.31-1.067-.51-.26-.13-.52-.265-.742-.392a5.978 5.978 0 01-.39-.242c-.044-.03-.09-.062-.137-.098-.636-.49-1.133-1.212-1.133-1.212s.362-.343.73-.61zm5.28-3.776c-.03-.135-.066-.272-.105-.416l-.04-.16a12.166 12.166 0 01-.08-.325v-.006a6.38 6.38 0 01-.05-.246l-.001-.001v-.003a4.213 4.213 0 01-.044-.276l-.005-.047a4.884 4.884 0 01-.023-.254l-.002-.05A3.964 3.964 0 0124 18.3c0-.012 0-.025.002-.038.003-.105.01-.213.024-.325l.005-.054.01-.07.023-.128.019-.087c.01-.049.022-.1.036-.155l.031-.112.03-.097c.122-.391.337-.896.717-1.392.505-.66.921-1.002 1.504-1.125.293-.061.674-.064.892-.061.104.001.174.005.174.005v4.125s.936-.117 1.687-.235c.34-.053.752-.167 1.1-.277l-.047.34-.002.011-2.465.396-.122.333h-.339l-.176-.333-2.906-.562.074.445 3.195 1.017.003-.001h-.003v3.6l-1.097-.508-1.535-.866-.025-.081-.085-.286-.049-.171-.038-.134-.133-.507a6.29 6.29 0 01-.03-.116l-.011-.044-.048-.185v-.004l-.002-.002c-.02-.085-.041-.17-.06-.257zm6.733 9.281l-.033.05-1.139 1.728-3.3 5.006-.357.54a9.215 9.215 0 01-1.026-.992c-.034-.035-.067-.073-.1-.11a13.853 13.853 0 01-.382-.464c-1.676-2.155-2.29-4.542-2.29-4.542s.556-.628 1.263-1.431l.003-.003a347.41 347.41 0 001.8-2.058c.065-.076.13-.154.195-.233.311-.388.623-.795.908-1.199l.012-.017c.053-.076.106-.152.156-.227l.018-.024v.001l.172-.252c-.001 0-.002 0-.003-.002h.001c.504-.756.853-1.357.901-1.44l.01-.005c.024.03.39.516.944 1.424l-.002.001.156.255.02.032c.339.563 1.26 2.2 2.073 3.962zm-3.092 8.71l-.003.002-.019-.015.022.012zm12.34-18.88l-4.35 6.077-.151.212-.425.593-2.735 3.82-.852 1.192-.055.076-.95 1.328h-.001l-3.185 4.45-.368.514-.09.127-.647-.666.005-.006.362-.545 3.252-4.896 1.088-1.638.04-.06.698-1.051 1.667-2.511.703-1.057.523-.785 2.175-3.276h.001l.119-.059 2.853-1.389.323-.45-3.536 1.507-2.23 3.382c-.242-.22-.482-.408-.7-.516-.94-.47-1.485-.44-1.485-.44l-.226-.11s-.123-.307-.488-.448c-.506-.196-.776-.083-.776-.083l-.271-.142-.466-.178c.117-.334.31-.942.476-1.779.263-1.31.289-1.642.289-1.642l-.3.078.067-.418.08-.578c.143-.05.234-.085.234-.085s.056-1.52-1.32-2.518a6.02 6.02 0 00-1.186-.685c.254-.153.493-.386.622-.747-.115.24-.25-1.022-1.404-.964-.728.036-1.5.532-2.109.821-.97.462-1.778.795-2.578 1.361-.928.656-1.2 1.788-1.956 2.032-.565.182-1.328.105-1.358.064-.003.007 0 .016.02.03.243.176 1.804.797 2.57.151.527-.446 1.218-.82 1.627-1.023-.678 1.494-.388 2.61-.152 3.517.037.142.071.274.1.403.174.764.398 1.517.482 1.796l-.262.06-.184.028a.997.997 0 00-.512-.127c-.12 0-.249.017-.379.05-.517.135-.751.344-.776.367l-.103.105c-.404-.03-1.121-.012-2.107.296-1.594.499-2.646 1.805-2.646 1.805s.538.89.886 1.23l-.21.352c-.008.012-.186.31-.652 1.171-.467.863-.874 1.989-1.02 2.61-.104.44-.436 1.709-.648 2.233-.144.355-.064.587.03.72a.621.621 0 00.176.158c-.07.303-.102.595-.05.827.125.55 1.034 1.491 1.367 1.819-.196.557-.153.924-.15.949l.022.157 6.276 2.924c.06.125.272.562.558.993l-1.094 1.529-.628.352L23.98 44l.186-.645.948-1.298c.55.345.991.67.991.67s1.057-.81 1.36-1.397c.151-.291.277-.652.365-.942l1.858 1.041.158-1.627 2.133 1c1.168.547 2.982 1.26 2.982 1.26s2.64-4.546 2.732-10.472c.051-3.34-.023-4.826-.097-5.487l2.26-2.884.477-3.748z" fill="#000"/></svg>