<!-- by TradingView --><svg xmlns="http://www.w3.org/2000/svg" width="56" height="56"><path fill="#BC3C31" d="M0 0h56v56H0z"/><path d="M36.29 23.25a5.9 5.9 0 00-3.95.74l-14 8.2 5.79 10.15.02-.01v.02l.03-.01.01.01h.02l.02.01.02-.01v.02l.03-.01.01.01h.02l.02.01.02-.01v.02l.03-.01.01.02.02-.02.01.02.03-.01v.02l.03-.01.01.02.02-.02.01.02.03-.01v.02l.03-.01.01.02.02-.02.01.02.02-.01.02.02.02-.01v.02l.03-.02.01.02.02-.01.01.02.03-.01v.02l.03-.02.01.02.02-.01.02.02.02-.01v.02l.03-.02.01.02.02-.01.02.02.02-.01v.02l.03-.02.01.02.02-.01.01.02.03-.01v.02l.03-.02.01.02h.02l.01.01.03-.01v.02l.03-.02.01.02.02-.01.01.02.03-.01v.02l.03-.02.01.02h.02l.01.01.02-.01.02.02.02-.02v.02h.03l.01.01.02-.01.02.02.02-.02v.02h.03l.01.01.02-.01.01.02.03-.02v.02h.03l.01.01.02-.01.01.02.03-.02v.02h.03l.01.01.02-.01.01.02.03-.02v.02h.03l.01.01.02-.01.01.02.03-.01v.02l.03-.02.01.02.02-.01.01.02.02-.01.02.01h.02v.01l.03-.01.01.02.02-.02.01.02h.03v.01l.03-.01.01.02.02-.01.01.02.03-.02v.02l.03-.01.01.02.02-.01.01.01h.03v.01l.03-.01.01.02.02-.01.01.02.03-.02v.02l.03-.01.01.02.02-.01.01.02.02-.02.02.02.02-.01.01.02.02-.01.01.02.02-.02.01.02.03-.01v.02l.03-.01.01.02.02-.02.01.02.03-.01v.02l.03-.01.01.02.02-.02.01.02.03-.01v.02l.03-.01.01.02.02-.02.01.02.03-.01v.02l.03-.01.01.02.02-.02.01.02.03-.01v.02l.03-.01.01.02.02-.02.01.02h.02l.02.01.02-.01v.02l.03-.02.01.02h.02l.01.01.03-.01v.02l.03-.02.01.02h.02l.01.01.02-.01-5.7-10.12 14-8.2a5.9 5.9 0 013.91-.75h-.03l-.03-.01h-.04l-.03-.01-.03-.01h-.05l-.05-.02h-.03l-.04-.01h-.01l-.02-.01h-.03l-.04-.01-.03-.01h-.03l-.04-.01-.03-.01H39l-.03-.01-.03-.01h-.03l-.03-.01h-.02l-.05-.02h-.05l-.02-.01h-.03l-.02-.01h-.01l-.05-.01-.05-.01h-.02l-.02-.01h-.03l-.03-.02h-.07l-.01-.01-.05-.01h-.04l-.03-.02h-.07l-.05-.02h-.05l-.03-.02h-.07l-.03-.02h-.03l-.04-.01h-.05l-.05-.02h-.03l-.03-.01h-.02l-.02-.01-.06-.01-.03-.01h-.04l-.03-.01-.03-.01h-.04l-.03-.01-.05-.01-.05-.01h-.01l-.02-.01h-.04l-.03-.01h-.02l-.05-.02h-.03l-.03-.01-.07-.01h-.01l-.02-.01h-.03l-.01-.01h-.03l-.06-.02h-.04l-.03-.01h-.02l-.05-.02h-.05l-.05-.02h-.03a.38.38 0 01-.03 0l-.04-.01h-.01l-.02-.01h-.03l-.08-.03h-.05l-.07-.02z" fill="#fff"/><path d="M43.1 33.42a6.58 6.58 0 00.13-6.4l-.12-.2a5.26 5.26 0 00-7.15-1.68l-13.53 7.93 5.46 9.7 13.58-7.95c.65-.37 1.2-.85 1.64-1.4zM26.06 14.07a4.55 4.55 0 00-3.1.56L12 21.04l4.63 8.13.02-.01v.01h.03l.01.01.02-.01.02.02.02-.02v.02h.03l.01.01.02-.01.01.02.03-.01v.02l.03-.02.01.02.02-.01.01.02.03-.01v.02l.03-.02.01.02.02-.01.01.02.03-.01v.02l.03-.02.01.02.02-.01.01.02.03-.01v.02l.03-.02v.02l.03-.01.01.02.02-.01.02.02.02-.02v.02l.03-.01.01.02.02-.01.02.02.02-.02v.02l.03-.01.01.02.02-.01.01.02.03-.02v.02l.03-.01.01.02.02-.01.01.02.03-.02v.02h.03l.01.01.02-.01.01.02.03-.02v.02h.03l.01.01.02-.01.01.02.02-.02.02.02h.02l.01.01.02-.01.01.02.02-.02.02.02h.02v.01l.03-.01.01.02.02-.02.02.02H18v.01l.03-.01.01.02.02-.02.02.02h.02v.01l.03-.01.01.02.02-.02.01.02h.03v.01l.03-.01.01.02.02-.02.01.02h.03v.01l.03-.01.01.02.02-.01.01.02.02-.02.02.02.02-.01v.02l.03-.01.01.01h.02l.02.01.02-.01v.02l.03-.02.01.02h.02l.02.01.02-.01v.02l.03-.01.01.02.02-.02.02.02.02-.01v.02l.03-.01.01.01h.02l.01.01.03-.01v.02l.03-.01.01.02.02-.02.01.02.03-.01v.02l.03-.01.01.02.02-.02.01.02.02-.01.02.02.02-.01v.02l.03-.02.01.02.02-.01.02.02.02-.01v.02l.03-.02.01.02.02-.01.02.02.02-.01v.02l.03-.02.01.02.02-.01.01.02.03-.01v.02l.03-.02.01.02h.06v.02l.03-.02.01.02.02-.01.01.02.03-.01v.02l.03-.02v.02h.03l.01.01.03-.01v.02l.03-.02.01.02h.02l.01.01.02-.01.02.02.02-.02v.02l.03-.01.01.02.02-.01.02.02v-.01l-4.53-8.1 10.95-6.41a4.59 4.59 0 013.07-.57h-.03l-.07-.02h-.03l-.03-.01h-.02l-.05-.02h-.03l-.07-.01-.03-.01h-.03l-.05-.02h-.05l-.02-.01h-.02l-.02-.01a.34.34 0 00-.04 0l-.04-.02h-.06l-.04-.02h-.03l-.05-.01h-.02l-.03-.01-.05-.01-.05-.01h-.03l-.03-.02-.07-.01h-.03l-.04-.01-.03-.01h-.03l-.07-.02h-.03l-.04-.01-.03-.01-.05-.01h-.02l-.03-.01-.06-.01h-.02l-.02-.01h-.03l-.03-.01h-.02l-.07-.02h-.01l-.04-.01h-.03l-.07-.02h-.03l-.03-.02h-.07l-.03-.02h-.04l-.04-.01-.05-.01h-.04v-.01h-.03l-.03-.01h-.04l-.03-.02h-.03l-.04-.01-.06-.01h-.04l-.01-.01h-.02l-.03-.01h-.02l-.05-.02h-.03l-.04-.01h-.03l-.03-.01-.03-.01h-.03l-.04-.01-.08-.02-.05-.01h-.04l-.03-.01h-.02l-.01-.01h-.04l-.03-.01h-.02l-.01-.01h-.03l-.04-.01-.03-.01z" fill="#fff"/><path d="M31.76 22.81a5.14 5.14 0 00.4-5.51h-.01a4.08 4.08 0 00-4.06-2.04c-.54.07-1.05.25-1.51.52l-10.5 6.14 4.3 7.69 10.55-6.18c.3-.18.58-.38.83-.62z" fill="#fff"/></svg>