<!-- by TradingView --><svg width="56" height="56" xmlns="http://www.w3.org/2000/svg"><path fill="#F0F3FA" d="M0 0h56v56H0z"/><path d="M6.477 21H4l.01 14h9.543c.692-.627.43-1.243.211-1.472-2.022-2.298-6.189-7.06-6.682-7.729-.494-.667-.73-.765-.786-.73-.436.176-.916.973-1.102 1.35l-.721-.303L6.477 21zM18 21.004H8c2.616 2.999 7.994 9.124 8.583 9.637.59.512 1.19.372 1.417.238v-9.875zM18 32l-3 3h3v-3z" fill="#ED174B"/><path d="M19 28.998v-8h3.26c1.42 0 1.857.916 1.95 1.933.076.813-.446 1.572-.717 1.85.861.294.983 1.478.936 2.034.075 1.706-1.414 2.166-2.168 2.183H19z" fill="#0061AA"/><path d="M20.487 24.044V22.69h1.2c.386 0 .681.162.719.633.037.47-.46.697-.72.722h-1.2zM20.487 27.278v-1.43h1.345c.433 0 .764.171.806.668.042.496-.515.735-.806.762h-1.345z" fill="#F0F3FA"/><path d="M25.023 27.011V23H26.5c-.004.922 0 2.831 0 3.089 0 .572.172 1.34.798 1.34.626 0 .71-.958.702-1.34V23h1.5v6H28v-1.01c-.381.872-1.063 1.034-1.393 1.006-1.278.09-1.589-1.286-1.584-1.985zM30.04 21.036h1.46v1.5h-1.46zM30.04 23h1.46v6h-1.46v-6zM32.28 20.998h1.533v8h-1.532v-8zM39 29v-8h-1.5v2.617c-.175-.566-1.092-.617-1.43-.617-.998.181-1.763.946-1.825 3.07-.063 2.123 1.076 2.946 1.965 2.93.712-.013 1.15-.598 1.29-.89V29H39zM41.72 23c2.069-.012 2.512 2.342 2.476 3.52h-3.407c-.014.913.6 1.104 1.041 1.104.582 0 .796-.424.796-.624h1.494c-.255 1.46-1.644 1.997-2.29 1.997-2.213.093-2.674-1.883-2.628-2.883-.023-1.033.448-3.102 2.517-3.114zM44.5 29v-6H46v.965c.323-.878.73-.952 1.11-.964.306-.01.644.11.774.173l-.58 2.033c-.114-.207-.47-.22-.566-.207-.582.08-.757 1.04-.738 1.464V29h-1.5zM49.698 23.003c1.681-.068 2.286 1.375 2.298 1.997H50.5c0-.58-.313-.702-.558-.759-.244-.056-.667.007-.695.337-.034.411.52.46 1.64.86.896.32 1.113 1.24 1.109 1.66.05.617-.326 1.862-2.229 1.901-1.903.039-2.298-1.349-2.267-1.999H49c0 .57.513.8.767.788.254-.012.473-.158.497-.448.023-.291-.116-.534-1.444-.812-1.063-.223-1.267-1.256-1.236-1.745.004-.565.432-1.713 2.114-1.78zM19.01 35.004v-5.458h3.63v.686h-2.897v1.652H22v.66h-2.257v2.46h-.734zM23.179 29.546h.685v.739h-.685zM23.179 31.004h.685v4h-.685zM24.246 35v-4h.658v.421c.096-.149.383-.442.769-.42.385.022.654.186.74.265l-.23.484c-.112-.19-.387-.22-.51-.21-.645.08-.782.672-.77.958V35h-.657zM43.278 35v-4h.658v.421c.096-.149.383-.442.769-.42.385.022.654.186.74.265l-.23.484c-.112-.19-.387-.22-.51-.21-.645.08-.781.672-.769.958V35h-.658zM27.79 31c1.23 0 1.484.79 1.458 1.186h-.604c0-.256-.185-.605-.853-.628-.669-.023-.797.302-.806.543-.008.24.065.45 1.087.604.818.124 1.198.446 1.256.713.113.517-.02 1.557-1.449 1.581-1.43.025-1.707-.878-1.666-1.333h.62c-.033.48.362.806 1.046.799.684-.008.845-.38.861-.613.017-.232-.112-.472-1.304-.666-.953-.155-1.127-.731-1.095-1-.03-.395.22-1.186 1.45-1.186zM33.528 29.44c1.662 0 2.005 1.099 1.97 1.649h-.817c0-.356-.25-.841-1.153-.873-.904-.033-1.078.42-1.089.754-.01.335.087.626 1.47.841 1.105.173 1.573.698 1.652 1.07.153.72.019 2.088-1.914 2.122-1.932.035-2.307-1.222-2.252-1.855h.838c-.044.669.49 1.122 1.414 1.111.925-.01 1.143-.528 1.165-.852.021-.323-.153-.658-1.763-.927-1.289-.216-1.524-1.017-1.48-1.391-.04-.55.296-1.65 1.959-1.65zM29.887 31.114V30h.685v1.114h.565v.51h-.565v2.416c0 .275.145.36.217.368h.348V35h-.565c-.567-.01-.693-.541-.685-.806v-2.57h-.517v-.51h.517z" fill="#0061AA"/><ellipse cx="37.478" cy="33.002" rx="1.72" ry="2.002" fill="#0061AA"/><ellipse cx="36.655" cy="26.078" rx=".757" ry="1.327" fill="#F0F3FA"/><path d="M41.748 24.407c-.837 0-.995.63-.97.965h1.89c.041-.307-.15-.965-.92-.965z" fill="#F0F3FA"/><ellipse cx="37.478" cy="33.005" rx="1.084" ry="1.464" fill="#F0F3FA"/><path d="M39.588 33.842V31h.675v2.32c0 .392-.027 1.124.797 1.105.824-.02.99-.745.969-1.105V31h.65v3.91h-.589v-.619c-.304.632-.953.733-1.239.705-1.01.048-1.263-.75-1.263-1.154zM46.985 31c1.064.025 1.364.941 1.38 1.397h-.604c0-.587-.518-.794-.776-.824-.938.04-1.079.764-1.13 1.447-.05.683.273 1.506 1.04 1.446.612-.048.832-.623.866-.904h.605c-.06.499-.452 1.485-1.532 1.436-1.351-.06-1.583-1.115-1.633-1.978-.05-.864.453-2.05 1.784-2.02zM50.414 31c1.34.043 1.614 1.487 1.584 2.203h-2.723c-.04.747.392 1.298 1.139 1.298.597 0 .85-.507.903-.76h.602c-.188 1.038-1.082 1.271-1.505 1.258-1.498.042-1.811-1.31-1.78-1.992.034-.686.44-2.048 1.78-2.006z" fill="#0061AA"/><path d="M50.349 31.585c-.849.041-1.052.76-1.048 1.115h2.03c.026-.389-.134-1.157-.982-1.115z" fill="#F0F3FA"/></svg>