<!-- by TradingView --><svg xmlns="http://www.w3.org/2000/svg" width="56" height="56"><path d="M0 28a28 28 0 1156 0 28 28 0 01-56 0z" fill="#F0F3FA"/><path d="M28 38c4.96 0 9-3.52 9-8.48 0-4.96-4.16-8.52-9.12-8.52-.8 0-1.67.04-2.27.65-.38.37-.6.89-.6 1.45 0 1.04.99 1.9 1.93 1.9h.94c2.68 0 5.12 1.82 5.12 4.5 0 2.68-2.32 4.5-5 4.5s-5-1.8-5-4.48l-.01-7.56v-8.1h-.01A2 2 0 0021 12a2 2 0 00-1.99 1.87H19v15.65c0 4.96 4.04 8.48 9 8.48zm-.85-22h8.63C37 16 38 15.1 38 14c0-1.67-1.67-2-2.25-2h-8.6c-1.2.04-2.15.92-2.15 2s.98 2 2.15 2zm-6.16 24h14.02a2 2 0 010 4H20.99a2 2 0 010-4z" fill="#3EB4E4"/></svg>