<!-- by TradingView --><svg xmlns="http://www.w3.org/2000/svg" width="56" height="56"><path d="M0 28a28 28 0 1156 0 28 28 0 01-56 0z" fill="#F0F3FA"/><path d="M43 14H13v15.51c.2 4.5 3.44 13.04 14.42 17.27L28 47l.58-.22C39.56 42.55 42.8 34 43 29.5V14zM16 29.41V17h24v12.41c-.16 3.42-2.8 10.8-12 14.59-9.2-3.8-11.84-11.17-12-14.59zm8.53-4.82a14.22 14.22 0 013.02-4.61l.48-.53.35.39c1.9 2.08 2.99 3.85 3.3 5.38.1.5.1.68.03 1.16-.13.9-.46 1.48-1.34 2.4a5.32 5.32 0 00-1.68 2.98 5.52 5.52 0 00.46 3.4c.28.55.33.84.2 1.27-.18.57-.71.95-1.34.95-.56 0-1-.29-1.25-.82-.2-.44-.17-.76.15-1.45.4-.84.53-1.44.53-2.38 0-.91-.17-1.62-.53-2.32a6.3 6.3 0 00-1.34-1.78 3.9 3.9 0 01-1.19-1.97 4.61 4.61 0 01.15-2.07zm-5.84 7.27a3.75 3.75 0 012.92-2.93c.5-.1 1.43-.04 1.92.13a3.63 3.63 0 012.52 3.45c0 1.3-.54 2.03-1.49 2.03-.5 0-1.01-.3-1.24-.73-.06-.11-.13-.48-.16-.83-.1-1.02-.53-1.67-1.37-2.05a2.37 2.37 0 00-2.93.9l-.22.33.05-.3zm11.34.07a3.74 3.74 0 017.28-.34c.15.56.14.7-.04.37a2.52 2.52 0 00-1.84-1.22c-.7-.09-1.5.23-1.99.78-.36.4-.52.83-.58 1.53-.04.5-.1.69-.24.9-.44.67-1.48.78-2.1.24-.42-.35-.64-1.4-.5-2.26z" fill="#AB0535"/></svg>