<!-- by TradingView --><svg width="56" height="56" xmlns="http://www.w3.org/2000/svg"><path fill="#0B83C7" d="M0 0h56v56H0z"/><path d="M39.934 32H44c0-8.739-7.163-16-16-16s-16 7.261-16 16h4.066c0-6.518 5.343-11.979 11.934-11.979 6.59 0 11.934 5.461 11.934 11.979z" fill="#fff"/><path d="M28 20.98c6.055 0 10.964 5.032 10.964 11.02h-4.623c0-3.463-2.84-6.447-6.34-6.447-3.503 0-6.341 2.984-6.341 6.447h-4.624c0-5.988 4.909-11.02 10.964-11.02z" fill="#fff"/><ellipse cx="28" cy="31.823" rx="5.235" ry="5.177" fill="#fff"/></svg>