<!-- by TradingView --><svg width="56" height="56" xmlns="http://www.w3.org/2000/svg"><path fill="#002A42" d="M0 0h56v56H0z"/><path d="M23.869 12.755c3.08 1.451.684 5.523 3.364 7.322C28.319 20.832 29.5 21 31 21c4 0 10-.5 12.18 3.16 1.146 1.679 1.028 4.461-.059 6.14-.625 1.103-1.711 1.739-2.797 2.146 1.653.408 3.08 1.967 3.482 3.586.567 2.375-.118 4.749-1.936 6.308-2.219 1.907-5.324 1.655-8.322 1.643-2.502-.024-6.22.024-7.295-2.578-.685-2.027.177-4.917-2.16-6.08-3.081-1.104-6.835-.984-10.093-.348v-5.205c2.113-.575 4.722-.671 6.894-.467 1.593.227 3.482.407 4.214 2.026.968 2.255-.189 6.306 2.892 7.169 2.68.696 7.449.524 8.735.5 2.21.042 2.925-3.755.567-4-2.802 0-7.404.214-9.172-.419-3.081-1.103-1.428-4.869-2.904-7.003-1.487-1.8-4.722-1.643-6.044-1.68-2.29-.023-3.506.109-5.182.409v-5.205c3.187-.576 7.295-.923 10.199.468 2.798 1.738.165 6.2 3.482 7.579 2.963 1.103 8.819.851 9.75.851.569 0 1.252-.732 1.43-1.367.568-1.775-1.445-2.633-2.846-2.633-4.143-.036-8.31.372-9.573-2.314-.744-2.027.118-4.43-2.22-5.654-2.396-.923-6.209-.863-7.98-.636-1.25.156-2.242.348-2.242.348v-5.276c1.428-.288 2.869-.468 4.415-.468 1.865.012 3.8.072 5.454.755z" fill="#fff"/></svg>