<!-- by TradingView --><svg width="56" height="56" xmlns="http://www.w3.org/2000/svg"><path fill="#293A40" d="M0 0h56v56H0z"/><path d="M40 40.038C40 38.35 41.35 37 43 37c1.687 0 3 1.35 3 3.038C46 41.688 44.687 43 43 43c-1.65 0-3-1.313-3-2.962z" fill="#65A6FF"/><path d="M23.152 17.388v6.841h3.914c1.34 0 2.423-.252 3.252-.758.842-.519 1.263-1.43 1.263-2.736 0-1.445-.552-2.4-1.657-2.863-.953-.322-2.168-.484-3.645-.484h-3.127zm0 12.064v8.185h3.914c1.34 0 2.382-.182 3.128-.547 1.353-.674 2.03-1.965 2.03-3.873 0-1.614-.656-2.723-1.968-3.326-.732-.337-1.76-.425-3.087-.44h-4.017zM28.31 12c3.742.056 6.393 1.158 7.953 3.305.94 1.319 1.409 2.897 1.409 4.736 0 1.894-.47 3.416-1.409 4.567-.525.645-1.298 1.235-2.32 1.768 1.56.575 2.734 1.487 3.522 2.736.8 1.25 1.2 2.765 1.2 4.547 0 1.838-.455 3.487-1.366 4.946a8.527 8.527 0 01-2.175 2.442c-.98.758-2.14 1.277-3.48 1.557-1.325.281-2.768.421-4.329.421h-9.979V12h10.974z" fill="#fff"/></svg>