<!-- by TradingView --><svg width="56" height="56" xmlns="http://www.w3.org/2000/svg"><path fill="#1D2B93" d="M0 0h56v56H0z"/><path d="M41 38.998h-6s.998-.355.998-1.998v-9c0-1.712-1.453-2.383-2.762-2.777-1.104-.324-2.496.03-3.31.472-1.52.692-2.56 1.538-3.926 2.305v-8.227c0-1.416-.697-1.615-1-2.028L31 14.997v9.412c2.011-.796 4.348-2.746 7-1.77 1.164.427 2.999 1.88 2.999 3.752v12.607z" fill="#fff"/><path d="M31 36.01c0 1.294-.604 2.99-2.198 2.99l-2.797-.001L26 28h2.624c1.318 0 2.381.736 2.376 2.554v5.457zM21 38.999H11c1.429-1.686 8.442-11.312 10-18v18z" fill="#fff"/></svg>