<!-- by TradingView --><svg width="56" height="56" xmlns="http://www.w3.org/2000/svg"><path fill="#0071F7" d="M0 0h56v56H0z"/><path d="M48.647 34.537c.5.713.4 1.629-.2 2.137-.699.509-1.697.407-2.197-.203L43 32l-3.64 4.369c-.5.712-1.51.814-2.21.305-.698-.508-.786-1.526-.287-2.238L41 29l-3.82-4.473c-.499-.712-.299-1.73.3-2.238.7-.509 1.698-.305 2.197.305L43 26.655l3.25-4.06c.5-.713 1.399-.815 2.197-.306.7.509.7 1.526.2 2.238L45 29l3.647 5.537zM30.471 34C26.98 34 26 31.202 26 29.348 26 27.493 27.416 25 30.471 25c3.056 0 4.52 2.316 4.529 4.246.009 1.93-1.036 4.754-4.529 4.754zM16.69 34c-2.798.073-4.69-1.763-4.69-4.497S13.762 25 16.69 25c2.927 0 4.283 2.7 4.283 4.503 0 1.804-1.485 4.424-4.283 4.497zM30.47 22c-2.896 0-5.492 1.14-6.79 3.583C22.381 23.14 19.995 22 17 22c-1.798 0-3.706.611-5.004 1.527l.004-7c0-.815-.603-1.527-1.402-1.527C9.699 15 9 15.712 9 16.526v12.822C9.1 33.62 12.495 37 16.69 37c2.996 0 5.592-1.75 6.89-4.193 1.299 2.443 3.895 4.172 6.792 4.172 4.294 0 7.628-3.46 7.628-7.835.1-4.172-3.234-7.144-7.529-7.144z" fill="#fff"/></svg>