<!-- by TradingView --><svg width="56" height="56" fill="none" xmlns="http://www.w3.org/2000/svg"><path fill="#F0F3FA" d="M0 0h56v56H0z"/><path fill-rule="evenodd" clip-rule="evenodd" d="M31 30v5h.663v-2.405h2.465V35h.666v-5h-.666v2h-2.465v-2H31zm4.482 4.562c.304.292.679.438 1.123.438.421 0 .79-.14 1.105-.419.317-.28.476-.745.476-1.396 0-.519-.144-.933-.432-1.241-.285-.311-.668-.467-1.149-.467a1.59 1.59 0 00-1.114.425c-.309.284-.463.73-.463 1.337 0 .588.151 1.029.454 1.323zm.397-2.272a.868.868 0 01.726-.346c.305 0 .547.115.727.346.18.228.27.537.27.926 0 .41-.089.731-.267.962-.175.23-.419.346-.73.346a.871.871 0 01-.726-.343c-.178-.228-.267-.543-.267-.942 0-.405.089-.72.267-.95zm2.42 2.71v-4.653h.565V35H38.3zm3.125-.508V35h.533v-4.732h-.57v1.67h-.014c-.211-.307-.515-.46-.91-.46-.432 0-.778.159-1.038.478-.26.318-.39.745-.39 1.283 0 .512.136.934.409 1.266.273.33.619.495 1.038.495.419 0 .729-.17.93-.508h.012zm-1.568-2.202a.758.758 0 01.66-.346c.286 0 .51.12.673.358.165.237.248.566.248.987 0 .383-.08.685-.241.905a.768.768 0 01-.654.33.795.795 0 01-.673-.346c-.167-.233-.25-.544-.25-.933 0-.408.079-.727.237-.955zM42.3 31v-.654h.57v.654h-.57zm0 3.999v-3.367h.57V35h-.57zm.94-3.367V35h.572v-1.84c0-.314.038-.54.114-.68a.747.747 0 01.327-.32.973.973 0 01.45-.112c.164 0 .301.037.413.111a.56.56 0 01.232.276c.042.11.063.283.063.518V35h.575v-2.072c0-.288-.013-.49-.038-.607a.932.932 0 00-.552-.653 1.386 1.386 0 00-.562-.112c-.472 0-.827.184-1.067.553h-.012v-.476h-.514zm2.996 3.646l.555.086c.049.355.306.533.772.533.23 0 .42-.044.568-.133a.66.66 0 00.301-.352c.053-.146.08-.375.08-.686v-.168c-.248.294-.56.441-.937.441-.425 0-.774-.158-1.047-.473-.271-.317-.406-.728-.406-1.231 0-.525.133-.946.4-1.264.268-.317.622-.476 1.06-.476.404 0 .727.16.97.48h.014v-.403h.526v2.913c0 .508-.051.874-.155 1.098a1.123 1.123 0 01-.514.53c-.24.127-.524.19-.854.19-.41 0-.736-.091-.978-.275a.874.874 0 01-.355-.81zm1.387-3.256a.784.784 0 00-.67.343c-.165.226-.247.534-.247.923 0 .387.082.69.247.908a.808.808 0 00.682.327.873.873 0 00.642-.286c.188-.192.282-.515.282-.968 0-.38-.086-.683-.257-.908a.805.805 0 00-.68-.34zm2.145 1.806l-.569.086c.119.723.6 1.085 1.445 1.085.4 0 .725-.1.977-.301a.935.935 0 00.38-.765.86.86 0 00-.113-.451.81.81 0 00-.337-.308c-.15-.078-.427-.17-.831-.276-.404-.108-.652-.19-.743-.245-.089-.057-.133-.149-.133-.276 0-.135.064-.24.193-.317.13-.078.308-.117.537-.117.44 0 .686.184.74.552l.558-.076c-.074-.629-.52-.943-1.34-.943-.37 0-.67.09-.898.27a.843.843 0 00-.343.698c0 .184.048.344.143.48a.952.952 0 00.416.32c.182.078.445.16.79.247.347.085.562.16.645.226a.32.32 0 01.127.273c0 .16-.071.29-.213.39-.14.1-.327.15-.562.15-.514 0-.804-.234-.87-.702z" fill="#0552A0"/><path fill-rule="evenodd" clip-rule="evenodd" d="M48 29v-7h1v2.64s.5-.64 1.264-.64C51.48 24 52 24.8 52 25.883V29h-1v-2.897c0-.576-.263-1.103-.926-1.103-.804 0-1.074.883-1.074 1.52V29h-1zm-.57-1l.126.926a3.02 3.02 0 01-.636.074c-.92 0-1.222-.643-1.222-1.508V25h-.545v-1h.545v-1.146l1.007-.506V24h.726v1h-.726v2.533c0 .467.215.6.726.467zm-3.193 1h1.032a1.798 1.798 0 01-.218-.594c-.034-.204-.051-.692-.051-1.466v-1.122c0-.4-.023-.69-.07-.872C44.74 24.138 43.71 24 43 24c-1.302 0-1.955.473-2.128 1.484l.878.107c.162-.681.536-.841 1.218-.841.84 0 1.032.198 1.032.905v.218c-.232.078-.475.097-.817.124-.178.014-.383.03-.628.057-.877.1-1.827.423-1.827 1.446 0 .942.817 1.5 1.679 1.5.656 0 1.104-.068 1.658-.55.025.229.082.374.172.55zm-.83-2.32c.23-.02.402-.036.593-.11 0 1.013-.24 1.664-1.384 1.664-.54 0-.998-.26-.998-.734 0-.609.596-.68 1.105-.74l.199-.026c.192-.029.349-.042.484-.054zm-10.1.32v-1h2.38v1h-2.38zM27 22v1h1v-1h-1zm0 2v5h1v-5h-1z" fill="#000"/><path fill-rule="evenodd" clip-rule="evenodd" d="M13.511 22.87c1.194-.565 2.65-1.325 2.65-2.87h1.748c-.092 1.578-.813 2.438-2.081 3.22-.766.472-1.633.901-2.494 1.327-.77.381-1.536.76-2.218 1.165-1.066.632-1.315 1.138-1.276 1.355.283 2.42 1.924 3.737 2.905 4.143 1.905.787 5.144 2.218 5.144 4.79h-1.531c-.15-1.035-.825-1.678-1.924-2.277a60.429 60.429 0 00-2.063-1.056c-.896-.444-1.755-.87-2.413-1.267-1.188-.717-2.074-1.553-2.235-2.9-.156-1.306.592-2.75 1.646-3.503.848-.607 2.103-1.185 3.288-1.731.291-.134.578-.266.854-.397zm-3.129.801c-2.25-1.08-2.74-2.773-2.74-3.651h1.813c.178 1.582 1.696 2.421 2.623 2.812-.183.09-.387.193-.593.296-.416.209-.839.421-1.103.543zm5.329 3.122c.604.737.726 1.909-.178 2.69l-.216.235 1.826.471.118-.157c.582-.873.876-1.934.53-2.945-.474-1.385-1.868-2.345-2.611-2.69-.531.197-1.276.629-1.531.786.722.38 1.536.968 2.062 1.61zm-5.64 5.842c-1.817.846-2.353 2.584-2.39 3.365h1.797c.32-1.743 1.484-2.304 2.441-2.766l.12-.058a7.293 7.293 0 01-.9-.454 1.259 1.259 0 00-.633-.177c-.15 0-.299.027-.434.09zm.083-12.242c0-.206.167-.373.373-.373h4.476a.373.373 0 010 .746h-4.476a.373.373 0 01-.373-.373zm0 7.46c0 .206.167.373.373.373h4.476a.373.373 0 000-.746h-4.476a.373.373 0 00-.373.373zM10.527 36a.373.373 0 010-.746h4.476a.373.373 0 010 .746h-4.476zm.452-14.373c0-.206.167-.373.373-.373h2.866a.373.373 0 010 .746h-2.866a.373.373 0 01-.373-.373zM11.352 27a.373.373 0 010-.746h2.866a.373.373 0 010 .746h-2.866zm-.373 7.373c0 .206.167.373.373.373h2.866a.373.373 0 000-.746h-2.866a.373.373 0 00-.373.373z" fill="url(#paint0_linear_3186)"/><path d="M4.029 21.354C9.283 29.805 21.5 31.5 29 32.102v.628c-17.672.742-25.53-4.418-24.971-11.376z" fill="url(#paint1_linear_3186)"/><path fill-rule="evenodd" clip-rule="evenodd" d="M21 22h3a2 2 0 011.532 3.286A1.999 1.999 0 0124.5 29H21v-7zm1 3h2a1 1 0 100-2h-2v2zm0 1v2h2.5a1 1 0 100-2H22zM32 26.5c0-.759-.382-1.5-1.25-1.5s-1.25.741-1.25 1.5.382 1.5 1.25 1.5S32 27.259 32 26.5zM30.75 24c-1.418 0-2.25 1.191-2.25 2.5s.832 2.5 2.25 2.5c1.418 0 2.25-1.191 2.25-2.5s-.832-2.5-2.25-2.5zM36 26v3h1v-3h2a2 2 0 100-4h-3v4zm1-3v2h2a1 1 0 100-2h-2z" fill="#000"/><defs><linearGradient id="paint0_linear_3186" x1="12.79" y1="20.02" x2="12.79" y2="36" gradientUnits="userSpaceOnUse"><stop stop-color="#05509A"/><stop offset=".288" stop-color="#043B74"/><stop offset=".498" stop-color="#02294D"/><stop offset=".748" stop-color="#00162B"/><stop offset="1" stop-color="#010204"/></linearGradient><linearGradient id="paint1_linear_3186" x1="3.99" y1="22.041" x2="29.668" y2="32.329" gradientUnits="userSpaceOnUse"><stop stop-color="#05529F"/><stop offset="1" stop-color="#06529E"/></linearGradient></defs></svg>