<!-- by TradingView --><svg width="56" height="56" xmlns="http://www.w3.org/2000/svg"><path fill="#004890" d="M0 0h56v56H0z"/><path d="M12 42h28.722C42.4 42 44 40.345 44 38.744V32.37c0-1.577-1.168-3.18-3-3.37h-8c-.256 1.799-1.149 3.48-2.426 4.858-2.354 2.52-6.163 3.33-9.328 2.031-2.764-1.098-4.919-3.968-5.23-6.889h-4.02L12 42zm15.83-19.49c-1.965-1.311-5.074-1.233-6.983.133-2.288 1.576-3.254 4.285-2.666 6.906.445 2.055 2.343 4.054 4.364 4.63a6.73 6.73 0 006.898-1.995c1.6-1.788 2.043-4.774.955-6.929-.511-1.1-1.534-2.08-2.567-2.745zM12 14v13h4c.3-2.255 1.338-4.235 3.27-5.745 2.331-1.844 5.93-2.299 8.662-1.011C30.628 21.41 32.733 24.157 33 27h8c1.62 0 3-1.147 3-3v-6.61c0-1.555-1.133-3.413-3-3.39H12z" fill="#fff"/></svg>