<!-- by TradingView --><svg xmlns="http://www.w3.org/2000/svg" width="56" height="56"><path fill="#F0F3FA" d="M0 0h56v56H0z"/><path d="M36.27 16.24c1.25-2.3 1.45-4.41-1.5-4.86 3.65-1.4 4.43 1.25 2.7 4.52-.16.29-.33.58-.52.87h.01a15.8 15.8 0 01-1.13 1.56v-.01a21.2 21.2 0 01-4.88 4.3c.73-.56 2.8-2.62 4.36-4.83-2.03-1.99-4.96-3.73-9.07-5.06 3.47.32 7.12 1.38 10.03 3.51zm5 6.74c2.48-4.1 2.97-8.28-.9-8.53 1.8-.56 3-.51 3.71-.05 2.76 1.79-2.1 10.97-7.62 14.09a20.1 20.1 0 002.72-2.64 12.47 12.47 0 00-2.76-6.84c.5-.51.9-1.06 1.26-1.6a13.85 13.85 0 013.6 5.56zm-2.04 4.7c-.08 2.5-.77 4.94-1.7 7.1a28.07 28.07 0 01-4.72 7.48c2.3-1.36 5.76-4.7 7.7-8.93a14.14 14.14 0 001.3-8.25 19.4 19.4 0 01-2.58 2.6zM25.03 45c-12.37-5.92-12.67-16.94-6.46-27.76-3.94 4.85-7.04 10.79-6.51 16.25.68 7.06 6.96 10.33 12.98 11.51zm.2-10.5a18.72 18.72 0 01-2.03-6.75 7.75 7.75 0 01-3.88-.6c1.58 0 2.76-.02 3.81-.15a22.5 22.5 0 01.55-7.02c-.22 2.56-.08 4.85.3 6.88 1.38-.28 2.66-.85 4.52-1.97a10.05 10.05 0 01-4.38 2.69c.58 2.7 1.56 4.9 2.56 6.61 4.06-1.03 6.83-3 6.83-3a15.23 15.23 0 01-6.2 4.02 16.46 16.46 0 002.84 3.33H28.3a15.78 15.78 0 01-2.44-2.95c-2.24.45-4.74.26-7.29-1.13 2.37.5 4.64.41 6.66.05z" fill="#71B94D"/></svg>