<!-- by TradingView --><svg width="56" height="56" xmlns="http://www.w3.org/2000/svg"><path fill="#F0F3FA" d="M0 0h56v56H0z"/><path d="M27.799 34.675c3.047-1.143 6.024-2.706 8.625-4.775-2.34-.899-4.54-2.13-6.539-3.605a76.31 76.31 0 01-2.086 8.38z" fill="#E63329"/><path d="M37.638 23.711c-1.319-1.388-2.34-3.107-3.056-4.976a21.052 21.052 0 01-3.57-.68 72.224 72.224 0 01-1.118 8.24c2.593-.358 5.212-1.205 7.744-2.584z" fill="#F39121"/><path d="M29.894 26.295c2 1.484 4.2 2.715 6.539 3.606a24.327 24.327 0 004.025-4.016 11.208 11.208 0 01-2.82-2.183c-2.532 1.388-5.151 2.235-7.744 2.593z" fill="#EC6624"/><path d="M29.894 26.296a28.476 28.476 0 01-4.217-3.842 26.364 26.364 0 01-3.317 3.518c2.418.55 4.967.673 7.534.323z" fill="#E95028"/><path d="M24.167 43.535c3.597.89 7.272.48 10.476-.978a28.686 28.686 0 01-5.212-1.039 31.416 31.416 0 01-5.264 2.017z" fill="#234295"/><path d="M19.461 36.813c1.205 2.689 2.777 5.029 4.706 6.722a34.718 34.718 0 001.615-3.317 37.336 37.336 0 01-6.32-3.405z" fill="#234295"/><path d="M24.167 43.536a31.045 31.045 0 005.256-2.017 32.915 32.915 0 01-3.64-1.301 32.77 32.77 0 01-1.616 3.318z" fill="#0A66B0"/><path d="M27.799 34.675c1.527 1.912 3.169 3.623 4.862 5.011a32.325 32.325 0 005.841-4.828c-3.265.847-7.01.742-10.703-.183zM17.2 29.333c.472 2.61 1.231 5.176 2.261 7.49 2.698-.402 5.553-1.092 8.338-2.14-3.79-.96-7.517-2.784-10.599-5.35z" fill="#7C2F88"/><path d="M27.799 34.675c-2.087-2.619-3.955-5.63-5.448-8.712-1.615 1.414-3.37 2.584-5.15 3.361 3.081 2.575 6.809 4.4 10.598 5.351z" fill="#B92A2E"/><path d="M16.624 23.702c.044 1.851.236 3.754.576 5.631 1.781-.776 3.536-1.946 5.151-3.36a20.705 20.705 0 01-5.727-2.27z" fill="#E32127"/><path d="M29.894 26.295c-2.567.35-5.116.227-7.534-.332 1.493 3.082 3.36 6.084 5.447 8.712a79.957 79.957 0 002.087-8.38z" fill="#D12429"/><path d="M36.424 29.9a25.054 25.054 0 005.046 1.363 28.736 28.736 0 002.497-4.252 10.028 10.028 0 01-3.518-1.126c-1.179 1.519-2.54 2.846-4.025 4.016z" fill="#EF7824"/><path d="M17.2 29.334c-1.833-1.52-3.44-3.31-4.688-5.326a15.972 15.972 0 00-.34 6.347c1.632.096 3.343-.288 5.028-1.021z" fill="#8A2E88"/><path d="M17.2 29.333a36.547 36.547 0 01-.576-5.63 20.396 20.396 0 01-3.195-2.296 15.094 15.094 0 00-.917 2.601c1.248 2.016 2.855 3.797 4.688 5.325z" fill="#C8262B"/><path d="M12.171 30.354a16.017 16.017 0 002.76 6.88 40.788 40.788 0 004.53-.41c-2.82-1.886-5.325-4.104-7.29-6.47z" fill="#0B55A3"/><path d="M17.2 29.333c-1.685.733-3.396 1.117-5.029 1.021 1.965 2.366 4.47 4.583 7.29 6.468-1.03-2.313-1.79-4.88-2.261-7.49z" fill="#2B3B8F"/><path d="M24.167 43.535c-1.93-1.685-3.5-4.033-4.706-6.722-1.58.236-3.108.367-4.53.41a15.937 15.937 0 007.595 5.806c.55.21 1.09.375 1.64.506z" fill="#0A66B0"/><path d="M29.431 41.519a29.61 29.61 0 005.212 1.039c.437-.2.873-.42 1.292-.664-1.1-.585-2.191-1.336-3.265-2.209a32.594 32.594 0 01-3.239 1.834z" fill="#0B55A3"/><path d="M38.51 34.86c1.764-.455 3.397-1.188 4.803-2.219.113-.384.218-.76.305-1.143a21.924 21.924 0 01-2.139-.236 31.648 31.648 0 01-2.968 3.597z" fill="#E44025"/><path d="M43.967 27.01a28.741 28.741 0 01-2.497 4.253 21.96 21.96 0 002.14.235c.34-1.493.453-3.003.357-4.487z" fill="#F39121"/><path d="M32.661 39.686c1.074.873 2.166 1.623 3.266 2.208a15.91 15.91 0 007.097-8.423c.105-.28.192-.56.28-.839-1.406 1.03-3.038 1.764-4.802 2.218a31.366 31.366 0 01-5.84 4.836z" fill="#9D2B4F"/><path d="M31.003 18.056c1.117.323 2.296.541 3.57.68a18.809 18.809 0 01-1.23-5.814 15.8 15.8 0 00-2.218-.61c.079 1.824.026 3.753-.122 5.744z" fill="#F8AD1C"/><path d="M31.003 18.055c.148-1.99.192-3.92.122-5.744-.384-.079-.768-.14-1.161-.192 0 1.615-.428 3.361-1.17 5.116.716.332 1.45.602 2.209.82z" fill="#F59C20"/><path d="M16.624 23.702a20.707 20.707 0 005.727 2.27c-1.825-3.771-3.09-7.656-3.5-11.086-.49.34-.97.716-1.415 1.108-.611 2.296-.882 4.95-.812 7.708z" fill="#E95028"/><path d="M25.669 22.454c-2.296-2.575-4.069-5.517-5.116-8.607-.585.306-1.153.655-1.703 1.03.41 3.44 1.677 7.315 3.501 11.086a26.297 26.297 0 003.318-3.509z" fill="#ED7025"/><path d="M28.794 17.243c-2.104-.943-4.042-2.348-6.094-4.33a17.34 17.34 0 00-2.147.934c1.047 3.09 2.82 6.033 5.124 8.599 1.292-1.65 2.366-3.43 3.117-5.203z" fill="#F39121"/><path d="M34.574 18.735c.715 1.869 1.745 3.589 3.055 4.977a26.75 26.75 0 004.531-3.143 16.735 16.735 0 00-1.056-1.738c-2.48.123-4.61.114-6.53-.096z" fill="#F08225"/><path d="M40.458 25.894a21.642 21.642 0 002.41-3.789 16.311 16.311 0 00-.708-1.537 25.458 25.458 0 01-4.531 3.143 11.25 11.25 0 002.829 2.183z" fill="#F39121"/><path d="M43.967 27.011a16.018 16.018 0 00-1.1-4.915 22.361 22.361 0 01-2.41 3.79 9.753 9.753 0 003.51 1.125z" fill="#EC6624"/><path d="M29.894 26.295c.533-2.75.917-5.543 1.117-8.24a16.297 16.297 0 01-2.208-.812c-.751 1.772-1.825 3.553-3.126 5.202a27.648 27.648 0 004.217 3.85z" fill="#F08225"/><path d="M27.799 34.675c-.62 2-1.301 3.876-2.017 5.544 1.196.498 2.41.934 3.64 1.3a31.658 31.658 0 003.24-1.833c-1.694-1.38-3.335-3.09-4.863-5.011z" fill="#234295"/><path d="M27.799 34.675c-2.785 1.048-5.64 1.737-8.338 2.139a37.626 37.626 0 006.321 3.405c.725-1.668 1.397-3.545 2.017-5.544z" fill="#942F88"/><path d="M27.799 34.676c3.684.925 7.43 1.03 10.703.183a32.42 32.42 0 002.968-3.597 24.488 24.488 0 01-5.046-1.362c-2.601 2.07-5.57 3.632-8.625 4.776z" fill="#D12429"/><path d="M17.436 15.994a15.873 15.873 0 00-4.007 5.413c.995.872 2.069 1.64 3.195 2.295-.07-2.758.2-5.412.812-7.708z" fill="#ED7025"/><path d="M41.104 18.833a15.937 15.937 0 00-7.63-5.858c-.044-.018-.088-.035-.131-.044a19.384 19.384 0 001.23 5.814c1.921.201 4.051.21 6.53.088zM29.964 12.127a15.958 15.958 0 00-7.272.786c2.06 1.982 3.998 3.387 6.093 4.33.751-1.754 1.179-3.5 1.179-5.116z" fill="#FCC112"/></svg>