<!-- by TradingView --><svg width="56" height="56" xmlns="http://www.w3.org/2000/svg"><path fill="#002954" d="M0 0h56v56H0z"/><path d="M24.02 20c5.796 0 6.926 4.162 6.926 6.002 0 2.26-1.275 4.998-5.195 4.998h-2.224C22.469 31 22 30.98 22 26.603V20h2.02zM19 30.452c0 .313-.078.548-.463.548H17v1h8.006c6.962 0 8.934-3.317 8.934-6.25 0-3.283-2.573-5.412-5.615-6.013v-.072c2.152-.817 4.208-2.369 4.208-4.87 0-3.042-2.405-4.795-5.94-4.795H16v1h2.08c.914 0 .92 1.222.92 4.854v14.598zm8.086-11.063C25.992 19.136 25.283 19 22 19v-7.283c0-.637.253-.717.782-.717h2.79c1.73 0 4.207 1.246 4.207 4.36 0 1.948-1.058 3.15-2.693 4.029z" fill="#fff"/><path d="M30.08 35c5.796 0 6.926 4.204 6.926 6.044 0 2.26-1.275 4.978-5.195 4.978h-2.224c-1.058 0-1.587 0-1.587-4.377V35h2.08zM25 45.431c0 .313-.018.565-.403.565H23V47h8.066C38.028 47 40 43.725 40 40.791c0-3.282-2.573-5.41-5.615-6v-.072c2.152-.817 4.208-2.369 4.208-4.87 0-3.042-2.405-4.849-5.94-4.849H22v1h2.14c.914 0 .86 1.276.86 4.908V45.43zm8.146-10.988C32.052 34.19 31.283 34 28 34v-7.356c0-.637.17-.644.7-.644h2.931c1.732 0 4.209 1.3 4.209 4.403 0 1.947-1.07 3.15-2.694 4.04z" fill="#fff"/></svg>