<!-- by TradingView --><svg xmlns="http://www.w3.org/2000/svg" width="56" height="56"><path fill="#003794" d="M0 0h56v56H0z"/><path d="M52 23a60.29 60.29 0 00-23.42-5C19.25 18 11.85 19.23 4 23c8.51-2.99 15.66-4 24.97-4 8.05 0 16.52 1.69 23.03 4zM23.87 34h2.29l.16-.74h-2.3l-.15.74zm-6.86-.44c.7.37 1.54.5 2.34.44.8-.05 1.53-.28 2.17-.74h-4.94l.43.3zm5.11-8.08c-2.02-1.18-4.81-.25-6.23 2.07a4.34 4.34 0 00-.3 4.45h3.09a1.66 1.66 0 01-.24-.07c-1.04-.44-1.36-1.57-.73-3.04.63-1.48 2.28-2.1 3.07-1.78 1.78.74.98 3.2-.13 4.22-.37.34-.81.53-1.3.67h3.5c.15-.18.28-.31.4-.51 1.4-2.33.9-4.83-1.13-6zM16.25 33h5.68c.24-.19.42-.48.62-.7h-6.83c.15.21.35.52.53.7zM5.68 34h5.1c.73 0 1.45-.39 2.09-.74H5.91l-.23.74zm8.74-7.09s0-1.69-2.52-1.91H7.73l-.44 2h4.23s.8.04.52.83c-.25.67-.92.68-1.27.67H7L6.17 32h7.75c.06-.13.1-.2.14-.35.18-.44.2-.93.04-1.39a2 2 0 00-.9-1.08c.42-.2.76-.54.98-.94a2.19 2.19 0 00.24-1.32zm-2.52 4.23c-.26.87-1.3.72-1.3.72H8.45l.37-1.65 1.78-.02c.33.01 1.44.01 1.3.95zM5.97 33h7.3c.2-.17.4-.47.53-.7H6.12l-.15.7zm41.3-6.04c.25.06.73.4.73 1.04h2.26s-.03-1.97-1.86-2.7c-2.18-.7-3.71.1-3.93.3a2.78 2.78 0 00-.95 1.41c-.15.56-.14 1.15.06 1.69.45 1.19 2.54 1.5 3.02 1.75 0 0 1.21.33.6 1.13-.72.65-2.03.35-2.22.18 0 0-.44-.12-.44-1.24l-2.24.12c-.04.49.02.9.18 1.36h6.89c.17-.39.26-.74.23-1.17-.15-2.04-2.4-1.9-3.76-2.78-.14-.11-.14-.3-.14-.49 0-.56.9-.76 1.57-.6zm-3.61 6.47c1.65.84 3.55.69 4.7-.13a.21.21 0 00.04-.04h-5.02c.08.07.18.13.28.18zM24.09 33h2.29l.14-.7h-2.29l-.14.7zm16.02-7.55c-2.03-1.18-4.82-.25-6.23 2.07a4.46 4.46 0 00-.15 4.48h7.17c.16-.2.31-.4.45-.62 1.41-2.33.8-4.73-1.24-5.93zm-1.23 5.62a6.51 6.51 0 00-1.41-.97l-.93 1.41c.33.08.63.23.9.44a1.52 1.52 0 01-.9-.08c-1.03-.44-1.5-1.55-.86-3.02.63-1.47 2.13-2.1 3.02-1.74 1.76.73 1.18 2.83.18 3.96zM43.04 33h5.7c.18-.18.33-.48.46-.7h-6.6c.1.22.26.52.44.7zm-8.3.26c.1.09.23.17.36.24a4.05 4.05 0 001.77.5 4.07 4.07 0 001.83-.3 4.24 4.24 0 001.62 1.3l1.16-1.46a3.13 3.13 0 01-.49-.28h-6.26zm-5.07 0l.28.74h2.44s-.14-.42-.29-.74h-2.43zm10.6-.56c.12-.1.24-.28.36-.4h-6.75c.15.22.32.52.51.7h6.2c-.12-.08-.22-.2-.32-.3zm-8.56-.4h-2.4l.25.7h2.42c-.08-.18-.16-.48-.26-.7zm-.8-7.3h-5.06l-.41 2h4.3c.75 0 .83.64.68.93-.23.47-.69.61-1.2.57h-4.18l-.77 3.5h2.29l.37-1.66h.83s.76-.27 1.4 1.66h2.42a9.58 9.58 0 00-1.07-1.8s-.07-.11.13-.09c0 0 1.95-.37 2.16-2.18.22-1.8-.54-2.69-1.89-2.93z" fill="#fff"/></svg>