<!-- by TradingView --><svg width="56" height="56" xmlns="http://www.w3.org/2000/svg"><path fill="#F0F3FA" d="M0 0h56v56H0z"/><path d="M44 29.941l-.026-.025a26.876 26.876 0 00-3.158-2.589 26.607 26.607 0 002.862-2.91l.026-.037-.039-.013c-1.25-.546-2.538-1-3.855-1.359a26.738 26.738 0 001.69-3.703l.012-.039h-.038a27.238 27.238 0 00-4.087.039c.206-1.34.31-2.694.31-4.05v-.038l-.039.013a25.954 25.954 0 00-3.83 1.422 26.524 26.524 0 00-1.108-3.921l-.013-.038-.038.025a26.377 26.377 0 00-3.106 2.64 27.286 27.286 0 00-2.388-3.307L27.136 12l-.026.038a27.269 27.269 0 00-2.01 3.537 26.47 26.47 0 00-3.379-2.294l-.038-.025-.013.038a26.042 26.042 0 00-.67 4.011 26.319 26.319 0 00-3.959-.999l-.038-.013v.038c.142 1.35.392 2.688.748 3.999-1.367.027-2.73.164-4.075.41l-.038.013.013.038a26.042 26.042 0 002.075 3.499 25.572 25.572 0 00-3.688 1.768l-.038.013.026.025a26.886 26.886 0 003.158 2.59 26.614 26.614 0 00-2.862 2.908l-.025.038.038.013c1.25.546 2.538 1 3.855 1.359a26.75 26.75 0 00-1.689 3.704l-.013.038h.039c.593.038 1.198.064 1.804.064.761 0 1.522-.038 2.282-.103a26.513 26.513 0 00-.309 4.05v.038l.038-.013a25.964 25.964 0 003.83-1.42c.269 1.333.64 2.644 1.11 3.92l.012.039.039-.026a26.378 26.378 0 003.105-2.64 27.275 27.275 0 002.385 3.307l.026.038.026-.038a27.27 27.27 0 002.01-3.537 26.468 26.468 0 003.379 2.294l.038.025.013-.038c.328-1.318.552-2.659.67-4.011a26.32 26.32 0 003.959 1l.038.013v-.039a25.361 25.361 0 00-.747-3.998 27.395 27.395 0 004.076-.399l.038-.013-.013-.038a26.055 26.055 0 00-2.076-3.499 25.575 25.575 0 003.688-1.768L44 29.94zm-16 3.576a5.568 5.568 0 01-3.08-.93 5.517 5.517 0 01-2.042-2.472 5.479 5.479 0 01-.315-3.184 5.5 5.5 0 011.517-2.821 5.576 5.576 0 016.041-1.195 5.537 5.537 0 012.488 2.03c.61.905.935 1.97.935 3.06a5.501 5.501 0 01-1.626 3.895A5.569 5.569 0 0128 33.517z" fill="#ACC5E9"/><path d="M40.816 27.327l-.039-.026a24.75 24.75 0 00-2.01-1.281 8.442 8.442 0 00-.478-.257c-.052-.026-.103-.064-.167-.09a27.485 27.485 0 001.663-2.627l.026-.038-.039-.013a32.768 32.768 0 00-2.334-.525c-.18-.026-.36-.064-.54-.076-.065-.013-.116-.013-.181-.026.278-.999.498-2.013.657-3.037v-.038h-.038c-.851.076-1.625.166-2.373.307-.18.026-.36.064-.541.103l-.18.038a25.194 25.194 0 00-.426-3.076l-.013-.038-.039.013c-.773.359-1.47.718-2.114 1.09-.153.089-.322.19-.464.281-.052.038-.103.064-.154.103a25.41 25.41 0 00-1.456-2.744l-.026-.038-.026.025a23.987 23.987 0 00-1.61 1.743l-.348.423c-.038.051-.077.09-.115.141a25.456 25.456 0 00-2.32-2.076l-.027-.026-.013.038c-.36.77-.657 1.487-.915 2.192-.064.166-.115.346-.18.512-.014.064-.039.115-.052.18-.94-.442-1.905-.83-2.889-1.166l-.038-.013v.038a25.977 25.977 0 00-.115 2.37c0 .18 0 .372.013.552v.179a25.311 25.311 0 00-3.12-.114h-.038l.013.038c.22.82.451 1.562.71 2.268.064.166.128.346.19.512a.888.888 0 01.065.167c-1.006.26-1.996.576-2.965.948l-.039.013.026.038c.49.692.967 1.307 1.444 1.884.115.14.245.282.361.41.04.05.082.097.129.14a24.803 24.803 0 00-2.463 1.91l-.025.026.038.026c.696.487 1.354.91 2.011 1.281.154.09.323.18.477.257.052.025.103.051.168.09a27.465 27.465 0 00-1.663 2.626l-.026.038.038.013c.825.218 1.586.385 2.334.526.18.038.374.064.554.09.065.012.115.012.18.025a26.494 26.494 0 00-.657 3.037v.038h.039a24.62 24.62 0 002.372-.307 7.94 7.94 0 00.541-.103l.181-.038c.079 1.033.22 2.06.426 3.076l.013.038.038-.013c.774-.359 1.47-.718 2.114-1.09.154-.089.31-.19.465-.281.051-.038.103-.064.153-.103.43.944.916 1.86 1.457 2.744l.026.038.025-.025a24.007 24.007 0 001.61-1.743l.346-.423c.035-.05.073-.096.115-.14.73.738 1.505 1.431 2.32 2.076l.026.025.013-.038c.361-.77.658-1.486.916-2.191.064-.167.115-.346.18-.526.014-.051.039-.114.052-.166.94.441 1.905.83 2.888 1.166l.039.013v-.038c.076-.846.115-1.615.115-2.371 0-.18 0-.372-.013-.551v-.18a28.43 28.43 0 002.565.115h.593l-.013-.038c-.219-.82-.45-1.563-.709-2.268-.064-.167-.129-.347-.206-.513a.88.88 0 01-.065-.167 27.495 27.495 0 002.966-.948l.038-.013-.026-.038a31.335 31.335 0 00-1.443-1.884c-.115-.14-.245-.282-.361-.41a1.274 1.274 0 00-.13-.14 24.792 24.792 0 002.463-1.91l.03-.04zM28 33.517a5.568 5.568 0 01-3.08-.93 5.517 5.517 0 01-2.042-2.472 5.48 5.48 0 011.202-6.005 5.575 5.575 0 016.042-1.195 5.536 5.536 0 012.488 2.03c.609.906.934 1.971.934 3.061a5.501 5.501 0 01-1.626 3.894A5.569 5.569 0 0128 33.517z" fill="#0047BA"/><path d="M38.327 29.25l-.028-.026a28.937 28.937 0 00-1.637-1.679c.49-.577.98-1.192 1.457-1.845l.025-.026-.025-.013a31.99 31.99 0 00-2.115-1.025c.28-.73.521-1.475.723-2.23l.013-.038h-.038a31.059 31.059 0 00-2.346-.243 29.421 29.421 0 00-.077-2.346v-.038l-.038.013c-.77.152-1.533.344-2.282.577a27.779 27.779 0 00-.89-2.179l-.013-.038-.026.013c-.67.41-1.328.859-1.946 1.307-.477-.59-1.019-1.166-1.572-1.742l-.028-.028-.026.026c-.49.615-.954 1.258-1.38 1.897a28.703 28.703 0 00-2.076-1.102l-.038-.013-.013.038a29.4 29.4 0 00-.645 2.255 26.221 26.221 0 00-2.333-.32h-.039v.038c.026.794.077 1.576.168 2.332-.748.128-1.521.282-2.308.487l-.038.013.013.038c.296.73.619 1.448.967 2.14-.658.372-1.328.795-1.998 1.243l-.026.026.026.026c.528.589 1.083 1.153 1.637 1.678-.49.577-.98 1.192-1.457 1.845l-.026.026.026.013a31.99 31.99 0 002.115 1.025c-.28.73-.52 1.474-.722 2.23l-.013.038h.038c.786.114 1.572.19 2.346.243-.013.756.026 1.538.077 2.345v.038l.038-.012c.77-.152 1.533-.344 2.282-.577a33.5 33.5 0 00.877 2.179l.013.038.026-.013c.67-.41 1.328-.859 1.947-1.307.477.59 1.018 1.166 1.572 1.742l.025.026.026-.026c.49-.615.954-1.257 1.38-1.896.658.384 1.354.756 2.076 1.102l.038.013.013-.038c.245-.743.464-1.513.645-2.256.747.141 1.533.243 2.333.32h.039v-.038a26.89 26.89 0 00-.168-2.332 27.574 27.574 0 002.308-.487l.038-.013-.013-.038a29.165 29.165 0 00-.967-2.14 31.485 31.485 0 001.998-1.243l.042-.024zM28 33.516a5.568 5.568 0 01-3.08-.929 5.518 5.518 0 01-2.04-2.473 5.48 5.48 0 011.201-6.005 5.575 5.575 0 016.041-1.194 5.537 5.537 0 012.489 2.03c.609.905.934 1.97.934 3.06a5.502 5.502 0 01-1.626 3.895 5.569 5.569 0 01-3.92 1.616z" fill="#000B8C"/></svg>