<!-- by TradingView --><svg xmlns="http://www.w3.org/2000/svg" width="56" height="56"><path fill="#F0F3FA" d="M0 0h56v56H0z"/><path fill-rule="evenodd" d="M27.5 34a7.5 7.5 0 100-15 7.5 7.5 0 000 15zm0-4a3.5 3.5 0 100-7 3.5 3.5 0 000 7z" fill="#E70012"/><path fill-rule="evenodd" d="M35 39a2 2 0 100-4 2 2 0 000 4zm0-1a1 1 0 100-2 1 1 0 000 2z"/><circle cx="27.5" cy="38.5" r=".5"/><path fill-rule="evenodd" d="M40.5 34a7.5 7.5 0 100-15 7.5 7.5 0 000 15zm0-4a3.5 3.5 0 100-7 3.5 3.5 0 000 7z" fill="#E70012"/><path d="M23 31.5A7.5 7.5 0 018.15 33h4.19a3.5 3.5 0 10.71-4H8.43A7.5 7.5 0 0123 31.5zm9.42 6.91A2 2 0 0129 37a2 2 0 013.37-1.45l-.68.73A1 1 0 0030 37a1 1 0 001.7.72l.72.7z"/><path d="M10.86 18h9.22l-.84 4h-5.13l-.4 2.33L8.41 29l2.44-11zM38 35v4h1v-2.36c0-.34.37-.64.79-.64.42 0 .71.32.71.6V39h1v-2.4c-.01-.28.28-.6.72-.6.43 0 .78.27.78.6V39h1v-2.63c0-.6-.45-1.37-1.35-1.37-.73 0-1.08.46-1.16.7a1.3 1.3 0 00-1.2-.7c-.69.02-1.2.42-1.29.62V35h-1z"/></svg>