<!-- by TradingView --><svg width="56" height="56" xmlns="http://www.w3.org/2000/svg"><path fill="#F0F3FA" d="M0 0h56v56H0z"/><path d="M40.293 25.993l-6.115-7.01L28 12 9 33.627 27.997 44l12.296-18.007z" fill="#D7B63E"/><path d="M28.004 12v32L47 33.644 28.004 12zM9 33.629l8.698 4.65L28 44v-.355L9.195 33.401 9 33.63zM10.584 31.913l17.413 9.422L28 41l-17.216-9.314-.2.227zM12.052 30.245l15.947 8.594.001-.333-15.748-8.488-.2.227zM13.39 28.723l14.607 7.881.003-.332-14.408-7.775-.201.226zM14.604 27.345L28 34.548l.001-.331-13.196-7.098-.2.226zM15.826 25.957L27.98 32.4l.002-.333-11.957-6.336-.2.226zM17.028 24.593l10.97 5.956.002-.334-10.773-5.849-.2.227zM18.254 23.2l9.743 5.17.003-.332-9.547-5.065-.2.227zM19.455 21.836l8.542 4.627.003-.332-8.346-4.523-.199.228zM20.67 20.455l7.328 3.961.002-.334-7.131-3.854-.198.227zM21.865 19.096l6.132 3.346.003-.334-5.936-3.238-.199.226zM23.108 17.685l4.889 2.625.003-.331-4.696-2.52-.196.226zM24.32 16.307l3.678 1.989.002-.333-3.483-1.882-.197.226zM25.534 14.928l2.463 1.352.003-.332-2.273-1.247-.193.227zM26.747 13.55l1.252.715.001-.331-1.067-.61-.186.226zM27.849 12.172l.148.079L28 12l-.151.172z" fill="#000"/><path d="M28 43.645V44l19.002-10.36-.207-.238L28 43.644zM28.003 41l-.003.335 17.41-9.507-.198-.226-17.209 9.397zM28.002 38.506l-.002.336 15.953-8.678-.198-.227-15.754 8.57zM28.002 36.269l-.002.335 14.615-7.98-.2-.227-14.413 7.872zM28.002 34.212l-.002.336 13.43-7.29-.199-.227-13.23 7.181zM28.002 32.066l-.002.333 12.211-6.513-.197-.226L28 32.065zM28.002 30.213L28 30.55l10.984-6.017-.198-.226-10.785 5.907zM28.002 28.053l-.002.334 9.75-5.216-.198-.228-9.55 5.11zM28.002 26.128l-.002.335 8.537-4.664-.199-.228-8.337 4.557zM28.002 24.08l-.002.336 7.379-4.018-.2-.23-7.178 3.912zM28.002 22.105l-.002.337 6.233-3.353-.2-.226L28 22.105zM28.002 19.97l-.002.338 4.973-2.644-.2-.23L28 19.97zM28.002 17.953l-.002.343 3.74-2.027-.202-.234-3.537 1.918zM28.003 15.934L28 16.28l2.555-1.366-.206-.235-2.346 1.255zM28.002 13.916l-.002.349 1.383-.695-.217-.236-1.164.582z" fill="#D7B63E"/><path d="M23.795 20.394c.122-.007.134.022.186.03.015.002.12-.007.089.078-.024.06-.056.065-.102.057-.111-.018-.215-.116-.2-.197l.111.019-.01.025-.074-.012zM23.86 21.09c.038.005.222-.066.246-.126.115-.3-.417.097-.246.125z" fill="#000"/><path d="M25.352 21.097l-.002.002.002-.002zM19.995 21.218l-.017.019a.193.193 0 00.017-.02zM19.776 21.615a.16.16 0 00-.008-.139l-.184.21c.078.027.15.033.192-.071" fill="#000"/><path d="M27.805 32.264c-.09-.097-.067-.24-.06-.42l-.164-.028a2.83 2.83 0 01-.039.105l-.096-.017c-.123-.092-.077-.23-.183-.348-.128-.139-.488-.125-.627-.256.029-.26.024-.517-.186-.652-.14-.086-.304-.066-.405-.175-.09-.095-.107-.254-.195-.378-.059-.09-.205-.042-.264-.133-.092-.152-.027-.343-.324-.39l-.387-.063c-.1-.089-.079-.267-.264-.297-.26-.043-.394.327-.602.294-.215-.035-.268-.044-.506-.081-.252-.041-.207-.325-.135-.615.029-.095-.02-.259-.072-.286-.12-.074-.416.015-.327-.216.052-.137.13-.198.191-.354.059-.154.052-.237.003-.318l-.051-.008c-.157-.026-.448.22-.544.387l-.17-.029c-.135-.316-.225-.49-.162-.956.05-.369.473-.517.763-.651l.374.148c.059-.026.27-.118.372-.101.261.042.128.43.219.565l.148.022.06-.154c-.092-.133.017-.352.065-.582.17-.13.166-.182.285-.228.202-.176.29-.087.443-.476.023-.06.09-.23.148-.386.04-.002.354-.015.412-.043.08-.042.113-.173.208-.194.146-.032.26.024.37-.078.106-.092.165-.329.296-.362.19-.043.35-.008.564-.09l.059-.157c-.089-.031-.15-.161-.128-.222l.075-.196c.146-.38-.23-.548-.538-.653-.064-.1.068-.217.03-.388-.018-.094-.237-.101-.338-.145-.191-.077-.123-.34-.39-.382-.142-.023-.394-.046-.463.134-.082.215.128.222.047.437-.056.146-.151.186-.299.162-.439-.072-.866-.418-.65-.818.23-.429.683-.299.783-.557.157-.413-.52-.23-.335-.712.068-.18.096-.231.283-.227l.067-.172a4.448 4.448 0 00-.15-.024c-.214-.035-.375.012-.594.05-.024.142.115.11.053.273-.047.121-.188.408-.314.405-.206.003-.386-.062-.512.165-.21-.071-.226-.24-.228-.493 0-.024.168-.175.217-.303l-.134-.021c-.047.02-.086.058-.158.064-.07.017-.31.108-.412.091-.329-.053-.387-.128-.736-.184-.357-.06-.5-.2-.813-.25-.17-.028-.369.14-.444.337l-.15-.024c-.01-.056-.022-.084-.025-.158a1.284 1.284 0 00-.15.054l-.622.712a.082.082 0 01-.015.016l-.212.242a.16.16 0 01.008.139c-.04.104-.113.098-.191.071l-.225.257c.15-.03.333-.1.433-.123.331-.083.395-.394.707-.344.216.035.188.283.389.316.127.021.15.07.249-.029.092-.094.381.079.328.216-.055.147-.143.231-.215.422-.195.506.044.645-.16 1.178-.1.257-.217.357-.323.632-.223.584-.046.905-.063 1.358-.023.471-.256.919.096 1.293.076-.051.097-.003.13-.134.083-.215-.044-.318-.111-.428a.713.713 0 01.016-.208c.29.047.131.435.28.711.192.358-.007.795.421 1.227l.035.051-.014-.003c.092.07.151.165.263.183.157.024.256-.053.389-.03-.062.245.102.292.31.323.086.012.098.216.206.289.171.128.122.75.345.785a.68.68 0 00.415-.05c.242-.102.348.22.227.537-.116.3-.26.432-.454.565-.128.254-.384.385-.496.677-.066.172-.04.33-.001.474.11.145.045.336.03.58-.008.145.131.34.193.489.128.303.313.515.096 1.081-.144.378-.368.653-.506 1.014-.086.224.007.23-.092.486-.09.233-.243.327-.335.567l-.495 1.289c.035.214-.095.432-.152.705-.04.185.181.431.249.541l-.021-.003c.055.018.245.077.292-.044.079-.205-.113-.219-.02-.46a.379.379 0 01.15-.185l.18-.473c.096-.084.14-.26.26-.368.131-.115.219-.138.36-.26.072-.062.212-.222.338-.22.166 0 .306.022.395-.211.044-.11-.05-.17-.022-.25.04-.102.15-.102.214-.147l.357.057c.228-.2.466-.306.694-.57l.042-.113c.155-.175.36-.562.546-.66.317-.168.725-.12 1.036-.334.321-.222.366-.524.59-.817.162-.22.628-.446.695-.618l.064-.172c.044-.112.102-.056.151-.186.083-.215-.164-.19-.245-.286" fill="#000"/><path d="M25.644 21.534c-.065.027-.163.163-.193.241-.026.068-.01.108.016.121.115.073.207-.021.299.048.11.082.154.298.309.324.075.012.139-.115.172-.201.122-.317-.023-.414-.16-.51-.184-.138-.195-.395-.552-.453-.125-.02-.157.006-.184-.009v.002c-.033.059-.089.2-.102.235-.008.019.392.129.395.201" fill="#000"/><path d="M25.366 21.076a.086.086 0 00-.015.022l.015-.022zM25.327 21.071l-.059.154.082-.127.001-.001a.08.08 0 01-.024-.026" fill="#000"/><path d="M35.722 20.772c-.136.015-.393-.105-.496-.145-.347-.139-.85-.223-1.135-.192-.205.023.129.24-.04.26-.055.006-.318.153-.343.123-.164.043-.09.033-.314.058-.144.016-.132-.157-.271-.184-.221-.075-.821-.139-1.051-.113-.341.038.094.45-.179.482-.115.012-.224-.06-.34-.047-.13.015-.164.136-.224.193l-.428.049c-.08.093-.206.09-.258.198-.063.133-.05.367-.301.395-.103.012-.258-.148-.326-.199-.12-.09-.416-.122-.572-.106-.191.021-.113.174-.185.233-.258.196-.66.434-.326 1.008.032.056.144.025.195-.127.023-.07.138.13.22.12.279-.03.218-.295.171-.669l.137-.015.097.159c.077.125.007.168-.026.23-.127.267-.108.561-.43.664l.024.04-.052-.062c-.087.095-.301.16-.492.18-.245.028-.356-.212-.533-.192-.115.013.036.19-.035.24-.135.1-.292.092-.157.312.039.064.113.115.16.11.055-.007.044-.073.099-.08.109-.011.143.153.24.253l.123-.014c-.064-.128.012-.111.108-.122-.032-.064-.002-.11.02-.145l.169-.02.097.159c-.067.057-.071.134-.167.145l-.17.018c-.23.026.237.742.19.95-.092-.066-.176-.107-.25-.1-.157.019.145.323.186.462.032.096-.112.113-.024.255.024.04.265.257.27.264l.122-.013-.057-.094c.14-.067.097-.163.126-.293.022-.095.183-.071.22-.151.073-.144-.105-.494.152-.523.11-.012.232.058.296.162.053.086.059.178.048.222l.062.101.15-.015c-.067-.204-.012-.21.138-.252.085.092.185.173.267.163.048-.005.033-.088.009-.127-.062-.103-.212-.17-.26-.224l-.111-.181.081-.01c.143.102.206.087.37.153.145.06.536.497.629.647.042.071.006.083.003.126.188.081.298.178.448.161-.032-.063-.03-.131-.088-.227-.092-.15-.209-.161-.257-.241-.034-.055.072-.109.128-.124.15.152.246.44.437.418.103-.012.316.03.377.023.068-.008.068-.092.136-.1.135-.015.22.086.302.22.125.205.062.34.186.545l2.024 1.739.058.095a.38.38 0 01-.252-.033c-.174-.108-.5-.491-.83-.793-.36-.328-.682-.431-.905-.698-.112-.136-.115-.19-.159-.262-.063-.101-.181-.166-.359-.146-.101.01-.098.136-.2.148-.231.025-.552-.3-.784-.274-.136.017-.17.079-.288.1-.586.106-.845-.564-1.24-.518-.102.01 0 .148-.102.16-.121.014-.34-.086-.462-.073-.115.012.053.195.008.251-.137.192-.68.136-.472.476-.204.14.016.488-.162.625-.122.099-.327.148-.172.4.053.088-.165.093-.147.125.035.056 0 .093-.005.169-.006.143.247.41.297.598.062.22-.101.192.097.517.073.118.19.364.251.417.13.103.323.193.394.25.317.253.285.347.617.563.106.068.445-.014.445-.074l.408-.046c.197-.02.237-.169.36-.267l.121-.014c.108.14.29.306.402.336.232.057.554-.046.713.214.115.19-.006.228.106.411.16.26.546.336.732.508.148.077.306.32.426.518.212.348.042.485.245.816.192.316.613.447.754.675l.087.142c.048.08.213.112.315.278l.259.417c.159.26.3-.075.492.24.093.151.038.157.115.283.13.213.364.32.49.261.353-.166.496-.429.504-.75.006-.205.126-.27-.077-.542-.123-.166.21-.191.065-.427-.073-.12-.218-.145-.29-.263-.078-.127.041-.216.078-.263.138-.193.401-.187.277-.52.035-.147-.067-.347-.201-.567-.155-.254-.455-.33-.61-.582-.18-.292.01-.573.08-.707.063-.133-.05-.3-.066-.46-.035-.374.218-.413.072-.87-.038-.214-.232-.436-.367-.657-.214-.347.004-.527.176-.544.134-.013.03-.33-.096-.536-.145-.237-.378-.203-.494-.391-.068-.11.03-.106.112-.115.19-.021.482.208.655.266l.477-.055c.185.09.373.313.577.29l.023.04c.313.083.307.167.563.383.134.112.288.163.393.227.268.165.342.358.6.482.184.09.331.317.509.322-.043-.163-.067-.348-.158-.674l-.242-.394c0-.144.089-.129.175-.19.066-.05-.035-.138-.066-.227-.053-.173.072-.236.222-.253.218-.025.388.192.555.275.09.041.192.029.276.095.159.118.316.362.5.342.06-.008.081-.07.17-.079.046-.004.078.118.13.154.154.11.237.067.358.171.135.112.117.25.241.311l.103-.012c-.066-.143-.148-.213-.045-.223" fill="#D7B63E"/><path d="M39.889 28.941c.066.154.046.184.158.28.046-.024.049-.07.099-.085l-.073-.127a.286.286 0 01-.17-.07c.007.026.016.043.025.07l-.04-.068zM42.703 28.697c-.274-.277-.394-.435-.678-.449.041.135.041.135.144.239l-.131-.217c.14.232.299.354.457.452l.11.182c-.308-.104-.458-.236-.687-.233l.202.247c.195.148.52.306.668.29.087-.01.026-.066-.026-.153.08-.032.106-.007.2-.017M38.075 31.458c-.07.074-.089.083-.161.144-.159.12-.286.31-.121.58.057.093.204.12.29.261.1.166-.032.14-.046.2-.006.025.159.379.159.379.059.095.186.089.266.08.318-.036.126-.326.057-.597-.053-.18.136-.133.136-.252a.984.984 0 00-.126-.382 1.389 1.389 0 00-.467-.437l.013.024z" fill="#D7B63E"/></svg>