<!-- by TradingView --><svg width="56" height="56" xmlns="http://www.w3.org/2000/svg"><path fill="#17468B" d="M0 0h56v56H0z"/><path d="M28 20.938l-.71 17.698-3.104-8.693 1.618 8.79-5.043-7.304 3.556 7.513-12.48-9.547 10.995 9.918-7.019-2.828L21.453 40C16.208 40 9.93 35.512 8 26.202c0 0 11.211.139 14.954 5.532C22.249 24.138 27.097 16.977 28 16c.903.977 5.75 8.138 5.046 15.734C36.789 26.341 48 26.202 48 26.202 46.072 35.512 39.792 40 34.547 40l5.64-3.515-7.02 2.828 10.996-9.918-12.48 9.547 3.556-7.513-5.042 7.304 1.617-8.79-3.104 8.693L28 20.938z" fill="#FAB41D"/></svg>