<!-- by TradingView --><svg width="56" height="56" xmlns="http://www.w3.org/2000/svg"><path fill="#0066A3" d="M0 0h56v56H0z"/><path d="M9.934 22H7v10h2v-1.915h1.306S12 30.13 12 28.638v-5.022S12.084 22 9.934 22zM10 27.306C10 27.944 9 28 9 28v-4s1 .115 1 .753v2.553zM28.438 23.665c-1.278 0-1.438.24-1.438.24V22l-2 .01V32h2v-.257s.207.256 1.217.256h.354S30 32.07 30 30.675v-5.714s-.005-1.296-1.562-1.296zM28 29.884c0 .169-.281.337-.5.345-.219.009-.5-.176-.5-.345v-4.068c0-.169.235-.336.5-.336.265.001.5.167.5.336v4.068zM37 24.96v5.715C37 32.07 38.429 32 38.429 32h.354c1.013 0 1.217-.256 1.217-.256V32h2V22.01L39.87 22v1.906s.065-.3-1.21-.3c-1.555 0-1.66 1.355-1.66 1.355zm2 .856c0-.169.21-.304.5-.304.29 0 .5.135.5.304v4.068c0 .169-.259.31-.5.305-.241-.005-.5-.136-.5-.305v-4.068zM18 29h-2v.72c0 .158-.09.424-.46.424-.368 0-.54-.266-.54-.424V28h3v-1.559S18.037 24 15.91 24h-.943S13 24.014 13 26.6v3.12S13.042 32 15.54 32c2.502 0 2.46-2.28 2.46-2.28V29zm-3-2.953c0-.158.131-.4.5-.4s.5.242.5.4V27h-1v-.953zM21.795 24h-.687S19 24.042 19 26.04V27h2v-.96s.108-.322.522-.305c.414.016.478.305.478.305v.98l-2.008.816S19 28.284 19 29.183v1.74S19.02 32 20.198 32h.496s.868-.042 1.198-.326V32H24v-5.96c.002 0-.05-2.04-2.205-2.04zM22 29.938c0 .161-.199.298-.478.309-.28.01-.522-.148-.522-.31v-1.241l1-.593v1.834zM33.861 24h-.722C31.956 24 31 24.92 31 26.053v3.894c0 1.135.959 2.053 2.139 2.053h.722C35.044 32 36 31.08 36 29.947v-3.894C36 24.92 35.041 24 33.861 24zM34 29.896c0 .16-.263.31-.5.31s-.5-.15-.5-.31V26.06c0-.159.281-.286.5-.287.219-.002.5.128.5.287v3.836zM45 24v5.883c0 .164.278.295.495.307.217.013.505-.143.505-.307V24h2v9.605s.27 1.4-2 1.4V32h-.97S43 32.27 43 30.343v-6.34h2V24zM44 33v2.005H10.3S7 34.947 7 33h37z" fill="#fff"/></svg>