<!-- by TradingView --><svg width="56" height="56" xmlns="http://www.w3.org/2000/svg"><path fill="#8BC400" d="M0 0h56v56H0z"/><path d="M28.003 8c-1.871 0-3.042.575-4.003 1v4c.178-.42 1.262-2 4.003-2C31.453 11 33 14.09 33 15.979c0 1.512-.936 2.584-1.417 3.021 1.193.21 3.46 1.63 3.417 4.905C34.947 28 31.38 30 29 30c-1.848 0-3.448-.685-4-1h-.947v19H28l9.004-10H33l-5 5v-9.908c8.172 0 11-5.467 11-9.186 0-3.093-1.727-5.635-2.616-6.352.982-5.25-2.402-8.067-4.217-8.82C31.384 8.49 30.45 8 28.003 8z" fill="#fff"/></svg>