<!-- by TradingView --><svg width="56" height="56" xmlns="http://www.w3.org/2000/svg"><path fill="#125B53" d="M0 0h56v56H0z"/><path d="M26.324 10c1.871 0 3.066-.018 3.847.75 2.345 2.307 8.375 8.36 9.35 9.373.678.704.653 1.786-.182 2.607-.643.631-3.796 3.811-4.066 4.092-.343.354-.904.701-.282 1.377a284.866 284.866 0 014.216 4.262c.834.87.623 2.275-.053 2.95-.93.932-6.512 6.554-8.255 8.202-.786.74-1.352 1.387-3.143 1.387h-8.518s9.79-9.768 10.468-10.434c.412-.405.558-.726.052-1.235-.435-.437-3.619-3.66-4.19-4.235-.901-.908-1.313-1.733-.184-2.832 1.027-.999 3.126-3.129 4.137-4.135.353-.35.781-.777.185-1.404A6365.319 6365.319 0 0019.088 10h7.236zm-8.361 0l6.054 6.117v23.057L18.148 45C16.322 45 16 44.256 16 43.156V11.73c0-1.226.998-1.73 1.963-1.73z" fill="#fff"/></svg>