<!-- by TradingView --><svg width="56" height="56" fill="none" xmlns="http://www.w3.org/2000/svg"><path fill="#F0F3FA" d="M0 0h56v56H0z"/><path fill-rule="evenodd" clip-rule="evenodd" d="M7.8 25H6v2h1.8a1 1 0 100-2zM5 25v6h3a2 2 0 001.216-3.588A2 2 0 007.8 24H5v1zm1 3h2a1 1 0 110 2H6v-2zm5 3v-7h1v7h-1zm34 0v-7h1v7h-1zm-32-5h1v3a1 1 0 102 0v-3h1v5h-1v-.525a1.75 1.75 0 01-3-1.225V26zm5 2.5c0-1.309.832-2.5 2.25-2.5 1.418 0 2.25 1.191 2.25 2.5v.084c0 .139.002.278-.014.416h-3.461a1.25 1.25 0 002.207.523l1.088.11A2.25 2.25 0 0120.25 31C18.832 31 18 29.809 18 28.5zm3.475-.5a1.25 1.25 0 00-2.45 0h2.45zm27.775-2C47.832 26 47 27.191 47 28.5s.832 2.5 2.25 2.5a2.25 2.25 0 002.07-1.368l-1.088-.109A1.25 1.25 0 0148.025 29h3.461c.016-.138.015-.277.014-.416V28.5c0-1.309-.832-2.5-2.25-2.5zm0 1c.605 0 1.11.43 1.225 1h-2.45c.116-.57.62-1 1.225-1zm-23.984-3l1.778 7h1.033l1.556-6.144L31.19 31h1.033L34 24h-1.033l-1.261 4.872L30.444 24h-1.622l-1.262 4.872L26.3 24h-1.034zM36 24h-1v7h1v-3a1 1 0 112 0v3h1v-3.25a1.75 1.75 0 00-3-1.225V24zm4.997 3.759c.053-.458.494-.778 1.078-.783.277-.002.52.074.68.197.145.11.245.272.245.527v.113c-.327.124-.689.183-1.4.288a3.398 3.398 0 00-.817.22c-1.083.461-1.203 2.066.009 2.555.253.103.53.152.787.154a2.87 2.87 0 001.48-.401c.027.134.061.258.1.371h1.092a1.53 1.53 0 01-.054-.099A1.998 1.998 0 0144 30v-2.3c0-.574-.251-1.027-.639-1.323-.373-.284-.845-.405-1.294-.401-.869.007-1.928.516-2.064 1.666l.994.117zm.75 1.331c.517-.076.903-.133 1.253-.228v.548c-.464.482-.997.624-1.412.62a1.185 1.185 0 01-.422-.08c-.173-.07-.242-.206-.24-.346a.398.398 0 01.25-.363c.175-.075.384-.123.571-.15z" fill="#00A99F"/></svg>