<!-- by TradingView --><svg xmlns="http://www.w3.org/2000/svg" width="56" height="56"><path fill="#F0F3FA" d="M0 0h56v56H0z"/><circle cx="28" cy="25" fill="#58B221" r="17"/><circle cx="28" cy="25" r="14" fill="#F0F3FA"/><circle cx="28" cy="25" r="13" fill="#1C591E"/><path fill-rule="evenodd" d="M27.3 11.45a24.24 24.24 0 00-5.18 5.65 18 18 0 01-3.96-1.3l-.44.9c.89.44 2.2.92 3.85 1.3a12.1 12.1 0 00-1.82 6.5h-5.03v1h5.12c.27 2.15.8 3.98 1.49 5.56a16.9 16.9 0 00-4.07 1.7l.52.85c.9-.54 2.26-1.16 3.98-1.64a20.74 20.74 0 005.52 6.55l.64-.77a19.93 19.93 0 01-5.16-6.03 23 23 0 0110.77.17l-.49.75a24.03 24.03 0 01-4.7 5.1l.62.79a25.03 25.03 0 005.57-6.36c1.22.37 2.45.85 3.7 1.47l.45-.9a25.58 25.58 0 00-3.64-1.46 13.5 13.5 0 001.7-5.78h4.58v-1h-4.6a14.47 14.47 0 00-2.25-6.57c1.27-.3 2.56-.7 3.86-1.21l-.36-.93c-1.38.54-2.75.95-4.07 1.25l-.17-.25a26.8 26.8 0 00-5-5.33l-.62.78a25.83 25.83 0 014.72 5.02c-3.65.66-6.99.51-9.65.05a23.25 23.25 0 014.73-5.06l-.61-.8zm8.42 13.05a13.78 13.78 0 00-2.28-6.34c-4.13.82-7.9.62-10.84.06-1.18 1.96-1.97 4.13-1.85 6.28h14.97zm-14.87 1c.27 2.06.78 3.8 1.46 5.3a23.98 23.98 0 0111.75.2c.94-1.73 1.6-3.6 1.68-5.5H20.85z" fill="#F0F3FA"/><path d="M28.05 11.73v26.54" stroke="#F0F3FA"/><path d="M19.92 21.87a13.9 13.9 0 01-2.2-3.43c-2.02 4.05-.62 6.9.34 7.82-1.07.47-1.2 1.64-1.14 2.06a2.85 2.85 0 002.48 2.3c-.6.89-.25 1.88 0 2.26 1.34 1.34 2.84 1.03 3.42.7 3.34 4.15 4.84 4.64 5.17 4.36v-9.82c-2.1.12-2.59 1.86-2.56 2.72v1.11c-.42-.18-.75-.82-.86-1.11 2.11-2.77.88-6.54 0-8.08l-1.08 1.2c0-2.21-.62-4.03-.93-4.66-.36.15-1.9 1.77-2.64 2.57zm16.15 0a13.9 13.9 0 002.2-3.43c2.02 4.05.62 6.9-.34 7.82 1.07.47 1.2 1.64 1.14 2.06a2.85 2.85 0 01-2.48 2.3c.6.89.25 1.88 0 2.26-1.34 1.34-2.84 1.03-3.42.7-3.34 4.15-4.84 4.64-5.18 4.36v-9.82c2.12.12 2.6 1.86 2.57 2.72v1.11c.42-.18.75-.82.86-1.11-2.12-2.77-.88-6.54 0-8.08l1.08 1.2c0-2.21.62-4.03.93-4.66.35.15 1.9 1.77 2.64 2.57zm3.33 22.91c-.6.47-1.36.75-2.17.75-2.08 0-3.76-1.83-3.76-4.1 0-2.26 1.68-4.1 3.76-4.1 2.1 0 3.23 1.14 3.62 2.73H38.7c-.3-.5-.75-.81-1.25-.81-.9 0-1.61.97-1.61 2.17s.72 2.17 1.6 2.17c.51 0 .96-.31 1.26-.8h-.98v-1.37H41v4.11h-1.6v-.75zm-24.27-7.32h4.94a2.23 2.23 0 011.5 3.87 2.36 2.36 0 01-1.38 4.28h-5.06v-8.15zm2.41 2.02h1.37a.7.7 0 110 1.41h-1.37v-1.4zm0 2.66h1.6a.8.8 0 010 1.6h-1.6v-1.6z" fill="#F0F3FA"/><path d="M19.94 25.82c.45-2.35-1.22-4.72-2.11-5.6-1.02 4.48.72 5.69 1.72 5.73l.82 1.92c-.32-.4-1.1-1.18-1.62-1.13-.66.07-1.05.5-1.05 1.32 0 .66.72 1.88 1.71 1.82.8-.05 1.14-.75 1.22-1.09l1.62 2.44c-1.16-.63-2.31-.46-2.31.43 0 .9 1.02 1.72 1.88 1.55.69-.13 1.14-.8 1.29-1.12l1.32 1.12A6.37 6.37 0 0127.36 37h1.25a6.37 6.37 0 012.94-3.79l1.32-1.12c.14.32.6.99 1.29 1.12.86.17 1.88-.66 1.88-1.55s-1.16-1.06-2.31-.43l1.61-2.44c.08.34.43 1.04 1.23 1.09.99.06 1.7-1.16 1.7-1.82 0-.83-.38-1.25-1.04-1.32-.53-.05-1.3.73-1.62 1.13l.82-1.92c1-.04 2.74-1.25 1.72-5.74-.9.9-2.56 3.26-2.11 5.61l-.7 1.48c.22-1.63.2-5.27-1.61-6.73a9.14 9.14 0 001.02 7.56c-.26.54-.96 1.78-1.65 2.44.33-1.4.48-4.67-1.55-6.47a6.12 6.12 0 00.86 6.97A6.5 6.5 0 0128 33.2a6.57 6.57 0 01-4.43-2.14 6.12 6.12 0 00.86-6.97c-2.04 1.8-1.89 5.06-1.56 6.47-.68-.66-1.38-1.9-1.64-2.44a9.14 9.14 0 001.02-7.56c-1.82 1.46-1.84 5.1-1.62 6.73l-.7-1.48zm8.05 6.87c1.18 0 2.13-.86 2.13-1.93 0-1.06-.95-1.93-2.13-1.93-1.17 0-2.12.87-2.12 1.93 0 1.07.95 1.93 2.12 1.93z" fill="#58B221"/><path fill-rule="evenodd" d="M15 38h4.97a2.19 2.19 0 011.48 3.8A2.31 2.31 0 0120.1 46H15v-8zm3.82 3.37H17.5v-1.39h1.3a.7.7 0 01.02 1.39zM17.5 42.6H19a.78.78 0 010 1.56h-1.5V42.6z" fill="#1C591E"/><path d="M24.5 45.61l-2.16-7.67h3.03l.64 3.23.63-3.23h2.6l.7 3.23.62-3.23h2.98l-2.19 7.67h-2.34l-1.15-4.32-.94 4.32H24.5z" fill="#F0F3FA"/><path d="M24.84 46l-2-7.67h2.17l1.03 4.48 1.03-4.48H29l.98 4.48.96-4.48h2.23L31.15 46H29l-1.06-4.32-.87 4.32h-2.23zm14.96-.76c-.62.48-1.37.76-2.18.76-2.08 0-3.77-1.85-3.77-4.13 0-2.29 1.69-4.14 3.77-4.14 2.1 0 3.23 1.15 3.61 2.75H39.1c-.3-.5-.75-.82-1.26-.82-.89 0-1.6.98-1.6 2.2 0 1.2.71 2.19 1.6 2.19.44 0 .84-.25 1.13-.64H38V42h3.38v4H39.8v-.76z" fill="#1C591E"/></svg>