<!-- by TradingView --><svg width="56" height="56" fill="none" xmlns="http://www.w3.org/2000/svg"><path fill="#F0F3FA" d="M0 0h56v56H0z"/><path fill-rule="evenodd" clip-rule="evenodd" d="M10 21h8.907c1.947 0 4.15.71 4.092 3.054-.03 1.188-.798 2.329-2.369 2.557.543.087 1.035.21 1.416.425 0 .647.308 1.311.744 1.653v.072c-.904.258-1.69.986-1.87 1.868-.21 1.018.457 1.94 1.362 2.371H10V21zm4.644 2.479h2.794c.601 0 1.088.483 1.088 1.078 0 .595-.487 1.078-1.088 1.078h-2.794v-2.156zm2.92 4.491h-2.92v2.443h2.92c.962 0 1.43-.588 1.436-1.187.007-.622-.484-1.256-1.436-1.256zm7.82-2.802L24 21h4.843l1.776 6.665L33.163 21h4.693l2.58 6.665L42.177 21H47l-3.665 12h-4.9l-2.916-7.437L32.658 33h-3.422l-1.421-1.347c.841-.737 1.327-1.833 1.57-2.964h-2.038c-.135 1.15-.517 1.7-.692 1.832l-1.458-1.455c.879-.377 2.225-1.383 1.832-2.605-.314-.977-1.228-1.27-1.645-1.293zm-.734 3.352c-.261-.236-.633-.715-.637-1.203-.008-1.082 1.636-1.11 1.562 0-.022.333-.234.795-.925 1.203zm-.925 1.517l2.164 2.108c-.822.516-2.035.542-2.626-.314-.347-.503-.359-1.177.462-1.794z" fill="url(#paint0_linear_3186)"/><path d="M41.737 19.997L41.377 21c-.141-.414-1.894-3.868-5.52-6.356-3.134-2.15-6.991-3.06-10.72-2.504-2.53.376-4.931 1.402-7.137 2.968 4.437-3.896 10.02-5.023 15.332-3.372 5.432 1.688 8.678 6.095 9.668 8.261h-1.263z" fill="#818285"/><path fill-rule="evenodd" clip-rule="evenodd" d="M14 20s5.315-8.677 16-6.71c-9.14-.748-13.562 5.797-14.138 6.649a5.417 5.417 0 01-.041.061H14zm-.265 18h2.33c.752 1.165 2.544 3.152 5.125 4.735 5.373 3.296 12.259 2.942 17.446-.6-5.543 5.032-14.306 5.01-20.258.75-2.386-1.708-3.944-3.658-4.643-4.885z" fill="url(#paint1_linear_3186)"/><path d="M42 38h-1.852C35.87 43.403 30.241 43.984 27 43.837 36.13 45.008 40.667 39.53 42 38z" fill="#818285"/><path fill-rule="evenodd" clip-rule="evenodd" d="M38.028 36.211c.276 0 .516-.13.676-.298l.154.154c-.189.19-.476.353-.833.353-.562 0-.956-.418-.956-.933 0-.51.394-.93.945-.93.312 0 .604.122.796.303l-.157.158a.948.948 0 00-.633-.252c-.416 0-.709.328-.709.724 0 .398.296.721.717.721zm-26.94.209c.242 0 .371-.066.469-.16a.524.524 0 00.165-.384c0-.228-.134-.421-.355-.467.15-.051.26-.214.26-.393a.411.411 0 00-.123-.293c-.095-.097-.24-.163-.445-.163H10v1.86h1.087zm.044-.863c.1 0 .19.043.252.108a.298.298 0 01.086.208.316.316 0 01-.095.225.387.387 0 01-.28.103h-.852v-.644h.889zm-.098-.777c.115 0 .201.028.266.09a.277.277 0 01.075.192c0 .08-.03.156-.086.213a.301.301 0 01-.221.083h-.825v-.578h.791zm1.482 1.64l.246-.558h.912l.248.558h.266l-.847-1.86h-.23l-.846 1.86h.252zm.694-1.57h.016l.36.813h-.737l.36-.812zm3.186 1.41c-.098.095-.227.16-.47.16H14.84v-1.86h1.06c.203 0 .348.066.444.163.078.08.122.18.122.293 0 .18-.108.342-.26.393.221.046.356.24.356.467 0 .134-.048.27-.165.385zm-.174-.595a.344.344 0 00-.251-.108h-.889v.644h.852c.107 0 .21-.032.28-.103a.316.316 0 00.095-.225.298.298 0 00-.087-.208zm-.084-.794c-.064-.063-.15-.091-.265-.091h-.791v.578h.824a.301.301 0 00.221-.083.305.305 0 00.087-.213.277.277 0 00-.075-.191zm9.902-.31l-1.043 1.033V34.56h-.243v1.86h.243v-.55l.44-.435.742.985h.314l-.88-1.15.726-.71h-.3zm5.294 1.859l-.587-1.86h.265l.453 1.487h.014l.467-1.487h.184l.467 1.487h.017l.453-1.487h.251l-.587 1.86h-.248l-.442-1.395h-.017l-.441 1.395h-.25zm2.94 0v-1.86h-.243v1.86h.243zm.928 0v-1.86h.243v1.64h1.152v.22h-1.395zm8.26-1.86l-.568.724-.553-.724h-.308l.702.897-.777.963h.293l.63-.8.611.8h.31l-.765-.974.718-.886h-.293zm-3.956.928c0 .521.423.936.963.936.538 0 .97-.415.97-.936 0-.512-.432-.927-.97-.927-.54 0-.963.415-.963.927zm.242 0c0-.396.314-.718.721-.718a.723.723 0 110 1.446.719.719 0 01-.721-.728zm-15.874.432a.941.941 0 01-.677.298.703.703 0 01-.716-.721c0-.396.293-.725.708-.725.23 0 .474.098.634.253l.157-.158a1.176 1.176 0 00-.796-.303.922.922 0 00-.945.93c0 .515.394.933.956.933.356 0 .644-.163.833-.353l-.154-.154zm-5.614.291c.276 0 .516-.13.676-.298l.154.154c-.189.19-.476.353-.833.353-.562 0-.956-.418-.956-.933 0-.51.394-.93.945-.93.312 0 .605.122.796.303l-.157.158a.948.948 0 00-.633-.252c-.416 0-.708.328-.708.724 0 .398.295.721.716.721zm1.374-.727c0 .521.423.936.964.936.537 0 .969-.415.969-.936 0-.512-.432-.927-.97-.927-.54 0-.963.415-.963.927zm.242 0c0-.396.314-.718.722-.718a.723.723 0 110 1.446.719.719 0 01-.722-.728zm8.242-.494a.145.145 0 01.05-.14.245.245 0 01.171-.055c.148.007.21.094.204.166-.004.04-.03.088-.096.144-.049.042-.111.081-.183.12a1 1 0 01-.076-.091.35.35 0 01-.07-.144zm.48.293a1.148 1.148 0 01-.163.113c.104.1.225.214.35.33l.123.113a.677.677 0 00.115-.367h.233a.917.917 0 01-.175.526l.39.353.15.134.056.05-.155.174-.056-.05a100.843 100.843 0 01-.539-.486.979.979 0 01-.666.272c-.3-.007-.531-.174-.612-.399-.083-.233.007-.495.283-.653.038-.022.078-.042.116-.06a1.088 1.088 0 01-.048-.061.581.581 0 01-.112-.243.377.377 0 01.125-.354c.091-.08.216-.12.338-.113.225.012.446.167.424.42a.455.455 0 01-.177.3zm-.413.242l.034-.015a21.19 21.19 0 00.536.505.741.741 0 01-.489.197c-.216-.005-.354-.122-.398-.244-.04-.115-.01-.264.18-.373.036-.021.078-.041.121-.062l.016-.008z" fill="url(#paint2_linear_3186)"/><defs><linearGradient id="paint0_linear_3186" x1="16.46" y1="21.138" x2="16.46" y2="33.496" gradientUnits="userSpaceOnUse"><stop stop-color="#005795"/><stop offset="1" stop-color="#002B5E"/></linearGradient><linearGradient id="paint1_linear_3186" x1="35.02" y1="33.625" x2="13.126" y2="33.625" gradientUnits="userSpaceOnUse"><stop stop-color="#002F62"/><stop offset="1" stop-color="#005B9A"/></linearGradient><linearGradient id="paint2_linear_3186" x1="28.668" y1="34.678" x2="28.668" y2="36.622" gradientUnits="userSpaceOnUse"><stop stop-color="#015896"/><stop offset="1" stop-color="#013063"/></linearGradient></defs></svg>