<!-- by TradingView --><svg width="56" height="56" xmlns="http://www.w3.org/2000/svg"><path fill="#AC063B" d="M0 0h56v56H0z"/><path d="M32.38 15.064c-2.281.26-8.34 1.762-8.085 2.022.037.037.821-.13 1.752-.39 4.6-1.205 9.09-.964 12.356.65 1.223.611 2.464 1.78 2.902 2.707.401.871.365 2.355-.073 3.264-.292.556-2.354 3.115-3.687 4.525-.11.13-.798-.84-1.893-2.027l-1.49-1.817H30.87l1.733 1.966c.95 1.02 2.04 2.545 2.386 2.916l.602.668-2.5 2.67L30.524 35h3.316l3.504-3.746L40.776 35h3.236l-2.488-2.708-2.446-2.614 1.88-2.077c2.884-3.171 3.942-4.86 4.216-6.64.347-2.429-1.679-4.469-5.493-5.451-1.442-.39-5.567-.631-7.3-.446zM4 35h4.983c4.8 0 4.616-.104 5.4-.508 1.077-.596 1.497-1.27 1.588-2.5.091-1.231-.31-2.155-1.168-2.77-.456-.308-.53-.442-.328-.539.438-.173 1.004-1.307 1.004-2 0-1.058-.512-1.962-1.351-2.365-.675-.327-.893-.318-5.237-.318H4v11zm7.872-8.91c.632.186.614 1.652 0 1.785-.614.132-1.265.125-2.378.125H7v-2h2.548s2.021 0 2.324.09zm.432 4.4c.548.559.566 1.623.091 2.123-.328.346-.602.385-2.646.385H7V30h2.658c2.099 0 2.226.03 2.646.49z" fill="#fff"/><path d="M17.528 29.452L19.035 35h3.52l.161-.634c.09-.345.467-1.88.844-3.417.377-1.536.736-2.841.808-2.918.054-.096.503 1.44.987 3.398L26.252 35h3.524c.054 0 1.235-4.588 1.235-4.588l.996-3.99c-.61-.863-2.265-2.426-2.265-2.426l-1.047 3.69s-.844 3.59-.898 3.532c-.054-.058-.52-1.67-1.005-3.59l-.788-3.632h-3l-.306 1.04c-.161.557-.574 2.208-.951 3.648-.36 1.459-.718 2.592-.79 2.553-.072-.057-.18-.364-.251-.71-.054-.346-.395-1.958-.754-3.57l-.656-2.955h-3.321l1.553 5.45zM43.873 24.843l-1.014 1.155h2.138V35H48v-9.002h4V24h-7.379l-.748.843z" fill="#fff"/></svg>