<!-- by TradingView --><svg width="56" height="56" xmlns="http://www.w3.org/2000/svg"><path fill="#0C6F51" d="M0 0h56v56H0z"/><path d="M36.059 14H19.941C18.868 14 18 14.821 18 15.837v24.326C18 41.18 18.868 42 19.941 42h16.118C37.132 42 38 41.179 38 40.163V15.837C38 14.82 37.132 14 36.059 14zm-.08 15.151c-1.807 1.363-3.483 2.672-5.138 4.416-.59.592-1.403 1.73-1.841 2.433l1 5h-4l1-5c-1.619-2.37-4.179-4.894-6.612-6.527-.662-.593-1.109-1.363-.885-2.235.107-.415.554-.694.957-.77 2.21-.102 2.576 2.268 3.72 3.487.77 1.041 1.943 2.11 2.82 3.049V31c-1.547-2.65-4.072-4.642-6.397-6.843-.367-.558-.555-1.329-.26-1.955.152-.28.448-.525.779-.593.769-.067 1.511.314 1.95.906C24.18 24.572 25.372 27.121 27 29v-3c-1.18-2.09-2.676-3.874-4.483-5.652-.483-.626-.778-1.676-.26-2.404a1.22 1.22 0 01.815-.457c.885 0 1.511.525 1.95 1.22C25.683 20.17 26.159 21.645 27 23c.188-2.336-1.29-4.742-.37-7.045.225-.38.708-.845 1.227-.955.59-.034 1.226.346 1.476.837 1.11 2.2-.548 4.86-.333 7.163.036.178-.107-.144 0 0 .886-1.329 1.468-2.795 2.059-4.226.494-.83 1.136-1.422 2.129-1.244.33.135.59.347.742.66.698 2.023-1.735 3.174-2.728 4.638C30.317 23.912 29.59 24.781 29 26v3c1.583-1.811 2.787-4.203 3.84-6.297.716-.95 1.27-1.161 2.119-.95.33.102.519.314.662.593.697 2.336-2.326 3.242-3.354 4.884C31.05 28.559 29.92 29.57 29 31v2.004c1.655-1.642 3.222-3.54 4.367-5.495.59-.66 1.36-1.117 2.245-.94.33.102.59.381.733.66.224.627.072 1.397-.367 1.922z" fill="#fff"/><path d="M19.697 12C17.663 12 16 13.581 16 15.533v24.942C16 42.42 17.655 44 19.697 44h16.606C38.337 44 40 42.419 40 40.475V15.533C40 13.589 38.345 12 36.303 12H19.697zM17 40.467V15.524C17 14.1 18.215 13 19.697 13h16.606C37.793 13 39 14.1 39 15.524v24.943C39 41.892 37.794 43 36.303 43H19.697C18.215 43 17 41.892 17 40.467z" fill="#fff"/></svg>