<!-- by TradingView --><svg width="56" height="56" xmlns="http://www.w3.org/2000/svg"><path fill="#00538E" d="M0 0h56v56H0z"/><path d="M16 30v-2.995h1.686c1.303 0 2.31.7 2.31 1.662 0 .991-1.06 1.333-2.31 1.333H16zm1.686 1C19.752 31 22 30.42 22 28.667c0-1.069-1.22-2.136-2.81-2.319 1.252-.306 2.185-1.159 2.185-1.876 0-1.831-2.067-2.472-4.134-2.472H13l1 1v7l-1 1h4.686zm-.445-8c1.24 0 2.141.54 2.141 1.471 0 .916-.922 1.529-2.141 1.529H16v-3h1.24zM27.5 31c2.769 0 4.5-1.5 4.5-3s-1.731-3-4.5-3c-2.77 0-4.5 1.5-4.5 3s1.73 3 4.5 3zm0-5c1.997 0 2.503 1.449 2.5 2-.003.552-.503 2-2.5 2-1.997 0-2.5-1.492-2.5-2 0-.507.503-2 2.5-2z" fill="#fff"/><path d="M31.853 25.529L31 25h3l-.539.509 1.817 2.1L37 25.529 36 25h3l-.829.519L36 28.224v2.258L37 31h-4l1-.518v-2.268l-2.147-2.685zM43.4 31c2.755 0 4.6-1.456 4.6-2.984s-1.845-2.984-4.6-2.984H39L40 26v4.004L39 31h4.4zM42 26h1.018c2.064 0 2.982.826 2.982 2 0 1.173-.918 2.004-2.982 2.004H42V26zM27.518 33.378h1.485l-.395.252v1.153c-.31.108-.47.212-1.341.212-1.242 0-2.265-.687-2.265-1.498 0-.812 1.023-1.5 2.265-1.5.527 0 .864.075 1.147.169v.608l-.624-.4a.89.89 0 00-.523-.139c-.88 0-1.396.653-1.396 1.262 0 .603.515 1.26 1.396 1.26.41 0 .581-.113.643-.143v-.984l-.392-.252zM30.119 34.147h1.459l.291.594-.378.254h1.513l-.39-.264-1.388-2.733h-.415l-1.418 2.733-.39.264h1.195l-.378-.254.299-.594zm1.335-.244h-1.21l.616-1.2.594 1.2zM34.289 34.995h-1.285l.413-.259v-2.48l-.414-.258h1.334l1.27 1.427 1.269-1.427h1.13l-.413.259v2.48l.414.258H36.45l.413-.259v-2.24l-1.492 1.666-1.496-1.666v2.24l.414.26zM38.271 31.998H40l-.456.259v2.48l.456.258h-1.729l.46-.259v-2.48l-.46-.258zM40.86 34.764l.408.236H40l.408-.236v-2.53L40 31.998h1.18l1.96 1.797v-1.561l-.404-.236H44l-.404.236V35l-2.736-2.456v2.22zM46.516 33.378H48l-.396.252v1.153c-.31.108-.468.212-1.34.212-1.24 0-2.264-.687-2.264-1.498 0-.812 1.024-1.5 2.264-1.5.527 0 .864.075 1.147.169v.608l-.624-.4a.888.888 0 00-.523-.139c-.88 0-1.396.653-1.396 1.262 0 .603.516 1.26 1.395 1.26.412 0 .582-.113.644-.143v-.984l-.391-.252zM17.404 18.303c7.417-1.52 10.154 3.042 10.596 5.513h-1.732c-1.06-5.12-6.35-5.47-8.864-5.006-7.54 1.42-9.396 6.23-9.09 9.123-.018 1.393 1.694 5.728 6.34 6.59 4.645.861 8.32-2.09 9.576-3.675l1.07 1.014c-1.443 1.753-5.593 4.992-10.647 3.928-5.053-1.064-6.73-6.126-6.645-7.857-.153-3.02 1.98-8.109 9.396-9.63z" fill="#fff"/></svg>