<!-- by TradingView --><svg xmlns="http://www.w3.org/2000/svg" width="56" height="56"><path fill="#F0F3FA" d="M0 0h56v56H0z"/><path d="M13.5 23H4a2.43 2.43 0 012.43 2.43v.14A2.43 2.43 0 014 28h9.5a2.5 2.5 0 000-5z" fill="#023D0A"/><path d="M13.5 28H4a2.43 2.43 0 012.43 2.43v.14A2.43 2.43 0 014 33h9.5a2.5 2.5 0 000-5z" fill="#939598"/><path fill-rule="evenodd" d="M18 24h2.18c.51 0 1.57.22 1.6 1.65.03 1.38-.71 1.66-1.09 1.6v.13c.37-.08 1.09.18 1.09 1.7 0 1.88-1.1 1.9-1.56 1.92H18v-7zm1.45 1h.37c.16 0 .44.22.44.9 0 .86-.33.94-.44.95h-.37V25zm.4 2.86h-.37V30h.37c.1-.01.45-.13.45-1.12 0-.79-.29-1-.45-1.02zM24.52 24h-2.18v7h1.46v-3.18c.72 0 .78.43.78.8v.25c-.01.63-.03 1.79.22 2.13h1.5a5.48 5.48 0 01-.22-2.06v-.12c0-1.53-.69-1.52-1.05-1.44v-.14c.38.07 1.09-.39 1.09-1.59 0-1.43-1.09-1.65-1.6-1.65zm-.36 1h-.37v1.85h.37c.1-.01.44-.09.44-.95 0-.68-.28-.9-.45-.9zm4.34-1a1.9 1.9 0 00-1.9 1.9v3.2a1.9 1.9 0 103.8 0v-3.2a1.9 1.9 0 00-1.9-1.9zm0 1a.41.41 0 00-.4.42v4.17a.41.41 0 10.82 0v-4.17a.41.41 0 00-.42-.42zm6.38-1h2.3c.83 0 1.5.67 1.5 1.5v4c0 .83-.67 1.5-1.5 1.5h-2.3v-7zm1.49 1h.32c.28 0 .5.22.5.5v4a.5.5 0 01-.5.5h-.32v-5zm-5.77 6l1.12-7h2.02l.86 7h-1.5l-.2-1.75h-.77L31.85 31H30.6zm1.7-2.8l.26-3.07.26 3.07h-.53zM45.7 24l-1.11 7h1.25l.27-1.75h.77l.2 1.75h1.5l-.85-7H45.7zm.84 1.13l-.26 3.07h.52l-.26-3.07zM39.67 31l-.86-7h1.51l.37 4.93.57-4.93h1.6l.42 4.93.48-4.93h1.33l-.84 7H42.5l-.56-5.36-.55 5.36h-1.71zM48 24h1.41l.6 2.75.53-2.75H52l-1.27 4.4V31H49.3v-2.6L48 24z" fill="#023D0A"/></svg>