<!-- by TradingView --><svg width="56" height="56" xmlns="http://www.w3.org/2000/svg"><path fill="#6E3890" d="M0 0h56v56H0z"/><path d="M29.972 29.979H4v.032l22.94 1.994h.065l2.967-2.026z" fill="#fff"/><path d="M29.929 28.88H6.422l20.488 1.895 3.019-1.887v-.008zM11.284 26.63l.915.132c-.203.443-.558.772-1.064.99-.506.217-1.124.326-1.85.326-.639 0-1.184-.073-1.638-.218a2.487 2.487 0 01-1.113-.704 1.656 1.656 0 01-.433-1.142c0-.434.145-.8.434-1.1.289-.3.68-.527 1.174-.68a5.572 5.572 0 011.654-.23c.666 0 1.238.097 1.716.29.479.194.813.479 1.005.854l-.896.121c-.307-.546-.922-.818-1.846-.818-.46 0-.859.055-1.196.165a1.77 1.77 0 00-.807.514c-.2.233-.302.527-.302.884 0 .539.203.943.609 1.212.406.27.946.405 1.621.405.499 0 .928-.083 1.29-.248.362-.165.604-.416.726-.752z" fill="#fff"/><path d="M12.354 28.078l2.368-4.073h.886l2.52 4.073h-.934l-.716-1.233h-2.593l-.665 1.233h-.866zm1.77-1.674h2.099l-.641-1.127a8.588 8.588 0 01-.437-.844c-.079.26-.191.52-.336.777l-.685 1.194zM18.692 28.078v-4.073h1.965c.398 0 .712.04.946.118.232.079.422.201.57.367a.811.811 0 01.223.553.756.756 0 01-.192.505c-.129.15-.308.27-.54.36.301.07.539.191.713.36a.84.84 0 01.26.627.98.98 0 01-.237.65 1.343 1.343 0 01-.632.405c-.264.085-.626.127-1.087.127h-1.99v.001zm.688-2.363h1.135c.297 0 .508-.013.634-.04a.866.866 0 00.417-.195.487.487 0 00.146-.374.524.524 0 00-.133-.365.696.696 0 00-.353-.201c-.148-.037-.412-.056-.792-.056h-1.052v1.231h-.002zm0 1.882h1.304c.287 0 .5-.016.636-.05a.892.892 0 00.452-.237.582.582 0 00.155-.416.551.551 0 00-.148-.39.868.868 0 00-.4-.233c-.167-.05-.429-.073-.787-.073H19.38v1.4zM23.397 28.078v-4.074h.672v3.593h2.51v.481h-3.182zM26.907 28.078v-4.074h3.637v.481H27.57v1.243h2.785v.481H27.57v1.388h3.094v.481h-3.758zM34.832 26.008c1.044 0 1.841.188 2.389.564.549.376.865.838.951 1.387a3.73 3.73 0 01-.016.948c-.048.27-.179.552-.393.841-.213.29-.51.536-.892.739a3.954 3.954 0 01-1.126.405 6.61 6.61 0 01-1.196.108c-.979 0-1.768-.172-2.37-.506-.6-.332-.948-.8-1.042-1.4-.05-.314-.064-.753.053-1.143.089-.299.247-.58.476-.845.229-.265.525-.487.892-.666.367-.18.736-.296 1.11-.35a7.915 7.915 0 011.164-.082zm-.315 3.936c.408 0 .74-.104.991-.31a1.46 1.46 0 00.502-.784c.082-.315.106-.765.086-.898a.912.912 0 00-.44-.67c-.246-.15-.543-.226-.889-.226-.387 0-.705.096-.953.285-.25.189-.42.442-.51.756-.107.685-.114.808-.08 1.03.037.234.17.43.4.584.23.156.528.233.893.233zM45.38 26.004L44.591 31h-1.83l-1.885-2.974h-.017L40.39 31h-1.84l.787-4.996h1.831l1.926 2.734h.017l.428-2.734h1.84zM52.048 26l-.154 1.003h-3.352l-.158 1h3.23l-.205 1h-3.226l-.155 1h3.636l-.166.996h-5.672L46.651 26h5.396z" fill="#fff"/></svg>