<!-- by TradingView --><svg width="56" height="56" xmlns="http://www.w3.org/2000/svg"><path fill="url(#paint0_linear)" d="M0 0h56v56H0z"/><path fill="#FF2538" d="M5 35h46v2H5z"/><path d="M18 19v4.309h-.388c-.291-1.125-.835-1.986-1.63-2.585-.795-.6-1.913-.899-2.92-.899-.842 0-1.614.223-2.317.67a3.983 3.983 0 00-1.54 1.75c-.418.923-.627 1.95-.627 3.08 0 1.113.153 2.128.458 3.044.305.911.782 1.602 1.431 2.073 2.213 1.582 5.518.405 7.515-.942-2.525 2.431-6.3 3.219-9.493 1.702-1.113-.531-1.975-1.295-2.584-2.292A6.042 6.042 0 015 25.73c0-1.186.335-2.311 1.004-3.375a6.917 6.917 0 012.724-2.475 7.898 7.898 0 013.648-.88c.947 0 2.165.19 3.219.568.61.22.997.33 1.162.33.213 0 .395-.07.547-.21.16-.147.262-.376.308-.688H18zm7.848 9.177h-4.76l-.568 1.21c-.185.404-.278 1.02-.278 1.284 0 .348.153.605.457.77.18.098.62.17 1.322.22V32h-4.483v-.34c.484-.066.882-.25 1.193-.55.312-.305.696-.931 1.153-2.163L24.705 19h.19l4.86 10.506c.464.966.845 1.574 1.143 1.825.225.19.691.3 1.102.33V32h-6.669v-.34h.269c.523 0 .891-.066 1.103-.2a.477.477 0 00.219-.423c0-.11-.02-.223-.06-.339-.013-.055-.112-.284-.298-.687l-.716-1.834zm-.338-.678l-2.008-4.282-2.067 4.282h4.075zM51 31.66V32h-7.047v-.34h.447c.39 0 .855-.063 1.093-.192a.858.858 0 00.398-.44c.073-.146.109-.531.109-1.155v-8.462c0-.636-.036-1.317-.11-1.476-.072-.159-.221-.296-.447-.412-.218-.123-.665-.184-1.043-.184h-.447V19H51v.34h-.447c-.391 0-.797.063-1.036.192a.903.903 0 00-.408.44c-.073.146-.109.816-.109 1.44v8.461c0 .636.036 1.033.11 1.192.079.159.228.3.447.422.225.116.618.174.996.174H51zM43.304 19v4.309h-.388c-.291-1.125-.834-1.986-1.63-2.585-.795-.6-1.913-.899-2.92-.899-.842 0-1.614.223-2.316.67a3.983 3.983 0 00-1.541 1.75c-.418.923-.626 1.95-.626 3.08 0 1.113.152 2.128.457 3.044.305.911.782 1.602 1.431 2.073 2.213 1.582 5.519.405 7.516-.942-2.526 2.431-6.3 3.219-9.494 1.702-1.113-.531-1.975-1.295-2.584-2.292a6.042 6.042 0 01-.905-3.18c0-1.186.335-2.311 1.004-3.375a6.918 6.918 0 012.724-2.475A7.899 7.899 0 0137.68 19c.947 0 2.165.19 3.219.568.61.22.997.33 1.163.33.212 0 .394-.07.546-.21.16-.147.262-.376.309-.688h.387z" fill="#fff"/><defs><linearGradient id="paint0_linear" x1="10.418" y1="9.712" x2="68.147" y2="76.017" gradientUnits="userSpaceOnUse"><stop stop-color="#1A1E21"/><stop offset="1" stop-color="#06060A"/></linearGradient></defs></svg>