<!-- by TradingView --><svg xmlns="http://www.w3.org/2000/svg" width="56" height="56"><path fill="#F0F3FA" d="M0 0h56v56H0z"/><path d="M11.5 31.3l-.9.47c-.34-.5-.85-.77-1.6-.77-1.36 0-2 .88-2 2 0 1.17.86 2 2 2a1.9 1.9 0 001.6-.74l.86.52A2.88 2.88 0 019.02 36 2.88 2.88 0 016 33c0-1.74 1.23-3 3.01-3a2.8 2.8 0 012.49 1.3z" fill="#242020"/><path fill-rule="evenodd" d="M15 36c1.74 0 3-1.27 3-3s-1.26-3-3-3a2.9 2.9 0 00-3 3c0 1.73 1.26 3 3 3zm0-1a2 2 0 100-4 2 2 0 000 4z" fill="#242020"/><path d="M24 36h-1l-3-4v4h-1v-6h1l3 4v-4h1v6zm3.53-2.4h1.85l-.87-2.6-.98 2.6zm4.02 2.4h-1.1l-.63-1.5H27.1l-.55 1.5h-1.09l2.4-6h1.34l2.36 6zm14.43-2.4h1.86l-.88-2.6-.98 2.6zM50 36h-1.1l-.63-1.5h-2.72L45 36h-1.1l2.4-6h1.34L50 36zm-15-3.3v.8h1.88c0 .7-.7 1.5-1.88 1.5-1.2 0-2-.82-2-2a2 2 0 012-2c.6 0 1.26.24 1.6.61l.76-.71A3.32 3.32 0 0035 30c-1.67 0-3 1.25-3 3 0 1.86 1.38 3 3 3 1.66 0 3-1.2 3-2.99v-.3h-3zm7-.7a1 1 0 01-.94 1H40v-2h1.06a1 1 0 01.94 1zm1 0c0-1.4-1.01-2-1.94-2H39v6h1v-2h1.06l.92 2H43l-1.02-2.2c.61-.3 1.02-1 1.02-1.8z" fill="#242020"/><path d="M19.62 39.68c.25 0 .41-.09.41-.27 0-.17-.14-.27-.44-.27H19v.54h.62zm-.1-.83c.23 0 .4-.09.4-.27 0-.16-.14-.26-.38-.26H19v.53h.51zm-.92-.56c0-.18.12-.29.22-.29h.77a.8.8 0 01.55.2c.1.08.15.19.15.32 0 .24-.1.38-.26.46.25.08.37.2.37.46 0 .36-.3.56-.78.56h-.8c-.1 0-.22-.09-.22-.18v-1.53zm4.33.71c.26 0 .43-.14.43-.34 0-.22-.16-.33-.44-.33h-.53V39h.54zm-.93-.81c0-.1.1-.19.2-.19h.75a.9.9 0 01.61.21c.11.1.18.25.18.43 0 .32-.2.5-.48.59l.4.48c.04.04.06.08.06.13 0 .1-.09.16-.18.16a.21.21 0 01-.18-.09l-.5-.61h-.47v.53c0 .1-.08.17-.19.17-.1 0-.2-.08-.2-.17v-1.64zm4.5 1.02l-.36-.78-.36.78h.72zm-1.34.55l.76-1.61c.04-.09.11-.15.22-.15h.01c.1 0 .17.06.21.15l.76 1.61c.02.03.02.05.02.08 0 .09-.07.16-.17.16-.08 0-.14-.05-.17-.12l-.17-.36h-.99l-.17.37a.17.17 0 01-.16.11.16.16 0 01-.17-.16l.02-.08zm3.39-1.58c0-.1.08-.18.18-.18h.04c.1 0 .14.04.2.1L30 39.38v-1.21c0-.1.1-.17.2-.17s.18.08.18.17v1.66c0 .1-.08.17-.18.17h-.02c-.08 0-.14-.04-.19-.1l-1.11-1.32v1.25c0 .1-.05.17-.15.17-.1 0-.18-.08-.18-.17v-1.65zm4.27 1.5c.47 0 .77-.28.77-.67V39c0-.4-.3-.68-.77-.68h-.43v1.36h.43zm-.82-1.5c0-.1.08-.18.2-.18h.62c.7 0 1.18.43 1.18 1 0 .56-.48 1-1.18 1h-.63c-.1 0-.2-.08-.2-.18v-1.64zm3.5 1.58a.16.16 0 01-.08-.13c0-.1.08-.16.17-.16.05 0 .09.01.1.03.18.13.36.2.59.2.22 0 .36-.1.36-.24v-.01c0-.14-.08-.21-.46-.3-.44-.1-.7-.22-.7-.57v-.01c.01-.33.3-.57.71-.57.26 0 .47.07.66.19.04.02.08.07.08.13 0 .1-.08.16-.17.16-.04 0-.07 0-.1-.02a.9.9 0 00-.47-.15c-.21 0-.34.1-.34.23 0 .15.1.22.5.3.43.1.65.25.65.58 0 .36-.3.58-.73.58-.28 0-.55-.08-.78-.24z" fill="#6BCC4C"/><path d="M28.5 12.92c.03.09.1.1.18.06l1.76-1.73s.06-.05.06-.09c0-.04-.06-.09-.06-.09l-1.77-2.05c-.08-.03-.14-.02-.17.06v3.84z" fill="#62BB46"/><path d="M27.5 12.91c0 .1-.11.12-.17.03l-1.55-1.7s-.04-.05-.04-.09c0-.03.03-.08.03-.08l1.58-2.04c.07-.06.15-.02.15.07v3.81zm1 4.12c.03.09.1.12.18.06l3.43-3.44s.04-.05.03-.09c0-.03-.04-.08-.04-.08L31 11.92s-.05-.06-.09-.06c-.07 0-.11.04-.11.04l-2.23 2.32c-.05.04-.07.07-.07.12v2.7z" fill="#A5CF4F"/><path d="M27.5 17.03c-.02.1-.09.12-.17.06l-3.42-3.44s-.04-.05-.04-.09c0-.03.04-.08.04-.08l1.1-1.56s.05-.06.1-.06c.04 0 .1.04.1.04l2.22 2.3c.04.04.06.09.07.14v2.7z" fill="#007933"/><path d="M33.96 17.6l-.02-.14s-.04-.08-.07-.09c-.04 0-.1.03-.1.03l-.12.1-5.05 5.17c-.09.1-.1.23-.1.23v1c.04.07.1.09.18.1 0 0 1.91-.03 3.4-1.45a5.8 5.8 0 001.88-4.96z" fill="#62BB46"/><path d="M22.06 17.6l.03-.14s.03-.08.07-.09c.04 0 .1.03.1.03l.12.1 5.04 5.17c.09.1.08.23.08.23v1c-.02.08-.08.1-.16.1 0 0-1.9-.03-3.4-1.45A5.97 5.97 0 0122 18.2c0-.38.06-.6.06-.6z" fill="#A5CF4F"/><path d="M28.5 21.43c0 .09.11.14.18.07l4.95-5.07s.05-.08.05-.13c0-.06-.05-.14-.05-.14l-.96-1.82s-.05-.07-.1-.08c-.06-.01-.1.04-.1.04l-3.82 3.94a.4.4 0 00-.15.3v2.89z" fill="#007933"/><path d="M27.5 21.43c0 .1-.09.13-.15.07l-4.95-5.07s-.05-.08-.05-.13a.4.4 0 01.04-.14l.97-1.82s.04-.07.09-.08c.07-.01.12.04.12.04l3.81 3.94c.09.07.12.19.12.3v2.89z" fill="#62BB46"/><path d="M30.43 26.4L29 27.84s.55.13.9.16c.76.06 1.15-.36 1.9-.35.72.01 1.09.32 1.8.35.9.04 1.39-.37 2.3-.35.8.02 1.22.35 2.02.35s1.23-.35 2.03-.35c.81 0 2.05.35 2.05.35s-.02-.37-.11-.83c-.1-.45-.22-.77-.22-.77s-1.07-.4-1.81-.4c-.77-.01-1.16.4-1.94.4-.8 0-1.22-.39-2.02-.4-.87-.01-1.31.44-2.17.4-.69-.04-1.02-.41-1.7-.4-.65.01-1.6.4-1.6.4z" fill="#43C5E4"/><path d="M33.5 23s1.55-.5 2.47-.37c.4.05 1.08.37 1.68.37.77 0 1.42-.28 1.35-.32a4.46 4.46 0 00-2.3-.68c-1.43 0-2.61.67-3.2 1z" fill="#94D7E9"/><path d="M32.88 23.8l-1.65 1.4s1.55.34 2.52.3c.8-.03 1.2-.29 2-.3.8-.03 1.23.29 2.03.3.87.01 1.34-.38 2.2-.3.6.04 1.5.36 1.5.36s-.33-.75-.62-1.16c-.3-.42-.87-.9-.87-.9s-1.29.5-2.13.5c-.84 0-1.27-.51-2.11-.5-.8.01-1.2.55-2 .5-.34-.02-.87-.2-.87-.2z" fill="#007EC5"/><path d="M24.95 26.02l-1.6 1.87c-.03.05 0 .11.06.11h3.52c.06 0 .1-.08.05-.12l-1.92-1.86a.07.07 0 00-.1 0z" fill="#E82C2A"/><path d="M22.12 28h-2.57c-.06 0-.1-.07-.05-.12l3.27-3.86a.07.07 0 01.1 0l1.51 1.32c.03.03.04.07 0 .1l-2.19 2.53a.1.1 0 01-.07.03z" fill="#C3271B"/><path d="M18.2 28h-2.82a.1.1 0 01-.08-.16l4.74-5.5a.1.1 0 01.12-.01l1.95 1.18c.06.03.07.1.03.15l-3.8 4.28a.2.2 0 01-.15.06z" fill="#E82C2A"/><path d="M14.05 28h-.86a.2.2 0 01-.2-.2c0-.59.27-2.43 1.53-3.8 1.53-1.66 3.04-2 3.95-2 .33 0 .58.03.73.06.07.02.1.1.05.15l-5.05 5.73a.2.2 0 01-.15.06z" fill="#EA5329"/><circle cx="17" cy="39" r=".5" fill="#242020"/><circle cx="39" cy="39" r=".5" fill="#242020"/></svg>