<!-- by TradingView --><svg width="56" height="56" xmlns="http://www.w3.org/2000/svg"><path fill="#BF1920" d="M0 0h56v56H0z"/><path d="M11.837 32.007c-2.232 0-4.04-1.799-4.04-4.017 0-2.219 1.808-4.016 4.04-4.016.787 0 1.521.223 2.142.61l-2.142 3.406 4.032-2.314a5.444 5.444 0 00-1.826-1.745c-.967-.575-2.311-.931-3.798-.931-2.121 0-3.982.766-5.02 1.913C4.458 25.761 4 26.83 4 27.99c0 1.162.457 2.23 1.226 3.078C6.266 32.217 8.099 33 10.185 33c2.085 0 3.918-.784 4.959-1.932.057-.063.112-.127.164-.193l-.157-.586a4.047 4.047 0 01-3.314 1.718zM25.203 33l-1.692-6.537a2.384 2.384 0 00-2.307-1.759c-.287 0-.561.051-.816.143l-3.643 1.146h3.746l.64 2.547a3.551 3.551 0 00-2.315-.854c-1.758 0-3.182 1.171-3.182 2.616s1.424 2.676 3.182 2.676c1.266 0 2.386-.674 3.076-1.62L22.264 33h2.939zm-5.162-1.238a1.464 1.464 0 01-1.468-1.46c0-.806.657-1.46 1.468-1.46.812 0 1.47.654 1.47 1.46 0 .807-.658 1.46-1.47 1.46zM32.203 24.705c-.222 0-.675.1-1.014.256l-2.046 1a1.48 1.48 0 00-1.45-1.256c-.22 0-.431.05-.62.14l-2.856 1.149H26V33h3v-5.83c0-.644.592-.94.999-.94.404 0 1.001.316 1.001.94V33h3v-6.77c0-.831-.986-1.525-1.797-1.525zM50.26 24.705c-.221 0-.674.1-1.013.256l-2.046 1a1.48 1.48 0 00-1.45-1.256c-.221 0-.432.05-.621.14l-2.856 1.149H44V33h3v-5.83c0-.644.65-.94 1.056-.94.405 0 .944.316.944.94V33h3v-6.77c0-.831-.928-1.525-1.74-1.525z" fill="#fff"/><path d="M43.12 28.842c0 2.285-1.863 4.136-4.16 4.136-2.3 0-4.165-1.851-4.165-4.136 0-2.284 1.865-4.137 4.164-4.137 2.298 0 4.161 1.853 4.161 4.137zm-3.988-2.881a.917.917 0 00-1.124-.645.913.913 0 00-.65 1.117l1.427 5.29a.92.92 0 001.124.647.914.914 0 00.65-1.119l-1.427-5.29z" fill="#fff"/></svg>