<!-- by TradingView --><svg width="56" height="56" xmlns="http://www.w3.org/2000/svg"><path fill="url(#paint0_linear)" d="M0 0h56v56H0z"/><path d="M9.162 24.533l.838-.406-.735 2.701c-.38-1.871-1.463-2.31-1.957-2.295-1.98.062-2.42 1.966-2.31 3.022.11 1.056.883 2.377 2.442 2.445 1.247.055 2.076-1.086 2.3-1.581-.207 2.18-1.848 2.627-2.642 2.578-2.591-.191-3.143-2.374-3.095-3.442.232-2.884 2.167-3.532 3.305-3.554.911-.018 1.616.347 1.854.532zM10.92 30.271L13.49 24l2.549 6.183L17 31h-3l.848-.663-.47-1.104h-2.445l-.439 1.038L12 31h-2l.92-.729z" fill="#fff"/><path d="M12.143 28.659l1.019-2.463.977 2.463h-1.996z" fill="url(#paint1_linear)"/><path d="M19.002 24.826L18 24h3l-1 .826v5.666h2.061L24 29l-.57 2H18l1.002-.92v-5.254zM26 24.92L25 24h5.67l.33 2.139-1.595-1.65H27V27h1.226l1.033-1.259-.145 1.553.145 1.66-1.033-1.251H27v2.799h2.178L31 28.88 30.443 31H25l1-.958V24.92zM41 24.92L40 24h5.67l.33 2.139-1.595-1.65H42V27h1.226l1.033-1.259-.145 1.553.145 1.66-1.033-1.251H42v2.799h2.178L46 28.88 45.443 31H40l1-.958V24.92zM33 24.893L32 24h3.678c.809 0 2.285.433 2.322 1.833.037 1.4-1.194 2.059-1.865 2.167.253.356.946 1.076 1.497 1.809.552.732 1.142 1 1.368 1.043-.12.056-.433.116-.575.14-.947.11-1.996-.874-2.402-1.38L34.678 28H34v2l1 1h-3l1-1v-5.107zM51.404 24.61l.596-.418-.397 2.3c-.868-1.674-1.362-1.883-1.937-1.883-.64 0-1.301.308-1.301 1.15 0 .55.42.833.728.96l1.505.693c.392.208 1.402.616 1.402 1.498 0 1.25-.878 1.937-2.053 2.073-.94.108-1.82-.316-2.144-.541l-.801.558.736-2.6c.787 2.042 1.916 2.042 2.205 2.042h.004c.282 0 1.032-.136 1.053-.914.018-.623-.538-1.1-.93-1.254h-.003c-.905-.356-2.638-1.035-2.638-2.248 0-1.532 1.251-2.026 2.237-2.026.788 0 1.529.433 1.738.61zM23.5 33l.337 1.035h1.09l-.882.64.337 1.036-.882-.64-.882.64.337-1.036-.882-.64h1.09L23.5 33zM32.5 33l.337 1.035h1.09l-.882.64.337 1.036-.882-.64-.882.64.337-1.036-.882-.64h1.09L32.5 33zM27.003 33h1.902l-.157.561h-1.433v.705c.098-.093.49-.28.876-.287.482-.007.809.357.809.845 0 .437-.188 1.124-1.029 1.17-.67.037-.924-.31-.968-.507-.017-.17.028-.507.349-.5.32.006.345.336.317.5-.027.09-.003.26.302.223.383-.046.445-.323.445-.603 0-.34-.098-.668-.516-.687-.334-.015-.77.192-.897.297V33z" fill="#fff"/><path d="M36.993 25.977C36.855 24.58 34.94 24.42 34 24.515v2.833c1.056.125 3.132.026 2.993-1.371z" fill="url(#paint2_linear)"/><defs><linearGradient id="paint0_linear" x1="10.418" y1="9.712" x2="68.147" y2="76.017" gradientUnits="userSpaceOnUse"><stop stop-color="#1A1E21"/><stop offset="1" stop-color="#06060A"/></linearGradient><linearGradient id="paint1_linear" x1="12.514" y1="26.623" x2="15.071" y2="29.004" gradientUnits="userSpaceOnUse"><stop stop-color="#1A1E21"/><stop offset="1" stop-color="#06060A"/></linearGradient><linearGradient id="paint2_linear" x1="34.558" y1="24.995" x2="37.525" y2="28.527" gradientUnits="userSpaceOnUse"><stop stop-color="#1A1E21"/><stop offset="1" stop-color="#06060A"/></linearGradient></defs></svg>