<!-- by TradingView --><svg xmlns="http://www.w3.org/2000/svg" width="56" height="56"><path fill="#44377D" d="M0 0h56v56H0z"/><path d="M38.9 39.48A16.45 16.45 0 0127.52 44 16.3 16.3 0 0112 32.97c3.49-4.11 7.87-4.97 7.87-4.97s-4.36-1.28-7.85-5.04A16.3 16.3 0 0127.52 12a16.45 16.45 0 0111.38 4.52l-6.4 6.46A7.2 7.2 0 0027.52 21c-3.94 0-7.14 3.13-7.14 7s3.2 7 7.14 7a7.2 7.2 0 004.98-1.98l6.4 6.46z" fill="#fff"/><path d="M43.2 23.03C39.7 27.14 35.33 28 35.33 28s4.36 1.28 7.84 5.04A15.69 15.69 0 0044 28c0-1.74-.28-3.4-.8-4.97z" fill="#E87C24"/></svg>