<!-- by TradingView --><svg xmlns="http://www.w3.org/2000/svg" width="56" height="56"><path fill="#F0F3FA" d="M0 0h56v56H0z"/><path fill-rule="evenodd" d="M12 29.27A4.1 4.1 0 018.1 32C5.84 32 4 30.2 4 28s1.84-4 4.1-4a4.1 4.1 0 013.9 2.73l-2.09.68a2 2 0 100 1.18l2.09.68zM11.25 32h2.1l.5-1.5h3.4l.49 1.5h2.1l-2.64-8h-3.3l-2.65 8zm5.33-3.5l-1.03-3.13-1.04 3.13h2.07zM22 32v-4.39L25 32h2v-8h-2v4.38L22 24h-2v8h2zm6-8h6.5v2H30v1h3.5v2H30v3h-2v-8zm9 0h-2v8h2v-8zm7.5 0h-7v2H40v6h2v-6h2.5v-2zm.5 0h7v2h-5v1h4v2h-4v1h5v2h-7v-8z" fill="#2C115C"/><circle cx="27.5" cy="28.5" r="1.5" fill="#F0F3FA"/><path d="M28.5 28.5a1 1 0 11-2 0 1 1 0 012 0z" fill="#9F0727"/></svg>