<!-- by TradingView --><svg width="56" height="56" xmlns="http://www.w3.org/2000/svg"><path fill="#F0F3FA" d="M0 0h56v56H0z"/><path d="M13 34l4.186-12h1.579L21 28.322v4.488L20.706 31H15l-1 3h-1z" fill="#EC6C00"/><path d="M10.18 22.004c2.045 0 3.22.846 3.82 1.447l-.703.607C11.99 22.876 10.73 23 10.18 23c-3.581 0-5.2 3.47-5.18 4.829C5.06 32.03 8.94 33 10.33 33c1.23 0 1.974-.459 2.4-.695l-.699 1.438c-1.966.457-3.61.083-4.187-.161-1.378-.524-3.946-2.312-3.84-5.753.127-4.19 3.667-5.825 6.176-5.825z" fill="#F29600"/><path d="M8 27.986L9.978 26 12 27.986 9.978 30 8 27.986z" fill="#F29600"/><path d="M15.284 30l2.71-7 2.712 7h-5.422z" fill="#F0F3FA"/><path d="M22.03 34.005V22H23l7 9.998V31c.351 1.137.552 1.225.997 1.698v1.307H30L23 24v10.005h-.97zM30 25.142V22h.987v1.443c-.376.308-.89 1.18-.987 1.699z" fill="#E7380D"/><path d="M36.217 22c2.175 0 3.843 1.344 4.405 1.992l-.668.7c-1.272-1.366-2.456-1.688-3.864-1.688-2.555 0-5.09 2.07-5.09 4.77 0 3.279 2.636 5.23 5.217 5.23 1.883 0 3.397-1.194 3.783-1.75V28h-4v-1h4.886L41 31.562C40.276 32.856 38.224 34 36.217 34c-2.977 0-6.375-2.092-6.211-6.226.16-4.04 3.447-5.774 6.211-5.774z" fill="#B50005"/><circle cx="46" cy="28" fill="#B50005" r="6"/><circle cx="46" cy="28" fill="#F0F3FA" r="5"/><path d="M44 27.986L45.978 26 48 27.986 45.978 30 44 27.986z" fill="#B50005"/></svg>