<!-- by TradingView --><svg width="56" height="56" xmlns="http://www.w3.org/2000/svg"><path fill="#5D2482" d="M0 0h56v56H0z"/><ellipse cx="28" cy="27.5" rx="24" ry="10" fill="#fff"/><path d="M12.581 27.008a2.775 2.775 0 00-.707-.452 1.652 1.652 0 00-.675-.152c-.435 0-.8.128-1.093.386-.29.258-.436.571-.436.941 0 .356.11.646.327.87.217.222.495.333.832.333.218 0 .43-.033.637-.098.21-.07.437-.178.68-.327l.266 1.393c-.34.163-.66.283-.957.36a3.31 3.31 0 01-.87.119c-.766 0-1.388-.229-1.867-.686C8.24 29.238 8 28.645 8 27.916c0-.827.287-1.52.86-2.078.576-.559 1.296-.838 2.16-.838.344 0 .678.049 1 .147.324.094.637.238.942.43l-.38 1.43zM16.476 26.774a1.001 1.001 0 00-.321-.398.736.736 0 00-.435-.13c-.349 0-.644.18-.887.539-.243.359-.365.807-.365 1.343 0 .283.07.51.207.68.138.171.323.256.555.256.265 0 .491-.112.68-.337.192-.229.325-.55.397-.963l.169-.99zM18.5 25l-.909 5h-1.703l.087-.375a3.06 3.06 0 01-.745.533 1.664 1.664 0 01-.724.168c-.508 0-.917-.195-1.23-.587-.311-.395-.467-.916-.467-1.562 0-.895.23-1.64.69-2.23.461-.595 1.038-.893 1.73-.893.273 0 .521.055.746.164.225.105.455.277.691.517l.126-.735H18.5zM18.292 30l.914-4.99h1.55l-.217 1.181c.207-.373.423-.65.648-.832a1.174 1.174 0 01.985-.25c.083.01.166.03.25.06l-.31 1.724a2.303 2.303 0 00-.294-.054 1.656 1.656 0 00-.261-.022c-.341 0-.608.113-.8.338-.189.22-.328.583-.419 1.088L20.017 30h-1.725zM22.29 28.71c.32.186.613.325.882.42.272.09.513.136.723.136.17 0 .31-.04.42-.12.112-.084.168-.185.168-.305 0-.101-.04-.19-.12-.266-.076-.077-.246-.176-.511-.3l-.327-.157c-.373-.178-.654-.394-.843-.648a1.445 1.445 0 01-.283-.876c0-.457.185-.834.555-1.132.374-.3.854-.451 1.442-.451.34 0 .673.05.996.152.326.098.65.252.974.463l-.457.99a4.141 4.141 0 00-.762-.38 1.848 1.848 0 00-.631-.131.735.735 0 00-.436.12.35.35 0 00-.163.298c0 .113.047.21.142.294.094.084.295.19.604.321l.299.125c.334.142.593.341.778.599.188.257.283.544.283.86 0 .485-.192.88-.577 1.186-.38.3-.883.451-1.507.451a3.903 3.903 0 01-2.095-.604l.446-1.044zM26.457 29.347a.89.89 0 01.272-.653.89.89 0 01.653-.272c.261 0 .48.09.658.267a.883.883 0 01.267.658.89.89 0 01-.272.653.879.879 0 01-.653.272.894.894 0 01-.653-.277.896.896 0 01-.272-.648zM33.578 27.008a2.775 2.775 0 00-.707-.452 1.652 1.652 0 00-.675-.152c-.435 0-.8.128-1.093.386-.29.258-.436.571-.436.941 0 .356.11.646.327.87.218.222.495.333.832.333.218 0 .43-.033.637-.098.21-.07.437-.178.68-.327l.267 1.393c-.341.163-.66.283-.958.36a3.31 3.31 0 01-.87.119c-.766 0-1.388-.229-1.867-.686-.479-.457-.718-1.05-.718-1.779 0-.827.287-1.52.86-2.078.576-.559 1.296-.838 2.16-.838.344 0 .678.049 1 .147.324.094.637.238.942.43l-.38 1.43zM33.784 27.905c0-.816.281-1.503.843-2.062.566-.562 1.266-.843 2.1-.843.74 0 1.344.225 1.812.675.472.45.708 1.033.708 1.752 0 .823-.28 1.518-.838 2.083-.555.566-1.235.85-2.04.85-.773 0-1.397-.226-1.872-.675-.475-.454-.713-1.047-.713-1.78zm2.867-1.616c-.3 0-.562.158-.783.474-.221.315-.332.696-.332 1.142 0 .349.082.631.245.85a.75.75 0 00.62.32c.301 0 .559-.156.773-.468.214-.312.32-.698.32-1.159 0-.344-.077-.623-.233-.838a.721.721 0 00-.61-.32zM39.224 30l.865-5h1.687l-.125.968c.253-.293.52-.513.8-.658a1.87 1.87 0 01.88-.223c.363 0 .666.09.91.272.246.178.411.43.495.756.275-.348.562-.605.86-.772.3-.17.62-.256.957-.256.439 0 .789.13 1.05.392.265.257.397.598.397 1.023 0 .058-.004.116-.01.174-.005.054-.012.112-.023.174L47.38 30h-1.698l.495-2.65a2.268 2.268 0 00.044-.424.47.47 0 00-.125-.348.428.428 0 00-.332-.13c-.276 0-.523.115-.74.348-.218.232-.361.544-.43.935L44.16 30H42.45l.495-2.655a3 3 0 00.039-.245c.01-.069.016-.127.016-.174a.445.445 0 00-.468-.479c-.276 0-.522.116-.74.349-.218.232-.36.544-.43.935L40.927 30h-1.703z" fill="#5D2482"/></svg>