<!-- by TradingView --><svg xmlns="http://www.w3.org/2000/svg" width="56" height="56"><path fill="#F0F3FA" d="M0 0h56v56H0z"/><path d="M21.83 17a8.93 8.93 0 017.7 4.44l-2.59.29a7.58 7.58 0 00-6.06-3.03 7.68 7.68 0 00-7.62 7.4h-.4c0-5.03 4.02-9.1 8.97-9.1zm-1.4 2.66a6.3 6.3 0 014.98 2.44l-1.52.7a5.37 5.37 0 00-4.13-1.94 5.44 5.44 0 00-5.4 5.24h-.28v-.24a6.4 6.4 0 016.35-6.2z" fill="#AE093F"/><path d="M20.65 24.56c-5.28 2.6-7.58 2.06-8.65 1.55.43.28 1.7.95 3.44.95 1.8 0 5.04-1.08 6.49-1.67 1.8-.76 5.62-2.32 7.73-2.32a6.5 6.5 0 013.74 1.1 6.3 6.3 0 00-4.54-2.27c-1 0-2.94.07-8.21 2.66z" fill="#0A255D"/><path fill-rule="evenodd" d="M7 27a3 3 0 100 6h3v-1H7a2 2 0 110-4h3v-1H7zm6 4.28L10.5 28h1.13l1.89 2.43L15.3 28h1.2L14 31.28V33h-1v-1.72zM46 28l2.5 3.28V33h1v-1.72L52 28h-1.2l-1.78 2.43L47.13 28H46zm-28.88.5L16 33h.95l.8-3.39 1.77 3.14c.12.17.25.25.45.25.19 0 .31-.07.47-.25l1.76-3.14L23 33h1l-1.13-4.4c-.07-.25-.27-.6-.54-.6-.28 0-.5.34-.6.5l-1.76 3.12-1.75-3.12-.02-.04c-.1-.2-.26-.46-.54-.46-.31 0-.48.3-.54.5zM25 33l2.9-4.6c.14-.18.34-.4.63-.4.3 0 .48.24.57.4L32 33h-1.16l-.68-1h-2.64l.67-1h1.39l-1.05-1.63L26.14 33H25zm17.9-4.6L40 33h1.14l2.4-3.63L44.57 31h-1.39l-.67 1h2.64l.68 1H47l-2.9-4.6c-.1-.16-.28-.4-.57-.4-.29 0-.5.22-.62.4zM33 27h5.25a1.75 1.75 0 011.22 3 1.74 1.74 0 01-1.22 3H33v-6zm1 1h4.27a.72.72 0 110 1.45H35v1.07h3.26a.74.74 0 010 1.48H34v-4z" fill="#0A255D"/></svg>