<!-- by TradingView --><svg width="56" height="56" xmlns="http://www.w3.org/2000/svg"><path fill="#004877" d="M0 0h56v56H0z"/><path d="M18.197 17a6.192 6.192 0 00-2.361.522c-.764.337-1.475.829-2.104 1.403a11.709 11.709 0 00-1.66 1.924c-.484.696-.908 1.431-1.274 2.173-.368.738-.676 1.49-.95 2.224a27.673 27.673 0 00-.692 2.138 32.628 32.628 0 00-.488 1.95 39.214 39.214 0 00-.53 2.96c-.048.357-.083.635-.103.83-.023.192-.034.298-.034.298a.12.12 0 00.103.137.122.122 0 00.145-.102s.021-.1.051-.291a38.9 38.9 0 01.77-3.73c.156-.594.346-1.237.565-1.907.217-.666.464-1.362.761-2.07.294-.704.626-1.421 1.01-2.12.38-.701.815-1.39 1.3-2.028a10.654 10.654 0 011.607-1.727c.588-.498 1.235-.904 1.9-1.164a5.148 5.148 0 011.983-.35c.64.017 1.246.148 1.78.342.536.196.999.447 1.402.693.402.25.742.486 1.01.7l.094.078c-.026.01-.053.015-.077.026-.298.12-.58.271-.856.436-.276.16-.543.343-.795.539-.25.195-.493.412-.719.633-.227.218-.44.44-.641.675-.406.47-.755.97-1.07 1.463a15.27 15.27 0 00-1.385 2.848c-.319.874-.507 1.633-.59 2.172-.042.27-.063.476-.068.625-.005.078 0 .083 0 .12v.042c0 .061.05.108.11.112.064.003.119-.044.12-.103 0 0-.002-.025 0-.06l.01-.094c.011-.136.039-.34.093-.599.103-.513.316-1.243.667-2.078.35-.832.835-1.78 1.48-2.703.32-.462.684-.917 1.086-1.343a8.47 8.47 0 011.317-1.154c.238-.17.489-.328.744-.462.253-.136.512-.25.779-.342.13-.05.269-.088.402-.129.031-.008.055-.018.085-.025.105-.025.212-.052.317-.069.134-.026.269-.04.402-.06.065-.009.13-.018.197-.025.05-.005.1-.006.154-.009h.05c.264-.016.525.013.78.034.251.034.491.076.726.137.475.12.912.287 1.3.47.392.186.737.383 1.035.574.147.099.285.189.41.282.125.09.24.176.343.257.098.078.195.144.274.205.076.062.136.116.188.162.107.089.17.137.17.137l.01.017c.005.005.018.005.025.009a.574.574 0 00.693-.915s-.07-.045-.188-.137a5.769 5.769 0 01-.214-.163l-.308-.214a7.414 7.414 0 00-.385-.256c-.138-.094-.295-.183-.462-.282a9.998 9.998 0 00-1.18-.59 8.009 8.009 0 00-1.505-.471 6.495 6.495 0 00-1.762-.103c-.075.006-.15.009-.223.017-.039-.032-.096-.083-.18-.154a7.13 7.13 0 00-.29-.23c-.118-.09-.246-.192-.402-.3a11.123 11.123 0 00-1.155-.744 9.156 9.156 0 00-1.66-.727A6.837 6.837 0 0018.198 17zm26.89 8.34c-.323 0-.782.135-1.026.256l-.12.06.077.342a6899.3 6899.3 0 00-5.482 10.623c-.186.323-.317.582-.317.582-.05.086-.052.165-.017.222.038.067.12.095.257.095h.958c.337 0 .398-.084.496-.257l1.685-3.37h2.25c.52-.013.989-.542 1-1.138v-.17h-2.557l2.318-4.602 1.719 9.092c.095.446.137.513.367.513.211 0 .645-.12.959-.214l.153-.051c.142-.043.212-.14.189-.257L45.712 25.93c-.144-.526-.424-.59-.625-.59zm-9.639.008c-.85 0-2.208.201-2.651.36l-.017.008c-.276.199-.491.67-.522.932 0 .07.053.146.154.146.012 0 .103-.012.23-.026h.018c.136-.013.305-.038.445-.051-.138.755-.423 2.665-.736 4.678-.366 2.401-.753 4.876-.94 5.893a.25.25 0 00.042.197c.059.082.16.097.205.103h1.095c.215 0 .337-.162.376-.308.013-.093 1.393-9.25 1.643-10.717.156-.01.437-.009.564-.009.807 0 1.46.239 1.89.685.412.429.62 1.037.59 1.77-.076 1.918-1.004 2.891-2.754 2.891-.246 0-.42-.015-.598-.085-.11-.049-.175 0-.18.12-.024.362.104.7.342.906.208.177.408.23.898.23 1.564 0 3.93-1.068 4.046-4.028.046-1.086-.233-1.961-.838-2.591-.701-.73-1.815-1.104-3.302-1.104zm-8.27.009c-5.17 0-7.232 3.963-7.356 6.629-.089 1.666.343 3.06 1.257 4.028.963 1.02 2.453 1.565 4.302 1.574h.077c1.061 0 2.053-.143 3.199-.462l.094-.026.026-.102c.05-.277.143-.808.256-1.429.252-1.372.565-3.09.642-3.472.015-.126.023-.287-.077-.402-.075-.09-.192-.126-.35-.128-.113 0-.67.054-.77.068-.614.085-1.438.298-1.446.3l-.017.008c-.31.224-.601 1.024-.633 1.249-.006.036-.01.064.008.085.038.05.1.086.171.086l.283-.035c.2-.019.711-.098.906-.128-.008.041-.013.094-.025.163a77.117 77.117 0 01-.505 2.822 5.5 5.5 0 01-1.403.197c-1.287-.008-2.344-.401-3.045-1.138-.723-.766-1.065-1.873-1-3.207.147-3.154 2.378-5.363 5.43-5.363h.035c.93.006 1.776.343 2.053.453a.942.942 0 00.342.077c.484 0 .752-.434.847-.838l.025-.102-.077-.069c-.562-.486-1.877-.831-3.198-.838h-.052z" fill="#fff"/></svg>