<!-- by TradingView --><svg width="56" height="56" xmlns="http://www.w3.org/2000/svg"><path fill="#F0F3FA" d="M0 0h56v56H0z"/><path d="M24.346 28l-9.345-16 14.004 8.002L24.346 28z" fill="#F79210"/><path d="M43 28H24.346l4.658-7.998L43 28z" fill="#E52F1F"/><path d="M43 28l-13.996-7.998L33.671 12 43 28z" fill="#CF181F"/><path d="M29.005 20.002L15 12h18.666l-4.663 8.002z" fill="#E85726"/><path d="M15 44l9.346-16 4.658 7.998L15 44z" fill="#F9A70D"/><path d="M29.004 35.998L24.346 28H43l-13.996 7.998z" fill="#E85726"/><path d="M43 28l-9.33 16-4.666-8.002L42.999 28z" fill="#CF181F"/><path d="M33.67 44H15l14.004-8.002L33.671 44z" fill="#E52F1F"/></svg>