<!-- by TradingView --><svg width="56" height="56" xmlns="http://www.w3.org/2000/svg"><path fill="#971B2F" d="M0 0h56v56H0z"/><path d="M8.912 27.39c-.086 1.572.475 3.084 1.58 4.252l.654.694 2.923-2.507-.655-.691a2.089 2.089 0 01-.576-1.551c.03-.573.296-1.098.743-1.481l6.727-5.773a2.302 2.302 0 011.626-.546 2.29 2.29 0 011.56.708l.824.87 2.922-2.508-.821-.87a6.26 6.26 0 00-4.275-1.94 6.332 6.332 0 00-4.465 1.505l-6.727 5.77C9.72 24.374 9 25.819 8.912 27.39zm25.141 1.257c.089-1.57-.475-3.083-1.58-4.253L31.41 23.27l-2.92 2.505 1.062 1.125c.402.428.61.977.576 1.548a2.085 2.085 0 01-.74 1.481l-6.733 5.775a2.313 2.313 0 01-1.625.547 2.286 2.286 0 01-1.558-.706l-.948-1.004-2.925 2.505.951 1.004c1.105 1.17 2.624 1.861 4.273 1.94a6.338 6.338 0 004.464-1.507l6.727-5.77c1.231-1.05 1.954-2.497 2.04-4.067zm-12.162-1.291c-.086 1.572.475 3.082 1.58 4.253l.655.69 2.922-2.506-.655-.691a2.084 2.084 0 01-.576-1.549c.03-.573.296-1.098.743-1.483l6.73-5.77a2.304 2.304 0 011.626-.55 2.302 2.302 0 011.557.706l.824.87 2.92-2.505-.824-.872c-1.105-1.17-2.624-1.859-4.273-1.94a6.338 6.338 0 00-4.464 1.507l-6.727 5.77c-1.227 1.055-1.952 2.5-2.038 4.07zm23.562-2.994l-1.062-1.124-2.923 2.504 1.062 1.122a2.079 2.079 0 01-.167 3.032l-6.727 5.773a2.315 2.315 0 01-1.626.55 2.284 2.284 0 01-1.557-.709l-.95-1.007-2.923 2.507.95 1.005c1.105 1.17 2.625 1.859 4.273 1.943a6.336 6.336 0 004.465-1.505l6.73-5.77c2.53-2.175 2.735-5.908.455-8.32zM9.386 20.367l.885.872.528.534.008-.007.007.01.473-.436 2.387-2.124-.038-.036.007-.007-.584-.576-.796-.807a2.038 2.038 0 00-2.78-.06 1.81 1.81 0 00-.082 2.625l-.015.012zm9.258 12.814c2.535-2.177 2.74-5.91.457-8.322l-1.061-1.125-2.923 2.504 1.062 1.125c.832.879.756 2.237-.167 3.032l-.015.01-7.344 6.276a1.81 1.81 0 00-.15 2.646c.726.768 1.968.833 2.777.142l.624-.534.013.012 6.699-5.74.028-.026zm28.853-16.494c-.726-.77-1.97-.835-2.779-.144l-.624.534-.013-.012-6.727 5.77c-2.536 2.175-2.74 5.908-.46 8.321l1.064 1.127 2.923-2.507-1.062-1.125a2.076 2.076 0 01.167-3.03l.012-.011 7.344-6.276c.812-.694.88-1.876.155-2.647zM46.6 35.664l.015-.014-1.302-1.286-.126-.128-2.829 2.599.008.007-.003.005.26.257 1.146 1.159c.75.746 1.994.773 2.778.06a1.808 1.808 0 00.063-2.647l-.01-.012z" fill="#fff"/></svg>