<!-- by TradingView --><svg width="56" height="56" xmlns="http://www.w3.org/2000/svg"><path fill="#F0F3FA" d="M0 0h56v56H0z"/><path d="M30 31.846L33.5 30 44 35.412 30 43V31.846z" fill="#F6911E"/><path d="M17 12.842v7.446l13-7.564L23.64 9 17 12.842zm0 30.016l6.641 3.842L30 43l-13-7.587v7.445z" fill="#E58F97"/><path d="M30 43l7.074 3.7 6.925-3.84v-7.446L30 43z" fill="#FCC489"/><path d="M17 35.418V20.281l9.75 5.555v4.036L30 31.871V43l-13-7.582z" fill="#D20C54"/><path d="M10 24.01v7.682l7 3.72V20.287l-7 3.722zM37.073 9L30 12.723l13.998 7.564V12.84L37.073 9z" fill="#F7A288"/><path d="M30 23.852l-3.25 2L17 20.287l13-7.564 14 7.564-10.5 5.565-3.5-2z" fill="#EF4936"/></svg>