<!-- by TradingView --><svg width="56" height="56" xmlns="http://www.w3.org/2000/svg"><path fill="#968966" d="M0 0h56v56H0z"/><path d="M39.368 32.557c-2.827-1.497-7.493-2.065-11.234-2.065a30.6 30.6 0 00-7.882.93 12.349 12.349 0 00-3.305 1.171c-.883-3.531-1.829-5.612-4.509-7.657.928-.948 2-1.748 3.18-2.37 1.05 2.205 2.506 2.608 3.152 2.68a2.636 2.636 0 001.465-.261 2.576 2.576 0 001.078-1.01c.31-.52.468-1.115.457-1.719a5.376 5.376 0 00-.693-2.499 11.911 11.911 0 013.972-.883c-.038.3-.059.602-.063.904 0 1.657.563 2.969 1.619 3.681a2.787 2.787 0 003.153 0c1.114-.738 1.713-2.111 1.713-3.841a5.213 5.213 0 00-.048-.847c1.334.112 2.641.43 3.873.945a5.33 5.33 0 00-.74 2.55c-.011.618.154 1.226.477 1.756.276.45.682.807 1.166 1.028.484.22 1.024.294 1.551.212 1.303-.181 2.401-1.183 3.069-2.716a12.4 12.4 0 013.152 2.457c-2.842 1.792-3.641 4.08-4.603 7.544v.01zm-3.095 3.548a32.717 32.717 0 01-8.144.903c-2.743.041-5.48-.263-8.145-.903-2.102-.558-2.712-1.147-2.822-1.358a8.84 8.84 0 013.347-1.596 34.379 34.379 0 017.62-.77c2.743-.034 5.48.273 8.144.915 2.339.62 2.838 1.285 2.838 1.415 0 .129-.525.795-2.838 1.42v-.026zm9.574-11.618a14.862 14.862 0 00-5.18-3.873l-.92-.413-.268.93c-.463 1.657-1.335 2.35-1.997 2.442a.981.981 0 01-.568-.067.961.961 0 01-.43-.372c-.352-.563-.347-1.724.756-3.3l.568-.769-.894-.433a14.844 14.844 0 00-6.5-1.596L29.306 17l.236 1.064c.494 2.256-.068 3.552-.762 4.006a1.026 1.026 0 01-1.193 0c-.656-.444-1.171-1.704-.656-3.924l.257-1.12-1.476.103c-2.102.145-3.72.258-6.254 1.503l-.909.433.573.8c1.051 1.498 1.051 2.655.704 3.238a.865.865 0 01-.36.354.885.885 0 01-.502.095c-.625-.067-1.492-.753-2.075-2.473l-.331-.98-.91.515c-2.306 1.26-3.972 2.355-5.154 4.023l-.494.697.71.516c2.937 1.993 3.746 3.656 4.807 8.19-.09.21-.136.437-.136.665 0 2.768 6.594 4.033 12.721 4.033s12.717-1.265 12.717-4.033c0-.19-.032-.378-.095-.557l.1-.362c1.166-4.223 1.692-6.16 4.908-7.807l1.014-.516-.899-.976z" fill="#fff"/><path d="M28.207 26.754a.922.922 0 00-.506.144.898.898 0 00-.34.398.88.88 0 00.186.975.914.914 0 00.988.205.906.906 0 00.412-.324.882.882 0 00.159-.495.88.88 0 00-.263-.626.911.911 0 00-.636-.262M24.676 26.975a.917.917 0 00-.643.262.886.886 0 000 1.263.917.917 0 001.286 0 .885.885 0 000-1.263.917.917 0 00-.643-.262zM31.702 27.052a.92.92 0 00-.51.143.898.898 0 00-.341.397.879.879 0 00.187.979.914.914 0 00.992.2.905.905 0 00.411-.328.882.882 0 00-.112-1.13.917.917 0 00-.643-.261M21.34 27.647a.92.92 0 00-.506.148.88.88 0 00-.146 1.373.924.924 0 00.99.2.907.907 0 00.41-.327.882.882 0 00-.107-1.129.91.91 0 00-.641-.265zM17.82 28.747a.915.915 0 00-.5.154.874.874 0 00-.126 1.365.909.909 0 00.984.188.9.9 0 00.404-.327.877.877 0 00-.117-1.124.906.906 0 00-.646-.256zM35.17 27.663a.92.92 0 00-.507.148.88.88 0 00-.143 1.375.914.914 0 00.991.195.906.906 0 00.41-.328.882.882 0 00-.11-1.129.904.904 0 00-.641-.261zM38.539 28.742a.915.915 0 00-.501.152.891.891 0 00-.33.4.873.873 0 00.199.965.909.909 0 00.984.19.9.9 0 00.405-.326A.877.877 0 0039.18 29a.905.905 0 00-.642-.258z" fill="#fff"/></svg>