<!-- by TradingView --><svg width="56" height="56" xmlns="http://www.w3.org/2000/svg"><path fill="#503068" d="M0 0h56v56H0z"/><path d="M21.589 33.784S19.052 37.372 13.025 44c4.402-7.347 7.374-10.456 7.374-10.456l1.19.24zM24.176 34.141S21.64 37.604 15.613 44c4.402-7.09 7.374-10.09 7.374-10.09l1.19.231zM27.005 34.141S24.468 37.604 18.44 44c4.402-7.09 7.375-10.09 7.375-10.09l1.189.231zM21.065 32.111S32.732 19.29 39.585 12c-5.545 8.14-14.33 17.65-17.106 20.49l-1.414-.379zM23.652 32.47S35.25 19.42 42.062 12c-5.512 8.285-14.244 17.964-17.004 20.856l-1.406-.386zM26.481 32.47S38.148 19.42 45.001 12c-5.545 8.285-14.33 17.964-17.106 20.856l-1.414-.386z" fill="#fff"/><path d="M13.071 27.241c1.095-5.446 7.424-6.062 10.091-5.813-6.313.441-7.304 3.602-7.01 5.128.916-1.955 2.557-2.517 3.262-2.553-2.998 2.657-.432 4.76 1.225 5.48 6.69 3.388 18.067 1.91 22.92.747-5.477 2.392-11.604 3.211-13.982 3.322-6.199.083-17.583-.946-16.506-6.311z" fill="#fff"/></svg>