<!-- by TradingView --><svg width="56" height="56" xmlns="http://www.w3.org/2000/svg"><path fill="#005A9C" d="M0 0h56v56H0z"/><path d="M38 34A6 6 0 1038 22 6 6 0 0038 34z" fill="#F0F3FA"/><path d="M29 28.022c-.01-4.013 3.16-8.205 9-8.022l-3.481-3C27.8 19.03 24.815 23.575 25 28.024v-.048c-.184 4.45 2.801 8.993 9.519 11.024L38 36c-5.84.184-9.01-4.011-9-8.023v.045z" fill="#F0F3FA"/><path d="M19 27.979C19 27.19 19 17.03 30 12l3 3c-9.74 3.81-9.858 10.966-10 13.022v-.043c.142 2.057.26 9.213 10 13.021l-3 3c-11-5.074-11-15.189-11-15.978v-.043zM11 28l7-6c-2.071 3.064-1.788 8.85 0 12l-7-6z" fill="#F0F3FA"/></svg>