<!-- by TradingView --><svg width="56" height="56" xmlns="http://www.w3.org/2000/svg"><path fill="#F0F3FA" d="M0 0h56v56H0z"/><path d="M25.687 15.008L22.54 16.27c-2.78 1.137-7.265 3.963-9.266 7.034-1.81 2.78-2.26 4.871-2.274 5.307v-10.32a3.285 3.285 0 013.285-3.284h11.402zM45 28.5c-4.047 3.226-10.804 6.897-13.826 8.114-2.569 1.035-8.465 3.117-13.183 2.19-4.613-.906-6.064-3.454-6.991-5.096v4.97a3.285 3.285 0 003.285 3.285h27.208c1.815 0 3.507-1.532 3.507-3.346V28.5z" fill="#2A2F4C"/><path d="M45 19.208v4.465c-3.201 2.611-7.574 5.762-12.183 8.098-7.548 3.638-12.34 2.526-14.194 1.263-1.418-.87-3.664-3.723-1.137-8.17 3.159-5.56 11.667-8.045 14.025-8.677 2.359-.632 4.844-1.264 8.76-1.18 4.17.09 4.813 2.783 4.729 4.201z" fill="#279DD7"/></svg>