<!-- by TradingView --><svg width="56" height="56" xmlns="http://www.w3.org/2000/svg"><path fill="#58AD2F" d="M0 0h56v56H0z"/><path d="M5 23.554c5.067-6.946 11.978-4.42 14.703-2.284l-3.032 3.523c-2.426-2.364-4.775-1.343-5.646-.537-2.374 1.855-1.679 4.474-1.027 5.752-3.57-1.68-4.88-4.866-4.998-6.454z" fill="#fff"/><path d="M9.288 36.285C3.672 33.85 3.62 28.206 4.295 25.69c1.466 4.112 4.326 5.968 5.572 6.382 3.191 1.727 6.191.668 7.516-.075l2.376 3.34c-4.246 2.455-8.75 1.656-10.47.95zM23.954 19.935c-4.78 2.472-4.86 7.846-4.36 10.065 2.29-.709 4.537-2.84 5.386-3.742C26.134 22.306 29.794 22.607 32 24c.727-.654 1.94-1.817 3-2.385-3.762-3.726-8.872-2.702-11.046-1.68zM19.956 31.42c1.518-.585 3.795-2.104 4.744-2.79.34 2.743 2.218 3.614 3.115 3.706 2.105.433 3.64-.762 4.185-1.335l3 3.833c-2.4 2.46-6.873 2.329-8.787 1.955-3.816-.834-5.761-3.928-6.257-5.37zM36 20c1.597-.75 3.326-1 5-1v10.93c.19 2.387 2.353 2.78 3.317 2.678 1.837-.154 2.59-1.85 2.683-2.679V19c2.22 0 3.644.291 5 1v10.81c-.063 3.213-2.852 5.088-4.238 5.624-2.915.918-5.597.535-6.574.229-4.024-.826-5.135-4.247-5.188-5.854V20z" fill="#fff"/></svg>