<!-- by TradingView --><svg xmlns="http://www.w3.org/2000/svg" width="56" height="56"><path fill="#F0F3FA" d="M0 0h56v56H0z"/><path d="M15 21h-1v11h1v-7h2v-1h-2v-3zm-2 1h-1v1h1v-1zm-8 3a1 1 0 011-1h5v1H6.5a.5.5 0 00-.5.5v5c0 .28.22.5.5.5H11v1H6a1 1 0 01-1-1v-6zm24 0a1 1 0 011-1h5v1h-4.5a.5.5 0 00-.5.5v5c0 .28.22.5.5.5H35v1h-5a1 1 0 01-1-1v-6zm17-1a1 1 0 00-1 1v6a1 1 0 001 1h5v-1h-4.5a.5.5 0 01-.5-.5v-5c0-.28.22-.5.5-.5H51v-1h-5zm-33 0h-1v8h1v-8zm30 0h1v8h-1v-8zm0-2h1v1h-1v-1zm-24 2h-1v7a1 1 0 001 1h4v1.5a.5.5 0 01-.5.5H18v1h5a1 1 0 001-1V24h-1v7h-3.5a.5.5 0 01-.5-.5V24zm17-3h1v3h4a1 1 0 011 1v7h-1v-6.5a.5.5 0 00-.5-.5H37v7h-1V21z"/></svg>