<!-- by TradingView --><svg width="56" height="56" xmlns="http://www.w3.org/2000/svg"><path fill="#0C2459" d="M0 0h56v56H0z"/><path d="M5.702 30.496c-.536-.284-.946-.725-1.26-1.261A3.757 3.757 0 014 27.47c0-.6.158-1.23.441-1.734.284-.536.725-.945 1.261-1.26a3.763 3.763 0 011.828-.473c.757-.032 1.482.22 2.112.63l-.693 1.072c-.41-.315-.883-.505-1.419-.505-.41 0-.82.095-1.166.316-.315.189-.599.504-.756.85-.19.347-.284.757-.253 1.167 0 .41.095.788.252 1.134a2.145 2.145 0 001.923 1.167 2.36 2.36 0 001.419-.505l.693 1.01A3.644 3.644 0 017.53 31a4.185 4.185 0 01-1.828-.504zM12.324 25.072v1.925h2.802v1.009h-2.802v1.922H16V31h-5v-7h5v1.072h-3.676zM19.47 28.132h-.41V31h-1.292v-7h2.364c.378 0 .788.063 1.135.22.346.158.63.379.85.694.468.667.473 1.863-.125 2.461-.316.315-.725.568-1.166.662L23 31h-1.576l-1.954-2.868zM19.06 27H20c.41 0 .542-.032.762-.19.221-.157.347-.54.316-.793 0-.283-.095-.567-.316-.725-.22-.189-.535-.252-.945-.252h-.725L19.06 27zM25.292 31H24v-7h1.292v7zM30.832 24.41c.504.252.946.662 1.23 1.166.283.504.44 1.326.409 1.925 0 .6-.126 1.198-.41 1.702C31.38 30.415 30.303 31 28.91 31H27v-7h1.91a3.723 3.723 0 011.922.41zm-.315 4.888c.41-.378.63-1.103.63-1.828 0-.694-.22-1.453-.63-1.862-.41-.379-1.009-.6-1.765-.6h-.46v4.857h.46c.788.032 1.355-.157 1.765-.567zM35.292 31H34v-7h1.292v7zM41.611 29.298h-2.679L38.396 31h-1.418l2.616-7h1.324l2.805 7h-1.418l-.694-1.702zm-.378-1.009l-.977-2.742-.977 2.742h1.954zM51 24v7h-1.198l-3.541-4.76V31H45v-7h1.198l3.51 4.762V24H51z" fill="#fff"/></svg>