<!-- by TradingView --><svg xmlns="http://www.w3.org/2000/svg" width="56" height="56"><path fill="#F0F3FA" d="M0 0h56v56H0z"/><path d="M21.86 40.18h.34v3.14h-.34V44h1.5v-.68h-.33v-3.14h.32v-.68h-1.5v.68zm7.14 0h.33v3.14H29V44h1.48v-.68h-.33v-3.14h.33v-.68H29v.68zM26.53 32v1H27v4h-.47v1h3.72v-1.73h-.61l-.35.73H28v-1.5h1.64v-1.06H28V33h1.3l.34.69h.6V32h-3.71zm-6.4 7.5h-.05l-1.5 3.2-1.5-3.2H16v.68h.35v3c0 .07-.06.12-.13.12h-.2v.7h1.2v-.7h-.18a.13.13 0 01-.13-.13V40.9l1.47 3.1h.18l1.5-3.1v2.42h-.31V44h1.48v-.68h-.35v-3.14h.35v-.68h-1.1zm7.01.7h.22c.07 0 .13.05.13.13v2.28l-2.55-3.11h-.87v.67h.33v2.99c0 .07-.06.13-.13.13h-.2V44h1.2v-.71h-.2a.13.13 0 01-.13-.13v-2.33L27.5 44h.54v-3.67c0-.08.06-.14.13-.14h.13v-.69h-1.15v.7zm7.07 0h.22c.08 0 .13.05.13.13v2.28l-2.54-3.11h-.88v.67h.33v2.99c0 .07-.05.13-.13.13h-.2V44h1.2v-.71h-.2a.13.13 0 01-.12-.13v-2.33L34.56 44h.55v-3.67c0-.08.05-.14.13-.14h.12v-.69h-1.15v.7zm7.42-3.2l-1.32-1.75s1.4-.2 1.4-1.58c0-1.37-1.03-1.67-2.23-1.67h-1.93v1H38v4h-.45v1h1.93v-1H39v-1.58L40.92 38H42v-1h-.37zM39 34.69V33h.48c.58 0 1.16.08 1.16.67 0 .73-.32 1.02-1.64 1.02zM35 33h.41c.1 0 .17.05.17.15v2.7S35.56 37 34.31 37C33.1 37 33 35.84 33 35.84V33h.47v-1h-2v1H32v2.84c0 .62.26 2.16 2.24 2.16 1.98 0 2.05-2.16 2.05-2.16v-2.7c0-.09.08-.14.17-.14h.35v-1H35v1zm-12-1a3 3 0 100 6 3 3 0 100-6zm0 5c-1.05 0-2-.74-2-2s.98-2 2-2 1.98.77 2 2c.02 1.23-.95 2-2 2zm-4.43-4.63A3.38 3.38 0 0017 32c-1.71 0-3 1.34-3 3s1.31 3 3 3c.88 0 1.74-.37 2.3-.93V36h-.56c-.34.59-1.03 1-1.74 1-1.08 0-2-.8-2-2 0-1.29.95-2 2-2 .56 0 1.13.22 1.5.61.13.14.22.39.22.39h.61v-1.88h-.61l-.15.25zm20.22 9.29v.58h.27l.13.13v.33c-.27.33-.66.53-1.1.53-.8 0-1.44-.68-1.44-1.52s.66-1.51 1.44-1.51c.42 0 .79.18 1.06.47.1.2.11.33.11.33h.65v-1.45h-.6l-.1.22a2.29 2.29 0 00-1.12-.27c-1.28 0-2.3 1-2.3 2.25A2.28 2.28 0 0038.1 44c.46 0 .9-.13 1.27-.37l.14.37h.5v-2.34H38.8z" fill="#444E69"/><path d="M42 20H14v10h28V20z" fill="#B2B2B4"/><path d="M25.35 13.9c2.1-.65 4.1-.96 5.93-.96 3.51 0 6.2 1.17 6.79 3.27.35 1.2-.03 2.5-.95 3.79h1.07a5.16 5.16 0 00.73-4.07C37.83 12.2 31.76 10.91 25.1 13c-4.72 1.48-8.26 4.2-9.59 7h1c1.36-2.4 4.66-4.78 8.85-6.1z" fill="#F68944"/><path d="M15.12 23.17c.73 2.3 3.71 3.56 7.67 3.56 1.88 0 4-.3 6.16-.92 4.37-1.27 7.7-3.48 9.24-5.81h-1.06c-1.56 2-4.6 3.9-8.44 5-6.11 1.73-11.8.8-12.72-2.11-.3-.9-.09-1.9.53-2.89h-1a4.07 4.07 0 00-.38 3.17z" fill="#444E69"/><path d="M13.02 22.71c-.94-3.07 3.28-7.06 9.38-8.9 2.1-.61 4.1-.9 5.93-.9 3.51 0 6.2 1.11 6.79 3.12.35 1.16-.03 2.73-.95 3.97h1.07c.82-1.3 1.09-3 .73-4.23-1.09-3.58-7.17-4.82-13.83-2.8-6.67 2.03-11.07 6.4-9.97 10A4 4 0 0014 25.5v-1.06c-.62-.48-.8-1.07-.98-1.72z" fill="#AA5155"/><path d="M26 25.76c4.37-1.33 7.7-3.3 9.23-5.76h-1.06c-1.56 2.1-4.6 3.75-8.43 4.9-4.78 1.45-9.56 1.18-11.74-.47v1.07c1.39.83 3.6 1.23 5.84 1.23 1.88 0 3.98-.32 6.16-.97z" fill="#444E69"/></svg>