<!-- by TradingView --><svg width="56" height="56" xmlns="http://www.w3.org/2000/svg"><path fill="#3C3C3C" d="M0 0h56v56H0z"/><path d="M4 32l48-12-1 5-47 7zM50.999 28L4 32l46 1 .999-5z" fill="#FFC32F"/><path d="M35.998 24.456l-3.803 1.556c0-.519-1.204-1.872-3.803-1.872-3.043 0-4.373 2.465-4.06 4.418.121 1.837 1.754 3.231 4.06 3.231 2.305 0 3.397-1.324 3.705-1.917l3.901 1.917C34.615 34.811 30.798 36 28.392 36c-1.953 0-6.176-.736-7.607-4.21-1.432-3.475-.5-6.37 0-7.334.691-1.444 3.18-4.355 7.607-4.444 4.425-.089 6.915 2.926 7.606 4.444z" fill="#B7B8BA"/><ellipse cx="28.41" cy="28.005" rx="4.393" ry="4.397" fill="#FFC32F"/></svg>