<!-- by TradingView --><svg width="56" height="56" xmlns="http://www.w3.org/2000/svg"><path fill="url(#paint0_linear)" d="M0 0h56v56H0z"/><path d="M10 38.052c0-2.162 1.767-3.914 3.946-3.914 2.18 0 3.947 1.752 3.947 3.914s-1.767 3.914-3.947 3.914S10 40.214 10 38.052z" fill="#83C331"/><path d="M10 28.483c0 2.162 1.766 3.915 3.947 3.915 2.18 0 3.946-1.753 3.946-3.915 0-2.16-1.766-3.914-3.946-3.914-2.181 0-3.947 1.753-3.947 3.914zM10 18.914c0 2.161 1.766 3.915 3.947 3.915 2.18 0 3.946-1.754 3.946-3.915 0-2.162-1.766-3.914-3.946-3.914C11.766 15 10 16.753 10 18.914z" fill="#fff"/><path d="M30.464 15c1.314 0 2.324.306 3.031.919.708.616 1.062 1.552 1.062 2.808 0 .658-.08 1.24-.237 1.749-.161.51-.406 1.107-.742 1.455a3.25 3.25 0 01-1.278.793c-.516.184-1.127.276-1.836.276h-2.923v-8h2.923zm.096 7.12c.127 0 .285-.005.476-.025a2.897 2.897 0 001.246-.433c.214-.133.4-.311.568-.539.156-.208.283-.609.387-.934l.027-.084c.105-.34.16-.751.16-1.235 0-.468-.053-.886-.15-1.256a2.33 2.33 0 00-.49-.94 2.152 2.152 0 00-.877-.594c-.358-.134-.8-.2-1.322-.2l-2.167-.01v6.26l2.142-.01zM36.311 15v3.905L40.173 15h1.276l-3.12 3.157L41.573 23H40.33l-2.675-4.13-1.343 1.217V23h-.877v-8h.877zm-12.548.837c.48 0 .895.135 1.245.4.349.264.573.664.677 1.194h.912a2.98 2.98 0 00-.327-1.052 2.535 2.535 0 00-1.48-1.221A3.255 3.255 0 0023.773 15c-.526 0-.992.105-1.399.31a2.926 2.926 0 00-1.018.844 3.8 3.8 0 00-.619 1.25c-.142.48-.213 1.163-.213 1.708 0 .545.067 1.053.198 1.531.131.474.328.886.59 1.234.266.352.593.623.99.824.398.2.863.299 1.394.299.877 0 1.569-.262 2.075-.786.506-.524.804-1.258.893-2.2h-.912a3.13 3.13 0 01-.172.86c-.099.264-.23.492-.4.685-.169.192-.372.342-.607.452-.232.106-.5.162-.8.162-.412 0-.762-.086-1.056-.252a2.116 2.116 0 01-.726-.677 3.01 3.01 0 01-.418-.996 5.23 5.23 0 01-.136-1.209c0-.393.046-.94.136-1.304.09-.363.229-.687.418-.969.19-.281.43-.509.719-.677.292-.168.64-.252 1.053-.252zm22.003 9.334h-.397V33h.397v-7.829zm-2.055 6.644h.024v.406c0 .11.006.213.026.306a.58.58 0 00.1.246c.048.068.12.124.214.164a.961.961 0 00.38.063c.114 0 .222-.012.327-.042v-.333c-.125.02-.224.033-.294.033-.09 0-.16-.02-.207-.057a.305.305 0 01-.106-.152.756.756 0 01-.04-.206 41.792 41.792 0 01-.001-.356V28.78a1.25 1.25 0 00-.447-.994c-.297-.252-.77-.378-1.42-.378-.651 0-1.15.145-1.505.44-.352.296-.543.737-.57 1.328h.397c.026-.48.192-.836.488-1.073.296-.233.687-.353 1.169-.353.274 0 .502.027.692.082.187.056.34.131.46.23a.894.894 0 01.263.332.98.98 0 01.084.404c0 .188-.01.344-.034.468a.516.516 0 01-.154.308.868.868 0 01-.373.187c-.164.045-.39.078-.675.097l-.619.054c-.217.019-.443.056-.677.105a2.09 2.09 0 00-.639.242 1.436 1.436 0 00-.477.47c-.127.196-.19.45-.19.763 0 .513.16.892.475 1.138.312.246.756.37 1.328.37.26 0 .496-.03.715-.094.215-.062.409-.148.58-.259.171-.112.315-.238.435-.381.122-.14.21-.293.271-.45zm-.422-1.738c.2-.04.347-.122.446-.238v.997c0 .07-.02.203-.058.4a1.757 1.757 0 01-.268.615c-.14.21-.342.398-.607.56-.268.164-.626.246-1.08.246-.44 0-.79-.096-1.038-.287-.25-.191-.379-.483-.379-.878 0-.25.05-.453.149-.608.096-.155.225-.28.383-.369.153-.091.33-.154.527-.194.196-.038.393-.067.588-.087l.67-.063c.246-.022.468-.051.666-.094zm-8.697-4.894h.388v3.48H35c.078-.206.187-.389.328-.543.139-.158.3-.288.483-.396.181-.107.376-.187.587-.239.212-.052.427-.077.652-.077.398 0 .743.07 1.034.206.292.14.535.33.731.571.197.242.34.527.437.849.094.32.14.672.14 1.045 0 .636-.086 1.148-.262 1.533-.175.386-.386.677-.631.886a1.896 1.896 0 01-.768.402c-.266.069-.492.1-.681.1-.358 0-.66-.056-.91-.166a2.21 2.21 0 01-.614-.39A1.962 1.962 0 0135 31.68h-.02L35 33h-.408v-7.817zm2.459 7.474c.356 0 .658-.075.905-.23.244-.15.442-.352.597-.597.155-.246.267-.523.336-.832.07-.306.106-.615.106-.92 0-.3-.04-.585-.121-.861a2.217 2.217 0 00-.369-.744 1.832 1.832 0 00-.609-.523 1.695 1.695 0 00-.846-.2c-.35 0-.655.057-.913.176a1.689 1.689 0 00-.64.49c-.17.209-.295.453-.38.737a3.237 3.237 0 00-.126.926c0 .324.037.646.116.954.078.312.197.59.362.828.164.239.376.43.635.577.259.145.574.219.947.219zm-7.726-3.53a3.515 3.515 0 00-.162 1.075c0 .383.055.741.162 1.08.11.34.269.638.479.89.21.254.469.454.775.603.305.15.66.225 1.059.225.4 0 .75-.076 1.057-.225.307-.149.567-.35.777-.603.21-.252.365-.55.476-.89.11-.339.164-.697.164-1.08 0-.381-.055-.738-.164-1.075a2.672 2.672 0 00-.476-.887c-.21-.259-.47-.46-.777-.61a2.394 2.394 0 00-1.057-.222c-.399 0-.754.073-1.059.221-.306.15-.566.352-.775.61-.21.256-.37.552-.479.888zm.374 1.997a3.065 3.065 0 01-.136-.922c0-.318.043-.624.136-.919.09-.293.222-.557.397-.786.177-.229.392-.41.652-.546a1.89 1.89 0 01.89-.201c.335 0 .632.066.89.201.26.135.475.317.652.546.174.23.306.493.398.786.09.295.134.6.134.919 0 .32-.044.625-.134.921a2.535 2.535 0 01-.398.784c-.177.228-.392.41-.651.546a1.893 1.893 0 01-.89.204 1.887 1.887 0 01-1.543-.75 2.47 2.47 0 01-.397-.784zm-1.126-5.953h-.398V33h.398v-7.829zm-7.81 2.427c-.158.475-.239.976-.239 1.502 0 .535.079 1.035.231 1.502.156.469.382.876.683 1.223.299.347.668.62 1.106.82.437.201.938.301 1.503.301.33 0 .645-.041.95-.125.303-.082.579-.198.826-.346.25-.15.463-.335.646-.551.18-.22.314-.465.408-.733h.022V33h.4v-3.869h-3.157v.397h2.757c.02.456-.033.87-.159 1.24-.125.37-.31.687-.558.953-.25.262-.55.466-.908.612-.354.145-.758.22-1.205.22-.518 0-.966-.092-1.353-.278a2.767 2.767 0 01-.959-.742 3.241 3.241 0 01-.576-1.097 4.539 4.539 0 01-.192-1.337c0-.462.063-.909.196-1.334.134-.426.33-.805.588-1.128a2.88 2.88 0 01.964-.78c.384-.193.829-.29 1.331-.29.69 0 1.265.184 1.72.55.452.367.768.877.94 1.528h.444a2.783 2.783 0 00-.38-1.039 2.897 2.897 0 00-.695-.78 3.047 3.047 0 00-.938-.49 3.62 3.62 0 00-1.1-.165c-.566 0-1.068.107-1.504.317a3.267 3.267 0 00-1.105.857c-.301.361-.531.78-.686 1.253z" fill="#fff"/><defs><linearGradient id="paint0_linear" x1="10.418" y1="9.712" x2="68.147" y2="76.017" gradientUnits="userSpaceOnUse"><stop stop-color="#1A1E21"/><stop offset="1" stop-color="#06060A"/></linearGradient></defs></svg>