<!-- by TradingView --><svg xmlns="http://www.w3.org/2000/svg" width="56" height="56"><path fill="url(#aqtfnhnhj)" d="M0 0h56v56H0z"/><path d="M24.47 41.86c.55-.6 1.2-1.26 1.59-1.57a8.24 8.24 0 01-.47-.06c-.4.36-.92.9-1.38 1.39a48.36 48.36 0 00-1.07 1.18s0 .02-.02.02l-1.46.4c-.64.18-1.22.13-1.22.55 0 0-.66.35-.5.88 0 0 1.33-1.06 2.46-1.23 0 0-.7.45-.63 1.06 0 0 .94-1.4 2.03-.55 0 0-.49-.66-.28-1.02l.95-1.05zm-2.1-16.46a.5.5 0 01-.64-.27l-.02-.05-.14.04c.12.35.48.55.81.43a.59.59 0 00.22-.13.67.67 0 00.16-.7l-.33.1a.4.4 0 01.03.17.32.32 0 01-.02.13l.15.1a.53.53 0 01-.1.1.4.4 0 01-.13.08zm13.4-1.06l-6.55 1.58L42 20.42l-10.53 1.29 5.64-4.1-6.04 2.35.91-1.82-4.32 3.1-.04-.07L33.75 8l-9.96 11.72-.06-6.39-3.66 8.54-.19-2.51-1.8 6.55s.25-.18.58-.28l.07-.02h.01l.08-.02h.01a.76.76 0 01.09-.01l.08-.01h.02a.44.44 0 01.1 0h.07a.59.59 0 01.11.03l.09.03c.61.22 1.14 0 1.14 0s.58.37.58.68-.77.04-.77-.3c0 0-.97-.34-2.34.16l2.88 1.23s-.15-.54.01-.73c.06-.06.15-.08.3-.03.04.01.08.01.1-.01.23-.23-.86-2.23-.86-2.23s-.97-.1-1.82.79l-.16.19c.08-.15.36-.59.81-.96a2.79 2.79 0 011.03-.55c.1-.27-.03-.1.2-.23a8.15 8.15 0 012.18-4.38s-.36.67-.36 1.13c.01-.02.36-.54.85-1.01s0 0-.02.01c-.09.2-.74 1.6-.68 2v.01l1.34-1.21c-.05.06-1.26 1.68-1.38 2.24L24.44 21c0 .02-.26.36-.36.55a.59.59 0 00-.08.2l1.08-.46-.12.14-.4.4-.1.11-.74.74-.01.02-.56.56-.36.36s-.29.3-.33.46c-.03.16.13.25.13.25.15.09.27.22.34.37.04.1.06.2.06.3a.75.75 0 01-.23.54.81.81 0 01-.57.23.81.81 0 01-.52-.19c.02.04.42.53 1.15.15l.9-.66.04-.03.93-.67c.22.25.43.56.61.92a65.45 65.45 0 00-2.43 2.42c-.56.58-1.12 1.2-1.6 1.8l.33-1.57.03-.13h-.01l-.01.01-.02.02-.02.01-.01.01-.02.01-.01.01-.02.02-.01.01-.02.02-.02.01-.02.02-.02.01-.02.03-.02.02-.03.02-.02.02a.13.13 0 01-.03.03.1.1 0 00-.02.01.22.22 0 01-.02.02.62.62 0 00-.05.06l-.03.03-.03.03-.02.02-.01.01-.01.01a.92.92 0 00-.02.02l-.03.03-.01.02a.08.08 0 01-.02.02.2.2 0 01-.04.04l-.02.03-.04.04-.03.04-.04.04-.03.04c0 .02-.02.03-.04.05l-.03.03c0 .02-.02.04-.04.06l-.02.03-.06.07-.02.03-.07.1-.07.1a.34.34 0 01-.02.04l-.06.08-.02.04-.05.08-.03.04-.05.08-.02.05-.05.08a.82.82 0 00-.03.05l-.05.08-.02.05-.22.43-.37.06c.07-.19.14-.36.22-.52l-.6.85.6-.06a12 12 0 00-.9 4.92l.5-.3a5.25 5.25 0 002.47 3.53v-.02a9.7 9.7 0 003.99 1.45l.41.04h.08c.82.08 1.6.05 2.36-.06a1.23 1.23 0 000 .09c0 .48.27.88.62.92-.71 1.2-1.29 2.8-1.29 2.8-.03.08-.08.21-.14.25-.18.04-.2.05-.38.11-.07-.06-.63-.17-1.2.05-.32.14-.64.4-.85.83.23-.19.66-.5 1.02-.45-.42.24-1.15.69-1.23 1.34 0 0 2.51-1.75 3.75-1.43 0 0-.18.2.24.96l.2-.7c.22-.68-.64-.78-1-.8s.04-.12.11-.3c.22-.54.71-1.75 1.26-2.62a.3.3 0 00.02-.05l-.1-.14.1-.14c.08-.11.18-.3.18-.56 0-.2-.05-.45-.19-.76l.32-.15.05.12.02.04.03.07.01.04.03.08v.03l1.84-.55-.4-.33-.02-.02h-.01l-6.95-6.3c1.93.93 4.18 2.02 8 3.78 3.78 1.73 6.17 2.73 7.4 3.23l.03.02.46.18.52.2.07-.02-14.05-9.58 8.68-5.96zm-9.73 2.95l-2.1 1.58 1.51-3.29a9 9 0 01.6 1.7zm7.48 11.33l.05.25 2.45 1.44.62.35-.34-.86c2.02.59 3.66.62 4.75.11-1.9.56-6.62-1.02-7.53-1.29z" fill="#EF2C33"/><defs><linearGradient id="aqtfnhnhj" x1="10.42" y1="9.71" x2="68.15" y2="76.02" gradientUnits="userSpaceOnUse"><stop stop-color="#1A1E21"/><stop offset="1" stop-color="#06060A"/></linearGradient></defs></svg>