<!-- by TradingView --><svg xmlns="http://www.w3.org/2000/svg" width="56" height="56"><path fill="#F0F3FA" d="M0 0h56v56H0z"/><path d="M45.22 24.7c-11.85.34-23.32 3.13-24.38 7.1-.1.35-.12.71-.12 1.07 0 3.9 7.83 5.24 16.32 6.34.15.02.14-.1.1-.19l-.26-.45c-.03-.07-.07-.1-.18-.14-4.65-1.23-9.36-3.03-9.36-4.7 0-3.17 7.9-6.3 16.9-7.73.29-.06.43-.12.63-.29l1.03-.86c.15-.13.1-.17.04-.17-.24 0-.48 0-.72.02z" fill="#1B1D80"/><path d="M32.11 43.8c-6.15-1.6-12.25-6.97-11.3-11.94 1.41-7.26 10.8-14.3 22.52-17.6.26-.08.36-.26.02-.26H27.36c-2.77 0-3.37.37-4.44 1.88-.57.8-5.36 7.3-7.52 10.38-.28.37-.67.74-1.54.74H10c4.58 13.43 9.49 17 14.4 17h7.77c.11 0 .22-.12-.06-.2z" fill="#DF0314"/></svg>