<!-- by TradingView --><svg xmlns="http://www.w3.org/2000/svg" width="56" height="56"><path fill="#F0F3FA" d="M0 0h56v56H0z"/><path d="M9.46 20c.88 0 1.86.18 2.24.27v1.98a8.12 8.12 0 00-1.95-.3c-1.64.02-2.5.99-2.71 1.47-1.94.74-2.74 1.95-2.9 2.47A8.1 8.1 0 014 24.54C4.2 20.34 8.37 20 9.46 20zm6.02 2l-.42.82 3.46.24-.4-1.06h-2.64zm6.33 0l-.15 1.4 3.44.37c-.1-.23-.32-.9-.46-1.77H21.8zm8.01 2.3l.1-2.3h-2.88c-.15.53-.5 1.49-.65 1.9l3.43.4zm6.06-2.3h-4.57v2.51l5.3.6c.66-.35.82-1.13.8-1.47 0-1.27-1.02-1.62-1.53-1.64zm-2.58 2.63l.08-1.29h1.25c.22 0 .65.13.66.65 0 .46-.43.64-.66.64H33.3zM44.6 22h-5.74l-.1 3.41 5.06.62.11-1.36H41v-1.18h3.53L44.6 22zm1.16 0h4.1c.71-.02 2.14.4 2.14 1.79 0 1.46-1.1 1.98-1.65 2.06l.47 1-2.18-.26-.61-1.53h.93c.36 0 .9-.27.9-.89 0-.5-.6-.73-.9-.71h-1.18l-.13 3.01-1.98-.28.1-4.19z" fill="#339B47"/><path fill-rule="evenodd" d="M14.9 23.18L11.75 29h2.44l.9-1.93h2.56l.7 1.93h2.34l-2.12-5.53-3.69-.29zm1.73.54l-.9 1.88h1.55l-.65-1.88zm-5.1 3l-.32 2.03c-.32.08-1.2.24-2.13.25-1.16.02-4.15-.36-4.82-2.53.08-.52.68-1.75 2.52-2.6-.25 1.09-.12 3.25 2.48 3.23.45.01 1.53-.1 2.27-.38zM21.6 23.8l-.49 5.2h1.82l.3-4.7 1.18 4.7h1.88l1.51-4.52-1.6-.18-.66 2.03-.5-2.2-3.44-.33zm6.34.71L27.8 29h1.9l.08-4.27-1.82-.22zm3.32.36L30.98 29h4.5c.57 0 1.95-.44 1.95-1.9 0-1.38-1.32-1.63-2.28-1.76l-3.88-.47zm1.94 1.34l-.09 1.4h1.45c.25 0 .73-.2.72-.7-.01-.56-.48-.7-.72-.7H33.2zm5.48-.3L38.52 29h5.66l.12-1.51h-3.51v-1.12h1.8l-3.9-.46zM45.4 29l.18-2.33 2 .27-.1 2.06H45.4zm3.3-1.96l2.17.27.87 1.69h-2.4l-.64-1.96z" fill="#293492"/><path d="M42.19 29.79c.9.02 1.74.2 2.05.29v1.4a6.08 6.08 0 00-1.83-.36c-.98-.03-2.35.56-2.32 2.06.02 1.5 1.32 1.58 1.68 1.57.3 0 .63-.1.76-.14l.08-.96h-.84l.1-1.26h2.59l-.22 3.36c-.32.13-1.31.25-1.71.25h-1.36c-1.05 0-3.11-.58-3.01-2.95.12-2.96 2.9-3.3 4.03-3.26zM16.82 30h-5.16l-.35 6h5.24l.07-1.27h-3.2l.06-1.07h2.66l.12-1.38h-2.7l.08-1.02h3.07l.1-1.26zm13.97 0h-5.16l-.35 6h5.24l.07-1.27h-3.2l.06-1.07h2.66l.12-1.38h-2.7l.08-1.02h3.07l.1-1.26zm-13.21 6l.3-6h2.38l2.26 3.81.1-3.81h1.9l-.34 6h-2.34l-2.3-3.8-.17 3.8h-1.8zm14.29-6l-.25 6h1.94l.16-4.73h1.23c.22.03.66.18.67.63.02.55-.53.72-.9.75h-.77L35.18 36h2.13l-1.24-2.56c.49-.16 1.47-.73 1.47-1.8 0-1.33-1.2-1.64-2.05-1.64h-3.62zm13.2 0l2.1 3.58L47 36h2.1v-2.3l2.7-3.7h-2.22l-1.3 2.05-1-2.05h-2.22z" fill="#293492"/></svg>