<!-- by TradingView --><svg xmlns="http://www.w3.org/2000/svg" width="56" height="56"><path fill="#146CB6" d="M0 0h56v56H0z"/><path fill-rule="evenodd" d="M37.5 16.4A14.94 14.94 0 0028 13a14.94 14.94 0 00-9.28 3.22 3.17 3.17 0 012.28.38l.33.17c.65.29.7-.07.61-.21-.43-.1-1.3-.38-1.3-.68 0-.3.23-.34.62-.42l.4-.08c.5-.13.89.2 1.01.39.74-.1.76.11.68.23-.42.26-1.1.77-.5.77.77 0 1.3-.41 1.36-.6l.04-.15c.06-.21.13-.48.37-.48.3 0 .36.3.25.62-.08.26.2.37.36.4 0-.22.15-.93 1.5-1.02a1.7 1.7 0 011.81 1.23c0 .14-.16.4-.84.73-.68.34-1.32-.21-.97-.34.36-.12.67-.73 0-.8-.66-.07-1.5.71-1.5.93 0 .21-.46.41-.6.21a.6.6 0 00-.42-.21c-.47 0-1 .4-1.21.59-.3.29-.73.87 0 .93.72.06 1 .6 1.06.86a9.7 9.7 0 001.17-1.13c-.01-.09-.01-.8.74-.84.6-.03.89.45.96.7.52-.19.73.08.77.23.18.13.54.48.57.9.03.4-.44.54-.68.55h-1.62c-.08.3-.5 1.09-1.47 1.57a3.16 3.16 0 00-1.38 1.56 2.25 2.25 0 00-.45.12c-.51.34-.82 1.23-.92 1.63-.2-.4-.78-1.13-1.6-1-1 .19-1.99.81-1.9 1.86.07.83.87.7 1.26.52.38-.38 1.08-.96.86-.24-.22.7.34 1.03.65 1.1v.7c.12.35.76.48 1.07.5.37-.38 1.1-.8 1.97-.5.69.25 1.37.44 1.63.5.61.37 1.24.79 1.47.95.1 1.43 1.64 1.56 2.4 1.45.95.52.61 1.53.37 1.8-.22.26-.22.78-.22 1.48v.25c0 .66-1.13.95-1.69 1.01.03 2.26-1.55 3.1-2.33 3.23v1.29l.43.18.15.92c.23.37.5 1.02-.34.68a3.62 3.62 0 01-1.63-1.6c.01-.53-.02-1.68-.24-2a6 6 0 01-.4-1.96l-.15-2.24a5.58 5.58 0 01-2.04-2l-.02-.03c-.52-.71-.22-1.32 0-1.54.22-.21.67-.73.64-1.1-.02-.37-.97-.67-1.44-.77-.5-.5-1.31-1-1.66-1.2-.56.12-1.8.02-2.21-1.38a4.6 4.6 0 00-.65-1.56c-.08-.12-.15-.22-.24-.47-.2-.54-.4-.33-.46-.15.33.65.9 1.95.46 1.87-.56-.1-.85-.73-.95-1.54a2.45 2.45 0 00-.86-1.42 1.69 1.69 0 010-.13A14.96 14.96 0 0013 28a15 15 0 0026.16 10.02c-.12-.1-.2-.33-.17-.76a1.8 1.8 0 00-.65-1.55 5.1 5.1 0 00-.15-1.5c-.48-.4-.2-.92 0-1.12.24-.54.01-1.09-.13-1.29a12.6 12.6 0 01-.7-1.14c-.13-.26.05-.6.15-.74 0-.48-.68-.83-1.47-.85a1.32 1.32 0 00-.72.17c-.22.11-.45.22-1 .2-1.03-.04-2.06-1.2-2.27-1.94-.18-.6.19-1.1.39-1.27a.58.58 0 01-.4-.52c-.01-.34.97-1.13 1.47-1.49-.23-.42.1-.96.28-1.18h1.34c.42-.16 1.37-.45 1.81-.3.52.16.92.56 1.2.84l.05.05c.28.28.98.5 1.3 0 .27-.4.58-.17.7 0a1.2 1.2 0 001.62.33c.39-1-.5-1.16-1-1.12-.09-.58-.34-1.57-.61-.9-.28.69-.59.58-.7.44-.05-.49-.32-1.51-.99-1.63-.66-.13-.58.32-.45.56.29.21.89.72.96 1.07.08.44-.4.86-.5.35-.12-.5-.6-1.37-1.58-1.42-.79-.03-1.24.82-1.38 1.25-.56.07-1.67.05-1.63-.61.03-.67.96-.85 1.42-.85-.27-.37-.11-.65 0-.75.9-.19 1.19-.63 1.22-.83 1.6-.22 1.24-.7.94-.65-.3.04-1.81-.7-.68-1.2.91-.4.83-1.02.68-1.27zM44 28a16 16 0 11-32 0 16 16 0 0132 0zm-22.52-8.57c0 .17-.16.3-.36.3-.2 0-.35-.13-.35-.3 0-.17.16-.3.35-.3.2 0 .36.13.36.3zm2.18 2.18c.14 0 .26-.1.26-.22s-.12-.22-.26-.22-.26.1-.26.22.12.22.26.22zm-3.3-4.6c0 .12-.22.22-.48.22s-.48-.1-.48-.22.22-.22.48-.22.47.1.47.22zm-.29.9c.17-.1.26-.25.2-.34-.05-.1-.23-.09-.4 0-.16.1-.25.26-.2.36.06.09.24.09.4-.01zm1.56 3.56c-.09-.46-.04-1.37.87-1.32.92.04-.2.9-.87 1.32zm.97.37c.01-.24.13-.73.48-.81.44-.1-.11.66-.48.81zm12.53-3.64c.3.35.89 1.12.91 1.4.04.35-.47.53-.9.27.05-.24.09-.72-.16-.77-.26-.06-.5.56-.58.87-.35.1-.93.11-.46-.65.48-.75 1-1.06 1.2-1.12zm4.12 1.21c.19-.2.25-.45.13-.56-.12-.1-.36-.03-.55.17-.19.2-.25.45-.13.56.12.1.36.03.55-.17zM28 20.81c.24 0 .42-.11.42-.25s-.18-.25-.42-.25c-.23 0-.42.1-.42.25s.19.25.42.25z" fill="#fff"/></svg>