<!-- by TradingView --><svg width="56" height="56" fill="none" xmlns="http://www.w3.org/2000/svg"><path fill="#11369B" d="M0 0h56v56H0z"/><path fill-rule="evenodd" clip-rule="evenodd" d="M9.421 32c.827 0 1.586-.295 2.18-.788L13 32.632A5.356 5.356 0 019.421 34C6.427 34 4 31.538 4 28.5S6.427 23 9.421 23a5.35 5.35 0 013.419 1.231l-1.243 1.552A3.405 3.405 0 009.42 25C7.516 25 6 26.567 6 28.5S7.516 32 9.421 32zM16 23h-2v11h7v-2h-5v-3h4.5v-2H16v-2h5v-2h-5zm6 0l6 6.081v-6.08h2v10.998l-6-6.157V34h-2V23zm21 0h2v7a2 2 0 104 0v-7h2v7a4 4 0 01-8 0v-7zm-5.364 8.811a3.5 3.5 0 111.63-1.167c-.73-1.156-1.448-1.86-2.217-2.248C36.262 28 35.537 28 35.042 28h-.038v2c.505 0 .806.011 1.144.182.343.173.842.578 1.488 1.63zm1.406 1.568a5.5 5.5 0 111.76-1.451c.286.046.668.072 1.202.072v2c-1.02 0-1.884-.075-2.622-.431a3.249 3.249 0 01-.34-.19z" fill="#fff"/></svg>