<!-- by TradingView --><svg width="56" height="56" xmlns="http://www.w3.org/2000/svg"><path fill="#F0F3FA" d="M0 0h56v56H0z"/><path d="M32.211 14.089c-1.742.954-3.316 1.926-3.5 2.144-.285.385-.285.536-.101 1.893.1.82.218 1.591.268 1.709.05.167.469.016 1.541-.553 5.629-3.016 7.723-4.088 8.225-4.188l.553-.117-1.307-1.324c-1.156-1.173-1.39-1.323-1.91-1.307-.418 0-1.524.52-3.769 1.743z" fill="#1F4FA3"/><path d="M17.892 18.337c-.044 1.987.01 3.836.107 4.105.19.439.322.514 1.589 1.033.76.324 1.487.607 1.613.622.17.04.25-.397.292-1.61.203-6.383.322-8.732.486-9.218l.175-.537-1.8.47c-1.593.414-1.84.542-2.086 1-.21.363-.313 1.58-.376 4.135zM42.395 24.32c-1.698-1.031-3.326-1.909-3.607-1.96-.476-.054-.607.022-1.69.86-.66.497-1.27.984-1.346 1.086-.12.127.22.415 1.25 1.058 5.425 3.367 7.401 4.645 7.74 5.03l.377.42.493-1.793c.438-1.588.451-1.866.177-2.308-.21-.362-1.212-1.06-3.394-2.393z" fill="#88C3EB"/><path d="M25.025 42.855c1.742-.955 3.317-1.926 3.501-2.144.285-.385.285-.536.1-1.893-.1-.82-.217-1.591-.267-1.709-.05-.167-.47-.017-1.541.553-5.63 3.015-7.723 4.087-8.226 4.188l-.552.117 1.306 1.324c1.156 1.172 1.39 1.323 1.91 1.306.419 0 1.524-.519 3.77-1.742z" fill="#86C4EB"/><path d="M38.66 15.965c-.904.352-9.263 5.026-9.347 5.21-.084.251.368 4.506.502 4.657.05.033.503-.134.989-.402.502-.268 2.83-1.491 5.176-2.714 5.445-2.831 6.751-3.535 6.902-3.669.05-.05-.502-.77-1.256-1.574-1.223-1.307-1.458-1.491-2.044-1.542-.369-.05-.787-.033-.921.034z" fill="#1F4FA3"/><path d="M22.742 13.69c-.147.96-.28 10.536-.162 10.7.176.199 4.087 1.934 4.285 1.894.054-.027.135-.502.146-1.057.019-.57.124-3.198.238-5.84.27-6.13.314-7.614.274-7.812-.019-.068-.92.05-1.992.301-1.743.406-2.02.517-2.357 1-.228.293-.423.665-.432.814zM43.995 30.844c-.757-.608-8.984-5.51-9.186-5.49-.26.053-3.718 2.572-3.782 2.763-.004.06.368.368.843.655.483.301 2.707 1.707 4.938 3.126 5.174 3.3 6.437 4.08 6.628 4.143.07.018.416-.82.736-1.875.52-1.713.562-2.008.313-2.54-.141-.345-.365-.7-.49-.782z" fill="#88C3EB"/><path d="M18.575 40.979c.905-.352 9.264-5.026 9.348-5.21.083-.251-.369-4.506-.503-4.657-.05-.034-.503.134-.988.402-.503.268-2.831 1.49-5.177 2.714-5.444 2.83-6.75 3.535-6.902 3.669-.05.05.503.77 1.257 1.574 1.223 1.307 1.457 1.491 2.044 1.541.368.05.787.034.92-.033z" fill="#86C4EB"/><path d="M12.712 22.867c-.52 1.91-.536 2.027-.285 2.563.319.637.067.469 5.579 3.803l4.221 2.546 1.927-1.541c1.692-1.357 1.893-1.575 1.641-1.742-.15-.118-1.256-.805-2.462-1.542-1.19-.737-3.887-2.412-5.997-3.702-2.094-1.307-3.87-2.379-3.937-2.379-.084 0-.385.905-.687 1.994zM11.79 26.234c-.468 1.407-.887 3.451-.77 3.752.201.52.503.754 3.434 2.48 3.485 2.077 3.72 2.178 4.155 2.044.335-.1 2.512-1.76 2.68-2.027.05-.084-1.407-1.039-3.25-2.145-4.841-2.915-5.595-3.417-5.897-3.92-.2-.335-.284-.368-.351-.184zM38.907 38.663c.045-1.987-.01-3.836-.106-4.105-.191-.439-.322-.514-1.589-1.033-.761-.324-1.487-.607-1.614-.622-.17-.04-.249.397-.292 1.61-.203 6.383-.321 8.733-.485 9.218l-.175.537 1.8-.47c1.593-.414 1.84-.542 2.086-1 .21-.363.312-1.58.376-4.136zM34.058 43.31c.148-.96.28-10.536.162-10.7-.176-.199-4.087-1.934-4.285-1.894-.054.027-.135.502-.146 1.057-.019.57-.124 3.198-.238 5.84-.27 6.13-.314 7.614-.273 7.812.018.068.918-.05 1.992-.301 1.743-.406 2.02-.517 2.356-1 .228-.294.423-.665.432-.814z" fill="#1F4FA3"/></svg>