<!-- by TradingView --><svg width="56" height="56" xmlns="http://www.w3.org/2000/svg"><path fill="#F0F3FA" d="M0 0h56v56H0z"/><path d="M16.247 38.623c-4.599-4.39-4.55-10.662-3.971-13.238 3.86 6.673 8.285 8.1 13.278 8.879 3.995.623 7.039-1.565 8.087-2.694.578 6.085-11.644 12.54-17.394 7.053z" fill="url(#paint0_linear)"/><path d="M41.977 37.4l-8.336-5.835c-.063.898-.383 2.89-1.958 4.462-4.107 4.102-10.431 3.348-15.794 2.184 1.452 1.863 6.309 5.909 13.078 5.786 6.77-.122 11.494-4.45 13.01-6.598z" fill="url(#paint1_linear)"/><path d="M25.483 33.26c-2.905-1.282-7.408-5.28-4.27-12.155 4.061-8.9 13.718-7.514 20.764-2.732l-8.311 6.01c-1.022-1.284-3.97-3.466-7.585-1.925-3.615 1.54-3.927 5.1-3.63 6.687.23 1.038 1.15 3.238 3.032 4.115z" fill="url(#paint2_linear)"/><path d="M31.973 12.225c4.622.647 8.611 4.394 10.028 6.186-3.722-2.584-8.476-3.728-10.456-3.781-2.685-.073-8.608 1.371-10.825 7.729-2.216 6.357 2.47 10.004 5.09 11.032-9.613-2.717-11.543-10.378-11.307-13.868 2.706-3.92 6.454-5.976 7.99-6.514 1.234-.53 4.859-1.43 9.48-.784z" fill="#009EDF"/><defs><linearGradient id="paint0_linear" x1="12.577" y1="25.82" x2="38.266" y2="28.814" gradientUnits="userSpaceOnUse"><stop offset=".223" stop-color="#00466F"/><stop offset="1" stop-color="#001A35"/></linearGradient><linearGradient id="paint1_linear" x1="39.467" y1="35.58" x2="16.177" y2="38.87" gradientUnits="userSpaceOnUse"><stop stop-color="#00466E"/><stop offset="1" stop-color="#00476F"/></linearGradient><linearGradient id="paint2_linear" x1="41.341" y1="18.144" x2="24.585" y2="33.011" gradientUnits="userSpaceOnUse"><stop stop-color="#009EDF"/><stop offset="1" stop-color="#0175B0"/></linearGradient></defs></svg>