<!-- by TradingView --><svg width="56" height="56" xmlns="http://www.w3.org/2000/svg"><path fill="#09456A" d="M0 0h56v56H0z"/><path d="M24.05 9.278c.584-.247 1.335-.33 2.087-.247.166 0 .334.082.5.082 1.92.412 3.173 2.225 2.756 4.202l-1.503 7.498-3.84-11.535zM16.869 12.41c.417-.495 1.002-.825 1.753-1.072.167-.082.334-.082.5-.082 1.921-.412 3.841.741 4.259 2.719l1.67 7.415-8.182-8.98zM11.526 18.177c.167-.577.584-1.154 1.169-1.648.167-.165.25-.247.417-.33 1.586-1.153 3.84-.824 5.01.742l4.675 6.097-11.271-4.861zM9.021 25.51c-.083-.66.084-1.319.418-1.978.083-.164.167-.247.25-.412 1.002-1.73 3.173-2.307 4.843-1.318l6.762 3.708H9.021zM9.773 33.255c-.334-.577-.501-1.236-.501-1.977v-.495c.167-1.977 1.92-3.378 3.924-3.213l7.681.741-11.104 4.944zM13.696 40.094c-.5-.33-.918-.907-1.252-1.648-.084-.165-.084-.33-.167-.494-.585-1.813.417-3.873 2.254-4.45l7.347-2.472-8.182 9.064zM20.042 44.708a5.038 5.038 0 01-1.837-.989l-.334-.33c-1.336-1.4-1.252-3.707.25-5.026l5.678-5.19-3.757 11.535zM27.806 46.356c-.584.165-1.335.082-2.087-.165-.167-.082-.334-.082-.417-.165-1.837-.741-2.672-2.884-1.837-4.614l3.09-7.003 1.252 11.947zM35.487 44.79c-.5.33-1.169.577-2.004.66h-.5c-2.004 0-3.59-1.566-3.59-3.544l-.084-7.662 6.178 10.546zM41.916 40.259a3.519 3.519 0 01-1.503 1.4c-.167.083-.25.165-.417.165a3.63 3.63 0 01-4.759-1.73l-3.256-6.921 9.935 7.086zM45.924 33.502a3.517 3.517 0 01-.835 1.895.647.647 0 01-.334.33c-1.336 1.483-3.59 1.565-5.093.33l-5.844-5.027 12.106 2.472zM46.842 25.757c.167.577.25 1.318 0 2.06 0 .165-.084.33-.167.412-.585 1.895-2.588 2.884-4.509 2.307l-7.43-2.307 12.106-2.472zM44.42 18.342c.418.494.752 1.07.919 1.895 0 .164.083.33.083.494.25 1.977-1.168 3.708-3.172 3.873l-7.681.906 9.852-7.168zM39.161 12.574c.584.247 1.169.659 1.586 1.318.084.165.167.247.25.412 1.003 1.648.418 3.873-1.252 4.861l-6.679 3.873 6.095-10.464zM31.98 9.36c.668 0 1.336.165 2.004.577.167.083.25.165.418.247 1.586 1.154 2.003 3.379.834 4.944l-4.508 6.262L31.98 9.36z" fill="#fff"/></svg>