<!-- by TradingView --><svg width="56" height="56" xmlns="http://www.w3.org/2000/svg"><path fill="url(#paint0_linear)" d="M0 0h56v56H0z"/><path d="M5.18 24.199c-.443.23-.934.774-1.076 1.193C4.047 25.559 4 26.47 4 27.485c0 2.06.085 2.406.718 2.982.538.492 1.001.575 3.77.533H11v-2H6.192C6.067 29 6 28.887 6 28.773V26.195c0-.148.105-.196.192-.196H10L11 24H8.242c-2.41 0-2.721.02-3.061.199zM13.073 24.214c-.453.23-.822.76-.967 1.178-.058.167-.106 1.078-.106 2.093 0 2.06.133 2.536.78 3.112.442.393.996.435 3.514.393 2.162-.031 2.606-.142 3.031-.393.425-.251.675-.6.675-1.072v-1.79c0-1.835.045-2.492-.428-3.078-.58-.712-.856-.657-3.567-.657-2.143 0-2.584.036-2.932.214zm4.802 1.782c.066 0 .125.032.125.135v2.764c0 .105-.125.105-.125.105h-3.772c-.01-.005-.103-.026-.103-.105V26.13c0-.101.103-.135.103-.135h3.772zM20.999 27.495V31H27v-2h-4v-5h-2.001v3.495zM28 27.463V31h2v-2h4v-2.001L32.132 27 30 26.999V26h4.997v-2H28v3.463zM37.037 24.26c-.445.24-.832.795-.958 1.443-.058.324-.087 1.505-.077 2.894L36.03 31H37.996L38 28.336v-2.18c0-.121.051-.156.204-.156h3.676c.082 0 .12.036.12.122V27h-3l1 2h2v2h2v-2.57c0-2.81-.048-3.145-.512-3.761-.492-.491-.6-.669-3.488-.669-2.222 0-2.683.114-2.963.26zM45 24a114.395 114.395 0 002.553 3.464s.922-1.454.95-1.464l1.014 1.464-1.014 1.531-.95-1.531L45 31h2l1.503-2.005L50 31h2l-2.483-3.536s.519-.825 1.186-1.722C51.36 24.845 52 24 52 24h-2l-1.497 2L47 24h-2z" fill="#fff"/><path d="M47.555 27.464l.945-1.483 1.02 1.483-1.019 1.542-.946-1.542z" fill="#00B4E5"/><defs><linearGradient id="paint0_linear" x1="10.418" y1="9.712" x2="68.147" y2="76.017" gradientUnits="userSpaceOnUse"><stop stop-color="#1A1E21"/><stop offset="1" stop-color="#06060A"/></linearGradient></defs></svg>