<!-- by TradingView --><svg width="56" height="56" xmlns="http://www.w3.org/2000/svg"><path fill="#02798E" d="M0 0h56v56H0z"/><path d="M8.182 23C5.81 23.316 4 25.46 4 27.987c0 2.548 1.848 4.721 4.22 5.017H14V29h3v4.004h2V22.999l-2 .002v4.003h-3V23h-2.003v8H8.805c-1.294 0-2.802-1.643-2.802-3.013 0-1.37 1.508-2.976 2.802-2.976L11.002 25v-2h-2.82zm17.817 0v8H22v-6h3v-2h-4.994v10.004H28V29l2 4.003 2-.001L34.001 29v4.004L36 33.003V22.999h-1.999L31 30l-3-7h-2zm21.817 0c2.371.316 4.182 2.472 4.182 5 0 2.548-1.849 4.708-4.22 5.004h-1.774V31h1.189C48.487 31 50 29.603 50 28c0-1.741-1.513-3-2.807-3H45v8.004h-8V23.001h5v2.001L39 25v6h4v-8h4.816zM40 29h2v-2h-2v2zm-17 0h2v-1.995h-2V29z" fill="#F6F8FD"/></svg>