<!-- by TradingView --><svg width="56" height="56" xmlns="http://www.w3.org/2000/svg"><path fill="#EB7100" d="M0 0h56v56H0z"/><path d="M11.707 28.442c-.616.102-.885.93-1.328 1.36-.466.515-1.383.515-1.952.195-1.1-.685-1.13-2.053-1.115-3.329 0-1.106.443-2.264 1.336-2.754 1.21-.549 2 .701 2.751 1.47.751.287 1.747.363 2.427-.22.221-.48.055-1.09-.15-1.512-.332-.802-1.099-1.706-1.826-2.018-1.518-.845-3.684-.845-5.21 0-1.154.667-2.095 2.018-2.395 3.362-.554 2.365-.206 4.984 1.423 6.665 1.55 1.546 4.15 1.647 6.032.844 1.185-.625 2.229-2.002 2.3-3.48-.316-.988-1.51-.532-2.293-.583zM23.1 25.004c-1.071-1.199-2.586-1.24-4.083-.511-1.256-.344-.527-2.106-1.08-3.013-.685-.635-2.38-.678-2.933.176v8.563s0 2.174.536 2.564c.729.326 2.013.27 2.388-.141.375-.412-.062-3.132.132-4.612.349-.904.782-1.03 1.427-1.03 1.168 0 1.495.887 1.495 3.644.017.82-.058 1.619.336 2.2.167.248 1.22.203 1.879.08.404-.123.76-.501.803-.924 0 0 .37-4.684-.9-6.996zM26.662 24.919c-1.406 1.078-1.834 2.826-1.603 4.635.266 1.418 1.32 2.853 2.666 3.192 1.938.487 4.346.409 5.572-1.452.163-.34.12-.826-.265-1.044-1.009-.696-2.006.157-2.898.54-.557.208-1.191.043-1.534-.48-.189-.373 0-.843.36-.973 1.663-.479 3.437.878 4.843-.357.497-1.122-.043-2.278-.566-3.183-1.534-2.078-4.68-2.33-6.575-.878zm3.704 2.287c-.163.389-1.151.538-1.536.14-.233-.24-.213-.54-.093-.783.36-.479 1.346-.455 1.603-.044.142.228.129.44.026.687zM43 24.477c-.718-.533-2.054-.238-2.773 0-1.226-.46-3.038-.902-4.1.278-.906.91-1.187 2.172-1.117 3.556.016.87.281 1.697.781 2.352.274.369.617.705 1.031.942.813.631 1.843.164 2.734.041.312.058.545.449.422.974-.081.348-.508.623-1.09.509-1.23-.639-2.624-.71-2.863-.16-.178.407-.144.785.157 1.127 1.437 1.221 4.151.967 5.186.484 1.034-.483 1.547-1.371 1.632-2.58v-7.523zm-3.386 4.894c-.344.205-.917.15-1.261-.04-.312-.384-.55-.772-.534-1.364.013-.521.103-1.058.534-1.352.442-.3.987-.317 1.416 0 .43.32.54.817.52 1.352-.021.612-.238 1.117-.675 1.404zM52 24.478c-.718-.534-2.054-.238-2.773 0-1.226-.46-3.038-.903-4.1.279-.906.91-1.187 2.175-1.117 3.562.016.87.281 1.7.781 2.356.274.37.617.706 1.031.944.813.632 1.843.164 2.734.041.312.058.545.45.422.975-.081.35-.508.625-1.09.51-1.23-.64-2.624-.711-2.863-.16-.178.408-.144.787.157 1.13 1.437 1.223 4.151.968 5.186.484 1.034-.484 1.547-1.374 1.632-2.585v-7.536zm-3.386 4.903c-.344.205-.917.15-1.261-.04-.312-.385-.55-.774-.534-1.367.013-.522.103-1.06.534-1.354.442-.3.987-.318 1.416 0 .43.32.54.818.52 1.354-.021.613-.238 1.12-.675 1.407z" fill="#F6F8FD"/></svg>