<!-- by TradingView --><svg xmlns="http://www.w3.org/2000/svg" width="56" height="56"><path fill="#F0F3FA" d="M0 0h56v56H0z"/><path d="M48 20c-1.58 2.5-11.24 7.06-11.24 7.06s-3.34 1.59-4.94 2.05c-2.92.9-6.08.82-8.32-.69 4.49-.2 8.1-1.36 12.81-3.41C41.03 22.96 48 20 48 20zm-2.25 6.37s-7.68 5.47-12.36 7.29c-4.23 1.65-7.4.16-10.27-2.96a132.31 132.31 0 01-3.44-3.94c-1.15-1.36-2.3-2.72-3.51-4.03-2.25-2.43-5.62-3.4-8.17-.68 1.8-.37 3.75 1.21 4.5 2.05 0 0 3.36 3.87 5.39 6.37 3.13 3.88 7.2 8.59 12.58 7.32 2.48-.59 6.1-2.8 9.21-5.14 2.38-1.77 4.82-3.65 6.07-6.28zm-11.9 5.7c-3.6 1.63-6.9.3-7.65-.46 3.29.12 7.6-1.74 11.69-3.64a88.71 88.71 0 009.43-5.24c-1.44 2.72-5.34 4.92-8.25 6.57l-.73.41a59.42 59.42 0 01-4.5 2.35z" fill="#B89F63"/></svg>