<!-- by TradingView --><svg xmlns="http://www.w3.org/2000/svg" width="56" height="56"><path fill="#F0F3FA" d="M0 0h56v56H0z"/><path fill-rule="evenodd" d="M13 23.5a.5.5 0 011 0v1.77a2 2 0 011-.27h3a2 2 0 012 2v5.5a.5.5 0 01-1 0V27a1 1 0 00-1-1h-3a1 1 0 00-1 1v5.5a.5.5 0 01-1 0v-9zM6 26h3.5a1 1 0 01.88.52c.13.24.34.48.62.48.28 0 .5-.23.44-.5A2 2 0 009.5 25H6a2 2 0 00-2 2v4c0 1.1.9 2 2 2h3.5a2 2 0 001.94-1.5c.07-.27-.16-.5-.44-.5s-.49.24-.62.48a1 1 0 01-.88.52H6a1 1 0 01-1-1v-4a1 1 0 011-1zm22 0h3.5a1 1 0 01.88.52c.13.24.34.48.62.48.28 0 .5-.23.44-.5A2 2 0 0031.5 25H28a2 2 0 00-2 2v4c0 1.1.9 2 2 2h3.5a2 2 0 001.94-1.5c.07-.27-.16-.5-.44-.5s-.49.24-.62.48a1 1 0 01-.88.52H28a1 1 0 01-1-1v-4a1 1 0 011-1zm-4.5-1.5a.75.75 0 100-1.5.75.75 0 000 1.5zm0 1.5a.5.5 0 00-.5.5v6a.5.5 0 001 0v-6a.5.5 0 00-.5-.5zM37 26h4a1 1 0 011 1v4a1 1 0 01-1 1h-4a1 1 0 01-1-1v-4a1 1 0 011-1zm-2 1c0-1.1.9-2 2-2h4a2 2 0 012 2v4a2 2 0 01-2 2h-4a2 2 0 01-2-2v-4zm9.95-3.25c0 .14-.04.26-.1.37l-.03.08a2.54 2.54 0 01-1.37 1.6c.5-.3 1-1.3.75-1.3a.75.75 0 11.75-.75zM47 26h3a1 1 0 01.88.52c.13.24.34.48.62.48.28 0 .5-.23.44-.5A2 2 0 0050 25h-3a2 2 0 00-2 2v.5c0 1.1.9 2 2 2h3a1 1 0 011 1v.5a1 1 0 01-1 1h-3a1 1 0 01-.88-.52c-.13-.24-.34-.48-.62-.48-.28 0-.5.23-.44.5A2 2 0 0047 33h3a2 2 0 002-2v-.5a2 2 0 00-2-2h-3a1 1 0 01-1-1V27a1 1 0 011-1z" fill="#141414"/></svg>