<!-- by TradingView --><svg width="56" height="56" xmlns="http://www.w3.org/2000/svg"><path fill="#3363A8" d="M0 0h56v56H0z"/><path d="M16.693 27.24H12.02c-.011.252-.019.508-.019.76 0 .256.008.508.02.764h4.964a11.146 11.146 0 01-.29-1.524zm.79-6.097H13.54a15.5 15.5 0 00-.628 1.524h4.073c.132-.524.302-1.031.5-1.524zm-.883 4.57c0-.515.031-1.027.093-1.523h-4.236a15.1 15.1 0 00-.294 1.523H16.6zm.884 4.574h-5.321c.073.515.17 1.023.294 1.523h5.775c-.287-.492-.539-1-.748-1.523zm1.783 3.046H12.91c.186.524.391 1.028.628 1.528h7.189a12.967 12.967 0 01-1.461-1.528zM44 28c0-.252-.008-.508-.02-.76h-5.522a12.378 12.378 0 00-.744-1.527h6.123a16.27 16.27 0 00-.294-1.523h-6.88a11.544 11.544 0 00-1.46-1.523h7.886c-.182-.524-.395-1.175-.631-1.667H24.909v8H31v7.388H14.364c.326.527.686 1.035 1.07 1.519H24.9v1.527h-8.095c.562.55 1.162 1.058 1.802 1.52H24.9v1.523h-3.724A15.89 15.89 0 0028.002 44c2.438 0 4.747-.543 6.817-1.523h-1.72c.77-.43 1.487-.938 2.146-1.523h2.147a16.08 16.08 0 001.806-1.52h-2.507c.383-.48.732-.992 1.042-1.527h2.83c.387-.484.743-.992 1.069-1.52H38.47c.201-.5.372-1.007.5-1.526h3.488c.236-.5.449-1.004.631-1.528H39.26c.058-.496.093-.996.093-1.507v-.016h4.19c.12-.5.22-1.008.294-1.523h-4.58a12.296 12.296 0 00-.291-1.523h5.015c.011-.256.019-.508.019-.764zM31 16.566h8.198a16.547 16.547 0 00-1.806-1.523H31v1.523zm-11.733 1.527h-3.833c-.384.488-.744.996-1.07 1.523h3.864c.306-.535.659-1.046 1.039-1.523zM31 19.616h10.632a16.508 16.508 0 00-1.066-1.523H31v1.523zm-8.117-4.573h-4.28c-.639.465-1.24.973-1.797 1.523h3.922a12.279 12.279 0 012.154-1.523zM28.002 12a16 16 0 00-6.825 1.515H34.82A15.978 15.978 0 0028.002 12z" fill="#fff"/></svg>