<!-- by TradingView --><svg width="56" height="56" xmlns="http://www.w3.org/2000/svg"><path fill="#222F7D" d="M0 0h56v56H0z"/><path d="M33.789 14h.725c.889.014 1.778.019 2.663.113.525.072 1.106.099 1.538.458.58.512.812 1.293 1.129 1.982.319.655.594 1.332.841 2.02.055.196.135.473-.058.616-.248.159-.553.155-.833.177-5.8.092-11.586.802-17.255 2.064-1.809.4-3.585.939-5.372 1.428-.557.12-1.187.34-1.721.034-.455-.32-.61-.903-.805-1.404-.32-.946-.611-1.902-.905-2.858-.109-.377-.193-.827.041-1.176.312-.452.854-.624 1.342-.791 1.902-.648 3.867-1.072 5.837-1.433a102.52 102.52 0 016.947-.966c.903-.081 1.805-.216 2.714-.21 1.057-.018 2.114-.043 3.172-.054z" fill="#fff"/><path d="M36.135 21.097a45.141 45.141 0 014.249-.076c.553.043 1.18.058 1.617.449.437.44.551 1.08.772 1.638.31.973.781 1.884 1.13 2.843.107.314.189.736-.113.971-.466.334-1.06.39-1.605.508-1.921.328-3.847.618-5.76.986-3.758.727-7.484 1.605-11.2 2.517-3.788.96-7.561 2.01-11.224 3.38-.725.264-1.443.578-2.214.672-.384.048-.816-.01-1.09-.308-.344-.371-.477-.879-.613-1.354-.31-1.217-.666-2.425-.933-3.653-.106-.562-.231-1.15-.083-1.717.117-.457.486-.795.887-1.016.82-.452 1.721-.724 2.601-1.032 1.787-.633 3.628-1.095 5.417-1.717 3.812-.993 7.674-1.79 11.569-2.379 2.186-.324 4.385-.579 6.593-.712z" fill="#FFC902"/><path d="M40.837 29.112c.543-.081 1.131-.213 1.658.016.504.247.731.812.944 1.306.463 1.214.826 2.466 1.236 3.7.16.557.378 1.127.313 1.718-.104.603-.72.86-1.2 1.087-1.416.579-2.855 1.096-4.272 1.673L28.11 43.138c-.824.323-1.643.688-2.518.828-.484.073-1.021.048-1.422-.27-.442-.35-.65-.904-.84-1.423-.33-.976-.567-1.983-.914-2.954-.492-1.113-.892-2.266-1.285-3.419-.17-.498-.21-1.096.09-1.551.286-.432.776-.647 1.247-.794 2.533-.648 5.05-1.36 7.588-1.993 2.186-.544 4.366-1.122 6.576-1.56 1.401-.293 2.797-.62 4.204-.89z" fill="#EA241D"/></svg>