<!-- by TradingView --><svg width="56" height="56" xmlns="http://www.w3.org/2000/svg"><path fill="#C92027" d="M0 0h56v56H0z"/><path d="M13.449 22.436c-1.567-.487-3.311-.64-4.878-.077a5.185 5.185 0 00-3.062 2.776c-.641 1.5-.677 3.337-.107 4.875.499 1.387 1.567 2.4 2.884 2.887.748.3 1.531.413 2.35.375.926-.037 1.958-.15 2.813-.6v-2.85c-1.424.563-3.56.675-4.522-.825-.463-.712-.463-1.687-.142-2.437.284-.713.925-1.163 1.602-1.35 1.032-.3 2.065-.038 3.062.262v-3.036zM44.843 33.28c1.278 0 2.187-.528 2.86-1.356v1.382H51v-6.503c0-.979-.067-2.07-.572-2.937-.404-.715-1.077-1.205-1.783-1.468-2.02-.79-4.142-.226-6.094.49v2.748c1.144-.49 2.325-.753 3.57-.64.909.075 1.615.64 1.615 1.732v.188c-2.288-.904-6.124-.527-6.124 2.975v.037c0 2.146 1.413 3.351 3.23 3.351zm1.244-2.373c-.706 0-1.21-.452-1.21-1.167v-.038c0-1.656 1.984-1.43 2.893-.979 0 1.318-.707 2.184-1.683 2.184zM30.347 22.045h3.562v1.94l.147-.193c1.028-1.389 2.57-2.121 4.259-1.62 1.395.424 2.166 1.697 2.313 3.201.073.694.036 1.427.036 2.121v5.812H36.92c0-2.005.063-4.038.027-6.004 0-.888-.48-1.775-1.436-1.929-.88-.154-1.211.386-1.432 1.273-.036.386-.036.81-.036 1.234v1.851c0 1.196.014 2.38.014 3.575h-3.709V22.045zM29.408 31.807c-1.113.754-2.31 1.329-3.675 1.472-1.436.144-2.908-.18-4.057-1.005-1.58.718-3.41 1.293-5.134.754-1.293-.395-1.94-1.544-2.119-2.8-.072-.611-.036-1.257-.036-1.904v-3.16-2.184h3.756c0 1.615.036 3.262.072 4.878.035.754-.036 1.687.43 2.298.467.646.84.502 1.523.323-1.436-2.98.144-6.966 3.34-7.971 1.328-.431 3.087-.36 4.164.61.862.754 1.113 1.939.862 3.016-.215.826-.682 1.508-1.22 2.119-.719.825-1.58 1.508-2.478 2.154 1.22.898 3.208.251 4.572-.61v2.01zm-3.675-4.452c.395-.503.862-1.4.252-1.939-.395-.359-1.041-.287-1.472-.036-1.365.754-1.472 2.478-.79 3.734.826-.574 1.508-1.149 2.01-1.759-.502.61 1.185-1.508 0 0zM18.143 19.225a1.89 1.89 0 01-1.878 1.877 1.89 1.89 0 01-1.877-1.877 1.89 1.89 0 011.877-1.878c.992 0 1.878.85 1.878 1.878z" fill="#fff"/></svg>