<!-- by TradingView --><svg width="56" height="56" xmlns="http://www.w3.org/2000/svg"><path fill="#25804A" d="M0 0h56v56H0z"/><path d="M39.357 32.573c0 .798-.632 1.427-1.432 1.427-.759 0-1.433-.629-1.433-1.427v-9.146c0-.797.674-1.427 1.433-1.427.8 0 1.432.63 1.432 1.385v9.188zm9.609-9.775c.421.209.716.67.716 1.216 0 .797-.632 1.427-1.39 1.427-.295 0-.548-.084-.759-.21a3.323 3.323 0 00-1.56-.42A3.195 3.195 0 0042.772 28a3.195 3.195 0 003.203 3.19c1.264 0 2.318-.756 2.866-1.763h-2.866c-.801 0-1.433-.672-1.433-1.427 0-.797.632-1.427 1.433-1.427h4.594c.8 0 1.432.63 1.432 1.427 0 3.315-2.697 6-6.026 6-3.33 0-6.026-2.685-6.026-6 0-3.314 2.697-6 6.026-6 1.096 0 2.107.294 2.992.798zm-35.78.084c.422.25.675.712.675 1.217 0 .796-.632 1.426-1.39 1.426-.295 0-.548-.084-.759-.252a3.382 3.382 0 00-1.686-.461A3.194 3.194 0 006.823 28a3.195 3.195 0 003.203 3.19 3.171 3.171 0 003.034-2.267l1.813-5.96c.168-.587.716-.965 1.348-.965h5.437c.8 0 1.432.757 1.432 1.512 0 .798-.632 1.49-1.433 1.49h-3.962c-.252 0-.463.105-.547.315L15.8 29.72C15.04 32.196 12.723 34 10.026 34 6.696 34 4 31.315 4 28c0-3.314 2.697-6 6.026-6 1.138 0 2.233.336 3.16.882zm8.265 7.702l2.356-7.577A1.403 1.403 0 0125.155 22h.296c.632 0 1.18.42 1.348.965l1.644 5.287 1.559-5.245c.168-.587.716-1.007 1.39-1.007h.296c.631 0 1.18.42 1.348.965l2.824 9.189c.042.125.042.293.042.42 0 .797-.633 1.426-1.391 1.426-.632 0-1.18-.42-1.348-1.007l-1.644-5.244-1.602 5.286c-.168.546-.716.965-1.348.965h-.295c-.632 0-1.18-.42-1.349-1.007l-1.6-5.244-1.568 5.244c-.211.587-.717 1.007-1.39 1.007H16.93c-.76 0-1.383-.755-1.383-1.553 0-.755.636-1.443 1.395-1.443H21c.253 0 .366-.168.45-.42z" fill="#fff"/><path d="M20.309 26.573c.758 0 1.391.63 1.391 1.427 0 .798-.633 1.428-1.433 1.428H18.37c-.8 0-1.433-.63-1.433-1.428 0-.797.633-1.427 1.433-1.427h1.939z" fill="#F9AF00"/></svg>