<!-- by TradingView --><svg width="56" height="56" xmlns="http://www.w3.org/2000/svg"><path fill="#004D5A" d="M0 0h56v56H0z"/><path d="M32.997 27H26v11h6.997V27zM44 38V26.998h3.996V20H32.997v6.996h4.007V38" fill="#F6F8FD"/><path d="M17.184 38c4.291 0 7.844-3.114 8.831-7.001H20c-.95 1.33-2.003 1.33-2.99 1.33-1.889 0-3.26-1.512-3.26-3.329 0-1.817 1.371-3.308 3.26-3.308.987 0 1.838 0 2.99 1.308h6.009c-.987-3.887-4.577-7-8.825-7C12.12 20 8 24.056 8 29c0 4.986 4.12 9 9.184 9z" fill="#F6F8FD"/><path d="M26 27v-8h8" fill="#F6F8FD"/></svg>