<!-- by TradingView --><svg width="56" height="56" xmlns="http://www.w3.org/2000/svg"><path fill="#F0F3FA" d="M0 0h56v56H0z"/><path d="M28 8.011C13.235 26.368 10 40.758 10 40.758c6.81.953 12.847 1.263 18 1.219 5.153.044 11.19-.266 18-1.219 0 0-3.234-14.39-17.988-32.747V8H28v.011z" fill="#007AC3"/><path d="M25.243 24.44l4.063-5.516 5.55-2.227 2.576 2.326-.397 2.992-.59 2.426-.987 2.415-.806 1.528-2.77-2.592-2.474-2.226-.885-.72-1.396.72-1.884.875zm-.193 10.724l-6.934-.675-4.744-3.579.771-3.345 2.86-1.164 2.44-.531 2.679-.21 1.793-.023-.987 3.235-.738 3.213-.34.963 1.486.964 1.714 1.152zm9.613-5.195l2.86 6.192-.806 5.805-3.348 1.02-2.462-1.84-1.85-1.706-1.578-1.85-1.044-1.517 3.7-1.163 3.223-.986 1.033-.2.102-1.728.17-2.027z" fill="#8F989D"/><path d="M21.69 33.613l.647.233 4.12.887 4.098-.056 2.656-.366s.771-.144.828-.144c.057 0 .477-.165.59-.21 0 0 .17-.986.102-1.274-.068-.3-1.703-4.565-1.703-4.565l-1.917-2.548-1.749-1.905s-.567-.643-.817-.798c0 0-.579.011-3.144 2.581-.692.699-3.518 7.235-3.518 7.235s-.193.897-.193.93z" fill="#007AC3"/><path d="M26.468 23.71l2.032-.865c-4.551 4.498-6.798 10.735-6.798 10.735s.51-4.94 2.758-12.175l.43 1.562c1.204-2.304 5.767-8.619 10.522-7.112 0 0 5.788 1.994-.545 12.097l.409-.798c3.927-10.213-2.123-9.095-2.123-9.095-2.7.4-4.925 2.87-6.685 5.65z" fill="#fff"/><path d="M23.494 34.876l-1.77-1.285c6.253 1.594 12.915.376 12.915.376s-4.483 2.172-12.189 3.756l1.18-1.141c-2.655.133-10.531-.566-11.576-5.34 0 0-.953-5.882 11.168-5.594l-1.067.066c-11.031 1.784-7.014 6.337-7.014 6.337 1.714 2.082 5.005 2.736 8.353 2.825z" fill="#fff"/><path d="M34.912 31.796l-.25 2.15c-1.714-6.094-6.129-11.112-6.129-11.112s4.347 2.836 9.431 8.42l-1.6-.422c1.441 2.183 4.756 9.184 1.044 12.452 0 0-4.664 3.9-10.464-6.502l.511.742c7.093 8.419 9.125 2.747 9.125 2.747.999-2.482-.08-5.595-1.668-8.475z" fill="#fff"/></svg>