<!-- by TradingView --><svg width="56" height="56" xmlns="http://www.w3.org/2000/svg"><path fill="#F2541B" d="M0 0h56v56H0z"/><path d="M26 29.224c0 .892-.554 1.776-1.5 1.776-1 0-1.5-.884-1.5-1.776V26h-.985v3.224c0 1.63.974 2.776 2.485 2.776s2.5-1.145 2.5-2.776V26h-1v3.224zm22.81.21l-.782-1.971-.784 1.971h1.567zM51 32h-1.25l-.58-1.522H46.9L46.374 32h-1.319l2.376-6h1.167L51 32zm-8.47-4.059c0-.525-.49-.941-1.003-.941H40v2h1.5c.5 0 1.03-.57 1.03-1.059zm-.128 1.793L44.007 32H42.6l-1.4-2H40v2h-1v-6h2.5c1.241 0 2.265.636 2.265 1.941 0 .745-.542 1.493-1.363 1.793zM11 26h-1v6h4v-1h-3v-5zm20.85 3c0-1.124-.884-2-1.977-2h-.86v4h.86c1.093 0 1.977-.942 1.977-2zm1.15-.045C33 30.638 31.812 32 29.965 32H28v-6h1.91c1.847 0 3.09 1.272 3.09 2.955zM33.125 32H38l.004-1H33.9c-.182.44-.448.666-.775 1zM37 29.5v-1.152h-3.01c.026.197.045.398.045.608 0 .186-.014.367-.035.544h3zM33.063 26H38v1h-4.1c-.193-.442-.496-.667-.837-1z" fill="#fff"/><path fill-rule="evenodd" d="M17.78 32.008a3 3 0 100-6 3 3 0 000 6zm-.025-1.023a2 2 0 100-4 2 2 0 000 4z" fill="#fff"/><path d="M9.212 31.027a3 3 0 11-.145-4.202l-.818.613a2 2 0 10.078 3.058l.885.531z" fill="#fff"/></svg>