<!-- by TradingView --><svg width="56" height="56" xmlns="http://www.w3.org/2000/svg"><path fill="#C03" d="M0 0h56v56H0z"/><path d="M41.016 20.11c-.605.054-1.835.12-2.723.163-1.845.088-1.876.066.958.7 2.108.47 3.328.831 3.328.974 0 .043-.09.174-.202.284-.211.208-.201.208.323.415.292.12.726.361.968.525.242.175.454.317.474.317.02 0 .05-.13.07-.295.031-.35.273-.437 1.19-.46.727-.01 1.2.23 2.048 1.061.373.372.696.678.716.678.01 0 .655.12 1.422.274.756.153 1.402.273 1.412.251.02-.021-.908-.743-2.047-1.618l-2.088-1.586-1.21-.065c-1.664-.088-2.128-.263-2.794-1.094-.282-.35-.564-.634-.625-.634-.06.01-.605.066-1.22.11zM5.678 23.047c-.901.24-1.508.962-1.64 1.945-.04.345-.05 2.53-.02 4.863.06 4.09.07 4.247.283 4.665.719 1.391 2.561 1.84 4.616 1.119l.901-.314.588.24a5.188 5.188 0 004.07 0l.586-.25.577.24c1.276.534 2.835.534 4.12 0l.618-.261.648.272a5.188 5.188 0 004.07 0l.597-.251.628.261c1.366.575 2.854.565 4.13-.031.547-.251.628-.262.83-.126 1.053.701 3.28.743 4.515.095l.395-.21.597.251c1.367.565 2.754.576 4.11.01l.587-.25.587.25c1.357.566 2.926.566 4.13 0l.547-.26.588.271c.769.377 1.984.45 2.763.188 1.175-.407 1.823-1.432 1.893-3.043.071-1.652-.344-2.583-1.518-3.4-.405-.276-1.739-1.163-1.073-1.85.192-.2.59-.074.66.157.091.313.293.372.891.372.553 0 .486-.09.425-.414-.202-1.015-.923-1.653-1.875-1.57-1.103.085-1.792 1.13-1.59 2.375.102.607.598 1.224 1.499 1.862 1.398.998 2.016 4.076-.273 4.288-.638.052-1.428.108-2.015-.29L46.748 34l-.485.314c-1.286.847-3.017.823-4.293-.014l-.486-.3-.476.3c-1.245.806-2.672.806-4.15.032L36.2 34l-.405.248a3.956 3.956 0 01-4.36.01L31.018 34l-.384.248c-1.245.879-3.263.879-4.559 0L25.692 34l-.385.248c-.526.377-1.549.418-2.288.418-.78 0-1.676.053-2.314-.366l-.486-.3-.527.3c-1.397.806-2.868.785-4.134.01L15 34l-.596.31c-1.073.67-2.51.545-3.644 0-.334-.156-.765-.31-.765-.31s-.447.19-.83.31c-.825.45-2.56.608-3.204-.124-.394-.45-.435-.89-.435-5.23 0-3.556.02-4.173.152-4.309.253-.25.617-.387.88-.21.203.136.412.436.442.938V26h1.52l-.03-.582c-.061-1.213-.787-2.298-1.931-2.403a3.318 3.318 0 00-.881.032z" fill="#fff"/><path d="M23.566 33H25v-4h1.56v4H28V23h-1.44v4H25v-3.998h-1.434V33zM9 24v9h1.5v-9H9zM36 33h.422c.278 0 .474-.062.556-.164.103-.154.155-.234.546-.039.835.42 1.69.174 2.091-.604.288-.553.433-1.762.37-2.97-.081-1.403-.277-2.038-.761-2.458-.493-.434-1.074-.272-1.68-.215V24H36v9zm2.214-5.375c.36.543.423 3.329.093 4.138-.165.41-.577.52-.762.264V27.45c.144-.154.515-.06.67.175zM12.213 26.104c-.934.372-1.222 1.18-1.213 3.337 0 1.72.14 2.358.617 2.92.943 1.105 2.26.734 2.821-.785.14-.372.14-.383-.112-.447-.15-.031-.336-.085-.42-.106-.103-.032-.206.053-.3.255-.149.34-.317.446-.672.446-.299 0-.58-.426-.635-1.074V30h2.214v-.91c-.028-1.774-.422-2.72-1.3-3.018a1.533 1.533 0 00-1 .032zm.908 1.605c.084.138.15.457.15.744V29h-.935v-.547c0-.563.196-.9.467-.9.094 0 .243.029.318.156zM16.205 26.166c-.223.117-.506.34-.628.5-.233.31-.472 1.185-.38 1.334h1.083c.08-.245.27-.757.643-.757.335 0 .375.317.335.945-.03.49-.03.5-.456.575-.648.117-1.215.468-1.518.957-.254.394-.284.543-.284 1.298 0 .915.142 1.34.577 1.767.294.287 1.022.287 1.468 0 .334-.203.334-.203.435.01.101.181.186.205.668.205h.547v-2.865c-.01-2.702-.02-2.84-.233-3.245-.415-.787-1.447-1.117-2.257-.724zM17.258 32h-.355c-.384.053-.698-.375-.698-.982 0-.66.46-1.298 1.053-1.298V32zM29.51 26.166c-.222.117-.505.34-.627.5-.233.31-.471 1.185-.38 1.334h1.083c.081-.245.271-.757.644-.757.334 0 .374.317.334.945-.03.49-.03.5-.456.575-.648.117-1.215.468-1.518.957-.253.394-.284.543-.284 1.298 0 .915.142 1.34.577 1.767.294.287 1.023.287 1.468 0 .334-.203.334-.203.436.01.1.181.185.205.668.205H32v-2.865c-.01-2.702-.02-2.84-.233-3.245-.415-.787-1.447-1.117-2.257-.724zM30.565 32h-.355c-.384.053-.698-.375-.698-.982 0-.66.461-1.298 1.053-1.298V32zM20.914 26.308c-.335.263-.385.263-.385-.011 0-.198-.07-.297-.658-.297h-.658v7h1.417v-5.347c0-.47.905-.436.905-.061v2.76l.02 2.648H23v-6.264c-.291-.35-.563-.678-1.054-.725-.435-.038-.686.046-1.032.297zM41.8 26.058c-1.409.393-1.548 2.28-1.548 3.46 0 1.386.258 3.385 2.004 3.478 1.2.07 1.677-.86 1.883-1.943.172-.869.142-2.736-.06-3.475-.283-1.05-1.143-1.824-2.278-1.52zm.456 5.617c-1.126 0-1.017-4.269 0-4.269s1.127 4.27 0 4.27zM32.524 26l-.02 6.49V33h1.504v-4.674c.413-.557.96-.681 1.605-.775V26l-.324.078c-.385.1-.912.48-1.003.634-.177.128-.286-.01-.286-.287V26h-1.476zM44.523 26l-.02 6.49V33h1.504v-4.674c.413-.557.96-.681 1.605-.775V26l-.324.078c-.385.1-.912.48-1.003.634-.176.128-.286-.01-.286-.287V26h-1.476z" fill="#fff"/></svg>