<!-- by TradingView --><svg width="56" height="56" xmlns="http://www.w3.org/2000/svg"><path fill="#E2A305" d="M0 0h56v56H0z"/><path d="M25.123 43.643c-2.976-.965-5.092-2.894-6.27-5.808-.879-2.17-.879-4.38-.22-6.61.5-1.709 1.218-3.296 2.017-4.884.641-1.268 1.316-2.52 1.992-3.772.588-1.089 1.176-2.178 1.742-3.28 1.098-2.15 2.116-4.321 2.835-6.632.3-1.005.56-2.01.7-3.054.017-.16.05-.304.099-.516l.02-.087c.28 2.472 1.078 4.702 1.977 6.892.28.684.579 1.387.918 2.03l.275.544c.41.814.826 1.642 1.283 2.43a.572.572 0 00-.035.007c.222.284.378.602.534.92.052.107.105.213.16.319.08.149.162.298.244.447 1.038 1.901 2.08 3.808 2.95 5.802.64 1.467 1.198 2.954 1.398 4.541.28 2.09-.06 4.08-1.078 5.908-1.617 2.934-4.114 4.642-7.388 5.144a7.747 7.747 0 01-4.153-.341zm3.064-1.224c-.655.012-1.31-.067-1.966-.183l-.42-.06a.319.319 0 00-.069-.003l.03.003.419.06c.669.139 1.337.219 2.006.183zm-.151-27.692c-.003.067-.005.134.002.2.056.085.063.169.069.24.002.03.005.058.01.082l-.021 1.339c-.03 1.784-.058 3.568-.138 5.353-.04 1.205-.2 2.411-.48 3.576-.458 1.85-1.337 3.437-2.655 4.783-.918.944-1.777 1.909-2.436 3.074-.033.054-.062.11-.09.166a1.225 1.225 0 01-.21.317c-.399.904-.718 1.828-.838 2.813-.08.683-.08 1.346.04 2.03-.16-.017-.205-.11-.247-.198-.01-.022-.02-.044-.033-.064-1.158-1.909-1.437-3.938-.918-6.108.38-1.648 1.058-3.195 1.797-4.703a134.178 134.178 0 011.822-3.492c.272-.51.545-1.02.814-1.531 1.397-2.653 2.735-5.325 3.454-8.279.067.134.062.268.058.402z" fill="url(#paint0_linear)"/><path d="M20.413 37.227c.977 2.417 2.732 4.017 5.2 4.817l.002-.011-.001.01c1.142.417 2.302.5 3.444.284 2.717-.417 4.787-1.833 6.129-4.267.844-1.517 1.126-3.167.894-4.9-.166-1.317-.63-2.55-1.16-3.767-.721-1.654-1.585-3.236-2.447-4.812l-.202-.371c-.046-.088-.09-.176-.133-.265-.13-.264-.259-.527-.443-.763a.443.443 0 01.029-.006c-.38-.653-.725-1.34-1.065-2.015l-.227-.452a19.284 19.284 0 01-.762-1.683c-.745-1.817-1.408-3.667-1.64-5.717l-.016.072c-.04.176-.069.296-.083.428-.116.867-.331 1.7-.58 2.534-.596 1.916-1.44 3.716-2.352 5.5-.47.914-.957 1.818-1.444 2.72-.56 1.04-1.121 2.078-1.653 3.13-.662 1.317-1.258 2.634-1.673 4.05-.546 1.85-.546 3.684.183 5.484zm7.743 3.802a8.405 8.405 0 01-1.632-.152l-.348-.05a.268.268 0 00-.057-.002.31.31 0 01.024.002l.348.05c.555.115 1.11.181 1.665.151zm-.127-22.97c-.002.056-.003.111.002.167.046.07.052.14.057.198.002.025.004.049.01.069-2.485 11.507-4.379 16.748-.116-.767.055.111.051.222.047.333z" fill="#4C4D4F"/><path d="M25.392 42.044c-2.373-.8-4.061-2.4-5.001-4.817-.701-1.8-.701-3.634-.175-5.484.398-1.416 1.643-2.733 2.28-4.05.956-1.967 2.007-3.883 2.979-5.85.876-1.784 1.308-3.449 1.881-5.366.239-.833.446-1.666.558-2.533.015-.15.047-.283.095-.5.496 4.556 2.31 10.042 4.262 14.128.557 1.15 1.388 3.538 1.69 4.771.303 1.167.383 2.334.096 3.517-.669 2.817-2.965 5.255-6.032 6.074-1.548.328-2.633.11-2.633.11z" fill="#060709"/><path d="M22.068 33.897c-.38.904-.719 1.808-.839 2.813a6.92 6.92 0 00.04 2.03c-.18 0-.22-.161-.28-.262-1.157-1.909-1.437-3.958-.918-6.108.38-1.648 1.058-3.195 1.797-4.702.839-1.708 1.757-3.356 2.636-5.024 1.398-2.652 2.736-5.325 3.454-8.279.1.201.04.402.06.603-.14.502-.12 1.025-.2 1.527-.319 2.15-.958 4.2-1.816 6.17-.84 1.928-1.738 3.837-2.576 5.746-.58 1.326-1.039 2.693-1.258 4.14-.06.421-.16.864-.1 1.346z" fill="#F9E4B9"/><path d="M22.068 33.897c-.06-.462.04-.924.12-1.387.239-1.426.678-2.813 1.257-4.139.839-1.93 1.738-3.838 2.576-5.747.859-1.97 1.498-4.019 1.817-6.169.08-.502.06-1.025.2-1.527.08.12.06.241.06.362-.04 2.23-.06 4.46-.16 6.691-.06 1.206-.2 2.391-.48 3.577-.458 1.848-1.337 3.436-2.655 4.782-.918.945-1.797 1.91-2.436 3.075-.1.16-.16.341-.3.482z" fill="#E8A707"/><defs><linearGradient id="paint0_linear" x1="18.164" y1="26.562" x2="44.037" y2="41.812" gradientUnits="userSpaceOnUse"><stop stop-color="#060709"/><stop offset="1" stop-color="#E9A804"/></linearGradient></defs></svg>