<!-- by TradingView --><svg width="56" height="56" xmlns="http://www.w3.org/2000/svg"><path fill="#F0F3FA" d="M0 0h56v56H0z"/><path d="M30.208 23.084c0 .703-.562 1.273-1.262 1.273-.699 0-1.264-.57-1.264-1.273a1.27 1.27 0 011.264-1.277c.7 0 1.262.572 1.262 1.277zM30.208 32.918c0-.703-.562-1.275-1.262-1.275a1.27 1.27 0 00-1.264 1.275c0 .708.565 1.275 1.264 1.275.7 0 1.262-.567 1.262-1.275zM24.068 26.726c.7 0 1.268.57 1.268 1.273 0 .708-.567 1.278-1.268 1.278A1.27 1.27 0 0122.805 28a1.27 1.27 0 011.263-1.273zM26.393 23.623a1.278 1.278 0 010 1.8 1.257 1.257 0 01-1.79 0 1.282 1.282 0 010-1.8 1.252 1.252 0 011.79 0zM33.289 30.577a1.251 1.251 0 00-1.785 0 1.278 1.278 0 000 1.804c.492.499 1.289.499 1.785 0a1.279 1.279 0 000-1.804zM24.604 30.577a1.257 1.257 0 011.79 0 1.283 1.283 0 010 1.804c-.497.499-1.296.499-1.79 0a1.286 1.286 0 010-1.804zM31.504 23.623a1.274 1.274 0 000 1.8 1.251 1.251 0 001.785 0 1.274 1.274 0 000-1.8 1.246 1.246 0 00-1.785 0zM30.018 19.847c0 .592-.482 1.078-1.072 1.078-.59 0-1.067-.486-1.067-1.078 0-.6.476-1.083 1.067-1.083.59 0 1.072.483 1.072 1.083zM30.018 36.157c0-.593-.482-1.077-1.072-1.077-.59 0-1.067.483-1.067 1.077 0 .597.476 1.08 1.067 1.08.59 0 1.072-.483 1.072-1.08zM20.86 26.925c.588 0 1.07.48 1.07 1.074 0 .597-.482 1.077-1.07 1.077-.59 0-1.072-.48-1.072-1.077 0-.594.482-1.074 1.072-1.074zM23.982 21.469a1.08 1.08 0 010 1.527c-.413.42-1.093.42-1.51 0a1.082 1.082 0 010-1.527 1.066 1.066 0 011.51 0zM35.426 33.006a1.063 1.063 0 00-1.515 0 1.084 1.084 0 000 1.523 1.06 1.06 0 001.515 0 1.09 1.09 0 000-1.523zM22.471 33.006a1.059 1.059 0 011.511 0c.421.42.421 1.105 0 1.523a1.055 1.055 0 01-1.51 0 1.077 1.077 0 010-1.523zM33.911 21.469a1.09 1.09 0 000 1.527 1.07 1.07 0 001.515 0 1.096 1.096 0 000-1.527 1.07 1.07 0 00-1.515 0zM27.091 20.987a.959.959 0 01-.515 1.241.94.94 0 01-1.233-.513.953.953 0 01.512-1.242.942.942 0 011.236.514zM32.55 34.284a.945.945 0 00-1.235-.51.957.957 0 00-.51 1.244.944.944 0 001.236.513c.477-.2.706-.76.51-1.247zM21.989 29.878a.946.946 0 011.238.514.953.953 0 01-.511 1.24.942.942 0 01-1.236-.514.956.956 0 01.509-1.24zM22.716 24.363c.478.205.71.76.51 1.248a.949.949 0 01-1.237.516.961.961 0 01-.509-1.245.947.947 0 011.236-.519zM25.343 34.284a.946.946 0 011.233-.51c.48.2.71.755.515 1.244a.945.945 0 01-1.236.513.958.958 0 01-.512-1.247zM30.805 20.987a.954.954 0 00.51 1.241.94.94 0 001.236-.513.959.959 0 00-.51-1.242.941.941 0 00-1.236.514z" fill="#D50032"/><path d="M29.704 17a.872.872 0 01-.869.878.883.883 0 010-1.763c.482 0 .87.395.87.884zM29.514 14.546a.68.68 0 11-1.36 0c0-.378.305-.685.681-.685.372 0 .679.307.679.685zM29.317 12.486a.483.483 0 11-.966 0 .482.482 0 11.966 0zM29.772 39.004a.881.881 0 00-.875-.886.88.88 0 00-.874.886c0 .482.39.88.873.88a.88.88 0 00.876-.88zM29.58 41.452a.68.68 0 10-1.36 0 .681.681 0 101.36 0zM29.383 43.508a.483.483 0 00-.486-.486.483.483 0 00-.484.486c0 .271.216.492.484.492a.487.487 0 00.486-.492zM21.745 19.618a.881.881 0 010 1.245.86.86 0 01-1.232.003.89.89 0 010-1.248.863.863 0 011.232 0zM19.892 18.025c.267.265.267.7 0 .968a.679.679 0 01-.96.003.689.689 0 010-.972.674.674 0 01.96 0zM18.31 16.709c.19.191.188.498 0 .688a.475.475 0 01-.685 0 .49.49 0 010-.688.48.48 0 01.684 0zM37.22 35.132a.866.866 0 00-1.234 0 .882.882 0 000 1.247.86.86 0 001.23 0 .885.885 0 00.005-1.247zM38.801 37.003a.679.679 0 00-.962 0 .696.696 0 000 .968.677.677 0 00.962 0 .687.687 0 000-.968zM17.958 27.148a.884.884 0 010 1.766.876.876 0 01-.874-.882c0-.487.388-.884.874-.884zM15.529 27.345c.371 0 .675.307.675.687a.682.682 0 01-.675.683.684.684 0 010-1.37zM13.485 27.545c.27 0 .485.216.485.487a.484.484 0 11-.97 0c0-.27.221-.487.485-.487zM20.557 35.18a.866.866 0 011.235-.003.885.885 0 010 1.248.868.868 0 01-1.235 0 .885.885 0 010-1.246zM18.977 37.05a.673.673 0 01.958 0 .688.688 0 010 .968.677.677 0 01-.962.002.688.688 0 01.004-.97zM17.665 38.645a.484.484 0 01.69-.002.497.497 0 010 .69.487.487 0 01-.69 0 .5.5 0 010-.688zM35.94 19.572a.882.882 0 00-.002 1.246.863.863 0 001.233 0 .877.877 0 000-1.245.861.861 0 00-1.23-.001zM25.936 18.63a.79.79 0 01-.43 1.028.78.78 0 01-1.022-.434.794.794 0 01.43-1.03.78.78 0 011.022.437zM24.955 16.66a.621.621 0 01-.337.8.611.611 0 01-.793-.337.621.621 0 01.333-.801.609.609 0 01.797.337zM33.348 36.882a.783.783 0 00-1.022-.436.793.793 0 00-.43 1.03c.165.4.62.602 1.021.431a.792.792 0 00.431-1.025zM34.004 38.983a.607.607 0 00-.794-.34.615.615 0 00.459 1.142c.31-.13.463-.49.335-.802zM34.532 40.757a.433.433 0 10-.804.33c.09.224.343.33.566.24a.44.44 0 00.238-.57zM20.2 23.516a.791.791 0 01.42 1.034.785.785 0 01-1.03.42.797.797 0 01-.418-1.036.783.783 0 011.028-.418zM18.13 22.82a.616.616 0 01-.478 1.134.616.616 0 01.477-1.134zM16.374 22.267c.221.092.322.35.228.57a.427.427 0 01-.57.23.43.43 0 01-.229-.568.434.434 0 01.57-.232zM19.57 31.056c.4-.163.86.03 1.02.432a.795.795 0 01-.428 1.033.782.782 0 01-1.02-.433.794.794 0 01.428-1.032zM17.62 32.05a.608.608 0 01.794.335.616.616 0 01-.336.8.615.615 0 01-.797-.34.618.618 0 01.338-.795zM15.989 32.906a.437.437 0 11.324.81.426.426 0 01-.557-.241.431.431 0 01.233-.57zM24.417 36.837a.78.78 0 011.025-.416c.4.169.583.635.418 1.035a.782.782 0 01-1.027.42.793.793 0 01-.416-1.039zM23.728 38.932a.6.6 0 01.797-.322.611.611 0 01-.473 1.129.622.622 0 01-.324-.807zM23.177 40.702a.433.433 0 11.799.338.435.435 0 11-.799-.338zM31.973 18.65a.79.79 0 00.414 1.035.786.786 0 001.031-.421.797.797 0 00-.422-1.036.775.775 0 00-1.024.421zM32.976 16.694a.616.616 0 00.327.803.614.614 0 00.476-1.13.61.61 0 00-.803.327zM33.85 15.06a.435.435 0 10.571-.23.434.434 0 00-.57.23z" fill="#97999B"/></svg>