<!-- by TradingView --><svg xmlns="http://www.w3.org/2000/svg" width="56" height="56"><path fill="#F0F3FA" d="M0 0h56v56H0z"/><path fill-rule="evenodd" d="M28 45c9.32 0 17-7.68 17-17s-7.68-17-17-17-17 7.68-17 17c0 8.16 6.3 15.28 14 16.84v-7.3c0-1.47-1.18-2.53-1.71-3l-.16-.15C20.86 32.22 19 30.2 19 26.89A8.92 8.92 0 0128 18c4.96 0 9 3.93 9 8.89 0 4.48-2.99 6.77-4.36 7.8l-.57.45c-1.03.9-1.07 2.68-1.07 4v1.33c0 .3-.25.53-.56.53H28a.57.57 0 01-.56-.57v-9.05l-.32-.26-.19-.15-.41-.34c-1.07.17-2.23-.44-2.96-1.26A8.25 8.25 0 0122 26c1.24.15 2.5.3 3.57 1 .94.6 1.55 1.59 1.63 2.74l.24.2v-2.4a3.81 3.81 0 01-.99-3.17c.16-1.27.86-2.33 1.55-3.37a8.25 8.25 0 011.56 3.37c.15 1.08-.18 2.43-1 3.14v2.43l.27-.22a3.46 3.46 0 011.6-2.72c1.08-.7 2.33-.85 3.57-1-.34 1.2-.71 2.43-1.56 3.37-.72.82-1.87 1.42-2.94 1.26-.14.1-.28.22-.42.34l-.2.15a29 29 0 01-.32.26V40H30v-.6c0-1.76.05-3.65 1.4-4.88.18-.18.55-.5.8-.7 2.25-1.88 3.8-3.79 3.8-6.93A7.96 7.96 0 0028 19c-4.38 0-8 3.51-8 7.89 0 3.04 1.7 4.71 3.15 6.14l.17.16a43.53 43.53 0 01.89.9c1.15 1.17 1.79 1.82 1.79 3.7v7.74c0 .3-.24.52-.53.47C16.87 44.65 10 36.98 10 28a18 18 0 1118 18c-.56 0-.56-.5-.56-.5s0-.5.56-.5zm-.54-20.5c.07-.56.27-1 .54-1.5.27.5.48.94.56 1.51.1.71-.1 1.43-.56 1.89-.54-.57-.58-1.59-.54-1.9zm3.52 3.35c.48-.3.95-.43 1.5-.56-.21.53-.4.98-.8 1.41-.47.54-1.15.84-1.8.8.09-.8.84-1.48 1.1-1.65zm-7.45-.56c.55.13 1.02.25 1.5.56.25.17 1 .86 1.09 1.64a2.26 2.26 0 01-1.8-.79 4.38 4.38 0 01-.8-1.4z" fill="#00A6A7"/></svg>