<!-- by TradingView --><svg width="56" height="56" xmlns="http://www.w3.org/2000/svg"><path fill="#F0F3FA" d="M0 0h56v56H0z"/><path d="M47.33 28.654L46.254 27h.624l.756 1.11.67-1.11H49l-1.084 1.654V30h-.585v-1.346zM28.394 29.876V27l2.154 1.901v-1.815h.558V30l-2.18-1.978v1.854h-.532zM22.276 27c.523.015.834.33.925.485l-.327.28c-.215-.27-.374-.336-.598-.336-.18 0-.327.121-.396.19-.08.13-.11.443.564.592.84.186.906.754.916.922.009.168-.16.829-1.131.866a1.122 1.122 0 01-1.168-.866h.542c-.02.121.288.438.626.438.364 0 .516-.215.523-.438.008-.223-.346-.416-.523-.484-.327-.13-1.01-.3-1.01-.829 0-.439.402-.838 1.056-.82zM18.44 30l-1.478-3h.645l.832 1.837.885-1.837H20l-1.56 3zM12.227 30v-3h.513v2.532h.973V30h-1.486zM37.827 30v-3h.485v2.532h.92V30h-1.405z" fill="#000"/><path d="M24.205 36S11.541 36.969 4 29h3c4.484 4.828 12.952 5.879 14.97 5.745 1.616-.107 1.852-2.358 1.767-3.47h-.186v-5.29h.186v-5.992c13.932 0 23.206 2.515 28.263 7.014h-2.617C38.36 19.993 28.056 21.097 26.24 21c-1.452-.077-1.96 1.328-2.035 2.11v2.874h.162v5.291h-.162V36z" fill="url(#paint0_linear)"/><path d="M11.681 27.27v.501c-.113-.098-.463-.3-.958-.33-.62-.037-1.153.33-1.153 1.065 0 .735.643.98 1.153 1.004.407.02.808-.171.958-.27v.564c-.202.065-.494.196-.958.196-.352 0-1.711-.264-1.711-1.494S10.104 27 10.722 27c.496 0 .846.18.96.27zM34.098 27.27v.501c-.115-.098-.47-.3-.97-.33-.627-.037-1.168.33-1.168 1.065 0 .735.651.98 1.167 1.004.413.02.82-.171.971-.27v.564c-.205.065-.5.196-.97.196-.357 0-1.733-.264-1.733-1.494S32.5 27 33.127 27c.502 0 .856.18.971.27z" fill="#000"/><ellipse cx="15.505" cy="28.5" rx="1.686" ry="1.5" fill="#000"/><ellipse cx="26.356" cy="28.5" rx="1.686" ry="1.5" fill="#000"/><ellipse cx="35.903" cy="28.5" rx="1.686" ry="1.5" fill="#000"/><ellipse cx="41.037" cy="28.511" rx="1.686" ry="1.5" fill="#000"/><ellipse cx="15.506" cy="28.511" rx="1.204" ry="1.06" fill="#F0F3FA"/><ellipse cx="26.358" cy="28.511" rx="1.204" ry="1.06" fill="#F0F3FA"/><ellipse cx="35.905" cy="28.511" rx="1.204" ry="1.06" fill="#F0F3FA"/><ellipse cx="41.039" cy="28.523" rx="1.204" ry="1.06" fill="#F0F3FA"/><path fill="#000" d="M20.302 27h.511v3h-.511zM44.714 27.011c.668 0 1.184.394 1.36.599l-.41.338c-.047-.155-.312-.469-1.011-.488-.873-.024-1.131.677-1.154 1.04-.023.362.235 1.015 1.154 1.03.735.014.98-.445 1.01-.676h-.835v-.425h1.367v.708c-.41.82-1.12.874-1.542.874-.532 0-1.678-.275-1.64-1.511.038-1.237.98-1.489 1.7-1.489z"/><defs><linearGradient id="paint0_linear" x1="13.096" y1="34.054" x2="44.396" y2="29.288" gradientUnits="userSpaceOnUse"><stop offset=".353" stop-color="#0081C6"/><stop offset=".386" stop-color="#FFE363"/></linearGradient></defs></svg>