<!-- by TradingView --><svg width="56" height="56" xmlns="http://www.w3.org/2000/svg"><path fill="#00AEEF" d="M0 0h56v56H0z"/><path d="M33.468 12.476c.634.157 1.255.35 1.858.578H23.68A16.452 16.452 0 0129.15 12a23.29 23.29 0 014.318.475zM40.278 16a16.541 16.541 0 00-2.888-2H21.616c-.366.2-.724.412-1.072.638l-.581.394c-.428.303-.84.627-1.235.968h21.55zM42.999 19c-.5-.71-1.056-1.379-1.66-2H17.667c-.604.621-1.16 1.29-1.66 2h26.992zM15.354 20a16.44 16.44 0 00-1.025 2h17.003a13.68 13.68 0 013.415-2H15.354zM32.15 44c.314.215.637.417.968.606-.744.166-1.508.282-2.288.344-.65.043-1.239.049-1.65.05a16.456 16.456 0 01-5.356-1h8.326zM28.991 41a13.772 13.772 0 001.87 2h-9.245a16.541 16.541 0 01-2.888-2H28.99zM27.252 38c.294.698.643 1.367 1.044 2h-10.63a16.592 16.592 0 01-1.66-2h11.246zM26.38 35c.116.685.283 1.353.497 2H15.354a16.462 16.462 0 01-1.025-2H26.38zM26.205 32a13.891 13.891 0 00.043 2h-12.31c-.229-.649-.419-1.317-.566-2h12.833zM26.682 29.038a13.624 13.624 0 00-.39 1.962H13.187c-.1-.655-.16-1.322-.18-2l13.674.038zM27.934 26c-.364.649-.677 1.33-.934 2.038L13.007 28c.02-.677.082-1.345.181-2h14.746zM30.213 23a13.751 13.751 0 00-1.659 2H13.372c.147-.683.337-1.351.567-2h16.274z" fill="#fff"/></svg>