<!-- by TradingView --><svg width="56" height="56" xmlns="http://www.w3.org/2000/svg"><path fill="#E41D24" d="M0 0h56v56H0z"/><path d="M15.782 36l5.697-15.997h5.206l2.943 8.2 2.942-8.2h5.245L32.042 36h-4.98l-3.056-8.561L20.988 36h-5.206zm26.937-11.415L41.134 29h3.17l-1.585-4.415zM45.66 33h-5.847l-1.17 3h-5.206l5.697-15.997h7.168L52 36h-5.207l-1.132-3zM20.12 20.003h-8.149c-4.112 0-7.771 3.898-7.96 7.516C3.787 31.814 6.991 36 10.84 36h3.584l2.137-6H12.44a2 2 0 01-1.962-2.392l.2-1A2 2 0 0112.64 25h5.701l1.78-4.997z" fill="#fff"/></svg>