<!-- by TradingView --><svg width="56" height="56" xmlns="http://www.w3.org/2000/svg"><path fill="url(#paint0_linear)" d="M0 0h56v56H0z"/><path d="M44 21h4v-4h-4v4z" fill="#D93035"/><path d="M20.008 33H14a3 3 0 110-6h6.008v-4H14.46c-2.314.015-8.46.178-8.46 7.062 0 6.877 6.16 6.92 8.488 6.936h.006l5.514.002v-4zM44 28v-4.99h4V37h-4v-5h-7v5h-2.727c-.67 0-1.092-.032-1.728-.252-.548-.188-1.491-.706-2.183-1.555 0 0-4.588-5.168-5.362-6.063V37h-3.992V23H24.1c.643 0 1.367.07 1.964.307.6.235 1.247.877 1.662 1.363.415.486 4.585 5.44 5.321 6.403V23H37v5h7z" fill="#fff"/><defs><linearGradient id="paint0_linear" x1="10.418" y1="9.712" x2="68.147" y2="76.017" gradientUnits="userSpaceOnUse"><stop stop-color="#1A1E21"/><stop offset="1" stop-color="#06060A"/></linearGradient></defs></svg>