<!-- by TradingView --><svg width="56" height="56" fill="none" xmlns="http://www.w3.org/2000/svg"><path fill="#F6CD55" d="M0 0h56v56H0z"/><path d="M28.133 19.023l-.11-.023-.134.023L4 23.215v9.533l23.867 4.228.155.023.155-.023L52 32.69v-9.524l-23.867-4.142z" fill="#fff"/><path d="M28.011 20L5 24.044v7.868L28.011 36 51 31.868V24l-22.989-4zm1.556 9.912a2.085 2.085 0 01-1.49.572c-.943-.066-1.6-.616-1.6-1.737a1.471 1.471 0 011.052-1.494 1.32 1.32 0 01-.35-.88c0-.68.394-1.296 1.511-1.296.745 0 1.469.352 1.469 1.253 0 .593-.263.923-.833 1.12l.613.814c.26-.308.502-.63.724-.967l.613.747a5.188 5.188 0 01-.701.967l1.008 1.297h-1.696l-.32-.396zM28.099 28a.67.67 0 00-.285.615.675.675 0 00.613.726.945.945 0 00.57-.198L28.1 28zm.591-1.187c.22-.132.373-.22.373-.483a.314.314 0 00-.22-.297.31.31 0 00-.13-.011.332.332 0 00-.33.308v.022c.063.177.169.335.307.461z" fill="#000"/><path d="M32.009 26h2.03l.602 2.443.603-2.443h2.08v4H36v-2.96L35.177 30h-1.093l-.768-2.96V30H32l.009-4zm10.563 0H44v4h-1.428v-4zm2.064 0h1.606l1.375 2.221h.022V26H49v4h-1.562l-1.441-2.383V30h-1.361v-4zm-3.913 0h-1.762l-1.54 4h1.54l.156-.566h1.495l.156.566h1.54l-1.585-4zm-1.267 2.454a.459.459 0 01.018-.233l.312-1.143.312 1.143c.028.069.04.153.032.233-.04.388-.586.367-.674 0zM6 31.078v-6.181L28 21v3.629c-1.052.213-1.613 1.43-1.163 2.381-1 .653-1.124 2.169-.471 3.112.345.5.907.813 1.634.878v4L6 31.078zm2.344-3.049c0-.742.354-1.029.93-1.029.427 0 .738.274.774.647h1.592C11.441 26.207 10.136 26 9.273 26c-.862 0-2.455.117-2.455 2.03 0 1.912 1.593 1.97 2.455 1.97 1.106 0 2.209-.352 2.39-1.588H10.07c0 .38-.425.584-.797.588-.572 0-.929-.35-.929-.97zm3.451 0c0 1.89 1.593 1.971 2.455 1.971.863 0 2.456-.08 2.456-1.97S15.113 26 14.25 26c-.862 0-2.455.117-2.455 2.03zm1.504 0c0-.742.376-1.029.951-1.029s.951.287.951 1.03c0 .742-.376.97-.95.97-.576 0-.952-.228-.952-.97zM17 30h1.409v-1.435h1.017c.266 0 .376.193.376.427 0 .235.023.778.067 1.008h1.548c-.103-.12-.165-.395-.177-.553l-.044-.994a.642.642 0 00-.42-.585.844.844 0 00.575-.833C21.36 26.298 20.7 26 20 26H17v4zm2.404-3c.535 0 .557.665.022.665H18.41V27h.995zm2.256 3h3.827v-1h-2.389v-.52h2.234v-.9h-2.234V27h2.411v-1H21.66v4z" fill="#F6CD55"/></svg>