<!-- by TradingView --><svg width="56" height="56" xmlns="http://www.w3.org/2000/svg"><path fill="#232345" d="M0 0h56v56H0z"/><path d="M15.022 25.162c-.48-10.149 8.557-12.33 13.136-12.152 10.509 0 12.936 8.101 12.836 12.152.288 10.955-7.545 17.685-11.498 19.68-.306.12-1.29.285-2.777 0-1.86-.355-11.097-6.994-11.697-19.68z" fill="#F5A706"/><path d="M15.758 25.375C15.31 15.75 23.774 13.68 28.063 13.85c9.843 0 12.117 7.684 12.023 11.526.27 10.39-7.067 16.774-10.77 18.667-.286.112-1.208.27-2.602 0-1.741-.337-10.394-6.635-10.956-18.667z" fill="#252542"/><path d="M18.108 25.332c-.366-8.105 6.53-9.847 10.024-9.705 8.02 0 9.873 6.47 9.796 9.705.22 8.749-5.758 14.124-8.774 15.718-.234.095-.985.227-2.12 0-1.42-.284-8.468-5.586-8.926-15.718z" fill="#F5A706"/><ellipse cx="26.889" cy="14.659" rx=".603" ry=".596" fill="#F5A706"/><ellipse cx="29.183" cy="14.659" rx=".603" ry=".596" fill="#F5A706"/><ellipse cx="31.476" cy="15.024" rx=".603" ry=".596" fill="#F5A706"/><ellipse cx="24.596" cy="15.024" rx=".603" ry=".596" fill="#F5A706"/><ellipse cx="22.566" cy="15.619" rx=".603" ry=".596" fill="#F5A706"/><ellipse cx="20.668" cy="16.635" rx=".603" ry=".596" fill="#F5A706"/><ellipse cx="33.375" cy="15.619" rx=".603" ry=".596" fill="#F5A706"/><ellipse cx="35.405" cy="16.811" rx=".603" ry=".596" fill="#F5A706"/><ellipse cx="36.934" cy="18.296" rx=".603" ry=".596" fill="#F5A706"/><ellipse cx="38.139" cy="20.276" rx=".603" ry=".596" fill="#F5A706"/><ellipse cx="38.904" cy="22.334" rx=".603" ry=".596" fill="#F5A706"/><ellipse cx="39.14" cy="24.523" rx=".603" ry=".596" fill="#F5A706"/><ellipse cx="39.14" cy="26.764" rx=".603" ry=".596" fill="#F5A706"/><ellipse cx="38.904" cy="28.952" rx=".603" ry=".596" fill="#F5A706"/><ellipse cx="38.539" cy="31.141" rx=".603" ry=".596" fill="#F5A706"/><ellipse cx="37.698" cy="33.121" rx=".603" ry=".596" fill="#F5A706"/><ellipse cx="36.802" cy="35.154" rx=".603" ry=".596" fill="#F5A706"/><ellipse cx="35.596" cy="36.977" rx=".603" ry=".596" fill="#F5A706"/><ellipse cx="34.146" cy="38.775" rx=".603" ry=".596" fill="#F5A706"/><ellipse cx="32.618" cy="40.312" rx=".603" ry=".596" fill="#F5A706"/><ellipse cx="30.983" cy="41.771" rx=".603" ry=".596" fill="#F5A706"/><ellipse cx="29.032" cy="42.963" rx=".603" ry=".596" fill="#F5A706"/><ellipse cx="26.843" cy="42.963" rx=".603" ry=".596" fill="#F5A706"/><ellipse cx="24.972" cy="41.771" rx=".603" ry=".596" fill="#F5A706"/><ellipse cx="23.258" cy="40.312" rx=".603" ry=".596" fill="#F5A706"/><ellipse cx="21.703" cy="38.645" rx=".603" ry=".596" fill="#F5A706"/><ellipse cx="20.498" cy="36.977" rx=".603" ry=".596" fill="#F5A706"/><ellipse cx="19.369" cy="35.153" rx=".603" ry=".596" fill="#F5A706"/><ellipse cx="18.309" cy="33.121" rx=".603" ry=".596" fill="#F5A706"/><ellipse cx="17.492" cy="30.854" rx=".603" ry=".596" fill="#F5A706"/><ellipse cx="16.889" cy="28.733" rx=".603" ry=".596" fill="#F5A706"/><ellipse cx="16.699" cy="26.613" rx=".603" ry=".596" fill="#F5A706"/><ellipse cx="16.699" cy="24.314" rx=".603" ry=".596" fill="#F5A706"/><ellipse cx="17.104" cy="22.194" rx=".603" ry=".596" fill="#F5A706"/><ellipse cx="17.707" cy="20.073" rx=".603" ry=".596" fill="#F5A706"/><ellipse cx="18.912" cy="18.296" rx=".603" ry=".596" fill="#F5A706"/><ellipse cx="27.773" cy="16.838" rx="2.012" ry="1.583" fill="#252542"/><ellipse rx="2.345" ry="1.69" transform="matrix(.43732 -.8993 .90319 .42924 21.014 20.804)" fill="#252542"/><ellipse rx="2.378" ry="1.721" transform="matrix(-.53036 -.84777 .8533 -.52141 22.099 34.687)" fill="#252542"/><ellipse rx="2.285" ry="1.847" transform="matrix(.568 -.82303 -.8292 -.55896 33.776 34.755)" fill="#252542"/><ellipse rx="1.898" ry="1.428" transform="matrix(-.14418 -.98955 .99001 -.14098 19.222 27.503)" fill="#252542"/><ellipse rx="1.769" ry="1.648" transform="matrix(.14422 -.98955 -.99002 -.14094 36.618 27.505)" fill="#252542"/><ellipse rx="2.116" ry="1.539" transform="matrix(-.43742 -.89926 -.90324 .42914 34.928 20.893)" fill="#252542"/><ellipse cx="27.936" cy="40.445" rx="1.687" ry="1.412" fill="#252542"/><path d="M25.247 16.238c-1.803.356-3.322 1.5-3.856 2.029 1.835 0 2.047 1.678 1.923 2.517.044-.202.406-.605 1.503-.605s1.775.743 1.977 1.114c1.055.593 2.042.247 2.404 0 .322-.36 1.14-1.088 1.837-1.114.695-.025 1.256.393 1.45.605 0-2.072.906-2.072 2.661-2.072l-.485-.445c-1.282-1.307-3.372-1.898-4.256-2.03-.034.776-.591 2.356-2.554 2.475-1.963.119-2.554-1.6-2.604-2.474zM21.169 23.41c-1.432.144-2.315-.5-2.578-.84-.267.432-.233 2.14-.182 2.939 1.577-.144 2.072.4 2.123.69-.17-1.512.354-2.49.637-2.789zM34.848 23.275c1.41.287 2.355-.265 2.651-.577.221.456.012 2.15-.12 2.941-1.554-.3-2.103.19-2.183.474.324-1.487-.097-2.511-.348-2.838zM19.372 29.66c.826.053 1.204-.374 1.29-.594 0 1.684.771 2.708 1.157 3.01-.934-.088-1.362.475-1.459.767-.862-1.72-1.017-2.838-.988-3.182zM36.676 29.515c-.905.13-1.36-.312-1.475-.55.153 1.876-.605 3.084-1.002 3.454 1.02-.18 1.543.41 1.677.728.794-1.993.864-3.252.8-3.632zM25.95 39.978c-2.246-1.624-2.884-2.784-3.085-2.916.951 0 1.467-.508 1.607-.762v-1.492c1.285 0 2.002-.614 2.2-.921h2.32c.213.681 1.705.898 2.424.921V36.3c.43.662 1.185.784 1.51.762-.51.663-2.27 2.22-3.086 2.916-.257-.442-1.006-1.325-1.945-1.325-.939 0-1.688.883-1.945 1.325z" fill="#252542"/><path d="M34.74 27.318c.191-5.631-2.704-6.773-4.176-6.64.96 1.631-.55 1.631-.921 1.014h-.984v.452h-1.438v-.452h-.978c-1.556 1.113-1.461-.212-1.22-1.014-1.537 0-4.067 1.876-4.112 6.64-.046 4.765 3.163 7.24 4.112 7.24.76 0 1.13-.7 1.22-1.05h3.254c.217.638.802.966 1.067 1.05 1.312-.067 3.983-1.608 4.175-7.24z" fill="#252542"/><path d="M27.447 25.104h1.3v2.282h1.635v-2.282h1.491v5.61h-1.49v-2.092h-1.637v2.093h-1.299c0 .158-.22.475-1.106.475-1.107 0-2.55-.808-2.742-3.233-.193-2.425 1.683-3.281 2.742-3.281.847 0 1.09.285 1.106.428z" fill="#F5A706"/><path d="M26.911 27.024h.612v1.783h-.612c.064.33.155.987 0 .987-.193 0-1.837.287-1.933-1.942-.078-1.783 1.256-1.974 1.933-1.847v1.02z" fill="#252542"/></svg>