<!-- by TradingView --><svg width="56" height="56" xmlns="http://www.w3.org/2000/svg"><path fill="#F0F3FA" d="M0 0h56v56H0z"/><path d="M33.648 34.92c.292-.078.531-.176.751-.369.068-.328-.267-1.271-.484-1.955.672.074 1.091.35 1.6.255.223-.296.31-.633.471-.97l1.494 1.62c.092.105.318.18.406-.107l-.677-3.399c.545.216.735.632 1.396.663.416-.663.717-1.44 1.126-2.247.276.746.605 1.452.995 2.282.663-.008.94-.417 1.491-.614l-.907 3.373c.079.29.307.222.403.12l1.537-1.57c.15.342.237.745.449 1.048.505.11.998-.21 1.598-.262-.24.676-.607 1.607-.55 1.937.214.199.46.307.738.394-.931.632-2.268 1.835-2.99 2.42-.021.18.01.322.058.461H48s-5.256-20-18.864-20H17.641c11.058 2.417 15.888 20 15.888 20h2.909c.096-.165.178-.324.158-.56-.702-.609-2.038-1.856-2.948-2.52z" fill="#2476B9"/><path d="M8 28c0 5.327 4.11 9.556 9.348 10h9.509c-10.864-2.69-11.914-13.87-4.625-17.978-1.42-.955-2.906-1.643-4.591-2.022C12.26 18.302 8 22.574 8 28z" fill="#010101"/></svg>