<!-- by TradingView --><svg width="56" height="56" xmlns="http://www.w3.org/2000/svg"><path fill="#F0F3FA" d="M0 0h56v56H0z"/><path d="M15.152 21.154c-.51-1.384-1.332-1.899-2.63-1.899-2.262.009-3.27 1.778-3.27 3.666 0 2.32 1.252 3.993 3.283 3.993 1.48 0 2.146-.783 2.899-2.044l.19.036c-.166.517-.443 1.476-.65 1.936a12.11 12.11 0 01-2.401.338C9.354 27.177 8 25.117 8 23.197 8 20.72 10.031 19 12.801 19c.778.015 1.55.12 2.302.312.102.662.153 1.19.222 1.816l-.173.026z" fill="#275499"/><path d="M19.156 20.38c1.807 0 3.33 1.332 3.33 3.283 0 2.08-1.523 3.483-3.54 3.483-2.019 0-3.4-1.432-3.4-3.295 0-1.687 1.2-3.472 3.61-3.472zm.022 6.538c1.257 0 2.293-1.036 2.293-2.886 0-2.168-1.067-3.442-2.61-3.442-1.236 0-2.304 1.055-2.304 2.966 0 1.91 1.034 3.37 2.62 3.37l.001-.008z" fill="#275499"/><path d="M27.367 23.425v-1.457c0-1.074-.084-1.194-.93-1.304v-.14l2.939.005v.14c-.888.109-.972.227-.972 1.303v3.585c0 1.076.084 1.194.95 1.304v.14l-3.001-.005v-.143c.93-.11 1.014-.228 1.014-1.304v-1.82L24 23.733v1.82c0 1.076.084 1.194.95 1.304v.139h-2.899v-.14c.866-.109.95-.227.95-1.303v-3.585c0-1.074-.084-1.194-.992-1.304v-.135h2.899v.14c-.824.109-.908.23-.908 1.303v1.457l3.367-.004z" fill="#275499"/><path d="M30.009 21.972c0-1.074-.084-1.194-.93-1.304v-.139h4.586c0 .169.064.897.115 1.453l-.157.03a2.194 2.194 0 00-.475-.915c-.158-.17-.475-.349-1.279-.349h-.56c-.296 0-.318.02-.318.3v2.426h.931c.908 0 .942-.1 1.152-.844h.158v1.97h-.149c-.106-.378-.168-.586-.317-.696-.149-.11-.38-.14-.835-.14H31v1.912c0 .567.064.805.242.934.222.158.465.158.973.158.602 0 1.11-.158 1.332-.398.246-.3.452-.627.613-.975l.158.03a26.797 26.797 0 01-.371 1.563h-4.972v-.131c.95-.11 1.034-.228 1.034-1.304v-3.585.004z" fill="#275499"/><path d="M40.386 27.066h-.169l-4.746-5.308v2.602a9.43 9.43 0 00.138 1.898c.073.348.36.527 1.057.607v.14H34.12v-.148c.581-.07.856-.26.93-.608a9.43 9.43 0 00.137-1.898v-2.13c0-.844 0-.905-.2-1.124-.2-.22-.486-.349-.94-.422v-.146h1.531l4.521 4.88v-2.243a9.445 9.445 0 00-.137-1.899c-.073-.348-.36-.527-1.057-.607v-.13h2.546v.138c-.581.07-.857.26-.93.608a9.445 9.445 0 00-.137 1.898v3.892h.002zM18.175 34.692c.242.593.957 2.132 2.362 2.132.97 0 1.596-.583 1.596-1.654 0-1.305-1.034-1.718-1.725-2.08-.497-.258-2.106-.852-2.106-2.338.002-1.253.934-2.372 2.597-2.372.728 0 1.15.206 1.531.297.052.453.13.97.222 1.756l-.19.038c-.282-.788-.666-1.783-1.852-1.783-.983 0-1.43.68-1.43 1.486 0 .957.729 1.42 1.699 1.874.97.453 2.17.98 2.17 2.52 0 1.447-1.2 2.57-2.81 2.595a4.775 4.775 0 01-1.866-.498c-.116-.335-.256-1.253-.384-1.937l.186-.036zM28.05 30.01a.56.56 0 00.54-.268h.107c0 .455.064 1.233.115 1.856l-.158.032a3.747 3.747 0 00-.444-1.019c-.168-.214-.395-.364-1.038-.364h-.782v5.182c0 1.16.084 1.287 1.11 1.406v.161h-3.2v-.161c.993-.119 1.08-.246 1.08-1.406v-5.182h-.546c-.942 0-1.134.214-1.291.43a3.473 3.473 0 00-.444.955h-.158c.042-.655.107-1.342.126-1.888h.107c.158.246.306.269.593.269h4.29l-.006-.002zM30 31.563c0-1.163-.134-1.293-.98-1.412V30h4.626c0 .183.064.971.115 1.575l-.157.032a2.45 2.45 0 00-.475-.988c-.158-.183-.475-.377-1.318-.377h-.494c-.295 0-.317.02-.317.325v2.626h.86c.947 0 .98-.108 1.191-.914h.158v2.134h-.158c-.107-.41-.169-.635-.317-.754-.15-.119-.42-.151-.874-.151H31v2.07c0 .615.064.873.242 1.013.222.171.394.171.902.171.64 0 1.149-.171 1.371-.432.246-.324.452-.679.613-1.055l.157.032c-.053.301-.286 1.4-.37 1.693h-4.998v-.144c.95-.119 1.083-.247 1.083-1.412v-3.885.004z" fill="#275499"/><path d="M35 31.563c0-1.163.044-1.293-.801-1.412V30h4.586c0 .183.064.971.115 1.575l-.157.032a2.454 2.454 0 00-.475-.988c-.158-.183-.476-.377-1.279-.377h-.672c-.295 0-.317.02-.317.325v2.626h1.042c.908 0 .941-.108 1.152-.914h.158v2.134h-.158c-.106-.41-.168-.635-.317-.754s-.38-.151-.835-.151H36v2.07c0 .615.064.873.242 1.013.222.171.576.171 1.084.171.602 0 1.11-.171 1.332-.432.246-.324.452-.679.613-1.055l.157.032c-.053.301-.286 1.4-.37 1.693h-4.966v-.144c.95-.119.908-.247.908-1.412v-3.885.004z" fill="#275499"/><path d="M41.002 35.387c0 1.154.212 1.28 1.078 1.398v.16h-2.832v-.16c.887-.117.752-.244.752-1.398v-3.845c0-1.15.146-1.28-.7-1.397V30h2.695c.666 0 1.257.095 1.658.362.222.145.403.347.525.585.122.237.181.504.172.772 0 .853-.54 1.515-1.427 1.877.18.321.613 1.045.93 1.516.294.434.612.85.952 1.248.185.268.466.451.782.511V37c-.127 0-.307 0-.635-.043a1.805 1.805 0 01-.857-.261 1.847 1.847 0 01-.633-.644c-.421-.608-.792-1.291-1.11-1.825-.19-.321-.39-.396-.76-.396H41v1.547l.002.01zm0-1.76h.625c.497 0 .908-.053 1.205-.277.444-.362.613-.887.613-1.473 0-1.174-.77-1.664-1.65-1.664a2.648 2.648 0 00-.698.054c-.064.02-.095.075-.095.287v3.074zM45.504 35.088c.2.492.793 1.763 1.956 1.763.803 0 1.331-.48 1.331-1.36 0-1.078-.856-1.42-1.427-1.721-.413-.213-1.742-.705-1.742-1.935 0-1.038.772-1.955 2.144-1.955.432.017.86.1 1.267.245.043.373.107.802.191 1.454l-.157.032c-.222-.653-.55-1.475-1.532-1.475-.814 0-1.183.555-1.183 1.228 0 .79.602 1.176 1.405 1.55.804.373 1.796.81 1.796 2.084 0 1.196-.992 2.127-2.324 2.147a3.942 3.942 0 01-1.552-.408c-.095-.278-.222-1.037-.317-1.604l.144-.045z" fill="#275499"/><path d="M16.4 32.445v.145c-.776.103-.872.321-1.227.772-.356.45-.619.874-.913 1.302.675.687 1.28 1.441 1.803 2.25l-.051.075a2.718 2.718 0 01-1.217-.437c-.138-.158-.545-.73-.997-1.222-.849 1.157-1.448 1.607-2.242 1.607-1.374 0-2.002-.964-2.002-1.813 0-1.023.83-1.512 1.73-2.045-.641-.47-.961-.93-.961-1.441a1.66 1.66 0 011.647-1.669 1.433 1.433 0 011.4.838c.08.176.125.367.13.56a1.21 1.21 0 01-.438.898c-.18.126-.42.26-.872.521.685.519 1.327 1.09 1.922 1.71.224-.321.417-.664.577-1.022.24-.543.263-.74-.282-.823l-.32-.052v-.154h2.348-.035zm-2.768 2.701a13.959 13.959 0 00-2.169-1.93c-.881.573-1.112.966-1.112 1.647a1.422 1.422 0 00.895 1.33c.176.07.364.103.553.098.776 0 1.394-.563 1.836-1.145h-.003zm-.878-3.817c0-.543-.282-1.125-.932-1.125-.41 0-.85.363-.85 1.042 0 .678.472 1.042.988 1.386.522-.354.794-.711.794-1.303z" fill="#A1A2A2"/></svg>