<!-- by TradingView --><svg width="56" height="56" xmlns="http://www.w3.org/2000/svg"><path fill="#1F8DB8" d="M0 0h56v56H0z"/><path d="M19 29v8h5v-7.5l5.794 7.5h4.054l-.116-.096c-.962-.796-1.864-2.677-2.163-3.838-.195-.758-.238-1.661-.129-2.664.087-.782.203-1.305.535-2.388.166-.541.332-1.19.385-1.511.083-.481.14-1.178.14-1.683 0-.268.01-.317.063-.317.077 0 .28.313.394.608.087.225.201.678.234.92a.268.268 0 00.048.133c.05.05.139.046.172-.008.037-.057.405-1.17.56-1.69.174-.581.317-1.162.408-1.641.121-.649.156-.96.177-1.508l.01-.317H29v7l-5.317-7H19v8zM35.166 21.077c.337.36.813 1.077 1.13 1.706.247.494.522 1.253.64 1.775.037.168.08.319.096.337.02.022.05.032.094.028.057-.006.072-.017.107-.089.057-.116.178-.47.236-.69.077-.301.12-.582.134-.871l.013-.273h.053c.047 0 .063.017.128.12.909 1.477 1.55 3.222 1.79 4.867.064.446.083.647.103 1.106a9.382 9.382 0 01-.686 3.954c-.492 1.193-1.307 2.738-2.271 3.715l-.233.236 1.117.002 1.475-.002c.482-.785 1.079-1.502 1.566-2.292l.442-.719c.531-.86.802-1.305.856-1.395.016-.03.035-.052.042-.052.015 0 .02.011.577.968.656 1.136 1.82 3.49 1.82 3.49h2.894c1.593 0 2.894-.01 2.894-.01s-3.546-5.947-4.65-7.73a29.44 29.44 0 00-.191-.303c-.188-.29-.218-.341-.21-.375.005-.016.332-.516.728-1.11 1.244-1.865 4.275-6.422 4.29-6.448.01-.016-.572-.022-2.887-.022l-2.9.002-.157.262a51.46 51.46 0 01-.538.879c-.075.127-.206.343-.291.48-.083.136-.188.305-.23.377-.043.07-.133.22-.203.332-.069.11-.16.26-.203.332-.044.07-.166.273-.275.45-.107.175-.195.322-.195.326 0 .022-.175.265-.186.262a4.846 4.846 0 01-.216-.338c-.11-.182-.356-.59-.548-.903-.19-.315-.468-.774-.617-1.023l-.347-.572c-.04-.066-.175-.287-.298-.494L39.836 21h-4.743l.073.077z" fill="#fff"/><path d="M34.88 29.478c-.02.013-.02.096-.002.51.05 1.048-.02 2.11-.188 2.893-.087.402-.273.75-.43.802-.191.063-.423-.158-.517-.498-.049-.167-.049-.827-.002-1.095.035-.197.027-.232-.052-.232-.057 0-.068.017-.164.253a4.348 4.348 0 00-.218.78c-.037.213-.03.897.01 1.152.136.818.43 2.006.913 2.749l.135.208H36l.136-.151c.819-.89 1.268-2.286 1.268-3.249 0-.173-.004-.193-.037-.212-.05-.027-.074-.01-.175.124-.113.15-.303.324-.42.383a.416.416 0 01-.2.046c-.094 0-.112-.007-.17-.06-.077-.074-.116-.196-.132-.42-.118-1.629-.537-2.985-1.195-3.861-.094-.126-.142-.157-.195-.122zM11.806 36.596c-2.252 0-4.12-.74-5.603-2.222C4.734 32.879 4 31.02 4 28.798c0-2.222.734-4.073 2.203-5.555C7.686 21.748 9.553 21 11.806 21c1.355 0 2.61.32 3.765.961 1.155.641 2.06 1.503 2.716 2.586l-3.315 1.9c-.285-.526-.713-.94-1.283-1.238-.556-.314-1.184-.47-1.883-.47-1.197 0-2.167.377-2.908 1.132-.727.74-1.091 1.716-1.091 2.927 0 1.21.364 2.193 1.09 2.948.742.74 1.712 1.111 2.91 1.111.698 0 1.325-.15 1.882-.449a3.09 3.09 0 001.283-1.281l3.315 1.922a7.13 7.13 0 01-2.716 2.607c-1.14.627-2.396.94-3.764.94z" fill="#fff"/></svg>