<!-- by TradingView --><svg xmlns="http://www.w3.org/2000/svg" width="56" height="56"><path fill="#063C78" d="M0 0h56v56H0z"/><path fill-rule="evenodd" d="M14 14h28v28H14V14zm11.68 12.58c-.6.27-1.28.42-2 .42A4.6 4.6 0 0119 22.5a4.6 4.6 0 014.69-4.5c.71 0 1.39.15 1.99.42v1.72a3.2 3.2 0 00-2-.7 3.1 3.1 0 00-3.15 3.06 3.1 3.1 0 003.15 3.05 3.2 3.2 0 002-.7v1.73zm-2 11.42c.72 0 1.4-.15 2-.42v-1.72a3.2 3.2 0 01-2 .7 3.1 3.1 0 01-3.15-3.06 3.1 3.1 0 013.15-3.05c.76 0 1.46.26 2 .7v-1.73a4.84 4.84 0 00-2-.42A4.6 4.6 0 0019 33.5a4.6 4.6 0 004.69 4.5zm11.65-13.1a4.4 4.4 0 001.15-2.9h-1.43c0 .7-.52 1.64-.7 1.94l-1.3-1.6c1.15-.58 1.48-1.42 1.48-2.26 0-.83-.63-2.08-2.4-2.08-1.78 0-2.65 1.12-2.65 2.08 0 1.02.65 1.52 1.08 1.85l.12.09A2.52 2.52 0 0029 24.4c-.02.94.73 2.59 2.9 2.59 1.54 0 2.14-.66 2.32-.98l.83.98H37l-1.67-2.1zm-1.95.19l-1.8-2.04c-.87.45-1.04 1.76-.42 2.22.9.67 1.9.12 2.22-.18zm-1.32-3.82c-.25-.17-.76-.62-.76-1.06 0-.55.31-.88.76-.86.45.01.86.18.86.86 0 .5-.57.92-.86 1.06zM37 33.5c0 2.49-1.88 4.5-4.2 4.5-2.32 0-4.2-2.01-4.2-4.5s1.88-4.5 4.2-4.5c2.32 0 4.2 2.01 4.2 4.5zm-1.67 0c0 1.73-1.12 3.14-2.5 3.14-1.4 0-2.52-1.4-2.52-3.14 0-1.73 1.12-3.14 2.51-3.14 1.39 0 2.51 1.4 2.51 3.14z" fill="#fff"/></svg>