<!-- by TradingView --><svg width="56" height="56" xmlns="http://www.w3.org/2000/svg"><path fill="url(#paint0_linear)" d="M0 0h56v56H0z"/><path d="M27.886 12C39.292 12 43.38 22.11 44 27H30.495l6.522-6.758-1.376-1.472L29 25.56V16h-2v9.56l-6.518-6.777-1.508 1.459L25.603 27h-9.589v2h9.436l-6.883 6.668 1.527 1.528L27 30.462V40h2v-9.538l7.16 6.734 1.396-1.528L30.495 29H44c0 4.868-4.243 15.097-16.114 15-11.872-.099-16.343-9.718-15.85-17.328C12.53 19.062 18.17 12 27.886 12z" fill="#fff"/><defs><linearGradient id="paint0_linear" x1="10.418" y1="9.712" x2="68.147" y2="76.017" gradientUnits="userSpaceOnUse"><stop stop-color="#1A1E21"/><stop offset="1" stop-color="#06060A"/></linearGradient></defs></svg>