<!-- by TradingView --><svg width="56" height="56" fill="none" xmlns="http://www.w3.org/2000/svg"><path fill="url(#paint0_linear_3186)" d="M0 0h56v56H0z"/><path fill-rule="evenodd" clip-rule="evenodd" d="M40.892 17.345a4.67 4.67 0 01.06-.308c.017-.051.094-.049.149.004.024.024.076.166.116.316.069.26.082.282.258.444.191.176.22.24.137.308-.038.03-.075.032-.164.005-.064-.02-.121-.03-.128-.022-.036.034.129.18.32.284.233.125.31.221.242.301-.05.06-.168.06-.365.002a.587.587 0 00-.164-.034c-.025.024.266.237.464.34.238.121.277.176.206.283-.065.096-.185.095-.415-.005a.668.668 0 00-.213-.066c-.07.023.406.442.648.572.133.071.259.15.28.174.058.069.01.19-.088.223-.127.043-.256.015-.525-.113-.132-.063-.239-.105-.239-.095 0 .011.051.084.113.162.13.163.374.354.58.454.334.162.432.308.277.414-.14.096-.38.037-.695-.168-.104-.068-.195-.119-.202-.112-.023.022.236.319.375.43.076.062.234.155.351.209.117.053.235.13.262.17.045.067.044.08 0 .149a.266.266 0 01-.116.095c-.077.024-.454-.083-.667-.189-.11-.054-.145-.062-.132-.028.027.068.27.233.61.415.165.088.324.189.355.223.114.13.041.273-.14.271-.061 0-.401-.107-.64-.2-.063-.025-.063-.025-.002.043.034.037.168.119.3.18.278.132.348.184.348.256 0 .14-.197.166-.476.063a.657.657 0 00-.178-.051c-.024.024.27.244.437.328.098.048.186.11.197.138.038.097-.062.2-.196.2-.065 0-.48-.193-.607-.28-.102-.072-.116-.049-.039.064.09.131.211.25.334.327.128.08.18.201.118.274-.092.108-.463.031-.642-.133l-.09-.083.021.54c.026.662.065.769.322.896.088.044.195.09.236.102.074.023.074.023-.02.065-.124.056-.23.056-.395 0-.128-.045-.138-.044-.194.015-.07.073-.095.074-.262.012-.26-.096-.303-.102-.46-.067-.085.019-.163.026-.173.016-.01-.01.039-.087.11-.17a.92.92 0 00.161-.255c.017-.057.04-.373.052-.703l.021-.599-.19.131c-.224.155-.43.196-.56.112-.044-.027-.08-.074-.08-.103 0-.029.105-.15.232-.269.127-.119.248-.247.269-.285.034-.064.022-.061-.184.035-.121.057-.313.12-.426.142-.18.033-.215.031-.284-.013-.078-.05-.1-.126-.055-.19.013-.018.115-.093.228-.167.294-.191.505-.372.625-.537l.105-.144-.24.154c-.383.245-.714.34-.844.242-.05-.039-.066-.086-.06-.182.003-.027.114-.13.249-.229.275-.202.568-.465.706-.636l.093-.114-.301.139c-.375.173-.486.195-.565.109-.099-.107-.046-.195.24-.398.307-.22.611-.476.732-.616l.086-.101-.323.155c-.357.17-.434.184-.519.093-.092-.1-.024-.182.367-.44.305-.201.563-.401.563-.436a2.1 2.1 0 00-.26.094c-.368.145-.528.134-.528-.04 0-.072.017-.086.331-.287a3.31 3.31 0 00.347-.26l.157-.141-.156.063c-.23.093-.403.11-.47.044-.03-.03-.05-.076-.045-.104.005-.027.15-.143.323-.258.395-.262.399-.266.206-.227-.174.035-.259.009-.278-.086-.015-.073.037-.124.23-.23.152-.085.328-.264.293-.299-.008-.008-.068.008-.134.035-.154.063-.268.037-.268-.06 0-.054.045-.099.187-.185.238-.144.311-.262.368-.597zm-15.621 2.171c1.537-1.08 2.982-2.054 3.166-2.135a.595.595 0 01.245-.034c.134.01.309.123 2.19 1.409L33 20.213l.084.06 1.33-.546c1.058-.433 1.355-.544 1.445-.535.084.008.532.27 1.728 1.008 1.375.85 1.614 1.008 1.614 1.069 0 .164-.086.13-1.55-.628-1.664-.86-1.75-.907-1.82-.891l-.023.006c-.043.01-.502.214-1.02.453-.736.34-.943.447-.943.492 0 .128.135.093 1.04-.268.73-.291.912-.353.977-.331.15.05.118.15-.172.533-.35.463-.35.493-.007.513.21.012.291.062.26.16-.028.083-.124.14-.337.201-.193.055-.233.086-.264.21-.03.114.132.283.43.45.128.071 1.21.525 2.406 1.009 1.195.483 2.191.902 2.213.93.055.074.05.115-.026.182-.064.056-.078.053-.906-.215-1.787-.58-3.699-1.27-4.21-1.52-.123-.06-.79-.486-1.483-.947a253.17 253.17 0 00-3.828-2.516c-1.072-.691-1.228-.782-1.34-.783-.112 0-.289.103-1.654.968-2.115 1.34-2.84 1.822-2.828 1.88.014.073.191.076.33.007.066-.033.948-.533 1.96-1.111 1.925-1.1 2.002-1.137 2.082-.99.025.045.01.262-.062.836-.115.939-.116.986-.024 1.09.057.063.106.082.25.092.233.017.31.058.31.164l-.001.024c-.005.095-.072.187-1.105 1.605-1.232 1.691-1.328 1.825-1.425 1.826l-.032-.002c-.073-.007-.111-.033-.141-.094-.037-.076-.019-.17.181-.933.225-.86.252-1.021.184-1.088-.101-.099-.176-.042-1.149.87-.532.5-.992.914-1.022.922-.083.02-.186-.064-.186-.154 0-.043.234-.514.52-1.047.286-.533.52-1.001.52-1.04 0-.096-.075-.154-.167-.131-.04.01-.165.099-.276.198-.626.557-1.893 1.63-2.013 1.706-.197.124-.38.186-1.26.427-1.513.414-2.259.718-3.375 1.375-.524.31-.656.35-.724.225a.214.214 0 01-.018-.135c.01-.039.212-.236.452-.441.239-.204.472-.407.518-.45.172-.161.14-.297-.07-.297-.066 0-.698.133-1.406.296-.708.162-1.414.321-1.57.354-.49.101-.71.068-.667-.102.028-.107.107-.15.525-.285 1.718-.556 3.963-1.563 5.86-2.629.844-.475 2.617-1.591 2.579-1.624-.006-.005-.422-.256-.924-.558-.732-.44-.936-.549-1.024-.548-.084 0-.401.158-1.323.657-.668.36-1.233.674-1.257.695-.052.048-.021.107.056.107.03 0 .466-.196.967-.436.976-.467 1.147-.522 1.274-.41.034.03.062.08.062.11 0 .058-1.445 1.966-1.57 2.075-.08.069-.25.078-.293.015-.038-.056-.02-.205.054-.467.063-.222.043-.296-.07-.256-.032.011-.3.282-.594.601-.541.587-.663.695-.752.661-.087-.032-.087-.125-.002-.333.084-.206.085-.296 0-.296-.04 0-.52.554-1.198 1.381-.154.188-.198.224-.267.216-.069-.008-.083-.027-.091-.124a.593.593 0 01.055-.258c.088-.194.083-.254-.022-.294-.212-.08-.69.029-2.654.605-2.027.595-3.047.878-3.166.878-.199 0-.226-.172-.042-.265.053-.027.396-.152.762-.278.93-.32 1.001-.35.989-.409-.013-.064-.042-.063-1.993.085-.85.065-1.568.111-1.597.104-.075-.019-.1-.103-.047-.155.027-.026.331-.09.766-.162 2.076-.341 3.9-.807 4.978-1.27.14-.06 1.723-.888 3.519-1.839 2.275-1.204 3.294-1.729 3.36-1.729.068 0 .482.216 1.39.724l1.295.724.935-.656zm18.39.486a.644.644 0 01.067-.191c.095-.148.17-.076.232.223a.494.494 0 00.176.316c.193.186.146.274-.093.177-.112-.046.004.103.173.222.116.081.155.127.148.176-.01.069-.071.08-.215.037-.043-.013.006.033.108.1.218.145.255.195.208.282-.041.074-.055.075-.202.015-.062-.025-.114-.035-.114-.02 0 .043.169.181.304.247.145.072.184.135.136.223-.039.071-.104.074-.279.014-.123-.042-.128-.042-.1.01.045.083.259.264.42.357.162.092.184.126.146.225-.018.047-.052.07-.107.07-.085 0-.375-.131-.41-.185-.01-.017-.033-.031-.05-.031-.018 0-.003.04.034.09.06.084.388.314.626.44.111.059.13.146.047.226-.068.066-.212.05-.476-.055-.167-.066-.19-.07-.164-.023.048.088.337.33.538.448.142.085.186.128.186.184 0 .07-.073.17-.125.17-.067 0-.438-.13-.529-.185-.056-.034-.102-.048-.102-.032 0 .054.206.23.45.386.258.164.3.22.242.326-.032.058-.055.064-.175.048-.139-.018-.495-.176-.533-.235-.01-.017-.034-.031-.051-.031-.067 0 .112.192.28.301.2.131.22.164.145.238-.078.076-.257.044-.44-.079l-.149-.1.02.382c.018.335.023.45.082.505.033.03.08.042.156.063.389.106.492.151.503.222.007.051-.01.073-.07.088-.096.023-1.43-.328-2.343-.618-.516-.164-.647-.217-.689-.279-.047-.07-.047-.082.001-.153.028-.042.072-.077.097-.077.026 0 .192.057.37.126.371.145 1.306.46 1.365.46.022 0 .055-.043.073-.095.04-.114.111-.612.09-.633-.008-.008-.1.027-.204.079-.198.098-.348.119-.411.057-.069-.067-.04-.132.097-.216.123-.076.308-.24.27-.24-.009 0-.12.034-.248.077-.292.097-.451.1-.516.01-.071-.1-.016-.165.2-.236.158-.052.537-.264.537-.3a.853.853 0 00-.181.05c-.365.124-.67.109-.67-.032 0-.078.104-.146.315-.206.222-.063.341-.121.45-.22.135-.124.103-.135-.11-.036-.278.128-.497.122-.497-.015 0-.079.062-.14.22-.217.166-.08.427-.279.5-.38l.066-.09-.19.075c-.212.084-.354.075-.408-.024-.047-.086.01-.17.167-.247.158-.077.326-.226.389-.344.05-.095.033-.103-.082-.038-.157.087-.41.035-.41-.085 0-.05.098-.146.148-.146.048 0 .398-.31.375-.331-.007-.007-.056.009-.109.035-.114.058-.23.063-.282.012-.075-.074-.038-.142.128-.234.09-.05.2-.12.244-.154l.079-.064-.158.006c-.141.005-.158-.002-.167-.064-.008-.052.015-.084.09-.124.153-.081.282-.192.282-.242 0-.035-.014-.037-.06-.013-.087.046-.15.04-.172-.015-.013-.032.035-.099.135-.195.115-.108.16-.177.177-.268zM11.546 28a.099.099 0 00-.099.1v.39a.1.1 0 00.1.1h.35a.1.1 0 01.1.1C12 30 12 33 12 34.306a.1.1 0 01-.074.096l-.379.104a.1.1 0 00-.074.097v.296a.1.1 0 00.1.1h1.854a.1.1 0 00.1-.1v-.293a.1.1 0 00-.078-.098 6.733 6.733 0 01-.383-.104.095.095 0 01-.066-.091v-2.227a.1.1 0 01.061-.092l.01-.004c.038-.016.351-.078.694-.139.46-.08.608-.1.638-.075.065.053.506.715.81 1.213.305.502.553 1.103.615 1.32.012.043-.014.082-.057.094l-.316.092a.1.1 0 00-.072.096v.308a.1.1 0 00.1.1h1.843a.1.1 0 00.1-.1v-.31a.1.1 0 00-.07-.095l-.32-.1a.1.1 0 01-.06-.05l-.17-.345c-.324-.662-.65-1.329-1.064-1.939-.38-.561-.385-.57-.316-.611l.335-.196c.834-.481 1.346-1.46.855-2.36-.43-.79-1.286-.894-2.1-.894h-2.971zm3.26.694c.457.104.72.273.862.555.12.24.131.643.03.915-.163.43-.692.8-1.41.984-.283.072-1.077.218-1.2.218A.087.087 0 0113 31.28v-1.32a80.311 80.311 0 010-1.265.1.1 0 01.102-.097h.008c.358.012 1.495.05 1.695.096zm10.639-.594a.1.1 0 01.1-.1h4.509a.1.1 0 01.097.078l.244 1.068c.025.112-.061.166-.262.163-.293-.005-.315-.02-.457-.292-.14-.269-.225-.35-.413-.394-.131-.03-1.744-.01-2.164-.005a.1.1 0 00-.098.1V30.9a.1.1 0 00.1.1h.95l.98.008a.1.1 0 00.09-.055l.05-.1c.087-.172.158-.202.425-.184l.047.004a.1.1 0 01.093.1v1.061a.1.1 0 01-.095.1l-.08.004c-.249.013-.325-.025-.39-.195l-.03-.078a.1.1 0 00-.094-.064l-.985.007-.962.008a.1.1 0 00-.099.1v2.544a.1.1 0 00.1.1h2.51c.171 0 .288-.164.42-.436a1.84 1.84 0 01.152-.266.067.067 0 01.055-.024h.398a.1.1 0 01.099.114l-.165 1.166a.098.098 0 01-.096.086h-4.93a.1.1 0 01-.1-.1v-.304a.1.1 0 01.077-.098l.404-.1a.1.1 0 00.076-.096v-5.6a.1.1 0 00-.08-.099l-.396-.087a.1.1 0 01-.08-.098V28.1zm13.056 0a.1.1 0 01.1-.1h4.526a.1.1 0 01.098.078l.243 1.068c.026.112-.06.166-.26.163-.294-.005-.316-.02-.458-.292-.14-.269-.226-.35-.413-.394-.132-.03-1.818-.01-2.238-.005a.1.1 0 00-.098.1V30.9a.1.1 0 00.1.1h1.008l.995.008a.1.1 0 00.09-.055l.05-.1c.088-.172.16-.202.425-.184l.048.004a.1.1 0 01.093.1v1.061a.1.1 0 01-.095.1l-.08.004c-.25.013-.325-.025-.39-.195l-.03-.078a.1.1 0 00-.095-.064l-1 .007-1.02.008a.1.1 0 00-.099.1v2.544a.1.1 0 00.1.1h2.535c.172 0 .29-.164.421-.436.054-.111.115-.218.152-.266a.067.067 0 01.055-.024h.398a.1.1 0 01.099.114l-.164 1.166a.098.098 0 01-.097.086h-4.9a.1.1 0 01-.099-.1v-.304a.1.1 0 01.076-.098l.348-.1a.1.1 0 00.076-.096v-5.6a.1.1 0 00-.08-.099l-.34-.087a.1.1 0 01-.08-.098V28.1zM31 31.515a3.385 3.385 0 001.85 3.071c.782.39 1.859.52 2.767.334.718-.146 1.384-.374 1.882-.914a.098.098 0 00.026-.066l.004-1.804a.1.1 0 01.058-.09l.353-.16a.1.1 0 00.06-.09v-.246a.1.1 0 00-.1-.1h-2.368a.1.1 0 00-.1.098l-.005.229a.1.1 0 00.08.1l.863.178a.1.1 0 01.08.098v1.529a.086.086 0 01-.017.052c-.09.121-.556.678-1.602.678C33.2 34.422 32 33.101 32 31.515c0-1.515.944-2.624 2.266-2.89.315-.064.88-.049 1.177.031.48.13.88.42 1.094.773.076.126.187.398.236.522.016.038.053.049.094.049h.264c.055 0 .1-.03.1-.085v-1.78a.1.1 0 00-.1-.1h-.278c-.036 0-.07.02-.082.054l-.015.045c-.03.088-.065.195-.119.216-.023.008-.186-.035-.363-.096a4.757 4.757 0 00-1.721-.25c-1.871.078-3.51 1.633-3.553 3.511zm-12.411 2.817c.18-.466 1.63-4.18 2.534-6.052.088-.182.2-.276.316-.28.12-.004.245.089.352.28.036.064.074.14.117.229 1.267 2.606 1.567 3.407 2.246 5.215l.004.011.222.598a.1.1 0 00.065.062l.335.1a.1.1 0 01.071.097v.308a.1.1 0 01-.1.1h-1.856a.1.1 0 01-.1-.1v-.308a.1.1 0 01.071-.096l.338-.1c.032-.01.056-.035.054-.068-.016-.192-.209-.74-.28-.925-.125-.322-.264-.66-.32-.796a.1.1 0 00-.092-.062h-2.412a.1.1 0 00-.093.064l-.655 1.663a.1.1 0 00.073.135l.464.094a.1.1 0 01.08.098v.301a.1.1 0 01-.1.1H18.1a.1.1 0 01-.1-.1v-.304a.1.1 0 01.077-.097l.442-.107a.1.1 0 00.07-.06zm3.71-2.403c.072 0 .12-.072.092-.138-.224-.524-1.017-2.361-1.098-2.361-.081 0-.772 1.848-.963 2.366a.099.099 0 00.094.133h1.875zM44.474 28.1c0-.055.043-.1.098-.1h2.98c.813 0 1.67.105 2.1.893.49.901-.022 1.88-.855 2.361l-.336.196c-.069.04-.064.05.317.611.44.65.792 1.364 1.14 2.07l.105.214a.1.1 0 00.06.05l.32.1c.042.013.097.052.097.096v.309c0 .055-.071.1-.127.1H48.52a.1.1 0 01-.1-.1v-.308a.1.1 0 01.072-.096l.316-.092c.042-.012.069-.051.056-.094-.062-.217-.31-.818-.615-1.32-.304-.498-.745-1.16-.81-1.213-.03-.025-.206-.005-.665.075-.343.06-.656.123-.695.14l-.009.003a.128.128 0 00-.069.106v2.213c0 .041.034.079.073.091.119.038.287.08.384.104a.1.1 0 01.077.098v.293a.1.1 0 01-.1.1h-1.86a.1.1 0 01-.1-.1v-.296a.1.1 0 01.073-.097l.38-.104a.1.1 0 00.073-.096v-.62c0-1.415.002-4.664 0-4.993a.1.1 0 00-.1-.1l-.326-.004a.1.1 0 01-.1-.1v-.39zm4.228 1.149c-.141-.282-.404-.451-.861-.555-.196-.045-1.312-.083-1.701-.096l-.038-.001a.1.1 0 00-.102.096V31.28c0 .047.039.086.087.086.123 0 .953-.146 1.235-.218.718-.183 1.248-.553 1.41-.984.102-.272.09-.675-.03-.915zm-43.94-1.245a.1.1 0 00-.1.083L4.5 29.152c-.01.061.02.117.081.117h.393a.1.1 0 00.089-.053l.114-.213c.122-.228.161-.275.283-.335.133-.067.197-.07.864-.07h.575a.1.1 0 01.101.1v5.611a.1.1 0 01-.072.096l-.36.105a.1.1 0 00-.072.096v.298a.1.1 0 00.101.1H8.434a.1.1 0 00.1-.1v-.297a.1.1 0 00-.073-.096l-.387-.107A.1.1 0 018 34.308v-5.61a.1.1 0 01.1-.1h.542c.68-.01.818.018.953.133.045.038.134.175.198.304l.09.178a.1.1 0 00.09.056h.421a.1.1 0 00.098-.121l-.232-1.065a.097.097 0 00-.096-.08H4.761z" fill="#fff"/><defs><linearGradient id="paint0_linear_3186" x1="10.418" y1="9.712" x2="68.147" y2="76.017" gradientUnits="userSpaceOnUse"><stop stop-color="#1A1E21"/><stop offset="1" stop-color="#06060A"/></linearGradient></defs></svg>