<!-- by TradingView --><svg width="56" height="56" xmlns="http://www.w3.org/2000/svg"><path fill="#3D195B" d="M0 0h56v56H0z"/><path d="M22.996 33.22c3.068 0 5.224-2.156 5.224-5.22 0-3.064-2.165-5.22-5.224-5.22S17.78 24.937 17.78 28c0 3.073 2.147 5.22 5.215 5.22zm0-1.793c-1.76 0-3.156-1.537-3.156-3.427 0-1.899 1.396-3.37 3.156-3.37 1.778 0 3.17 1.48 3.17 3.37-.01 1.899-1.401 3.427-3.17 3.427zM49.03 28.233c-.812 1.016-1.03 1.443-1.03 2.35v2.414h-2v-2.414c0-.907-.256-1.334-1.076-2.35-1.258-1.58-2.27-3.153-2.27-5.236h2.123c0 1.561.69 2.729 1.639 3.92a8.7 8.7 0 01.59.871s.246-.426.59-.87c.938-1.196 1.63-2.362 1.63-3.921h2.066c0 2.082-1.004 3.656-2.262 5.236zM36 33h-2v-8h-3v-2.003h8V25h-3v8zM7.018 28c0 1.895 1.361 3.416 3.128 3.416 1.23 0 2.339-.622 2.849-1.497l1.332 1.123c-.82 1.248-2.159 2.14-4.18 2.14C6.912 33.183 5 30.779 5 28c0-2.778 1.913-5.183 5.146-5.183 2.031 0 3.37.893 4.181 2.14l-1.394 1.183c-.51-.875-1.557-1.513-2.787-1.513-1.776 0-3.128 1.478-3.128 3.373z" fill="#fff"/></svg>