<!-- by TradingView --><svg width="56" height="56" xmlns="http://www.w3.org/2000/svg"><path fill="#F0F3FA" d="M0 0h56v56H0z"/><path d="M37.63 26.155a42.276 42.276 0 00-1.707-.718 21.851 21.851 0 001.708-.383c3.97-1.006 6.506-2.602 5.9-3.615-.606-1.013-3.97-1.053-7.77-.215-.546.12-1.076.255-1.588.399.265-.367.53-.742.768-1.134 1.605-2.64 1.913-4.899.854-5.322-1.059-.423-3.219 1.053-5.072 3.535a17.2 17.2 0 00-.75 1.125c-.12-.415-.265-.798-.428-1.245-1.067-2.808-2.8-4.74-3.944-4.572-1.145.168-1.512 2.49-.632 5.45.136.439.281.87.452 1.285a13.64 13.64 0 00-1.528-.686c-3.672-1.644-7.275-2.275-8.188-1.437-.914.838 1.298 3.032 5.2 4.852.569.26 1.124.5 1.665.718-.64.104-1.315.231-1.998.383-5.123 1.141-9.614 3.192-9.572 4.596.043 1.405 4.927 1.445 10.485 0a38.463 38.463 0 002.11-.598c-.428.502-.855 1.053-1.29 1.596-3.415 4.628-5.337 9.727-3.748 10.62 1.588.894 5.831-3.016 8.87-7.963.385-.63.727-1.237 1.025-1.828.137.623.308 1.27.504 1.948 1.58 5.29 4.508 9.663 6.25 8.984 1.742-.678 1.247-5.745-.675-10.66a28.048 28.048 0 00-.768-1.78c.572.32 1.178.623 1.81.926 4.688 2.202 8.974 2.936 9.392 1.596.419-1.34-2.988-3.91-7.334-5.857z" fill="#44B6E8"/><path d="M25 28a28.52 28.52 0 01-1.593.48 24.592 24.592 0 01-4.55.781c-3.82 2.902-6.477 6.072-5.731 7.283.745 1.21 4.472-.093 8.499-2.691a21.825 21.825 0 012.433-4.558c.317-.463.634-.891.942-1.295zm-1-3.715a22.95 22.95 0 01-1.302-.534 16.672 16.672 0 01-3.076-1.738c-3.882-.106-7.104.435-7.566 1.403-.463.968 2.013 2.027 5.775 2.584a25.232 25.232 0 014.644-1.425c.497-.115 1.037-.206 1.525-.29zM26 21c-.126-.33-.244-.668-.347-1.014a9.403 9.403 0 01-.402-2.626c-1.98-1.745-3.944-2.688-4.803-2.256-.86.433-.45 2.083.962 4.088 1.209.278 2.381.695 3.494 1.242.386.18.749.377 1.096.566zm7 1c.405-.12.843-.233 1.257-.33a17.167 17.167 0 013.373-.465c1.999-1.741 2.85-3.355 2.1-3.949-.75-.594-2.665-.12-4.917 1.068a9.223 9.223 0 01-1.172 2.745c-.22.289-.422.634-.641.931zm-4.346 7c-.218.438-.479.9-.756 1.362a22.412 22.412 0 01-2.775 3.715c-.437 4.736.303 8.807 1.968 8.92 1.664.114 3.186-3.568 3.909-8.02a18.81 18.81 0 01-1.992-4.517 30.02 30.02 0 01-.354-1.46zm.994-8c.168-.314.36-.62.56-.925.51-.773 1.111-1.48 1.792-2.106-.056-2.26-.712-3.868-1.6-3.964-.888-.097-1.848 1.214-2.4 3.28a10.24 10.24 0 011.328 2.686c.12.337.224.683.32 1.029zm15.343 5.385c-.164-.926-2.674-1.876-5.997-2.385-1.136.567-2.349 1-3.61 1.289a23.48 23.48 0 01-1.384.293c.45.154.865.34 1.367.54a21.66 21.66 0 013.48 1.876c3.73.046 6.326-.618 6.144-1.613zM33 28c.19.406.37.828.543 1.28.486 1.257.828 2.56 1.02 3.884 3.133 2.89 6.258 4.536 7.17 3.548.914-.988-.616-3.716-3.133-6.559a19.8 19.8 0 01-4.243-1.479c-.502-.237-.946-.444-1.357-.674z" fill="#248DCD"/><path d="M38.935 29.584a21.374 21.374 0 00-3.507-1.909 21.752 21.752 0 00-1.359-.558c.456-.078.912-.173 1.376-.29a15.832 15.832 0 003.619-1.313c1.006-.55 1.504-1.107 1.264-1.524-.241-.416-1.333-.66-2.803-.612-1.16.046-2.312.198-3.438.455-.447.095-.86.205-1.281.322.223-.29.43-.597.627-.911a8.677 8.677 0 001.204-2.687c.189-.856.069-1.477-.387-1.658-.456-.18-1.333.142-2.235.872-.738.61-1.387 1.3-1.934 2.059a9.89 9.89 0 00-.602.911c-.095-.33-.206-.668-.335-.998a9.724 9.724 0 00-1.496-2.631c-.628-.786-1.272-1.187-1.78-1.1-.507.086-.86.785-.86 1.83.01.89.158 1.773.44 2.624.111.346.24.684.378 1.014a22.807 22.807 0 00-1.195-.566 18.633 18.633 0 00-3.834-1.25c-1.316-.258-2.339-.235-2.708.127-.37.36.06 1.178 1.152 2.026a16.61 16.61 0 003.086 1.792c.438.204.86.385 1.306.55-.49.086-1.005.18-1.538.298a24.812 24.812 0 00-4.651 1.47c-1.539.675-2.501 1.398-2.441 1.956.06.558 1.41.887 3.36.785a26.372 26.372 0 004.557-.73c.559-.142 1.1-.291 1.599-.448-.31.377-.628.786-.946 1.21a19.965 19.965 0 00-2.441 4.258c-.628 1.571-.722 2.82-.069 3.143.653.322 2.115-.456 3.593-1.94a21.854 21.854 0 002.837-3.6c.284-.447.55-.895.774-1.32.103.457.232.928.387 1.415a17.74 17.74 0 002.011 4.345c.92 1.39 1.892 2.2 2.58 1.956.687-.244.988-1.666.73-3.512a18.02 18.02 0 00-1.058-3.983c-.18-.464-.37-.896-.567-1.312.43.236.86.463 1.384.691a20.979 20.979 0 004.47 1.517c1.496.298 2.58.227 2.768-.299.19-.526-.601-1.461-2.037-2.475z" fill="#fff"/></svg>