<!-- by TradingView --><svg xmlns="http://www.w3.org/2000/svg" width="56" height="56"><path fill="#0056D2" d="M0 0h56v56H0z"/><path d="M11.36 27.98a3.21 3.21 0 013.28-3.14c1.84 0 3.3 1.4 3.3 3.14a3.23 3.23 0 01-3.3 3.17 3.23 3.23 0 01-3.28-3.17zm5 0a1.7 1.7 0 00-1.72-1.63c-.93 0-1.7.76-1.7 1.63 0 .89.77 1.66 1.7 1.66a1.7 1.7 0 001.72-1.66zm28.1.06c0-1.91 1.58-3.2 3.01-3.2.98 0 1.54.29 1.91.85l.15-.69H51v6h-1.47l-.18-.6c-.43.47-.97.75-1.88.75-1.4 0-3-1.22-3-3.11zm5-.02a1.7 1.7 0 00-1.7-1.67c-.95 0-1.76.76-1.76 1.68 0 .85.8 1.6 1.75 1.6.94 0 1.71-.75 1.71-1.6zm-6.8-2.37V25H41v6h1.66v-3.25c0-.98.5-1.5 1.35-1.5l.17.02.3-1.47c-.84 0-1.44.28-1.82.85zm-16.1 0V25H25v6h1.58l-.01-3.25c0-.98.49-1.5 1.35-1.5l.16.01.3-1.47c-.84.01-1.44.3-1.82.87zm-8.07 3.03V25H20v3.48c0 .78.54 1.25 1.3 1.25.87 0 1.36-.52 1.36-1.5V25h1.6v6h-1.6v-.67c-.38.57-.99.85-1.83.85-1.44 0-2.34-1.02-2.34-2.5zm15.6-.69c0-1.7 1.25-3.16 3.21-3.15a3.07 3.07 0 013.07 3.63l-4.72-.01c.19.73.8 1.25 1.72 1.25.56 0 1.16-.2 1.53-.66l1.09.86a3.2 3.2 0 01-2.6 1.24c-1.87 0-3.3-1.38-3.3-3.16zm4.7-.63c-.08-.61-.73-1.09-1.5-1.09-.74 0-1.34.43-1.58 1.08l3.09.01zm-10.4 2.35l1.42-.74c.24.5.7.8 1.37.8.62 0 .85-.2.85-.46 0-.98-3.37-.39-3.37-2.62 0-1.24 1.1-1.9 2.46-1.9 1.03 0 1.95.46 2.44 1.3l-1.4.73c-.22-.42-.6-.65-1.1-.65-.49 0-.72.17-.72.45 0 .95 3.37.35 3.37 2.62 0 1.19-.98 1.9-2.56 1.9-1.35 0-2.3-.43-2.76-1.43zM5 27.98a3.21 3.21 0 013.28-3.16c1.12 0 2.16.54 2.78 1.45l-1.37.78a1.7 1.7 0 00-1.4-.72c-.95 0-1.71.77-1.71 1.65a1.72 1.72 0 103.15.87l1.35.8a3.32 3.32 0 01-2.8 1.5A3.23 3.23 0 015 27.98z" fill="#fff"/></svg>