<!-- by TradingView --><svg xmlns="http://www.w3.org/2000/svg" width="56" height="56"><path fill="url(#agwcda0nz)" d="M0 0h56v56H0z"/><path d="M9.17 25.29c1.05 0 2.07.36 2.9 1.01l-.29-1.65A5.95 5.95 0 008.87 24C6.28 24 4 25.84 4 28.5c-.07 2.66 2.3 4.56 4.83 4.5 1.03 0 2.08-.22 3-.69l.27-1.7A5.04 5.04 0 019 31.68c-1.77 0-3-1.5-3-3.24a3.15 3.15 0 013.17-3.15zm12.98-.55l.21.6L24.75 33h1.76L28 28.55 29.3 33h1.78l2.58-9h-2.1a.63.63 0 01.32.66l-.07.52a9.7 9.7 0 01-.25 1l-1.2 4.46L28.68 24H26.4c.18.1.31.25.41.43.22.4.34.82.46 1.24l.06.22-1.43 4.88L23.95 24H21.6c.26.2.43.43.55.74zM37 29c1.16 0 2.45 0 3.53.13v-1.4c-1.08.12-2.33.12-3.53.12v-2.53h3.2c.38 0 .82.07 1.13.3L41 24h-6.35c.32.27.37.73.34 1.13v6.76c.03.4-.02.84-.34 1.11h6.55l.32-1.65c-.34.22-.72.3-1.12.3H37V29zm12.55 1.11L45.09 24h-2.41c.32.27.35.73.32 1.13v6.74c0 .4 0 .86-.32 1.13h2.16c-.3-.27-.36-.73-.36-1.13v-5.62L49.43 33H51v-7.87c0-.44.05-.83.4-1.13h-2.2c.3.29.35.73.35 1.13v4.98zM22 28.49a4.4 4.4 0 01-2.7 4.18 5.08 5.08 0 01-3.64-.02A4.38 4.38 0 0113 28.5c0-1.83 1.03-3.49 2.7-4.16a5.08 5.08 0 013.6 0A4.42 4.42 0 0122 28.5zm-7-.06c-.04 1.2.37 2.53 1.45 3.11.64.33 1.41.33 2.1 0 1.1-.6 1.45-1.96 1.45-3.11.04-1.2-.4-2.46-1.47-3.03a2.37 2.37 0 00-2.05 0c-1.08.58-1.48 1.83-1.48 3.03z" fill="#fff"/><defs><linearGradient id="agwcda0nz" x1="10.42" y1="9.71" x2="68.15" y2="76.02" gradientUnits="userSpaceOnUse"><stop stop-color="#1A1E21"/><stop offset="1" stop-color="#06060A"/></linearGradient></defs></svg>