<!-- by TradingView --><svg width="56" height="56" xmlns="http://www.w3.org/2000/svg"><path fill="#113D67" d="M0 0h56v56H0z"/><path d="M12 26.497v.974c3.326-1.286 6.7-2.07 9.919-2.534-2.967-.076-6.475.425-9.919 1.56z" fill="#fff"/><path d="M30.2 27.513c-.785-.564-1.607-1.078-2.67-1.51.356-.023.723-.08 1.14-.1.663.435 1.555 1.128 2.083 1.788l-.553-.178zm-7.31-4.054c-.817-.305-1.783-.51-2.743-.645.415-.091.822-.17 1.286-.226a9.4 9.4 0 012.41 1.019l-.953-.148zM12 21.367c.896-.027 1.938.27 3.046.415l-1.948.248c-.333.014-.723.035-1.098.072v.444a26.207 26.207 0 014.407-.444c12.55-2.977 22.946-.174 22.946-.174-2.23-.506-14.677-2.192-27.353 2.758v.752c1.882-.633 3.888-1.121 5.79-1.345 2.82-.346 5.443-.192 7.65.43 9.277-.66 15.999 1.316 15.999 1.316-2.524-.41-16.084-2.24-29.439 3.832v.603c3.697-1.757 7.592-2.788 10.898-3.004 3.35-.18 6.348.295 8.602 1.628 5.313-.081 9.236.602 11.5 1.15V13H12v8.367z" fill="#fff"/><path d="M12 31.52v1.883c5.464-2.641 11.053-3.915 15.906-4.33-4.434-.78-10.135.042-15.906 2.447zm23.897 2.225c-.943-1.383-2.136-2.427-3.792-3.227.495-.059 1.118-.076 1.582-.098.166.122.324.273.473.457.057.082 1.902 1.889 2.52 3.728l-.783-.86zM12 35.868v.782c.375-.213.77-.415 1.124-.605 2.795-1.494 5.588-2.534 8.38-3.168 2.642-.626 5.23-.848 7.596-.639 4.472.4 7.684 2.342 9.232 5.696.014.025 1.119 2.488 1.225 4.811l-.537-1.33c-.141-.663-.324-1.346-.674-1.957-1.146-2.214-3.38-3.803-6.392-4.735-2.735-.859-6.328-.897-10.055-.172C18.59 35.175 15.204 36.422 12 38v6h.31c1.923-1.421 4.016-2.627 6.172-3.478 5.651-2.416 11.148-3.148 15.274-2.06 3.029.862 5.008 2.804 5.814 5.538H43V30.295c-5.09-.576-18.547-1.51-31 5.573z" fill="#fff"/><path d="M33.157 40.635c-2.7-.712-5.804-.754-9.247-.12-3.072.558-6.292 1.758-9.387 3.485h23.626c-1.1-1.595-2.852-2.78-4.992-3.365z" fill="#fff"/></svg>