<!-- by TradingView --><svg width="56" height="56" fill="none" xmlns="http://www.w3.org/2000/svg"><path fill="#F0F3FA" d="M0 0h56v56H0z"/><path d="M6.208 30c-.685 0-1.225-.184-1.62-.551-.392-.37-.588-.874-.588-1.51 0-.215.038-.432.113-.653.094-.29.24-.536.435-.74.35-.364.848-.546 1.494-.546.261 0 .498.02.71.061.225.044.377.063.485.07.042.003.063.022.063.056 0 .27.01.543 0 .813-.003.071-.02.1-.045.1-.026 0-.048-.029-.048-.1a.66.66 0 00-.22-.515c-.219-.194-.545-.291-.98-.291-.502 0-.878.124-1.126.372-.293.296-.44.74-.44 1.332 0 .503.163.937.49 1.3.342.378.768.567 1.277.567.412 0 .696-.085.852-.255.089-.095.149-.238.182-.429.01-.05.026-.076.049-.076.022 0 .034.026.034.076 0 .028-.012.12-.034.276-.027.177-.051.303-.074.378a.212.212 0 01-.127.148c-.183.078-.477.117-.882.117zM7.94 27.995c0-.486.154-.922.46-1.306.363-.46.853-.689 1.47-.689.561 0 1.02.17 1.376.51.365.35.548.818.548 1.403 0 .585-.178 1.075-.534 1.47-.369.411-.842.617-1.42.617-.62 0-1.105-.22-1.454-.658-.297-.374-.446-.823-.446-1.347zm.465-.143c0 .585.152 1.06.456 1.423.29.354.66.531 1.111.531.324 0 .604-.105.843-.316.34-.306.509-.784.509-1.434 0-.585-.152-1.053-.456-1.403a1.313 1.313 0 00-1.033-.48c-.424 0-.765.14-1.023.419-.271.3-.407.72-.407 1.26zM12.726 26.8v2.46c0 .13-.002.266.025.393.045.253.2.275.411.275.026 0 .04.01.04.031 0 .027-.03.04-.089.04h-.347H12.423h-.299c-.052 0-.078-.013-.078-.04 0-.02.013-.03.039-.03.209 0 .315-.074.338-.307.006-.05.01-.171.01-.362l.004-3.005c0-.17.018-.255.054-.255.016 0 .073.054.17.163.903 1.02 1.777 2.023 2.68 3.041v-2.633a1.12 1.12 0 00-.044-.352c-.049-.146-.278-.148-.396-.148-.027 0-.04-.012-.04-.035 0-.024.033-.036.098-.036H15.895c.058 0 .088.012.088.036 0 .023-.018.035-.054.035-.095 0-.232.021-.27.128-.02.061-.029.172-.029.332l-.01 3.107c0 .241-.014.362-.044.362-.026 0-.145-.109-.357-.327-.886-.914-1.666-1.9-2.493-2.873zM17.905 29.046v-.52c0-.18-.037-.36-.112-.536-.02-.041-.149-.264-.387-.669a31.441 31.441 0 00-.475-.8 1.28 1.28 0 00-.333-.368.382.382 0 00-.21-.082c-.033 0-.05-.012-.05-.035 0-.024.022-.036.064-.036H17.302c.025 0 .091.02.05.05a.51.51 0 01-.055.032c-.046.02-.069.05-.069.091 0 .052.018.108.06.19.288.547.588 1.084.901 1.611.043-.095.178-.35.407-.765.199-.367.334-.612.406-.735a.494.494 0 00.083-.25c0-.078-.026-.124-.078-.137-.049-.017-.073-.036-.073-.056 0-.02.026-.031.078-.031h.798c.043 0 .064.01.064.03 0 .028-.021.041-.064.041a.403.403 0 00-.225.062 1.283 1.283 0 00-.26.26c-.078.098-.243.366-.494.8-.248.436-.395.71-.44.822a1.416 1.416 0 00-.074.51v.52c0 .242.005.468.015.593.012.134.058.252.2.27.095.014.168.02.22.02.027 0 .04.01.04.031 0 .027-.027.04-.079.04h-1.082c-.052 0-.078-.013-.078-.04 0-.02.014-.03.044-.03.182 0 .282-.09.294-.291.01-.147.014-.398.014-.592zM20.698 28.449v-.898c0-.622-.003-1.071-.01-1.184-.01-.163-.08-.25-.21-.28a.777.777 0 00-.167-.016c-.026 0-.039-.01-.039-.03 0-.027.026-.041.079-.041h1.951c.062 0-.032.473-.042.571-.006.038-.018.056-.034.056-.026 0-.04-.022-.04-.066a.487.487 0 00-.029-.183c-.039-.092-.155-.15-.347-.174a8.328 8.328 0 00-.671-.015c-.02 0-.03.017-.03.05v1.49c0 .035.01.052.03.052.444 0 .703-.004.778-.01.121-.01.2-.036.235-.077.036-.041.06-.061.069-.061.016 0 .024.013.024.04 0 .11-.038.71-.093.71-.022 0-.034-.016-.034-.046a.609.609 0 00-.02-.169c-.029-.102-.114-.161-.254-.178a6.97 6.97 0 00-.7-.026c-.023 0-.035.012-.035.036v1.393c.015.39.24.418.568.418.332 0 .623-.021.69-.423.01-.051.025-.077.045-.077.02 0 .03.026.03.077 0 .156-.022.306-.064.48-.036.141-.143.132-.265.132h-.832-.857c-.052 0-.078-.014-.078-.04 0-.021.014-.032.044-.032a.72.72 0 00.142-.02c.075-.017.122-.11.142-.28.016-.133.024-.574.024-1.18zM23.67 28.449v-.898c0-.622-.013-1.076-.02-1.189-.01-.163-.08-.245-.21-.275a.777.777 0 00-.167-.016c-.026 0-.039-.01-.039-.03 0-.027.026-.041.078-.041h1.131c.399 0 .697.075.897.224.225.17.347.473.347.766 0 .405-.197.797-.592 1.178.335.445.645.969 1.018 1.378.19.21.389.333.598.367.062.01.125.015.19.015.03 0 .045.01.045.031 0 .027-.04.04-.118.04h-.348c-.235 0-.41-.031-.524-.096a1.08 1.08 0 01-.303-.276c-.33-.384-.593-.884-.891-1.3a.087.087 0 00-.064-.031l-.602-.01c-.023 0-.035.013-.035.04v.123c0 .588.009 1.044.025 1.194.02.17.083.248.191.265.095.014.168.02.22.02.026 0 .04.01.04.031 0 .027-.027.04-.079.04h-1.062c-.053 0-.079-.013-.079-.04 0-.02.015-.03.044-.03a.72.72 0 00.142-.021c.075-.017.123-.095.142-.265.017-.133.025-.589.025-1.194zm.382-2.21l.01 1.756c0 .027.011.047.034.061.088.054.26.082.514.082a.624.624 0 00.367-.097c.2-.143.299-.405.299-.786 0-.32-.087-.641-.24-.821-.15-.18-.356-.27-.617-.27-.153 0-.263-.006-.328.015-.026.01-.04.03-.04.06zM27.844 30c-.258 0-.476-.046-.656-.138-.049-.024-.073-.088-.073-.194 0-.292.01-.486.03-.581.006-.028.017-.041.034-.041.022 0 .034.018.034.056 0 .075.005.138.014.189.069.347.31.52.725.52a.673.673 0 00.529-.22.659.659 0 00.171-.459.807.807 0 00-.122-.448c-.078-.13-.225-.286-.44-.47l-.221-.189c-.245-.21-.416-.408-.514-.591a1.078 1.078 0 01-.123-.516c0-.275.092-.496.274-.663.183-.17.43-.255.74-.255.16 0 .312.017.455.051a.789.789 0 00.172.026c.032 0 .049.011.049.035a6.864 6.864 0 00-.02.54c0 .08-.011.118-.034.118-.023 0-.036-.022-.04-.066a.682.682 0 00-.063-.255c-.095-.18-.299-.27-.612-.27a.6.6 0 00-.431.163.555.555 0 00-.171.428c0 .147.04.28.122.398.082.116.24.269.475.46l.137.112c.278.228.468.435.573.622.095.167.142.359.142.577 0 .36-.139.642-.416.847-.196.142-.442.214-.74.214zM33.446 28.405v-.914c0-.634-.004-1.008-.01-1.122-.01-.166-.084-.25-.22-.28a.832.832 0 00-.175-.016c-.027 0-.041-.01-.041-.031 0-.028.027-.042.082-.042h1.224c.43 0 .748.099.953.296.17.163.256.353.256.603 0 .367-.12.665-.358.893-.236.229-.537.343-.902.343a.692.692 0 01-.108-.005c-.037 0-.056-.012-.056-.037 0-.03.046-.046.138-.046.25 0 .46-.082.63-.244a.8.8 0 00.256-.603c0-.336-.095-.587-.286-.784-.168-.174-.402-.26-.702-.26-.1 0-.173-.005-.22.015-.028.01-.041.044-.041.1v2.134c0 .6.012 1.063.029 1.216.02.173.087.268.2.286.099.013.175.02.23.02.027 0 .04.01.04.031 0 .028-.026.042-.081.042h-1.122c-.054 0-.082-.014-.082-.042 0-.02.016-.03.046-.03a.779.779 0 00.149-.021c.078-.018.128-.113.148-.286.017-.135.023-.6.023-1.216zM35.8 29.429l1.163-3.226c.047-.136.085-.203.112-.203.028 0 .065.062.113.187.294.783.691 1.827 1.194 3.133.136.346.295.541.476.587a.73.73 0 00.169.02c.034 0 .051.01.051.031 0 .028-.034.042-.102.042h-.804c-.1 0-.154-.026-.154-.047 0-.017.012-.03.036-.036.05-.014.061-.06.03-.14l-.476-1.278c-.01-.021-.026-.031-.046-.031H36.46c-.024 0-.041.013-.052.041l-.307.92a1.147 1.147 0 00-.072.348c0 .1.065.15.195.15h.051c.034 0 .051.01.051.031 0 .028-.025.042-.076.042h-.979c-.065 0-.097-.014-.097-.042 0-.02.015-.03.046-.03.048 0 .097-.004.149-.011.177-.024.32-.187.43-.488zm.717-1.148h.978c.02 0 .028-.013.02-.037l-.486-1.402c-.013-.038-.027-.058-.04-.058-.011 0-.023.02-.037.058l-.45 1.402c-.007.024-.002.037.015.037zM39.637 28.42v-.914c0-.633-.004-1.007-.01-1.122-.01-.166-.084-.265-.22-.296a.833.833 0 00-.175-.015c-.027 0-.041-.01-.041-.031 0-.028.027-.042.082-.042h1.183c.417 0 .73.076.938.229a.83.83 0 01.353.706c0 .412-.207.812-.62 1.2l.579.748c.195.25.357.516.487.655.198.214.406.34.625.374.064.01.13.015.2.015.03 0 .045.01.045.031 0 .028-.04.042-.123.042h-.363c-.246 0-.429-.033-.548-.099a1.12 1.12 0 01-.318-.28 10.183 10.183 0 01-.374-.483c-.15-.212-.336-.54-.558-.842a.092.092 0 00-.067-.031l-.63-.01c-.024 0-.036.013-.036.041v.125c0 .599.009 1.047.026 1.2.02.173.087.268.2.286.099.013.176.02.23.02.027 0 .041.01.041.031 0 .028-.027.042-.082.042H39.35c-.055 0-.082-.014-.082-.042 0-.02.015-.03.046-.03a.779.779 0 00.148-.021c.079-.018.128-.113.149-.286.017-.135.026-.584.026-1.2zm.41-2.16v1.698c0 .028.011.049.035.063.092.055.272.083.538.083.16 0 .289-.033.384-.099.209-.145.313-.412.313-.8 0-.325-.08-.58-.241-.763-.157-.184-.372-.276-.645-.276-.161 0-.275.01-.344.031-.027.01-.04.032-.04.063zM43.655 28.494v-.915c0-.634-.003-1.09-.01-1.205-.01-.166-.084-.255-.22-.286a.833.833 0 00-.174-.015c-.028 0-.041-.01-.041-.031 0-.028.027-.042.081-.042h1.06c.055 0 .083.014.083.042 0 .02-.014.03-.041.03a.814.814 0 00-.128.016c-.116.021-.18.11-.19.286-.007.114-.01.572-.01 1.205v.312h.02c.338-.353.738-.855 1.2-1.34.184-.198.266-.312.266-.364 0-.055-.023-.092-.067-.11-.03-.01-.046-.023-.046-.04 0-.025.02-.037.061-.037h.886c.052 0 .077.012.077.036 0 .025-.017.037-.051.037a.72.72 0 00-.292.078c-.113.048-.295.185-.548.43-.628.61-1.004 1.073-1.127 1.222.075.086.3.325.676.716.393.41.637.659.733.748.232.219.382.355.45.41.093.074.197.134.313.183a.805.805 0 00.317.067c.045 0 .067.01.067.031 0 .028-.038.042-.113.042h-.26c-.165 0-.283-.003-.354-.01a.776.776 0 01-.328-.1 3 3 0 01-.292-.217c-.11-.09-.369-.357-.779-.8a22.554 22.554 0 01-.783-.889h-.026v.51c0 .599.009.974.026 1.127.02.173.087.268.2.286.098.013.163.02.194.02.03 0 .046.01.046.031 0 .028-.027.042-.082.042h-1.08c-.055 0-.083-.014-.083-.042 0-.02.016-.03.047-.03a.779.779 0 00.148-.021c.079-.018.128-.113.149-.286.017-.135.025-.511.025-1.127zM48.56 27.534v.932c0 .61.005.993.017 1.148.014.176.06.273.137.29.068.015.121.022.159.022.018 0 .028.01.028.032 0 .028-.019.042-.057.042h-.777c-.038 0-.056-.014-.056-.042 0-.021.01-.032.031-.032a.37.37 0 00.102-.021c.054-.018.088-.115.102-.291.012-.138.018-.52.018-1.148v-.932c0-.645-.003-1.026-.007-1.142-.007-.17-.047-.268-.12-.297a.33.33 0 00-.109-.02c-.019 0-.028-.011-.028-.033 0-.028.019-.042.056-.042h.7c.038 0 .057.014.057.042 0 .021-.01.032-.028.032a.39.39 0 00-.088.016c-.08.021-.123.122-.13.302-.005.116-.008.497-.008 1.142zM50.11 27.534v.932c0 .61.005.993.017 1.148.014.176.06.273.137.29.068.015.12.022.158.022.019 0 .028.01.028.032 0 .028-.018.042-.056.042h-.777c-.038 0-.057-.014-.057-.042 0-.021.01-.032.032-.032a.371.371 0 00.102-.021c.054-.018.088-.115.102-.291.012-.138.017-.52.017-1.148v-.932c0-.645-.002-1.026-.007-1.142-.007-.17-.046-.268-.12-.297a.33.33 0 00-.108-.02c-.019 0-.028-.011-.028-.033 0-.028.018-.042.056-.042h.7c.038 0 .056.014.056.042 0 .021-.009.032-.028.032a.39.39 0 00-.088.016c-.08.021-.123.122-.13.302-.005.116-.007.497-.007 1.142zM51.659 27.534v.932c0 .61.006.993.017 1.148.014.176.06.273.137.29.069.015.121.022.159.022.019 0 .028.01.028.032 0 .028-.019.042-.056.042h-.778c-.037 0-.056-.014-.056-.042 0-.021.01-.032.032-.032a.37.37 0 00.101-.021c.054-.018.088-.115.103-.291.011-.138.017-.52.017-1.148v-.932c0-.645-.002-1.026-.007-1.142-.007-.17-.047-.268-.12-.297a.33.33 0 00-.109-.02c-.018 0-.028-.011-.028-.033 0-.028.019-.042.057-.042h.7c.037 0 .056.014.056.042 0 .021-.01.032-.028.032a.39.39 0 00-.088.016c-.08.021-.123.122-.13.302-.005.116-.007.497-.007 1.142z" fill="#3D3D3D"/><path d="M31.476 28c0 2.21-.106 4-.238 4-.131 0-.238-1.79-.238-4s.107-4 .238-4c.132 0 .238 1.79.238 4z" fill="#0655B9"/></svg>