<!-- by TradingView --><svg width="56" height="56" xmlns="http://www.w3.org/2000/svg"><path fill="#002856" d="M0 0h56v56H0z"/><path d="M25 33.81V20h-2v14.546c0 .79.642 1.454 1.433 1.454H28v-2h-2.8c-.105 0-.2-.084-.2-.19zM31 33.81V20h-2v14.546c0 .79.642 1.454 1.433 1.454H34v-2h-2.8c-.105 0-.2-.084-.2-.19zM49 20v9.357L46 20h-2v16h2.006v-8.816L48.576 36H51V20h-2zM8.99 33.8a.2.2 0 01-.2.2H7.2a.2.2 0 01-.2-.2V22.2a.2.2 0 01.2-.2h1.6a.2.2 0 01.2.2V25h2l.01-3.515c0-.821-.663-1.485-1.485-1.485h-3.04C5.664 20 5 20.664 5 21.485l.01 13.03c0 .821.664 1.485 1.486 1.485h3.019c.821 0 1.485-.664 1.485-1.485V31H9l-.01 2.8zM40.518 20H37.5c-.821 0-1.5.664-1.5 1.485l.01 13.03c0 .821.669 1.485 1.49 1.485h3.008c.821 0 1.485-.664 1.485-1.485l.01-13.03c0-.821-.663-1.485-1.485-1.485zm-.528 13.8a.2.2 0 01-.2.2H38.22a.2.2 0 01-.2-.2l-.02-11.6a.2.2 0 01.2-.2h1.6a.2.2 0 01.2.2l-.011 11.6zM19.642 21.812l-.043-.453A1.48 1.48 0 0018.125 20H16.45c-.769 0-1.412.59-1.475 1.348l-.042.453L14.291 29h-1.292v2h1.123l-.453 5h2.075l.453-5h2.191l.453 5h2.064l-.453-5h1.043v-2h-1.2l-.654-7.188zM16.355 29l.632-6.82c.01-.096.095-.18.19-.18h.22c.096 0 .18.074.19.18L18.22 29h-1.865z" fill="#fff"/></svg>