<!-- by TradingView --><svg xmlns="http://www.w3.org/2000/svg" width="56" height="56"><path fill="#F9BF3C" d="M0 0h56v56H0z"/><path fill-rule="evenodd" d="M28 46a18 18 0 100-36 18 18 0 000 36zm0 1a19 19 0 100-38 19 19 0 000 38zm-1.4-26.05c1.22.8 1.27 1.51 1.1 2.14-.2.79-1.13 1.4-2.13 1a7.05 7.05 0 00-3.03-.59C21 23.5 18 24.58 18 28c0 4.22 4.2 4.5 4.77 4.5.7 0 1.66-.22 2.44-.66.78-.44 1.89-.42 2.5.38.61.8.12 1.79-.2 2.12-1.28 1.37-3.61 1.68-4.94 1.66-7.56-.13-8.87-6.06-8.52-8.74.82-6.4 5.96-7.26 8.72-7.26a7 7 0 013.83.95zM29 22c0-1.1.9-2 2-2h5.5a5.5 5.5 0 010 11H33v3a2 2 0 11-4 0V22zm4 1v5h2.5a2.5 2.5 0 100-5H33z" fill="#CF152D"/></svg>