<!-- by TradingView --><svg width="56" height="56" xmlns="http://www.w3.org/2000/svg"><path fill="#0068A6" d="M0 0h56v56H0z"/><path d="M33.102 19.383C25.49 16.715 16.53 16.815 13 17.198c.232.513 1.932 1.255 2.753 1.561 10.463 5.265 12.178 8.622 13.793 11.553 1.291 2.345.79 3.982.378 4.508a1670.911 1670.911 0 01-3.855 6.78c-.233.395-.097.42 0 .384 5.473-5.292 14.235-9.49 17.931-10.926-.344-.075-.392-.108-.373-.115-.866-.523-1.813-.218-2.178 0-1.208.3-2.858-.125-3.532-.376-3.492-1.466-3.576-5.894-3.407-8.251.135-1.886-.882-2.741-1.408-2.933z" fill="#fff"/><path d="M20.33 23.805l-7.986-.165c-.497 0-.348.231-.212.347.476.206 1.491.501 1.94.623 3.87.967 11.565 4.664 14.928 6.392-1.51-2.227-4.13-4.628-5.252-5.55-1.628-1.338-2.592-1.648-3.418-1.648z" fill="#fff"/></svg>