<!-- by TradingView --><svg xmlns="http://www.w3.org/2000/svg" width="56" height="56"><path fill="#F0F3FA" d="M0 0h56v56H0z"/><path fill-rule="evenodd" d="M30.25 12.5L28 10l-2.25 2.5-2.87-1.77-1.45 3.03-3.26-.9-.53 3.3-3.38.05.43 3.32-3.23 1 1.36 3.06L10 25.44 12.18 28 10 30.56l2.82 1.85-1.36 3.07 3.23.99-.43 3.32 3.38.05.53 3.3 3.26-.9 1.45 3.03 2.87-1.77L28 46l2.25-2.5 2.87 1.77 1.45-3.03 3.26.9.53-3.3 3.38-.05-.43-3.32 3.23-1-1.36-3.06L46 30.56 43.82 28 46 25.44l-2.82-1.85 1.36-3.07-3.23-.99.43-3.32-3.38-.05-.53-3.3-3.26.9-1.45-3.03-2.87 1.77zM17 28a2 2 0 114 0v1a2 2 0 11-4 0v-1zm1 0a1 1 0 112 0v1a1 1 0 11-2 0v-1zm-5-.03a1.97 1.97 0 013.72-.93l-.86.45A1 1 0 0014 28v1a1 1 0 001.87.5l.83.49a1.97 1.97 0 01-3.7-.96v-1.06zM22.45 26h-1v3.15a1.85 1.85 0 003 1.45v.4h1v-5h-1v3a1 1 0 11-2 0v-3zm16.1 5h-1v-3a1 1 0 10-2 0v3h-1v-5h1v.4a1.85 1.85 0 013 1.46V31zm-10.31-5c-.48 0-.92.2-1.24.51V26h-1v6.5h1v-2.01a1.76 1.76 0 003-1.25v-1.48c0-.97-.79-1.76-1.76-1.76zM27 29v-1a1 1 0 112 0v1a1 1 0 11-2 0zm7 2v-3.51c0-.55-.53-1.5-1.9-1.49-.28-.01-.97.08-1.7.46l.34.82c.21-.13.71-.4 1.3-.4.7 0 .98.35.96 1.26v.04a1.65 1.65 0 00-2.82 1.17A1.65 1.65 0 0033 30.52V31h1zm-1.03-1.62a.93.93 0 11-1.86 0 .93.93 0 011.86 0zm7.93.19c1.05 0 1.9-.8 1.9-1.79 0-.28-.07-.54-.19-.78.13-.06.3-.12.5-.13v-.76a1.5 1.5 0 00-.97.32A1.97 1.97 0 0040.9 26c-1.05 0-1.9.8-1.9 1.78 0 .53.25 1 .64 1.34-.29.18-.64.5-.64.88v1h2.5a.5.5 0 110 1h-.05l.54.92A1.5 1.5 0 0041.5 30h-1.66c-.01-.08.06-.3.38-.55a2 2 0 00.68.12zm.02-.84c.54 0 .98-.42.98-.95a.96.96 0 00-.98-.94.96.96 0 00-.98.94c0 .53.44.95.98.95z" fill="url(#a0ojv145d)"/><defs><linearGradient id="a0ojv145d" x1="28" y1="10" x2="28" y2="46" gradientUnits="userSpaceOnUse"><stop stop-color="#F34032"/><stop offset="1" stop-color="#C11B02"/></linearGradient></defs></svg>