<!-- by TradingView --><svg width="56" height="56" xmlns="http://www.w3.org/2000/svg"><path fill="#F0F3FA" d="M0 0h56v56H0z"/><path d="M10.972 23.97c1.078 0 2.03.44 2.714 1.152l.736-.75c-.9-.867-2.067-1.372-3.45-1.372C8.106 23 6 25.122 6 27.994 6 31.047 8.258 33 10.972 33c1.433 0 2.664-.556 3.526-1.462l-.697-.75c-.698.75-1.675 1.203-2.829 1.203-2.093 0-3.894-1.565-3.894-3.997 0-2.407 1.789-4.024 3.894-4.024zM24.854 31l.937 2h1.103L22.14 22.913 17.5 33h1.065l.957-2h5.332zm-.5-1h-4.376l2.162-4.878L24.354 30zm8.563-7c-.812.013-1.89 0-2.917 0v10h.99v-3.5h1.927c2.086 0 3.374-1.015 3.374-3.162 0-2.096-1.382-3.377-3.374-3.338zm0 1c1.104-.026 2.086.708 2.086 2.338 0 1.267-.26 2.162-2.086 2.162h-1.914L30.99 24h1.928zm11.378 9H45.5l-2.105-3.635c1.217-.44 1.864-1.682 1.864-3.157 0-2.147-1.37-3.247-3.4-3.208h-2.777v10h1.002v-3.402h1.915c.127 0 .254 0 .368-.013L44.295 33zm-4.211-4.373v-4.63h1.776c1.28-.027 2.32.672 2.32 2.211 0 1.087-.43 2.42-2.27 2.42h-1.826zM50.002 33V23h-1L49 33h1.002z" fill="#000"/></svg>