<!-- by TradingView --><svg width="56" height="56" xmlns="http://www.w3.org/2000/svg"><path fill="#EF483E" d="M0 0h56v56H0z"/><path d="M10.025 26.379C9.74 25.557 9.123 25 8.15 25 6.834 25 6 25.722 6 28c-.029 2.278.662 3 2.15 3 .888 0 1.431-.257 2.018-1.402l1.832.855C11.385 32.138 10.04 33 8.15 33 5.517 33 4 31.18 4 28c0-3.18 1.517-5 4.15-5 1.975 0 3.12.835 3.607 2.56l-1.732.819zM18 27h-1.995v-2H18s1 .058 1 1-1 1-1 1zm1.677 1.54c.924-.591 1.316-1.4 1.316-2.47 0-1.07-.28-3.07-2.767-3.07H14v10l2.005.032V29h1.782l1.978 4h2.241l-2.33-4.46zM26.005 29l1.55-4.514h.032L29.005 29h-3zm3-6h-3l-3 10h2.004l.658-2h3.72l.619 2h1.999l-3-10zM34.001 33V23h2.002l3.968 6H40v-6h2.001v10H40l-3.971-6H36v6h-1.999zM45 33V23h6.997v2h-4.993v1.989H51V29h-3.996v2H52v2h-7z" fill="#F6F8FD"/></svg>