<!-- by TradingView --><svg width="56" height="56" xmlns="http://www.w3.org/2000/svg"><path fill="#0E188A" d="M0 0h56v56H0z"/><path d="M44 40H12v2h32v-2z" fill="#0072BC"/><path d="M22 26v7.011c0 .892-.884 1.989-2.04 1.989h-4.922c-1.157 0-2.04-1.166-2.04-1.989V17.923c0-.891.883-1.988 2.04-1.92h4.921c1.157 0 2.041 1.097 2.041 1.92V25h-4v-7.512c0-.274-.296-.488-.5-.488-.272 0-.5.214-.5.488v15.97c0 .41.228.542.5.542s.5-.131.5-.543V26h4zM27.003 25v-8h.608c.202 0 .389.163.389.436v6.873c0 .273-.111.691-.516.691h-.48zm0 1h.54c.338 0 .457.283.457.692V35h4v-7.423c0-.34-.053-1.839-1.876-2.111 1.35 0 1.876-1.566 1.876-2.247v-5.244c0-.885-.863-2.043-2.01-1.975h-6.986v19h4v-9zM37.996 16v9H37v-9h-3.996v19H37v-9h.996v9H42V16h-4.004z" fill="#fff"/></svg>