<!-- by TradingView --><svg width="56" height="56" xmlns="http://www.w3.org/2000/svg"><path fill="#F0F3FA" d="M0 0h56v56H0z"/><path d="M45.5 22l-1 3h1.497L47 22h-1.5zM26 23.003V25h-.998v2H26v2.625c0 1.56.654 2.375 2.585 2.375.406 0 1.034-.085 1.415-.25V30c-.228.138-.647.171-.969.171-.817 0-1.027-.413-1.027-1.083V27H30v-1.998h-1.996v-1.999H26zM49.188 25c-1.451 0-3.191.522-3.191 2 0 2.538 4.003 1.628 4.003 3 0 .434-.61.637-1.13.637-.772 0-1.395-.155-1.87-.637l-1 1c.728.753 1.761 1 2.87 1 1.476 0 3.13-.58 3.13-2.164 0-2.579-4-1.647-4-2.836 0-.371.712-.591 1.188-.591.633 0 1.475.15 1.811.591L52 26c-.594-.753-1.837-1-2.813-1zM7.95 25C5.743 25 4 26.422 4 28.505c0 2.084 1.748 3.475 3.927 3.498.633 0 1.9-.315 2.649-1.003l-1.243-1.127c-.334.395-.865.504-1.406.5C6.59 30.373 6 29.547 6 28.505c-.042-1.09.762-1.923 1.927-1.9.5 0 .95.175 1.381.57L10.576 26c-.681-.659-1.642-1.01-2.625-1zm6.76 0c-1.165 0-2.26.256-3.078 1l.982 1.174c.53-.442 1.238-.67 1.95-.665.838 0 1.435.663 1.435 1.491h-.29C13.888 28 11 27.834 11 30c0 1.308 1.433 2.003 2.775 2.003.976 0 1.726-.335 2.226-1.084V32h2.003v-4c.014-.955-.213-3-3.298-3h.005zM21 26.247V25h-2v7h2v-3.688c0-1.437 1.74-1.917 3.003-1.603v-1.606c-1.08-.324-2.523.186-3.003 1.144zM34.536 25c-2.179 0-3.946 1.403-3.946 3.505 0 2.084 1.747 3.498 3.946 3.498 1.18.03 2.298-.325 3.06-1.331l-1.34-.967c-1.024 1.293-3.56 1.162-3.74-.705H38v-.37c0-2.31-1.449-3.63-3.464-3.63zM41 26.238V25h-2v7h2v-3.724c0-1.527 1.844-1.823 3-1.569v-1.606c-1.055-.316-2.49.12-3 1.137zm-6.704.181c1.14 0 1.704.6 1.704 1.577h-3.483c.133-.959.69-1.577 1.78-1.577zM15.686 29H16c0 1.116-.413 1.727-1.76 1.727-.594 0-1.424-.257-1.424-.854 0-.964 1.88-.873 2.87-.873z" fill="#009FD8"/></svg>