<!-- by TradingView --><svg width="56" height="56" xmlns="http://www.w3.org/2000/svg"><path fill="#0047BA" d="M0 0h56v56H0z"/><path d="M34.294 26.989c2.331-1.256 4.274-1.745 6.838-1.535-6.45-4.326-8.936 2.651-15.696.837-2.564-.698-4.04-2.651-7.149-2.233-4.04.489-6.915 4.536-13.287 1.256 3.574 4.536 8.159 3.28 11.345 1.605 1.554-.837 4.817-2.233 6.604-1.326.544.28.855.628 1.244.977.388.349.777.698 1.165.907.31.21.544.35.855.489-3.186 1.116-6.139 3.628-11.5.837 3.574 4.536 8.159 3.28 11.344 1.605 1.555-.838 4.818-2.233 6.605-1.326.544.28.855.628 1.243.977.389.349.777.698 1.166.907 2.875 1.814 6.294.977 9.091-.488 2.331-1.256 4.274-1.745 6.838-1.535-6.45-4.327-8.936 2.651-15.696.837-1.32-.349-2.409-1.047-3.497-1.605.7-.349 1.632-.768 2.487-1.186z" fill="#fff"/></svg>