<!-- by TradingView --><svg width="56" height="56" xmlns="http://www.w3.org/2000/svg"><path fill="#EE2E4F" d="M0 0h56v56H0z"/><path d="M33.464 23.156C32.267 21.981 30.704 21 28 21c-4.458 0-7.202 3.012-7.202 7.163C20.798 32.313 24.44 35 28 35c2.492 0 4.102-.565 5.464-1.485l.617 2.599c-1.017.915-3.153 1.853-6.058 1.853-5.446 0-9.862-4.43-9.862-9.804 0-5.447 4.416-9.803 9.862-9.803 3.352 0 5.782 1.41 6.382 2.436l-.941 2.36z" fill="#fff"/><path d="M22.01 38.404c-3.558-2.034-5.955-5.884-5.955-10.24 0-6.536 5.3-11.837 11.837-11.837 6.609 0 11.91 5.301 11.91 11.837h-1.307c0-5.883-4.72-10.603-10.603-10.603-5.81 0-10.53 4.72-10.53 10.603a10.47 10.47 0 005.302 9.149l-.654 1.09z" fill="#fff"/><path d="M34.935 40.29a13.976 13.976 0 007.044-12.126c0-7.77-6.318-14.016-14.088-14.016-7.698 0-14.016 6.246-14.016 14.016h1.234c0-7.117 5.737-12.854 12.781-12.854a12.83 12.83 0 0112.853 12.854c0 4.72-2.542 8.86-6.39 11.11l.582 1.017z" fill="#fff"/><path d="M13.693 23.366c.754-2.426 2.22-4.709 4.225-6.498 6.23-5.562 15.765-5.024 21.327 1.206 5.563 6.23 5.023 15.765-1.206 21.327-2.005 1.79-4.438 2.99-6.934 3.465l.201.99a16.384 16.384 0 007.362-3.75c6.662-5.95 7.237-16.1 1.336-22.709-5.902-6.609-16.052-7.183-22.715-1.234-2.166 1.935-3.741 4.315-4.556 6.892l.96.311z" fill="#fff"/></svg>