<!-- by TradingView --><svg width="56" height="56" xmlns="http://www.w3.org/2000/svg"><path fill="#003662" d="M0 0h56v56H0z"/><path d="M38.622 34.053A26.92 26.92 0 0144 36.435C39.351 28.74 31.147 20.405 23.035 15c2.096 2.107 5.469 6.687 6.38 11.542a109.511 109.511 0 019.207 7.511z" fill="#fff"/><path d="M38.622 34.053c-4.01-1.282-7.383-1.374-9.844-1.099.911-2.107 1.002-4.305.638-6.412C23.308 22.145 16.472 18.298 10 15.458c4.74 3.206 10.027 12.641 12.215 22.718 4.74-1.375 11.94-2.382 21.33.824a125.686 125.686 0 00-4.923-4.947z" fill="#fff"/></svg>