<!-- by TradingView --><svg xmlns="http://www.w3.org/2000/svg" width="56" height="56"><path fill="url(#amchelyvw)" d="M0 0h56v56H0z"/><path fill-rule="evenodd" d="M28 44a16 16 0 0015.95-17.33c-.83-1.89-2.46-1.2-3.03-.13v.02c-1.9 3.6-6.45 10.1-10.71 8.67-.46-.25-1.14-1.35-.18-3.74.97-2.4 5.42-8.63 7.52-11.45.29-.49.6-1.6-.43-2.19-1.29-.72-2.08-.3-2.52.31l-.8 1.17c-1.55 2.32-5 7.43-7.12 10.28-1.93 2.6-6.72 7.37-8.37 5.62-1.9-2.02 3.14-8.31 6.38-12.3l5.8-7.7.02-.02v-.02c1.1-1.74.53-2.83-.7-3.09A16 16 0 1028 44zm-1.14-28.95a13 13 0 00-11.43 16.28c1.07-3.3 8.02-12.18 11.4-16.27l.03-.01zM18.25 36.6a13 13 0 0022.34-5.34c-5.14 5.26-9.98 6.08-12.41 4.63-1.93-1.15-1.49-4.08-.95-5.55-3.57 5.46-7.3 6.45-8.98 6.26z" fill="url(#bmchelyvw)"/><path fill-rule="evenodd" d="M28 44a16 16 0 0015.95-17.33c-.83-1.89-2.46-1.2-3.03-.13v.02c-1.9 3.6-6.45 10.1-10.71 8.67l-6.43 8.2c1.34.37 2.76.57 4.22.57zm-2.17-3.18a13 13 0 0014.76-9.56c-5.14 5.26-9.5 5.64-11.26 5.1l-3.5 4.46z" fill="url(#cmchelyvw)"/><path fill-rule="evenodd" d="M20.26 38.44V35.4c-.85.29-1.5.33-1.95-.16-1.9-2.02 3.14-8.31 6.38-12.3l5.8-7.7.02-.02v-.02c1.1-1.74.53-2.83-.7-3.09a16 16 0 00-11.5 28.63l1.95-2.29zm6.6-23.4a13 13 0 00-11.43 16.3c1.07-3.3 8.02-12.19 11.4-16.28l.03-.01zM18.25 36.6c.6.68 1.27 1.3 2 1.84v-2.08c-.8.25-1.5.3-2 .24z" fill="url(#dmchelyvw)"/><path d="M31.02 35.41c-.76-.07-1.33-.34-1.46-1.39-.65.43-2 1.27-2.07 1.27.36.58 1.66 1.22 3.08 1.25l.45-1.13z" fill="url(#emchelyvw)"/><defs><linearGradient id="amchelyvw" x1="10.42" y1="9.71" x2="68.15" y2="76.02" gradientUnits="userSpaceOnUse"><stop stop-color="#1A1E21"/><stop offset="1" stop-color="#06060A"/></linearGradient><linearGradient id="bmchelyvw" x1="36.34" y1="17.39" x2="18.36" y2="40.97" gradientUnits="userSpaceOnUse"><stop stop-color="#FE214D"/><stop offset=".69" stop-color="#735BB0"/><stop offset=".84" stop-color="#5776CE"/></linearGradient><linearGradient id="cmchelyvw" x1="42.61" y1="26.89" x2="21.67" y2="43.17" gradientUnits="userSpaceOnUse"><stop offset=".1" stop-color="#461A79"/><stop offset=".57" stop-color="#5D2A87"/><stop offset=".95" stop-color="#5776CE" stop-opacity="0"/></linearGradient><linearGradient id="dmchelyvw" x1="27.16" y1="12" x2="16.81" y2="39.5" gradientUnits="userSpaceOnUse"><stop stop-color="#FCA807"/><stop offset=".42" stop-color="#82BF9E"/><stop offset=".74" stop-color="#41B4EA"/><stop offset="1" stop-color="#5776CE"/></linearGradient><linearGradient id="emchelyvw" x1="29.12" y1="34.58" x2="30.81" y2="36.28" gradientUnits="userSpaceOnUse"><stop stop-color="#8055A6"/><stop offset="1" stop-color="#5D2A87"/></linearGradient></defs></svg>