<!-- by TradingView --><svg width="56" height="56" xmlns="http://www.w3.org/2000/svg"><path fill="#FC211A" d="M0 0h56v56H0z"/><path d="M22 33.016v4.49c-1.622.484-3.005.76-4.489.76-5.59 0-9.489-3.78-9.489-10.55.069-5.735 3.289-10.081 9.605-10.081 2.52 0 4.373.69 4.373.898v4.248c-.621-.345-2.13-1.105-3.752-1.105-3.313 0-4.842 2.343-4.842 6.108 0 3.317 1.69 6.303 4.934 6.303 1.898 0 3.66-.76 3.66-1.07zm10.729-6.444l-2.312-1.037c-1.726-.76-2.091-1.476-2.091-2.477 0-1.175.931-1.831 2.485-1.831 1.483 0 3.292.484 4.189.967v-3.8c-1.553-.621-3.396-.76-4.845-.76-4.107 0-7.006 2.073-7.006 5.735 0 2.728.85 5.088 4.026 6.331l1.139.45c1.484.587 2.346.932 2.346 2.21 0 1.21-.69 2.073-2.657 2.073-1.864 0-4.382-1.037-5.003-1.417v4.49c.966.243 3.174.726 5.486.726 4.487 0 7.524-2.141 7.524-6.39 0-2.867-1.52-4.476-3.281-5.27zM41.999 34V18H37v20h11v-4h-6z" fill="#fff"/></svg>