<!-- by TradingView --><svg xmlns="http://www.w3.org/2000/svg" width="56" height="56"><path fill="#00227C" d="M0 0h56v56H0z"/><path fill-rule="evenodd" d="M5.61 23.65A5.46 5.46 0 019.51 22c1.24 0 2.35.33 3.28 1.06.38.28.52.37.76.37a.7.7 0 00.66-.54l1.79.35a3.12 3.12 0 01-.92 1.58c-.97.77-2.46.66-3.41-.08A3.42 3.42 0 009.52 24 3.47 3.47 0 006 27.52a3.5 3.5 0 106.57 1.68l1.76 1.24A5.58 5.58 0 019.51 33C6.51 33 4 30.55 4 27.55c0-1.46.58-2.87 1.61-3.9zM50 25.92a2.24 2.24 0 012-.91v1.7c-.6 0-1.15.1-1.6.53-.37.36-.42.98-.4 1.5V33h-2v-8h2v.92zM41 28a2.4 2.4 0 014.36 0H41zm2.17-3A4.12 4.12 0 0039 29c.04 2.25 2 4.07 4.22 4 1.95 0 3.54-1.05 4.04-2.47h-2.14c-.43.6-1.12.84-1.92.84a2.31 2.31 0 01-2.26-1.77h6.33c.04-.2.05-.4.05-.6a4.1 4.1 0 00-4.15-4zm-14.25 1.38A2.96 2.96 0 0026.5 25c-1.3 0-2.51.8-2.51 2.18 0 1.28 1.07 1.95 2.21 2.25 1.14.3 1.2.67 1.2 1.03 0 .56-.41.97-.99.97a1.1 1.1 0 01-1.12-.89h-1.74A2.74 2.74 0 0026.42 33c1.48.11 2.88-1 2.88-2.53 0-1.18-.63-1.82-1.96-2.3l-.13-.05c-.88-.33-1.36-.5-1.36-.94 0-.46.38-.64.74-.64.36.02.69.21.87.52l1.46-.67zm-10.06 4.98a2.37 2.37 0 01-2.35-2.34 2.37 2.37 0 012.35-2.34 2.37 2.37 0 012.36 2.34 2.37 2.37 0 01-2.36 2.34zM18.8 25a4.02 4.02 0 00-4.13 4 4 4 0 004.13 4c.87.02 1.73-.25 2.2-.79V33h2v-8h-2v.83c-.42-.5-1.34-.83-2.2-.83zm15.44 0c2.46 0 4.09 1.56 4.09 4s-1.63 4-4.1 4c-.88.03-1.86-.26-2.23-.6v4.4l-2 .2V25h2v.75c.37-.43 1.34-.75 2.24-.75zm2.25 4a2.32 2.32 0 11-4.65 0 2.32 2.32 0 014.65 0z" fill="#fff"/></svg>