<!-- by TradingView --><svg xmlns="http://www.w3.org/2000/svg" width="56" height="56"><path fill="#2C71CE" d="M0 0h56v56H0z"/><path d="M12 27.12L27.1 12A16.02 16.02 0 0012 27.12zm19.1.88H44c0 1.34-.16 2.76-.48 4h-8.34l5.67 5.56A16.13 16.13 0 0138 40.51L23.43 25.9l-2.22 2.2 14.13 14.14a15.9 15.9 0 01-4.29 1.5L18.31 30.97 16.1 33.2 26.9 44a16.01 16.01 0 01-14.6-12.78L31.2 12.3c1.46.3 2.85.8 4.14 1.47l.06.03.05.02c1.9 1 3.68 2.52 5.03 4.18h-9.06l-3.02 3h13.98a14.9 14.9 0 011.33 4H28.18l2.92 3z" fill="#fff"/></svg>