<!-- by TradingView --><svg width="56" height="56" xmlns="http://www.w3.org/2000/svg"><path fill="#3D575F" d="M0 0h56v56H0z"/><path d="M22.611 32.107l1.173-4.833c.108-.448.216-.95.216-1.347 0-1.28-.651-1.927-1.802-1.927h-3.484L17 31h1.2c.449 0 .724-.417.84-.893l.753-3.005c0-.004.002-.008.004-.012l.338-1.4h1.048c.563 0 .887.303.887.87 0 .173-.036.437-.084.635L20.574 33h1.198c.448 0 .724-.416.84-.893zM4 27.965C4 25.768 5.713 24 7.733 24c1.394 0 2.163.677 2.6 1.48l-1.371 1.028c-.318-.513-.661-.877-1.37-.877-.946 0-1.82 1.091-1.82 2.334 0 .865.543 1.416 1.24 1.416.556 0 .958-.238 1.43-.664l.922 1.242C8.703 30.586 8.029 31 6.954 31 5.228 31 4 29.795 4 27.965zM15.108 27a1.96 1.96 0 00.059-.478c0-.553-.307-.991-1.04-.991-.816 0-1.478.616-1.772 1.469h2.753zm-1.465 2.47c.473 0 .886-.151 1.406-.54l.827 1.18c-.567.5-1.36.89-2.434.89-1.82 0-2.93-1.13-2.93-2.986C10.511 26.07 12 24 14.268 24c1.643 0 2.588 1.129 2.588 2.622 0 .477-.118.864-.32 1.378H12.2c.059.79.496 1.47 1.442 1.47zm32.164.313l1.04-1.141c.662.702 1.371.903 1.938.903.472 0 .757-.214.757-.59 0-.251-.297-.426-.734-.627-.992-.452-1.842-.891-1.842-1.97 0-1.342.967-2.358 2.54-2.358 1.027 0 1.973.477 2.494.966l-.97 1.205c-.614-.515-1.135-.716-1.654-.716-.437 0-.697.213-.697.565 0 .264.306.452.838.703.827.388 1.738.852 1.738 1.906 0 1.468-1.088 2.371-2.601 2.371-.957 0-2.103-.39-2.847-1.217zm-15.846-2.622c0-.978-.555-1.53-1.37-1.53-1.1 0-1.82 1.254-1.82 2.208 0 .979.555 1.53 1.37 1.53 1.1 0 1.82-1.255 1.82-2.208zm-4.95.728c0-2.007 1.63-3.889 3.662-3.889 1.879 0 3.049 1.317 3.049 3.111 0 2.007-1.631 3.889-3.663 3.889-1.879 0-3.049-1.317-3.049-3.11zM44.908 24c-.3.088-.57.265-.707.53l-.599 2.46-.565 2.339h-1.034c-.555 0-.875-.3-.875-.863 0-.17.036-.43.082-.627L42.145 24h-1.218c-.3.088-.572.266-.707.532l-.781 3.23c-.107.443-.214.94-.214 1.332 0 1.266.708 1.906 1.843 1.906h3.369l1.69-7h-1.22zm-5.816-1h-.165a.99.99 0 00-.85.538l-3.2 5.279-.223-3.915c-.043-.45-.369-.902-.812-.902H32.75l.769 7h1.63l5.18-8h-1.236z" fill="#fff"/></svg>