<!-- by TradingView --><svg width="56" height="56" xmlns="http://www.w3.org/2000/svg"><path fill="#FAAE3F" d="M0 0h56v56H0z"/><path d="M23.437 19h-4.265c-1.155 0-1.933.625-2.31 2.35l-.733 3.3c-.39 1.725.122 2.35 1.277 2.35h4.376l.45-1.304c-.41.212-.61.3-1.7.3H19c-.355 0-.5-.125-.411-.513l1.094-4.828A.824.824 0 0120.47 20h1.944c.522 0 .766.087 1.044.212L23.438 19zM27.756 27l3.688-6.55c.444-.775.755-1.188 1.033-1.45h-1.833c0 .163 0 .288-.033.438-.078.35-.233.637-.455 1.037L27.423 25.3l-.488-4.825c-.045-.4-.067-.688.01-1.038.034-.15.078-.274.145-.437h-3.377c.145.188.245.413.278.738L24.724 27h3.032zM35.33 20h1.532c.344 0 .433.063.344.45l-.21 1.1c-.09.387-.2.45-.545.45h-1.533l.411-2zm.121 3.525L35.973 27h3.032c-.166-.3-.21-.712-.322-1.225l-.466-2.25c.589-.05 1.11-.112 1.377-1.287l.322-1.476c.3-1.337-.21-1.762-1.455-1.762H32.62c.133.313.156.613-.011 1.375l-1.166 5.25c-.167.762-.323 1.063-.522 1.375h3.154c-.067-.313-.089-.613.078-1.375l.466-2.1h.833z" fill="#fff"/><path d="M9.094 33l.459-2.017h1.856c.598 0 .875.099 1.131.187l.374-1.357c-.3.088-.62.187-1.217.187H9.841l.56-2h2.074c.608 0 .91.124 1.167.212L13.607 27h-5.91c.063.275.085.54-.075 1.21l-1.12 4.621c-.16.671-.31.894-.502 1.169h6.017l.566-1.187a3.698 3.698 0 01-1.227.187H9.094zM13.787 29c.086.264.16.473-.01 1.188l-.673 2.665c-.17.715-.393.883-.607 1.147h3.073c-.085-.264-.118-.431.052-1.147l.608-2.412c.086-.319.214-.429.523-.429h.918c.31 0 .395.11.31.43l-.609 2.411c-.17.715-.394.883-.607 1.147h3.073c-.086-.264-.119-.431.052-1.147l.501-1.972C20.68 29.726 20.36 29 19.175 29h-2.038c-.373 0-.597.275-.779.54h-.02l.052-.54h-2.603zM23.653 31.005l.17-.587c.064-.297.182-.418.46-.418h1.034c.277 0 .33.121.267.418l-.17.587h-1.761zm3.969 1.012l.384-1.467c.256-1.078.053-1.562-1.078-1.562h-3.83c-1.131 0-1.568.484-1.825 1.562l-.5 1.888C20.515 33.516 20.718 34 21.85 34h5.014l.49-1.232c-.447.187-.714.22-1.194.22h-2.422c-.405 0-.533-.154-.448-.528l.117-.484 4.215.041zM29.116 29c.086.264.16.473-.01 1.188l-.672 2.665c-.171.715-.353.883-.566 1.147h3.073c-.085-.264-.16-.431.01-1.147l.395-1.661c.171-.704.406-.75 1.398-.75.747 0 .843.065 1.11.252L34.258 29h-1.227c-.779 0-1.099.22-1.494.836h-.021l.117-.836h-2.518zM37.626 34.218c-.15.627-.278.77-.822.77h-2.166c-.49 0-.736-.1-1.099-.286L33.401 36h4.63c1.195 0 1.803-.495 2.155-1.958l.918-3.667c.213-.89.47-1.166.608-1.375h-2.518l-.256.55h-.021c-.011-.396-.171-.55-.662-.55h-1.984c-1.153 0-1.74.66-1.964 1.606l-.48 1.83c-.224.945.043 1.606 1.195 1.606h1.974c.459 0 .662-.297.779-.518h.021l-.17.694zm.384-1.607c-.064.297-.182.418-.46.418h-.98c-.278 0-.331-.12-.267-.418l.565-2.18c.064-.298.181-.419.459-.419h.982c.277 0 .33.121.266.418l-.565 2.181zM44.402 34c.597 0 .736-.135.928-.465h.021l-.256 1.079c-.053.242-.17.386-.597.386h-2.412c-.597 0-.821-.144-1.035-.265L40.945 36h4.94c.917 0 1.515-.495 1.75-1.474L49 29h-2.72c.085.231.127.33-.033.98l-.661 2.58c-.096.407-.17.44-.405.44h-.929c-.31 0-.395-.11-.31-.43L44.84 29h-2.795c.085.264.16.473-.01 1.188l-.502 1.972c-.288 1.155.032 1.84 1.216 1.84h1.654z" fill="#363A45"/><path d="M18.257 35.056c-5.507-.26-9.593.45-12.257.966 1.717-.129 4.986-.342 7.816 0 3.197.386 6.217.773 10.48.966 3.278.149 7.165-1.16 8.704-1.932-3.73 1.16-10.658.193-14.743 0z" fill="#fff"/></svg>