<!-- by TradingView --><svg xmlns="http://www.w3.org/2000/svg" width="56" height="56"><path fill="#F0F3FA" d="M0 0h56v56H0z"/><path d="M4 26a1 1 0 011-1h6a1 1 0 011 1v1.3l-1 .17V26H5v5h6v-1.67l1 .2V31a1 1 0 01-1 1H5a1 1 0 01-1-1v-5z" fill="#40C1E6"/><path d="M42 27a1 1 0 011-1h5a1 1 0 011 1v.97l-1 .16V27h-5v4h5v-1.32l1 .2V31a1 1 0 01-1 1h-5a1 1 0 01-1-1v-4zm9-1h1v6h-1z" fill="#6D6A6A"/><path d="M23 26h-1v6h6v-1h-5v-5zm-8 0h-1v6h6v-1h-5v-1.5h3v-1h-3V27h5v-1h-5z" fill="#40C1E6"/><path d="M33 25a1 1 0 00-1 1v2a1 1 0 001 1h6v2h-6v-1.14l-1 .24v.9a1 1 0 001 1h6a1 1 0 001-1v-2a1 1 0 00-1-1h-6v-2h6v.92l1-.3V26a1 1 0 00-1-1h-6z" fill="#6D6A6A"/><path d="M31.5 20a.5.5 0 100-1 .5.5 0 000 1zM30 21a1 1 0 11-2 0 1 1 0 012 0zm-3.7 4.17a1.3 1.3 0 100-2.6 1.3 1.3 0 000 2.6zM28.5 29a1.5 1.5 0 100-3 1.5 1.5 0 000 3z" fill="#40C1E6"/></svg>