<!-- by TradingView --><svg width="56" height="56" xmlns="http://www.w3.org/2000/svg"><path fill="#39ACD6" d="M0 0h56v56H0z"/><path d="M28.194 13.27c-1.86-.01-3.717.117-5.557.382-.859.099-1.698.324-2.49.669h.155a8.435 8.435 0 001.756.497c2.027.337 4.08.497 6.136.478 1.853.019 3.704-.11 5.537-.382a9.116 9.116 0 002.489-.65h-.154a8.549 8.549 0 00-1.737-.498 35.76 35.76 0 00-6.136-.478v-.019zm0 3.384a37.608 37.608 0 01-5.789-.402 7.357 7.357 0 01-3.396-1.109 1.276 1.276 0 01-.386-.803c.023-.306.16-.593.386-.803.206-.188.44-.343.695-.459a9.852 9.852 0 012.045-.574 35.035 35.035 0 016.387-.497 37.764 37.764 0 015.788.383 6.947 6.947 0 013.357 1.185 1.09 1.09 0 01.405.803 1.12 1.12 0 01-.405.803c-.202.173-.43.315-.675.42a9.418 9.418 0 01-2.045.594 36.69 36.69 0 01-6.367.497" fill="#FBB649"/><path d="M42.703 30.136a23.31 23.31 0 01-1.93-2.85h.155s3.57-.19 2.933-1.415c0 0-.695-1.472-3.319-1.472h-.366c-.116 0-.29 0-.348.956a12.403 12.403 0 00-3.685-4.838 3.764 3.764 0 00-1.235-.42c-.752-.135-6.444-.192-6.907-.192-.463 0-6.155 0-6.908.191a3.59 3.59 0 00-1.234.421 12.403 12.403 0 00-3.686 4.838c0-.899-.231-.956-.366-.956h-.348c-2.624 0-3.318 1.472-3.318 1.472-.637 1.224 2.933 1.416 2.933 1.416h.154a23.32 23.32 0 01-1.93 2.849 8.069 8.069 0 00-1.022 1.472 4.57 4.57 0 00-.27 1.683v10.18a.474.474 0 00.243.478c.056.03.118.05.181.057L16.675 44a.486.486 0 00.428-.344.473.473 0 00.016-.191V43h21.764v.465a.475.475 0 00.257.483c.058.03.121.047.187.052h4.228a.486.486 0 00.428-.344.475.475 0 00.016-.191l-.003-5.176s-.039-4.06 0-4.998a4.003 4.003 0 00-.29-1.683 7.302 7.302 0 00-1.003-1.472zm-24.928-3.94a28.097 28.097 0 012.74-4.972s2.334-.114 5.44-.133v.765a.362.362 0 00.367.363h3.608a.37.37 0 00.357-.22.36.36 0 00.03-.143v-.536l-.097-.23c3.106 0 5.422.134 5.422.134a28.614 28.614 0 012.836 4.953c.212.574-.267.82-.267.82H17.95s-.485-.227-.176-.8zm-3.86 8.415c-.79-.192-.867-.67-.867-.67a4.4 4.4 0 01.25-2.046c.118-.266.323-.485.582-.62.26-.136.558-.18.846-.126.828.258 1.614.631 2.335 1.11 1.35.688 1.524 3.04 1.524 3.04a40.429 40.429 0 01-4.67-.688zm22.132.822c-2.412.191-5.885.21-7.988.21-2.103 0-5.576 0-7.988-.21 0 0-.675-1.453.366-1.492.136 0 3.242-.114 7.718-.114 4.477 0 7.486.114 7.622.114.926.115.25 1.568.25 1.568l.02-.076zm7.023-1.492s-.097.478-.868.67c-1.548.32-3.114.55-4.689.688 0 0 .193-2.352 1.524-3.04a9.452 9.452 0 012.335-1.11c.29-.052.59-.007.852.128s.471.352.595.618c.238.681.317 1.407.232 2.123l.019-.077z" fill="#fff"/></svg>