<!-- by TradingView --><svg width="56" height="56" xmlns="http://www.w3.org/2000/svg"><path fill="#CF072B" d="M0 0h56v56H0z"/><path d="M30.874 22.003l-1.727 5.995h2.184l1.728-5.995h-2.185zm16.764 2L47 26.001h4.417L52 24.003h-4.362zM28.815 30l-1.721 5.997h2.185L30.999 30h-2.184zm-5.224-7.997l-.54 2.001h2.476l-1.199 3.994h2.185l1.2-3.994h2.038l.54-2.001h-6.7zM45.143 30l-.507 2h2.476l-1.235 4.001h2.185l1.235-4h2.04L52 30h-6.857zM13.39 22.004s-.712 2.146-1.071 3.557c-.052.271 0 .434.154.543.36.163 1.13.163 1.387-.217l.154-.218 1.123-3.665h2.158l-1.328 4.588c-.514 1.358-1.542 1.412-2.826 1.412h-.874c-1.027 0-1.798.054-2.21-.977-.102-.272-.05-.706 0-.923l1.325-4.1h2.008zM10.718 22l-.524 2H7.728c-.617 0-1.483-.131-1.638.897-.154 1.082.671 1.049 1.288 1.103h2.158L9 28H6.553c-1.696.054-2.69-1.135-2.553-2.94.257-1.895 1.63-3.006 3.378-3.06h3.34zM37.67 30l-.5 2.004h-2.723c-.617 0-1.503.333-1.658 1.362 0 .904 1.154.846 1.154.846h.205L34.691 33h2.21l-1.006 2.998h-2.723c-1.695.055-2.695-.738-2.438-2.524.257-1.894 1.593-3.42 3.34-3.474h3.597zM42.464 30l-.608 2.004h-2.107L40.357 30h-2.21l-1.738 6h2.21l.522-2h2.107l-.523 2h2.21l1.738-6h-2.21zM41.72 24.003c-.112 0-.236.057-.236.22 0 .162.207.194.32.194h2.056c.822 0 1.635.605 1.481 1.525-.154 1.136-1.079 1.786-1.798 2.002-.309.108-.925.054-1.08.054h-3.596l.55-2.002h3.612c.088 0 .3-.013.3-.176 0-.162-.249-.149-.249-.149H41.18c-1.285 0-1.944-.55-1.79-1.579.155-1.136 1.14-2.034 2.22-2.088h3.75l-.658 2h-2.98zM35.484 24.004c-.12 0-.328.052-.328.215 0 .162.2.198.328.198h2.056c.822 0 1.614.605 1.46 1.525-.154 1.136-1.072 1.786-1.791 2.002-.309.108-.925.054-1.08.054h-3.596l.462-2.002h3.7c.154 0 .324.016.324-.146 0-.163-.119-.179-.273-.179H34.896c-1.284 0-1.93-.55-1.775-1.579.154-1.136 1.135-2.034 2.214-2.088h3.751l-.57 2h-3.032zM14.528 30l.206 2.99L16.07 30h2.158l.103 2.99L19.666 30h2.364l-3.245 5.998h-2.261l-.095-2.63-1.447 2.63h-2.055L12.473 30h2.055zM22.844 23.644c.206 1.358-.465 1.857-1.544 2.074l1.08 2.28H20l-.96-2.226-.566 2.226h-2.21l1.647-5.994h2.826c1.593 0 2.004.88 2.107 1.64zm-2.165.358H19.6l-.288.998h1.182c.668 0 .802-.998.185-.998zM27.312 31.638c.206 1.364-.603 2.106-1.682 2.325.514 1.146 1.068 2.037 1.068 2.037h-2.364l-.965-1.983L22.793 36h-2.21l1.796-6h2.826c1.593 0 2.004.928 2.107 1.638zM25.133 32h-1.027l-.254 1.002h1.182c.617 0 .716-1.057.1-1.002z" fill="#fff"/></svg>