<!-- by TradingView --><svg width="56" height="56" xmlns="http://www.w3.org/2000/svg"><path fill="#00669E" d="M0 0h56v56H0z"/><path d="M18 28.002l-.773-1.98h-2.41L14 28.002h-.997l2.497-7h1l2.503 7H18zM16 22.5l-.888 2.48h1.762L16 22.5zM26 28l-.355-3.997L24 28.002h-1l-1.666-4L21 28h-1l.5-6.998h1l2 4.998 2-4.998h1L27 28h-1zM29.66 25H29v3.002h-1v-7h1.66c1.249 0 2.34.8 2.34 2.117S30.909 25 29.66 25zm.348-3H29v2h1.008A.985.985 0 0031 22.98c0-.687-.537-.98-.992-.98zM34 21.002h-1v7h1v-7zM40 28.002c-.412-.478-3.65-4.546-4-5.002.02.489 0 4.568 0 5.002L35.013 28v-6.998H36L40 26c-.021-.412 0-4.564 0-4.998h1v7h-1zM45.6 28c-1.79 0-3.6-1.216-3.6-3.5 0-2.305 1.851-3.5 3.56-3.5.904 0 1.617.23 2.063.535l-.172 1.017c-.448-.336-1.067-.556-1.78-.556-1.179 0-2.671.654-2.671 2.504s1.444 2.5 2.672 2.5c.376 0 1.104-.05 1.328-.186V25h-2v-1h3v3.309c-.549.45-1.352.691-2.4.691zM18 37h-1l-1.5-5-1.5 5h-1l-2-7h1l1.5 5 1.5-5h1l1.5 5 1.495-5H20l-2 7zM23.495 37C21.702 37 20 35.648 20 33.49c0-2.138 1.702-3.49 3.495-3.49C25.298 30 27 31.352 27 33.49c0 2.158-1.701 3.51-3.505 3.51zm.005-6c-1.716.002-2.5 1.243-2.5 2.49 0 1.257.932 2.503 2.5 2.51 1.568.007 2.5-1.253 2.5-2.51 0-1.247-.784-2.492-2.5-2.49zM31.735 37l-1.566-3H29v3h-.998v-7h2.167c.993 0 1.876.8 1.876 2.118 0 .823-.4 1.48-.892 1.755L33.002 37h-1.267zm-1.775-6H29v2h.96c.364 0 1.042-.275 1.042-1s-.678-1-1.042-1zM34 37v-7h1v6h3v1h-4zM40.93 37H39v-7h1.93c1.652 0 3.07 1.317 3.07 3.5 0 2.184-1.418 3.5-3.07 3.5zm-.161-6H40v5h.769c.996 0 2.231-.775 2.231-2.5S41.765 31 40.769 31zM11.39 27.002c-1.143 0-2.402-.675-2.39-2.5C9.012 22.677 10.34 22 11.436 22c.652 0 1.125.186 1.436.406L13 21.41c-.36-.23-.955-.408-1.711-.408-1.578 0-3.289 1.194-3.289 3.5 0 2.295 1.701 3.5 3.289 3.5.451 0 .818-.052 1.113-.144l.47-1.253c-.33.24-.83.397-1.482.397z" fill="#fff"/></svg>