<!-- by TradingView --><svg width="56" height="56" xmlns="http://www.w3.org/2000/svg"><path fill="#F0F3FA" d="M0 0h56v56H0z"/><path d="M14.143 38l5.54-5.278-5.312.785 8.32-2.771-8.74-.924 8.922-.493-8.129-3.479 8.341 1.817-6.717-5.265 7.474 4.033-5.114-7.02 5.93 5.973-2.814-8.128 4.479 7.882-.666-8.775 2.148 8.498 1.634-8.713-.242 8.99 3.813-7.882-2.481 8.313 5.87-6.62-4.72 7.482 7.413-4.71-6.566 5.942 8.4-2.525-7.19 3.602 7.928.185-4.478.893 6.697 2.19c.17-1.51.637-6.159-2.786-11.19-3.26-4.79-8.247-6.183-10.395-6.593-3.42-.652-11.4-.23-15.958 6.68-4.557 6.91-2.49 14.163-.601 17.101z" fill="#EEDA1B"/><path d="M30.336 29.006c-3.983-.162-8.55 2.86-10.336 4.392 1.912-.957 6.728-2.3 10.505-.4C33.747 34.63 38.063 36 40.263 36c4.961 0 8.487-3.108 9.737-4.494-2.059.89-7.223 2.136-11.408 0-4.184-2.135-7.247-2.556-8.256-2.5z" fill="#373474"/><path d="M25.336 34.006c-3.983-.162-8.55 2.86-10.336 4.392 1.912-.957 6.728-2.3 10.505-.4C28.747 39.63 33.063 41 35.263 41c4.961 0 8.487-3.108 9.737-4.493-2.059.89-7.223 2.135-11.408 0-4.184-2.136-7.247-2.557-8.256-2.5z" fill="#373474"/></svg>