<!-- by TradingView --><svg xmlns="http://www.w3.org/2000/svg" width="56" height="56"><path fill="#F0F3FA" d="M0 0h56v56H0z"/><path d="M16.44 20H9.12l.7 1h7.34l-.72-1zm-5.21 3l-.7-1h7.36l.72 1h-7.38zm.7 1l.7 1h30.65c1.2-.42 2.3-.62 3.16-.66l.8-.75H28.98l-.67.41h-7.74l-.74.7-.5-.7h-7.4zm2.12 3l-.7-1h12.59l.53-.46h15.48c-.8.38-1.6.86-2.4 1.46h-25.5zm.7 1l.69.97-.03.03h22a14 14 0 011.43-1.43h-9.39L29 28H14.75zm-1.44 3l1.05-1h12.92l.31-.46h9.37c-.36.45-.7.93-1.02 1.46H13.31zm-1.05 1l-1.06 1h23.72c.22-.52.47-1.02.73-1.49h-9.31l-.25.49H12.26zM9.1 35l1.05-1h7.72l-1.01 1H9.1zm-1.05 1L7 37h7.83l1.01-1H8.05zm12.87 0l.74 1h12.07c.1-.52.2-1.02.33-1.5h-9.3l-.14.5h-3.7zm13.28-1c.15-.51.32-1 .5-1.46h-9.3l-.16.46h-5.81l.74 1H34.2zM21.63 23h26.22L51 20h-4.1l.93-1c-4.22-.03-8.5.66-10.12 1H24.8l-1.06 1h10.67c-1.54.44-2.56 1-2.56 1h-9.17l-1.06 1z" fill="#EB5900"/></svg>