<!-- by TradingView --><svg xmlns="http://www.w3.org/2000/svg" width="56" height="56"><path fill="#01173D" d="M0 0h56v56H0z"/><path d="M9.96 29.6l-4.38 1.53-.22-.9 4.6-.65v.02zm.16-2.67l-4.17-2c-.16.27-.26.56-.3.86l4.47 1.15v-.01zm.92-1.54l-3.1-3.44-.63.68 3.72 2.77v-.01zM9.89 27.8l-4.5-1.14-.16.9 4.66.26v-.02zm-.06.89l-4.64-.26.04.93 4.61-.65v-.02zm2.66-4.38l-1.52-4.3c-.3.07-.57.2-.82.38l2.33 3.93h.01zm5.08.81L21 22.07a2.5 2.5 0 00-.68-.62l-2.77 3.66.02.01zm-1.32-.92l2.02-4.2-.87-.3-1.15 4.48zm-2.89-.16l-.66-4.58-.9.22 1.53 4.36h.03zM10.5 26.1l-3.7-2.77-.5.79 4.2 2v-.02zm3.08-6.74l.66 4.55h.01l.26-4.57c-.31-.05-.63-.04-.93.02zm2.72.13l-.91-.15-.26 4.63h.01l1.16-4.48zm-1.68 13.58l-.25 4.59c.3.04.62.03.92-.04l-.65-4.55h-.02zm1.9-.31l1.51 4.3c.3-.07.58-.2.84-.38l-2.34-3.92h-.02zm-.95.26l.66 4.56.9-.22-1.53-4.35h-.03zm-4.26-1.15l-3.44 3.06c.19.24.42.46.68.62l2.77-3.67h-.01zm-4.59 1.69l.54.73 3.46-3.08-4 2.35zm6.13-.78l-2 4.15c.27.16.56.27.86.32l1.15-4.46zm-.82-.38l-2.79 3.7.8.48c.68-1.41 1.35-2.79 2-4.17z" fill="#FFDA00"/><path d="M17.8 23.15l2.77-3.68c-.23-.2-.5-.37-.8-.47l-1.99 4.14h.01zm-6.71.68L8.75 19.9c-.28.13-.53.3-.73.53l3.06 3.4zm-7.09 9c.07.29.2.57.37.81l3.94-2.32L4 32.82zm8.18 7.02l.91.15.26-4.63-1.17 4.48zM30 30c-.33 0-.57-.16-.57-.64V24h-1v5.48c0 .95.55 1.52 1.47 1.52.21 0 .42-.04.62-.1l.13-.05-.08-1.04c-.2.16-.3.2-.57.19zm-14.76-.03c.21-.1.4-.26.53-.45l.1-.14.74.5-.09.13c-.4.64-1.1.99-1.96.99A2.45 2.45 0 0112 28.5c0-1.45 1.08-2.5 2.56-2.5.87 0 1.57.35 1.96.99l.09.14-.74.49-.1-.14a1.4 1.4 0 00-1.2-.6c-.94 0-1.57.66-1.57 1.62 0 .95.63 1.62 1.56 1.62.24 0 .47-.04.68-.15zm11 0c.22-.1.4-.26.53-.45l.1-.14.74.5-.09.13c-.4.64-1.1.99-1.96.99A2.45 2.45 0 0123 28.5c0-1.45 1.08-2.5 2.56-2.5.87 0 1.57.35 1.96.99l.09.14-.74.49-.1-.14a1.4 1.4 0 00-1.2-.6c-.94 0-1.57.66-1.57 1.62 0 .95.63 1.62 1.56 1.62.24 0 .47-.04.68-.15zM33.45 26c1.34 0 2.34.99 2.38 2.35v.14l-3.74.72c.26.58.8.9 1.52.9a1.63 1.63 0 001.29-.54l.12-.14.57.65-.1.1a2.42 2.42 0 01-1.89.82c-1.53 0-2.6-1.03-2.6-2.5a2.4 2.4 0 012.45-2.5zM32 28.43l2.81-.55a1.35 1.35 0 00-1.36-1.03c-.89 0-1.45.66-1.45 1.58zm5.59-1.86V26h-1v5h1v-2.53c0-.97.46-1.53 1.35-1.53h.31V26h-.16c-.67 0-1.14.2-1.5.57zM40 26h1v5h-1v-5zm.49-2a.62.62 0 10.02 1.23.62.62 0 00-.02-1.23zm1.26 4.5c0-1.45 1.05-2.5 2.5-2.5s2.5 1.04 2.5 2.5c0 1.45-1.05 2.5-2.5 2.5a2.42 2.42 0 01-2.5-2.5zm2.5 1.62c.9 0 1.5-.68 1.5-1.62 0-.96-.59-1.63-1.5-1.63-.9 0-1.5.67-1.5 1.63 0 .95.6 1.62 1.5 1.62zM49.98 26a1.84 1.84 0 00-1.48.58V26h-1v5h1v-2.6c0-.88.47-1.4 1.36-1.4.8 0 1.14.52 1.14 1.21V31h1v-2.85c.01-1.35-.74-2.15-2.02-2.15zm-30.31 4c.87 0 1.34-.53 1.34-1.52V26h1v4.41c0 1.74-.76 2.59-2.3 2.59-.85 0-1.66-.3-2.11-.8l-.1-.1.06-.09c.2-.18.38-.38.54-.6l.05.05c.41.41.97.56 1.53.54.84-.02 1.33-.4 1.33-1.5-.4.37-.87.52-1.4.5-1.33 0-2.1-.83-2.1-2.26V26h1v2.68c0 .91.36 1.32 1.16 1.32z" fill="#fff"/></svg>