<!-- by TradingView --><svg xmlns="http://www.w3.org/2000/svg" width="56" height="56"><path fill="#133880" d="M0 0h56v56H0z"/><path d="M4 31.2v.27c0 .3.24.53.53.53h5.94c.3 0 .53-.24.53-.53v-.97c-1.13.08-2.1.18-3 .28-.12.17-.31.22-.5.22-.24 0-.3 0-.5-.13l-.3.04-.19.04c-.94.1-1.77.2-2.51.25zm7-6.11v-1.56c0-.3-.24-.53-.53-.53H8.5c-.3 0-.51.24-.51.53v.93c0 .3-.27.54-.56.54h-2.9c-.3 0-.54.24-.54.53v4.89c.62-.04 1.31-.12 2.1-.21l.32-.04.43-.06.15-.02v-3.47c0-.3.27-.53.53-.53s.47.24.47.53V30c.9-.1 1.9-.19 3-.27V25.1zm13 6.37v-.78l3 .2v.58c0 .3-.24.54-.54.54H24.5c-.29 0-.5-.24-.5-.54zm-4 0v-1.01c.97.04 1.95.1 3 .17v.84c0 .3-.21.54-.51.54h-1.96a.54.54 0 01-.53-.54zM26.47 25c.29 0 .53.24.53.54v4.56l-1.28-.1-1.72-.1v-3.34c0-.3-.24-.55-.5-.55s-.5.24-.5.55v3.28a158.9 158.9 0 00-3-.17v-4.12c0-.3.24-.54.54-.54h5.93zm10.06 7a.54.54 0 01-.53-.54l.25.02c2.58.16 4.82.1 6.75-.07v.05c0 .3-.24.54-.53.54h-5.94zM36 25.54c0-.3.24-.54.53-.54h5.94c.29 0 .53.26.53.56v5.08c-.92.08-1.9.14-3 .16v-4.27c0-.3-.24-.53-.5-.53s-.5.23-.5.53v4.27c-.86-.01-1.74-.04-2.7-.1l-.3-.03v-5.13zm8 5.03c1.12-.13 2.14-.3 3-.47v-.2c0-.3-.26-.4-.56-.4h-1.9c-.3 0-.54.1-.54.4v.67zm6.21-.53c-.56.2-1.26.43-2.21.66 0 .13-.25.3-.51.3-.3.02-.45-.04-.49-.1-.88.17-1.88.33-3 .46v.1c0 .3.24.54.54.54h5.93c.29 0 .53-.24.53-.54v-1.72l-.79.3zm.79-3.85c0 .3-.24.31-.54.31h-1.97c-.3 0-.49-.04-.49-.2 0-.11-.19-.3-.5-.3s-.5.23-.5.53v.5c0 .29.22.47.48.47h2.98c.29 0 .54.24.54.55v.86l-.03.01-.14.05a21.56 21.56 0 01-2.83.93v-.53c0-.51-.23-.87-.76-.87h-2.7a.54.54 0 01-.54-.54v-2.42c0-.3.24-.54.53-.54h5.93c.29 0 .54.24.54.54v.65zm-39 4.25v1.02c0 .3.24.54.53.54h5.94c.3 0 .53-.25.53-.54V30.4a84.65 84.65 0 00-3-.07v.13c0 .3-.24.53-.5.53a.52.52 0 01-.5-.53v-.13c-1.1 0-2.07.04-3 .1zm.53-5.44c-.3 0-.53.26-.53.55v.9c0 .3.24.55.53.55h1.96c.3 0 .51-.06.51-.35v-.13c0-.3.24-.52.5-.52s.5.22.5.52v.95c0 .3-.24.53-.5.53h-2.97c-.3 0-.53.25-.53.55v1.1c.92-.06 1.9-.1 3-.1 0-.3.24-.55.5-.55s.5.25.5.55c.96 0 1.94.03 3 .07v-4.08c0-.3-.24-.54-.53-.54h-5.94zM28 31.46v-.56l1.93.14.75.05.7.05h.02l.1.02h.04l2.07.15 1.39.1v.05c0 .3-.25.54-.55.54h-5.92a.54.54 0 01-.53-.54zm0-5.91c0-.3.24-.55.54-.55h5.93c.29 0 .53.24.53.54v5.07a302.79 302.79 0 01-3-.22v-.86c0-.3-.24-.53-.5-.53s-.5.23-.5.53v.8l-1-.08-1.09-.08-.91-.07v-1.56c0-.3.24-.54.53-.54h2.96c.26 0 .51-.24.51-.54v-.92c0-.3-.25-.54-.5-.54-.27 0-.5.24-.5.54v.1c0 .3-.2.36-.5.36h-1.96a.55.55 0 01-.54-.55v-.9z" fill="#fff"/></svg>