<!-- by TradingView --><svg width="56" height="56" xmlns="http://www.w3.org/2000/svg"><path fill="#F0F3FA" d="M0 0h56v56H0z"/><path d="M29.289 20.241c5.211 1.663 22.272 7.761 22.272 7.761H52L28 15 4 28.002h.395S21.5 21.99 26.71 20.232c.787-.277 1.75-.308 2.579.01z" fill="#0099D8"/><path d="M26.743 35.771c-5.119-1.854-22.34-7.776-22.34-7.776L4 27.998 28 41l24-13.002h-.43s-17.183 5.92-22.302 7.773c-.902.297-1.617.288-2.525 0z" fill="#000"/><path d="M32 25.004h2V31h-2l-2-3v2.996L28 31v-5.996L30 25l2 3v-2.996zM17.964 25c2.896.035 3.042 2.523 3.042 3.022 0 .528-.1 1.29-.575 1.92-.52.69-1.35 1.044-2.467 1.055-.925.007-2.964-.001-2.964-.001V25h2.964zM19 28c0-1-1.303-1-1.999-1v2c.94 0 1.999 0 1.999-1zM25 25.004L27.406 31H25.45l-.338-1h-2.384l-.37.996-1.832.004L23 25.004h2zM23.325 29H24.7L24 27l-.675 2zm15.177-3.996L41 31h-2l-.352-1h-2.254L36 31h-1.788l2.28-5.996h2.01zM36.774 29h1.47l-.746-2-.724 2z" fill="#000"/></svg>