<!-- by TradingView --><svg width="56" height="56" xmlns="http://www.w3.org/2000/svg"><path fill="#DE411B" d="M0 0h56v56H0z"/><path d="M22.893 43C20.315 43 18 40.885 18 38.288v-3.365c0-.288.075-1.058-.403-1.538-.477-.481-1.451-.385-1.673-.385h-3.246C10.1 33 8 30.596 8 28c0-2.5 2.1-5 4.678-5h3.246s1.1 0 1.673-.577c.477-.48.403-1.25.403-1.346V17.71c0-2.594 2.315-4.71 4.893-4.71 2.29 0 4.105 1.539 4.582 3.654.095.288.095.577.095.961v3.27c0 .288.191 1.057.669 1.538.668.673 1.623.77 1.623.77h3.245c2.578 0 4.678 2.115 4.678 4.71 0 2.597-2.1 4.712-4.678 4.712-2.577 0-4.677-2.115-4.677-4.711v-3.366c0-.288-.191-1.057-.669-1.538-.477-.48-1.432-.673-1.527-.673h-6.587s-1.05.096-1.623.673c-.477.48-.668 1.346-.668 1.538v6.635c0 .192.19 1.058.668 1.539.668.673 1.623.673 1.623.673h3.246c2.577 0 4.677 2.115 4.677 4.711C27.475 40.885 25.375 43 22.893 43zm5.441-25.288c0 2.596 2.1 4.711 4.678 4.711h3.246s.954.096 1.623.673c.477.48.668 1.442.668 1.539v6.73c0 .289-.191.962-.668 1.539-.573.577-1.623.673-1.623.673h-6.492c-.286 0-1.05-.192-1.527-.673-.478-.48-.669-1.25-.669-1.539V28c0-2.596-2.1-4.712-4.677-4.712-2.578 0-4.678 2.116-4.678 4.712 0 2.596 2.1 4.712 4.678 4.712h3.245s.955.096 1.623.769c.478.48.669 1.442.669 1.538v3.366c0 .384 0 .577.095.961.477 2.116 2.291 3.654 4.582 3.654C35.685 43 38 40.885 38 38.288v-3.365c0-.192.072-.865.549-1.442.573-.577 1.414-.481 1.527-.481h3.246C45.9 33 48 30.5 48 27.904S45.9 23 43.322 23h-3.246c-.19 0-.954-.096-1.527-.577-.477-.48-.549-1.25-.549-1.442v-3.27C38 15.116 35.685 13 33.107 13c-2.673.096-4.773 2.115-4.773 4.712z" fill="#fff"/></svg>