<!-- by TradingView --><svg width="56" height="56" xmlns="http://www.w3.org/2000/svg"><path fill="url(#paint0_linear)" d="M0 0h56v56H0z"/><path d="M22.516 34.698c-.308-.117-.516-.212-.516-.358v-.88c.012-.89 0-2.248 0-2.248.03-.15.108-.212.206-.212.145 0 .225.12.252.501.07 1.033.648 2.185 1.69 2.441.617.152 1.315.092 1.837-.159 2.29-1.183.159-3.707-1.26-4.813-.463-.36-1.609-1.237-1.93-1.637-2.059-2.573.309-5.287 3.2-5.33 1.012 0 1.79 0 2.563.346v2.534c-.05.12-.18.154-.28.074 0-.817-.957-1.751-1.877-1.935a3.697 3.697 0 00-.98-.01c-.994.182-1.599.997-1.421 1.988.279 1.525 2.317 2.181 3.36 3.187.983.95 1.64 1.986 1.64 3.394 0 2.211-2.32 3.38-4.275 3.404-.797.012-1.456.003-2.21-.287zm11.91.227a.962.962 0 01-.137-.253L30.444 23.38c-.21-.562-.37-.818-.575-.922a1.523 1.523 0 00-.582-.122c-.198 0-.287-.043-.287-.172 0-.164.03-.164.76-.162h3.03c.61-.002.657 0 .708.045.052.047.067.15.032.207-.032.052-.155.082-.337.082-.238 0-.36.037-.46.136-.076.075-.083.095-.083.237 0 .538 2.509 8.328 2.547 8.29.025-.022 2.115-5.008 2.205-5.287.03-.094.142-.403.25-.684.108-.28.35-.922.538-1.43.467-1.252.53-1.599.74-1.599.122 0 .2.083.287.255L42.707 31l2.336-7.04c.22-.732.275-1.162.17-1.338-.102-.177-.257-.239-.667-.271-.298-.025-.368-.057-.368-.18 0-.089.055-.141.17-.161.05-.01.93-.01.93-.01h1.9c.796-.022.808-.005.82.167.01.136-.052.181-.257.181-.542 0-.777.152-1.01.65L42.708 34.81a.46.46 0 01-.133.157c-.087.044-.207.04-.277-.015-.227-.178-3.85-8.953-3.85-8.953l-3.714 8.95a.224.224 0 01-.308-.025zM8.924 35S8 35 8 34.816c0-.145.054-.16.364-.181.774-.047 1.636-.575 1.636-1.448V23.152c-.05-.268-.067-.35-.155-.465-.165-.214-.867-.328-1.4-.348-.294-.01-.448.016-.448-.162 0-.177-.015-.202 1.22-.177h3.588c4.826.01 8.195 1.003 8.195 6.187.164 4.23-2 6.813-5.779 6.786-2.1.027-4.216.027-6.297.027zm6.353-1c2.964-.64 3.7-2.655 3.723-5.813.022-3.158-2.328-5.175-5.879-5.187-.745-.002-.906.132-1.031.264-.06.065-.07.08-.09.604-.03.766-.035 8.039 0 8.549.03.462.049.814.104.944.382.898 3.173.64 3.173.64z" fill="#fff"/><defs><linearGradient id="paint0_linear" x1="10.418" y1="9.712" x2="68.147" y2="76.017" gradientUnits="userSpaceOnUse"><stop stop-color="#1A1E21"/><stop offset="1" stop-color="#06060A"/></linearGradient></defs></svg>