<!-- by TradingView --><svg xmlns="http://www.w3.org/2000/svg" width="56" height="56"><path fill="url(#avf3jlsi0)" d="M0 0h56v56H0z"/><path d="M31.68 13c4.47 0 7.55 5.36 7.93 7.46-2.33-1.75-4.25-3-4.92-3.4-1.22-.74-4.1-.66-4.72 2.26-.62 2.9 1.12 4.25 2.07 4.56-2.13-3.9 1.44-4.83 3.15-4.56 7.37 1.12 8.94 6.41 8.8 8.92C43.47 39.5 33.55 43 28.88 43c-3.67 0-7.8-2.2-9.37-3.49a21.78 21.78 0 009.37 1.54c4.43-.29 10.73-4.36 11.08-11.1.27-5.39-3.4-7.1-5.27-7.3 2.11.89 2.88 1.8 3.4 4.77.52 2.97-2.9 12.7-13.45 12.56-10.56-.16-12.79-8.62-12.63-12.56.12-3.16 1.73-4.92 2.53-5.4.15-.08.51-.2.77 0 .25.2.1.51 0 .64-1.4 1.02-1.54 2.38-1.44 2.93 1.27 6.26 8.52 7.77 11.98 7.75 8.07-.62 9.26-5.8 8.84-8.3-.21 1.62-1.25 4.96-6.65 4.91-5.4-.04-12.74-4.96-12.44-10.14.3-5.17 5.28-6.6 7.08-6.6 1.8 0 3.06.66 3.77 1.1.2.09.45.36.34.8-.1.37-.67.3-.94.2-1.07-.64-1.84-.75-2.3-.51-1.62.85-1.5 3.7.23 6.65 1.8 3.08 5.08 5.37 6.6 5.37 1.23 0 1.98-.82 2.2-1.23-4.99.78-6.73-5.05-6.73-6.27 0-2.26 1.36-6.32 5.83-6.32z" fill="#fff"/><defs><linearGradient id="avf3jlsi0" x1="15.09" y1="4.13" x2="40.14" y2="53.81" gradientUnits="userSpaceOnUse"><stop stop-color="#20267F"/><stop offset="1" stop-color="#0B80C8"/></linearGradient></defs></svg>