<!-- by TradingView --><svg width="56" height="56" xmlns="http://www.w3.org/2000/svg"><path fill="#0063CE" d="M0 0h56v56H0z"/><path d="M21.846 31.157a5.782 5.782 0 01.402-2.221 5.733 5.733 0 011.22-1.891 5.66 5.66 0 011.85-1.267 5.609 5.609 0 014.379 0 5.66 5.66 0 011.849 1.267 5.732 5.732 0 011.22 1.89 5.78 5.78 0 01.403 2.222 5.755 5.755 0 01-1.693 3.984 5.63 5.63 0 01-3.969 1.642 5.63 5.63 0 01-3.969-1.642 5.755 5.755 0 01-1.692-3.984zM35 11v8.5c-2.283-1.595-4.714-2.182-7.49-2.177a13.517 13.517 0 00-6.502 1.657c1.053-.288 2.14-.42 3.23-.393 5.735.142 10.193 4.557 10.748 10.183.014.043.014.23.014.23h6.016V11H35zM19.83 29c.954-3.381 4.03-5.916 7.68-5.916a7.9 7.9 0 015.139 1.895 10.039 10.039 0 00-3.554-3.682 9.898 9.898 0 00-10.173-.054 10.044 10.044 0 00-3.778 3.983c-.464.986-.81 2.025-1.032 3.094-.032.206-.06.47-.08.68h5.798zm10.953 14.734c-5.734-.142-10.36-4.6-10.916-10.226L19.832 33H14c1.049 6.589 6.698 12 13.51 12a13.51 13.51 0 006.503-1.659c-1.052.288-2.14.42-3.23.393zM35.193 33c-.956 3.381-4.031 6.237-7.682 6.237a7.895 7.895 0 01-5.138-1.895 10.039 10.039 0 003.554 3.682 9.897 9.897 0 0010.173.054 10.045 10.045 0 003.779-3.983c.464-.987.81-2.026 1.03-3.095.091-.5.091-1 .091-1h-5.808z" fill="#fff"/></svg>