<!-- by TradingView --><svg width="56" height="56" xmlns="http://www.w3.org/2000/svg"><path fill="#F0F3FA" d="M0 0h56v56H0z"/><path d="M24 21l-1 2h29v-.144L24 21zm9 12H4v.212L32 35l1-2z" fill="#ED1C24"/><path d="M50.035 24.504c-.015-.014-.03-.014-.045-.03-.591-.413-1.433-.472-1.95-.472h-8.542c-.961 0-1.537.088-1.818.148a1.623 1.623 0 00-.266.074c-.429.162-.769.413-.916.724 0 0-.148.295-.222.635L34 35.998h4L39 32h7.824c.96 0 1.537-.096 1.818-.155a1.64 1.64 0 00.265-.074c.43-.162.769-.443.917-.739 0 0 .148-.265.221-.62l.714-3.913a2.35 2.35 0 00.059-.665c0-.428-.281-.93-.783-1.33zm-2.823 2.397l-.608 2.57c-.03.119-.074.222-.074.222-.059.104-.266.248-.414.307-.03.015.03-.015 0 0-.103.03-.295.003-2.512.003h-3.576a.781.781 0 01-.458-.177c-.178-.148-.281-.325-.281-.488 0-.059 0-.133.015-.236l.607-2.57c.03-.118.074-.222.074-.222a.687.687 0 01.325-.28c.03-.015.06-.03.089-.03h6.103c.133 0 .31.044.459.163.177.147.28.325.28.487 0 .074 0 .163-.03.252zM18.075 20L17 24H9.283c-.96 0-1.537.128-1.818.187a1.784 1.784 0 00-.266.074c-.428.163-.768.443-.916.739 0 0-.148.266-.222.62l-.672 3.855a2.35 2.35 0 00-.059.665c0 .428.252.96.754 1.33.739.547 2.202.532 2.202.532h8.32c.96 0 1.537-.089 1.818-.148a1.76 1.76 0 00.266-.074c.428-.163.768-.443.916-.739 0 0 .148-.266.222-.62l.015-.075L22.075 20h-4zm-1.211 6.922l-.625 2.575c-.03.118-.074.222-.074.222a.684.684 0 01-.325.279c-.03.015.03-.015 0 0H9.766a.729.729 0 01-.458-.146c-.177-.148-.28-.325-.28-.488 0-.059 0-.133.014-.236l.625-2.575c.03-.118.074-.222.074-.222.059-.103.162-.272.31-.331.029-.015-.03.015 0 0h6.06a.79.79 0 01.457.183c.19.159.382.481.296.74zM34 26l1-2H25c-.96 0-1.037.129-1.318.188a1.784 1.784 0 00-.266.074c-.428.162-.768.443-.916.739 0 0-.148.266-.222.62l-.724 3.849a2.35 2.35 0 00-.059.665c0 .428.296.96.783 1.36.015.014.03.014.045.029.546.37 1.404.473 1.906.473h8.77L34 30h-7.823c-.133 0-.31-.073-.458-.19-.177-.149-.28-.326-.28-.488 0-.06 0-.133.014-.237l.414-2.527c.03-.118.074-.222.074-.222a1.07 1.07 0 01.414-.336c.03-.015-.03.015 0 0H34z" fill="#000"/></svg>