<!-- by TradingView --><svg width="56" height="56" fill="none" xmlns="http://www.w3.org/2000/svg"><path fill="#F0F3FA" d="M0 0h56v56H0z"/><path fill-rule="evenodd" clip-rule="evenodd" d="M8.5 23H4v11h4.5a5.5 5.5 0 100-11zm0 3H7v5h1.5a2.5 2.5 0 000-5z" fill="#016193"/><path d="M22.184 29.995A2.632 2.632 0 0120.1 31c-1.436 0-2.6-1.12-2.6-2.5s1.164-2.5 2.6-2.5c1.068 0 1.985.62 2.386 1.504l1.945-2.263a5.5 5.5 0 10-.222 6.8l-2.025-2.046z" fill="#016193"/><path fill-rule="evenodd" clip-rule="evenodd" d="M25 23h5a4 4 0 012.284 7.284L34.731 34H31.14l-1.975-3H28v3h-3V23zm3 5v-2h2a1 1 0 110 2h-2z" fill="#016193"/><path fill-rule="evenodd" clip-rule="evenodd" d="M49 20h-3v3h-3v3h3v3h3v-3h3v-3h-3v-3z" fill="#3BACE4"/><path d="M42 23.5c-.62-.3-1.794-.5-2.5-.5H35v11h4.5a5.5 5.5 0 005.293-7H41.5a2.5 2.5 0 01-2 4H38v-5h1.5c.818 0 1.544.393 2 1h.5v-3.5z" fill="#016193"/><path d="M7 31v-.5C19.5 15 38 18.5 44.5 22c-9-4-26-4-36.5 9H7z" fill="#3AABE4"/></svg>