<!-- by TradingView --><svg width="56" height="56" xmlns="http://www.w3.org/2000/svg"><path fill="url(#paint0_linear)" d="M0 0h56v56H0z"/><path d="M34.484 29.06l-.633-8.32c-.03-.245.15-.307.362-.154l1.115.765c2.743 2.019 3.557 4.221 4.1 7.892l.391 2.967c.03.244-.24.214-.452.091l-4.37-2.355c-.302-.153-.513-.55-.513-.887zm2.472-10.645l-6.903-5.323c-.332-.244-1.053.03-1.053.429v16.242c.03 1.376 1.083 2.6 2.289 3.18l10.76 4.925c1.086.49 2.11-.458 1.93-1.651l-1.356-8.045c-.663-3.915-2.593-7.341-5.667-9.757z" fill="#B3B3B3"/><path d="M25.713 42.627L15.31 39.921c-.512-.153-.332-.522.12-.707l.664-.276c.905-.339 1.9-.43 2.834-.154l6.935 1.998c.513.154 1.508.431 1.93.308l.784-.215c.18-.062.09-.246-.211-.339l-6.573-1.998c-1.146-.338-2.05-1.722.452-2.768l3.256-1.353c1.478-.584 3.95-.584 5.73.185l9.346 3.874c.573.246.513.615.121.708l-2.201.584c-.844.215-1.749.246-2.593-.031l-6.875-2.46c-.633-.215-1.417-.523-1.93-.307l-.693.246c-.211.061-.241.307-.03.369l5.156 1.752c2.834.953 2.442 2.46 1.116 2.83l-2.171.553c-1.84.46-3.106.307-4.764-.093z" fill="gray"/><path d="M13.897 25.07c-.06.368.301.797.602.552l7.295-5.086c.241-.184.362-.092.362.214L22 22.527c-.03.46-.296.735-.688.98l-5.878 3.83c-.362.245-.663.644-.754 1.103l-.361 2.298c-.03.245.27.398.482.306l6.54-3.83c.152-.091.363.093.363.246l-.121 1.715c-.03.337-.241.613-.543.766l-8.289 4.473c-.452.245-.482.49-.572.92l-.151.735c-.211 1.256.814 2.297 1.929 1.807l10.76-4.932c1.237-.582 2.253-1.93 2.283-3.309V13.643c0-.43-.685-.828-1.016-.552l-9.375 7.23c-1.507 1.134-2.38 2.88-2.712 4.75z" fill="#F0F0F0"/><defs><linearGradient id="paint0_linear" x1="10.418" y1="9.712" x2="68.147" y2="76.017" gradientUnits="userSpaceOnUse"><stop stop-color="#1A1E21"/><stop offset="1" stop-color="#06060A"/></linearGradient></defs></svg>