<!-- by TradingView --><svg width="56" height="56" xmlns="http://www.w3.org/2000/svg"><path fill="#0F3C67" d="M0 0h56v56H0z"/><path d="M19.838 34H23.453v-.203c-.453-.145-1.412-.478-1.453-1.74v-9.89c-.082-.192-1.33.378-1.594.53-.406.233-1.096.488-1.096.488v.163c.69.456.69.652.69 1.424v7.285c0 1.221 0 1.74-.162 1.74-1.096-.163-.838-.478-.838-1.74v-5.616c-.122-.204-.284 0-.284 0l-1.11.529-1.296.488v.163c.974.57.65.733.69 1.425v3.011c0 1.221.178 1.577-1 1.74V34h3.838zM48.386 27.214c.04-.651.528-1.017 1.218-1.017.934 0 1.137.773 1.462 1.506 0 .04.04.08.081.08a.382.382 0 00.528-.04c.406-.407 0-1.261-.122-1.384a2.92 2.92 0 00-1.827-.529c-.934 0-2.518.896-2.518 2.157 0 2.158 3.452 2.32 3.452 4.192 0 .733-.569 1.384-1.34 1.384-1.137 0-1.503-.814-1.787-1.506 0-.162-.163-.244-.284-.244-.406 0-.285.896-.041 1.384.244.488 1.218.733 1.95.692 1.623-.082 2.842-.855 2.842-2.32.04-2.93-3.736-2.523-3.614-4.355z" fill="#fff"/><path d="M5.472 22.819c.366.122.528.407.528 1.343v7.855c0 1.628-1.584 1.058-1.543 1.71 0 .203.498.273.998.273h4.719c1.787 0 6.091-.884 6.01-6.053C16.144 22.98 12 22 9.24 22c0 0-3.24 0-4.377.167-.122.041-.406 0-.406.407-.04.082.65.082 1.015.244zM8 23.835C8 23 7.9 22.33 9.159 22.33c3.695 0 5.116 4.11 5.035 6.105-.081 2.727-2.112 5.169-4.345 5.088-.65-.041-1.809-.326-1.85-1.67v-8.017zM36 31.854v-3.378c0 .024-.04-.761.852-.936.65-.082 0 .773 1.057.65h.08c-.364.733-.568 1.547-.527 2.361 0 1.628 1.259 3.297 3.005 3.338.73 0 1.502-.011 2.152-.337.163-.04.122.448.325.448h2.827v-.163c-.934-.488-.771-1.495-.771-2.146v-9.483c0-.285-.163-.081-.163-.081l-2.462 1.058-.04.122c.812.57.665.693.65 1.343v2.076a2.684 2.684 0 00-1.34-.489 4.467 4.467 0 00-3.208 1.221c0-.491-.047-1.017-.65-1.017-1.056 0-1.665 1.058-1.828.895l-.081-1.18c-.282-.282-1.992.78-2.365.977v.162c.527.489.487.53.487 1.262v3.338c0 1.22.081 1.698-.853 1.86C32.233 33.693 32 32 32 31.04v-2.32c0-1.302.02-2.442-2.132-2.442s-2.964 1.71-2.964 2.157c.04.61 1.015.081 1.178-.163.162-.285.365-1.587 1.462-1.628.61-.022.496 1.425.456 3.175 0 0-1.675.448-2.527 1.343-.244.244-.447.57-.569.895-.203.61-.122 1.21.081 1.495-.934.448-1.944-.355-1.985-1.495v-9.93c-.154-.27-1.316.417-1.594.529l-1.096.529v.163c.69.652.65.732.69 1.424v7.285c0 1.221 0 1.636-.588 1.78V34h4.979s.69.04 1.056 0c.69-.04 1.34-.326 1.828-.814.324.285.65.814 1.096.814H37.056v-.244C36 33.693 36 32.3 36 31.854zm5.4-5.373c.732 0 1.6.204 1.6 2.117v3.948c-.406.773-1.234.692-1.843.61-1.177-.163-2.233-.977-2.274-3.256 0-1.628 1.015-3.419 2.518-3.419zM30 32.505c-.486.557-1.808.946-1.634-.448.122-1.017 1.593-2.057 1.634-1.75v2.198zM17.849 24.61a.902.902 0 00.893-.896.946.946 0 00-.934-.936.946.946 0 00-.934.936c0 .529.487.895.975.895zM46.761 25.18c.122.528-.121.691-.446 1.098 1.015-.244 1.705-1.221 1.624-2.28v-.203a.862.862 0 00-1.056-.692c-.446.041-.73.448-.69.855.04.61.406.53.568 1.221z" fill="#fff"/></svg>