<!-- by TradingView --><svg width="56" height="56" xmlns="http://www.w3.org/2000/svg"><path fill="#2F474C" d="M0 0h56v56H0z"/><path d="M21.3 25c-2.006 0-3.491 1.538-3.491 3.5v.019c0 2.01 1.523 3.481 3.415 3.481 1.467 0 2.31-.644 2.933-1.52l-1.38-1c-.398.492-.805.818-1.496.818-.927 0-1.58-.788-1.58-1.798v-.019c0-.981.653-1.78 1.58-1.78.634 0 1.07.309 1.448.79l1.381-1.087C23.524 25.577 22.653 25 21.3 25zm27.795.019c-1.59 0-2.564.904-2.564 2.154v.02c0 1.384 1.089 1.788 2.498 2.115.9.211 1.116.365 1.116.644v.02c0 .288-.265.46-.757.46-.766 0-1.494-.278-2.147-.807l-1.022 1.24c.813.74 1.93 1.116 3.104 1.116 1.608 0 2.677-.818 2.677-2.193v-.018c0-1.26-.946-1.76-2.47-2.097-.917-.211-1.145-.346-1.145-.654V27c0-.24.218-.433.663-.433.586 0 1.249.231 1.854.664l.918-1.318c-.719-.586-1.599-.894-2.725-.894zM4 25v7h2.517c2.384 0 3.775-1.577 3.775-3.52v-.018C10.292 26.519 8.92 25 6.555 25H4zm7.494 0v7H17v-1.587h-3.69v-1.202h2.835v-1.47H13.31v-1.154H17V25h-5.506zM25 25v7h2.124v-2.865L29.404 32h2.208l-2.958-3.5L31.58 25h-2.177l-2.28 2.865V25H25zm7.617 0v7h5.374v-1.587h-3.558v-1.201h2.834V27.74h-2.834v-1.153h3.558V25h-5.374zm6.876 0v7h1.835v-2.173h.804L43.466 32h2.12l-1.58-2.48c.823-.356 1.362-1.04 1.362-2.068v-.019c0-.664-.199-1.317-.587-1.702-.444-.462-1.144-.731-2.157-.731h-3.131zm1.835 1.616h1.201c.616 0 .994.403.994.932v.02c0 .49-.36.797-.984.797h-1.211v-1.75zM6 26.654h.583c1.098 0 1.826.76 1.826 1.837v.018c0 1.087-.728 1.837-1.826 1.837H6v-3.692z" fill="#fff"/></svg>