<!-- by TradingView --><svg width="56" height="56" fill="none" xmlns="http://www.w3.org/2000/svg"><path fill="#ED3529" d="M0 0h56v56H0z"/><path d="M45 27h-2.65L41 28.997V30l1.35 2H45l-2-2.5 2-2.5zm-17 5h2v-7l-2 .676V32zm11-.005h2v-7l-2 .676v6.324zm-12.783-1.99h-2.648l1.105-1.002h-1.756c-.253.008-.927.106-.918.81.009.703.666.84.918.84H27v1.35h-4.84c-.736.008-2.16-.487-2.16-2.559 0-2.067 1.831-2.44 2.832-2.44h1.51c1.123 0 1.7.206 1.875.293.244.134.743.526.781 1.247.038.72-.505 1.25-.781 1.46zm10.999-.008h-2.648l1.105-1.002h-1.755c-.254.008-.927.106-.919.81.009.703.666.84.919.84h4.081v1.35h-4.84c-.736.008-2.159-.487-2.159-2.56 0-2.066 1.83-2.44 2.831-2.44h1.51c1.123 0 1.7.207 1.875.294.245.134.743.526.781 1.246.038.72-.505 1.25-.781 1.462zM17.284 25H11v2h5.111c.391.133.889.615.889 1.504 0 .89-.498 1.404-.889 1.496H13v-1c-.279-.01-.468-.025-1.021 0-.554.025-.979.642-.979 1v2h6.284c.73-.278 2.203-1.412 2.249-3.731.046-2.32-1.48-3.146-2.25-3.27z" fill="#fff"/><circle cx="28" cy="28" r="19.5" stroke="#fff"/></svg>