<!-- by TradingView --><svg xmlns="http://www.w3.org/2000/svg" width="56" height="56"><path fill="#12487C" d="M0 0h56v56H0z"/><path d="M49.15 24.9c.27.26.75.26 1.02 0 .13-.15.2-.33.2-.51a.72.72 0 00-.72-.7.71.71 0 00-.5 1.21zm-2.22.83c0 .85.7 1.55 1.58 1.55a1.55 1.55 0 001.53-1.93 1.1 1.1 0 01-.39.07c-.28 0-.54-.1-.74-.3a1.03 1.03 0 01-.27-.94l-.13-.01c-.87 0-1.58.7-1.58 1.56zm2.03-3.4a.63.63 0 00-.88 0 .61.61 0 000 .88c.24.24.64.24.88 0a.6.6 0 000-.88zm.76-.66l1.16 1.32c1.4 1.46 1.53 3.65.13 5a3.65 3.65 0 01-5.04 0c-1.38-1.35-1.24-3.5.14-5 0 0 .52-.62 1.14-1.3.61-.66 1.24-1.69 1.24-1.69s.62.98 1.23 1.66zM24.5 27.54c.32-.27.51-.4.95-.4.6 0 1.06.4 1.05 1.78 0 1.46-.45 1.99-1.26 1.99-.34 0-.5-.08-.74-.24v-3.13zm-1.5 3.8c.62.46 1.43.66 2.32.66C27 32 28 30.85 28 28.8c0-2-.94-2.8-2.15-2.8-.55 0-.87.17-1.35.63V24c-.41 0-1.13.03-1.5.08v7.26zM5.5 25.75c.34-.03.73-.05 1.06-.05 1.03 0 1.94.59 1.94 2.52 0 1.8-.67 2.58-1.96 2.58-.32 0-.75-.02-1.04-.05v-5zM4 31.85c.7.1 1.82.15 2.6.15 1.99 0 3.4-1.38 3.4-3.91 0-2.55-1.55-3.59-3.41-3.59-.68 0-1.95.07-2.59.15v7.2zm16.5-3.92v4.06H22v-4.18c0-1.34-.85-1.81-1.82-1.81-.58 0-1.05.13-1.68.67V26c-.44 0-1.11.03-1.5.08V32h1.5v-4.48c.4-.25.69-.38 1.18-.38.72 0 .82.38.82.79zm10-1.92v4.06c0 .4.1.8.82.8.5 0 .79-.14 1.18-.4V26H34v5.92c-.39.05-1.06.08-1.5.08v-.67c-.63.54-1.1.67-1.68.67-.97 0-1.82-.47-1.82-1.81V26h1.5zm7.86 1.39a3.08 3.08 0 00-.6-.06c-.45 0-.8.09-1.26.4V32H35v-5.92c.4-.05 1.04-.08 1.5-.08v.83c.66-.76 1.1-.83 1.52-.83.13 0 .32.02.48.06 0 .45-.06.9-.14 1.34zM39.8 34c1.1 0 2-.46 2.69-2.5l1.88-5.42A13.3 13.3 0 0042.8 26l-1.17 3.67L40.5 26c-.36 0-1.14.03-1.5.08a32.12 32.12 0 001.92 5.53l-.23.57c-.21.44-.4.55-.8.55-.31 0-.73-.04-.95-.14-.1.3-.2.8-.25 1.2.35.18.81.21 1.1.21zm-26.17-7.04c.68 0 1.02.36 1.02 1.18v.24H12.5c.04-.99.43-1.42 1.13-1.42zm2.38 1.5c0-1.52-.74-2.46-2.37-2.46-1.52 0-2.63 1-2.63 3.08 0 1.94 1.05 2.92 2.94 2.92.58 0 1.45-.13 1.96-.36a5.9 5.9 0 00-.3-1.18 4 4 0 01-1.64.35c-1.17 0-1.48-.44-1.48-1.38v-.04h3.46l.01-.07c.04-.27.05-.61.05-.86z" fill="#fff"/></svg>