<!-- by TradingView --><svg width="56" height="56" xmlns="http://www.w3.org/2000/svg"><path fill="#C80651" d="M0 0h56v56H0z"/><path d="M18.914 29.2c.03-.06.082-.16.102-.21l1.254-2.96 1.234 2.99c.02.05.061.13.092.2l-.154.03c-.35.09-.74.15-1.14.15-.402 0-.771-.05-1.162-.15-.072-.02-.175-.05-.226-.05zM6.158 24.5c1.398 0 2.385.47 3.002 1 .74.63 1.11 1.46 1.11 2.5 0 .99-.36 1.81-1.07 2.45-.616.57-1.623 1.028-3.042 1.028h-.452V24.5h.452zm43.17 1.04c.699.66 1.038 1.49 1.038 2.46 0 .96-.35 1.78-1.039 2.46a3.454 3.454 0 01-2.497 1.01c-1.963 0-3.525-1.57-3.525-3.47 0-.96.35-1.79 1.038-2.47.678-.67 1.52-1 2.487-1 .966 0 1.799.34 2.497 1.01zm-16.559.58l1.244-1.04c-1.07-1.39-2.498-2.08-4.184-2.08-2.867 0-5.18 2.23-5.18 5.02 0 2.73 2.302 4.98 5.109 4.98.709 0 1.387-.15 2.045-.44a4.695 4.695 0 001.644-1.18c.432-.47.71-1.01.874-1.6a5.61 5.61 0 00.175-1.81l-.02-.29h-4.482V29h2.754c-.071.6-.39 1.33-.945 1.76-.606.48-1.295.71-2.066.71-.894 0-1.696-.36-2.436-1.07-.668-.66-1.007-1.45-1.007-2.37 0-.97.35-1.81 1.069-2.51.678-.67 1.5-.99 2.446-.99 1.213 0 2.169.54 2.96 1.59zm-10.535 4.61l.915 2.27h1.809l-4.245-10h-.823l-4.358 10h1.8l.955-2.31c.02-.06.03-.1.041-.14.041.02.103.04.174.07a5.374 5.374 0 003.382.07c.186-.06.247-.09.298-.12.01.04.041.13.052.16zM6.107 33c1.83 0 3.238-.55 4.183-1.38 1.08-.94 1.625-2.14 1.625-3.61 0-1.53-.556-2.76-1.666-3.68-.935-.78-2.323-1.36-4.122-1.36H4V33h2.107zM15 23h-1.75v10H15V23zm22 5.33h3.683v-1.52H37v-2.12h3.992V23h-5.428v10h5.438v-1.68H37v-2.99zm6.18-3.86c-1.016.97-1.52 2.16-1.52 3.54 0 2.79 2.313 4.99 5.17 4.99 2.867 0 5.17-2.19 5.17-4.99 0-1.37-.514-2.54-1.511-3.53-1.008-.99-2.23-1.48-3.66-1.48-1.417 0-2.64.49-3.648 1.47z" fill="#fff"/></svg>