<!-- by TradingView --><svg xmlns="http://www.w3.org/2000/svg" width="56" height="56"><path fill="url(#ad2iabam3)" d="M0 0h56v56H0z"/><path d="M14.24 25.54a.77.77 0 100-1.54.77.77 0 000 1.54zM7 24h1.72c.6 0 1.19.01 1.7.16.41.12.77.3 1.08.54.34.27.62.58.81 1.02.2.44.3.98.3 1.63 0 .7-.1 1.28-.31 1.75-.2.47-.47.85-.8 1.14-.34.29-.75.5-1.23.64-.42.11-.88.12-1.33.12H7v-7zm2.09 6c.48 0 1.03-.36 1.34-.71.35-.4.57-1.04.57-1.92 0-.73-.17-1.29-.5-1.67-.34-.39-.8-.7-1.41-.68C8.93 25 8.65 25 8.5 25v5h.59zM41 32v-.56l.49-.46a19.12 19.12 0 00.87-.95c.1-.13.18-.26.23-.39a.94.94 0 00.08-.36c0-.17-.05-.3-.15-.4-.09-.11-.24-.17-.45-.17-.16 0-.3.03-.43.1-.14.06-.25.12-.34.19l-.22-.64a2 2 0 011.74-.26c.16.06.3.14.4.25.23.22.33.53.33.86 0 .34-.12.64-.3.93-.2.3-.47.58-.74.86l-.3.3h1.39v.7H41zm-27.53-6v5H15v-5h-1.54zm6.03 5v-4H18v4h-1.5v-4H16v-1h.5c0-1.24.95-2 2-2h.5v1h-.4c-.6 0-.6.49-.6.8v.2h1.5c0-1.21.73-2 2-2h.5v1h-.4c-.6 0-.6.48-.6.8v.2h1v1h-1v4h-1.5zm6.5 0h1.5v-5H26v3.02c0 .47-.33.84-.81.84-.49 0-.69-.42-.69-1.14V26H23v2.94c0 1.1.41 2.06 1.63 2.06.6 0 1.03-.18 1.37-.68V31zm2.7-1.36a2.97 2.97 0 001.23.32c.43 0 .65-.13.65-.4a.38.38 0 00-.15-.31c-.1-.08-.28-.17-.56-.28a2.2 2.2 0 01-1.03-.63c-.2-.25-.3-.51-.3-.78a1.43 1.43 0 01.53-1.11c.17-.14.38-.25.62-.33a3.33 3.33 0 012.13.15l-.27 1a3.6 3.6 0 00-.43-.17 1.8 1.8 0 00-.55-.08.74.74 0 00-.44.1.33.33 0 00-.15.3c0 .1.06.2.16.28.11.08.31.17.6.28.45.17.78.38.98.62.2.24.28.52.28.85 0 .46-.16.83-.52 1.11-.36.29-.88.44-1.55.44a3.86 3.86 0 01-1.5-.34l.27-1.02zm8.25 1.2a3.16 3.16 0 001.93.03 2.26 2.26 0 001.4-1.23 2.98 2.98 0 00.04-2.18 2.24 2.24 0 00-1.28-1.28 3.03 3.03 0 00-2.05 0 2.26 2.26 0 00-1.36 1.29c-.12.3-.19.66-.19 1.05 0 .4.06.74.19 1.05a2.21 2.21 0 001.32 1.26zM39 28.5c0 .64-.2 1.5-1 1.5s-1-.86-1-1.5.2-1.5 1-1.5c.81 0 1 .84 1 1.5zm5.5-2.5H46v.7c.3-.36.6-.7 1.35-.7.5 0 .9.18 1.2.53.3.35.45.86.45 1.54V31h-1.5v-2.98c0-.47-.13-1.02-.69-1.02-.6 0-.81.57-.81 1.02V31h-1.5v-5zM33 31v-5h1.5v5H33zm.79-5.46a.77.77 0 100-1.54.77.77 0 000 1.54z" fill="#fff"/><defs><linearGradient id="ad2iabam3" x1="-6.75" y1="31.5" x2="60.5" y2="31.5" gradientUnits="userSpaceOnUse"><stop offset=".15" stop-color="#E7020F"/><stop offset=".89" stop-color="#0019A4"/></linearGradient></defs></svg>