<!-- by TradingView --><svg xmlns="http://www.w3.org/2000/svg" width="56" height="56"><path fill="#F0F3FA" d="M0 0h56v56H0z"/><path d="M28.07 17.57c-3.29.07-6.53.8-9.53 2.14-.93.43-1.78.86-2.54 1.29v4.06a23.77 23.77 0 012.72-2.62c2.14-1.75 5.5-3.86 9.32-3.86 1.76.04 3.48.46 5.05 1.24a19.96 19.96 0 014.46 2.95A24.68 24.68 0 0140 25.2v-4.25c-.82-.51-1.68-.96-2.57-1.35a23.85 23.85 0 00-9.36-2.03z" fill="#003A65"/><path d="M37.14 23.25a19.33 19.33 0 00-4.32-2.87 11.24 11.24 0 00-4.78-1.17c-2 0-5.18.64-8.92 3.7A23.1 23.1 0 0016 26.02V38h.18c.57-2.54 1.69-5 3.3-7.05.33-.43.7-.83 1.1-1.22a19.48 19.48 0 013.24-4.01C26.04 23.54 27.32 23 28 23c1.16 0 2.86 1.51 4.08 2.71a22.94 22.94 0 013.3 3.98c.47.44.9.92 1.31 1.42A15.57 15.57 0 0139.78 38H40V26.17a24.72 24.72 0 00-2.86-2.92zM38.44 38H17.55a11.65 11.65 0 012.3-2.86 12.24 12.24 0 018.18-2.92 12.3 12.3 0 018.18 2.95c.89.78 1.64 1.8 2.21 2.83zm-21.58-.05c.67-1.2 1.54-2.4 2.58-3.31a12.9 12.9 0 018.6-3.05 12.96 12.96 0 018.61 3.11c1.04.9 1.87 2.08 2.5 3.3a14.89 14.89 0 00-2.97-6.47c-1.52-1.9-4.15-4.12-8.14-4.12a9.78 9.78 0 00-4.63 1.1 11.05 11.05 0 00-3.4 2.9 16.92 16.92 0 00-3.15 6.54zM28 23.8c.34 0 1.36.17 3.61 2.38a28.56 28.56 0 011.97 2.15 11.16 11.16 0 00-.57-.33 10.33 10.33 0 00-4.98-1.26 10.51 10.51 0 00-4.96 1.2l-.06.03c-.26.14-.46.25-.73.42 1.65-2.09 4.37-4.6 5.72-4.6z" fill="#003A65"/><path d="M18.29 19.14a25.16 25.16 0 019.78-2.21A24.5 24.5 0 0140 20.2V12H16v8.26a30.9 30.9 0 012.29-1.12z" fill="#003A65"/><path d="M31.66 26.19c-2.25-2.22-3.3-2.46-3.64-2.46-1.37 0-4.14 2.64-5.79 4.72.29-.18.57-.35.86-.5a10.5 10.5 0 014.96-1.2 10.33 10.33 0 015.59 1.6 28.94 28.94 0 00-1.98-2.16z" fill="#009B97"/><path d="M28.04 27.37a9.88 9.88 0 00-4.66 1.13 11.07 11.07 0 00-3.43 2.86 16.56 16.56 0 00-3.1 6.63c.67-1.2 1.54-2.4 2.58-3.3A12.86 12.86 0 0128 31.6a12.93 12.93 0 018.64 3.1 11.5 11.5 0 012.5 3.3 14.57 14.57 0 00-2.93-6.49c-1.52-1.9-4.17-4.15-8.17-4.15z" fill="#009B97"/><path d="M19.38 39c.4 0 .82.06 1.21.18a2.6 2.6 0 011.61 1.5c.32.85.32 1.79 0 2.65a2.49 2.49 0 01-.64.92c-.28.26-.62.45-1 .57a3.94 3.94 0 01-1.2.18h-3.92v-.21c.18 0 .56-.07.56-.2V39.4c0-.14-.38-.2-.56-.2V39l3.94-.01zm-.31 5c.82.01 1.98-.15 2.22-.98a3.6 3.6 0 000-1.97c-.25-.87-1.4-1.06-2.22-1.05H17v4h2.07zM30 39.48c0-.13-.32-.28-.5-.28V39h2v.2c-.12 0-.51.18-.5.28v5c-.01.12.39.32.5.32v.2h-2v-.21c.18 0 .5-.17.5-.3V42.5h-4v1.99c-.01.1.39.3.5.3V45h-2v-.21c.15 0 .5-.17.5-.3v-5c0-.14-.35-.29-.5-.29V39h2v.2c-.12 0-.51.18-.5.28v2.02h4v-2.02zm8.5 5.32v.2h-2v-.2c.1 0 .5-.06.5-.29V40h-2c-.16 0-.32.12-.3.28h-.2v-1.53h.2c-.02.18.14.25.3.25h5c.15 0 .31-.07.3-.25h.2v1.53h-.2c.01-.17-.15-.28-.3-.28h-2v4.51c0 .22.33.3.5.3z" fill="#003A65"/></svg>