<!-- by TradingView --><svg width="56" height="56" xmlns="http://www.w3.org/2000/svg"><path fill="#018A70" d="M0 0h56v56H0z"/><path d="M12 24h-1v9h1v-9zm3 9.115L13.123 35H8V22h5.018L15 23.886v9.229zM19 22h-3v13h3V22zM27 26.986L24 27v-3h-1v9h1v-3h3v3.115L25.078 35H22.08L20 33.115v-9.23L21.904 22h3.174L27 23.886v3.1zM31.002 27L33 22h3l-2.517 6L36 35h-3l-1.998-5.005V35H28V22h3.002v5zM45.96 22L48 23.886V26h-3.004v-2H44v2.996h2l2 2.166v3.953L46.1 35h-3.218L41 33.115V31h3v1.996h.996v-3H43l-2-2.212v-3.898L42.9 22h3.06z" fill="#fff"/><path d="M37.876 25.02c.223-.827.797-2.625 1.306-3.196.637-.714-.455 2.322-1.306 3.197z" stroke="#F6F8FD"/><circle cx="38.5" cy="21.5" r="1.5" fill="#E59127"/></svg>