<!-- by TradingView --><svg width="56" height="56" xmlns="http://www.w3.org/2000/svg"><path fill="#EF182F" d="M0 0h56v56H0z"/><path d="M37 26h-1l3 4-3 4h1l3-4-3-4zM43 26h1l-3 4 3 4h-1l-3-4 3-4zM28 31.848V26h1v5.554c-.024.466.102 1.491 1.55 1.446 1.45-.045 2.213-.824 2.45-1.354V26h1v8h-1v-1.38c-.144.466-1.087 1.395-2.826 1.38-1.74-.015-2.174-1.44-2.174-2.152zM20 30h-6c0 1.339.892 3 2.83 3 1.771 0 2.313-.458 2.596-.592l.203 1.113c-.74.437-2.273.48-2.798.48-3.236 0-3.836-2.707-3.831-4.252-.005-1.718.79-3.748 3.702-3.748C19.578 26.001 20 28.138 20 30zM52.002 30h-6c0 1.338.892 3 2.831 3 1.77 0 2.313-.459 2.595-.593l.203 1.113c-.74.437-2.273.48-2.798.48-3.236 0-3.836-2.707-3.83-4.252-.006-1.718.79-3.748 3.702-3.748 2.875 0 3.297 2.137 3.297 4z" fill="#fff"/><path d="M19 29h-5c0-.449.466-2 2.696-2 1.784 0 2.28 1.333 2.304 2zM51.002 29h-5c0-.449.466-2 2.697-2 1.784 0 2.279 1.333 2.303 2z" fill="#EF182F"/><path d="M11 22H8v1h2v3.7c-.315-.379-1.49-1.152-2.774-1.212-1.607-.074-3.035 1.237-3.214 4.033-.178 2.796 1.632 4.527 3.214 4.478 1.265-.04 2.451-1.018 2.774-1.43V34h1V22z" fill="#fff"/><path d="M9.995 31.468V27.82c-.31-.45-1.252-1.351-2.551-1.351-1.624 0-2.449 1.351-2.449 3.22 0 1.869.825 3.31 2.449 3.31 1.299 0 2.242-1.02 2.551-1.531z" fill="#EF182F"/><path d="M24 22h-3v1h2v11h3v-1h-2V22z" fill="#fff"/></svg>