<!-- by TradingView --><svg width="56" height="56" fill="none" xmlns="http://www.w3.org/2000/svg"><path fill="#F33" d="M0 0h56v56H0z"/><path fill-rule="evenodd" clip-rule="evenodd" d="M9.375 20H16v16H9.375C9.187 36 9 35.803 9 35.607V20.393c0-.196.188-.393.375-.393zM25 28c0-4.393-3.438-8-7.625-8H17v16h.375C21.563 36 25 32.393 25 28zm1 7.611V20.38c0-.324.442-.518.695-.259L33 27.315V36h-6.62c-.19 0-.38-.194-.38-.389zM34 36V20.38c0-.325.45-.52.703-.26L41 26.95V36h-7zm14.63 0H42v-7.985l6.883 7.337a.375.375 0 01-.253.648z" fill="#fff"/></svg>