<!-- by TradingView --><svg xmlns="http://www.w3.org/2000/svg" width="56" height="56"><path fill="#304588" d="M0 0h56v56H0z"/><path fill-rule="evenodd" d="M4 24h3.12a3.4 3.4 0 013.4 3.4v1.2a3.4 3.4 0 01-3.4 3.4H4v-8zm1.5 1.39h1.32c1.21 0 2.2.98 2.2 2.2v.82a2.2 2.2 0 01-2.2 2.2H5.5V25.4zm11.3 4.7a3 3 0 11.14-.5h-4.43c.22.66.8 1.13 1.47 1.13.49 0 .92-.25 1.2-.63h1.62zm-2.82-2.81c.66 0 1.22.45 1.45 1.1h-2.9c.22-.65.79-1.1 1.45-1.1zM37 32a3 3 0 002.83-2h-1.05c-.33.72-1 1.21-1.78 1.21-1.04 0-1.89-.87-1.99-1.99h4.98L40 29a3 3 0 10-3 3zm1.9-3.67h-3.8A2.03 2.03 0 0137 26.8c.9 0 1.65.65 1.9 1.54zM43.63 32a3 3 0 002.81-1.95h-1.06c-.34.68-1 1.14-1.75 1.14-1.1 0-2-1-2-2.21 0-1.22.9-2.2 2-2.2.74 0 1.38.43 1.72 1.08h1.06A3 3 0 1043.62 32zM29.5 24v1H32v7h1v-7h2.5v-1h-6zM47 24h1v2.73a2.31 2.31 0 014 1.59V32h-1v-3.7a1.5 1.5 0 00-3 0V32h-1v-8zm-26 2h1.5v.6a2.18 2.18 0 013.24.24A2.42 2.42 0 0130 28.42V32h-1.47v-3.44a1.16 1.16 0 10-2.32 0V32h-1.38v-3.44a1.16 1.16 0 10-2.33 0V32H21v-6zm-2 6v-3.74c.22-.5.67-.9 1.5-.78v-1.43c-.25-.1-.87-.11-1.5.46V26h-1.49v6H19z" fill="#fff"/></svg>