<!-- by TradingView --><svg xmlns="http://www.w3.org/2000/svg" width="56" height="56"><path d="M0 28a28 28 0 1156 0 28 28 0 01-56 0z" fill="#F0F3FA"/><path d="M33.6 31h.72l.03-4.34L36.07 31h.73l1.72-4.33.02 4.33h.73v-5h-1.22l-1.61 4.1L34.8 26h-1.2v5zm-19.02-3.33V27h-.64v4h.64l.02-2c-.02-1.43 1.84-2.17 1.97-.39.02.28.03.79.03 1.28v1.1h.7l-.03-1.38c-.01-1.47-.02-1.54-.12-1.77-.3-.76-1.26-1.02-1.96-.7-.26.13-.43.32-.6.53zM18.15 31h.7v-4h-.7v4zm-7.01-.12c.44.16 1.27.16 1.71 0l.31-.1v-.68l-.23.12c-.91.46-2.19.13-2.19-1.1h1.06c1.03-.02 1.08-.04 1.22-.14.21-.15.3-.34.3-.65 0-1.24-1.56-1.66-2.47-1.06-1.2.78-1.16 3.12.29 3.61zm1.01-3.27c.45.14.72.69.44.9-.11.1-.18.1-.98.1h-.87c.01-.37.18-.68.44-.86.26-.19.61-.25.97-.14zm11.86-.51c-1.7.57-1.73 3.29 0 3.81.87.27 1.85-.1 2.29-.92.83-1.53-.58-3.45-2.29-2.89zm1.78 2.2c-.1.58-.5 1.15-1.14 1.14-1.47 0-1.68-2.57-.25-2.85.96-.19 1.53.87 1.39 1.7zm24.66-2.23c-.3.1-.5.26-.62.48-.2.4-.17.73 0 1 .18.3.5.52.85.7.27.14.68.31.64.7a.54.54 0 01-.34.42c-.4.18-.89-.03-1.28-.17v.6a2.5 2.5 0 001.51.13c.5-.14.82-.57.84-1.04a.92.92 0 00-.05-.4c-.16-.49-.61-.67-1.04-.87-.35-.16-.54-.37-.54-.6 0-.18.09-.32.28-.42.16-.09.62-.07.9.04l.24.1.02-.54s-.84-.34-1.4-.13zm-29.89 0c-.3.1-.5.26-.62.48-.2.4-.17.73 0 1 .18.3.5.52.85.7.27.14.68.31.64.7a.54.54 0 01-.34.42c-.4.18-.88-.03-1.27-.17v.6a2.5 2.5 0 001.5.13c.5-.14.82-.57.85-1.04 0-.13-.01-.27-.06-.4-.16-.49-.61-.67-1.04-.87-.35-.16-.54-.37-.54-.6 0-.18.09-.32.28-.42.16-.09.62-.07.9.04l.24.1.02-.54s-.83-.34-1.4-.13zm26.27 3.81a3.2 3.2 0 001.71 0l.31-.1v-.7l-.23.13c-.91.46-2.2.2-2.2-1.05h1.06c1.03-.02 1.08-.04 1.23-.14.2-.15.29-.35.29-.66 0-1.27-1.56-1.7-2.46-1.09-1.2.8-1.16 3.1.29 3.61zm1-3.26c.46.14.72.7.44.92-.1.1-.18.1-.98.1h-.86c0-.38.17-.7.43-.88.26-.19.61-.25.98-.14zM40.25 31h.69v-4h-.69v4zM28 27.67V27h-.66v4H28l.02-2.02c-.02-1.41 1.85-2.16 1.98-.37V31h.7v-1.39c0-1.25-.02-1.56-.12-1.8-.3-.75-1.28-1-1.99-.67-.25.12-.41.32-.59.53zm14.29-.01V27h-.64v4h.64v-2c0-1.43 1.88-2.18 2.01-.4V31h.7v-1.4c0-1.3-.03-1.55-.12-1.79-.3-.76-1.28-1-1.98-.67-.26.12-.43.32-.61.52zm-23.44-1.31a.35.35 0 11-.7 0 .35.35 0 01.7 0zm22.07 0a.35.35 0 11-.7 0 .35.35 0 01.7 0z" fill="#6B6C6E"/><path d="M7 24.14A3.5 3.5 0 006 24H4v7h2c1.4 0 2.6-.82 3.16-2H8a1 1 0 01-1-1v-3.86z" fill="#00713D"/><path d="M9.4 28.3a3.51 3.51 0 00-1.7-3.86v3.26c0 .33.27.6.6.6h1.1z" fill="#A58E3E"/></svg>