<!-- by TradingView --><svg width="56" height="56" xmlns="http://www.w3.org/2000/svg"><path fill="#F0F3FA" d="M0 0h56v56H0z"/><path d="M26.337 35.557c-4.125 0-6.542-2.08-6.542-6.103-.01-3.959 2.407-6.097 6.542-6.097s6.592 2.139 6.592 6.102c0 4.023-2.467 6.102-6.592 6.102v-.004zm0-2.847c1.792 0 1.841-1.996 1.858-3.263-.017-1.1-.135-3.262-1.858-3.262-1.664 0-1.808 2.162-1.808 3.262 0 1.267.185 3.263 1.808 3.263zM50.996 27.73L49.16 35H43.96l-1.64-6.684h-.036L40.747 35h-5.304L32.69 24h4.128l1.549 7.427h.033L40.067 24h4.79l1.62 7.427h.032L48.075 24h.157l2.764 3.73z" fill="#6D6E70"/><path d="M49.476 24H52l-.673 2.353L49.477 24zM15.672 36.928L6.84 24H4v11h5v-4.25l6.672 6.178z" fill="#D4272E"/><path d="M7.213 22l8.816 12.998L19 35V24h-5v4.178L7.213 22z" fill="#6D6E70"/></svg>