<!-- by TradingView --><svg xmlns="http://www.w3.org/2000/svg" width="56" height="56"><path fill="#F0F3FA" d="M0 0h56v56H0z"/><path d="M7.1 21.5c.24-2.4 2.1-1.4 3-.59C9.63 29.4 13 33.51 18.54 38c4.43 3.58 18.83 1.97 25.47.7-9.8 3.83-19.13 3.56-22.57 2.95C6.36 38.3 6.79 24.51 7.09 21.5z" fill="url(#apo4yxxz4)"/><path fill-rule="evenodd" d="M9.56 17.36c-.02-.66.39-1.81 2.13-1.17 1.75.63 6.98.4 9.38.2 3.96-.36 12.89-.65 16.92 1.02 5.04 2.09 9.28 5.5 10 14.96.03.92-.02 3.16-.4 4.8-.14.42-.65 1.28-1.58 1.34-1.18.09-5.73.9-8.7 1.6-2.97.71-12.98 2.6-20.58-2.11-3.21-1.99-9.67-7.72-7.17-20.64zm.77.63c.14-1 .18-1.31 1.87-.73 1.66.57 6.79.3 9.07.13 3.78-.32 12.3-.58 16.15.92 4.8 1.88 8.86 4.95 9.54 13.46l.01.23c.03.91.08 2.61-.1 3.87l-.02.22c-.13.97-.22 1.6-1.05 1.66-1.12.07-5.42.55-8.26 1.19-2.83.63-13 1.94-20.25-2.3-3.07-1.78-8.63-7.6-7-18.38l.04-.27z" fill="#73C11C"/><path fill-rule="evenodd" d="M20 21h-4v9h4a4.5 4.5 0 100-9zm0 2.5h-1.5v4H20a2 2 0 100-4z" fill="#CA102D"/><path fill="#03138A" d="M16 31h26v2H16z"/><ellipse cx="27.97" cy="27.29" rx="4.43" ry="4.29" fill="#CA102D"/><path d="M32 23a2.5 2.5 0 012.5-2.5v7A2.5 2.5 0 0132 30v-7z" fill="#CA102D"/><path fill-rule="evenodd" d="M38 30.5a4 4 0 003.67-2.4H39.2a2 2 0 01-3.1-.94h5.84A4.02 4.02 0 0038 22.5a4 4 0 000 8zm1.79-4.9a2 2 0 00-3.58 0h3.58z" fill="#CA102D"/><path d="M27.54 22.98l.6 2.37 1.09-2.22-.38 2.4 3.82-3.72-3.22 4.14L33.5 24l-3.64 2.54 5.6-.65L30 27.25l3.41.83-3.53-.13 1.82 1.55-2.2-.93 2.44 3.53-3.01-3.09.92 3.95-1.63-3.73-.68 3.81-.05-3.86-2.33 3.71 1.66-4.01-1.95 1.34 1.44-1.86-4.5 1.04 4.22-1.7-4.22-.3 4.2-.41-3.89-1.64 4.15.96-4.28-3.77 4.76 3.23-.73-2.36 1.39 2.03.13-2.46z" fill="#F4E40F"/><ellipse cx="27.97" cy="27.29" rx="1.23" ry="1.19" fill="#F0F3FA"/><defs><linearGradient id="apo4yxxz4" x1="7" y1="22.31" x2="34.88" y2="42.13" gradientUnits="userSpaceOnUse"><stop stop-color="#CACBC6"/><stop offset=".51" stop-color="#868686"/><stop offset="1" stop-color="#C9CAC9"/></linearGradient></defs></svg>