<!-- by TradingView --><svg xmlns="http://www.w3.org/2000/svg" width="56" height="56"><path d="M0 28a28 28 0 1156 0 28 28 0 01-56 0z" fill="#FABC11"/><path d="M45 18.7c-.62 9.08-7.47 17.04-17.62 17.04-11.48 0-15.93-9.95-15.33-17.49l3.38-1.07c-.55 4.3.78 7.38 1.7 8.8-1.1-6.06 3.5-10.98 9.26-10.98 5.18 0 9.46 3.76 9.44 9.16.79-2.39 1.26-4.88 1.4-7.4L45 18.7zM26.5 31a6.5 6.5 0 100-13 6.5 6.5 0 000 13zm-10.04 6h4.38l-3.97 4h-4.38l3.97-4zm6.32 4l3.97-4h-4.38l-3.97 4h4.38zm5.9-4h4.38l3.97 4h-4.38l-3.97-4zm5.91 0h4.38l3.97 4h-4.38l-3.97-4z" fill="#1F1C1D"/></svg>