<!-- by TradingView --><svg xmlns="http://www.w3.org/2000/svg" width="56" height="56"><path fill="#F0F3FA" d="M0 0h56v56H0z"/><ellipse cx="27.63" cy="27.97" rx="13.85" ry="13.97" fill="url(#a4gvfvdec)"/><path d="M22.45 17.12c.6-.7-1.49-.63-2.62-.5l.18-.32a13.7 13.7 0 017.62-2.3c5.5 0 10.24 3.22 12.48 7.9l.03.16c-1.87.43-3.63-1.42-2.46-2.19-1.33-.68-1.83-1.5-2.28-2.25-.64-1.05-1.16-1.92-3.89-1.92.28.91 0 1.76-.56 1.25-1.5-1.59-4.33-.85-4.53 0-.16.68.66 1.35 1.1 1.6a8.16 8.16 0 011.4-1.6c1.38.85 2.62 2.93 2.03 3.18-.3.13-.65-.26-.96-.63-.3-.34-.57-.65-.76-.48-.22.22-.12.83-.03 1.34.07.39.13.72.03.8-.13.1-.44-.16-.67-.35-.16-.14-.28-.24-.28-.17 0 .14-3.17 2.56-4.76 3.75-.06.61-.24 1.86-.53 1.93-.3.07-.48-1.19-.54-1.82-.65.12-1.98.27-2.14-.11-1.7.68-1.74 2.7-1.54 3.63l1.06.43c-.15-.27-.26-.86.48-1.08.93-.29 1.07.6.62.65-.36.05-.56 1-.62 1.48.36-.03 1.07-.1 1.07-.17-.34 1.31-.05 1.92.21 2.48.11.22.21.44.27.7-.79-.06-2.03-1.31-1.8-2.2a29.75 29.75 0 00-3.32-2.66c-.47-.27-.07-.83.2-1.08-.04-.1-.1-.45 0-.99-.82-.06-.54-2.55.39-2.81 0-1.96.93-2.72 1.44-2.9.21-.07.73-.5 1.34-1.02.8-.68 1.75-1.49 2.34-1.73zm18.47 6.91h-.3l-1.01 1.56v6.8L34 37.24l-6.58-4.85-.7-.31a4.62 4.62 0 00-3.91.08.46.46 0 00-.19.66l.42.65-.7.91c-.44.04-1.2.32-.64 1.14-.13 1.8 3.05 4.24 4.65 5.23l6.26-1.73 7.5-5a14.01 14.01 0 001.37-6.05c0-1.37-.2-2.7-.56-3.94z" fill="url(#b4gvfvdec)"/><path d="M22.45 17.12c.6-.7-1.49-.63-2.62-.5l.18-.32a13.7 13.7 0 017.62-2.3c5.5 0 10.24 3.22 12.48 7.9l.03.16c-1.87.43-3.63-1.42-2.46-2.19-1.33-.68-1.83-1.5-2.28-2.25-.64-1.05-1.16-1.92-3.89-1.92.28.91 0 1.76-.56 1.25-1.5-1.59-4.33-.85-4.53 0-.16.68.66 1.35 1.1 1.6a8.16 8.16 0 011.4-1.6c1.38.85 2.62 2.93 2.03 3.18-.3.13-.65-.26-.96-.63-.3-.34-.57-.65-.76-.48-.22.22-.12.83-.03 1.34.07.39.13.72.03.8-.13.1-.44-.16-.67-.35-.16-.14-.28-.24-.28-.17 0 .14-3.17 2.56-4.76 3.75-.06.61-.24 1.86-.53 1.93-.3.07-.48-1.19-.54-1.82-.65.12-1.98.27-2.14-.11-1.7.68-1.74 2.7-1.54 3.63l1.06.43c-.15-.27-.26-.86.48-1.08.93-.29 1.07.6.62.65-.36.05-.56 1-.62 1.48.36-.03 1.07-.1 1.07-.17-.34 1.31-.05 1.92.21 2.48.11.22.21.44.27.7-.79-.06-2.03-1.31-1.8-2.2a29.75 29.75 0 00-3.32-2.66c-.47-.27-.07-.83.2-1.08-.04-.1-.1-.45 0-.99-.82-.06-.54-2.55.39-2.81 0-1.96.93-2.72 1.44-2.9.21-.07.73-.5 1.34-1.02.8-.68 1.75-1.49 2.34-1.73zm18.47 6.91h-.3l-1.01 1.56v6.8L34 37.24l-6.58-4.85-.7-.31a4.62 4.62 0 00-3.91.08.46.46 0 00-.19.66l.42.65-.7.91c-.44.04-1.2.32-.64 1.14-.13 1.8 3.05 4.24 4.65 5.23l6.26-1.73 7.5-5a14.01 14.01 0 001.37-6.05c0-1.37-.2-2.7-.56-3.94z" fill="url(#c4gvfvdec)"/><path d="M24 28.43v11.99c.63.08 1.3.12 2 .12V29.9l5-4.63 5 4.63v6.98a18.82 18.82 0 002-1.75v-6.7l-7-6.17-7 6.18z" fill="url(#d4gvfvdec)"/><path d="M34 29.16l1.5 1.38v6.7c-.48.34-.98.67-1.5.97v-9.05z" fill="url(#e4gvfvdec)"/><path d="M31.5 26.84l1.5 1.39v10.52c-.49.25-.99.48-1.5.68V26.84z" fill="url(#f4gvfvdec)"/><path d="M29 28.23l1.5-1.39V39.8c-.5.16-1 .3-1.5.41V28.23z" fill="url(#g4gvfvdec)"/><path d="M28 29.16v11.23c-.5.07-1 .12-1.5.14v-9.97l1.5-1.4z" fill="url(#h4gvfvdec)"/><path d="M35.76 16.14c3.1.23 5.53 1.52 6.8 3.7 2.82 4.83-1.81 12.87-9.84 17.63-8.02 4.77-16.81 4.72-19.63-.11-1.3-2.23-1.1-5.1.3-8a14.63 14.63 0 010-1.49c-2.5 3.9-3.17 7.95-1.4 10.98 3.16 5.41 12.89 5.55 21.73.3S47.16 25.25 44 19.85c-1.75-3-4.4-4.4-8.93-4.14.46.23.26.16.69.43z" fill="#473623"/><path d="M34.91 16.1c3.33.08 6.03 1.25 7.35 3.51 2.76 4.72-1.51 12.41-9.54 17.18-8.02 4.76-16.76 4.8-19.51.08-1.36-2.32-1.02-5.34.62-8.39a14.13 14.13 0 01.07-2.06c-2.9 4.13-3.8 8.52-1.9 11.75 3.15 5.4 12.88 5.54 21.72.3 8.84-5.25 13.44-13.9 10.29-19.3-1.87-3.2-6.03-4.56-10.95-4.05.64.28 1.26.61 1.85.98z" fill="url(#i4gvfvdec)"/><defs><linearGradient id="a4gvfvdec" x1="36.21" y1="23.69" x2="14.64" y2="30.69" gradientUnits="userSpaceOnUse"><stop stop-color="#0D2237"/><stop offset="1" stop-color="#30557C"/></linearGradient><linearGradient id="b4gvfvdec" x1="31.63" y1="15.07" x2="18.09" y2="39.19" gradientUnits="userSpaceOnUse"><stop offset=".35" stop-color="#68543A"/><stop offset=".55" stop-color="#EDDD9A"/></linearGradient><linearGradient id="c4gvfvdec" x1="21.85" y1="32.8" x2="20.85" y2="30.56" gradientUnits="userSpaceOnUse"><stop stop-color="#69563B"/><stop offset="1" stop-color="#fff" stop-opacity="0"/></linearGradient><linearGradient id="d4gvfvdec" x1="27.41" y1="28.4" x2="33.04" y2="31.57" gradientUnits="userSpaceOnUse"><stop stop-color="#7E673E"/><stop offset=".42" stop-color="#F0C486"/><stop offset="1" stop-color="#695333"/></linearGradient><linearGradient id="e4gvfvdec" x1="27.41" y1="28.4" x2="33.04" y2="31.57" gradientUnits="userSpaceOnUse"><stop offset=".42" stop-color="#F0C486"/><stop offset="1" stop-color="#695333"/></linearGradient><linearGradient id="f4gvfvdec" x1="27.41" y1="28.4" x2="33.04" y2="31.57" gradientUnits="userSpaceOnUse"><stop offset=".42" stop-color="#F0C486"/><stop offset="1" stop-color="#695333"/></linearGradient><linearGradient id="g4gvfvdec" x1="27.41" y1="28.4" x2="33.04" y2="31.57" gradientUnits="userSpaceOnUse"><stop stop-color="#7E673E"/><stop offset=".42" stop-color="#F0C486"/><stop offset="1" stop-color="#695333"/></linearGradient><linearGradient id="h4gvfvdec" x1="27.41" y1="28.4" x2="33.04" y2="31.57" gradientUnits="userSpaceOnUse"><stop stop-color="#7E673E"/><stop offset=".42" stop-color="#F0C486"/><stop offset="1" stop-color="#695333"/></linearGradient><linearGradient id="i4gvfvdec" x1="22.88" y1="33.3" x2="25.21" y2="41.39" gradientUnits="userSpaceOnUse"><stop offset=".28" stop-color="#81571F"/><stop offset="1" stop-color="#F4CF91"/></linearGradient></defs></svg>