<!-- by TradingView --><svg xmlns="http://www.w3.org/2000/svg" width="56" height="56"><path fill="#F0F3FA" d="M0 0h56v56H0z"/><path d="M26 10h4v2.12A16 16 0 0143.97 27h-4.01A12 12 0 0030 16.17v2.03a10 10 0 017.8 7.8h-3.09a7 7 0 00-13.42 0h-3.1A10 10 0 0126 18.2v-2.03A12 12 0 0016.04 27h-4A16 16 0 0126 12.12V10z" fill="#EF8114"/><path d="M33.96 36c1.07-.8 1.98-1.83 2.66-3H30v-3h7.78a10.34 10.34 0 00.19-3H18.03a10.43 10.43 0 00.2 3H26v3h-6.62c.68 1.17 1.59 2.2 2.66 3H26v3.86A12 12 0 0116 29h-4c.49 8.37 7.46 15 16 15s15.51-6.63 16-15h-4a12 12 0 01-10 10.86V36h3.96z" fill="#033C90"/></svg>