<!-- by TradingView --><svg xmlns="http://www.w3.org/2000/svg" width="56" height="56"><path fill="#F0F3FA" d="M0 0h56v56H0z"/><path d="M43 16l8 11H35l8-11z" fill="#1E1B1B"/><path d="M38 20l-5 7h-3l8-11v4zm-5 0l-5 7h-3l8-11v4zm-5 0l-5 7h-3l8-11v4z" fill="#FDAF17"/><path d="M14 32.4l2.32 2.6H18l-2.24-2.4c.77-.12 1.74-.6 1.74-1.76 0-.92-.39-1.84-2.26-1.84H12v6h1v-5h1.92c.83 0 1.58.15 1.58.84 0 1.02-1.31 1.09-2.5 1.16v.4z"/><path d="M29.47 35C27.2 35 26 34.06 26 31.87 26 30 27.63 29 29.48 29c1.8 0 2.36.46 2.51.52l.01.96a4.77 4.77 0 00-2.23-.48c-1.57 0-2.77.63-2.77 1.87 0 1.47.95 2.16 2.39 2.16.69 0 1.52-.25 1.61-.31V32h1v2.48a5.8 5.8 0 01-2.53.52zm6.55 0C34.5 35 33 34 33 32s1.5-3 3.02-3C37.5 29 39 30 39 32s-1.5 3-2.98 3zM36 30c-1 0-2 .73-2 2s1 2 2 2 2-.73 2-2-1-2-2-2zm4 5v-6h1v5h3v1h-4zm7.45 0H45v-6h2.46c2.2 0 3.54.92 3.54 2.87C51 34 49.71 35 47.45 35zm.01-5H46v4h1.44c1.55 0 2.56-.65 2.56-2.13 0-1.33-.95-1.87-2.54-1.87z" fill="#FDAF17"/><path d="M21.45 35H19v-6h2.46c2.2 0 3.54.92 3.54 2.87C25 34 23.71 35 21.45 35zm.01-5H20v4h1.44c1.55 0 2.56-.65 2.56-2.13 0-1.33-.95-1.87-2.54-1.87zM7.45 35H5v-6h2.46c2.2 0 3.54.92 3.54 2.87C11 34 9.71 35 7.45 35zm.01-5H6v4h1.44c1.55 0 2.56-.65 2.56-2.13C10 30.54 9.05 30 7.46 30z"/></svg>