<!-- by TradingView --><svg width="56" height="56" xmlns="http://www.w3.org/2000/svg"><path fill="#00AEEF" d="M0 0h56v56H0z"/><path d="M28 28.698v7.309c0 .361-.322.682-.644.803l-2.752.712c-.362.081-.604-.12-.604-.44v-7.35l-2 .532v7.951c0 1.285 1.31 1.968 2.518 1.647l3.623-.964C29.348 38.537 30 37.252 30 36.007v-7.951l-2 .642zm6 8.554v-10.24l-2 .602v10.2l2-.562zm2-12.49v-10.2L38 14v7.819l4-.952v2.289l-6 1.606zm5-6.224v-2.209l3-.803v2.209l-3 .803zm-7 6.746v-10.2l-2 .603v10.16l2-.563zm-16.198-5.903L12 21.068v10.2l5.802-1.687C19.01 29.26 20 27.975 20 26.69v-5.622c0-1.286-.99-2.008-2.198-1.687zM18 26.77c0 .36-.253.682-.575.803L14 28.376v-5.622l3.425-.803c.322-.12.575.12.575.442v4.377zm23.786-1.768L36 26.49v10.2l2-.527v-2.048l3.786-.959C42.994 32.794 44 31.51 44 30.265V26.69c0-1.285-1.006-2.008-2.214-1.687zM42 30.097c0 .362-.282.723-.604.803L38 31.825v-3.574l3.396-.884c.322-.12.604.12.604.441v2.29zm-12-9.792v-1.968c0-1.245-.652-1.968-1.86-1.606L22 18.337v10.16l2-.442v-2.85l3.421-.965c.322-.08.579.12.579.442v2.249l2-.643v-1.927c0-.884-.464-1.526-1.189-1.687.725-.602 1.189-1.486 1.189-2.37zm-2 .843c0 .362-.257.723-.619.803L24 22.955v-2.811l3.381-1.004c.362-.08.619.12.619.482v1.526z" fill="#fff"/><path d="M17.937 30.995l-4.453 1.325c-1.015.277-1.388 1.632-1.448 2.275-.027 1.445-.065 4.668 0 5.995.064 1.327 1.546 1.48 2.28 1.392l3.621-1.017c1.245-.3 1.476-.96 1.61-1.245l1.046.455 1.073-1.592L20 37.9v-5.112c0-1.884-1.348-1.98-2.063-1.793z" fill="#fff"/><path d="M17.243 33.282l-2.585.742a.833.833 0 00-.63.838c-.021 1.316-.05 4.078 0 4.595.05.517.441.519.63.455l3.162-1.018-1.964-.897.799-1.723 1.345.79a143.75 143.75 0 010-3.207c.016-.613-.498-.639-.757-.575z" fill="#00AEEF"/></svg>