<!-- by TradingView --><svg xmlns="http://www.w3.org/2000/svg" width="56" height="56"><path d="M0 28a28 28 0 1156 0 28 28 0 01-56 0z" fill="#F0F3FA"/><path d="M28.5 22H23c0 1.1.9 2 2 2h2a4.5 4.5 0 110 9h-1v-8h-3v10h5.5a6 6 0 006-6v-1a6 6 0 00-6-6z" fill="#241E20"/><path d="M41 24.5l.5-2.5c-2.06-.34-5.08-.53-6.79 1a3.13 3.13 0 00-.81 3.5c.88 2.14 2.46 2.22 4 3.45 1.22.98 1.86 2.5-.56 2.57-.37.01-.82-.03-1.34-.12-.64-.12-1.3-.31-1.9-.5l-.6 2.5c6 1.6 8.5.1 9-2.9.14-.85 0-1.54-.28-2.1-.72-1.43-2.42-2.29-3.81-2.99l-.02-.01c-.46-.23-.9-.53-1.05-1.05-.15-.57.16-.97.73-1.1.84-.2 2.17.03 2.93.25z" fill="#211F20"/><path d="M48.8 24.5l.5-2.5c-2.06-.35-5.08-.53-6.79 1a3.13 3.13 0 00-.81 3.5c.88 2.13 2.46 2.22 4 3.45 1.22.97 1.86 2.5-.56 2.57-.37 0-.82-.03-1.34-.13-.64-.12-1.3-.3-1.9-.5l-.6 2.5c6 1.6 8.5.1 9-2.9.14-.84 0-1.53-.28-2.1-.72-1.42-2.42-2.28-3.81-2.98l-.02-.01c-.46-.24-.9-.54-1.05-1.05-.15-.57.16-.98.73-1.1.84-.2 2.17.03 2.93.25z" fill="#211F20"/><path d="M8 25l5-2 5 2-5 3-5-3z" fill="#0188CA"/><path d="M13 34v-6l-5-3 1 5 4 4z" fill="#0699DC"/><path d="M13 34v-6l5-3-1 5-4 4z" fill="#2372B5"/><path d="M21.3 22.83c-2.5-1-6-1-7.5-.5l5.6 1.5-1.1 6c1.5-1.5 2.6-4.5 3-7z" fill="#231E20"/><path d="M13 38c2.07-1.59 3.97-4.69 4.27-6.18L13 35.92l-4.3-4.1A13.92 13.92 0 0013 38z" fill="#222021"/><path d="M4.7 22.83c2.5-1 6-1 7.5-.5l-5.6 1.5 1.1 6c-1.5-1.5-2.6-4.5-3-7z" fill="#241E20"/></svg>