<!-- by TradingView --><svg xmlns="http://www.w3.org/2000/svg" width="56" height="56"><path fill="#F0F3FA" d="M0 0h56v56H0z"/><path d="M25.12 24c-5.18-.77-11.57-.32-14.12 0 1.05 0 5.72.28 16.04 1.38 10.32 1.1 16.27-.74 17.96-1.8-1.42.42-13.4 1.39-19.88.42zm-20.5 1.7a.75.75 0 00-.62.83c0 .48.36.57.81.67l.3.08 26.64 2.8c6.04 1.82 14.63.25 17.93-.36.75-.14 1.23-.23 1.33-.21.58.08 2.18-2.23-.57-1.65-2.75.57-21.48-.25-25.5-1.33-4-1.07-19.62-.99-20.32-.82zm5.28 5.48c3.96-.12 13.25-.11 18.74.84 6.86 1.2 16.14 1.54 18.36.77-1.25.84-5.33 2.41-11.69 1.96-4.09-.28-8.03-.94-10.92-1.41-1.61-.27-2.9-.48-3.7-.55-2.26-.19-7.63-.45-11.07 0-.21.02-.62-.1-.62-.77s.6-.84.9-.84z" fill="#D9E7F2"/><path d="M16.2 16.05a2.74 2.74 0 00-2.2.5l.16.47a4.2 4.2 0 012.11-.46l-.06-.5z" fill="#A47E5A"/><path d="M19.83 42l-5.28-25.1c.36-.27.94-.33 1.19-.32l5.34 25.16-1.25.26z" fill="url(#axrupyvqp)"/><path d="M19.32 31.47a29.54 29.54 0 00-2.55-11.87c2.48 2.64 4.05 8.88 4.52 11.6-.57.04-1.54.2-1.97.27z" fill="#AFA7A4"/><path d="M21.62 22.03c-.8-2.53-3.63-2.56-4.85-2.41 2.56 3.1 4.1 9.03 4.52 11.58 1.61-.2 3.56.1 4.33.27l-4-9.44z" fill="#F0F3FA"/><path d="M23 22.59l-1.35-.45 3.96 9.35c.34.07.58.59.7.86.37 1 2.27 1.18 3.08 1.13L23 22.6z" fill="#AFA7A4"/><path d="M33.68 22.41a65 65 0 01-10.7.16l6.4 10.88h2.92c.7.37 1.93.25 3.42.34 1.2.07 4.2-.45 5.56-.71-1.71-1.22-4.8-7.27-6.12-10.1-.37-.39-1.14-.53-1.48-.57z" fill="#F0F3FA"/><path d="M32.27 27.22l.37 6.29c.51.42 3 .32 4.18.22l-4.55-6.51zm5.76-1.89l-2.93-2.46c2.1 5.13 4.97 9.09 6.06 10.29h.8l-3.93-7.83z" fill="#AFA7A4"/><path d="M39.53 25.1l-1.44.26 3.74 7.78h.4l-2.7-8.04z" fill="#F0F3FA"/><path d="M16.28 16.56c-.34.31-1.33.58-2.12.46.19-.22.83-.57 2.12-.46z" fill="#513C22"/><path d="M29.7 24.3c-.67 0-1.74.14-2.19.21.3.36 1.14 1.96 1.3 2.46.17.5-.14.52-.74.52-.45 0-1.86-.34-2.5-.52l.78 2.24a5.9 5.9 0 011.86-.7c.56 0 .9 0 1.14.7.18.57.07 2.03 0 2.69h2.32c-.46-.9-1.38-2.73-1.4-2.88-.02-.19-.13-.59.56-.52.56.06 2 .5 2.65.7l-.65-2.23c-.63.22-2 .66-2.41.68a.7.7 0 01-.72-.68V24.3zm-8.99-4.67c-.65-2.23-3.49-2.37-4.83-2.16l.89 2.16c3.46-.32 4.7 1.54 4.87 2.51 1.33 1.01 8.63.63 12.11.32 1.92.22 2.97 2 3.25 2.87.43.19 1.9-.08 2.6-.24l-.63-2.63c-.65.56-2.36.65-3.13.63a3.8 3.8 0 00-4.49-2.8c-6.74 1.01-9.9-.02-10.64-.66z" fill="#303F5C"/><path d="M25.54 31.44c-1.61-.6-4.82-.25-6.22 0v2.34c4.32-1 7.65.19 7.83 1 .15.66 1.19.87 1.69.9 1 0 3.3.05 4.5.26 1.5.26 3.74.22 6.6-.26 2.28-.39 3.22-.36 3.4-.3.15.54.5.42.66.3-.38-.75-1.26-2.28-1.76-2.46a5.2 5.2 0 00-1.98 0c-3.95.87-6.94.51-7.94.23-2.97.26-5.75-.34-5.9-1.08-.12-.6-.63-.87-.88-.93z" fill="#303F5C"/><defs><linearGradient id="axrupyvqp" x1="19.95" y1="38.95" x2="20.54" y2="42" gradientUnits="userSpaceOnUse"><stop stop-color="#A47E5A"/><stop offset="1" stop-color="#EAD6C2"/></linearGradient></defs></svg>