<!-- by TradingView --><svg xmlns="http://www.w3.org/2000/svg" width="56" height="56"><path fill="#F0F3FA" d="M0 0h56v56H0z"/><path d="M22.41 14.68c-.4 2.17-.89 5.4-1.15 8.66-.47 5.76-.18 9.62-.18 9.62l-7.92 7.7s-.6-4.32-.91-9.19c-.18-3.01-.25-5.66-.25-7.26 0-.1.05-.19.05-.28 0-.11.13-1.19 1.16-2.19 1.11-1.1 9.34-7.7 9.2-7.06z" fill="#1496FF"/><path d="M22.41 14.56c-.4 2.07-.89 5.15-1.15 8.27 0 0-8.77-1.02-9.26 1.05 0-.11.16-1.38 1.18-2.34 1.12-1.04 9.37-7.6 9.23-6.98z" fill="#1284EA"/><path d="M12 23.38v.48c.1-.37.26-.64.58-1.05a3.42 3.42 0 012.2-1.07c2.22-.28 5.5-.61 8.8-.7 5.85-.17 10.25.34 10.25.34l7.67-7.41s-4.3-.76-9.2-1.3c-3.21-.38-6.03-.58-7.63-.66-.11 0-1.25-.13-2.31.83l-9.39 8.42c-1.06.96-.97 2.03-.97 2.12z" fill="#B4DC00"/><path d="M41.2 34.25c-2.22.28-5.5.63-8.8.74-5.86.17-10.37-.42-10.37-.42l-7.58 7.49a136.87 136.87 0 0016.53 1.91c.12 0 .3-.09.42-.09.11 0 1.25-.2 2.31-1.15 1.16-1.04 8.14-8.55 7.5-8.48z" fill="#6F2DA8"/><path d="M41.3 34.25a90.4 90.4 0 01-8.46.74s.6 8.59-1.5 8.96c.1 0 1.55-.07 2.57-1.02 1.11-1.05 8.02-8.75 7.4-8.68z" fill="#591F91"/><path d="M31.8 44c-.16 0-.31-.03-.5-.03.4-.07.68-.2 1.1-.52.84-.62 1.1-1.7 1.2-2.13.38-2.17.89-5.4 1.13-8.66.45-5.76.18-9.6.18-9.6l7.89-7.72s.58 4.3.9 9.16c.2 3.18.28 5.99.3 7.54 0 .12.09 1.24-.94 2.24-1.1 1.1-6.75 6.63-9 8.85-1.06 1-2.15.86-2.26.86z" fill="#73BE28"/></svg>