<!-- by TradingView --><svg xmlns="http://www.w3.org/2000/svg" width="56" height="56"><path fill="#F0F3FA" d="M0 0h56v56H0z"/><path d="M11.5 38c-.82 0-1.5-.54-1.5-1.36V19.36c0-.82.68-1.36 1.5-1.36s1.5.54 1.5 1.36v17.28c0 .82-.68 1.36-1.5 1.36z" fill="#00B2A9"/><path d="M17.57 38h-2.02c-.86 0-1.55-.67-1.55-1.5 0-.82.7-1.5 1.55-1.5h2.02c4.04 0 7.43-3.13 7.43-7s-3.4-7-7.43-7h-2.02c-.86 0-1.55-.68-1.55-1.5s.7-1.5 1.55-1.5h2.02C23.32 18 28 22.49 28 28s-4.68 10-10.43 10z" fill="#34B233"/><path d="M37.81 38c-.58 0-1.14-.32-1.4-.86l-8.26-17.02c-.1-.2-.14-.4-.15-.59-.01-.58.32-1.13.9-1.39a1.57 1.57 0 012.06.72L39.2 35.9c.37.74.02 1.62-.75 1.97-.2.1-.43.14-.65.14z" fill="#C70099"/><path d="M39.99 33a1.57 1.57 0 01-1.4-2.23l5.46-11.86a1.54 1.54 0 012.05-.76 1.56 1.56 0 01.75 2.08L41.4 32.1c-.27.57-.83.91-1.4.91z" fill="#6E2CA9"/></svg>