<!-- by TradingView --><svg width="56" height="56" xmlns="http://www.w3.org/2000/svg"><path fill="#FFD41F" d="M0 0h56v56H0z"/><path d="M32.43 16.437c0-.196-.196-.486-.352-.586-.94-.681-1.884.196-2.825.196-.354 0-.707.098-.981-.146 0-.196.158-.246.158-.439-.234 0-.512-.098-.783-.146-.002 0-.59-.048-.944-.195-1.295-.68-2.508-1.026-3.998-.147-.472.244-.94.488-1.451.488-.236 0 .352.585.275.877-.785.148-1.49.439-2.157 1.22v.048c.47.733 1.176.829 1.882.829.235 0 .666.683 1.763.877 1.608.389 2.55-.732 3.686-.148-.077-.242-.077-.389-.077-.585 1.335.443 2.392.39 3.413-.24.94-.296 1.372-1.953 2.392-1.903z" fill="#CD1041"/><path d="M28.98 24.238c-.135-.226-.08-.587-.23-.403-.302.375-.245.941-.208 1.43.017.237-.131.213-.19.139-.342-.403-.471-.728-.627-1.264-.392.144-.435.505-.45.9-.014.335.215.854-.022.804-.43-.094-.627-.973-.666-1.606-.154 0-.27.117-.445.516-.118.292-.183.751-.534.701-.353-.048-.468-.667-.506-1.172-.014-.264-.23-.004-.308.094-.171.213-.452.692-.637 1.079-.276-.39-.276-.972-.314-1.657l-.04-.003c-.43.246-.94 2.002-1.568 2.002-.079 0-.105-.098-.079-.146.299-.55.281-1.174.242-1.856-.01-.224-.098-.613-.224-.458 0 0-.514.72-.723.946-.19.205-.55.587-.901.683 0-.389.627-1.316.274-2.776-.274.389-.392.705-1.212 1-.473.145-.836.05-1.187-.147-.028.435-.11.979-.423 1.347 0 0-1.084-.693-1.398-.643-.275.048-.68 1.417-.878 2.244-.468.02-1.055-.538-1.153-1.14-.375 1.233-.347 2.724-.123 4.19.584 3.828 1.623 6.36 2.212 10.74.226 1.69-1.253 2.81-1.804 4.2.628 0 1.175.037 1.88.005.175-.01.44-.246.49-.518.151-.812.184-1.782.42-2.61.665-.145.86-1.122 1.45-1.56.04-.293-.313-.342-.354-.682.197-.243.472-.538.667-.879.08-.292-.314-.342-.314-.585 0-.242.07-.35.151-.497.155-.279.56-.316.36-.697-.188-.357-.55-.218-.746-.512.118-.489.472-1.072.825-1.266a1.236 1.236 0 00-1.18-.588v-1.02c0-.136.12-.048.12-.048.548.34.942.581 1.491.877-.041.585.117 1.121.195 1.656.078.828.525 1.355.433 2.288-.063.62-.585.901-.897 1.214-.132.133-.359.251-.359.545.352.583.934 1.044 1.366 1.531.325-.494.477-1.29.75-1.825.276-.094.511-.144.708-.29.156-.098.314-.099.469-.197-.116-.486-.51-.73-.782-1.023.155-.196.397-.184.627-.244.127-.036.274-.096.353-.294-.276-.1-.59-.34-.63-.733.316-.289.826-.63.944-1.266-.158-.24-.432-.24-.628-.389-.04-.342.072-.734.131-1.037.03-.16.123-.321.24-.321.824.192 1.693.137 2.476-.006 0 0 .34-.087.28.296-.235 1.268-.579 2.434-.735 3.75-.353.536-.823.78-1.178 1.168-.272.296-.626.342-.744.83l1.57 1.574c.282-.414.548-1.135.745-1.623.076-.195 0-.485.156-.681.351.05.706-.1 1.018-.147.04-.44-.272-.634-.43-.977.275-.096.627-.014.863-.187.15-.112.353-.351.353-.592h-.277c-.076 0-.195 0-.155-.144.47-.148.981-.248 1.294-.781a.215.215 0 01-.195-.145c.032-.136.195-.196.195-.196.313-.148.59-.586.59-.975-.277 0-.629-.1-.708-.439.158-.34.472-.54.786-.588.43 1.221 1.018 2.343 1.683 3.414a.62.62 0 01.04.393l-1.49 2.24c-.078.099-.078.293.04.293l2.118-.096c.15-.024.275-.098.313-.245.04-.73.04-1.463.117-2.192.315-.298.55-.931.982-.931-.041-.289-.274-.339-.431-.533-.04-.392.233-.588.39-.877-.195-.147-.47.194-.666.048.197-.195.353-.293.51-.731.04-.12-.04-.096-.04-.096-.194.096-.366.022-.508-.049-.187-.113-.355-.294-.355-.538.118-.487.438-.87.712-1.213.11-.127.222-.185.273-.04.12.393.191.718.388 1.06.04.241.04.532.156.731.51.389.981.922 1.411 1.608.197.44.512.78.433 1.313l-1.256 2.343c-.052.098-.03.21-.03.21.014.073.086.197.171.171l1.977-.576.099-.06.022-.084-.08-1.806c.196-.293.51-.442.744-.731-.078-.15-.155-.197-.234-.294 0-.295.234-.39.392-.534-.08-.294-.43-.247-.511-.588.314-.24.55-.583.59-1.071-.117-.1-.384-.01-.54-.002-.15.005-.77-.088-.965-.34-.149-.195-.182-.632-.22-1.022 0 0 .003-.128.078-.099a31.307 31.307 0 004.547 1.416s.205.04.276.194c.627 1.366 1.255 2.608 1.928 3.948.158.315.269.604.324.874-.353.782-.896 1.283-1.407 2.017-.194.327.058.6.212.57l1.883-.39s.131-.017.159-.199c.04-.58.194-1.116.116-1.703.156-.34.548-.34.707-.682a2.13 2.13 0 00-.623-.649c-.473-.322-.58-.963-.68-1.365-.255-1.002.48-.714.48-1.353a3.682 3.682 0 00-.51-.627c0-.344.234-.44.47-.539a.655.655 0 00-.274-.393c-.158-.095-.392-.147-.55-.288-.078-.244.588-.438.508-1.171-.195.146-.509.05-.704-.048-.236-.244.155-.489.039-.73-.47-.197-.941-.488-1.373-.782-.305-.205-.447-.807-.588-1.22-.55-1.706-.98-3.41-1.96-4.872-.235-.34-.314-.392-.628-.685-.101-.096-.062-.306.15-.52.196-.194.396-.503.478-.748.432-1.071.39-2.631-.082-3.654-.546-1.27-1.33-1.707-2.273-1.707-1.448 0-2.39 1.462-2.9 2.974-.627 1.9-.432 2.842-1.45 3.767-.164.13-.582.24-.905-.208-.155-.243-.352-.635-.234-.975.119.098.238.36.384.49a.408.408 0 00.52.046c.21-.146.316-.437.316-.729 0-.356-.16-.666-.356-.88-.314-.34-.826-.291-1.178-.047-.47.29-.745.924-.666 1.656.039.489.258.828.415 1.314.043.134-.003.276-.18.296-.274.024-.48-.086-.666-.39zm-10.51-7.46l1.06-.73c.195.047.195.29.312.44.276-.1.157-.589.315-.833.156 0 .156.294.274.44.274 0 .195-.535.315-.779.155-.292.587-.194.51-.683l-.393-2.194c-.047-.26-.16-.38-.237-.341-1.41.633-2.51 1.268-3.843 1.85-.117.05-.234.05-.43.05L14.195 12c.117 1.17.235 2.245.314 2.927.038.145 0 .195-.08.195-.43 0-.822.438-1.096.925-.314.83-.706 1.512-1.334 1.853.118.342.351.536.588.63.196.1.393.05.59.197 0 .098-.04.15-.08.244-.51 1.122.274 2.633-.705 3.462.432.243.94 0 1.293-.486l.078.048a6.888 6.888 0 00-.353 2.535s.03.203-.039.456c0 0-.073.282-.117.421 1.259-.256 1.732-2.26 1.827-2.604l.045-.044.01.063s-.363 1.467 0 2.097c.082.14.222.282.36.265.149-.7.464-1.583.973-2.068.47.047.942.34 1.413.583.275-.827-.236-1.997-.236-1.997l.005-.024.034.024s.392.534.59.731c.232.195.94.39 1.332.097.138-.102.353-.34.391-.535-1.255.098-1.335-1.853-1.921-2.78l.038-.05c.316.197.474.733.785.928l1.714.44c.116.03.16-.196.16-.196.016-.069.175-.843.088-1.218-.195-.148-.274.242-.432.242-.432-.146-.706-.196-1.176-.438l-.784-1.95c-.058-.148 0-.195 0-.195zM32.264 24.2l.05-.06c.903-1.17 1.412-3.12 1.802-4.047.47-1.07.942-1.562 1.648-1.609.59-.048 1.372.585 1.609 1.318.235.633.079 1.46-.197 1.95-.312.583-.9.73-1.412.583-.313-.1-.587-.34-.822-.633-.356.683-.826 1.46-1.374 1.9-.393.343-.863.682-1.293.682l-.011-.084zm-14.42-8.691c0 .342-.196.586-.47.586-.238 0-.433-.244-.433-.586 0-.34.195-.582.432-.582.275 0 .472.243.472.582z" fill="#231F20"/></svg>