<!-- by TradingView --><svg width="56" height="56" xmlns="http://www.w3.org/2000/svg"><path fill="#143461" d="M0 0h56v56H0z"/><path d="M11 26.644V31h-1l-.411-.822a2.128 2.128 0 01-.908.707c-.365.15-.765.225-1.2.225-.73 0-1.36-.17-1.887-.51a3.238 3.238 0 01-1.196-1.397A4.737 4.737 0 014 27.24c0-.354.031-.701.094-1.041a4.69 4.69 0 01.293-.986c.137-.318.31-.607.52-.866.358-.453.766-.773 1.223-.959.462-.186.995-.28 1.6-.28.457 0 .87.057 1.24.17.368.114.695.284.979.51.284.223.522.506.713.85.192.343.329.732.41 1.166l-2.313.247c-.114-.807-.472-1.21-1.074-1.21-.48 0-.795.224-.946.673-.147.45-.221.98-.221 1.59 0 .642.068 1.117.205 1.424.095.226.237.407.426.542.188.135.4.203.636.203.314 0 .57-.088.77-.263.198-.179.298-.418.298-.718H7.569v-1.65H11zM17.474 31h-2.12l-.756-2.38H14V31h-2v-6h3.08c.693 0 1.229.129 1.606.386.248.158.437.367.567.627.26.521.272 1.131-.075 1.634-.177.26-.453.475-.828.644L17.474 31zM14 27.291h.544c.455 0 .81-.057.81-.554 0-.34-.493-.409-.735-.409H14v.963zM21.649 31l-.354-1.223h-1.656L19.26 31h-1.555l1.935-6h2.01l1.952 6H21.65zm-1.696-2.586h1.019l-.51-1.802-.509 1.802zM28 29h-2v2h-2v-6h4.586v1.482H26v1.012h2V29zM30.34 30.394c-.023.101-.034.19-.034.247 0 .247.17.359.555.359h2.199l.068-.28c-.238-.045-.352-.146-.352-.348 0-.068 0-.124.046-.315l1.167-5.05h1.088c.487 0 .555-.056.691-.662l.283-1.19h-.34c-.113.281-.26.36-.657.36H30.94c-.578 0-.646.056-.793.696l-.272 1.178h.317c.125-.314.238-.381.68-.37l.714-.011-1.246 5.386zM39.512 28.413c.518 0 .677-.073.814-.419.148-.346.254-.911.254-1.34 0-.493-.148-.817-.486-1.038-.307-.198-.773-.272-1.65-.272-1.82 0-2.38.377-2.91 1.98-.264.827-.475 1.864-.475 2.42 0 .596.264.994.783 1.162.349.115.846.167 1.65.167 1.734 0 2.03-.104 2.19-.785l.274-1.205h-.243c-.095.346-.402.461-1.227.461-1.09 0-1.301-.084-1.301-.513 0-.147.032-.325.095-.618h2.232zm-2.031-.943c.127-.628.36-.858.772-.858.307 0 .476.146.476.408 0 .115-.021.262-.063.45H37.48zM44.772 30.35l.286-1.235h-.254c-.159.335-.349.419-1.005.419-.761 0-1.005-.136-1.005-.534 0-.168.043-.409.16-.922.094-.43.158-.66.21-.796.17-.44.35-.534.91-.534l.772-.01c.413.01.487-.053.593-.493l.19-.828h-2.263c-.952 0-1.407.21-1.788.849-.444.744-.93 2.556-.93 3.456 0 .45.116.744.422.995.328.262.91.356 1.968.356 1.216 0 1.607-.146 1.734-.722zM45.648 30.434a1.075 1.075 0 00-.032.241c0 .22.159.325.508.325h1.83l.053-.24c-.201-.022-.307-.137-.307-.305 0-.073.01-.146.042-.314l.614-2.66c.137-.566.306-.744.719-.744.243 0 .37.115.37.325 0 .084-.01.136-.063.377l-.698 2.995c-.032.137-.032.178-.032.241 0 .22.158.325.518.325H51l.053-.24c-.201-.032-.317-.137-.317-.305 0-.083.01-.136.053-.314l.803-3.467c.043-.23.074-.387.074-.513 0-.576-.37-.785-1.353-.785-.953 0-1.206.136-1.672.869l.392-1.665c.02-.074.031-.178.031-.241 0-.22-.169-.325-.518-.325h-1.83l-.053.251c.201.021.318.126.318.294 0 .083-.01.157-.053.314l-1.28 5.561z" fill="#fff"/></svg>