<!-- by TradingView --><svg width="56" height="56" xmlns="http://www.w3.org/2000/svg"><path fill="#F0F3FA" d="M0 0h56v56H0z"/><path d="M28 8L8 28l20 20 20-20L28 8z" fill="#FF5218"/><path d="M13.64 33.67l-2.825-6.306 7.12 5.327-3.207-10.056 6.36 7.555-1.74-11.957 4.457 9.73-.707-13.643 3.479 12.12.815-16.686 2.88 17.013 5.11-9.784-2.066 12.446 7.012-8.044-2.772 9.566 7.12-4.456-3.068 7.91L28 47.998 13.64 33.67z" fill="#FFF742"/><path d="M28 48L15.217 35.246s11.632-8.534 25.71-.164L28 48z" fill="#39BD94"/><path d="M30.925 15.95l-.761-.109.815.924-.597 1.197 1.413-.925.815.979-.218-1.414 1.36-.434-1.088-.327.653-.815-1.087.435v-1.196l-.707 1.087-.707-.87.11 1.468z" fill="#FFCF01"/><path d="M36.686 10.08l-.924-.76.543 1.358-1.032.38 1.522.381v1.413l.815-1.413 1.413.598-.924-1.305.979-.87-1.033.11.38-1.033-1.032.924-.218-1.305-.489 1.522zM38.697 13.994l.707-.87-.108 1.087 1.087-.598-.544.924.924.435-1.033.163.163 1.576-.979-.978-1.14.707.272-1.25-.924-.653.815-.054-.054-1.25.814.76z" fill="#FF1E05"/></svg>