<!-- by TradingView --><svg width="56" height="56" xmlns="http://www.w3.org/2000/svg"><path fill="#F05537" d="M0 0h56v56H0z"/><path d="M44 32v-5h-1v-1h1v-2h1v2h1v1h-1v5h-1zm-3 0h1v-6h-1v6zm-.43-7.887c0-.527.4-.923.92-.923.518 0 .907.396.907.923s-.39.934-.908.934a.913.913 0 01-.92-.934zM40 26c-.742.04-1.556.284-2 .619V26h-1v6h1v-2.987c0-1.14.315-2.013 2-2.013v-1zm-8 3c0 1.093.51 1.992 1.766 2 1.256.008 1.926-.897 1.926-1.987S35.131 27 33.766 27C32.4 27 32 27.907 32 29zm-1 3v-8.607L32 23v3.535c.448-.372 1.188-.535 1.766-.535 1.926 0 2.97 1.325 2.97 2.979 0 1.641-1.139 3.021-2.97 3.021-.899 0-1.505-.463-1.766-.696V32h-1zm-3 0v-5h-1v-1h1v-1.67l1-.33v2h1v1h-1v5h-1zm-3 0v-3.804C25 27.094 24.055 27 23.72 27c-.334 0-1.721.106-1.721 1.196V32h-1v-6h1v.534c.137-.2 1.054-.534 1.82-.534 1.226 0 2.18.534 2.18 2.523V32h-1zm-7.746-4.867c.84-.221 1.791.098 2.072.997l-3.201.985c-.187-.671.289-1.76 1.13-1.982zm2.358 2.84c-.226.34-.794.844-1.183.934-.854.203-1.629-.199-2.134-.934l3.137-.922.468-.11.617-.21c.027-.097.02-.283 0-.417-.264-1.865-1.91-2.601-3.487-2.231-1.577.37-2.31 1.97-1.946 3.572.365 1.602 1.938 2.601 3.514 2.232a2.936 2.936 0 002.014-1.684l-1-.23zM12 32l-2.002-6h.998l1.504 5 1.502-5H15l-2 6h-1zM6.259 27.17c.84-.222 1.79.097 2.071.996l-3.2.986c-.187-.671.288-1.76 1.129-1.982zm2.358 2.84c-.227.339-.794.844-1.183.933-.854.203-1.63-.198-2.135-.934l3.137-.921.468-.11.618-.211c.026-.097.019-.282 0-.416-.265-1.865-1.911-2.601-3.488-2.232-1.577.37-2.31 1.97-1.945 3.573.364 1.602 1.937 2.6 3.514 2.231a2.936 2.936 0 002.014-1.683l-1-.23zM48.646 27.17c.84-.222 1.791.097 2.072.996l-3.201.986c-.186-.671.289-1.76 1.13-1.982zm2.358 2.84c-.226.339-.794.844-1.183.933-.854.203-1.629-.198-2.134-.934l3.137-.921.468-.11.617-.211c.027-.097.02-.282 0-.416-.264-1.865-1.91-2.601-3.487-2.232-1.577.37-2.31 1.97-1.945 3.573.364 1.602 1.937 2.6 3.513 2.231a2.936 2.936 0 002.014-1.683l-1-.23z" fill="#fff"/></svg>