<!-- by TradingView --><svg width="56" height="56" xmlns="http://www.w3.org/2000/svg"><path fill="#F0F3FA" d="M0 0h56v56H0z"/><path d="M10 38.997L20 39v-1h-7V27h5v-1h-5V16h7v-1H10v23.997zM22 39h3.5c1.1 0 2.63-.477 3.275-1.041 1.042-.913 1.508-2.484 1.362-3.845-.115-1.085-.395-1.962-.84-2.628-.476-.718-1.233-1.065-1.985-1.449 0-.07.389-.294.45-.347.683-.6 1.085-1.405 1.199-2.401.041-.352.045-.864.011-1.176-.171-1.556-1.888-2.954-3.416-3.117H22V39zm2.891-15c.6.042 1.226.827 1.55 1.321.407.63.4 1.472.322 2.19C26.669 28.359 26 29 25.5 29H24v-5h.891zM25 31c2.076.168 2.82 1.1 3 3.196.13 1.565-.954 3.688-2.699 3.794-.432.024-.868.01-1.301.01v-7h1zM37.472 23.006c1.06 2.951 2.102 5.908 3.211 8.84L37.503 39h1.256l2.496-5.676 2.22 5.668h2.58l-3.357-8.925A181.156 181.156 0 0045.704 23h-1.207l-2.322 5.535L40.215 23s-2.743-.004-2.743.006z" fill="#231F20"/><path d="M36 21.5l-4.5-.5 2 21L36 21.5zM31.5 15.5l.5-.5c3.5 0 6.5 1 6.5 1s1.5.5 1.5 1.5c0 1.803-4.615 2.962-7.5 2-6-2-1.197-7.5 3.5-7.5v1.5c-1.5-.5-5.5 1.5-5 3.5.727 2.907 8 1 8 .5s-2.23-1.182-3.5-1.5c-2-.5-4-.5-4-.5z" fill="#1694D1"/></svg>