<!-- by TradingView --><svg width="56" height="56" xmlns="http://www.w3.org/2000/svg"><path fill="#E12358" d="M0 0h56v56H0z"/><path d="M31.013 19c6.472 0 10.476 4.965 10.927 5.61.08.118.08.236 0 .324-.08.088-.212.088-.318 0C41.357 24.669 37.286 21 31 21c-6.26 0-10.33 3.67-10.622 3.904a.224.224 0 01-.318 0 .248.248 0 010-.323C20.537 23.935 24.542 19 31.013 19zM8 28.443c-.025-.425-.285-1.938-1.49-1.938-1.182 0-1.46 1.54-1.51 1.938h3zm-1.319 3.56C4.467 32.002 4 30.275 4 28.973 4 27.354 4.738 26 6.51 26c2.164 0 2.484 1.859 2.484 2.656 0 .106-.05.344-.246.344H5c-.05.876.255 2.497 1.854 2.497.984 0 1.5-.77 1.672-.982.123-.16.394-.053.32.212-.098.213-.689 1.275-2.165 1.275zM24.005 28.443c-.025-.425-.286-1.938-1.493-1.938-1.182 0-1.462 1.54-1.51 1.938h3.003zm-1.32 3.56c-2.217 0-2.685-1.727-2.685-3.029 0-1.62.739-2.974 2.512-2.974C24.68 26 25 27.859 25 28.656c0 .106-.05.344-.246.344H21c-.049.876.255 2.497 1.856 2.497.985 0 1.503-.77 1.675-.982.123-.16.394-.053.32.212-.098.213-.69 1.275-2.167 1.275zM40.005 28.443c-.025-.425-.286-1.938-1.493-1.938-1.182 0-1.462 1.54-1.51 1.938h3.003zm-1.32 3.56c-2.217 0-2.685-1.727-2.685-3.029 0-1.62.739-2.974 2.512-2.974C40.68 26 41 27.859 41 28.656c0 .106-.05.344-.246.344H37c-.049.876.255 2.497 1.856 2.497.985 0 1.503-.77 1.675-.982.123-.16.394-.053.32.212-.098.213-.69 1.275-2.167 1.275zM26.995 31.732c0 .134-.052.268-.261.268h-.473c-.183 0-.261-.107-.261-.268v-5.46c0-.133.052-.267.235-.267h.52c.182 0 .245.107.245.267v.732c.105-.16.778-1.004 1.85-1.004.836 0 1.15.509 1.15.884 0 .455-.261.643-.575.643-.366 0-.55-.188-.55-.59 0-.267-.156-.428-.418-.428-.575 0-1.462.482-1.462 1.66v3.563zM43 31.732c0 .134-.061.268-.263.268h-.485c-.176 0-.252-.107-.252-.268v-5.456c0-.134.05-.276.252-.276h.495c.177 0 .253.115.253.276V27c.05-.08.616-1 1.828-1C46.293 26 47 27.018 47 28.17v3.566c0 .134-.05.268-.227.268h-.502c-.177 0-.271-.107-.271-.268V28.25c0-1.098-.692-1.714-1.475-1.714-.783 0-1.525.616-1.525 1.714-.025.455 0 3.482 0 3.482zM11 26.277V27c.051-.08.653-1 1.898-1 1.475 0 1.812.893 1.863 1 .05-.107.604-1 2.002-1C18.187 26 19 27.018 19 28.17v3.562c0 .134-.05.268-.254.268h-.486c-.178 0-.26-.107-.26-.268v-3.455c0-1.098-.729-1.715-1.542-1.715-.865 0-1.458.72-1.458 1.71v3.456c0 .134-.058.268-.261.268h-.491c-.178 0-.248-.107-.248-.268v-3.482c0-1.098-.644-1.71-1.458-1.71-.788 0-1.542.67-1.542 1.714v3.478c0 .134-.05.268-.254.268h-.492c-.178 0-.254-.107-.254-.268v-5.451c0-.134.05-.277.254-.277h.466c.204 0 .28.116.28.277zM48 26.846c0-.099.074-.151.172-.151.69 0 1.159-.393 1.331-1.498.025-.099.074-.197.247-.197.172 0 .246.074.246.197v1.424h.824c.148 0 .18.098.18.197 0 .098-.057.182-.18.182h-.824v3.625c0 .638.345.908.937.908.37 0 .739-.22.788-.27.099-.049.197-.024.247.05.049.073.049.171-.05.245-.074.049-.566.442-1.478.442S49 31.632 49 30.625V27h-.828c-.123 0-.172-.056-.172-.154zM34.354 26.57l.583-.494c.177-.156.329-.052.48.13.153.182.178.416-.025.52l-.48.209c.025.026.531.468.531 1.353 0 1.352-1.14 2.055-2.481 2.055-.633 0-1.013-.156-1.14-.182-.151.078-.505.234-.505.598 0 .338.253.573.835.573h1.494c1.848 0 2.354.832 2.354 1.639C36 34.089 34.886 35 32.81 35c-2.05 0-2.81-.755-2.81-1.743 0-.833.785-1.17 1.038-1.249-.127-.052-.608-.286-.608-.963 0-.65.71-.988.988-1.066-.228-.104-.937-.599-.937-1.665 0-1.301 1.089-2.056 2.481-2.056.835 0 1.316.26 1.392.313zm-2.374 5.75c-.213 0-.993.312-.993 1.093 0 .702.785 1.093 1.9 1.093 1.493 0 2.126-.599 2.126-1.197 0-.494-.33-.989-1.57-.989H31.98zm.982-2.445c.86 0 1.497-.599 1.497-1.561 0-.78-.586-1.561-1.497-1.561-.911 0-1.438.728-1.438 1.56-.025.937.552 1.562 1.438 1.562z" fill="#fff"/></svg>