<!-- by TradingView --><svg width="56" height="56" xmlns="http://www.w3.org/2000/svg"><path fill="#004438" d="M0 0h56v56H0z"/><path d="M24.216 25c1.23 0 1.965 1.01 1.965 2.072s-.736 1.934-1.965 1.934H23V31h-1.426v-6h2.642zM23 26.272v1.347h1.216a.612.612 0 00.46-.22c.058-.068.104-.12.131-.207a.84.84 0 000-.47.658.658 0 00-.129-.234.628.628 0 00-.462-.216H23zM27.845 28.503c.044.846.67 1.293 1.373 1.293.258.003.513-.057.744-.175.231-.119.432-.293.586-.508l.874.733c-.494.662-1.142 1.137-2.36 1.137-1.66 0-2.593-1.386-2.593-3.022-.006-1.517.893-2.96 2.564-2.96 1.153 0 2.415.846 2.415 3.056 0 .148-.011.298-.022.455l-3.581-.009zm.022-1.138h2.153a1.203 1.203 0 00-.281-.864c-.101-.117-.224-.211-.36-.277a1.072 1.072 0 00-.436-.106c-.15.008-.297.046-.432.113a1.135 1.135 0 00-.358.278 1.223 1.223 0 00-.287.86v-.004zM36 25v1h-1.5v5H33v-5h-1.439v-1H36zM38.379 29H38v2h-1.556v-6h2.62c1.23 0 1.965.824 1.965 1.82-.029 1.18-.606 1.63-1.135 1.822L41.283 31h-1.636l-1.268-2zM38 26.19v1.318h1.064a.583.583 0 00.449-.185.636.636 0 00.176-.468.65.65 0 00-.166-.474.6.6 0 00-.448-.19H38zM41.775 27.977c0-1.533.935-2.976 2.68-2.976 1.744 0 2.7 1.386 2.7 3.022 0 1.534-.932 2.976-2.678 2.976-1.747 0-2.702-1.386-2.702-3.022zm1.407-.022c0 1.395.714 1.84 1.327 1.84.75 0 1.243-.73 1.243-1.75 0-1.337-.693-1.843-1.297-1.843-.78 0-1.273.71-1.273 1.757v-.004zM48 25h1.5v4.5H52V31h-3.998L48 25z" fill="#fff"/><path d="M15.532 27.977c0-1.533.934-2.976 2.681-2.976 1.747 0 2.701 1.386 2.701 3.022 0 1.534-.934 2.976-2.679 2.976-1.745 0-2.703-1.386-2.703-3.022zm1.406-.022c0 1.395.714 1.84 1.33 1.84.747 0 1.24-.73 1.24-1.75 0-1.337-.692-1.843-1.295-1.843-.78 0-1.275.71-1.275 1.757v-.004zM14.767 29.659a2.462 2.462 0 01-.909.995 2.327 2.327 0 01-1.275.345C10.921 31 10 29.613 10 27.978c0-1.534.889-2.977 2.557-2.977.466-.014.926.112 1.325.364.398.252.719.619.922 1.056l-1.081.56a1.274 1.274 0 00-.442-.558 1.198 1.198 0 00-.66-.22c-.77 0-1.241.71-1.241 1.752 0 1.395.69 1.84 1.295 1.84.221 0 .437-.07.622-.198.184-.127.328-.308.415-.52l1.055.582zM5.384 28.502c.044.847.67 1.293 1.372 1.293.257.003.512-.057.743-.175.231-.119.432-.293.586-.508l.874.733c-.494.662-1.142 1.137-2.36 1.137C4.934 30.998 4 29.612 4 27.976 4 26.443 4.9 25 6.57 25c1.153 0 2.415.846 2.415 3.056 0 .148 0 .298-.022.455l-3.579-.009zm.022-1.138H7.56a1.204 1.204 0 00-.282-.864c-.1-.116-.223-.21-.36-.276a1.073 1.073 0 00-.434-.107c-.15.007-.298.045-.433.112a1.133 1.133 0 00-.358.278 1.223 1.223 0 00-.286.861v-.004z" fill="#FDD903"/></svg>