<!-- by TradingView --><svg width="56" height="56" xmlns="http://www.w3.org/2000/svg"><path fill="#F0F3FA" d="M0 0h56v56H0z"/><path d="M41.14 27.163a10.073 10.073 0 00-2.367-5.58 10.15 10.15 0 00-5.15-3.228 10.19 10.19 0 00-6.08.286 10.139 10.139 0 00-4.82 3.697 9.063 9.063 0 013.408-2.095 9.096 9.096 0 017.76.896 9.033 9.033 0 012.835 2.816 8.985 8.985 0 01.914 7.723 9.005 9.005 0 01-2.1 3.395 9.06 9.06 0 01-3.365 2.161 11.725 11.725 0 005.158-2.217 11.651 11.651 0 003.523-4.355c.283-1.143.38-2.325.283-3.499z" fill="#B3B3B3"/><path d="M42.004 23.909a12.956 12.956 0 00-1.907-5.643 13.01 13.01 0 00-4.232-4.202c-5.765-1.94-12.091.558-14.957 5.905a12.369 12.369 0 003.391 15.67 10.085 10.085 0 01-2.737-4.013 10.053 10.053 0 011.243-9.34 10.114 10.114 0 013.694-3.163 10.154 10.154 0 019.453.178 10.108 10.108 0 013.572 3.3 10.063 10.063 0 011.61 4.58 10.87 10.87 0 01-.282 3.493v-.043c.04-.082.074-.173.113-.26.269-.598.487-1.218.652-1.853.405-1.5.536-3.063.387-4.61z" fill="#88AE3B"/><path d="M31.926 38.207A12.392 12.392 0 0119.91 29.15a12.379 12.379 0 015.59-13.967 12.394 12.394 0 0110.389-1.068l.108.047c-.156-.086-.312-.19-.467-.276a13.005 13.005 0 00-4.127-1.523 16.01 16.01 0 00-16.935 7.1 15.995 15.995 0 008.796 23.818 16.01 16.01 0 0017.487-5.603A15.996 15.996 0 0044 28.619a12.393 12.393 0 01-12.074 9.588z" fill="#0E4F82"/></svg>