<!-- by TradingView --><svg xmlns="http://www.w3.org/2000/svg" width="56" height="56"><path fill="#F0F3FA" d="M0 0h56v56H0z"/><path d="M12.67 15l12.21 7.97L45 18.28 12.67 15z" fill="#BAC300"/><path d="M11 22.86l10.55 6.87L45 18.28l-34 4.58z" fill="#0C9AD8"/><path d="M22.35 21.33l2.53 1.64L45 18.28l-22.65 3.05z" fill="#7B9D3E"/><path d="M15 29.7V44l30-25.72L15 29.7z" fill="#E87800"/><path d="M19.1 28.13l2.45 1.6L45 18.28l-25.9 9.85z" fill="#BF751E"/><path d="M27 29.42v12.45l18-23.59-18 11.14z" fill="#C3348D"/><path d="M27 29.42v4.27l18-15.4-18 11.13z" fill="#B2316C"/><path d="M34 29.1v11.39l11-22.2-11 10.8z" fill="#F8DB06"/><path d="M34 29.1v3.58l11-14.4L34 29.1z" fill="#D79E00"/></svg>