<!-- by TradingView --><svg xmlns="http://www.w3.org/2000/svg" width="56" height="56"><path fill="url(#a4h03pwpj)" d="M0 0h56v56H0z"/><path d="M23.52 26c-1.23 0-2.12.37-2.68 1.11A4.82 4.82 0 0020 30.1c0 .63.08 1.19.23 1.67a3.17 3.17 0 00.7 1.26c.6.65 1.53.98 2.78.98a5.7 5.7 0 001.66-.27c.58-.18.88-.42.88-.73 0-.16-.09-.37-.26-.65-.18-.27-.33-.4-.48-.4l-.6.2c-.38.15-.96.23-1.38.23-1 0-1.46-.7-1.53-1.65-.03-1.22.06-3.2 1.53-3.2 1.04 0 1.38 1.02 1.47 1.92l-.64.05-1.18.07-.2.02-.09.01a.35.35 0 00-.32.33.41.41 0 00.39.44l1.04.07c.44.03 1.85.06 2.28.1l.72-1.2c0-1.04-.28-1.54-.87-2.26-.59-.72-1.46-1.08-2.62-1.08zm-16 0c-1.23 0-2.12.37-2.68 1.1a4.82 4.82 0 00-.84 3c0 .63.08 1.19.23 1.67a3.16 3.16 0 00.7 1.25c.6.66 1.53.99 2.78.99a5.7 5.7 0 001.66-.27c.58-.18.88-.43.88-.73 0-.16-.09-.38-.26-.65-.18-.28-.33-.41-.48-.41l-.6.21a4.5 4.5 0 01-1.38.23c-1 0-1.46-.7-1.53-1.65-.03-1.22.06-3.2 1.53-3.2 1.04 0 1.38 1.02 1.47 1.92l-.64.04-1.18.08-.2.02H6.9a.35.35 0 00-.32.33.41.41 0 00.39.44l1.04.08c.44.03 1.85.06 2.28.09l.72-1.2c0-1.03-.28-1.54-.87-2.25-.6-.73-1.47-1.09-2.63-1.09zm24.03 0a7.84 7.84 0 00-3.55.85V34h.94s1.06.03 1.06-1v-5.21c.5-.1.73-.14 1.18-.14 1.02 0 1.82.3 1.82 1.42V34h.93s1.07.03 1.07-1v-3.77c0-2.04-1.48-3.23-3.45-3.23zm7.95 6.46c-1.5 0-1.8-1.13-1.8-2.46s.3-2.47 1.8-2.47c1.51 0 1.79 1.14 1.79 2.47 0 1.32-.28 2.46-1.79 2.46zm0-6.46c-1.22 0-2.16.34-2.81 1.03-.65.7-.98 1.68-.98 2.97 0 1.28.33 2.27.98 2.96.65.7 1.59 1.04 2.8 1.04 1.23 0 2.16-.35 2.82-1.04.65-.69.97-1.67.97-2.96s-.32-2.28-.97-2.97c-.66-.69-1.6-1.03-2.81-1.03zm8.5 0c-.68 0-1.38.09-2.08.25-.69.15-1.15.27-1.38.35l-.54.21V34h.82s1.18.03 1.18-1v-5.03c.57-.16 1.2-.24 2-.25V26zm-31 5.53c0 .57-.43.85-1.4.85-1.48 0-1.6-1.43-1.6-2.62 0-1.27.36-2.3 1.79-2.3a5.64 5.64 0 011.21.14v3.93zm.9-8.53H17v3.11a6.96 6.96 0 00-1.28-.11c-1.2 0-2.12.33-2.76 1.01-.64.68-.96 1.57-.96 2.85 0 .7.1 1.32.28 1.86.18.53.4.94.67 1.22.26.27.57.5.92.68a3.36 3.36 0 001.73.38c1.15 0 2-.26 2.56-.78s.84-1.14.84-1.87v-7.34c0-1.04-1.1-1.01-1.1-1.01z" fill="#fff"/><path opacity=".5" d="M50.91 23.16a2.5 2.5 0 01-3.42 1.63 1.98 1.98 0 103.42-1.63z" fill="#fff"/><path opacity=".5" d="M49.45 22.5c.58 0 1.1.26 1.46.66A2.5 2.5 0 0048.5 20a2.5 2.5 0 00-1.01 4.78 2 2 0 01-.03-.3c0-1.1.9-1.98 1.99-1.98z" fill="#fff"/><path d="M50.91 23.16a1.99 1.99 0 00-3.45 1.33l.03.3a2.5 2.5 0 003.43-1.63z" fill="#fff"/><defs><linearGradient id="a4h03pwpj" x1="56" y1="28" x2="0" y2="28" gradientUnits="userSpaceOnUse"><stop stop-color="#03E603"/><stop offset=".34" stop-color="#34B2A5"/><stop offset=".64" stop-color="#4289E2"/><stop offset="1" stop-color="#1E578E"/></linearGradient></defs></svg>