<!-- by TradingView --><svg width="56" height="56" xmlns="http://www.w3.org/2000/svg"><path fill="#2A6962" d="M0 0h56v56H0z"/><path d="M28.134 20.661l-.116.28v.001c-.088.212-.171.415-.263.613-.074.162-.036.197.127.196.633-.005 1.265-.004 1.898-.004h.66c3.668 0 7.335.002 11.003.004.172 0 .273-.02.282-.238.007-.141.032-.281.058-.422.018-.099.035-.198.047-.298.014-.123.06-.156.176-.155.832.005 1.663.005 2.495 0 .13 0 .195.013.157.181-.029.13-.047.261-.065.393a5.042 5.042 0 01-.056.348c-.03.146-.005.193.148.191.402-.006.805-.005 1.207-.004a172.901 172.901 0 001.304.001c.862 0 1.723.002 2.585-.004.177-.001.253.017.205.235-.079.358-.13.724-.18 1.089-.02.16-.08.21-.24.21-1.402-.004-2.803-.004-4.204-.005-1.442 0-2.884-.001-4.325-.004-.199 0-.3.032-.333.266-.05.356-.147.919-.23 1.269-.035.144-.019.202.149.2.614-.007 1.23-.006 1.844-.005h5.939c.294 0 .299.002.251.297a346.74 346.74 0 01-.54 3.253c-.138.818-.278 1.642-.42 2.505-.147.904-.719 1.412-1.608 1.419-.852.007-1.703.006-2.555.005h-1.71c-.133.001-.166-.023-.137-.171.076-.382.133-.769.188-1.155.019-.137.07-.179.204-.177a100.145 100.145 0 001.877.003c.523 0 .771-.212.857-.749.122-.769.239-1.538.356-2.308l.07-.463c.036-.234.062-.355.099-.527l.046-.22c.037-.178-.026-.195-.166-.195-.748.003-1.496.003-2.244.002h-1.259c-.474.001-.948.002-1.422-.003-.136-.001-.194.033-.226.183-.21.965-.421 1.875-.633 2.785-.21.9-.42 1.799-.627 2.752-.038.178-.094.248-.286.247a486.36 486.36 0 00-5.181-.001c-.174 0-.224-.062-.254-.228a772.626 772.626 0 00-.714-3.97v-.006c-.026-.14-.039-.209-.01-.243.029-.034.097-.034.232-.034h.6c.54.002 1.08.004 1.619-.005.177-.003.242.047.274.229.224 1.297.46 2.611.692 3.907.01.05.02.102.035.166l.027.118.143-.649v-.002l.294-1.331c.51-2.326 1.02-4.652 1.532-6.978.033-.149.002-.185-.145-.185-3.49.004-6.98.005-10.47.004-.011 0-.023 0-.035-.002-.054-.004-.11-.008-.143.073-.22.537-.443 1.073-.67 1.62l-.221.53h2.112c.1.001.109-.057.121-.137.021-.134.045-.268.068-.402.032-.186.064-.37.09-.556.016-.11.052-.148.16-.147.896.004 1.792.004 2.687 0 .107 0 .133.029.113.14a9.535 9.535 0 00-.06.377c-.027.18-.053.36-.092.537-.038.175.018.19.162.19 1.157-.003 2.314-.003 3.472-.002h1.133c.263 0 .263 0 .221.158l-.025.103c-.03.138-.064.272-.096.405a11.1 11.1 0 00-.15.662c-.028.157-.097.18-.228.18C35.23 27 34.646 27 34.063 27c-.93 0-1.86 0-2.791-.006-.179-.001-.239.05-.267.23l-.516 3.214-.301 1.872c-.02.129-.068.168-.192.168-.881-.005-1.763-.005-2.644 0-.124 0-.155-.03-.133-.164.245-1.465.487-2.953.726-4.425l.1-.614v-.007c.023-.136.034-.204.005-.237-.027-.032-.092-.032-.22-.032h-5.108c.261-.63.52-1.246.778-1.86.256-.609.51-1.214.764-1.826-.038-.048-.079-.045-.117-.041a.328.328 0 01-.027.001h-.637c-.463.001-.926.002-1.389-.006-.149-.002-.191.058-.213.19-.2 1.257-.403 2.514-.607 3.77l-.92 5.666c-.205 1.264-.41 2.528-.613 3.792l-.003.015c-.047.298-.047.299-.356.299h-1.947l.219-1.345.484-2.989a37079.63 37079.63 0 001.081-6.68c.135-.839.27-1.678.41-2.516.026-.152.02-.21-.149-.2-.27.013-.54.008-.81 0-.11-.002-.156.024-.177.151a1340.17 1340.17 0 01-.932 5.707l-.106.647c-.138.838-.276 1.675-.41 2.512-.022.14-.067.195-.215.193-.633-.01-1.265-.01-1.898 0-.165.003-.207-.04-.179-.21.237-1.416.471-2.832.701-4.248l.156-.951c.121-.744.243-1.487.367-2.23.023-.133-.017-.16-.138-.16a591.51 591.51 0 01-3.263 0c-.123-.001-.173.031-.185.166a4.47 4.47 0 01-.1.587c-.038.167-.01.23.177.228.383-.005.766-.005 1.148-.004.414 0 .827 0 1.24-.006.198-.003.237.049.195.242-.047.216-.081.49-.112.734l-.026.207c-.019.14-.084.171-.211.17-.371-.002-.742-.002-1.113-.002-.447 0-.893 0-1.34-.004-.15-.002-.208.041-.233.198-.137.846-.276 1.67-.415 2.494-.145.859-.29 1.717-.432 2.6-.024.15-.078.19-.218.188a78.694 78.694 0 00-1.961 0c-.166.003-.185-.056-.16-.205.187-1.117.37-2.197.555-3.287l.307-1.804c.027-.16-.01-.184-.15-.183-.32.002-.639.002-.958.001-.491 0-.982-.002-1.473.007-.214.004-.228-.07-.19-.252.058-.273.103-.64.134-.919.016-.158.081-.183.217-.183.361.003.722.003 1.083.003.457 0 .913 0 1.37.005.161.002.225-.05.241-.21.02-.199.051-.395.092-.59.031-.15-.015-.183-.156-.182-.402.002-.803.002-1.205.002-.572 0-1.144-.001-1.716.006-.208.003-.238-.064-.199-.25.06-.288.113-.579.15-.87.016-.136.064-.166.186-.165.215.004.43.003.646.003.254 0 .507-.001.761.004.15.003.172-.045.155-.187a13.94 13.94 0 01-.05-.583c-.013-.166-.025-.332-.04-.486-.013-.116.01-.157.13-.156.611.006 1.223.006 1.834.002.112-.001.145.038.15.15.004.12.015.24.026.36.008.085.015.17.021.256.007.107.044.236.157.235.462-.007.924-.005 1.386-.001.093 0 .139-.118.172-.206.038-.1.079-.197.12-.295.05-.118.099-.236.143-.357.04-.11.098-.143.205-.142.64.004 1.28.007 1.92-.001.176-.002.166.062.11.194-.088.207-.172.431-.258.659-.07.186-.14.373-.213.554h.445c.391-.001.772-.002 1.153.003.118.002.129-.072.139-.144 0-.01.002-.018.003-.027.066-.404.131-.86.196-1.316.066-.463.131-.925.199-1.334a5.37 5.37 0 01.135-.67c.18-.598.582-.916 1.186-.918 1.02-.004 2.041-.004 3.062-.004h2.119c.125 0 .155.027.127.163-.064.317-.111.638-.156.959-.021.154-.074.214-.24.212a237.295 237.295 0 00-3.177-.005c-.541 0-.728.16-.833.704-.098.51-.098.719.394.719h1.144c1.438 0 2.877-.001 4.315.003.157.001.242-.04.298-.2.054-.153.119-.302.183-.451a9.72 9.72 0 00.135-.32.165.165 0 01.064-.094.155.155 0 01.108-.027c.67.003 1.341.002 2.03.002h.611zm-16.346.76h-.911c-.961-.001-1.922-.002-2.883.004-.173 0-.22-.044-.183-.221.063-.276.11-.707.14-.992l.002-.013c.017-.184.099-.206.247-.205.362.003.725.003 1.087.003.447 0 .895 0 1.342.004.165.002.24-.036.258-.22.014-.142.04-.237.067-.336a2.31 2.31 0 00.064-.29c.018-.114.06-.156.177-.155.675.006 1.35.005 2.025 0 .119 0 .163.022.132.162-.057.265-.083.381-.144.646-.04.173.021.193.165.192.349-.003.697-.002 1.046-.002.447 0 .894 0 1.341-.005.18-.002.234.032.19.228a10.94 10.94 0 00-.13.93l-.008.076c-.019.155-.079.199-.231.198-.971-.006-1.942-.005-2.913-.005h-.88zm10.958 11.055h.661c.303 0 .606 0 .909.002.091 0 .155-.012.197-.116.569-1.395 1.14-2.79 1.715-4.182.051-.124.04-.164-.1-.163-.825.003-1.649.004-2.473 0-.1 0-.152.032-.19.129a975.487 975.487 0 01-1.714 4.184c-.06.146 0 .15.114.148.293-.003.587-.003.88-.002z" fill="#fff"/><path d="M7.943 28.004c.262 0 .525.005.788-.002.112-.003.148.022.12.142-.32 1.388-.636 2.777-.95 4.166-.028.13-.076.172-.208.17a52.594 52.594 0 00-1.533 0c-.15.003-.18-.041-.148-.182.317-1.381.632-2.763.943-4.146.027-.122.079-.156.2-.151.262.01.525.003.788.003zm5.611 0c.27 0 .54.002.81 0 .084-.002.125.008.112.116-.147 1.255-.289 2.511-.432 3.767l-.007.043c-.023.175.013.409-.086.51-.113.115-.35.033-.533.036-.377.005-.754-.008-1.13.006-.175.006-.198-.058-.18-.21.136-1.135.266-2.27.397-3.406.027-.233.057-.466.077-.7.011-.118.05-.172.183-.166.263.013.526.004.789.004z" fill="#fff"/><path d="M41.68 36.358c-1.05.67-2.113.888-3.213.304-1.152-.612-1.25-2.27-.206-3.095.96-.758 2.628-.756 3.589.005.193.154.194.154 0 .294-.06.043-.123.08-.18.129-.28.236-.512.388-.9.111-.424-.3-.934-.2-1.38.094a1.015 1.015 0 00-.415 1 .914.914 0 00.757.736 1.48 1.48 0 001.216-.294c.078-.06.12-.076.187.014.168.227.344.445.544.702z" fill="#E68C2F"/><path d="M36.23 35.992h.214c.38 0 .382 0 .303.429-.034.186.005.436-.113.543-.127.116-.341.028-.517.036-.142.006-.285-.012-.425.004-.183.022-.242-.045-.197-.25.046-.21.08-.423.108-.636.013-.102.052-.131.138-.128.163.006.327.002.49.002z" fill="#E68D2F"/><path d="M42.348 36.97c.182-1.276.361-2.524.534-3.773.021-.154.07-.215.193-.192a.332.332 0 00.063 0c.795-.003.791.002 1.328.735.351.479.715.943 1.102 1.45.109-.687.214-1.324.306-1.964.023-.159.063-.228.2-.224.327.01.654.008.98 0 .124-.002.16.042.137.2-.167 1.189-.33 2.379-.488 3.57-.02.151-.057.187-.18.206-.545.087-.976-.08-1.329-.647-.296-.476-.67-.879-1.012-1.31-.042-.053-.07-.135-.159-.14l-.308 1.893c-.015.095-.008.198-.124.197-.41-.002-.82 0-1.243 0zm-20.722-3.964h1.49c.087-.001.12.075.16.147l.517.918c.285-.313.562-.61.833-.918a.412.412 0 01.138-.115.339.339 0 01.164-.036c.439.008.878.003 1.379.003-.229.264-.419.486-.612.705-.323.367-.642.742-.977 1.093-.129.136-.105.213-.013.351.352.527.695 1.064 1.039 1.599.038.058.093.107.097.218h-1.485c-.087.001-.119-.082-.161-.148-.168-.26-.346-.513-.494-.79-.109-.202-.188-.164-.307-.03-.257.29-.521.567-.782.85-.059.064-.113.122-.203.12-.482-.004-.963-.002-1.496-.002.328-.367.622-.698.919-1.028.273-.305.545-.613.826-.908.097-.102.105-.17.026-.296-.346-.554-.683-1.116-1.058-1.733zm12.21-.001c.519 0 1.037.003 1.555-.002.13-.001.186.012.156.215-.097.639-.087.64-.616.64-.461 0-.923.006-1.384-.002-.126-.003-.177.05-.191.203-.017.2-.045.482-.085.677-.042.204-.004.27.175.264.49-.015.98.002 1.47-.01.162-.003.211.04.175.25-.096.557-.09.56-.563.56-.405 0-.81.004-1.214-.003-.132-.003-.206.024-.222.219-.023.295-.083.503-.119.797-.014.118-.054.162-.152.16a45.71 45.71 0 00-1.171 0c-.11.002-.131-.045-.113-.17.173-1.197.344-2.395.512-3.594.023-.159.08-.21.211-.208.525.01 1.05.004 1.576.004z" fill="#E68C2F"/><path fill-rule="evenodd" d="M28.663 33.006l-.277-.001-.297.001c-.263.002-.526.003-.788-.004-.137-.004-.184.062-.206.22-.162 1.172-.33 2.343-.502 3.514-.027.184.003.242.162.24.309-.006.619-.005.928-.004.301 0 .602.002.902-.003.405-.002.807-.07 1.196-.205.901-.321 1.399-1.255 1.274-2.4-.067-.612-.453-1.055-1.06-1.231-.44-.127-.885-.127-1.332-.127zm.116.906h-.016a1.192 1.192 0 01-.19-.002c-.117-.019-.16.045-.178.18-.084.611-.174 1.22-.264 1.83-.014.095-.004.148.088.15.328.005.652-.026.948-.222.349-.232.566-.874.468-1.357-.08-.395-.333-.572-.83-.58h-.026z" fill="#E68C2F"/></svg>