<!-- by TradingView --><svg xmlns="http://www.w3.org/2000/svg" width="56" height="56"><path fill="#E1D02D" d="M0 0h56v56H0z"/><path d="M25.4 12.79c2.22 0 3.97 1.44 3.97 3.8 0 2.11-1.67 4.97-6.18 7.8a26.39 26.39 0 01-10.83 3.59.34.34 0 01-.36-.34c.1-4.43 1.99-8.4 4.98-11.24 2.47-2.26 5.5-3.61 8.42-3.61zm9.5 1.37a.32.32 0 01.46-.37A16 16 0 0128 44l-.62-.01c-.3-.01-.3-.31-.02-.45a14.66 14.66 0 003.79-2.58.34.34 0 00.05-.43l-2.32-3.58a.33.33 0 00-.48-.08 12.03 12.03 0 01-7.34 2.45c-2.5 0-5.2-1.1-7.07-3.59a15.82 15.82 0 01-1.07-2.37.33.33 0 01.28-.43c11.05-1.15 21.97-8.56 21.97-16.56 0-.73-.09-1.48-.27-2.21z" fill="#fff"/></svg>