<!-- by TradingView --><svg width="56" height="56" xmlns="http://www.w3.org/2000/svg"><path fill="url(#paint0_linear)" d="M0 0h56v56H0z"/><path d="M30.277 13.5H43.33a1.504 1.504 0 011.484 1.749 8.403 8.403 0 01-2.581 4.911c-1.15 1.077-2.623 1.84-3.898 1.84H27.331v3h7.999v3h-8v2.5h8c1.101 0 1.67-.282 1.924-.5.233-.199.3-.416.282-.631-.034-.437-.569-1.369-2.206-1.369v-3c2.862 0 5.014 1.818 5.197 4.131.092 1.16-.35 2.318-1.324 3.15-.951.813-2.289 1.219-3.873 1.219h-8V36h4.999v3h-5v.5h-.053.054c0 .956.155 1.41.276 1.613.083.14.19.24.475.322.348.1.851.139 1.621.128.25-.003.569-.014.918-.025a54.435 54.435 0 011.71-.038c.813 0 1.275-.243 1.517-.465.248-.227.358-.511.358-.785 0-.273-.11-.558-.358-.785-.242-.222-.704-.465-1.517-.465v-1.5L32.33 36c1.437 0 2.663.445 3.546 1.254a4.055 4.055 0 011.33 2.996 4.055 4.055 0 01-1.33 2.996c-.883.81-2.108 1.254-3.545 1.254-.559 0-1.016.016-1.478.032a48.67 48.67 0 01-1.109.031c-.802.011-1.689-.013-2.494-.245-.869-.25-1.679-.755-2.225-1.677-.509-.86-.694-1.929-.694-3.141h1.5-1.5V39h-7c-1.307 0-2.385-.531-3.113-1.389-.7-.825-1.012-1.872-1.012-2.861 0-.989.312-2.036 1.012-2.861.728-.858 1.806-1.389 3.113-1.389h7V28h-9.998c-1.47 0-2.707-.503-3.577-1.384A4.405 4.405 0 019.5 23.492a4.45 4.45 0 011.276-3.11c.867-.876 2.096-1.382 3.557-1.382v0h9.999v-1.5c0-.891.238-1.695.746-2.351.496-.641 1.153-1.015 1.775-1.238 1.151-.411 2.52-.411 3.424-.411zM27.332 19h11.002c.225 0 .998-.235 1.847-1.03.423-.395.815-.888 1.118-1.47H30.332c-1.026 0-1.875.024-2.468.236-.262.094-.369.19-.415.25-.034.044-.117.17-.117.514V19zm14.528-4.278zM24.332 22h-9.998v-1.37V22c-.745 0-1.179.244-1.425.492a1.45 1.45 0 00-.409 1.016c-.002.384.138.743.393 1.001.24.244.673.491 1.44.491h9.998v-3zm0 11.5H17.33c-.443 0-.678.157-.825.33-.175.206-.3.534-.3.92s.125.714.3.92c.147.173.382.33.825.33h7v-2.5zm20.472-18.199c-.003.016-.005.02 0 0z" fill="#fff"/><defs><linearGradient id="paint0_linear" x1="0" y1="28" x2="56" y2="28" gradientUnits="userSpaceOnUse"><stop stop-color="#652AB7"/><stop offset=".339" stop-color="#2D58BB"/><stop offset="1" stop-color="#08ACEF"/></linearGradient></defs></svg>