<!-- by TradingView --><svg width="56" height="56" xmlns="http://www.w3.org/2000/svg"><path fill="#013D7E" d="M0 0h56v56H0z"/><path d="M49.119 26l.206-1h1.828L52 26l-.234 1H50.25l.072-.894L50.19 26h-1.07zM46.416 30.178L46.639 29h1.515l-.312 2h-.624l-.803-.822zM47.998 25h.914l-.646 3.58-.669-.096-.736-.744.335-1.877.802-.863zM40.872 31l1.032-6h3.888l.796.866-.318 1.798-.854.86.3 1.348h.483L45.949 31h-1.465l-.5-2.271H42.77L42.37 31h-1.498zM36.145 31l1.098-6h4.078l-.266 1h-2.464l-.25 1.5h2.331l-.233 1h-2.297l-.233 1.5h2.53l-.216 1h-4.078zM33.266 25h-1.597l1.1 4.237L32.468 31h1.505l.331-1.763L36.954 25H35.36l-1.506 2.602L33.266 25zM30.737 25h-2.04l-.188 1h1.171l.217.224-.509 3.534-.242.242H27.86l-.217 1H30l.853-.877.738-4.246-.854-.877zM27.41 25h.854l-1.056 6H26.7l-.867-.889.708-4.223.868-.888zM21.644 31l1.022-6h1.553l-.91 5.002h2.205l-.15.998h-3.72zM16.35 31l1.06-6h3.873l.818.82-.409 2.343-.83.837H18.26l-.347 2H16.35z" fill="#fff"/><path d="M18.439 28l.346-2h1.459l.262.227-.262 1.546-.21.227h-1.595z" fill="#013D7E"/><path d="M8.735 30H6.56l-.193 1h2.163l.204-1zM4.376 31l1.028-6H6.98l-1.06 6H4.375zM9.549 25H7.386l-.172 1h2.131l.204-1zM8.917 27.503h-1.95l-.16.997h1.874l.236-.997zM9 31l1.123-6h2.376l.152 4.571L14.515 25H17l-1.112 6h-1.493l.861-4.857L13.262 31H11.43l-.185-4.857L10.32 31H9z" fill="#fff"/><path d="M42.972 27.702L43.257 26h1.475l.24.331-.183 1.143-.217.228h-1.6z" fill="#013D7E"/><path d="M48.734 28.575l.223-1.213 1.906.277.702.73-.334 1.788-.825.843h-2.118l.19-1.002h1.181l.167-.184.1-.91-.1-.144-1.092-.185z" fill="#fff"/><path d="M4 33l.196-1H51l-.239 1H4z" fill="#D11242"/></svg>