<!-- by TradingView --><svg width="56" height="56" xmlns="http://www.w3.org/2000/svg"><path fill="#0072CE" d="M0 0h56v56H0z"/><path d="M47 18L9 25.036 11.408 38 47 31.22V18z" fill="#fff"/><path d="M11.376 32.002L12.879 25l4.114.006-.45 1.474h-2.16l-.254 1.176h1.766L15.59 29h-1.766l-.306 1.506h2.426l-.323 1.496h-4.244zm6.023-7.079l1.836-.302c.022.25-.04.782-.153 1.297l-.83 3.844c-.193.913-.215 1.155.183 1.155a.635.635 0 00.192-.03l.053 1.085c-.254.091-.69.16-1.176.16-1.49 0-1.36-.76-1.137-1.799l.761-3.537c.258-1.198.28-1.579.271-1.873z" fill="#0072CE"/><path d="M23.672 28.418l-.398 1.868c-.04.173-.03.532.2.782l-1.428 1.133c-.215-.112-.368-.423-.398-.614-.232.242-.752.571-1.36.571-1.066 0-1.512-.662-1.512-1.768 0-1.103.446-2.25 1.128-2.924.599-.592 1.237-.783 2.163-.783.722 0 1.613.121 2.002.312-.153.372-.306.994-.397 1.422zm-1.876-.429c-.13 0-.384-.008-.638.281-.376.433-.599 1.445-.599 2.09 0 .35.1.5.346.5.214 0 .577-.362.62-.531l.486-2.27a.35.35 0 00-.215-.07zm5.858-1.297c1.311 0 1.442.735 1.28 1.488L28.114 32h-1.766l.712-3.306c.092-.402.04-.584-.253-.584-.284 0-.507.143-.73.48L25.333 32h-1.766l.7-3.258c.16-.783.222-1.246.143-1.756l1.565-.29c.04.169.083.35.092.563.398-.355 1.006-.567 1.587-.567zm3.034 5.445c-1.46 0-2.173-.926-1.797-2.673.376-1.756 1.451-2.772 2.994-2.772.752 0 1.159.19 1.583.614l-1.036 1.055c-.153-.212-.416-.38-.66-.38-.407 0-.713.32-.936 1.375-.223 1.055-.201 1.487.306 1.487.398 0 .76-.19 1.058-.462l.529 1.025c-.682.549-1.399.73-2.041.73z" fill="#0072CE"/><path d="M37.892 28.56c0 1.388-.761 3.685-3.209 3.685-1.237 0-1.94-.689-1.94-1.908 0-1.365.73-3.654 3.208-3.654 1.097 0 1.94.544 1.94 1.878zm-3.3 1.95c0 .326.113.48.397.48.73 0 1.036-2.226 1.036-2.584 0-.357-.131-.481-.398-.481-.73 0-1.036 2.217-1.036 2.584z" fill="#0072CE"/></svg>