<!-- by TradingView --><svg width="56" height="56" xmlns="http://www.w3.org/2000/svg"><path fill="url(#paint0_linear)" d="M0 0h56v56H0z"/><path d="M16.628 23.907c-.222.002-.215.353-.215.353.027 1.338 1.02 1.67 1.02 1.67.375.238.449-.09.449-.09l.305-.612-.552-1.366-1.007.045zm1.54-2.576l1.485 3.542c.166.387.384.124.384.124.234-.145.324-.064.324-.064.151.113.014.276.014.276l-.573 1.162c-.157.439-.577.043-.577.043-.151-.079-.592-.462-.592-.462-.149-.257-.326-.004-.326-.004l-.643 1.21c-.207.495-.802.177-.802.177-2.076-.723-.882-3.534-.882-3.534.122-.491.4-.416.4-.416l1.061-.04c-.037-.336-.453-1.072-.453-1.072-.11-.269-.285-.215-.285-.215l-1.782.117c-.157.021-.143-.11-.143-.11-.037-.119.148-.208.148-.208.35-.14.658-.717.658-.717.225-.32.492-.245.492-.245l1.07-.049c.792-.04 1.022.485 1.022.485zM45.48 24.7l-1.033.192s-.178.028-.154.137c0 0 .004.109.12.14l.12.083s.266.132.026.48l-1.322 2.276s-.65 1.06-.401 1.904c.105.36-.253.9-.262.89 0 0-.05-.378-.956-.806 0 0-.29-.197-.566.075l-.368.32s-.182.184.019.22c0 0 .476.17.992.842 0 0 .2.345.641.308 0 0 .833-.051 1.404-1.181.12-.074.638.66 2.147-.441 1.209-.882 2.133-1.966 2.112-3.665 0 0 .037-.494-.38-.38l-.65.067s-.358-.031-.313.417c0 0 .142 2.323-2.258 2.806 0 0-.458.15-.274-.275 0 0 .933-1.714 1.556-2.54 0 0 .75-.837.282-1.645l-.1-.15s-.058-.15-.382-.075zM27.543 21.395c-.205-.086-.325.244-.325.244-.454 1.252.351 1.945.351 1.945.263.367.447.093.447.093l.503-.448-.025-1.482-.95-.352zm2.38-1.657l.082 3.732c.016.424.314.262.314.262.268-.041.322.07.322.07.1.162-.087.259-.087.259l-.946.857c-.3.344-.55-.186-.55-.186-.112-.133-.382-.659-.382-.659-.048-.294-.302-.132-.302-.132l-1.031.874c-.368.378-.806-.149-.806-.149-1.669-1.478.445-3.625.445-3.625.288-.405.519-.23.519-.23l.997.38c.086-.329-.038-1.175-.038-1.175-.005-.29-.185-.31-.185-.31l-1.698-.583c-.15-.042-.092-.16-.092-.16.008-.124.211-.133.211-.133.375.007.868-.41.868-.41.322-.207.544-.037.544-.037l1.011.375c.797.269.804.98.804.98zM36.14 20.908l-.304 1.232-.086.36-.316 1.26c-.18.57-.01.594-.01.594l.735.547c.158.121.189-.164.189-.164l.987-3.15c.147-.56-.02-.724-.02-.724l-.084-.154c-.2-.273 0-.316 0-.316l.799-.332c.304-.164.398.1.398.1.619.824.273 1.756.273 1.756l-1.144 3.522c-.095.386-.37.253-.37.253-.766-.066-1.396.307-1.396.307-.325.253-.546-.098-.546-.098-.051-.066-.893-.682-.893-.682-.388-.329-.704-.087-.704-.087l-.367.188c-.327.274-.493-.055-.493-.055-.38-.66-1.524-1.077-1.524-1.077a.165.165 0 01-.17-.13c-.03-.11.117-.187.117-.187l.167-.154c.178-.164.17-.34.17-.34l.476-3.87c.143-1.03-.085-1.064-.085-1.064-.17-.078-.1-.207-.1-.207.038-.083.142-.044.142-.044 1.487.232 1.506 1.05 1.506 1.05l-.595 4.07c-.074.516.158.525.158.525l.545.363c.357.286.412-.319.412-.319l.712-2.92.019-.076c.067-.567-.209-.749-.209-.749-.242-.21.032-.331.032-.331l.629-.383c.296-.164.39.012.39.012.734.73.56 1.474.56 1.474zM19.51 19.49l1.26 4.355s.277.765.01 1.111c0 0-.128.056-.082.186 0 0 .014.099.204.105 0 0 1.116.015 1.462.323 0 0 .293.294.45-.052 0 0-.218-.829-.417-1.414l-1.85-6.122s-.184-.477.12-1c0 0 .156-.177.028-.29 0 0-.114-.1-.31.05 0 0-.364.25-.747.896 0 0-.4.852-.129 1.853zM22.927 18.484l.692 4.66s.173.797-.14 1.1c0 0-.133.039-.105.174 0 0-.001.099.186.13 0 0 1.149.142 1.451.494 0 0 .252.338.451.02 0 0-.148-.815-.266-1.424l-1.008-6.333s-.119-.5.254-.97c0 0 .18-.155.067-.285 0 0-.1-.115-.313.004 0 0-.394.194-.861.778 0 0-.541.622-.408 1.652z" fill="#fff"/><path d="M10.99 28.378c.094.396-.178.456-.178.456-.163.085-.334-.02-.334-.02-.185-.087-.32-.199-.32-.199-.35-.232-.747-.707-.973-1.207-.677-1.486-.07-2.847.22-3.195 0 0 .107-.171.198-.218 0 0 .166-.177.283.008 0 0 .077.15.064.362 0 0 0 .144-.015.233-.021.213-.148.524-.137.756.013.278.127.59.223.778.253.491.78 1.598.87 1.883.073.203.1.363.1.363zm4.903-.446c.275-.473.052-.695-.12-.757-.622-.226-.874 1.474-2.131 2.003-1.404.587-1.784.205-1.907-.011-.255-.457.485-1.418-.038-2.635-.606-1.409-1.303-2.285-.97-2.92.327-.62 1.288-.52 1.737-.526.909-.013 1.047-1.221.921-1.513-.06-.142-.208-.165-.34-.103-.452.21-.56.31-.955.374-.398.064-.65.094-1.543.288-.729.158-3.514 2.307-2.2 6.026 1.084 3.059 4.247 2.906 5.391 2.406 1.264-.553 1.867-2.14 2.155-2.632zM40.563 24.486c-.146-.173-.394.064-.394.064-.948.902-.53 1.902-.53 1.902.076.451.36.291.36.291l.641-.16.62-1.334-.697-.763zm2.84-.354L41.86 27.5c-.17.386.167.382.167.382.257.09.256.214.256.214.02.194-.19.19-.19.19l-1.213.319c-.418.164-.41-.426-.41-.426-.043-.171-.057-.77-.057-.77.087-.285-.212-.258-.212-.258l-1.297.29c-.491.163-.654-.514-.654-.514-.849-2.108 1.964-3.02 1.964-3.02.433-.229.563.038.563.038l.725.81c.22-.254.475-1.067.475-1.067.121-.258-.032-.362-.032-.362l-1.26-1.322c-.117-.109-.013-.186-.013-.186.061-.109.245-.02.245-.02.332.184.95.043.95.043.38-.031.502.224.502.224l.74.813c.594.618.293 1.254.293 1.254zM28 40c.322.001.64-.27.974-.821 0 0 4.61-7.603 4.906-8.065.426-.666-.366-1.619-1.067-.794 0 0-3.57 4.06-4.022 4.604-.29.35-.513.532-.791.532s-.502-.182-.791-.532c-.452-.545-4.022-4.604-4.022-4.604-.701-.825-1.494.128-1.067.794.296.462 4.906 8.065 4.906 8.065.333.552.652.822.974.82z" fill="#fff"/><defs><linearGradient id="paint0_linear" x1="10.418" y1="9.712" x2="68.147" y2="76.017" gradientUnits="userSpaceOnUse"><stop stop-color="#1A1E21"/><stop offset="1" stop-color="#06060A"/></linearGradient></defs></svg>