<!-- by TradingView --><svg xmlns="http://www.w3.org/2000/svg" width="56" height="56"><path d="M0 0h56v56H0V0z" fill="url(#apkckj4gl)"/><path d="M16 28l16-16 16 16-16 16-16-16z" fill="#818286"/><path d="M8 28l16-16 16 16-16 16L8 28z" fill="#F6821F"/><path d="M16 28l12-12 12 12-12 12-12-12z" fill="#14161A"/><path d="M24.02 19.97L28 16l4 3.99v7.95l-7.98-7.97zM32 36.01l-4 4-4-4v-7.95l8 7.95z" fill="#B66111"/><defs><linearGradient id="apkckj4gl" x1="10.42" y1="9.71" x2="68.15" y2="76.02" gradientUnits="userSpaceOnUse"><stop stop-color="#1A1E21"/><stop offset="1" stop-color="#06060A"/></linearGradient></defs></svg>