<!-- by TradingView --><svg width="56" height="56" xmlns="http://www.w3.org/2000/svg"><path fill="#007D86" d="M0 0h56v56H0z"/><path d="M34.594 36H37l.724-1H18.737L21 38h2.745l-.623-1h10.825l.647-1zM26.88 9.634h2.729L28.21 8l-1.33 1.634zM30.939 11H25.5l-2.42 3h1.604l.727-1h5.433l-.63-1h1.316l-.591-1zm-8.138 7l.722-1h9.375l-.7-1h2.11l-.571-1H22.614l-2.203 3h2.39zm-1.833 4l.666-1h13.213l-.69-1h2.868l-.642-1.006H19.745L17.5 22h3.468zm-3.951 1l-2.202 3h4.295l.66-1h17.004l-.639-1h3.783l-.697-1H17.017zm-2.596 4L14 28l1.5 2h2.203l-.568-.99h20.238L38 28h4v-1H14.42zM40 32l.713-1H16l2.293 3h3.61l-.729-1h14.748l.578-1H40zM25.5 42l-.544-1h7.098l.598-1H34.5l.675-1H21.603l2.142 3H25.5zm6.5 2l.7-1h-8.572l2.372 3h1l-.619-1h3.327l.673-1H32zm-2.39 3l-1.4 1.672L26.881 47h2.729z" fill="#fff"/></svg>