<!-- by TradingView --><svg width="56" height="56" xmlns="http://www.w3.org/2000/svg"><path fill="#353535" d="M0 0h56v56H0z"/><path d="M36.233 12c-11.524 0-22.74 10.25-22.74 11.983 0 .257.153.361.33.361.301 0 .662-.565 1.489-1.421 5.841-6.059 14.441-9.624 20.412-9.624 4.315 0 6.163 2.464 6.163 5.471 0 8.643-15.8 21.468-23.96 21.468-2.124 0-3.535-1.098-3.535-2.978 0-1.052.408-2.16 1.086-3.247.506.494 1.486.91 2.737.91 5.3 0 11.169-4.583 11.157-7.743-.003-.913-.732-1.899-2.334-1.899-2.653 0-7.354 2.377-10.752 5.721-.403-1.084.281-2.82 1.562-4.32 2.649-3.102 7.703-6.012 10.399-6.012.265 0 .378.148.378.315 0 .264-.347.401-.347.745a.33.33 0 00.342.335c.471 0 1.142-.83 1.142-1.552 0-.55-.413-.94-1.176-.94-2.803 0-8.434 2.744-11.763 6.33-1.995 2.147-3.162 4.865-2.216 6.951C13.038 34.84 12 37.048 12 39.27 12 42.046 13.905 44 17.314 44c5.817 0 12.234-3.453 17.318-8.17l.834-.799C40.477 30.1 44 23.988 44 18.991 44 15.445 41.914 12 36.233 12zm-9.567 14.445c.793 0 1.054.46 1.054.877 0 1.806-4.89 5.426-9.001 5.426-.869 0-1.584-.363-1.778-.632 2.841-3.14 7.346-5.671 9.725-5.671z" fill="#FDBF57"/></svg>