<!-- by TradingView --><svg width="56" height="56" xmlns="http://www.w3.org/2000/svg"><path fill="#FCB040" d="M0 0h56v56H0z"/><path d="M33.747 29.982a15.479 15.479 0 01-12.316 2.377 14.325 14.325 0 007.265 8.446 14.502 14.502 0 006.501 1.52c5.073-2.532 8.646-7.647 8.887-13.684a15.868 15.868 0 00-3.755-10.927 15.274 15.274 0 01-6.582 12.268z" fill="#fff"/><path d="M19.357 22.792c2.17-4.297 6.097-7.143 10.482-8.106a14.31 14.31 0 00-7.564 6.89 14.223 14.223 0 00-.88 10.652 14.408 14.408 0 009.203-2.556 14.282 14.282 0 005.676-15.397 16.116 16.116 0 00-7.632-2.262c-8.89-.354-16.377 6.523-16.73 15.358-.354 8.832 6.56 16.28 15.444 16.63.093.004.184.004.274.004-.468-.18-.932-.38-1.391-.607-7.623-3.803-10.703-13.026-6.882-20.606z" fill="#fff"/></svg>