<!-- by TradingView --><svg width="56" height="56" xmlns="http://www.w3.org/2000/svg"><path fill="url(#paint0_linear)" d="M0 0h56v56H0z"/><path d="M12 18l-2 15h6.376l.507-3h-3.695l.547-3h3.335l.507-3h-3.539l.525-3h3.654l.507-3H12zm23.505 4c-1.437 0-2.447.486-2.734 2.342-.37 2.406 2.748 3.35 2.36 5.872-.077.5-.35.982-.783.982-.97 0-.523-1.598-.467-2.196h-1.72L32 30.493c-.2 1.304.3 2.507 2 2.507 1.542 0 2.708-1.103 3-3 .186-1.198-.27-2.348-.624-2.849-.357-.5-.632-1.05-1.244-1.602-.429-.42-.7-1.931.269-1.831.603.053.559.703.491 1.282h1.72c.37-1.857-.491-3-2.107-3zm-3.028 3.003c-.786 0-1.29.544-1.635 1.334L31 25h-2l-1 8h2l.697-4.952c.134-.606.167-1.106.704-1.106.19 0 .415.019.599.058l.477-1.997zM26.207 25c-1.35.013-2.445.652-2.735 2.549L23 30.546c-.257 1.685.749 2.468 2 2.454 1.517-.026 2.798-1.104 3-3l-1.477-.05c-.128.618-.617 1.42-1.257 1.38-.38-.026-.751-.39-.69-.797l.188-1.287H28l.22-2.095c.244-1.593-.795-2.165-2.014-2.151zm-5.122 0c-.57 0-.932.58-1.196 1.147L20 25h-2l-1.002 8h2l.761-5.65a.718.718 0 01.692-.61c.347-.026.295.281.26.623L20 33h2.003l.701-6.605c.095-.833-.593-1.395-1.619-1.395zm24.025 0c-1.197 0-2.334.712-2.575 2.31-.081.542-.016.982.214 1.393.425.752 1.337 1.063 1.96 1.511.12.133.181.346.147.57-.071.476-.354.703-.72.703-.519 0-.552-.598-.454-1.113h-1.64c-.335 1.782.47 2.626 1.828 2.626 1.262 0 2.431-.83 2.68-2.48.266-1.757-.877-2.112-1.894-2.732-.235-.16-.473-.36-.413-.756.065-.436.333-.61.667-.61.55 0 .446.506.413 1.008h1.614c.312-1.638-.575-2.43-1.827-2.43zM38 25l.2 6.898c.013.343.053.827 0 1.17-.073.46-.862.4-1.2.358V35c.176 0 .412.004.72.004 1.91 0 2.14-1.475 2.894-3.477L43 25h-1.999l-1.347 5L40 25h-2zm-11.885 1.395c.576 0 .795.492.754.756l-.107.73h-1.81l.08-.491c.079-.515.508-.995 1.083-.995z" fill="#fff"/><path d="M47.932 26.91c.032 0 .068-.016.068.025-.259.114-.518.23-.778.346-.401.183-.803.369-1.205.552l-.923.43a93.129 93.129 0 00-3.326 1.616 847.304 847.304 0 00-3.928 1.996c-.833.447-1.667.894-2.502 1.34l-1.818.983a296.127 296.127 0 00-5.167 2.938c-1.436.832-2.849 1.698-4.275 2.562l-1.802 1.111c-.104.042-.407-.038-.563-.035-.416.006-.828.077-1.229.123-.67.078-1.323.227-1.979.328-1.017.152-2.024.372-3.022.584-1.304.28-2.608.56-3.912.838L10 43v-.024h.046l.835-.372 2.048-.885c2.146-.915 4.293-1.83 6.438-2.746l6.784-2.881 11.984-5.052 9.797-4.13z" fill="#EE2E2F"/><defs><linearGradient id="paint0_linear" x1="10.418" y1="9.712" x2="68.147" y2="76.017" gradientUnits="userSpaceOnUse"><stop stop-color="#1A1E21"/><stop offset="1" stop-color="#06060A"/></linearGradient></defs></svg>