<!-- by TradingView --><svg xmlns="http://www.w3.org/2000/svg" width="56" height="56"><path fill="#F0F3FA" d="M0 0h56v56H0z"/><path d="M4 24c0-1.1.9-2 2-2h44a2 2 0 012 2v8a2 2 0 01-2 2H6a2 2 0 01-2-2v-8z" fill="url(#afd3kwnnv)"/><path fill-rule="evenodd" d="M50 22.5H6c-.83 0-1.5.67-1.5 1.5v8c0 .83.67 1.5 1.5 1.5h44c.83 0 1.5-.67 1.5-1.5v-8c0-.83-.67-1.5-1.5-1.5zM6 22a2 2 0 00-2 2v8c0 1.1.9 2 2 2h44a2 2 0 002-2v-8a2 2 0 00-2-2H6z" fill="#D97A36"/><path d="M6.72 24h4l-.24 1H8.06l-.45 2h1.86l-.27 1H7.44l-.48 2h2.5l-.26 1H5.17l1.55-7zm17.06 0h4l-.24 1h-2.42l-.46 2h1.87l-.27 1H24.5l-.48 2h2.5l-.26 1h-4.03l1.55-7zM11.9 24l-1.56 7h1.39l.89-4.42L13.8 31h1.45l1.45-7h-1.45l-.89 4.76L13.2 24h-1.3zm8.51 0c1.68.02 1.9 1.1 1.8 1.64l-1.47.19c.03-.3-.09-.87-.79-.83-.7.04-.86.43-.85.64-.04.23.11.84 1.02 1.45 1.29.86 1.4 1.46 1.4 1.89 0 .5-.43 1.97-2.75 2.02-1.86.04-2.24-1.22-2.2-1.86l1.5-.16c-.08.7.37 1.02.8 1.02.34 0 1.02-.22 1.08-.74.07-.5-.7-1.15-1.08-1.41-.47-.33-1.35-1.07-1.35-1.81 0-.85.8-2.07 2.9-2.04z" fill="#F0F3FA"/><path fill-rule="evenodd" d="M27.51 31l1.5-7h2.83c.47-.02 1.42.24 1.43 1.41a2.5 2.5 0 01-1.43 2.37l.41 3.22h-1.52l-.33-3h-.71L29 31h-1.5zm2.82-6h.89c.17.01.5.15.5.63 0 .6-.42 1.28-1.04 1.37h-.8l.45-2z" fill="#F0F3FA"/><path d="M34 33V23h1.74v6.56L38.28 23h1.76l-3.96 10H34zm9.95-4.58l-.01.04-.01.07c-.23 1.05-.51 2.38-2.78 2.47-1.86.07-2.12-1.09-2.02-1.68l.84-3.67c.07-.56.73-1.68 2.8-1.65 2 .03 1.85 1.42 1.64 2.3h-1.5l.07-.3.02-.09a.72.72 0 00-.82-.85.77.77 0 00-.65.58l-.83 3.52c-.1.4.16.8.57.86.37.06.74-.18.83-.55l.27-1.05h1.58z" fill="#F0F3FA"/><path fill-rule="evenodd" d="M50.03 26.38c.21-.87.44-2.35-1.62-2.38-2.07-.03-2.73 1.09-2.8 1.65l-.84 3.67c-.1.6.16 1.75 2.02 1.68 2.27-.1 2.55-1.42 2.78-2.47l.01-.07.45-2.08zm-2.2-1.37a.77.77 0 00-.65.58l-.84 3.57c-.1.4.16.8.57.86.37.06.74-.18.83-.55l.89-3.51.02-.1a.72.72 0 00-.83-.85z" fill="#F0F3FA"/><circle cx="37.02" cy="21.73" r="2.45" fill="#F0F3FA"/><path d="M37.59 19.5c-.58-.56-.41-1.19-.33-1.5-1.1 1.29-.16 2.15.33 2.44.49.3 1.1.86 1.09 1.49-.02.5-.28.9-.41 1.04-.68-.75-1.01-.51-2.1-.8-.87-.24-.65-1.36-.43-1.88-.42.49-.72.9-.75 1.64-.04.74.75 1.78 2.02 1.78 1.26 0 1.9-.76 1.94-1.78.04-1.02-.78-1.86-1.36-2.42z" fill="#F5992E"/><path d="M37.19 20.51c-.63-.22-.72-.84-.69-1.12-.3.96 0 1.46.8 1.88.63.33.64.6.57.7a3.5 3.5 0 00-1.24-.7c-.48-.2-.56-.97-.48-1.34-.1.2-.36.66-.36 1.18 0 .6.71 1.01 1.4 1.1.62.07 1.01.29 1.13.41.55-1.04-.34-1.84-1.13-2.1z" fill="url(#bfd3kwnnv)"/><defs><linearGradient id="afd3kwnnv" x1="28" y1="22" x2="28" y2="34" gradientUnits="userSpaceOnUse"><stop stop-color="#427DBF"/><stop offset="1" stop-color="#283E93"/></linearGradient><linearGradient id="bfd3kwnnv" x1="37.14" y1="19.39" x2="37.14" y2="22.62" gradientUnits="userSpaceOnUse"><stop stop-color="#2B4799"/><stop offset="1" stop-color="#3D99CA"/></linearGradient></defs></svg>