<!-- by TradingView --><svg width="56" height="56" xmlns="http://www.w3.org/2000/svg"><path fill="#F0F3FA" d="M0 0h56v56H0z"/><path d="M23.488 28L16 30.457v1.953L26.547 29l-3.059-1z" fill="#8CD5E9"/><path d="M29.523 28L40 24.628v6.758L29.523 28z" fill="#1B83C6"/><path d="M40 15.805L16 8v6.812l13.633 4.4L40 15.804z" fill="#8CD5E9"/><path d="M40 22.594v-6.793L29.625 19.21 40 22.594z" fill="#1B83C6"/><path d="M26.548 20.19l3.093-.983 10.363 3.387L37 23.642 26.548 20.19z" fill="#31343F"/><path d="M26.548 20.188L16 16.79v6.946l10.548-3.547z" fill="#8CD5E9"/><path d="M37 23.64l-10.457-3.449-10.545 3.488L26.457 27 37 23.64z" fill="#1B83C6"/><path d="M40 24.632l-2.996-.995L26.457 27l3.07 1.004L40 24.632z" fill="#8CD5E9"/><path d="M16 25.56v-1.888L26.459 27l-2.975 1.003L16 25.56z" fill="#31343F"/><path d="M16 30.458V25.56l7.492 2.436L16 30.458z" fill="#1B83C6"/><path d="M26.55 29.004l2.99-1.008 10.464 3.383-3 1.02-10.453-3.395z" fill="#31343F"/><path d="M26.448 35.772L16 32.41 26.547 29l10.457 3.395-10.556 3.377z" fill="#1B83C6"/><path d="M39.996 33.465l-2.992-1.07-10.563 3.374 3.187.963 10.368-3.267z" fill="#8CD5E9"/><path d="M16 39v-6.59l10.46 3.363L16 39zM29.625 36.734L16 41v7l24.004-8-10.379-3.266z" fill="#31343F"/><path d="M29.617 36.734L40 33.467V40l-10.383-3.266z" fill="#1B83C6"/></svg>