<!-- by TradingView --><svg width="56" height="56" xmlns="http://www.w3.org/2000/svg"><path fill="#49C2D2" d="M0 0h56v56H0z"/><path d="M14 27.03h2v-2.873c0-.83-.255-1.157-1-1.157-.737 0-1 .328-1 1.157v2.873zM14 29v2.93c0 .83.264 1.24 1 1.24.737 0 1-.41 1-1.24V30h2v1.85c0 2.096-.943 3.15-2.814 3.15h-.372C12.944 35 12 33.955 12 32.1v-7.693C12 22.06 12.943 21 14.814 21h.372C17.056 21 18 22.061 18 24.157L17.992 29H14zM21 32.701c.093.484.333.725.947.725.684 0 1.079-.34 1.079-1.146v-8.325c0-.805-.395-1.145-1.08-1.145-.613 0-.946.445-.946.725V32.7zM19 21h2v1.022c.154-.446.43-1.065 1.508-1.065 1.588 0 2.492 1.119 2.492 2.784v8.79c0 1.665-.904 2.784-2.492 2.784-1.079 0-1.357-.497-1.508-1.012V39h-2V21zM30 32.65v-4.628l-1.177.68c-.605.287-.823.654-.823 1.46v2.13c0 .68.303 1.012.823 1.012.336 0 .642-.206 1.177-.654zm-3.992-2.524c0-1.746.473-2.444 1.73-2.963L30 26.25v-2.336c0-.833-.314-1.266-1.004-1.266S28 23.081 28 23.914V26h-2v-2.006c0-2.104.884-3.169 2.637-3.169h.763c1.753 0 2.6 1.066 2.6 3.17v11.027h-2v-.886c-.45.52-1.122 1.039-2.069 1.039-1.318 0-1.923-.913-1.923-2.471v-2.578zM39 35h-2V23.84c0-.7-.33-1.012-.851-1.012-.473 0-1.149.698-1.149.698V35h-2V21h1.73v1.022c.505-.546 1.157-1.074 2.112-1.074.889 0 1.476.42 1.794 1.145.62-.6 1.346-1.145 2.341-1.145 1.338 0 2.023.94 2.023 2.47V35h-2V23.84c0-.7-.375-1.012-.897-1.012-.473 0-1.103.698-1.103.698V35zM4 27v2l6 4.5V31l-4-3 4-3v-2.5L4 27zM51 27v2l-6 4.5V31l4-3-4-3v-2.5l6 4.5z" fill="#fff"/></svg>