<!-- by TradingView --><svg width="56" height="56" xmlns="http://www.w3.org/2000/svg"><path fill="#186CB5" d="M0 0h56v56H0z"/><path d="M36.193 24.67l-4.587 2.643-3.68-2.139 2.734-1.623s3.766-2.447 7.683-.397c-1.01.949-2.15 1.517-2.15 1.517zm-13.1-5.382s2.604-1.698 5.853-.362l-5.848 3.443-2.56-1.49 2.555-1.59zm16.9 1.403c-.058-2.096-1.886-2.892-1.886-2.892-2.76-1.396-5.883-.354-6.925.072 0 0 .124.418-.024-1.751-.147-2.17-2.22-2.811-2.22-2.811-3.212-.875-5.49.378-5.707.47-.195.082-5.68 3.516-6.62 4.106-.611.338-.61.942-.61.942v3.942l-.001.733c0 .5.25.632.302.663 1.052.618 11.86 6.885 14.793 8.523.442.247.545.32.745.314.22-.007.36-.13.768-.36 1.316-.751 1.522-.826 3.756-2.215 2.233-1.389 3.62-2.547 3.62-3.6 0-1.439.028-5.696.01-6.136z" fill="#fff"/><path d="M16.979 26.33c-.215-.127-.317-.173-.528-.287-.239-.13-.451.066-.451.207.002.14.005.23.005.482v4.253c0 .252.177.562.395.687l10.451 6.062-2.516 1.473a.882.882 0 00-.395.688v4.82c0 .253.175.358.394.231l7.066-4.121c.217-.127.399-.228.407-.221l.012-.008c0-.007.178-.12.394-.245l7.392-4.313A.89.89 0 0040 35.35v-4.722c0-.254-.18-.358-.395-.233l-7.458 4.304a.878.878 0 01-.788-.001" fill="#fff"/></svg>