<!-- by TradingView --><svg width="56" height="56" xmlns="http://www.w3.org/2000/svg"><path fill="#0197B2" d="M0 0h56v56H0z"/><path d="M46.416 25c.005.001-.005 0 0 0h-6.344c-1.102-1.572-2.825-3.237-5.114-3.357-2.54-.129-4.375 1.648-4.582 1.857a223.2 223.2 0 00-.703.64c-2.73-2.857-8.372-8.48-11.173-11.262L17.615 12c-.274.335-.525.669-.756 1.002-1.299 1.877-1.923 3.724-1.854 5.514.104 2.715 1.778 4.294 1.964 4.46.21.202 4.143 3.985 6.744 6.713-.423.409-.774.755-1.01 1.001-.211.222-.468.472-.74.735-1.542 1.492-3.87 3.748-3.955 7.006-.052 1.97.804 3.555 1.669 4.646.289.365.577.673.835.923l.886-.876 4.07-4.023 1.535-1.516 3.546-3.505 1.507-1.49 5.818-5.755c.078-.067.614-.723 1.69-.835.353-.037 1.123 0 1.123 0H48c-.032-.393-.256-.986-1.584-1zm-28.6-2.935l-.023-.02c-.016-.013-1.463-1.299-1.55-3.577-.056-1.46.454-2.992 1.512-4.577 2.827 2.81 8.331 8.3 11 11.09a405.72 405.72 0 00-4.144 3.849c-2.683-2.815-6.748-6.72-6.796-6.765zm2.752 20.13c-.698-.913-1.362-2.193-1.321-3.732.072-2.748 2.096-4.71 3.575-6.14.282-.273.548-.531.777-.771.222-.233.558-.565.965-.958l.237.26c1.285 1.423 1.269 4.117 1.026 6.146l-5.259 5.194zm6.607-6.53c.078-2.001-.19-4.245-1.458-5.65l-.255-.279c1.31-1.24 2.951-2.754 4.147-3.85.076.081.146.158.21.23 1.233 1.365 1.268 3.9 1.052 5.894l-3.696 3.655zm9.748-9.636L32.2 30.697c.049-1.942-.244-4.069-1.466-5.42a21.451 21.451 0 00-.21-.23c.418-.383.682-.622.695-.633l.029-.028c.015-.015 1.577-1.605 3.643-1.495 1.539.08 2.77 1.114 3.686 2.257-1.09.22-1.501.702-1.655.881z" fill="#fff"/></svg>