<!-- by TradingView --><svg width="56" height="56" xmlns="http://www.w3.org/2000/svg"><path fill="#FF033E" d="M0 0h56v56H0z"/><path d="M41.935 11.032c-.005-.975-.552-1.268-1.206-.841L30.646 16.78c-.547.357-.647.5-.645 1.242l.038 13.111c.003.745.542 1.098 1.142.703l10.056-6.62.059-.039c.353-.232.53-.35.62-.514.089-.167.087-.382.084-.815l-.001-.147-.063-12.67zm-27.681 25.88c-.34-.223-.325-.536-.037-.734l4.447-3.048c.241-.165.313-.178.571-.009l4.567 2.996c.26.17.268.494.002.674l-4.452 3.029-.026.017c-.16.11-.24.163-.318.163-.075 0-.15-.05-.296-.147l-.051-.034-4.407-2.906zm18.876-1.55c-.173.085-.181.219.022.315l2.645 1.245.03.015c.088.042.133.063.178.063.047 0 .094-.023.19-.07l.016-.007 2.672-1.298c.159-.078.154-.216-.002-.29l-2.74-1.283c-.155-.073-.198-.067-.342.004l-2.669 1.306zM30 40.238c-.002-.223.133-.292.296-.196l2.512 1.475c.136.08.161.112.163.282l.029 3c.002.17-.13.254-.28.165l-2.506-1.482-.014-.009c-.09-.053-.135-.079-.156-.118-.022-.037-.022-.086-.022-.183v-.034l-.022-2.9zm-4.296-.188c.163-.114.298-.032.296.236l-.021 3.48v.04c-.001.122-.001.181-.026.227-.023.043-.067.075-.153.135l-.014.01-2.506 1.779c-.15.106-.282.007-.28-.198l.029-3.6c.002-.204.027-.243.163-.339l2.512-1.77zM17 16.715c-.005-.67.398-.876.887-.59l7.537 4.425c.409.24.484.338.49.847L26 30.398c.005.512-.392.76-.84.494l-7.517-4.445c-.3-.178-.443-.259-.512-.381-.07-.125-.064-.294-.067-.652L17 16.715z" fill="#fff"/></svg>