<!-- by TradingView --><svg width="56" height="56" xmlns="http://www.w3.org/2000/svg"><path fill="#79242F" d="M0 0h56v56H0z"/><path d="M19 33h-3.086c-2.687 0-4.22-.778-4.22-2.366v-.848c0-.495.382-.783 1.053-.783h5.73a.515.515 0 00.355-.142.496.496 0 00.168-.341v-2.04c0-.062-.034-.125-.06-.183a.479.479 0 00-.271-.259.52.52 0 00-.192-.036h-5.958c-.527-.06-.825-.33-.825-.766v-.846c0-1.59 1.478-2.39 4.163-2.39H19v-3l-3.078.003C11.171 19.003 8 21.66 8 24.697v5.58C8 33.316 11.166 36 15.914 36H19v-3zM25 32.003h4L33.73 37h-3.931l-4.8-4.997z" fill="#F6F8FD"/><path d="M25.008 20.757c.838-.845 1.837-1.293 2.992-1.567l-.193-.174h-1.615c-.84 0-1.443.15-2.22.473a6.387 6.387 0 00-2.075 1.396 6.437 6.437 0 00-1.386 2.09 6.497 6.497 0 00-.51 2.465v4.125a6.5 6.5 0 00.511 2.463c.322.782.793 1.491 1.387 2.089A6.354 6.354 0 0026.421 36h1.752l-.306-.308c-1.088-.223-2.135-.847-2.86-1.575-.594-.598-1.143-1.156-1.465-1.938-.321-.781-.542-1.485-.542-2.614V25.44c0-1.198.22-1.684.542-2.465.322-.782.871-1.62 1.466-2.218zm8.747 1.978a4.151 4.151 0 00-2.153-1.154c-.816-.16-1.837.09-2.602.419.49.212 1.456.356 1.833.735.387.389.694.851.902 1.36.21.509.266 1.054.265 1.605v3.988c.001 1.025-.32 1.548-1 2.312h3.25c.667-.77.751-1.29.75-2.312V25.7c0-1.112-.466-2.178-1.245-2.965z" fill="#F6F8FD"/><path d="M48 19H34v3.002h4.13c.674 0 .871.295.871.81v12.381c0 .515.571.807 1.241.807h1.535c.674 0 1.223-.292 1.223-.807v-12.38c0-.516.214-.81.888-.81H48V19z" fill="#F6F8FD"/><path d="M34.495 32.003l-2.579 3.16L33.723 37 38 32l-3.505.003z" fill="#EC9E4B"/></svg>