<!-- by TradingView --><svg xmlns="http://www.w3.org/2000/svg" width="56" height="56"><path fill="#F0F3FA" d="M0 0h56v56H0z"/><path d="M16.57 20.96a11.37 11.37 0 1112.81 12.68 7.7 7.7 0 01-1.74-3.27h.22a8 8 0 10-7.25-11.39 31.7 31.7 0 00-4.04 1.98z" fill="url(#aaoclid1p)"/><path d="M27.07 42.1a11.37 11.37 0 114.64-17.41 7.7 7.7 0 01-1.98 3.14 8 8 0 10-6.38 11.76c1.6 1.24 2.96 2.1 3.72 2.52z" fill="url(#baoclid1p)"/><path d="M40.13 22.37a11.37 11.37 0 11-17.31 5.04 7.7 7.7 0 013.7.06l-.1.2a8 8 0 1013.47-.81c.24-2 .27-3.62.24-4.49z" fill="url(#caoclid1p)"/><path d="M31.1 15.06s6.05 0 7.28 3a11.37 11.37 0 01-9 15.59 7.7 7.7 0 01-1.74-3.28 8 8 0 003.46-15.31z" fill="url(#daoclid1p)"/><path d="M14.73 32.43s-3-5.24-1.02-7.8c0 0 1.04-1.57 3.33-2.88 5-2.87 11.26-1.51 14.67 2.94a7.7 7.7 0 01-1.98 3.14 8.01 8.01 0 00-11.02-3.16 8 8 0 00-3.98 7.76z" fill="url(#eaoclid1p)"/><path d="M38.22 37.94s-2.94 5.28-6.15 4.9c0 0-1.88-.07-4.19-1.35a11.37 11.37 0 01-5.06-14.08 7.7 7.7 0 013.7.06l-.1.2a8 8 0 0011.8 10.27z" fill="url(#faoclid1p)"/><defs><linearGradient id="aaoclid1p" x1="20.29" y1="18.1" x2="20.41" y2="14.45" gradientUnits="userSpaceOnUse"><stop stop-color="#604017"/><stop offset="1" stop-color="#CB9B37"/></linearGradient><linearGradient id="baoclid1p" x1="22.74" y1="40.3" x2="19.2" y2="41.42" gradientUnits="userSpaceOnUse"><stop stop-color="#604017"/><stop offset="1" stop-color="#CB9B37"/></linearGradient><linearGradient id="caoclid1p" x1="40.82" y1="27.01" x2="43.75" y2="30.72" gradientUnits="userSpaceOnUse"><stop stop-color="#604017"/><stop offset="1" stop-color="#CB9B37"/></linearGradient><linearGradient id="daoclid1p" x1="33.43" y1="15.57" x2="34.48" y2="27.31" gradientUnits="userSpaceOnUse"><stop stop-color="#654114"/><stop offset="1" stop-color="#D5AF61"/></linearGradient><linearGradient id="eaoclid1p" x1="14.02" y1="30.15" x2="23.68" y2="23.41" gradientUnits="userSpaceOnUse"><stop stop-color="#654114"/><stop offset="1" stop-color="#D5AF61"/></linearGradient><linearGradient id="faoclid1p" x1="36.64" y1="39.72" x2="25.87" y2="34.94" gradientUnits="userSpaceOnUse"><stop stop-color="#654114"/><stop offset="1" stop-color="#D5AF61"/></linearGradient></defs></svg>