<!-- by TradingView --><svg width="56" height="56" xmlns="http://www.w3.org/2000/svg"><path fill="#004B91" d="M0 0h56v56H0z"/><path d="M25 26h1v.797c.71-.774 1.658-.797 1.881-.797.254 0 .375.034.577.08v1.087c-.253-.08-.425-.138-.76-.138-.313 0-.617.046-.87.15-.84.358-.828 1.133-.828 1.56V32h-1v-6zm-1.033 4.183c-.182.404-.344.762-.84 1.156-.75.578-1.651.661-2.087.661-1.57 0-3.036-.985-3.036-3.031 0-1.757 1.187-2.969 3-2.969 1.833 0 3 1.052 3 3.5h-5c.119 1.019 1.247 1.5 2.158 1.5.825 0 1.58-.282 1.965-1.067l.84.25zm-.963-1.683c-.122-.358-.375-1.494-1.933-1.5-1.559-.006-1.946 1.176-2.067 1.5h4zM12 26.856c.223-.22.406-.393.831-.579A3.309 3.309 0 0114.21 26c.87 0 1.862.29 2.358.994.385.555.433 1.156.433 1.77V32h-1v-3.168C15.974 27.558 15.31 27 14.047 27c-1.32 0-2.047.8-2.047 2.133V32h-1v-6h1v.856zm-2 3.329c-.182.405-.39.763-.885 1.156-.75.578-1.651.659-2.087.659C5.458 32 4 31.017 4 28.971 4 27.214 5.185 26 6.998 26 8.831 26 10 26.96 10 29.5H5c.115.98 1.242 1.5 2.15 1.5.728 0 1.63-.32 1.965-1l.885.185zM9 28.5c-.121-.358-.356-1.494-1.941-1.5-1.586-.006-1.937 1.176-2.059 1.5h4z" fill="#fff"/><path d="M48.488 27.672c0 .078.021.15.057.197.12.173.624.299.9.363.341.086.689.157 1.03.243.219.048.432.103.645.198.666.276.88.822.88 1.327 0 .37-.114.715-.263.96-.419.7-1.263 1.009-2.61 1.009-.504 0-1.505-.048-2.093-.632-.433-.425-.521-1.03-.55-1.282L48.252 30c.064.362.422.73 1.13.73.185 0 .447-.023.625-.133a.536.536 0 00.248-.426c0-.26-.191-.37-.333-.426-.22-.079-1.348-.3-1.596-.363a4.75 4.75 0 01-.575-.173c-.191-.079-.993-.394-.993-1.412 0-.417.156-.804.405-1.088.56-.646 1.567-.709 2.12-.709.61 0 1.214.095 1.526.213.936.331 1.057 1.112 1.106 1.411l-1.76.11c-.042-.18-.127-.512-.879-.512-.233 0-.787.04-.787.45zM40 26h1.996v3.398c0 .576.323 1.102 1.004 1.102.68 0 1-.352 1-1.134V26h2.005v3.154c0 2.03-1.028 2.846-3.1 2.846C41.36 32 40 31.585 40 29.816V26zm-3 0v4.5h2.393V32H35v-6h2zm-8 0h3.413c.637.016 1.22.039 1.617.433.184.19.461.591.461 1.356 0 .378-.078.804-.334 1.15-.46.632-1.213.679-2.028.679H31V32h-2v-6zm2 2.364h.937c.305 0 .76-.007.76-.544a.579.579 0 00-.185-.441c-.128-.103-.291-.11-.433-.11H31v1.095z" fill="#EDAA00"/></svg>