<!-- by TradingView --><svg width="56" height="56" xmlns="http://www.w3.org/2000/svg"><path fill="#414141" d="M0 0h56v56H0z"/><path d="M44.73 23.967c-1.225-1.284-1.978.911-.978 2.568 1.667 2.308 2 4.518 1.392 6.584-1.849 6.243-12.947 9.027-22.916 6.32-9.958-2.707-15.888-9.799-13.42-15.84 3.678-9.003 19.551-8.436 27.11-5.097l.038.015c.155.073.484.125.543-.015.059-.135-.285-.331-.436-.383l-.06-.026c-8.2-3.368-24.361-4.125-28.394 5.636-2.716 6.564 3.909 14.24 14.797 17.15 10.888 2.913 22.212-.047 24.927-6.606 1.495-3.623.414-7.154-2.602-10.306zm-9.715-.47h-3l.322-1.523c.134-.642.183-1.433.14-1.588-.038-.165-.177-.243-.43-.243-.28 0-.479.093-.597.29-.113.191-.242.998-.377 1.64l-1.247 5.88c-.13.616-.178 1.015-.14 1.206.032.187.183.814.452.814.52 0 .887-1.816.957-2.14L31.5 26h3l.428-2.095.087-.409zm-1.028 6.32c-.042.088-.086.166-.123.244-.307.543-.834 1.025-1.58 1.439-1.295.713-3.613.884-4.926.093-.479-.29-.79-.673-.925-1.15-.038.058-.07.115-.107.161-.307.43-.807.787-1.495 1.082a5.949 5.949 0 01-2.285.43c-.915 0-1.662-.165-2.243-.502-.36-.207-.629-.456-.795-.74L19.298 32h-5.925l2.683-14h5.7l-.21 1.263c.338-.368.78-.663 1.328-.88.629-.254 1.35-.383 2.161-.383.887 0 1.613.14 2.178.414.57.274.909.627 1.016 1.046.043.15.065.336.065.553.152-.234.328-.452.526-.652.414-.424.93-.756 1.549-.993A5.64 5.64 0 0132.423 18c1.005 0 1.795.186 2.37.564.576.373.91.844.996 1.403.015.098.026.202.032.31.166-.326.392-.631.661-.916.425-.44.941-.776 1.549-1.01.607-.237 1.28-.351 2.022-.351.704 0 1.311.114 1.822.337.516.217.898.548 1.145.993.248.44.35 1.314.301 1.837-.042.523-.204 1.434-.483 2.738l-.458 2.164c-.268 1.273-.494 2.174-.671 2.707-.172.523-.468 1.539-.893 1.979-.414.44-.93.776-1.538 1.009-.607.233-3.35.244-3.855.021-.506-.223-.888-.554-1.135-1-.165-.3-.268-.628-.3-.967zm-7.006-4.576l.452-2.118c.049-.228.167-.786.215-.983H24.88l.124-.59c.096-.44.113-1.107.059-1.231-.06-.12-.183-.176-.371-.176a.663.663 0 00-.522.243c-.134.16-.242.796-.311 1.122-.087.425-.097.746-.022.958.07.212.333.471.801.771 1.231.803 2.011 1.47 2.344 2.004zm-6.022-.617c-.193-.212-.338-.496-.435-.848a1.887 1.887 0 01-.038-.171c-.091-.445-.059-.994.08-1.657.06-.274.387-.948.387-.948h-2.015l-.511 2.6h2.054c.01.072.027.118.043.175l-.473 2.221h-2.135L17.106 29h2.181c.033-.341.092-.954.183-1.389l.178-.833h3.177l-.328 1.542c-.102.477-.123.782-.064.917.064.134.21.736.436.736.338 0 .825-1.256.892-1.56.156-.745.156-1.231-.006-1.46-.172-.232-.623-.615-1.36-1.148-.731-.544-1.215-.937-1.436-1.18zm18.884-2.712c.124-.59.172-1.36.134-1.52-.032-.166-.15-.25-.36-.25a.594.594 0 00-.457.203c-.124.129-.253.915-.387 1.567l-1.253 5.906c-.156.735-.226 1.19-.2 1.362.028.17.157.793.383.793.23 0 .403-.633.51-.83.108-.201.237-.672.398-1.418l1.232-5.813z" fill="#fff"/></svg>