<!-- by TradingView --><svg xmlns="http://www.w3.org/2000/svg" width="56" height="56"><path fill="#F0F3FA" d="M0 0h56v56H0z"/><path d="M5 25h5v1H6v2h4v1H6v2h4v1H5v-7zm6 0h3a2 2 0 01.26 3.98L16 32h-1.15l-1.74-3H12v3h-1v-7zm1 3h2a1 1 0 100-2h-2v2z" fill="url(#amosnduvn)"/><path d="M36.8 25.41c.16.08.31.17.44.27l-.55.83a4.36 4.36 0 00-1.12-.5c-.6-.17-1.23-.2-1.7 0-.46.2-.65.55-.65.86 0 .31.17.67.65.89.21.1.48.18.82.25.54.1 1 .24 1.38.4.83.35 1.37 1 1.41 1.74.04.77-.46 1.44-1.27 1.8-1.12.5-2.72.34-4.4-.84l.57-.82c1.5 1.05 2.72 1.07 3.42.75.54-.24.7-.59.68-.84-.01-.26-.21-.62-.8-.86-.3-.14-.7-.25-1.19-.35-.4-.08-.74-.19-1.03-.32a1.97 1.97 0 01-1.24-1.8c0-.74.45-1.43 1.24-1.77a3.63 3.63 0 012.38-.06c.36.1.69.24.96.37zM44 25h-6v1h2.5v6h1v-6H44v-1zm3.6 2.5L45.82 25h-1.23l2.4 3.37L44.4 32h1.23l1.96-2.77L49.57 32h1.22l-2.57-3.63 2.4-3.37h-1.23l-1.79 2.5z" fill="url(#bmosnduvn)"/><path d="M24 28.45a3.75 3.75 0 11-7.5 0 3.75 3.75 0 017.5 0z" fill="url(#cmosnduvn)"/><path d="M17.59 27.25c0-.21.29-.34.43-.38v-.16c-.1 0-.21-.27 0-.32.1 0 .34-.04.38-.17.05-.13.44-.22.6-.1.02.1.08.32.16.32.04 0 .07-.03.1-.07.08-.08.2-.18.45-.15.22.03.24-.05.25-.11 0-.04 0-.07.07-.05.08.03.14.08.19.13.04.05.08.09.14.09.04 0 .04-.07.04-.15 0-.13 0-.29.18-.29.15 0 .27-.09.37-.16.08-.06.15-.11.22-.11.17 0 .22.22.22.27h.65c.1 0 .15-.05.2-.1.04-.03.08-.06.13-.06s.07.03.1.07c.04.04.08.1.17.1.16 0 .27 0 .33.1.04.09.05.29.05.38-.02.07-.07.22-.16.22a.36.36 0 01-.14-.05c-.08-.04-.15-.07-.19 0-.03.05-.1.08-.14.1-.04.02-.08.03-.08.06v.07c-.02.06-.03.14 0 .14.06 0 .44.22.11.6-.05.06-.16.18-.16.22 0 .01 0 .04.02.07.02.09.06.2-.02.2-.06 0-.13-.07-.18-.14-.04-.04-.07-.08-.1-.08l.02.1c.06.22.2.78-.45.83 0 .03 0 .07-.02.11a.46.46 0 00-.03.16l.02.1c.02.06.03.1-.02.12-.22.05-.49-.44-.54-.6-.06-.16-.38.43-.38.49 0 .04-.17.27-.17 0 .02-.17-.05-.51-.27-.6-.15-.06-.2.05-.25.17-.05.09-.09.19-.18.21l-.15.05c-.1.04-.22.09-.29.06-.04-.02-.06-.09-.07-.15l-.04-.12a1.39 1.39 0 00-.21-.33c-.02.16 0 .57.21.66.14.06.24.05.3.05s.08 0 .08.05-.08.15-.18.27c-.12.14-.25.3-.25.38 0 .07.04.13.07.19.05.08.1.15.04.25-.06.08-.11.1-.15.13-.04.02-.07.03-.07.09 0 .02 0 .06.02.1.03.17.08.45-.13.5-.27.05-.49-.28-.65-.66-.1-.21-.03-.27.01-.31.04-.03.06-.05-.01-.12l-.13-.11c-.07-.05-.1-.08-.14-.22a.66.66 0 01-.02-.2c0-.1 0-.15-.1-.18-.06-.02-.14 0-.22 0-.13.02-.27.05-.37-.05a.7.7 0 00-.17-.13c-.14-.1-.26-.18-.26-.36 0-.16.05-.26.1-.35a.44.44 0 00.06-.2c0-.16.27-.32.49-.32.09 0 .19-.03.28-.05.12-.04.23-.07.26 0 .06.1.33.43.5.32.07-.05.2-.05.3-.05.1 0 .18 0 .18-.06 0-.08-.1-.13-.25-.22a6.11 6.11 0 01-.19-.1.84.84 0 00-.35-.13c-.05-.01-.08-.02-.08-.04 0-.03-.06-.01-.14.01-.07.02-.16.05-.24.05-.06 0-.15.02-.23.04-.14.04-.28.08-.31.01-.05-.09.01-.22.05-.27.1.07.33.16.33-.06zm4.48 3.66c-.03-.06-.06-.12-.14-.12-.15 0-.18.05-.2.1-.03.03-.05.06-.12.06h-.16c-.01-.03 0-.06.02-.1a.37.37 0 00.03-.12c-.05-.21 0-.38.22-.38.08 0 .1-.07.12-.13.01-.04.02-.07.04-.09.12 0 .16-.06.2-.12.02-.05.05-.1.13-.1.11 0 .12.07.13.13a.3.3 0 000 .04l.04-.05c.03-.05.07-.11.1-.11.02 0 .02.04.03.1 0 .06 0 .15.05.19.03.02.02.06.02.1v.1a.5.5 0 00.04.07c.03.05.05.1.02.14a.49.49 0 01-.1.1l-.12.12-.04.09c-.02.07-.04.13-.12.13-.12 0-.15-.08-.19-.15z" fill="url(#dmosnduvn)"/><path d="M30.24 25.58c-.13-.1-.28-.18-.44-.27-.27-.13-.6-.26-.96-.36-.7-.2-1.6-.3-2.38.05a1.96 1.96 0 00-1.25 1.77c0 .74.44 1.44 1.25 1.8.29.13.63.24 1.03.32.5.1.89.22 1.2.35.58.24.78.6.79.87.01.24-.14.59-.69.84-.7.31-1.91.29-3.41-.76l-.58.82c1.7 1.18 3.29 1.35 4.4.85.82-.37 1.32-1.04 1.28-1.8-.04-.75-.58-1.4-1.4-1.74-.4-.17-.85-.3-1.39-.41a3.84 3.84 0 01-.82-.25c-.48-.22-.66-.58-.66-.88 0-.32.2-.67.65-.87.48-.2 1.11-.17 1.71 0a4.35 4.35 0 011.12.5l.55-.83z" fill="#095181"/><defs><linearGradient id="amosnduvn" x1="5" y1="28.5" x2="16" y2="29" gradientUnits="userSpaceOnUse"><stop stop-color="#1894BD"/><stop offset="1" stop-color="#1279A4"/></linearGradient><linearGradient id="bmosnduvn" x1="32" y1="26" x2="50.5" y2="32.5" gradientUnits="userSpaceOnUse"><stop stop-color="#047A33"/><stop offset="1" stop-color="#88BD40"/></linearGradient><linearGradient id="cmosnduvn" x1="18.1" y1="25" x2="22.1" y2="32.5" gradientUnits="userSpaceOnUse"><stop stop-color="#9BCA43"/><stop offset="1" stop-color="#6BAFC0"/></linearGradient><linearGradient id="dmosnduvn" x1="16.6" y1="28.5" x2="24.1" y2="28.5" gradientUnits="userSpaceOnUse"><stop stop-color="#DBECC0"/><stop offset="1" stop-color="#D0E5DE"/></linearGradient></defs></svg>