<!-- by TradingView --><svg width="56" height="56" xmlns="http://www.w3.org/2000/svg"><path fill="#E60167" d="M0 0h56v56H0z"/><path d="M10.873 29c.505-1.992.063-4.082-2.47-4.082-2.01 0-3.56 1.22-4.192 3.314C3.634 30.637 4.13 33 7.083 33c1.206 0 1.895-.203 3.015-.64l.201-1.017c-.804.261-1.58.436-2.125.436-1.895 0-2.47-1.238-2.21-2.778l4.91-.001zm-2.7-3.064c.92 0 1.327.564 1.006 2.064H6.164c.336-1.5 1.178-2.064 2.01-2.064zm26.563 6.424c-1.12.436-1.809.64-3.015.64-2.268 0-3.56-1.222-3.072-3.896.43-2.587 2.125-4.185 4.393-4.185 2.532 0 2.974 2.088 2.47 4.081h-4.91c-.26 1.54.315 2.778 2.21 2.778.546 0 1.322-.174 2.126-.436l-.202 1.018zM34 28c.373-1.598-.269-2.065-1.188-2.065C31.808 25.935 31 27 30.803 28H34zm8.145-3.082c2.413 0 3.101.756 2.729 2.878L43.808 33h-1.953l1.009-4.972c.23-1.279.172-2.034-1.379-2.034-.46 0-.89.145-1.35.26L38.783 33h-1.895l1.382-7.268c.689-.35 2.268-.814 3.877-.814zm-23.001 1.454a6.971 6.971 0 00-2.125-.378c-1.178 0-1.436.464-1.494 1.017-.028.32.058.523.69.901l1.234.581c.776.378 1.407 1.192 1.321 2.035-.172 1.57-1.005 2.471-3.647 2.471-.804 0-1.694-.117-2.957-.436l.2-1.075c1.063.29 1.695.436 2.47.436 1.178 0 1.55-.38 1.608-.96.029-.262.029-.581-.631-.901l-1.178-.697c-1.062-.553-1.493-1.076-1.378-2.036.172-1.511 1.493-2.412 3.59-2.412.689 0 1.292.116 2.555.436l-.258 1.018zm7.925 0a6.822 6.822 0 00-2.125-.378c-1.149 0-1.436.464-1.464 1.017-.058.32.028.523.66.901l1.235.581c.775.378 1.436 1.192 1.32 2.035-.172 1.57-1.005 2.471-3.647 2.471-.804 0-1.636-.117-2.957-.436l.2-1.075c1.063.29 1.695.436 2.499.436 1.149 0 1.522-.38 1.58-.96.057-.262.057-.581-.632-.901l-1.178-.697c-1.062-.553-1.464-1.076-1.378-2.036.172-1.511 1.493-2.412 3.618-2.412.69 0 1.264.116 2.527.436l-.258 1.018zM52.063 25l-.326 1h-2.211l-.69 4.267c-.143.844-.086 1.337 1.063 1.337.316 0 .631-.058 1.12-.145l-.201 1.105c-1.235.32-1.694.378-2.125.378-1.694 0-2.212-.581-1.895-2.355L47.572 26h-.9l.197-1h.89l.36-2h2.01l-.374 2h2.308z" fill="#fff"/></svg>