<!-- by TradingView --><svg width="56" height="56" xmlns="http://www.w3.org/2000/svg"><path fill="#F0F3FA" d="M0 0h56v56H0z"/><path d="M23.937 25.302l8.32 3.79 8.383-7.356c.128-.61.177-1.204.177-1.847 0-5.171-4.208-9.38-9.38-9.38a9.35 9.35 0 00-7.725 4.08l-1.398 7.244 1.623 3.469z" fill="#FED10A"/><path d="M15.328 34.103a9.092 9.092 0 00-.176 1.88c0 5.187 4.224 9.395 9.411 9.395a9.404 9.404 0 007.774-4.112l1.381-7.211-1.847-3.533-8.352-3.807-8.19 7.388z" fill="#24BBB1"/><path d="M15.28 19.713l5.702 1.349 1.252-6.473a4.472 4.472 0 00-2.73-.915 4.5 4.5 0 00-4.224 6.039z" fill="#EF5098"/><path d="M14.782 21.078c-2.538.835-4.32 3.276-4.32 5.958a6.302 6.302 0 004.047 5.879l7.998-7.228-1.461-3.132-6.264-1.477z" fill="#17A8E0"/><path d="M33.782 41.266a4.512 4.512 0 002.715.932 4.5 4.5 0 004.497-4.497c0-.546-.097-1.076-.273-1.558l-5.686-1.333-1.253 6.456z" fill="#93C83E"/><path d="M34.938 33.316l6.264 1.462c2.554-.835 4.32-3.277 4.32-5.975a6.28 6.28 0 00-4.047-5.862l-8.19 7.18 1.653 3.195z" fill="#0779A1"/></svg>