<!-- by TradingView --><svg width="56" height="56" xmlns="http://www.w3.org/2000/svg"><path fill="#F0F3FA" d="M0 0h56v56H0z"/><path d="M38.168 31c.957-2.153.3-6.402-.15-7H27.254c-.898 0-.898 2 0 2h5.682c2.392 0 2.393 3 0 3h-6.58c-.896 0-.897 2 0 2h11.813z" fill="#0B6C1D"/><path fill-rule="evenodd" d="M28 44c8.837 0 16-7.163 16-16s-7.163-16-16-16-16 7.163-16 16 7.163 16 16 16zm0-2.99c7.185 0 13.01-5.825 13.01-13.01S35.184 14.99 28 14.99 14.99 20.816 14.99 28 20.816 41.01 28 41.01z" fill="#0A3B87"/><path d="M35.506 19.977h-7.955c-.997 0-3.958.5-4.635 3.663-.718 3.35-1.297 5.981-1.496 6.879-.299 1.495.11 4.486 2.99 4.486h11.942A10.893 10.893 0 0128 38.892c-6.03 0-10.916-4.887-10.916-10.915 0-6.03 4.887-10.916 10.916-10.916 2.907 0 5.55 1.062 7.506 2.916z" fill="#027AC5"/></svg>