<!-- by TradingView --><svg width="56" height="56" xmlns="http://www.w3.org/2000/svg"><path fill="url(#paint0_linear)" d="M0 0h56v56H0z"/><path d="M22.017 24.419c.458.481.68 1.014.496 1.19-.185.175-.706-.073-1.164-.554-.458-.482-.68-1.014-.496-1.19.185-.175.706.072 1.164.554z" fill="url(#paint1_linear)"/><path d="M25.192 28.198c.369.674.486 1.319.263 1.441-.223.122-.703-.325-1.072-.999-.369-.674-.486-1.319-.263-1.441.224-.123.704.325 1.072.999z" fill="url(#paint2_linear)"/><path d="M26.061 31.752c.248.705.212 1.36-.08 1.462-.293.103-.73-.385-.978-1.09-.248-.705-.212-1.36.08-1.463.293-.103.73.386.979 1.09z" fill="url(#paint3_linear)"/><path d="M27.48 32.903c.193.792.175 1.476-.038 1.528-.214.052-.543-.548-.736-1.34-.192-.792-.175-1.477.038-1.528.214-.052.543.548.736 1.34z" fill="url(#paint4_linear)"/><path d="M27.611 36.36c.058.754-.1 1.382-.352 1.4-.252.02-.503-.576-.56-1.33-.058-.755.1-1.382.352-1.402.252-.019.503.577.56 1.332z" fill="url(#paint5_linear)"/><path d="M27.232 39.442c-.073.707-.355 1.258-.63 1.23-.275-.03-.438-.626-.365-1.333.074-.708.356-1.259.63-1.23.275.028.438.625.365 1.333z" fill="url(#paint6_linear)"/><path d="M26.025 38.397c-.024.67-.327 1.204-.678 1.192-.35-.013-.615-.567-.591-1.237.024-.671.327-1.205.678-1.193.35.013.615.567.591 1.238z" fill="url(#paint7_linear)"/><path d="M26.351 35.116c.11.693-.081 1.3-.428 1.355-.346.055-.716-.463-.826-1.156-.11-.694.082-1.3.428-1.355.347-.055.716.462.826 1.156z" fill="url(#paint8_linear)"/><path d="M24.516 34.404c.152.605-.034 1.174-.417 1.27-.383.096-.816-.316-.968-.922-.153-.605.034-1.174.416-1.27.383-.097.816.316.969.922z" fill="url(#paint9_linear)"/><path d="M24.213 30.925c.275.613.235 1.229-.09 1.374-.324.146-.81-.233-1.085-.846-.275-.613-.235-1.228.09-1.374.325-.146.81.233 1.085.846z" fill="url(#paint10_linear)"/><path d="M22.186 30.652c.297.531.266 1.114-.068 1.3-.334.186-.846-.093-1.142-.625-.297-.531-.266-1.113.068-1.3.335-.186.846.094 1.142.625z" fill="url(#paint11_linear)"/><path d="M23.395 27.6c.378.528.483 1.101.233 1.28-.25.18-.76-.103-1.138-.63-.379-.528-.483-1.1-.233-1.28.25-.18.759.103 1.138.63z" fill="url(#paint12_linear)"/><path d="M21.505 27.383c.351.489.419 1.04.151 1.232-.267.192-.768-.048-1.119-.537-.35-.488-.418-1.04-.15-1.232.267-.192.768.049 1.118.537z" fill="url(#paint13_linear)"/><path d="M19.548 27.554c.292.406.311.891.044 1.083-.267.192-.72.018-1.012-.388-.292-.407-.312-.892-.044-1.084.267-.192.72-.018 1.012.389z" fill="url(#paint14_linear)"/><path d="M20.345 24.45c.426.41.612.908.415 1.113-.197.204-.702.039-1.128-.37-.426-.41-.612-.908-.415-1.113.197-.204.702-.039 1.128.37z" fill="url(#paint15_linear)"/><path d="M18.566 24.617c.358.344.49.786.297.988-.194.201-.641.086-.999-.258s-.491-.787-.297-.988c.194-.202.64-.086.999.258z" fill="url(#paint16_linear)"/><path d="M16.689 24.87c.336.29.46.696.277.908-.182.212-.603.148-.939-.142-.336-.29-.46-.696-.277-.908.182-.212.603-.148.939.142z" fill="url(#paint17_linear)"/><path d="M13.964 22.922c.32.196.5.486.4.649-.098.163-.439.135-.76-.06-.32-.196-.5-.487-.4-.65.1-.162.44-.135.76.061z" fill="url(#paint18_linear)"/><path d="M15.522 22.446c.364.222.566.555.45.744-.115.19-.504.162-.868-.06-.364-.223-.565-.556-.45-.745.116-.189.504-.162.868.06z" fill="url(#paint19_linear)"/><path d="M17.15 22.173c.416.255.66.614.545.803-.115.189-.547.136-.963-.119-.417-.255-.661-.614-.546-.803.116-.189.547-.135.964.12z" fill="url(#paint20_linear)"/><path d="M18.587 21.865c.462.314.741.711.622.886-.12.175-.59.062-1.053-.252-.463-.315-.742-.712-.623-.887.12-.175.59-.062 1.054.253z" fill="url(#paint21_linear)"/><path d="M15.217 20.174c.434.193.73.475.662.629-.069.153-.476.12-.91-.073-.434-.194-.73-.475-.661-.629.068-.153.476-.121.91.073z" fill="url(#paint22_linear)"/><path d="M13.915 20.573c.41.164.692.423.63.58-.063.156-.446.15-.856-.014s-.692-.423-.63-.58c.062-.156.446-.15.856.014z" fill="url(#paint23_linear)"/><path d="M12.642 21.002c.342.137.574.361.518.502-.056.14-.379.143-.72.007-.343-.137-.574-.361-.518-.502.056-.14.378-.143.72-.007z" fill="url(#paint24_linear)"/><path d="M11.87 19.243c.404.064.718.204.7.312-.016.108-.358.144-.763.08-.405-.065-.719-.204-.702-.312.018-.109.36-.144.764-.08z" fill="url(#paint25_linear)"/><path d="M10.934 19.687c.342.071.6.216.579.323-.023.107-.318.136-.66.066-.342-.072-.601-.216-.579-.323.022-.108.318-.137.66-.066z" fill="url(#paint26_linear)"/><path d="M10.144 20.167c.262.054.461.162.445.24-.016.078-.242.097-.504.042-.262-.054-.46-.161-.445-.24.016-.077.242-.096.504-.042z" fill="url(#paint27_linear)"/><path d="M8.878 19c.308 0 .558.054.558.12s-.25.12-.558.12c-.309 0-.559-.054-.559-.12s.25-.12.559-.12z" fill="url(#paint28_linear)"/><path d="M8.439 19.399c.242 0 .439.036.439.08 0 .044-.197.08-.44.08-.242 0-.438-.036-.438-.08 0-.044.196-.08.439-.08z" fill="url(#paint29_linear)"/><path d="M11.66 21.604c.23.11.37.3.311.421-.059.122-.293.131-.524.02-.23-.11-.37-.3-.311-.422.058-.121.293-.13.524-.02z" fill="url(#paint30_linear)"/><path d="M28.497 37.198c.046.484-.065.89-.249.909-.184.017-.37-.36-.417-.845-.047-.484.064-.89.248-.908.184-.018.37.36.418.844z" fill="url(#paint31_linear)"/><path d="M28.29 35.027c-.043.537-.24.959-.44.943-.2-.016-.327-.464-.284-1.001.043-.537.24-.959.44-.943.2.016.327.464.284 1.001z" fill="url(#paint32_linear)"/><path d="M29.662 34.279c-.086.531-.373.927-.642.883-.268-.044-.416-.51-.33-1.041.086-.532.374-.927.642-.884.269.044.417.51.33 1.042z" fill="url(#paint33_linear)"/><path d="M28.407 32.587c-.149.622-.428 1.089-.624 1.042-.196-.046-.235-.589-.086-1.212.148-.622.427-1.089.623-1.042.196.047.235.59.087 1.212z" fill="url(#paint34_linear)"/><path d="M29.864 31.783c-.224.584-.617.977-.876.877-.26-.1-.288-.654-.064-1.238.224-.584.616-.976.876-.877.26.1.288.654.064 1.238z" fill="url(#paint35_linear)"/><path d="M28.886 29.847c-.274.631-.643 1.08-.822 1.002-.18-.078-.103-.654.171-1.285.275-.632.643-1.08.823-1.003.18.079.103.654-.172 1.286z" fill="url(#paint36_linear)"/><path d="M30.38 29.129c-.329.581-.769.955-.982.834-.214-.12-.12-.69.208-1.272.329-.582.768-.955.982-.834.214.12.12.69-.208 1.272z" fill="url(#paint37_linear)"/><path d="M32.1 28.683c-.303.466-.739.721-.973.57-.235-.153-.18-.654.123-1.12.303-.467.738-.722.972-.57.235.152.18.654-.123 1.12z" fill="url(#paint38_linear)"/><path d="M33.817 28.701c-.328.43-.795.626-1.043.437-.248-.19-.184-.692.143-1.122.328-.43.795-.625 1.043-.436.249.189.184.69-.143 1.121z" fill="url(#paint39_linear)"/><path d="M36.206 26.266c-.306.304-.697.407-.874.23-.177-.179-.074-.57.231-.874.305-.304.696-.407.874-.23.177.178.074.57-.231.874z" fill="url(#paint40_linear)"/><path d="M34.633 26.027c-.354.354-.785.496-.962.318-.177-.177-.034-.608.32-.961.354-.354.785-.496.963-.318.177.177.034.608-.32.961z" fill="url(#paint41_linear)"/><path d="M33.084 26.031c-.375.433-.836.648-1.03.48-.194-.168-.047-.655.328-1.087.374-.433.835-.648 1.029-.48.194.168.047.655-.327 1.087z" fill="url(#paint42_linear)"/><path d="M31.486 26.312c-.412.544-.89.876-1.067.742-.178-.135.01-.685.422-1.23.412-.544.89-.876 1.067-.741.178.134-.011.684-.422 1.229z" fill="url(#paint43_linear)"/><path d="M34.459 23.443c-.429.37-.87.56-.988.425-.116-.135.136-.545.564-.915.429-.37.87-.56.988-.425.117.135-.136.545-.564.915z" fill="url(#paint44_linear)"/><path d="M35.811 23.667c-.396.304-.822.413-.952.244-.13-.17.085-.554.481-.858.396-.304.823-.413.953-.243.13.17-.085.553-.482.857z" fill="url(#paint45_linear)"/><path d="M37.24 23.875c-.352.27-.743.352-.873.182-.13-.17.05-.526.402-.796.352-.27.744-.353.874-.183.13.17-.05.526-.403.797z" fill="url(#paint46_linear)"/><path d="M38.697 24.197c-.312.24-.671.297-.802.128-.13-.17.018-.502.331-.742s.672-.297.802-.128c.13.17-.018.502-.33.742z" fill="url(#paint47_linear)"/><path d="M40.996 22.613c-.293.147-.592.142-.669-.011-.077-.154.098-.397.39-.544.294-.146.593-.141.67.012.077.153-.098.396-.39.543z" fill="url(#paint48_linear)"/><path d="M42.99 21.453c-.218.08-.42.074-.452-.012-.031-.086.12-.22.338-.3.218-.08.42-.074.451.012.032.086-.12.22-.337.3z" fill="url(#paint49_linear)"/><path d="M42.26 20.97c-.295.088-.56.076-.591-.028-.031-.104.182-.26.478-.35.295-.088.56-.076.59.028.032.104-.182.26-.477.35z" fill="url(#paint50_linear)"/><path d="M41.272 20.605c-.342.12-.648.134-.684.032-.036-.103.212-.283.553-.404.342-.12.648-.134.684-.032.036.103-.212.283-.553.404z" fill="#F2682D"/><path d="M40.304 20.211c-.366.129-.694.145-.733.035-.038-.109.228-.302.594-.43.366-.13.694-.145.733-.036.038.11-.228.302-.594.431z" fill="url(#paint52_linear)"/><path d="M43.11 19.467c-.345.047-.634.023-.644-.052-.01-.076.261-.176.607-.222.346-.047.635-.023.645.052.01.076-.262.176-.608.222z" fill="url(#paint53_linear)"/><path d="M43.759 19.886c-.3.04-.552.017-.562-.053-.01-.07.227-.16.527-.201.3-.04.552-.017.561.054.01.07-.226.16-.526.2z" fill="url(#paint54_linear)"/><path d="M44.31 20.275c-.217.03-.4-.004-.41-.074-.01-.07.158-.15.375-.18.216-.03.4.004.41.074.009.07-.16.151-.376.18z" fill="url(#paint55_linear)"/><path d="M45.534 19.32c-.287 0-.519-.055-.519-.12 0-.067.232-.12.519-.12.286 0 .518.053.518.12 0 .066-.232.12-.518.12z" fill="url(#paint56_linear)"/><path d="M45.853 19.638c-.199 0-.36-.036-.36-.08 0-.044.161-.08.36-.08.198 0 .359.036.359.08 0 .044-.161.08-.36.08z" fill="url(#paint57_linear)"/><path d="M47.508 19.636c-.192-.05-.339-.125-.328-.167.011-.043.176-.037.368.012.192.05.339.125.328.167-.011.043-.176.037-.368-.012z" fill="#F0572B"/><path d="M39.842 22.173c-.335.168-.67.18-.747.027-.076-.153.133-.413.469-.582.336-.168.67-.18.747-.027.077.153-.133.413-.469.582z" fill="url(#paint59_linear)"/><path d="M38.568 21.89c-.376.19-.743.218-.82.065-.077-.153.166-.43.542-.62.376-.188.743-.216.82-.063.077.153-.166.43-.542.619z" fill="url(#paint60_linear)"/><path d="M37.456 21.506c-.434.239-.852.31-.935.16-.082-.15.203-.465.636-.703.434-.239.853-.31.935-.16.083.15-.202.464-.636.703z" fill="url(#paint61_linear)"/><path d="M31.545 31.395c-.216.486-.616.78-.894.656-.278-.123-.328-.617-.113-1.104.216-.486.617-.78.895-.656.278.123.328.617.112 1.104z" fill="url(#paint62_linear)"/><defs><linearGradient id="paint0_linear" x1="56" y1="28" x2="0" y2="28" gradientUnits="userSpaceOnUse"><stop stop-color="#17154A"/><stop offset="1" stop-color="#253183"/></linearGradient><linearGradient id="paint1_linear" x1="8" y1="19" x2="27.026" y2="40.978" gradientUnits="userSpaceOnUse"><stop stop-color="#0063B2"/><stop offset=".477" stop-color="#57C0E3"/><stop offset="1" stop-color="#2882C3"/></linearGradient><linearGradient id="paint2_linear" x1="8" y1="19" x2="27.026" y2="40.978" gradientUnits="userSpaceOnUse"><stop offset=".477" stop-color="#57C0E3"/><stop offset="1" stop-color="#2882C3"/></linearGradient><linearGradient id="paint3_linear" x1="8" y1="19" x2="27.026" y2="40.978" gradientUnits="userSpaceOnUse"><stop offset=".477" stop-color="#57C0E3"/><stop offset="1" stop-color="#2882C3"/></linearGradient><linearGradient id="paint4_linear" x1="8" y1="19" x2="27.026" y2="40.978" gradientUnits="userSpaceOnUse"><stop offset=".477" stop-color="#57C0E3"/><stop offset="1" stop-color="#2882C3"/></linearGradient><linearGradient id="paint5_linear" x1="8" y1="19" x2="27.026" y2="40.978" gradientUnits="userSpaceOnUse"><stop offset=".477" stop-color="#57C0E3"/><stop offset="1" stop-color="#2882C3"/></linearGradient><linearGradient id="paint6_linear" x1="8" y1="19" x2="27.026" y2="40.978" gradientUnits="userSpaceOnUse"><stop offset=".477" stop-color="#57C0E3"/><stop offset="1" stop-color="#2882C3"/></linearGradient><linearGradient id="paint7_linear" x1="8" y1="19" x2="27.026" y2="40.978" gradientUnits="userSpaceOnUse"><stop offset=".477" stop-color="#57C0E3"/><stop offset="1" stop-color="#2882C3"/></linearGradient><linearGradient id="paint8_linear" x1="8" y1="19" x2="27.026" y2="40.978" gradientUnits="userSpaceOnUse"><stop offset=".477" stop-color="#57C0E3"/><stop offset="1" stop-color="#2882C3"/></linearGradient><linearGradient id="paint9_linear" x1="8" y1="19" x2="27.026" y2="40.978" gradientUnits="userSpaceOnUse"><stop offset=".477" stop-color="#57C0E3"/><stop offset="1" stop-color="#2882C3"/></linearGradient><linearGradient id="paint10_linear" x1="8" y1="19" x2="27.026" y2="40.978" gradientUnits="userSpaceOnUse"><stop offset=".477" stop-color="#57C0E3"/><stop offset="1" stop-color="#2882C3"/></linearGradient><linearGradient id="paint11_linear" x1="8" y1="19" x2="27.026" y2="40.978" gradientUnits="userSpaceOnUse"><stop offset=".477" stop-color="#57C0E3"/><stop offset="1" stop-color="#2882C3"/></linearGradient><linearGradient id="paint12_linear" x1="8" y1="19" x2="27.026" y2="40.978" gradientUnits="userSpaceOnUse"><stop offset=".477" stop-color="#57C0E3"/><stop offset="1" stop-color="#2882C3"/></linearGradient><linearGradient id="paint13_linear" x1="8" y1="19" x2="27.026" y2="40.978" gradientUnits="userSpaceOnUse"><stop offset=".477" stop-color="#57C0E3"/><stop offset="1" stop-color="#2882C3"/></linearGradient><linearGradient id="paint14_linear" x1="8" y1="19" x2="27.026" y2="40.978" gradientUnits="userSpaceOnUse"><stop stop-color="#0063B2"/><stop offset=".477" stop-color="#57C0E3"/><stop offset="1" stop-color="#2882C3"/></linearGradient><linearGradient id="paint15_linear" x1="8" y1="19" x2="27.026" y2="40.978" gradientUnits="userSpaceOnUse"><stop stop-color="#0063B2"/><stop offset=".477" stop-color="#57C0E3"/></linearGradient><linearGradient id="paint16_linear" x1="8" y1="19" x2="27.026" y2="40.978" gradientUnits="userSpaceOnUse"><stop stop-color="#0063B2"/><stop offset=".477" stop-color="#57C0E3"/></linearGradient><linearGradient id="paint17_linear" x1="8" y1="19" x2="27.026" y2="40.978" gradientUnits="userSpaceOnUse"><stop stop-color="#0063B2"/><stop offset=".477" stop-color="#57C0E3"/></linearGradient><linearGradient id="paint18_linear" x1="8" y1="19" x2="27.026" y2="40.978" gradientUnits="userSpaceOnUse"><stop stop-color="#0063B2"/><stop offset=".477" stop-color="#57C0E3"/></linearGradient><linearGradient id="paint19_linear" x1="8" y1="19" x2="27.026" y2="40.978" gradientUnits="userSpaceOnUse"><stop stop-color="#0063B2"/><stop offset=".477" stop-color="#57C0E3"/></linearGradient><linearGradient id="paint20_linear" x1="8" y1="19" x2="27.026" y2="40.978" gradientUnits="userSpaceOnUse"><stop stop-color="#0063B2"/><stop offset=".477" stop-color="#57C0E3"/></linearGradient><linearGradient id="paint21_linear" x1="8" y1="19" x2="27.026" y2="40.978" gradientUnits="userSpaceOnUse"><stop stop-color="#0063B2"/><stop offset=".477" stop-color="#57C0E3"/></linearGradient><linearGradient id="paint22_linear" x1="8" y1="19" x2="27.026" y2="40.978" gradientUnits="userSpaceOnUse"><stop stop-color="#0063B2"/><stop offset=".477" stop-color="#57C0E3"/></linearGradient><linearGradient id="paint23_linear" x1="8" y1="19" x2="27.026" y2="40.978" gradientUnits="userSpaceOnUse"><stop stop-color="#0063B2"/><stop offset=".477" stop-color="#57C0E3"/></linearGradient><linearGradient id="paint24_linear" x1="8" y1="19" x2="27.026" y2="40.978" gradientUnits="userSpaceOnUse"><stop stop-color="#0063B2"/><stop offset=".477" stop-color="#57C0E3"/></linearGradient><linearGradient id="paint25_linear" x1="8" y1="19" x2="27.026" y2="40.978" gradientUnits="userSpaceOnUse"><stop stop-color="#0063B2"/><stop offset=".477" stop-color="#57C0E3"/></linearGradient><linearGradient id="paint26_linear" x1="8" y1="19" x2="27.026" y2="40.978" gradientUnits="userSpaceOnUse"><stop stop-color="#0063B2"/><stop offset=".477" stop-color="#57C0E3"/></linearGradient><linearGradient id="paint27_linear" x1="8" y1="19" x2="27.026" y2="40.978" gradientUnits="userSpaceOnUse"><stop stop-color="#0063B2"/><stop offset=".477" stop-color="#57C0E3"/></linearGradient><linearGradient id="paint28_linear" x1="8" y1="19" x2="27.026" y2="40.978" gradientUnits="userSpaceOnUse"><stop stop-color="#0063B2"/><stop offset=".477" stop-color="#57C0E3"/></linearGradient><linearGradient id="paint29_linear" x1="8" y1="19" x2="27.026" y2="40.978" gradientUnits="userSpaceOnUse"><stop stop-color="#0063B2"/><stop offset=".477" stop-color="#57C0E3"/></linearGradient><linearGradient id="paint30_linear" x1="8" y1="19" x2="27.026" y2="40.978" gradientUnits="userSpaceOnUse"><stop stop-color="#0063B2"/><stop offset=".477" stop-color="#57C0E3"/></linearGradient><linearGradient id="paint31_linear" x1="47.328" y1="18.641" x2="27.904" y2="38.505" gradientUnits="userSpaceOnUse"><stop offset=".71" stop-color="#F36F2E"/><stop offset="1" stop-color="#F1592D"/></linearGradient><linearGradient id="paint32_linear" x1="47.328" y1="18.641" x2="27.904" y2="38.505" gradientUnits="userSpaceOnUse"><stop offset=".71" stop-color="#F36F2E"/><stop offset="1" stop-color="#F1592D"/></linearGradient><linearGradient id="paint33_linear" x1="47.328" y1="18.641" x2="27.904" y2="38.505" gradientUnits="userSpaceOnUse"><stop offset=".71" stop-color="#F36F2E"/><stop offset="1" stop-color="#F1592D"/></linearGradient><linearGradient id="paint34_linear" x1="47.328" y1="18.641" x2="27.904" y2="38.505" gradientUnits="userSpaceOnUse"><stop offset=".71" stop-color="#F36F2E"/><stop offset="1" stop-color="#F1592D"/></linearGradient><linearGradient id="paint35_linear" x1="47.328" y1="18.641" x2="27.904" y2="38.505" gradientUnits="userSpaceOnUse"><stop offset=".71" stop-color="#F36F2E"/><stop offset="1" stop-color="#F1592D"/></linearGradient><linearGradient id="paint36_linear" x1="47.328" y1="18.641" x2="27.904" y2="38.505" gradientUnits="userSpaceOnUse"><stop offset=".71" stop-color="#F36F2E"/><stop offset="1" stop-color="#F1592D"/></linearGradient><linearGradient id="paint37_linear" x1="47.328" y1="18.641" x2="27.904" y2="38.505" gradientUnits="userSpaceOnUse"><stop offset=".468" stop-color="#FDBA2D"/><stop offset=".71" stop-color="#F36F2E"/><stop offset="1" stop-color="#F1592D"/></linearGradient><linearGradient id="paint38_linear" x1="47.328" y1="18.641" x2="27.904" y2="38.505" gradientUnits="userSpaceOnUse"><stop offset=".468" stop-color="#FDBA2D"/><stop offset=".71" stop-color="#F36F2E"/></linearGradient><linearGradient id="paint39_linear" x1="47.328" y1="18.641" x2="27.904" y2="38.505" gradientUnits="userSpaceOnUse"><stop offset=".468" stop-color="#FDBA2D"/><stop offset=".71" stop-color="#F36F2E"/></linearGradient><linearGradient id="paint40_linear" x1="47.328" y1="18.641" x2="27.904" y2="38.505" gradientUnits="userSpaceOnUse"><stop offset=".2" stop-color="#F2682D"/><stop offset=".468" stop-color="#FDBA2D"/><stop offset=".71" stop-color="#F36F2E"/></linearGradient><linearGradient id="paint41_linear" x1="47.328" y1="18.641" x2="27.904" y2="38.505" gradientUnits="userSpaceOnUse"><stop offset=".468" stop-color="#FDBA2D"/><stop offset=".71" stop-color="#F36F2E"/></linearGradient><linearGradient id="paint42_linear" x1="47.328" y1="18.641" x2="27.904" y2="38.505" gradientUnits="userSpaceOnUse"><stop offset=".468" stop-color="#FDBA2D"/><stop offset=".71" stop-color="#F36F2E"/></linearGradient><linearGradient id="paint43_linear" x1="47.328" y1="18.641" x2="27.904" y2="38.505" gradientUnits="userSpaceOnUse"><stop offset=".468" stop-color="#FDBA2D"/><stop offset=".71" stop-color="#F36F2E"/></linearGradient><linearGradient id="paint44_linear" x1="47.328" y1="18.641" x2="27.904" y2="38.505" gradientUnits="userSpaceOnUse"><stop offset=".2" stop-color="#F2682D"/><stop offset=".468" stop-color="#FDBA2D"/><stop offset=".71" stop-color="#F36F2E"/></linearGradient><linearGradient id="paint45_linear" x1="47.328" y1="18.641" x2="27.904" y2="38.505" gradientUnits="userSpaceOnUse"><stop offset=".2" stop-color="#F2682D"/><stop offset=".468" stop-color="#FDBA2D"/></linearGradient><linearGradient id="paint46_linear" x1="47.328" y1="18.641" x2="27.904" y2="38.505" gradientUnits="userSpaceOnUse"><stop offset=".2" stop-color="#F2682D"/><stop offset=".468" stop-color="#FDBA2D"/></linearGradient><linearGradient id="paint47_linear" x1="47.328" y1="18.641" x2="27.904" y2="38.505" gradientUnits="userSpaceOnUse"><stop offset=".2" stop-color="#F2682D"/><stop offset=".468" stop-color="#FDBA2D"/></linearGradient><linearGradient id="paint48_linear" x1="47.328" y1="18.641" x2="27.904" y2="38.505" gradientUnits="userSpaceOnUse"><stop offset=".2" stop-color="#F2682D"/><stop offset=".468" stop-color="#FDBA2D"/></linearGradient><linearGradient id="paint49_linear" x1="47.328" y1="18.641" x2="27.904" y2="38.505" gradientUnits="userSpaceOnUse"><stop stop-color="#F0572B"/><stop offset=".2" stop-color="#F2682D"/></linearGradient><linearGradient id="paint50_linear" x1="47.328" y1="18.641" x2="27.904" y2="38.505" gradientUnits="userSpaceOnUse"><stop stop-color="#F0572B"/><stop offset=".2" stop-color="#F2682D"/></linearGradient><linearGradient id="paint52_linear" x1="47.328" y1="18.641" x2="27.904" y2="38.505" gradientUnits="userSpaceOnUse"><stop offset=".2" stop-color="#F2682D"/><stop offset=".468" stop-color="#FDBA2D"/></linearGradient><linearGradient id="paint53_linear" x1="47.328" y1="18.641" x2="27.904" y2="38.505" gradientUnits="userSpaceOnUse"><stop stop-color="#F0572B"/><stop offset=".2" stop-color="#F2682D"/></linearGradient><linearGradient id="paint54_linear" x1="47.328" y1="18.641" x2="27.904" y2="38.505" gradientUnits="userSpaceOnUse"><stop stop-color="#F0572B"/><stop offset=".2" stop-color="#F2682D"/></linearGradient><linearGradient id="paint55_linear" x1="47.328" y1="18.641" x2="27.904" y2="38.505" gradientUnits="userSpaceOnUse"><stop stop-color="#F0572B"/><stop offset=".2" stop-color="#F2682D"/></linearGradient><linearGradient id="paint56_linear" x1="47.328" y1="18.641" x2="27.904" y2="38.505" gradientUnits="userSpaceOnUse"><stop stop-color="#F0572B"/><stop offset=".2" stop-color="#F2682D"/></linearGradient><linearGradient id="paint57_linear" x1="47.328" y1="18.641" x2="27.904" y2="38.505" gradientUnits="userSpaceOnUse"><stop stop-color="#F0572B"/><stop offset=".2" stop-color="#F2682D"/></linearGradient><linearGradient id="paint59_linear" x1="47.328" y1="18.641" x2="27.904" y2="38.505" gradientUnits="userSpaceOnUse"><stop offset=".2" stop-color="#F2682D"/><stop offset=".468" stop-color="#FDBA2D"/></linearGradient><linearGradient id="paint60_linear" x1="47.328" y1="18.641" x2="27.904" y2="38.505" gradientUnits="userSpaceOnUse"><stop offset=".2" stop-color="#F2682D"/><stop offset=".468" stop-color="#FDBA2D"/></linearGradient><linearGradient id="paint61_linear" x1="47.328" y1="18.641" x2="27.904" y2="38.505" gradientUnits="userSpaceOnUse"><stop offset=".2" stop-color="#F2682D"/><stop offset=".468" stop-color="#FDBA2D"/></linearGradient><linearGradient id="paint62_linear" x1="47.328" y1="18.641" x2="27.904" y2="38.505" gradientUnits="userSpaceOnUse"><stop offset=".468" stop-color="#FDBA2D"/><stop offset=".71" stop-color="#F36F2E"/><stop offset="1" stop-color="#F1592D"/></linearGradient></defs></svg>