<!-- by TradingView --><svg xmlns="http://www.w3.org/2000/svg" width="56" height="56"><path fill="#F0F3FA" d="M0 0h56v56H0z"/><path d="M39.5 15.49c-1.85-1.4-4.4-2.93-7.52-3.15-5.5-.38-14.33 3.65-14.07 13.6.2 7.55 7.47 11.68 10.14 11.84 0 0-1.23.44-4.06.24-4.88-.34-11.63-5.32-11.63-12.25 0-6.2 4.54-11.68 10.72-14.05A16.97 16.97 0 0139.5 15.5z" fill="url(#azmrjoaho)"/><path d="M45 27.98a17 17 0 01-5.62 12.65 13.8 13.8 0 004.01-12.23c-1.1-5.8-6.09-10.5-12.1-10.5A12.77 12.77 0 0018.3 28.68c-.25-.91-.38-1.85-.4-2.8-.26-9.94 8.57-13.96 14.07-13.59 3.13.22 5.67 1.75 7.52 3.15A16.98 16.98 0 0145 27.98z" fill="url(#bzmrjoaho)"/><path d="M39.42 40.62a17.02 17.02 0 01-24.35-1.6c1.87 1.88 5.7 4.71 10.29 4.6 5.9-.15 12.57-4.07 12.57-12.88 0-9.22-7.42-12.43-9.9-12.5a15 15 0 013.3-.35c6.01 0 11 4.7 12.1 10.5a13.8 13.8 0 01-4.01 12.23z" fill="url(#czmrjoaho)"/><path d="M37.93 30.79c0 8.81-6.67 12.73-12.58 12.88-4.58.12-8.41-2.72-10.29-4.6C12.44 36 11 32.07 11 28.02a17 17 0 0112.08-16.3c-6.18 2.37-10.7 7.84-10.7 14.05 0 6.92 6.79 11.92 11.62 12.24a19.54 19.54 0 002.91-.03 13.35 13.35 0 0010.87-9.38c.1.7.15 1.42.15 2.2v-.01z" fill="url(#dzmrjoaho)"/><defs><linearGradient id="azmrjoaho" x1="25.93" y1="38.07" x2="25.93" y2="11" gradientUnits="userSpaceOnUse"><stop stop-color="#05945B"/><stop offset=".17" stop-color="#08955B"/><stop offset=".31" stop-color="#13995A"/><stop offset=".44" stop-color="#249F58"/><stop offset=".56" stop-color="#3CA856"/><stop offset=".68" stop-color="#5CB452"/><stop offset=".8" stop-color="#82C24F"/><stop offset=".91" stop-color="#AFD34A"/><stop offset="1" stop-color="#DBE346"/></linearGradient><linearGradient id="bzmrjoaho" x1="24.28" y1="34.67" x2="41.53" y2="17.45" gradientUnits="userSpaceOnUse"><stop stop-color="#242D69"/><stop offset=".14" stop-color="#24346D"/><stop offset=".34" stop-color="#244779"/><stop offset=".57" stop-color="#23658C"/><stop offset=".83" stop-color="#2290A7"/><stop offset="1" stop-color="#22AFBA"/></linearGradient><linearGradient id="czmrjoaho" x1="38.58" y1="41.47" x2="21.69" y2="24.6" gradientUnits="userSpaceOnUse"><stop stop-color="#FBC202"/><stop offset=".11" stop-color="#F4A40B"/><stop offset=".34" stop-color="#E56A1D"/><stop offset=".55" stop-color="#DA3C2B"/><stop offset=".74" stop-color="#D21B35"/><stop offset=".9" stop-color="#CD073B"/><stop offset="1" stop-color="#CB003D"/></linearGradient><linearGradient id="dzmrjoaho" x1="11" y1="27.7" x2="37.93" y2="27.7" gradientUnits="userSpaceOnUse"><stop stop-color="#22AFBA"/><stop offset=".69" stop-color="#242D69"/></linearGradient></defs></svg>