<!-- by TradingView --><svg width="56" height="56" xmlns="http://www.w3.org/2000/svg"><path fill="#234695" d="M0 0h56v56H0z"/><path d="M20.513 32.99H14V28h3.771l-1.153-2H14v-4h8v-3.002H10V36h12.307l-1.794-3.01z" fill="#fff"/><path d="M29.053 42l8.663-16H33.5l-5.657 10.522L22.34 26h-4.549l8.687 16h2.575z" fill="#fff"/><path d="M36.65 19c-6.008 0-10.306 3.458-10.306 8.418 0 2.278.71 4.238 2.148 5.696l2.268-4.241a8.107 8.107 0 01-.126-1.45c0-3.49 2.126-5.913 6.005-5.913 3.88 0 6.006 2.096 6.006 5.912 0 3.621-2.69 5.91-6.006 5.91a8.576 8.576 0 01-1.548-.135l-1.33 2.41c.955.156 1.921.232 2.889.227 5.696 0 10.293-2.834 10.293-8.416 0-5.582-4.306-8.418-10.293-8.418z" fill="#fff"/></svg>