<!-- by TradingView --><svg width="56" height="56" xmlns="http://www.w3.org/2000/svg"><path fill="#004C81" d="M0 0h56v56H0z"/><path d="M11.412 30.946c0 .027-.018.04-.055.04H5.055c-.037 0-.055-.016-.055-.05v-.233c0-.034.018-.05.055-.05l.472-.01a2.02 2.02 0 00.516-.072c.14-.047.27-.141.285-.324.015-.162.022-.314.022-.455.008-.142.011-.307.011-.496V25.71a9.07 9.07 0 00-.01-.476 6.34 6.34 0 00-.022-.476 1.189 1.189 0 00-.033-.182.242.242 0 00-.088-.132.419.419 0 00-.187-.07c-.08-.02-.19-.03-.33-.03l-.417-.01c-.036 0-.054-.018-.054-.052v-.232c0-.034.018-.051.054-.051h5.692c.037 0 .055.017.055.05l.117 1.388c0 .034-.019.05-.055.05l-.242.02c-.03 0-.047-.013-.055-.04a2.152 2.152 0 00-.23-.547 1.355 1.355 0 00-.253-.324c-.051-.054-.172-.087-.362-.1a7.708 7.708 0 00-.55-.021H7.504c-.036 0-.055.017-.055.05v2.502c0 .033.019.05.055.05H8.7c.212 0 .4-.013.56-.04.168-.027.282-.085.34-.172a.878.878 0 00.143-.314c.044-.135.08-.314.11-.537 0-.027.018-.04.055-.04h.252c.037 0 .055.016.055.05v2.572c0 .034-.018.05-.055.05h-.252c-.037 0-.055-.013-.055-.04a4.095 4.095 0 00-.12-.577c-.037-.149-.092-.253-.165-.314a.622.622 0 00-.352-.122 3.985 3.985 0 00-.516-.03H7.503c-.036 0-.055.017-.055.05v2.056c0 .155.015.287.044.395.03.108.085.2.165.273a.79.79 0 00.34.152c.154.027.352.04.593.04h.945c.329 0 .578-.033.746-.1a1.34 1.34 0 00.406-.264 1.72 1.72 0 00.319-.445c.095-.19.205-.452.33-.79.007-.02.028-.03.065-.03l.23.03c.03.007.045.027.045.06l-.264 1.955zm6.144-4.428c0 .022-.013.034-.037.034l-.183.006a.317.317 0 00-.176.048.524.524 0 00-.153.148c-.05.068-.115.128-.173.25-.059.117-.13.268-.212.452l-1.069 2.417a9.57 9.57 0 00-.095.202 2.896 2.896 0 00-.08.203l-.242.675c-.01.013-.022.02-.037.02h-.19c-.02 0-.032-.007-.037-.02l-1.486-3.686a3.168 3.168 0 00-.16-.35 1.388 1.388 0 00-.125-.224c-.039-.054-.092-.078-.136-.1a.316.316 0 00-.146-.035l-.183-.006c-.024 0-.036-.012-.036-.034v-.155c0-.023.012-.034.036-.034h1.86c.024 0 .036.011.036.034v.155c0 .022-.012.034-.037.034l-.168.006a1.109 1.109 0 00-.205.027.187.187 0 00-.11.075c-.02.031-.015.065-.01.128.01.058.034.135.073.23l1.134 2.868c.005.014.012.023.022.027.01 0 .017-.006.022-.02a5.44 5.44 0 01.095-.243c.04-.095.073-.178.102-.25l.828-2.018a4.38 4.38 0 00.153-.439.4.4 0 00.041-.223c-.01-.063-.041-.103-.095-.121a.573.573 0 00-.205-.04l-.205-.007c-.024 0-.036-.012-.036-.034v-.155c0-.023.012-.034.036-.034h1.552c.024 0 .037.011.037.034v.155zm4.707 4.441c0 .018-.013.027-.037.027-1.388 0-4.055.007-4.15.007-.024 0-.037-.011-.037-.034v-.155c0-.022.012-.034.037-.034h.3c.141-.004.256-.02.344-.047.093-.031.144-.108.154-.23.01-.107.014-.208.014-.303.005-.095.008-.205.008-.33v-2.424c0-.126-.003-.212-.008-.297a4.21 4.21 0 00-.014-.317.79.79 0 00-.022-.122.161.161 0 00-.059-.088.279.279 0 00-.124-.047c-.148-.037-.323-.01-.474-.013-.024 0-.036-.012-.036-.034v-.155c0-.023.012-.034.036-.034h3.782c.025 0 .037.011.037.034l.066.91c0 .023-.012.035-.037.035l-.16.013c-.02 0-.033-.009-.037-.027-.04-.14-.09-.26-.154-.364a.903.903 0 00-.169-.216c-.034-.036-.114-.059-.241-.068a5.179 5.179 0 00-.366-.013h-1.26c-.023 0-.036.01-.036.033v1.647c0 .023.012.034.037.034h.798c.141 0 .266-.009.373-.027.112-.018.188-.056.227-.115a.6.6 0 00.095-.209c.03-.09.054-.21.073-.358 0-.018.012-.027.037-.027h.168c.025 0 .037.012.037.034v1.715c0 .022-.012.033-.037.033h-.168c-.025 0-.037-.009-.037-.027a2.726 2.726 0 00-.08-.384.385.385 0 00-.11-.21.415.415 0 00-.234-.08 2.653 2.653 0 00-.344-.02h-.798c-.024 0-.037.01-.037.033v1.404c0 .103.01.191.03.263.02.072.056.133.11.183a.54.54 0 00.226.1c.103.019.235.028.395.028h.63c.22 0 .386-.023.498-.068a.894.894 0 00.27-.175c.079-.077.15-.176.213-.297a5.33 5.33 0 00.22-.527c.004-.013.019-.02.043-.02l.154.02c.02.005.03.018.03.04l-.176 1.303zm6.36-.02c0 .023-.013.034-.037.034l-.176.014a3.448 3.448 0 01-.659-.027 1.692 1.692 0 01-.476-.142 1.034 1.034 0 01-.292-.223 6.509 6.509 0 01-.337-.385c-.117-.144-.234-.362-.352-.52a33.064 33.064 0 00-.322-.438 5.842 5.842 0 00-.241-.331c-.069-.086-.112-.128-.132-.128l-.6.006c-.024 0-.037.012-.037.034v1.35c.005.09.012.192.022.304.01.09.037.16.08.21.045.044.148.056.333.06l.256.007c.025 0 .037.011.037.034v.155c0 .022-.012.034-.037.034h-2.092c-.024 0-.037-.012-.037-.034v-.155c0-.023.013-.034.037-.034l.242-.007c.092-.005.154.002.208-.007a.27.27 0 00.117-.054.125.125 0 00.051-.08c.01-.032.02-.073.03-.122a2.38 2.38 0 00.021-.304c.005-.095.008-.205.008-.33v-2.404c0-.126-.003-.232-.008-.317a4.21 4.21 0 00-.014-.317.616.616 0 00-.022-.115.161.161 0 00-.059-.088.36.36 0 00-.141-.047c-.054-.014-.127-.016-.22-.02l-.241-.007c-.025 0-.037-.011-.037-.034v-.155c0-.023.012-.034.037-.034h2.227c.23 0 .442.018.637.068.2.05.37.119.512.209.147.09.261.2.344.33.083.131.125.28.125.446a.987.987 0 01-.278.716c-.186.193-.42.342-.703.445-.02.01-.024.025-.015.047a11.655 11.655 0 00.542.75c.112.144.234.358.366.506.132.149.268.286.41.412.141.126.288.236.44.33.15.095.302.16.453.196.02.005.03.016.03.034v.128zm-2-3.409a.929.929 0 00-.109-.472.753.753 0 00-.315-.304 1.417 1.417 0 00-.505-.155 4.186 4.186 0 00-.695-.027c-.024 0-.037.011-.037.034v1.883c0 .022.012.034.037.034l.505.02c.146.004.285-.014.417-.054a1.08 1.08 0 00.359-.196c.102-.09.185-.2.249-.33a.935.935 0 00.095-.433zm6.94 2.97a3.408 3.408 0 01-.71.338c-.283.099-.637.148-1.061.148-.459 0-.862-.063-1.208-.189a2.567 2.567 0 01-.864-.512 2.13 2.13 0 01-.52-.757 2.483 2.483 0 01-.175-.931c0-.329.066-.637.198-.925.131-.292.322-.547.57-.763.25-.216.55-.387.9-.513a3.583 3.583 0 011.201-.189c.376 0 .698.04.966.122.274.076.513.16.718.25.014.009.022.02.022.033l.036.85c0 .023-.01.035-.029.035l-.132.013c-.024 0-.039-.007-.044-.02a2.789 2.789 0 00-.19-.398 1.065 1.065 0 00-.293-.324 1.387 1.387 0 00-.446-.223 2.245 2.245 0 00-.652-.081c-.268 0-.522.047-.761.142-.234.09-.44.222-.615.398a1.91 1.91 0 00-.417.641 2.172 2.172 0 00-.154.837c0 .347.047.66.14.938.092.275.221.511.387.71.171.193.376.341.615.445.24.103.503.155.79.155.254 0 .476-.038.667-.115.195-.076.363-.173.505-.29a1.68 1.68 0 00.344-.398 2.09 2.09 0 00.212-.419c.005-.013.017-.02.037-.02l.146.013c.034 0 .046.014.037.04l-.22.96zm6.45-1.97c0 .328-.06.64-.183.938a2.375 2.375 0 01-.52.783 2.535 2.535 0 01-.812.54 2.77 2.77 0 01-1.061.195c-.39 0-.744-.058-1.062-.175a2.505 2.505 0 01-.812-.493 2.23 2.23 0 01-.52-.736 2.298 2.298 0 01-.183-.918c0-.328.061-.64.183-.938a2.376 2.376 0 011.332-1.316 2.684 2.684 0 011.062-.203c.39 0 .744.061 1.061.183.317.117.588.28.813.492.224.207.397.453.52.736.121.28.182.583.182.911zm-.863.29c0-.342-.044-.66-.132-.952a2.442 2.442 0 00-.366-.756 1.723 1.723 0 00-.571-.5 1.528 1.528 0 00-.74-.182c-.35 0-.65.083-.9.25a1.47 1.47 0 00-.534.668 2.645 2.645 0 00-.176 1.013c0 .369.044.702.132.999.088.297.21.549.366.756.161.207.349.367.564.479.214.108.449.162.702.162.444 0 .806-.124 1.084-.371.19-.167.331-.383.424-.648.098-.266.147-.572.147-.918zm7.159 2.113c0 .022-.012.033-.037.033-.053.005-.112.01-.175.014a3.45 3.45 0 01-.659-.027 1.69 1.69 0 01-.476-.142 1.032 1.032 0 01-.293-.223 8.733 8.733 0 01-.389-.445 13.196 13.196 0 01-.351-.453 33.064 33.064 0 00-.322-.438 5.842 5.842 0 00-.242-.331c-.068-.086-.112-.128-.131-.128l-.6.006c-.025 0-.037.012-.037.034v1.35c.005.09.012.192.022.304.01.09.036.16.08.21.044.044.159.069.344.073l.257.007c.024 0 .036.011.036.034v.155c0 .023-.012.034-.036.034a37.788 37.788 0 00-.462-.014H41.66l-.476.014c-.024 0-.036-.011-.036-.034v-.155c0-.023.012-.034.036-.034l.242-.007c.092-.004.166-.01.22-.02a.27.27 0 00.116-.054.125.125 0 00.052-.08c.01-.032.02-.073.029-.122a2.39 2.39 0 00.022-.304c.005-.095.007-.205.007-.33v-2.424a4.88 4.88 0 00-.007-.297 4.11 4.11 0 00-.015-.317.616.616 0 00-.022-.115.161.161 0 00-.058-.088.278.278 0 00-.125-.047c-.053-.014-.127-.01-.22-.014l-.24-.006c-.025 0-.038-.012-.038-.034v-.155c0-.023.013-.034.037-.034.127.004.285-.005.476 0 .59 0 1.159-.005 1.735-.005.229 0 .441.025.636.074.2.05.371.11.513.2.146.09.26.201.344.332a.81.81 0 01.124.445.987.987 0 01-.278.716c-.185.193-.42.342-.703.445-.019.01-.024.025-.014.047a11.647 11.647 0 00.542.75c.112.144.234.29.366.439.131.148.32.346.462.472.141.126.287.236.439.33.151.095.302.16.453.196.02.005.03.016.03.034v.129zm-2.05-3.423a.851.851 0 00-.11-.452.753.753 0 00-.315-.304 1.417 1.417 0 00-.505-.155 4.194 4.194 0 00-.696-.027c-.024 0-.036.011-.036.034v1.883c0 .022.012.034.036.034l.505.02c.147.004.286-.014.418-.054a1.08 1.08 0 00.358-.196c.103-.09.186-.2.25-.33.063-.131.094-.282.094-.453zm6.565 3.45c0 .017-.012.026-.036.026h-3.609a7.36 7.36 0 01-.307.007c-.098.005-.18.007-.25.007-.024 0-.036-.011-.036-.034v-.155c0-.023.012-.034.037-.034l.315-.007c.141-.004.256-.02.343-.047.093-.031.145-.108.154-.23.01-.107.015-.208.015-.303.005-.095.007-.205.007-.33v-2.424a4.88 4.88 0 00-.007-.297 4.21 4.21 0 00-.015-.317.79.79 0 00-.022-.122.161.161 0 00-.058-.088c-.03-.022-.071-.024-.125-.033a.94.94 0 00-.22-.02l-.277-.007c-.025 0-.037-.012-.037-.034v-.155c0-.023.012-.034.037-.034.364.013.726 0 1.09 0h2.716c.024 0 .036.011.036.034l.066.91c0 .023-.012.035-.036.035l-.161.013c-.02 0-.032-.009-.037-.027a1.434 1.434 0 00-.154-.364.903.903 0 00-.168-.216c-.034-.036-.115-.059-.242-.068a5.179 5.179 0 00-.366-.013H48.22c-.025 0-.037.01-.037.033v1.647c0 .023.012.034.036.034h.798c.142 0 .266-.009.374-.027.112-.018.188-.056.227-.115a.6.6 0 00.095-.209c.029-.09.053-.21.073-.358 0-.018.012-.027.037-.027h.168c.024 0 .036.012.036.034v1.715c0 .022-.012.033-.036.033h-.169c-.024 0-.036-.009-.036-.027a2.726 2.726 0 00-.08-.384.385.385 0 00-.11-.21.415.415 0 00-.235-.08 2.653 2.653 0 00-.344-.02h-.797c-.025 0-.037.01-.037.033v1.404c0 .103.01.191.03.263a.374.374 0 00.109.183.55.55 0 00.227.1c.102.019.234.028.395.028h.63c.22 0 .385-.023.497-.068a.894.894 0 00.271-.175c.078-.077.15-.176.212-.297a5.33 5.33 0 00.22-.527c.005-.013.02-.02.044-.02l.154.02c.02.005.029.018.029.04l-.176 1.303z" fill="#fff"/></svg>