<!-- by TradingView --><svg width="56" height="56" xmlns="http://www.w3.org/2000/svg"><path fill="#F16E24" d="M0 0h56v56H0z"/><path d="M43 28.647c0 .99-.834 1.791-1.863 1.791-1.03 0-1.864-.802-1.864-1.791 0-.99.834-1.791 1.864-1.791 1.029 0 1.863.802 1.863 1.79zM42.153 23.924c0 .99-.834 1.792-1.863 1.792-1.03 0-1.864-.802-1.864-1.792 0-.989.834-1.79 1.864-1.79 1.029 0 1.863.801 1.863 1.79zM36.393 24.25c0 .81-.682 1.466-1.524 1.466s-1.525-.656-1.525-1.466c0-.81.683-1.465 1.525-1.465.842 0 1.524.656 1.524 1.465zM32.667 20.83c0 .72-.607 1.303-1.356 1.303-.748 0-1.355-.583-1.355-1.303 0-.719.607-1.302 1.355-1.302.749 0 1.356.583 1.356 1.302zM30.803 24.585c0 .81-.682 1.465-1.524 1.465s-1.525-.656-1.525-1.465c0-.81.683-1.466 1.525-1.466.842 0 1.524.656 1.524 1.466zM27.924 19.61c0 .584-.494 1.058-1.102 1.058-.608 0-1.1-.474-1.1-1.059s.492-1.058 1.1-1.058c.608 0 1.102.474 1.102 1.058zM25.721 24.82c0 .585-.493 1.059-1.1 1.059-.609 0-1.102-.474-1.102-1.059s.493-1.058 1.101-1.058 1.101.473 1.101 1.058zM23.18 28.647c0 .54-.455.977-1.016.977-.561 0-1.017-.438-1.017-.977 0-.54.456-.977 1.017-.977.561 0 1.016.437 1.016.977zM25.552 32.555c0 .45-.38.814-.847.814-.468 0-.847-.364-.847-.814 0-.45.38-.814.847-.814.468 0 .847.364.847.814zM23.35 20.912c0 .585-.493 1.058-1.101 1.058s-1.101-.473-1.101-1.058c0-.585.492-1.059 1.1-1.059.609 0 1.102.474 1.102 1.059zM19.806 24.25c0 .54-.455.977-1.016.977-.561 0-1.016-.437-1.016-.977s.455-.977 1.016-.977c.561 0 1.016.438 1.016.977zM18.437 28.51c0 .494-.417.895-.931.895-.515 0-.932-.4-.932-.895s.417-.896.931-.896c.515 0 .932.401.932.896zM19.792 33.044c0 .45-.379.814-.847.814-.467 0-.847-.365-.847-.814 0-.45.38-.815.847-.815.468 0 .847.365.847.815zM22.841 36.463c0 .405-.34.733-.762.733-.42 0-.762-.328-.762-.733 0-.404.341-.732.762-.732s.762.328.762.732zM27.585 37.528c0 .36-.304.65-.678.65a.665.665 0 01-.677-.65c0-.36.303-.652.677-.652.374 0 .678.292.678.652zM32.158 36.138c0 .27-.227.488-.508.488a.499.499 0 01-.508-.488c0-.27.228-.489.508-.489s.508.219.508.489zM37.833 37.278a.25.25 0 01-.254.244.25.25 0 01-.254-.244.25.25 0 01.254-.245c.14 0 .254.11.254.245zM38.095 28.647c0 .99-.834 1.791-1.863 1.791-1.03 0-1.864-.802-1.864-1.791 0-.99.834-1.791 1.864-1.791 1.029 0 1.863.802 1.863 1.79zM39.443 20.016c0 .99-.835 1.792-1.864 1.792-1.029 0-1.863-.802-1.863-1.792s.834-1.791 1.863-1.791c1.03 0 1.864.802 1.864 1.791zM35.377 17.085c0 .81-.683 1.466-1.525 1.466-.841 0-1.524-.656-1.524-1.466 0-.81.682-1.466 1.524-1.466.843 0 1.525.657 1.525 1.466zM33.015 28.647c0 .81-.683 1.466-1.525 1.466-.842 0-1.524-.657-1.524-1.466 0-.81.682-1.466 1.524-1.466s1.525.656 1.525 1.466zM30.465 15.303c0 .72-.607 1.302-1.356 1.302-.748 0-1.355-.583-1.355-1.302 0-.72.607-1.303 1.355-1.303.749 0 1.355.583 1.355 1.303zM25.552 15.457c0 .63-.531 1.14-1.186 1.14-.655 0-1.186-.51-1.186-1.14 0-.63.531-1.14 1.186-1.14.655 0 1.186.51 1.186 1.14zM21.148 17.085c0 .63-.531 1.14-1.186 1.14-.655 0-1.186-.51-1.186-1.14 0-.63.53-1.14 1.186-1.14.655 0 1.186.51 1.186 1.14zM17.42 20.016c0 .63-.53 1.14-1.185 1.14s-1.186-.51-1.186-1.14c0-.63.531-1.14 1.186-1.14.655 0 1.186.51 1.186 1.14zM14.541 23.94c0 .45-.38.815-.847.815-.468 0-.847-.365-.847-.814 0-.45.38-.814.847-.814.468 0 .847.364.847.814zM13.694 28.81c0 .45-.38.814-.847.814-.468 0-.847-.365-.847-.814 0-.45.38-.814.847-.814.468 0 .847.364.847.814zM14.372 33.206c0 .36-.304.652-.678.652a.665.665 0 01-.678-.651c0-.36.304-.652.678-.652.374 0 .678.292.678.651zM16.574 37.44c0 .27-.228.489-.508.489a.499.499 0 01-.509-.489c0-.27.228-.488.509-.488.28 0 .508.219.508.488zM20.47 40.209c0 .27-.228.488-.508.488a.499.499 0 01-.508-.488c0-.27.227-.489.508-.489.28 0 .508.219.508.489zM25.044 41.593c0 .225-.19.407-.424.407a.416.416 0 01-.423-.407c0-.225.19-.407.423-.407.234 0 .424.182.424.407zM30.041 41.593c0 .225-.19.407-.424.407a.416.416 0 01-.423-.407c0-.225.19-.407.424-.407.233 0 .423.182.423.407zM34.36 40.17c0 .18-.151.327-.338.327a.332.332 0 01-.339-.326c0-.18.152-.326.339-.326.187 0 .339.146.339.326z" fill="#fff"/></svg>