<!-- by TradingView --><svg xmlns="http://www.w3.org/2000/svg" width="56" height="56"><path fill="#7B2F3D" d="M0 0h56v56H0z"/><path d="M28 11a17 17 0 00-12.69 28.31l-.75.67A17.93 17.93 0 0110 28a18 18 0 1132 11.32l-.78-.63A16.93 16.93 0 0045 28a17 17 0 00-17-17z" fill="#8D9696"/><path fill-rule="evenodd" d="M44 28.04a16 16 0 01-3.2 9.63l-.15-.19c-1.18-1.43-3.14-3.82-6.58-3.82l-.94.12c-1.5.18-2.97.37-4.04.09a23.9 23.9 0 011.47 6.74c0 .82 0 2.5-.17 3.39H28a8.51 8.51 0 00-4.34-4.51c-1.58-.6-2.88-.46-4.12-.32-1.06.12-2.07.23-3.17-.13a16 16 0 01-4.37-11C12 19.18 19.16 12 28 12s16 7.18 16 16.04zM31.74 19.3c3.78.41 5.7-1.05 6.2-1.83v4.18c-.79-.89-2.46-1.31-4-1.7-.82-.2-1.6-.4-2.2-.65zm-6.73 5.26c-.42.6-2.08 1.74-5.34 1.42.52.2 1.19.35 1.9.5 1.32.3 2.76.63 3.44 1.32v-3.24zm-7 13.02c2.56-2.96.54-8.31-.79-10.62 2.64.91 8.3 3.38 9.88 5.95 1.58 2.58.84 6.05.28 7.47-2.95-3.24-7.47-3.22-9.36-2.8zM30.47 20.9c1.33 2.43 3.32 8.41.76 11.53 1.89-.44 6.93-.9 9.37 2.95.57-1.5 1.33-5.49-.25-8.2-1.58-2.72-7.25-5.32-9.88-6.28z" fill="#fff"/></svg>