<!-- by TradingView --><svg width="56" height="56" xmlns="http://www.w3.org/2000/svg"><path fill="#F0F3FA" d="M0 0h56v56H0z"/><path d="M12 19.005h13.004l-1.16 4.974h-6.06L17.246 26h6.062l-.99 4.473h-5.387l-.681 2.402c1.394.486 5.79-.2 8.114-.807L23.305 37H8l4-17.995z" fill="#00214A"/><path d="M35 19h-7.529l-3.13 13.138L23.246 37H30l2-5 1.56 5L38 32l-.997 5H44l4-18h-8l-3.31 4L35 19z" fill="#BB000D"/><path d="M24.997 19.004H28L27 24h6.505c1.207 0 1.545.931 1.49 1.559 3.45-.301 4.64.915 4.82 1.686l.19 1.753s-.184-.243-.324-.377c-.358-.344-3.777.17-3.777.17-5.388 1.022-5.877 1.48-11.373 3.256-4.396 1.42-8.836 1.322-9.531.953l1-3h6l1-4h-6l1-3h6l.997-3.996z" fill="#F0F3FA"/><path d="M34.498 25.37h-2.283l1.725.961.558-.961z" fill="#BB000D"/></svg>