<!-- by TradingView --><svg xmlns="http://www.w3.org/2000/svg" width="56" height="56"><path fill="url(#a4o4k5pbr)" d="M0 0h56v56H0z"/><path d="M40.32 28.93c.6.55 1.18.88 2 .88.32 0 1-.13 1-.68 0-.3-.3-.5-.8-.6l-1.16-.25c-1.28-.2-1.94-1.06-1.94-2.1 0-1.72 1.35-2.43 2.83-2.43 1.15 0 2.27.48 3.05 1.37l-1.31.96a1.95 1.95 0 00-1.66-.83c-.33 0-.97.21-.97.67 0 .38.3.57.97.68l.44.1c1.38.22 2.52.66 2.52 2.02 0 2.13-1.88 2.53-3.17 2.53A3.92 3.92 0 0139 29.8l1.32-.87zM5 31v-7h5v1.36H7v1.28h3v1.35H7v1.65h3V31H5zm28 0v-7h5v1.36h-3v1.28h3v1.35h-3v1.65h3V31h-5zm-22-7l2.75 3.5L11 31h2l1.76-2.22L16.5 31h2l-2.75-3.5L18.5 24h-2l-1.74 2.23L13 24h-2zm8 7h2v-2.26h1.1c2.38 0 2.9-1.44 2.9-2.37 0-1.39-.7-2.37-2.56-2.37H19v7zm2-5.7h.8c.79 0 1.2.38 1.2 1.08 0 .54-.42 1.06-1.2 1.06H21V25.3zm7 5.7h-2v-7h3.48c1.56 0 2.52.73 2.52 2.3 0 .9-.57 1.63-1.44 1.89L32.15 31h-2.08l-1.37-2.52H28V31zm.96-5.7H28v1.88h.96c.56 0 1.04-.29 1.04-.94 0-.65-.48-.93-1.04-.94zm20.06 4.51c-.82 0-1.4-.32-2-.88l-1.32.87a3.92 3.92 0 003.12 1.45c1.3 0 3.17-.4 3.17-2.53 0-1.36-1.14-1.8-2.52-2.03l-.45-.1c-.66-.1-.96-.3-.96-.67 0-.46.64-.67.96-.67.73 0 1.21.27 1.67.83l1.31-.96a4.07 4.07 0 00-3.06-1.37c-1.47 0-2.82.7-2.82 2.42 0 1.05.66 1.9 1.94 2.11l1.15.26c.52.09.8.3.8.59 0 .55-.67.68-.99.68z" fill="#fff"/><defs><linearGradient id="a4o4k5pbr" x1="10.42" y1="9.71" x2="68.15" y2="76.02" gradientUnits="userSpaceOnUse"><stop stop-color="#1A1E21"/><stop offset="1" stop-color="#06060A"/></linearGradient></defs></svg>