<!-- by TradingView --><svg width="56" height="56" xmlns="http://www.w3.org/2000/svg"><path fill="#0169B1" d="M0 0h56v56H0z"/><path d="M38.626 33v3h.702v-1.821c0-.23.096-.536.47-.536.3 0 .451.242.451.42V36h.739v-1.937a.45.45 0 01.474-.42c.321.014.413.286.42.42V36h.738v-2.009c-.036-.526-.283-.99-.884-.99a.992.992 0 00-.858.482.925.925 0 00-.775-.483c-.438-.014-.735.316-.83.483V33h-.647zm-2.548-17.255c-14.258-2.83-21.42 3.083-23.22 6.394l.5.363c.997-1.814 9.296-9.07 22.72-5.442C46.816 19.962 50.86 28.578 51.54 32.524h.409c-1.633-11.428-11.262-15.948-15.873-16.78z" fill="#fff"/><path d="M31.562 39c-12.916.254-18.805-3.358-20.135-5.293l-.499.363c.77 1.542 6.712 7.157 20.634 6.93 11.137-.181 17.247-4.42 18.91-6.522v-.408h-.453C45.556 38.17 35.855 39 31.562 39zM4 22h6.025l.124 2.062-.604.184c-.209-1.137-.892-1.46-1.208-1.478H7.088c-.373 0-.466.275-.466.412v2.673c.388.005 1.26.011 1.633 0s.448-.299.44-.44v-.584h.63v3.086h-.63v-.725c0-.33-.294-.432-.44-.441H6.622c-.01.526-.022 1.768 0 2.53.022.763.576.925.85.91h1.304c1.01.012 1.538-1.037 1.675-1.563l.549.17L10.369 31H4v-.64c.9-.034 1.107-.516 1.098-.753.01-1.702.022-5.295 0-6.057-.022-.762-.741-.887-1.098-.853V22z" fill="#fff"/><path d="M13.545 25h-2.774v.68c.413 0 .654.313.723.47a504.77 504.77 0 011.535 3.855c.189.496.079.842 0 .953a33.35 33.35 0 01-.517 1.043c-.118.212-.339.136-.383 0-.044-.136-.207-.484-.635-.53-.428-.045-.723.318-.723.666 0 .348.325.892 1.254.862.744-.024 1.235-.585 1.387-.862.827-1.996 2.503-6.03 2.597-6.2.095-.169.512-.242.709-.257V25h-2.346v.68c.66 0 .63.313.53.47l-.944 2.373c-.226-.62-.729-1.963-.93-2.374-.2-.411.261-.484.517-.469V25z" fill="#fff"/><path fill-rule="evenodd" d="M21.41 29.499c-.276.485-1.104 1.464-2.213 1.5-1.387.043-2.642-.736-2.686-2.897C16.467 25.941 17.957 25 19.108 25c1.15 0 2.095.691 2.198 2.044.025.161-.05.488-.546.5-.495.011-2.173.004-2.95 0-.04.766.223 2.307 1.593 2.337.25.015.918-.124 1.579-.794l.428.412zm-3.465-2.924c.055-.354.352-1.063 1.108-1.056.756.007.899.707.876 1.056h-1.983zm27.295 2.924c-.276.485-1.104 1.464-2.214 1.5-1.387.043-2.64-.736-2.685-2.897C40.297 25.941 41.787 25 42.938 25c1.15 0 2.095.691 2.198 2.044.025.161-.05.488-.546.5-.496.011-2.174.004-2.95 0-.04.766.223 2.307 1.593 2.337.25.015.918-.124 1.579-.794l.427.412zm-3.465-2.713c.055-.354.352-1.06 1.108-1.052.756.006.899.704.876 1.052h-1.984z" fill="#fff"/><path d="M29.822 22.757l.283 1.88h-.616c-.183-.627-.896-1.88-2.28-1.88-1.73 0-3.561.836-3.561 3.71 0 2.962 2.232 3.818 3.478 3.818.918 0 1.192-.522 1.214-.81.006-.207.014-.635 0-1.172-.013-.536-.76-.692-1.131-.702V27h3.411v.6c-.572.066-.77.344-.798.475v1.4c0 .13.11.272.166.326v.54c-.5.325-2.184.658-2.862.658-.385 0-5.126.184-5.126-4.434 0-4.37 3.91-4.61 5.209-4.56 1.038.04 2.174.518 2.613.752z" fill="#fff"/><path fill-rule="evenodd" d="M33.804 25.003c.501-.03 1.502.189 1.49 1.3-.012 1.11-.005 2.736 0 3.41.025.119.148.32.443.178.368-.177.546.015.516.266-.03.25-.472.812-1.062.841-.59.03-1.004-.369-1.107-.664-.33.221-1.13.665-1.697.665-.797 0-1.564-.384-1.534-1.403.03-1.02 1.033-1.374 1.534-1.551.402-.142 1.25-.463 1.623-.606.07-.472 0-1.42-.826-1.432-.826-.012-.934.379-.885.576.01.216-.118.67-.709.753-.428.06-.646-.453-.53-.753.201-.527 1.032-1.58 2.744-1.58zm.273 3.193v1.15c-.254.227-.848.684-1.194.694-.432.011-.694-.24-.682-.694.012-.497.952-.824 1.55-1.032.129-.045.241-.084.326-.118z" fill="#fff"/><path d="M38.357 25.186V24h-.446c-.464.854-1.312 1.487-1.679 1.697v.522h.81c-.009.893-.02 2.842 0 3.488.023.807.579 1.293 1.315 1.293.702 0 1.751-.652 1.751-1.115 0-.37-.338-.273-.507-.178-.26.2-.535.249-.64.249-.483.019-.604-.324-.604-.498v-3.24h1.751v-1.032h-1.75z" fill="#fff"/><path fill-rule="evenodd" d="M27.606 33v4h.717v-1.443c.104.154.41.443.803.443.493 0 1.167-.313 1.167-1.456 0-1.114-.652-1.544-1.167-1.544a.975.975 0 00-.803.45V33h-.717zm1.328 2.278c.348 0 .631-.417.631-.931s-.283-.93-.631-.93c-.35 0-.632.416-.632.93s.283.93.632.93z" fill="#fff"/><path d="M30.7 36v-4h.75v1.488c.2-.397.652-.474.853-.463.682.009.876.687.887 1.025V36h-.762v-1.697c0-.253-.011-.64-.443-.64s-.538.398-.534.574V36h-.75z" fill="#fff"/><path d="M33.685 34c.02-.31.298-1 1.254-1 .957 0 1.156.524 1.136.786v1.663c0 .116.02.434.095.551h-.71c-.032-.06-.092-.256-.083-.337-.09.108-.388.328-.852.337a.876.876 0 01-.923-.865c0-.427.225-.72.781-.832.089-.018.174-.033.255-.048.43-.078.74-.135.74-.39 0-.303-.332-.337-.439-.337-.106 0-.473.101-.556.472h-.698zm1.66.562c-.363.03-1.028.165-1.028.558 0 .33.403.396.62.328.17-.053.408-.193.408-.886zM43.14 34c.02-.31.298-1 1.254-1 .957 0 1.156.524 1.137.786v1.663c0 .116.019.434.094.551h-.71c-.031-.06-.092-.256-.083-.337-.09.108-.388.328-.852.337a.876.876 0 01-.923-.865c0-.427.225-.72.781-.832.089-.018.174-.033.255-.048.43-.078.74-.135.74-.39 0-.303-.332-.337-.439-.337-.106 0-.473.101-.556.472h-.698zm1.66.562c-.363.03-1.028.165-1.028.558 0 .33.403.396.62.328.17-.053.408-.193.408-.886z" fill="#fff"/><path d="M36.623 36v-3h.73v.564c.28-.563.752-.6.952-.547v.727c-.761-.096-.952.44-.952.72V36h-.73z" fill="#fff"/></svg>