<!-- by TradingView --><svg xmlns="http://www.w3.org/2000/svg" width="56" height="56"><path fill="#F0F3FA" d="M0 0h56v56H0z"/><path d="M5.73 25a1.66 1.66 0 011.73 1.28l-.49.1c-.06-.3-.38-.9-1.23-.88-.45 0-.72.15-.88.31a.75.75 0 00-.23.51c0 .08.03.22.2.37.18.16.52.35 1.15.48.7.14 1.12.43 1.33.79.22.35.21.72.15.97-.09.39-.56 1.01-1.62 1.06-.57.03-1-.2-1.3-.5-.29-.29-.47-.64-.54-.89l.48-.14c.06.18.2.45.42.68.22.21.52.37.91.35.85-.04 1.12-.51 1.16-.67a.8.8 0 00-.09-.6c-.12-.2-.4-.44-1-.56a2.92 2.92 0 01-1.39-.6 1 1 0 01-.36-.74c0-.27.1-.6.37-.86.26-.27.67-.45 1.23-.46zm28.07 0a1.75 1.75 0 011.82 1.36l-.98.2c-.04-.17-.23-.57-.82-.56-.35 0-.52.11-.6.2-.1.09-.12.2-.12.26 0 .08.02.13.1.19.1.08.34.2.86.28.69.1 1.15.4 1.4.82.23.4.22.82.15 1.1-.1.43-.6 1.15-1.72 1.15A1.96 1.96 0 0132 28.57l.96-.3c.09.3.34.73.93.73.61 0 .74-.35.75-.4a.49.49 0 00-.04-.34c-.06-.1-.22-.27-.7-.34a2.81 2.81 0 01-1.34-.5 1.2 1.2 0 01-.46-.96c0-.32.13-.68.41-.97.3-.3.73-.48 1.29-.49zM8 25h3v.5H8.5V27h2v.5h-2v2H11v.5H8v-5zm5.81.5a2 2 0 101.8 2.89l.44.22a2.5 2.5 0 11-.05-2.3l-.43.23a2 2 0 00-1.76-1.04zm8.34-.5h.56l3.1 4.23V25h.5v5h-.58l-3.08-4.23V30h-.5v-5z" fill="#4D585A"/><path fill-rule="evenodd" d="M29 25h-2v5h2a2.5 2.5 0 000-5zm0 .5h-1.5v4H29a2 2 0 000-4z" fill="#4D585A"/><path fill="#4D585A" d="M36.3 25h1v5h-1zm7.7 0h1v5h-1zm5.77 0h1v5h-1zM47 25h1v5h-1zm-2 3v-1h2v1z"/><path d="M48.55 26v-1H52v1h-3.45zM42 29.5a2.5 2.5 0 11.66-3.26l-.98.33A1.5 1.5 0 1041.9 28h-1.27v-1H43v3h-1v-.5z" fill="#4D585A"/><path d="M21.17 29.21a2.7 2.7 0 01-4.79-1.71 2.7 2.7 0 015.17-1.09l-.04.1c-.24.58-.7 1.69-1.39 2.03-.12.05-.32.1-.5.12a1.25 1.25 0 10-1.78-1.02 2.15 2.15 0 003.33 1.57z" fill="#75BC20"/><path d="M21.73 27.77c-1.14 1.7-2.62 1.27-3.18.85.19.27.74.73 1.5.73.77 0 1.17-.46 1.33-.65.18-.24.35-.76.35-.93z" fill="#9DAAA8"/><path d="M21.03 26.4c-.1 1.57-1.12 2.18-1.75 2.3 2 .05 2.44-1.4 2.33-2.08a2.38 2.38 0 00-.76-1.15c.2.34.18.76.18.93z" fill="#4D585A"/></svg>