<!-- by TradingView --><svg width="56" height="56" xmlns="http://www.w3.org/2000/svg"><path fill="#03386B" d="M0 0h56v56H0z"/><path d="M42.03 18.36c.067.075.183.055.23.16-.163.222-.468.215-.719.284-.725.18-1.526.048-2.15-.285l-.027.021c.081.237.488.375.332.688-.17.264-.563.146-.793.104-.604-.188-1.132-.555-1.688-.84l-.027.028c.318.257.678.424.996.68.027.202-.197.223-.305.313-.488.048-.943-.146-1.356-.369-.095.125.17.16.075.32-.21.25-.495.285-.794.209-.156-.07-.353-.083-.434-.264-.054-.007-.095.007-.128.056 0 .264.427.215.332.472-.204.188-.44.452-.719.313-.128.07-.36-.02-.488-.028-.02-.063.054-.083.08-.132.19.05.034-.236.231-.208.007-.035-.02-.084.02-.104a.256.256 0 00.184.104c.047-.077-.068-.153-.102-.237l.075-.076c.014.034.054.028.075.028-.04-.132.06-.327.183-.369l.129.077c.081-.083-.109-.18.027-.264.088.027.122.16.23.16.048-.07-.053-.14-.08-.21.08-.082.115.105.203.077.048-.104-.067-.208-.101-.312.101.028.15.174.257.18.048-.125-.121-.23-.175-.34-.204.035-.327.23-.49.34-1.709 2.14-2.305 4.754-2.868 7.381-.136.118-.366-.021-.49.132a3.867 3.867 0 01-1.152-.5c-.034-.084.17-.14.028-.21-.103 0-.245.119-.312 0 .23 0 .678-.16.691.237.048-.007.102.02.129-.028-.034-.139-.237-.326 0-.416.23-.105.563-.035.793-.056.028-.035.075-.056.054-.104-.129-.083-.34-.063-.488-.028-.184.077-.421.042-.564.237-.217.02-.339-.146-.434-.313-.006-.202.102-.348.15-.529-.51-.041-1.065-.041-1.533.105l-.563-.604.278-.153a6.52 6.52 0 011.798 0c-.19.063-.502-.028-.672.077.312.007.583.083.875.132-.278.042-.638-.077-.95 0v.028l1.207.18a.321.321 0 00.204.132c.048-.132-.136-.284.075-.368 0-.035.007-.111-.048-.104-.135-.042-.163.195-.312.132-.17-.097-.291-.299-.203-.5l-.028-.029-.176.132c-.76-.07-1.52.007-2.232.132-.122-.132-.346-.285-.203-.472.705-.584 1.838-.66 2.692-.341-.447-.049-1.023-.139-1.465-.028v.028c.536.049 1.12-.014 1.594.188-.57-.007-1.215-.222-1.798-.028v.028a6.325 6.325 0 011.744.153v.027c-.55-.096-1.229-.048-1.798.056v.021c.584.028 1.18-.063 1.743.083l.413-.235c.156.403.624.25.97.284.021-.028.069-.035.055-.077-.271-.271-.72.215-.848-.208.02-.091.156-.125.101-.237-.074-.048-.149.07-.23.104-.17-.104-.441-.146-.481-.396-.041-.264.257-.361.407-.5l.285-.077c.075.091.17.163.278.209.075-.16-.122-.202-.13-.369l.232-.132c-.271-.173-.293.355-.59.132l-.048.056a5.881 5.881 0 00-1.64.153c.42 0 .915-.09 1.356-.048-.17.048-.448.007-.59.132.162.09.339-.084.488.048-.081.104-.271.007-.332.132.047.07.149-.02.183.083l-.081.077a5.09 5.09 0 00-2.177.236c.108-.598.787-.834 1.281-1 .373-.063.753-.09 1.153-.077-.115.034-.291.034-.407.104.19.097.468.035.665.055-.095-.125-.15-.333-.055-.472.292-.334.665-.445 1.051-.529.095.111.11.194.258.237.122-.18-.108-.223-.102-.396l-.053-.049c-.17.243-.523.056-.72.264-.156.055-.23-.09-.23-.215.06-.64.787-.758 1.261-.945l.102.16c-.142.09-.36.027-.46.16.27 0 .555.027.82 0-.014-.154-.455-.216-.184-.445.007-.042-.006-.09-.047-.083-.095-.035-.122.07-.183.104-.387.076-.767.153-1.1.34-.046-.16-.087-.43-.331-.285l-.8.369c.346-.445.807-.924 1.309-1.028-.224.042-.081.209-.278.292.319.16.468-.264.74-.313.264-.125.535-.222.82-.292.047.042.02.104.027.16-.102.042-.251.042-.312.153.224-.015.529.048.746-.049.014-.216-.285 0-.278-.209 0-.11.176-.173.074-.291-.108-.035-.156.104-.23.16-.305 0-.57.09-.848.152-.007-.486.57-.778.95-.945.387-.125.8-.174 1.207-.257v-.028h-.773c1.466-1.244 3.643-.952 5.434-.66 1.07.214 2.033.694 3.022 1.104z" fill="#fff"/><path d="M25.087 19.596c1.675 2.53 3.371 6.005 6.483 6.984l.231.286c-.312.096-.8-.014-.895.395-.027.035-.068.056-.047.104l.047.056c-.122.097-.305.042-.434 0-.109-.223-.162.063-.284.049-.204.042-.346-.07-.482-.18-.074-.09-.129-.189-.101-.32.101-.084.284-.056.433-.104v-.05c-.176-.062-.433.029-.515-.187h-.048c.108.223-.197.243-.34.264-.135-.014-.29-.056-.352-.21a.549.549 0 01.122-.29c.15.062.325.027.413-.133v-.02c-.162-.112-.379.208-.46-.056.053-.111.216-.097.23-.209-.115-.027-.265.028-.36.132-.04.132.09.272-.101.285-.244.035-.461.063-.692-.028-.305-.139-.055-.389 0-.577.129-.104.264-.355.434-.18.149 0 .223-.168.305-.265-.19-.131-.183.292-.38.132l-.183-.18-.075.152c-.331-.028-.76.112-.95-.236-.046-.145.082-.215.13-.312.075-.007.17.02.23-.028-.053-.104-.298-.09-.257-.285-.033-.014-.047.028-.074.048-.015.07.033.153-.055.188-.338.014-.773.014-.942-.348-.007-.166-.014-.34.128-.444.115-.034.319.201.38 0-.13-.083-.373-.125-.36-.34-.108.076-.074.29-.278.264-.326-.007-.672-.05-.82-.369-.081-.18.067-.32.129-.472.087-.063.278.125.305-.056-.034-.063-.095-.048-.156-.048-.102-.063-.014-.216-.15-.237 0 .25-.278.153-.414.237-.331-.021-.711-.05-.867-.397-.028-.223.088-.389.258-.52.122-.007.305.131.38-.028a.438.438 0 01-.407-.237c0-.028.006-.07-.028-.083-.101.014-.013.16-.074.216a.99.99 0 01-.902-.16.716.716 0 01-.122-.633c.034-.083.115-.222.23-.131.09.006.156.138.252.055-.082-.131-.353-.145-.332-.368-.143-.035-.034.139-.102.188-.346.097-.678-.077-.997-.056-.014.077-.068.209-.156.18-.055-.124.237-.354-.055-.417-.101-.09-.122-.243-.075-.369.075-.18.177.014.258.028.13 0 .272.118.387 0-.197-.096-.516-.104-.617-.368.013.327-.394.146-.564.16a.533.533 0 01-.285-.237c-.054-.118-.013-.258.081-.348.102-.138.285.05.434-.048.15-.083.326-.138.434-.263-.291-.104-.53.417-.82.076l-.129.111c-.4.091-.84-.014-1.072-.32-.007-.145-.014-.284.123-.368.101 0 .21.118.285 0-.088-.083-.292-.132-.285-.313-.034-.014-.048.035-.075.056.007.042-.02.104.027.125l-.054.055c-.617.112-1.302.007-1.743-.444-.054.07-.007.153.054.208.014.042-.034.056-.054.076-1.01.327-2.007.696-2.944 1.21.136-.007.15.112.278.105.068-.09.176-.265.312-.153.136-.056.15-.23.305-.237.041.063-.075.105 0 .153.081-.083.122-.243.258-.264l.027.236c.156-.104.08-.354.305-.389l.054.153c.122-.069.047-.277.23-.284l.048.18c.061-.055.08-.131.156-.18l.128.076c.068-.055.062-.153.15-.209.135.077.183.014.258-.104.095-.007.02.104.074.132l.156-.209.075.104c.081-.104.136-.299.312-.188a.124.124 0 01.072.009.13.13 0 01.057.047c.006.035-.047.055-.028.104l.028.028a.336.336 0 01.101-.132c.062-.028.081.048.129.077-.014.042-.034.077-.027.132l.027.028c.047-.035.074-.125.15-.105.155.278-.265.202-.38.369-.645.3-1.303.563-1.974.786-.149.048-.033.208-.101.291-.59.535-1.255.91-1.872 1.362-.692.445-1.383.89-2.076 1.342v.048c.11.035.407.077.333-.132.278.139.204-.292.488-.153.007-.097.075-.174.176-.16.034-.007.08.021.102-.028-.02-.028-.061-.034-.047-.076.25-.042.4-.333.692-.291-.122-.278.488.027.23-.285.095-.132.394.049.278-.16.075-.062.224.028.258-.077l-.055-.055.312-.048-.053-.105c.115-.055.203.014.312-.083l-.109-.077c.143-.077.427.042.57-.104h.075c-.502.327-1.025.59-1.485 1.022.04.07 0 .174.047.237a.495.495 0 01.285-.369c.11.091-.101.195-.027.292.217-.118.075-.535.414-.528l.047.187c.095-.131.081-.354.285-.396l.02.237c.129-.125.081-.41.312-.473l.075.077c.095-.077.007-.286.183-.286l.048.237c.108-.063.041-.383.204-.237.007.042-.014.104.027.132l.129-.188c.094.16.339-.124.36.16.074-.007.128-.18.203-.104-1.194 1.084-2.557 1.897-3.819 2.884-2.15 1.202-4.15 2.8-6.558 3.364-.218-.021-.564.07-.693-.18.095-.8.95-.905 1.458-1.265.17-.056.387.124.46-.05-.074-.027-.141-.062-.23-.054.095-.167.291.02.434-.077.034-.091-.068-.063-.102-.104.136-.146.36.063.516-.084l-.285-.104.441-.048c-.095-.091-.223-.048-.312-.132.204-.083.394.056.59-.028-.033-.111-.176-.056-.257-.104.135-.02.433.048.569-.056l-.129-.048.38-.028c-.006-.09-.109-.055-.149-.104.055-.139.454.077.333-.209.101-.02.257.042.305-.055l-.047-.049c.068-.111.217-.014.305-.083l-.075-.076c.237.055.231-.32.509-.188-.11-.258.23-.118.36-.153l.027-.028-.081-.076.257-.083-.047-.104c.109 0 .224.014.306-.049-.028-.02-.041-.069-.075-.056.054-.11.25.007.332-.104l-.102-.076c.102-.07.265.02.36-.083-.047-.14-.122.048-.183-.049.095-.11.291.007.387-.104l-.129-.055c.089-.104.258-.014.36-.077l-.183-.16c-1.194.64-2.32 1.473-3.561 1.994-.054-.132.115-.25.027-.389-.766 1.07-2 1.557-3.154 1.967-.565.116-1.242.477-1.792.075.007-.264.245-.424.434-.578 2.774-2.057 5.765-3.704 8.716-5.378.46-.216.895-.502 1.356-.71.089-.277.387-.395.59-.555 1.045-.473 2.069-.966 3.154-1.341.339-.633 1.126-.598 1.716-.835 2.056-.472 4.029.557 5.12 2.363zm26.092 4.198c.319.256.624.549.821.896-.095.258-.38.264-.617.285-1.038-.014-1.831-.626-2.686-1.077l-5.08-3.309c-.692-.41-1.37-.855-2.075-1.23-.075-.077-.081-.18-.075-.291.04-.007.075.063.102 0v-.028c.101.049.075.188.156.264l.027-.291c.02.11.055.236.15.291v-.264c.095.063.02.208.128.236l.055-.048c.053.112.08.243.175.34.096-.117-.06-.2-.047-.319l.177.236c.061-.118-.055-.236-.055-.361l-.278-.215c.103.02.32.076.462.055l-.075.104c.176.104.365.021.562.028-.04-.09-.23-.028-.23-.16l-.21-.104c.013-.014.034-.028.027-.055l-.129-.077c3.005 1.445 5.976 2.995 8.715 5.094zm-10.92-4.698l.34.027c-.054.063-.21-.041-.183.105.182.021.366.07.562.048-.034.056-.156.021-.176.105.17.042.34.104.536.083l-.204.048.489.104c-.054.007-.115-.014-.156.028.129.077.292.077.434.105-.06.069-.258-.021-.306.083l.564.104-.305.049c.197.132.474.069.692.16l-.461.027a.89.89 0 00.38.132c.114-.02.21.028.311.05-.095.006-.21-.022-.285.027.224.097.482.125.719.181-.237-.014-.495-.07-.719-.048l.103.076.95.188c-.211.007-.428-.125-.618-.028.204.132.475.063.692.16l-.176.049c.149.096.38.124.563.186-.136 0-.319-.096-.407 0l.942.237c-.162 0-.46-.118-.664 0 .27.132.623.083.895.209-.183-.007-.373-.097-.562-.028v.056c.312.111.671.097.977.209-.252-.063-.53-.111-.794-.056.522.264 1.227.09 1.662.577-.23-.014-.475-.07-.692-.048.38.174.848.139 1.207.368-.183.028-.42-.139-.644-.083.305.195.699.153 1.004.34-.305-.028-.617-.146-.923-.104.401.202.916.236 1.357.396-.325.042-.583-.18-.895-.104l.075.077c.441.083.902.139 1.31.32-.278.013-.597-.153-.875-.056.353.139.753.153 1.105.291-.346-.007-.65-.201-.997-.132.53.195 1.126.237 1.635.473.44.383.93.827 1.234 1.314.028.18-.027.375-.203.417-.916.028-1.648-.556-2.436-.918-1.912-1.258-3.743-2.71-5.588-4.121-.23.027-.44-.063-.644-.028.183.152.46.139.692.208-.143.076-.34-.16-.51 0l.693.209h-.414c.244.139.544.153.794.264h-.353c.177.16.468.118.692.236l-.414.028c.224.118.509.083.72.236-.143.083-.38-.063-.49.028l.055.048c.25.063.522.091.766.188a1.4 1.4 0 00-.59 0l.821.237c-.163-.035-.407-.063-.536.02l.82.216c-.142-.035-.325-.048-.46 0l.074.077c.292.035.563.14.848.209-.23 0-.502-.118-.692 0 .353.146.766.132 1.099.32l-.333.02c.305.153.74.104.923.452-.244-.007-.468-.139-.719-.056l.054.056c.305.049.61.104.922.153-.217.063-.427-.007-.664.056.305.042.597.125.922.132l.075.077c-.17-.035-.413-.056-.536.027l.923.21a1.915 1.915 0 00-.692 0c.237.11.523.096.767.208-.163-.021-.4-.063-.516.028.767.174 1.744.292 2.001 1.21.02.11-.108.18-.176.236-.332.153-.624-.09-.922-.16-2.415-1.153-4.62-3.12-6.565-5.142-.305-.21-.502-.507-.74-.765.021-.097-.047-.25.048-.284l.128.257c.035-.028.035-.077.081-.105.102.063.102.264.231.21.204.152.19.403.332.583l.02-.215c.339.18.285.59.516.813.108-.132-.095-.243-.027-.362.265.118.251.424.434.578l.027-.188c.264.118.237.41.434.577.088-.077-.048-.167 0-.237.19.118.298.313.36.5l.101-.103c.278.139.292.459.489.632.06-.063 0-.132-.028-.188.21.07.346.292.441.473l.075-.077c.305.16.312.487.516.71.04-.084-.088-.195-.028-.292.346.146.36.528.59.764.089-.118-.088-.222-.054-.313.332.077.299.453.562.626.082-.07-.026-.132-.02-.21.224.07.354.32.482.501.17-.208.326.195.516.21.163.11.224.36.434.263.129.132.312.236.461.236l-2.123-1.55-3.181-2.703c-.523-.55-1.188-1-1.689-1.55.251-.014.4.104.59.21.041-.008.102.02.123-.029-.075-.285-.57-.257-.408-.577.027.021.041.07.075.056.02-.105.095-.237-.02-.32.111.05.342-.018.349.183z" fill="#fff"/><path d="M19.735 19.228c-.861.404-1.736.75-2.563 1.23v.028c.155.021.291-.132.46-.16v.16l.434-.34c0 .09-.21.242-.203.368.278-.084.27-.452.536-.529.075.119-.258.216-.15.37.211-.106.266-.37.435-.473.006.034-.02.083.027.104.115-.104.183-.347.353-.285-.027.077-.143.153-.102.236l.312-.34.046.048c.09-.083.272-.34.387-.132.055-.056.062-.16.156-.18.069.048-.02.103-.027.152l.027.028.204-.209.027.264c.041-.035.075-.097.13-.104l.047.153.156-.104c0 .083.088.146.149.083l.027.021a13.118 13.118 0 01-3.405 1.341c-.326.02-.678.008-.82-.284.183-.598.84-.702 1.281-1.001.502-.097.984-.66 1.533-.264.034-.007.088.021.101-.028-.04-.25-.305-.063-.481-.153.197-.118.515.118.718 0-.122-.112-.319-.056-.468-.105l.028-.055c.218.041.462.014.645.16zm18.89.285c-.081.139-.19-.042-.285.056l.516.18-.21.029c.129.187.461.042.489.312.068.014.128.021.183.056-.068.097-.19-.083-.258.056.136.048.27.104.407.153l-.15.055c.095.097.272.125.407.18l-.285.028c.142.146.394.14.57.265-.008.041-.143.007-.102.104.101.083.25.041.353.131-.122.007-.319-.09-.461-.055.203.16.488.187.718.32l-.175.02c.101.097.27.139.406.215l-.36.021c.204.139.496.153.72.292l-.205.048c.15.118.34.104.489.215l-.312.049c.237.104.468.229.72.291h-.333c.163.14.407.153.59.285.047.048-.156-.097-.204.028.176.076.36.16.536.236-.115.042-.305-.076-.461 0 .23.195.563.153.794.34-.081.043-.238-.076-.36 0 .217.14.522.18.746.34-.21-.11-.495-.11-.72-.104.19.14.489.111.72.216.63.125 1.099.834 1.281 1.418-.06.104-.122.257-.258.285-.84-.112-1.465-.75-2.15-1.23a33.156 33.156 0 01-4.001-4.101.7.7 0 01.075-.396c.053.146 0 .348.08.473.062-.125-.027-.313.076-.417.034.167.034.348.101.5.074-.09-.04-.305.102-.319.094.195.027.466.183.604l.027-.34c.115.188.075.46.231.605.047-.105-.027-.25 0-.34l.15.444.053-.236c.17.229.21.515.332.764.088-.145-.068-.25-.054-.395.15.194.217.465.36.68.074-.117-.075-.236-.02-.34.203.264.277.59.46.87.041-.154-.04-.306-.109-.445.217.16.204.493.414.653.033-.104-.062-.223-.075-.34.23.187.305.5.481.737.081-.132-.102-.223-.075-.37.326.133.353.515.59.71l.028-.132c.291.188.407.508.61.765.075-.098-.055-.167-.048-.264.285.16.387.528.638.736.094-.09-.068-.125-.047-.215.23.139.59.494.922.66l.027-.028c-1.885-1.577-3.832-3.37-5.412-5.302.172-.056.389-.18.545-.056z" fill="#fff"/><path d="M37.113 19.645c.047.132.217.07.305.16l-.231.028c.095.069.223.069.332.104l-.13.048c.095.07.232.098.313.16l-.129.028c.047.112.4.091.25.265l.211.104c-.027.028-.075.056-.054.104l.156.077c-.088.16.156.139.203.208-.047-.041-.121-.02-.175-.02l-.028.02c.081.118.265.112.38.188l-.177.028c.081.112.272.126.36.209l-.129.049c.115.118.332.083.387.235l.102.084-.204.02.353.188c-.068.042-.224-.076-.332 0 .163.097.332.167.516.209l-.204.028c.122.153.36.126.51.237l-.279.027.434.21c-.108-.008-.223-.098-.332-.029.163.14.422.153.618.292-.089-.028-.21-.063-.286-.028.096.112.286.097.407.209-.027.007-.08-.02-.102.028.068.097.21.125.312.18l-.101.056c.108.111.298.111.434.21-.028-.008-.041.013-.055.027.312.18.638.348.848.71.055.104.109.242.048.368-.475.292-.902-.188-1.302-.396-1.31-.987-2.334-2.328-3.257-3.592.007-.188-.08-.334-.053-.529.108.097.094.292.21.418l.047-.105c.23.174.204.528.413.71l.021-.133c.251.167.23.57.488.605.176.201.278.452.414.632l.02-.104c.231.16.271.459.461.632l.055-.055c.19.396.59.445.794.814.109.007.19.166.305.104-1.29-1.272-2.612-2.676-3.46-4.198l.441.132-.128.044z" fill="#fff"/><path d="M36.393 20.04l-.054.049.21.132c-.054.007-.115-.021-.156.028.041.104.176.076.258.16l-.183.047c.068.091.21.091.312.16l-.156.056a.82.82 0 00.333.18h-.231c.115.077.278.16.407.237l-.122.028c.088.125.278.118.38.264l-.204.02c.068.112.237.105.332.215l-.23.021c.094.16.311.118.433.264-.108.042-.183-.076-.278 0 .136.14.366.16.536.264l-.177.049c.115.104.299.146.434.264-.095-.02-.237-.076-.305 0l.461.236c-.034.007-.088-.02-.108.028.115.14.326.153.461.292-.075.042-.305-.139-.332 0 .291.243 1.05.209.848.785-.156.21-.414.056-.59 0-1.316-.68-2.354-2.057-3.025-3.335l.128-.417c.069.028-.027.167.075.209.028-.021.041-.07.081-.056l.075.528c.11-.028-.007-.208.102-.236.034.16.034.327.101.473.068-.07-.02-.195.081-.237.15.16.115.396.231.578l.047-.132c.21.11.11.423.285.549l.074-.237c-.38-.472-.638-1.007-.996-1.494.082-.242.306.015.462.029zm-15.586-.027a5.1 5.1 0 01-.814.444c-.271.216-.65.258-.847.529.243-.042.515-.077.664-.313l.102-.028v.209c.23-.077.156-.473.461-.473l.081.076c.068-.11.142-.256.305-.236l.027.132c.163-.042.062-.326.252-.236-.014.069-.122.132-.048.208.095-.055.095-.173.204-.208l.054.16c.027-.035.075-.035.101-.077.055.34-.434.388-.644.598-.794.32-1.58.813-2.509.632-.224-.09-.129-.333-.075-.5.536-.272 1.092-.5 1.661-.71.095.029.21-.027.21-.131.273-.02.564.07.815-.076zm.95.709c.087.118-.102.215 0 .34l.155-.264c.136.396-.305.473-.515.688-.733.369-1.546.952-2.435.55a.222.222 0 01-.118-.172.231.231 0 01.07-.197c.36-.202.794-.209 1.153-.417.183-.09.509.063.59-.104-.04-.049-.101-.02-.156-.028v-.028l.36-.028-.102-.104c.122-.05.386.11.36-.132.216.09.34-.216.563-.18.034 0-.027.167.075.076zm.081.897c.19-.014.353-.264.537-.397 0 .063-.19.167-.204.285.21.014.366-.27.563-.361l-.461.493.027.028.638-.521c-.081.111-.278.215-.258.34l.285-.188c.075.216-.251.369-.413.473-.679.382-1.425.722-2.252.576-.102-.117.068-.152.128-.208.631-.237 1.235-.557 1.764-1.05.08.251-.273.307-.354.53zm-4.076-.16c-.97.862-2.144 1.335-3.127 2.203l.15.028c0 .104-.11.194-.048.291.176-.16.095-.479.387-.555.054.104-.11.215-.055.32.245-.118.13-.487.434-.556l.027.16c.122-.139.163-.362.36-.425l.074.084c.062-.084.081-.229.21-.236-.02.083-.114.173-.054.263.15-.152.17-.382.333-.5l-.027.236c.142-.132.128-.355.312-.445.027.07-.062.188-.028.258.197-.146.15-.48.434-.521.02.152-.197.291-.175.444.277-.18.203-.632.562-.736.068.055-.02.104-.027.16l.027.027c.21-.069.068-.354.278-.423l.055.188c.087-.07.027-.216.156-.236l.02.236.156-.16c.007.167.23 0 .204.18-1.072 1.002-2.286 1.759-3.432 2.628-1.702 1.09-3.358 2.328-5.256 2.947-.224.069-.461.097-.665-.028-.055-.209.075-.417.156-.605.468-.32.95-.611 1.512-.708.048-.035.055-.083.02-.132.366.07.407-.334.774-.264.013-.014.033-.028.027-.048-.04-.049-.109-.02-.156-.028.115-.083.326-.048.461-.132l-.156-.056c.095-.083.319-.042.414-.132-.054-.027-.115-.034-.183-.048.102-.083.36.048.332-.187.109-.056.353.034.332-.181.278.063.115-.243.386-.181-.006-.299.387-.063.415-.348.237.063.183-.257.434-.18-.055-.25.331-.076.23-.313.082-.048.217.014.278-.083l-.075-.077c.217.056.217-.243.434-.18.007-.175.278-.07.21-.237.062-.055.163-.007.231-.055-.101-.264.292-.021.278-.264.075-.056.19.007.258-.05l-.075-.082c.067-.042.196-.014.23-.104l-.054-.048.305-.112-.048-.076c.102-.035.245-.035.306-.105-.035-.048-.075-.055-.13-.055.177-.097.448 0 .564-.18.177.04.252-.14.386-.181-.006-.035.02-.091-.027-.112h-.02c.053-.07.25.048.278-.104-.034-.063-.095-.049-.156-.049.212.053.347-.066.544-.135zm5.073.605c.102.027.19-.132.305-.16l-.25.34.02.028c.121-.097.236-.188.359-.292-.027.14-.204.21-.23.348.128.021.217-.216.36-.236 0 .02-.008.062.026.076l.13-.056c.006.105-.116.181-.082.265l.36-.285.027.02c-.007.097-.197.132-.101.237.061-.007.088-.097.156-.104-.062.418-.61.438-.923.632-.515.14-1.261.48-1.722-.027 0-.37.379-.424.617-.55.163.055.305-.083.434-.188l.027.083.332-.263c.062-.007-.109.138-.047.208l.38-.368c-.029.104-.124.194-.178.292zm-4.001.103c-.014.083-.11.174-.047.264l.175-.236c.062.111-.115.257 0 .368-1.003.855-2.048 1.723-3.126 2.468l-.15.027c-.996.737-1.973 1.516-3.18 1.73a.246.246 0 01-.14-.043.256.256 0 01-.09-.116c.1-.653.847-.862 1.336-1.126.128.007.291.007.36-.104l-.211-.028c.122-.09.312-.028.413-.16l-.102-.049c.142-.11.367-.096.482-.214-.014-.042-.068-.015-.102-.021.115-.181.42-.077.543-.237-.04-.048-.102-.021-.156-.028.122-.167.38-.104.535-.236-.033-.049-.1-.02-.149-.028.062-.056.15-.077.231-.105.177-.25.448-.486.767-.5l-.075-.077c.135-.07.387-.077.379-.236l.285-.132-.055-.105c.15-.077.352-.07.461-.188l-.149-.02c.096-.09.292-.029.305-.216l.36-.153-.027-.104c.291.007.305-.333.59-.32.047-.027.068-.103.128-.076l.028.028c-.794.73-1.668 1.265-2.49 1.939l.13.028c-.021.153-.17.277-.13.423.204-.229.211-.57.49-.709.074.14-.157.243-.075.389.23-.188.149-.563.461-.681l.074.104c.075-.132.143-.32.305-.369.047.118-.142.237-.075.369.184-.215.184-.556.462-.68.067.152-.13.284-.048.444.237-.188.061-.605.407-.71-.027.125-.128.244-.075.37.143-.175.156-.445.36-.55.007.104-.108.188-.027.285.142-.167.128-.397.305-.55.075.09-.095.18 0 .285.245-.052.035-.524.307-.414zm1.308.786l.204-.285.027.18.129-.236c.061.07-.122.188-.027.292.094-.07.121-.216.183-.32.013.097.17.153.203.028l-.053.264c-1.499 1.133-3.012 2.224-4.741 2.808-.21-.007-.441.035-.59-.132.25-.382.692-.514 1.03-.785.224.069.21-.272.434-.181-.054-.292.353-.077.333-.348.054-.028.115-.035.176-.049-.088-.208.204-.194.312-.263.102.007.014-.112.047-.132.136-.042.312-.007.413-.132-.067-.125-.142.02-.23-.021.088-.139.346-.048.433-.188-.047-.049-.122-.02-.176-.028.122-.07.292-.07.38-.153-.027-.048-.08-.02-.129-.028l.285-.131-.075-.077c.475-.014.868-.243 1.255-.5-1.139.867-2.36 1.66-3.54 2.494.17.034.305-.167.488-.16.102-.104.197-.209.333-.237.04.063-.075.083 0 .132.142-.097.21-.299.36-.396l.074.083c.068-.195.224-.327.387-.424.075.126-.13.237-.048.369.19-.188.123-.522.407-.633l.027.188c.082-.153.15-.362.333-.424.033.14-.183.271-.102.424.23-.209.149-.66.536-.71.033.16-.156.313-.129.473.244-.208.197-.59.488-.736.028.146-.128.313-.075.473.122-.188.21-.397.278-.605.13.118.17-.09.21-.16.007.14-.129.355-.08.529.19-.188.203-.5.332-.737.15.175-.17.308-.102.474zm3.69-.236c-.095.083-.197.132-.278.236.129.056.21-.139.333-.18-.088.146-.32.229-.36.395.156-.02.319-.166.488-.242l-.23.242c.108 0 .244-.097.36-.16l-.312.285c.136.007.278-.132.413-.208l-.332.34c.183.042.312-.223.481-.285l-.047.152c.075.049.156-.069.23-.104-.026.084-.155.146-.074.237l.23-.209.021.028c-.027.042-.094.077-.102.132l.027.028.258-.215c.02.028-.285.285-.027.215l.1-.11c.076.124-.114.16-.175.235-.177-.076-.156.14-.285.16-.617.202-1.513.653-2.076.028.068-.48.597-.758.977-.918.014.035-.034.049-.055.077.15.028.293-.104.435-.16zm-2.51.368c-.515.437-1.098.813-1.668 1.181.109.077.346-.263.312.028-.006.028.014.042.028.056.115-.11.197-.48.407-.369-.02.076-.08.167-.054.236.19-.173.128-.562.46-.555.048.132-.121.202-.02.32.122-.195.122-.431.333-.578l.149.05c.04-.057.027-.14.109-.182.033.09-.082.209 0 .313l.176-.264.028.209.149-.209.027.188.204-.188c.054.028 0 .112.08.105l.076-.077c.04.02.04.083 0 .104-.529.466-1.167.73-1.689 1.154-.8.438-1.553 1.084-2.516 1.05-.129-.063-.252-.153-.278-.313.319-.417.854-.521 1.255-.869.136-.042.305-.063.407-.125-.014-.049-.067-.02-.101-.028.121-.132.339-.153.515-.209.007-.062-.061-.055-.101-.055h-.075c.082-.14.42-.042.38-.236.08-.035.196-.035.23-.104l-.047-.056c.095-.028.224-.028.278-.104-.014-.035-.047-.028-.075-.028.075-.07.183-.07.278-.104l-.101-.077.488-.077c0-.028.007-.07-.027-.083.072-.118.255-.222.384-.104z" fill="#fff"/><path d="M22.401 23.69c.048.354-.427.452-.645.66l-.82.493c.217.028.413-.152.617-.236l.054.055.23-.236c.028.028.055.07.102.048.04-.069.02-.188.129-.209l.047.237.183-.34c.067.16-.123.305-.082.444.115-.139.204-.355.312-.521.014.18-.176.298-.108.472l.23-.368c.015-.007-.033.166.082.131.033-.034.033-.082.074-.104.067.02.034.111.101.104l.082-.082.047.082.156-.104v.104c-1.078.724-2.238 1.23-3.459 1.599-.224.007-.556.069-.672-.209l.028-.16c.732-.43 1.438-.93 2.204-1.257l.312-.028c.034-.14-.156-.042-.156-.077.271-.034.394-.313.692-.209l-.203-.083.277-.077-.072-.074c.081-.021.156-.076.258-.055zm2.333.188l.02-.028c.028.027.075.055.054.104-.128.111-.285.215-.386.34l.027.028.461-.292-.176.188c.142.042.237-.209.407-.188.068.05-.02.084-.027.132.068.09.088-.063.156-.048.075.104-.21.153-.075.285l.252-.237c.04.014-.075.104 0 .16.101-.125.223-.09.332-.16.034.104.176.021.183.028-.067.424-.563.459-.874.633-.42.125-.889.298-1.357.152-.285-.125-.271-.416-.13-.625.272-.383.72-.327 1.052-.556 0-.014-.007.118.081.084zm1.153.784c-.163.153-.38.202-.515.369.19-.008.46-.174.563-.292l-.536.444c.244.014.455-.215.665-.361-.115.216-.374.299-.461.521.223-.055.379-.278.59-.444l.027.131.129-.104c0 .105-.163.16-.102.257l.25-.235.055.11.129-.083c.027.028.027.112.101.083l.028-.027c-.062.284-.448.374-.672.549-.543.167-1.174.486-1.743.209-.095-.132-.143-.348-.048-.494.129-.23.387-.146.563-.237l-.128.125h.101c.319-.2.679-.312 1.004-.521zm-2.516.237l-.176.16c-.428.18-.835.388-1.235.625.183-.056.502.028.617-.209.19 0 .38-.216.516-.132.075-.083.108-.215.231-.236.06.131.163-.02.204-.049l.075.153c.108-.215.135.083.284 0 .035.132-.047.278-.128.396-.889.41-1.77.938-2.87.758-.203-.07-.44-.237-.488-.473.407-.236.882-.34 1.31-.549l.508-.236c.224.006.44.096.671.027-.061-.124-.265-.09-.414-.104.204-.007.414-.097.617-.027l.047-.055a.602.602 0 00-.36-.077c.164-.034.449-.174.591.028zm3.181.68c-.054.008-.08.078-.129.105a.349.349 0 00.259-.077c-.048.104-.279.167-.36.313.136-.028.291-.146.434-.237-.034.111-.258.216-.23.34l.515-.34c-.128.188-.305.306-.414.473l.027.027.692-.604c.09.139-.25.237-.176.397.142-.084.244-.286.407-.341-.054.063-.101.167-.075.236l.231-.236c-.034.153-.251.257-.21.417l.156-.104c-.556.48-1.268.778-2.048.68-.081-.069-.197-.096-.231-.208-.088-.16.04-.285.128-.396.332-.173.685-.291 1.024-.444zm11.557.189c-.074.486-.603.535-.922.757-1.798.8-3.65 1.445-5.718 1.578-.285-.028-.712.083-.896-.209.02-.152.204-.236.332-.291.991-.056 1.96-.167 2.87-.418v-.028c-.835.056-1.75.32-2.612.181l-.074-.077c.061-.11.204-.139.305-.209 1.187-.048 2.34-.18 3.411-.5v-.028c-.882.16-1.865.355-2.821.237-.075-.028-.177-.063-.204-.153.129-.264.461-.056.638-.084 1.817-.048 3.452-.576 5.175-.868.178.022.401-.062.516.112z" fill="#fff"/><path d="M39.262 25.817c.428.444.062 1.063.028 1.577-.095.16-.156-.077-.258-.056-.23-.056-.44.09-.637.188-2.177 1.835-4.321 3.746-6.742 4.963-.427.117-.787.41-1.282.368a.415.415 0 01-.075-.424l.15-.153a18.063 18.063 0 004.408-2.182c1.078-.848 2.177-1.688 3.228-2.543-.129-.035-.237.125-.36.18-2.292 1.772-4.626 3.579-7.325 4.385-.183.007-.36.097-.542.028 0-.125-.02-.229.102-.34.142-.125.353-.09.515-.16 2.428-.535 4.497-1.96 6.512-3.516 0-.028.007-.07-.027-.083-1.696 1.168-3.33 2.473-5.256 3.072-.564.187-1.14.403-1.744.395-.128-.063-.128-.416-.332-.235 0 .027-.007.069.027.076l-.156.083.055.132c-.048.042-.15.014-.156.104.095.14.223-.048.332.05-.007.103-.21.145-.102.263l.027.028c-.135.125-.284-.014-.434 0-.06-.202-.291-.404-.128-.633.278-.361.732-.263 1.05-.5 1.852-.014 3.379-.855 4.898-1.702.563-.418 1.187-.737 1.688-1.265h-.101c-1.906 1.424-3.913 2.578-6.28 2.863-.177-.063-.455-.028-.509-.285.271-.452.895-.264 1.33-.423 1.62-.375 3.12-1.043 4.584-1.787.34-.236.705-.472 1.031-.709h-.156c-1.492 1.03-3.154 1.64-4.843 2.182-.583.077-1.336.431-1.845 0 .129-.688.936-.32 1.383-.424 1.846-.104 3.406-.917 4.972-1.73v-.048c-.197-.028-.36.146-.542.236-1.656.8-3.392 1.48-5.406 1.334-.115-.041-.081-.187-.048-.263.407-.348.82.007 1.33-.104 1.763-.195 3.35-.82 4.87-1.627-.299.035-.61.21-.896.369-1.6.542-3.194 1.216-5.053 1.05l-.128-.132.128-.132c2.327.028 4.436-.632 6.437-1.494.142.041.352.152.488 0 .075-.487.753-.41.767-.945.291-.13.745-.338 1.023-.031zm-14.99.027c-.467.326-1.037.528-1.539.813.237-.014.489-.223.74-.181a.234.234 0 00-.075.209c.142-.104.23-.32.386-.396v.16l.278-.32.055.132.175-.18c-.006.075-.094.16-.02.235l.15-.236c.055.056-.048.153 0 .209.101-.049.101-.202.204-.209.006.042-.041.056-.02.104l.02.028c.061-.056.115-.132.183-.16.068.077-.067.118-.027.21.101.047.183-.147.284-.182.02.118-.102.278-.23.313-.902.334-1.716.952-2.747.896a.735.735 0 01-.482-.396c-.06-.131-.027-.312.122-.368l.59-.104c.156.09.387.139.543.076-.068-.111-.224-.111-.36-.104v-.028c.224-.104.462.194.638-.02-.047-.106-.183-.015-.25-.084.121-.097.406.153.535-.02-.075-.105-.224-.035-.332-.056l.305-.209c.163.02.333.076.489.028l-.055-.083c.081-.007.17.021.231-.028l-.129-.104c.115.013.251-.028.339.055zm3.175.5c-.101.028-.183.125-.278.18.115.084.204-.048.305-.076l-.23.264c.075.02.17-.063.257-.104-.055.056-.129.11-.156.18.129.035.237-.131.36-.18-.068.188-.271.243-.387.417h.128l.516-.445c-.034.139-.204.216-.257.34l.027.029.38-.32c-.048.097-.218.18-.15.292l.38-.341c.007.028-.013.035-.02.049a1.25 1.25 0 01.332-.021c-.224.722-1.031.688-1.641.813-.231-.02-.51-.049-.59-.32.116-.478.671-.611 1.024-.757zm-2.048.286v.055c-.59.306-1.241.5-1.818.786.116.062.245-.07.353-.028-.101.083-.122.188-.23.264.074.083.122-.035.183-.077l.387-.34c.074.124-.143.222-.081.34.175-.16.243-.403.433-.5-.006.131-.196.284-.176.424.244-.132.244-.487.536-.557v.188c.115-.063.115-.229.23-.291.048.076-.067.16-.101.235l.027.028.305-.34.028.18c.094-.055.094-.173.203-.208.014.104-.128.243-.074.368l.23-.264c-.033.146-.02.362-.203.396-.218-.125-.265.167-.434.237-.76.334-1.58.66-2.462.521-.224-.063-.129-.277-.081-.417.25-.494.806-.355 1.207-.529-.014-.014-.027-.027-.047-.02v-.029l.563-.055c-.054-.063-.15-.035-.21-.077l.488-.028-.027-.104c.082-.007.17.02.231-.028l-.048-.048c.048-.112.38.083.333-.132.085.015.194-.034.255.05z" fill="#fff"/><path d="M37.343 26.609c-.014.069-.095.097-.156.104.014-.077.088-.104.156-.104zm-8.384.889c.177.02.34-.223.489-.313-.037.059-.07.12-.102.181l.176.028c-.59.32-1.234.674-1.973.604-.137-.09-.305-.173-.279-.368l.075-.076.692-.132c-.054.042-.156.063-.176.132.339-.056.671-.285.97-.5-.194.18-.4.348-.617.5.305-.042.576-.32.848-.5l-.231.263.027.021.434-.34c-.006.18-.224.333-.333.5zm-2.61-.104l-.21.209c.094.083-.088.187-.102.291.007.042-.02.105.027.132.13-.146.157-.347.306-.472 0 .139-.184.313-.15.472l.231-.264c-.013.035-.034.077-.027.132l.027.021.278-.284c-.006.07-.094.139-.02.208l.23-.236v.187c-1.044.626-2.218 1.19-3.466 1.1-.122-.07-.264-.057-.353-.21a.45.45 0 01.23-.395c.57.014.991-.327 1.561-.313-.075-.243.319-.07.407-.209-.014-.048-.068-.02-.102-.028.089-.097.387-.007.36-.18.136-.02.312.042.413-.055l-.053-.056.285-.049-.13-.104c.081.033.183.026.258.103zm4.252.209c-.122.097-.061.423-.257.34-.055-.063-.109-.153-.048-.236.108-.111.162-.21.305-.104zm-1.668.527c.346-.063.672-.326 1.024-.451-.284.236-.603.382-.923.555v.028c.326-.028.617-.264.924-.396-.122.195-.353.237-.51.396.23.007.441-.188.665-.264-.237.271-.617.313-.923.473.156.18-.142.236-.075.445-.087.062-.21-.125-.21.055.11.042.232.042.34.076l-.258.077c.128.07.27.091.434.083-.102.056-.271.083-.387.181.02.049.075.021.102.028.02.104-.095.097-.15.132-.175.02-.365-.258-.46-.083l.047.056c-.109.02-.251-.05-.332.048.007.09.102.063.156.083l-.054.077c.027.048.088.02.129.028l-.177.18c.034.014.034.07 0 .083-.128.146-.278.063-.413 0-.062-.111-.231-.215-.129-.368.17-.236.394-.327.645-.369a.695.695 0 01.155-.444l.462-.292c-.122-.097-.3-.014-.441 0a.667.667 0 01-.59-.286c-.014-.069.06-.117.108-.131.38.014.672-.223 1.024-.292-.108.062-.278.076-.312.209.265-.07.564-.216.82-.37-.162.12-.488.293-.691.453z" fill="#fff"/><path d="M27.216 27.998c-.8.403-1.573.876-2.408 1.21-.013.02.027.062.048.048.204-.243.59-.014.773-.313.041.097.156.097.204 0 .109-.09.129-.201.285-.132.115-.306.46-.111.563-.396.033.07-.081.104 0 .16l.332-.34.046.076c.062-.042.103-.146.184-.132-.014.042-.034.083-.027.132.088.07.142-.118.23-.132-.44.536-1.098.737-1.688 1.029-.468.285-1.044.299-1.593.389-.11-.07-.278-.042-.333-.209-.047-.146.075-.264.183-.292.448 0 .821-.195 1.255-.236 0-.153.258-.07.305-.21.15-.027.387-.02.414-.18.265.034.353-.236.61-.209.008-.235.306-.097.387-.291.074 0 .17.007.23-.028v.056zm3.256.153c-.06.111-.38.077-.284.292-.041.028-.095.028-.122.076-.02.049.02.077.047.104l-.047.056c.129.028.067.146.02.237-.176.048-.407.138-.59.027a.268.268 0 01-.101-.34l.848-.528c.073.028.154.055.23.076z" fill="#fff"/><path d="M27.732 28.548c-.814.59-1.79.91-2.72 1.285.115.097.204-.097.305-.028.156.021.3-.263.414-.048.183-.271.516-.18.719-.396.183.146.298-.195.488-.209l.048.077c.204-.362.604-.243.82-.577l.075.132.183-.18c-.047.02-.02.083-.027.132.061.09.088-.07.156-.056-1.024.87-2.177 1.39-3.486 1.522-.21-.014-.475-.007-.564-.209-.04-.09.062-.125.102-.188.38-.006.725-.117 1.099-.152-.014-.202.318-.035.386-.236.13-.056.387.02.387-.188.122-.048.332.014.36-.153.074-.049.21-.007.23-.132.163-.09.489.097.537-.188-.041-.041-.102-.014-.157-.02v-.029c.122-.048.292.098.414-.027-.115-.167.136-.125.23-.132zm.868.104a1.725 1.725 0 00-.387.444.166.166 0 00-.149.083c.06.132-.17.132-.23.237-.122.076-.204.32-.36.236-.034-.083-.062-.223.027-.292.291-.243.624-.459.895-.71h.204v.002zm1.513.576c-.055.07-.197-.02-.204.105l.027.028c-.06.069-.216.077-.156.209-.094.076-.02.166-.101.263.027.056.109 0 .101.083-.175.083-.346.056-.535.021.054-.104-.11-.208-.055-.312a1.346 1.346 0 01.896-.578c.027.05.087.126.027.181zm-2.74.293c-.008.139-.204.27-.157.417-.101.139-.203-.028-.305-.049a.19.19 0 01-.081-.16c.183-.07.36-.292.542-.208z" fill="#fff"/><path d="M29.115 29.701l-.101.132.176.105c-.102.007-.217-.014-.306.028.068.076.19.111.306.132-.095.056-.237-.007-.306.104.028.07.095.056.15.056-.014.035-.122.077-.102.153.23.111.38-.174.563-.257.109-.042.197-.146.339-.104l.074.076c-.278-.153-.067.271-.36.209-.033.069.055.069.075.104-.054.062-.184.076-.176.187a.079.079 0 00.014.09.075.075 0 00.088.014h.074c0 .035-.007.112.054.105h.075a.486.486 0 01-.508.132l-.183-.237-.156.153.109.112c-.034.007-.027.048-.027.076.034.042.088.02.128.049-.304.028.028.264-.182.396l-.278.076c-.081-.11-.245-.236-.442-.18-.027.014-.02.056-.02.076.034.049.102.021.15.028-.014.083-.15.021-.15.132l.278.028a.228.228 0 00-.176.104l.101.049c-.027.048-.101.07-.075.132.252.223.706-.736.665-.021-.047-.021-.075.02-.102.049.014.097.136.034.204.055l-.054.104.183.028c-.061.028-.129.069-.156.125l.183.028c-.02.153-.19.298-.054.445-.041-.007-.054.034-.075.055.061.097.183.035.278.056.014-.139-.163-.292-.101-.452.115-.132.285-.285.488-.257 0 .077-.122.056-.075.153l.02.028c-.027.056-.121.076-.102.16.15.312.618-.313.442.235 0 .118.197.188.251.285.19-.007.414-.097.563-.028.04.494.142 1.091-.15 1.502-.175-.243-.087-.59-.182-.87l-.102.188c-.109-.09-.095-.264-.204-.368l-.054.048-.074 1.133c-.237-.167-.252-.473-.305-.737l-.103.055c-.203-.16-.122-.48-.36-.583-.555.146-1.159.146-1.695.348l-.461.076c-.081-.16.17-.264.231-.369l-.048-.055c.068-.18.204.027.305-.077-.04-.14-.23-.049-.257-.209a.793.793 0 01.488-.444c.041-.272.332-.362.516-.501.156.062-.102.166.047.208.02.063-.109.091-.027.16h.08l-.08.104.257.028c-.122.014-.068.153-.149.209-.204.042-.332-.091-.516-.083-.067.076.028.11-.027.188.197-.091.346.166.542.076.11 0 .156.222.278.104-.08-.083-.216-.18-.128-.312.087-.153.27-.146.311-.292-.088-.048-.196-.118-.284-.077.013-.174-.19-.258-.204-.417-.251.09-.509.02-.746.076-.027.035-.067.063-.047.104l.177.028c.027.104-.035.174-.103.237-.203-.028-.427-.126-.515-.34-.007-.167.109-.292.23-.37.11-.027.076.126.157.133-.028-.271.217-.383.387-.557.115-.042.305-.007.331-.104-.08-.152-.284-.02-.386-.131-.129-.077-.271-.167-.36-.313-.033-.257.245-.424.415-.55.033-.014.075-.034.128-.027.136.09-.075.305.177.263.027-.139-.122-.312.027-.444.163-.243.414-.334.665-.397l.054.052zm17.811.104c-1.207 1.46-2.63 2.794-4.307 3.315.916-.66 1.54-1.834 2.537-2.342l1.77-1.05v.077zm-23.142.216c-1.41 1.007-2.638 2.294-4.049 3.308-.236.063-.121-.299-.332-.237-.034-.056-.123-.083-.109-.16 1.567-1 3.046-2.196 4.639-3.127l-.149.216zm3.154.076c-.08-.02-.122.035-.183.056l.055.077c-.224-.048-.11.334-.333.209-.101-.083-.23-.14-.285-.264-.04-.285.285-.243.434-.369.156.075.103.284.312.291zm.767-.104l-.102.056.075.104c-.027-.007-.04.014-.047.021-.007.063.06.056.102.056h.074c-.014.069-.237.055-.129.18-.047.14-.19.236-.332.16-.15-.118-.292-.299-.156-.473.128-.146.454-.507.515-.104zm-3.792.076c-1.363 1.223-2.428 2.586-3.744 3.808l-.332-.368c.142-.014.122-.16.23-.237l.075.132c.007-.264.271-.222.36-.445l.075.104c.075-.117.054-.284.21-.368.129.083.15-.25.306-.16.068-.056.06-.153.155-.209l.047.056.184-.236c.149.104.075-.132.149-.188.19-.118.285-.292.488-.369.007-.069.075-.125.129-.18.223.041.176-.362.407-.264.075-.299.4-.313.57-.55l.665-.549.026.023zm2.123.188l-.101.049.075.083c-.217-.07-.17.188-.353.209-.102-.048-.183-.153-.183-.264.149-.133.407-.293.563-.077zm18.3-.104c-.997.952-.936 2.495-2.252 3.176.563-.612.936-1.349 1.2-2.05h-.048c-.474.75-.874 1.584-1.539 2.21.753-.904.943-2.037 1.92-2.843a4 4 0 01.719-.493zm-20.246.153c-1.038 1.452-2.035 2.946-3.358 4.253-.15-.14-.326-.327-.407-.522.163-.077.19-.277.38-.34.075-.09.061-.258.21-.264-.02.07-.075.223-.054.313.162-.14.162-.39.284-.578l.048.209c.15-.132.007-.445.258-.494l.047.153c.068-.139.081-.291.184-.416l.047.132c.122-.132.068-.334.23-.452l.055.188c.115-.118.014-.327.177-.425.06.028-.014.14.08.132.088-.132.007-.34.177-.444l.08.076c.102-.09-.006-.305.177-.34l.055.132c.156-.063-.014-.327.204-.389.04.014.02.09.075.077.027-.125.033-.292.183-.34l.047.048c.075-.097.061-.264.204-.285.046.02.074-.028.108-.056a.173.173 0 01.009-.102.168.168 0 01.066-.078c.183.104.135-.292.332-.16l.055-.077.047.049zm1.079.236c.04.02.067.077.128.056.02.07-.068.076-.102.104a.265.265 0 01-.184-.022.275.275 0 01-.128-.138c.02-.104.055-.25.184-.258.087.035.149-.083.23 0l-.128.258z" fill="#fff"/><path d="M27.115 30.57v.188c-.055-.008-.096 0-.129.048.055.049.156.111.074.208-.101.23-.352-.02-.406.215-.122.104-.292-.11-.36.077l.129.048c-.081-.014-.136.035-.204.056.027.048.081.021.129.028l-.102.104c.02.034.109.034.074.104-.108.11-.257.007-.386 0-.122-.07-.142-.216-.129-.313.055-.083.19-.125.157-.236a.336.336 0 01-.163-.164.348.348 0 01-.02-.232c.162-.216.433-.243.67-.18l.028.02c-.142.042-.095.237-.257.216l.128.104c-.23-.118-.175.208-.338.208.23.077.475-.16.672 0-.034-.131-.15-.263-.103-.395.069-.174.244-.265.38-.39.19.042-.02.237.156.286zm-2.693-.181c-.909 1.439-1.533 3.009-2.74 4.33-.19.187-.496.277-.746.16-.244-.195.17-.307.21-.473l.048.049c.067-.118.074-.258.204-.34l.08.131c.116-.083-.02-.27.13-.34l.047.132c.108-.18.088-.417.285-.55l.047.154c.15-.111.02-.382.204-.5l.11.159c.128-.146-.082-.487.203-.418.095-.041.02-.124.027-.187l.15-.181.08.076c.041-.104.007-.27.13-.313l.046.153c.054-.174-.014-.396.156-.52l.075.131c.115-.132-.04-.451.23-.451.048-.209.19-.306.285-.494.183.063.122-.16.176-.236.21-.104.21-.459.488-.5l.075.028zm.312.049c.02.077-.04.112-.082.16h-.129c-.075-.077.028-.153.082-.209.055-.021.081.028.129.049z" fill="#fff"/><path d="M24.91 30.806l-.284.027.027.077c-.054.007-.136-.02-.176.027.034.07.15.07.231.105-.034.014-.027.056-.027.077.075.007.231.021.305-.049-.047-.194.183-.257.285-.34.122-.007.237-.097.36-.028.06.097-.13.125-.028.208l-.075.104.177.083c-.115.097-.055.181-.075.285.102.042.068.174 0 .236l.149.105c-.055.007-.109.09-.047.132-.061.208-.312.208-.49.16-.128-.063-.182-.195-.23-.313.055.146-.311.201-.074.285l-.102.104c.062.048.15.021.231.028-.02.063-.156-.028-.183.077l.055.083c-.068.056-.204.111-.313.048-.087-.042-.183-.139-.149-.264.143-.174.366-.201.489-.361-.224.007-.441-.083-.672.02-.007.064.068.056.102.056h.081c-.013.063-.21.07-.102.18.027.084-.054.14-.101.16-.252-.16-.401.16-.57.237.162-.02.352-.118.542-.16l.15.16c-.055.042-.163-.014-.177.076.21.084.617-.076.638.237l-.048.132.129.083c-.014.007-.034.02-.027.049.223-.015.291.131.536.076l.054.055c-.251.104.02.237-.102.397-.21.097-.475.236-.719.104-.047-.104.095-.132.102-.209l-.047-.055c-.089.104-.163.209-.129.369.075.188.197.035.332.077-.08.082-.027.235-.054.32-.115.11-.25.242-.258.368.116 0 .232-.369.34-.132l.047.049c-.034.014-.027.055-.027.083.108.028.197-.167.332-.132-.027.139-.244.236-.176.389.122-.097.265-.278.407-.417a.646.646 0 01.257-.188c-.278.438-.664.89-1.126 1.105-.047-.02-.02-.09-.075-.076-.027.313-.339.452-.515.68l-.102-.16c-.115.064-.054.285-.23.292-.11-.132-.021-.312.026-.444.143-.202.42-.307.38-.556l-.075.083c-.067-.285.17-.535.156-.793-.17.118-.129.34-.333.424-.101-.021-.237.042-.312-.056.054-.069.156-.118.156-.209l-.027-.028c-.278.167-.57.48-.922.32.346-.25.732-.514 1.004-.84h-.081c-.516.389-1.051.84-1.689.861l-.08-.104c.196-.146.46-.132.616-.313-.088-.041-.19.042-.305.028.265-.368.42-.778.719-1.133.054-.007.129.021.176-.028-.013-.09-.142-.09-.075-.18.184-.32.373-.654.563-.973.061.055.163.104.23.076-.148-.097-.223-.271-.074-.417a.514.514 0 01.536-.237l.048.077c-.007-.111.122-.229.027-.312-.095.028-.156-.042-.23-.076.08-.188.175-.446.413-.453.15-.074.197.134.305.162zm2.666.188c-.027-.007-.04.007-.055.021.041.097.136.125.21.215.272.237-.447.153-.054.362-.21.09-.386-.125-.508-.258-.082-.278.142-.465.332-.576.061.034.089.138.075.236zm14.637-.028c-.753.758-.78 1.828-1.567 2.572-.882.862-1.913 1.355-3.025 1.654 1.471-.313 2.434-1.835 3.154-3.072.4-.507.901-.91 1.438-1.154zm-28.73 2.884l.507.396c-1.716-.459-3.221-1.647-4.429-3.127.143-.056.265.104.408.132 1.322.507 2.564 1.41 3.513 2.6zm1.43.348l.231.258c-.488-.195-.814-.717-1.2-1.1-.237-.305-.447-.645-.692-.923v.132a6.965 6.965 0 001.458 1.786c-1.323-.619-1.661-2.071-2.51-3.1l.028-.021c1.14.604 2.115 1.835 2.685 2.968zm12.128-2.864l-.081.132.128.077c0 .028-.08.042-.047.104.02.048.081.02.13.028l-.055.104c.129.014.02.111.054.16-.23.006-.55.013-.692-.215 0-.243.264-.37.434-.473.06-.021.115.028.129.083z" fill="#fff"/><path d="M37.75 34.85c-.326.118-.59.41-.95.445 1.167-1.307 1.811-3.19 3.514-3.989-1.031 1.106-1.2 2.717-2.565 3.544zm-20.707-.076c.36.57.915.87 1.513.966-2.239.007-3.195-2.418-4.538-3.912l.028-.02c1.294.478 2.36 1.737 2.997 2.966zm9.61-2.73c.021.229-.386-.022-.332.208h.075c-.054 0-.163.153-.047.18l-.102.056.15.209c-.224.138-.38-.16-.59-.237a.27.27 0 01-.102-.34c.163-.224.406-.334.644-.293.074.125.203.14.305.216z" fill="#fff"/><path d="M27.115 32.12c-.015.152-.305.02-.204.208-.183.084-.048.223-.054.34l.054.056c-.061.16-.237.042-.332 0-.075-.117-.122-.215-.028-.34a.658.658 0 01.564-.265zm-1.587.055l-.102.153.122.084c-.027.02-.034.063-.047.104.027.042.081.02.129.02.014.043-.034.056-.054.084l.183.077c-.034.006-.088-.022-.102.027-.034.091.067.056.102.104-.17.181-.441.007-.645-.055-.115-.049-.204-.188-.129-.312.15-.175.346-.307.543-.286zm12.507.125c-.896 1.133-1.546 2.76-2.977 3.336-.455.215-.89.444-1.384.556-.027-.042-.02-.104-.02-.16 1.607-.404 2.048-2.286 3.405-3.176.298-.265.638-.452.977-.633v.077h-.001z" fill="#fff"/><path d="M27.63 32.648c-.122.208-.339.228-.543.208-.034.07.055.07.082.104-.028.063-.116.035-.11.104.13.07.272-.056.285.16-.217.118-.53.327-.793.153-.13-.258.223-.362.36-.494.054-.041.135-.027.176-.11-.041-.118-.197-.14-.102-.285l.156-.209c.197.14.17.452.49.369zm-8.023 2.836l.36.312c-.285-.069-.584-.375-.849-.632-.678-.743-1.193-1.55-1.973-2.203-.081.07.04.125.075.18.794.849 1.357 1.863 2.286 2.58-.692-.119-1.22-.82-1.668-1.37-.034.264-.326.056-.49.084-.08-.063-.236-.077-.25-.188.156-.07.332-.181.482-.181v-.104c-.346-.59-.895-1.119-1.357-1.633 1.491.36 2.468 1.966 3.384 3.155zm2.868.729c.36.146.76.194 1.126.32l-.075.048c-1.451-.242-2.93-.688-3.764-2.147-.442-.653-.841-1.314-1.39-1.918 1.79.75 2.306 3.044 4.103 3.697zm9.788-2.363c-.346-.291-.244-.84-.482-1.202l.02-.056c.312.333.462.806.462 1.258zm13.971-1.258c-1.302 1.306-3.099 1.48-4.97 1.418a7.68 7.68 0 00-1.283.313c.794-.369 1.675-.64 2.537-.918 1.174-.43 2.578-.292 3.716-.813zm-14.534.056c.122.465.326.959.21 1.466-.102-.25-.122-.577-.184-.869-.067-.11-.06-.258-.156-.361 0 .472.218.945.21 1.417-.325-.417-.21-1.015-.413-1.473.09-.062.197-.194.333-.18zm-5.406.236c-.047.021-.095.021-.129.077l.258.028c-.028-.007-.041.014-.054.021l.08.083a.772.772 0 01-.355.263.754.754 0 01-.438.023c-.278-.202.15-.41.278-.522.123-.154.245.054.36.027zm5.073.313c.048.243.048.535-.101.737-.292-.216-.224-.64-.305-.973.027-.028.054-.069.102-.056.074.181.067.417.176.557.122-.216-.129-.487.027-.605l.102.34z" fill="#fff"/><path d="M18.962 33.433c-.006.097-.094.188-.02.292.068-.042.008-.188.123-.16l.128.18c-.101.195-.291.278-.46.37l-.436-.473c.19-.084.449-.522.665-.21zm7.692.104c.04.049.101.02.156.028-.244.118-.537.313-.848.236-.292.131-.537.375-.875.396-.11-.09 0-.216 0-.32.129-.18.332-.388.542-.34-.129.174-.488.299-.434.55.136-.077.218-.362.434-.362l.047.076c.102-.007.163-.256.258-.104-.034-.215.271-.222.414-.32.096.077.13.34.306.16zm-.177.765c-.054-.077-.122-.209-.23-.188-.204.34-.461.778-.848.917-.02-.368.387-.625.59-.945-.027.216-.285.348-.231.556.292-.291.407-.82.896-.869.087-.014-.143.091-.054.16l.23-.132c-.027.014-.02.05-.02.077.013.035.047.028.075.028l.203-.264c-.15.242-.285.709-.61.66zm3.893.313l.075-.577c.115.139.102.369.102.577.278.027.136.375.285.528.108-.236-.122-.507.102-.688-.02.361.277.862-.055 1.078-.04.103.101.131.11.208.114.035.026-.111.121-.125.047.125.081.306.027.445-.027.063-.115.063-.149.028-.312-.272 0-.702-.36-.946-.095.09-.027.243-.156.313-.237-.25-.176-.633-.258-.945l.055-.55c.054.181-.02.494.101.654zm-10.967-.529c.074.097.264.23.204.369-.17.097-.346.243-.542.188-.062-.146-.38-.397-.048-.473l.048.153.183-.34.027.29.128-.187zm12.988 1.029c-.074.209-.325.236-.508.285-.366-.202-.386-.723-.36-1.126.015-.014.028-.035.048-.028l.082.396c.06 0 .074-.104.15-.083.088.25.121.577.359.71.095-.126-.081-.21-.129-.313a2.883 2.883 0 010-.757c.136.187.055.542.183.729l.047-.048-.101-.813.054-.055c.175.297.06.762.175 1.103zm-1.152-.577c.04-.145.02-.312.128-.423-.067.313.163.771-.101 1.05-.136-.188-.163-.473-.176-.73l.047-.396c.108.13-.007.388.102.5zm1.485.39c-.054.27.19.326.285.472.068.02.17-.042.204.055-.129.174.156.104.156.264.007.09-.136.049-.102.152.062.05.156.008.204.105.033.14-.163.048-.129.188.062.035.13.035.184.077-.014.11-.095.243-.21.264-.224 0-.096-.278-.204-.397-.101-.576-.807-.903-.638-1.598l.075.132c.061-.167-.007-.334-.075-.473.155.195.21.495.25.758zm-16.319.16c-1.608-.543-3.262.437-4.823-.342-.312-.16-.63-.305-.922-.528l.027-.02c1.879.36 4.03.055 5.718.89z" fill="#fff"/><path d="M26.165 34.774c.143-.069.17-.458.387-.291-.23.368-.413.84-.848 1.02-.109-.11-.007-.256 0-.388l.59-.813c.034.132-.162.313-.129.472zm17.913-.083c-1.472 1.035-3.466.284-5.047.131 1.31-.291 2.47.23 3.819.056l-.054-.056c-1.058.035-1.98-.271-3.045-.236 1.404-.395 2.93.195 4.327.105zm-24.112.187a.349.349 0 01-.36-.16c.034-.048.081-.166.176-.131.116.076.123.194.184.291zm4.999.994c-.156-.069-.413-.2-.617-.076l-.027-.028c.183-.174.339-.382.562-.444.041.014-.075.104 0 .16l.333-.369.027.027-.278.73zm.482-.493l.101.02c0 .23-.163.396-.332.556-.047-.007-.081-.076-.13-.104.102-.242.205-.486.414-.688.007.049-.033.139-.053.216zm-8.92-.055c-.712.083-1.452.243-2.177.368.943.18 1.79-.347 2.746-.132-1.336.202-2.807.793-4.158.16l-.433-.215c1.356.062 2.734-.557 4.022-.181zm14.996.527c-.033.028-.033.077-.074.104-.21-.084-.23-.333-.285-.528v-.077c.062-.035.184.034.177.132.136-.007.033-.167.129-.216.244.113.074.405.053.585zm9.66 0c.19.007.393-.02.569.02-1.255.55-2.897.23-4.159-.131-.752-.132-1.62-.083-2.353.055 1.648-.583 3.445.084 5.127.132l-.108-.076c-1.086-.174-2.137-.424-3.303-.397l.054-.055a8.745 8.745 0 014.172.452zm-8.506-.215c-.068.146.189.223.129.396.217.077 0 .272.175.34.102.043.007.105 0 .16a.206.206 0 01-.204.077l-.101-.132c-.122-.32-.122-.688-.333-.972-.006-.098.095-.104.15-.153.136.062.047.25.184.284zm-6.56-.236c-.149.306-.312.625-.542.868-.04-.069-.197-.139-.176-.264.122-.326.468-.437.718-.604zm4.586.396c-.136-.104-.143-.264-.055-.395a.422.422 0 01.055.395zm1.614-.028c-.101.118.136.125.054.236-.047.104.095.132.102.209l-.102.215c.08.02.152.066.204.132.041.174-.115.25-.23.312-.143.007-.285.014-.36-.132-.02-.048.027-.07.047-.104.06 0 .136.118.183 0-.02-.209-.184-.361-.305-.529-.041.07-.02.223-.156.16a.453.453 0 01-.075-.444c.163-.104.237-.3.46-.264-.026.154.13.091.178.21zm-10.79.445l-1.663.055c-1.255.285-2.503.876-3.846.604l-.977-.187v-.05c1.303-.096 2.401-.715 3.744-.708.978-.062 1.826.188 2.741.286zm3.227-.209c-.196.021-.115.264-.277.32.19.243-.278.167-.082.417-.027.035-.074.035-.102.077.007.104.129.243-.02.32-.108.028-.169-.09-.21-.16l.21-.869c.034-.097.136-.146.23-.18.089.013.204-.043.252.075zm-.61.028c.033.202-.291.244-.101.446-.115.055 0 .208-.11.263-.04.111.103.209-.02.292-.129 0-.17-.097-.23-.188 0-.312-.04-.64.23-.84.082.027.17-.09.231.027zm14.196.71c.407.152.922.138 1.337.208-1.675.48-3.31-.139-4.822-.681l-.537-.104c.849-.285 1.859-.05 2.714.104l1.308.472z" fill="#fff"/><path d="M25.399 36.373c.007.055-.007.097-.054.132-.135.007-.122-.188-.257-.181l-.02.18c-.035-.047-.082-.055-.13-.055-.06.063 0 .132.028.188-.034.076-.15.048-.109.16.055.187.252.117.36.208-.027.209-.21.424-.407.5-.237 0-.617.084-.746-.16.305-.25.895.23.902-.368-.034-.028-.06-.076-.109-.076-.02.097-.034.229-.149.264l-.203-.028c0-.375.128-.806.407-1.049.243-.105.379.167.487.285zm6.613.105c-2.476.813-5 1.487-7.386 2.522-.115-.139 0-.306-.02-.472 2.102-.765 4.327-1.23 6.456-1.947.305-.028.583-.131.868-.208l.082.105zm-9.462.027c-.204.076-.461.16-.692.236-1.289.813-2.91 1.216-4.53.841v-.028c1.804-.187 3.289-1.334 5.222-1.05z" fill="#fff"/><path d="M28.24 37.241l-.304.132c-.95-.167-1.865-.404-2.795-.604l.075-.105c1.01.188 2.034.348 3.025.577zm4.721-.396c-.311.118-.617.32-.976.236-.088-.083-.102-.202-.13-.313.13.146.347.278.564.181.203-.02.38-.36.542-.104zm1.303-10.396c-.096.02-.17.069-.278.048.081-.041.19-.014.278-.048zm-.434.104c-.385.104-.784.14-1.18.104.386 0 .773-.104 1.18-.104zm1.79.236c-1.03.487-2.218.772-3.404.869 1.166-.222 2.305-.494 3.404-.869zm-2.51.313c-.426.097-1.004.146-1.383.083.495-.007.957-.09 1.438-.132l-.054.05zm1.127.32c-.699.375-1.601.403-2.435.521v-.049c.827-.125 1.648-.264 2.435-.472zm1.003 1.313c-.488.334-1.017.564-1.567.758v-.048c.536-.223 1.044-.5 1.567-.765v.055zm-2.259-.028c-.386.194-.868.264-1.329.34-.123-.063-.292.007-.414-.056.537-.151 1.194-.11 1.743-.284zm-.691.654c-.564.229-1.228.313-1.893.34v-.048c.631-.084 1.276-.237 1.893-.292zm1.004.368c-.956.375-1.892.792-2.978.84v-.048c1.038-.167 2.015-.48 2.978-.84v.048zm.25.472c-1.004.508-2.034.938-3.201 1.05v-.048c1.16-.132 2.163-.633 3.201-1.05v.048zm-4.638.397c0 .104-.143.097-.231.132-.19.097-.19.39-.407.368-.047-.083.122-.097.027-.16h-.08l.155-.132c-.061-.049-.156-.021-.23-.028.041-.084.19-.042.23-.132-.04-.042-.101-.014-.156-.021.014-.104.156-.014.21-.083l.482.056zm16.685.236c-.482.466-1.038.875-1.587 1.23a6.05 6.05 0 011.587-1.23zm-11.917.236c-.59.404-1.18.813-1.845 1.05.577-.403 1.24-.715 1.845-1.105v.055zm-11.503.181l-.027.028v-.132c.047-.007.02.076.027.104zm3.302.16c-.108.167-.325.02-.488.028l.21-.056c-.021-.112-.224-.049-.184-.209l.462.237zm-3.662.104l.047-.104-.02.104h-.027zm2.713.077h-.203c.04-.021.162-.105.203 0zm.59.027h-.047c-.007-.034.006-.083.046-.076v.076h.001zm-3.615.105l.027-.105v.084l-.027.02zm4.87.32v-.029l.183.028h-.183zm-5.582.312c-.075-.063.013-.174.02-.264.075.07-.014.18-.02.264zm20.32-.264c-.278.605-.63 1.223-1.152 1.681.413-.534.711-1.125 1.105-1.68h.047zm-3.201 2.363c-.157.09-.258.312-.434.34.251-.361.583-.71.84-1.07l.95-1.398c-.285.786-.814 1.46-1.356 2.128zm-14.304-2.023a.422.422 0 000 .34c-.136-.02-.061-.215-.075-.284.027-.021.04-.07.075-.056zm1.024.133c-.115.049-.17.02-.305.028.067-.063.19-.09.305-.077v.049zm-.278.16c-.047.076-.095.215 0 .284.082.181.27.091.387.188-.204.042-.408-.16-.645-.16l.055-.104-.258-.049c.142-.035.338-.02.46-.16zm5.256.416c-.19.083-.11-.132-.237-.153.033-.077.129-.18.21-.104.068.097-.027.152.027.257zm-9.841-.02l.075-.188-.028.187h-.047zm5.093.076l.157-.077-.103.077h-.054zm3.412.18c-.095.008-.285-.104-.434-.02-.04-.111.061-.055.102-.111.108 0 .21.125.332.132zm16.25-.104c-.196.202-.536.16-.793.237l-1.9.264c.828-.285 1.805-.292 2.694-.501zm-14.866.292c-.055-.02-.047-.117-.047-.187.02.062.067.11.047.188zm7.148-.055c-.719.84-1.404 1.869-2.408 2.286.855-.528 1.635-1.62 2.408-2.362v.076zm-6.714.291l-.021-.104.02.028v.076zm-5.69.264c-.095-.042-.028-.18-.02-.264.02.076.08.174.02.264zm6.408-.215h.027v.132h-.027v-.132zm-6.714 1.53c.149-.313.474-.522.718-.764-.047.326-.528.437-.718.764zm.36-.736c-.042.09-.157.166-.204.236-.006 0 .095-.223.203-.236zm14.019 2.306c-1.228-.07-2.28-.55-3.433-.785 1.208.104 2.252.605 3.433.785zm-10.838.793c-.89.333-1.798.597-2.693.889.854-.424 1.844-.64 2.768-.973l-.075.084zm-3.358-6.492c-.048.104-.17.014-.231.083-.006-.118.163-.188.23-.083zm2.225 1.71l.054-.056h.027l-.081.055zm6.05 5.435c.047.117.136.277.026.395-1.146-.423-2.326-.771-3.513-1.105l-.075-.076.129-.104c1.16.25 2.341.458 3.432.89zm-10.33-20.878c-.062.07-.17-.02-.258-.028l.258.028zm-1.512.077v.083c-.347.049-.638 0-.97.077.244-.174.645-.083.95-.181l.02.021zm.08.215c-.196.125-.502.077-.745.132l-.537.153c.088-.118.292-.195.462-.237.271-.02.563-.068.82-.048zm1.744.132v.048c-.17.035-.346-.055-.543-.027.157-.007.36-.097.543-.021zm-1.744.077c-.298.118-.698.076-1.004.236v-.076c.326-.09.679-.153 1.005-.16zm1.174.104v-.056l.57.028-.57.028zm-.97.076l-.488.083c.095-.125.34-.09.488-.083zm-2.821.132l-.204-.028v-.048l.204.027v.05zm-.278.056v.048c-.047.021-.075-.02-.102-.048.014-.042.081-.042.102 0zm2.896.048c-.034.077-.136.077-.211.105.035-.07.136-.07.21-.105zm2.279.028c-.122.07-.305.09-.489.077.115-.09.326-.035.489-.077zm-2.564.425c.047-.202.291-.14.414-.264.129-.028.271-.056.407-.083l-.821.347zm1.18-.216l-.745.264c.23-.145.482-.25.745-.312v.048zm-2.49.132l-.074.084c-.053-.035 0-.083.028-.111.027 0 .034.013.046.027zm4.077.084c-.176.041-.346.125-.536.125.143-.097.36-.118.536-.181v.056zm-1.743 0c-.142.048-.264.152-.433.152a.814.814 0 01.433-.152zm-5.047.048v.029h-.074c-.014-.05.055-.077.074-.029zm5.434 0c-.082.09-.231.132-.36.16a.573.573 0 01.36-.16zm1.512.056c-.041.104-.176.07-.258.104.055-.07.163-.083.258-.104zm-3.69.076c-.068.063-.21.007-.258-.055l.258.055zm4.097.18c-.061.076-.19.104-.305.111.095-.055.183-.118.305-.11zm-1.689.056a.845.845 0 01-.433.292c.067-.18.277-.23.433-.292zm1.974.104c-.068.125-.285.076-.414.16.109-.069.252-.16.414-.16zm-5.175.105l-.312-.077.312.028v.049zm3.432-.049c-.17.09-.346.25-.564.264.137-.167.36-.222.564-.264zm.23.105a1.305 1.305 0 01-.535.236c.17-.105.325-.23.536-.236zm-4.103.131c-.101.056-.244.007-.305-.056.101.022.257-.041.305.056zm5.717-.027c-.108.097-.291.125-.434.18.082-.145.28-.132.434-.18zm-1.437.027c-.04.083-.19.146-.305.18.04-.11.183-.172.305-.18zm-4.972.154h.258v.056h-.258v-.056zm6.565.056c-.074.082-.216.117-.331.131a.35.35 0 01.331-.131zm-1.566.055c-.055.09-.17.139-.278.152.054-.09.176-.132.278-.152zm-6.403.048c.055.063-.034.125-.054.187-.047 0-.069-.055-.102-.083-.075.223-.257-.014-.312.21-.135-.39.312-.21.468-.314zm6.634.056c-.095.153-.278.202-.434.257a.648.648 0 01.434-.257zm-5.406.02c.013.042-.034.056-.055.084h-.176c.028-.104.163-.014.23-.083zm6.919.028a.827.827 0 01-.36.132c.08-.083.238-.166.36-.132zm-4.436.083l.156-.055.074.027-.23.028zm-4.714 0a.848.848 0 01-.156.417c-.027-.055.115-.25.027-.34l-.204.369c-.054-.174.237-.389-.054-.473l.387.027zm.23-.027c0 .14-.089.242-.129.368.048-.069-.108-.424.129-.369zm5.922.048c.053.056-.014.146-.075.16-.081-.062.02-.139.075-.16zm9.61.028c0 .042-.115.021-.075.105.034.048.102.02.15.028-.054.056-.217.021-.25.132.046.042.128.02.203.028l-.055.076c.062.035.129.035.183.077 0 .049-.053.076-.08.104-.706.035-1.276.396-1.845.765.372-.69 1.063-1.155 1.769-1.315z" fill="#fff"/><path d="M23.039 20.305a.971.971 0 01-.333.181.453.453 0 01.333-.18zm.413 0c-.095.14-.278.14-.413.237.054-.188.27-.168.413-.237zm-8.539.445l-.02.028c0-.104.115-.222 0-.32-.102.09-.122.243-.183.369-.055-.111.115-.223-.048-.285l-.258.444c0-.083.116-.194 0-.263-.23.125-.203.41-.386.576 0-.153.183-.285.074-.416-.21.145-.25.458-.407.68-.122-.076.4-.625-.054-.445-.143.132-.13.334-.204.5-.102-.11.095-.263-.027-.368l-.204.257c.014-.034-.034-.048-.047-.076-.176.014-.19.229-.285.34-.013-.062.034-.145-.047-.18-.163.077-.218.243-.258.39-.013-.063.027-.146-.054-.181-.197.055-.218.27-.278.417-.047-.02.094-.188-.028-.258-.183.063-.162.258-.23.39-.014-.022.04-.196-.082-.238-.156.05-.122.237-.203.32 0-.063.013-.125-.048-.16-.217.112-.21.369-.312.55-.02-.125.129-.237 0-.34-.204.104-.204.389-.305.576.02-.138.149-.305.027-.444-.102.077-.136.18-.156.291.007-.055-.007-.096-.048-.131-.189.125-.162.382-.284.549-.081-.118.23-.348-.027-.417-.129.167-.156.382-.279.55-.013-.146.156-.278.048-.397-.224.132-.176.43-.36.605.02-.146.163-.306.054-.445-.135.118-.156.285-.23.424-.054-.042.108-.188-.054-.237-.204.118-.21.362-.306.55-.053-.091.11-.265 0-.37-.135.022-.175.175-.257.265 0 .034.014-.09-.047-.104-.312.014-.142.368-.34.493-.06-.035.184-.271-.047-.285l-.204.369c-.047-.09.095-.16-.027-.209-.15.042-.136.209-.204.313 0-.063.014-.126-.054-.16-.156.111-.156.34-.258.5 0-.111.116-.242 0-.34l-.23.396c-.021-.097.074-.16 0-.236l-.231.416c0-.034.115-.242 0-.34l-.177.236c.02-.048-.027-.069-.054-.104-.163.035-.136.313-.332.21l-.129.18-.075-.048a2.29 2.29 0 00-.257.576c-.034-.166.176-.291.027-.444-.21.084-.183.312-.285.472-.04-.049.102-.194-.02-.264-.115.063-.183.181-.231.292l-.108-.083c-.109.05-.15.174-.204.264l-.074-.077c-.047.075-.12.082-.203.075 1.981-1.355 4.097-2.467 6.152-3.704.475-.277.984-.48 1.431-.84.679-.327 1.337-.716 2.002-1.078.135.118-.035.285-.055.424zm20.457-.292c-.014.063-.096-.042-.13.056l.258.18c-.027-.007-.04.014-.054.028l.176.132-.101.056.128.125c-.027 0-.061-.007-.075.027l.278.188-.203.021.331.264c-.013-.042-.067-.02-.101-.028l-.027.028c.087.139.265.16.386.264l-.176.056.36.236-.081.076.332.21h-.203c.06.131.243.166.36.263-.096-.007-.184-.097-.279-.028.25.258.875.216.767.764.046.146-.116.194-.204.209-.692-.014-1.174-.618-1.642-1.133l-.922-1.542c-.062-.111-.007-.23.047-.32l.08.132c.11-.035.103-.167.177-.237l.054.292.075-.104.027.445c.109-.014-.007-.174.102-.21.17.147.08.418.176.598l.054-.208c.224.056.048.507.278.396.237.139.061.452.258.605l.054-.132c.217.104.075.423.332.444.089.077.19.223.305.292v-.105c-.664-.73-1.139-1.542-1.587-2.362.084-.173.268.001.39.022zm-15.587 0c-.08.07-.224.098-.36.084a.507.507 0 01.36-.084zm3.845 0c.014.042-.034.056-.047.084h-.054c-.007-.07.067-.056.101-.084zm-9.536.028h.156v.056h-.155v-.056zm21.427 2.439c.04.188.074.48-.177.528-.725.146-1.227-.681-1.716-1.154l-.027.028c.231.397.4.855.36 1.335-.143.167-.38.243-.563.132a.636.636 0 01-.312-.473c.088-.077.231.063.21-.132.068.063.08.215.176.264-.02-.132-.034-.34-.128-.472l.23.312c.061-.097.007-.209-.047-.284.109-.015.088.117.176.16.02-.126-.088-.258-.176-.37-.054-.061-.122-.11-.129-.187l.258.237c-.014-.111-.122-.243-.183-.369.02-.187.047-.382.183-.52.095.048 0 .18.102.235l.02-.368c.062.153.089.313.183.444.007-.242-.068-.521-.075-.785.32.494.578 1.007.97 1.467l.23-.077c-.073-.146-.257-.153-.359-.292.081-.077.197.083.285.028-.136-.153-.34-.229-.516-.34l.156-.028c-.108-.125-.352-.153-.413-.37.183-.069.325.21.515.105-.175-.167-.447-.174-.617-.313.237-.069.461.125.672.132-.081-.174-.312-.188-.461-.292-.136 0-.237-.083-.36-.125.129-.083.339.035.482 0-.102-.139-.312-.173-.434-.263h.312c-.047-.132-.19-.153-.285-.21l.285-.027c.027-.125-.224-.077-.11-.209l-.02-.111c.482.766.841 1.592 1.303 2.364zM24.836 20.59c-.027.126-.21.084-.312.132a.641.641 0 01.312-.132zm-5.46.084c-.027.097-.155.027-.23.048.027-.097.149-.035.23-.048zm-5.515.048v.028h-.277c.095-.007.183-.097.277-.028zm11.28 0c-.047.125-.237.083-.36.132a.461.461 0 01.36-.132zm-3.615.264c-.006-.014.014-.18.081-.236a.345.345 0 01-.08.236zm2.387-.16v-.048h.048l-.048.049zm-7.718.104c-.028.049-.075.064-.13.056l-.047-.055c.041-.035.136-.035.177 0zm5.155-.02c-.088.028-.061.18-.183.125-.014-.125.122-.084.183-.125zm-8.099.152h-.156c.02-.041.089-.055.156-.048v.049zm10.683-.027c-.041.09-.163.11-.251.131a.235.235 0 01.25-.131zm7.156 0c-.055.11-.224.035-.313.131l.36.028-.36.188.36.021c.014.042-.033.055-.047.083-.197.02-.407.048-.542.153l.36.028-.15.077c0 .097.11.063.15.111-.7.008-1.398.132-1.974.494.054-.139.183-.327.312-.473.515-.514 1.138-.772 1.844-.841zm-10.127.083a.189.189 0 01-.075.153c-.04.014-.055-.028-.081-.049-.156.063-.271.243-.332.397-.055-.056.074-.174.027-.237.142-.118.305-.18.461-.264zm3.229.027c-.096.077-.224.174-.36.21a.517.517 0 01.36-.21zm-11.483.182l-.251.028c.04-.05.183-.14.251-.028zm8.79.396l.542-.452-.312.292-.23.16zm2.896-.452c-.115.07-.21.194-.352.188.067-.132.23-.154.352-.188zm-4.3.083h.231v.028h-.23v-.028zm4.483.05c-.089.11-.223.221-.386.214.101-.083.23-.2.386-.215zm.258.103c-.047.077-.142.118-.23.132.006-.111.142-.104.23-.132zm-4.897.056c.034.084-.068.07-.101.104h-.103c.028-.07.136-.07.204-.104zm.285 0a.181.181 0 01-.129.132l-.027-.028c.02-.048.074-.139.156-.104zm-7.997.056c-.006.042-.087.014-.128.02-.007-.076.101-.055.128-.02zm12.914.02c-.04.049-.115.125-.203.104-.007-.11.122-.11.203-.104zm.536.105h-.204c-.007-.09.129-.077.204-.077v.077zm-.59.132c-.02.104-.183.118-.279.16.042-.077.164-.174.279-.16zm-13.402.083h-.103c-.007-.062.068-.055.102-.055v.055zm14.175-.055c.02.055-.027.097-.081.076h-.102c.04-.076.122-.049.183-.076zm-7.203.076c-.02.048-.067.02-.101.028v-.049c.034.007.08-.02.101.02zm6.383.16c-.136.09-.3.209-.49.237.123-.119.292-.244.49-.237zm.922.055h-.075c-.007-.048.034-.062.075-.055v.055zm-14.786.021l-.23.028a.355.355 0 01.23-.077v.05zm3.229.055c.04.125-.075.243-.103.369 0-.083.115-.188 0-.264-.101.062-.237.076-.284.209.027.215-.035.389-.102.555-.007-.007.136-.388-.027-.5.101-.174.34-.243.516-.369zm10.81.03c-.128.062-.243.193-.407.18a.605.605 0 01.408-.18zm-6.069.047c.02.063-.035.09-.055.132h-.048c.007-.049.022-.153.103-.132zm6.327.028c-.02.139-.19.104-.278.188.041-.084.17-.167.278-.188zm-5.71.16c-.095.097-.271.034-.36.048.115.022.224-.146.36-.048zm5.941-.028c.02.063-.055.118-.101.132h-.028c-.02-.083.082-.104.13-.132zm-15.2.077h-.149c.028-.063.095-.048.15-.048v.048zm10.588-.021c.034.11-.102.153-.156.236l-.02-.028c.054-.076.081-.18.176-.208zm4.795.153h-.08c-.008-.042.04-.055.08-.048v.048zm-6.355 0c-.136.209-.414.049-.59.132.163-.05.4-.14.59-.132zm-5.976.451c0-.09.116-.194 0-.264-.094.056-.21.063-.277.18l-.054.21c-.014-.091.053-.147-.055-.21-.223.098-.217.334-.278.529-.061-.118.122-.243-.054-.32-.177.07-.17.264-.204.424-.02-.077.047-.174-.055-.209-.115-.02-.17.125-.25.18l-.055.313c-.04-.112.095-.209-.027-.285-.223.014-.197.27-.25.417.006-.055-.021-.14.02-.18-.061-.174-.15 0-.231.028-.129.132-.055.34-.176.472-.035-.139.17-.243.027-.368-.115.042-.252.104-.312.236-.027.125-.027.264-.102.369-.007-.112.08-.25-.028-.34-.278.096-.189.396-.278.598-.149-.126.197-.397-.101-.341-.163.069-.068.236-.129.34-.02-.07.041-.166-.054-.208-.17.02-.047.215-.15.291.014-.082-.02-.138-.08-.187-.232.104-.17.381-.252.576.027-.118.055-.291-.027-.389-.143.083-.15.236-.183.37-.02.027.067-.21-.075-.238 1.044-.75 2.136-1.39 3.201-2.078.177-.16.387-.354.645-.368l-.156.452zm12.691-.396c-.115.083-.271.132-.414.18.068-.11.258-.235.414-.18zm-16.204.105h-.278c.054-.07.17-.09.278-.077v.077zm16.434.048c-.223.097-.454.25-.72.264.239-.09.45-.25.72-.264zm-16.868.188v.055h-.203c.034-.062.135-.118.203-.055zm16.97.027c-.258.056-.496.16-.746.237.19-.167.481-.216.746-.264v.027zm-4.205.132c.013.035-.034.048-.055.077h-.02c-.027-.014.007-.174.075-.077zm-13.226.078c.007.041-.007.082-.047.076h-.082c.007-.063.082-.077.129-.077zm17.248.076a.231.231 0 01-.106.113.223.223 0 01-.151.019.242.242 0 01.107-.11.233.233 0 01.15-.022zm6.687.708c-.047.063-.054.167-.149.16h-.101c-.007-.257.094-.465.176-.681a.59.59 0 01.074.521zm-6.253-.494c-.075.049-.176.14-.305.126.034-.111.197-.104.305-.125zm-12.378.494c0-.09.102-.139.102-.236-.048-.138-.177-.048-.23.028-.15.125-.116.327-.232.473.028-.077.054-.16.082-.237-.082-.132-.17.021-.258.028-.176.16-.183.389-.285.577-.061-.014.259-.48-.075-.312-.135.07-.101.216-.175.313.04-.084-.075-.146-.103-.16.415-.376.883-.612 1.33-.918a1.221 1.221 0 01-.156.444zm12.561-.312c-.08.083-.217.131-.331.18.033-.124.203-.16.331-.18zm-18.76.104H8.15c-.006-.055.062-.048.103-.048v.048zm18.834.132c-.006.062-.108.117-.176.131h-.055c.029-.125.157-.083.231-.131zm-11.428.633l.048-.237c-.102.007-.265.125-.305.258v.027c-.19-.117-.36.21-.51.292-.114-.056-.209.104-.311.153-.095.077-.02.23-.129.292-.013-.056.034-.084.054-.132-.06-.125-.142.007-.204.028-.101.097-.216.236-.312.285-.033-.105-.101 0-.149 0 .63-.438 1.37-1.001 2.076-1.467-.102.104-.102.361-.258.5zm11.354-.32h-.054c.034-.112.157-.112.23-.153.014.125-.129.076-.176.153zm-5.514.028c-.061.125-.19-.021-.305.028.054-.084.216-.063.305-.028zm6.077-.028c-.061.097-.19.153-.305.188.047-.14.183-.168.305-.188zm-8.255.132c-.013.02-.047.076-.101.056.034-.028.061-.077.101-.056zm8.54.056c-.048.083-.163.118-.258.132.041-.091.17-.167.258-.132zm-6.694.027v.02h-.13c.02-.006.089-.096.13-.02zm2.204.104c-.089.119-.204 0-.305 0 .054-.083.237-.083.305 0zm-10.323.39c0 .062.081-.376-.129-.181-.1.111-.108.263-.183.396-.02-.083.048-.195-.047-.237-.278.084-.197.41-.387.578.034-.097.034-.216.102-.292-.068-.153-.122.063-.204.028-.149.076-.109.236-.204.34l-.08-.132c-.137.077-.218.215-.28.34-.08-.201-.203.049-.311.056l-.231.313c0-.028-.007-.063.027-.077-.033-.028-.054-.076-.101-.056a42.809 42.809 0 012.102-1.445c.09.119-.053.244-.074.368zm17.397-.208c-.088.062-.265.034-.38.076.082.021.15.076.252.055l-.047.056c-.34-.139-.679.278-.977-.056.156-.173.46-.083.665-.18l.487.049zm-2.585-.029c-.054.153-.257.14-.386.215.102-.083.231-.201.387-.215zm.232.16c-.062.131-.252.152-.387.208.054-.139.251-.153.387-.208zm.434.104c-.035.118-.17.097-.258.132.034-.118.169-.097.258-.132zm1.818.076c-.265 0-.53.146-.767.056l.15-.077h.617v.021zm-20.654.349c.035-.077.028-.167-.053-.216a.269.269 0 01.176-.104l-.122.32zm-3.717-.237h-.108c0-.063.067-.056.108-.056v.056zm16.577.021c-.135.097-.278-.049-.38-.077h.38v.077zm1.438.16h-.027c-.034-.056.061-.118.08-.18.055.055.002.131-.053.18zm6.41-.133c-.157.097-.428.153-.618.056.19-.062.408-.11.617-.056zm-21.379.446l-.074.214c.007-.034-.02-.09.027-.11-.047-.021-.067-.105-.129-.077l.59-.397c-.013.3-.339.07-.414.37zm12.941-.341h.231v.028h-.23v-.028zm6.87.028c.021.125-.121.083-.175.132-.021-.125.122-.084.176-.132zm1.717.056c-.109.069-.284.069-.434.104l-.075-.028c.075-.146.339-.056.51-.076zm-21.887.36c.047.111-.095.132-.102.216-.102-.132-.217.02-.305.076-.034.035-.034.077-.075.104h-.109v-.049c.19-.145.408-.2.59-.347zm20.042 0a.355.355 0 01-.204.132c.007-.083.129-.104.204-.132zm-18.014.188c-.055.048-.136.021-.204.028.014-.09.15-.063.204-.028zm12.71.028v-.028l.258.028h-.258zm1.845.104c-.041-.007-.074.056-.102 0l.13-.132c.074.05-.035.076-.028.132zm-17.838-.028h.129v.055h-.129v-.055zm3.052.077l-.36.028a.535.535 0 01.36-.077v.05zm19.398.028c-.067.132-.257.188-.434.188.109-.105.292-.126.434-.188zm.183.208c.028.077-.047.056-.08.083h-.075c.006-.09.1-.062.155-.083zm-7.46.112c-.035.042-.136.014-.204.02.02-.076.156-.055.203-.02zm7.718.076c.027.09-.075.056-.108.105h-.102c.034-.07.135-.07.21-.105zm.305.16c-.04.152-.204.111-.305.152.034-.104.204-.104.305-.152zm-4.714.285l-.027-.029.177-.235c.095.096-.048.243-.15.263zm.333-.16l-.027-.02.074-.084.027.027-.074.077zm4.537.027c.027.077-.054.077-.08.104h-.103c.027-.062.108-.083.183-.104zm-6.64.132h-.231a.229.229 0 01.23 0zm-.489.21h-.155v-.022c.054 0 .115-.02.155.021zm2.381.319c-.088.167-.23.312-.353.472.007-.104.081-.18.122-.264-.04-.083-.156-.02-.203.049l-.306.452c-.06-.105.15-.243.102-.369-.217.028-.34.278-.516.417-.034-.028.048-.118.055-.18-.21-.084-.333.284-.564.152l-.203.056c.325-.209.848-.32 1.254-.528.22-.055.395-.201.612-.257zm-1.404.472l-.128-.028c.034-.014.075-.035.128-.028v.056zm-.284.104l-.306.028c.048-.09.218-.062.306-.028zm4.713 2.412h-.047l.028-.104c.04.02.013.077.02.104zm.774.473v.055h-.055v-.076c.027-.007.04.013.055.021zm-16.943 2.418h-.102c-.645-.452-1.303-.882-1.9-1.446.713.369 1.324.994 2.002 1.446zm4.205 1.522v.056c-.902-.612-1.363-1.605-2-2.419.772.716 1.159 1.648 2 2.363zm4.28.633c-.237.02-.44-.313-.664-.473-.482-.563-.89-1.16-1.282-1.758.752.695 1.111 1.612 1.946 2.23zm-2.72-1.842c.027-.111.04-.229.129-.312-.027.11-.02.284-.13.312zm-4.354.84c-.773.015-1.499.105-2.26-.047v-.056c.72.194 1.52-.042 2.26.104zm5.432 1.418c-1.16.153-2.333.55-3.432.577 1.154-.16 2.218-.548 3.432-.577zm2.076.474c-.91.34-1.852.715-2.842.896.42-.195.936-.258 1.383-.445.476-.195.943-.376 1.459-.452zm10.459 1.869c-.733-.104-1.506-.404-2.205-.66.74.194 1.506.354 2.205.66zM35.6 17.337l-.902.077c.257-.097.562-.195.902-.16v.083zm.97.105v.028c-.081 0-.143-.097-.176-.16.054.041.196.006.176.132zm-.23.048l-.278-.153c.101.021.257.035.278.153zm-.998 0v.083l-.515-.028c.162-.061.339-.103.515-.055zm2.638.056v.048c-.074.042-.121-.076-.176 0l.305.396c-.149-.027-.325-.243-.488-.369-.055-.145.088-.11.156-.152.081-.007.163 0 .203.077zm.285.049v.056a.22.22 0 01-.183-.18c.095-.043.15.075.183.124zm.252.055c-.116.021-.082-.125-.122-.18.08.014.115.111.122.18zm-2.327-.028c-.062 0-.23-.034-.285-.132a.313.313 0 01.285.132zm2.665.056c-.075.056-.223-.09-.23-.188.135-.028.122.132.23.188zm.177-.083v.056l-.075-.104c.034-.015.048.034.075.048zm-1.208.452c-.128 0-.298-.237-.406-.369v-.104c.197.062.278.313.406.473zm1.54-.369v.049c-.047-.049-.163-.049-.156-.153.082-.02.109.07.156.104zm-1.661.577l-.489-.472c0 .173.148.347.23.521-.203-.118-.237-.382-.413-.521-.095.118.075.18.027.312-.08-.09-.108-.201-.204-.284l-.075.104c-.108-.237.278-.195.408-.32.25.139.34.445.516.66zm-1.744-.528c-.075.077-.19-.021-.284-.021.06-.118.203-.021.284.02zm3.765 0v.055c-.047-.028-.15-.048-.13-.132.068-.028.082.056.13.077zm-4.666 0c-.055.18-.252-.007-.408.055v-.055c.123-.021.312-.056.407 0zm5.1.132l-.13-.077h.055l.075.077zm-3.534.132c-.054-.035-.183.007-.156-.104l.102-.056c.034.028.047.105.054.16zm.204.424c-.122.007-.278-.202-.408-.292l-.027-.132c.116.152.299.25.435.424zm-.075.285a2.79 2.79 0 01-.516-.55l.027-.082c.17.187.326.423.489.632zm-.387-.105a.585.585 0 01-.285-.416c.177.055.19.277.285.416zm-2.048-.292h-.82c.237-.111.603-.069.82-.076v.076zm.407-.02l.027-.056.177.055h-.204zm1.438.389c-.088-.104-.265-.215-.23-.389.107.07.203.243.23.389zm-.23-.153v.076c-.082-.034-.143-.118-.13-.209.088-.027.081.084.13.133zm-.978 0l-.278-.028v-.077c.115-.02.197.036.278.105zm-.637.049c-.38 0-.773-.118-1.126 0 .346-.028.733-.167 1.126-.076v.076zm.59.104c-.047.077-.136-.014-.21-.02.054-.064.142-.05.21.02zm-.59.083c.007.042-.075.02-.102.02V18.7c.034.014.074.022.102.056zm-.692.022h-.515c.176-.014.325-.07.515-.05v.05zm.508.16c-.033.069-.149-.008-.176-.05.068-.02.123.02.176.05zm7.258.263c-.014.035-.055.027-.082.027-.115-.048 0-.124 0-.187.089.008.062.105.082.16zm-7.359-.104c-.007.027.014.035.027.049l-.23-.021v-.056l.203.028zm6.667.444l-.08.077c.046.02.02.077.027.11-.143-.047-.102-.423-.305-.263-.103-.042-.09-.354-.285-.216l-.028-.152c.257.062.46.312.671.444zm2.611-.292l-.515-.049v-.027c.19-.014.36.014.515.076zm-.46.397a.498.498 0 01.102.265c-.13-.181-.17-.418-.333-.55-.095.118.068.18.027.313l-.203-.445c.183.118.44.118.406.417zm-8.69-.237l-.175-.076.176.027v.05zm9.075-.076c.007.042-.04.056-.08.05-.035 0-.109.006-.102-.05h.182zm-.101.264c-.081.097.027.18.02.285-.101-.097-.21-.237-.23-.397.075.029.15.036.21.112zm-9.482 0c-.23.028-.482-.063-.746-.028.19-.084.516-.063.746-.028v.056zm.434-.056v.028l-.081-.056c.027.001.068-.006.08.028zm9.584 0c-.027.097-.156.035-.23.056l-.028-.028c.042-.097.176-.034.258-.028zm-4.538.056c-.027.028-.014.112-.075.104-.047-.042-.129-.118-.027-.16.048-.02.069.029.102.056zm.184.258c-.04.027-.115-.021-.156-.077l.102-.209c.094.063.033.188.054.286zm7.637 3.836c-.122.077.013.215 0 .34-.163-.222-.292-.52-.563-.625-.047.132.095.265.102.417-.19-.242-.312-.535-.57-.737-.088.098.055.23.081.34-.216-.145-.278-.541-.59-.708-.108.139.102.271.102.423-.17-.25-.27-.57-.562-.709-.102.112.088.16.026.285-.175-.209-.237-.508-.515-.625-.122.055.013.131 0 .208-.17-.146-.237-.431-.462-.528-.094.09.035.209.028.32-.19-.223-.264-.564-.563-.66-.115.09.068.187.027.312-.183-.188-.183-.5-.46-.598-.089.056.02.167.02.257-.15-.132-.258-.563-.508-.444.046.07.072.146.072.236-.17-.18-.163-.486-.434-.577l-.054.056-.332-.32-.075.104c-.08-.125-.128-.291-.284-.368-.062.035-.047.105-.047.16-.109-.132-.15-.34-.333-.396-.047.028-.02.09-.027.132a.513.513 0 01-.204-.369 158.268 158.268 0 016.125 4.074zm.895-1.363c-.027.146.101.292.156.445-.143-.209-.265-.48-.516-.605l-.054.05.23.395c-.236-.118-.264-.52-.562-.653-.041.208.21.361.23.577-.155-.258-.298-.57-.563-.737-.094.063.035.153.028.236-.163-.173-.271-.486-.516-.577l-.047.048.258.5c-.21-.173-.306-.61-.59-.784l-.055.048c.082.146.129.32.183.473-.19-.237-.265-.604-.569-.73-.123.077.027.16 0 .258-.123-.174-.136-.444-.38-.521-.114.09 0 .209 0 .313-.19-.125-.135-.507-.414-.445v.105l-.277-.369c-.109.083.027.194.047.292-.129-.118-.197-.334-.36-.445.007.181.177.362.258.55-.19-.181-.326-.543-.59-.765-.136.097.095.174.055.292-.163-.112-.231-.327-.36-.444v.18c-.088-.125-.204-.243-.231-.396 1.56.874 3.086 1.82 4.639 2.71zm-11.123-2.39c-.014.028-.054.028-.075.028-.102-.07-.028-.174.02-.237.048.056.062.126.055.209zm1.05-.188c-.006.034.02.09-.027.104l-.101-.104c.027-.034.101-.034.129 0zm6.302.028c-.068.049-.17.02-.252.028v-.077c.103-.02.17.028.252.049zm-10.866.028l-.047.049-.461-.05c.169 0 .359-.118.508 0zm-1.64-.028c0 .16-.143.229-.279.16.06-.076.156-.188.278-.16zm6.334.056c-.007.077.02.139-.028.236-.06-.02-.054-.118-.054-.187.028-.021.041-.063.082-.05zm-4.076.077h-.156l.027-.056c.04.034.095.007.129.056zm3.099.5c-.136-.105-.176-.306-.15-.501l.048-.056c.068.174.089.396.102.556zm3.643-.397c-.177-.035-.394-.028-.516-.132.19.007.434-.035.516.132zm-6.92.056l-.182-.028v-.028h.183v.056zm7.28.152c-.17.05-.38-.069-.564-.104.183.035.44-.083.563.104zm-5.332.084c-.014.014-.028.028-.055.021-.067-.055.02-.125.027-.18.048.04.02.103.028.16zm-2.001-.055l-.176-.029v-.02h.176v.048zm7.583.208c-.183-.076-.44-.034-.584-.153.21.09.482-.098.584.153zm3.798-.132c-.034.014-.13.097-.156 0h.156zm-10.533.32a.133.133 0 01-.054-.132l.075-.077c.046.035.033.153-.02.209z" fill="#fff"/></svg>