<!-- by TradingView --><svg xmlns="http://www.w3.org/2000/svg" width="56" height="56"><path fill="#F0F3FA" d="M0 0h56v56H0z"/><path d="M8.5 21a1 1 0 011-1H14v1.5h-4V23h4v1h-4v3H8.5v-6z" fill="#0A4431"/><path d="M19 27h-3l1.5-3.5L19 27z" fill="#D61518"/><path fill-rule="evenodd" d="M22.5 21a1 1 0 011-1h4a1 1 0 011 1v2a1 1 0 01-1 1h-.09l1.37 3h-1.65l-1.37-3H24v3h-1.5v-6zm1.5 2v-1.5h2.5c.28 0 .5.22.5.5v.5a.5.5 0 01-.5.5H24z" fill="#0A4431"/><path d="M16.75 20h1.52l3.26 7h-1.65l-2.38-5.18L15.12 27h-1.65l3.28-7zm12.75 0H31l2.25 4.56L35.5 20H37v7h-1.5v-3.6L33.7 27h-.9L31 23.4V27h-1.5v-7zm8 0H39l2.25 4.56L43.5 20H45v7h-1.5v-3.6L41.7 27h-.9L39 23.4V27h-1.5v-7zm8.5 0h1.5v7H46v-7z" fill="#0A4431"/><path fill-rule="evenodd" d="M8.2 35.7l-.2-1a7.64 7.64 0 003.14-4.2H10v.5H9v-1.5h2.37c.06-.34.1-.67.13-1l1.9-.5a8.9 8.9 0 01-.3 1.5H16a1 1 0 011 1v.5h-1v-.5h-3.25c-.14.34-.3.68-.48 1h1.03c.2 1 1 2 1 2s.27-.2.62-.58c.26-.3.68-.92.68-.92H17c-.17.5-.5 1.5-2.2 2l2.2 1.5V37a7.2 7.2 0 01-5-5v-.02l-.01.02H12v3.92a3.94 3.94 0 001.5-.92v1c-.8.8-2 1-2.5 1v-3.61a8.8 8.8 0 01-2.8 2.31zM32 29v-.5l1.5-.5v1H35a1 1 0 011 1v1.5a1 1 0 01-1 1h-5V36c.5 0 1.83-.83 2-1v1s-1 .6-2 1h-1v-8h3zm3 2.5h-5V31h5v.5zm0-1h-5V30h5v.5zM31 33h1.5c.17.33.6 1.1 1 1.5.17 0 .7-.3 1.5-1.5h1.5c-.17.5-.8 1.6-2 2 .17.33.8.9 2 1l.5 1h-.5a6.3 6.3 0 01-5.5-4zm-5 4l1.5-1.4c-.67-.87-2-2.6-3.5-3.1V32h3v-1h-3v-3h-2v3h-3v1h1.4c-.45 2.08-1.44 3.2-1.9 3.5v1c2.07-.83 3.18-3.02 3.5-4.32V37h2v-4.09c.86.76 2 2.03 2 4.09zm-5-8h-1.5l1 1.5h1c-.17-.17-.5-.7-.5-1.5zm5.5 0H25c0 .8-.33 1.33-.5 1.5h1l1-1.5zM39 28h7a1 1 0 011 1v2a1 1 0 01-1 1h-7v-4zm2 1h4v2h-4v-2zm1 3.5h-4V37h4a.5.5 0 00.5-.5V33a.5.5 0 00-.5-.5zm-1 1h-1.5V36H41v-2.5zm2.5-1h4c.28 0 .5.22.5.5v3.5a.5.5 0 01-.5.5h-4v-4.5zm1.5 1h1.5V36H45v-2.5z" fill="#0A4431"/></svg>