<!-- by TradingView --><svg width="56" height="56" xmlns="http://www.w3.org/2000/svg"><path fill="#B82C35" d="M0 0h56v56H0z"/><path d="M36.518 22.004L35.089 22l-.224 1.01c-.029.005-.063-.028-.094-.093-.167-.355-.633-.637-1.28-.78-.768-.167-1.697-.122-2.452.081-.983.262-1.693.868-1.929 1.646-.238.789-.065 1.443.49 1.849.633.458 1.441.515 2.135.84.366.163.508.38.426.65-.272.91-1.315.524-1.426-.203h-2.192s-.035.59 0 .736c.133.6.465.944 1.119 1.156.693.225 1.883.248 2.684.053 1.134-.278 2.142-1.087 2.269-2.294.1-.952-.41-1.51-1.701-1.868-.402-.107-1.392-.222-1.469-.702-.08-.538.647-.826 1.068-.617.253.13.244.536.244.536h2.156l.087-.463h1.34s-.1.31-.274 1.226c-.154.805-.28 1.617-.429 2.424-.182 1.017.022 1.654 1.14 1.775.468.054 2.723.043 2.723.043l-.477-1.596a6.157 6.157 0 00-.293-.014c-.318-.008-.454-.059-.536-.191-.136-.218.007-.562.045-.792l.551-2.875 1.537.014L40.66 22c0 .02-1.609-.01-1.609-.01l.333-1.99h-2.486l-.38 2.004zM6.732 20l-1.548 9h2.511l.665-3.716 3.048-.014.295-1.829H8.706l.242-1.448 3.23.007.441-2H6.732zM13.423 20l-1.683 9h2.428l1.621-9h-2.366z" fill="#fff"/><path d="M51.557 22.06c-.37.02-.565.07-.86.223-.217.112-.515.36-.654.544-.038.048-.215.358-.276.358-.063 0 .089-1.185.089-1.185h-2.33l-1.079 6.244c-.076.465-.082.479-.142.484-.042.006-.096-.05-.216-.24-.36-.557-.397-.704-.31-1.203.12-.647.227-1.297.344-1.944.256-1.39.29-1.72.208-2.077-.168-.72-.798-1.007-1.474-1.142-.378-.073-1.62-.073-2.003.003-.798.155-1.434.499-1.803.975a2.551 2.551 0 00-.503 1.184l2.119-.037c.17-.583.29-.735.65-.828.333-.089.759.028.759.436 0 .243-.145.564-.307.68-.448.315-1.123.338-1.653.456-1.207.26-2.062.769-2.346 2.012-.283 1.256.415 2.072 1.661 2.072.42 0 .765-.076 1.102-.242.228-.113.509-.339.625-.5.235-.326.18.667.18.667h5.379c.153-.228.204-.827.204-.827.043-.237.083-.465.21-1.198.364-2.082.355-2.046.534-2.32.227-.343.549-.512 1.088-.569.218-.024.878.015.878.015L52 22.1c0-.043-.145-.057-.443-.04zm-7.83 3.706c.016.048-.046.46-.137.866-.13.586-.36.867-.767.946-.647.132-.778-.598-.545-1.068.086-.176 1.323-1.046 1.448-.744zM16.057 23.523c-.12.245-.227.733-.227.733l2.11.028c.077-.306.167-.653.477-.8.384-.187.81-.082.912.222.117.35-.129.757-.432.913-.139.07-.568.178-1.32.327-.637.13-1.006.245-1.37.431-.676.344-1.022.849-1.175 1.717-.23 1.299.34 1.981 1.661 1.981.443 0 .79-.079 1.148-.256.142-.074.471-.322.53-.403.078-.11.171-.19.2-.172.11.054.05.756.05.756h3.049s-.498-.82-.549-.937c-.14-.299-.136-.409.009-1.2.152-.831.286-1.665.446-2.495.599-2.972-4.473-2.96-5.519-.845zm2.968 2.232c0 .26-.096.542-.142.798-.088.493-.301.84-.596.97-.27.115-.529.098-.694-.049-.224-.203-.204-.741.04-1.113.16-.234.39-.367.858-.485.047-.012.534-.178.534-.121zM24.535 22.086a2.273 2.273 0 00-.739.23c-.19.094-.292.17-.485.361a3.808 3.808 0 00-.367.42c-.238.355-.522 1.043-.642 1.553-.238 1.037-.326 1.807-.27 2.362.08.753.299 1.203.708 1.463.616.391 1.715.318 2.306-.158.15-.121.29-.26.39-.39.039-.05.081-.092.096-.092.037 0 .03.203-.015.417-.022.104-.06.316-.085.47-.09.545-.213.83-.412.973-.193.133-.562.178-.806.096a.392.392 0 01-.276-.333l-.014-.115-1.076-.009c-.6-.003-1.091.006-1.105.02-.048.048-.031.629.023.792.218.665.886.983 2.158 1.029.523.02 1.199-.015 1.451-.07.435-.1.625-.15.65-.173a.103.103 0 01.063-.025c.034 0 .39-.164.506-.234.13-.079.409-.307.534-.437.312-.335.588-.916.659-1.4a4.76 4.76 0 01.042-.24c.015-.07.049-.248.071-.395.054-.327.114-.662.16-.887.017-.093.048-.277.07-.41a196.82 196.82 0 01.281-1.607c.057-.317.114-.647.129-.731.014-.085.048-.27.07-.409.026-.14.066-.355.086-.48.02-.123.08-.453.13-.732.051-.279.094-.552.094-.606l.003-.098-1.128-.009-1.13-.005-.014.076a3.364 3.364 0 00-.09.504c-.027.285-.08.307-.169.073-.165-.436-.497-.704-.988-.797-.154-.028-.63-.028-.87.003zm1.286 1.646c.125.053.23.177.27.315.066.231.029.812-.096 1.474-.04.212-.069.33-.18.75-.033.121-.187.45-.26.552a.778.778 0 01-.18.16c-.102.068-.144.077-.343.077-.267 0-.352-.042-.449-.223-.057-.107-.063-.152-.06-.58.006-.494.057-.866.2-1.424.133-.538.283-.837.5-1.008.158-.127.422-.17.598-.093zM34.467 31s-.266 1.362-.335 1.75c-.063.355-.125.724-.14.818-.073.484-.162.97-.255 1.45-.059.314-.193.982-.193.982h1.363c1.312-.003 1.37-.006 1.534-.062.531-.186.858-.451 1.045-.835.034-.07.074-.149.088-.174.063-.119.145-.578.128-.727-.042-.429-.236-.666-.648-.8-.056-.018-.07-.102-.017-.102.017 0 .114-.04.21-.088.424-.203.694-.687.694-1.248 0-.313-.057-.468-.239-.654-.13-.13-.433-.262-.865-.31h-2.37zm1.761.944c.202.093.281.316.202.578-.049.155-.259.37-.407.409-.144.039-.454.002-.454.002l.207-1.023a.874.874 0 01.452.034zm-.176 1.976c.116.107.156.206.156.386-.003.462-.31.77-.775.77-.273 0-.267.01-.19-.443.082-.49.13-.727.156-.77 0 0 .567-.024.653.057zM46.37 31l-.858 5.004h1.358l.304-1.092.654 1.092 1.46-.002s-.507-1.338-.799-1.99c-.096-.213-.093-.225.194-.532.88-.941 1.133-1.231 1.11-1.254l-1.443-.011-.985 1.226c-.028 0 .358-2.441.358-2.441H46.37zM38.597 32.555a1.266 1.266 0 00-.287.679h1.161c.069-.142.121-.317.25-.414.111-.076.395-.082.478-.009.139.127.09.52-.083.672-.108.096-.273.15-.786.25-.455.094-.674.161-.895.285-.418.231-.617.629-.62 1.226-.002.327.026.412.194.587.412.44 1.266.288 1.664-.082a.236.236 0 01.145-.07c.014 0 .026.05.026.115 0 .101.057.206.057.206h1.675a.757.757 0 00-.096-.133 1.62 1.62 0 01-.262-.532.705.705 0 01.017-.234c.017-.085.043-.223.057-.308.02-.14.065-.4.185-1.042.108-.6.136-1.016.056-1.219-.088-.23-.411-.434-.798-.493-.686-.11-1.657-.068-2.138.516zm1.454 1.819c-.006.208-.08.49-.168.64-.136.227-.451.306-.61.149-.071-.07-.083-.105-.083-.234 0-.153.074-.355.165-.454.06-.065.295-.189.366-.192a.596.596 0 00.15-.036c.166-.065.186-.051.18.127zM44.246 31.952c-.193.054-.363.15-.51.288a.862.862 0 01-.154.124l.04-.364s-1.127-.003-1.358 0c-.044.291-.096.581-.148.87-.125.7-.241 1.605-.37 2.304-.047.265-.113.826-.113.826H43c.107-.63.214-1.282.326-1.911.134-.767.19-1.145.33-1.212.34-.16.533.077.477.391-.075.436-.15 1.076-.227 1.511-.073.389-.185 1.221-.185 1.221h1.363s.28-1.834.426-2.636c.15-.826.125-1.088-.13-1.288-.282-.224-.813-.21-1.134-.124zM14.026 31.301a2.215 2.215 0 01-.327.045 9.97 9.97 0 00-.994.161 26.41 26.41 0 00-1.355.338c-.994.307-2.082.705-2.18.792-.035.031-.032.037.019.037.031 0 .159-.017.281-.04.344-.062.511-.076 1.233-.098.968-.029 2.315.048 2.925.166.466.093.986.211 1.108.254.04.014.148.045.241.073.284.082 1.12.36 1.222.406.068.03.707.276.81.31.039.011.28.101.539.197.485.183 2.008.69 2.366.79.113.033.275.078.36.1.18.051.205.06.668.181.463.118.965.228 1.363.299 1.636.284 2.548.279 4.346-.028.46-.08.562-.102.994-.206.318-.08 1.07-.322 1.23-.4a9.45 9.45 0 00.147-.068c1.065-.476 2.27-1.302 3.02-2.072.119-.123.218-.245.218-.273 0-.065-.023-.053-.48.217-.372.223-1.187.645-1.394.724-.594.223-1.026.347-1.761.51-.2.046-.88.133-1.335.175-.534.048-2.025.048-2.684 0-.543-.04-1.335-.13-1.548-.174a9.317 9.317 0 01-1.15-.29c-.753-.229-2.09-.697-2.236-.781a.26.26 0 00-.082-.029.435.435 0 01-.12-.039c-.278-.124-1.877-.674-2.32-.798a28.494 28.494 0 00-1.491-.366c-.435-.09-.54-.101-1.05-.113a5.632 5.632 0 00-.583 0z" fill="#fff"/><path d="M9.453 33.525a1.558 1.558 0 01-.284.03 9.17 9.17 0 00-1.278.201c-.664.17-.974.279-1.562.56-.338.161-.906.488-1.29.748-.431.287-1.039.764-1.039.811 0 .051.006.051.179-.02.082-.03.179-.07.219-.087.125-.048.548-.188.667-.217.063-.014.267-.067.455-.112.644-.164 1.153-.234 2.144-.3.332-.022 1.423.054 1.874.13a31.996 31.996 0 012.628.618c.048.01.187.05.312.084s.267.074.313.085l.241.07.293.088c.255.07.63.183.687.208.031.011.363.121.738.242.375.119.722.234.767.251.117.048.259.096.412.141.168.048.406.119.568.167a19.568 19.568 0 001.69.411 21.55 21.55 0 003.014.341c1.181.06 2.116-.034 3.203-.313.378-.098.884-.262 1.034-.335.026-.011.094-.042.148-.068.968-.434 2.244-1.147 2.244-1.251 0-.05-.094-.045-.222.008-.346.147-1.042.339-1.502.417-.838.144-1.946.18-3.275.108-1.11-.063-1.761-.136-2.599-.288-.077-.014-.474-.11-.88-.211-.407-.105-.784-.2-.838-.212-.088-.022-.174-.048-.583-.169a11.092 11.092 0 00-.227-.067 67.848 67.848 0 01-.909-.3c-.42-.14-.804-.267-.849-.284a12.251 12.251 0 01-.585-.208 8.016 8.016 0 00-.355-.127c-.14-.048-.304-.107-.36-.13-.06-.022-.157-.056-.214-.079-.35-.132-.673-.236-1.23-.394-1.545-.44-1.982-.519-3.067-.544a10.448 10.448 0 00-.682-.003z" fill="#fff"/></svg>