<!-- by TradingView --><svg width="56" height="56" xmlns="http://www.w3.org/2000/svg"><path fill="#006630" d="M0 0h56v56H0z"/><path fill="#fff" d="M4 20h48v16H4z"/><path fill="#006630" d="M31.001 21h20v14h-20z"/><path d="M46 31v-6h1v3.156L48.452 27h1.17l-1.656 1.477L50 31h-.996s-1.394-1.715-1.604-1.829c-.262-.142-.385.294-.4.389V31h-1zM42 31v-4h1v.603c.032-.204.327-.61 1.027-.601.7.008.928.718.973 1.072V31h-1v-2.325c.003-.207-.061-.675-.446-.675-.44 0-.549.481-.554.675V31h-1zM37.473 28.282h1.154c0-.261.295-.482.743-.482.409 0 .63.238.63.392 0 .096-.061.283-.24.326-.18.042-.957.087-1.222.108-1.199.159-1.235.9-1.235 1.218 0 .318.335 1.138 1.324 1.148.854.008 1.284-.33 1.373-.442V31h1.007v-3.036c0-.337-.275-.962-1.736-.962-1.497 0-1.807.835-1.798 1.28z" fill="#fff"/><path d="M27.771 26H26.587v1h-.576v1h.576v1.965c0 .833.581 1.037.872 1.035h.989v-1c-.586.082-.695-.197-.677-.33V28h.677v-1h-.677v-1zM25.459 28h-1.12c0-.376-.335-.442-.573-.442-.238 0-.482.16-.501.343-.024.229.143.432 1.264.52.896.072 1.089.792 1.073 1.144.02.474-.32 1.425-1.836 1.435-1.517.01-1.813-.953-1.766-1.435h1.122c.029.396.286.512.585.568 0 0 .263.017.446-.086.183-.102.41-.726-.745-.838-1.154-.112-1.38-.787-1.408-1.143-.036-.444.278-1.33 1.766-1.32 1.488.01 1.693.783 1.693 1.254zM19 31v-4h1v.632c.295-.718 1.208-.632 1.615-.632v.98l-.69.02c-.489 0-.925.527-.925 1.085V31h-1zM18.5 27h-1v4h1v-4zM18.5 25h-1v1h1v-1zM13 31v-6h4v1h-3v1h2.652v1H14v3h-1zM11 31v-7H9.492c-.106.857-1.039.905-1.492 1v2h1v4h2z" fill="#006630"/><path d="M32 31v-6h3.494c.736 0 1.288.651 1.321 1.457.027.645-.424 1.126-.652 1.286.262-.046.796.185.836 1.474.04 1.29-.962 1.783-1.505 1.783H32z" fill="#fff"/><path d="M33.526 27.496V26h1.387a.842.842 0 01.446.748.795.795 0 01-.446.748h-1.387zM33.526 29.913V28.45h1.578c.165.063.497.299.508.732.011.433-.334.668-.508.732h-1.578zM38.477 29.71c-.052-.499.994-.679 1.523-.706.045.801-.356 1.081-.563 1.12-.298.07-.908.084-.96-.414z" fill="#006630"/></svg>