<!-- by TradingView --><svg width="56" height="56" xmlns="http://www.w3.org/2000/svg"><path fill="#AB1355" d="M0 0h56v56H0z"/><path d="M27.845 24.302c.008-.113.11-.163.16-.174.076 0 .138.116.16.174l.117 1.656.852.588c.036.033.1.123.075.218-.026.096-.124.098-.17.088l-1.397-.458c.064-.65.194-1.978.203-2.092z" fill="#fff"/><path d="M26.518 25.573c-.061.818.6 1.494.938 1.73.035.043.09.153.035.25-.056.098-.205.07-.273.043-.805-.372-1.378-1.28-1.49-2.26-.09-.783.359-1.432.595-1.658L25.728 23h4.33l-.56.678c.56.252.644 1.478.616 2.06 0 .08-.035.247-.175.264-.14.017-.18-.136-.181-.215.02-1.315-.756-1.909-1.652-1.916-.895-.007-1.51.68-1.588 1.702z" fill="#fff"/><path d="M30.4 28.674c.317.016.409-.137.415-.216 0-.172-.276-.251-.414-.269-.602-.1-2.038-.3-2.973-.314-.936-.013-3.004.124-3.92.195.41-4.368 2.48-7.59 3.463-8.655h1.964c2.87 3.068 3.843 7.623 3.971 9.518-.002.086.03.258.172.258.143 0 .18-.093.18-.14-.063-2.173-.405-3.912-.568-4.51.24-.61.359-1.237.388-1.541h-.948c-.768-1.714-1.925-3.542-2.408-4.175l.491-.825h-4.558l.519.825c-.978 1.049-2.011 3.265-2.405 4.175h-.954c.044.732.276 1.288.387 1.54-.52 1.532-.604 4.278-.581 5.46 3.098-1.787 7.384-1.346 7.78-1.326z" fill="#fff"/><path d="M20 12v29.65c0 .06.103.35.518.35.415 0 .482-.259.482-.35V13h14v30l-7-3.36-8 3.543V44h11.723c.188 0 .277-.204.277-.377 0-.173-.163-.309-.246-.309l-8.41-.21L28 41.031 36 44V12H20z" fill="#fff"/><path d="M27.71 14.263l-.1 3.44h.791c-.04-1.12-.11-3.343-.11-3.44 0-.083-.024-.53-.3-.547-.221-.012-.28.36-.282.547zM23.884 31.329l.135 8.435c.002.123.074.225.197.236.098.008.16-.154.178-.236.16-2.178.497-6.724.57-7.478.09-.942.464-1.081.779-1.143.252-.05.614.165.764.278-.055-.473-.405-1.421-1.364-1.421-.959 0-1.239.886-1.259 1.329zM26.912 31.196l.126 7.592c.002.11.07.202.185.212.093.007.15-.139.167-.212.15-1.96.467-6.052.535-6.73.084-.848.436-.974.731-1.03.237-.044.577.15.718.251-.051-.426-.38-1.279-1.28-1.279-.901 0-1.164.797-1.183 1.196zM29.897 31.231l.127 7.819c.001.113.07.208.184.218.093.008.15-.142.167-.218.15-2.02.468-6.232.535-6.93.084-.874.436-1.003.732-1.06.236-.046.577.152.717.257-.051-.439-.38-1.317-1.28-1.317s-1.163.82-1.182 1.231z" fill="#fff"/></svg>