<!-- by TradingView --><svg width="56" height="56" xmlns="http://www.w3.org/2000/svg"><path fill="#0F7C40" d="M0 0h56v56H0z"/><path d="M44.558 18.185c-2.152-2.16-5.238-3.398-8.465-3.398-1.576 0-3.141.258-4.635.763a.407.407 0 00-.232-.338c-.04-.018-.984-.45-1.946-.047a2.162 2.162 0 00-.434.244c.08-.156.14-.332.14-.51l.001-.09c.004-.293-.01-.497-.226-.845-.216-.349-.625-.718-.67-.761-.277-.28-.28-.262-.54 0-.08.079-.5.463-.657.794-.156.33-.217.572-.217.861 0 .205.042.383.131.554l-.075-.049c-.6-.356-1.336-.415-2.187-.174a.405.405 0 00-.293.368 14.17 14.17 0 00-4.387-.687c-3.315 0-6.441 1.229-8.577 3.372C9.107 20.432 8 23.442 8 27.19c0 3.566.956 6.332 2.84 8.224 1.829 1.834 4.249 2.488 5.904 2.488 1.053 0 1.722-.098 2.146-.227.234 1.249 1.19 3.19 4.796 3.739 3.577.543 4.012 1.305 4.015 1.312 0 0-.01-.02-.017-.06a.406.406 0 00.548.305c.211-.085.301-.23.355-.317.087-.142.355-.574 3.966-1.255 3.81-.72 4.544-2.81 4.668-3.852 1.935.517 4.687.324 6.953-1.269C45.92 35.052 48 32.544 48 27.561c0-3.93-1.158-7.084-3.442-9.376z" fill="#409D3E"/><path d="M27.856 17.89s3.225-2.697 8.237-2.697c5.011 0 11.502 3.258 11.502 12.368S40.447 38.32 36.832 37c0 0 .452 3.091-4.354 3.999-4.807.907-3.985 1.429-4.396 1.594 0 0-.17-.95-4.335-1.582-4.165-.632-4.493-3.189-4.52-3.959 0 0-.265.443-2.483.443-2.219 0-8.34-1.402-8.34-10.306 0-8.905 6.491-11.914 11.462-11.914 4.97 0 7.99 2.614 7.99 2.614z" fill="#FD0"/><path d="M27.822 13.505s-.431.391-.561.666c-.13.275-.179.46-.179.688 0 .226.055.412.343.694.288.282.445.611.445.611s.288-.508.343-.556c.054-.048.37-.42.37-.708 0-.289.027-.413-.165-.722-.191-.31-.596-.674-.596-.674zm.384 3.519s1.863-1.141 2.85-1.444c0 0-2-.934-2.85 1.444zm-3.549-1.444s1.398.564 2.809 1.416c0 0-.48-2.076-2.809-1.416z" fill="#FD0"/><path d="M27.895 20.101s3.795-3.351 9.344-3.351c5.548 0 9.511 4.566 9.511 10.18 0 5.613-4.38 9.802-10.012 7.917 0 0 .674 3.027-3.389 3.823-4.062.796-4.842 1.006-5.245 1.83 0 0-.094-1.046-3.683-1.465-3.59-.418-5.092-1.591-5.008-4.084 0 0-.752.482-2.963.482-2.212 0-7.2-1.931-7.2-8.58 0-6.65 5.063-10.058 9.82-10.058 4.756 0 8.825 3.306 8.825 3.306z" fill="#EE3124"/><path d="M33.184 32.426l.076.08.205-.124s.267-.224.24.125c-.027.35-.069 1.192-.069 1.192s-.048.505.213.505c.26 0 .822-.63.952-.86 0 0-.404 1.859-1.055 1.859-.254 0-.35-.262-.288-.394l-.054-.005-.24.143s-.069.437.424.437c.494 0 1-.493 1.281-1.286.281-.792.713-2.06.713-2.06l-.055-.036-.35.055s-.184.737-.424 1.124c-.24.387-.534.668-.651.668-.116 0-.103-.094-.096-.244l.069-1.31s.02-.512-.343-.256l-.548.387zm-.788-1.011s.254-.1.37-.163l.055.07-.199.88.528-.026-.055.231h-.507s-.234.923-.246 1.305c-.008.205.054.224.253.1l.295-.188.054.093s-.61.487-.815.487c-.205 0-.205-.124-.178-.293.028-.168.295-1.504.295-1.504h-.39l-.014-.062.438-.175.116-.755zm-1.822.992l.068.081.206-.118s.274-.194.192.137l-.343 1.373s-.11.324.178.324c.137 0 .59-.324.692-.399l-.048-.1-.226.15s-.26.175-.178-.162c.082-.337.342-1.46.342-1.46s.062-.394-.294-.182c-.356.212-.589.356-.589.356zm.918-1.441s-.274.024-.274.287c0 .193.192.206.192.206s.267.018.267-.3c0-.194-.157-.194-.185-.194zm-1.877.074s.35 0 .768-.168l.068.044-.575 2.82s-.13.4.424-.031l.055.087s-.514.43-.76.43c-.247 0-.138-.28-.117-.411.02-.13.486-2.459.486-2.459s.137-.274-.35-.2c.001 0-.054-.006.001-.112zm-1.605 2.69c-.295.268-.39.218-.364-.093.028-.313.096-.575.281-1.093.185-.517.877-.23.877-.23-.082.648-.5 1.148-.794 1.416zm1.137-1.722l-.117.093s-.242-.115-.445-.093c-.77.082-.918.43-1.144 1.03-.226.598-.199 1.185.014 1.185.431 0 1.116-.936 1.116-.936-.02.1-.287.911-.02.911.267 0 .712-.424.712-.424l-.048-.063c-.452.356-.424.081-.41.013.013-.07.424-1.66.424-1.66l-.082-.056zm-4.355.424l.664-.393s.295-.144.22.23c-.076.375-.288 1.355-.288 1.355s-.069.312.068.312 1.124-.736 1.213-1.835c0 0 .295-.118.37-.031 0 0-.384 1.354-.397 1.542-.014.187-.124.505.424.1l.055.1s-.363.274-.541.355c-.178.081-.425.106-.336-.262.09-.368.185-.743.185-.743s-.747 1.067-1.267 1.067c-.233 0-.2-.212-.178-.324.02-.113.294-1.392.294-1.392s.144-.374-.418-.006l-.068-.075z" fill="#fff"/><path d="M24.757 31.967c0 2.092-1.95 2.487-1.95 2.487s2.159.697 2.845.697c.686 0 .627-.596.627-.596h.158c0 .202.05.945-.974.945s-2.576-.807-3.122-.807c-.547 0-.527.495-.527.495h-.2c0-.56.329-.67.329-.67-.199 0-1.492-.018-1.492-1.744 0-2.459 2.466-2.412 2.466-2.412.518 0 1.84.11 1.84 1.605zm-1.979-1.385s-1.77-.092-1.77 2.239c0 1.358.875 1.459 1.343 1.459.467 0 1.829-.138 1.829-2.34 0-1.266-1.133-1.358-1.402-1.358zm22.133-2.595L44.136 29s-.83-.14-1.385-.387c-.555-.246-1.002-.461-1.002-1.334v-1.991s.023-.424.564-.702c.541-.278 1.106-.467 1.106-.467s.685-.316 1.062.164l.463.474s.452.607-.172 1.163c-.623.556-1.62 1.236-1.62 1.236s-.219.184.041.36c.26.178.894.396 1.716.471zm-1.399-1.769s.243-.105.243-.396c0-.29-.382-1.003-.56-1.003-.178 0-.2.469-.2.469v1.205l.517-.275zm-4.262-2.586l1.25-.628v1.25l.88-.004v.868l-.88.004v1.842s.01.875.982 1.02L40.722 29s-.507-.155-.904-.409c-.398-.252-.568-.366-.568-1.062v-2.392h-.837v-.887h.837v-.618zm-5.014 1.187L35.387 24s.37.187.582.44l.48-.266s.302-.17.576-.17c.273 0 .47.158.71.405.24.246.28.252.28.847v1.692s-.068.973.624 1.055l-.786.997s-.397-.105-.72-.434c-.321-.328-.367-.455-.367-.771v-2.622s-.043-.113-.228-.113-.397.29-.397.29V29h-1.25v-3.498s-.072-.246-.353-.455l-.302-.228zm-2.459 2.606v-1.896s.094-.344.437-.344c.344 0 .49.152.49.152v2.217s-.084.194-.345.222c-.261.029-.486-.174-.582-.351zm-.75-2.719c-.56.298-.5.727-.5.727v2.117c0 .575.412.815.412.815s.123.2.562.498c.438.297 1.02.082 1.02.082s.795-.485 1.151-.7c.357-.215.28-.588.28-.588v-2.45c0-.506-.253-.608-.253-.608s-.232-.158-.644-.43c-.41-.271-.877-.05-.877-.05s-.588.29-1.15.587zm-7.795-.657L24.322 23s.349.111.842.503c0 0 .52-.503 1.185-.503.541 0 .966.402.966.402s.199-.402.911-.402c.713 0 1.024.48 1.024.834v3.221s.037.797.88 1.012l-.761.933s-.514-.093-.897-.402c-.384-.31-.472-.411-.472-.879v-3.253c0-.138-.158-.214-.253-.216-.377 0-.372.216-.372.216v4.532h-1.25v-4.323s.06-.425-.276-.425c-.335 0-.349.216-.349.216v4.532h-1.25v-4.184s-.127-.34-.456-.486a6.832 6.832 0 01-.562-.279zm-2.732-.354L21.75 23v3.973s-.148.942.708 1.132L21.75 29s-.405-.158-.788-.493c-.384-.335-.457-.295-.457-.997l-.005-3.815zm-2.51 2.934v-1.27s-.036-.33.143-.33c.178 0 .554.582.554.873 0 .29-.37.48-.37.48l-.326.247zm.19 1.024c-.26-.177-.04-.36-.04-.36s.815-.696 1.438-1.252.171-1.163.171-1.163l-.45-.595c-.377-.48-1.062-.164-1.062-.164s-.577.31-1.119.588c-.54.278-.377.702-.377.702V27.4c0 .873.25.946.805 1.193.555.246 1.384.407 1.384.407l.785-.892c-.822-.076-1.274-.278-1.535-.455zm-4.539-3.37v3.591h.39s.685.082.685-.847v-2.099s.035-.784-1.04-.784c-.967 0-2.152.373-2.152.373l.486-1.29s.52-.145.96-.19c.438-.043 1.417-.05 1.883.09.466.138 1.158.587 1.158 1.744v2.738S16.073 29 14.17 29h-2.46s.658-.405.658-1.176V24.77l1.274-.487z" fill="#fff"/></svg>