<!-- by TradingView --><svg width="56" height="56" xmlns="http://www.w3.org/2000/svg"><path fill="#03AEEF" d="M0 0h56v56H0z"/><path d="M29 25v6.1c0 .489-.502.9-1 .9s-1-.386-1-.9V25h-4.728c-1.52-.026-2.522.931-2.522 2.423 0 1.491 1.001 2.526 2.522 2.577h1.678c.63 0 .986.54.986 1.028 0 .489-.3.972-.986.972h-1.678c-2.464-.051-4.483-2.134-4.483-4.577s1.992-4.397 4.457-4.423h8.1c.524 0 .891.486.891 1 0 .489-.393 1-.89 1H29zM6 31.113c0 .481-.502.887-1 .887-.498-.025-1-.406-1-.887v-7.23a.89.89 0 01.891-.887h4.247c.498 0 .918.522.918 1.004s-.42 1-.918 1H6v6.113zm1.273-4.631c-.472 0-.813.329-.813.76 0 .43.367.76.786.76H9.06c.445 0 .786-.33.786-.76 0-.431-.34-.76-.786-.76H7.273zM14.093 29c.446 0 .813.344.813.775 0 .431-.367.76-.813.76h-1.1c-.447 0-.813-.329-.813-.76 0-.43.367-.8.812-.775h1.101zm-2.202-3.896l-2.805 5.648a.868.868 0 00.42 1.166c.445.203.996.025 1.205-.405l2.805-5.649 2.805 5.648c.21.431.76.609 1.206.406a.868.868 0 00.42-1.166l-2.779-5.648-.865-1.698S14.119 23 13.516 23c-.576 0-.786.406-.786.406l-.839 1.698zM37.765 29.744c0 1.244-1.022 2.256-2.28 2.256h-3.172c-.499 0-.918-.507-.918-1s.414-1 .918-1h2.716c.436 0 .725-.43.315-.697l-3.189-2.335c-.21-.181-.76-.518-.76-1.582A2.393 2.393 0 0133.807 23h2.621c.498 0 .918.481.918 1 0 .493-.42 1.026-.918 1h-2.425c-.507 0-.635.366-.367.697l3.29 2.438c.525.364.84.856.84 1.608zM44.233 26.728c.445 0 .786.334.786.771 0 .438-.34.808-.786.808h-2.019a.796.796 0 01-.786-.807c0-.438.34-.772.812-.772h1.993zM39 23.875c0-.488.398-.9.897-.874h11.212c.524 0 .89.485.89.999 0 .488-.392 1-.89 1H49v6.1c0 .489-.502.9-1 .9s-1-.386-1-.9V25h-6v5h2.742c.498 0 .917.512.917 1s-.419 1-.917 1h-3.845a.902.902 0 01-.897-.9v-7.225z" fill="#F6F8FD"/></svg>