<!-- by TradingView --><svg width="56" height="56" xmlns="http://www.w3.org/2000/svg"><path fill="#003B66" d="M0 0h56v56H0z"/><path d="M34.123 31.585a4.774 4.774 0 01-3.298 1.319 4.794 4.794 0 113.265-8.302l1.699-2.855a8.072 8.072 0 10.063 12.677l-1.73-2.839zM15 24v-4H4v16.001h4v-5h6v-4H8v-3h7zM20.988 36H17V20h3.988v16zM44.062 32.91a4.794 4.794 0 11-.001-9.587 4.794 4.794 0 010 9.588zm0-12.864a8.071 8.071 0 00-8.073 8.072 8.071 8.071 0 008.073 8.073 8.072 8.072 0 100-16.146z" fill="#fff"/></svg>