<!-- by TradingView --><svg width="56" height="56" fill="none" xmlns="http://www.w3.org/2000/svg"><path fill="#F0F3FA" d="M0 0h56v56H0z"/><path fill-rule="evenodd" clip-rule="evenodd" d="M26 26v-5h4v5c4.886.07 5 4 5 4h-5v5h-4v-5c-4.508-.285-5-4-5-4h5zm-3.168 19.164c1.463.557 3.146.836 5.023.836h.29c1.913 0 3.63-.295 5.12-.864C37.395 43.598 40 39.96 40 34.303V21.597c0-5.693-2.645-9.246-6.829-10.762-1.465-.552-3.143-.835-5.025-.835h-.29c-1.914 0-3.634.293-5.117.867C18.605 12.405 16 15.942 16 21.597v12.706c0 5.7 2.648 9.349 6.832 10.86z" fill="#64656A"/></svg>