<!-- by TradingView --><svg xmlns="http://www.w3.org/2000/svg" width="56" height="56"><path fill="#F0F3FA" d="M0 0h56v56H0z"/><path d="M37.2 27l-.35 2.65.04.04a3.29 3.29 0 012.37-.91c1.2 0 2.12.46 2.76 1.17.68.77.98 1.81.98 2.83 0 .6-.12 1.17-.37 1.69A4.34 4.34 0 0138.5 37c-.6 0-1.15-.08-1.7-.23a4.3 4.3 0 01-1.42-.7c-.41-.31-.74-.7-1-1.17A4.85 4.85 0 0134 33h2.46c.12 1.16.8 1.9 2.04 1.9 1.22 0 2.04-.96 2.04-2.12 0-1.23-.87-2.2-2.1-2.2-.78 0-1.39.31-1.85.94h-2.21l.86-6.52h7.16l-.19 2h-5z"/><path d="M23.02 25h3.11l2.35 3.8 2.5-3.8h2.94l-3.9 5.78L34.26 37h-3.19l-2.6-4.2L25.7 37h-3l4.25-6.22L23.02 25z"/><path d="M9.93 15.01h10.62c2.06.09 3.71.29 5 .62 3.7.83 6.76 3.59 7.81 7.21.03.1-.1.17-.17.1a8.79 8.79 0 00-4.38-2.43 20.44 20.44 0 00-4.1-.51H16l.34 2.3c.62 4.07 1.05 6.95 1.5 8.66l.16.6c.61 1.99 1.92 4.1 3.59 5.21.08.06.04.2-.07.2-4.19-.43-7.88-3.73-9.15-7.86-.08-.24-.14-.48-.2-.72-.54-2.1-1.07-5.6-1.82-10.56L9.93 15z" fill="#5FAF2D"/></svg>