<!-- by TradingView --><svg width="56" height="56" xmlns="http://www.w3.org/2000/svg"><path fill="#F0F3FA" d="M0 0h56v56H0z"/><path d="M15.43 29.105c-2.221-3.505 1.752-9.93 8.877-14.25 3.62-2.22 7.359-3.505 10.393-3.855h2.572c1.87.234 3.27.934 4.088 2.103 1.286 1.985.468 4.906-1.751 7.943l1.869.467-4.789 3.387-1.167-5.607 1.751.701c0-.934-.116-1.751-.35-2.103-1.285-1.985-5.49-1.519-9.463.934-3.97 2.453-6.188 7.71-4.904 9.579 1.166 1.869 4.906 1.635 8.76-.468 0 0 .235-.116.117.116-3.857 2.103-7.709 3.271-10.746 3.271-2.456.001-4.325-.7-5.257-2.218z" fill="#2279BB"/><path d="M13.559 43.004c-1.168-1.985-.468-4.906 1.751-7.825l-1.869-.468 4.906-3.504 1.054 5.723-1.752-.701c0 .934.116 1.752.35 2.103 1.283 1.985 5.49 1.518 9.461-.934 3.97-2.452 6.19-7.71 5.022-9.695-1.17-1.751-5.024-1.519-8.76.584h-.117s-.233.117-.002-.116c6.776-3.855 13.785-4.438 15.887-1.052 2.22 3.505-1.752 9.811-8.877 14.25-4.207 2.57-8.41 3.854-11.682 3.854-2.452 0-4.438-.7-5.372-2.219z" fill="#C82A34"/></svg>