<!-- by TradingView --><svg width="56" height="56" xmlns="http://www.w3.org/2000/svg"><path fill="#F0F3FA" d="M0 0h56v56H0z"/><path d="M15.054 28.452l.352.537c-.38.41-.915.65-1.577.763l-.183.24-.029.395.466 1.639.788 1.483c.226.353 1.423 1.356 3.592 3.023l.944 1.018.69.07c.535-.438 1-.706 1.436-.762l.085-2.12-.479-3.164.155-5.439.479-.664c-.14.932-.14 1.625-.028 2.063v10.058l.422.664.254-4.818c.141-2.556.155-4.21.099-4.93l-.099-1.2.155-.89.718-.947-.282 2.698-.45 10.822-.296 2.175h.93l.408-6.527c.127-3.56.24-5.862.352-6.88.057-.593.24-1.469.521-2.613l.17-.24.084.24.014.692-.465 11.43-.253 1.78.07 2.118h.944l1.225-15.384.775-.31-1.028 15.694h1.38l.986-15.384.409-.537.423.438-.719 15.483h1.17l.253-7.516.83.354-.183 7.162h1.198v-4.902l.324-2.161c.169 0 .352-.127.535-.396l-.437 7.46h.775l.803-12.404a10.464 10.464 0 00-.535-3.673l.633.55.451 3.518-.901 12.008h.704l.042-.494 1.029-.283c.633-.55 3.14-2.048 7.55-4.492L45 33.594l-.183-.848-1.676-2.401-2.07-1.794-.55-.692L38 26.092l-3.212-1.455c-.55-.268-1.31-.536-2.31-.819l-.253-.17-1.085-.395c-.803-.226-.718-.438.24-.692.52-.17.774-.367.802-.593 0-.184-.084-.396-.239-.58l.042-.31.338-.58a3.593 3.593 0 01-.14-1.003l.45-.24.14-.297-.098-.268-.676-.565a3.37 3.37 0 00-.169-1.243l-.197-.692c-.028-.17.127-.58.45-1.258l-.351-1.06-.282-.254-.986.043c-.31-.268-.817-.424-1.578-.494l-1.394.296-1.183.1-.676.55-.888.48c-.31.636-.605 1.003-.944 1.102l-.45 1.23.944 3.46.845 1.201.422.396v.734h-.197l-1.07.848-3.156.452-3.845 1.978-5.592 3.645-.493.847-.042 1.413.986 1.935 1.676 1.71a692.13 692.13 0 006.62 4.04l.493.565-.352 1.018h1.225c.182-.459.268-.95.254-1.442 0-.381-.098-.734-.324-1.088h-1.507l-.944-.452a18.881 18.881 0 00-2-1.313c-.732-.424-1.479-.947-2.24-1.498-1.366-1.088-2.324-2.12-2.859-3.093l-.183-.75.042-.861.24-.466.944-.905 1.577-.89.24.043zm1.606.593v-.31l3.972-2.402.014.339-3.31 2.444-.394.141-.282-.212zm-.507-1.37l-.085-.268 4.803-2.572-.239.453-3.197 1.878-1.282.509zm4.535.876l-.14.254-2.62 1.54-.141.226-.14-.226.084-.254 2.31-1.823.591-.056.056.339zm-.38 1.54c.056.79.113 1.554.226 2.288l.493 3.984-.38.099-.508.042a16.563 16.563 0 01-2.155-2.175 14.412 14.412 0 01-1.451-2.303l.127-.198a38.126 38.126 0 012.07-1.243c.465-.226.959-.452 1.465-.636l.113.142zm18.58-.905l-.043.255-.493-.099-2.676-1.667h-.423l-.45-.353-.142-.551c.442.137.867.322 1.268.55l2.958 1.865zm.69-.79l-.69-.227-2.86-1.992c-.845-.353-1.282-.536-1.367-.536l-.056-.41.901.127 4.283 2.896-.212.141zm-8.522-11.26l-.141.184-1.184.537.282.466 1.085.184.662-.142.493.438-.423.311-.338.141.338.382v.169l-.55.113-.365.382.042.325.493-.128.197-.014.085.142-.352.17c-.057 0-.141.112-.226.395h.155l.211.395c.029.127-.098.212-.323.254l-1.578-.296-1.677.042-.647.396v.282l.859.707-.07 1.186c0 .17-.142.142-.451-.056l-1.648-1.031.028-1.004.211-.042.437-1.963-.578-.763-.07-.89.296-.325.591-.1.733.636h.394l.169-.762 1.578-.99h1.084l.197.27zm-3.607 8.928c0-.113.07-.183.211-.183.127 0 .184.07.184.183 0 .156-.057.212-.184.212-.14 0-.21-.056-.21-.212zm.296 2.445c0 .155-.07.226-.211.226-.14 0-.226-.07-.226-.226 0-.142.085-.198.226-.198.14 0 .211.056.211.198zm2.719-2.784l.14-.042.55 1.144.042.792-.099 1.78h-.901l.268-3.674zm1.76.551l.592-.395-.098 3.56h-.579l.085-3.165zm5.733 3.97l.212.381-.352.255-1.818-.933-.958-1.54 2.916 1.837zm-2.225 1.766l.084-.89c.353.099.676.226.958.395.986.58 1.93 1.187 2.846 1.851a30.308 30.308 0 01-3.31 3.01 7.585 7.585 0 01-1.916 1.172l.59-1.78.747-3.758zm-.831-.932l-.015-1.286c0-.226.085-.268.254-.113.07.113.141.381.155.805l-.254 2.387-.394 1.668.254-3.461zm-1.987-.65v.197h-2.718v-.197h2.718zm0-.594v.255h-2.718v-.255h2.718l1.48 9.367.014-1.244 1.338-.155 4.775-4.366-1.578-1.61 1.028-1.483.409.042 2.028 2.628-.112.537A29.38 29.38 0 0138.9 36.32c-1.465 1.045-2.944 2.02-4.508 2.882l-1.479-9.367z" fill="#161413"/><path d="M27.253 17.85l-.74-.017-.18.362.115.28.28-.05.164.296.246.279.247-.017.115-.575-.247-.559z" fill="#161413"/></svg>