<!-- by TradingView --><svg width="56" height="56" xmlns="http://www.w3.org/2000/svg"><path fill="#F0F3FA" d="M0 0h56v56H0z"/><path d="M30.5 38.5l5.5-7-2-2.5h-8.5l5 9.5z" fill="#A30094"/><path d="M42.5 26.5l-1-3.5-16 3 17 .5z" fill="#D50092"/><path d="M13 34l7 10 3-7.5v-7L13 34z" fill="#530473"/><path d="M29.5 46.5l1-8-5-10.5.5 9 3.5 9.5z" fill="#640376"/><path d="M25 13l-8.5 4L30 19.5 25 13z" fill="#B00073"/><path d="M36 10.5L25 13l5 6.5 5 .5 1-9.5z" fill="#E1008D"/><path d="M35 18l1-7.5 5.5 6L35 21h-3l3-3z" fill="#ED0076"/><path d="M43 21l-1.5-4.5L35 21h8z" fill="#F30095"/><path d="M41.5 23l1.5-2H25.5v5l16-3z" fill="#A40079"/><path d="M36 31.5l6.5-5L34 26v3l2 2.5z" fill="#B60470"/><path d="M20 44l9.5 2.5L26 37h-4l-2 7z" fill="#7C0E91"/><path d="M18.5 26.5l-2-9.5 6 1v14L13 34l5.5-7.5z" fill="#900098"/><path fill="#F0F3FA" d="M22 18h13v3H22zm0 8h12v3H22z"/><path fill="#F0F3FA" d="M26 18v19h-4V18z"/></svg>