<!-- by TradingView --><svg width="56" height="56" xmlns="http://www.w3.org/2000/svg"><path fill="#F0F3FA" d="M0 0h56v56H0z"/><path d="M9 20.97l2.992-.495c5.605-.537 11.008.025 15.929 1.489 3.54 1.116 6.741 2.646 9.607 4.591 1.265.91 2.234 1.695 2.908 2.358-3.582-2.07-6.826-3.393-9.65-4.013-2.907-.62-7.036-.868-12.346-.703-3.245.124-6.405.786-9.439 2.068v5.708c4.594-2.606 10.283-3.889 17.066-3.889 4.172 0 8.05.54 11.632 1.613C41.196 30.773 43.978 32.221 46 34V19.895c0-.786-.294-1.488-.885-2.068a2.87 2.87 0 00-.947-.619A2.913 2.913 0 0043.05 17h-31.1c-.8 0-1.517.29-2.107.827a2.951 2.951 0 00-.842 2.068v1.076H9z" fill="#902E33"/><path d="M44.864 34.501c-.841-.607-1.936-1.133-3.325-1.58a15.524 15.524 0 00-4.25-.852c-2.902-.323-6.563.487-10.898 2.432a89.648 89.648 0 01-5.513 2.188c-2.187.77-3.745 1.257-4.628 1.46l-3.914.81L12 39h30.718c.925-.042 1.725-.326 2.356-.812.631-.486.926-1.094.926-1.783 0-.728-.378-1.378-1.136-1.904z" fill="#D2A656"/></svg>