<!-- by TradingView --><svg width="56" height="56" xmlns="http://www.w3.org/2000/svg"><path fill="#ADBCC6" d="M0 0h56v56H0z"/><path d="M44.002 29.563v-4.56H45V30h2.5v-4.996h1V30H51v-4.996h1v4.559c0 .963-.812 1.437-1.255 1.437h-5.7c-.892 0-1.043-1-1.043-1.437zM41.811 25h-3.76c-.816.054-1.051.84-1.051 1.316v3.266c0 1.09.646 1.418 1.052 1.418h3.76c.94-.036 1.187-.862 1.187-1.418v-2.994c0-1.18-.604-1.588-1.188-1.588z" fill="#fff"/><path d="M42.004 26h-4v4h4v-4z" fill="#ADBCC6"/><path d="M31 29.544V25h1v5h3.999v1h-3.871c-.901 0-1.12-1.014-1.128-1.456zM24.998 31v-6h5v1H26v1.003h3V28h-3v3h-1.002z" fill="#fff"/><path d="M19.5 27.997L17 25h1l2.5 2.997L18 31h-1l2.5-3.003z" fill="#379E32"/><path d="M21.498 28l2.498-2.997h-.994L20.496 28l2.506 3.003h.994L21.498 28z" fill="#379E32"/><path d="M11 25v6h1v-5h3v1h-2v1h2.115c.292 0 .885-.396.885-1.5 0-1.127-.55-1.5-.885-1.5H11zM5.272 25.003h4.544V26H5v1.5h3.576c.424 0 1.39.351 1.425 1.654C10.035 30.456 9.245 31 8.825 31H4v-1h5v-1.5H5.272C4.848 28.504 4 28.232 4 26.746s.85-1.743 1.272-1.743z" fill="#fff"/></svg>