<!-- by TradingView --><svg width="56" height="56" xmlns="http://www.w3.org/2000/svg"><path fill="#003E74" d="M0 0h56v56H0z"/><path d="M6.61 28.996h3.024l.356-1.999H6.965l.205-1h3.328l.326-1.993H5.382L4 31.996h2.107l.502-3zM15.537 30l1.035-5.998h-2.114L13.059 32H18.5L18.827 30h-3.289zm8.9-.845l.916-5.151h-2.115l-.955 5.465c-.274 1.565.844 2.534 2.958 2.534 2.075 0 3.581-.968 3.855-2.534l.994-5.465h-2.114l-.916 5.151c-.117.626-.667.845-1.528.845s-1.213-.219-1.096-.845zm16.287-1.175c.43-2.388-.249-3.98-2.95-3.98-2.702 0-3.941 1.592-4.372 3.98-.43 2.428.231 4.02 2.933 4.02s3.958-1.592 4.389-4.02zm-2.115 0c-.274 1.449-.753 2.016-1.967 2.016-1.253 0-1.4-.567-1.125-2.015.273-1.41.756-1.98 1.97-1.98s1.397.57 1.122 1.98zm10.295-1.978c.705 0 1.2.49 1.082.998-.078.47-.709.997-1.413.997h-1.566l.331-1.995h1.566zm1.53 2.527c.861-.47 1.37-1.214 1.487-1.997.235-1.331-.62-2.528-2.694-2.528h-3.72l-1.389 7.992h2.114l.521-2.88c.24-.078.492-.118.744-.118 1.488 0 1.214 1.097 1.566 2.271.118.51.675.73 1.302.73a4.11 4.11 0 001.438-.26L52 30.486a1.4 1.4 0 01-.43.078c-.392 0-.47-.235-.588-.587-.117-.587-.273-1.057-.547-1.448z" fill="#fff"/></svg>