<!-- by TradingView --><svg width="56" height="56" xmlns="http://www.w3.org/2000/svg"><path fill="#752388" d="M0 0h56v56H0z"/><path d="M29 43l1-1.131V34h-1v9zm2.5-2.375l1-1.323V34h-1v6.625zm2.5-2.59L40 32h-7.553l-.974-1.012v1.506H34v5.541zM41.56 30l.506-.51H32V30h9.56zm2.417-2l-.568-.596H32V28h11.977zm-2.373-2.414l-.72-.726H32v.726h9.604zM39.186 23L32 16.328V23h7.186zM30 14.34l-.598-.601V23H30v-8.66zM27.5 12l-.598.602V23h.598V12zm-2.193 2.59l-.597.602V23h.597v-8.41zM23 17.178L16.814 23H23v-5.821zm-7.213 7.407l-1.391 1H23v-1h-7.213zM13.37 27L12 28h11v-1h-9.63zm-.32 2l1.392 1H23v-1h-9.95zm2.418 2.494l1.392 1H23v-1h-7.533zM17.886 34L23 38.822V34h-5.114zM24 39.856l1 1.318V34h-1v5.856zm2.5 2.456l1 1.688V34h-1v8.312zm2.902-17.452v.726h.633v-.726h-.633zm-.035 2.5V28H30v-.64h-.633zm-2.496-2.5v.726h.629v-.726h-.63zM30 29.401h-.72L29 29v1h1v-.599zm-2.5-2.04h-.49L26.5 27v1h1v-.64zm2.5 5.133h-1v-1h1v1zm-2.5 0h-1V31.5h1v.994zm-2.5 0h-1v-1h1v1zM24 30v-1h1v1h-1zm0-2v-1h1v1h-1zm0-2.414v-1h.317l.354.623H25v.377H24zM27.5 29v1h-1v-1h1z" fill="#fff"/></svg>