<!-- by TradingView --><svg width="56" height="56" xmlns="http://www.w3.org/2000/svg"><path fill="#13385E" d="M0 0h56v56H0z"/><path d="M40 18.46V16H22.094c-.698 0-2.094.387-2.094 1.933 0 1.547 1.139 2 1.708 2.034 4.904.025 15.047.06 16.391 0 1.345-.06 1.828-1.03 1.901-1.507zM35 26.518V24H22.04c-.656 0-1.983.4-2.038 2.002-.055 1.601 1.106 1.98 1.693 1.97 3.168.021 9.863.051 11.3 0 1.438-.052 1.936-.99 2.005-1.454zM29 34.584V32h-7.183c-.63.084-1.875.617-1.815 2.082.06 1.464 1.235 1.878 1.815 1.902 1.184.012 3.894.029 5.255 0 1.36-.029 1.852-.945 1.928-1.4z" fill="#37A3E0"/><path d="M23.957 42.5V40h-1.943c-1.921 0-2.12 1.667-1.978 2.5.047.5.509 1.5 1.978 1.5 1.47 0 1.908-1 1.943-1.5z" fill="#fff"/></svg>