<!-- by TradingView --><svg width="56" height="56" xmlns="http://www.w3.org/2000/svg"><path fill="#980033" d="M0 0h56v56H0z"/><path d="M47.114 22c-.365 0-2.853 7.605-2.853 7.605h.265s.365-.974.996-1.009c.63-.035 2.19 3.444 2.19 3.444s.165.96 1.427.96h4.213v-.194s-.895.07-1.327-.905c-.431-.974-4.612-9.901-4.91-9.901zM44 25.535V22.75s-1.664-1.009-3.455-1.009c-1.792 0-3.982.905-3.982 3.827 0 2.784 4.18 3.34 4.18 4.871 0 .8-.629.87-1.061.87-1.427 0-2.682-2.227-2.682-2.227v3.027s1.288 1.287 3.08 1.287 4.048-1.113 4.048-4.036c0-3.479-4.28-3.548-4.28-5.08 0-.8.57-.825.88-.825 1.427 0 3.272 2.079 3.272 2.079zm-16.084-2.366c.702 1.516 1.36 3.653 2.455 3.653.896 0 1.626-4.822 1.626-4.822H36v9.901c0 .835.895 1.099.895 1.099H32v-7.013s-2.956 7.48-3.222 7.48c-.265 0-3.775-7.48-3.775-7.48v6.018c0 .557.59.995.59.995H24v-9.866C24 22.473 22.96 22 22.96 22h3.163s1.228-.049 1.793 1.169zM18 32.458s2.782.278 4.175-1.844L21.611 33H14v-9.866c0-.661-.916-1.134-.916-1.134h8.527l.564 2.386C20.782 22.264 18 22.543 18 22.543V27h2.251c.73 0 1.128-1.277 1.128-1.277s.763 4.046.73 4.01C21.51 28.587 19.687 28 19.687 28H18v4.458zM12.487 22H3.959S5 22.473 5 23.134V33h5.025S9 32.632 9 31.831V28h1.562s1.825.586 2.422 1.733c.033.036-.73-4.002-.73-4.002S11.857 27 11.127 27H9v-4.457s2.657-.279 4.05 1.843L12.488 22z" fill="#fff"/></svg>