<!-- by TradingView --><svg width="56" height="56" xmlns="http://www.w3.org/2000/svg"><path fill="#4B6C41" d="M0 0h56v56H0z"/><path d="M47 26h1v-2h2v2h1.994v1.5H50v3.308c0 .948 1.186.864 1.799.703l.195 1.326c.053.026-.237.16-1.818.16-1.632 0-2.176-.991-2.176-1.598V27.5h-1V26zM45.999 28.015V30H42c-.059.59.123 1.25.773 1.535.519.228 1.796.095 2.478 0l.492 1.058c-.144.075-.809.407-2.557.407-2.285 0-3.187-1.583-3.187-3.622 0-2.108.83-3.378 3.187-3.378 2.066 0 2.813 1.182 2.813 2.015zM33 33v-6c.23-.197 1.225-.98 3.193-.98 2.012 0 2.705 1.223 2.807 1.96V33h-2v-4.724c-.374-1.232-1.383-.865-2-.527V33h-2z" fill="#BEBEBE"/><path d="M44.192 28.663h-2.179c-.04-.439.11-1.39 1.083-1.39.965 0 1.132.902 1.096 1.39z" fill="#4B6C41"/><path d="M30 33v-7h2v7h-2zM30 25v-2h2v2h-2zM24.002 33v-6c2.76-1.567 4.46-.931 5-.445l-.893 1.075c-1.051-.396-1.859-.093-2.109.107V33h-1.998zM13.202 26c-1.184.013-2.402.349-2.864.515l.51 1.158c.403-.123 1.215-.37 2.131-.396.917-.026 1.02.54 1.02 1.522-.54-.021-1.58-.051-2.101 0-.653.065-1.894.144-1.894 1.995 0 1.836 1.342 2.204 2.975 2.204 1.286 0 2.54-.392 3.007-.612.01-.938 0-3.072 0-4.102 0-1.059-.51-1.608-.748-1.769-.185-.177-.852-.527-2.036-.515zM5 27.5V33h2v-5.5h2V26H7c-.01-.066-.025-.295 0-.823s.307-.666.508-.677H9V23c-.201-.011-.952 0-2.35 0C5.238 23 5 24.33 5 25v1H4v1.5h1zM17.002 32.48V23H19v2.961c.321-.13.608-.252 1.4-.307 1.961-.137 2.584 1.997 2.602 3.576.022 1.924-.889 3.818-3.097 3.77-1.402-.032-2.52-.36-2.903-.52z" fill="#fff"/><path d="M19 31.236v-3.537c.78-.36 1.33-.15 1.507 0 .135.106.42.584.48 1.656.062 1.071-.117 1.5-.214 1.58-.09.146-.388.442-.874.466-.486.025-.802-.1-.899-.165zM14.002 31.68V30h-1.41c-.27 0-.565.235-.59 1.071-.024.836.578.943 1.045.928.373-.012.792-.218.955-.32z" fill="#4B6C41"/></svg>