<!-- by TradingView --><svg width="56" height="56" xmlns="http://www.w3.org/2000/svg"><path fill="#F0F3FA" d="M0 0h56v56H0z"/><path d="M21.98 26.488c0 1.225-.155 1.314-1.362 1.305h-8.674c-2.495.054-3.482.64-3.944 2.83.241-1.927 1.445-3.854 4.737-3.956h6.993c1.51 0 2.197-.01 2.26-1.225-.01.447-.01.85-.01 1.046zM8 36.164c.02-.28.055-.539.107-.776C8.5 33.5 9.7 32.965 11.944 33H19.5c1.323 0 2.305.064 2.5-1v.818c0 1.225-.22 1.209-1.445 1.182h-8.711C9.916 34 8.4 33.813 8 36.164zM40 15H26.762c-2.524 0-4.773.952-4.773 3.5v1.402c0 1.225-.164 1.5-1.39 1.473h-8.673C8.961 21.375 8 25.648 8 25.648V41s1-2 3.917-2h7.76c1.58 0 2.34-.105 2.323-1.5 0-.644.003-.4.003-1.563 0-2.244 3.16-2.937 4.794-2.937h7.67l3.403-5H26.61c-2.894 0-4.399.58-4.62 2.645v-1.243C21.974 26.83 25 27 27.5 27H42l3.49-6H26.5c-3.036 0-4.395 1.295-4.51 3.61 0-.366-.01-.786-.01-1.501C22.096 20.257 25.366 20 27 20h21s-2.218-5-8-5z" fill="#A5001D"/><path d="M16.378 15H27c-1.592 0-5 1-5 3.436V32c0 1-1.258 1-2.437 1H11.5C9 33 8.178 34.657 8 36.262V23.976C8 18.918 13.005 15 16.378 15z" fill="#091C5A"/><path d="M15.468 20.845l.811 2.497h2.625l-2.123 1.543.81 2.496-2.123-1.543-2.124 1.543.811-2.496-2.124-1.543h2.626l.81-2.497z" fill="#fff"/></svg>