<!-- by TradingView --><svg width="56" height="56" xmlns="http://www.w3.org/2000/svg"><path fill="#F0F3FA" d="M0 0h56v56H0z"/><path d="M40.73 35H39v-1.655A2.917 2.917 0 0040.73 35zM39 30.925V22h4.748c-.765.321-1.605.847-1.877 1.76-.519 1.631.272 3.36.667 3.978-.667.37-2.649 1.581-3.538 3.187zM45.947 33.198c-2.026 1.778-5.114 1.63-5.534-1.038-.395-2.445 2.421-3.68 2.421-3.68 1.878 3.433 3.113 4.718 3.113 4.718z" fill="#ED1C24"/><path d="M43.353 24.156c.173-1.655 1.556-1.778 1.902-1.73.321.05 1.655.52 1.359 2.076-.296 1.58-2.396 2.52-2.396 2.52s-.939-2.1-.865-2.866M46.54 33.468s1.136 1.063 2.026 1.532h-4.99c.225-.046.447-.104.666-.173.816-.247 1.581-.766 2.273-1.408l.025.05z" fill="#ED1C24"/><path d="M52 26.725h-4.15v.47s1.358-.223 1.333 1.012c-.024 1.384-1.754 3.31-1.902 3.46-.321-.371-.642-.816-1.037-1.335a26.342 26.342 0 01-1.73-2.742s2.347-.963 2.965-2.248c.543-1.136.444-2.6-1.605-3.342H52v4.725z" fill="#ED1C24"/><path d="M50.393 28.38a24.272 24.272 0 01-2.544 3.928c.852.923 2.205 2.075 3.596 1.78.2-.043.39-.128.555-.248v-6.645a2.426 2.426 0 00-1.606 1.186M51.258 35c.262-.102.511-.234.742-.395V35h-.742z" fill="#ED1C24"/><path d="M6 25.984h3.336v-1.531H6V23.44h3.41V22H4v6h2v-2.016zM15 26h-3v-4h-2v6h5v-2zM19.069 28.331c2.199 0 3.533-1.112 3.533-3.26 0-2.125-1.31-3.262-3.533-3.262-2.199 0-3.508 1.137-3.508 3.261 0 2.15 1.31 3.261 3.508 3.261zm0-4.99c.914 0 .988 1.161.988 1.754 0 .667-.025 1.754-.988 1.754-.865 0-.963-1.062-.963-1.754 0-.617.073-1.754.963-1.754zM26.506 28.331c2.198 0 3.532-1.112 3.532-3.26 0-2.125-1.31-3.262-3.532-3.262-2.2 0-3.508 1.137-3.508 3.261 0 2.15 1.309 3.261 3.508 3.261zm0-4.99c.913 0 .988 1.161.988 1.754 0 .667-.025 1.754-.988 1.754-.865 0-.964-1.062-.964-1.754 0-.617.074-1.754.963-1.754zM33 26h.57a.75.75 0 01.693.404c.198.37.222 1.127.346 1.596h2.52c-.248-.617-.223-1.349-.593-2.04a1.421 1.421 0 00-1.063-.667v-.025c.914-.223 1.507-.716 1.507-1.68 0-1.21-.94-1.588-2.446-1.588H31v6h2v-2zm.57-2.659c.566 0 .94.074.94.642 0 .642-.495.692-.989.692H33v-1.334h.57zM10.719 32c0-2.57-1.295-3-3.098-3H4v6h3.557c1.803-.025 3.162-.628 3.162-3zm-4.72-1.52h1.113c.865 0 1.087.433 1.087 1.52 0 1.038-.197 1.42-1.087 1.42H6v-2.94zM17 30.532V29l-5-.002V35h5v-1.532l-3 .032v-1h2.698v-1.08H14v-.92l3 .032zM21.021 35a6.934 6.934 0 001.73-.247v-1.68c-.42.153-.863.237-1.31.247-1.013 0-1.704-.233-1.704-1.32 0-1.038.765-1.47 1.803-1.47.415.01.825.094 1.21.247v-1.655a7.887 7.887 0 00-1.729-.198c-2.026 0-3.521.951-3.521 3.076.024 2.224 1.421 3 3.521 3zM26.58 28.9c-2.2 0-3.08.976-3.08 3.1 0 2.15 1 3 3.08 3 1.92 0 2.92-.85 2.92-3-.025-2.125-.722-3.1-2.92-3.1zm0 4.6c-.865 0-.964-.808-.964-1.5 0-.593.073-1.5.963-1.5.914 0 .988.907.988 1.5 0 .692-.049 1.5-.988 1.5zM34.312 33.494c.197.37.222 1.037.345 1.506h2.52c-.247-.618-.222-1.259-.593-1.95a1.42 1.42 0 00-1.062-.667v-.025c.914-.223 1.507-.717 1.507-1.68 0-1.21-.939-1.68-2.446-1.68H31V35h2v-1.827h.62c.321 0 .568.05.692.321zM33 30.406h.645c.494 0 .939.074.939.642 0 .643-.494.693-.988.693H33v-1.335z" fill="#000"/></svg>