<!-- by TradingView --><svg width="56" height="56" xmlns="http://www.w3.org/2000/svg"><path fill="#F0F3FA" d="M0 0h56v56H0z"/><path d="M22.056 15.179l5.444-3.174v6.348l-5.444-3.174zM14.657 19.497L20 16.322v6.349l-5.343-3.174z" fill="#0055A3"/><path d="M22.056 23.728l5.444-3.174v6.348l-5.444-3.174z" fill="#D49E0F"/><path d="M29.454 19.497l5.548-3.175v6.349l-5.548-3.174z" fill="#429439"/><path d="M36.601 23.728L42 20.554v6.348l-5.399-3.174zM36.601 32.277L42 29.103v6.348l-5.399-3.174z" fill="#0055A3"/><path d="M29.454 28.155l5.548-3.174v6.349l-5.548-3.175z" fill="#D49E0F"/><path d="M29.454 36.614l5.548-3.175v6.349l-5.548-3.174z" fill="#429439"/><path d="M22.056 32.277l5.444-3.174v6.348l-5.444-3.174z" fill="#D49E0F"/><path d="M22.056 40.826l5.444-3.174V44l-5.444-3.174z" fill="#0055A3"/><path d="M14.657 28.002L20 24.828v6.349l-5.343-3.175z" fill="#429439"/><path d="M14.657 36.614L20 33.44v6.348l-5.343-3.174zM34.196 15.179L28.5 12.005v6.348l5.696-3.174z" fill="#0055A3"/><path d="M26.797 19.497L21 16.322v6.349l5.797-3.174z" fill="#429439"/><path d="M19.65 23.728L14 20.554v6.348l5.65-3.174zM19.399 32.277L14 29.103v6.348l5.399-3.174z" fill="#0055A3"/><path d="M34.196 23.728L28.5 20.554v6.348l5.696-3.174z" fill="#D49E0F"/><path d="M41.594 19.497L36 16.322v6.349l5.594-3.174z" fill="#0055A3"/><path d="M41.594 28.155L36 24.981v6.349l5.594-3.175z" fill="#429439"/><path d="M41.594 36.614L36 33.44v6.348l5.594-3.174z" fill="#0055A3"/><path d="M34.196 32.277L28.5 29.103v6.348l5.696-3.174z" fill="#D49E0F"/><path d="M34.196 40.826L28.5 37.652V44l5.696-3.174z" fill="#0055A3"/><path d="M26.797 28.002L21 24.828v6.349l5.797-3.175z" fill="#D49E0F"/><path d="M26.797 36.614L21 33.44v6.348l5.797-3.174z" fill="#429439"/></svg>