<!-- by TradingView --><svg xmlns="http://www.w3.org/2000/svg" width="56" height="56"><path fill="#F0F3FA" d="M0 0h56v56H0z"/><path d="M28.04 12c-1.05 0-2.06.1-3.04.3v3.57s6.26.5 7 7.45l5.91-7.93A16.08 16.08 0 0028.04 12zm10.46 6.12V22h-2.95l2.95-3.88zm2.5.56V27h-2.5v-3H28.4s.21-5.25-5.67-5.25c-2.56 0-4.66 1.67-4.73 3.33-.13 2.66 3.48 4 7.44 4.8 2.34.46 4.83 1.64 5.84 2.98 1.44 1.88 1.31 3.78 1.31 3.78s.57 6.03-7.59 7.28v2.77a15.98 15.98 0 0016-25.01zM14.28 34.62c-5.4-7.34.48-15.63.48-15.63-1.68 4.05-.24 6.5-.24 6.5 1.3 2.84 4.37 3.56 7.4 4.27 1.71.4 3.42.8 4.77 1.58 3.26 1.95 2 4.05.76 5.14A6.14 6.14 0 0124 37.75c-2.5.22-7.07-.15-9.72-3.13z" fill="#0183BF"/></svg>