<!-- by TradingView --><svg xmlns="http://www.w3.org/2000/svg" width="56" height="56"><path fill="#005A9C" d="M0 0h56v56H0z"/><path fill="#fff" d="M27 16h5v8h-5z"/><path d="M28.3 17l3 2.11v1.29l-2-1.45v3.63l-1 .42v-6z" fill="#01C59D"/><path d="M9 25H4v.38c.7 0 1 .34 1 .6 0 1.53-.02 4.7 0 5.11.02.42-.73.53-1 .53V32h3v-.38c-.75.02-1-.34-1-.53v-2.53h.59c.62.06.81.84.83 1.22h.31v-2.86h-.31c.02.83-.55 1.15-.83 1.2H6v-2.14c.07-.5.57-.6.89-.6 1.38 0 1.8 1.55 1.83 2.32H9V25z" fill="#fff"/><path fill-rule="evenodd" d="M9.3 25h3.03c.6.02 1.72.37 1.77 1.7.05 1.32-1.03 1.76-1.6 1.8a1.8 1.8 0 011.07 1.56c.03 1.13.16 1.17.34 1.17.17 0 .26-.56.26-1.23h.4c.05.6-.1 2-.91 2-.82 0-1.09-.86-1.1-1.36.06-.72-.06-2.13-.99-2.06H11v2.4c0 .19.17.57.8.65V32H9.3v-.37c.32 0 .7-.1.7-.64v-5.13c.01-.18-.14-.54-.7-.54V25zm1.7 3.17v-2.42c.06-.14.3-.38.73-.39.53 0 1.22.25 1.27 1.43.04.94-.55 1.31-.84 1.38H11zM17.5 32c1.38 0 2.5-1.57 2.5-3.5S18.88 25 17.5 25 15 26.57 15 28.5s1.12 3.5 2.5 3.5zm0-.35c.83 0 1.5-1.41 1.5-3.15s-.67-3.15-1.5-3.15S16 26.76 16 28.5s.67 3.15 1.5 3.15z" fill="#fff"/><path d="M22.27 25H20.8v.32c.7 0 .84.4.83.6v5.12c-.02.5-.56.62-.83.6V32h2.17v-.3c-.7-.08-.87-.47-.87-.66v-4.45L25.48 32h.38v-5.99c-.01-.48.5-.66.77-.69V25h-1.97v.32c.66.01.82.46.82.69v4.1L22.27 25zm20.08 0H40.9v.32c.69 0 .84.4.83.6v5.12c-.03.5-.56.62-.83.6V32h2.17v-.3c-.7-.08-.87-.47-.87-.66v-4.45L45.57 32h.38v-5.99c-.02-.48.5-.66.77-.69V25h-1.97v.32c.65.01.82.46.82.69v4.1L42.35 25zM32 25h-5v2.65h.31c-.04-2.04 1.13-2.37 1.69-2.28 0 1.74.02 5.34 0 5.77-.02.43-.73.52-1 .52V32h3v-.34c-.66.02-1-.34-1-.52v-5.77c1.33-.23 1.68 1.43 1.68 2.28H32V25zm2.81 0h-2.58v.31c.58 0 .77.4.77.6v5.12c.01.47-.52.62-.77.63V32H37v-3h-.35c-.2 2.03-1.07 2.65-1.84 2.66-.61.01-.8-.3-.81-.46v-5.3c.01-.46.54-.54.81-.52V25zm5.44 0h-2.47v.34c.63 0 .74.44.72.66v5.11c0 .46-.48.58-.72.58V32h2.47v-.31c-.56-.02-.74-.4-.75-.58V26c.01-.48.51-.64.75-.66V25zM52 25v2.64h-.25c-.14-1.77-1.14-2.32-1.87-2.32-.57 0-.83.34-.88.51v2.25h.52c.65-.08.81-.83.81-1.2h.28v2.8h-.2c-.22-.88-.68-1.14-.89-1.16H49v2.37c.01.66.6.7.88.7 1.53.02 1.88-1.57 1.87-2.37H52V32h-4.8v-.31c.53 0 .76-.37.8-.56v-5.25c0-.37-.55-.53-.8-.56V25H52z" fill="#fff"/><path fill="#01C59D" d="M28 33h3v1h-3z"/></svg>