<!-- by TradingView --><svg xmlns="http://www.w3.org/2000/svg" width="56" height="56"><path fill="url(#af1jb0wui)" d="M0 0h56v56H0z"/><path fill="#F5472C" d="M4 21h1v1H4z"/><path fill-rule="evenodd" d="M52 21v13h-1V22H6v-1h46zM4 23h1v10h29v1H4V23zm3 2h3v1H8v1h2v1H8v2H7v-5zm6 0h3v1h-2v1h1.5v1H14v1h2v1h-3v-5zm14 0h-1v5h3v-1h-2v-1h1.5v-1H27v-1h2v-1h-2zm-8 0h1.5a2.5 2.5 0 010 5H19v-5zm1 1h.5a1.5 1.5 0 010 3H20v-3zm12-1h1.25a1.75 1.75 0 01.92 3.24l1.7 1.76h-1.42l-1.43-1.5H33V30h-1v-5zm1 2.5V26h.25a.75.75 0 010 1.5H33zm5.36 2.5h1.11l.48-1h1.82l.48 1h1.12l-2.5-5-2.5 5zm2.5-2.88l.43.88h-.85l.42-.88zM47 25h-1v5h3v-1h-2v-4zm-1.5 8.71a1 1 0 00-.88-1l.57-.48L45 32l-.59.5-.53.46a.94.94 0 00-.38.75 1 1 0 102 0zm-.3 0a.7.7 0 00-.7-.7c-.37 0-.7.34-.7.7a.7.7 0 101.4 0zm-7.98-1.45v2.24h-.3v-1.76l-.79.4-.13-.27 1.22-.61zm3.16 2.02a1 1 0 111.12-1c0 .33-.14.56-.38.76l-.53.46-.59.5-.2-.23.58-.49zm.12-.3a.7.7 0 11.7-.7c0 .37-.33.7-.7.7zm7.68-1.03c-.14-.11-.42-.2-.88-.2v-.3c.49 0 .84.09 1.06.26.24.18.3.43.25.68-.05.25-.21.5-.43.7-.1.1-.2.18-.3.26H49v.3h-1.7l-.06-.29c.28-.12.54-.29.73-.47.2-.2.31-.4.35-.56.03-.16 0-.28-.14-.38z" fill="#fff"/><defs><linearGradient id="af1jb0wui" x1="10.42" y1="9.71" x2="68.15" y2="76.02" gradientUnits="userSpaceOnUse"><stop stop-color="#1A1E21"/><stop offset="1" stop-color="#06060A"/></linearGradient></defs></svg>