<!-- by TradingView --><svg width="56" height="56" xmlns="http://www.w3.org/2000/svg"><path fill="#FF282D" d="M0 0h56v56H0z"/><path d="M38 21.859V34.06h4V32h-1V20h-3v1.859zM5 32h1v-6.018H5v-1.62L6 24v-1.153C6 20.86 6.722 20 9.32 20c.562 0 1.227.08 1.81.183l-.346 1.995a4.817 4.817 0 00-.84-.071c-.915 0-.944.089-.944.96V24h2v1.982H9V32h1v2H5v-2zM36.454 31.607c-.394.08-.739.071-.988.077-.466 0-.466-.307-.466-1.259V26h2v-2h-2v-4h-3v10.934c0 2.147.544 3.126 2.914 3.126.561 0 1.332-.14 1.914-.262l-.374-2.191zM28.787 26.306v-.326c-.763-.136-1.52-.138-1.93-.138-1.172 0-1.315.606-1.315.934 0 .465.162.716 1.433.987 1.856.406 3.72.83 3.72 3.072 0 2.127-1.123 3.226-3.488 3.226-1.582 0-3.118-.331-4.29-.62v-1.834h1.908l-.001.326c.82.154 1.681.139 2.13.139 1.251 0 1.454-.655 1.454-1.003 0-.484-.359-.716-1.531-.947-2.208-.368-3.961-1.102-3.961-3.288 0-2.069 1.42-2.88 3.785-2.88 1.602 0 2.82.242 3.993.532v1.82h-1.907zM17.197 27.917l-.192-.187-.974.827a.475.475 0 10-.156.925.476.476 0 00.453-.62l.869-.945zM48 24h5v2h-1.18l-3.03 7.81c-.868 2.215-2.294 4.3-4.465 4.3-.534 0-1.245-.062-1.738-.188l.216-2.3c.317.063.731.104.948.104 1.008 0 2.144-.66 2.499-1.81L43.18 26H42v-2h5v2h-1.239l1.74 4.452L49.238 26H48v-2z" fill="#fff"/><path d="M15 22h-1v1.013h1v1.042h-.116c-2.41.432-4.236 2.487-4.236 4.96 0 2.786 2.319 5.045 5.179 5.045.976 0 1.888-.264 2.668-.721l.453.661H22v-2h-.993l-.001-8h-2.52v.686A5.226 5.226 0 0017 24.1v-1.088h1V22h-3zm.977 9.602v-.289h-.301v.288c-1.352-.077-2.434-1.135-2.504-2.455h.3v-.294h-.299c.08-1.31 1.157-2.358 2.503-2.435v.29h.301v-.29c1.326.068 2.395 1.082 2.51 2.362v.084h-.302v.294h.302v.08c-.115 1.281-1.183 2.296-2.51 2.365z" fill="#fff"/></svg>