<!-- by TradingView --><svg xmlns="http://www.w3.org/2000/svg" width="56" height="56"><path fill="url(#aqwbs0gfo)" d="M0 0h56v56H0z"/><path fill-rule="evenodd" d="M17 28.5c0 1.52-1.34 2.75-3 2.75s-3-1.23-3-2.75 1.34-2.75 3-2.75 3 1.23 3 2.75zm-1 0c0 .97-.9 1.75-2 1.75s-2-.78-2-1.75.9-1.75 2-1.75 2 .78 2 1.75z" fill="#fff"/><path d="M28 31v-4h2v-1h-5v1h2v4h1zm5-5h-1v3.25c0 1.1 1.12 2 2.5 2s2.5-.9 2.5-2V26h-1v3.25c0 .55-.81 1-1.5 1s-1.5-.45-1.5-1V26zm6 0h1.25L43 29.5V26h1v5h-1.25L40 27.5V31h-1v-5z" fill="#fff"/><path fill-rule="evenodd" d="M22 26h-3v5h1v-2h1.17l1.22 2h1.17l-1.24-2.03A1.5 1.5 0 0022 26zm-2 1h2a.5.5 0 010 1h-2v-1zm28.27-1L46 31h1.06l.46-1h2.5l.47 1h1.06l-2.28-5h-1zm1.3 3l-.8-1.71-.79 1.71h1.58z" fill="#fff"/><path d="M18.5 31h.5v-.62c0 .42-.34.59-.5.62zm2 0H20v-.62c0 .42.33.59.5.62zm6 0h.5v-.62c0 .42-.34.59-.5.62zm2 0H28v-.62c0 .42.33.59.5.62zm10 0h.5v-.62c0 .42-.34.59-.5.62zm2 0H40v-.62c0 .42.33.59.5.62zm5.04 0h.5l.21-.57c-.16.46-.54.54-.7.57zm2 0h-.5l.25-.51c-.2.43.09.48.25.51zm4.47 0h-.5l-.2-.57c.16.46.54.54.7.57zm-2 0h.5l-.25-.51c.21.43-.08.48-.25.51zm-25.95 0h-.51l-.33-.56a3.72 3.72 0 000-.02v.02c.29.48.67.53.84.56zm7.44-5h.5v.62a.63.63 0 00-.5-.62zm2 0H33v.62c0-.42.34-.59.5-.62zm-15 0h.5v.62a.63.63 0 00-.5-.62zm20 0h.5v.62a.63.63 0 00-.5-.62zm-3 0h.5v.62a.63.63 0 00-.5-.62zm2 0H37v.62c0-.42.34-.59.5-.62zm5 0h.5v.62a.63.63 0 00-.5-.62zm2 0H44v.62c0-.42.34-.59.5-.62zm5.28 0h-.5l.28.62c-.25-.53.05-.59.22-.62zm-9.03 0h-.5l.47.62c-.28-.37-.13-.59.03-.62zm3.75 5H44v-.62c0 .42.33.59.5.62zm-2.25 0h.5l-.47-.62c.28.37.13.59-.03.62zm-20.36 0h.5l-.3-.48a.78.78 0 00-.08-.14l.08.14c.14.28-.05.45-.2.48zm25.88-5h.5l-.27.62c.24-.53-.06-.59-.23-.62zM30 27.5V27h-.62c.42 0 .59.33.62.5zm0-2v.5h-.62a.62.62 0 00.62-.5zm-5 2V27h.62a.62.62 0 00-.62.5zm0-2v.5h.62a.62.62 0 01-.62-.5zM10 26v1H7v1h2v1H7v2H6v-5h4z" fill="#fff"/><path d="M5.5 31H6v-.62a.62.62 0 01-.5.62zm2 0H7v-.62c0 .42.33.59.5.62zm-2-5H6v.62a.63.63 0 00-.5-.62zm4.5 1.5V27h-.62c.42 0 .59.33.62.5zm0-2v.5h-.62a.62.62 0 00.62-.5zm-1 4V29h-.62c.42 0 .59.33.62.5zm0-2v.5h-.62a.62.62 0 00.62-.5z" fill="#fff"/><defs><linearGradient id="aqwbs0gfo" x1="10.42" y1="9.71" x2="68.15" y2="76.02" gradientUnits="userSpaceOnUse"><stop stop-color="#1A1E21"/><stop offset="1" stop-color="#06060A"/></linearGradient></defs></svg>