<!-- by TradingView --><svg xmlns="http://www.w3.org/2000/svg" width="56" height="56"><path fill="#F0F3FA" d="M0 0h56v56H0z"/><path d="M28 12a16 16 0 100 32 16 16 0 000-32zm-9.44 1.87a17 17 0 1118.88 28.27 17 17 0 01-18.88-28.27z" fill="url(#aymoa2ns0)"/><path d="M28 11.3a16.7 16.7 0 100 33.4 16.7 16.7 0 000-33.4zm3.14 30.43V19.61c-.54-.2-1.1-.35-1.66-.44v23.15H26.5V19.17a8.6 8.6 0 00-1.63.44l-.12 22.71c-2.96-1.03-6.36-2.69-8.56-5.7a14.33 14.33 0 01-2.67-10.2c.39-3.7 2.05-6.65 4.82-9.15 2.77-2.5 5.94-4.08 9.67-4.08 3.72 0 6.9 1.59 9.67 4.08 2.77 2.5 4.68 5.45 5.07 9.16.4 3.7-.74 7.17-2.94 10.18-2.19 3.02-5.02 4.35-8.67 5.12z" fill="url(#bymoa2ns0)"/><path d="M26.85 28.3h2.3v-.67h-2.3v.66zM28 13.16a14.84 14.84 0 00-3.48 29.25v-5.24a9.5 9.5 0 01-6.36-8.89h6.36v-.66h-6.36a9.65 9.65 0 013.11-6.73A9.26 9.26 0 0128 18.2c2.64 0 4.95.87 6.85 2.7a9.53 9.53 0 013 6.73h-6.37v.66h6.37a9.44 9.44 0 01-1.93 5.42 9.04 9.04 0 01-4.44 3.47v5.24A14.84 14.84 0 0028 13.17zm-1.15 24.59v5.03a14.77 14.77 0 002.3 0v-5.03c-.76.08-1.54.08-2.3 0z" fill="url(#cymoa2ns0)"/><path d="M17.5 22.38l-.69-.25-.73 2.09-.57-.2.78-2.2-.7-.25-1.1 3.11 2.98 1.05.32-.91-1.02-.36.74-2.08zm-.24-3.18l2.37 2.07.7-.71-2.46-2.14-.61.78zm7.12-3.31l-.21.03a1 1 0 00-.2.07l-.48.2-.81.34-.23.1a.97.97 0 01-.2.07.23.23 0 01-.28-.13.2.2 0 01.06-.27c.04-.04.1-.08.16-.1l.22-.12.51-.24.24-.1a1.33 1.33 0 01.26-.09.25.25 0 01.24.12l.06.1.88-.4-.1-.2a.9.9 0 00-.25-.35.6.6 0 00-.35-.12c-.13 0-.25.02-.38.05-.17.04-.33.1-.49.18a18.06 18.06 0 01-.83.36c-.54.24-.88.44-1.03.57a.65.65 0 00-.2.53c.03.2.09.39.18.56.05.13.13.24.22.35.15.18.36.23.62.16a2.2 2.2 0 00.43-.15l.45-.18.26-.1.53-.22.18-.07.19-.07a.21.21 0 01.28.13c.06.15.01.27-.17.35l-.23.1-.64.3-.25.1-.21.09a.48.48 0 01-.14.02c-.1 0-.18-.09-.25-.24l-.87.4.1.2c.05.12.12.22.21.32.07.07.15.12.24.16a1.04 1.04 0 00.67-.07l.17-.06.16-.07.56-.24.4-.18.24-.12a17.21 17.21 0 01.46-.22l.12-.07c.43-.27.53-.66.3-1.16-.2-.45-.47-.66-.8-.62zm6.24-1.49l-1.36 1.03-.43-.05.14-1.17-.96-.11-.36 3.13.96.1.13-1.14.4.04 1.3 1.32 1.4.16-1.8-1.79 1.94-1.37-1.36-.15zm4.98 2.87l1.93 1.6.47-.56-2.67-2.22-2.01 2.42L36 20.75l.46-.57-1.94-1.62.36-.44 1.82 1.52.44-.53-1.82-1.51.27-.33zm5.77 6.99l-.04-.17-.07-.2-.96-2.62-2.96 1.1.33.9.73-.27.53 1.43c.07.18.08.3.04.38a.7.7 0 01-.34.2l-.28.11.34.9.36-.13c.19-.05.36-.15.5-.29.08-.1.1-.28.08-.55.17.22.32.34.47.36.2.01.4-.03.58-.1a2.31 2.31 0 00.43-.22c.06-.04.12-.1.17-.16.14-.16.16-.39.1-.67zm-.92 0a.36.36 0 01-.23.19c-.18.06-.3.06-.38-.02a.34.34 0 01-.06-.07.68.68 0 01-.04-.1l-.06-.15-.05-.14-.46-1.26.7-.26.45 1.24.1.27c.04.1.05.2.03.3z" fill="#333132"/><path d="M24.58 37.4v-9.12H18a10.04 10.04 0 006.58 9.12zm6.84-9.12v9.12A10.03 10.03 0 0038 28.28h-6.58zm-4.55 9.66v-9.66h2.26v9.66c-.75.08-1.5.08-2.26 0z" fill="#1D3E78"/><path d="M31.42 19.71v7.92H38a10.01 10.01 0 00-20 0h6.58v-8.15l.21-.08a9.2 9.2 0 011.7-.46l.38-.06v8.74h2.26v-8.74l.38.07c.58.1 1.15.25 1.7.45l.2.08v.23z" fill="url(#dymoa2ns0)"/><path d="M27 18.7l-.39.07c-.59.1-1.32.28-1.88.48l-.21.09.47.27c.54-.2 1.05-.39 1.62-.48l.39-.43z" fill="#fff"/><path d="M28 13a15 15 0 00-3 29.67l-.44-.4a14.66 14.66 0 116.89 0l-.45.45a15.08 15.08 0 0011.92-16.29A15 15 0 0028 13zm1.14 29.63a14.63 14.63 0 01-2.27 0l-.35.3a15.35 15.35 0 002.95 0l-.33-.3z" fill="url(#eymoa2ns0)"/><path d="M31.48 19.33l-.21-.08a9.19 9.19 0 00-1.73-.46l-.39-.06.33.39c.57.1 1.13.25 1.67.45l.33-.23z" fill="#fff"/><path d="M27 42.65V18.7l-.5.42v23.8l.5-.27z" fill="url(#fymoa2ns0)"/><path d="M24.5 19.33v22.9l.5.45V19.62l-.5-.29z" fill="url(#gymoa2ns0)"/><path d="M31.5 42.24v-22.9l-.5.23v23.15l.5-.48z" fill="url(#hymoa2ns0)"/><path d="M29 18.63v24l.5.29V19.03l-.5-.4z" fill="url(#iymoa2ns0)"/><defs><linearGradient id="aymoa2ns0" x1="28" y1="11" x2="28" y2="45" gradientUnits="userSpaceOnUse"><stop stop-color="#C7C8CA"/><stop offset=".51" stop-color="#4E4E50"/><stop offset="1" stop-color="#666667"/></linearGradient><linearGradient id="bymoa2ns0" x1="28.53" y1="9.98" x2="28" y2="44.7" gradientUnits="userSpaceOnUse"><stop stop-color="#fff"/><stop offset=".28" stop-color="#EAECED"/><stop offset=".39" stop-color="#B0B2B5"/><stop offset=".59" stop-color="#75767A"/><stop offset=".81" stop-color="#48484A"/><stop offset="1" stop-color="#6F6F6F"/></linearGradient><linearGradient id="cymoa2ns0" x1="28" y1="13.17" x2="28" y2="42.83" gradientUnits="userSpaceOnUse"><stop stop-color="#F3F3F4"/><stop offset=".22" stop-color="#FCFCFC"/><stop offset=".38" stop-color="#F2F2F2"/><stop offset=".52" stop-color="#DADBDC"/><stop offset=".72" stop-color="#CACACA"/><stop offset=".92" stop-color="#ACACAC"/><stop offset="1" stop-color="#AEB0B3"/></linearGradient><linearGradient id="dymoa2ns0" x1="37.59" y1="24.15" x2="18.74" y2="24.08" gradientUnits="userSpaceOnUse"><stop stop-color="#DF5A26"/><stop offset=".31" stop-color="#ED6C23"/><stop offset=".51" stop-color="#F38320"/><stop offset=".7" stop-color="#ED6C23"/><stop offset="1" stop-color="#DF5A26"/></linearGradient><linearGradient id="eymoa2ns0" x1="28" y1="43" x2="28" y2="13" gradientUnits="userSpaceOnUse"><stop stop-color="#F2F2F2"/><stop offset=".35" stop-color="#888A8D"/><stop offset=".68" stop-color="#525254"/><stop offset="1" stop-color="#8B8C8F"/></linearGradient><linearGradient id="fymoa2ns0" x1="26.85" y1="18.73" x2="26.85" y2="43.03" gradientUnits="userSpaceOnUse"><stop stop-color="#86888B"/><stop offset="1" stop-color="#4C4D4F"/></linearGradient><linearGradient id="gymoa2ns0" x1="24.68" y1="19.33" x2="24.68" y2="42.65" gradientUnits="userSpaceOnUse"><stop stop-color="#616163"/><stop offset="1" stop-color="#404041"/></linearGradient><linearGradient id="hymoa2ns0" x1="31.25" y1="19.34" x2="31.25" y2="42.68" gradientUnits="userSpaceOnUse"><stop stop-color="#636466"/><stop offset="1" stop-color="#404041"/></linearGradient><linearGradient id="iymoa2ns0" x1="29.25" y1="18.63" x2="29.25" y2="42.92" gradientUnits="userSpaceOnUse"><stop stop-color="#838588"/><stop offset="1" stop-color="#4C4D4F"/></linearGradient></defs></svg>