<!-- by TradingView --><svg width="56" height="56" xmlns="http://www.w3.org/2000/svg"><path fill="#052A39" d="M0 0h56v56H0z"/><path d="M30 24v-9h-9.08s-7.665-.505-7.92 7.317V41h10V26.192s-.112-2.285 2.132-2.192H30z" fill="#E21838"/><path d="M24.004 31h4.047c2.117-.015 1.946-1.975 1.946-1.975V25H25.95c-2.128.01-1.946 1.975-1.946 1.975V31z" fill="#E21838"/><path d="M45 19v9h-1.887s-2.302-.484-2.113 1.497v5.993S41.447 41 35.607 41H24v-9h5.168s1.933-.527 1.832-2.701v-4.706s.145-5.464 5.143-5.59L45 19z" fill="#E21838"/></svg>