<!-- by TradingView --><svg width="56" height="56" xmlns="http://www.w3.org/2000/svg"><path fill="url(#paint0_linear)" d="M0 0h56v56H0z"/><path fill-rule="evenodd" d="M6.283 25L5 26.228V31h1.283v-2.5h2.085v-1H6.283V26H9v-1H6.283zM12.155 25l-1.277 1.228V31h1.277v-2.5h1.27V31h1.286v-4.772L13.425 25h-1.27zm0 2.382h1.27v-1.154h-1.27v1.154zM49.722 25v2.39h-1.437V25H47v6h1.285v-2.382h1.437V31H51v-6h-1.278zM17.267 25v6h1.275v-2.5h1.283V31H21.1v-2.382l-1.275-1.228h-1.283v-1.162h1.283v1.162H21.1v-1.162L19.825 25h-2.558zM24.938 25l-1.221 1.162V31H25v-2.432h2V27.53l-2-.031V26h2.5l-.012-1h-2.55zM35.42 24.995L35.41 26h1.275v5H38v-5h1.245v-1.005h-3.826zM30.553 25l-1.275 1.162v3.677L30.553 31H33v-1h-2.447v-1.5h1.92v-1h-1.92V26H33v-1h-2.447zM42.442 25l-1.276 1.228v3.61l1.276 1.229H45V30h-2.55l-.008-4H45v-1h-2.558z" fill="#fff"/><defs><linearGradient id="paint0_linear" x1="10.418" y1="9.712" x2="68.147" y2="76.017" gradientUnits="userSpaceOnUse"><stop stop-color="#1A1E21"/><stop offset="1" stop-color="#06060A"/></linearGradient></defs></svg>