<!-- by TradingView --><svg xmlns="http://www.w3.org/2000/svg" width="56" height="56"><path fill="url(#ar4wfi3du)" d="M0 0h56v56H0z"/><path d="M25.33 12.22l-2.45 5.79c-3.78 1.64-10.71 7.59-8.54 18.32a16 16 0 0110.99-24.1zm1.36-.17L18.9 29.72l1.19 1.41c.73.26 2.16.54 2.79.64l3.06-7.27c3.08-1.39 7.5-.58 9.33 0-2.12-2.45-5.94-3.67-7.59-3.98l2.01-4.25a18.18 18.18 0 019.4.19 15.95 15.95 0 00-12.4-4.4zm15.19 7.98a16.15 16.15 0 01-8.71 18.2l-2.35 5.52a16 16 0 0011.06-23.72zm-12.42 23.9l7.78-17.46-1.2-1.33c-.58-.25-2.16-.53-2.87-.64l-3.11 7.27c-2.93 1.21-7.38.5-9.24 0 1.54 1.98 5.64 3.5 7.5 4.03l-1.83 4.11c-3.77.91-7.4.42-9.23-.05a15.94 15.94 0 0012.2 4.07z" fill="url(#br4wfi3du)"/><defs><linearGradient id="ar4wfi3du" x1="10.42" y1="9.71" x2="68.15" y2="76.02" gradientUnits="userSpaceOnUse"><stop stop-color="#1A1E21"/><stop offset="1" stop-color="#06060A"/></linearGradient><linearGradient id="br4wfi3du" x1="23.74" y1="12.55" x2="32.32" y2="43.27" gradientUnits="userSpaceOnUse"><stop stop-color="#EABB0C"/><stop offset=".51" stop-color="#FEDE07"/><stop offset="1" stop-color="#EABB0C"/></linearGradient></defs></svg>