<!-- by TradingView --><svg xmlns="http://www.w3.org/2000/svg" width="56" height="56"><path fill="#F0F3FA" d="M0 0h56v56H0z"/><path d="M15.9 16.38c.1.25.1.45.1.45 1.31-.61 3.03-.83 4.5-.83a11.8 11.8 0 019.97 5l.53-.34c-1.9-3.29-5.83-5.63-10.28-5.66-1.62.03-3.6.25-5.09 1 0 0 .17.17.26.38zm-2.54 1.34l.1.12a11.84 11.84 0 00-5.17 9.87c0 6.55 5.4 11.85 12.21 11.85 4.75 0 9.06-3.29 10.82-7.56H32c-1.73 4.63-6.25 8-11.5 8C13.81 40 8 34.8 8 27.7a12 12 0 015.3-10.11l.06.13zm1.22.28a1 1 0 100-2 1 1 0 000 2z" fill="#CF382D"/><path d="M18 24v2h3v1h-3v4h-1v-8h4v1m2-1h-1v8h3v-1h-2m6.15-7c2.19 0 4 1.75 4 4 0 2.26-1.81 4-4 4-2.2 0-4-1.74-4-4 0-2.25 1.8-4 4-4zm0 1a3 3 0 10-.01 6 3 3 0 000-6zM36 24h2v-1h-5v1h2v7h1m3 0h4v-1h-3v-3h3v-1h-3v-2h3v-1h-4m6 3.4V23h-1v8h1v-3.34l.2-.2L48.35 31h1.15l-3.7-4.15L49.5 23h-1.24"/></svg>