<!-- by TradingView --><svg width="56" height="56" xmlns="http://www.w3.org/2000/svg"><path fill="#FA4516" d="M0 0h56v56H0z"/><path d="M8 27l.608-2.49 1.464.031c.444-2.711 2.268-3.864 5.41-3.455l-.48 2.48-1.18-.02c-.584.021-.878.444-.965.995l1.53-.01-.5 2.469h-1.562l-1.583 8H8l1.553-8H8zm7.266-3h2.883l-1.103 5.848c-.218 1.171-.448 2.47.983 2.715.397.056.806 0 1.192-.176 1.165-.532 1.448-1.657 1.684-2.787l1.1-5.6h2.764l-2.12 11h-2.534l.11-.786c-1.686 1.083-3.735.938-4.958.15-1.188-.816-1.458-2.245-1.16-4.055L15.265 24zm8.32 11l2.71-14h2.72l-.732 3.77c1.379-.833 3.375-.781 4.794-.07.656.328 1.297.883 1.692 1.491.576.885.701 1.98.723 3.499.09 1.522 1.087 2.986 2.953 2.705 1.06-.16 1.898-.684 2.358-1.652.593-1.248.372-2.834-.418-3.513-.921-.795-2.89-.95-3.91.362-.196-.902-.475-1.756-1.093-2.502 2.456-1.837 6.429-1.204 7.89 1.389.883 1.566.824 3.649-.017 5.336a5.726 5.726 0 01-3.549 2.955c-1.327.376-2.762.281-3.936-.212-.976-.41-1.894-1.212-2.358-2.156-.782-1.586.116-3.06-1-4.831-.664-.857-2.016-1.14-3.143-.698-.953.372-1.605 1.23-1.816 2.198-.233 1.072 0 2.309.895 2.93.954.716 2.804.57 3.747-.629.118.928.427 1.794 1.158 2.523-1.326 1.154-5.13 1.732-6.794-.02L26.296 35h-2.71zm19.672-14h4.717l.269 2.726L49.834 21H51l-2.566 4-.986.003L46.94 22h-1.653l-.785 3-1.086.003L44.19 22H43l.258-1z" fill="#fff"/></svg>