<!-- by TradingView --><svg width="56" height="56" xmlns="http://www.w3.org/2000/svg"><path fill="#0D3869" d="M0 0h56v56H0z"/><path d="M11 25.284V37h2.016v-5.894c1.454 2.025 4.294 2.724 5.541 2.82V37h1.96v-3.327c1.142-.217 2.211-.723 4.314-1.989 1.683-1.012 4.147-3.29 5.169-4.303l-1.07-.832c-1.283-.867-7.628-6.364-12.797-6.545-4.135-.144-5.145 3.46-5.133 5.28z" fill="#fff"/><path d="M43 22.132V37h-2v-9.934c-2.319 2.589-4.687 4.046-5.523 4.45V37h-1.972v-4.11c-2.266 1.392-4.614 1.658-5.505 1.618V37h-2v-2.937c-1.308-.194-2.202-1.186-2.468-1.658l1.277-.688c3.47 2.912 8.696-.525 10.85-1.9 2.155-1.376 4.97-4.642 5.514-5.889.493-1.134.76-3.594-1.793-3.31-2.043.226-7.244 4.979-9.425 6.934l-1.556-.486 6.862-5.945c5.84-4.27 7.593-1.105 7.739 1.011z" fill="#fff"/><path d="M23.695 21.581c-3.889 3.333-.86 8.048 1.165 9.992l-1.4.689c-2.208-2.203-2.76-5.435-2.76-6.776-.037-.652.14-2.282 1.14-3.586 1.253-1.63 3.24-2.537 7.622-1.377 3.506.927 7.45 4.758 8.984 6.558 1.19 1.304 3.086 4.224 1.142 5.47-1.944 1.247-5.327-.398-6.775-1.376l-4.418-2.863 1.067-1.231.59.47c6.038 4.551 8.333 4.191 8.726 3.443-.05-1.087-1.311-4.102-5.965-7.464s-7.981-2.825-9.119-1.949z" fill="#fff"/><path d="M13.641 23.117c1.577-2.288 5.483-.609 7.239.517-.462 3.5.736 6.373 1.393 7.372-4.05 2.04-6.966.046-7.918-1.205-.895-1.275-2.29-4.396-.714-6.684zm13.832 4.684l-5.54-3.652c-.815 1.964 1.292 6.236 1.7 6.202.326-.028 2.696-1.711 3.84-2.55zm-2.524 3.878l3.797-2.972 4.164 2.701c-4.477 2.459-7.173 1.205-7.961.27zm10.928-.401l2.487-1.817c.44.606 1.054 1.869 0 2.077-1.053.207-2.096-.087-2.487-.26z" fill="#0D3869"/></svg>