<!-- by TradingView --><svg xmlns="http://www.w3.org/2000/svg" width="56" height="56"><path fill="url(#aldehiyk1)" d="M0 0h56v56H0z"/><path d="M22.99 25.8c-6.44-.47-15.16-2.57-18.71-3.56.37.78 1.65 2.32 2.18 2.88.42.44 1.24.8 1.6.93a70.4 70.4 0 0011.48 2.66l3.45-2.9z" fill="url(#bldehiyk1)"/><path d="M4 22l.32.1c3.55.98 12.25 3.08 18.68 3.55l.38.02-3.8 3.2h-.06a70.52 70.52 0 01-11.5-2.67c-.19-.06-.5-.19-.8-.36-.31-.16-.64-.37-.87-.61-.27-.29-.72-.81-1.16-1.37a9.76 9.76 0 01-1.04-1.55l-.15-.3zm.59.5A20.67 20.67 0 006.56 25c.2.2.5.4.8.55.29.16.58.28.75.34 4.2 1.44 9.3 2.36 11.38 2.65l3.1-2.62c-6.2-.5-14.33-2.44-18-3.44z" fill="url(#cldehiyk1)"/><path d="M33.01 25.8c6.44-.47 15.16-2.57 18.71-3.56-.37.78-1.65 2.32-2.18 2.88-.42.44-1.24.8-1.6.93a70.4 70.4 0 01-11.48 2.66l-3.45-2.9z" fill="url(#dldehiyk1)"/><path d="M52 22l-.32.1c-3.55.98-12.25 3.08-18.68 3.55l-.38.02 3.8 3.2h.06a70.52 70.52 0 0011.5-2.67c.19-.06.5-.19.8-.36.31-.16.64-.37.87-.61.27-.29.72-.81 1.16-1.37.43-.55.85-1.14 1.04-1.55l.15-.3zm-.59.5a20.67 20.67 0 01-1.97 2.5c-.2.2-.5.4-.8.55-.29.16-.58.28-.75.34a70.26 70.26 0 01-11.38 2.65l-3.1-2.62c6.2-.5 14.33-2.44 18-3.44z" fill="url(#eldehiyk1)"/><path d="M18.47 29.55a41.73 41.73 0 01-9.37-2.27c.82.89 2.75 2.76 3.94 3.13 1.2.37 3.06.63 3.85.71l1.58-1.57z" fill="url(#fldehiyk1)"/><path d="M9 27.4l.15-.26c1.3.52 5.01 1.72 9.34 2.25l.32.04-1.87 1.85h-.07c-.78-.09-2.66-.34-3.87-.72a7.32 7.32 0 01-2.16-1.4A22.4 22.4 0 019 27.4zm.68.27c.38.38.85.83 1.34 1.25.74.62 1.5 1.16 2.06 1.34 1.15.35 2.94.6 3.75.7l1.3-1.3a43.57 43.57 0 01-8.45-2z" fill="url(#gldehiyk1)"/><path d="M37.53 29.55a41.73 41.73 0 009.37-2.27c-.82.89-2.75 2.76-3.94 3.13-1.2.37-3.06.63-3.85.71l-1.58-1.57z" fill="url(#hldehiyk1)"/><path d="M47 27.4l-.15-.26c-1.3.52-5.01 1.72-9.34 2.25l-.32.04 1.87 1.85h.07c.78-.09 2.66-.34 3.87-.72.63-.2 1.43-.78 2.16-1.4A22.4 22.4 0 0047 27.4zm-.68.27c-.38.38-.85.83-1.34 1.25a7.08 7.08 0 01-2.06 1.34c-1.15.35-2.94.6-3.75.7l-1.3-1.3a43.57 43.57 0 008.45-2z" fill="url(#ildehiyk1)"/><path d="M24.37 30.28l-1.47 1.58H33l-1.5-1.58h-7.14z" fill="url(#jldehiyk1)"/><path d="M24.31 30h7.26l1.8 2H22.54l1.77-2zm.13.33l-1.19 1.34h9.4l-1.2-1.34h-7.01z" fill="url(#kldehiyk1)"/><path d="M25.44 25.46c-1.7 0-8.7 6.6-11 9.36 3.77-.24 5.67-1.17 6.16-1.6 2.03-2.32 4.6-4.86 5.17-5.33.47-.38.94-.46 1.12-.45h1.92c.45-.03 1 .29 1.23.45 1.1.78 3.91 3.87 5.18 5.32 1.36 1.06 4.72 1.51 6.23 1.61-4.27-4.98-9.6-9.36-11.18-9.36h-4.83z" fill="url(#lldehiyk1)"/><path d="M14.8 34.64c1.69-.13 2.98-.4 3.9-.7 1-.31 1.57-.64 1.8-.84a71.6 71.6 0 015.19-5.34c.49-.4 1-.49 1.2-.48h1.91c.26-.02.53.07.77.17.23.1.43.22.55.31.57.4 1.56 1.38 2.55 2.43 1 1.05 2.01 2.18 2.65 2.9.65.5 1.8.88 2.99 1.13 1 .22 2.03.35 2.78.42a57.28 57.28 0 00-6.33-6.25 25.48 25.48 0 00-2.75-2.04c-.39-.24-.74-.42-1.03-.55-.3-.13-.54-.19-.71-.19h-4.83a2 2 0 00-.8.28c-.35.18-.77.44-1.23.77-.93.66-2.03 1.57-3.16 2.57a66.34 66.34 0 00-5.46 5.4zm9.7-9.04c.37-.18.7-.3.94-.3h4.83c.23 0 .5.08.82.2.31.14.67.34 1.07.58.8.5 1.75 1.2 2.79 2.07a57.7 57.7 0 016.6 6.56l.25.29-.36-.02c-.76-.05-1.99-.2-3.2-.45a8.33 8.33 0 01-3.1-1.2h-.02v-.01c-.64-.72-1.66-1.86-2.65-2.9a23.2 23.2 0 00-2.51-2.4c-.1-.08-.3-.2-.5-.28-.22-.1-.45-.16-.64-.15h-1.93c-.15 0-.59.07-1.02.42-.58.47-3.14 3-5.17 5.31v.01c-.27.24-.9.6-1.9.91a18.5 18.5 0 01-4.35.74l-.36.02.24-.28a63.31 63.31 0 018.91-8.32c.47-.33.9-.6 1.27-.8z" fill="url(#mldehiyk1)"/><defs><linearGradient id="aldehiyk1" x1="10.42" y1="9.71" x2="68.15" y2="76.02" gradientUnits="userSpaceOnUse"><stop stop-color="#1A1E21"/><stop offset="1" stop-color="#06060A"/></linearGradient><linearGradient id="bldehiyk1" x1="4.71" y1="22.94" x2="21.55" y2="26.79" gradientUnits="userSpaceOnUse"><stop offset=".26" stop-color="#1F99D6"/><stop offset="1" stop-color="#D8E8F0"/></linearGradient><linearGradient id="cldehiyk1" x1="4.5" y1="22.68" x2="21.39" y2="26.94" gradientUnits="userSpaceOnUse"><stop stop-color="#AEB3B8"/><stop offset="1" stop-color="#EFF1F4"/></linearGradient><linearGradient id="dldehiyk1" x1="51.29" y1="22.94" x2="34.45" y2="26.79" gradientUnits="userSpaceOnUse"><stop offset=".26" stop-color="#1F99D6"/><stop offset="1" stop-color="#D8E8F0"/></linearGradient><linearGradient id="eldehiyk1" x1="51.5" y1="22.68" x2="34.61" y2="26.94" gradientUnits="userSpaceOnUse"><stop stop-color="#AEB3B8"/><stop offset="1" stop-color="#EFF1F4"/></linearGradient><linearGradient id="fldehiyk1" x1="10.18" y1="28.05" x2="17.42" y2="30.27" gradientUnits="userSpaceOnUse"><stop stop-color="#1A7BA8"/><stop offset="1" stop-color="#1D8CCF"/></linearGradient><linearGradient id="gldehiyk1" x1="9.63" y1="27.96" x2="17.67" y2="30.18" gradientUnits="userSpaceOnUse"><stop stop-color="#A4AAB0"/><stop offset="1" stop-color="#CFD6DA"/></linearGradient><linearGradient id="hldehiyk1" x1="45.82" y1="28.05" x2="38.58" y2="30.27" gradientUnits="userSpaceOnUse"><stop stop-color="#1A7BA8"/><stop offset="1" stop-color="#1D8CCF"/></linearGradient><linearGradient id="ildehiyk1" x1="46.37" y1="27.96" x2="38.33" y2="30.18" gradientUnits="userSpaceOnUse"><stop stop-color="#A4AAB0"/><stop offset="1" stop-color="#CFD6DA"/></linearGradient><linearGradient id="jldehiyk1" x1="32.01" y1="31.07" x2="23.68" y2="31.07" gradientUnits="userSpaceOnUse"><stop stop-color="#84C6E2"/><stop offset="1" stop-color="#61AAD1"/></linearGradient><linearGradient id="kldehiyk1" x1="32.46" y1="31" x2="23.78" y2="31" gradientUnits="userSpaceOnUse"><stop stop-color="#B0ACAB"/><stop offset="1" stop-color="#AAA7A7"/></linearGradient><linearGradient id="lldehiyk1" x1="27.94" y1="25.46" x2="27.94" y2="34.82" gradientUnits="userSpaceOnUse"><stop stop-color="#F7F7F6"/><stop offset=".48" stop-color="#827D7C"/><stop offset=".68" stop-color="#7A716E"/><stop offset="1" stop-color="#9E928D"/></linearGradient><linearGradient id="mldehiyk1" x1="39.07" y1="31.88" x2="17.27" y2="31.88" gradientUnits="userSpaceOnUse"><stop stop-color="#A49D9A"/><stop offset="1" stop-color="#CCC9C9"/></linearGradient></defs></svg>