<!-- by TradingView --><svg width="56" height="56" fill="none" xmlns="http://www.w3.org/2000/svg"><path fill="#F0F3FA" d="M0 0h56v56H0z"/><path d="M9.326 27.324v-.09c0-.75-.383-1.011-1.105-1.011H5.105c-.754 0-1.105.285-1.105 1.053v2.67C4 30.718 4.348 31 5.105 31h3.117c.757 0 1.105-.282 1.105-1.053V28H6.5v.998h1.836v1.183H5V27h3.336v.502l.99-.178zM11 31v-4h3.365c.308 0 .531.059.67.178.137.119.207.31.207.573v.904c0 .261-.07.452-.208.572-.138.12-.36.18-.669.18h-.505L15.648 31h-1.294l-1.561-1.593H12V31h-1zm2.84-3.329H12v1.073h1.84c.156 0 .263-.023.32-.068.057-.045.086-.126.086-.24v-.46c0-.113-.029-.192-.086-.237-.057-.046-.164-.068-.32-.068zM17 31v-4h4v.66h-3v.863h1.76v.66H18v1.089h3V31h-4zM22.7 31v-4h4.04v.66H23.7v.863h1.728v.66H23.7v1.089h3.04V31H22.7zM28.397 31v-4h.808L32 29.855V27h1v4h-.806l-2.796-2.84V31h-1zM39.793 28.827c-.137-.148-.336-.239-.592-.273l-.12-.016.12-.015c.247-.03.473-.11.604-.236a.68.68 0 00.195-.51v-.551c0-.595-.33-.93-1.032-.93h-3.969V31h3.686c.884 0 1.315-.283 1.315-.87v-.722a.812.812 0 00-.207-.58zM36 27h2.502c.375 0 .499.167.499.409v.428c0 .125-.038.214-.113.265-.072.051-.2.075-.387.075H36V27zM39 29.796c0 .337-.217.423-.524.423h-2.477V28.89h2.477c.205 0 .34.03.414.091.072.062.11.171.11.326v.488z" fill="#2E394D"/><path d="M41.748 27.91c0-.665.352-.915 1.006-.915H45c.654 0 1 .25 1 .916v2.172c0 .668-.345.917-1 .917h-2.246c-.655 0-1.006-.249-1.006-.917v-2.172zm1.006 2.36H45v-2.582h-2.246v2.583z" fill="#74C947"/><path d="M47.032 31l1.82-2.055L47 27h1.184l1.227 1.359L50.577 27h1.027l-1.674 1.838L52 31h-1.213l-1.405-1.55L48.085 31h-1.053z" fill="#2E394D"/><path d="M44.309 24.513c0-.197.037-.332.11-.405.074-.072.217-.108.428-.108h1.307c.21 0 .353.036.427.108.074.073.11.208.11.405v1.144c0 .199-.036.334-.11.406-.074.072-.216.108-.427.108h-1.307c-.211 0-.354-.036-.427-.108-.074-.071-.111-.207-.111-.406v-1.144zm.505 1.25h1.374v-1.375h-1.374v1.374z" fill="#17A77B"/><path d="M47.59 23.366c0-.14.026-.237.078-.288.053-.052.155-.078.305-.078h.933c.15 0 .251.026.305.078.052.051.079.148.079.288v.817c0 .141-.027.238-.08.289-.052.05-.154.077-.304.077h-.933c-.15 0-.251-.026-.304-.077-.053-.05-.08-.148-.08-.29v-.816zm.36.891h.98v-.98h-.98v.98z" fill="#74C947"/><path d="M46 22.236c0-.09.016-.153.047-.186.03-.033.09-.05.179-.05h.548c.088 0 .148.017.18.05.03.034.046.096.046.186v.527c0 .092-.016.154-.047.187-.03.034-.09.05-.179.05h-.548c-.088 0-.148-.017-.18-.05-.03-.033-.046-.095-.046-.186v-.527zm.212.576h.577v-.633h-.577v.633z" fill="#17A77B"/></svg>