<!-- by TradingView --><svg xmlns="http://www.w3.org/2000/svg" width="56" height="56"><path fill="#F0F3FA" d="M0 0h56v56H0z"/><path d="M17 34.87s4.05-5.09 10.21-7.9C33.08 24.3 39 25.02 39 25.02V42a4 4 0 01-4 4H21a4 4 0 01-4-4v-7.13z" fill="#5D5605"/><path d="M17 14a4 4 0 014-4h14a4 4 0 014 4v10.64s-6.06-.29-11.74 1.67A34.99 34.99 0 0017 32.26V14z" fill="#02B2E3"/><path d="M27.2 23.27l-3.65-9.59 2.37 9.8-5.98-4.91 5.5 5.93-3.73-.8 3.3 1.6h-5.43l5.43.93-3.3 1.55 5.5-1 6.47 14.23-5.62-14.58 7.64-1.93-6.42 1.24 4.4-2.47-4.4 1.54 6.42-7.6-6.84 6.49 1.22-4.14-2.02 4.14-.36-8.22-.5 7.79z" fill="#F0F3FA"/></svg>