<!-- by TradingView --><svg xmlns="http://www.w3.org/2000/svg" width="56" height="56"><path fill="url(#aarrcnnb0)" d="M0 0h56v56H0z"/><path fill-rule="evenodd" d="M10.86 27.27c1.14 0 2.09-.61 2.55-1.41v-.44H11V24h4v5h-1.59v-1c-.74.63-1.47 1-2.6 1A4.91 4.91 0 016 24c0-2.76 2.16-5 4.82-5 1.6 0 3.02.81 3.9 2.07l-1.45 1.16a2.8 2.8 0 00-2.41-1.5C9.28 20.73 8 22.19 8 24c0 1.8 1.28 3.27 2.86 3.27zM21.02 19H16v10h5.34a2.66 2.66 0 00.9-5.16A2.58 2.58 0 0021.03 19zm-.57 1.73H18v2.54h2.45a1.27 1.27 0 100-2.54zm.28 4.02H18v2.53h2.73a1.27 1.27 0 100-2.53zM28.71 19c1.68.03 3 .76 3.44 1.12l-.89 1.56c-.4-.34-1.48-1-2.55-1-1.34 0-1.71.56-1.71 1 0 .43.13 1.1 2.07 1.45 1.95.36 3.47 1.2 3.43 2.98-.04 1.77-1.38 2.85-3.8 2.89a7.68 7.68 0 01-4.2-1.26l.93-1.63c.95.7 2.43 1.16 3.28 1.16.95 0 1.75-.22 1.79-.95.04-.73-.78-1.1-2.46-1.5-1.68-.39-3.06-1.04-3.04-2.85.02-1.8 1.6-3 3.7-2.97zM36 22h-1.5v7H36v-7zm2.5 1.94c.24-.34.92-.96 1.92-.94 1.28.03 1.6 1.15 1.58 2.25V29h-1.5v-3.46c0-.34-.22-.91-.78-.95-.54-.04-1.02.75-1.22 1.19V29H37v-6h1.5v.94zM45.4 29c1.12 0 2.1-.64 2.6-1.58l-1.51-.51c-.24.4-.63.66-1.07.66-.72 0-1.3-.7-1.3-1.57 0-.87.58-1.57 1.3-1.57.43 0 .8.24 1.04.62l1.52-.5A2.94 2.94 0 0042.44 26c0 1.66 1.33 3 2.96 3zm4.6-1.25a.75.75 0 11-1.5 0 .75.75 0 011.5 0zM49.25 32a.75.75 0 10-.7-1H7v2l-1 1 1 1v2h41.54a.75.75 0 100-.5H7.5v-1.48l.97-.98-.97-.97V31.5h41.04c.1.3.38.5.71.5zm0 2.75a.75.75 0 10-.7-1h-37.1a.75.75 0 100 .5h37.1c.1.3.37.5.7.5z" fill="#fff"/><defs><linearGradient id="aarrcnnb0" x1="46.69" y1="8.57" x2="9.17" y2="47.48" gradientUnits="userSpaceOnUse"><stop stop-color="#4E0F44"/><stop offset="1" stop-color="#7A2753"/></linearGradient></defs></svg>