<!-- by TradingView --><svg width="56" height="56" xmlns="http://www.w3.org/2000/svg"><path fill="#F0F3FA" d="M0 0h56v56H0z"/><path d="M32.994 41.034l.487-4.535h3.171L36 41.034h-3.006z" fill="#C0C5C8"/><path d="M28 41l-6.649-7.786-3.134 3L25 44h8l3-3h-8z" fill="#07519C"/><path d="M22.626 25.751l-6.743-7.643-2.88 2.893 6.67 7.786 7.436.607 3.135-2.821-7.618-.822z" fill="#0EB4E0"/><path d="M30.755 20.43l-5.97-6.87-2.632 2.833 5.868 6.68 2.734-2.644z" fill="#DBDFE0"/><path d="M24.784 13.56L17.452 12l-2.662 3.143 7.37 1.257 2.624-2.84z" fill="#C0C5C8"/><path d="M13 21.002l1.753-5.93 2.734-3-1.599 6.03-2.888 2.9zM18.224 36.21l1.453-7.422 2.412.197-.736 4.233-3.13 2.993z" fill="#C0C5C8"/><path d="M33.472 37l-6.356-7.618 3.098-2.82L36.84 34h6.157L40 37h-6.528z" fill="#EE353F"/><path d="M43 28v6h-3v-3.625L43 28zM36.987 21.5l-6.257-1.094-2.699 2.653 6.324.941 2.632-2.5z" fill="#C0C5C8"/><path d="M28.023 23.059l2.718-2.658-.287 3.06-2.43-.402z" fill="#A8B0B2"/><path d="M30.232 26.578l-2.545-.282.332-3.245 2.442.355-.229 3.172z" fill="#C0C5C8"/><path d="M43.003 28.001l-6.004-6.507-2.647 2.508 5.64 6.378 3.01-2.379z" fill="#DBDFE0"/></svg>