<!-- by TradingView --><svg xmlns="http://www.w3.org/2000/svg" width="56" height="56"><path fill="#009BFF" d="M0 0h56v56H0z"/><path d="M15.33 25l-3.06 7h1.1l.9-2h2.27l.9 2h1.1l-3.07-7h-.14zm.07 2.28l.7 1.72h-1.4l.7-1.72zM8.32 25c.97-.06 1.95.2 2.63.65l-.52.9A3.4 3.4 0 008.39 26 2.51 2.51 0 006 28.5 2.57 2.57 0 008.57 31c.7 0 1.12-.11 1.43-.24V29H9v-1h2v3.4c-.12.09-.26.17-.4.23a4.7 4.7 0 01-2.03.37A3.55 3.55 0 015 28.5 3.48 3.48 0 018.32 25zM31 25v4.3L27.18 25H27v7h1v-4.64L31.85 32H32v-7h-1zm-7 4.3V25h1v7h-.15L21 27.36V32h-1v-7h.18L24 29.3zM34 25h4v1h-3v2h3v1h-3v2h3v1h-4v-7zm7 0h-2v1h2v6h1v-6h2v-1h-3zm4 0h5v1h-2v6h-1v-6h-2v-1z" fill="#fff"/></svg>