<!-- by TradingView --><svg width="56" height="56" xmlns="http://www.w3.org/2000/svg"><path fill="#006FBA" d="M0 0h56v56H0z"/><path d="M34.225 20.288c-5.824 2.361-10.595 4.3-10.602 4.305-.006.006.032.126.085.267.103.28.21.65.244.947l.022.193H47l-.019-.634c-.06-2.08-.423-4.336-1.043-6.453-.342-1.171-.98-2.9-1.078-2.913-.025-.006-4.812 1.926-10.635 4.288zM23.767 27.924c.038.03 18.058 7.333 18.07 7.32.025-.024.364-.932.495-1.327C43.084 31.65 43.554 27 43.554 27h-19.58l-.207.924zM12.815 28.967c-.99.405-1.807.739-1.813.748-.035.03.532 1.092.767 1.442.254.374.686.92.836 1.058l.085.073 2.829-2.77-.113-.131a5.296 5.296 0 01-.57-.877c-.078-.154-.163-.282-.185-.28-.019.004-.846.335-1.836.737zM23.345 28.755c-.07.123-.22.347-.336.497l-.21.273 5.868 5.744c3.23 3.162 5.88 5.747 5.89 5.747a21.133 21.133 0 002.989-3.815c.538-.877 1.306-2.386 1.246-2.444-.019-.018-14.837-6.042-15.285-6.213-.018-.007-.094.088-.163.211zM13.805 32.116a184.88 184.88 0 00-2.152 2.126c0 .034.63.552 1.003.822.197.144.548.377.783.518.429.258 1.178.64 1.206.613.025-.024 2.334-5.492 2.334-5.526 0-.019-.104-.092-.229-.16a6.204 6.204 0 01-.485-.316 2.222 2.222 0 00-.282-.187c-.013 0-.99.948-2.178 2.11zM22.026 30.206a5.772 5.772 0 01-.48.313c-.169.092-.213.128-.203.177.006.034 1.171 2.8 2.59 6.15 1.416 3.349 2.585 6.106 2.594 6.127.025.065.126.028.743-.27 1.62-.779 3.217-1.852 4.48-3.015l.25-.233-4.824-4.723c-2.653-2.6-4.837-4.726-4.856-4.723-.015 0-.15.09-.294.197zM17.587 30.997c-.026.055-.75 1.76-1.608 3.794l-1.563 3.695.082.037c.184.083 1.062.35 1.485.45.798.194 1.754.329 2.587.366l.257.012v-8.207l-.147-.018c-.31-.04-.677-.11-.858-.169l-.188-.055-.047.095zM20.535 30.948c-.129.043-.64.144-.9.178l-.15.018v10.863l.495-.018a15.98 15.98 0 004.276-.795c.254-.083.51-.171.57-.196l.11-.043-.06-.147c-.225-.555-4.179-9.87-4.194-9.885-.013-.012-.079 0-.147.025z" fill="#fff"/></svg>