<!-- by TradingView --><svg width="56" height="56" xmlns="http://www.w3.org/2000/svg"><path fill="#00A63F" d="M0 0h56v56H0z"/><path d="M24.714 27.98c0-1.132-.762-2.095-1.843-2.095H21.35v4.23h1.522c1.082.042 1.843-1.005 1.843-2.136zm2.083 0c0 2.384-1.603 4.02-3.886 4.02h-3.285a.263.263 0 01-.2-.084.288.288 0 01-.08-.21v-7.412a.296.296 0 01.08-.21.273.273 0 01.2-.084h3.285c2.281 0 3.886 1.592 3.886 3.98zM36.293 30.14c.295-.007.577-.134.786-.355.21-.22.33-.518.336-.83 0-.155-.029-.31-.085-.453a1.188 1.188 0 00-.243-.385 1.118 1.118 0 00-.365-.256 1.068 1.068 0 00-.43-.09 1.118 1.118 0 00-.785.354c-.21.221-.33.518-.336.83.04.635.52 1.185 1.122 1.185zm-.32-4.14c.68 0 1.202.163 1.442.502v-2.249a.254.254 0 01.067-.182.23.23 0 01.173-.071h1.402a.222.222 0 01.173.071.246.246 0 01.067.182l-.032 7.492a.256.256 0 01-.067.182.22.22 0 01-.172.071h-1.402a.22.22 0 01-.173-.07.246.246 0 01-.067-.183l.032-.38a1.848 1.848 0 01-.636.478c-.242.11-.504.163-.767.157-1.402 0-2.724-1.184-2.724-3.045 0-1.86 1.322-2.954 2.683-2.954M50.274 32.985C49.921 34.283 49.137 35 47.921 35c-.667 0-1.333-.268-1.725-.672a.384.384 0 01-.082-.12.428.428 0 01-.035-.148.696.696 0 01.078-.268l.51-.896a.28.28 0 01.102-.102.238.238 0 01.133-.03c.117 0 .157.044.274.133.18.161.4.255.628.269a.544.544 0 00.357-.112.676.676 0 00.23-.332l.158-.627h-.823a.312.312 0 01-.205-.094.397.397 0 01-.109-.22L46.04 26.49a.89.89 0 01-.039-.268c0-.134.079-.222.235-.222h1.607c.158 0 .235.134.275.314l.902 3.806h.077l.744-3.806c.039-.134.118-.314.275-.314h1.65c.157 0 .235.09.235.222a.887.887 0 01-.039.268l-1.687 6.495zM10.646 30.76c-.68.919-1.762 1.239-2.724 1.239-2.281 0-3.927-1.683-3.927-4 0-2.24 1.803-4 4.127-4 1.723 0 3.126.72 3.77 2.12.08.16.12.44-.321.52l-1.242.197a.46.46 0 01-.48-.198 2.082 2.082 0 00-1.643-.84c-1.242 0-2.083.92-2.083 2.16 0 1.36 1.001 2.16 2.083 2.16.72 0 1.322-.28 1.722-.76H8.846a.274.274 0 01-.28-.281v-1.04a.273.273 0 01.28-.28h3.326a.272.272 0 01.28.28v3.683a.275.275 0 01-.28.28H11.01a.272.272 0 01-.28-.28v-.963M42.584 30.14c.296-.007.578-.134.787-.355.209-.22.329-.518.335-.83 0-.155-.028-.31-.085-.453a1.19 1.19 0 00-.243-.385 1.118 1.118 0 00-.364-.256 1.068 1.068 0 00-.43-.09 1.118 1.118 0 00-.786.354c-.209.221-.329.518-.335.83.04.635.52 1.185 1.121 1.185zm-.32-4.14c.681 0 1.202.163 1.442.502v-2.249a.256.256 0 01.068-.182.23.23 0 01.172-.071h1.403a.222.222 0 01.172.071.246.246 0 01.068.182l-.032 7.492a.256.256 0 01-.068.182.22.22 0 01-.173.071h-1.4a.22.22 0 01-.173-.07.245.245 0 01-.068-.183l.032-.38a1.847 1.847 0 01-.636.478c-.242.11-.503.163-.766.157-1.403 0-2.725-1.184-2.725-3.045 0-1.86 1.322-2.954 2.684-2.954M17.152 28.997c0-.155-.029-.31-.085-.453a1.19 1.19 0 00-.243-.385 1.118 1.118 0 00-.365-.256 1.069 1.069 0 00-.43-.09 1.118 1.118 0 00-.785.354c-.21.22-.33.518-.336.83 0 .314.118.615.329.837.21.223.495.347.793.347.297 0 .583-.124.793-.347.21-.222.329-.523.329-.837zm1.923 0c0 1.692-1.362 3.003-3.045 3.003-1.683 0-3.045-1.354-3.045-3.003 0-1.692 1.362-2.997 3.045-2.997 1.723 0 3.045 1.306 3.045 2.997zM30.003 30.14c.295-.006.577-.133.786-.354.209-.22.33-.518.335-.83 0-.155-.028-.31-.084-.453a1.19 1.19 0 00-.243-.385 1.118 1.118 0 00-.365-.256 1.067 1.067 0 00-.43-.09 1.118 1.118 0 00-.785.354c-.21.221-.33.518-.336.83.04.635.52 1.184 1.122 1.184zm-.28-4.14c.64 0 1.16.164 1.402.545v-.17a.304.304 0 01.08-.211.273.273 0 01.2-.085h1.355a.22.22 0 01.172.071.246.246 0 01.068.183v5.202a.255.255 0 01-.068.182.23.23 0 01-.172.072h-1.355a.22.22 0 01-.172-.072.245.245 0 01-.068-.182v-.17c-.24.339-.76.635-1.402.635-1.403 0-2.725-1.184-2.725-3.045 0-1.86 1.283-2.955 2.684-2.955z" fill="#fff"/></svg>