<!-- by TradingView --><svg width="56" height="56" xmlns="http://www.w3.org/2000/svg"><path fill="#4FC143" d="M0 0h56v56H0z"/><path d="M12 19c0-.326.453-1.186 1.45-1.186.987 0 1.55.754 1.55 1.186v4.552c0 .513-.866.796-1.55.841-.682.045-1.45-.223-1.45-.841V19zm3.004-2c-.525-.705-1.128-1-2.759-.976-1.63.024-2.245 1.591-2.241 2.562v5.384c0 1.167.267 2.538 2.298 2.538 1.25 0 2.348-.62 2.702-.996v1.574c0 .616-1.099.917-1.553.917-.455 0-1.451-.035-1.451-1.003h-2c.018.94.098 3 3.349 3C16.93 30 17 27.777 17 26.747V16h-1.996v1zM18 16l2 .002V17c.427-.757 1.504-1.043 3-.998v2.484c-.2-.053-.453-.165-.86-.165-1.633 0-2.14 1.484-2.14 2.327v6.354L18 27V16zM26 19.011c0-.651.42-1.011 1-1.011.759 0 1 .729 1 1.011V20h-2v-.989zM26 22h4v-3c0-.617-.115-1.448-.652-2.068C28.773 16.32 27.873 16 27 16c-.676 0-1.418.19-1.978.621-.615.474-1.022 1.215-1.022 2.536v4.46c0 2.13.875 3.385 3.053 3.385 1.383 0 2.912-.556 2.912-2.846V23H28c0 .904.09 2.004-1.003 2.004-.823 0-.997-.769-.997-1.229V22zM33 19.036c0-.652.42-1.011 1-1.011.758 0 1 .729 1 1.011v.989h-2v-.989zm0 2.989h4v-3c0-.617-.115-1.448-.652-2.068-.575-.612-1.475-.932-2.348-.932-.676 0-1.418.19-1.978.621-.615.474-1.022 1.215-1.022 2.536v4.46c0 2.13.875 3.385 3.053 3.385 1.383 0 2.912-.556 2.912-2.846v-1.156H35c0 .904.09 2.004-1.003 2.004-.823 0-.997-.769-.997-1.229v-1.775zM38.023 16H40v1c.507-.486 1.624-.975 2.747-.975.78 0 1.384.3 1.748.713.505.57.505 1.204.505 1.854v8.41h-2v-7.907c0-.59-.53-1.095-1.376-1.095-1.067 0-1.624.76-1.624 1.24v7.762h-1.977V16zM27 34.976c0-.484.48-1.466 1.45-1.466 1.282 0 1.55 1.154 1.55 1.466V38.6c0 .526-.5 1.4-1.55 1.4-.97 0-1.45-.904-1.45-1.4v-3.624zm3-2.384c-.528-.437-1.68-1.001-2.66-1.001-.596 0-1.583.293-2.043 1.174-.213.39-.297.784-.297 1.48v4.571c0 .98.04 1.642.32 2.126C25.634 41.5 26.408 42 27.42 42c1.198 0 2.178-.661 2.579-1.194V42h2V28h-2v4.592zM35 34.277c0-.5.207-1.277 1-1.277s1 .679 1 1.277v4.524c0 .394-.096 1.199-1 1.199s-1-.925-1-1.199v-4.524zm-2 4.524c0 .786.074 3.199 3 3.199 1.985 0 3-1.058 3-2.96v-5.079c0-.848-.124-1.76-.935-2.382C37.505 31.172 36.676 31 36 31c-2.644 0-3 1.784-3 3.063V38.8zM41 28h2v4h2v2h-2v5.5c0 .664.659.528 1.596.528.155 0 .25-.028.404-.028v1.873c-.154.035-.44.127-1.223.127C41.594 42 41 41.16 41 39.864V34h-1v-2h1v-4z" fill="#fff"/></svg>