<!-- by TradingView --><svg width="56" height="56" xmlns="http://www.w3.org/2000/svg"><path fill="#006D58" d="M0 0h56v56H0z"/><path d="M12.146 22.01a6.584 6.584 0 00-3.7 1.437 9.47 9.47 0 00-.572.542 6.09 6.09 0 00-1.212 1.725 6.414 6.414 0 00-.61 2.016c-.08.568-.066 1.563.03 2.087.334 1.816 1.316 3.353 2.782 4.354a6.368 6.368 0 002.517 1.039c.457.091 1.45.112 1.972.044a6.438 6.438 0 002.748-1.045c.413-.28.653-.48 1.013-.845.272-.273.386-.364.386-.364l-.302 2H19.103l.607-7H14v2h2.45a3.993 3.993 0 01-1.175 1.854 4.231 4.231 0 01-2.06 1.013 4.915 4.915 0 01-1.395.003 4.336 4.336 0 01-1.752-.748 5.373 5.373 0 01-1.002-1.04 4.77 4.77 0 01-.664-1.592c-.04-.194-.052-.373-.049-.877 0-.615.003-.642.096-.986.219-.83.571-1.448 1.163-2.034a4.022 4.022 0 012.895-1.198c.497 0 .852.059 1.317.215a4.022 4.022 0 011.642 1.03c.318.327.546.642.756 1.048l.15.291.168-.353c.09-.194.358-.762.598-1.266l.43-.91-.11-.135a8.903 8.903 0 00-.846-.836 6.502 6.502 0 00-4.466-1.468z" fill="#fff"/><path d="M18.5 22s-.196 2.433-.338 4.106a74.8 74.8 0 00-.056.682c-.016.183-.036.389-.044.455l-.014.125h1.168c.645 0 1.17-.003 1.17-.009l.067-.716c.04-.392.098-1.018.131-1.392.036-.374.124-1.251.124-1.251h1.338c1.421.012 1.662.245 1.75.29.575.305.743 1.625.395 2.347C24.033 26.967 23.5 28 23 28h-2.585l-.07.95c-.039.53-.064 1.05-.064 1.05h1.157c.014.02.506.868 1.09 2.289L23.591 35h2.917s-.891-1.915-1.36-2.862c-.962-1.943-1.257-2.552-1.257-2.58 0-.018.167-.088.37-.16.656-.23 1.096-.49 1.493-.89.476-.473.798-1.143.932-1.94.356-2.123-.366-3.95-2.123-4.429-.224-.06-1.07-.119-2.063-.139-1.768-.036-4 0-4 0zM26.723 35h7.784l.278-2h-5.531l.445-4h4.8l.39-2h-5.007l.296-3h5.473l.26-2h-7.91l-1.278 13zM37.166 22.012L35.912 35h2.45l1.289-13-2.485.012zM40.472 22l-1.237 13h2.41l.511-6h4.954l.292-2.009-5.019.009.313-3h5.401l.278-2h-7.903z" fill="#fff"/></svg>