<!-- by TradingView --><svg width="56" height="56" xmlns="http://www.w3.org/2000/svg"><path fill="url(#paint0_linear)" d="M0 0h56v56H0z"/><path d="M9.777 28.947l.156.014c.612.043.825.143.896.2.057.042.171.213.171.882v2.205c0 .1-.028.185-.071.227-.029.029-.03.1-.442.242-.199.071-.398.114-.611.142a4.47 4.47 0 01-.57.043c-.938 0-1.735-.341-2.375-1.024-.64-.683-.968-1.65-.968-2.874 0-1.494.327-2.575.968-3.215.64-.64 1.394-.968 2.233-.968.84 0 1.494.27 2.006.811.285.313.57.811.854 1.451l.042.1h.598l-.114-3.244h-.583l-.043.1a.805.805 0 01-.17.27c-.03.029-.114.072-.314.072-.028 0-.156-.015-.853-.214a5.585 5.585 0 00-1.622-.228c-1.522 0-2.774.527-3.699 1.58C4.426 26.472 4 27.624 4 28.947c0 1.508.54 2.732 1.593 3.642.954.811 2.149 1.224 3.543 1.224.754 0 1.536-.143 2.347-.413 1.081-.37 1.517-.597 1.517-.81v-2.732c0-.384.071-.655.228-.769.042-.042.185-.1.597-.128l.157-.014v-.583H9.777v.583zM22.014 24.57l.157.013c.858.08.83 1.054.83 1.732v4c0 1.581-1.299 2.945-2.825 2.945C18.51 33.26 18 32.157 18 30.7v-4.963c0-.662.135-1.093.844-1.14l.156-.014V24h-4v.583l.157.015c.64.042.587.17.658.227.071.057.185.256.185.854V30.5c0 2.202 1.725 3.699 3.863 3.699 2.08 0 4.137-1.658 4.137-3.884v-4.014c0-.611.102-1.63.858-1.718L25 24.57V24h-3v.57h.014zM34.189 31.293c-.342.754-.712 1.223-1.124 1.408-.427.2-1.096.299-2.006.299-1.053 0-1.803-.043-1.917-.071-.028-.014-.142-.043-.142-.327V29h2.358c.697 0 .924.128.996.213.1.1.256.417.37 1.043l.028.142h.626v-3.735h-.626l-.029.142c-.113.626-.256.882-.355.982-.071.085-.299.213-1.01.213H29v-2.701c0-.265.005-.299.27-.299h2.273c.967 0 1.323.128 1.465.242.142.1.327.238.47.935l.028.142h.654L34.103 24h-8.089v.583l.157.015c.612.042.601.17.658.227.072.071.171.27.171.854v6.67c0 .64-.114.797-.17.84-.072.057-.062.17-.673.228L26 33.43V34h8.189l.725-2.793h-.711l-.014.086zM41.16 28.222l-1.224-.754c-.44-.27-.768-.527-.967-.769a1.225 1.225 0 01-.285-.81c0-.342.114-.612.356-.797.256-.2.54-.299.882-.299.455 0 .91.17 1.38.498.47.327.811.925 1.024 1.764l.029.128h.64l-.341-3.286h-.57l-.028.128a.906.906 0 01-.114.284c-.028.043-.114.057-.213.057-.029 0-.142-.028-.712-.227-.455-.157-.867-.242-1.195-.242-.81 0-1.465.256-1.963.74-.498.497-.74 1.123-.74 1.863 0 .57.214 1.096.64 1.565a9.656 9.656 0 002.063 1.681c.67.413 1.11.726 1.31.925.298.299.44.654.44 1.067 0 .455-.142.797-.426 1.038a1.514 1.514 0 01-1.039.385c-.768 0-1.394-.3-1.92-.91-.3-.356-.57-.84-.797-1.438l-.043-.113h-.626l.455 3.286h.598l.028-.142a.68.68 0 01.086-.257c.028-.042.085-.07.185-.07.028 0 .142.028.754.227.483.17.953.256 1.394.256.896 0 1.636-.256 2.22-.768a2.494 2.494 0 00.881-1.95c0-.582-.17-1.08-.498-1.507-.327-.399-.896-1.07-1.664-1.553zM51.502 29.789c-.327-.413-.882-1.084-1.65-1.567l-1.224-.754c-.44-.27-.768-.527-.967-.769a1.225 1.225 0 01-.285-.81c0-.342.114-.612.356-.797.256-.2.54-.299.882-.299.455 0 .91.17 1.38.498.47.327.811.925 1.024 1.764l.029.128h.64l-.341-3.286h-.57l-.028.128a.904.904 0 01-.114.284c-.028.043-.114.057-.227.057-.029 0-.143-.028-.712-.227-.455-.157-.867-.242-1.195-.242-.81 0-1.465.256-1.963.74-.498.497-.74 1.123-.74 1.863 0 .57.214 1.096.64 1.565a9.654 9.654 0 002.063 1.681c.669.413 1.11.726 1.31.925.298.299.44.654.44 1.067 0 .455-.142.797-.426 1.038a1.514 1.514 0 01-1.04.385c-.767 0-1.393-.3-1.92-.91-.298-.356-.569-.84-.796-1.438l-.043-.113h-.626l.455 3.286h.598l.028-.142a.68.68 0 01.086-.257c.028-.042.085-.07.185-.07.028 0 .142.028.754.227.483.17.953.256 1.394.256.896 0 1.636-.256 2.22-.768a2.494 2.494 0 00.881-1.95 2.42 2.42 0 00-.498-1.493z" fill="#fff"/><defs><linearGradient id="paint0_linear" x1="10.418" y1="9.712" x2="68.147" y2="76.017" gradientUnits="userSpaceOnUse"><stop stop-color="#1A1E21"/><stop offset="1" stop-color="#06060A"/></linearGradient></defs></svg>