<!-- by TradingView --><svg width="56" height="56" xmlns="http://www.w3.org/2000/svg"><path fill="#F0F3FA" d="M0 0h56v56H0z"/><path d="M12 28.328c0-8.66 7.07-15.677 15.793-15.677 8.722 0 15.794 7.017 15.794 15.677C43.587 36.983 36.515 44 27.793 44 19.071 44 12 36.983 12 28.328z" fill="#1C3361"/><path d="M13.568 27.209c0-8.273 6.756-14.983 15.099-14.983s15.098 6.71 15.098 14.983c0 8.279-6.755 14.983-15.098 14.983s-15.099-6.704-15.099-14.983z" fill="#fff"/><path d="M28.62 27.315l-.005.645h-.086l-.392-.632h-1.083l.795-3.605.556-.274-3.57-.491-.505.515.188.068s1.435 1.358 2.218 1.027a.53.53 0 01.286.216l-.423.314-.453 1.942a5.357 5.357 0 00-1.91.889l-.225.703-1.218-3.716 2.476-3.825h6.594l2.488 3.825-.398.13-.948 2.883c-.538-.421-1.31-.758-1.897-.89l-.398.29-.6-2.545c.097-.12.184-.187.286-.216.794.332 2.229-1.027 2.229-1.027l.29-.094-.496-.489-3.57.49.775 3.546h-.798l-.206.321zm-3.568-8.864c.636 0 .927.578.927.578s.613 1.043.94 1.295l-.593-.248c-1.107-.29-1.463-.923-1.698-1.2l-.82-.45s.61.025 1.244.025zm5.746 9.558s1.858.622 1.839 1.426l-.352.119c-.033.61-.717 1.225-1.067 1.503l-1.732-1.097-.474.15v-1.282l1.726-.286.06-.533zm-2.243 2.34l2.262 1.539-.55.16c-.373.437-1.086 1.16-1.657 1.16-.582 0-1.294-.723-1.67-1.16l-.659-.16 2.274-1.539zm1.396 3.555l-.27.715c.023.544.473 1.056.445 1.794-.022.5-.388.887-.687 1.145l-.644.409c.83-.898-1.188-2.98 1.156-4.063zm1.93-1.923l-.293.61c.008 1.302.636 1.57.65 2.922.018.675-.411 1.322-.753 1.56l-.824.51c1.643-1.687-1.806-4.363 1.22-5.602zm1.142-1.466l.078.806c.93 1.436 2.102 2.978.54 4.632l-.644.762c1.286-3.205-1.539-3.481.026-6.2zm.914-2.137l.068.95c.245.666 2.608 1.93 1.714 3.746l-.322 1.19c.27-1.382-2.026-3.3-1.841-4.829.06-.538.381-1.057.381-1.057zm2.336-2.502c.264.45.342 1.887.342 1.924l-.426-.868c-.232-.21-.577-.37-.693-.585-.1-.168-.125-.512-.15-.812l-.406-.765s1.066.653 1.333 1.106zm-2.933-7.45l-.734.45c-.222.277-.59.91-1.685 1.2l-.69.248c.325-.252.94-1.295.94-1.295s.29-.578.924-.578c.636 0 1.245-.025 1.245-.025zm-2.405.025l-.619.432c-.162.29-.643 1.045-.985 1.113l-.497.328c.362-.539-.055-1.873 1.003-1.873h1.098zm5.892 1.359c.06 1.068-.049 1.399-.051 1.411l-.24-.728c-.242-.234-.587-.494-.977-.553-.753-.128-1.576.12-2.737.474l-.438-.026c.752-.775 1.437-2.308 2.578-2.308 1.075 0 1.788.516 1.865 1.73zm-4.096 1.382c.648.305 1.917-.463 2.741-.17 1.328.477 1.146 1.752 1.144 1.78l-.534-.687c-.375-.274-2.174-.025-2.633-.462l-.718-.46zm1.145 1.542c.672.506 2.414.185 2.74 1.174.19.583.028 1.398.025 1.414l-.298-.75c-.153-.25-1.477-.991-1.594-1.18l-.873-.658zm.645 3.814s1.593 1.381 1.878 2.213c.38 1.147.22 1.926.217 1.942l-.313-.858c-.46-.662-1.445-1.146-1.54-1.836a2.648 2.648 0 01.019-.635l-.26-.826zm-13.823-6.056l-.326.729s-.125-.318-.051-1.411c.078-1.214.778-1.73 1.866-1.73 1.14 0 1.825 1.534 2.578 2.308l-.352.026c-1.16-.355-1.985-.602-2.737-.474-.39.059-.736.319-.978.552zm.205 4.08l-.394.75s-.18-.82.025-1.413c.326-.99 2.07-.667 2.742-1.183l-.779.666c-.13.19-1.452.931-1.594 1.18zm.143 2.36l-.508.854c-.004.014.071-1.451.337-1.91.267-.452 1.334-1.105 1.334-1.105l-.32.764c-.026.301-.05.645-.138.813-.128.213-.473.375-.705.584zm-.114 2.914l-.398.858s-.18-.78.215-1.942c.286-.832 1.867-2.213 1.867-2.213l-.163.826c.023.199.045.424.02.635-.082.69-1.08 1.174-1.54 1.835zm.584 3.228l.22 1.163.016.026s-.738-.74-.851-1.752c-.236-2.035 2.033-2.616 2.299-4.132l.043.95c-.124 1.561-1.644 2.892-1.727 3.745zm2.079 2.879l.556.762c-3.507-2.042-1.271-4.288-.026-6.2l.02.806c.48 1.992-1.245 2.189-.55 4.632zm2.18 1.12l.712.51c-1.273-.297-1.931-.959-1.993-2.069-.102-1.62.693-1.763.775-3.533l.402.611c1.299 1.145-.541 2.782.103 4.481zm2.021.484l.557.41s-1.437-.062-1.65-1.59c-.058-.878.556-1.61.483-2.473l.369.715c.976.67-.159 2.03.241 2.938zm-6.643-15.442l-.618.685c-.001.002-.206-1.292 1.141-1.778.823-.293 2.082.474 2.742.17l-.62.461c-.471.437-2.258.188-2.645.462zm5.049-3.664h1.11c1.046 0 .64 1.334.99 1.873l-.398-.328c-.33-.068-.822-.822-.986-1.113l-.716-.432zm-.211 12.606l-.065.423s-1.463-.96-1.463-2.045c-.022-.803 1.836-1.425 1.836-1.425l-.288.65.033.31.316-.428 1.725.287-.352.419v.713" fill="#1C3361"/><path d="M27.555 34.619c.976.671-.159 2.03.24 2.939-.298-.259-.665-.643-.674-1.145-.027-.736.41-1.25.434-1.794zm2.125 0c-.964.671.158 2.03-.24 2.939.298-.259.664-.643.686-1.145.028-.736-.422-1.25-.446-1.794zm3.8-1.084c.268.584.5 1.242.16 2.418.791-.834.877-1.64.659-2.418h-.82zm-2.365 0c-.06 1.019.854 2.26.37 3.539.341-.24.771-.886.752-1.562.036-.943-.224-1.37-.512-1.977h-.61zm-4.97 0c.058 1.019-.854 2.26-.37 3.539-.342-.24-.771-.886-.754-1.562.01-.948.326-1.365.513-1.977h.61zm-2.26-.032c-.269.584-.49 1.282-.29 2.45-.78-.834-.878-1.64-.647-2.418" fill="#BD9D53"/><path d="M27.904 19.996c-.33-.068-.822-.821-.986-1.112h.468c.518 0 .331.62.518 1.112zm-4.106 1.658c-.495.493-2.122.393-2.645.462.185-.253.339-.566.762-.71.484-.16 1.016.185 1.883.248zm-.556 7.674c-.123 1.563-1.643 2.893-1.726 3.747-.894-1.817 1.468-3.08 1.726-3.747zm-.79-1.953c.024.2.046.424.02.636-.082.69-1.08 1.174-1.54 1.835.03-.252.086-.553.214-.883.183-.479.802-1.066 1.306-1.588zm-1.206-1.236c.09-.17.374-.399.643-.604-.026.301-.005.68-.092.848-.128.214-.519.34-.751.55 0 0 .104-.65.2-.794zm1.251-2.747c-.385.491-1.344.967-1.594 1.18.003-.15-.016-.333.036-.53.128-.45 1.24-.538 1.558-.65zm3.829-3.316c-1.094-.156-1.464-.923-1.698-1.2.158.007.322.008.499.008.195 0 .357.057.456.19.035.062.536.763.743 1.002zm-1.913.34c-1.162-.357-1.98-.512-2.732-.384a1.82 1.82 0 00-.983.461c.021-1.369.4-1.887 1.379-1.97.818-.063 1.622 1.166 2.335 1.893zm9.591 8.912c.112 1.563 1.63 2.893 1.715 3.747.96-1.835-1.468-3.08-1.715-3.747zm.777-1.953c-.022.2-.046.424-.02.636.096.69 1.082 1.174 1.541 1.835a3.566 3.566 0 00-.214-.883c-.182-.479-.803-1.066-1.307-1.588zM36 26.14c-.102-.17-.373-.399-.655-.604.026.301.05.645.15.813.117.214.461.375.694.585 0 0-.106-.65-.19-.794zm-1.251-2.747c.117.19 1.44.931 1.594 1.18-.014-.15.005-.333-.048-.53-.127-.45-1.227-.538-1.546-.65zm-1.3-1.738c.458.437 2.258.188 2.633.462-.187-.253-.34-.566-.763-.71-.484-.16-1.017.185-1.87.248zm-2.529-1.578c1.12-.226 1.53-.854 1.687-1.2a9.994 9.994 0 01-.488.008c-.207 0-.368.057-.468.19-.036.062-.535.763-.73 1.002zm-1.59-.08c.44-.058.898-.798.986-1.112h-.457c-.53 0-.342.62-.529 1.112zm3.492.42c1.23-.244 1.841-.405 2.695-.405.391.059.777.25 1.02.482-.022-1.369-.4-1.887-1.38-1.97-.805-.063-1.62 1.166-2.335 1.893zm-.537 9.086v.053c-.033.61-.717 1.225-1.067 1.503l-1.732-1.096v-.713l1.678-.28.032-.308c.473.211 1.092.553 1.089.841zm-2.018 2.546c-.374.438-1.087 1.161-1.658 1.161-.582 0-1.294-.723-1.669-1.161l1.67-1.132 1.657 1.132zm-4.224-3.078l1.69.279v.713l-1.743 1.096c-.356-.289-1.066-.925-1.066-1.556-.004-.288.614-.63 1.087-.841l.032.309zm2.578-1.654l-.193-.321h-.798l.775-3.547-3.57-.489-.506.515 1.227-1.9h6.141l1.219 1.874-.497-.489-3.57.49.775 3.546h-.798l-.205.32zm4.46-3.616l.888 1.342-.935 2.936c-.54-.42-1.34-.806-1.926-.938l-.452-1.945c.964.03 2.296-1.277 2.425-1.395zm-8.952.064c.129.114 1.485 1.428 2.47 1.334l-.39 2.005c-.607.229-1.349.48-1.972.826l-.937-2.882.829-1.283zm10.17 9.771c-.167-.808-.662-1.553-1.199-2.214-.256 1.031.087 1.583.379 2.214h.82zm-2.477 0a9.582 9.582 0 01-.234-.942c-.32.288-.451.602-.474.942h.708zm-6.288 0c.08-.261.135-.553.137-.942.333.288.45.602.474.942h-.611zm-2.587 0c.217-.764.73-1.502 1.2-2.214.322 1.124.021 1.64-.391 2.214" fill="#BD9D53"/><path d="M13.335 27.209c0-8.402 6.86-15.209 15.333-15.209C37.127 12 44 18.808 44 27.209c0 8.4-6.873 15.208-15.332 15.208-8.472 0-15.333-6.808-15.333-15.208zm.53 0c0 8.11 6.623 14.688 14.803 14.688 8.167 0 14.8-6.577 14.8-14.688 0-8.11-6.633-14.684-14.8-14.684-8.18 0-14.803 6.573-14.803 14.684z" fill="#BD9D53"/><path d="M34.577 35.28c-.275.487-.778.964-1.58 1.435l.644-.762a3.38 3.38 0 00.498-.673h.438zm-1.918 0c0 .078-.002.155-.005.235-.073 1.11-.72 1.77-1.993 2.069l.824-.51c.342-.24.77-.886.753-1.56-.001-.086.002-.29 0-.366l.421.132zm-2.416 0c.125.356.23.711.203 1.097-.214 1.529-1.651 1.59-1.651 1.59l.644-.408c.256-.325.577-.688.688-1.145.008-.436-.186-.9-.318-1.238l.434.104zm-2.29 0c0 .712-.45 1.61-.157 2.278l.558.408c-.541-.592.133-1.689 0-2.686h-.4zm-2.176 0c-.142.578-.24 1.184-.003 1.794l.713.509c-.64-.667-.503-1.477-.285-2.302h-.425zm-2.32 0a5.4 5.4 0 00.137.673l.557.762c-.22-.555-.322-1.026-.345-1.435" fill="#BD9D53"/><path d="M29.86 35.28c-.095-.224-.174-.439-.18-.66l.27-.715c-.031.487.15.926.294 1.375h-.384zm-1.506 0c-.062-.516-.355-1.005-1.168-1.375l.369.715a.875.875 0 01.399.66h.4zm7.887-2.68c-.154.965-.843 1.664-.843 1.664l.322-1.19c.079-.16.131-.318.173-.473h.348zm-1.854 0c.476.883.713 1.792.19 2.68l-.55.157c.489-.927.335-1.979-.127-2.836h.487zm-2.446 0c.204 1.147.737 1.468.719 2.68h-.428c-.083-1.149-.635-1.463-.643-2.68h.352zm-5.049 0c.448.45 1.066.949 1.663.949.585 0 1.202-.498 1.65-.948l-.525-.047c-.35.32-.712.597-1.07.597-.367 0-.7-.549-1.138-.55h-.58zm-1.205 0c.42.949.356 1.663.09 2.68h.426c.265-.963.655-1.939 0-2.68h-.516zm-1.538 0c-.234.844-.854 1.39-.692 2.68h.349c-.056-1.163.533-1.837.741-2.678l-.398-.001zm-2.476 0c-.095.173-.15.33-.157.475l.236 1.189c-.102-.5.137-1.068.464-1.663" fill="#BD9D53"/><path d="M20.534 22.802c.956-.895 3.452.21 3.884-1.61l-.619.46c-.472.438-2.259.19-2.645.464l-.62.686zm-.16-1.58c.367-.5 1.011-.886 1.39-.95.876-.146 2.55.476 2.57.483.136-.118.431-.366.431-.366l-.352.025c-1.16-.355-1.984-.602-2.736-.474-.39.059-.736.32-.978.554l-.326.728zm2.123 2.17c-.129.189-1.451.93-1.593 1.18l-.396.751c.793-.962 2.55-1.623 2.768-2.596l-.779.665zM20.534 27.8c.376-.618 1.384-1.012 1.51-1.465.115-.46.166-1.565.166-1.565l-.32.765c-.027.3-.05.644-.138.812-.128.215-.473.376-.705.585l-.513.868zm0 2.905c1.017-1.456 2.124-1.52 2.209-2.76.05-.648-.126-1.397-.126-1.397l-.163.827c.023.198-.073.433-.099.645-.082.689-.962 1.164-1.423 1.825l-.398.86zm3.276-12.28c.661.788 1.218 2.096 3.11 1.9l-.594-.248c-1.106-.291-1.463-.923-1.696-1.201l-.82-.45zm2.392.026c.66.985 1.087 2.068 2.101 1.875l-.398-.33c-.33-.068-.822-.821-.986-1.112l-.717-.433zm8.547 4.941c.118.189 1.442.93 1.595 1.18l.298.751c-.792-.962-2.55-1.623-2.768-2.596l.875.665zm1.868-.59c-.956-.895-3.453.21-3.886-1.61l.718.46c.46.438 2.258.19 2.634.464l.534.686zm.16-1.58c-.369-.5-1.013-.886-1.402-.95-.878-.146-2.552.476-2.56.483a32.68 32.68 0 00-.43-.366l.438.025c1.16-.355 1.983-.602 2.736-.474.39.059.736.32.978.554l.24.728zm-3.436-2.796c-.662.787-1.22 2.095-3.122 1.9l.702-.249c1.095-.291 1.463-.923 1.687-1.201l.733-.45zm-2.406.025c-.647.985-1.073 2.068-2.1 1.875l.496-.33c.342-.068.824-.821.986-1.112l.618-.433zm5.682 9.349c-.376-.618-1.385-1.012-1.512-1.465-.114-.46-.164-1.565-.164-1.565l.405.765c.026.3.05.644.15.812.117.215.462.376.694.585l.427.868zm0 2.905c-1.03-1.456-2.125-1.52-2.209-2.76-.05-.648.113-1.397.113-1.397l.261.827a2.731 2.731 0 00-.02.635c.096.689 1.082 1.174 1.541 1.835l.314.86zm-8.883-1.456v.712l-1.743 1.096-.064.424 2.159-1.37V28.83l-.352.42zm-1.69-.28l-.032-.308.288-.651.061.532-.317.428zm-1.807-1.039a5.348 5.348 0 011.91-.89l.452-1.942.423-.307-.589 2.537c-.745.077-2.072.709-2.421 1.304l.225-.702zm6.872-.89c.587.13 1.358.468 1.897.89l.949-2.884.396-.131-1.217 3.716c-.35-.595-1.677-1.226-2.424-1.303l.398-.288zm-3.26-3.317l-3.135-.432c0 .014-.195.25-.195.25l-.188-.068.527-.6 3.548.576-.556.274zm.767 4.238l.379-.633h1.082l-.794-3.605 3.136-.432c0 .013.206.25.206.25l.291-.094-.497-.538-3.625.414.83 3.67h-.797l-.206.322-.005.645zm.398 2.15l2.159 1.369s1.463-.96 1.463-2.045l-.351.119c-.032.61-.717 1.225-1.067 1.503l-1.732-1.096-.472.15zm6.879 2.49c.32-1.56-1.666-2.663-1.888-3.272l-.068-.95c.265 1.516 2.548 2.098 2.311 4.131l-.007.09h-.348zm-1.992 0c-.24-.436-.532-.867-.8-1.28l-.077-.805c.427.66.982 1.362 1.364 2.085H33.9zm-2.312 0v-.01l.292-.61c.005.234.03.436.06.62h-.352zm-1.383 0c.357-.371.611-.712.611-.712l-.55.16c-.134.159-.59.365-.8.552h.739zm-2.437.05c-.21-.188-.691-.443-.828-.603l-.66-.16s.255.342.612.713l.876.05zm-1.565-.05c-.195-.234-.492-.445-.935-.62l.403.611c.001.007.015.01.015.01l.517-.001zm-1.656 0c.134-.556.101-1.188-.421-2.085l.019.805a2.81 2.81 0 01-.02 1.402l.422-.122zm-2.331 0c.6-1.054 1.488-2.19 1.376-3.166-.06-.537-.393-1.056-.393-1.056l.043.95c-.318 1.376-1.296 2.561-1.7 3.394" fill="#BD9D53"/></svg>