<!-- by TradingView --><svg width="56" height="56" xmlns="http://www.w3.org/2000/svg"><path fill="#0080A7" d="M0 0h56v56H0z"/><path d="M18 28.995v1.01h1.999v3.466c-.882 1.032-2.158 1.383-3.64 1.503a3.495 3.495 0 01-.423.026c-3.51-.034-5.918-2.217-5.936-7 0-4.095 1.934-6.155 4.474-6.809.44-.103.969-.191 1.463-.191 1.816 0 3.05.213 3.862 1.194.529.67.778 1.38 1.201 2.808h1.003V20L20 21c-1.111-.533-2.81-1-4.062-1-2.117 0-3.933.68-5.45 2.039C8.829 23.535 8 25.489 8 27.897c0 2.753 1.005 4.903 3.016 6.451C12.48 35.45 14.12 36 15.936 36c1.32 0 3.491-.683 4.063-1l2.005 1v-5.996h1.991v-1.009H18zM37 36c0-.379-.133-.913-.416-.965-.088-.017-.176-.035-.264-.035H35v-7h9v7h-2v1h6c0-.379-.141-.923-.423-.974a1.378 1.378 0 00-.265-.026H46V21h2v-1h-6v1h2v6h-9v-6h2v-1h-6v1h2v14h-2v1h6z" fill="#fff"/><path stroke="#B7BABC" d="M27.5 16v24"/></svg>