<!-- by TradingView --><svg xmlns="http://www.w3.org/2000/svg" width="56" height="56"><path fill="#F0F3FA" d="M0 0h56v56H0z"/><path d="M11 25H9v-1.1c0-.4 0-.9-.5-.9-.47 0-.5.48-.5.85v4.1c0 .4 0 1.05.5 1.05s.5-.47.5-.76v-.78h-.5V26H11v5H9.67l-.2-.89a1.42 1.42 0 01-1.35.89 2.08 2.08 0 01-1.75-1.06c-.16-.3-.27-.62-.3-.95-.05-.33-.07-.82-.07-1.48v-2.85c0-.92.04-1.58.13-2 .08-.41.33-.8.74-1.14.4-.35.93-.52 1.57-.52s1.16.15 1.58.45c.42.3.7.66.82 1.07.13.41.16 1.01.16 1.8V25zm6-4v6.98c0 .55 0 .95-.03 1.2a2.3 2.3 0 01-1.18 1.64c-.33.16-.73.18-1.18.18-.5 0-.94-.03-1.33-.23-.38-.2-.67-.44-.86-.75-.19-.31-.3-.64-.34-.99-.03-.34-.08-1.07-.08-2.17V21h2v6.93c0 .45.05 1.07.52 1.07.46 0 .48-.64.48-1.07V21h2zm6.5 10l-1.36-10h-3.43L17.5 31h2.45l.15-2h.85l.12 2h2.43zm-2.68-4.61l.07.61h-.82c.06-.89.19-2.09.43-4 .1 1.37.21 2.42.32 3.39zM24 21h1.69c1.07 0 1.72.05 2.1.14 1.2.52 1.21 1.86 1.21 2.5 0 .87-.09 1.86-1.18 2.13 1.2.3 1.2 1.26 1.18 2.28V31h-2v-3.53c0-.48-.6-.47-.94-.47H26v4h-2V21zm2 4c.26 0 .66 0 .81-.12.16-.12.19-.44.19-.83 0-.33-.03-.76-.18-.9-.15-.15-.5-.15-.77-.15H26v2zm5.61-4H30v10h2.72c.52 0 .9-.03 1.16-.1.26-.07.47-.19.65-.36.17-.17.3-.4.36-.71.07-.3.11-.9.11-1.8v-3.5a16 16 0 00-.07-1.9 1.96 1.96 0 00-.36-.89 1.6 1.6 0 00-.84-.57 8.37 8.37 0 00-2.11-.17zM33 28.38c0 .62-.45.62-1 .62v-6c.48 0 1 .08 1 .73v4.64zm11-1.56c0 .96-.02 1.65-.06 2.05-.04.4-.16.77-.37 1.1-.2.33-.49.58-.84.76a2.7 2.7 0 01-1.23.27c-.45 0-.84-.08-1.2-.25a2.03 2.03 0 01-.85-.76c-.22-.33-.35-.7-.39-1.1a23.3 23.3 0 01-.06-2.07v-1.64c0-.96.02-1.65.06-2.05.04-.4.16-.77.37-1.1.2-.33.49-.58.84-.76A2.7 2.7 0 0141.5 21c.44 0 .84.08 1.2.25.35.17.64.42.85.76.22.33.35.7.39 1.1.04.39.06 1.08.06 2.07v1.64zm-2-3c0-.26 0-.82-.5-.82-.48 0-.5.54-.5.83v4.34c0 .29 0 .83.5.83s.5-.55.5-.83v-4.34zM50 31V21h-2v4.53L47 21h-2v10h2v-4.53L48.05 31H50z"/><path d="M36.94 22.88a1.44 1.44 0 100-2.88 1.44 1.44 0 000 2.88zM38 31v-7h-2v7h2z" fill="#2377BD"/><path d="M8.4 33.44H6.6V32H6v4h.6v-2h1.8v2H9v-4h-.6v1.44zm1.8-.87h1.46V32h-2v4h2v-.57H10.2V34h1.4v-.56h-1.4v-.87zM14.84 35h-1.67l-.5 1H12l2.04-4L16 36h-.68l-.5-1zm-.22-.5l-.58-1.23-.63 1.23h1.21zm2.39.9V32h-.6v4h1.77v-.6H17zm2.6-2.8V36H19v-3.4h-1V32h2.6v.6h-1zm12.74.37v-.69a3.03 3.03 0 00-1.26-.28A2 2 0 0029 34.02c0 1.17.97 1.98 2.08 1.98.4 0 .9-.1 1.26-.28v-.7a2.7 2.7 0 01-.57.34c-.15.06-.46.1-.69.1-.78 0-1.48-.6-1.48-1.44s.68-1.47 1.48-1.47c.4 0 .9.14 1.26.42zM33.6 32v4H33v-4h.6zm3.4 0v4h.57v-2.7l2.78 2.7v-4h-.57v2.7L37 32zm12.9.65l-.46.28a.81.81 0 00-.25-.3.59.59 0 00-.32-.08c-.16 0-.3.05-.4.14-.1.09-.16.2-.16.34 0 .19.14.34.42.45l.38.16c.3.13.53.28.68.46.14.18.21.4.21.67A1.2 1.2 0 0148.77 36c-.33 0-.6-.1-.82-.3-.2-.2-.34-.47-.4-.83l.59-.13c.02.22.07.38.14.47a.6.6 0 00.51.24.6.6 0 00.45-.18.63.63 0 00.18-.46.57.57 0 00-.13-.38.78.78 0 00-.17-.15 1.73 1.73 0 00-.24-.13L48.5 34c-.52-.23-.78-.55-.78-.98 0-.29.1-.53.33-.73.22-.2.49-.29.81-.29.44 0 .79.22 1.03.65zm-26.5.79h-1.8V32H21v4h.6v-2h1.8v2h.6v-4h-.6v1.44zm13.05-.87H35v.87h1.4v.57H35v1.42h1.45V36h-2v-4h2v.57zm-8.57.36l.47-.28c-.25-.43-.6-.65-1.03-.65-.33 0-.6.1-.82.29a.93.93 0 00-.33.73c0 .43.26.75.78.97l.37.16c.1.04.18.09.25.13l.17.15a.57.57 0 01.12.38c0 .18-.06.34-.17.46a.6.6 0 01-.45.18.6.6 0 01-.52-.25 1.04 1.04 0 01-.14-.47l-.58.13c.05.36.19.64.4.84.21.2.49.3.82.3a1.2 1.2 0 001.22-1.23c0-.27-.07-.49-.21-.67a1.64 1.64 0 00-.68-.46l-.38-.16c-.27-.12-.41-.27-.41-.45 0-.14.05-.25.16-.34.1-.1.23-.14.4-.14.12 0 .23.03.31.08.08.05.16.14.25.3zm16.46-.65v.7a2.2 2.2 0 00-1.26-.43c-.8 0-1.48.63-1.48 1.47 0 .83.7 1.44 1.48 1.44.23 0 .54-.04.7-.1a2.68 2.68 0 00.57-.34v.7c-.37.19-.87.28-1.27.28-1.1 0-2.08-.8-2.08-1.98A2 2 0 0143.08 32c.38 0 .9.1 1.26.28zm1.2.29H47V32h-2v4h2v-.57h-1.45v-1.42h1.4v-.57h-1.4v-.87z"/></svg>