<!-- by TradingView --><svg width="56" height="56" xmlns="http://www.w3.org/2000/svg"><path fill="#E11937" d="M0 0h56v56H0z"/><path d="M17.08 22.933c-3.262 0-5.262 2.522-5.262 5.067 0 3.064 2.523 5.067 5.285 5.067 1.833 0 3.421-.801 4.897-2.097v3.794c-1.548.92-3.516 1.485-5.159 1.485-4.714 0-8.666-3.794-8.666-8.249 0-4.713 3.976-8.249 8.69-8.249 1.81 0 3.754.543 5.135 1.226v3.724c-1.738-1.132-3.326-1.768-4.92-1.768zM32.171 36.249c-4.737 0-8.737-3.654-8.737-8.25 0-4.642 3.976-8.248 8.952-8.248 1.81 0 4.233.471 5.614 1.108v3.7c-1.571-.896-3.78-1.626-5.543-1.626-3.261 0-5.38 2.521-5.38 5.067 0 2.993 2.5 5.161 5.428 5.161.619 0 1.733-.047 2.495-.33V30h-3v-3h6v8.07c-1.738.778-3.78 1.179-5.829 1.179zM41 36V20h3v16h-3z" fill="#fff"/></svg>