<!-- by TradingView --><svg width="56" height="56" xmlns="http://www.w3.org/2000/svg"><path fill="#003DA5" d="M0 0h56v56H0z"/><path d="M7.662 23.028a5.301 5.301 0 00-.761.105 3.732 3.732 0 00-.63.195 3.234 3.234 0 00-.545.3C4.58 24.373 4 25.86 4 28.05c0 .903.095 1.675.283 2.295.19.628.5 1.164.918 1.596.194.2.4.373.61.509.211.136.45.246.71.326.263.081.56.14.882.173.325.033.708.051 1.14.051H12v-6H7.5l.011 2H10v2.267H8.726c-.368 0-.683-.016-.937-.05a2.51 2.51 0 01-.652-.165 1.412 1.412 0 01-.454-.297 2.334 2.334 0 01-.369-.49 3.287 3.287 0 01-.232-.482 3.38 3.38 0 01-.152-.538 5.67 5.67 0 01-.083-.66l-.007-.11c-.01-.165-.017-.247-.018-.406-.017-1.498.341-2.502 1.062-2.982.11-.073.218-.134.317-.178.096-.045.21-.08.34-.108a3.04 3.04 0 01.474-.055c.188-.01.432-.014.722-.014H12V23H8.61c-.344 0-.664.01-.948.028zM13 33h2V23h-2v10zM17.992 28.619L18 23h-2v5.985c0 .375.014.713.041 1.005.028.299.07.569.125.804.058.24.138.458.24.653.1.186.224.364.365.527.322.372.715.64 1.167.797.44.152 1.02.229 1.719.229H22v-2h-1.81c-1.799 0-2.198-.727-2.198-2.381zM33 27.905c0-.836-.114-1.564-.337-2.164a4.169 4.169 0 00-1.089-1.606 4.194 4.194 0 00-.736-.553 3.54 3.54 0 00-.869-.352 6.47 6.47 0 00-1.12-.18c-.402-.033-.902-.05-1.486-.05H23v10h4.526c.454 0 .843-.007 1.153-.022.32-.015.608-.042.854-.082.255-.042.485-.098.684-.166.204-.071.411-.162.612-.271.72-.376 1.27-.955 1.631-1.726.358-.758.54-1.71.54-2.828zm-2 .218c0 .507-.049.972-.148 1.381a2.709 2.709 0 01-.46 1.007c-.224.324-.532.56-.913.708-.394.15-.915.227-1.55.227H25v-6.894h2.594c.634 0 1.146.06 1.518.18.914.297 1.407.808 1.677 1.732.14.489.211 1.047.211 1.659zM37.717 23c-.095 0-.345.021-.605.223-.3.232-.477.657-.528.825L33 33h2l.668-1.919c.09-.236.221-.48.27-.524a.442.442 0 01.29-.091c.045 0 .082.004.112.007l.009.001 3.785-.001.748 1.98c.042.1.125.283.233.386.117.111.294.161.575.161.056 0 .1-.003.1-.003L43 33l-3.837-9.999L37.717 23zm1.894 6h-3.119l1.26-3.29.112-.3c.053-.143.102-.273.177-.46L39.61 29zM50 30l-3.462-6-.012-.015c-.004-.006-.41-.53-.649-.764-.095-.09-.28-.21-.789-.21-.084 0-.138 0-.174.005L44 23v10h2v-7l3.43 5.919c.13.23.457.781.711.928.255.146.587.153.652.153H52v-9.994h-2V30z" fill="#fff"/></svg>