<!-- by TradingView --><svg width="56" height="56" fill="none" xmlns="http://www.w3.org/2000/svg"><path fill="#002A65" d="M0 0h56v56H0z"/><path d="M38 14s-13.387.486-15 13.005H8S13.342 12.982 38 14zM38.004 41.997S25.114 41.555 23 30H8s5.345 12.977 30.004 11.997z" fill="#E02235"/><path d="M42.26 19.547c.74.65 1.57 1.39 1.57 1.39 0 1.918-2.834 2.96-6.347 2.582-3.515-.38-6.305-2.054-6.305-3.971" stroke="#fff" stroke-width=".75"/><path d="M46.252 24.567c0 3.154-3.865 5.144-9.024 4.466-5.642-.742-9.493-3.435-9.368-6.657" stroke="#fff" stroke-width=".75"/><path d="M46.916 28.63c-.809 3.968-5.156 6.412-10.884 5.502-6.169-.98-9.643-4.316-9.689-8.35M37.64 17.857c-.26 2.745-1.63 13.598-2.45 20.497" stroke="#fff" stroke-width=".75"/><path d="M38.636 18.25c-1.907-.276-3.873 2.994-5.972 8.375-1.388 3.56-2.134 7.525-1.418 10.574" stroke="#fff" stroke-width=".75"/><path d="M39.934 18.46c-2.723-.352-5.314.864-8.395 4.939-2.277 3.012-4.436 7.71-2.965 11.769" stroke="#fff" stroke-width=".75"/><path d="M26.492 31.056c-.143-2.58.1-5.969 4.909-10.137 2.676-2.271 7.693-3.426 11.492-.798M27.503 23.002c1.586-2.036 4.995-5.384 10.302-4.998M37.737 17.985s-6.54 1.395-7.224 1.834" stroke="#fff" stroke-width=".75"/><path d="M37.821 17.972c1.995 1.01 6.585 7.975 6.33 14.13-.073 1.762-.461 3.4-1.574 4.714" stroke="#fff" stroke-width=".75"/><path d="M38.812 38.354c1.406-2.228 1.631-5.382 1.475-8.589-.283-5.807-2.117-11.677-2.57-11.761 0 0 4.086.532 7.35 4.261" stroke="#fff" stroke-width=".75"/><path d="M45.556 33.717c1.831-8.673-6.266-15.614-7.734-15.713 0 0 6.41.046 8.96 8.242" stroke="#fff" stroke-width=".75"/><circle cx="36.517" cy="28.312" r="10.379" stroke="#fff"/></svg>