<!-- by TradingView --><svg xmlns="http://www.w3.org/2000/svg" width="56" height="56"><path fill="url(#avd3hcnub)" d="M0 0h56v56H0z"/><path fill-rule="evenodd" d="M28.19 10.34l-.2-.34c-.18.28-.32.53-.45.83a5.9 5.9 0 00-.24 1.5c-.15-.18-.3-.22-.58-.3-1.11-.32-1.3.85-1.24 1.45l.16-.13c.22-.2.49-.44.86-.22.43.26.73 1.17.05 1.45-.75.32-2.27-.18-2.65-.4-.16-.16-.5-.43-.7-.5-.57-.22-1.55.02-1.74.68a.9.9 0 00-.02.42l.02.21c.32-.17 1.01-.52 1.23 0 .38.48-1.16.46-1.37.38a1.51 1.51 0 01-.59-.52 1.4 1.4 0 00-.67-.69c-.65-.2-1.02-.13-1.53.24.35.26.5.6.37 1.07-.04.13-.17.24-.37.31a1.37 1.37 0 00-1.88-.9c-.62.31-.42.49-.16.73.1.09.21.19.3.3.08.15.17.47-.12.48-.16.01-.34-.13-.5-.26-.1-.08-.2-.16-.28-.19-.76-.3-1.6.29-1.87.63l.32.1c.18.06.38.11.54.2.3.17.72.69.53 1.45-.03.12-.1.25-.18.38l-.14.28c.73 0 1.48-.48 1.66-1 .05-.12.05-.27.05-.4 0-.17 0-.33.09-.44.6.2.41.87.24 1.44l-.1.38c1.42 0 1.82-1 1.82-2.35.38-.03.6.27.6.62-.03.78-.68 1.5-1.34 1.87-.68.39-1.8.67-2.82.26a3.17 3.17 0 01-1.14-1.03l-.2-.27c-.3-.44-.7-1.04-1.14-1.13-.4-.07-1 0-1.2.4-.1.18-.1.49-.06.72.44-.18.82-.2 1.26 0 .36.16.61.45.86.74.22.26.44.51.72.68a3.7 3.7 0 00-.72-.24l-.45-.13-.23-.07c-1.25-.4-2.16-.7-3.34.15-.94.67-.29 1.7.56 2.04.14-.32.27-.53.73-.53a1.2 1.2 0 01-.06-.93l.06.14c.12.27.25.58.46.74 1.06-.5 2.25-.49 3.62-.27l.15.03c.34.07.9.18 1.32.11.37-.05.78-.2 1.22-.33 1.04-.34 2.2-.72 3.02-.14l-.1.09c-.12.1-.21.17-.25.33-.15.61.73 1.12 1.33.93.4-.13.57-.5.72-.83l.09-.17c.95 0 1.39-.61 1.47-.88.09-.26.09-.63.09-.63a1.12 1.12 0 00-.36-.04c-.2 0-.4 0-.5-.1-.35-1.32 1.34-2.37 2.27-2.63l.13-.04c.44-.13 1.3-.39 1.72-.26.03.02.03.06.03.13v.17s.13.07.14.1l.01-.03c.05-.19.05-.2-.08-.42h1.2a.54.54 0 01-.02.07.36.36 0 00-.05.12l.01.06.01.05c0-.01.05.35.14.05v-.3c1.12 0 1.9.27 2.66.62.77.35 1.8.99 1.69 1.98-.02.17-.31.54-.73.45l-.27-.05c0 .3.22 1.14.82 1.36.24.11.46.14.78.14.28.6.8 1.47 1.76.8.57-.42.4-.95-.03-1.2.18-.11.42-.24.73-.26.87-.06 1.47.11 2.08.3a7.15 7.15 0 003.31.23c.17-.03.35-.09.53-.15.35-.11.73-.23 1.13-.17.56.08 1.15.21 1.42.58.3-.21.55-.54.62-.98.11.36.08.62-.08.93.09.03.16.03.23.03.08 0 .15.01.23.05.07.04.13.1.18.18.04.05.07.1.12.14.4.32 1.3-.74 1.05-1.4-.14-.4-.74-.78-1.14-.91-1.08-.35-2.14.06-3.02.4l-.47.18a5.4 5.4 0 01-.64.22l-.1.04.41-.38.2-.2c.07-.05.14-.13.22-.2v-.01c.3-.32.75-.77 1.07-.84.37-.08.71.02.99.1.05-.06.08-.36.08-.36-.03-.27-.1-.4-.27-.53-.22-.2-.6-.23-.94-.16-.7.16-1.07.8-1.37 1.35a2.58 2.58 0 01-2.8 1.24c-1.21-.22-2.17-.98-2.43-1.9-.12-.43-.08-.96.48-.92 0 .82.13 1.38.54 1.82.4.42.8.48 1.33.48v-.03c-.14-.35-.57-1.46-.08-1.7.1-.04.13-.03.21 0h.05c.02.44.03.59.17.88.12.29.5.63.85.77.17.07.34.09.5.1l.23.04c-.44-.7-.63-1.7.3-2.16l.21-.08c.25-.09.57-.2.43-.32-.42-.36-1.2-.76-1.93-.45l-.05.1-.09.05c-.2.13-.37.23-.66.21-.15-.5.27-.69.73-.84l-.02-.02c-.14-.2-.32-.47-.53-.56-.85-.39-1.75.13-1.87.9l-.1-.03a.45.45 0 01-.22-.1c-.3-.4-.04-1.03.27-1.3a2.4 2.4 0 00-.48-.27c-.77-.2-1.34.33-1.73.9-.33.54-1.34.74-1.88.39-.2-.13-.03-.46.05-.5.35-.22.76 0 1.03.13l.1.05c.08-.57-.12-1.1-.72-1.33-.4-.14-.87-.05-1.2.18-.52.36-2.67 1.48-3.44.46a.76.76 0 01-.08-.64c.16-.44.62-.8 1.16-.45 0 0 .18.24.26.32.02-.14.03-.44.03-.56-.06-.3-.27-.75-.62-.9-.56-.24-1.02.12-1.24.32a5.45 5.45 0 00-.44-1.84l-.11-.19zm6.02 6.21c.12-.04.48-.12.64-.14.24 0 .24.23.24.4 0 .1.03.27.03.27-.2-.1-.35-.2-.5-.3a5.12 5.12 0 00-.4-.23zm-13.15.06v-.12l.46.07a7 7 0 00.38.07c-.1.05-.19.12-.27.18-.18.12-.35.24-.62.34.05-.2.05-.31.05-.54zm13.26 1.75l-.05-.4.45.32-.4.08zm-12.83-.05c.11-.1.23-.19.35-.26l-.03.44-.47-.07.15-.11zm6.4-2.22V16a.71.71 0 00.02-.19c.02.01.05 0 .07 0h.07l-.02.14s0 .05.02.05l-.04.02a.87.87 0 01-.12.06zm13.8 1.16c-.12.06-.28.08-.36-.07-.07-.12-.07-.33.13-.38.38-.06.38.36.23.45zm-27.07.27c.27-.07.18-.63-.21-.5-.25.08-.15.6.2.5zm26.68.28c.24-.1.12-.56-.25-.47-.28.07-.18.63.25.47zm-26.27.25c.25-.07.19-.54-.11-.53-.38.01-.3.63.1.53zm26.34.47c.29-.06.2-.58-.1-.53-.3.06-.28.61.1.53zm-26.53.21c.32 0 .27-.59-.1-.52-.3.05-.18.52.1.52zm11.66-2.18h-.09c-.13-.06-.23-.38-.21-.58l.06.09c.12.18.17.25.3.49h-.06zm.53-.19l-.1-.19c-.1-.07-.03-.14.03-.19l.02-.02c.05.03.15.3.05.4zm1.96 0v-.1l.05-.07c.05-.09.07-.1.11-.23.1.07.07.12.04.16l-.02.03-.02.14-.04.02-.12.05zm.59.05s.12-.07.14-.1l.07-.16.09-.18c.17.09-.13.49-.25.63l-.05-.19zm-3.9-.05l.14.13c.37.48-.42.02-.19-.16l.04.03zm4.49.28l.14-.17a.28.28 0 01.1-.09l.06-.04c.11.06 0 .18-.08.27l-.06.08-.16-.05zm.75.22c.05-.1.19-.21.19-.21.1-.04.13-.08.16-.1.03-.04.06-.06.13-.1l.05.14c-.16.14-.38.28-.53.27zm-5.7-.06s-.03.14 0 .14c-.1-.04-.8-.41-.49-.45.07-.01.2.1.3.18.08.06.14.12.18.13zm6.29.56l.35-.1.1-.05c.05-.03.1-.07.18-.08l.24.02-.07.1-.27.08-.2.05-.12.04a.92.92 0 01-.13.02l-.14.03.06-.1zm-2.16-.58zm-5.58.5c.17.03.29.07.4.1.17.06.32.11.6.14-.07.12-.12.28-.14.42a.3.3 0 000 .1c-.2.65.14.79.54.95.15.06.31.12.45.22.06.04.09.1.11.16.03.08.06.15.16.18s.23.02.34 0a.8.8 0 01.2 0l.1.1c.2.07.66.08.91 0l.1-.1c.2-.05.29 0 .36.05.05.03.1.05.16.06.09 0 .16-.03.23-.05.1-.04.2-.09.36-.06.02 0 .1.1.1.1.23.05.58.08.79.04.02 0 .07-.04.12-.07l.12-.07c.1-.02.18 0 .26 0 .1.01.2.02.28-.02.07-.03.11-.1.16-.19a.5.5 0 01.14-.18c.11-.07.24-.12.37-.17.16-.06.3-.12.43-.23.1-.07.12-.14.15-.2.03-.05.05-.1.1-.14l-.12-.42c-.03-.12-.05-.21-.08-.27l-.05-.21-.15-.13c-.21-.18-.35-.3-.42-.5-.25 0-.46-.06-.66-.11a3.57 3.57 0 00-.63-.1.9.9 0 01-.38-.07l-.05-.07c0-.03-.02-.06-.03-.06-.14-.05-.18-.04-.22-.03-.03 0-.07.02-.19-.02l-.1-.14a1.8 1.8 0 00-.8-.09.88.88 0 00-.4.24 1 1 0 01-.21.03c-.07 0-.13 0-.19.04a.53.53 0 00-.09.08c-.04.04-.09.09-.18.1l-.94.2h-.2c-.1-.01-.21-.02-.28.02-.05.02-.07.1-.1.18 0 .06-.02.1-.04.14a.36.36 0 01-.15.08.4.4 0 00-.12.05.44.44 0 00-.13.16l-.05-.08-.01-.01c-.11-.05-.72-.32-.9-.29-.12.02-.03.14-.03.14zm4.6-.53c-.06.02-.06.43.27.37.2-.03.06-.47-.27-.37zm-.89-.07c-.06-.16.06-.41.3-.4.2 0 .14.25.11.39h-.4zm1.17-.2c.13.24-.59.4-.4-.15h.09c.16.02.23.02.3.16zm-1.62.19c.02-.04.04-.07.09-.08.4-.07.2.37.13.4-.27.1-.39-.02-.48-.1l-.06-.05a.5.5 0 01.09-.04l.18-.07.05-.06zm2.32.11c.24.05-.71.61-.52-.19.2.01.22.02.32.08h.01l.09.06.1.05zm-1.84-.03c-.23.06-.1.42.11.37.2-.04.28-.46-.1-.37zm.38.16s-.04-.15 0-.16c.5-.17.37.23.27.4l-.14-.02c-.08-.02-.1-.02-.13-.12-.02-.05-.02-.14 0-.1zm1.72-.16c-.05 0-.5.6.4.37.4-.1-.18-.38-.4-.37zm-3.24.05c-.8.13-.08.46.27.35.13-.05 0-.39-.27-.35zm4.45.37l-.03.25c-.39.02-.74-.2-.48-.53l.05.01c.22.06.35.09.46.27zm-5.39-.07c.05-.07.1-.14.18-.16.32-.06.34.18.24.38-.09.15-.76.27-.43-.19l.01-.03zm2.22.16c.55.23-.51.6-.3-.1.13.02.2.05.28.08l.02.02zm1.13.3c-.56.14-.61-.32-.14-.4.33-.07.16.3.16.3l-.02.1zm-.81-.24v-.06c.38.03.24.39-.03.19.01.01.02-.06.03-.13zm-1.54.2c.05-.08.1-.18.2-.19.22-.03.21.08.2.2v.12l-.03.12c-.39.09-.5 0-.38-.23l.01-.01zm3.33.07c.02.46-.67.2-.43-.26.19.03.41.1.41.1l.02.16zm1.27-.05v-.07c.3.12.22.2.22.2s-.16.05-.2-.01l-.02-.12zm-3.4.04c.03-.02.07-.03.15-.04.4-.02.14.36-.05.4-.42.08-.41-.12-.4-.26a.4.4 0 000-.09c.17.04.23.01.3-.01zm.7.28c-.2-.1-.18-.14-.09-.32.14.03.38.05.38.05.5.06.13.49-.3.27zm-3.36.03l.14-.09c.18-.05.26.09.31.18V18l-.16.03c-.15.03-.21.05-.3-.13zm1.99-.02c0-.02 0-.05.02-.07l.05.01h.06l.03.12c.05.2.13.48-.12.46-.16-.01-.2-.05-.25-.12l-.05-.06c-.14-.17-.14-.26.25-.3v-.04zm2.48.3c-.36.55-.57.07-.37-.37.13.08.25.11.33.13.14.04.18.05.04.24zM26.07 18c-.2.18.1.65.1.06l-.1-.06zm1.7.65s-.68-.43-.26-.56c.49-.15.6.1.38.3.06.03.02.16 0 .25l-.02.04-.1-.03zm.63.02c-.16.02-.26-.56-.19-.58.42-.12.69.16.52.36-.04.06-.08.07-.13.08a.65.65 0 00-.16.05c-.02 0-.02.03-.02.05 0 .02 0 .04-.02.04zm-3.24-.48c-.28.03-.01.38.18.35.14-.04.11-.38-.18-.35zm4.4.87c-.31 0-.3.22-.2.4.27-.07.49-.4.2-.4zm-2.12.32c-.31.14-.42-.06-.37-.24l.07.03c.06.02.12.04.25.06 0 0 .18.1.05.15zm1.55-.24c-.33.02-.38.36.1.27.07-.03.18-.29-.1-.27zm-1.1.27l.03-.09c.15 0 .58.1.32.22-.12.05-.36-.03-.35-.13zm3.88-1.2v.08h.14c.22.03.65.07.88.02.48-.12-.31-.15-.46-.14l-.2.02c-.13 0-.27 0-.36.03zm-8.5 0c-.32.1 1 .2 1.13.2v-.14c-.13 0-.3-.02-.46-.04-.26-.03-.51-.05-.66-.01zm8.16 1.57l.07.03.06-.01.08-.03c-.1-.03-.19-.09-.29-.15-.14-.09-.27-.17-.4-.16-.1 0 .12.13.27.2l.1.06.11.06zm-6.72-.03a.8.8 0 01-.06.06c-.32.19.3-.06.5-.14l.06-.02s.12-.14-.05-.14c-.08 0-.17.05-.26.1a1.4 1.4 0 01-.1.06.53.53 0 00-.09.08zm.24.8c-.05.07-.1.12-.14.15.34-.13.62-.4.84-.62l.12-.12c.06-.06.15-.2.03-.15-.24.06-.56.47-.56.47-.11.08-.2.18-.29.27zm2.89-.36c0 .43.22-.26.03-.4-.04.15-.04.23-.04.33v.07zm.48-.4c.05.22.03.46-.03.64-.02 0-.05-.42.03-.63zm1.1.11c.08.05.17.16.26.27l.25.29c-.03-.13-.36-.68-.46-.66-.02 0-.03.04-.04.07l-.01.03zm.84-.06c.08.05.17.15.26.27.08.1.16.2.25.28-.03-.12-.36-.67-.46-.66-.02 0-.03.05-.04.08v.03zm-3.85.3l-.14.32c.2-.1.38-.38.48-.61h-.1c-.06.1-.14.2-.24.3zm.84.1c-.04.17-.04.38-.04.55v.04h.1c.05-.29.12-.77.04-.93l-.07.24-.03.1zm1.53-.15l.06.32.07.42h.08c-.01-.34-.04-.89-.2-.93 0 0-.02.14-.01.19zM12.16 40.35c-.05-.13-.1-.15-.18-.18a.73.73 0 01-.07-.03c-.1-.04-.15-.13-.2-.21-.04-.1-.09-.18-.2-.2a3.07 3.07 0 01-.26-.78l-.01-.14c0-.17 0-.36-.21-.36l-.03-.02c-.24-.23-.67-.63-1.02-.13-.17.23-.17.46-.14.77a.4.4 0 01-.04.19l-.01.02c-.68-.17-.9-1.15-.66-1.73 0-.03.03-.05.06-.08s.06-.05.07-.08c.03-.15.01-.34-.01-.52-.05-.36-.1-.73.25-.88.44-.18.77.27.93.5l.02.02c-.24.15-.33.64.1.65.61 0 .68-.57.74-1.1.03-.23.06-.45.14-.6 1.7 1.56 4.83 1.3 7.72 1.08l.56-.05c1.31-.1 2.69.1 3.81.26l.21.03c.1-.41.45-1.04 1.16-.9.1 0 .28.11.37.16l.03.02c-.2.12-.63.73-.32 1.08.13.15.67.36.87.4 1.2.18 2.44.11 3.64.02.7-.06 1.32-.28 1.47-.68.11-.32-.05-.65-.35-.93.78-.42 1.48.31 1.57.7.65-.03 1.27-.1 1.89-.18 1.14-.13 2.26-.27 3.48-.1 2 .32 4.62.2 5.97-.54.24-.13.45-.34.65-.53l.17-.17c.03.05.06.07.09.1s.05.05.07.1c.1.26.07.49.05.69-.04.3-.06.54.3.74.68.38 1.07-.32.52-.47.09-.25.55-.75.98-.56.3.17.35.59.3 1.08l-.04.09c-.02.06-.05.12-.04.15 0 .06.06.14.11.2s.09.12.1.16c.16.58-.05 1.5-.74 1.6.05-.4.07-.71-.13-.98a.5.5 0 00-.63-.19c-.16.07-.61.33-.61.51 0 0 0 .28-.03.45-.03.2-.32.82-.42.93l-.09.07c-.18.17-.33.31-.44.55l-.07.18v.02c-.16.4-.32.8-.88.86-.54.05-1.05-.24-.98-.75.06 0 .12.02.19.04.15.04.3.08.44-.04.14-.13.15-.23.1-.31h.02l-.11-.16a.386.386 0 01-.12-.2c-.02-.1.02-.16.06-.22.06-.07.11-.14.07-.28-.08-.3-.58-.53-.91-.67a3.03 3.03 0 00-1.3-.38l.36.3c.32.26.64.52.8.79.15.33.14.6.02.83h-.01c-.16.31-.53.5-.91.55.08-.14.19-.33.2-.56l-.01-.17s-.1-.19-.09-.29c0-.02.05-.07.1-.13.04-.05.1-.12.11-.16-.5.18-.54.12-.62-.03-.05-.08-.1-.18-.25-.28l-.26-.18c-.57-.27-1.33-.16-1.94-.07l-.48.07c-.68.06-1.32.21-1.98.37-.41.1-.83.2-1.28.28h-.04l-.08.02c-.33.07-.82.16-1.14.08-.27-.07-.49-.22-.7-.37l-.23-.15c-.24.2-.48.3-.78.43l-.16.07c.2.2.37.27.7.36l-.11.16h-.01c-.47.49-1.28.39-2.02.3l-.46-.06c-.1.2-.26.34-.39.46l-.17.16c-.07.1-.1.2-.14.32-.05.16-.1.33-.28.46l-.07-.05-.06-.14a1.5 1.5 0 00-.47-.8c-.1-.1-.22-.22-.35-.44a3.5 3.5 0 01-2.24 0 1.16 1.16 0 01-.24-.21h-.01l-.1-.1c.35-.03.52-.12.7-.4-.3-.08-1-.52-1-.52-.07 0-.24.15-.4.29-.13.1-.25.2-.31.23-.2.08-.88.15-1.26.08-.56-.09-1.1-.23-1.66-.37-1.04-.27-2.08-.53-3.13-.48-.78.04-1.2.2-1.53.67-.14.2-.44.11-.63.05 0 0-.06.05-.02.07.16.11.16.3.16.46-.01.34.05.54.13.8v.01c-.63-.2-.9-.48-.97-.8-.11-.57.69-1.59 1.3-1.7.04-.02-.1-.07-.14-.06-.6.09-1.6.42-1.98.9-.17.22-.16.45 0 .66 0 .02-.02.05-.05.08l-.07.12c-.13.22-.27.54.05.62.13.03.24 0 .35-.03l.17-.05.01.07c.02.1.04.25 0 .35-.2.37-1.2.36-1.5.1-.1-.06-.23-.3-.27-.4-.04-.08-.06-.18-.09-.3-.02-.12-.05-.25-.11-.36h.01zm20.37-2.87c-.47.58-.15 1.53.56 1.74.77.21 1.77-.1 2.65-.37.32-.1.63-.19.9-.25.3-.07.6-.1.91-.15.46-.06.9-.12 1.32-.26-.58 0-1.46-.1-2.04-.19-.53-.08-1.15-.05-1.72-.02l-.52.02c-.07 0-.12.02-.17.03a.27.27 0 01-.15.02c-.05 0-.06-.07-.07-.15l-.01-.09c.18-.1.5-.08.8-.07h1.15a21.4 21.4 0 003.5-.14c.17 0 .28-.01 0-.07l-.62-.11-1.1-.2-.87-.14-1.06-.17c-1.03-.17-2.76-.3-3.46.57zm-12.48-.42a15 15 0 00-1.12.1c-.52.08-1.08.21-1.62.33l-.74.17-.14.03-.26.04c.91.24 2.02.18 3.13.13a15.4 15.4 0 012.4 0c0 .03 0 .06.02.08l.03.11c-.4.1-.92.1-1.45.09-.42 0-.83-.01-1.18.04-.65.09-1.45.15-2.1.15.4.16.87.22 1.35.27.28.04.56.07.83.12l.88.22c1.27.35 2.99.82 3.45-.22.16-.36.15-.68-.03-.96-.36-.59-1.31-.96-2.33-.8-.38.05-.74.08-1.12.1zm23.34.6c-.42.03-.87.11-1.27.18l-.18.03c-.51.08-.98.08-1.55.08.77.1 1.83.08 2.82.06l1.04-.01c-.04-.01.05-.08.05-.08l-.28-.11c-.2-.09-.39-.17-.63-.15zm-31.22.2c-.1.03-.25.11-.38.2l-.28.15 1.21.03c.97.04 1.97.08 2.74-.09l-1.25-.08-.22-.02-.42-.02c-.4-.03-.76-.05-1.16-.11 0 0-.02 0-.03-.02-.05-.02-.13-.05-.2-.03zm18.51 0c-.17.17.03.35.03.35s.16-.21-.03-.34zm-5.52.06l-.07.23s.06.12.15.16l.01-.02c.09-.21.11-.26-.09-.37zm1.05.08c-.25.25.03.76.08.29v-.04c.01-.05.02-.07.01-.09a1.3 1.3 0 01-.1-.16zm1.74.18c-.25.24.03.76.08.29a.37.37 0 00-.08-.3zm1.71-.18c-.05.1-.07.2-.05.29.09.36.18.1.18-.26l-.06-.02a.24.24 0 01-.07-.01zm-.95.07c-.1.1-.05.34-.05.34.2.49.3-.12.05-.34zm-1.53.34s0-.3-.06-.34c-.24.22-.15.83.06.34zm3.7.06c-.27.07-.17.43.2.36.2-.04.5-.57-.2-.36zm-6.3.05l.03.07c.03.08.06.2.15.24.42.18.8-.31-.18-.31zm18 .33c.05.09.1.2.16.24.1.07.2.1.27.12.16.05.25.08.28.5l.08.23c.32-.3-.26-.98-.5-1.08-.07-.04-.14-.05-.2-.06a.84.84 0 01-.12-.02l.04.07zm-29.3.13l-.14.1c-.44.17-.72.47-.72 1.07.22-.07.21-.17.2-.31 0-.1 0-.21.07-.34 0-.02.07-.05.14-.09.13-.06.3-.14.38-.25l.02-.03.03-.04c.01 0 .16-.13.01-.1zm19.67-1.5c-.48.35-.37 1.15.05 1.34.37.16.94.14 1.4.08.25-.04.52-.12.78-.18l.51-.13c.22-.05.38-.17.5-.25-.7.18-2.39.3-2.44-.25-.04-.7 1.4-.82 1.95-.82l.03-.1-.48-.06c-.3-.03-.61-.07-.93-.02h-.03a3.1 3.1 0 00-1.34.38zm-21.03 2.87c0-.13-.07-.23-.33-.16-.1.02-.14.08-.15.16-.04.13.1.3.4.3.03-.06.08-.2.08-.3zm8.27-2.95l-.39-.06c.2-.02.98-.12 1.05-.14 1.3-.2 2.48.2 2.42 1.17 0 .2-.17.4-.35.5-.88.5-2.25 0-3.07-.49.4.14 1.14.23 1.7.14.3-.05.52-.23.7-.38l.02-.02c-.42-.72-1.2-.72-1.98-.72h-.1zm23.93 2.53c.3-.06.38.25.28.42-.05.05-.1.09-.17.1-.1.01-.18-.03-.22-.1-.09-.15-.05-.39.11-.42zm1.03-1.24c.28-.06.27-.62-.15-.51-.28.06-.16.58.15.51zm-34.24.2c.24-.07.15-.53-.2-.46-.3.06-.2.6.2.47zm34.1.45c.23-.08.15-.6-.24-.5-.23.08-.15.65.25.5zm-33.92.26c.26-.07.18-.62-.21-.5-.24.09-.17.6.2.5zm33.7.38c.23-.06.23-.52-.11-.51-.37 0-.26.62.1.51zm-33.44.21c.1-.17.14-.5-.2-.46-.3.04-.31.46.2.46zm3.94-15.3h-2.46c-.23 0-.38.12-.38.29 0 .19.18.22.3.24h.1c.23.02.52.04.52.73 0 .62-.08 1.31-.88 1.31-1.32 0-1.49-1.62-1.49-2.6 0-1.06.25-2.42 1.57-2.42.88 0 1.37.74 1.71 1.24l.1.16.12.18c.1.17.16.26.28.26a.3.3 0 00.18-.07.24.24 0 00.08-.17l-.02-.14-.01-.02v-.02a8.17 8.17 0 01-.09-1.3c0-.08 0-.18-.08-.24l-.03-.03c-.02-.03-.03-.04-.1-.04h-.02c-.08.02-.14.08-.18.13a.32.32 0 00-.04.1c-.01.03-.02.07-.04.07a4.16 4.16 0 00-2.05-.55C10.5 22 9 23.2 9 24.92 9 26.76 10.5 28 12.28 28c.69 0 1.7-.11 2.62-.64.12-.07.21-.16.21-.28v-.63l-.02-.64c0-.33.16-.34.27-.35h.06c.1-.02.26-.06.26-.23 0-.19-.22-.34-.39-.34zm13.61 7h-2.45c-.24 0-.38.12-.38.29 0 .19.18.22.3.24h.1c.23.02.51.04.51.73 0 .62-.07 1.31-.88 1.31-1.32 0-1.49-1.62-1.49-2.6 0-1.06.25-2.42 1.57-2.42.88 0 1.38.74 1.71 1.24l.1.16c.05.07.1.13.12.18.1.17.16.26.28.26a.3.3 0 00.19-.07.24.24 0 00.07-.17l-.02-.14v-.02l-.01-.02a8.17 8.17 0 01-.09-1.3c0-.08 0-.18-.08-.24l-.03-.03c-.02-.03-.03-.04-.1-.04h-.02c-.08.02-.13.08-.17.13a.32.32 0 00-.05.1c-.01.03-.02.07-.04.07A4.16 4.16 0 0026 29c-1.89 0-3.38 1.2-3.38 2.92 0 1.84 1.5 3.08 3.28 3.08.7 0 1.71-.11 2.62-.64.12-.07.21-.16.21-.28v-.63l-.02-.64c0-.33.16-.34.27-.35h.06c.1-.02.26-.06.26-.23 0-.19-.22-.34-.39-.34zm4.47 0h2.46c.17 0 .39.15.39.34 0 .17-.16.2-.26.23h-.06c-.12.01-.27.02-.27.35v.64l.02.63c0 .12-.1.21-.21.28-.91.53-1.93.64-2.63.64-1.77 0-3.27-1.24-3.27-3.08 0-1.72 1.49-2.92 3.38-2.92.85 0 1.48.3 1.82.45a8.35 8.35 0 00.23.1l.04-.07a.32.32 0 01.04-.1c.04-.05.1-.11.18-.13h.02c.06 0 .07 0 .1.04l.03.03c.07.06.08.16.08.24a8.17 8.17 0 00.09 1.32v.02c.02.05.03.09.03.14 0 .06-.03.12-.08.17a.3.3 0 01-.19.07c-.11 0-.17-.1-.27-.26a4.46 4.46 0 00-.22-.34c-.34-.5-.83-1.24-1.71-1.24-1.32 0-1.57 1.36-1.57 2.42 0 .98.17 2.6 1.48 2.6.81 0 .89-.7.89-1.31 0-.7-.29-.71-.52-.73h-.1c-.12-.02-.3-.05-.3-.24 0-.17.15-.29.38-.29zM19.35 22c-2 0-3.46 1.29-3.46 3.06 0 .8.33 1.57.92 2.11.64.57 1.44.83 2.56.83a3.18 3.18 0 003.38-3.24c0-.7-.26-1.3-.76-1.8a3.73 3.73 0 00-2.64-.96zm.2 5.51c-1.33 0-1.69-1.63-1.78-2.6a4.65 4.65 0 01-.03-.53c0-.48.13-1.12.5-1.53.22-.24.5-.36.83-.36.41 0 .76.15 1.04.45.58.63.78 1.77.78 2.62 0 .46-.1 1.95-1.35 1.95zm7.98-1.34c.06-.12.17-.25.32-.25s.22.12.24.26c.04.43-.08 1.17-.36 1.44-.27.26-.7.38-1.1.38h-3.49c-.17 0-.39-.13-.39-.33 0-.13.1-.22.27-.24h.02c.3 0 .34-.24.34-.64l-.04-3.92c-.05-.27-.27-.3-.46-.34h-.03c-.13-.01-.33-.04-.33-.23 0-.18.16-.3.39-.3h2.6c.17 0 .38.1.38.3 0 .18-.14.2-.28.22-.09.01-.18.03-.23.08-.19.18-.2.43-.2.68v3.53c0 .47.28.65.75.65.67 0 1.23-.72 1.6-1.29zM30.94 22H28.3c-.29 0-.38.15-.38.28 0 .22.24.24.34.24h.02c.37.01.45.28.45.74v3.62c0 .5-.2.56-.39.6-.1.02-.25.06-.25.23 0 .2.2.29.38.29h2.48c1.86 0 3.65-1.13 3.65-3.17.02-2.18-1.8-2.83-3.66-2.83zm.22 5.52c-.49 0-.71-.3-.71-.78V23.2c0-.37.18-.53.56-.53 1.45.08 1.74 1.79 1.74 2.67-.01.89-.37 2.18-1.59 2.18zm8.35-1.34a.3.3 0 01.26-.15c.14 0 .26.1.26.25 0 .36-.12 1-.38 1.32-.31.4-.74.4-1.2.4h-3.31s-.38-.12-.38-.32c0-.16.14-.2.25-.23.36-.1.38-.42.38-.75v-3.42c0-.39-.06-.7-.49-.75-.11-.01-.32-.03-.32-.24 0-.18.15-.29.38-.29h4.12c.42.02.42.93.41 1.3v.07c0 .22-.1.35-.25.37h-.02c-.19 0-.24-.15-.28-.24v-.02c-.22-.6-.66-.8-1.36-.8h-.04c-.28 0-.5 0-.5.3v1.38c0 .18.12.17.27.17h.08c.52 0 .95-.04 1.08-.47v-.02c.04-.09.1-.24.28-.24.21 0 .25.21.25.39v1.42c0 .17-.04.36-.23.36-.22 0-.28-.16-.32-.28l-.01-.04c-.08-.21-.18-.48-1.14-.48-.18 0-.26.06-.26.25v1.38c0 .36.18.63.57.63.96 0 1.4-.57 1.82-1.13l.1-.13-.02.01zm1.58 6.85a.3.3 0 00-.25.15l-.05.07-.04.05c-.42.56-.85 1.13-1.81 1.13-.4 0-.58-.27-.58-.63v-1.38c0-.19.08-.25.26-.25.96 0 1.06.27 1.14.48l.02.04c.04.12.09.28.31.28.2 0 .23-.2.23-.36V31.2c0-.18-.03-.4-.25-.4-.18 0-.24.16-.27.25v.02c-.14.43-.57.46-1.08.46h-.1c-.13.01-.25.02-.25-.16v-1.38c0-.3.22-.3.5-.3h.04c.69 0 1.13.2 1.35.8v.02c.04.09.1.24.28.24h.02c.16-.02.26-.15.26-.37v-.06c0-.38 0-1.3-.41-1.31h-4.13c-.23 0-.38.11-.38.3 0 .2.21.22.33.23.42.05.48.36.48.75v3.42c0 .33-.01.64-.38.75-.1.03-.25.07-.25.23 0 .2.38.32.38.32h3.3c.47 0 .9 0 1.21-.4.27-.32.38-.96.38-1.32 0-.15-.12-.25-.26-.25zM45.27 22h1.35c.16 0 .43.1.37.3 0 .13-.1.22-.25.23-.3.05-.3.4-.3.65v4.49c0 .11-.03.2-.1.27a.24.24 0 01-.16.06c-.16 0-.29-.12-.36-.2l-4.08-3.99v2.93c0 .52.15.73.53.74.1 0 .24 0 .33.08.22.21-.12.44-.33.44h-1.52c-.18 0-.38-.09-.38-.3 0-.13.12-.22.27-.22.35-.05.38-.34.38-.75v-3.47c0-.36-.26-.74-.63-.74-.16 0-.39-.03-.39-.23 0-.18.15-.29.38-.29h1.76c.17 0 .3.1.42.2l3.18 3.2v-2.14c0-.67-.3-.7-.54-.74h-.02c-.12-.02-.29-.05-.29-.22 0-.18.15-.3.38-.3zm-29.65 7h-1.35c-.23 0-.38.12-.38.3 0 .17.17.2.3.22.25.03.55.07.55.74v2.14l-3.18-3.2c-.12-.1-.25-.2-.42-.2H9.38c-.23 0-.38.11-.38.29 0 .2.23.23.4.23.36 0 .62.38.62.74v3.47c0 .41-.03.7-.39.75h.01c-.15 0-.27.09-.27.22 0 .21.2.3.38.3h1.52c.21 0 .55-.23.33-.44-.09-.08-.23-.08-.33-.08-.38-.01-.53-.22-.53-.74v-2.93l4.08 3.99c.07.08.2.2.36.2.06 0 .13-.02.17-.06.06-.06.1-.16.1-.27v-4.49c-.01-.25-.01-.6.29-.65.16 0 .25-.1.25-.23.06-.2-.21-.3-.37-.3zm5.4 0h1.27c.17 0 .35.1.35.3 0 .19-.2.21-.29.22-.22.03-.21.43-.2.65v2.16c0 1.67-.94 2.67-2.63 2.67-1.52 0-2.68-.73-2.68-2.35v-2.39c0-.7-.25-.73-.45-.74-.12-.01-.3-.03-.3-.23 0-.16.15-.29.36-.29h2.15c.18 0 .36.1.36.3 0 .2-.21.22-.32.23-.26 0-.25.42-.24.65v2.38c0 1.1.51 1.69 1.51 1.69 1.13 0 1.6-.58 1.6-1.93v-2.06c0-.25-.02-.41-.09-.54-.11-.2-.27-.2-.43-.2l-.02-.01c-.13-.01-.3-.02-.3-.23 0-.17.15-.28.36-.28zm25.74.73l-.01-.14c-.02-.25-.04-.59-.3-.59h-4.93c-.14.02-.22.14-.23.33l-.05.48c-.03.26-.06.51-.06.77 0 .12.1.25.22.25.19 0 .27-.18.35-.36v-.01l.05-.1c.1-.26.26-.64.68-.64h.15c.18-.02.43-.05.52.04.02.02.03.07.03.14v3.85c0 .44-.06.68-.32.72-.1 0-.3.03-.3.23 0 .19.17.3.34.3h2.33c.2 0 .36-.12.36-.3 0-.2-.2-.23-.37-.23-.34-.02-.47-.21-.47-.75v-3.8c0-.07.01-.11.04-.14.12-.12.34-.1.53-.07l.2.02c.43 0 .6.38.71.66l.05.11c.08.17.15.33.3.33s.24-.12.24-.26-.03-.57-.06-.84z" fill="url(#bvd3hcnub)"/><defs><linearGradient id="avd3hcnub" x1="10.42" y1="9.71" x2="68.15" y2="76.02" gradientUnits="userSpaceOnUse"><stop stop-color="#1A1E21"/><stop offset="1" stop-color="#06060A"/></linearGradient><linearGradient id="bvd3hcnub" x1="47" y1="28.58" x2="9" y2="28.58" gradientUnits="userSpaceOnUse"><stop stop-color="#FDBB18"/><stop offset=".5" stop-color="#FFF380"/><stop offset="1" stop-color="#FDBB18"/></linearGradient></defs></svg>