<!-- by TradingView --><svg width="56" height="56" xmlns="http://www.w3.org/2000/svg"><path fill="#F0F3FA" d="M0 0h56v56H0z"/><path d="M11 27h3v.854c0 1.3-.226 2.141-1.434 2.141-.242.008-.49.008-.732.008l-.83-.008-.725-.007c-1.343 0-2.204-.168-2.264-2.172A24.35 24.35 0 018 27.074c0-2.05.12-3.013 1.887-3.043l1.041-.023c.129-.008.257-.008.385-.008.31 0 .627.015.936.03C13.374 24.077 14 24.395 14 26h-.997c.007-.711-.384-1-1.169-1h-1.615C9.222 25 9 25.494 9 26.768v.55C9 28.666 9.354 29 10.589 29h1.245c.852 0 1.169-.268 1.169-1 .007.053 0-.053 0 0H11v-1zM15.002 24h4.581v1H16v1.5h3.602v1H16V29h3.583v1.003h-4.581V24zM26.067 24h4.582v1h-3.584v1.5h3.602v1h-3.602V29h3.584v1.003h-4.582V24zM25.38 30.003h-1L21 26v4.003h-1V24h1l3.38 4v-4h1v6.003zM31 24h3.702c.926 0 1.298.45 1.298 1.902 0 .417-.005.875-.152 1.236-.153.361-.433.441-.686.57.5.096.838.32.838 1.147v1.148h-.998v-.578c0-.658-.013-1.425-.513-1.425H32v2.003h-1V24zm3 3.002c.649 0 1.002-.178 1.002-1.002 0-.824-.491-1-1.002-1h-2v2.002h2zM38.098 29l-.412 1.003h-1L38.926 24h1l2.5 6.003h-.997L41.056 29h-2.958zm1.327-3.613l-.999 2.615h2.26l-1.261-2.615zM48 28c0-.095 0 .079 0 0 0 1.646-.312 1.909-1.465 1.98-.306.015-.604.023-.909.023l-.736-.016c-.995-.015-1.764-.063-1.857-1.906-.026-.418-.033-.82-.033-1.237 0-1.717.179-2.67 1.432-2.797.372-.047.743-.047 1.114-.047.485 0 .982 0 1.466.079.816.134.975.873.988 1.921h-1c.012-.787-.366-.976-.71-1-.427-.03-.863 0-1.29 0-.776.008-1 .893-1 2.004 0 1.197.151 1.964 1 1.996.359.012.828 0 1.187 0 .404 0 .825-.177.813-1h1z" fill="#231815"/><path d="M8 32.588L48 34v-3L8 32.4v.188z" fill="#D35E13"/></svg>