<!-- by TradingView --><svg width="56" height="56" xmlns="http://www.w3.org/2000/svg"><path fill="#4474B6" d="M0 0h56v56H0z"/><path d="M29.973 16.526l-1.459 6.525-1.46-6.525L28.515 10l1.459 6.526zM38.007 21.071l-5.644 3.584 3.582-5.644 5.644-3.58-3.582 5.64zM40.473 29.974l-6.52-1.461 6.52-1.458L47 28.515l-6.527 1.46zM35.929 38.008l-3.581-5.644 5.642 3.582 3.582 5.645-5.643-3.583zM27.03 40.478l1.456-6.525 1.462 6.525L28.486 47l-1.457-6.522zM18.994 35.93l5.645-3.583-3.583 5.644-5.644 3.58 3.582-5.64zM16.525 27.03l6.524 1.458-6.524 1.459L10 28.487l6.525-1.456zM21.072 18.994l3.582 5.646-5.642-3.584-3.584-5.646 5.644 3.584zM16.916 25.26c.26-.95.64-1.85 1.113-2.69l-.015-.006-5.82-.84 4.7 3.53.022.005zM22.604 18.007c.839-.473 1.736-.85 2.685-1.113v-.016l-3.526-4.71.829 5.825.012.014zM40.113 25.272h.017l4.71-3.526-5.822.83-.014.01a11.96 11.96 0 011.11 2.686zM34.436 18.015l.01-.015.84-5.82-3.532 4.702-.007.018c.95.267 1.854.64 2.689 1.115zM16.909 31.722h-.015l-4.707 3.524 5.82-.83.014-.011a12.1 12.1 0 01-1.112-2.683zM40.108 31.736c-.26.947-.64 1.848-1.115 2.686l.016.011 5.818.836-4.7-3.53-.019-.003zM22.587 38.98l-.01.014-.834 5.82 3.526-4.703.002-.017a11.89 11.89 0 01-2.684-1.115zM34.423 38.988c-.839.473-1.74.847-2.686 1.112v.016l3.526 4.707-.83-5.82-.01-.015z" fill="#fff"/></svg>