<!-- by TradingView --><svg width="56" height="56" xmlns="http://www.w3.org/2000/svg"><path fill="url(#paint0_linear)" d="M0 0h56v56H0z"/><path d="M12.555 23.048c-.887.163-1.472.691-1.719 1.543-.148.51-.157 1.428 0 1.937.246.78.755 1.248 1.543 1.408.281.058.444.064 2.09.064h1.53v-1h-3c-.5 0-.885-.427-1.004-.754-.096-.253-.119-.916-.051-1.207.105-.445.342-.759.672-.884.176-.064.224-.155 1.907-.155H16v-1l-1.483.003c-1.28.003-1.796.013-1.962.045zM17 24.52V26c0 1 .976 1.99 2 2 .445.004.61 0 1 0 1 0 2-1 2-2v-3h-1v3c0 .5-.5 1-.96 1-.145.022-.675.01-1.04 0-.517-.013-.99-.5-.99-.976L18 24.511V23h-1v1.52zM5.418 25.599C4.643 26.904 4 27.999 4 27.999c-.003.006 1.315 0 1.315 0l.67-.999H9.13l.644 1.009 1.293-.003c0-.013-1.367-2.404-1.367-2.404L8.33 23l-1.504.003L5.418 25.6zm3.16.401H6.5c.135-.22 1.088-1.742 1.088-1.742s.813 1.408.99 1.742zM35 28l1 .009V24.5l3 3.5h1v-5h-1v3.5L36 23h-1v5zM41 28h6v-1h-5v-1h4v-1h-4v-1h7v4h1v-4h2v-1H41v5zM29 25.64v2.369L30 28v-2h3v2h1v-5h-1v2h-3v-2h-1v2.64zM24 35h1.251c1.53 0 1.82-.037 2.027-.082.8-.166 1.316-.64 1.546-1.427.083-.288.119-1.043.064-1.392-.086-.57-.333-1.228-.685-1.536-.204-.182-.595-.377-.934-.47-.246-.067-.32-.08-2.055-.093H24v5zm3.08-3.819c.522.237.8 1.145.634 1.868-.061.276-.24.56-.426.682-.291.192-.304.256-1.53.269H25v-3h.774c1.114.01 1.146.11 1.306.181zM13.806 30.035c-.653.122-1.19.47-1.475.954-.144.253-.27.682-.31 1.078-.135 1.357.402 2.58 1.49 2.89.289.083 2.91.043 3.284.043.651 0 1.306-.658 1.536-1.448.084-.291.119-1.318.064-1.673-.121-.781-.492-1.322-1.107-1.62-.512-.246-.54-.25-1.968-.259-.999-.006-1.316 0-1.514.035zm2.781 1.098c.522.237.8 1.04.634 1.977-.06.276-.24.56-.426.682-.288.192-.313.195-1.46.208-.72.006-1.116 0-1.247-.026-.387-.076-.685-.316-.82-.668-.09-.225-.118-1.027-.06-1.303.06-.278.246-.601.435-.745.272-.208.36-.264 1.666-.258 1.146.006 1.118.06 1.278.133zM39.866 30.051c-.69.125-1.225.49-1.51 1.037-.316.595-.372 1.67-.215 2.325.19.784.66 1.28 1.428 1.507.173.051.365.08 2.106.08H43v-2h-1v1h-.757c-1.082-.01-1.137-.047-1.31-.117-.45-.18-.7-.608-.7-1.207 0-.644 0-1.657.816-1.657l1.77-.01 1.18-.009v-1l-1.148.003c-1.332.003-1.796.013-1.985.048zM32 34.993L33 35v-3.28L36 35h1v-5h-1v3.5L33 30h-1v4.993zM6 35h1v-2h3v2h1v-5h-1v2H7v-2H6v5zM19 35h4v-1h-3v-4h-1v5zM30 30v5h1v-5h-1z" fill="#fff"/><path d="M22.5 24.5A1.5 1.5 0 0124 23h4v1h-4a.5.5 0 000 1h3a1.5 1.5 0 010 3h-4v-1h4a.5.5 0 000-1h-3a1.5 1.5 0 01-1.5-1.5zM44 31.5a1.5 1.5 0 011.5-1.5h4v1h-4a.5.5 0 000 1h3a1.5 1.5 0 010 3h-4v-1h4a.5.5 0 000-1h-3a1.5 1.5 0 01-1.5-1.5z" fill="#fff"/><defs><linearGradient id="paint0_linear" x1="10.418" y1="9.712" x2="68.147" y2="76.017" gradientUnits="userSpaceOnUse"><stop stop-color="#1A1E21"/><stop offset="1" stop-color="#06060A"/></linearGradient></defs></svg>