<!-- by TradingView --><svg width="56" height="56" xmlns="http://www.w3.org/2000/svg"><path fill="#C51230" d="M0 0h56v56H0z"/><path d="M44 28c0 8.837-7.163 16-16 16s-16-7.163-16-16 7.163-16 16-16 16 7.163 16 16z" fill="#fff"/><path d="M27.592 18.04c-1.024.066-1.476.132-2.154.3-2.013.51-3.945 1.688-5.301 3.234-1.45 1.654-2.32 3.619-2.583 5.834-.045.388-.045 1.84 0 2.23.202 1.693.775 3.284 1.67 4.634 1.482 2.236 3.74 3.833 6.298 4.45.838.206 1.498.278 2.477.278 1.01.003 1.678-.075 2.546-.295a10.538 10.538 0 007.453-6.988c.35-1.085.488-1.992.488-3.194 0-.98-.079-1.664-.29-2.502a10.53 10.53 0 00-6.129-7.171c-.955-.407-2.08-.693-3.016-.766-.44-.036-1.236-.06-1.459-.045zm-.53 4.58c.027.024.048.063.048.084 0 .02.027.075.063.12.082.106.19.103.458-.015.47-.208.703-.135.835.26.09.268.169.328.4.304.1-.01.236-.042.308-.076.124-.054.157-.087.296-.3.093-.148.21-.206.479-.239.265-.033.422-.009.518.081.093.09.16.079.217-.036.078-.153.166-.232.26-.232.162 0 .228.079.319.377.018.07.045.093.111.1.072.008.109-.013.202-.121.145-.169.193-.142.304.175.046.13.112.268.148.304.033.036.15.096.256.133.26.084.34.054.431-.172.114-.284.325-.407.612-.362.271.045.413.223.413.524 0 .202.066.257.421.35.41.105.793.25.932.353.132.093.35.355.476.566.174.29.31.802.31 1.16 0 .326-.057.528-.286 1.028-.253.551-.277.645-.226.865.051.207.114.334.35.672.274.397.322.518.298.744-.018.16-.015.187.045.25.042.045.12.081.202.093.226.034.262.157.175.642-.049.28-.036.365.087.624.133.274.184.597.114.723a.666.666 0 01-.207.157c-.175.093-.32.226-.473.434-.121.163-.205.205-.468.235-.304.033-.419.084-.608.262-.181.166-.25.304-.299.588-.048.265-.153.412-.373.52-.148.073-.196.082-.407.073-.323-.015-.407-.075-.419-.295-.009-.148-.015-.16-.111-.202a1.823 1.823 0 00-.335-.075c-.313-.042-.43-.088-.506-.187l-.06-.081.084-.257c.1-.301.096-.31-.175-.434a2.316 2.316 0 01-.738-.575c-.106-.118-.223-.23-.262-.241-.049-.021-.133-.01-.28.036-.133.04-.239.054-.293.042-.096-.024-.226-.157-.455-.46-.19-.251-.286-.323-.389-.3-.105.028-.141.115-.102.263.042.154.02.226-.115.365-.126.132-.19.156-.587.22-.34.054-.416.084-.621.27-.115.1-.184.136-.292.154-.2.03-.31-.033-.464-.259-.142-.208-.257-.292-.443-.32-.163-.023-.395.034-.486.118a1.814 1.814 0 00-.199.338c-.256.542-.325.572-.81.34-.332-.156-.344-.16-.594-.156-.57.009-1.54.428-1.853.798a2.978 2.978 0 00-.211.356 1.677 1.677 0 01-.217.34c-.093.09-.274.175-.37.175-.103 0-.278-.105-.422-.256-.23-.238-.293-.262-.564-.241-.217.021-.238.018-.295-.045-.052-.06-.06-.103-.052-.35.01-.352-.024-.44-.25-.633a1.61 1.61 0 01-.47-.696.912.912 0 00-.244-.392 1.495 1.495 0 01-.205-.262c-.03-.084 0-.22.073-.325.075-.105.06-.238-.037-.356a1.156 1.156 0 01-.12-.171c-.057-.106-.042-.308.04-.537a6.66 6.66 0 00.074-.217c0-.003-.054-.069-.12-.144-.16-.184-.196-.26-.241-.51-.042-.232-.109-.319-.238-.319a.298.298 0 01-.163-.063c-.12-.094-.154-.256-.111-.567.063-.5.108-.557.43-.56h.217l.226-.455c.124-.25.284-.528.35-.618.232-.301.316-.461.437-.844.141-.452.241-.62.455-.762.178-.12.271-.133.428-.057.145.066.196.039.437-.244.13-.157.256-.272.364-.332.16-.09.184-.093.594-.108.332-.012.44-.027.476-.06.024-.028.067-.163.09-.302.025-.139.085-.337.133-.44.145-.313.308-.368.763-.265.207.048.226.048.512-.018.352-.079.473-.07.823.075.433.178.542.169.768-.06.111-.112.154-.136.244-.136.063 0 .136.021.16.048z" fill="#143D8D"/></svg>