<!-- by TradingView --><svg width="56" height="56" xmlns="http://www.w3.org/2000/svg"><path fill="#006F5B" d="M0 0h56v56H0z"/><path d="M35 13.52a14.752 14.752 0 00-5-1.515V19l5-5.48zM26 33L13.379 21A15.657 15.657 0 0012 25.065L26 39v-6zM26 23.003L17.869 15A16.747 16.747 0 0015 17.832l11 11.172v-6.001zM26 12c-1.77.194-3.45.715-5 1.5l5 5.5v-7zM30 44c7.404-.781 13.27-6.643 14-14L30 43.884V44zM12 30c.701 7.372 6.584 13.247 14 14v-.11L12 30zM30 39l14-13.914A15.776 15.776 0 0042.63 21L30 33v6zM30 29.004l11-11.152c-.84-1.066-1.8-2.02-2.872-2.852L30 23v6.004z" fill="#fff"/></svg>