<!-- by TradingView --><svg xmlns="http://www.w3.org/2000/svg" width="56" height="56"><path fill="#F0F3FA" d="M0 0h56v56H0z"/><path d="M14.68 22.32c1.1-.1 6.96-.67 12-1.26 5.13-.6 9.56-1.25 14.16-3.8a.3.3 0 00-.08-.55c-4.12-.8-8.83.27-14.08 1.76-4.17 1.18-8.36 2.5-12.06 3.51a.17.17 0 00-.12.17c0 .1.08.18.18.17zm.45 5.46c1.1-.1 6.95-.67 12-1.25 5.13-.6 9.32-1.1 13.93-3.64a.3.3 0 00-.09-.55c-4.11-.8-8.6.1-13.85 1.6-4.16 1.17-8.36 2.48-12.05 3.5a.17.17 0 00-.13.17c0 .1.09.18.19.17zm-.1 5.68c1.1-.11 6.95-.67 12-1.26 5.13-.6 9.32-1.09 13.93-3.63a.3.3 0 00-.09-.56c-4.11-.8-8.6.1-13.85 1.6-4.16 1.18-8.35 2.49-12.05 3.51a.17.17 0 00-.13.16c0 .1.09.18.19.18zm.24 5.54c1.1-.1 6.96-.67 12-1.25 5.13-.6 9.32-1.1 13.93-3.63a.3.3 0 00-.08-.56c-4.12-.8-8.6.1-13.85 1.6-4.17 1.17-8.36 2.48-12.06 3.5a.17.17 0 00-.12.17c0 .1.08.18.18.17z" fill="#D19E11"/></svg>