<!-- by TradingView --><svg width="56" height="56" fill="none" xmlns="http://www.w3.org/2000/svg"><path fill="url(#paint0_linear_3205)" d="M0 0h56v56H0z"/><path fill-rule="evenodd" clip-rule="evenodd" d="M24.93 16L27 20v-4h-2.07zm-2.322 0l3.044 4.233-.98-4.233h-2.064zM29 16v4l2.07-4H29zm-6.546 0H11v7h7.326l-5.933-1.628L20.442 23l-7.017-2.93 7.584 2.279-6.294-3.527 7.016 2.93-5.417-4.016 6.294 3.528-4.488-4.45 5.417 4.015-3.457-4.775 4.489 4.45L22.454 16zm5.52 4l.929-4h-1.857l.928 4zm5.52-4l-2.063 4.504 4.489-4.45-3.457 4.776 5.417-4.016-4.489 4.45 6.295-3.528-5.417 4.016 7.016-2.93-6.294 3.527 7.584-2.28L35.558 23l8.049-1.628L37.674 23H45v-7H33.495zm-2.218 0l-.98 4.233L33.34 16h-2.064zm3.936 13c-4.688.41-8.758 2.65-11.23 5.013.472 0 .9.043 1.365.09l.129.013c2.473-2.362 6.44-4.602 11.075-5.116h-1.339zm-4.07-5C36.552 24.668 42 26.526 42 29h-1.79c-4.895.514-9.068 2.908-11.489 5.526.464.052.927.154 1.391.257C33.662 30.72 39.584 29 45 29v-5H31.142zm6.646 5h1.133c-.154-2.567-4.533-4.332-9.582-5h-.72c4.996.668 9.066 2.433 9.169 5zm.103 7h.773c3.142 0 5.306-.652 6.336-1.011v-4.16c-3.194 1.13-5.77 2.963-7.11 5.171zm-3.901-.497c.151.01.3.02.45.04 1.905-2.774 5.82-5.314 10.56-6.187v-.143c-5.255.668-9.685 3.26-11.849 6.186.296.066.571.085.839.104zM34.079 29h1.133c-.103-2.567-3.348-4.332-8.14-5h-.514c4.584.668 7.418 2.433 7.52 5zm-8.964-5h-.412c4.121.668 5.615 2.433 5.667 5 0 0-.31.023-.536.043-4.739.514-8.84 2.762-11.261 5.227.566-.052 1.133-.103 1.751-.154 2.473-2.362 6.491-4.654 11.23-5.116 0-2.619-1.905-4.332-6.439-5zm-1.751 0H11v12c.67-.257 1.803-.652 3.245-1.011C16.822 31.856 22.075 29.257 28 29c0-2.61-.515-4.332-4.636-5zM31.1 36.95c2.946.7 5.477 1.05 7.596 1.05 2.945 0 5.064-.55 6.304-1v3H11v-1.95c.155-.05.31-.1.568-.2 1.654-.6 5.684-1.85 11.162-1.85 2.531 0 5.322.25 8.37.95z" fill="#fff"/><defs><linearGradient id="paint0_linear_3205" x1="35.25" y1="62.75" x2="26" y2="-9.5" gradientUnits="userSpaceOnUse"><stop offset=".217" stop-color="#C4A959"/><stop offset=".383" stop-color="#9B9E83"/><stop offset=".48" stop-color="#84979B"/><stop offset=".632" stop-color="#748A97"/><stop offset=".807" stop-color="#3E5F7C"/></linearGradient></defs></svg>