<!-- by TradingView --><svg xmlns="http://www.w3.org/2000/svg" width="56" height="56"><path fill="#F0F3FA" d="M0 0h56v56H0z"/><path d="M6.25 28.5a2.25 2.25 0 100-4.5 2.25 2.25 0 000 4.5z" fill="#FFD900"/><path d="M36.65 26.8c.42.23.76.57 1 .98.24.44.36.94.35 1.45.01.5-.11 1-.36 1.45-.23.41-.57.75-.99.97-.42.24-.9.35-1.39.35-.76 0-1.33-.23-1.73-.7v.7H32v-7.5h1.6v2.61c.4-.43.95-.65 1.66-.65.48 0 .97.11 1.4.35zM36 30.33c.27-.3.41-.7.4-1.1.01-.4-.13-.78-.4-1.08a1.45 1.45 0 00-2.02 0 1.5 1.5 0 00-.4 1.09 1.48 1.48 0 00.4 1.09 1.45 1.45 0 002.02 0zm-21-3.75v4.5c0 .98-.26 1.72-.78 2.2-.51.48-1.27.72-2.26.72-.5 0-1-.06-1.5-.2-.42-.1-.81-.28-1.16-.54l.62-1.12a3.41 3.41 0 001.91.61c.55 0 .95-.13 1.21-.37s.39-.61.39-1.1v-.24c-.41.45-.98.68-1.71.68-.48 0-.95-.11-1.37-.33A2.51 2.51 0 019 29.11c0-.48.13-.95.36-1.37.24-.39.58-.7.99-.91.42-.22.89-.33 1.37-.33.78 0 1.38.26 1.79.77v-.7H15zm-1.95 3.48a1.35 1.35 0 000-1.9 1.45 1.45 0 00-1.02-.37c-.38-.02-.75.11-1.03.36a1.34 1.34 0 00-.01 1.9l.01.01c.28.25.65.38 1.03.37.38.01.74-.12 1.02-.37zM51 26.58v4.5c0 .98-.26 1.72-.78 2.2-.51.48-1.27.72-2.26.72-.5 0-1-.06-1.5-.2-.42-.1-.81-.28-1.16-.54l.62-1.12a3.41 3.41 0 001.91.61c.55 0 .95-.13 1.21-.37s.39-.61.39-1.1v-.24c-.41.45-.98.68-1.71.68-.48 0-.95-.11-1.37-.33A2.5 2.5 0 0145 29.11c0-.48.13-.95.36-1.37.24-.39.58-.7.99-.91.42-.22.89-.33 1.37-.33.78 0 1.38.26 1.79.77v-.7H51zm-1.95 3.48a1.35 1.35 0 000-1.9 1.45 1.45 0 00-1.02-.37c-.38-.02-.75.11-1.03.36a1.34 1.34 0 00-.01 1.9l.01.01c.28.25.65.38 1.03.37.38.01.74-.12 1.02-.37zM19.31 26.5c-.37 0-.74.06-1.08.2-.3.12-.55.33-.74.6v-.72H16V32h1.54v-2.56c0-.5.13-.88.38-1.13a1.42 1.42 0 011.05-.38l.34.02V26.5zm5.04.59c.44.39.65.99.65 1.78V32h-1.43v-.74c-.29.5-.82.74-1.6.74-.36.01-.72-.06-1.05-.2a1.52 1.52 0 01-.92-1.41 1.41 1.41 0 01.55-1.18c.37-.29.94-.43 1.72-.43h1.21a1 1 0 00-.3-.78c-.2-.18-.51-.27-.91-.27a2.62 2.62 0 00-1.52.5l-.55-1.08c.31-.22.66-.38 1.03-.48.4-.11.82-.17 1.24-.17.8 0 1.43.2 1.88.59zm-1.3 3.68a1 1 0 00.43-.54v-.54h-1.05c-.63 0-.94.21-.94.63a.57.57 0 00.23.47c.19.12.4.18.63.17.24 0 .48-.06.7-.19zm5.89 1.52l2.42-5.79h-1.5l-1.5 3.7-1.5-3.7h-1.6l2.3 5.49-.02.05c-.07.2-.2.38-.35.52a.8.8 0 01-.52.16c-.16 0-.32-.03-.46-.1-.15-.05-.3-.14-.41-.25l-.57 1.13c.2.17.42.29.67.36.26.09.54.14.82.14.47.01.92-.12 1.31-.39.36-.25.67-.7.91-1.32zm15.3-.29v-5.5h-1.55v2.68c0 .48-.11.85-.34 1.1a1.17 1.17 0 01-.9.36c-.72 0-1.08-.44-1.08-1.31V26.5h-1.55v3.06c0 .8.21 1.41.62 1.82.41.41.97.62 1.67.62.32 0 .63-.06.92-.19.29-.12.54-.3.74-.54V32h1.47z" fill="#97A3AE"/></svg>