<!-- by TradingView --><svg width="56" height="56" xmlns="http://www.w3.org/2000/svg"><path fill="#F0F3FA" d="M0 0h56v56H0z"/><path d="M27.146 12.13c-.984.224-1.54.438-2.472.972-1.96 1.133-3.319 2.908-4.014 5.25-.375 1.272-.471 3.485-.215 4.886.675 3.57 2.816 6.008 6.016 6.864 1.039.277 3.539.52 4.7 0C32.5 29.5 32 28 32 28v-7h5v12c-1.667.615-3.316 1.323-5.069 1.635-5.673 1.015-10.8-.738-13.915-4.78-.675-.876-1.606-2.672-1.938-3.752-.835-2.684-.803-5.677.096-8.307l.364-1.07-.535.589c-.674.737-1.862 2.48-2.366 3.485-1.21 2.373-1.83 5.677-1.584 8.36.493 5.304 3.072 9.602 7.44 12.381 6.326 4.02 14.89 3.026 20.113-2.362 2.12-2.192 3.565-4.897 4.26-7.976.215-.962.247-1.4.247-3.25s-.032-2.288-.246-3.25c-.353-1.572-.824-2.898-1.456-4.095-2.216-4.234-5.898-7.132-10.501-8.276-1.37-.342-3.704-.438-4.764-.203z" fill="#000"/><path d="M32 21h5v12l-5-3.776V21z" fill="#497688"/></svg>