<!-- by TradingView --><svg xmlns="http://www.w3.org/2000/svg" width="56" height="56"><path fill="#167CC6" d="M0 0h56v56H0z"/><path d="M40.45 21.2l.29-.24.47-.38-.03-.03-.03-.02c-.16.13-.3.25-.46.36l-.38.3a15.83 15.83 0 00-5.3.4c-2.75.66-4.26 1.99-4.1 2.86.23 1.17 2.54.92 4.59-.1a29.04 29.04 0 004.07-2.5c4.69.48 8.3 3.26 8.3 3.26l.72-1.33c-3.17-1.55-5.78-2.35-8.15-2.59zm-4.11 2.44c-5.18 2.65-6.6-.02-1.17-1.46a12.2 12.2 0 014.22-.34c-.97.67-2 1.27-3.05 1.8z" fill="#F5A00C"/><path d="M18 24.6h1v2.05c.19-.23.67-.65 1.57-.65C22.1 26 23 27.05 23 28.47A2.47 2.47 0 0120.45 31c-.56 0-1.36-.31-1.45-.64V31h-1v-6.4zm1 4.8c.18.2.63.6 1.37.6.83 0 1.63-.47 1.63-1.5 0-1.05-.84-1.5-1.67-1.5-.78 0-1.2.42-1.33.57v1.82zm10-4.8h1V31h-1v-6.4zm7 1.4h-.67v1H36v2.64c0 1.03.59 1.36 1.63 1.36.4 0 .67-.05 1.04-.15V29.8c-.26.12-.48.18-.8.19-.63 0-.87-.36-.87-.7V27h1.67v-1H37v-1.4h-1V26zm10 0h-1v5h1v-2.57c.01-.34.1-1.42 1.54-1.43a.9.9 0 01.46.09v-1.07s-.04-.02-.17-.02c-.98 0-1.59.49-1.83.89V26zm-11.93 1.6c-.16-.21-.53-.6-1.5-.6-.76 0-1.1.23-1.1.5 0 .3.4.36.91.42l.25.03c1.25.17 2.38.36 2.38 1.52 0 1.38-1.53 1.53-2.27 1.53-1.56 0-2.06-.63-2.44-1.13l-.01-.01.91-.56c.37.61.96.7 1.62.7.49 0 1.18-.1 1.18-.46 0-.34-.32-.39-1.36-.53l-.1-.01c-1.72-.23-2.08-.8-2.08-1.5 0-.5.37-1.5 2.15-1.5.52 0 1.65.12 2.33 1.11l-.87.5zM12 24.6h-1V31h1v-6.4zm.39 3.9c0-1.26.75-2.5 2.6-2.5 1.86 0 2.61 1.24 2.61 2.5 0 1.87-1.33 2.5-2.6 2.5-1.28 0-2.61-.63-2.61-2.5zm4.21-.02c0-1.1-.79-1.48-1.6-1.48-.82 0-1.6.38-1.6 1.48 0 1 .63 1.52 1.6 1.52.96 0 1.6-.52 1.6-1.52zm-9.26.2v-.96h3.16V31H9.49v-.66c-.63.45-1.38.68-2.14.66C5.84 31 4 30.24 4 27.8c0-1.63.95-3.21 3.32-3.21 1.36 0 2.85.52 3.14 2.06H9.33c-.14-.31-.6-1.08-1.97-1.08C5.5 25.58 5 26.9 5 27.76 5 29.2 6.1 30 7.36 30c1.15 0 1.78-.47 2.05-1.32H7.34zm19.85-2.53a4.3 4.3 0 00-1.24-.15c-.88 0-2.14.22-2.4 1.5h1.13c0-.16.28-.5 1.28-.5.9 0 1.32.34 1.32.7-1.53.08-4 .3-4 1.89 0 1.15 1.2 1.41 1.83 1.41.94 0 1.71-.37 2.17-.63V31h1v-3.25c0-.5-.03-1.27-1.1-1.6zM25.26 30c-.67 0-.99-.2-.98-.5.01-.4.48-.57 1.15-.72.56-.14 1.28-.22 1.85-.24v.97c-.42.25-1.19.49-2.02.49zm16.7-4c.41 0 .83.04 1.23.15 1.07.33 1.1 1.1 1.1 1.6V31h-1v-.63c-.46.26-1.24.63-2.17.63-.63 0-1.83-.26-1.83-1.41 0-1.58 2.47-1.8 4-1.9 0-.35-.42-.69-1.32-.69-1 0-1.28.34-1.28.5h-1.14c.27-1.28 1.53-1.5 2.4-1.5zm-1.67 3.5c-.01.3.3.5.98.5.83 0 1.6-.24 2.02-.5v-.96c-.58.02-1.3.1-1.85.24-.68.15-1.14.33-1.15.73zm2.5-9.53c-.27 0-.53-.08-.76-.2a1.5 1.5 0 01-.21-.75c0-.03-.06-.03-.06 0 0 .26-.08.52-.21.74-.23.13-.5.2-.76.2l-.03.04.01.02h.02c.36.03.7.14.76.21.13.23.2.48.2.74l.02.02.02.01h.01l.01-.03c0-.26.08-.51.21-.74.08-.07.41-.18.76-.2.02 0 .03-.02.03-.04a.03.03 0 00-.02-.02z" fill="#fff"/><path d="M51.99 24.93c-.98-.05-2.5-.39-2.71-.6-.22-.2-.55-1.73-.6-2.7a.01.01 0 00-.02-.02h-.01a.01.01 0 00-.02.01c-.05.98-.38 2.5-.6 2.71-.2.22-1.73.55-2.7.6h-.01v.04c.98.06 2.5.39 2.72.6.2.22.54 1.73.6 2.71v.01h.03c.06-.99.4-2.5.6-2.72.22-.2 1.74-.54 2.72-.6l.01-.01v-.02l-.01-.01z" fill="#fff"/></svg>