<!-- by TradingView --><svg width="56" height="56" xmlns="http://www.w3.org/2000/svg"><path fill="url(#paint0_linear)" d="M0 0h56v56H0z"/><path fill-rule="evenodd" d="M37.388 14.302c4.65.756 8.612 3.02 8.612 8.787 0 7.185-6.69 16.252-11.84 20.207C31.924 44.988 29.481 46 26.569 46c-3.767 0-7.295-1.529-10.528-5.066-3.437-3.76-6.04-9.03-6.04-13.95 0-1.329.384-2.96.942-4.137C14.591 15.088 25.657 14 32.307 14c1.648 0 3.433.06 5.08.302zm-9.391 14.067l.102.053c1.254.649 2.567 1.389 2.567 2.808 0 2.068-1.999 2.77-3.67 2.77-1.046 0-1.97-.208-2.926-.61v-1.418c.986.554 2.209.894 2.985.894.836 0 1.88-.216 1.88-1.235 0-1-1.005-1.493-2.113-2.037l-.065-.031c-1.253-.617-2.597-1.295-2.597-2.87 0-1.913 1.79-2.693 3.402-2.693.866 0 1.692.162 2.438.594v1.389c-.717-.587-1.543-.983-2.468-.983-.896 0-1.76.428-1.76 1.26 0 .96 1.07 1.512 2.225 2.108zM26.9 45.18h-.043c-5.514-.009-10.281-4.11-12.964-8.857.597.462 1.283.864 2 1.08.985.309 2.089.463 2.924.463 3.164 0 4.478-1.235 4.537-2.933.03-1.48-1.044-2.314-3.045-2.438l-2.059-.124c-.955-.061-1.164-.37-1.164-.773 0-.238.118-.512.371-.723.17-.145.39-.254.633-.303.252.03.468.039.668.039 2.328 0 3.64-1.45 3.64-3.178 0-.74-.267-1.512-.745-2.069.507 0 1.462.063 1.761.125v-1.235c-.538.154-1.194.184-1.761.184-.477 0-.925-.092-1.344-.216A5.764 5.764 0 0018.702 24C16.363 24 15 25.43 15 27.348c0 1.322.743 2.492 1.937 2.956-.895.432-1.373 1.05-1.373 1.76 0 .802.627 1.636 1.851 1.759h.001c.775.061 1.163.092 2.267.155 1.104.062 1.463.093 1.88.247.388.154.657.555.657.924 0 .742-.508 1.143-1.014 1.36-.508.184-1.314.277-2.21.277-3.223 0-5.58-1.728-6.893-4.753-.765-1.763-1.037-3.436-1.046-5.283v-.146c.01-1.223.307-2.674.806-3.708 3.403-7.284 13.998-8.519 20.863-8.519 1.64 0 3.133.031 4.774.309 4.538.74 8.149 3.025 8.149 8.18 0 6.883-6.507 15.742-11.64 19.694-2.142 1.63-4.433 2.615-7.109 2.621zm11.288-13.364c1.103 1.236 1.94 1.604 2.447 1.604.09 0 .209-.03.298-.062-.448.34-1.104.641-1.82.641-.925 0-1.701-.64-2.656-1.813l-2.746-3.395v2.47c0 1.727.09 2.336.239 2.738H31.74c.18-.493.259-1.01.259-2.738v-8.55c0-1.389-.08-2.007-.35-2.378l2.06-.555v8.272l2.717-2.623s.737-.78 1.214-1.428H40c-.12.03-.738.41-2.23 1.86l-2.538 2.469s1.523 1.852 2.956 3.488zm-21.64-4.725c0 1.42.8 2.532 2.263 2.532 1.282 0 1.947-.901 1.947-2.168 0-1.388-.77-2.456-2.202-2.456-1.254 0-2.007.827-2.007 2.092z" fill="#fff"/><defs><linearGradient id="paint0_linear" x1="58.5" y1="-3" x2="0" y2="46" gradientUnits="userSpaceOnUse"><stop stop-color="#FDD446"/><stop offset=".516" stop-color="#F36F21"/><stop offset="1" stop-color="#EF3F23"/></linearGradient></defs></svg>