<!-- by TradingView --><svg width="56" height="56" xmlns="http://www.w3.org/2000/svg"><path fill="#4AA847" d="M0 0h56v56H0z"/><path d="M7.78 30.864c.537 0 .87-.09 1.22-.27v-1.295H8V28h2.616v3.45c-.66.558-1.604.837-2.835.837-.514 0-.981-.065-1.403-.197a3.385 3.385 0 01-1.067-.546 3.32 3.32 0 01-.736-.817 3.674 3.674 0 01-.439-1.02A4.68 4.68 0 014 28.56c0-.403.045-.786.136-1.147.095-.36.24-.699.439-1.014.201-.319.446-.593.736-.822.292-.23.648-.41 1.067-.542.422-.134.89-.202 1.403-.202a5.71 5.71 0 011.52.197c.477.128.93.363 1.359.704l-.828 1.093c-.562-.38-1.246-.57-2.051-.57-.358 0-.673.058-.946.176a1.655 1.655 0 00-.662.488c-.166.21-.29.453-.375.728a3.1 3.1 0 00-.127.911c0 .332.042.635.127.911.084.276.21.519.375.729.169.21.39.374.662.492.273.115.588.172.946.172zM15.673 27.108l-.701 1.22a1.461 1.461 0 00-.81-.216c-.37 0-.632.115-.788.345-.156.226-.374.561-.374 1.004v2.548h-1.458V27H13v.556c.296-.456.882-.684 1.48-.684.467 0 .865.078 1.193.236zM29.598 29.461V32H28v-5h1.598v.556c.296-.456.742-.684 1.34-.684.802 0 1.387.221 1.754.664.367.443.55 1.085.55 1.925V32h-1.598v-2.539c0-.443-.078-.778-.234-1.004-.155-.23-.419-.345-.789-.345-.37 0-.633.115-.79.345-.155.226-.233.561-.233 1.004zM39.624 25.542l-.79 1.157a4.215 4.215 0 00-1.919-.443c-.354 0-.62.06-.799.177a.572.572 0 00-.268.508c0 .226.106.407.317.541.21.131.539.243.984.335.461.098.854.212 1.179.34.328.124.614.279.857.462.244.18.424.396.541.645.12.25.18.539.18.867 0 .715-.264 1.254-.794 1.615-.53.36-1.262.541-2.197.541-1.234 0-2.212-.282-2.933-.846l.79-1.157c.61.387 1.325.58 2.143.58.474 0 .817-.062 1.028-.187a.597.597 0 00.322-.546c0-.223-.11-.396-.327-.517-.217-.122-.583-.235-1.096-.34-.906-.194-1.572-.484-1.998-.871a1.903 1.903 0 01-.638-1.462c0-.224.03-.435.088-.636.058-.2.154-.39.287-.57a1.92 1.92 0 01.512-.473 2.54 2.54 0 01.77-.31 4.303 4.303 0 011.052-.119c1.11 0 2.014.237 2.709.71zM42.187 28.757L44.092 27h2.021l-2.343 2.156L46.113 32h-1.875l-1.55-1.85-.502.454V32H40.59v-7h1.598v3.757zM47.877 27l1.198 3.328L50.274 27h1.666l-2.148 5.09-.6 1.423a3.049 3.049 0 01-.253.478c-.088.134-.196.26-.326.374-.13.115-.288.2-.473.256-.182.06-.393.089-.633.089-.465 0-.85-.082-1.155-.247l.492-1.098c.188.07.37.104.546.104.14 0 .256-.046.35-.138a1.24 1.24 0 00.264-.423l.355-.818L46.211 27h1.666zM20.795 31.482l-.79-.906c-.428.309-.962.463-1.602.463-.836 0-1.345-.67-1.322-1.514.013-.496.304-1.162.78-1.371.154-.066.334-.099.542-.099.207 0 .386.033.536.099a.804.804 0 01.346.26c.12.162.228.38.228.586h-1.67l-.262 1h3.501c.098-1.03-.088-1.692-.555-2.27-.468-.577-1.176-.866-2.124-.866-.38 0-.728.05-1.043.148a2.302 2.302 0 00-1.32.994c-.146.227-.252.47-.317.729a3.295 3.295 0 00-.097.812c0 .361.052.698.155 1.01.104.311.262.595.473.851.214.253.505.453.872.6.367.148.793.222 1.277.222.98 0 1.778-.25 2.392-.748zM26.892 31.482l-.789-.906c-.429.309-.963.463-1.603.463-.836 0-1.345-.67-1.322-1.514.014-.496.304-1.162.781-1.371.153-.066.333-.099.541-.099.208 0 .387.033.536.099a.803.803 0 01.346.26c.12.162.229.38.229.586h-1.67l-.263 1h3.502c.097-1.03-.088-1.692-.556-2.27-.467-.577-1.175-.866-2.124-.866-.38 0-.727.05-1.042.148a2.302 2.302 0 00-1.32.994 2.42 2.42 0 00-.317.729 3.29 3.29 0 00-.098.812c0 .361.052.698.156 1.01.104.311.261.595.473.851.214.253.505.453.872.6.367.148.792.222 1.276.222.981 0 1.778-.25 2.392-.748z" fill="#fff"/><path d="M48 22a4 4 0 00-4 4h8a4 4 0 00-4-4z" fill="#fff"/></svg>