<!-- by TradingView --><svg xmlns="http://www.w3.org/2000/svg" width="56" height="56"><path fill="#F0F3FA" d="M0 0h56v56H0z"/><path d="M43.5 19c-3.19 0-8.6.49-13.6 9.22-2.75 4.8-5.82 7.92-9.58 9.1-1.68.52-3.42.69-4.97.68-.76 0-5.35-.08-5.35-1.06 0-.72.96-1.72 1.44-1.72.3 0 3.17.78 5.22.78 4.03 0 8.21-2.03 11.43-7.54C32.03 21.69 36.49 17 44.04 17c.59 0 .96.13.96.37 0 .8-.53 1.63-1.5 1.63z" fill="#1E3083"/><path d="M45 22.29c0 1.2-.31 2.16-1.12 2-.8-.17-2.08-.29-3-.29-6.49 0-9.42 7.81-12.88 11.75 3.48.23 7.07.25 10.6.25 4.09 0 3.4-.84 3.4-2.27 0-.51.19-1.73 1.04-1.73.84 0 .96 1.14.96 1.66 0 3.86-4.2 4.34-7.31 4.34-1.73 0-5.53-.8-6.78-.8-3.17 0-4.3.59-5.12.8-.34-.15-.77-.43-.79-.78-.02-.26.2-.55.8-.85 1.75-.87 4.29-4.17 5.1-5.49 3.3-5.3 7.43-8.9 12.48-8.88.78 0 1.8.13 2.62.29z" fill="#1E3083"/><circle cx="18" cy="25" r="8" fill="#1E3083"/><path fill-rule="evenodd" d="M19.05 31.62c.96-.15 1.85-.5 2.62-1.02h-.99c-.5.41-1.04.75-1.63 1.02zm-2.33-1.02c.24.35.5.67.79.95a7 7 0 01-1.77-.95h.98zm-.16-.25h-1.13a7.1 7.1 0 01-1.9-2.47h1.97a9.2 9.2 0 001.06 2.47zm-1.5 0a7.34 7.34 0 01-1.8-2.47h-1.31a6.73 6.73 0 002.02 2.47h1.08zm.38-2.7l-2.01-.01a6.86 6.86 0 01-.53-2.52h2.22c.01.88.12 1.73.32 2.52zm-2.28-.01a7.1 7.1 0 01-.51-2.52H11.3c.02.9.2 1.74.54 2.52h1.32zm1.96-2.76H12.9c.01-.9.2-1.74.52-2.52h2c-.18.8-.3 1.64-.3 2.52zm-2.47 0c.01-.9.2-1.74.5-2.52h-1.31a6.67 6.67 0 00-.54 2.52h1.35zm2.6-2.77h-1.72c.33-.7.77-1.35 1.3-1.9.43.06.88.12 1.31.16a9.56 9.56 0 00-.65 1.74h-.23zm-2 0c.33-.72.76-1.38 1.29-1.95-.35-.06-.67-.13-.95-.2a6.72 6.72 0 00-1.64 2.16h1.3zm3.02-1.98c-.4-.04-.82-.08-1.22-.14a7.06 7.06 0 012.42-1.52 7.2 7.2 0 00-1.2 1.66zm-2.45-.37c.28.07.6.13.93.18a7.34 7.34 0 012.31-1.57 6.67 6.67 0 00-3.24 1.4zm3.23 11.87a7.3 7.3 0 01-1.7-1.03h-1.03c.8.53 1.73.9 2.73 1.03zm1.1-1.28h1.02c.46-.71.83-1.55 1.08-2.47h-2.1v2.47zm-.3 0h-1a8.83 8.83 0 01-1.1-2.47h2.1v2.47zm0-2.7h-2.16c-.2-.8-.31-1.64-.32-2.53h2.48v2.52zm.3 0h2.17c.2-.8.3-1.64.32-2.53h-2.49v2.52zm0-2.77h2.49c-.01-.88-.13-1.73-.32-2.51h-2.17v2.5zm-.3 0h-2.48c0-.89.12-1.73.31-2.52h2.17v2.52zm0-2.77h-2.1c.17-.62.4-1.2.66-1.72.53.05 1.03.08 1.44.08v1.64zm.3 0h2.1a9.43 9.43 0 00-.64-1.69c-.53.04-1.03.05-1.46.05v1.64zm0-1.89c.4 0 .85 0 1.33-.04-.38-.7-.83-1.3-1.33-1.76v1.8zm-.3 0v-1.78a6.7 6.7 0 00-1.32 1.71c.49.04.94.07 1.32.07zm0 10.38v.94c-.3-.27-.57-.59-.83-.94h.83zm.3.98v-.98H19c-.26.37-.55.7-.85.98zm2.14-.98c-.54.4-1.14.74-1.78.97.28-.29.55-.61.8-.97h.98zm.3-.25h-1.13c.44-.72.8-1.56 1.05-2.47h1.96a7.16 7.16 0 01-1.87 2.47zm-.02-2.7c.2-.8.3-1.64.31-2.53h2.23a7 7 0 01-.54 2.53h-2zm0-5.28c.2.79.3 1.63.31 2.5h2.23a6.87 6.87 0 00-.5-2.5h-2.04zm.46-2.35c-.43.07-.86.12-1.28.15a7.33 7.33 0 00-1.23-1.74c.94.35 1.8.9 2.5 1.59zm.2.21c-.45.09-.92.14-1.36.17.26.53.47 1.1.64 1.71h1.99a6.96 6.96 0 00-1.26-1.88zm-.26 10.12h1.06a6.73 6.73 0 002.02-2.47h-1.31a7.4 7.4 0 01-1.77 2.47zm1.87-2.7h1.31c.34-.77.53-1.63.55-2.53h-1.35c-.02.9-.2 1.74-.51 2.53zm.51-2.77h1.35a6.67 6.67 0 00-.53-2.5h-1.3c.3.77.47 1.61.48 2.5zm-.58-2.77h1.28a6.72 6.72 0 00-1.63-2.15c-.3.09-.6.16-.9.22a7.2 7.2 0 011.25 1.93zm-1.44-2.14c.29-.06.58-.12.86-.2a6.67 6.67 0 00-3.14-1.39 7.3 7.3 0 012.28 1.59zM18 32a7 7 0 100-14 7 7 0 000 14z" fill="#F0F3FA"/></svg>