<!-- by TradingView --><svg xmlns="http://www.w3.org/2000/svg" width="56" height="56"><path fill="#F0F3FA" d="M0 0h56v56H0z"/><path d="M28.34 16.7c-2.93-.14-5.97.91-8.31 3.17a11.23 11.23 0 00-3.48 8.2 8.58 8.58 0 011.93-9.81 8.52 8.52 0 019.86-1.55z" fill="#67B5E2"/><path d="M28.33 39.17c-2.93.15-5.97-.9-8.3-3.18a11.34 11.34 0 01-3.48-8.26 8.68 8.68 0 001.93 9.88 8.47 8.47 0 009.85 1.56zm-.75-22.47c2.93-.14 5.97.91 8.32 3.17a11.22 11.22 0 013.47 8.2 8.58 8.58 0 00-1.93-9.81 8.52 8.52 0 00-9.86-1.55z" fill="#008944"/><path d="M27.58 39.17c2.93.15 5.97-.9 8.31-3.18a11.34 11.34 0 003.48-8.26 8.68 8.68 0 01-1.93 9.88 8.48 8.48 0 01-9.86 1.56z" fill="#67B5E2"/><path d="M17.46 18.69A13.99 13.99 0 0127.92 14a14 14 0 0110.48 4.67 10.97 10.97 0 00-20.94.02zm21.11 18.65A14 14 0 0128.13 42c-4.19 0-8.14-1.98-10.71-4.88A11.36 11.36 0 0028.1 45c4.91 0 9.07-3.22 10.46-7.66z" fill="#00549D"/><path d="M37.32 17.59A14.05 14.05 0 0142 28.09c0 4.17-1.81 7.92-4.69 10.5a11 11 0 00.01-21zm-18.84.07A13.82 13.82 0 0014 27.9c0 4.1 1.7 7.8 4.49 10.31A10.66 10.66 0 0111 27.92a10.7 10.7 0 017.48-10.26z" fill="#00549D"/></svg>