<!-- by TradingView --><svg width="56" height="56" xmlns="http://www.w3.org/2000/svg"><path fill="url(#paint0_linear)" d="M0 0h56v56H0z"/><path d="M41.517 35.541c-3.605 2.094-8.36 3.257-13.46 3.257-4.257 0-8.284-.814-11.582-2.288 2.761-1.395 5.6-4.032 7.401-6.203l.844-1.047 1.61-.155s-2.875 2.792-1.878 4.226c.115.194.23.272.345.35.383.232 1.112.426 2.57-1.087 0 0 .23 2.21 2.147.97.575-.388 1.649-1.512 1.649-1.512s-.211 1.528.863 1.799c1.035.271 1.744-.675 2.627-1.605 0 0 .067 1.295 1.218 1.605 1.112.31 2.195-.52 3.422-1.528 1.227-1.047 2.53-2.83 2.53-2.83s.04 2.055-.804 2.52c-.883.465-1.343.814-1.113 1.24.269.427 1.15.543 2.378-.775l3.03-.039c-.998 1.125-2.225 2.172-3.797 3.102zm-30.833-.659c-.115-.271-.613-1.783 1.381-3.102 2.416-1.59 11.045-2.365 11.045-2.365-2.148 2.598-5.676 5.506-8.437 6.514-2.8.97-3.835-.66-3.989-1.047zm7.594-9.654c-.077-.039.536-1.978 4.716-3.373 3.874-1.28 6.098-1.125 6.098-1.125-.038 1.086-5.062 2.947-5.062 2.947-3.605 1.318-4.909 1.55-5.753 1.55zm10.469 4.42s-1.956 2.365-2.57 2.753c-.498.271-.575-.04-.613-.233 0-.039.038-.233.076-.31.537-1.202 2.225-2.637 2.877-2.714.69-.039.23.504.23.504zm7.286.892c.422-1.047 1.457-1.512 1.457-1.512.345-.156.46 0 .46 0 .346.542-.882 1.822-1.534 2.054-.651.233-.383-.542-.383-.542zM9.15 27.98c0-2.83 1.918-5.505 5.408-7.56 3.605-2.094 8.398-3.257 13.46-3.257 5.062 0 9.894 1.163 13.499 3.257 3.49 2.055 5.407 4.73 5.407 7.56 0 1.203-.345 2.366-.997 3.451H42.63L43.276 28H42s-1.71 2.462-3.818 3.935c0 0-2.493 2.288-2.646-.194 0 0 .843.97 2.262-.31 1.304-1.163 1.61-2.365.729-3.179-.965-.89-2.8.93-2.877 1.008 0 0-1.073.737-1.303 1.977 0 0-1.074 1.28-1.534.854-.46-.427.345-1.823.345-1.823L34.513 28h1.699l.741-1.299h-1.61l.98-1.701H35l-1.038 1.662h-1.419L31.725 28H33s-1.875 3.354-3.333 4.284c0 0-1.035.815-.767-.31 0 0 1.301-2.384 2.529-3.974H30l-.525.756s.126-.834-1.33-.756l-2.505.174L27.982 25h-1.534s-1.497 1.546-5.523 1.662c0 0-.96 0-1.611-.426 0 0 5.062-.66 9.626-3.373 0 0 2.607-1.474 1.764-2.986 0 0-.537-1.124-3.95-.504-3.452.62-9.51 2.404-9.933 5.932 0 0-1.823.001-2.82-.309L13.564 26s.61.468 3.64.391c0 0 .767 1.28 3.183 1.24 2.454 0 3.835-.27 4.678-.58l-.843 1.162-1.228.078c-.92.077-8.896.736-11.504 2.442-.46.31-.806.62-1.112.931-.844-1.163-1.228-2.404-1.228-3.683zm32.942-8.568C38.334 17.202 33.35 16 28.018 16c-5.292 0-10.277 1.202-14.036 3.412C10.11 21.7 8 24.724 8 27.981c0 1.667.537 3.256 1.61 4.73a3.606 3.606 0 00-.076 2.675c.307.776 1.419 2.094 3.49 2.094.613 0 1.265-.116 1.956-.35 3.604 1.862 8.168 2.87 13 2.87 5.292 0 10.277-1.202 14.036-3.412 3.873-2.249 5.982-5.312 5.982-8.569.077-3.295-2.07-6.32-5.906-8.607z" fill="#fff"/><defs><linearGradient id="paint0_linear" x1="10.418" y1="9.712" x2="68.147" y2="76.017" gradientUnits="userSpaceOnUse"><stop stop-color="#1A1E21"/><stop offset="1" stop-color="#06060A"/></linearGradient></defs></svg>