<!-- by TradingView --><svg width="56" height="56" fill="none" xmlns="http://www.w3.org/2000/svg"><path fill="#004785" d="M0 0h56v56H0z"/><path d="M28 33.509c13.205 0 23.91-2.465 23.91-5.507 0-3.041-10.705-5.506-23.91-5.506S4.09 24.96 4.09 28.002c0 3.042 10.705 5.507 23.91 5.507z" stroke="#fff"/><path d="M28 31.997c12.15 0 22-1.79 22-4 0-2.209-9.85-4-22-4s-22 1.791-22 4c0 2.21 9.85 4 22 4z" fill="#fff"/><path d="M16.208 27.109l-.143-.08s-.099-.355-.33-.48c-.231-.126-1.013-.32-2.047-.298-1.035.023-2.688.56-2.688 1.658 0 1.097 1.444 1.771 2.842 1.771 2.003 0 2.003-.503 2.322-.674.165-.012.375-.012.375-.012l-.298.755s-.363.011-.473.045c-.11.035-.98.206-1.937.206C12.829 30 10 29.589 10 27.931 10 26.274 13.192 26 13.677 26c.484 0 1.937.16 2.168.183.231.023.705-.012.705-.012s.022.08.01.183c-.01.103-.352.755-.352.755zM18.5 28.179v1.244c.033.322.318.3.384.3h.462l.003.277h-1.28-1.299v-.265h.44c.067 0 .29 0 .29-.313v-2.844c0-.3-.192-.325-.258-.325h-.472V26H19.35l-.003.253h-.44c-.066 0-.373.002-.406.325v1.163H23v-1.163c-.033-.323-.276-.325-.342-.325h-.43L22.225 26h2.358v.253h-.278c-.066 0-.305.025-.305.325V29.422c0 .288.292.3.358.3s.225.012.225.012V30h-1.078-1.28l.003-.277h.46c.065 0 .279.022.312-.3v-1.244h-4.5zM33.656 27.697c-.031-.069-.04-.855-.022-1.15.015-.228.117-.273.183-.277.16-.008.654-.013.654-.013.495 0 2.212.1 2.212.714s-.528.76-2.102.76c-.396 0-.893.035-.925-.034zM34.474 26h-2.359v.257s.285.041.352.041c.066 0 .532.037.532.317v2.846c0 .288-.5.288-.566.288h-.316V30H34.475l-.003-.262h-.453c-.066 0-.35.003-.383-.31-.032-.294.02-1.095.02-1.363 0 0 .507-.033.705-.01.198.022.616.033.903.256.286.223.704.692 1.75 1.15 1.045.458 1.32.559 1.86.536.54-.022.65-.111.65-.111l-.012-.157s-.594-.011-.847-.1c-.253-.09-.74-.278-1.444-.724-.704-.447-.813-.538-1.165-.929.694-.156 1.354-.424 1.354-1.016 0-.592-.914-.96-1.673-.96h-1.264zM39.248 26.504c-.319 0-.495.034-.605.09-.11.056-.253.246-.253.246l-.374-.01.473-.83s.187.09.286.112c.1.022.85.058 1.587.08.737.023 1.365.013 2.84.002 1.476-.011 1.463-.194 1.463-.194H45l-.302.82-.419.022s.022-.134.045-.202c.022-.067.022-.112-.088-.134-.11-.023-.725-.043-1.1-.055-.374-.01-.396.032-.672.044-.275.01-.464.235-.464.38V29.4c0 .315.564.302.63.302.066 0 .627.03.627.03l.003.268H40v-.267s.505-.042.571-.042c.066 0 .33.011.385-.28.055-.292.044-1.113.044-1.381 0-.27-.007-.694 0-1.02.011-.527-.154-.504-.22-.504h-.43l-1.102-.002zM27.246 28.632c-.198 0-.407.07-.45.115-.045.046-.441.54-.507.61-.066.068-.132.195-.066.264s.253.102.363.102c.11 0 .528.013.528.013V30H24.847v-.264l.407-.036c.132-.011.308-.125.418-.275.11-.15 2.653-3.425 2.653-3.425h.297s2.323 3.276 2.433 3.425c.11.15.286.264.418.275l.408.036V30h-2.268v-.264s.033-.013.143-.013c.11 0 .297-.033.363-.102.066-.07 0-.196-.066-.265s-.462-.563-.506-.609c-.044-.046-.253-.115-.451-.115h-.881-.969zm.958-.345c.165 0 .969-.046.969-.046l-.98-1.264-.98 1.264s.826.046.991.046z" fill="#004785"/></svg>