<!-- by TradingView --><svg width="56" height="56" xmlns="http://www.w3.org/2000/svg"><path fill="#F0F3FA" d="M0 0h56v56H0z"/><path d="M42.177 27.998c0 7.83-6.348 14.179-14.179 14.179-7.83 0-14.178-6.348-14.178-14.179 0-7.83 6.348-14.178 14.178-14.178v1.71c-6.886 0-12.468 5.582-12.468 12.468s5.582 12.469 12.468 12.469 12.469-5.583 12.469-12.469c0-.315.018-.545-.005-.855h1.715c.02.31 0 .54 0 .855z" fill="#1CA7DD"/><path d="M43.998 28c0 8.835-7.163 15.998-15.999 15.998S12 36.835 12 28 19.163 12 28 12c1.801 0 3.533.298 5.15.847l-.103-.02-.663 1.684a14.168 14.168 0 00-4.385-.69c-7.83 0-14.178 6.348-14.178 14.178 0 7.83 6.348 14.179 14.178 14.179 7.83 0 14.179-6.348 14.179-14.179 0-.324-.034-.674-.055-.993h1.847c.019.32.028.669.028.993z" fill="#1580C0"/><path d="M42.606 34.537a16.063 16.063 0 01-5.78 6.808l-1.014-1.512c2.218-1.467 3.999-3.541 5.107-5.986l1.687.69z" fill="#FEC940"/><path d="M40.468 28c0 6.885-5.595 12.467-12.496 12.467-6.902 0-12.496-5.582-12.496-12.468s5.594-12.468 12.496-12.468c2.425 0 4.689.69 6.605 1.882l-1.171 1.875a10.24 10.24 0 00-5.434-1.55c-5.683 0-10.29 4.606-10.29 10.289 0 5.682 4.607 10.289 10.29 10.289 5.682 0 10.289-4.607 10.289-10.29 0-.362-.033-.556-.07-.91l.028.028h2.193c.028.337.056.512.056.855z" fill="#1C2845"/><path d="M17.765 37.869a14.131 14.131 0 01-4-9.87c0-7.831 6.348-14.18 14.178-14.18 3.891 0 7.416 1.568 9.977 4.105a85.94 85.94 0 00-1.654 1.72l-2.171-1.742.276-.413c-1.913-1.194-4.007-1.959-6.428-1.959-6.886 0-12.164 5.638-12.164 12.524 0 3.366 1.196 6.225 3.365 8.468l-1.38 1.347z" fill="#FEC942"/><path d="M40.468 28c0 6.885-5.567 12.467-12.468 12.467v-2.151c5.682 0 10.26-4.607 10.26-10.29 0-.362.037-.5 0-.854h2.208c.027.336 0 .483 0 .827zM27.972 15.53c2.425 0 4.689.69 6.605 1.883l-1.171 1.875a10.24 10.24 0 00-5.434-1.55c-4.935 0-9.059 3.474-10.058 8.11l-2.15-.525a12.494 12.494 0 0112.208-9.792z" fill="#E52045"/><path fill-rule="evenodd" d="M27.999 38.371c5.728 0 10.372-4.631 10.372-10.344 0-5.713-4.644-10.345-10.372-10.345s-10.372 4.632-10.372 10.345c0 5.713 4.644 10.344 10.372 10.344zm0-1.269c5.058 0 9.158-4.075 9.158-9.103 0-5.027-4.1-9.103-9.158-9.103S18.841 22.972 18.841 28c0 5.028 4.1 9.103 9.158 9.103z" fill="#1C2845"/><path d="M17.627 28.027c0 5.713 4.644 10.344 10.372 10.344 1.993 0 3.854-.56 5.434-1.532l-.69-1.052A9.157 9.157 0 0128 37.102c-5.058 0-9.158-4.075-9.158-9.103 0-1.635.434-3.17 1.193-4.496l-1.011-.662a10.275 10.275 0 00-1.396 5.186z" fill="#1CA6DF"/><path d="M28 37.158c5.058 0 9.35-4.073 9.35-9.131 0-.336-.1-.695-.136-1.02h-2.283c.049.332.074.673.074 1.02 0 3.824-3.181 6.923-7.005 6.923v2.208zM28.006 18.844c-5.051 0-9.22 4.098-9.22 9.072l2.372.11c0-3.75 3.127-6.803 6.848-6.92v-2.262zM21.875 31.099a6.948 6.948 0 003.724 3.393l-.772 2.06c-2.173-.835-4.037-2.447-5.048-4.526l2.096-.927z" fill="#1874AD"/><path d="M33.008 29.007v-2h10.908c.132.33.083 1.412.027 2H33.01z" fill="#1580C0"/></svg>