<!-- by TradingView --><svg width="56" height="56" xmlns="http://www.w3.org/2000/svg"><path fill="#00693C" d="M0 0h56v56H0z"/><path d="M22 24l-2.052 7.818L18 28.757c.95-.326 1.166-1.38 1.166-2.174 0-1.667-1.08-2.575-2.718-2.575L13 24v7.992h2v-2.987l.945-.007L17.771 32H22l.485-2H24.5l.5 2H27l-2.001-8H22zm-6 3.5h-1V26h1c.459 0 .98.29.997.771.018.48-.533.729-.997.729zm6.67 1.498L23.5 26l.85 2.998h-1.68zM36 32h2v-8h-2v8zm3-6h2.5v6h2v-6H46v-2h-7v2zm13 0v-2l-5 .008v8L52 32v-2h-3v-1h3v-2h-3v-1h3zm-18.396-1.992C33.55 24 33.495 24 33.441 24H28v8h2v-6h2.147c.39 0 .853.337.853.894V32h2v-6.112c0-.49-.156-.94-.398-1.28-.257-.342-.608-.558-.998-.6zM8.998 27v2.005H10v1.003L8.069 30c-.663 0-1.418-.173-1.675-.505-.25-.325-.39-.73-.398-1.495.008-.765.148-1.204.398-1.52.257-.333 1.012-.48 1.675-.48H10l2-2H7.999c-.959 0-1.8.083-2.65.74C4.436 25.422 4 26.545 4 28c0 1.455.437 2.578 1.34 3.268.858.665 1.708.732 2.682.732H12c-.047-1.597-.353-2.728-1.016-3.534-.569-.69-1.058-1.108-1.986-1.466z" fill="#fff"/><path d="M11.233 28.044c.324.448.58.978.765 1.609v-2.654c-.013-.25-.124-.44-.261-.44H8.998c.941.44 1.662.697 2.234 1.485z" fill="#FFB612"/></svg>