<!-- by TradingView --><svg width="56" height="56" xmlns="http://www.w3.org/2000/svg"><path fill="#00529B" d="M0 0h56v56H0z"/><path d="M17.5 15.002H38.5c2.487 0 4.5 2.023 4.5 4.525v16.956c0 2.497-2.013 4.52-4.5 4.52H17.5c-2.487 0-4.499-2.023-4.499-4.52V19.527c-.005-2.497 2.012-4.525 4.5-4.525z" fill="#00529B" stroke="#1FB25A" stroke-width="2"/><path d="M33.384 19.564c-2.3-2.192-6.72-.44-6.72-.44-5.592 1.99-7.147 5.53-7.147 5.53-1.098 2.462 1.165 3.1 2.195 2.796 9.763-2.898 11.568-5.158 11.568-5.158-3.605 1.12-5.27 1.02-4.988-.304.109-.372.494-.71.494-.71.37-.236.92.203.92.203.37.184 3.678-.27 3.678-.27 1.15-.184 1.519.304 1.519.304.229.521-.458 1.231-.458 1.231L25.14 34.157l5.981-4.988c3.11-2.579 5.873-4.25 5.873-4.25.603-.352.634.203.28.474-1.804 2.09-3.36 4.587-3.36 4.587-.369.744-2.97 4.182-2.97 4.182l8.702-7.248.354.405c-3.854 2.95-13.373 11.6-13.373 11.6-.177.183-.603 0-.603 0-.338-.252.067-.609.067-.609 2.3-2.613 5.093-6.64 5.093-6.64 1.201-1.772 3.469-4.452 3.469-4.452-1.893 1.313-6.757 5.428-6.757 5.428-2.314 1.975-5.555 4.35-5.555 4.35-.338.17-.868.237-.868.237-.796-.02-.052-.676-.052-.676 2.881-2.917 4.384-5.123 4.384-5.123 2.034-2.763 5.91-6.978 5.91-6.978-14.044 8.426-15.428 4.013-15.428 4.013-1.488-3.844 3.292-6.81 3.292-6.81 7.287-5.089 13.477-4.65 13.477-4.65 1.696 0 1.873 1.048 1.873 1.048.109.807-.068 1.652-.068 1.652-.453.951-1.477-.145-1.477-.145z" fill="#fff"/></svg>