<!-- by TradingView --><svg width="56" height="56" xmlns="http://www.w3.org/2000/svg"><path fill="#417AAE" d="M0 0h56v56H0z"/><path d="M49 32h-1v-9h-3v-1h7v1h-3v9zm-10-1.692c2.874.813 5.563 1.996 8.286 3.554v.262a44.961 44.961 0 00-14.612-3.716L34.38 35h-1.32l-1.685-4.683a51.533 51.533 0 00-4.964-.04L24.711 35H23.39l1.73-4.654c-5.944.395-11.006 1.822-15.452 3.777v-.264A38.809 38.809 0 0119 30.112v-2.576L15.446 22h1.134l2.831 4.598L22.16 22h1.072L20 27.536v2.293a36.08 36.08 0 015.65-.787L28.695 22h.59l2.859 7.1c1.989.161 4.069.457 5.856.891V23h-3v-1h7v1h-3v7.308zm-10-6.33L26.92 29c1.314-.041 2.63-.067 3.945 0L29 23.978zM10 27H5v5H4V22h1v4h5v-4h1v10h-1v-5z" fill="#fff"/></svg>