<!-- by TradingView --><svg width="56" height="56" xmlns="http://www.w3.org/2000/svg"><path fill="#C60C30" d="M0 0h56v56H0z"/><path d="M6.468 30.004h2.236v-.101h-.137c-.119 0-.301-.023-.372-.06a.293.293 0 01-.14-.129.974.974 0 01-.055-.37v-2.696c0-.193.04-.313.063-.358a.278.278 0 01.127-.136c.073-.04.26-.056.385-.056h.137v-.1H6.468v.1h.175c.12 0 .303.073.357.19v.368l.008 1.169H5.6v-1.169-.358a.373.373 0 01.165-.144.712.712 0 01.314-.056h.14v-.1H4v.1h.152a.6.6 0 01.282.056c.07.036.117.08.14.13.023.048.026.172.026.368v2.697c0 .193-.011.312-.034.358a.268.268 0 01-.125.136.64.64 0 01-.296.06h-.14v.1h2.214v-.1h-.147c-.118 0-.176.004-.245-.032a.4.4 0 01-.156-.157.845.845 0 01-.07-.365v-1.272H7v1.276c0 .193.003.312-.02.358a.282.282 0 01-.128.137c-.073.039-.092.055-.217.055h-.167v.1zm4.892-1.387h-1.278l.65-1.328.628 1.328zm-.04 1.385h2.026V29.9a.515.515 0 01-.297-.102c-.094-.077-.213-.266-.358-.564L11 25.997 9.584 29.15c-.143.293-.263.486-.36.58a.65.65 0 01-.373.17v.102h1.4V29.9c-.22-.015-.357-.038-.413-.068a.253.253 0 01-.143-.238.77.77 0 01.087-.31l.196-.457h1.483l.244.559c.058.126.09.197.094.214a.335.335 0 01.018.106.147.147 0 01-.068.13c-.066.043-.181.064-.345.064h-.083v.1zm5.68 0l.128-1.005h-.19c-.155.512-.614.793-1.146.793-.194 0-.658.047-.746-.164-.02-.048-.046-.177-.046-.388V28.07c.203 0 .365.024.472.072.107.049.2.143.281.284.08.14.096.351.121.571H16v-2h-.124c-.034.299-.075.479-.196.632-.121.153-.318.23-.588.23H15v-1.625l.57.003c.32 0 .537.017.653.052.434.12.623.285.715.708H17V26h-3.471v.117c.185 0 .386.023.452.234.01.04.015.148.015.322L14 29.349c0 .193-.012.312-.034.358-.083.183-.26.194-.434.194v.1H17zm4.387-.005l2.139.005V29.9h-.138c-.119 0-.145-.005-.216-.042a.3.3 0 01-.14-.129c-.024-.05-.034-.173-.034-.37L23 26.67c0-.193.002-.313.025-.36a.287.287 0 01.125-.134c.075-.04.107-.074.231-.074h.138V26h-1.67l-1.18 2.69-1.2-2.69h-1.715v.101h.135c.12 0 .214.019.285.056.071.037.118.08.141.13.023.048.035.171.035.368l.006 2.58c0 .175-.002.273-.006.294a.52.52 0 01-.097.21.426.426 0 01-.186.12.717.717 0 01-.263.042h-.043v.1h1.445v-.1c-.194 0-.335-.03-.426-.09a.403.403 0 01-.177-.228 2.133 2.133 0 01-.016-.347l-.006-2.87 1.653 3.636h.075l1.693-3.648-.002 3.01c0 .194-.004.313-.026.359a.292.292 0 01-.125.136c-.075.04-.2.037-.325.037h-.137v.101zM27 28c0 1.032-.393 1.784-1 1.77-.607-.014-1-.771-1-1.77 0-1 .324-1.78 1-1.78.676 0 1 .789 1 1.78zm1 0c0-1.042-.612-2-2-2s-2 .899-2 2c0 1.177.601 1.992 2 1.997 1.399.005 2-.945 2-1.997zm4.656-1.813c.06-.034.18-.061.359-.082v-.101h-1.392v.1c.233-.002.4.05.499.162.072.082.108.24.108.473v1.773l-2.07-2.508h-1.505v.1a.748.748 0 01.295.057.795.795 0 01.235.21l.1.11v2.863c0 .2-.046.343-.136.426-.091.083-.252.126-.483.128v.101h1.501v-.101h-.1a.662.662 0 01-.383-.114c-.112-.076-.168-.223-.168-.44v-2.603L32.356 30h.105v-3.26c0-.184.018-.314.052-.39a.335.335 0 01.143-.163zM37 30l.092-1h-.134c-.208.686-.686.788-1.392.788-.177 0-.444.042-.528-.162-.02-.047-.03-.176-.03-.388l-.012-1.165c.204 0 .266.024.373.072.107.048.2.143.28.284.081.14.134.32.16.54H36V27h-.191c-.034.3-.112.48-.233.633-.122.152-.225.229-.494.229h-.086L35 26.225h.327c.319 0 .536.017.653.052.354.099.635.359.715.723h.11v-.996h-3.52v.1h.142c.136 0 .355.02.434.072.185.117.139.28.139.475l.012 2.686c0 .402-.135.562-.566.562h-.141v.1H37zm4.318-3h.112v-.996h-3.797V27h.11a.936.936 0 01.346-.61c.13-.11.338-.165.625-.165l.286.01v3.123c0 .193-.002.312-.025.358a.284.284 0 01-.126.136.537.537 0 01-.271.05h-.14v.102h2.206v-.101h-.138a.755.755 0 01-.313-.055.308.308 0 01-.14-.13c-.024-.05-.053-.172-.053-.37v-3.123h.348c.197 0 .336.017.415.052a.84.84 0 01.334.25c.081.104.155.233.22.473zm.388 2.997l2.294.007v-.101h-.171a.599.599 0 01-.28-.055.313.313 0 01-.141-.13c-.022-.05-.036-.172-.036-.37V26.66c0-.193.012-.313.035-.358a.278.278 0 01.127-.136.62.62 0 01.295-.06H44v-.101h-2.294v.1h.197c.118 0 .213.02.282.057.069.036.116.08.139.129.022.049.034.172.034.369v2.69c0 .193-.012.312-.034.358a.268.268 0 01-.125.136.64.64 0 01-.296.06l-.197-.007v.101zm6.542-2.67h.111v-1.33h-.11a.356.356 0 01-.095.215.246.246 0 01-.173.067c-.052 0-.173-.034-.364-.104a2.777 2.777 0 00-.941-.178c-.403 0-.783.09-1.14.27-.36.181-.644.435-.855.763a1.883 1.883 0 00-.316 1.038c0 .346.095.672.285.978.19.307.46.542.809.705.348.164.748.246 1.198.246.343 0 .642-.05.897-.15.257-.1.503-.262.74-.485V29c-.244.258-.477.471-.697.577-.22.105-.463.158-.728.158-.323 0-.586-.072-.789-.216-.202-.144-.351-.357-.447-.638a2.908 2.908 0 01-.142-.937c0-.348.065-.665.195-.949.102-.222.262-.402.482-.54.22-.137.462-.206.725-.206.315 0 .597.093.846.278.248.185.418.452.51.8zm3.338 2.325c.276-.231.414-.506.414-.826a1 1 0 00-.251-.67c-.17-.197-.503-.404-1.002-.624a6.614 6.614 0 01-.684-.33 1.01 1.01 0 01-.292-.261.397.397 0 01-.066-.226c0-.133.062-.25.186-.353.125-.102.293-.153.507-.153.276 0 .532.097.769.293.237.195.387.454.447.775h.133l.002-1.28h-.124c-.028.115-.057.187-.088.217a.178.178 0 01-.128.045c-.056 0-.155-.03-.296-.092a2.174 2.174 0 00-.358-.125 1.782 1.782 0 00-.4-.045c-.378 0-.755.079-1.003.293a1.028 1.028 0 00-.352.805c0 .178.088.341.176.49.09.149.218.283.383.403.167.12.444.265.832.436.277.123.47.221.58.298.108.076.19.156.243.24.053.085.08.172.08.262 0 .152-.07.285-.208.4-.14.115-.327.172-.562.172-.303 0-.587-.107-.85-.32-.263-.214-.44-.524-.532-.93H49v1.451h.142a.412.412 0 01.148-.175.327.327 0 01.172-.057c.064 0 .146.02.247.057a3.1 3.1 0 00.446.138c.12.025.245.037.379.037.425 0 .776-.115 1.052-.345z" fill="#fff"/></svg>