<!-- by TradingView --><svg width="56" height="56" xmlns="http://www.w3.org/2000/svg"><path fill="#F0F3FA" d="M0 0h56v56H0z"/><circle cx="20.015" cy="28.5" r="8.5" fill="url(#paint0_linear)"/><path d="M28.199 28.349h20.15l-.184.39h-20.15M7 20h9.235c-.21.119-.993.515-1.553 1H7v-1zm0 16h7.672c.342.303 1.282.87 1.572 1H7v-1zm0-2h5.758c.12.219.68.867.808 1H7v-1zm0-2h4.667c.062.239.382.865.464 1.002L7.001 33v-1zm0-2h4.113c.031.219.176.844.215.996C9.998 30.996 8.33 31 7 31v-1zm0-2h4c.003.128-.008.873 0 1H7v-1zm0-2h4.328c-.055.223-.191.84-.215.996-1.302 0-2.81.004-4.113.004v-1zm0-2l5.13.001c-.142.222-.416.87-.468.999H7v-1zm0-2h6.564c-.236.25-.725.866-.81.996-1.78 0-3.974.004-5.754.004v-1z" fill="#BBBDC0"/><path d="M39.199 25.626s-.238.545-.706.554l-1.47.001.262-.529.344-.001c.092 0 .122-.09.122-.09l1.078-2.159h-1.594c-.491.987-.973 1.98-1.456 2.971 0 0-.32.75.323.75l1.983.002-.268.542h-2.483c-1.434 0-.82-1.398-.819-1.398l1.41-2.867h-.73l.325-.67h6.041l-.324.67h-.927l-1.111 2.224zm-6.493-2.224H29.36c-.696 1.398-1.372 2.807-2.058 4.21h-1.14l2.067-4.21h-.66l.324-.67h.665l.195-.397c-.004.006.447-1.204 1.746-1.203l2.646.001c.01 0 1.208.103.612 1.323h-1.142l.118-.236c.188-.383-.187-.415-.184-.415H30.95c-.718 0-1.056.531-1.151.718l-.106.21h5.297l-.325.67h-.818l-.693 1.41-1.153.003c.083-.165.008-.253-.053-.295a.15.15 0 00-.105-.03h-.274s-.385-.024-.523.27l-.191.393s-.092.157.106.157h1.567c.003 0 .59.024.285.68l-.285.583h-1.135l.197-.42c.156-.3-.085-.3-.085-.3h-.721s-.262-.02-.446.337l-.325.664s-.175.271.148.271l1.547-.001-.267.542h-2.193c-.758-.018-.488-.585-.488-.585l.473-.965a.857.857 0 01.068-.118c.197-.282.353-.342.698-.397-.419-.132-.288-.456-.288-.456l.016-.035.216-.438.005-.008c.066-.147.369-.71 1.067-.71h1.413l.277-.553zM47.8 25.046c-.001 0 .185-.318-.147-.36-.332-.042-.556.355-.556.355l-.511 1.052h-1.134l.512-1.042s.098-.38-.283-.393c-.381-.014-.595.37-.595.37-.305.624-.598 1.227-.901 1.852 0 0-.106.246.042.246l.93-.001-.268.542h-1.48c-.725 0-.399-.714-.399-.714l.92-1.874.047-.087c.126-.24.585-.914 1.745-.891.908.027 1.052.515 1.052.515s.482-.568 1.445-.419l.392-.795h-5.013c-.696 1.398-1.373 2.807-2.058 4.21H40.4l2.068-4.21h-.84l.325-.67h.844l.195-.396c-.005.005.447-1.204 1.745-1.203h4.728c.009 0 1.208.103.612 1.323h-1.142l.117-.236c.189-.383-.186-.415-.184-.415H45.19c-.718 0-1.056.531-1.151.719l-.106.208H51l-.325.67h-.936c-.608 1.233-1.482 3.03-2.059 4.21h-1.14l1.26-2.566zm-12.65 4.412c-.864 1.717-2.357 4.885-3.167 6.542h-1.74l1.261-2.602H29.43c-.472.985-.92 1.921-1.253 2.602h-1.74l3.171-6.542h1.736c-.315.625-.713 1.444-1.131 2.312h2.082l1.12-2.312h1.736zm2.782 4.046l.208-1.973c-.493.642-1.01 1.32-1.508 1.973h1.3zm2.164-4.046L39.408 36h-1.74l.112-1.058h-2.247c-.3.392-.575.751-.812 1.058h-1.74l5.028-6.542h2.086zm4.914 0c-.629 1.25-1.59 3.268-2.38 4.914h2.901L44.743 36h-4.64l3.171-6.542h1.736z" fill="#231F20"/><path d="M39.038 25.494s-.237.544-.705.553l-1.47.002.262-.53h.344c.092 0 .121-.09.121-.09l1.079-2.16h-1.595c-.49.987-.973 1.98-1.455 2.972 0-.001-.32.75.322.75l1.983.001-.267.543h-2.484c-1.433 0-.82-1.399-.818-1.399l1.409-2.867h-.73l.325-.67h6.042l-.325.67h-.927l-1.111 2.225zm-6.492-2.225H29.2c-.696 1.398-1.373 2.808-2.058 4.21H26l2.068-4.21h-.661l.324-.67h.666l.195-.396c-.005.005.447-1.204 1.746-1.203h2.646c.009 0 1.207.104.612 1.324h-1.142l.117-.237c.189-.383-.186-.415-.184-.415H30.79c-.717.001-1.055.532-1.15.719l-.106.209h5.297l-.325.67h-.819l-.692 1.411-1.154.002c.084-.165.009-.253-.052-.295a.15.15 0 00-.106-.03h-.273s-.385-.024-.524.271l-.19.393s-.093.157.105.157h1.567c.004 0 .59.023.286.68l-.285.582-1.135.001.197-.42c.155-.3-.085-.3-.085-.3h-.721s-.262-.02-.446.336l-.326.665s-.174.27.149.27l1.548-.001-.269.543H29.09c-.758-.018-.488-.586-.488-.586l.473-.965a.95.95 0 01.068-.118c.196-.282.353-.341.697-.397-.418-.132-.288-.455-.288-.455l.017-.036.216-.438.004-.007c.066-.148.37-.711 1.068-.711h1.413l.277-.553zm15.094 1.644c-.001 0 .185-.318-.147-.36-.332-.041-.556.355-.556.355l-.511 1.052h-1.134l.511-1.042s.099-.38-.283-.393c-.38-.013-.594.37-.594.37-.306.624-.598 1.227-.902 1.852 0 0-.105.246.043.246l.93-.001-.269.543h-1.48c-.724 0-.398-.715-.398-.715l.92-1.873.046-.087c.127-.24.586-.915 1.746-.892.908.028 1.052.516 1.052.516s.481-.569 1.445-.42l.392-.794h-5.014c-.695 1.397-1.372 2.807-2.058 4.21h-1.14l2.068-4.21h-.84l.324-.67h.845l.194-.397c-.004.005.448-1.204 1.746-1.203h4.728c.009 0 1.208.104.612 1.324h-1.142l.117-.237c.189-.383-.186-.415-.184-.415h-3.678c-.718.001-1.056.532-1.15.719l-.107.21h7.067l-.325.669h-.936c-.607 1.232-1.482 3.03-2.058 4.21h-1.141l1.26-2.567zm-12.65 4.412c-.864 1.717-2.358 4.885-3.167 6.543h-1.74l1.261-2.603H29.27c-.472.986-.92 1.922-1.253 2.603h-1.74l3.171-6.543h1.736c-.315.626-.713 1.444-1.131 2.312h2.082l1.12-2.312h1.736zm2.782 4.046l.208-1.973c-.493.643-1.01 1.32-1.508 1.973h1.3zm2.163-4.046l-.687 6.543h-1.74l.111-1.059h-2.246c-.3.392-.575.752-.813 1.059h-1.74l5.03-6.543h2.085zm4.915 0c-.629 1.25-1.591 3.269-2.38 4.915h2.901l-.788 1.628h-4.64l3.17-6.542h1.737z" fill="#0089CF"/><path d="M24.493 23.866l.062.116c.017.031.078.066.113.063l.125-.009a.189.189 0 00.089-.05l.107-.152a.183.183 0 00.016-.102l-.052-.176-.07-.325a.59.59 0 00-.01-.026l-.07-.151a.32.32 0 00-.028-.038l-.196-.179-.005-.004-.123-.1-.069-.138c-.018-.036-.082-.07-.121-.065l-.12.016-.147-.016-.013-.001h-.037l-.014-.018v-.114c0-.037-.04-.096-.074-.11l-.069-.027-.005-.046v-.068l.077-.022a.246.246 0 00.06-.04l.094-.117a.309.309 0 00.024-.06l.024-.21a.193.193 0 00-.03-.093l-.233-.257a.548.548 0 00-.03-.023l-.144-.083-.103-.123a.186.186 0 00-.091-.043h-2.17l-.03.004-.434.114-.366.046c-.052.007-.105.066-.105.118v.063l-.139.062-.013.007-.087.052h-.225a.105.105 0 00-.04.009.117.117 0 00-.076-.032h-.187c-.046 0-.105.048-.116.094l-.026.116h-1.094a.15.15 0 00-.11.072l-.028.068v-.138a.25.25 0 00-.024-.071l-.14-.187a.189.189 0 00-.09-.047l-.513-.024a.428.428 0 00-.045.007l-.396.14-.395.14-.392.115a.44.44 0 00-.026.01l-.163.094c-.048.028-.072.106-.047.155l.04.081-.067.107-.163.102c-.07.044-.062.144-.006.192h-.016l-.088-.053a.213.213 0 00-.089-.013l-.18.045-.025.002c.015-.042.042-.09.036-.135-.005-.062-.058-.103-.117-.106-.037-.002-.082-.005-.117.01-.026.012-.051.028-.076.042-.021.012-.056.004-.08.004-.12.002-.144.15-.143.258l-.167.017a.198.198 0 00-.085.049l-.22.308-.21.14-.104-.045c-.037-.016-.108 0-.135.03l-.396.443-.01.013-.14.21a.219.219 0 00-.019.086l.015.084-.102.12-.441.464-.01.011-.396.536-.011.02s-.172.354-.19.47v.003c0 .002 0 .001 0 0v.003c-.005.025-.031.09-.062.163-.053.129-.117.284-.133.406-.021.176-.132.564-.132.565l-.003.012c0 .001-.071.403-.071.536v.002c0 .06-.003.138-.006.21-.003.07-.005.13-.005.166 0 .048-.012.197-.012.197l-.01.122a.158.158 0 00.054.11l.169.107.105.068.084.123v.002l.126.178.083.132-.015.303v.01l.008.348.008.038.062.17a.424.424 0 00.021.035l.076.09.031.225v.002l.045.303v.003l.116.689.002.01.063.241.003.01.053.152.006.014.059.117.068.222.006.016.089.187.107.232.005.011.116.196.002.002.112.182.17.313.01.017.16.203.178.242.196.26.017.018.143.125c.002.002.031.02.034.02l.26.105.106.053a.237.237 0 00.076.01l.134-.027a.24.24 0 00.07-.042l.07-.09a.296.296 0 00.024-.053l.033-.178.037-.076a.34.34 0 00.013-.053v-.153l-.01-.107v-.048a.25.25 0 00.05-.05s.022-.055.022-.178a.271.271 0 00-.127-.223l-.007-.02v-.21l.031-.023.115-.082.112-.048.02-.011.107-.072a.193.193 0 00.052-.084l.017-.153a.424.424 0 00-.002-.041l-.06-.235v-.12a.773.773 0 00-.003-.031l-.062-.24-.054-.222a.333.333 0 00-.021-.046l-.1-.128v-.084l.04-.115.115-.156.005-.008.111-.18.222-.256.23-.222.206-.137a.377.377 0 00.027-.025l.25-.313.007-.01.152-.242.014-.03.072-.251.004-.026.009-.152c.004-.063-.056-.126-.12-.126h-.141a.403.403 0 00-.047.01l-.16.07-.116-.044a.257.257 0 00-.07-.005l-.225.05-.005-.044a.131.131 0 00-.068-.094v-.009h.28a.516.516 0 00.026-.003l.197-.045h.003l.241-.063.01-.003.224-.08.022-.012.177-.11.283-.103a.417.417 0 00.034-.02l.286-.232.01-.008.294-.295a.494.494 0 00.027-.042l.053-.143a.179.179 0 00-.013-.109l-.116-.17a.338.338 0 00-.034-.033l-.268-.17a.295.295 0 00-.063-.018h-.143a.17.17 0 00-.1.055l-.026.04-.124-.004-.076-.063-.01-.008-.13-.086-.03-.08.017-.19a.207.207 0 00-.03-.087l-.065-.077.032-.11.016-.026.657.283a.162.162 0 00.12-.016l1.169-.902.003-.004.091-.075.015.01a.297.297 0 00.06.022l.277.018a.206.206 0 00.088-.03l.125-.114.02.073c.01.044.072.09.117.089l.294-.01c.054-.001.113-.057.116-.11l.01-.135a.205.205 0 00-.028-.083l-.056-.068.006-.049.154-.01a.779.779 0 00.037-.01l.151-.063.01-.004.206-.107c.009-.004 4.05-.939 4.053-.934zm-9.387 1.596a.213.213 0 00-.085-.024l-.172.017-.1-.116a.333.333 0 00-.023-.022l-.14-.093a.28.28 0 00-.066-.02h-.257a.208.208 0 00-.084.034l-.032.033-.022-.021v-.23a.192.192 0 00-.041-.09l-.122-.105v-.16l.077-.021c.035-.01.082-.065.085-.101l.024-.21a.146.146 0 00-.07-.122l-.21-.093a.421.421 0 00-.04-.01l-.096-.007.161-.196.321-.129.009-.004.301-.15h.206a.846.846 0 00.025-.004l.082-.018.007.07v.16l.001.01.017.19-.107.076a.187.187 0 00-.05.089l-.024.35a.125.125 0 00.119.126h.116c.04 0 .098-.041.112-.078l.078-.215.083-.047.031.039c.007.008.02.01.03.015l-.125.166a.248.248 0 00-.024.071v.21c0 .04.042.1.08.112l.36.128.051.07-.056.098-.005.011-.082.185-.143.123a.422.422 0 00-.02.023l-.01.012-.17-.132zm.428 2.18a.317.317 0 00-.027-.043l-.086-.087-.05-.154-.008-.314a.261.261 0 00-.022-.066l-.094-.13v-.255l.044-.424v-.003l.014.027.008.188.008.038.102.262.015.159-.018.335a.19.19 0 00.04.093l.075.07.044.124.007.016.056.105-.008.247v.093l-.1-.28zm.864-3.231h-.14l-.128-.164a.187.187 0 00-.094-.046h-.257c-.037 0-.096.04-.11.074l-.016.042h-.166l.058-.041a.429.429 0 00.028-.028l.1-.138.16-.08a.152.152 0 00.065-.119l-.002-.011a.128.128 0 00.111-.09l.02.034c.014.022.07.057.097.058l.117.005a.118.118 0 00.006.137l.093.116a.23.23 0 00.073.043l.054.01.011.076.012.101-.092.02zm.184-2.088l-.126.126-.33.154a.118.118 0 00-.043.046l-.105-.062.07.007a.154.154 0 00.114-.058l.129-.22h.142c.01 0 .058-.015.065-.02l.073-.048a.118.118 0 00.026.065.062.062 0 00-.015.01zm8.488 1.327a.3.3 0 01-.008-.058l.014-.104c.007-.058.072-.11.13-.104l.118.013c.052.006.106.065.106.118v.045c.042.017.082.078.077.124l-.013.13c-.005.047-.06.101-.106.106l-.13.013c-.056.006-.12-.044-.13-.098l-.01-.066-.048-.119zm.431.763l.209-.157c.076-.057.19 0 .19.095v.164l.025.214a.157.157 0 01-.052.112l-.117.079a.122.122 0 01-.14-.008l-.007.03c-.008.03-.057.079-.09.086l-.117.026a.12.12 0 01-.142-.132l.01-.082v-.124c0-.053.055-.112.108-.117l.049-.005.03-.116a.249.249 0 01.044-.065zm-4.706 4.712c.032.063.09.13.099.202.006.057-.034.096-.065.137-.036.048-.066.099-.133.099-.05 0-.102-.009-.152-.012a.147.147 0 01-.07-.022c-.064-.042-.057-.125-.063-.192-.008-.082.027-.157.039-.237.009-.064.009-.133.072-.168a.122.122 0 01.135.015c.025.02.056.04.077.064.028.032.043.077.061.114zm3.352 2.037l-.248-.092a.194.194 0 01-.071-.072l-.06-.167-.044-.059-.16-.053a.551.551 0 01-.037-.02l-.248-.196a.312.312 0 01-.037-.048l-.115-.282L23 29.94l-.15-.115a.467.467 0 01-.019-.018l-.065-.078a.167.167 0 01-.021-.113l.052-.157c.018-.054.09-.093.145-.077l.091.026c.05.014.093.08.085.13l-.004.029.063.056.19.127.01.006.129.106.15.059a.34.34 0 01.037.021l.105.092c.005.005.03.041.033.048l.038.105.11.07a.21.21 0 01.054.081l.027.165.088.03c.028.008.073.058.079.086l.02.089.012.014h.133l.237-.037a.242.242 0 01.07.01l.184.092.124.062.16-.02c.067-.01.134.05.134.116v.105a.124.124 0 01-.133.118l-.098-.013-.196-.012-.006-.002-.086-.01-.177.035a.5.5 0 01-.023.003h-.392a.42.42 0 01-.042-.008zm.868-2.297l.115-.05.11-.062a.121.121 0 01.176.09l.026.222v.449l.025.13.002.022v.006c.004-.042.044-.096.084-.108l.183-.052.032-.004h.118a.12.12 0 01.108.166l-.052.118a.172.172 0 01-.087.068l-.036.007.002.022v.12l.014.17v.1c0 .043-.045.103-.087.115l-.235.065c-.05.013-.12-.021-.14-.068l-.038-.087-.062-.11-.002-.01-.01.019-.102.229a.16.16 0 01-.104.07l-.287.013-.032-.003-.222-.052a.232.232 0 01-.07-.047l-.092-.131a.392.392 0 01-.02-.051l-.012-.083-.049-.16a.25.25 0 010-.072l.066-.196a.33.33 0 01.036-.054l.17-.143.18-.157.108-.18.018-.023.086-.085.01-.114a.162.162 0 01.07-.099zm2.622.638l-.013.209-.014.388a.316.316 0 01-.014.053l-.079.144a.19.19 0 01-.08.06l-.247.052a.959.959 0 01-.025.002h-.221c-.057 0-.117-.056-.12-.113l-.008-.21-.082-.02a.492.492 0 01-.04-.016l-.117-.078a.412.412 0 01-.028-.028l-.08-.104a.23.23 0 01-.023-.08l.013-.183v-.109c0-.06.06-.119.119-.119h.325l.218-.06a.235.235 0 01.068.001l.187.062.16.025c.053.008.104.07.1.124zm-.366 1.031l.026.444c0 .01-.01.056-.015.064l-.051.094-.012.157c0 .005-.01.041-.013.045l-.052.106v.128a.35.35 0 01-.01.055 8.155 8.155 0 01-1.366 2.078l-.004.005.003-.005.004-.004-.004.004a.211.211 0 01-.031.026l-.09.049a.159.159 0 01-.123-.006l-.118-.078a.26.26 0 01-.046-.062l-.032-.095-.008-.002-.15.05-.158.102-.148.149a.255.255 0 01-.064.032l-.211.038-.357.127a.12.12 0 01-.154-.144l.053-.183a.248.248 0 01.04-.06l.08-.065-.02-.197v-.007l-.013-.34a.201.201 0 01.028-.08l.313-.366.004-.004.183-.196c.035-.038.113-.046.154-.017 0 0 .032.03.484-.477a9.844 9.844 0 011.138-1.072.12.12 0 01.19.073l.015.086a.128.128 0 01.07-.006l.014-.027.075-.285a.323.323 0 01.027-.05l.143-.158c.068-.073.2-.027.206.074zm-3.076-2.922l-.069-.012c-.042-.007-.093-.061-.098-.103l-.023-.195a.187.187 0 01.034-.097l.092-.092c.038-.038.118-.042.16-.007l.069.057c.037.031.05.107.027.149l-.044.079-.01.114a.126.126 0 01-.138.107zm1.363-.143l-.01.117.017.032.057.012a.2.2 0 01.08.057l.046.08a.12.12 0 01-.103.178h-.058a.335.335 0 01-.02-.002l-.126-.023a.228.228 0 01-.072-.042l-.032-.04-.06-.035a.163.163 0 01-.06-.103v-.446c0-.116.198-.146.232-.035l.037.12.037.037a.187.187 0 01.035.093zm.374.744l.014.064.05.043c.009.007.036.05.039.061l.034.137.004.03v.114c0 .04-.044.1-.082.113l-.103.034a.224.224 0 01-.081-.003l-.114-.046a.304.304 0 01-.047-.033l-.068-.08a.169.169 0 01-.024-.11l.035-.115a.111.111 0 01.09-.077l.02-.126c.02-.112.208-.118.233-.006zm-9.227 3.613c.019.03.018.1-.001.129l-.036.053.025.07a.46.46 0 01.008.04v.217a.297.297 0 01-.017.06l-.066.112-.01.145v.255c0 .01-.014.058-.019.066l-.06.091-.053.147c-.017.048-.086.087-.137.075l-.103-.023a.336.336 0 01-.053-.027l-.104-.091-.012-.013-.092-.113-.054-.035a.173.173 0 01-.053-.1v-.194a.21.21 0 01.035-.084l.034-.034-.03-.009a.165.165 0 01-.08-.084l-.046-.17a.27.27 0 01.003-.073l.057-.149a.53.53 0 01.024-.038l.126-.137.01-.01.08-.069.017-.011.157-.095.128-.128a.123.123 0 01.181.016l.08.114.004.006.057.091zm.063-10.953l.317-.125.213-.1a.553.553 0 01.045-.012l.241-.01.216-.055.026-.008a.12.12 0 01.118-.11h.22a.697.697 0 01.191-.046h.236l.135-.068a.4.4 0 01.049-.012l.285-.012h.211c.113 0 .153.175.053.225l-.224.112-.144.09a.644.644 0 01-.03.012l-.194.057-.016.004-.24.034-.017.002h-.168c-.003.063-.067.12-.131.113l-.193-.021-.284.033h-.02l-.184-.011h-.149l-.105.079a.305.305 0 01-.06.023l-.343.034c-.115.012-.162-.186-.055-.228z" fill="url(#paint1_linear)"/><path d="M25.315 24.76l-.065-.145a.287.287 0 00-.046-.052l-.169-.104-.163-.115.01-.177.037-.214a.275.275 0 00-.008-.065l-.156-.379-.004-.008-.287-.574a.207.207 0 00-.07-.06l-.874-.287a.319.319 0 00-.061-.004l-.744.157a.175.175 0 00-.085.07l-.165.384h-.967a.369.369 0 00-.052.012l-.536.261-.02.013-.757.588-.012.01-.53.529-1.33.448a.332.332 0 00-.052.034l-.287.326-.007.01-.283.399-.296.32-.01.013-.156.222a.157.157 0 00-.007.125l.078.143c.035.063.127.08.181.034l.054-.047.074.006.007.011a.12.12 0 00.039.034l-.003.025a.126.126 0 00.113.13l.29.013.233.061a.89.89 0 00.028.004l.601.013h.002c.019 0 .013.062.037.108.01.02.02.038.032.056v.001a.73.73 0 01.015.062c.029.125.067.287.232.32h.002c.036.007.081.012.126.019.064.007.111-.058.119-.021 0 .003 0 .002 0 0-.001-.006-.003-.019 0-.001v.003l.01.048.018.077c.036.151.098.394.146.53l.033.088.038.102c.068.178.153.392.193.482v.002c.014.03.029.069.045.111.067.174.155.403.286.403.123 0 .293-.233.293-.234l.01-.017.091-.196a.424.424 0 00.012-.05v-.26l.035-.142.002-.007.043-.228.235-.168.004-.002.274-.209.006-.005.308-.27.204-.14.013-.01.132-.121.03-.006.097.116.196.235.012.012.098.088.033.27c.009.07.088.12.155.098l.117-.04a.375.375 0 00.034-.018l.1-.074.097.157.06.267.015.036.087.14v.308l-.043.06c-.024.035-.023.109.003.142l.13.17.014.014.14.129.032.232a.3.3 0 00.028.06l.156.183a.618.618 0 00.03.025l.195.117a.12.12 0 00.179-.113l-.026-.248a.32.32 0 00-.017-.05l-.13-.21-.021-.024-.183-.17a.799.799 0 00-.024-.017l-.105-.057-.041-.109v-.32a.13.13 0 00.065-.095l.003-.058.153.098v.001l.109.07.051.154a.122.122 0 00.184.059l.196-.144a.499.499 0 00.033-.038l.196-.353a.251.251 0 00.014-.07l-.026-.223a.365.365 0 00-.017-.048l-.13-.21a1.672 1.672 0 00-.02-.023l-.212-.199-.072-.108.016-.1.08-.13.152-.109.316-.139a.365.365 0 00.04-.029l.114-.125.329-.146a.642.642 0 00.03-.02l.118-.104a.186.186 0 00.04-.096l-.013-.222v-.299l-.013-.274a.277.277 0 00-.023-.065l-.14-.191-.157-.236a.421.421 0 00-.033-.032l-.183-.122-.254-.298.015-.098.065-.13.192-.008.15.103.156.313a.384.384 0 00.032.04l.13.104a.37.37 0 00.031.017l.13.053a.122.122 0 00.163-.104l.014-.208a.31.31 0 00-.011-.057z" fill="url(#paint2_linear)"/><path d="M17.466 26.367h-.298l-.12-.15-.21-.255-.149.03-.09-.074.03-.15-.911-.629.045-.509 1.18.03 1.181-.284 3.438-3.385.687-.179s1.36-1.123 2.018-1.333L24.85 19l-.508.539s-1.226 1.842-5.71 5.795l-.03.21" fill="#ED1C24"/><path opacity=".7" d="M10.454 35.213c.94.483 2.75-.493 3.545-1.048l-.188-.193c-2.676 1.38-2.793.552-2.874.552-.935-1.994 3.536-6.3 5.888-8.204l-.441-.199c-6.02 4.698-7.106 8.488-5.93 9.092z" fill="url(#paint3_linear)"/><path opacity=".7" d="M29.445 23.38c.333 1.004-.967 2.712-1.638 3.41l-.122-.386c1.45-2.032 1.13-2.512 1.005-2.653-1.567-1.071-5.74 2.163-8.154 3.596 5.133-4.647 8.494-5.221 8.91-3.967z" fill="url(#paint4_linear)"/><defs><linearGradient id="paint0_linear" x1="20.015" y1="20" x2="20.015" y2="37" gradientUnits="userSpaceOnUse"><stop stop-color="#0097DB"/><stop offset=".495" stop-color="#fff"/><stop offset="1" stop-color="#0097DB"/></linearGradient><linearGradient id="paint1_linear" x1="19.722" y1="20.315" x2="19.722" y2="34.042" gradientUnits="userSpaceOnUse"><stop stop-color="#FEE803"/><stop offset="1" stop-color="#E1443C"/></linearGradient><linearGradient id="paint2_linear" x1="21.239" y1="22.576" x2="21.239" y2="29.993" gradientUnits="userSpaceOnUse"><stop stop-color="#F9CB0D"/><stop offset="1" stop-color="#EA782A"/></linearGradient><linearGradient id="paint3_linear" x1="16.66" y1="26.264" x2="10.469" y2="35.342" gradientUnits="userSpaceOnUse"><stop stop-color="#FEF26F"/><stop offset="1" stop-color="#E14D4D"/></linearGradient><linearGradient id="paint4_linear" x1="19.646" y1="28.131" x2="29.57" y2="23.415" gradientUnits="userSpaceOnUse"><stop stop-color="#FEF26F"/><stop offset="1" stop-color="#E14D4D"/></linearGradient></defs></svg>