<!-- by TradingView --><svg xmlns="http://www.w3.org/2000/svg" width="56" height="56"><path fill="#F0F3FA" d="M0 0h56v56H0z"/><path d="M11.5 24H9v2H8v-5h1v2h2.5v-2h1v5h-1v-2zm7 2h-1.16l-.4-1h-1.98l-.4 1H13.5l2-5h1l2 5zm-3.24-2h1.49L16 22l-.74 2zM20 21h2.1c1.31 0 1.9.92 1.9 1.84.01.68-.62 1.36-1.29 1.53L24 26h-1.2l-1.2-1.5H21V26h-1v-5zm1 1v1.5h1c.62 0 1-.25 1-.73s-.38-.77-1-.77h-1zm5-1h2.15c1.12 0 1.85.82 1.85 1.78 0 .96-.76 1.72-1.88 1.72H27V26h-1v-5zm1 1v1.5h1.06c.66 0 .95-.24.94-.72 0-.48-.28-.78-.94-.78H27zm17.5.68V26h-1v-5h1l2.5 3.36V21h1v5h-1l-2.5-3.32z" fill="#231F20"/><path d="M9.31 28.44V31h-.45v-2.56H8V28h2.17v.44h-.86zm2.6-.44h.44v1.41a.79.79 0 01.29-.3.71.71 0 01.39-.11c.42 0 .78.32.78.95V31h-.44v-.88c0-.47-.22-.67-.48-.67-.27 0-.54.2-.54.68V31h-.44v-3zm4.17 2.06c.01.16.08.3.2.41.13.1.29.16.45.15a.74.74 0 00.6-.27l.25.23a1.03 1.03 0 01-.88.42 1.03 1.03 0 01-.74-.28.98.98 0 01-.23-1.1 1 1 0 01.57-.55 1.06 1.06 0 011.09.2.94.94 0 01.29.66l-.02.13h-1.58zm0-.27h1.17a.54.54 0 00-.18-.33.57.57 0 00-.37-.13.61.61 0 00-.4.12.58.58 0 00-.21.33l-.01.01zm3.42-.75h.38l.03.42a.8.8 0 01.32-.35c.14-.08.3-.12.47-.1v.42h-.08c-.42 0-.68.23-.68.74V31h-.44v-1.96zm4.2.96v-.13a.47.47 0 00-.31-.49.48.48 0 00-.2-.03.83.83 0 00-.53.17l-.18-.27c.22-.17.5-.26.77-.25a.8.8 0 01.82.53c.04.1.06.23.04.34v1.1h-.32l-.04-.2a.87.87 0 01-.63.23c-.48 0-.76-.26-.76-.6 0-.33.3-.58.77-.58.2 0 .4.05.57.17zm.01.4c0-.17-.17-.32-.47-.32-.31 0-.46.15-.46.33 0 .17.17.31.46.31.28 0 .47-.14.47-.31zm2.37-1.36h.35l.04.35a.83.83 0 01.72-.39.98.98 0 01.96 1.01 1 1 0 01-.97 1.03.82.82 0 01-.68-.34v.92h-.42v-2.58zm1.66.98a.63.63 0 10-.18.47.62.62 0 00.17-.46h.01zm2.63.04a.6.6 0 00.63.56.7.7 0 00.57-.27l.25.23a1 1 0 01-.85.42.97.97 0 01-1.01-.99 1 1 0 011.37-.94.93.93 0 01.58.87.4.4 0 01-.02.12h-1.52zm0-.27h1.14a.54.54 0 00-.54-.46.58.58 0 00-.6.45v.01zm4.87-.79h.45v2h-.4l-.02-.38a.8.8 0 01-.7.38c-.44 0-.79-.28-.79-.85V29h.44v1.02c0 .42.22.6.48.6.27 0 .54-.19.54-.64V29zm3.01-.03h.71v.35h-.7v.97c0 .23.1.34.3.34.11 0 .23-.02.35-.05l.05.36c-.16.07-.33.1-.5.1a.57.57 0 01-.64-.65v-1.07h-.4v-.35h.4v-.5h.43v.5zm3.01-.57a.29.29 0 11-.57 0 .29.29 0 01.57 0zm-.5.6h.44v2h-.45v-2zm4.07 1.65a1.02 1.02 0 01-1.8-.64A1 1 0 0144.08 29a.97.97 0 01.74.32l-.27.27a.6.6 0 00-.46-.21.62.62 0 100 1.24.58.58 0 00.48-.23l.27.26zm3.17-.24c0 .33-.27.59-.74.59-.27 0-.53-.1-.74-.27l.18-.27c.16.13.36.2.57.21.21 0 .32-.1.32-.23 0-.12-.06-.23-.45-.34-.34-.1-.54-.3-.54-.56 0-.26.24-.54.7-.54.24 0 .48.08.67.22l-.18.27a.77.77 0 00-.48-.18c-.2 0-.3.1-.3.2s.06.22.39.3c.4.13.6.33.6.6z"/><path d="M32.1 33H8c4.08 2.22 3.62 7 3.62 7l20.48-7z" fill="#9ED0F7"/><path d="M41.29 33h-24.1c4.08 2.22 3.62 7 3.62 7l20.48-7z" fill="#0080D8"/><path d="M50 33H25.9c4.1 2.22 3.62 7 3.62 7L50 33z" fill="#193A8C"/><path fill-rule="evenodd" d="M33.5 25a1.5 1.5 0 100-3 1.5 1.5 0 000 3zm0 1a2.5 2.5 0 100-5 2.5 2.5 0 000 5zm6-1a1.5 1.5 0 100-3 1.5 1.5 0 000 3zm0 1a2.5 2.5 0 100-5 2.5 2.5 0 000 5z" fill="#231F20"/></svg>