<!-- by TradingView --><svg xmlns="http://www.w3.org/2000/svg" width="56" height="56"><path fill="#F0F3FA" d="M0 0h56v56H0z"/><path d="M43 13H13v30h30V13z" fill="url(#auvzhzzpv)"/><path d="M14 28a14 14 0 1128 0 14 14 0 01-28 0z" fill="url(#buvzhzzpv)"/><path d="M15 28a13 13 0 1126 0 13 13 0 01-26 0z" fill="#0087C9"/><path d="M40.8 28.3c-.2.05-.38.06-.58.06-.6.01-1.18-.18-1.65-.55l-.36-.31-.37.3c-.47.38-1.05.57-1.65.56-.6.01-1.19-.18-1.66-.55l-.36-.31-.37.3c-.47.38-1.05.57-1.65.56-.6.01-1.18-.18-1.65-.55l-.37-.31-.36.3c-.47.38-1.06.57-1.66.56-.6.01-1.18-.18-1.65-.55l-.36-.31-.37.3c-.47.38-1.05.57-1.65.56-.6.01-1.19-.18-1.66-.55l-.36-.31-.37.3c-.47.38-1.05.57-1.65.56-.6.01-1.18-.18-1.65-.55l-.37-.31-.36.3c-.47.38-1.06.57-1.66.56-.27 0-.54-.03-.8-.1.27.22-.33-.1 0 0 0 0 .17 6.7 5.83 10.4 5.26 3.44 11.55 2.88 16-1.55 3.55-3.51 3.77-8.8 3.77-8.8z" fill="url(#cuvzhzzpv)"/><path d="M21 20.6h5.53v5.66H30V20.6h5.47v15.9H30V31h-3.32v5.5H21V20.6z" fill="#2F2F2F"/><path style="mix-blend-mode:multiply" opacity=".6" d="M13 43s11.79-1.17 30 0H13z" fill="url(#duvzhzzpv)"/><path style="mix-blend-mode:multiply" opacity=".4" d="M13 13.04s11.79 1.16 30 0H13z" fill="url(#euvzhzzpv)"/><path d="M21 20h5v6h4v-6h5v16h-5v-6h-4v6h-5V20z" fill="#F0F3FA"/><path d="M25.83 30.4v5.19h-4.39a.5.5 0 00-.27.14.57.57 0 00-.17.27h5.24v-5.53h3.8a.88.88 0 00-.02-.24.4.4 0 00-.38-.26h-3.4a.42.42 0 00-.3.13.43.43 0 00-.11.3zm8.76-9.93v15.11H30.4c-.11 0-.2.06-.28.13A.46.46 0 0030 36h5V20s-.42.07-.41.47z" fill="#B9BABF"/><path fill-rule="evenodd" d="M38.4 34.95a12.5 12.5 0 10-20.8-13.9 12.5 12.5 0 0020.8 13.9zm.4.27a13 13 0 10-21.6-14.44 13 13 0 0021.6 14.44z"/><path d="M34.61 27.88l-.28-.32-.37.32c-.48.38-1.07.58-1.68.56a2.6 2.6 0 01-1.68-.56l-.37-.32-.37.32c-.48.38-1.07.58-1.68.56-.6.01-1.2-.18-1.67-.56l-.37-.32-.37.32a2.6 2.6 0 01-1.68.56 2.6 2.6 0 01-1.68-.56l-.37-.32-.37.32c-.2.16-.43.25-.67.34v7.36h4.83V30.5c0-.28.22-.5.5-.5h3.17c.28 0 .5.22.5.5v5.08h4.61v-7.7z" fill="url(#fuvzhzzpv)"/><path d="M26 20a.65.65 0 00-.29.23.74.74 0 00-.12.37V26H26v-6z" fill="#B9BABF"/><defs><linearGradient id="auvzhzzpv" x1="12.9" y1="28" x2="42.74" y2="28" gradientUnits="userSpaceOnUse"><stop offset=".01" stop-color="#77787B"/><stop offset=".06" stop-color="#B3B5B8"/><stop offset=".17" stop-color="#D4D6D7"/><stop offset=".2" stop-color="#DCDDDE"/><stop offset=".51" stop-color="#fff"/><stop offset=".82" stop-color="#DCDDDE"/><stop offset=".95" stop-color="#B3B5B8"/><stop offset="1" stop-color="#77787B"/></linearGradient><linearGradient id="buvzhzzpv" x1="28" y1="42" x2="28" y2="13.93" gradientUnits="userSpaceOnUse"><stop stop-color="#fff"/><stop offset=".12" stop-color="#F9F9F9"/><stop offset=".29" stop-color="#E9E9EA"/><stop offset=".47" stop-color="#CECFCF"/><stop offset=".66" stop-color="#A9AAAB"/><stop offset=".87" stop-color="#7A7B7C"/><stop offset="1" stop-color="#58595B"/></linearGradient><linearGradient id="cuvzhzzpv" x1="28.12" y1="27.5" x2="28.12" y2="42.29" gradientUnits="userSpaceOnUse"><stop stop-color="#00416E"/><stop offset=".52" stop-color="#048BCD"/><stop offset=".93" stop-color="#025A8C"/></linearGradient><linearGradient id="duvzhzzpv" x1="13" y1="42.74" x2="43" y2="42.74" gradientUnits="userSpaceOnUse"><stop offset=".01" stop-color="#242021"/><stop offset=".18" stop-color="#5C5A5C"/><stop offset=".33" stop-color="#858588"/><stop offset=".44" stop-color="#9E9FA2"/><stop offset=".51" stop-color="#A7A9AC"/><stop offset=".58" stop-color="#9B9DA0"/><stop offset=".7" stop-color="#7D7D7F"/><stop offset=".88" stop-color="#4B494A"/><stop offset="1" stop-color="#231F20"/></linearGradient><linearGradient id="euvzhzzpv" x1="13" y1="13.29" x2="43" y2="13.29" gradientUnits="userSpaceOnUse"><stop offset=".01" stop-color="#231F20"/><stop offset=".08" stop-color="#413E3F"/><stop offset=".22" stop-color="#7A797A"/><stop offset=".35" stop-color="#A4A4A6"/><stop offset=".45" stop-color="#BDBEC0"/><stop offset=".51" stop-color="#C7C8CA"/><stop offset=".57" stop-color="#BBBCBE"/><stop offset=".68" stop-color="#9C9B9D"/><stop offset=".82" stop-color="#686768"/><stop offset="1" stop-color="#231F20"/></linearGradient><linearGradient id="fuvzhzzpv" x1="28.19" y1="27.56" x2="28.19" y2="42.6" gradientUnits="userSpaceOnUse"><stop stop-color="#9CC1E5"/><stop offset=".48" stop-color="#fff"/></linearGradient></defs></svg>