<!-- by TradingView --><svg width="56" height="56" xmlns="http://www.w3.org/2000/svg"><path fill="#152128" d="M0 0h56v56H0z"/><path d="M17 29.686c.597 0 1-.512 1-1.433V24h-2v4.253c0 .92.212 1.433 1 1.433z" fill="#EE3524"/><path d="M33.543 30c.462 0 .675-.157.675-.5 0-.33-.214-.5-.675-.5H32v1h1.543zm-.52-3c.45 0 .652-.17.652-.5 0-.317-.202-.5-.651-.5H32v1h1.023zM29 24l4.47.005c1.878 0 2.93.695 2.93 2.205 0 .742-.367 1.297-1.005 1.627 1.04.272 1.644.897 1.644 1.97 0 1.38-1.1 2.217-3.026 2.217L29 32v-8zm11.684 5h1.763l-.881-2.449-.882 2.45zm-.656-4.996h3.075L46 32h-2.626l-.39-1h-2.849l-.402 1h-2.624l2.92-7.996zM53 24h-2.964L48.5 26.5 47 24h-3l3 4.918V32h3v-3.09L53 24zm-40 4.497v-4.493L10 24v3H8v-2.996l-3 .004V32h3v-3h2v3h5.804C14.044 31.594 13 30.27 13 28.497zM24.588 30H24v-4h.833c.959 0 1.167.867 1.167 2 0 1.108-.454 2-1.412 2zm.095-5.996H21v4.493c0 1.645-1.123 3.065-2.897 3.503h6.604c2.376 0 3.793-1.417 3.793-4 0-2.607-1.441-3.984-3.817-3.996z" fill="#fff"/></svg>