<!-- by TradingView --><svg xmlns="http://www.w3.org/2000/svg" width="56" height="56"><path fill="#F0F3FA" d="M0 0h56v56H0z"/><path d="M27.2 17.68l1.66-.68C16.24 17 4 21.9 4 27.97 4 34.05 12.94 38.8 27.16 39l1.67-.64C15.15 38.12 6 33 6 27.92c0-5.76 9.36-10.51 21.2-10.25z" fill="#9D150E"/><path d="M28.81 38.36l-1.67.64C39.76 39 52 34.1 52 28.03 52 21.95 43.06 17.2 28.84 17l-1.65.67C40.87 17.91 50 23 50 28.07c0 5.77-9.34 10.56-21.19 10.3z" fill="#252262"/><path d="M35.7 22.75h-.34c-.05.36-.38.98-1.3.54a6.5 6.5 0 00-2.43-.54c-1.88 0-5.56 1.32-5.63 5.29-.03 1.7 1.04 5.15 5.8 5.2.97.01 2.72-.34 3.73-1.68v-.86a4.67 4.67 0 01-3.3 1.78c-2.01.07-3.73-1.32-3.73-4.44 0-3.51 2.23-4.62 3.52-4.6 1.28.02 2.63.6 3.34 2.56h.34v-3.25zM19 23h-5.5v.34h.67c.73.08.83.66.83 1.02v7.33c0 .77-.56.94-.83.95h-.67V33H19v-.36h-.64c-.73-.04-.86-.56-.86-.95v-3.34h4v3.34c0 .77-.6.94-.87.95H20V33h5.5v-.36h-.6c-.73-.04-.9-.56-.9-.95v-7.33a1 1 0 01.9-1.02h.6V23H20v.34h.63c.75.08.87.66.87 1.02v3.27h-4v-3.27c0-.73.58-1.02.86-1.02H19V23zm17.55 0H42v.34h-.57c-.28 0-.93.29-.93 1.02v7.33c0 .4.2.91.93.95H42V33h-5.45v-.36h.64c.28 0 .81-.18.81-.95v-7.33c0-.36-.06-.94-.8-1.02h-.65V23z" fill="#252262"/></svg>