<!-- by TradingView --><svg width="56" height="56" fill="none" xmlns="http://www.w3.org/2000/svg"><path fill="#F4CF3D" d="M0 0h56v56H0z"/><path d="M42 12H14v19.403C15.171 40.43 23.822 46.229 28 48c10.919-5.54 13.883-13.373 14-16.597V12z" fill="#007940"/><path d="M40.5 13.5h-25v17.74c1.048 8.263 8.763 13.639 12.5 15.26 9.766-5.072 12.395-12.31 12.5-15.26V13.5z" stroke="#F4CF3D"/><path d="M19.041 16.472L17.867 15l-.068.454h-.284v.317h-.49l1.312 1.43.546.045 2.327 2.762-.533.063L23 22l-1.549-2.66-.097.505-2.313-2.733v-.64zm15.992-.005l-1.177-1.47-.069.453h-.284v.317h-.492l1.316 1.43.547.044 2.333 2.761-.534.063 2.329 1.929-1.553-2.659-.097.504-2.319-2.732v-.64zm-8.006 21.732l-1.178-1.418-.069.438h-.284v.305h-.492l1.316 1.378.547.042 2.334 2.66-.535.06 2.33 1.859-1.553-2.562-.098.486-2.318-2.632v-.616z" fill="#F4CF3D"/><path d="M20.962 16.472L22.136 15l.07.454h.283v.317h.49l-1.312 1.43-.546.045-2.327 2.762.533.063L17.004 22l1.548-2.66.098.505 2.312-2.733v-.64zm16.006-.005l1.177-1.47.07.453h.284v.317h.492l-1.316 1.43-.547.044-2.333 2.761.534.063L33 21.994l1.553-2.659.097.504 2.318-2.732v-.64zm-7.995 21.732l1.177-1.418.07.438h.284v.305h.492l-1.316 1.378-.548.042-2.333 2.66.534.06-2.33 1.859 1.554-2.562.098.486 2.318-2.632v-.616z" fill="#F4CF3D"/><path fill-rule="evenodd" d="M25.77 21.862c.07 1.03-1.402 2.276-2.146 2.77l-.626.072-.423.337a41.98 41.98 0 01-1.311.156c-.1 0-.288.175-.275.362a.835.835 0 010 .074c-.007.208-.017.554.9.713.83.145 1.13.738 1.178 1.017-.047 1.195.648 2.017 1.002 2.28 0 .298.138.464.206.51.338.173.141.42 0 .52-.471.305-1.466 1.068-1.675 1.68-.196.577-.639 1.16-.918 1.525-.091.12-.165.218-.206.283-.134.212-.108.818-.078 1.094.514-.245.86-.597.97-.742.051-.422.176-.872.232-1.044-.055-.657 2.813-2.396 3.442-2.423.503-.023.468.41.388.629-.083.24-.252.781-.259 1.027a.74.74 0 00.194.508l1.934 1.532h.461v.513l.87-.452.08-.407c1.222-1.008 2.228-1.51 2.793-1.792a4.85 4.85 0 00.395-.21c.28-.18.116-.49 0-.621-.117-.124-.35-.475-.35-.882 0-.407.193-.697.29-.792.42.624 1.739 1.023 2.353 1.084.613.061 1.165.695 1.85 2.06.549 1.093 1.129 1.454 1.35 1.499v-.634l-.45-.447v-.417c-.772-.307-1.29-1.95-1.451-2.733-.096.015-.365-.031-.535-.06-.074-.012-.129-.022-.143-.022-.597-.317-.944-.916-1.043-1.176.023-1.268-.196-1.729-.265-1.874-.01-.022-.018-.036-.02-.046-.018-.07.044-.595.204-.817.16-.222.365-1.52-.115-1.333-.384.149-.9 1.035-1.11 1.459-.49-.345-2.223-.357-2.73-.126-.405.185-1.857.16-2.533.126-.432-.31-.909-.476-1.197-.476-.288 0-.61.143-.886.41-.222.212-.418.236-.488.221-.611-.062-.776-1.149-.781-1.684 2.282 0 3.267-.48 3.474-.72h-.643c.14-.074.454-.368.587-.953.123-.54.517-.67.773-.753a.616.616 0 00.202-.09c.116-.106.048-.154 0-.166h-.686c0-.141.457-.391.686-.498h-.354c0-.168.42-.358.631-.432.048-.107.102-.297-.066-.2a.623.623 0 01-.41.078c.037-.178.24-.315.427-.441.15-.102.292-.197.326-.301.063-.187-.025-.189-.077-.167-.159.133-.477.382-.477.31 0-.07.237-.376.355-.52.033-.133.064-.353-.078-.166-.141.186-.42.328-.543.376-.1-.21.108-.472.215-.608.023-.029.042-.052.051-.067.056-.09 0-.31-.144-.167-.115.116-.41.47-.543.632 0-.16.119-.488.178-.632-.018-.133-.126-.055-.177 0-.514.473-.817 2.216-.951 2.989l-.036.202c-.088.488-.534 1.03-.745 1.241-.358.632-1.969.663-1.975.572-.005-.073-.08-.19-.117-.239.416-.255 1.356-.467 1.774-.541.026-.09.04-.248-.111-.169-.15.08-.44.078-.565.067.129-.1.445-.443.676-1.02.227-.569.69-.73.93-.812a.618.618 0 00.133-.056c.089-.065.037-.135 0-.162-.248.054-.733.13-.687 0 .047-.13.478-.4.687-.52h-.388c.09-.133.344-.244.5-.31.154-.067.199-.311.066-.233-.107.062-.348.084-.455.088 0-.186.503-.572.754-.742.033-.089.08-.25 0-.189-.1.078-.654.255-.588.189l.021-.02c.093-.093.35-.347.4-.479.045-.115-.07-.1-.132-.077a1.145 1.145 0 01-.566.387c-.013-.247.116-.443.204-.578.058-.088.1-.151.073-.186-.053-.071-.132-.03-.166 0l-.565.598c0-.221.097-.532.222-.676.1-.115-.042-.112-.125-.096-.472.43-1.138 1.718-1.052 3.006zm-4.308 3.513c.2-.065.66-.185.889-.148.286.046-.315.204-.889.148zm1.277-.194c.139-.127.466-.348.666-.222.25.157-.287.277-.666.222zm.642 1.538c-.067-.1-.23-.041-.302 0 0 .21.134.369.201.369s.184-.243.1-.369zm.793-.395a3.852 3.852 0 01-.424.402v.154h.13v1.499c.132.103.452.457.68 1.05l.17-.116a15.77 15.77 0 00-.61-1.042v-1.422c.085-.149.215-.463.054-.525zm.72 2.845c.043-.054.147-.174.218-.213.09-.05.1.213-.218.213zm-.637-4.428c-.106.068-.314.278-.293.574.02.295.204-.26.293-.574zm.012.625c.06-.183.21-.577.332-.689.153-.14.14.344-.331.689zm-1.886 8.002c-.075.27-.278.859-.495 1.05-.036.108-.048.268.193.039s.302-.821.302-1.089zm1.332-1.435c.293-.193.92-.586 1.08-.62.2-.041-.686.57-1.08.62zm3.354.03c.02-.123.08-.397.162-.513.082-.116.153-.384.18-.504.064.06.17.244.067.504-.102.26-.316.45-.41.512zm4.489-3.862c-.183.188-.527.593-.44.71.108.147.44-.448.44-.71zm2.48-1.772c.09-.235.3-.717.43-.765.16-.06.234.18.194.335-.04.154-.369.356-.624.43zm.43.1c-.168.063-.52.262-.585.558-.064.295.363-.249.584-.558zm-6.223 7.637c.174.046.508.167.45.29-.057.122-.324-.143-.45-.29zm1.801-.217c.169-.217.651-.693 1.23-.86-.324.249-1.024.77-1.23.86zm-.944.42c-.063-.085-.284-.259-.425-.275a1.304 1.304 0 00-.051-.004c-.213-.014-.711-.048-1.64-.958v-.61c.247-.26.797-.885 1.032-1.293.387-.09 1.232-.301 1.517-.434h.816c.064-.145.275-.403.612-.28.051.284.28.953.79 1.351.077.119.108.417-.382.657-.612.3-2.295 1.226-2.27 1.846zm-2.604-14.575a.05.05 0 01.036.061c-.11.424-.366 1.528-.503 2.556l-.001.005c-.046.18-.22.618-.557.965a.05.05 0 01-.072-.07c.32-.33.487-.749.531-.917.139-1.031.394-2.139.505-2.564a.05.05 0 01.061-.036zm1.853.73a.05.05 0 10-.098-.024c-.132.54-.41 1.706-.464 2.04a7.724 7.724 0 00-.022.154c-.023.162-.046.329-.104.514-.077.244-.214.52-.491.845a.05.05 0 00.076.065c.285-.335.43-.623.51-.88.061-.194.086-.372.109-.535l.021-.148c.053-.328.33-1.49.463-2.031z" fill="#fff"/></svg>