<!-- by TradingView --><svg width="56" height="56" xmlns="http://www.w3.org/2000/svg"><path fill="#292775" d="M0 0h56v56H0z"/><path d="M19.2 37.472l.023.021h-.035l.011-.02zm-3.748-6.17a12.94 12.94 0 003.747 6.17 47.071 47.071 0 015.235-8.124 8.785 8.785 0 01-5.411-4.531A6.712 6.712 0 0119.834 18c-2.051 1.45-3.325 3.815-4.194 6.106a12.22 12.22 0 00-.188 7.195zM36.124 18a12.383 12.383 0 013.358 3.862 12.13 12.13 0 011.483 4.86c.216 3.35-.538 7.078-2.993 9.598-.421.435-.842.859-1.292 1.26-.243-.434-.48-.866-.718-1.297-.549-1-1.096-1.997-1.708-2.993a38.74 38.74 0 00-2.923-3.922 9.015 9.015 0 003.265-1.664 8.802 8.802 0 002.306-2.81 6.595 6.595 0 00.577-3.542 6.641 6.641 0 00-1.366-3.33l.011-.022zm-.242 19.947c.18.34.168.374-.133.575-.137.09-.253.173-.362.25-.132.094-.255.181-.398.272-.56.349-1.14.664-1.74.942a12.393 12.393 0 01-3.682.925 13.01 13.01 0 01-5.057-.401A12.934 12.934 0 0120 38.206a33.322 33.322 0 012.273-3.98 51.863 51.863 0 014.54-5.888c.129-.142.255-.285.382-.428.272-.308.543-.616.836-.91a45.705 45.705 0 014.407 5.17c.678.913 1.275 1.889 1.873 2.871.356.586.659 1.154.96 1.72.205.383.409.765.629 1.152l-.018.034z" fill="#fff"/><path d="M13.418 28.04a14.582 14.582 0 1029.164 0 14.582 14.582 0 00-29.163 0zM12 28a16 16 0 1132 0 16 16 0 01-32 0z" fill="#fff"/></svg>