<!-- by TradingView --><svg width="56" height="56" xmlns="http://www.w3.org/2000/svg"><path fill="#294480" d="M0 0h56v56H0z"/><path d="M24.998 23.762V35c-1.004 0-.993-.62-.998-.929v-9.609c0-3-.983-4.429-2.86-5.736-1.879-1.307-6.544-3.695-9.142-4.726 1.836.438 6.012 2.45 9.502 4.2 2.793 1.401 3.569 4.298 3.498 5.562zM31.002 32.238V21c1.004 0 .993.62.998.929v9.609c0 3 .983 4.429 2.86 5.736 1.879 1.307 6.544 3.695 9.142 4.726-1.836-.438-6.012-2.45-9.502-4.2-2.793-1.401-3.569-4.298-3.498-5.562z" fill="#fff"/><path d="M22.988 23.762V35c-1.004 0-.993-.62-.998-.929v-9.609c0-3-.983-4.429-2.861-5.736-1.878-1.307-6.543-3.695-9.14-4.726 1.835.438 6.01 2.45 9.501 4.2 2.793 1.401 3.569 4.298 3.498 5.562zM33.011 32.238V21c1.005 0 .994.62.999.929v9.609c0 3 .983 4.429 2.861 5.736 1.878 1.307 6.543 3.695 9.14 4.726-1.835-.438-6.01-2.45-9.501-4.2-2.793-1.401-3.569-4.298-3.498-5.562z" fill="#fff"/><path d="M20.996 23.762V35c-1.005 0-.994-.62-.999-.929v-9.609c0-3-.983-4.429-2.86-5.736-1.879-1.307-6.544-3.695-9.141-4.726 1.835.438 6.01 2.45 9.501 4.2 2.793 1.401 3.569 4.298 3.499 5.562zM35.004 32.238V21c1.005 0 .994.62.999.929v9.609c0 3 .983 4.429 2.86 5.736 1.879 1.307 6.544 3.695 9.141 4.726-1.835-.438-6.01-2.45-9.501-4.2-2.793-1.401-3.569-4.298-3.499-5.562zM26 26h4v4h-4v-4z" fill="#fff"/></svg>