<!-- by TradingView --><svg xmlns="http://www.w3.org/2000/svg" width="56" height="56"><path fill="url(#aldzj2pgw)" d="M0 0h56v56H0z"/><path d="M28 11l-14 4.7v17.19C14 39.55 28 46 28 46s14-6.45 14-13.11v-17.2L28 11zm-6.7 16.71l-4.17-4.78 1.5-1.23 2.44 2.8 1.18-.17-.41 1.1.9 1.1-1.45 1.18zm5.7 1.4V38h-2V27.54c0-.75-.26-1.5-.76-2.07l-4.49-4.73 1.5-1.19 4.48 4.74A5.03 5.03 0 0127 27.54v.39l.9.57-.9.61zm4-1.57V38h-2v-8.89l-.88-.61.88-.53v-.4c0-1.18.5-2.32 1.27-3.24l4.48-4.73 1.5 1.18-4.49 4.74a2.9 2.9 0 00-.76 2.02zm3.7.17l-1.49-1.23.9-1.1-.4-1.09 1.18.17 2.44-2.8 1.5 1.23-4.12 4.82z" fill="#fff"/><defs><linearGradient id="aldzj2pgw" x1="10.42" y1="9.71" x2="68.15" y2="76.02" gradientUnits="userSpaceOnUse"><stop stop-color="#1A1E21"/><stop offset="1" stop-color="#06060A"/></linearGradient></defs></svg>