<!-- by TradingView --><svg width="56" height="56" fill="none" xmlns="http://www.w3.org/2000/svg"><path fill="#F0F3FA" d="M0 0h56v56H0z"/><path d="M38 44v-2.805L31.403 46 38 44z" fill="url(#paint0_linear_3186)"/><path d="M30 29.216v-7.154l-4.5 3.133 4.5 4.02z" fill="url(#paint1_linear_3186)"/><path d="M30 37.444v-7.153l-4.5 3.132 4.5 4.021z" fill="url(#paint2_linear_3186)"/><path d="M30 45.205v-7.387l-4.5 3.367 4.5 4.02z" fill="url(#paint3_linear_3186)"/><path d="M25 24.727V17.48l4.5 4.208-4.5 3.04z" fill="url(#paint4_linear_3186)"/><path d="M25 32.862v-7.246l4.5 4.207-4.5 3.04z" fill="url(#paint5_linear_3186)"/><path d="M25 40.623v-6.779l4.1 3.74-4.1 3.04z" fill="url(#paint6_linear_3186)"/><path d="M30 13.507l-5 3.038 5 4.676v-7.714z" fill="url(#paint7_linear_3186)"/><path d="M31 29.402V22.39l6.767 2.103L31 29.403z" fill="url(#paint8_linear_3186)"/><path d="M31 45.58v-7.154l6.533 2.244L31 45.58z" fill="url(#paint9_linear_3186)"/><path d="M38 31.974v-6.78l-6.767 4.91L38 31.974z" fill="url(#paint10_linear_3186)"/><path d="M38 40.202v-6.779l-6.3 4.582 6.3 2.197z" fill="url(#paint11_linear_3186)"/><path d="M38 23.933v-6.546l-6.533 4.535L38 23.932z" fill="url(#paint12_linear_3186)"/><path d="M31 13.74l7 2.805-7 4.91V13.74z" fill="url(#paint13_linear_3186)"/><path d="M31 37.725v-7.06l7 1.917-7 5.143z" fill="url(#paint14_linear_3186)"/><path d="M29.477 45.993l-3.245-2.951C19.094 41.112 14 34.866 14 27.5c0-8.908 7.51-16.097 16.935-16.097 4.157 0 7.967 1.405 10.928 3.74h.734A17.942 17.942 0 0030 10c-9.941 0-18 8.059-18 18 0 9.766 7.778 17.716 17.477 17.993z" fill="#00468E"/><defs><linearGradient id="paint0_linear_3186" x1="38" y1="42" x2="31.636" y2="45.766" gradientUnits="userSpaceOnUse"><stop stop-color="#2E62A3"/><stop offset=".401" stop-color="#4A86C1"/><stop offset="1" stop-color="#01478F"/></linearGradient><linearGradient id="paint1_linear_3186" x1="28" y1="23.558" x2="29.324" y2="28.515" gradientUnits="userSpaceOnUse"><stop stop-color="#00468E"/><stop offset="1" stop-color="#57A3D8"/></linearGradient><linearGradient id="paint2_linear_3186" x1="28" y1="31.787" x2="29.324" y2="36.743" gradientUnits="userSpaceOnUse"><stop stop-color="#00468E"/><stop offset="1" stop-color="#57A3D8"/></linearGradient><linearGradient id="paint3_linear_3186" x1="28" y1="39.363" x2="29.406" y2="44.459" gradientUnits="userSpaceOnUse"><stop stop-color="#00468E"/><stop offset="1" stop-color="#57A3D8"/></linearGradient><linearGradient id="paint4_linear_3186" x1="25.25" y1="18.182" x2="25.681" y2="24.522" gradientUnits="userSpaceOnUse"><stop stop-color="#00468E"/><stop offset=".567" stop-color="#3F76B4"/><stop offset="1" stop-color="#145196"/></linearGradient><linearGradient id="paint5_linear_3186" x1="25.25" y1="26.317" x2="25.681" y2="32.657" gradientUnits="userSpaceOnUse"><stop stop-color="#00468E"/><stop offset=".567" stop-color="#3F76B4"/><stop offset="1" stop-color="#145196"/></linearGradient><linearGradient id="paint6_linear_3186" x1="25.228" y1="34.5" x2="25.642" y2="40.43" gradientUnits="userSpaceOnUse"><stop stop-color="#00468E"/><stop offset=".567" stop-color="#3F76B4"/><stop offset="1" stop-color="#145196"/></linearGradient><linearGradient id="paint7_linear_3186" x1="27.25" y1="15.143" x2="29.474" y2="21.09" gradientUnits="userSpaceOnUse"><stop stop-color="#00468E"/><stop offset="1" stop-color="#5295CC"/></linearGradient><linearGradient id="paint8_linear_3186" x1="34.158" y1="23.665" x2="31.277" y2="29.124" gradientUnits="userSpaceOnUse"><stop stop-color="#00468E"/><stop offset=".511" stop-color="#2F64A5"/><stop offset="1" stop-color="#00468E"/></linearGradient><linearGradient id="paint9_linear_3186" x1="34.049" y1="39.727" x2="31.021" y2="45.158" gradientUnits="userSpaceOnUse"><stop stop-color="#00468E"/><stop offset=".511" stop-color="#2F64A5"/><stop offset="1" stop-color="#00468E"/></linearGradient><linearGradient id="paint10_linear_3186" x1="31.475" y1="25.776" x2="34.383" y2="30.129" gradientUnits="userSpaceOnUse"><stop stop-color="#01478F"/><stop offset="1" stop-color="#4179B6"/></linearGradient><linearGradient id="paint11_linear_3186" x1="31.925" y1="34.004" x2="34.907" y2="38.16" gradientUnits="userSpaceOnUse"><stop stop-color="#01478F"/><stop offset="1" stop-color="#4179B6"/></linearGradient><linearGradient id="paint12_linear_3186" x1="37.767" y1="17.948" x2="34.959" y2="22.151" gradientUnits="userSpaceOnUse"><stop stop-color="#01478F"/><stop offset="1" stop-color="#4179B6"/></linearGradient><linearGradient id="paint13_linear_3186" x1="34.267" y1="15.143" x2="30.991" y2="20.982" gradientUnits="userSpaceOnUse"><stop stop-color="#00468E"/><stop offset=".511" stop-color="#2F64A5"/><stop offset="1" stop-color="#00468E"/></linearGradient><linearGradient id="paint14_linear_3186" x1="34.267" y1="31.949" x2="31.412" y2="37.508" gradientUnits="userSpaceOnUse"><stop stop-color="#00468E"/><stop offset=".511" stop-color="#2F64A5"/><stop offset="1" stop-color="#00468E"/></linearGradient></defs></svg>