<!-- by TradingView --><svg width="56" height="56" xmlns="http://www.w3.org/2000/svg"><path fill="#165C7D" d="M0 0h56v56H0z"/><path d="M34 32.25c0-2.247-1.258-4.012-4-4.895V22h5v13h-2c.548-.803 1-1.947 1-2.75zM26.903 17C17.737 17 11 22.94 11 29.28c0 3.292 1.802 6.021 4.074 7.947l.156-.16C13.43 35.542 12 33.134 12 29.843 12.47 22.86 20.636 19 28.078 19 33.328 19 43 20.21 43 29.2 43 33.938 37.871 40 27.608 40 22.36 40 18 37.174 18 33c0-3.612 2.95-6.207 7.101-6.207 1.097 0 2.194.24 2.977.481-1.723-.32-4.746-.318-6.078.726v7h5v-7.29c.94.161 2.53.527 3 .848V35h1c-1.018 1.204-3.078 1.321-4.724 1v.425c4.78.401 6.724-1.927 6.724-4.575 0-3.05-3.101-4.911-6-5.313V22h-5v5c-3.29.642-6.143 2.522-6.143 5.813 0 5.057 6.894 8.187 12.926 8.187C37.95 41 45 36.505 45 30.084 45 22.458 34.894 17 26.903 17z" fill="#fff"/></svg>