<!-- by TradingView --><svg width="56" height="56" xmlns="http://www.w3.org/2000/svg"><path fill="url(#paint0_linear)" d="M0 0h56v56H0z"/><path d="M26.294 31.359a.75.75 0 01-.645-.154c-.263-.249.661-1.39.661-1.39s3.374-4.513 1.881-4.755c-1.492-.242-2.472 4.177-2.472 4.177-.007-.42-.503-.36-.503-.36-.624-.022-2.29 1.486-2.536 1.563-.245.077-.178-.812-.167-1.043.012-.23-.1-.344-.51-.445-.412-.102-.538.357-.538.357-.354 1.252-.725 1.535-1.112 1.594-.387.058-.166-.905-.076-1.347.091-.441-.033-.498-.265-.45-.233.046-.392.18-.373-.094.02-.275-.36-.145-.36-.145-.4.19-1.75.364-2.17.391-.422.027-.384.35-.384.35s-.083 1.323-.5 1.368c-.418.044-.212-.913-.194-1.339.018-.426-.175-.39-.231-.408a.32.32 0 00-.256.14c-.075.096-.447 1.23-.6 1.402-.153.172-.346.156-.45-.092-.103-.25.15-.934.256-1.368.106-.434.08-.6-.119-.703-.199-.105-.362.05-.638.251-.276.2-.91.13-.91.13a.587.587 0 00-.175-.434c-.19-.202-.511.195-.54.235a.351.351 0 00-.142-.378c-.217-.145-.626.102-1.166.365-.54.263-.983.186-1.075.102-.092-.085.234-.944.525-1.497.29-.552 1.812-3.468 1.928-3.925.116-.458-.264-.536-.52-.391-.255.145-4.127 4.973-4.443 5.466-.317.493-.308.272-.308.272.017-.26.458-1.139.706-1.55.248-.41.09-.562.014-.626-.075-.064-2.747-.88-3.348-.867-.6.013-.537.611-.537.611.037.74.894.604.894.604s1.298-.106 1.82 0c.52.105.254.54.254.54l-1.8 4.186s-.034 1.556 1.43-.892c1.465-2.447 4.297-5.746 4.474-5.905.178-.16.128.047.128.047-.473.49-1.74 3.837-1.8 3.888-.06.05-.041.092-.566-.354-.525-.445-.524.37-.524.37-.092 1.763-.038 3.05.395 3.071.433.021.901-1.93.951-2.102.05-.172.136-.14.136-.14 1.103-.024 1.272-.297 1.358-.284.086.013.049.088.049.088-.221.254-.908 1.824.357 1.983 1.265.16 1.526-1.895 1.526-1.895.283.007.565-.03.836-.11l-.009.073c-.145.54-.255 1.64.434 2.018.69.38 1.17-.63 1.17-.63.182.711.687.676.687.676 1.037 0 1.007-1.674 1.05-1.784.044-.111.59-.088.935-.139.345-.05.215.1.215.1-.8.912-.766 1.623-.326 1.835.616.3 1.349-.675 1.405-.77a.218.218 0 01.139-.106c0 1.007.72.854.72.854 1.17-.206 1.404-1.664 1.525-1.862.12-.198.192-.05.192-.05s-.056 1.261.383 1.351c.412.083 1.255-.692 1.355-.782-.04.05-.236.326-.22.851.015.587.267.652.564.637.296-.014.697-.21.833-.452.137-.242.24-.066.24-.066.082.854.639.681.894.688.255.006.438-.07.425-.32-.012-.25-.237-.23-.237-.23zm1.29-5.382c.5-.433.417.225.363.331-.083.167-1.07 2.24-1.873 3.058.03-.088 1.02-2.961 1.51-3.389zM8.829 30.313s-.154.026-.127-.54c.026-.565.4-.229.412-.144.013.085-.09.74-.285.684zm3.6-.294c-.027.237-.398.82-.692.76-.295-.06-.281-.419-.156-.812.125-.394.604-.81.638-.83a.552.552 0 00.083.363c.105.15.15.336.128.519zm6.362.925c-.142.12-.359.13-.337-.26.025-.449 1.116-1.263 1.131-1.263-.388 1.218-.657 1.402-.8 1.523h.006zm6.256-.433s-.45.631-.744.593c-.294-.037.006-.733.244-1.064 0 0 .525-.805.806-.6.28.205-.315 1.072-.315 1.072h.01zM51.755 28.475c-.466-.28-.639.425-.639.425s-3.114 2.143-3.88 2.355c-.766.213-.674-.434-.674-.434.236-.072.449-.207.617-.39.983-.935.083-1.304.083-1.304-1.19-.077-1.345 1.484-1.345 1.484-.128.35-1.218.53-1.404.355-.187-.175 0-.913-.022-1.326-.022-.413-.255-.586-.73-.462-.475.123-.639 1.21-.894 1.25-.255.039.022-.587.022-.587.886-.536 4.82-5.496 2.922-5.598-1.823-.101-3.339 5.036-3.394 5.309-.055.272-1.423 1.295-1.423 1.295s-.05-.062-.02-.092c.029-.03.545-1.127.607-1.322.063-.195.158-.468-.128-.652-.286-.183-.45.23-.45.23a.443.443 0 00-.09-.183c-.452-.547-1.33.481-1.8 1.352-.47.87-.758.735-.912.616-.153-.118-.029-.808-.029-1.152 0-.344-.025-.429-.291-.425-.266.004-1.004 1.513-1.15 1.564-.145.051-.149-.221-.036-.99.112-.77.162-.87-.159-.986-.32-.114-.78.109-.78.109v.007c-.517.234-.933.16-1.021.077-.088-.082.233-.943.525-1.496.29-.553 1.811-3.484 1.925-3.935.114-.45-.267-.535-.525-.39-.258.144-4.121 4.973-4.44 5.466-.32.492-.308.272-.308.272.016-.26.458-1.14.706-1.55.247-.41.09-.563.014-.627-.075-.063-2.745-.88-3.35-.872-.603.008-.535.612-.535.612.037.74.893.603.893.603s1.299-.105 1.82 0c.52.106.255.54.255.54l-1.794 4.191s-.034 1.556 1.43-.891c1.465-2.448 4.293-5.747 4.47-5.906.175-.159.127.047.127.047-.474.49-1.742 3.837-1.802 3.888-.06.05-.04.093-.565-.353-.525-.446-.524.369-.524.369-.092 1.763-.038 3.05.395 3.072.432.02.901-1.93.95-2.103.05-.172.136-.14.136-.14.92-.02 1.192-.217 1.309-.27l.014-.01a.101.101 0 01.04-.007v-.012a.375.375 0 01.256.013c.212.077-.1.521-.1.521-.137.626-.031 1.085.51 1.314.541.23.942-.74.942-.74s.337.822.787.88c.45.057.978-.58.978-.58.234.443.54.434.786.357.247-.077.186.115.182.13-.004.016-.09.117-.09.117s-2.075.867-2.61 2.384c-.537 1.517.66 2.921 1.348 3.087.687.165.812-.782.812-.782l1.01-4.692 1.446-1.033s-.15.672.383.944c.533.272 1.133-1.327 1.133-1.327l.142-.008.04.893c.276 1.249 2.14.11 2.14.11s.101.63 1.059.706c.957.077 1.981-.876 1.981-.876l1.89-1.327-.1.522c.017.521-.316.552-.316.552.255-.22-.266-.73-.51-.297-.246.434-.141 1.012.574 1.043.715.031.791-1.03.791-1.03s.083-.764.317-.985c.234-.222.543-.633.073-.919zm-4.869 1.2a.176.176 0 01.196.02.184.184 0 01.06.192c-.025.224-.54.438-.54.438-.02-.094.038-.535.288-.646l-.004-.005zm-2.442-3.507c.836-1.555 1.277-1.314 1.123-.714-.175.676-2.198 3.137-2.198 3.137-.031-.095.943-2.178 1.075-2.423zM33.575 30.43s-.154.026-.127-.54c.027-.565.4-.229.412-.144.013.085-.09.735-.285.684zm5.547 5.842c-.181.542-1.03-.485-1.055-1.23-.046-1.359 1.23-2.43 1.86-2.761 0-.005-.302 2.5-.805 3.985v.006zm1.23-5.699c-.214.115-.52.01-.51-.367.014-.43.968-.912.968-.912.055.185.005 1.033-.457 1.28z" fill="#F6F8FD"/><defs><linearGradient id="paint0_linear" x1="10.418" y1="9.712" x2="68.147" y2="76.017" gradientUnits="userSpaceOnUse"><stop stop-color="#1A1E21"/><stop offset="1" stop-color="#06060A"/></linearGradient></defs></svg>