<!-- by TradingView --><svg width="56" height="56" xmlns="http://www.w3.org/2000/svg"><path fill="#15406D" d="M0 0h56v56H0z"/><path d="M5.46 27.65h3.08v-1.578c0-.305-.016-.51-.051-.606a.387.387 0 00-.158-.191.583.583 0 00-.331-.107v-.165h2v.165h-.18a.645.645 0 00-.345.1.346.346 0 00-.164.214c-.029.098-.044.292-.044.587v3.869c0 .305.015.503.05.6a.38.38 0 00.155.19c.11.071.228.108.348.108H10V31H8v-.164c.209 0 .35-.07.445-.218.063-.094.095-.321.095-.68V28H5.46v1.938c0 .305.016.503.051.6a.387.387 0 00.158.19c.108.071.21.108.331.108V31H4v-.164h.183c.212 0 .367-.07.462-.218.06-.094.092-.321.092-.68v-3.87c0-.304-.016-.509-.051-.606a.38.38 0 00-.155-.19.643.643 0 00-.348-.108H4V25h2v.164a.6.6 0 00-.33.1.369.369 0 00-.165.215c-.032.097-.045.291-.045.586v1.585zM12.42 31h-1.836v-.108h.152c.178 0 .303-.048.384-.146.052-.065.075-.214.075-.454v-2.584c0-.203-.013-.335-.042-.4a.287.287 0 00-.13-.128.635.635 0 00-.29-.072h-.152V27h1.835v.108h-.155c-.174 0-.3.048-.381.146-.052.061-.081.214-.081.454v2.584c0 .203.013.335.042.4a.276.276 0 00.133.125c.09.047.187.071.287.071h.159V31zM16.326 30.44c.1-.115.199-.298.298-.546l.093.02-.33 1.086h-2.67v-.109h.146c.164 0 .28-.054.35-.166.041-.064.062-.21.062-.438v-2.581c0-.251-.027-.407-.08-.468-.072-.085-.183-.13-.332-.13h-.146V27h1.751v.109c-.204-.004-.35.016-.432.057a.341.341 0 00-.169.156c-.03.061-.047.214-.047.451v2.515c0 .162.015.274.047.335.023.041.058.072.105.092.047.02.196.03.447.03h.283c-.003.004.394-.037.624-.305zM19.605 30.44c.1-.115.199-.298.298-.546l.093.02-.33 1.086h-2.67v-.109h.146c.164 0 .28-.054.35-.166.041-.064.062-.21.062-.438v-2.581c0-.251-.026-.407-.08-.468-.072-.085-.183-.13-.329-.13H17V27h1.751v.109c-.204-.004-.35.016-.432.057a.341.341 0 00-.169.156c-.03.061-.047.214-.047.451v2.515c0 .162.015.274.047.335.023.041.058.072.105.092.047.02.196.03.447.03h.283c-.006.004.39-.037.621-.305zM23.76 30.066h.236l-.284.939h-3.157v-.108h.15a.64.64 0 00.283-.068.254.254 0 00.137-.143 1.4 1.4 0 00.036-.386v-2.6c0-.254-.03-.41-.08-.468-.073-.078-.201-.119-.373-.119h-.15v-.108h3.26l.047.875h-.12c-.046-.21-.093-.356-.144-.434a.495.495 0 00-.236-.18c-.083-.03-.23-.044-.44-.044h-1.162v1.583h.929c.242 0 .401-.034.484-.102.109-.091.17-.25.182-.478h.115v1.393h-.115a1.545 1.545 0 00-.086-.376.397.397 0 00-.185-.163c-.086-.04-.217-.057-.392-.057h-.928v1.319c0 .176.01.284.025.322a.194.194 0 00.086.091.54.54 0 00.236.034h.718c.24 0 .408-.03.52-.047.265-.041.408-.675.408-.675zM25.427 27l2.705 3v-2.3c0-.237-.029-.39-.086-.449-.076-.08-.196-.122-.361-.122h-.146V27H29v.129h-.148c-.178 0-.305.05-.378.149-.044.06-.066.201-.066.42V31h-.111l-2.87-3.154v2.508c0 .241.037.358.09.418.08.08.2.122.365.122H26V31h-1.43v-.106h.145c.181 0 .308-.05.38-.148.045-.063.063-.174.063-.392v-2.815c-.12-.132-.216-.367-.28-.41h-.377V27h.926zM43.676 27l2.704 3v-2.316c0-.24-.028-.394-.085-.454-.076-.08-.197-.123-.362-.123h-.146V27h1.462v.107H47.1c-.178 0-.304.05-.377.15-.045.06-.067.203-.067.424V31h-.11l-2.87-3.17.004 2.486c0 .244.028.394.082.454.08.08.2.123.365.123h.149V31h-1.462v-.107h.146c.18 0 .307-.05.38-.15.045-.063.07-.203.07-.424l-.004-2.799c-.12-.133-.215-.309-.279-.352h-.377V27h.926zM32.042 28.954c.288.058.504.153.644.285.197.18.314.404.314.665 0 .2-.082.39-.214.57a1.12 1.12 0 01-.537.4c-.229.085-.576.126-1.042.126H29.4v-.109h.157c.172 0 .297-.054.372-.159.047-.068.069-.217.069-.441v-2.585c0-.248-.028-.404-.088-.468-.078-.085-.197-.13-.353-.13h-.157V27h1.642c.335 0 .6.024.804.071.307.071.538.197.7.377.16.18.241.387.241.62 0 .2-.062.38-.19.54-.12.15-.307.268-.554.346zm-1.451-.16c.075.014.163.024.26.031.097.007.053.01.169.01.297 0 .522-.03.672-.091a.71.71 0 00.344-.285.795.795 0 00.119-.42c0-.235-.1-.435-.297-.601-.197-.167-.488-.248-.867-.248-.203 0-.237.02-.4.064v1.54zm0 1.91c.269.018.319.041.55.041.37 0 .65-.04.845-.2.194-.16.29-.36.29-.593a.843.843 0 00-.13-.448.878.878 0 00-.43-.34c-.196-.084-.44-.125-.734-.125-.125 0-.084.003-.175.007-.09.003-.163.01-.216.02v1.639zM36.757 31l-1.495-1.873c-.11.004-.2.007-.27.007h-.09l-.1-.003v1.163c0 .251.03.407.09.468.083.089.206.13.373.13h.173V31h-1.891v-.109h.166c.187 0 .32-.054.4-.166.046-.06.07-.207.07-.434v-2.585c0-.251-.03-.407-.09-.468-.083-.085-.21-.13-.377-.13h-.166V27h1.608c.47 0 .816.03 1.036.092.223.06.413.176.566.342a.847.847 0 01.233.594.893.893 0 01-.263.641c-.176.18-.45.309-.822.384l.912 1.146c.297.336.596.438.75.526V31h-.813zm-1.955-2.06h.18c.42 0 .74-.08.952-.247a.768.768 0 00.32-.631.784.784 0 00-.26-.61c-.173-.157-.4-.235-.686-.235-.126 0-.296.017-.513.058v1.666h.007zM40.557 29.691h-1.46l-.255.616a1.01 1.01 0 00-.094.342c0 .06.028.112.082.155.054.047.174.073.356.09V31h-1.19v-.106c.16-.03.26-.066.308-.113.094-.092.2-.278.316-.563L39.945 27h.097l1.311 3.251c.105.262.202.43.288.51.085.08.207.123.358.133V31h-1.488v-.106c.151-.007.25-.033.305-.08.054-.043.08-.099.08-.162 0-.083-.038-.219-.112-.401l-.227-.56zm-.08-.215l-.64-1.581-.657 1.58h1.297zM48 30.885h.157c.175 0 .3-.054.372-.163.044-.064.07-.21.07-.437v-2.58c0-.251-.029-.407-.085-.468-.079-.085-.198-.129-.357-.129H48V27h1.688c.62 0 .912.068 1.238.203.322.136.582.363.78.678.197.318.294.68.294 1.097 0 .555-.175 1.02-.526 1.395-.395.417-.815.627-1.62.627H48v-.115zm1.184-.18c.26.055.476.082.652.082.473 0 .686-.16.999-.481.313-.322.466-.756.466-1.304 0-.552-.156-.986-.466-1.304-.313-.319-.533-.478-1.025-.478-.184 0-.391.03-.626.085v3.4z" fill="#fff"/></svg>