<!-- by TradingView --><svg width="56" height="56" xmlns="http://www.w3.org/2000/svg"><path fill="#002E92" d="M0 0h56v56H0z"/><path d="M14 33h2v1.999h-2V33zm8-.688c0-.584.683-.71 1.49-.71.807 0 1.51.126 1.51.71h-3zm19.52 1.11c.498 0 1.48-.068 1.48.377 0 .444-.982.414-1.48.414-.496 0-1.521.03-1.521-.414 0-.445 1.025-.377 1.521-.377zM11 35h-1V16h36v18.999h-1V32.29c0-1.612-1.306-1.935-3.48-1.935-2.173 0-3.52.204-3.52 1.539h1.999c0-.419.776-.413 1.52-.413.746 0 1.481.14 1.481.65v.572c-.296-.356-.643-.486-2.505-.486-1.864 0-2.495.263-2.495 1.534 0 .623.209 1.01.622 1.248H37V29h-2v6h-1.589c.035-.015.07-.028.102-.045.541-.258.487-.74.487-1.612h-2c0 .578-.196.748-1.054.748-.858 0-1.213-.177-1.23-1.212-.016-1.036.435-1.157 1.23-1.157.636 0 1.026.06 1.054.568h2c0-1.666-1.08-1.935-3.074-1.935-2.49.001-2.926.938-2.926 2.524 0 1.161.264 1.802 1.116 2.121H25.86c.594-.232.937-.642.937-1.345H25c0 .49-.82.544-1.52.544-.994 0-1.48-.31-1.48-1.199h4.797v-.12c0-1.907-.78-2.524-3.378-2.524-2.6 0-3.419.777-3.419 2.523 0 1.13.338 1.79 1.252 2.121H19v-6h-3v2h-2v-2h-3v5.999zm2 5v-3h-.862l-.617 2.063h-.008L10.862 37H10v3h.573v-2.105h.008L11.264 40h.472l.683-2.126h.007V40H13z" fill="#fff"/><path d="M14.252 37h-.603v3h.603v-3z" fill="#fff"/><path d="M16.616 39.013L15.473 37h-.598v3h.564v-2.008h.008L16.585 40h.602v-3h-.563v2.013h-.008z" fill="#fff"/><path d="M18.528 37.003h-.602v2.996h.602v-2.996z" fill="#fff"/><path d="M20.893 39.013l-1.143-2.01h-.597v2.996h.563v-2.006h.008L20.863 40h.602v-2.996H20.9v2.01h-.008zm3.235.919h.383v-1.548h-1.15v.47h.606c-.034.396-.26.617-.652.617-.54 0-.744-.481-.744-.958 0-.501.203-.982.744-.982.284 0 .51.164.58.48h.574c-.065-.649-.594-1.008-1.154-1.008-.847 0-1.346.66-1.346 1.51 0 .826.499 1.486 1.346 1.486.264 0 .54-.108.751-.392l.062.325zm4.534-1.899c-.074-.662-.58-1.03-1.181-1.03-.848 0-1.346.661-1.346 1.51 0 .826.498 1.487 1.346 1.487.67 0 1.142-.456 1.203-1.17h-.582c-.047.377-.253.64-.621.64-.541 0-.745-.48-.745-.957 0-.501.204-.982.745-.982.298 0 .56.216.598.501h.582zm.332.481c0 .825.499 1.486 1.346 1.486.847 0 1.346-.66 1.346-1.486 0-.85-.499-1.511-1.346-1.511-.847 0-1.346.66-1.346 1.51zm.602 0c0-.502.203-.982.744-.982.54 0 .744.48.744.982 0 .476-.203.957-.744.957-.54 0-.744-.48-.744-.957zM35.062 40v-2.997h-.847l-.606 2.06H33.6l-.64-2.06h-.847V40h.564v-2.103h.007l.67 2.103h.465l.67-2.124h.009V40h.563zm.662 0h.603v-1.074h.632c.683 0 .947-.474.947-.962 0-.487-.264-.961-.947-.961h-1.235V40zm.603-2.484h.467c.28 0 .53.067.53.449s-.25.448-.53.448h-.467v-.897zM37.726 40h.61l.215-.667h1.024l.207.667h.625l-1.025-2.997h-.616L37.726 40zm1.338-2.258h.007l.346 1.1h-.71l.357-1.1zm3.413 1.272l-1.142-2.011h-.599V40h.564v-2.007h.008L42.448 40h.601v-2.997h-.564v2.01h-.008zm1.905.986h.602v-1.15l1.017-1.847h-.672l-.636 1.184-.64-1.184h-.679l1.008 1.83V40z" fill="#fff"/></svg>