<!-- by TradingView --><svg width="56" height="56" xmlns="http://www.w3.org/2000/svg"><path fill="#7AC142" d="M0 0h56v56H0z"/><path d="M26.553 41.821c-7.015-.689-12.495-6.605-12.495-13.8 0-.136.002-.272.006-.407 6.299 2.193 11.105 7.572 12.489 14.207zM29.433 41.821c7.014-.689 12.494-6.605 12.494-13.8 0-.136-.002-.272-.006-.407-6.298 2.193-11.104 7.572-12.488 14.207z" fill="#fff"/><path d="M28 13.979c-2.965 4.282-7.116 15.839 0 27.808 7.008-12.492 2.58-23.514 0-27.808z" fill="#fff"/><path fill-rule="evenodd" d="M28 43c8.208 0 15-6.792 15-15s-6.792-15-15-15-15 6.792-15 15 6.792 15 15 15zm0 1c8.836 0 16-7.164 16-16 0-8.837-7.164-16-16-16-8.837 0-16 7.163-16 16 0 8.836 7.163 16 16 16z" fill="#fff"/></svg>