<!-- by TradingView --><svg width="56" height="56" xmlns="http://www.w3.org/2000/svg"><path fill="url(#paint0_linear)" d="M0 0h56v56H0z"/><path d="M16.004 25l-5 2.57 5 3.43v-6z" fill="#B2A389"/><path d="M40 25l5 2.57L40 31v-6z" fill="#E5D9C4"/><path d="M32 12.004h11V13h-1l-1 1v28l1 1h1v1H32v-1h1l1-1V14l-1-1h-1v-.996z" fill="#B2A389"/><path d="M13 12.004h11v.998h-1L22 14v28l1 1h1v1H13v-1h1l1-1V14l-1-.995h-1v-1.001zM28 19l10 4.95v7.268L28 36V19z" fill="#E5D9C4"/><path d="M28 19l-9 4.573v7.507L28 36V19z" fill="#B2A389"/><defs><linearGradient id="paint0_linear" x1="10.418" y1="9.712" x2="68.147" y2="76.017" gradientUnits="userSpaceOnUse"><stop stop-color="#1A1E21"/><stop offset="1" stop-color="#06060A"/></linearGradient></defs></svg>