<!-- by TradingView --><svg xmlns="http://www.w3.org/2000/svg" width="56" height="56"><path fill="#F0F3FA" d="M0 0h56v56H0z"/><path d="M27.7 45h.55l.11-.84a242.33 242.33 0 00.59-4.85c-.62.2-1.24.4-1.85.63.18 1.7.38 3.4.6 5.06zM26 17c1.47-.53 2.5-.92 4-1.35V11h-4v6zm.34 14.52c1.12-.4 2.27-.79 3.43-1.13.11-1.6.16-3.2.23-4.79-1.35.4-2.69.86-4 1.34.08 1.52.24 3.34.34 4.58z" fill="#1D1E1C"/><path d="M33.52 29.42l1.3-.26h.03l.26-.05 2.07-.32-6.36-1.21a154.48 154.48 0 01-.16 2.56 87.67 87.67 0 012.86-.72zM23.13 32.8c.77-.34 1.56-.66 2.36-.97a271.89 271.89 0 01-.28-4.55 53.4 53.4 0 00-4.08 1.82l-.3.15a51.8 51.8 0 00-4.38 2.51l6.1 1.29.58-.26z" fill="#A51E35"/><path d="M41.97 17.2c.07-.95.03-1.93-.17-2.86-10.24.85-19.44 3.88-27.73 9.9a13.62 13.62 0 001.27 7.18c7.46-4.97 16.24-7.85 25.12-8.78a13.74 13.74 0 001.5-5.44zm-2.21 12.15h-.02c-8.18 1.05-16.14 3.43-23.13 7.88 0 2.02.58 4.05 1.9 5.61a55.21 55.21 0 0119.35-6.5 16.51 16.51 0 001.9-6.99z" fill="#A51E35"/></svg>