<!-- by TradingView --><svg width="56" height="56" xmlns="http://www.w3.org/2000/svg"><path fill="#C9122A" d="M0 0h56v56H0z"/><path fill-rule="evenodd" d="M16.085 12.71c-2.971.527-6.374 1.632-6.882 6.895-.127 1.421-.178 3.29-.203 5.316.044 2.885.258 4.966.414 6.48l.069.678c.101 1.053.533 4.29 1.091 5.947.762 2.29 1.448 2.948 2.26 3.632 1.346 1.153 3.494 1.56 4.245 1.703l.174.034c2.743.526 8.305.605 10.743.605 2.463 0 8-.105 10.742-.605l.15-.03c.726-.141 2.909-.565 4.269-1.707.812-.684 1.498-1.342 2.26-3.632.559-1.658.99-4.868 1.092-5.947l.075-.75c.155-1.52.364-3.564.407-6.408.026-2 0-3.868-.152-5.316-.508-5.263-3.91-6.368-6.882-6.895-1.498-.263-4.165-.473-5.866-.552-1.499-.105-5.003-.158-6.07-.158-1.067 0-4.571.053-6.07.158-1.7.079-4.367.29-5.866.553zM12.251 37c-.508-1.816-.864-4.342-1.169-8.553-.177-2.552-.152-6.657.127-8.842.362-2.927 1.648-4.562 4.307-5.332.119 1.886.586 9.278.813 12.61.212 3.26.75 11.939.942 15.063-1.022-.222-2.232-.622-3.192-1.525-.813-.763-1.371-1.816-1.828-3.421zm9.772 5.498c1.96.114 4.134.16 5.998.16 2.172 0 4.736-.062 6.903-.218-.557-2.188-1.26-4.93-2.024-6.151-.675-1.055-1.677-1.195-2.292-1.28L30.55 35c-.928-.143-1.71-.143-2.088-.143-.348 0-1.16.029-2.087.143l-.057.008c-.615.086-1.617.226-2.292 1.28-.685 1.096-1.283 3.416-1.81 5.46l-.194.75zm17.648-.79c.785-.25 1.603-.639 2.292-1.287.813-.763 1.371-1.842 1.829-3.421.508-1.816.888-4.342 1.168-8.553.178-2.526.152-6.631-.127-8.842-.301-2.62-1.347-4.205-3.44-5.053-.141 2.25-.578 9.168-.795 12.33-.207 3.204-.723 11.526-.927 14.826zm-1.225-27.852a54.145 54.145 0 00-4.66-.435c-1.626-.105-4.267-.158-5.765-.158-1.473-.026-4.14.053-5.74.158-1.318.07-2.691.184-3.925.337.982 4.295 2.351 9.224 2.351 9.224s1.363 5.869 2.407 7.243c1.044 1.403 2.464 1.689 3.421 1.803.493.058.87.086 1.943.086s1.45-.028 1.943-.086c.957-.114 2.377-.4 3.421-1.803 1.044-1.374 2.436-7.243 2.436-7.243s1.184-4.754 2.168-9.127z" fill="#fff"/></svg>