<!-- by TradingView --><svg xmlns="http://www.w3.org/2000/svg" width="56" height="56"><path fill="#F0F3FA" d="M0 0h56v56H0z"/><path d="M11 30h2v4h5v-4h2v10h-2v-4h-5v4h-2V30zm25 0h2v4h5v-4h2v10h-2v-4h-5v4h-2V30zm-14 0h3.43L28 37l2.55-7H34v10h-2v-8l-3 8h-2l-3-8v8h-2V30z" fill="#4D4D4F"/><path d="M29.26 19.98c-1.86-1.86-4.14-3-5.57-2.78h-.06c-.36.05-.7.22-.96.47-1.2 1.2-.13 4.23 2.26 6.62 2.4 2.4 5.3 3.36 6.5 2.17.25-.26.41-.59.46-.94.26-1.44-.74-3.65-2.63-5.54z" fill="#FDB913"/><path d="M31.9 25.49c.25-1.44-.87-3.73-2.76-5.62-1.76-1.71-4.02-2.88-5.45-2.67l9.67-1.2-1.46 9.49zM16.5 16l-6.45 11H23l-6.5-11z" fill="#808285"/><circle cx="40.5" cy="21.5" r="5.5" fill="#FDB913"/></svg>