<!-- by TradingView --><svg width="56" height="56" xmlns="http://www.w3.org/2000/svg"><path fill="#B2E4E3" d="M0 0h56v56H0z"/><path d="M13 46c5.194-3.294 18.866-9.444 32-7.692-5.636.39-19.927 2.473-32 7.692z" fill="#000"/><path d="M16.005 28.12c.355 8.568 5.767 14.823 8.428 16.88-5.683-9.015-6.267-16.124-6.267-18.667 0-3.592 2.063-6.57 2.834-6.333.617.19 1.184.63 1.441.899L28.001 26c1.505-1.529 4.662-4.211 5.48-5.101.819-.89 1.369-.922 1.52-.899 2.468 1.056 2.903 4.614 2.835 6.333 0 7.915-4.41 15.704-6.305 18.667 4.113-4.385 8.428-9.624 8.469-16.88.04-7.257-3.5-9.12-5.525-9.12-.807 0-1.723.57-2.059.854L28 23s-3.54-2.554-4.355-3.146c-.966-.7-1.846-.853-2.277-.853-4.365 0-5.444 6.493-5.363 9.119zM18.808 19L17 12h1.005l1.266 2.916c7.677-3.415 14.635-1.478 17.512 0L38.03 12H39l-1.64 7-2.144-.827 1.099-2.175c-6.938-1.782-13.82-.742-16.554 0l1.157 2.175-2.11.827z" fill="#CC6234"/></svg>