<!-- by TradingView --><svg width="56" height="56" xmlns="http://www.w3.org/2000/svg"><path fill="#E2201F" d="M0 0h56v56H0z"/><path d="M30 28h1.607l1.42 1.607L34.545 28h1.451v4H34v-2l-1.337 1.498L31 29.865V32h-.986L30 28zm17 0l2.085.002 1.126 1.367L51.513 28H53l-2 2.156V32h-2v-1.65L47 28zm-22.299.007h3.405c1.496.217 1.946 2.162.25 2.615 0 0 1.023.547 1.644 1.364h-1.894a1.813 1.813 0 00-.087-.104 7.59 7.59 0 00-.519-.423c-.492-.321-1.258-.518-1.258-.518v1.044h-1.496v-1.668a4.406 4.406 0 00-1.076-.078l1.076 1.746H22.62l-.914-1.405c-1.208.406-2.115 1.113-2.391 1.333L19.25 32H18l2.622-3.993L22.22 28l.872 1.416a5.49 5.49 0 00-1.737.627l-.357-.553-1.146 1.55c.262-.217 3.468-2.325 6.816-.446-.885-.63-1.192-.833-1.966-1.104v-1.483zm1.642 1.766c1.985.079 1.797-1.112 0-1.024v1.024zM36 30c0-1.105 1.089-2 2.43-2h1.139C40.91 28 42 28.895 42 30c0 1.104-1.089 2-2.431 2H38.43c-1.34 0-2.43-.896-2.43-2zm2 .008c0 .649.453.992.978.992.526 0 1.022-.343 1.022-.992 0-.65-.513-1.006-1.022-1.008-.508-.002-.978.358-.978 1.008zm4-1.991V32h1v-2.172L45.366 32H47v-3.985h-1V30l-2.233-2-1.767.017zM16 27h2v5h-2v-2h-2v2h-2v-5h2v2h2v-2z" fill="#000"/><path d="M14.78 18.021c.62-.121 1.22.287 1.34.911l.859 4.45c.12.625-.284 1.23-.905 1.352l-.088.017a1.145 1.145 0 01-1.341-.912l-.302-1.56-8.188 12.225c-.353.527-1.1.65-1.624.294l-.001-.002c-.524-.356-.699-1.103-.345-1.631l8.196-12.236-1.563.306a1.145 1.145 0 01-1.34-.91l-.018-.09a1.152 1.152 0 01.905-1.35l4.414-.864z" fill="#fff"/></svg>