<!-- by TradingView --><svg width="56" height="56" xmlns="http://www.w3.org/2000/svg"><path fill="#F15E30" d="M0 0h56v56H0z"/><path d="M12 28h7v-4.198c0-.81-.047-1.342-.14-1.6-.077-.194-.232-.362-.464-.502-.317-.186-.88-.28-1.235-.28h-.523V21h6.881v.42h-.531c-.354 0-1.09.09-1.397.269a.961.961 0 00-.485.567c-.085.252-.127.768-.127 1.546v10.395c0 .806.05 1.338.15 1.597.069.195.219.364.45.504.316.188 1.055.282 1.409.282h.531V37h-6.88v-.42h.522c.612 0 1.281-.192 1.56-.575.186-.25.279-.853.279-1.808V29h-7v5.197c0 .806.05 1.338.15 1.597.068.195.22.364.459.504.314.188.643.282.988.282h.887V37H7.582v-.42h.804c.619 0 1.068-.192 1.347-.575.178-.25.267-.853.267-1.808V23.802c0-.81-.047-1.342-.14-1.6-.077-.194-.228-.362-.452-.502-.326-.186-.947-.28-1.303-.28h-.523V21h6.902v.42h-.54c-.345 0-1.021.09-1.335.269a.994.994 0 00-.477.567c-.088.252-.132.768-.132 1.546V28zM25 21h3.908L38 33.178l.034-9.446c0-.973-.106-1.58-.317-1.821-.275-.327-.709-.49-1.304-.49H36V21h5v.42h-.226c-.633 0-1.25.203-1.525.607-.157.25-.235.818-.235 1.705V37h-.408L28.99 24.5v9.768c0 .973.04 1.58.244 1.821.282.328 1.011.49 1.599.49h.528V37H26v-.42h.5c.642 0 1.1-.202 1.374-.607.157-.25.098-.817.098-1.705V23.319c-.435-.537-.91-1.144-1.135-1.314-.224-.172-.554-.332-.988-.48-.21-.07-.415-.105-.849-.105V21zM49 36.58V37h-6v-.42h.397c.612 0 1.057-.192 1.336-.575.178-.25.267-.853.267-1.808V23.802c0-.806-.046-1.337-.14-1.596-.077-.195-.228-.363-.452-.504a1.997 1.997 0 00-1.01-.282H43V21h6v.42h-.406c-.609 0-1.052.192-1.329.575-.177.25-.265.854-.265 1.807v10.395c0 .806.046 1.338.138 1.597.07.195.224.364.463.504.316.188.647.282.993.282H49z" fill="#fff"/></svg>