<!-- by TradingView --><svg width="56" height="56" xmlns="http://www.w3.org/2000/svg"><path fill="#F86700" d="M0 0h56v56H0z"/><path d="M10.566 36.763c1.21 0 2.882-.597 2.937-1.763H4V22h10.09c.055-1.115-1.117-2.004-2.092-2.004v-4.684c3.206 0 12.993-1.992 16.015-5.312 3.001 3.318 11.374 5.316 15.989 5.313V20c-.976 0-2.142.885-2.092 2H52v13h-9.502c.054 1.177 1.733 1.758 2.928 1.77C38.586 43.07 33.273 47 28.003 47c-5.267 0-10.588-3.93-17.428-10.23l-.009-.007z" fill="#000"/><path d="M7 25.01h1.121v2.608h.787v-2.609h1.097V32H8.908v-3h-.787v3H7v-6.99zm5.516.008H10.97l-.867 6.973h1.171l.142-1.64h.72l.187 1.64h.974l-.78-6.973zm-.76 3.924h-.219l.188-2.19.03.267.223 1.924h-.223zm4.632 1.913V29.64c0-.565-.157-1.103-.507-1.32.37-.194.507-.848.507-1.324v-.66c0-1.053-.451-1.32-1.216-1.32h-1.577v6.974h1v-2.782h.217c.06 0 .12 0 .19.033a.648.648 0 01.406.615v1.73c0 .13.024.26.048.404h1.07c-.108-.33-.129-.747-.129-1.136h-.009zm-.993-3.697c0 .315-.158.582-.4.704a.756.756 0 01-.325.072h-.076v-2.09h.101c.107 0 .215.027.31.078.234.13.406.391.406.652v.584h-.016zm1.408-2.149h1.073v5.921h.93V32h-2.003v-6.99zM18.999 25l2.288.01v.886H20.19v1.8h1.097v1.095H20.19v2.244h1.097V32l-2.288-.01V25zm2.384.01h1.097l.334 2.034.453-2.035h1.097l-1.097 3.704.047 3.287H22.29v-3.313l-.907-3.678zM24 28.004h2.009v1.002H24v-1.002zm3.941-2.978l-1.523-.009v6.973l1.523.009c.67 0 1.065-.643 1.065-1.247v-4.762c0-.53-.397-.982-.97-.973l-.095.009zm.06 5.131c0 .338-.096.492-.315.633a.608.608 0 01-.259.044h.015v-5.03c.092 0 .255.006.326.058.172.125.227.291.227.597v3.69l.005.008zm3.607-5.14h-1.55l-.862 6.973h1.17l.143-1.64h.72l.187 1.64h.974l-.782-6.973zm-.76 3.924h-.218l.187-2.19.03.267.219 1.924h-.218zm1.155-3.933h.965l.578 3.704.45-3.704H35L33.999 32h-1.004l-.991-6.99zm3.189 0h1.097V32h-1.097v-6.99zm10.32 5.425v-3.858c0-.854-.579-1.558-1.288-1.558-.715 0-1.234.698-1.234 1.557v3.859c0 .858.52 1.557 1.234 1.557.71 0 1.292-.698 1.292-1.557h-.004zm-.847.304a.39.39 0 01-.401.383.39.39 0 01-.395-.383v-4.467c-.005-.219.172-.375.386-.383h.004c.223 0 .406.183.406.383v4.467zm-6.347-5.72h-1.632v6.973h1.632c.665 0 1.066-.643 1.066-1.247v-4.761c0-.53-.52-.974-1.068-.965h.002zm.072 5.13c0 .338-.117.554-.34.643a.765.765 0 01-.264.044h-.07v-5.03h.086c.096 0 .167 0 .238.052.218.078.334.287.334.593v3.69l.016.008zm2.838-4.26c.183 0 .334.183.334.383v.976h.973v-.671c0-.86-.609-1.558-1.348-1.558-.74 0-1.194.698-1.194 1.558v.959c0 .313.156.652.394.837l.766.593c.167.13.429.339.429.72v1.053c0 .211-.152.383-.334.383-.188 0-.34-.172-.34-.383v-1.457h-.915v1.153c0 .86.462 1.565 1.225 1.557.74 0 1.348-.698 1.348-1.557v-1.286c0-.3-.324-.644-.592-.849l-.644-.482c-.183-.139-.41-.332-.41-.582v-.964c-.032-.219.115-.375.306-.383h.002zm4.764-.879h1.335l.673 3.078V25.01H49V32h-1.31l-.697-3.913v3.904l-1 .009v-6.99z" fill="#fff"/><path d="M28 23H5v10h46V23H28zm21.816 8.868H6.184v-7.736h43.633v7.736z" fill="#fff"/><path d="M27.51 12.428c2.14 2.338 10.515 4.578 13.516 4.579v1.63c-1.033.652-1.996 1.692-1.947 3.363h1.072v-.052c-.034-1.117.836-2.38 1.849-2.747v-3.058c-4.479 0-12.166-2.494-14.5-5.143-2.333 2.65-10.688 5.143-14.5 5.137v3.058c1.014.366 1.884 1.632 1.861 2.748l-.005.052h1.073c.05-1.672-.915-2.712-1.948-3.363v-1.63c3.023.002 11.388-2.238 13.528-4.574z" fill="#fff"/><path d="M40.054 34.15c.03.955.398 1.957 1.219 2.634-3.178 2.728-9.549 7.115-13.275 7.106-3.72 0-10.097-4.387-13.275-7.115.827-.683 1.186-1.668 1.215-2.634h-1.08c-.055.986-.837 2.12-1.858 2.283C17.334 40.245 22.681 45 28.002 45c5.32 0 10.665-4.758 14.998-8.576-1.02-.173-1.803-1.306-1.858-2.292h-1.088v.018zM24.727 15.039l-.922.4-1.165.514c-.603.262-.677.415-.677 1.331l-.024 3.341c0 .466.303.862.772.857h2.053a.864.864 0 00.866-.857l.024-4.717c0-.462-.496-1.068-.918-.87h-.01zm-.184 4.994a.166.166 0 01-.104.156.169.169 0 01-.065.013h-1.19a.17.17 0 01-.158-.104.168.168 0 01-.012-.065l.024-2.672c0-.391.155-.366.703-.654.02-.01.04-.02.064-.034.389-.198.762-.357.762-.213l-.024 3.573zm8.806-4.078l-1.165-.515-.922-.401c-.434-.193-.927.4-.927.871v4.718a.87.87 0 00.867.857h2.053a.864.864 0 00.866-.857v-3.341c0-.91-.173-1.072-.782-1.332h.01zm-.398 4.08a.167.167 0 01-.17.168h-1.19a.168.168 0 01-.17-.169V16.46c0-.144.376.023.774.213.025.023.047.023.07.023.548.28.704.256.704.654v2.684h-.018zM38.999 19.614v-.9c0-.481-.428-.829-.83-.931l-1.236-.307L35 17v5h1.175l-.005-1.335h1.541L37.706 22H39v-.957c0-.399-.24-.62-.519-.733.27-.101.52-.366.52-.696h-.001zm-1.288-.01H36.16l-.005-1.269.778.17.427.095c.204.048.36.24.36.522v.482h-.008z" fill="#fff"/><path d="M30.182 15.377v1.237l-1.435-.704v6.213h-1.303V15.91l-1.434.704v-1.237c.899-.445 1.631-.908 2.085-1.377.456.479 1.189.925 2.092 1.377h-.005zM17 22.123h1.54v-1.325l.838 1.28.824-1.47v1.515h1.237v-4.921h-.434c-.278.08-.556.154-.834.235l-.888 2.154-.824-1.745c-.424.09-1.06.174-1.459.244v4.033zm.912 12.971h2.076v.988h-1.64v1.165c.005.305.143.493.38.653l1.657 1.068v1.576l-2.955-2.07c-.237-.164-.424-.454-.424-.733v-1.94c-.002-.504.397-.702.896-.707h.01zm2.418 0h1.394l.619 1.754.8-1.754h1.42l-1.557 3.32v3.612c-.44-.22-.842-.506-1.282-.76v-3.072l-1.394-3.1zm5.13 0H28v.989h-1.648c-.227 0-.353.2-.353.47v5.118c0 .234.13.508.345.594l1.56.583V44c-.818-.05-1.747-.479-2.742-.893-.46-.19-.492-.379-.492-1.012v-6.13c-.003-.503.311-.866.787-.87h.001zm3.081 0h1.44V42.5l1.56-.589v1.232c-1.142.444-2.075.803-3 .838v-8.886zm3.975 0h2.49v.989h-1.531c-.213-.005-.492.186-.487.39l.01 1.3h1.4l-.004 1.16-1.396-.005-.005 1.491c0 .282.247.47.556.295l1.293-.808v1.386c-.773.474-1.622.968-2.4 1.337-.323.15-.782-.03-.782-.673V35.8c-.009-.386.452-.702.856-.707zm3.56 0H39v.971h-1.884c-.192 0-.374.281-.369.5.01.212.166.519.31.517h1.206c.416.036.737-.129.737.327v.613c0 .544-.054.71-.483 1.02a43.555 43.555 0 01-3.173 2.06V39.61l1.844-1.166c.248-.16.344-.33.35-.564h-1.496c-.328 0-.698-.344-.698-.678V35.68c.004-.453.351-.58.732-.586z" fill="#fff"/></svg>