<!-- by TradingView --><svg width="56" height="56" xmlns="http://www.w3.org/2000/svg"><path fill="#F0F3FA" d="M0 0h56v56H0z"/><path d="M27.828 17c-.754.2-11.466-.624-16.828-1 .602 1.38.363 13.053.081 14.29-.281 1.236-.225 9.23-.084 9.708.113.382 7.898-.75 11.735-.998 2.555-.063 8.409.15 10.972 0 2.564-.15 9.301.624 12.296 1 0-2.861-.285-9.502-.587-11.156-.301-1.654.461-9.377.587-12.844-2.827 1.44-17.23.75-18.172 1z" fill="#DB2650"/><path d="M6.004 28C16.77 22.71 25.144 16.498 28 14.004 29.978 16.015 43.502 24.139 50 28c-8.495 4.567-18.217 11.27-22 14C16.86 34.282 8.705 29.417 6.004 28z" fill="#0F64AF"/><path d="M12 28c5.232-2.504 12.752-7.63 16-10 1.57 1.148 11.226 7.065 16 10-4.604 2.504-12.49 7.63-16 10-11.04-7.512-15.172-9.717-16-10z" fill="#fff"/><path d="M28 20.646l.338 1.036h1.093l-.884.64.337 1.037-.884-.64-.884.64.337-1.036-.884-.64h1.093L28 20.645z" fill="#0F64AF"/><path d="M24.124 27.163c0-.053-.02-.083-.058-.09a.185.185 0 00-.036-.003h-.195v-1.407h1.318v1.407h-.288v.093h.923c0-.053-.019-.083-.058-.09a.183.183 0 00-.035-.003H25.5v-2.983h.288v-.093h-.923v.093h.288v1.472h-1.318v-1.472h.289v-.093H23.2v.093h.289v2.983H23.2v.093h.924zM27.199 24.969a1.09 1.09 0 00-.758.288 1.062 1.062 0 00-.339.813c0 .383.133.682.4.895.2.156.428.234.686.234.29 0 .54-.097.75-.291.226-.214.34-.488.34-.824 0-.396-.14-.697-.416-.903a1.09 1.09 0 00-.663-.212zm0 2.13c-.433 0-.664-.296-.693-.886a2.335 2.335 0 01-.003-.129c0-.621.193-.957.58-1.007a.793.793 0 01.105-.007c.454.005.683.338.685 1 0 .587-.17.924-.508 1.01a.75.75 0 01-.166.018zM31.285 25.005h-.616l-.75 1.716-.823-1.716h-.541v.094h.288v1.97h-.288v.094h.721c0-.053-.019-.083-.057-.09a.183.183 0 00-.037-.003h-.194v-1.511l.786 1.626h.076l.819-1.846v1.73h-.289v.094h.905c0-.053-.019-.083-.057-.09a.185.185 0 00-.036-.003h-.195v-1.971h.288v-.094zM33.219 25.66l-.018-.655h-1.692v.094h.289v1.97h-.289v.094h1.692l.018-.655h-.08l-.057.184c-.063.206-.159.327-.289.363a.379.379 0 01-.104.015h-.545v-.968h.736v-.104h-.736v-.9h.545c.185 0 .315.122.39.364l.003.014.057.184h.08zM19.262 28.481c.005-.476-.242-.802-.719-.802h-1.046v.093h.289v2.98h-.289v.094h1.068c.752.018.945-.358.945-.855s-.218-.745-.693-.828c.22-.078.44-.206.445-.682zm-.83-.709c.418 0 .426.576.432.71.005.132-.014.465-.198.576a.443.443 0 01-.234.062h-.3v-1.348h.3zm.075 1.445c.498 0 .498.543.498.734 0 .19.074.802-.494.802h-.379v-1.536h.375zM21.747 30.846c0-.055-.02-.085-.058-.09a.185.185 0 00-.036-.003h-.12l-.829-2.065h-.162l-.805 2.065h-.227v.093h.646c0-.055-.018-.085-.054-.09a.183.183 0 00-.036-.003h-.184l.27-.698h.747l.27.698h-.241v.093h.819zm-.892-.895h-.663l.332-.86.331.86zM23.388 28.782h.303v1.571l-1.353-1.665h-.523v.094h.289v1.97h-.289v.094h.74c0-.053-.02-.083-.058-.09a.185.185 0 00-.036-.003h-.213V29.12l1.414 1.744.173-.036v-2.046h.289v-.094h-.736v.094zM26.13 30.684c0 .1.016.159.05.173a.22.22 0 00.064.007v-.687h-.093c-.12.4-.362.602-.725.604-.253-.025-.478-.188-.574-.557a1.833 1.833 0 01-.055-.466c0-.458.125-.762.375-.915a.482.482 0 01.268-.09c.351.005.584.201.7.59h.094l-.011-.673c-.055 0-.09.018-.101.054a.855.855 0 00-.007.13 1.059 1.059 0 00-.545-.195 1.6 1.6 0 00-.151-.007c-.385 0-.68.14-.884.42a1.153 1.153 0 00-.213.688c0 .314.099.578.296.791.207.22.477.331.811.331.246-.002.479-.068.7-.198zM28.277 30.055c0-.908-.875-.825-1.257-1.505-.388-.772.956-1.127.942-.3h.115v-.632c-.063 0-.097.02-.105.06a.22.22 0 00-.007.062 1.244 1.244 0 00-.588-.14c-.454 0-.775.281-.775.781 0 .886 1.048.788 1.226 1.493.095.379-.03.879-.476.879-.405 0-.599-.286-.635-.648h-.115v.748c.057 0 .092-.017.104-.05a.534.534 0 00.008-.104c.185.122.398.183.638.183.452 0 .925-.333.925-.827zM29.39 30.846c0-.053-.02-.083-.058-.09a.183.183 0 00-.036-.003h-.195v-.968h1.072v.968h-.289v.093h.924c0-.053-.02-.083-.058-.09a.183.183 0 00-.036-.003h-.195v-1.971h.289v-.094h-.924v.094h.289v.899H29.1v-.9h.289v-.093h-.924v.094h.29v1.97h-.29v.094h.924zM33.174 30.846c0-.055-.02-.085-.058-.09a.184.184 0 00-.036-.003h-.119l-.83-2.065h-.162l-.804 2.065h-.228v.093h.646c0-.055-.018-.085-.054-.09a.185.185 0 00-.036-.003h-.184l.27-.698h.747l.27.698h-.241v.093h.819zm-.891-.895h-.664l.332-.86.332.86zM34.227 30.846v-.093h-.288v-.896h.31l.57.99h.562c0-.056-.015-.086-.047-.09a.204.204 0 00-.04-.004h-.118l-.577-.928c.23-.06.387-.181.469-.364a.548.548 0 00.043-.212.5.5 0 00-.235-.431.841.841 0 00-.476-.13h-1.096v.094h.288v1.97h-.288v.094h.923zm.043-2.064c.202 0 .342.085.419.255.029.07.043.143.043.22 0 .177-.06.312-.18.406a.412.412 0 01-.267.09h-.346v-.971h.331zM37.221 29.343l-.018-.655H35.51v.094h.289v1.97h-.289v.094h1.692l.018-.654h-.08l-.057.183c-.063.206-.159.327-.289.363a.379.379 0 01-.104.015h-.545v-.968h.736v-.104h-.736v-.9h.545c.185 0 .315.122.39.364l.003.014.058.184h.079zM39.172 30.274c0-.21-.115-.382-.346-.514a5.7 5.7 0 00-.411-.194c-.212-.094-.345-.19-.4-.288a.365.365 0 01-.04-.166c0-.153.074-.26.224-.32a.562.562 0 01.212-.04c.2 0 .351.07.455.206a.532.532 0 01.104.345h.116v-.633c-.063 0-.097.02-.105.061a.225.225 0 00-.007.061 1.244 1.244 0 00-.588-.14c-.262 0-.467.072-.613.216a.48.48 0 00-.148.352c0 .202.112.366.335.493.041.024.178.089.412.194.214.096.35.195.407.295.03.053.043.11.043.173 0 .168-.079.288-.238.36a.63.63 0 01-.245.046c-.349 0-.55-.2-.606-.6a8.444 8.444 0 00-.007-.076h-.115v.748c.057 0 .092-.017.104-.05a.524.524 0 00.007-.104c.185.122.398.183.639.183.279 0 .495-.074.65-.223a.525.525 0 00.161-.385z" fill="#000"/></svg>