<!-- by TradingView --><svg width="56" height="56" xmlns="http://www.w3.org/2000/svg"><path fill="#0060A9" d="M0 0h56v56H0z"/><path d="M10.808 30.328l-.514.225v7.208c-.01.238 0 .477.032.714.187 1.027 1.118 1.526 1.94 1.525H44.06c.524 0 .922.008 1.431-.16.548-.182.875-.506 1.036-1.065.115-.398.106-.722.106-1.125v-7.099l-.476-.247-.52.18v7.304c0 .34-.172.752-.276.868-.077.086-.185.226-.45.285-.388.086-.462.07-.851.07l-31.883.005c-.292 0-.435-.067-.58-.182a.766.766 0 01-.277-.47 2.549 2.549 0 01-.019-.448v-7.363l-.485-.225h-.007zm-.004-4.335l-.514.99v-9.15c.068-1.042.781-1.769 1.987-1.833h32.434c1.187.107 1.859.576 1.95 1.832v9.151l-.481-1.028-.501 1.023v-9.146c0-.546-.307-.88-.968-.88H12.275c-.287 0-.979.196-.979.88v9.15l-.269-.526-.223-.463z" fill="#fff"/><path d="M46.151 27.072l.434 1.294L48 28.363l-1.146.797.44 1.292-1.143-.802-1.143.802.44-1.292-1.146-.797 1.415.003.434-1.294zm-35.302-.089l.434 1.294 1.415-.002-1.146.797.44 1.291-1.143-.801-1.143.801.44-1.291L9 28.274l1.415.002.434-1.294zm21.424-.516h-.012l-.03.012-.032.012a4.876 4.876 0 01-.789.336l-.06.019-.024.011c-.06.114-.127.364-.025.462l.037.023h.037l.041-.013c.3-.096.627-.223.857-.32v-.544.002z" fill="#fff"/><path d="M32.273 25.663c.11-.03.221-.064.332-.094.205-.062.413-.113.623-.154.295-.058.495-.028.285.219-.259.305-.609.5-.963.688l-.277.145v-.804zm0 3.583v.72l.352-.275.122-.106a.98.98 0 00.257-.306c.04-.096.02-.153-.087-.16a1.086 1.086 0 00-.234.017l-.25.064-.117.034-.043.014v-.002zm-3.827.13l-.08.077c-.23.222-.399.4-.491.656-.087.239-.12.654.079.85.094.091.228.138.399.195l.092.03v-1.808zm.001-2.613l.027-.013.022-.01c.213-.155 1.117-.576 1.827-.864.37-.152 1.457-.568 1.903-.664l.047-.01v.461l-.049.018c-.47.17-.886.314-1.335.49-.47.184-1.091.422-1.562.67-.166.088-.39.213-.568.323-.115.072-.2.14-.3.214l-.012.012v-.627z" fill="#fff"/><path d="M28.447 28.599c.219 0 1.237-.404 1.488-.509l.062-.023.133-.059.11-.047h.03c.12 0 .038.414-.005.496l-.012.024-.037.011-.24.088c-.446.165-.895.35-1.284.619l-.21.144-.037.036v-.78h.002zm3.826.647l-.225.092-.332.133-.541.271-.502.264-.578.32-.418.236-.04.02-.049.023h-.037l-.024-.024-.013-.023v-.202l.006-.038a.393.393 0 01.045-.155c.125-.217.44-.392.647-.526.267-.17.533-.333.82-.485a8.827 8.827 0 011.225-.495l.016-.005v.594zm-3.826 1.938v.509c.05.011.1.02.15.025.964.107 1.701-.1 2.57-.506.117-.054.25-.122.374-.187a9.12 9.12 0 00.646-.372l.045-.025.04-.023v-.64l-.147.107-.192.135a5.69 5.69 0 01-1.114.63l-.333.137-.354.127c-.487.174-.845.222-1.365.139l-.323-.052.003-.003z" fill="#fff"/><path fill-rule="evenodd" d="M36.456 24.091c0 1.157.042 3.62 0 4.977h.353c.606 0 1.065-.334 1.065-.946v-3.048c0-.703-.466-.983-1.14-.983h-.278zm1.144 9.4c-.104.19-.217.365-.317.552-.044.082-.275.502-.31.606-.024.023-.043.029-.062.047h-.012l-.012-.01c-.024-.023-.048-.034-.077-.065a.328.328 0 01-.108-.248 1.168 1.168 0 01.096-.377c.085-.213.196-.415.33-.602.044-.068.09-.135.14-.2.086-.109.176-.214.259-.32l.035-.045.024-.024.014-.013v-.39h-1.144v-1.608h3.876c.984 0 1.672-.703 1.672-1.637l.009-8.626-.008-.037c-.21-.985-.54-1.28-1.56-1.471l-.02-.004h-9.35l-.008 5.074h1.206v1.111l.023-.007c.169-.054.393-.114.582-.155a2.59 2.59 0 01.532-.064c.252 0 .568.046.615.305.037.21-.12.485-.28.676-.06.07-.13.143-.197.212l-.061.064-.047.044c-.082.073-.18.158-.287.237a4.86 4.86 0 01-.882.496v1.643c.056-.019.112-.041.168-.059.14-.041.284-.072.43-.09.34-.044.574.05.651.331.063.228 0 .476-.105.681l-.06.119-.052.075a1.66 1.66 0 01-.218.262c-.156.152-.325.29-.507.412l-.293.21-.014.01v1.797H31.07l-.038 4.602h6.53l.04-1.314a3.811 3.811 0 01-.282.34 1.308 1.308 0 01-.2.206c-.102.077-.236.132-.346.11-.157-.034-.166-.186-.129-.351.02-.08.047-.157.082-.23.1-.22.236-.423.403-.602l.294-.086h.007l.025-.012.012-.012c.038-.062.083-.121.133-.176V33.49z" fill="#fff"/><path d="M37.6 32.78l.037-.034a2.27 2.27 0 01.127-.146c.138-.15.305-.315.466-.471a7.55 7.55 0 01.399-.37c.064-.052.132-.099.204-.14.12-.07.251-.12.389-.147.246-.02.349.12.373.314.01.166-.01.332-.059.492a3.046 3.046 0 01-.202.549 8.667 8.667 0 01-.486.923l-.115.192c-.112.178-.266.417-.403.64-.08.13-.166.274-.245.413a7.04 7.04 0 01-.338.518 1.67 1.67 0 01-.146.179v-.817l.024-.037c.039-.055.1-.148.16-.23.184-.256.346-.512.52-.767.058-.085.14-.231.216-.345.05-.074.11-.184.165-.282.055-.097.139-.252.224-.415.078-.147.152-.3.214-.445.055-.11.1-.224.137-.341.016-.064.077-.305-.042-.277l-.019.004-.037.011-.025.012-.036.023-.062.048-.123.094-.11.095-.087.082-.086.095-.147.154-.153.17-.143.173-.102.136-.143.184-.134.192-.085.128-.087.128-.037.036v-.72H37.6zm-17.233-3.346h3.617v2.955h-1.206v4.573h6.73v-4.573h-1.206v-.71l-.049-.01-.061-.013-.05-.011-.098-.024c-.659-.115-1.205-.652-1.07-1.309.044-.183.123-.357.234-.511.183-.27.39-.523.621-.756l.046-.049-.05-.012a1.022 1.022 0 01-.559-.336.435.435 0 01-.092-.313 1.07 1.07 0 01.093-.42 2.135 2.135 0 01.644-.877c.108-.09.204-.147.31-.223l.031-.022.036-.026.02-.017v-2.672h1.206v-5.122h-6.736v5.122h1.206v2.955h-3.617v-2.955h1.206v-5.122h-6.73v5.122h1.206v8.314h-1.206v4.573h6.73V32.39h-1.206v-2.955z" fill="#fff"/><path d="M28.447 27.39c-.133.127-.264.243-.39.389-.126.146-.238.327-.238.518 0 .242.203.31.433.306.08 0 .159-.007.194-.008V27.39zm13.982 8.276c.1.064.103.23.006.377-.096.147-.256.215-.356.154-.1-.062-.103-.231-.007-.378.097-.146.256-.215.357-.153zm-3.559-.122c.155-.3.352-.579.586-.829.08-.081.164-.197.29-.167.084.02.11.1.042.238-.097.223-.204.405-.242.563-.15.613.221.768.44.576.095-.085.232-.198.324-.29.058-.034.168-.014.18.054 0 .692.72.568 1.072.316a.682.682 0 00.098-.086 2.99 2.99 0 00.44-.697.156.156 0 00-.014-.182.222.222 0 00-.148-.083c-.104-.018-.133.023-.173.086-.092.152-.194.3-.303.441-.128.147-.28.164-.383.128-.333-.118-.173-.482-.088-.696.209-.53.49-.908 1.022-.759a.16.16 0 00.102-.022.15.15 0 00.064-.08l.093-.3c.031-.064 0-.095-.05-.12-.212-.114-.451-.092-.67-.014-.408.143-.599.498-.806.851a5.061 5.061 0 00-.343.69c-.032.077-.081.164-.18.155a.237.237 0 01-.125-.044.223.223 0 01-.08-.104c-.01-.22.122-.498.218-.693.087-.154.472-.877.341-1.024a.192.192 0 00-.053-.034c-.139-.069-.239-.053-.379.02a.67.67 0 00-.175.133c-.075.08-.073.16-.178.186-.052.014-.078.01-.09-.01-.033-.053 0-.093.028-.135l.073-.113c.051-.08.05-.064-.052-.072l-.272-.026c-.115-.012-.091.02-.143.132l-.865 1.855c-.188.575-.087.633.128.482.167-.118.174-.156.266-.323l.004-.003z" fill="#fff"/></svg>