<!-- by TradingView --><svg width="56" height="56" xmlns="http://www.w3.org/2000/svg"><path fill="#7CC242" d="M0 0h56v56H0z"/><path d="M10 18.005h2V21h3v-3l2 .005V27l-2-.013V23h-3v4.004h-2v-9zm10.59 6.358c0-.623.291-.935.765-1.197a31.8 31.8 0 011.885 1.92c-.426.324-.778.474-1.289.474-.683 0-1.361-.447-1.361-1.197zM25.039 22c-.024.56-.085 1.341-.474 1.778a37.91 37.91 0 00-1.46-1.385c.9-.537 1.895-1.047 1.895-2.144C25 18.629 23.483 18 22 18c-1.338 0-3 .625-3 2.156 0 .76.507 1.339 1.19 1.889-1.047.498-1.667 1.159-1.667 2.367 0 1.796 1.593 2.588 3.21 2.588.925 0 1.909-.107 2.64-.755.18.2.337.518.506.755H27l-1.205-1.814c.79-.798 1.166-2.078 1.215-3.186H25.04zm-4.04-1.751c0-.437.49-.774 1.015-.774.523 0 .986.262.986.774 0 .574-.587.93-1 1.178-.341-.275-1.002-.68-1.002-1.178zM30 20h1.186c1.05 0 1.438.519 1.438 1.028 0 .51-.338.972-1.438.972L30 21.998V20zm0 6.998v-2.995l1.065.003c.12-.003.866-.03 1.288 1.302l.404 1.69 2.246.002-.818-2.462c-.424-1.06-.454-1.303-1.185-1.502v-.024c1.094-.262 1.662-.856 1.662-2.403 0-1.547-1.113-2.609-2.31-2.609h-4.355v8.998H30zM12 33h1c.778 0 1.454.081 1.454 1.004 0 .863-.626.996-1.454.996h-1v-2zm-2 4h3.575c1.52 0 3.425-.456 3.425-2.485 0-1.034-.701-1.756-1.832-1.987v-.026c.947-.316 1.475-1.285 1.475-2.355 0-1.46-1.179-2.147-2.76-2.147H10v9zm2-6.997h1c.754 0 1.454.217 1.454.995 0 .718-.713 1.002-1.454 1.002h-1v-1.997zM18 28h2v7h4v2h-6v-9zm8.334 4.649c0-1.472.855-2.97 2.23-2.97 1.372 0 2.121 1.463 2.121 2.933 0 1.399-.747 2.71-2.121 2.71-1.375 0-2.23-1.275-2.23-2.673zm-2.334 0c0 2.7 1.79 4.351 4.564 4.351C31.337 37 33 35.31 33 32.612 33 29.888 31.36 28 28.564 28 25.767 28 24 29.925 24 32.649zm17 4.126c-.644.157-1.2.225-2.357.225-2.261 0-4.874-1.141-4.874-4.353 0-2.955 2.077-4.647 4.874-4.647.862 0 1.542.186 2.357.43V30s-1.236-.397-2.236-.32c-1.604 0-2.66 1.389-2.66 2.969 0 1.666 1.177 2.676 2.833 2.676.742 0 1.44-.08 2.063-.325v1.775zM42 28h2v4l3.572-4H50l-3.774 4.443L50 37h-2.428L44 33.004V37h-2v-9z" fill="#fff"/></svg>