<!-- by TradingView --><svg width="56" height="56" xmlns="http://www.w3.org/2000/svg"><path fill="#006AB4" d="M0 0h56v56H0z"/><path d="M9 26v2H6v-2H4v5h2v-2h3v2h2v-5H9z" fill="#fff"/><path d="M24.505 26H21v5h2v-2h.538c.852 0 .958.29 1.073.898L24.816 31h2.491l-.32-1.656c-.098-.5-.573-.67-1.147-.684v-.069c.738-.109 1.279-.58 1.279-1.23 0-1.094-1-1.361-2.614-1.361zm-.77 2.25H23V27l.693-.001c.607 0 .984.15.984.588 0 .466-.41.662-.943.662z" fill="#fff"/><path d="M39.197 29.515c.008.274.073.473.23.602.163.13.384.199.712.199.516 0 1.074-.103 1.074-.5a.306.306 0 00-.107-.225c-.336-.315-3.163-.548-4.032-1.362a1.044 1.044 0 01-.418-.862c0-1.081 1.189-1.567 3.557-1.567 2.516 0 3.278.582 3.311 1.601h-2.442c-.017-.273-.123-.445-.303-.547-.172-.103-.418-.137-.73-.137-.524 0-.803.164-.803.417 0 .076.033.171.107.226.385.308 3.195.76 3.982 1.348.23.171.467.438.467.917 0 .978-1.032 1.608-3.728 1.608-3.213 0-3.369-.8-3.418-1.718h2.54zM32.992 27.764c-.066-.61-.377-.883-1.05-.883-.966 0-1.36.964-1.36 1.785s.328 1.52 1.295 1.52c.754 0 1.123-.295 1.147-.931h2.54c-.016.445-.073.876-.532 1.245-.664.534-1.827.766-3.098.766-2.966 0-3.942-1.02-3.942-2.6 0-1.17.697-2.866 4.008-2.866 1.483 0 2.516.233 3.032.643.369.294.492.595.5 1.32h-2.54zM51.23 30.145c-.64.513-1.664.855-3.188.855-2.893 0-3.959-1.122-3.959-2.6 0-.958.46-1.649 1.14-2.052.565-.336 1.294-.548 2.819-.548 2.893 0 3.958 1.122 3.958 2.6 0 .76-.279 1.355-.77 1.745zm-3.188-3.223c-.82 0-1.418.465-1.418 1.478s.598 1.478 1.418 1.478 1.417-.465 1.417-1.478-.598-1.478-1.417-1.478z" fill="#fff"/><path d="M18.107 31c-.406-.582-1.227-1.407-2.176-1.407-.948 0-1.77.825-2.175 1.407h-2.394l3.016-5h3.106l3.016 5h-2.393zm-.264-.437l-1.912-3.525-1.903 3.51 1.903-2.22 1.912 2.235z" fill="#fff"/></svg>