<!-- by TradingView --><svg width="56" height="56" xmlns="http://www.w3.org/2000/svg"><path fill="#0E428A" d="M0 0h56v56H0z"/><path d="M11.25 27a3.5 3.5 0 11-7 0 3.5 3.5 0 017 0z" fill="url(#paint0_linear)"/><path d="M10.89 26.1a.5.5 0 11-1 0 .5.5 0 011 0z" fill="url(#paint1_linear)"/><path d="M14.15 24.4a.5.5 0 11-1 0 .5.5 0 011 0z" fill="url(#paint2_linear)"/><path d="M17.392 23.296a.5.5 0 11-1 0 .5.5 0 011 0z" fill="url(#paint3_linear)"/><path d="M20.755 22.567a.5.5 0 11-1 0 .5.5 0 011 0z" fill="url(#paint4_linear)"/><path d="M24.048 22.045a.5.5 0 11-1 0 .5.5 0 011 0z" fill="url(#paint5_linear)"/><path d="M27.372 21.702a.5.5 0 11-1 0 .5.5 0 011 0z" fill="url(#paint6_linear)"/><path d="M30.55 21.5a.5.5 0 11-1 0 .5.5 0 011 0z" fill="url(#paint7_linear)"/><path d="M33.96 21.688a.5.5 0 11-1 0 .5.5 0 011 0z" fill="url(#paint8_linear)"/><path d="M37.158 22a.5.5 0 11-1 0 .5.5 0 011 0z" fill="url(#paint9_linear)"/><path d="M40.395 22.6a.5.5 0 11-1 0 .5.5 0 011 0z" fill="url(#paint10_linear)"/><path d="M43.75 23.4a.5.5 0 11-1 0 .5.5 0 011 0z" fill="url(#paint11_linear)"/><path d="M47.05 24.631a.5.5 0 11-1 0 .5.5 0 011 0z" fill="url(#paint12_linear)"/><path d="M50.25 26a.5.5 0 11-1 0 .5.5 0 011 0z" fill="url(#paint13_linear)"/><path d="M8.066 26.585a.316.316 0 00-.316.316v4.783c0 .174.141.316.316.316h.088a.316.316 0 00.316-.316v-2.038c0-.07.056-.126.126-.126h2.597c.07 0 .126.057.126.126v2.038c0 .174.142.316.316.316h.088a.316.316 0 00.316-.316v-4.783a.316.316 0 00-.316-.316h-.088a.316.316 0 00-.316.316v1.886c0 .07-.056.126-.126.126H8.596a.126.126 0 01-.126-.126V26.9a.316.316 0 00-.316-.316h-.088zm7.411 2.945c.012.072-.046.134-.12.134h-1.98c-.073 0-.132-.062-.12-.134a1.27 1.27 0 01.31-.647 1.106 1.106 0 01.796-.326c.162 0 .308.03.44.09a.988.988 0 01.348.236.99.99 0 01.235.349c.043.096.073.195.09.298zm.531 1.593c.073-.184-.078-.367-.276-.367-.149 0-.271.107-.333.242a.82.82 0 01-.27.335c-.172.126-.394.19-.667.19-.212 0-.397-.036-.553-.107a1.106 1.106 0 01-.387-.28 1.148 1.148 0 01-.22-.41 1.557 1.557 0 01-.06-.37.12.12 0 01.122-.123h2.508c.17 0 .31-.134.298-.303a3.277 3.277 0 00-.064-.448 2.075 2.075 0 00-.288-.728 1.634 1.634 0 00-.553-.546c-.227-.147-.515-.22-.864-.22-.268 0-.515.05-.742.152a1.787 1.787 0 00-.584.424 1.994 1.994 0 00-.379.645c-.09.248-.136.52-.136.82.01.297.053.573.128.826.081.253.2.47.357.652.156.182.348.324.576.425.232.1.505.151.818.151.445 0 .813-.11 1.107-.333a1.42 1.42 0 00.462-.627zm3.964.716c0 .09-.047.177-.134.203a1.147 1.147 0 01-.328.041.578.578 0 01-.402-.136.51.51 0 01-.131-.289c-.01-.058-.089-.087-.13-.045-.15.147-.318.258-.504.334a2.06 2.06 0 01-.758.136 2.11 2.11 0 01-.508-.06 1.175 1.175 0 01-.409-.19.953.953 0 01-.28-.333 1.2 1.2 0 01-.099-.509c0-.222.038-.404.114-.546a.973.973 0 01.295-.341c.127-.091.268-.16.425-.205a5.35 5.35 0 01.492-.114 5.11 5.11 0 01.5-.075c.162-.02.304-.046.425-.076a.767.767 0 00.288-.144.368.368 0 00.106-.28.62.62 0 00-.084-.342.512.512 0 00-.204-.197.797.797 0 00-.28-.091 2.048 2.048 0 00-.304-.023c-.272 0-.5.053-.682.16-.141.078-.232.213-.273.405-.02.098-.101.178-.202.178h-.267c-.108 0-.195-.09-.18-.197.025-.158.069-.298.134-.417.091-.167.212-.301.364-.402.152-.106.323-.182.515-.228a2.79 2.79 0 01.63-.068c.176 0 .35.013.522.038.177.025.336.078.478.16a.88.88 0 01.34.325c.087.142.13.326.13.554v2.017c0 .152.007.263.022.334.02.07.081.106.182.106.1 0 .197.065.197.164v.153zm-1.046-1.737c0-.053-.06-.085-.108-.062a.973.973 0 01-.21.072 7.92 7.92 0 01-.417.068 6.825 6.825 0 00-.432.06c-.146.02-.278.056-.394.107a.734.734 0 00-.288.22.604.604 0 00-.106.379c0 .106.02.197.06.273a.62.62 0 00.168.174.74.74 0 00.242.099c.09.02.187.03.288.03.212 0 .394-.028.546-.083.151-.06.275-.134.37-.22a.922.922 0 00.213-.288.755.755 0 00.068-.296V30.1zm2.325-2.022a.126.126 0 01-.126-.127v-.733a.316.316 0 00-.316-.316h-.012a.316.316 0 00-.316.316v.733c0 .07-.057.126-.127.126h-.256a.284.284 0 000 .569h.256c.07 0 .127.056.127.126v2.369c0 .182.017.329.053.44a.548.548 0 00.159.258c.076.06.172.103.288.129.121.02.265.03.432.03h.208a.284.284 0 000-.569h-.011c-.101 0-.184-.002-.25-.007a.343.343 0 01-.144-.053.206.206 0 01-.076-.107.874.874 0 01-.015-.182v-2.308c0-.07.056-.126.126-.126h.37a.284.284 0 000-.569h-.37zm3.813.833a.19.19 0 01-.19-.19v-1.342a.19.19 0 01.19-.19h1.25c.157 0 .303.01.44.031a.942.942 0 01.371.114.64.64 0 01.25.258.96.96 0 01.091.455c0 .288-.09.505-.273.652-.177.142-.47.212-.879.212h-1.25zm-.72-2.328a.19.19 0 00-.19.19v5.035c0 .105.085.19.19.19h2.425c.268 0 .503-.043.705-.129a1.58 1.58 0 00.515-.349c.141-.146.247-.313.318-.5.071-.187.106-.38.106-.577 0-.333-.088-.617-.265-.85-.175-.23-.428-.38-.757-.452a.01.01 0 01-.008-.01.01.01 0 01.006-.01c.255-.101.45-.254.585-.46.141-.212.212-.463.212-.75 0-.274-.063-.504-.19-.69a1.374 1.374 0 00-.447-.44.926.926 0 00-.295-.114 2.511 2.511 0 00-.364-.054 3.493 3.493 0 00-.402-.022 9.794 9.794 0 00-.37-.008h-1.774zm.72 4.808a.19.19 0 01-.19-.19V29.71a.19.19 0 01.19-.19h1.455c.151 0 .298.015.44.046a.969.969 0 01.37.144c.112.065.2.156.266.273a.885.885 0 01.098.44c0 .303-.09.54-.272.712-.177.172-.425.258-.743.258h-1.614zm4.197-4.019a.316.316 0 00.316-.316V26.9a.316.316 0 00-.316-.316h-.012a.316.316 0 00-.316.316v.157c0 .174.141.316.316.316h.012zm-.012.705a.316.316 0 00-.316.316v3.289c0 .174.141.316.316.316h.012a.316.316 0 00.316-.316v-3.289a.316.316 0 00-.316-.316h-.012zm1.455 1.964c0-.237.03-.447.09-.63a1.41 1.41 0 01.266-.47 1.123 1.123 0 01.864-.386c.167 0 .323.033.47.099.151.065.283.161.394.288.111.126.197.283.258.47.065.182.098.392.098.63 0 .237-.033.45-.098.636a1.332 1.332 0 01-.258.463 1.146 1.146 0 01-.394.28 1.188 1.188 0 01-.947 0 1.167 1.167 0 01-.387-.28c-.111-.126-.2-.28-.265-.463a2.08 2.08 0 01-.091-.637zm-.682 0c0 .288.04.556.121.804.08.248.202.465.364.652.162.183.361.327.598.433.238.1.51.151.819.151.313 0 .586-.05.819-.151.237-.106.436-.25.598-.432.162-.188.283-.405.364-.653.08-.248.121-.516.121-.804 0-.288-.04-.556-.121-.804a1.788 1.788 0 00-.364-.652 1.693 1.693 0 00-.599-.44 1.955 1.955 0 00-.818-.159c-.308 0-.581.053-.819.16a1.691 1.691 0 00-.598.44 1.779 1.779 0 00-.364.651c-.08.248-.121.516-.121.804zm4.576-3.458a.316.316 0 00-.316.316v4.783c0 .174.142.316.316.316h.013a.316.316 0 00.316-.316v-4.783a.316.316 0 00-.316-.316h-.013zm1.455 3.458c0-.237.03-.447.091-.63a1.41 1.41 0 01.266-.47 1.124 1.124 0 01.864-.386c.166 0 .323.033.47.099a1.1 1.1 0 01.394.288c.11.126.197.283.257.47.066.182.099.392.099.63a1.9 1.9 0 01-.099.636 1.3 1.3 0 01-.258.463 1.147 1.147 0 01-.394.28 1.188 1.188 0 01-.947 0 1.168 1.168 0 01-.386-.28 1.42 1.42 0 01-.266-.463 2.06 2.06 0 01-.09-.637zm-.682 0c0 .288.04.556.122.804.08.248.202.465.363.652.162.183.362.327.6.433.236.1.51.151.817.151.314 0 .587-.05.819-.151.238-.106.437-.25.599-.432a1.88 1.88 0 00.363-.653c.081-.248.122-.516.122-.804 0-.288-.04-.556-.122-.804a1.787 1.787 0 00-.363-.652 1.692 1.692 0 00-.599-.44 1.955 1.955 0 00-.819-.159c-.308 0-.58.053-.818.16a1.692 1.692 0 00-.599.44 1.792 1.792 0 00-.363.651 2.575 2.575 0 00-.122.804zm7.603 1.623V28.27a.19.19 0 00-.19-.19h-.227a.19.19 0 00-.19.19v.367a.005.005 0 01-.004.004l-.004-.002a1.124 1.124 0 00-.484-.483 1.419 1.419 0 00-.682-.167c-.338 0-.624.066-.856.197a1.61 1.61 0 00-.561.493c-.141.197-.243.42-.303.668-.06.242-.091.48-.091.712 0 .268.035.524.106.767.076.237.187.447.334.629.146.177.328.319.545.425.217.106.473.159.766.159.252 0 .49-.056.712-.167.226-.115.394-.293.505-.533a.01.01 0 01.018.004v.248c0 .218-.023.418-.068.6-.04.182-.109.336-.205.462a.962.962 0 01-.364.304 1.16 1.16 0 01-.538.113 1.52 1.52 0 01-.333-.038 1.17 1.17 0 01-.326-.106.862.862 0 01-.26-.21c-.102-.136-.23-.283-.399-.283h-.01c-.18 0-.331.155-.272.325a.881.881 0 00.107.214c.101.146.228.265.38.356.156.091.328.157.514.197.192.04.38.061.561.061.627 0 1.087-.16 1.38-.478.293-.318.44-.799.44-1.44zm-1.803-.19c-.213 0-.39-.042-.531-.128a1.07 1.07 0 01-.341-.35 1.553 1.553 0 01-.182-.485 2.7 2.7 0 01-.053-.53c0-.187.02-.367.06-.539.046-.172.114-.323.205-.455a1.03 1.03 0 01.364-.31 1.07 1.07 0 01.53-.122c.203 0 .374.04.516.121.141.081.255.19.34.326.092.132.157.28.198.448a2.151 2.151 0 01-.008 1.054c-.04.182-.106.346-.197.493a1.094 1.094 0 01-.364.349 1.047 1.047 0 01-.538.129zm2.8-4.102a.316.316 0 00.316-.316V26.9a.316.316 0 00-.316-.316h-.013a.316.316 0 00-.315.316v.157c0 .174.141.316.315.316h.013zm-.013.705a.316.316 0 00-.315.316v3.289c0 .174.141.316.315.316h.013a.316.316 0 00.316-.316v-3.289a.316.316 0 00-.316-.316h-.013zm3.606 1.109a.21.21 0 00.194.15h.301c.113 0 .202-.098.178-.208a1.38 1.38 0 00-1.035-1.058 2.225 2.225 0 00-.621-.084c-.309 0-.579.056-.811.167a1.598 1.598 0 00-.584.447 1.9 1.9 0 00-.34.668 2.84 2.84 0 00-.114.819c0 .293.037.564.113.811.081.243.197.453.349.63.156.177.348.313.576.41.232.095.497.143.795.143.5 0 .895-.131 1.183-.394.248-.223.416-.525.505-.907.026-.113-.063-.215-.179-.215H47.8a.206.206 0 00-.196.163 1.046 1.046 0 01-.303.542c-.177.167-.425.25-.743.25-.202 0-.377-.04-.523-.121a1.032 1.032 0 01-.356-.319 1.513 1.513 0 01-.205-.462 2.312 2.312 0 01-.06-.531c0-.197.02-.387.06-.569.04-.187.106-.351.197-.493a1.07 1.07 0 01.38-.341c.156-.086.35-.13.583-.13.273 0 .49.07.651.206.128.107.22.25.28.426zm1.527 1.757c-.024-.1-.105-.181-.207-.181h-.264c-.107 0-.195.09-.179.197a1.183 1.183 0 00.497.835c.152.1.326.174.523.22a2.937 2.937 0 001.213.008c.202-.037.381-.102.538-.198a1.071 1.071 0 00.538-.97.9.9 0 00-.402-.782 1.411 1.411 0 00-.409-.205 4.57 4.57 0 00-.47-.129 14.417 14.417 0 00-.455-.099 3.32 3.32 0 01-.409-.121 1.095 1.095 0 01-.303-.182.381.381 0 01-.114-.28c0-.102.026-.183.076-.243a.492.492 0 01.197-.152.918.918 0 01.266-.083c.1-.015.199-.023.295-.023.106 0 .21.013.31.038a.89.89 0 01.289.106.632.632 0 01.279.344c.03.094.108.172.206.172h.268c.109 0 .197-.093.179-.201a1.242 1.242 0 00-.129-.39.973.973 0 00-.349-.38 1.294 1.294 0 00-.492-.197 2.9 2.9 0 00-.614-.06c-.172 0-.346.022-.523.067a1.51 1.51 0 00-.47.197c-.136.087-.25.2-.34.342a.961.961 0 00-.13.508c0 .253.063.45.19.591.126.142.283.253.47.334.192.076.399.137.621.182.222.04.427.089.614.144.192.05.351.12.477.205a.43.43 0 01.19.38c0 .12-.03.222-.091.303a.585.585 0 01-.235.174c-.091.04-.192.068-.303.084a2.366 2.366 0 01-.319.022c-.13 0-.26-.012-.386-.038a1.19 1.19 0 01-.333-.121.66.66 0 01-.31-.418z" fill="#fff"/><defs><linearGradient id="paint0_linear" x1="6.25" y1="24" x2="8.75" y2="30.5" gradientUnits="userSpaceOnUse"><stop stop-color="#CC7835"/><stop offset="1" stop-color="#F9EB00"/></linearGradient><linearGradient id="paint1_linear" x1="10.389" y1="25.6" x2="10.389" y2="26.6" gradientUnits="userSpaceOnUse"><stop stop-color="#CF8032"/><stop offset="1" stop-color="#F7E800"/></linearGradient><linearGradient id="paint2_linear" x1="13.65" y1="23.9" x2="13.65" y2="24.9" gradientUnits="userSpaceOnUse"><stop stop-color="#CF8032"/><stop offset="1" stop-color="#F7E800"/></linearGradient><linearGradient id="paint3_linear" x1="16.892" y1="22.796" x2="16.892" y2="23.796" gradientUnits="userSpaceOnUse"><stop stop-color="#CF8032"/><stop offset="1" stop-color="#F7E800"/></linearGradient><linearGradient id="paint4_linear" x1="20.255" y1="22.067" x2="20.255" y2="23.067" gradientUnits="userSpaceOnUse"><stop stop-color="#CF8032"/><stop offset="1" stop-color="#F7E800"/></linearGradient><linearGradient id="paint5_linear" x1="23.548" y1="21.545" x2="23.548" y2="22.545" gradientUnits="userSpaceOnUse"><stop stop-color="#CF8032"/><stop offset="1" stop-color="#F7E800"/></linearGradient><linearGradient id="paint6_linear" x1="26.872" y1="21.202" x2="26.872" y2="22.202" gradientUnits="userSpaceOnUse"><stop stop-color="#CF8032"/><stop offset="1" stop-color="#F7E800"/></linearGradient><linearGradient id="paint7_linear" x1="30.05" y1="21" x2="30.05" y2="22" gradientUnits="userSpaceOnUse"><stop stop-color="#CF8032"/><stop offset="1" stop-color="#F7E800"/></linearGradient><linearGradient id="paint8_linear" x1="33.461" y1="21.188" x2="33.461" y2="22.188" gradientUnits="userSpaceOnUse"><stop stop-color="#CF8032"/><stop offset="1" stop-color="#F7E800"/></linearGradient><linearGradient id="paint9_linear" x1="36.658" y1="21.5" x2="36.658" y2="22.5" gradientUnits="userSpaceOnUse"><stop stop-color="#CF8032"/><stop offset="1" stop-color="#F7E800"/></linearGradient><linearGradient id="paint10_linear" x1="39.895" y1="22.1" x2="39.895" y2="23.1" gradientUnits="userSpaceOnUse"><stop stop-color="#CF8032"/><stop offset="1" stop-color="#F7E800"/></linearGradient><linearGradient id="paint11_linear" x1="43.25" y1="22.9" x2="43.25" y2="23.9" gradientUnits="userSpaceOnUse"><stop stop-color="#CF8032"/><stop offset="1" stop-color="#F7E800"/></linearGradient><linearGradient id="paint12_linear" x1="46.55" y1="24.131" x2="46.55" y2="25.131" gradientUnits="userSpaceOnUse"><stop stop-color="#CF8032"/><stop offset="1" stop-color="#F7E800"/></linearGradient><linearGradient id="paint13_linear" x1="49.75" y1="25.5" x2="49.75" y2="26.5" gradientUnits="userSpaceOnUse"><stop stop-color="#CF8032"/><stop offset="1" stop-color="#F7E800"/></linearGradient></defs></svg>