<!-- by TradingView --><svg width="56" height="56" xmlns="http://www.w3.org/2000/svg"><path fill="#F0F3FA" d="M0 0h56v56H0z"/><path d="M6 28.403C6 26.5 4.489 24.674 4 24h1c.7 0 2 3.06 2 4h3c0-1.406 1.275-4 2-4h1c-.481.47-2.023 2.561-2 4.403.029 2.357 1.543 4.063 2 4.597h-1c-.88 0-1.931-3.233-2-4H7c-.11 1.62-1.727 4-2 4h-.948C4.825 31.726 6 30.645 6 28.403z" fill="#000"/><path d="M10 24.004H7c.605.647 1.165 2.18 1.37 2.864.018.063.046.136.147.136.104 0 .14-.096.146-.136.274-1.351 1.005-2.472 1.337-2.864zM10 33H7c.605-.647 1.165-2.179 1.37-2.864.018-.063.046-.136.147-.136.104 0 .14.096.146.136C8.937 31.487 9.668 32.608 10 33z" fill="#B1624A"/><path d="M18.155 26.494c.91.774.953 2.721.777 3.506h-4.93c.142 1.633 1.75 1.948 2.637 2 .71.042 1.718-.105 2.133-.188v.94c-.03.021-.464.15-1.889.234-1.443.085-2.45-.395-2.775-.677-.39-.277-1.157-1.288-1.106-3.109.052-1.821.998-2.64 1.465-2.823.738-.395 2.779-.656 3.688.117zM45.143 26.494c.908.774.95 2.721.775 3.506H41c.142 1.633 1.747 1.948 2.631 2 .708.042 1.714-.105 2.129-.188v.94c-.03.021-.464.15-1.885.234-1.44.085-2.444-.395-2.769-.677-.389-.277-1.154-1.288-1.102-3.109.05-1.821.995-2.64 1.46-2.823.736-.395 2.773-.656 3.68.117zM20 33v-7.004h.864L21 26.8c.602-.67 1.603-.815 2-.804V27c-.936-.018-1.807.549-2 .828V33h-1z" fill="#000"/><path d="M16.156 27.006c-1.749-.06-2.165 1.307-2.155 1.998h3.97c.123-.64-.066-1.937-1.815-1.998zM43.155 27.006c-1.749-.06-2.165 1.307-2.155 1.998h3.97c.123-.64-.066-1.937-1.815-1.998z" fill="#F0F3FA"/><path d="M27.293 25.998c.61-.024 1.396.15 1.712.24v.957c-.696-.216-1.647-.218-2.036-.195-.54 0-1.969.58-1.969 2.432 0 2.33 1.87 2.553 2.483 2.57.49.014 1.219-.133 1.522-.209v1.042c-.702.245-1.92.137-2.49.137-.903-.073-2.546-.804-2.515-3.54.04-3.42 2.529-3.404 3.293-3.434zM30 30.714v-4.718h1v4.718c0 .597.69 1.294 1.859 1.288 1.169-.006 1.907-.767 2.141-1.034v-4.972h1V33h-1.004l-.2-.824c-.804.62-1.925.801-2.386.814-1.978.112-2.43-1.471-2.41-2.276zM38 33v-9h1v9h-1zM49.641 25.996c.674.01 1.67.246 2.084.363v1.117s-.186-.207-1.22-.39c-1.033-.184-1.759-.041-1.937.062-.168.053-.572.284-.567.907.004.624.482.841.567.875.145.057.556.075 1.01.07.855-.01 1.392.167 1.553.263.28.107.844.457.868 1.65.03 1.494-1.04 1.964-2.3 2.068-1.01.082-2.016-.188-2.393-.333V31.61c.953.486 2.536.432 3.085.344.202-.038.625-.277.609-.953-.016-.675-.4-.883-.61-.898-.904-.046-1.831-.08-2.058-.092-.432-.034-1.304-.422-1.331-1.956-.035-1.916 1.798-2.072 2.64-2.059z" fill="#000"/></svg>