<!-- by TradingView --><svg width="56" height="56" xmlns="http://www.w3.org/2000/svg"><path fill="#BF2E1B" d="M0 0h56v56H0z"/><path d="M29.137 16.903c-1.379.498-3.869 1.532-5.592 2.298-1.686.728-4.52 1.724-6.32 2.184-1.762.42-3.754 1.11-4.405 1.532-1.647.996-2.605 3.064-2.337 5.17.154 1.61.115 1.763-1.302 2.797-1.149.804-1.379 1.187-1.034 1.455 1.494 1.15 3.486.766 4.175-.804.345-.69.345-1.417 0-2.72-.345-1.417-.345-1.915.153-2.872.881-1.724 1.264-1.686 1.073.115-.154 1.225.038 2.106.65 3.332.69 1.302.767 1.838.422 2.528-.23.498-.969.92-1.16.92-.192 0-.383 1.531-.422 3.447L13 40h1.85c1.455 0 1.455 0 1.455-1.609 0-1.57.039-1.877 2.605-3.37 2.528-1.418 2.681-1.456 3.37-.805.384.345.729.881.729 1.188 0 .268.42.88.919 1.302.536.46 1.149 1.57 1.379 2.183.421.958.69 1.111 1.992 1.111h1.532l-.805-1.302c-.46-.69-.804-1.992-.804-2.567 0-.842.153-.996 1.149-.996.766 0 1.264.269 1.57.843.269.498.996 1.8 1.648 2.566.995 1.226 1.417 1.456 2.68 1.456 1.226 0 1.418-.115 1.188-.69-.46-1.187-.69-3.409-.345-3.409.192.039 1.035 1.15 1.877 2.184C38.33 39.77 38.675 40 40.015 40h1.456l-.651-.996c-.345-.536-.881-1.953-1.188-2.834-.46-1.341-.498-1.647 0-2.107.46-.46.575-.421.805.268.344 1.11 1.493 1.034 2.03-.153.23-.536.65-.843.919-.766.766.306 1.57-.46 3.524-3.37 1.455-2.146 1.762-2.912 1.762-4.368 0-2.374-1.724-4.136-4.405-4.558-1.609-.23-2.145-.536-3.524-2.106-2.796-3.065-6.856-3.83-11.606-2.107zm-5.324 6.78c.421 2.834 2.528 5.898 5.516 8.197.727.574.65.613-.958.383-2.336-.345-4.175-.92-5.592-1.762l-1.188-.728-1.072 1.15c-.575.612-1.57 1.301-2.145 1.493-1.11.383-1.11.383-1.11-1.226-.04-.88-.27-2.03-.575-2.566-.307-.536-.537-1.609-.575-2.375 0-1.724.69-2.298 3.945-3.14 1.264-.307 2.375-.652 2.49-.805.498-.46 1.034.115 1.264 1.379z" fill="#fff"/><path d="M44.388 25.959c.575 1.149-.192 2.107-1.15 1.915-.216-.043-.63-.263-.765-.383-1.761-1.555 1.272-3.803 2.873-3.447 0 0-1.533.766-.958 1.915z" fill="#BF2E1B"/></svg>