<!-- by TradingView --><svg width="56" height="56" xmlns="http://www.w3.org/2000/svg"><path fill="url(#paint0_linear)" d="M0 0h56v56H0z"/><path d="M45.854 19H10.147C7.962 19 7 20.068 7 22.262v12.632C7 37.089 7.962 38 10.147 38h35.707C48.04 38 49 37.089 49 34.894V22.262C49 20.068 48.04 19 45.854 19z" fill="#FD0"/><path d="M28.001 35.612C17.1 35.612 8.88 32.588 8.88 28.58c0-4.011 8.22-7.035 19.122-7.035 10.9 0 19.121 3.024 19.121 7.035 0 4.01-8.22 7.033-19.12 7.033z" fill="#fff"/><path d="M34.469 34.649c3.158-.625 5.638-1.764 7.057-3.194h-.302c-1.806 1.651-5.178 2.921-9.452 3.45 2.924-.532 5.14-1.82 6.339-3.45h-.287c-1.436 1.742-4.136 3.091-7.755 3.547 2.23-.473 3.811-1.89 4.626-3.547h-.287c-1.032 1.922-3.065 3.177-5.308 3.576-.036.001-.07.003-.106.003 1.247-.52 2.054-2.432 2.285-3.579h-.288c-.45 2.122-1.79 3.526-2.912 3.587l-.077.001h-.076c-1.1-.062-2.466-1.466-2.915-3.588h-.287c.23 1.147 1.037 3.059 2.285 3.579l-.106-.003c-2.243-.4-4.276-1.654-5.309-3.576h-.287c.815 1.658 2.396 3.074 4.628 3.547-3.62-.456-6.322-1.805-7.756-3.547h-.288c1.2 1.63 3.416 2.918 6.34 3.45-4.275-.529-7.647-1.799-9.453-3.45h-.301c1.418 1.43 3.898 2.57 7.058 3.194-7.06-.9-11.975-3.247-11.975-6.07 0-2.824 4.915-5.172 11.975-6.071-3.16.623-5.64 1.764-7.058 3.194h.3c1.807-1.652 5.179-2.922 9.454-3.45-2.924.532-5.14 1.819-6.34 3.45h.288c1.434-1.743 4.136-3.092 7.756-3.548-2.232.474-3.813 1.89-4.628 3.548h.287c1.034-1.923 3.066-3.178 5.31-3.577.036 0 .071-.002.106-.003-1.249.521-2.056 2.432-2.286 3.58h.287c.45-2.123 1.815-3.526 2.915-3.588h.153c1.121.062 2.462 1.465 2.912 3.588h.288c-.231-1.148-1.038-3.059-2.286-3.58.036 0 .07.003.106.003 2.243.4 4.276 1.654 5.31 3.577h.286c-.815-1.658-2.396-3.074-4.626-3.548 3.62.456 6.32 1.805 7.755 3.548h.287c-1.2-1.631-3.415-2.918-6.339-3.45 4.274.528 7.646 1.798 9.452 3.45h.302c-1.419-1.43-3.9-2.57-7.06-3.194 7.061.9 11.977 3.247 11.977 6.07 0 2.824-4.916 5.17-11.974 6.07zm-6.467-12.792c-10.658 0-18.694 2.89-18.694 6.721 0 3.832 8.036 6.721 18.694 6.721 10.656 0 18.692-2.89 18.692-6.72 0-3.832-8.036-6.722-18.692-6.722z" fill="#000"/><path d="M16.417 28.984v1.495H17.5v-3.812h-1.082v1.383h-2.283v-1.383h-1.08v3.813h1.08v-1.496M20.175 30.583c1.658 0 2.225-.258 2.225-1.392v-2.525h-1.081v2.296c0 .595-.178.747-.797.747h-.693c-.621 0-.799-.152-.799-.747v-2.296H17.95v2.525c0 1.134.566 1.392 2.226 1.392zM23.935 28.926v.752h1.707c.474 0 .474-.752 0-.752h-1.707zm-1.076-2.26h2.883c.758 0 1.157.317 1.157 1.01 0 .465-.22.79-.49.897.42.103.6.392.6.843 0 .93-.41 1.064-1.267 1.064H22.86v-3.814zm2.677 1.529c.443 0 .443-.706 0-.706h-1.6v.706M28.467 28.926v.752h1.707c.473 0 .473-.752 0-.752h-1.707zm-1.077-2.26h2.884c.757 0 1.156.317 1.156 1.01 0 .465-.22.79-.49.897.42.103.6.392.6.843 0 .93-.41 1.064-1.266 1.064H27.39v-3.814zm2.677 1.529c.443 0 .443-.706 0-.706h-1.6v.706M31.959 30.48h3.77v-.828h-2.67v-.692h2.538v-.774h-2.539v-.647h2.609v-.872h-3.708M36.092 26.667v3.813h3.568v-.828h-2.487v-2.985M39.939 26.667v3.813h3.568v-.828h-2.486v-2.985" fill="#000"/><defs><linearGradient id="paint0_linear" x1="10.418" y1="9.712" x2="68.147" y2="76.017" gradientUnits="userSpaceOnUse"><stop stop-color="#1A1E21"/><stop offset="1" stop-color="#06060A"/></linearGradient></defs></svg>