<!-- by TradingView --><svg width="56" height="56" xmlns="http://www.w3.org/2000/svg"><path fill="#FF7A59" d="M0 0h56v56H0z"/><path d="M35.804 23.536v-3.81c.51-.236.943-.61 1.247-1.078a2.905 2.905 0 00.469-1.567v-.088c0-.779-.314-1.525-.872-2.075a2.998 2.998 0 00-2.104-.86h-.09c-.789 0-1.546.31-2.104.86a2.914 2.914 0 00-.872 2.075v.088c.003.556.166 1.1.47 1.567.303.469.736.842 1.247 1.078v3.81a8.488 8.488 0 00-4.008 1.74l-10.6-8.14c.075-.269.115-.546.12-.824a3.272 3.272 0 00-.563-1.838 3.343 3.343 0 00-1.502-1.22 3.398 3.398 0 00-1.938-.191c-.65.126-1.249.44-1.718.902-.47.462-.79 1.05-.92 1.691a3.262 3.262 0 00.188 1.911 3.317 3.317 0 001.233 1.486c.55.364 1.199.558 1.862.56A3.353 3.353 0 0017 19.17l10.439 8.007a8.251 8.251 0 00-1.405 4.714 8.256 8.256 0 001.534 4.676l-3.175 3.13a2.76 2.76 0 00-.794-.128c-.544 0-1.076.16-1.529.459a2.724 2.724 0 00-1.014 1.219 2.68 2.68 0 00-.156 1.568c.107.527.369 1.01.754 1.39a2.79 2.79 0 003 .589 2.747 2.747 0 001.236-1c.303-.446.465-.97.465-1.507a2.645 2.645 0 00-.129-.783l3.141-3.096a8.524 8.524 0 003.482 1.565 8.585 8.585 0 003.825-.105 8.508 8.508 0 003.388-1.754 8.356 8.356 0 002.259-3.046 8.245 8.245 0 00-.392-7.341 8.392 8.392 0 00-2.57-2.796 8.536 8.536 0 00-3.555-1.395zm-1.302 12.532a4.39 4.39 0 01-2.413-.724 4.297 4.297 0 01-1.598-1.923 4.227 4.227 0 01-.246-2.475 4.265 4.265 0 011.19-2.192 4.365 4.365 0 012.224-1.172 4.403 4.403 0 012.51.244 4.333 4.333 0 011.95 1.577c.477.704.732 1.532.732 2.379a4.254 4.254 0 01-1.272 3.03 4.377 4.377 0 01-3.073 1.254" fill="#fff"/></svg>