<!-- by TradingView --><svg width="56" height="56" xmlns="http://www.w3.org/2000/svg"><path fill="#F0F3FA" d="M0 0h56v56H0z"/><path d="M7.347 26v1.411h-1.69v-1.41H4v4h1.657v-1.48h1.69V30h1.657v-4H7.347zm6.007 0l-.011 2.536c0 .431-.153.464-.806.464-.671 0-.943-.005-.943-.413L11.605 26H10v2.49c0 1.05.183 1.51 2.537 1.51 1.56 0 2.463-.247 2.463-1.51L15.01 26h-1.657zm6.34 0s.02 2.687.029 2.978A556.494 556.494 0 0018.13 26h-2.467v4h1.35v-2.977L18.583 30H21v-4h-1.306zM22 26v1h1.179l-.013 3h1.657v-3h1.181L26 26h-4zm5 1.353c-.029.942 1.363.92 1.855.942h.547c.687.032.687.038.687.331 0 .28-.133.328-.89.328-.78 0-.898-.055-.898-.424v-.062L27 28.462v.063c0 1.15.946 1.475 2.2 1.475.889 0 1.65-.178 1.963-.48.276-.265.276-.607.276-.936v-.031c0-.522-.334-.762-1.878-.855l-.634-.034c-.439-.025-.564-.044-.564-.311 0-.175 0-.3.828-.3.64 0 .79.013.79.373v.062h1.29v-.237C31.27 26 30.01 26 29.19 26c-1.177 0-2.16.33-2.191 1.352zM37.07 26s-.959 2.277-1.021 2.436L34.975 26h-2.492v4h1.52v-2.663c.158.348 1.351 2.663 1.351 2.663h1.407s1.097-2.34 1.241-2.663c-.017.365 0 2.663 0 2.663h1.559v-4h-2.49zM44 26h-2l-1.671 4H42s.23-.657.258-.73h1.538L44 30h1.688L44 26zm-1.55 2.444l.576-1.253.602 1.253h-1.179zM50.723 28.978c-.008-.291-.029-2.978-.029-2.978H52v4h-2.417L48 27.023V30h-1.337v-4h2.467s1.47 2.734 1.593 2.978z" fill="#002A5C"/><path d="M4 24.997h48V24H4v.997zM4 32h48v-.997H4V32z" fill="#910027"/></svg>