<!-- by TradingView --><svg width="56" height="56" fill="none" xmlns="http://www.w3.org/2000/svg"><path fill="#F0F3FA" d="M0 0h56v56H0z"/><path d="M32 37v-7h-8v7h-5.194a.8.8 0 01-.57-.255.878.878 0 01-.236-.601V29h-6v9.353c0 .967.367 1.895 1.02 2.579A3.404 3.404 0 0015.482 42h25.031c.924 0 1.81-.384 2.463-1.068a3.737 3.737 0 001.02-2.58V29H38v7.144a.877.877 0 01-.24.605.799.799 0 01-.577.251H32z" fill="#231F20"/><path d="M24 26v-7h-5.183a.799.799 0 00-.578.25.877.877 0 00-.239.606V27h-6v-9.355c0-.479.09-.953.265-1.395.175-.443.432-.845.755-1.183a3.473 3.473 0 011.13-.79A3.344 3.344 0 0115.482 14h25.036c.457 0 .91.094 1.332.277.423.183.807.451 1.13.79.323.338.58.74.755 1.183.175.442.265.916.265 1.395V27h-6v-7.144a.877.877 0 00-.24-.605.799.799 0 00-.577-.251H32v7h-8z" fill="#00ABC8"/></svg>