<!-- by TradingView --><svg width="56" height="56" fill="none" xmlns="http://www.w3.org/2000/svg"><path fill="#43B02A" d="M0 0h56v56H0z"/><path d="M38.237 19.883c-2.831-2.939-5.795-5.76-8.557-8.765-.374-.406-.974-.953-1.825-.953-.825 0-1.422.51-1.854.956-2.71 2.838-5.545 5.554-8.214 8.431-2.58 2.778-4.025 6.265-4.07 9.829-.006 4.059 1.725 7.913 4.881 10.87 5.534 5.157 14.318 5.05 19.644-.428 5.278-5.416 5.327-14.482-.005-19.937v-.003zM20.321 40.018C10.27 32.19 22.08 18.317 27.987 11.51c-.686 1.007-18.518 27.524 3.123 30.901-3.74.843-7.767-.026-10.789-2.394zm19.346-4.407c-1 2.029-2.53 3.778-4.401 5.016-22.983-2.005-7.72-28.05-7.268-29.113-.265 1.19-10.414 25.457 11.67 24.097zm-2.306-5.621c-2.487.216-5.165-.624-7.15-2.154 2.19.21 4.339.752 6.537.882-.803-1.652-1.65-3.369-2.476-5.038-1.988-.59-3.963-1.467-5.643-2.698 1.717.309 3.39.892 5.03 1.474-1.838-3.67-3.813-7.272-5.643-10.946 2.442 3.523 4.612 7.282 6.839 10.94.47-.887.992-1.752 1.594-2.556-.22 1.169-.63 2.328-1.067 3.43.912 1.504 1.83 3.033 2.709 4.516.4-.821.842-1.615 1.344-2.377a22.453 22.453 0 01-.709 3.461c.72 1.222 1.399 2.395 2.022 3.476-.197.982-.47 1.971-.88 2.881" fill="#fff"/></svg>