<!-- by TradingView --><svg xmlns="http://www.w3.org/2000/svg" width="56" height="56"><path fill="#FD6347" d="M0 0h56v56H0z"/><path fill-rule="evenodd" d="M4 23h2v3.03h4V23h2v9h-2v-4H6v4H4v-9zm11.18 9.01L12.52 26h2.04l1.57 3.9 1.38-3.9h1.93l-3.01 7.53c-.75 1.8-2.8 1.58-3.77 1.24l.27-1.55c1.28.4 1.85-.17 1.98-.51l.27-.7zM22 32v-3.63c.27-.53.93-1 2.32-.68v-1.64c-.54-.12-1.69-.1-2.32.82V26h-2v6h2zm27.68-3.63V32h-2v-6h2v.87c.63-.91 1.78-.94 2.32-.82v1.64c-1.39-.31-2.05.15-2.32.68zm-21.2-2.57c2.63.02 2.98 2.53 2.83 3.77H27c0 .48.52 1.23 1.49 1.2.77-.03 1.2-.77 1.2-.77l1.28.98a3.24 3.24 0 01-2.48 1.25c-3.18 0-3.49-2.57-3.49-3.13 0-.57.2-3.34 3.49-3.3zm-.22 1.35c-.96-.01-1.22.74-1.26 1.13h2.37c0-.39-.15-1.12-1.11-1.13zM39.7 30.5a4.37 4.37 0 01-3.28 1.5A4.46 4.46 0 0132 27.5c0-2.49 1.98-4.5 4.42-4.5 1.2 0 2.3.5 3.1 1.29l-1.43 1.22a2.22 2.22 0 00-1.7-.84c-1.32 0-2.39 1.27-2.39 2.83s1.07 2.83 2.4 2.83c.7 0 1.34-.37 1.78-.95l1.52 1.13zm4-4.68c-1.46 0-2.46.68-2.83 1.04l1.07.93c.18-.24.76-.72 1.64-.7.7.02.92.5.92 1.1-.2 0-.6.01-1.62.07-1.26.08-2.35.86-2.38 1.94-.04 1.07.9 1.96 2.28 1.96 1.1 0 1.53-.43 1.72-.72v.58h2v-3.35c0-2.15-1.24-2.85-2.8-2.85zm.8 4.07v-.53h-.69c-.83 0-1.11.33-1.23.53-.2.33-.1 1 .75 1 .9 0 1.15-.7 1.17-1z" fill="#fff"/></svg>