<!-- by TradingView --><svg xmlns="http://www.w3.org/2000/svg" width="56" height="56"><path fill="#F0F3FA" d="M0 0h56v56H0z"/><path fill-rule="evenodd" d="M7 24l-3 5.5h1.36l2.45-4.33-.82 4.33h1.3l4.16-4.33-2.42 4.33h1.45l.84-1.5h1.34l.81-.81h1.94l-.06.8h2.26l.83-1.54h1.08c.36-.02.34.23.28.36L20.34 28h1.4c-.08-.06-.07-.24-.06-.32.05-.16.18-.6.34-1.04.17-.43-.11-.58-.28-.6.58-.07 1.52-.69 1.47-1.36-.04-.53-.72-.68-1.03-.68h-2.6l-1.93 3.52.24-3.52h-1.54l-3.98 3.9 2.19-3.9h-2.33l-3.62 3.86.8-3.86H6.98zm29.12 0l-2.99 5.5h1.36l2.45-4.33-.82 4.33h1.3l4.16-4.33-2.42 4.33h2.73l.82-.81h1.94l-.06.81h1.53l1.96-1.42.34 1.42h1.48l-.71-2.01L52 25.5h-1.5l-1.67 1.21-.32-1.21h-1.48l.7 1.82-1.88 1.27.27-3.09H44.6l-3.85 3.78L43.69 24h-2.33l-3.61 3.86.79-3.86h-2.42zm8.62 3.94l.18-1.49-1.51 1.49h1.33zm-28.23-1.5l.17-1.49-1.5 1.49h1.33zm3.3-.7l.53-.96h1.07c.14 0 .39.08.36.29-.04.25-.31.67-1.19.67h-.76zM24.28 24h1.19l-2.17 4h-1.2l2.18-4zm1.91 0L24 28h1.15l1.69-3.07.3 3.07h1.64l2.18-4H29.8l-1.63 3-.28-3h-1.71zm9.22 0h-3.58l-2.18 4h3.65l.4-.74h-2.4l.53-.96h2.32l.42-.7h-2.38l.43-.83h2.35l.44-.77z" fill="#F13526"/><path d="M15.47 30.8A57.06 57.06 0 017.2 34h42.2l-23.43-1.45c-1.54-.14-4.54-.76-4.25-2.07.3-1.3 2.7-1.55 3.86-1.51-.44-.73-4.8-.58-10.11 1.84z" fill="#00529C"/></svg>