<!-- by TradingView --><svg width="56" height="56" xmlns="http://www.w3.org/2000/svg"><path fill="#F37B24" d="M0 0h56v56H0z"/><path d="M28 33c-14.829.05-23.94 3-23.94 3-.032.001-.058-.028-.06-.066-.002-.033.018-.063.046-.07C11.777 33.011 19.994 32 28 32c8.006 0 16.226 1.013 23.96 3.865.025.01.041.038.039.07 0 .017 0 .042-.038.065.015 0-.012.012 0 0 0 0-9.132-3.05-23.961-3zM47 25c1.809 0 3 .8 3 3 0 2.11-1.334 3-3 3s-3-.889-3-3c0-2.196 1.189-3 3-3zm0 5c.886-.027 1-1.082 1-2 0-.918-.08-2.007-1-2-.92.007-1 1.073-1 2s.114 2.027 1 2zm-8.566-2.019c0-2.003 1.286-2.981 3.136-2.981a7.88 7.88 0 011.868.186l.01 1.288c-.382-.031-.857-.086-1.26-.086-1.21 0-1.785.54-1.785 1.593s.585 1.641 1.795 1.641c.579 0 .869-.077 1.24-.11v1.313a7.341 7.341 0 01-1.623.174c-1.933 0-3.381-.81-3.381-3.018zM38 28c0 2.11-1.334 3-3 3s-3-.889-3-3c0-2.2 1.166-3 2.974-3 1.808 0 3.026.802 3.026 3zm-4 0c0 .926.092 2.007 1 2 .908-.007 1-1.101 1-2.019 0-.918-.069-1.981-1-1.981s-1 1.083-1 2zm-7-1.07V31h-2v-8h2v2.572c.613-.31 1.3-.572 2.15-.572.759 0 1.85.754 1.85 2.06V31c.008 0-.008 0 0 0h-2v-3.271c-.003-.188.007-.405 0-.55 0 0-.163-.453-.889-.453-.342.01-.787.079-1.11.205zM22.4 31c-1.934 0-3.4-.788-3.4-2.999 0-2.003 1.287-3 3.14-3a7.83 7.83 0 011.86.217v1.257c-.384-.032-.824-.087-1.228-.087-1.21 0-1.77.497-1.772 1.613-.001 1.116.561 1.654 1.772 1.654.579 0 .855-.054 1.228-.088v1.259a7.16 7.16 0 01-1.6.174zm-3.902-4.028v3.845s-1.655.183-2.659.183c-1.137 0-3 .086-3-1.886 0-1.928 2.194-1.778 3.745-1.778-.01-.72-.083-1.098-1.312-1.098-.638.012-1.643.196-2.273.307v-1.278c.794-.132 1.965-.262 2.768-.266 1.272 0 2.73.214 2.73 1.97zm-1.883 2.874v-1.421c-.165-.01-.683-.01-.817-.01-.517 0-1.034.044-1.034.742 0 .712.518.755 1.034.755.273 0 .546-.022.817-.066zm-5.936-3.137s1.569.54 1.569 2.221c0 1.705-1.8 2.071-2.877 2.071l-3.057-.002c-.176-.003-.317-.252-.315-.451v-7.165c0-.198.115-.38.29-.384L9.086 23h.629S12 22.954 12 24.9c0 1.392-1.224 1.649-1.631 1.757 0-.004.14.02.31.05zM8 24.552v1.157c-.003.2.134.287.31.291h.232c.21-.005.419-.018.625-.059 0 0 .704-.07.704-.802s-.33-.95-1.003-.95h-.543c-.175.003-.325.165-.325.363zm1.338 5.111s.662-.17.662-.951c0-.778-.247-1.016-.97-1.016h-.72c-.176.003-.317.167-.315.366v1.306c0 .198.14.36.315.363h.403c.21-.004.419-.027.625-.068z" fill="#fff"/></svg>