<!-- by TradingView --><svg width="56" height="56" xmlns="http://www.w3.org/2000/svg"><path fill="#214B19" d="M0 0h56v56H0z"/><path d="M11 26H9v-.44h2c.787 0 1.508-.051 2-.56v10.592h2V36H9v-.408h2V26zm21 0h-2v-.44h2c.786 0 1.508-.051 2-.56v10.592h2V36h-6v-.408h2V26zm-20.5-7c.823 0 1.5.676 1.5 1.5 0 .823-.677 1.5-1.5 1.5-.824 0-1.5-.677-1.5-1.5 0-.824.676-1.5 1.5-1.5zm11.07 16.591H20v-8.95h1.868c2.666 0 5.132 1.433 5.132 4.296 0 2.99-1.974 4.654-4.43 4.654zM20 18.409h1.822c3.414 0 4.678 2.493 4.678 3.849 0 3.476-2.223 3.975-4.35 3.975H20v-7.824zm3.856 8.08v-.052c1.683-.178 4.644-.536 4.644-4.448 0-2.072-1.885-3.989-5.368-3.989H16v.409h2v17.182h-2V36h7.997C26.194 36 29 34.619 29 31.168c0-3.248-2.595-4.45-5.144-4.68zM46 31.466c0 2.156-.595 4.139-3.5 4.139-2.906 0-3.5-1.983-3.5-4.138v-1.933c0-2.156.594-4.138 3.5-4.138 2.905 0 3.5 1.982 3.5 4.138v1.933zM42.5 25c-3.347 0-5.5 2.651-5.5 5.5s2.153 5.5 5.5 5.5 5.5-2.65 5.5-5.5-2.153-5.5-5.5-5.5z" fill="#fff"/><path d="M38 15.276A8.265 8.265 0 0035.937 15h-.042c-4.753.013-7.555 4.534-4.82 7.716.453-5.026 4.008-5.904 4.013-5.894-1.252 1.154-2.927 1.657-3.253 5.95V23h.518c7.322-.675 2.583-5.294 5.647-7.724z" fill="#8CB143"/></svg>