<!-- by TradingView --><svg width="56" height="56" xmlns="http://www.w3.org/2000/svg"><path fill="#F0F3FA" d="M0 0h56v56H0z"/><path d="M17 19H8v3c1.78-.188 1.968 1.197 2 1.68.01 3.52.025 7.524 0 8.6-.025 1.077-1.237 1.754-2 1.72v3h9v-3c-1.857.027-2.042-1.293-2-1.72v-8.6c0-1.158 1.269-1.758 2-1.68v-3z" fill="#A0ADE5"/><path d="M16 20H9v1c1.238-.168 1.978.967 2 1.395.007 3.13.018 10.219 0 11.176-.018.957-1.47 1.459-2 1.429v1h7v-1c-1.29.024-2-1.001-2-1.43V22.396c0-1.028 1.492-1.465 2-1.395v-1z" fill="#003E7D"/><path d="M27.08 19.01H18V22c1.836-.14 2 1.468 2 1.955v8.063c0 1.42-1.235 2.028-2 1.982v3h10.175c2.262 0 5.79-1.6 5.825-5.22.027-2.895-2.044-4.175-3.084-4.454 1.919-1.03 2.216-3.12 2.124-4.036 0-3.675-3.974-4.385-5.96-4.28z" fill="#A0ADE5"/><path d="M27 20h-8v1c1.607-.124 2 1.13 2 1.563v10.785c0 1.26-1.33 1.693-2 1.652v1h8.904c1.978 0 5.066-1.421 5.096-4.634.024-2.57-2.856-3.786-3.765-4.033C31.113 26.588 32 25.441 32 23.5 32 20.236 28.753 20 27 20z" fill="#003E7D"/><path d="M43.654 19.008H34V22c1.808 0 1.98 1.264 2 1.75.02 3.398.046 7.23 0 8.54-.046 1.312-1.253 1.78-2 1.71v3h9v-3c-1.908.073-2.029-1.203-2-1.71v-3.24h3.17c1.562.152 4.712-.625 4.827-4.945.115-4.32-3.514-5.199-5.343-5.098z" fill="#A0ADE5"/><path d="M43.366 20H35v1c1.554-.13 1.975.936 1.992 1.367.017 3.021.04 10.066 0 11.232-.04 1.165-1.345 1.464-1.992 1.401v1h7v-1c-1.653.065-2.025-.952-2-1.401V28h3.653c1.388 0 4.263-.474 4.347-3.732.1-3.841-3.014-4.261-4.634-4.268z" fill="#003E7D"/><path d="M40 22.031v4.894c3.404.492 4-1.556 4-2.703 0-.942-.157-2.842-1.803-3.153-1.647-.312-2.15.512-2.197.962z" fill="#A0ADE5"/><path d="M41 22.683v3.263c1.702.327 2-1.038 2-1.802 0-.628-.079-1.895-.902-2.103-.823-.207-1.075.342-1.098.642z" fill="#F0F3FA"/><path d="M24 33.56V28h1.5c3.031.131 3.59 2.62 3.49 3.847-.046.9-.606 2.777-2.482 3.096-1.875.32-2.453-.79-2.508-1.383z" fill="#A0ADE5"/><path d="M25 32.974V29h.9c1.819.094 2.154 1.872 2.094 2.75-.028.642-.364 1.985-1.489 2.213-1.125.228-1.472-.564-1.505-.99z" fill="#F0F3FA"/><path d="M24 22.044v4.914c1.718.195 2.634-.332 2.878-.62 1.919-1.616.965-4.294.16-4.782-1.992-1.204-2.855-.177-3.038.488z" fill="#A0ADE5"/><path d="M25 22.691v3.277c.859.13 1.317-.222 1.439-.414.96-1.077.483-2.863.08-3.187-.996-.803-1.428-.118-1.519.324z" fill="#F0F3FA"/></svg>