<!-- by TradingView --><svg width="56" height="56" xmlns="http://www.w3.org/2000/svg"><path fill="#008294" d="M0 0h56v56H0z"/><path d="M47 39.262C46.798 40.782 45.485 42 43.97 42H10.035c-1.717 0-3.03-1.319-3.03-3.042V17.045c0-1.724 1.313-3.044 3.03-3.044H43.97A3.045 3.045 0 0147 17.046v22.217z" fill="#F6F8FD"/><path d="M44.072 25.304L47 27.044V38h-9.292c-3.636 0-12.237-10.997-15.873-10.997H7l.005-1.801.607-.205c.303-.204.303-.102.505 0l.505.205c.403.204.504.204.909 0l4.645-1.946c.405-.204.405-.102.606 0l.506.512c.202.102.202.102.303 0l.605-.41c.1-.102.202-.102.303 0l.606.41c.101.102.202.102.304 0l.808-.82c.202-.204.202-.102.707-.102.202 0 .202-.102.303-.204l1.818-1.639c.302-.204.404-.204.504 0l.405.717c.202.205.302.102.707-.204l1.414-.82c.201-.204.201-.102.303 0 .303.205.303.41.707.205l.303-.308c.101-.102.101 0 .101.102l1.716 1.844c.101.102.101.102.202 0l.202-.103c.202-.204.202-.102.304 0l3.03 2.458c.1.102.302.102.504-.41l1.213-2.56c.201-.41.302-.307.707.102l3.13 2.867c.202.102.304.205.506.102l.404-.41c.101-.102.202-.102.202 0l.707.512c.303.205.303.102.505.102l.304-.307c.1-.102.1-.102.302 0l.606.41c.202.102.202.102.404-.103l1.01-.921c.101-.102.202-.205.505 0l1.313.921c.1.103.201.103.302.103.303-.1.202-.203.505.002z" fill="#20A64B"/><path d="M40.435 22.116L47 25.87v-8.826A3.045 3.045 0 0043.97 14H10.035c-1.717 0-3.03 1.319-3.03 3.043v5.884l1.616-.609c.505-.202.606-.304 1.01-.101l.405.101c.606.203.404.203 1.11 0l5.252-2.13c1.01-.406.808-.406 1.313-.203l.202.102c.505.101.404.203 1.313-.407l5.353-4.361c1.313-1.117 1.01-1.015 2.424 0l4.445 3.347c.505.406.404.305.707.305.303-.203.1-.203.505.101l5.05 3.753c.606.407.606.407 1.212 0l1.01-.71c.3-.202.2-.1.503.002zM47 39.04c0 1.697-1.515 2.96-3.03 2.96H10.035c-1.717 0-3.03-1.318-3.03-3.042L7 28h9.76C20.698 28 28.264 39.039 32 39.039h15z" fill="#008294"/></svg>