<!-- by TradingView --><svg width="56" height="56" xmlns="http://www.w3.org/2000/svg"><path fill="#00839D" d="M0 0h56v56H0z"/><path d="M26 30.89v-4.734c0-.136-.121-.156-.172-.158h-.668a.157.157 0 00-.159.158v2.508c0 .117-.1.082-.175 0l-2.596-2.56c-.177-.184-.23-.068-.23 0v4.73c0 .15.08.161.123.161h.778c.1-.007.104-.11.099-.16-.003-.857-.007-2.14 0-2.348.007-.208.146-.13.209-.065l2.593 2.532c.137.119.198 0 .198-.065zm-11.127-4.885h-2.736c-.12 0-.137.102-.137.152v4.708c0 .115.11.14.165.139h2.643c.154.012.192-.087.192-.139v-.71c0-.11-.135-.148-.192-.154h-1.703c-.103 0-.103-.106-.101-.138v-.767c0-.08.081-.096.122-.103l1.703.007c.153.003.17-.106.17-.15v-.708c0-.115-.113-.142-.17-.141h-1.703c-.095 0-.12-.047-.122-.07v-.785c.008-.11.085-.14.122-.141 0 0 1.637.003 1.747 0 .11-.003.127-.06.127-.103v-.745c.003-.126-.08-.152-.127-.152z" fill="#fff"/><rect x="5" y="25" width="1" height="6" rx=".2" fill="#fff"/><rect x="40" y="26" width="1" height="5" rx=".2" fill="#fff"/><path fill-rule="evenodd" d="M18.663 26.077l2.305 4.72c.036.063.072.193-.073.2-.145.006-.626.002-.762 0-.045.01-.149.001-.2-.126L19.499 30h-1.895l-.517.871c-.024.042-.094.125-.181.125h-.79c-.07 0-.18-.056-.064-.283l2.35-4.636c.042-.058.155-.14.262 0zm-.08 1.88l.4.917c.02.04.034.121-.07.125-.106.003-.622 0-.866 0-.028-.006-.073-.038-.028-.125.044-.087.286-.648.4-.917.011-.03.043-.084.087-.08.041.002.057.037.073.072l.004.008zM29.5 31a2.5 2.5 0 100-5 2.5 2.5 0 000 5zm0-1a1.5 1.5 0 100-3 1.5 1.5 0 000 3z" fill="#fff"/><path d="M34.044 26.133l-1.04 4.676c-.032.143.067.184.121.187h.681a.2.2 0 00.194-.132l.37-1.92c.06-.158.209-.082.236 0l1.268 1.986c.079.12.196.063.24 0l1.355-1.985c.094-.148.195-.072.218 0 .14.764.298 1.82.318 1.92.02.1.093.13.126.133h.734c.155-.024.154-.135.135-.187a1056.57 1056.57 0 01-.938-4.678c-.008-.057-.064-.133-.146-.133-.081 0-.115.064-.151.133 0 0-1.572 2.798-1.651 2.932-.08.133-.164.055-.196 0l-1.548-2.843c-.057-.105-.11-.23-.192-.222-.082.009-.12.073-.134.133zm11.88.203c.053.04.076.097.076.15v.86c0 .11-.137.104-.238.028-.288-.215-.65-.374-1.23-.374s-1.56.39-1.532 1.507c.029 1.117.978 1.486 1.61 1.494a1.88 1.88 0 001.152-.377c.162-.104.237.028.238.086v.83c0 .062-.025.12-.076.147a2.578 2.578 0 01-1.315.31c-2.14-.13-2.609-1.373-2.609-2.49 0-2.17 1.85-2.517 2.644-2.507.865.011 1.214.286 1.28.336zM48.633 26c.626.009 1.032.471 1.157.701.062.096.026.151 0 .167l-.507.445c-.114.061-.164-.02-.208-.089l-.001-.002a.557.557 0 00-.416-.225c-.468 0-.658.24-.658.45 0 .179.094.329 1.074.723 1.06.426.92 1.155.926 1.349.006.193-.21 1.48-1.434 1.48-1.225 0-1.487-1.057-1.549-1.226-.05-.136.02-.226.062-.254.105-.018.485-.177.617-.198.133-.021.176.093.181.153.123.526.533.542.689.526.155-.016.434-.117.434-.569 0-.452-.543-.616-.946-.746-.295-.113-1.038-.54-1.054-1.197-.02-.82.512-1.503 1.633-1.488z" fill="#fff"/><path d="M7.133 26h1.333c.777-.01 2.37.46 2.528 2.423.064.796-.391 2.372-2.528 2.574H7.133c-.046-.002-.137-.032-.133-.145.005-.113.002-3.195 0-4.722 0-.043.026-.13.133-.13zm.868 1.134v2.708c-.008.055.016.163.178.158h.38c.494-.032 1.475-.381 1.44-1.518-.034-1.137-.974-1.462-1.44-1.482h-.38c-.061 0-.178.017-.178.134z" fill="#fff"/></svg>