<!-- by TradingView --><svg xmlns="http://www.w3.org/2000/svg" width="56" height="56"><path fill="#F0F3FA" d="M0 0h56v56H0z"/><path d="M28 18a3.5 3.5 0 10-.01-7.01A3.5 3.5 0 0028 18z" fill="#0075C9"/><path d="M33.77 13.16c.12.48.2.98.2 1.5 0 .8-.26 1.92-.56 2.62 3.9 2 6.59 5.92 6.59 10.8a12 12 0 01-6 10.33V22.96A1.94 1.94 0 0032 21h-2v23c.77-.1 1.2-.22 1.98-.42a16 16 0 001.8-30.42z" fill="#CADB2B"/><path d="M22.28 13.14a16 16 0 001.42 30.35l.07.02.27.07.06.02.27.06.08.02.26.06h.04c.55.13.76.18 1.25.26V21h-1.96c-.55 0-1.03.19-1.41.57-.39.4-.63.86-.63 1.42V38.4c-3.34-1.9-6-5.63-6-10.33 0-4.9 2.59-8.67 6.63-10.81-.3-.7-.55-1.8-.55-2.62 0-.52.07-1.03.2-1.51z" fill="#0075C9"/></svg>