<!-- by TradingView --><svg width="56" height="56" xmlns="http://www.w3.org/2000/svg"><path fill="#FFC62E" d="M0 0h56v56H0z"/><path d="M44.76 29.582h-5.144c.095.864.68 1.526 1.807 1.526.69.02 1.355-.279 1.834-.824l1.37 1.538c-.703.87-1.818 1.4-3.197 1.4-2.626 0-4.17-1.662-4.17-4.34 0-2.474 1.49-4.273 3.85-4.273 2.361 0 3.733 1.58 3.733 3.934.007.349-.02.697-.083 1.04zM42.562 28c-.052-.844-.563-1.42-1.443-1.42-.88 0-1.39.57-1.499 1.42h2.942zm6.097 5.214c-1.131 0-2.515-.325-3.536-1.393l1.306-1.542c.603.622 1.398.97 2.225.977.798 0 1.145-.227 1.145-.575 0-.264-.173-.414-.61-.557-.381-.125-.981-.235-1.488-.398-1.1-.353-2.192-.855-2.192-2.56-.003-1.577 1.17-2.544 3.13-2.544 1.084 0 2.307.242 3.336 1.243l-1.32 1.503c-.578-.61-1.383-.83-2.035-.83-.59 0-.916.227-.916.543 0 .263.174.417.619.576.386.135 1.026.268 1.53.425 1.054.327 2.147.82 2.147 2.442.005 1.814-1.392 2.69-3.34 2.69zM13.381 25.19c-.58-.742-1.436-1.155-2.327-1.123-.966 0-1.47.381-1.47.924 0 .736.762.99 2.223 1.44 1.605.497 3.427 1.057 3.427 3.378 0 2.32-1.757 3.393-3.98 3.393-1.875 0-3.406-.587-4.39-2.046l1.71-1.556c.652.962 1.643 1.355 2.652 1.355 1.2 0 1.638-.458 1.638-.954 0-.72-.695-.896-2.379-1.41-1.732-.53-3.236-1.262-3.236-3.51 0-1.973 1.472-3.257 3.88-3.257 1.53 0 2.932.445 3.944 1.83l-1.692 1.536zm18.314 5.923v1.723c-.428.18-.883.27-1.34.268-.63 0-1.263-.216-1.56-1.017-.494.61-1.419 1.078-2.467 1.078-1.529 0-2.512-.857-2.512-2.49 0-1.597 1.179-2.552 3-2.552a6.81 6.81 0 011.794.244v-.266c0-.915-.481-1.456-1.478-1.456a2.726 2.726 0 00-1.817.795l-1.251-1.556c.746-.742 1.958-1.294 3.357-1.294 2.155 0 3.456 1.138 3.456 3.27v2.847c0 .306.14.458.44.458.13 0 .257-.018.382-.052h-.005zm-3.084-1.393a5.18 5.18 0 00-1.279-.181c-.787 0-1.176.424-1.176 1.005 0 .55.345.95 1.05.95.749 0 1.405-.492 1.405-1.237v-.537zm8.936-4.473a1.422 1.422 0 00-1.155-.53c-.755 0-1.377.515-1.783 1.295V25h-2.003v7.999h2.003v-4.355c0-1.004.643-1.557 1.227-1.557.285-.006.564.093.792.281l.92-2.12zM4 22v1.999h2V22H4zm0 3v8.002l2-.003V25H4zm19.046 7.999V27.52c0-1.81-1.07-2.81-2.465-2.81-.903-.012-2.046.455-2.581 1.253v-3.952h-1.994V33H18v-4.563c0-1.78 3-1.979 3-.03V33h2.046z" fill="#000"/></svg>