<!-- by TradingView --><svg width="56" height="56" xmlns="http://www.w3.org/2000/svg"><path fill="#F0F3FA" d="M0 0h56v56H0z"/><path d="M15.581 23.265l5.684-1.93c-2.565 2.808-7.742 9.64-7.926 14.507-.183 4.867 4.107 7.154 6.275 7.69-5.05-1.148-7.575-4.017-7.614-8.952-.03-3.948 3.046-8.826 4.588-10.77l-1.007-.545z" fill="#02A75A"/><path d="M39.938 21.848l-1.077 5.905c-1.207-3.607-4.66-11.453-8.823-13.98-4.164-2.526-8.249.11-9.77 1.744 3.457-3.855 7.193-4.666 11.524-2.3 3.465 1.893 6.231 6.953 7.18 9.246l.966-.615z" fill="#EB3136"/><path d="M28.269 43.94l-4.64-3.81c3.74.697 12.275 1.488 16.506-.925 4.23-2.413 3.909-7.264 3.22-9.388 1.69 4.895.586 8.554-3.586 11.192-3.337 2.11-9.103 2.071-11.57 1.788l.07 1.143z" fill="#274480"/><path d="M22.866 20.73l2.64-.88-.536 1.76c-1.913 1.76-8.493 9.144-8.914 14.538-.337 4.316 3.507 6.568 5.47 7.155-6.213-1.378-7.358-5.548-7.154-7.46.306-5.51 5.79-12.37 8.494-15.113z" fill="#02A75A"/><path d="M38.611 29.446l-.514 2.734-1.278-1.323c-.608-2.528-3.86-11.868-8.37-14.859-3.607-2.392-7.444-.128-8.911 1.303 4.224-4.76 8.425-3.733 9.997-2.625 4.666 2.946 7.995 11.074 9.076 14.77z" fill="#EB3136"/><path d="M22.271 39.09l-2.14-1.777 1.777-.474c2.504.696 12.249 2.387 17.053-.102 3.843-1.992 3.727-6.446 3.189-8.424 2.11 6.005-.828 9.178-2.56 10.015-4.841 2.648-13.563 1.612-17.319.762z" fill="#274480"/><path d="M16.936 36.57c.03-4.561 5.062-10.955 7.575-13.582l-1.799 5.853-.841-.574c-2.602 3.367-3.405 6.938-3.482 8.302-.183 3.948 3.189 5.88 4.897 6.351-5.57-1.163-6.555-4.718-6.35-6.35z" fill="#02A75A"/><path d="M27.654 16.563c3.97 2.244 7.11 9.75 8.185 13.223l-4.24-4.418.91-.456c-1.677-3.91-4.407-6.349-5.562-7.079-3.36-2.08-6.688-.073-7.93 1.191 3.724-4.302 7.31-3.433 8.637-2.461z" fill="#EB3136"/><path d="M38.854 35.767c-3.89 2.381-11.977 1.482-15.534.735l5.92-1.563-.042 1.018c4.232.433 7.69-.77 8.888-1.425 3.45-1.928 3.31-5.81 2.81-7.511 1.952 5.345-.548 8.058-2.042 8.746z" fill="#274480"/></svg>