<!-- by TradingView --><svg width="56" height="56" fill="none" xmlns="http://www.w3.org/2000/svg"><path fill="#F0F3FA" d="M0 0h56v56H0z"/><path fill-rule="evenodd" clip-rule="evenodd" d="M11 29h7v.291h-1.029a.971.971 0 00-.971.972v8.474c0 .537.435.972.971.972H18V40h-7v-.291h1.029a.971.971 0 00.971-.972v-8.474a.971.971 0 00-.971-.972h-1.03V29zm14.832 0c-3.616 0-6.332 2.465-6.332 5.506 0 3.743 3.246 5.482 6.727 5.494 1.467.005 2.784-.2 4.773-1.066v-2.74a.9.9 0 01.904-.919h.467V35h-5.774v.275h.467c.517 0 .936.411.936.918v2.833c-.461.267-1.121.312-1.773.32-2.611 0-3.727-2.354-3.727-4.909 0-2.711 1.466-4.91 3.79-4.91 1.887 0 3.894 1.479 4.43 3.473H31v-3.702h-.28s-.227 1.042-1.78.346A7.675 7.675 0 0025.832 29zM34 34.5c0-3.04 2.669-5.5 6.111-5.5 1.058 0 2.055.233 2.928.644 1.479.696 1.694-.346 1.694-.346H45V33h-.267c-.51-1.993-2.39-3.473-4.185-3.473C38.334 29.527 37 31.79 37 34.5c0 2.614 1.001 4.846 3.548 4.846 1.97 0 3.65-1.216 4.452-2.146v.85c-1.158 1-2.611 1.955-4.452 1.95C37.209 39.99 34 38.24 34 34.5z" fill="#130F88"/><path d="M42.571 11.5C39.657 20.243 26.543 27.14 24.6 28.112c1.295 0 3.4 0 5.343.874 4.857-2.429 12.143-9.229 13.405-15.057l-.777-2.429z" fill="#DB0026"/><path d="M44.709 18.689c-1.458 3.788-6.51 8.84-8.452 10.491.81-.388 2.914-1.165 4.469-1.165 1.133-1.296 3.497-4.47 4.274-6.8l-.291-2.526z" fill="#130F88"/><path fill-rule="evenodd" clip-rule="evenodd" d="M21.63 12.078l.792.795.876-.259-.27.998.644.957-.96-.178-.478.85-.322-1.107-.94-.432.76-.506-.102-1.118zm-1.076 4.091l-.786-1.14-.322 1.347-1.327.395 1.18.723-.034 1.384 1.052-.9 1.306.46-.53-1.278.84-1.1-1.38.11zm-5.637 1.144L17 19.78l3.147.1-1.602 2.78.92 3.124-3.072-.75-2.58 1.83-.296-3.243-2.514-1.994 2.889-1.253 1.025-3.062zm8.118 2.444l1.354 1.944 2.36-.199-1.43 1.888.918 2.183L24 24.797l-1.793 1.548.047-2.368-2.026-1.227 2.267-.687.54-2.306zm2.954-1.933l-.584-.843-.237.998-.982.294.875.534-.023 1.026.778-.668.968.34-.395-.948.622-.815-1.022.082z" fill="#130F88"/></svg>