<!-- by TradingView --><svg width="56" height="56" xmlns="http://www.w3.org/2000/svg"><path fill="#004793" d="M0 0h56v56H0z"/><circle cx="28" cy="28" r="16.004" fill="#fff"/><path d="M22.502 12.835c7.216-2.318 13.31.687 15.507 2.71 0 1.307.045 4.276-.142 6.376-.187 2.1-1.436 5.912-2.258 7.31l-.822-12.459-1.056 13.477-5.987-6.072 4.265 7.208-11.857-2.82 11.075 4.622-10.8 3.996 10.334-2.066c-3.248 3.588-10.269 4.768-13.348 4.885-5.453-4.576-5.757-11.438-5.27-14.344.303-3.262 2.8-10.394 10.359-12.823z" fill="url(#paint0_linear)"/><path d="M33.79 42.924c-6.945 2.67-13.233-.14-15.168-1.947 4.996 0 10.553-2.904 13.076-4.988l-3.957 5.763 6.05-5.763v6.935zM35.255 42.29l.243-6.204 3.464 3.566c-1.17 1.29-2.96 2.295-3.707 2.637zM39.731 38.874l-2.428-3.95 4.419 1.289c-.405.883-1.437 2.118-1.99 2.661zM43.705 31.05l-5.718 2.074 4.396 1.893c.576-.937 1.157-3.035 1.322-3.967zM37.4 31.32l6.53-1.307c.73-7.672-3.172-12.307-4.93-13.621.396 6.383-1.134 11.398-2.14 12.9l4.999-4.868L37.4 31.32z" fill="#0078C1"/><defs><linearGradient id="paint0_linear" x1="17.444" y1="15.801" x2="33.703" y2="31.819" gradientUnits="userSpaceOnUse"><stop stop-color="#FDE934"/><stop offset=".442" stop-color="#FF9A2E"/><stop offset="1" stop-color="#FA4F2B"/></linearGradient></defs></svg>