<!-- by TradingView --><svg width="56" height="56" xmlns="http://www.w3.org/2000/svg"><path fill="url(#paint0_linear)" d="M0 0h56v56H0z"/><path d="M28 47c2.867-2.315 13-7.46 13-19S30.866 11.352 28 9.037C25.167 11.352 15.036 16.46 15.036 28c-.038 11.54 10.131 16.685 12.962 19z" fill="#fff"/><path d="M28 44.06V11.756c3.39 2.573 10.579 6.689 10.579 16.391 0 9.335-7.264 13.671-9.797 15.362-.558.367-.782.551-.782.551z" fill="url(#paint2_linear)"/><path d="M28 11.756V44.06c-.782-.809-10.616-5.219-10.616-15.913 0-9.702 7.301-13.928 10.616-16.39z" fill="url(#paint3_radial)"/><path d="M28 45.677C25.318 43.472 16.192 38.915 16.192 28c0-10.952 9.126-15.509 11.808-17.714V9c-2.831 2.315-13 7.424-13 18.963 0 11.54 10.169 16.685 13 19v-1.286z" fill="#A28347"/><path d="M28.037 45.712c2.674-2.207 11.774-6.768 11.774-17.694 0-10.962-9.1-15.523-11.811-17.73V9c2.86 2.318 13 7.43 13 18.982 0 11.55-10.14 16.7-12.963 19.018v-1.288z" fill="url(#paint4_linear)"/><path d="M23.239 37.773v-.378L23 37.13V38l.239-.227z" fill="#D6BF77"/><path d="M33 38H23l.239-.227h9.521L33 38z" fill="url(#paint5_linear)"/><path d="M23 19.02l.239-.302s3.037-.038 3.037 4.197v10.548c-.034 1.059-.375 3.743-3.003 3.932l-.239-.302s2.97.226 2.97-4.084V22.84s.033-3.818-3.004-3.818z" fill="url(#paint6_linear)"/><path d="M33 19.02l-.24-.302s-3.037-.038-3.037 4.197v10.548c.034 1.059.376 3.743 3.003 3.932l.24-.302s-2.97.226-2.97-4.084V22.84s-.034-3.818 3.003-3.818z" fill="url(#paint7_linear)"/><path d="M32.761 37.773v-.378l.24-.265V38l-.24-.227z" fill="#D6BF77"/><path d="M23 19.02l.239-.34v-.34L23 18v1.02z" fill="#8A5D25"/><path d="M33 19.02l-.239-.34v-.34L33 18v1.02z" fill="#D6BF77"/><path d="M23.239 18.34L23 18h10l-.24.34H23.24z" fill="#9E8949"/><path d="M23.24 37.773v-.378c2.627-.19 2.968-2.873 3.002-3.932v-.416-10.132c0-4.273-3.037-4.197-3.037-4.197v-.378h9.556v.378s-3.038-.038-3.038 4.197v10.548c.035 1.059.376 3.743 3.004 3.932v.378h-9.488z" fill="#fff"/><defs><linearGradient id="paint0_linear" x1="10.418" y1="9.712" x2="68.147" y2="76.017" gradientUnits="userSpaceOnUse"><stop stop-color="#1A1E21"/><stop offset="1" stop-color="#06060A"/></linearGradient><linearGradient id="paint2_linear" x1="20.13" y1="36.316" x2="36.816" y2="19.404" gradientUnits="userSpaceOnUse"><stop stop-color="#7D5422"/><stop offset=".052" stop-color="#886029"/><stop offset=".244" stop-color="#AE8D4D"/><stop offset=".39" stop-color="#C9AF6A"/><stop offset=".473" stop-color="#D6BF77"/><stop offset=".626" stop-color="#D3BB74"/><stop offset=".72" stop-color="#CAAF6A"/><stop offset=".797" stop-color="#BD9E5C"/><stop offset=".865" stop-color="#AB8949"/><stop offset=".927" stop-color="#966F35"/><stop offset=".985" stop-color="#7F5522"/><stop offset=".987" stop-color="#7E5421"/></linearGradient><linearGradient id="paint4_linear" x1="38.733" y1="18.155" x2="19.002" y2="38.077" gradientUnits="userSpaceOnUse"><stop offset=".009" stop-color="#583714"/><stop offset=".569" stop-color="#5D3D20"/><stop offset="1" stop-color="#61422B"/></linearGradient><linearGradient id="paint5_linear" x1="23.008" y1="37.892" x2="33.014" y2="37.892" gradientUnits="userSpaceOnUse"><stop stop-color="#AD9A49"/><stop offset=".14" stop-color="#B8A355"/><stop offset=".444" stop-color="#CDB66D"/><stop offset=".617" stop-color="#D6BF77"/></linearGradient><linearGradient id="paint6_linear" x1="23.008" y1="28.051" x2="26.275" y2="28.051" gradientUnits="userSpaceOnUse"><stop stop-color="#D6BF77"/><stop offset=".653" stop-color="#734E1F"/><stop offset=".779" stop-color="#8A5D25"/><stop offset=".849" stop-color="#A47E3D"/><stop offset=".907" stop-color="#C8AC67"/><stop offset=".923" stop-color="#D6BF77"/></linearGradient><linearGradient id="paint7_linear" x1="33.003" y1="28.051" x2="29.736" y2="28.051" gradientUnits="userSpaceOnUse"><stop offset=".275" stop-color="#734E1F"/><stop offset=".359" stop-color="#7A5423"/><stop offset=".499" stop-color="#8B6633"/><stop offset=".675" stop-color="#AA8954"/><stop offset=".881" stop-color="#DCC58C"/><stop offset=".923" stop-color="#EBD79C"/></linearGradient><radialGradient id="paint3_radial" cx="0" cy="0" r="1" gradientUnits="userSpaceOnUse" gradientTransform="matrix(-21.025 0 0 -20.7437 23.929 37.737)"><stop stop-color="#7D5422"/><stop offset=".157" stop-color="#805723"/><stop offset=".281" stop-color="#875F26"/><stop offset=".394" stop-color="#936C2E"/><stop offset=".5" stop-color="#A6823B"/><stop offset=".601" stop-color="#BFA14F"/><stop offset=".689" stop-color="#E1CA6B"/></radialGradient></defs></svg>