<!-- by TradingView --><svg width="56" height="56" xmlns="http://www.w3.org/2000/svg"><path fill="url(#paint0_linear)" d="M0 0h56v56H0z"/><path fill-rule="evenodd" d="M11 32.998V25h1l3.5 7.998h2L21 25h1v7.998h2.002v-9.995H20L16.5 31 13 23.003H9.001v9.995H11zM4 33.003h2v-10H4v10zM30.5 23.003L25 32.998h2L28.217 31h6.643L36 32.998h2l-5.5-9.995h-2zM31.499 25l-2.243 4h4.596L31.5 25zM41 23.003h-1.998l5 4.998-5 4.997H41l4.5-3.997 4.5 3.997h2l-5-4.997 5-4.998h-2l-4.5 4-4.5-4z" fill="#4092C9"/><defs><linearGradient id="paint0_linear" x1="10.418" y1="9.712" x2="68.147" y2="76.017" gradientUnits="userSpaceOnUse"><stop stop-color="#1A1E21"/><stop offset="1" stop-color="#06060A"/></linearGradient></defs></svg>