<!-- by TradingView --><svg width="56" height="56" xmlns="http://www.w3.org/2000/svg"><path fill="#0066B3" d="M0 0h56v56H0z"/><path d="M43.74 13.97a27.892 27.892 0 00-3.777-1.829c.118-.472.266-.914.413-1.386-.826.177-1.622.383-2.419.649a31.546 31.546 0 00-4.455-1.033c.797.62 1.534 1.269 2.272 1.947-.826.384-1.593.826-2.33 1.328a32.836 32.836 0 013.392-.266 36.287 36.287 0 012.213 2.508c.177-.826.354-1.652.59-2.449a31.8 31.8 0 014.1.531zM49.168 20.048c.973.295 1.917.62 2.832 1.003-.974-1.21-2.006-2.33-3.157-3.334-.147-.826-.383-1.652-.62-2.449-.324.354-.648.708-1.002 1.062A29.495 29.495 0 0043.769 14a30.313 30.313 0 012.537 3.274c-.59.59-1.21 1.18-1.83 1.741 1.122.177 2.214.384 3.305.679.089.177.207.354.295.53.443.827.826 1.682 1.18 2.538.03-.679.03-1.357 0-2.065a2.3 2.3 0 01-.088-.65zM42.56 21.316c-.09-.147-.178-.324-.266-.472.737-.59 1.445-1.21 2.124-1.829a26.399 26.399 0 00-3.393-.324 32.108 32.108 0 00-2.006-2.803c-.206.914-.354 1.83-.531 2.773a31.61 31.61 0 00-3.717.325c1.18.501 2.33 1.062 3.451 1.652a67.325 67.325 0 00-.354 3.51c.974-.648 1.918-1.357 2.862-2.065a45.786 45.786 0 013.157 2.154 26.04 26.04 0 00-1.328-2.92zM4 23.004h2V34H4V23.004zM40 26.5h2V34h-2v-7.5zM50 23h2v11.002h-2V23zM7 27.128c.177-.059.481-.088.717-.147.236-.06.502-.118.767-.148.266-.03.59-.088.885-.118.295-.03.62-.059.915-.059.472 0 .915.06 1.328.148.413.088.737.236.973.472.295-.148.65-.266 1.062-.413a5.167 5.167 0 011.446-.207c.914 0 1.878.207 2.291.62.413.413.62 1.032.62 1.858V34H16v-4.541c0-.413-.11-.708-.317-.915-.559-.558-1.708-.293-2.367-.03.03.119.06.267.06.414.029.177.029.325.029.472V34h-1.93v-4.512c0-.471-.118-.796-.325-.973-.496-.426-1.57-.32-2.15-.089V34H7v-6.872zm12 .266c.384-.177.96-.354 1.521-.502a7.343 7.343 0 011.888-.236c.62 0 1.151.089 1.623.295.472.207.826.472 1.15.797.296.324.532.737.68 1.15.147.443.235.886.235 1.358 0 .62-.088 1.18-.295 1.652a3.396 3.396 0 01-1.918 1.976 3.778 3.778 0 01-1.416.266c-.354 0-.678-.03-.944-.089-.265-.059-.347-.118-.524-.206V37h-2v-9.606zm3.262.914c-.295 0-.56.03-.826.089-.266.059-.288.118-.436.177v3.806c.177.088.17.147.406.177.236.03.472.059.797.059.62 0 1.15-.177 1.505-.56.383-.384.56-.915.56-1.653 0-.649-.177-1.18-.56-1.534-.355-.384-.827-.56-1.446-.56zm10.722 5.437c-.908.363-1.379.464-2.373.464-1.15 0-2.065-.325-2.714-.974-.65-.649-.974-1.563-.974-2.743 0-.59.089-1.122.266-1.594.177-.472.413-.885.737-1.21.325-.324.708-.59 1.15-.766.443-.177.974-.266 1.535-.266.56 0 1.062.089 1.475.266.413.177.738.442 1.003.737.266.325.472.679.59 1.092.118.413.177.855.177 1.328v.442c0 .148 0 .39-.03.479h-5.162c0 .236.059.318.147.524.089.207.207.413.384.59.177.177.413.295.708.413.295.089.649.148 1.062.148.866 0 1.238-.088 2.019-.435v1.505zm-2.52-5.732c-.502 0-.915.148-1.24.472-.324.296-.501.738-.56 1.269h3.452c0-.502-.148-.915-.413-1.24-.266-.324-.679-.5-1.24-.5zm8.536.325c-.792-.198-1.416-.092-2 .088V34h-2v-6.842a6.867 6.867 0 014-.384v1.564zm10 5.34c-.986.358-2.153.501-3.195.501-1.473 0-2.98-.593-2.98-2.271 0-.708.265-1.269.767-1.652.902-.744 2.273-.759 3.408-.532 0-.506.046-.994-.399-1.327-.944-.567-2.25-.145-3.186.206v-1.445c.774-.387 1.74-.531 2.596-.531 1.062 0 1.83.236 2.272.737.442.502.717 1.18.717 2.095v4.219zm-2-2.803c-.648-.162-1.538-.23-2.08.177-.236.177-.355.413-.355.738 0 .295.089.53.296.708.573.492 1.476.25 2.139.118v-1.74z" fill="#fff"/></svg>