<!-- by TradingView --><svg width="56" height="56" xmlns="http://www.w3.org/2000/svg"><path fill="#F60" d="M0 0h56v56H0z"/><path fill-rule="evenodd" d="M45.931 26.92c.148.345.283.704.404 1.078.648 2.012.878 4.376.44 6.488-.093.45-.216.885-.371 1.306-.209.68-.532 1.247-.94 1.855a9.339 9.339 0 01-1.674 1.866 5.713 5.713 0 01-4.306 1.048c-.294.288-.668.334-1.042.38a7.07 7.07 0 00-.259.036h-4.105c-.03-.158.016-.267.063-.379a.714.714 0 00.076-.34c.053-.306.137-.684.455-.775a.127.127 0 01.008-.009c.008-.007.014-.013.01-.022.102.287.23.597.384.879.208-.123.323-.361.346-.604-.042-.269-.224-.482-.416-.684l-.057-.018c.097-.075.16-.18.223-.289.046-.077.091-.155.151-.224l.071.083c.135.16.294.349.5.272l.013-.006c.08-.036.188-.086.193-.202-.01-.015-.013-.035-.017-.054-.006-.033-.011-.066-.052-.074-.113-.076-.222-.193-.333-.313-.27-.292-.551-.594-.927-.322-.489.568-.904 1.19-1.007 1.934l-.099 1.148a2.295 2.295 0 00-.292.01 1.393 1.393 0 01-.438-.01c.03-.246.016-.492.001-.738-.018-.297-.036-.595.028-.892.088-.032.164.04.24.112.038.036.077.072.117.097.017.035.07.035.087 0a.62.62 0 01.09-.176c.073-.11.146-.222.06-.355-.05-.13-.165-.24-.275-.344-.035-.032-.069-.064-.1-.096.029-.147.112-.274.196-.4a2.87 2.87 0 00.098-.155c.029.004.033.02.037.039a.094.094 0 00.014.034.38.38 0 00.346.116c.012-.005.029-.007.047-.01.061-.01.137-.022.08-.106a.422.422 0 00-.044-.115c-.036-.073-.07-.145-.014-.208.084-.032.18-.004.275.024.14.041.278.081.368-.072a.621.621 0 00.037-.08c-.363-.231-.732-.463-1.215-.324-.175-.025-.26.096-.347.22-.047.068-.096.137-.16.184a.47.47 0 01-.063.036c-.27-.05-.548-.007-.816.033-.165.025-.326.05-.479.052l-.737 1.19c.005.103.004.215.003.33-.003.316-.006.658.112.927.144.231.265.426.369.677h-7.886c.115-.268.34-.543.523-.75.015.055.066.075.117.094a.323.323 0 01.08.04l.552.116.09-.033c.163-.061.33-.123.462-.248a5.229 5.229 0 00-.49-.234 4.717 4.717 0 01-.534-.26c.007-.09.02-.184.032-.282.051-.398.11-.843-.182-1.128-.148-.12-.333-.152-.517-.185-.058-.01-.117-.02-.174-.034-.271.098-.576.232-.72.53-.213-.231-.45-.445-.73-.53.008-.11.028-.224.05-.34l.009-.047c.018-.095.036-.19.05-.284.335-.204.719-.072 1.078.05.104.036.206.07.304.097.04 0 .078.01.115.02.054.014.107.028.161.011.015-.041-.012-.061-.042-.083-.027-.02-.056-.041-.056-.082-.403-.64-1.11-.714-1.824-.616-.131.013-.206.145-.274.264-.09.158-.168.294-.349.102-.133-.038-.258.007-.386.052a.912.912 0 01-.305.07l-.466.19c-.05.084-.098.17-.146.257-.236.433-.447.88-.654 1.322.007.128-.003.266-.013.404-.022.298-.044.604.105.841.104.226.243.489.392.677H9.488c-.357-.507-.575-1.192-.454-1.851.085-.293.224-.586.483-.775-.01-.21.022-.402.09-.58.1-.254.276-.472.502-.653.317-.225.732-.298 1.136-.219.453-.506 1.173-.646 1.796-.427.15.067.292.14.425.239.189-.392.296-.82.403-1.248.079-.317.158-.634.27-.937.033-.085.067-.168.104-.25.105-.232.196-.477.288-.723.14-.376.28-.756.473-1.098-.467-1.36-.875-2.787-1.133-4.233a.449.449 0 01.116-.227 1.07 1.07 0 01.176-.152 6.63 6.63 0 00.287-.896c-.07.01-.139.048-.21.088-.061.035-.124.071-.192.089-.028.047-.062.09-.095.135a.75.75 0 00-.15.261c-.059-.02-.08-.126-.099-.221-.004-.021-.008-.042-.013-.06a1.67 1.67 0 00-.04-.412c-.05-.276-.1-.552.121-.759l.334-.292c.005-.235.029-.465.053-.694l.016-.154h-.058c-.05.05-.11.098-.172.147-.153.122-.314.25-.352.438h-.028l-.012-1.244c.044-.037.095-.071.148-.107.077-.052.157-.106.226-.174-.052-1.391.04-2.751.397-3.977.073-.2.197-.372.32-.543.063-.086.125-.172.18-.262.005-.086.007-.173.01-.26.008-.264.015-.526.071-.765.108-.068.21-.162.312-.256.1-.093.202-.187.31-.256-.072-.064-.183-.077-.29-.09-.037-.004-.073-.008-.107-.015.19-.548.593-1.007.99-1.42l.058-.049c.158-.13.314-.26.494-.33.056-.006.089.03.123.068l.016.017c.161.017.317.054.471.092.23.056.458.111.702.096-.132-.225-.363-.45-.633-.45l.05-.03c.364-.166.614-.276 1.006-.355.032.192.151.348.27.503.092.12.184.24.234.376l.237.207a3.007 3.007 0 01-.006-.341c.006-.332.012-.68-.264-.892-.017-.079.07-.06.11-.042.437.189.868.439 1.277.69.055-.03.111-.058.168-.088.2-.104.405-.21.607-.29a5.65 5.65 0 01-.101.391c-.08.286-.166.588-.163.907.11-.084.2-.211.293-.342.062-.088.125-.177.196-.256-.01-.178.085-.33.178-.477.054-.084.106-.168.138-.254.306-.092.801-.153 1.1 0-.28.048-.27.271-.26.475l.003.068.028.023c.236-.055.568-.151.752-.347.318.055.526.104.78.305a5.468 5.468 0 01-.102.05c-.198.095-.417.2-.549.408a8.932 8.932 0 001.076-.092l.156-.103c.821.543 1.138 1.453 1.44 2.32l.092.26a.691.691 0 01-.167-.066c-.069-.035-.14-.07-.22-.08l.017.079c.033.17.073.38.271.433.205.022.294.175.387.334.035.06.071.122.114.178.136.142.294.267.45.391.309.243.616.487.765.866.276.483.383 1.042.49 1.6.063.336.128.674.23.993-.08-.113-.214-.148-.35-.185-.129-.034-.261-.069-.358-.17.033.263.177.55.402.709.134.076.274.134.416.192.065.027.13.054.195.083.224.414.31.884.385 1.36a2.356 2.356 0 00-.511-.263l-.03.03c.024.396.288.733.61.91.006.184.014.357.022.529.006.14.013.28.018.422.56.477 1.298.892 2.028.988.139.019.282.026.43.019.088 0 .176-.019.263-.037.064-.014.127-.027.19-.033a3.463 3.463 0 001.658-.568c-.046-.433.086-.829.403-1.122.443-.518 1.169-.489 1.756-.324.958.378 1.705 1.137 2.306 2.014.504.736.904 1.555 1.24 2.307.526 1.308.81 2.67.87 4.184l.002.054.004.08a13.624 13.624 0 01-.324 3.595c-.017.095.055.126.121.156a.4.4 0 01.064.033c1.098.32 2.163.006 3.027-.707.274-.225.527-.49.755-.787.604-.701.98-1.512 1.322-2.373.643-2.068.521-4.508-.12-6.491-.035-.107-.07-.212-.108-.317-.766-2.171-2.527-4.46-4.59-5.46-.398-.073-.779-.012-1.163.049-.425.068-.853.136-1.31.024-.605-.19-1.197-.508-1.629-1.045l.016-.054c.34.044.662.127.968.263.006-.085-.035-.16-.078-.236-.033-.062-.068-.124-.078-.192a5.934 5.934 0 011.094-.201c-.127-.293-.38-.313-.632-.333-.158-.013-.316-.026-.444-.105a1.084 1.084 0 01-.107-.013c-.089-.013-.179-.027-.256.013.01.055.03.107.049.159.031.088.063.176.06.279-.106.029-.209-.008-.314-.046-.073-.026-.146-.053-.221-.058a.55.55 0 01-.13-.008c-.09-.014-.182-.027-.244.052a3.793 3.793 0 01-.315-.55c-.196-.39-.395-.788-.819-.988l.018-.06c.298-.08.59-.184.882-.288.718-.256 1.44-.513 2.266-.414l.044.01c.113.026.228.052.33.106l-.305.292c.276.275.593.501.996.489l.023-.031c-.026-.188-.118-.348-.21-.508l-.038-.065c.303.054.544.301.779.542.059.061.118.122.177.178.54 1.012 1.42 1.991 2.379 2.624 1.7 1.124 2.802 3.039 3.613 4.814zm-26.013 12.4c.063-.043.136-.076.211-.11.192-.088.39-.178.427-.433l-.063-.053a.529.529 0 00-.213-.136l-.236.072c.011-.097.049-.203.086-.31.019-.053.038-.106.053-.159l.76-.262c-.105.366-.145.823-.18 1.244.07.623.156 1.288.455 1.806H20.4c-.035-.223-.143-.422-.25-.622-.17-.313-.339-.627-.232-1.037zm1.767-.732h.045l.552.53.08-.018a29.639 29.639 0 00-.08 1.88h-.598a16.61 16.61 0 00-.097-.44c-.108-.47-.22-.956-.203-1.451.038-.06.07-.125.103-.19.058-.115.116-.23.198-.311zm1.317.435c-.027.054-.054.107-.086.151l-.207 1.806h.582c.126-.385.265-.811.346-1.22.015-.055.036-.114.057-.175.08-.232.171-.491.012-.703-.116-.117-.26-.142-.416-.146-.155.02-.223.156-.288.287zm8.647-.039c.048.066.084.14.12.215.059.122.119.246.237.34.167-.243.207-.622.126-.933l-.166-.177a4.04 4.04 0 01.387-.071c.089-.014.177-.027.263-.044-.026.091-.058.18-.091.27-.083.226-.166.453-.145.724.004.36.042.72.081 1.086.02.193.041.388.057.585h-.633l-.026-.06c-.221-.516-.434-1.012-.418-1.611.023-.035.042-.072.062-.11a.774.774 0 01.146-.214zm-7.735-17.086c.138-.03.305-.067.415-.22.033.1.007.212-.023.317a2.202 2.202 0 00-.034.11c.07.369-.175.652-.396.907-.034.04-.068.078-.1.117-.11.44-.437.946-.898 1.025a.312.312 0 00.04.19c.95.011 1.819.31 2.613.761l.012.439a5.44 5.44 0 00-2.538-.823c-.005.149-.03.285-.055.422l-.015.079c.772.347 1.514.792 2.182 1.42l-.027.514-.082-.073c-.679-.607-1.39-1.244-2.211-1.54v.002c-.115.177-.24.372-.402.542-.478-.323-.962-.621-1.509-.763-.202.048-.24-.138-.272-.292a1.85 1.85 0 00-.016-.073l-.039-.354c.316-.098.472-.433.563-.732l.025.011c.11.054.243.119.361.05.1-.07.11-.177.12-.285l.008-.068c-.104-.376-.49-.417-.818-.451-.056-.006-.11-.012-.162-.02-.472-.036-.956-.023-1.33.221-.09.071-.074.199-.06.309.004.03.008.06.009.086.04.098.127.123.218.147a.722.722 0 00.305-.084.85.85 0 00.426.786c.021-.005.034.008.045.02a.12.12 0 00.012.01l-.097.556c-.083.162-.24.182-.399.201a.703.703 0 00-.292.08 3.77 3.77 0 00-1.134.524c-.197-.115-.353-.31-.502-.495l-.023-.03c-.58.226-1.11.574-1.616.983l-.525.45a1.149 1.149 0 01-.028-.363 2.532 2.532 0 000-.203c.42-.445.923-.684 1.426-.923.2-.095.399-.19.593-.297l-.028-.526c-.184-.054-.393-.03-.594-.008-.07.008-.14.016-.207.02-.604.117-1.15.379-1.657.733.004-.05.002-.107 0-.165-.007-.156-.014-.319.12-.39.72-.433 1.52-.67 2.419-.64a.3.3 0 00-.03-.22c-.021-.042-.031-.092-.041-.142-.02-.094-.038-.188-.137-.224a2.732 2.732 0 01-.758-1.53l-.001-.003v-.003l.004.003.002.002h.002c.035.023.08.02.124.019a.85.85 0 01.035-.001s.019-.016.019-.018c0 .002.009-.007.009-.007a3.797 3.797 0 010-1.932c-.35-.16-.765-.471-.898-.867-.15-.264-.276-.537-.317-.848.134-.378.33-.726.536-1.068.07-.044.147-.068.224-.093.051-.016.102-.032.15-.053l.114-.08c.244-.177.506-.366.824-.213.11.025.216.064.322.103.126.047.252.093.386.117 0 .134.028.287.16.336.246.044.351.264.456.485.055.115.11.23.185.32.092.075.218.073.35.072.08-.002.163-.003.242.014.067.02.135.038.203.055.216.056.43.111.615.256.454-.342 1.07-.41 1.64-.324.046-.2.117-.395.186-.58l.05-.14c.075.003.09-.044.104-.094.014-.046.028-.095.091-.107l.131-.092c.27-.193.563-.404.93-.273.114.056.242.088.37.119.23.057.462.115.614.32l-.017.012c.187.179.282.408.377.638.057.138.115.276.192.405-.054.152-.07.323-.085.494-.029.313-.057.626-.329.823l-.316.293.011.013c-.08.048-.168.075-.254.102a2.116 2.116 0 00-.13.044c.19.53.074 1.184-.168 1.653zm-8.923-1.33l.455-.28v-.714c-.125.08-.213.197-.3.314-.046.061-.092.123-.144.18l-.01.5zm.11 3.002l-.334-1.098c.011-.336.126-.617.264-.897l.524-.171-.247.39c.032.344-.034.653-.1.964-.055.263-.11.527-.108.812zm19.242 3.857a.833.833 0 00.03-.163 1.34 1.34 0 01.385-.452c.042-.003.088-.011.138-.02.15-.028.322-.06.444.05.031.289.235.283.445.277a.932.932 0 01.268.017c.078.108.138.23.199.353.042.087.085.174.135.257-.08-.02-.16-.042-.24-.064-.402-.11-.812-.221-1.239-.18-.058.023-.122.038-.185.054-.136.032-.273.066-.368.178-.065-.09-.038-.199-.011-.308zm-15.472-.008l.345-.353c.03 0 .053.006.07.03l-.029.677c.167.164.373.218.592.232.012-.121.073-.219.136-.316.032-.05.064-.1.089-.154a.573.573 0 00.042-.165c.015-.094.03-.187.107-.243l.041.042c.012.064.02.13.027.196.016.144.032.287.1.408l.03.243.009.062c.253.012.484-.061.68-.16a1.505 1.505 0 01.054-.427c.016-.068.031-.135.042-.205.022-.03.016-.07.01-.106-.008-.053-.015-.1.071-.096.038.085.09.173.143.261.059.1.12.202.163.306.333-.36.473-.829.552-1.318-.06-.084-.137-.117-.215-.15a.629.629 0 01-.148-.081c-.979-.335-2.233-.402-3.177.116-.063.413.017.87.266 1.201zM9.74 40.1c-.026-.413-.051-.81-.02-1.232l.633-.753c.363.244.462.715.393 1.117a2.709 2.709 0 00-.46-.22c-.14.223-.115.48-.09.744.018.171.035.345.008.515l-.028.312c-.167-.011-.335-.188-.427-.34l-.01-.143zm1.402-1.892c-.224.714-.391 1.593-.12 2.346l.066-.047c.134-.095.27-.19.388-.32l-.01-.178c-.03-.52-.06-1.056.229-1.485.281.092.472.38.58.659.192-.256.254-.61.18-.95.008-.178-.115-.212-.24-.245-.063-.018-.128-.035-.175-.073.009-.042.015-.085.022-.128.03-.19.06-.383.243-.488l-.69.073-.083.123c-.153.227-.306.454-.39.713zm1.438 2.184c-.002-.027-.005-.055-.016-.076.023-.83.08-1.602.43-2.284a1.54 1.54 0 011.048-.556l.346.128-.248.337c.278.17.703.439.65.854l-.039.347-.026.044c-.214.374-.417.728-.71 1.057h-.04c-.018-.266.033-.498.085-.736.031-.146.064-.293.08-.45.003-.023.02-.045.035-.065.026-.034.05-.066.007-.1a.833.833 0 01-.285-.095c-.1-.047-.201-.095-.32-.095-.102.071-.14.18-.177.287-.024.068-.047.136-.087.194-.08.17-.187.324-.292.476-.174.252-.345.502-.399.822-.035-.008-.039-.047-.042-.089zm1.533-3.697c.063.02.122.005.182-.01.067-.017.133-.034.203-.002l.017.006c.525.206 1.07.42 1.463.884l.472 1.275.236-.788-.155-.425c-.119-.272-.42-.282-.66-.29-.028 0-.056-.002-.083-.003-.08-.094-.034-.197.007-.293.013-.03.025-.058.033-.085.083-.298-.128-.38-.333-.46a.843.843 0 01-.248-.126c.009-.198-.16-.194-.316-.191a.916.916 0 01-.14-.004l-.056-.073c-.035-.056-.12-.056-.168-.013-.002-.005-.006-.01-.01-.013-.01-.013-.02-.025-.012-.047l-.126.03a.876.876 0 00-.306.628zm.454-1.196a.404.404 0 01-.12-.207c.093-.07.157-.18.22-.29.107-.185.21-.365.455-.325.207.047.402.102.581.206.17.04.28.168.393.299.06.068.119.137.188.195.126.124.267.212.407.3.136.084.271.169.392.286a.385.385 0 00.209.353c.268.018.295.242.322.462.011.092.022.183.05.258l-.413.585c-.068-.103-.089-.226-.11-.35-.028-.169-.057-.338-.206-.455a.567.567 0 01.075-.126c.058-.08.116-.16.073-.27-.055-.098-.139-.121-.223-.145-.021-.006-.043-.012-.064-.02l-.167.03c-.46-.192-.858-.562-1.24-.918l-.016-.014c-.217-.085-.408-.007-.596.07-.07.028-.14.057-.21.076zM15 34.09l.068.118c.132-.01.258-.042.382-.074.148-.039.294-.077.447-.074.101.066.22.094.338.122.102.025.204.05.295.098l.027.039c.148.216.309.45.525.595.467.073.725.605.886.994v-.188c.069-.263-.006-.569-.096-.806-.065-.068-.145-.123-.225-.177a1.606 1.606 0 01-.179-.133c-.021-.073-.009-.11.011-.172l.006-.018c-.116-.131-.27-.224-.422-.316-.082-.05-.164-.099-.24-.154-.213-.329-.563-.364-.914-.4-.152-.016-.303-.031-.444-.07l-.465.616zm.139-3.845a7.56 7.56 0 00-.149-.63c.034-.137.153-.248.265-.35.036-.034.072-.067.103-.1v.012c.178.036.379.092.54.208-.092.102-.189.19-.283.274-.19.172-.369.332-.476.585zm.896 1.378l.258-.28c.26-.282.474-.606.513-.965-.184-.115-.426-.036-.604.031-.016.105-.035.209-.055.314-.053.29-.108.585-.112.9zm.386.876c-.065-.006-.13-.012-.196-.015.485-.251.91-.746 1.123-1.245.065-.026.133-.012.201.002.035.007.07.014.105.016l-.323 1.097c-.27.2-.583.172-.91.145zm-.078-3.908c.259.403.691.853 1.133.982-.033-.331-.217-.596-.402-.86-.1-.145-.201-.29-.277-.445l-.011-.146a2.104 2.104 0 00-.542-.379c-.022.24.024.471.07.699l.029.15zm2.317 3.849c-.282.092-.61.147-.915.092l.065-.055c.177-.15.363-.307.557-.415l.552-.573h.512c-.137.371-.363.846-.771.95zm-.976-4.404c.087.477.277.91.536 1.318l.068-.91-.604-.408zm1.823 1.74c.043.214.086.434.063.633-.345-.311-.7-.72-.712-1.2.088.059.192.086.295.113.105.028.21.055.298.117.011.108.034.222.056.336zm-.46 3.732a5.578 5.578 0 001.047-.452c.06-.09.129-.18.197-.268.175-.227.351-.454.385-.726a1.196 1.196 0 01-.331.039c-.139.002-.272.005-.412.077-.035.066-.066.134-.098.202-.105.228-.21.457-.432.616-.029.128-.122.231-.212.33-.055.06-.108.12-.145.181zm.996 1.348l-.432-.598c.328.056.691.091.997-.03l.154.543a.834.834 0 01-.72.084zm.286-4.917l.167.805c.403-.347.486-.853.474-1.39l-.025.031c-.215.262-.349.425-.616.554zm1.232 1.738a.603.603 0 01-.097-.317l1.036.262c-.007.159.115.238.236.293.094.122.196.221.298.32.086.084.172.167.254.265l-.011.005c-.234.116-.54.269-.805.141-.197-.104-.311-.289-.425-.473-.125-.203-.25-.406-.486-.496zm.26 2.563c.196.237.46.36.736.426-.024-.035-.014-.033.002-.03.014.003.034.008.039-.012l-.346-.806a3.01 3.01 0 00-.202.017 1.755 1.755 0 01-.31.015c.013.134.04.268.082.39zm.336-5.075c.047.438.114.921.276 1.317a1.754 1.754 0 00-.246-.125c-.274-.124-.598-.271-.542-.607.087-.121.18-.218.273-.316.08-.083.16-.168.239-.269zm.976.901c.209.289.663.19.916.105-.055-.1-.166-.182-.278-.263-.132-.097-.264-.194-.302-.322a5.468 5.468 0 00-.248-1.214l-.004.01c-.2.516-.438 1.128-.084 1.684zm.508 1.407l-.145-.113c.335-.042.668-.086.98-.195h.126l.276.426c.095.058.192.112.29.166.148.083.297.166.44.262-.007.05-.051.067-.097.083a.276.276 0 00-.07.032c-.737.174-1.272-.247-1.8-.66zm-.133 4.834h.042c.311-.264.675-.37 1.043-.477h.001l.118-.035c.057.022.066.067.075.112.008.042.016.084.064.107.132-.058.28-.078.427-.099.127-.017.255-.035.372-.077h.025c.294.012.535.021.776.157.116.163.29.218.467.274.123.04.247.079.35.154l-.04-.427c-.535-.665-1.37-.714-2.141-.701l-.017-.086c-.184 0-.392.042-.564.128-.176.009-.346.076-.514.142a4.16 4.16 0 01-.206.077c-.09.19-.164.412-.232.616-.016.046-.03.092-.046.135zm1.4-7.026c-.38.08-.714-.159-.938-.47-.131-.216-.17-.469-.207-.722a3.968 3.968 0 00-.07-.377c.089.09.206.155.324.22.25.14.498.278.459.647.01.267.207.47.392.661l.04.041zm-.997 8.105h.069c.15-.098.332-.111.515-.125.19-.013.38-.027.533-.136.105-.058.148.018.195.098.027.048.055.097.098.122.107.069.178.19.248.308.113.193.22.375.466.295.388.214.38.662.374 1.065-.002.091-.003.18 0 .264l.444-.292a1.126 1.126 0 01.002-.286c.015-.159.03-.318-.06-.446-.06-.145-.18-.217-.299-.289-.095-.058-.19-.115-.254-.21.113-.203-.014-.336-.139-.467a.68.68 0 01-.16-.217l.023-.03.61.085c.208.134.283.378.346.604.384.07.534.455.665.793.031.082.062.16.094.231.05-.123.084-.252.118-.38.035-.13.07-.26.119-.382.004-.138-.113-.181-.228-.224a.635.635 0 01-.146-.069c-.034-.312-.167-.604-.426-.792a4.985 4.985 0 01-.543-.191c-.329-.13-.657-.26-1.034-.26l-.483.157a1.417 1.417 0 01-.283.034c-.171.008-.336.017-.466.143-.244.02-.304.252-.358.459-.013.048-.026.096-.04.139zm.415-2.457l-.11-.055c.034-.221.186-.39.334-.555l.092-.103c.221.106.402-.034.574-.168.206-.159.401-.31.642-.028.09.059.192.082.294.106.078.018.157.036.23.07.404.054.558.497.677.84l.014.038a1.956 1.956 0 00-.19-.042c-.2-.038-.408-.078-.514-.28l-.047-.04c-.08-.072-.168-.152-.268-.076-.18.163-.352.092-.536.017-.147-.06-.301-.123-.472-.072-.173.068-.34.154-.505.24-.072.036-.143.073-.215.108zm0 2.916c.039.034.077.073.117.114.15.154.318.324.546.294.211.105.245.324.278.54.022.147.044.294.124.4l.207-.195-.017-.013.029-.03.012.017c.057-.182-.023-.505-.122-.72-.066-.05-.14-.047-.211-.044-.07.002-.14.004-.203-.041-.016-.188-.122-.284-.246-.398l-.018-.016c-.058-.046-.126-.026-.195-.006a.37.37 0 01-.123.023l-.177.075zm1.358-6.82c-.242-.176-.493-.359-.639-.616.157-.144.37-.175.583-.206a3.5 3.5 0 00.2-.033c.064.064.097.144.13.223.022.056.044.111.078.162.206.255.43.5.679.713-.26.062-.575.031-.818-.085-.068-.053-.14-.106-.213-.159zm-.32-2.8c.2.265.486.247.775.229.091-.006.183-.011.272-.009v-.043l-.576-.512c-.161.054-.333.207-.472.336zm-.236-4.977l.471-.16.053-.279c.1-.308-.036-.558-.168-.8-.043-.08-.086-.158-.12-.238l-.236 1.477zm1.309 2.08c-.04-.05-.08-.102-.118-.148.002-.07 0-.148-.001-.226-.004-.17-.007-.35.023-.505.034.049.06.103.087.156.052.105.104.21.208.283.143-.09.204.06.262.202a.702.702 0 00.083.164c.02.055.044.108.068.163.046.1.091.203.11.319-.327.105-.534-.163-.722-.407zm-.038 1.64c.043.063.07.135.097.205.028.073.055.145.099.204.155.109.386.09.577.073.076-.019.14.01.202.038.077.035.15.069.24.005a1.362 1.362 0 01-.298-.31 2.116 2.116 0 00-.213-.246c-.172-.143-.352-.082-.534-.02-.056.019-.113.038-.17.05zm1.738 3.246c-.53.085-1.035-.16-1.432-.409-.008-.017-.022-.035-.037-.054-.027-.035-.058-.075-.061-.122.092.009.185-.042.275-.091.147-.08.287-.157.404.036.194.04.387.168.578.294.149.098.296.195.44.249-.008.05-.056.063-.105.076-.022.006-.044.011-.062.02zm-.237 4.977l.086.195c.03.21.09.415.151.62.123.414.247.83.108 1.295.117.087.178.212.24.336.03.061.059.121.095.177h.028c.121-.485.055-.987-.01-1.476l-.018-.135c.043-.399-.267-.66-.528-.88a4.454 4.454 0 01-.152-.132zm1.222-6.1c-.345.122-.823.098-1.122-.146l.483-.293c.179.17.42.312.64.44zm.298 1.726c-.028.257.132.47.305.599.02-.048.044-.093.067-.138.052-.099.103-.197.111-.314-.052-.262-.19-.5-.415-.678l-.013.056a1.425 1.425 0 00-.055.475zm.237 3.133c-.123-.08-.247-.16-.22-.35-.01-.196.091-.34.194-.483.057-.08.114-.16.152-.249.045-.025.098.06.12.102.013.05.029.1.045.152.071.232.147.478.053.728-.034.16.065.218.169.279.09.053.183.108.194.233-.03.248-.096.483-.162.718-.036.13-.073.26-.103.391 0-.397-.127-.737-.346-1.036a.28.28 0 01.052-.138c.04-.068.08-.134.017-.216-.042-.052-.103-.092-.165-.131zm.57-1.803l.298.616c.1-.014.173-.093.247-.173a1.58 1.58 0 01.075-.077c.053-.17-.023-.3-.098-.429-.038-.065-.076-.13-.097-.2-.022-.06-.025-.128-.03-.197-.005-.098-.01-.197-.069-.272l-.04-.028c-.065-.046-.135-.097-.206-.076l-.08.836zm1.018-.982c-.127-.27-.397-.488-.634-.64.283.006.617.072.842.275.017.17.057.353.224.426.297.061.403.297.512.542.067.148.135.3.247.419.05.08-.02.135-.08.182-.023.017-.044.033-.058.05-.12-.02-.201.104-.225.207v.043c.042.028.084.054.126.08.139.087.276.173.387.328a7.84 7.84 0 01-.082.92c-.02.157-.04.313-.056.47-.118.014-.138-.097-.155-.2-.007-.038-.013-.075-.025-.104-.085-.326-.146-.628-.21-.947v-.001l-.054-.264c-.098-.251-.212-.495-.325-.74-.158-.341-.317-.683-.434-1.046zm-.357 2.666c.245.238.214.567.183.892-.006.065-.012.13-.016.194-.027.137.058.146.15.155.064.007.131.014.167.064.166.261.088.634.026.93l-.014.064c.05-.078.1-.154.151-.23.111-.164.22-.326.303-.515-.002-.048.025-.085.053-.124.032-.043.066-.089.063-.157.037-.128-.056-.121-.14-.115a.32.32 0 01-.085 0c-.07-.018-.144-.067-.12-.165.12-.246.053-.53-.007-.792-.015-.063-.029-.124-.04-.184-.03-.11-.028-.24-.026-.366.003-.16.006-.317-.055-.44-.064.094-.171.162-.278.23-.203.13-.406.26-.315.559zm1.13-3.64c-.19-.23-.38-.46-.595-.69.237-.051.408.102.582.257.142.127.287.256.471.275l.07.066c.108.102.222.208.288.344l.014.212c.011.157.023.312.015.477-.322-.308-.582-.624-.845-.942zm.746 2.216c.01.047.029.09.048.134l.011.024c.224.391.437.794.593 1.214-.016-.15.006-.313.028-.475.043-.326.086-.653-.168-.885-.044-.127-.177-.108-.284-.093l-.027.004-.022.003-.18.074zm1.883 4.312c-.152.096-.347.22-.5.143.143-.075.216-.194.294-.32.072-.116.148-.239.286-.338.062-.09.127-.06.199-.027.022.01.044.02.067.027.154.096.276.158.466.158.006.11.006.257-.052.354.05.068.131.081.214.095.06.01.12.02.171.051.185.147.38.337.357.599l-.097.103a3.392 3.392 0 00-.99-.45.408.408 0 010-.113.308.308 0 00-.017-.169c-.11-.078-.23-.165-.374-.128l-.023.015zm-.097-7.532l.019-.006c.137-.042.28-.085.395-.19.276-.266.638-.215.987-.166.14.02.278.04.407.038a3.33 3.33 0 00-.317-.47l-.074-.032c-.135-.058-.266-.114-.421-.114-.298-.186-.522.006-.745.198-.07.06-.14.12-.211.167-.081.165-.12.409-.04.575zm.028 1.213c-.017.005-.017.024-.017.043-.058-.156-.045-.358-.034-.54l.005-.09c.165.017.291-.07.42-.158.073-.05.148-.1.23-.134.371.036.716-.078 1.05-.188l.057-.018c.118.005.146.128.172.244.034.148.065.285.282.14.132-.11.275-.214.46-.147.328.177.651.538.69.933-.551-.328-1.178-.463-1.813-.585-.188 0-.34.098-.493.197-.154.1-.308.2-.502.2l-.051.038a2.878 2.878 0 01-.375.254c-.049-.013-.051-.056-.054-.1-.002-.034-.004-.068-.027-.089zm.248 1.402c.092.104.23.114.369.124.042.003.085.006.126.012l.5-.209c.003-.044-.028-.073-.059-.102-.037-.035-.074-.07-.055-.129.083-.1.185-.096.291-.093.07.002.14.004.21-.022.078-.013.158-.048.238-.084.164-.073.33-.147.492-.02-.003.011-.002.025 0 .039 0 .022.002.045-.012.065-.075.189.051.305.19.378.102.02.2.068.3.116.175.085.348.17.529.09-.024-.212-.073-.409-.122-.61l-.027-.11c-.136-.024-.25-.103-.363-.182-.083-.058-.167-.116-.26-.153-.096.098-.224.17-.345.158-.095-.023-.194-.055-.296-.088-.371-.12-.774-.25-1.126-.015-.103.133-.258.156-.413.179-.088.013-.176.026-.255.059.013.207.036.409.088.597zm.172 3.674l.008-.02a.81.81 0 00.01-.027c.027-.037.052-.076.076-.114a1.03 1.03 0 01.119-.166c.08 0 .155-.034.23-.067.093-.041.184-.082.282-.059.181-.026.318.073.454.172.12.087.239.173.388.173a.865.865 0 01.294.512c-.004.18-.044.342-.083.505a4.37 4.37 0 00-.057.258l-.483-.427a1.09 1.09 0 01.006-.068c.012-.098.027-.216-.051-.28-.204-.216-.5-.178-.786-.142-.118.015-.235.03-.343.026-.153-.042-.103-.174-.064-.276zm.156-2.923l.037.085c.067.159.148.35.268.366.34-.157.835-.256 1.215-.084.126.023.126.176.099.273.091.058.193.11.296.163.115.06.233.12.342.19l-.058-.366c-.006-.2-.13-.309-.254-.418-.122-.106-.244-.212-.258-.405a2.15 2.15 0 00-1.226-.073c-.096.093-.224.11-.348.125a1.5 1.5 0 00-.135.022.13.13 0 00.01.08c.005.013.01.027.012.042zm.368 1.806c-.085.07-.17.14-.271.17-.003-.066.028-.115.06-.165.014-.023.028-.046.039-.071.01-.062.012-.13.015-.2.008-.221.017-.454.25-.515l.425-.03c.118.261.337.296.555.33.198.032.395.063.51.267.004.129-.01.252-.023.374a1.74 1.74 0 00-.005.505c-.103 0-.137-.083-.174-.172-.027-.065-.056-.134-.114-.175a1.108 1.108 0 00-.927-.501c-.133.013-.237.098-.34.184zm1.842 2.84c.068.143.166.273.265.403.16.213.32.425.345.694.088-.11.15-.239.21-.362l.008-.016c-.003-.07-.048-.1-.096-.131a.248.248 0 01-.093-.089c-.038-.112-.008-.215.02-.315.012-.042.024-.083.03-.124a1.183 1.183 0 00-.454-.574l-.235.513zm1.123-.367l-.414-.598c.055-.085.09-.182.126-.28.045-.126.091-.251.18-.348.102-.05.178.06.217.128.069.36.069.8-.109 1.098zm-2.102-17.295c.15.08.294.153.473.165.12-.067.277-.117.426-.073.133.092.285.057.44.02.093-.021.187-.043.28-.038-.22-.22-.468-.355-.72-.483-.17.039-.323.125-.476.212-.137.077-.273.154-.423.197zm2.93 1.066c-.192-.223-.4-.466-.678-.494.24-.114.512-.14.788-.159l.003.004c.194.255.384.504.452.827l.097.322c-.155-.2-.35-.396-.61-.438l-.053-.062zm-22.161-3.169l.167.02c.096.05.204.096.316.143.41.172.866.363.899.905-.456.19-.893.445-1.256.836-.11-.12-.265-.165-.417-.21-.23-.067-.454-.133-.51-.449.087-.495.253-1.118.8-1.245zm1.152 2.997c.259.008.52.015.79-.009.131.06.27.182.333.323-.009.336-.063.665-.117.997-.052.317-.105.636-.118.967-.237.103-.467.312-.525.586-.142.044-.274.119-.408.194a4.58 4.58 0 01-.203.11c-.09-.207-.074-.518.087-.69.088-.13.23-.199.369-.264.215-.103.42-.2.392-.523.1-.171.069-.376.038-.573a1.717 1.717 0 01-.028-.28c-.034-.12-.068-.074-.11-.018-.028.038-.06.081-.097.078-.184.042-.373.055-.535-.043-.026-.03-.054-.058-.081-.085-.099-.1-.196-.2-.224-.342-.162-.085-.35-.219-.432-.396l.087-.022c.263-.025.521-.017.782-.01zm.204 4.07a1.205 1.205 0 01-.29.002c.002.027-.002.064-.007.103-.014.114-.03.255.076.282l.386-.189c.098-.024.22-.06.265-.146-.13-.079-.278-.066-.43-.052zm.716-5.09c.06-.02.12-.047.182-.073.193-.082.395-.168.595-.105-.179.191-.322.435-.458.667l-.025.041-.788-.018c.087-.22.305-.402.494-.512zm2.639-.006c-.079-.115-.155-.227-.33-.195-.131-.019-.299-.037-.426.011-.056.024-.012.096.011.133v.001c.239-.017.282.136.327.297.032.116.066.237.175.301.084-.02.18-.026.275-.03.124-.007.248-.014.347-.055.024-.093-.024-.155-.072-.216a1.217 1.217 0 01-.027-.035c-.14-.008-.211-.111-.28-.212zm-.537 1.438c.128-.19.314-.224.5-.26l.07-.013 1.491.029c.037.036.011.07-.017.106-.02.026-.04.053-.04.084a.606.606 0 01-.159.104.534.534 0 00-.147.097c-.116.003-.157.091-.2.184-.03.063-.06.128-.116.17-.18.191-.43.146-.653.106a3.26 3.26 0 00-.119-.02.706.706 0 01-.225-.263l-.069.073c.049.191.063.393.077.595.011.16.023.32.051.473l.357.25c.003.344.238.42.481.498.154.05.312.101.416.222-.063.202-.19.372-.328.543a1.936 1.936 0 00-.73-.47c-.02-.267-.248-.447-.434-.593a2.973 2.973 0 01-.118-.096 25.406 25.406 0 01-.044-.613c-.026-.396-.051-.792-.112-1.174l.068-.032zm1.232 3.765h-.691c-.04-.006-.104.012-.088.073l.692.31.087-.383zm.552-6.911l.513-.17c.294.145.57.328.84.536.213.414.179.975.08 1.439-.067.08-.17.09-.275.1-.136.014-.275.027-.346.193h-.024c-.19-.573-.73-1.087-1.231-1.348.08-.293.167-.58.443-.75z" fill="#fff"/></svg>