<!-- by TradingView --><svg width="56" height="56" xmlns="http://www.w3.org/2000/svg"><path fill="#6CB33F" d="M0 0h56v56H0z"/><path d="M33.427 43.401c5.527-2.118 9.307-6.55 10.544-11.934-5.447 1.615-9.6 6.232-10.544 11.934zM11.731 22.804c-3.913 13.418 8.574 24.662 20.874 20.873.442-8.81-6.83-20.873-20.874-20.873zm5.499-8.103a16.828 16.828 0 00-3.806 4.339c10.462 1.188 19.138 10.93 19.786 20.167.583-10.53-6.061-20.754-15.98-24.506zm16.819 22.443c2.537-10.002-1.313-20.813-4.501-26.026-2.417-.376-5.59.217-7.296.805 7.072 5.182 12.7 15.84 11.797 25.22zm.39-24.703c6.26 2.749 10.463 9.385 9.89 16.759-3.995.719-7.41 3.569-9.339 6.985 3.69-10.755 1.085-20.24-.55-23.744z" fill="#fff"/></svg>