<!-- by TradingView --><svg width="56" height="56" xmlns="http://www.w3.org/2000/svg"><path fill="#F0F3FA" d="M0 0h56v56H0z"/><path d="M25.493 43.577c-.744.089-1.488.142-2.214.177l.602-5.722a16.48 16.48 0 002.073-.23l-.46 5.775zm3.774-.815c-.656.195-1.311.355-1.985.496l-.478-5.633c.62-.142 1.223-.301 1.825-.496l.638 5.633zm4.127-1.577a26.8 26.8 0 01-1.948.833l-1.807-5.261c.602-.23 1.204-.496 1.789-.78l1.966 5.209zm3.88-2.196c-.584.39-1.187.762-1.807 1.116l-3.082-4.624c.567-.319 1.116-.673 1.665-1.027l3.224 4.535zm3.42-2.728c-.497.46-1.01.903-1.542 1.346l-4.216-3.791c.513-.39.992-.797 1.452-1.223l4.305 3.667zm2.745-3.047c-.39.513-.78.992-1.222 1.488l-5.12-2.817a16.3 16.3 0 001.17-1.347l5.172 2.676zm2.002-3.225a16.646 16.646 0 01-.85 1.541l-5.74-1.771c.319-.46.62-.939.868-1.417l5.722 1.647zm1.17-3.135c-.125.46-.267.92-.426 1.381l-6.04-.744c.194-.425.353-.868.477-1.293l5.988.656zm.371-2.374c-.017.212-.035.407-.053.62l-6.076.195c.035-.195.088-.39.106-.603.035-.212.053-.425.07-.637L47 23.806c0 .212 0 .442-.018.673zm-.283-3.384c.088.337.142.69.195 1.045l-5.846 1.01c-.018-.354-.036-.69-.107-1.027l5.758-1.028zm-.921-2.41c.16.284.3.585.443.904l-5.457 1.665a6.812 6.812 0 00-.337-.903l5.35-1.665zm-1.47-2.019c.212.23.424.478.62.744l-4.908 2.18a8.262 8.262 0 00-.531-.763l4.818-2.16zm-1.843-1.559c.248.16.478.337.708.514l-4.287 2.55a4.732 4.732 0 00-.638-.548l4.217-2.516zm-2.18-1.187c.284.124.532.248.798.372l-3.614 2.8c-.248-.142-.496-.284-.762-.408l3.579-2.764zm-2.408-.78c.3.072.584.142.867.231l-2.923 2.923c-.283-.106-.566-.195-.85-.283l2.906-2.87zm-2.516-.407c.283.036.549.053.815.089l-2.25 2.958a11.189 11.189 0 00-.815-.124l2.25-2.923zm-2.64-.07c.284-.018.55-.018.833-.018l-1.577 2.923a6.816 6.816 0 00-.85 0l1.594-2.906zm-2.622.247c.142-.017.302-.053.46-.07.09-.018.178-.018.267-.036l-.94 2.817a1.55 1.55 0 00-.283.035l-.478.053.974-2.799zm-2.675.55c.248-.054.479-.125.727-.178l-.337 2.658a9.598 9.598 0 00-.762.177l.372-2.657zm-2.569.814c.195-.07.408-.141.603-.212l.248 2.462-.638.213-.213-2.463zm-2.55 1.081c.194-.088.39-.195.584-.283l.815 2.232c-.213.088-.407.195-.62.283l-.78-2.232zm-2.428 1.329c.178-.107.372-.23.55-.337l1.328 1.931c-.195.124-.39.23-.584.355l-1.294-1.95zm-2.267 1.541c.177-.124.336-.248.514-.372l1.842 1.612c-.177.142-.354.266-.532.408l-1.824-1.648zm-2.108 1.754l.478-.425 2.338 1.24-.496.443-2.32-1.258zm-1.878 1.93l.425-.477 2.799.832c-.142.16-.283.337-.425.496l-2.8-.85zm-1.63 2.091c.124-.177.23-.336.354-.513l3.224.372c-.123.177-.23.354-.354.531l-3.224-.39zm-1.311 2.197c.07-.142.16-.301.23-.443l3.632-.124c-.07.16-.142.301-.213.46l-3.649.107zm-.992 2.356c.053-.16.106-.319.16-.46l3.968-.691c-.054.16-.089.319-.142.478l-3.986.673zm-.567 2.427c.018-.16.053-.319.07-.478l4.235-1.311c-.018.16-.036.319-.036.478l-4.269 1.311zm-.106 2.392C9 33.249 9 33.125 9 33l4.429-1.967.053.373-4.464 1.966zm.407 2.41l-.106-.373 4.482-2.675c.035.124.088.23.142.355l-4.518 2.692zm.974 2.214c-.053-.089-.106-.178-.141-.266l4.393-3.401c.053.07.107.159.177.23L10.4 37.997zm1.595 2.055l-.23-.23 4.092-4.11c.07.07.16.123.248.194l-4.11 4.146zm2.179 1.665l-.195-.124 3.525-4.766c.071.036.142.071.195.107l-3.525 4.783zM16.954 42.957l-.212-.07 2.71-5.316.195.071-2.693 5.315zM20.072 43.612c-.283-.035-.585-.07-.85-.123l1.948-5.563c.266.035.55.07.815.088.46.036.922.036 1.382.036l-1.842 5.704c-.496-.035-.992-.07-1.453-.142z" fill="#257CE1"/><path d="M17.663 36.916c.355.177.71.337 1.116.478l2.18-3.49a6.308 6.308 0 01-1.063-.407l-2.233 3.419zm-1.63-1.098c.23.195.497.39.762.567l2.693-3.083a4.008 4.008 0 01-.744-.46l-2.71 2.976zM14.74 34.56c.178.23.355.46.55.69l3.082-2.639c-.212-.195-.425-.39-.602-.602l-3.03 2.55zm-.885-1.524c.106.266.212.514.354.762l3.295-2.179a4.116 4.116 0 01-.39-.726l-3.26 2.143zm-.461-1.754c.035.284.088.55.142.815l3.366-1.7a4.355 4.355 0 01-.195-.797l-3.313 1.682zm-.018-1.753c-.035.283-.035.567-.035.85l3.313-1.205c-.018-.283-.036-.549-.018-.832l-3.26 1.187zm.337-1.825c-.089.283-.142.567-.213.85l3.19-.726c.034-.284.088-.567.159-.85l-3.136.726zm.62-1.736c-.124.248-.23.514-.319.762l2.959-.248c.088-.266.177-.514.3-.78l-2.94.266zm.673-1.329c-.07.124-.142.23-.195.354l2.693.16c.053-.124.124-.248.195-.354.07-.125.16-.266.23-.39l-2.693-.142c-.07.124-.141.248-.23.372zm1.47-2.073c-.177.213-.336.408-.496.62l2.374.55c.16-.23.32-.443.496-.656l-2.373-.514zm1.418-1.505c-.195.194-.39.372-.585.584l2.02.886c.195-.213.39-.407.584-.602l-2.02-.868zm1.612-1.365a16.6 16.6 0 00-.656.514l1.648 1.205c.23-.177.443-.372.673-.532l-1.665-1.187zm1.718-1.187c-.212.125-.425.266-.637.408l1.24 1.488c.212-.142.425-.283.655-.425l-1.258-1.47zm1.896-1.027c-.23.106-.443.23-.673.337l.815 1.718c.23-.124.46-.248.708-.354l-.85-1.701zm1.966-.85c-.23.088-.478.177-.708.265l.354 1.931c.23-.106.478-.194.726-.283l-.372-1.913zm2.002-.603a8.53 8.53 0 00-.638.177l-.106 2.09c.213-.052.443-.123.673-.176l.071-2.09zm2.073-.407c-.213.035-.425.053-.638.106l-.584 2.215c.23-.036.442-.071.673-.089l.549-2.232zm2.002-.16c-.107 0-.23 0-.355.018-.07 0-.141 0-.212.018l-1.063 2.285h.567l1.063-2.32zm2.02.107l-.532-.054-1.56 2.304c.196.017.355.035.55.07l1.541-2.32zm1.86.372a5.684 5.684 0 01-.443-.124l-2.038 2.267c.142.036.284.089.425.124l2.055-2.267zm1.753.655c-.124-.053-.265-.124-.39-.177l-2.55 2.161c.123.071.265.124.371.195l2.57-2.179zm1.56.975a2.36 2.36 0 00-.337-.248l-2.994 1.984.319.265 3.011-2.001zm1.275 1.186l-.266-.318-3.42 1.718c.09.106.16.213.249.337l3.437-1.736zm.921 1.524c-.053-.124-.124-.266-.177-.39l-3.756 1.364c.053.124.106.266.142.39l3.791-1.364zm.514 1.825a3.939 3.939 0 00-.089-.443l-4.003.921c.017.142.035.301.053.443l4.039-.921zm.07 1.966c.018-.16.036-.319.036-.496l-4.145.39c-.018.16-.036.319-.071.478l4.18-.372zm-.425 2.144c.054-.142.089-.284.125-.425l-4.11-.213a9.891 9.891 0 01-.16.407l4.145.23zm-.903 2.143c.089-.141.16-.283.23-.443l-3.933-.85c-.07.142-.16.284-.248.425l3.951.868zm-1.524 2.25c.107-.142.23-.283.337-.425l-3.579-1.541c-.106.142-.23.266-.336.407l3.578 1.56zm-1.895 2.055c.124-.106.23-.212.336-.319l-3.047-2.179a2.592 2.592 0 01-.336.284l3.047 2.214zm-2.356 1.825c.141-.089.265-.177.39-.266l-2.357-2.763c-.124.088-.248.159-.372.248l2.339 2.781zm-2.57 1.577c.107-.053.213-.107.337-.16l-1.559-3.26a2.526 2.526 0 01-.318.142l1.54 3.278zm-2.94 1.098c.106-.035.23-.07.337-.106l-.674-3.596-.318.106.655 3.596zm-2.675.655l.23-.035.23-3.773c-.07.017-.141.017-.212.035l-.248 3.773zM23.332 38.068l.212-.018 1.099-3.809-.213.018-1.098 3.809zM21.153 37.944l1.683-3.72a5.48 5.48 0 01-.567-.072 5.747 5.747 0 01-.797-.141l-1.843 3.614c.284.07 1.329.283 1.524.319z" fill="#0D3B70"/></svg>