<!-- by TradingView --><svg width="56" height="56" xmlns="http://www.w3.org/2000/svg"><path fill="#F0F3FA" d="M0 0h56v56H0z"/><path d="M37.145 24.005c-.242 0-.504.02-.746.04-2.216-5.064-8.158-7.417-13.295-5.224A10.008 10.008 0 0017 27.992c0-.558 1.29-2.552 4.573-2.552 2.115 0 3.888.658 4.653.897.625.2.544 1.296.887 1.296.967-.04 2.296-.12 3.626-.12.926 0 .06 1.436 1.027 1.855 1.048.458 1.29.538 1.873.797 2.519 1.176.222 3.19.222 5.423 0 1.196 1.048 2.372 3.364 2.412 3.908-.16 6.93-3.429 6.769-7.297-.161-3.668-3.143-6.579-6.85-6.698z" fill="#003"/><path d="M17.12 28.002H17c-2.769 0-5 2.23-5 4.999v.14C12.08 35.868 14.37 38 17.1 38H27c0-5.477-4.402-9.938-9.88-9.998z" fill="#66F"/></svg>