<!-- by TradingView --><svg width="56" height="56" fill="none" xmlns="http://www.w3.org/2000/svg"><path fill="#C51C2A" d="M0 0h56v56H0z"/><path fill-rule="evenodd" clip-rule="evenodd" d="M17 25h3v9h3v-9h3v-3h-9v3zM6 34v-8h3v8H6zm4-8h3.063v1.833c.294-.942.874-1.833 2.168-1.833.567 0 1.077.092 1.58.38C17.97 27.04 18 28.397 18 29.577V34h-3v-4.266c0-.82-.406-1.234-.857-1.234-.451 0-1.143.25-1.143 1.375-.016.174-.01.342-.005.505.003.08.005.157.005.235v3.384h-3V26zm35-1h-3v-3h9v3h-3v9h-3v-9zm-11-3h-7v12h7v-2.5h-4V29h4v-2.5h-4v-2h4V22zm4.074 9.656c.68 0 1.435-.304 1.435-1.254 0-.922-1.565-1.402-2.142-1.546-1.383-.345-2.843-1.254-2.843-2.997 0-2.306 1.797-3.859 3.867-3.859 1.198 0 2.426.433 3.373 1.043l-.97 2.213c-.644-.484-1.354-.9-2.155-.9-.528 0-1.254.38-1.254 1.044 0 .736.863.971 1.456 1.133.094.025.18.05.257.073 1.67.452 3.177 1.28 3.177 3.383 0 2.528-1.65 4.011-4.201 4.011-1.574 0-2.87-.687-3.924-1.666l1.413-2.345.239.26c.652.713 1.286 1.407 2.272 1.407zM7.5 25a1.5 1.5 0 100-3 1.5 1.5 0 000 3z" fill="#fff"/></svg>