<!-- by TradingView --><svg xmlns="http://www.w3.org/2000/svg" width="56" height="56"><path fill="url(#a2tay5w2i)" d="M0 0h56v56H0z"/><path fill="#A7CD44" d="M15 12h22v3H15z"/><path d="M18.3 20H15v3h1.57c1 0 1.42.81 1.43 1.24v10.7c.09 4.1 1.92 8.05 7.82 8.05 4.66 0 7.35-3.8 8.18-5.6v2.4c0 2.17 1.93 3.24 2.82 3.21H40v-3h-1.57C37.4 40 37 38.93 37 38.54V20h-3v10.18c0 4.76-2.5 9.55-7.9 9.82-4.34.21-5.1-3.16-5.1-5.06V22.71a2.58 2.58 0 00-2.69-2.7z" fill="#fff"/><defs><linearGradient id="a2tay5w2i" x1="10.42" y1="9.71" x2="68.15" y2="76.02" gradientUnits="userSpaceOnUse"><stop stop-color="#1A1E21"/><stop offset="1" stop-color="#06060A"/></linearGradient></defs></svg>