<!-- by TradingView --><svg width="56" height="56" xmlns="http://www.w3.org/2000/svg"><path fill="#4FC8ED" d="M0 0h56v56H0z"/><path d="M8 23H6v10h2V23z" fill="#fff"/><path fill-rule="evenodd" d="M10 23v10h2v-3h2.331c.89 0 2.653-1.098 2.669-3.645.015-2.548-1.856-3.355-2.67-3.355H10zm2 2h1.681c.517 0 1.319.345 1.319 1.425S14.25 28 13.681 28H12v-3zm11 8a5 5 0 100-10 5 5 0 000 10zm0-2a3 3 0 100-6 3 3 0 000 6z" fill="#fff"/><circle cx="40.5" cy="31.5" r="1.5" fill="#fff"/><path fill-rule="evenodd" d="M46 33c2.21 0 4-2.239 4-5s-1.79-5-4-5-4 2.239-4 5 1.79 5 4 5zm0-1.996c1.105 0 2-1.343 2-3s-.895-3-2-3-2 1.343-2 3 .895 3 2 3z" fill="#fff"/><path d="M34.216 23.003C30.87 22.989 29.942 25.706 30 27h2c.042-1.363 1.027-2.025 1.888-2 .861.025 1.533.581 1.547 1.358.013.777-.55 1.618-.833 1.941L30 33h7.998v-2h-3.019l1.51-1.628c1.41-1.224 1.532-2.452 1.509-3.014-.264-2.807-2.631-3.406-3.782-3.355z" fill="#fff"/></svg>