<!-- by TradingView --><svg xmlns="http://www.w3.org/2000/svg" width="56" height="56"><path fill="#F0F3FA" d="M0 0h56v56H0z"/><path d="M14 14h28v27H14V14zm2.02 2.04V18h2.82c1.56 3.07 3.44 6.42 5 9.48l-2.72.01-3.53-7h-1.56V31h23.72V20.5H38.2a453.93 453.93 0 00-3.49 6.98c-.72.01-1.66-.02-2.39 0 1.47-3.05 3.26-6.04 4.82-9.05.02-.03 0-.52 0-.56h2.59c0-.77.03-1.08.03-1.85h-6.51c-.68 3.84-1.6 7.64-2.27 11.46l-2.12.02 1.95-11.46h-5.73l1.86 11.46h-1.9c-.63-3.82-1.53-7.64-2.16-11.46h-6.86zM16 33v2h23.74v-2c.1.01-.09-.03 0 0H16zm0 5v.95h23.74V38H16z"/><path d="M16 16h7c.32 1.91.7 3.7 1.07 5.5.38 1.8.75 3.59 1.08 5.5h1.68l-.91-5.5L25 16h6c-.33 1.91-.66 3.7-1 5.5-.34 1.8-.68 3.59-1 5.5h1.9c.32-1.86.67-3.6 1.02-5.35.37-1.84.74-3.68 1.08-5.65h7v2h-2.63l-4.68 9h1.93l3.79-7H40v11H16V20h1.58l3.75 7h2.02a370.6 370.6 0 00-2.36-4.5 387.9 387.9 0 01-2.35-4.5H16v-2zm0 17h24v2H16v-2zm24 4H16v2h24v-2z" fill="#70A39A"/></svg>