<!-- by TradingView --><svg width="56" height="56" xmlns="http://www.w3.org/2000/svg"><path fill="#4E8C44" d="M0 0h56v56H0z"/><path d="M29.322 27.106a747.538 747.538 0 00-10.95-10.731c-.459-.445-.371-1.213.197-1.692a29.286 29.286 0 013.277-2.42c.574-.355 1.388-.344 1.853-.008 3.04 2.188 7.116 5.536 10.995 9.461-1.67 1.68-3.5 3.516-5.372 5.39zM41.066 28.805a93.404 93.404 0 012.68 3.496c.335.465.344 1.28-.011 1.853a29.466 29.466 0 01-2.418 3.277c-.479.568-1.245.657-1.691.196-1.025-1.063-2.12-2.199-3.311-3.425a76.891 76.891 0 004.75-5.397zM28.896 29.321a746.694 746.694 0 0010.73-10.949c.446-.461 1.212-.372 1.693.196a29.266 29.266 0 012.417 3.277c.356.575.347 1.388.01 1.853-2.188 3.04-5.535 7.116-9.462 10.995-1.68-1.669-3.516-3.5-5.388-5.372zM27.196 41.066a93.404 93.404 0 01-3.497 2.68c-.465.336-1.278.345-1.852-.01a29.416 29.416 0 01-3.278-2.418c-.568-.48-.657-1.247-.196-1.693 1.062-1.023 2.2-2.12 3.425-3.311a76.564 76.564 0 005.398 4.752zM27.105 26.68a745.823 745.823 0 00-10.728 10.949c-.446.46-1.213.372-1.693-.196a29.141 29.141 0 01-2.418-3.278c-.354-.572-.345-1.387-.01-1.853 2.188-3.04 5.535-7.115 9.462-10.994 1.678 1.669 3.515 3.499 5.387 5.371zM28.806 14.934a93.511 93.511 0 013.496-2.68c.465-.335 1.279-.344 1.853.011a29.465 29.465 0 013.277 2.418c.568.48.657 1.247.196 1.693-1.062 1.023-2.199 2.12-3.425 3.311a76.907 76.907 0 00-5.397-4.753zM26.679 28.895a746.198 746.198 0 0010.95 10.73c.459.446.371 1.212-.197 1.693a29.085 29.085 0 01-3.278 2.418c-.573.355-1.387.346-1.852.01-3.04-2.189-7.116-5.536-10.995-9.461 1.67-1.68 3.5-3.516 5.372-5.39zM14.934 27.196a93.502 93.502 0 01-2.68-3.496c-.336-.467-.345-1.28.01-1.853a29.316 29.316 0 012.417-3.278c.479-.568 1.246-.656 1.691-.196 1.025 1.064 2.12 2.2 3.31 3.426a78.394 78.394 0 00-4.748 5.397z" fill="#fff"/></svg>