<!-- by TradingView --><svg xmlns="http://www.w3.org/2000/svg" width="56" height="56"><path fill="#1A3256" d="M0 0h56v56H0z"/><path d="M35.87 41.61A18.8 18.8 0 0127.95 44c-1 0-2.25 0-2.9-.15A16.2 16.2 0 0112 27.87c0-5.03 3.24-10.59 8.23-13.41 2.52-1.43 5.09-2.46 7.72-2.46 3.24 0 6.75 1.02 8.76 2.37l.06.04-1.12.77a14.27 14.27 0 00-7.7-2.25c-2.69 0-5.38.42-7.55 1.73-4.34 2.61-7.09 7.79-7.09 13.34 0 8.32 6.56 15.07 14.64 15.07 2.78 0 5.5-.43 7.72-1.81 4.23-2.64 6.92-7.79 6.92-13.26 0-2.89-.78-5.58-2.15-7.88l1.14-.74A15.99 15.99 0 0144 27.87a16.6 16.6 0 01-8.13 13.74zM41 17a2 2 0 11-4 0 2 2 0 014 0zM28 32a4 4 0 100-8 4 4 0 000 8z" fill="#fff"/></svg>