<!-- by TradingView --><svg xmlns="http://www.w3.org/2000/svg" width="56" height="56"><path fill="#F0F3FA" d="M0 0h56v56H0z"/><path d="M18.5 43.5v-26h9.1c.89 0 1.25 1.27 1.32 1.9v7.39c4.82-1.61 7.73-.16 8.58.77V43.5h-19z" fill="url(#angdku3h3)"/><path d="M18 17h9.18c.73 0 1.17.52 1.42.98.25.47.4.98.4 1.38v6.75c4.58-1.32 7.9.05 8.87 1.11l.13.14V44H18V17zm1 1v25h18V27.77c-.86-.77-3.9-1.99-8.33-.51l-.67.22v-8.04a2.98 2.98 0 00-.29-.99c-.17-.34-.36-.45-.53-.45H19z" fill="url(#bngdku3h3)"/><path fill="#327272" d="M32 15h1v1h-1zm7 4h1v1h-1z"/><path fill="#006A8C" d="M39 13h1v1h-1z"/><path fill="#327272" d="M36 13h1v1h-1z"/><path fill="#006A8C" d="M38 11h1v1h-1z"/><path fill="#327272" d="M39 10h1v1h-1zm-4 4h1v1h-1zm-1 1h1v1h-1zm-2 2h1v1h-1zm1-4h1v1h-1zm1-2h1v1h-1zm-4-2h1v1h-1zm0 2h1v1h-1z"/><path fill="#006A8C" d="M27 11h1v1h-1z"/><path fill="#327272" d="M26 13h1v1h-1zm3 0h1v1h-1zm-1 1h1v1h-1z"/><path fill="#006A8C" d="M29 15h1v1h-1zm-1.82 2H31v1h1v1h1v-1h1v-1h1v1h1v-1h2v3h-1v-1h-1v1h-1v1h-1v1h1v-1h1v1h1v-1h1v1h-1v1h-1v1h1v1h1v2.52a3.46 3.46 0 00-1.1-1.7L31 20.1V19h-1.13l-.75-.72-.1-.1c-.36-.42-1.04-1.18-1.84-1.18zM37 24v-1h1v1h-1zm0-3h-1v-1h1v1z"/><path fill="#F0F3FA" d="M22 36h1v6h-1zm9.86 0H31v6h1v-2.33h1.16a1.84 1.84 0 100-3.67h-1.3zm.14 3v-2.32h.84a1.16 1.16 0 010 2.32H32zm-6.5-3v1H27v5h1v-5h1.5v-1h-4z"/><defs><linearGradient id="angdku3h3" x1="28" y1="17.5" x2="28" y2="43.5" gradientUnits="userSpaceOnUse"><stop stop-color="#B3D9DD"/><stop offset=".44" stop-color="#129FA6"/><stop offset="1" stop-color="#08774C"/></linearGradient><linearGradient id="bngdku3h3" x1="28" y1="15.19" x2="25.64" y2="43.48" gradientUnits="userSpaceOnUse"><stop stop-color="#2CADB2"/><stop offset="1" stop-color="#042C1C"/></linearGradient></defs></svg>