<!-- by TradingView --><svg xmlns="http://www.w3.org/2000/svg" width="56" height="56"><path fill="#F0F3FA" d="M0 0h56v56H0z"/><path d="M42 13H26.5C17.94 13 11 19.96 11 28.56c0 7.95 5.95 14.5 13.62 15.44A13.79 13.79 0 0115 30.8 13.71 13.71 0 0129 17h13v-4zm0 23a8 8 0 11-8-8h8v8zM29 18h13v4H31.42C25.12 22 20 27.15 20 33.5c0 4.68 2.8 8.72 6.8 10.5A13.07 13.07 0 0116 31.1C16 23.85 21.82 18 29 18zm13 5H31.5C25.7 23 21 27.74 21 33.58c0 5.23 3.77 9.57 8.71 10.42A9.05 9.05 0 0134 27h8v-4z" fill="url(#aqnal4zgu)"/><defs><linearGradient id="aqnal4zgu" x1="31.22" y1="13" x2="26.5" y2="44" gradientUnits="userSpaceOnUse"><stop offset=".43" stop-color="#E46C0A"/><stop offset=".81" stop-color="#002060"/></linearGradient></defs></svg>