<!-- by TradingView --><svg width="56" height="56" xmlns="http://www.w3.org/2000/svg"><path fill="#F0F3FA" d="M0 0h56v56H0z"/><path d="M15.537 39.964L21 45.327l3-2.69L29.382 48 35 42.557v-3.514l-5.618 5.446L24 39.115l-3 2.696-5.463-5.357v3.51zm11.077-21.25L21 13.356v3.516l5.614 5.357 5.39-5.37v-3.513l-5.39 5.368z" fill="#08090D"/><path d="M26.614 22.229L15.538 32.943 10 27.587v3.507l5.538 5.357 11.076-10.714 3.722 3.602 1.816-1.752-5.538-5.358zm8.308 13.389l-5.539-5.356v3.51l5.539 5.358 11.075-10.712v-3.514L34.922 35.618z" fill="#08090D"/><path d="M34.922 35.618l11.075-10.714-5.538-5.355-2.77 2.68L32 16.864l-5.386 5.365 5.539 5.36-1.817 1.752-3.722-3.602-11.077 10.712L21 41.828l3-2.671 5.383 5.332L35 39.14l-5.616-5.367V30.26l5.539 5.357zM21.004 16.875l5.61 5.352L15.54 32.944l-5.538-5.356 11.002-10.713zM26.615 8L32 13.367l-5.387 5.345L21 13.36 26.615 8z" fill="#FCB034"/></svg>