<!-- by TradingView --><svg width="56" height="56" xmlns="http://www.w3.org/2000/svg"><path fill="#D3003F" d="M0 0h56v56H0z"/><path d="M11 24.183v1.046l33-9.183V15l-33 9.183zM11 42l33-9.183V31.77l-33 9.184V42zM35.197 20.882L44 18.442v-1.047L33.956 20.19s.036.332.036.495c0 1.617-1.678 2.754-3.57 2.756-2 .002-2.56-1.554-2.56-1.554L11 26.579v1.046l16.26-4.522s.882 1.468 3.076 1.466c2.194-.002 4.474-1.133 4.86-3.687z" fill="#fff"/><path d="M37.885 22.54L44 20.838V19.79l-6.91 1.94c-.517 3.321-3.85 4.921-6.754 4.924-3.011.002-4.259-1.869-4.259-1.869L11 28.975v1.046l14.84-4.128c.969 1.127 2.582 1.807 4.56 1.805 3.506-.004 6.754-2.156 7.485-5.158z" fill="#fff"/><path d="M39.254 24.554L44 23.234v-1.047l-5.19 1.445c-.86 3.93-4.904 5.7-8.173 5.704-1.011.001-3.205-.06-5.072-2.019L11 31.37v1.046l14.66-4.08c1.686 1.748 3.966 1.983 5.257 1.982 4.947-.005 8.022-3.608 8.337-5.764z" fill="#fff"/><path d="M39.737 26.816L44 25.628v-1.046l-4.383 1.22c-1.13 4.59-5.711 5.871-8.378 5.874-2.15.002-3.527-.486-5.248-2.082L11 33.766v1.047l15.41-4.289c1.797 1.73 3.818 1.962 5.087 1.961 5.227-.005 7.684-3.477 8.24-5.67z" fill="#fff"/><path d="M39.413 29.302L44 28.024v-1.047l-4.33 1.206c-.086.505-.257 1.119-.257 1.119zM27.974 32.485L11 37.209v-1.047l16.175-4.501c.343.338.8.824.8.824zM38.836 30.81L44 29.372v1.046l-6.36 1.77c-.89.861-2.723 2.04-5.218 2.041-.452 0-1.032-.108-1.444-.187L11 39.603v-1.047l18.368-5.092s-.495-.255-.86-.553c0 0 1.57.634 3.345.632 2.677-.002 5.71-1.3 7.28-3.622 0 0-.227.67-.297.888z" fill="#fff"/></svg>