<!-- by TradingView --><svg width="56" height="56" xmlns="http://www.w3.org/2000/svg"><path fill="#F0F3FA" d="M0 0h56v56H0z"/><path d="M30.996 30l-.924 2.992c.493-.01.847-.05 1.01-.133.157-.09.238-.16.331-.5l.526-1.544c.103-.356.074-.578-.025-.652-.099-.079-.406-.153-.918-.163zm.822-3l-.539 2.003c.153-.005.256-.005.345-.005.355 0 .605-.104.733-.213.128-.108.222-.267.37-.775.078-.267.116-.644.066-.748a.367.367 0 00-.266-.212 4.27 4.27 0 00-.709-.05zM29 26h3.154c.99 0 1.724.05 2.206.148.483.099.888.153 1.12.454.231.301.25.785.069 1.452-.123.45-.32.766-.596.944-.271.177-.744.316-1.424.41.7.103 1.143.276 1.335.518.192.242.206.565.089 1.14l-.295 1.01c-.143.52-.443 1.005-.699 1.257-.256.252-.6.42-1.034.514-.434.094-1.28.153-2.541.153H27l2-8zm-1.248 0H24.7l-1.308 4.945c-.079.29-.148.484-.182.587-.04.124-.163.247-.3.336-.104.064-.414.124-1.222.143-.084 0-.28-.005-.468-.014L20.633 34h2.275c.69 0 1.212-.045 1.576-.114.36-.074.655-.212.902-.39.231-.168.374-.36.453-.598.083-.232 1.913-6.899 1.913-6.899zm8.674 0l-.426.998c.192-.01.497 0 .58 0 .223 0 .96-.013 1.073.052.133.079.212.197.207.306-.005.103-.045.296-.123.588L35.959 34h3.069l1.827-6.2c.078-.292.128-.346.172-.445.05-.104.172-.198.32-.267.148-.069 1.016-.09 1.237-.09.084 0 .234-.009.416.001l.374-1h-6.948zm-18.455-4.747l.256-.143c-1.384-1.023-3.058-1.773-4.51-1.754-1.518.02-2.848.924-3.823 2.267-.876 1.21-1.413 2.806-1.704 4.367-.709 3.798.507 7.552 4.625 7.552 3.585 0 8.683-2.223 9.155-5.888.158-1.2-.453-2.894-1.566-4.39-.123.27-.128.266-.241.533a12.75 12.75 0 00-.192.489c.34.765.522 1.57.468 2.375-.173 2.692-3.763 4.86-6.713 4.94-3.497.093-4.797-2.668-4.689-5.177.153-3.437 1.768-6.273 4.344-6.643 1.315-.188 2.965.49 4.34 1.625 0 0 .181-.113.25-.153z" fill="#040706"/><path d="M26 35c-.806.636-3.051 1.031-4.739.636.197.291.202.301.271.395.089.128.296.4.296.4.881.11 3.935 0 5.172-1.43h-1zm2.895-10c-.867-2.415-3.137-3.94-7.067-3.164-2.71.533-6.039 2.87-6.98 6.352a5.086 5.086 0 00.203 3.24s-.39.093-.902.143c-.58.054-.95.02-.95.02-.739-1.744-.675-3.685.064-5.23 2.418-5.078 7.314-6.407 8.914-6.669 2.881-.469 5.836.657 7.023 2.677.601 1.023.906 1.653 1.069 2.631h-1.374zm-13.899 8.3c-.492.098-.63.113-.63.113 1.251 1.413 3.128 2.43 5.063 2.82 0 0-.187-.31-.34-.607-.157-.296-.285-.568-.285-.568a7.202 7.202 0 01-2.773-2.025c-.005.005-.503.158-1.034.267z" fill="#518BC9"/><path d="M31.24 15c-4.295 0-8.127 1.98-10.659 5.087a11.206 11.206 0 011.596-.395c.306-.05.61-.079.916-.094C25.33 17.51 28.286 16 31.601 16c5.624 0 10.453 3.885 12.005 9.031L44 23.6c-2.083-5.054-7.013-8.6-12.76-8.6zm-12.555 8.16a9.557 9.557 0 012.404-1.137c-.251.4-.483.81-.69 1.24-.123.262-.128.267-.236.519v.005c0 .005-.005.01-.005.015a12.477 12.477 0 00-.96 5.403 7.365 7.365 0 01-1.685 1.29 13.826 13.826 0 01-.079-1.507 13.99 13.99 0 011.251-5.828zM31.25 43c3.044 0 5.856-1.003 8.136-2.697L40.001 38c-2.207 2.01-5.136 3-8.337 3-5.96 0-10.96-3.947-12.19-9.627-.503.366-1.06.692-1.64.968C19.325 38.451 24.762 43 31.248 43z" fill="#B2B3B5"/></svg>