<!-- by TradingView --><svg width="56" height="56" xmlns="http://www.w3.org/2000/svg"><path fill="#00426C" d="M0 0h56v56H0z"/><path d="M29.228 33.73l-3.373-10.812C25.433 21.554 25.377 21 24 21c-1.18 0-1 .73-1 2.309v9.828c0 3.19-2.275 4.699-4.627 4.699-1.783 0-3.365-1.074-3.365-2.637 0-.494.353-.9.853-.9.496 0 .852.406.852.9 0 .752.46 1.8 1.603 1.8C19.402 37 20 36.083 20 34.194V23.305C20 21.163 19.73 21 18 21v-1h12v1c-1.754 0-1.811.196-1.41 1.46l1.926 6.118L33 20h1l2.242 8.603 1.926-6.143C38.545 21.28 38.52 21 37 21v-1h3.996v1c-1.221.11-1.496.441-1.877 1.726L36.209 32c2.811-.224 5.471.03 7.791.486v-12.65c0-1.014-.795-1.834-1.779-1.834H13.78c-.984 0-1.779.82-1.779 1.834v18.333c0 1.014.795 1.834 1.779 1.834H21c2.832-3.19 5.138-5.038 8.228-6.272z" fill="#fff"/><path d="M30 33.31c1.68-.592 3.36-.972 5-1.193l-2.334-7.113L30 33.31zM27 40.003h15.22c.984 0 1.78-.82 1.78-1.834V34c-7.488-.582-13.426 2.738-17 6.004z" fill="#fff"/></svg>