<!-- by TradingView --><svg width="56" height="56" xmlns="http://www.w3.org/2000/svg"><path fill="#354E5A" d="M0 0h56v56H0z"/><path d="M36.689 21.469c0-.454.372-.606.753-.606.398 0 .961.194 1.257.44l.305-.862c-.313-.217-.995-.441-1.562-.441-.94 0-1.608.674-1.608 1.516 0 1.61 2.283 1.017 2.283 2.001 0 .398-.364.616-.854.616-.415 0-.9-.17-1.263-.417-.296.843-.286.843-.286.843.355.274 1.04.445 1.523.445.948 0 1.763-.625 1.763-1.657 0-1.553-2.311-1.083-2.311-1.878zM19 22.685c0 .852-.33 1.315-1.091 1.315-.61 0-.826-.218-.978-.9l-.931.342c.212.984.694 1.562 1.718 1.562.728 0 1.286-.203 1.684-.648.398-.435.598-.99.598-1.946l.003-5.41H19v5.685zm5.337 1.07l.059-2.14C24.43 20.469 23.93 20 22.779 20c-.567 0-1.091.18-1.574.492l.203.861c.313-.256.787-.473 1.227-.473.677 0 .957.369.897.801l-.008.16c-.127-.01-.254-.028-.38-.028-1.541 0-2.345.672-2.345 1.676 0 .89.54 1.515 1.387 1.515.618 0 1.143-.398 1.406-.91.042.56.38.91.745.91.236 0 .507-.06.668-.135v-.774c-.144.057-.27.085-.38.085-.22 0-.297-.123-.288-.426zm-.847-.796c-.025.69-.482 1.202-1.1 1.202-.533 0-.736-.312-.736-.72 0-.548.38-.984 1.464-.984.135 0 .254.01.39.019l-.018.483zM35 20h-1v3c0 .601-.627 1.001-1.084 1.001-.677 0-.916-.171-.916-.985V20h-1v3.016c0 1.316.661 1.988 1.668 1.988.407 0 .968-.33 1.332-1.003v1.003h1V20zm-5 1.469C30 20.342 29.116 20 28.286 20c-.496 0-.83.065-1.286.723V20h-.998v5.004H27v-3.068c0-.653.552-1.065 1.187-1.065.592 0 .813.176.813.81v3.323h1v-3.535zM13 28h-1l.001 3H9v-3H8v8h1l-.001-3.996H12V36h1v-8zm21 3.747V31h-1v5h1v-3.163c0-.756.684-.965 1.319-.833.118-1.144.118-1.004.118-1.004-.492.047-1.065.075-1.437.747zm7.527-.87c-1.371 0-2.184 1.04-2.184 2.591 0 1.353.83 2.526 2.15 2.526 1.38 0 2.19-1.135 2.19-2.686 0-1.353-.827-2.432-2.156-2.432zm.008 4.247c-.786 0-1.311-.615-1.311-1.816 0-.975.448-1.561 1.27-1.561.727 0 1.396.444 1.396 1.599 0 .983-.5 1.778-1.355 1.778zm-4.676-2.619c0-.454.364-.606.753-.606.398 0 .796.152 1.092.398l.296-.861A2.52 2.52 0 0037.612 31c-.948 0-1.608.71-1.608 1.552 0 1.608 2.124.979 2.124 1.963 0 .397-.372.614-.863.614-.415 0-.893-.17-1.265-.416-.288.842-.276.842-.276.842.356.275 1.042.445 1.524.445.948 0 1.752-.624 1.752-1.656 0-1.551-2.141-1.044-2.141-1.839zM47 36h.998c-.02-.322-.042-3.52-.042-3.52 0-1.125-.883-1.48-1.694-1.48-.378 0-.898.024-1.262.696V31h-1l-.005 5H45v-3.093c0-.652.627-1.037 1.262-1.037.593 0 .703.465.738.791V36zm-19-8h-1v3.287c-.254-.209-.621-.277-1.002-.277-1.329 0-2.294.932-2.294 2.521 0 1.381.777 2.469 2.03 2.469.516 0 .96-.308 1.264-.743V36H28v-8zm-1.002 6.385c-.211.464-.611.754-1.085.754-.702 0-1.32-.577-1.32-1.731 0-1.012.516-1.538 1.422-1.538.431 0 .746.187.983.461v2.054zM30.511 31c-1.371 0-2.087.923-2.087 2.474 0 1.353.703 2.526 2.192 2.526.635 0 1.168-.227 1.659-.596l-.305-.672-.017-.047c-.355.255-.753.445-1.252.445-.855 0-1.32-.511-1.388-1.514h3.133c.017-.104 0-.321 0-.378 0-1.352-.624-2.238-1.935-2.238zm-1.198 2.004c.127-.766.487-1.166 1.198-1.166.668 0 1.045.334 1.146 1.166h-2.344zM23 32.481C23 31.46 21.993 31 21.451 31c-.541 0-1.079.044-1.451.716V31h-1v5h.996L20 33c0-.653.58-1.13 1.223-1.13.584 0 .779.176.779.81L22 36h1v-3.52zm-5 .651C18 31.78 17.44 31 16.128 31c-1.37 0-2.128.923-2.128 2.474 0 1.353.74 2.526 2.221 2.526.635 0 1.288-.286 1.779-.654l-.305-.672-.017-.038c-.347.246-.873.494-1.372.494-.855 0-1.237-.596-1.305-1.599H18s.009-.342 0-.399zm-2.999-.127c.128-.767.416-1.135 1.127-1.135.669 0 1.055.302 1.157 1.135H15z" fill="#F6F8FD"/></svg>