<!-- by TradingView --><svg width="56" height="56" xmlns="http://www.w3.org/2000/svg"><path fill="#2C8D5C" d="M0 0h56v56H0z"/><path d="M28 12c-8.823 0-16 7.177-16 16s7.178 16 16 16c8.823 0 16-7.177 16-16 0-8.822-7.177-16-16-16zm-1.27 29.15L29.123 34h2.881l-2.38 7.11a13.142 13.142 0 01-2.892.04zm6.93-1.214L38.962 24l-3.645-.001L33.308 30h-2.882l2-6-3.645-.001-5.437 16.364c-4.993-1.887-8.556-6.717-8.556-12.362 0-6.756 5.099-12.343 11.65-13.118l-3.35 9.732c-.042-.016-.837 3.39-2.103 3.137-.849-.169-.663-.797-.467-1.416.176-.547.746-2.334.746-2.334H17.68s-.657 1.674-.923 2.821c-.288 1.238-.02 3.547 2.9 4.339 3.101.842 4.917-.974 5.867-3.387.348-.88 3.384-9.55 4.53-12.824 6.312.991 11.155 6.465 11.155 13.05.001 5.26-3.09 9.812-7.55 11.935z" fill="#fff"/></svg>