<!-- by TradingView --><svg xmlns="http://www.w3.org/2000/svg" width="56" height="56"><path fill="#1DA63B" d="M0 0h56v56H0z"/><path d="M8.91 31.73a1.8 1.8 0 01-1.7 1.48c-.8 0-1.33-.67-1.19-1.48a1.8 1.8 0 011.7-1.48c.8 0 1.33.66 1.2 1.48zM14.94 34l1.2-6h-2.38l-1.2 6h2.38zm1.53-8.17a1.49 1.49 0 01-1.4 1.22c-.66 0-1.1-.54-.98-1.22.11-.67.74-1.21 1.4-1.21.66 0 1.1.54.98 1.21zM21.58 28a5.41 5.41 0 00-2.14.63l.09-.46h-2.37L15.96 34h2.37l.81-3.95a1.9 1.9 0 011.72-.5c.4.06.46.31.45.5L20.5 34h2.37l.91-4.46.01-.04c.02-.09.02-.17.02-.25-.01-.96-1.2-1.29-2.23-1.25zm4.21 2.08l1.5-1.5.51-2.58h-2.37l-1.6 8h2.37l.6-2.96-1.01-.96z" fill="#fff"/><path d="M29.2 30.08L33.5 26h-3.04l-4.09 4.08L30.46 34h3.03l-4.29-3.92zM10.55 26s-.67 3.34-1 4.91c-.25 1.23-.64 2.6-2.18 2.69H7.2c-.44 0-.85-.12-1.19-.35.32.38.82.6 1.37.68 1.01.18 2.2-.03 2.88-.44 1.24-.7 1.6-1.88 1.86-3.14L13 26h-2.45" fill="#fff"/><path d="M36.59 31.86a1.86 1.86 0 01-1.89-2.08 2.31 2.31 0 012.26-2.07c1.14 0 1.99.93 1.88 2.07a2.32 2.32 0 01-2.25 2.08zm.57-6.3a4.72 4.72 0 00-4.6 4.22A3.78 3.78 0 0036.4 34a4.71 4.71 0 004.6-4.22 3.78 3.78 0 00-3.83-4.22zm.38-2.4a1.16 1.16 0 00-.33-.38c-.14-.11-.3-.2-.5-.27a3 3 0 00-.57-.15 4.55 4.55 0 01-1.66-.6.48.48 0 01-.14-.15.45.45 0 01-.07-.23c0-.27.04-.53.13-.8.08-.27.2-.48.33-.63.22-.25.6-.47 1.17-.66a5.9 5.9 0 012.89-.18c.23.06.34.17.34.3 0 .23-.02.4-.09.53a.54.54 0 01-.19.25l-.36.17a3.56 3.56 0 00-.83.41c-.1.07-.16.1-.18.1l-.05-.03c0-.05.05-.13.16-.24.1-.1.23-.2.38-.27.17-.09.25-.14.25-.17 0-.04-.1-.06-.27-.06-.55 0-1.05.05-1.5.15-.47.1-.83.23-1.1.4-.26.16-.4.33-.4.5 0 .1.06.18.17.22.11.05.35.12.73.22.37.1.7.22 1 .36.43.19.75.38.95.58.2.2.3.43.3.68 0 .18-.03.35-.11.52-.08.18-.2.34-.35.48-.16.15-.34.27-.54.36a7.38 7.38 0 01-2.38.43c-.52 0-.93-.05-1.25-.15-.3-.1-.47-.25-.47-.46 0-.08.06-.23.16-.42a.8.8 0 01.38-.39c.12-.05.25-.08.36-.09.12 0 .18 0 .18.05l-.02.03-.03.02-.03.02-.15.05-.08.04-.03.06c0 .06.3.1.9.1.54 0 .97-.02 1.3-.06.34-.04.64-.12.9-.22s.5-.24.7-.42m3.19-1.33l-.62.42c-.18.12-.32.24-.44.37-.12.12-.2.25-.24.38l-.12.55c0 .2.14.3.41.3.13 0 .34-.12.64-.34a1.15 1.15 0 01-.08-.4c0-.2.04-.4.11-.6.08-.19.2-.42.34-.68zm.91 1.2v.3c-.2.18-.35.3-.47.37a.99.99 0 01-.5.07c-.39.47-.72.7-1.01.7a.69.69 0 01-.45-.17 1.13 1.13 0 01-.32-.46c-.08-.2-.13-.4-.13-.65 0-.2.07-.4.2-.64a2.88 2.88 0 011.11-1.16c.23-.13.44-.19.63-.19.14 0 .25.03.33.07.08.04.12.1.12.18 0 .06-.04.13-.1.21.1.02.18.06.23.12.03.06.06.16.06.3a2.86 2.86 0 01-.37 1.17l.08.1h.06c.05 0 .1-.02.15-.05l.13-.08.25-.2" fill="#fff"/><path d="M42.42 22.17a4.85 4.85 0 00.84-1.16c.13-.22.23-.42.3-.6.07-.18.1-.32.1-.4 0-.08-.01-.11-.06-.11-.02 0-.06.01-.1.05-.18.15-.38.45-.6.89a5.5 5.5 0 00-.48 1.33zm1.31.82v.33c-.61.84-1.1 1.26-1.5 1.26-.2 0-.36-.12-.48-.35a2.06 2.06 0 01-.18-.92c0-.31.07-.68.2-1.1a8.61 8.61 0 011.31-2.45c.25-.32.5-.55.7-.68A.44.44 0 0144 19c.06 0 .1.03.13.08.02.06.03.16.03.3 0 .41-.17.93-.5 1.54-.33.62-.8 1.24-1.39 1.88a2.3 2.3 0 00-.04.36c0 .2.04.35.12.48.08.12.2.18.34.18.07 0 .15-.03.23-.09.09-.06.18-.13.27-.22l.55-.52" fill="#fff"/><path d="M46.32 21.72a9.1 9.1 0 00-1.63.92c-.33.25-.49.51-.49.78 0 .1.02.18.05.24.03.06.08.09.13.09.03 0 .09-.02.17-.06.31-.19.6-.43.85-.73s.56-.72.92-1.24zm-2.11.5c.44-.41.88-.72 1.3-.93.42-.2.74-.3.97-.3.06 0 .12.02.17.08.05.05.1.11.13.18.03.07.04.12.04.16 0 .05-.02.1-.06.12l-.21.1.07.18a5.05 5.05 0 01.1.3c0 .08-.06.22-.2.41-.15.2-.25.35-.3.44-.06.1-.1.21-.1.35 0 .22.1.33.3.33.21 0 .53-.2.97-.6v.28c-.74.86-1.27 1.28-1.6 1.28-.1 0-.19-.04-.24-.12a.66.66 0 01-.07-.34c0-.24.08-.59.25-1.04-.43.5-.75.84-.95 1.05-.21.2-.38.31-.52.31-.06 0-.14-.06-.24-.17a1.68 1.68 0 01-.37-1.02.9.9 0 01.2-.65c.07-.1.2-.23.36-.4" fill="#fff"/><path d="M47.3 23.39v-.3c.17-.2.29-.36.37-.5a.54.54 0 01-.2-.11c-.05-.05-.07-.13-.07-.22 0-.11.04-.25.13-.42.09-.16.2-.32.33-.46a.96.96 0 01.35-.29l.12-.03c.06 0 .09.03.09.09 0 .05-.05.16-.14.31.6-.1.98-.14 1.14-.14l.13.01c.05.03.1.1.12.2.04.1.05.2.05.3 0 .06-.02.13-.08.2-.05.08-.15.19-.28.33-.15.17-.28.35-.4.56-.1.2-.15.35-.15.46 0 .14.09.21.26.21s.49-.18.93-.56v.3c-.24.27-.44.48-.6.63-.16.15-.3.27-.44.36a.66.66 0 01-.36.13c-.13 0-.23-.06-.31-.17a.87.87 0 01-.13-.51c0-.13.04-.28.1-.45.07-.16.16-.34.28-.54.13-.2.27-.39.43-.58a4.41 4.41 0 01-.6.12l-.27.05c-.18.37-.45.71-.8 1.02" fill="#fff"/></svg>