<!-- by TradingView --><svg xmlns="http://www.w3.org/2000/svg" width="56" height="56"><path fill="#F0F3FA" d="M0 0h56v56H0z"/><path d="M8 31.71V21h1v10.71C8.78 35.81 6.03 36 5.37 36c-.67 0-1.12-.1-1.37-.19v-1.08a3.79 3.79 0 001.37.27C7.4 35 8 32.91 8 31.71zm13-1.61V24h1v5.89c0 1.63 1.48 2.11 2.22 2.11 2.33 0 2.75-1.69 2.78-2.61V24h1v9h-1v-1.61c-.67 1.38-2.04 1.6-2.78 1.6A3.06 3.06 0 0121 30.1zm15-3.2V33h-1v-5.89c0-1.63-1.48-2.11-2.22-2.11-2.33 0-2.75 1.69-2.78 2.61V33h-1v-9h1v1.61c.67-1.38 2.04-1.6 2.78-1.6A3.06 3.06 0 0136 26.9zm7 5.74a4.13 4.13 0 01-1.7.36c-2.37 0-4.3-2.02-4.3-4.5s1.93-4.5 4.3-4.5c.6 0 1.18.13 1.7.36v1.1a3.2 3.2 0 00-1.65-.46C39.5 25 38 26.62 38 28.52S39.49 32 41.35 32c.6 0 1.16-.16 1.65-.45v1.09zM52 29c0-1.78-.56-5-4-5-3.22 0-4 2.9-4 4.5s.68 4.23 4.19 4.5c.85.07 2.23-.26 3.25-.96v-1.09A5.61 5.61 0 0148.19 32C46.62 32 45 30.57 45 29h7zm-7-1c.06-.97.83-3 3-3 .98 0 3 .64 3 3h-6z"/><circle cx="15" cy="28" r="5" fill="#FBC19C"/><circle cx="15" cy="28" r="4" fill="#F47C42"/><circle cx="15" cy="28" fill="#F14100" r="3"/><circle cx="15" cy="28" r="2" fill="#F0F3FA"/></svg>