<!-- by TradingView --><svg width="56" height="56" xmlns="http://www.w3.org/2000/svg"><path fill="#FFDC00" d="M0 0h56v56H0z"/><path d="M38.326 18.646a1.925 1.925 0 00-.108-.845 2.038 2.038 0 00-.465-.732 2.226 2.226 0 00-.745-.496 2.37 2.37 0 00-1.793 0 2.227 2.227 0 00-.744.496 2.039 2.039 0 00-.466.732c-.099.272-.136.56-.108.845v8.602h-.292v-11.9a2.193 2.193 0 00-.63-1.585 2.537 2.537 0 00-1.63-.75c-.32-.016-.641.03-.943.132a2.398 2.398 0 00-.81.469 2.199 2.199 0 00-.545.726c-.126.275-.191.57-.19.868v12.04h-.31v-12.5a2.143 2.143 0 00-.744-1.471 2.476 2.476 0 00-1.627-.599c-.604 0-1.186.214-1.627.599-.44.385-.706.91-.742 1.47v12.008a7.038 7.038 0 00-4.111-1.554c-2.88 0-3.987 1.644-3.987 2.894.06.732.426 1.412 1.021 1.893a3.152 3.152 0 002.16.681c1.86 0 2.064-.986 2.082-1.134.208-.022.42 0 .619.064.198.064.38.168.529.305.15.137.264.304.335.488.071.183.097.38.076.574 0 1.587.195 3.339-.966 3.339-1.16 0-.77-1.292-.77-1.892a1.273 1.273 0 00-.08-.607 1.358 1.358 0 00-.357-.515 1.493 1.493 0 00-.564-.317 1.577 1.577 0 00-.656-.058c-1.48 0-2.463.444-2.463 1.645v3.775a14.379 14.379 0 001.931 3.1l.106.107c1.436 2.122 4.58 3.808 8.78 3.808 4.846 0 8.797-2.286 9.063-5.165l.886-7.344.15-.411.044-.041c.231-.206.413-.454.533-.729.121-.274.178-.57.167-.867l-.009-10.148z" fill="#F6F8FD"/><path d="M27.491 44c-4.022 0-8.306-2.32-9.701-3.979-2.24-2.664-2.557-3.221-2.79-4.548V32.56c-.018-.773.492-1.563 1.1-2.01-.48-.783-1.05-1.48-1.1-2.439 0-1.414 1.24-3.512 4.66-3.512 1.233.027 2.302.316 3.34.935V14.747c.012-.738.47-1.441 1.04-1.957a3.13 3.13 0 012.131-.79c.541 0 1.072.133 1.54.386.466.253 1.023.971 1.289 1.408.344-.391 1.321-.794 2.476-.794 1.154 0 2.128.794 2.128.794.59.381 1.194 1.916 1.194 2.206 0 .29.647 0 1.497 0C38 16 40 17.579 40 19.215v9.655c.018.727-.297 1.45-.842 1.973l-.08.214-1.877 7.227a.375.375 0 010 .107C36.802 41.55 32.576 44 27.49 44zM17 35.473c.49 1.585 2.12 3.063 2.12 3.063.627.649 4.075 3.464 8.371 3.464 4.43 0 7.673-1.58 7.913-4.161v-.124l1.64-6.658c0-.89.99-1.289.956-2.196v-9.248c0-2.015-3.005-2.256-3.005 0v7.804c0 .26-.177.486-.415.577h-1.232c-.262-.101-.35-.304-.346-.577V16.644c0-2.076-2.999-2.24-2.999 0v10.663c0 .329-.296.683-.65.688h-.68c-.346 0-.674-.27-.674-.626V15.627c0-2.123-3.003-2.168-3.003 0V27.38c-.021.567-.705.812-1.134.493-1.025-.838-2.839-1.393-4.202-1.466-2.658 0-2.66.916-2.66 1.705.136 1.153 1.026 1.672 2.12 1.672 1.188 0 .83-.495 1.413-1.014.297-.264.935-.292 1.293-.182.814.252 1.697.887 2.035 1.705.61 1.473-.017 4.311-1.016 5.307-.623.577-1.918.576-2.53-.026-.188-.255-.312-.75-.312-1.553 0-.512-.115-2.012-1.574-2.012-1.46 0-1.429 1.691-1.429 2.012v1.453zm4.458-1.486h.107c.327-.255.444-1.663.435-2.395 0-.54.065-1.2-.568-1.408-.146.239-.345.447-.585.608.222.219.392.478.5.761.307.803-.039 1.65.129 2.467l-.018-.033z" fill="#0071BC"/></svg>