<!-- by TradingView --><svg width="56" height="56" xmlns="http://www.w3.org/2000/svg"><path fill="url(#paint0_linear)" d="M0 0h56v56H0z"/><path d="M12 23.003S9.02 29 8.998 29C9 28.99 6.9 24.292 6.872 24.001c-.036-.312.128-.998.128-.998.043 0 0 .036 0 0H4l.315.419c.33.355.58.943 3.287 7.589.451 1.092.888 1.993.888 1.993s3.12-6.018 3.142-6.004c.021.014 2.873 6.004 2.873 6.004s.844-1.908 1.79-4.234c.945-2.334 1.804-4.419 1.911-4.646.108-.22.33-.546.495-.73L19 23h-1.095l-.906.003c.25.298.136.857 0 1.347-.064.22-.6 1.458-1.166 2.856L15 29l-3-5.997zM20.343 25.013c0 .035.075.18.176.258.452.346.452.537.478 3.734.033 3.28 0 3.365-.411 3.712-.134.113-.243.262-.243.283h3.302l-.26-.227c-.15-.12-.31-.318-.352-.424-.059-.127-.033-1.287-.033-3.323 0-2.92-.042-3.147.1-3.423.092-.163.243-.34.335-.389.101-.05.21-.173.21-.201-.897 0-3.302-.029-3.302 0zM25.46 25c0 .028.063.152.148.202.077.05.204.226.282.39.12.275.11.502.11 3.376v3.328c0 .174-.22.387-.347.515l-.222.193h7.276s.323-1.976.295-2.004c-.022-.028-.148.085-.268.22-.607.694-.9.78-3.235.78H28v-3c0-2.924.014-3.062.134-3.331.07-.156.212-.354.317-.432.099-.085.184-.237.184-.237H25.46zM34.492 25.01c-.021.028.036.142.143.22.371.29.365.36.365 3.755 0 2.044-.015 3.218-.065 3.345a1.331 1.331 0 01-.3.424l-.221.246h7.767c.078-.262.31-1.97.275-1.998-.022-.02-.2.117-.407.301-.621.552-.96.702-3.366.702H37v-3h1.568c1.642.028 2.138.334 2.431.659v-2.157c-.371.276-1.003.495-2.538.495h-1.46v-1.991h1.316c2.264 0 3.175.073 3.682.604V25.01h-3.846c-1.984 0-3.64-.022-3.662 0zM43.516 25c0 .035.065.148.144.177.237.078.712.665 2.143 2.673L47 29.773s.126 2.73-.219 2.998c0 0-.266.198-.266.22 0 .02.748 0 1.546 0h1.453l-.223-.234c-.388-.396-.291-2.984-.291-2.984l1.161-1.874c1.402-1.959 2.11-2.821 2.355-2.899h-2.212c.166.212.303.757.159 1.082-.05.127-.518.827-1.036 1.556l-.942 1.329-.992-1.428c-.547-.785-1.028-1.514-1.079-1.613-.13-.275-.056-.784.102-.926h-3z" fill="#fff"/><defs><linearGradient id="paint0_linear" x1="10.418" y1="9.712" x2="68.147" y2="76.017" gradientUnits="userSpaceOnUse"><stop stop-color="#1A1E21"/><stop offset="1" stop-color="#06060A"/></linearGradient></defs></svg>