<!-- by TradingView --><svg width="56" height="56" xmlns="http://www.w3.org/2000/svg"><path fill="url(#paint0_linear)" d="M0 0h56v56H0z"/><path d="M49.5 28.517L52 25v6h-1v-3.253l-1.5 2.27L48 27.74V31h-1v-6l2.5 3.517zm-20.315.892c-.017-.298-.154-.894-.931-1.515l-.757-.707c-.29-.23-.427-.476-.435-.766 0-.332.222-.561.555-.578.008 0 .427-.052.683.306l.008.017.692-.468-.009-.017c-.12-.187-.657-.698-1.383-.664a1.55 1.55 0 00-1.033.434c-.264.272-.392.63-.367 1.047.026.485.381 1.047.97 1.523l.64.562c.36.29.513.536.53.826a.766.766 0 01-.197.57.615.615 0 01-.443.213h-.043c-.538 0-.76-.384-.888-.613l-.034-.06-.743.358c.068.187.47 1.132 1.648 1.132h.017c.427-.026.82-.196 1.101-.486.29-.289.444-.689.419-1.114zM12.005 25A3.005 3.005 0 009 27.996a3.005 3.005 0 003.005 2.995 3.005 3.005 0 003.006-2.995C15.019 26.345 13.67 25 12.005 25zm0 5.132a2.132 2.132 0 01-2.134-2.128c0-1.174.956-2.127 2.134-2.127 1.179 0 2.135.953 2.135 2.127.008 1.166-.956 2.128-2.135 2.128zM43 25.025a3.005 3.005 0 00-3.005 2.996A3.005 3.005 0 0043 31.017a3.005 3.005 0 003.005-2.996A3.005 3.005 0 0043 25.026zm0 5.132a2.132 2.132 0 01-2.135-2.127c0-1.175.957-2.128 2.135-2.128s2.135.953 2.135 2.128A2.137 2.137 0 0143 30.157zm-35 .86v-6H7v3.5l-3-3.5v6h1V27.5l3 3.517zm26-6h-4v1h1.5v4.992l1 .008v-5H34v-1zm3.711 3.702l.017-.008c.094-.043.188-.102.265-.162.47-.349.751-.92.751-1.54 0-1.085-.813-1.992-1.744-1.992h-2v6h1V29h.763L38 31.017h1l-1.289-2.298zm-.751-.706H36v-2h.96c.504 0 .905.442.905.987 0 .553-.401 1.013-.905 1.013zM22.5 25.017H21v5.992h1.272c2 0 2.728-1.426 2.728-3 0-1.792-1.125-2.992-2.5-2.992zm0 4.992H22v-4h.5c.94 0 1.54 1 1.54 2.004 0 1.115-.6 1.995-1.54 1.995zm-3.828-1.29l.017-.008c.094-.043.188-.102.265-.162.47-.349.751-.92.751-1.54 0-1.136-.774-2-1.705-2h-2v6.008h1V29h.725L19 31.009h1l-1.328-2.29zm-.751-.723l-.921.013v-2l.921.004c.504 0 .905.442.905.987 0 .553-.401.996-.905.996z" fill="#fff"/><defs><linearGradient id="paint0_linear" x1="10.418" y1="9.712" x2="68.147" y2="76.017" gradientUnits="userSpaceOnUse"><stop stop-color="#1A1E21"/><stop offset="1" stop-color="#06060A"/></linearGradient></defs></svg>