<!-- by TradingView --><svg width="56" height="56" xmlns="http://www.w3.org/2000/svg"><path fill="#65696E" d="M0 0h56v56H0z"/><path d="M17.157 28h.1l.522 2h-1.084l.462-2zm-1.588-4l-3.013 9h3.254l.322-1h2.21l.281 1h3.275l-2.852-9H15.57zm-6.68 0L7 27.155V24H4v9h3v-3.213L8.832 33h3.427l-2.464-4.67L12.249 24H8.89zm20.273 0l-1.442 4.166L26.514 24h-3.215l-1.105 9h3.034l.402-3.72L26.755 33h1.869l1.145-3.68.421 3.68h3.074l-.867-9h-3.235zM49 24v4.272l-2.546-4.264L42.996 24 43 33h3v-3.972L48.805 33H52v-9h-3zm-10.838 4h.1l.523 2H37.7l.462-2zm-1.587-4l-3.014 9h3.255l.321-1h2.21l.281 1h3.275l-2.853-9h-3.475z" fill="#fff"/></svg>