<!-- by TradingView --><svg width="56" height="56" xmlns="http://www.w3.org/2000/svg"><path fill="#006D46" d="M0 0h56v56H0z"/><path d="M19.975 12.175l-2.38 1.221-4.94 2.47a1.156 1.156 0 00-.63 1.047v5.458a.69.69 0 001 .625l7.337-3.696a1.156 1.156 0 00.635-1.042v-5.452c.015-.511-.558-.882-1.022-.63zm20.993-.091l-28.331 14.42A1.156 1.156 0 0012 27.55v5.446a.702.702 0 00.662.7.697.697 0 00.344-.07L41.348 19.22a1.158 1.158 0 00.636-1.048v-5.464a.69.69 0 00-.67-.709.687.687 0 00-.347.084zm3.007 26.462a1.289 1.289 0 00-.613-1.348l-15.007-7.493a1.228 1.228 0 00-1.22 0l-14.498 7.24a1.266 1.266 0 00-.613 1.35v4.762a.77.77 0 001.104.614l13.996-7.05c.18-.086.378-.13.578-.127.21-.006.417.037.606.127l14.546 7.302c.475.234 1.093-.09 1.146-.614l-.025-4.763z" fill="#fff"/></svg>