<!-- by TradingView --><svg width="56" height="56" xmlns="http://www.w3.org/2000/svg"><path fill="#FCAF16" d="M0 0h56v56H0z"/><path d="M42.471 28.153c-1.682.104-3.017.78-4.036 1.406l-.001-.046c0-1.579.623-3.404-.016-4.921-.281-.686-2.272-.556-2.29.741-.044 3.086-.735 5.947-.37 9.122.173 1.325 2.829.605 2.869-.701.384-1.582 1.942-3.471 3.784-3.755 4.549-.73 3.629 4.192-.772 5.692-1.265.431-2.672.688-4.401.627-.073-.046-1.62-1.108-1.62-1.108-3.398-2.414-7.038-4.597-10.509-6.953 4.535-2.924 9.812-6.126 13.668-8.91.798-.576 1.113-2.484-.087-1.752-3.416 1.753-11.623 6.532-13.378 7.668.133-2.2.534-5.33 1.03-7.938.297-1.144-2.01-2.03-2.609-.521-.965 2.361-1.77 6.245-1.961 9.352-2.496-1.606-5.164-2.709-7.635-4.312-1.875-.98-2.712 1.08-1.875 1.894 2.19 2.13 5.2 3.312 7.803 4.825-1.521 1.031-5.388 3.58-8.809 5.921-1.161.795 1.942.471 2.97.016 2.614-1.17 4.984-2.904 7.468-4.302-.104 3.741.4 6.976 1.298 10.452.165 1.058 1.671 3.351 2.333 1.87.246-1.407-.804-5.677-.348-11.005 0 .064 0-.068 0 0 4.18 2.64 8.34 6.128 13.116 7.5.539.166 1.439-.55 1.242-1.09C42.814 37.75 48 35.863 48 31.609c.005-2.705-3.366-3.583-5.529-3.455z" fill="#6D655D"/></svg>