<!-- by TradingView --><svg width="56" height="56" xmlns="http://www.w3.org/2000/svg"><path fill="#FFC527" d="M0 0h56v56H0z"/><path d="M37.279 18c-2.476 0-3.525 1.327-4.279 2.245V13h-5v3h1v17h4v-2c.773 1.145 2.148 2 4.148 2C41.322 33 44 29.613 44 25.604 43.97 21.754 41.699 18 37.279 18zM40 25.5c-.02 1.99-1.694 3.524-3.557 3.5C34.58 28.976 33 27.96 33 25.588c0-2.373 1.151-3.678 3.443-3.588 2.291.09 3.576 1.51 3.557 3.5zM25.87 30c-.726 0-1.266-.555-1.603-.943C24.08 28.838 21 25 21 25l6-7h-5l-5 6V13h-5v3h1v17h4v-6.997l3.926 4.722C22.19 32.444 23.153 33 24.89 33c.354 0 1.653-.05 2.109-.169V30c.017-.017-.979 0-1.13 0zM19 36v3h-5v-3h-1v7h1v-3h5v3h1v-7h-1zM24.5 36a3.506 3.506 0 00-3.5 3.5c0 1.932 1.575 3.5 3.5 3.5 1.94 0 3.5-1.568 3.5-3.5.016-1.932-1.56-3.5-3.5-3.5zm2.5 3.484c0 1.286-.756 2.524-2.484 2.516-1.728-.008-2.525-1.42-2.516-2.516.01-1.096.764-2.494 2.516-2.484 1.752.01 2.484 1.198 2.484 2.484zM36 36l-3 3-3-3h-.997v7l.997-.016v-4.986L33 41l3-3.002L35.999 43h1.004v-7H36zM44 37v-1h-6v7h6v-1h-5v-2h4v-1h-4v-2h5z" fill="#222720"/></svg>