<!-- by TradingView --><svg width="56" height="56" xmlns="http://www.w3.org/2000/svg"><path fill="#12347D" d="M0 0h56v56H0z"/><path d="M21.252 25.274c.985-5.209 3.875-8.659 6.494-10.341-2.696.566-6.423 4.276-7.337 9.27-.721 3.937-.514 7.943.646 10.33-.477-2.55-.432-5.931.197-9.259zM13.36 14.081l1.359 3.84.826-3.993-.1 4.078 2.192-3.42-1.544 3.767 3.261-2.387-2.78 2.947 3.89-1.03-3.643 1.729 3.994.466-4.01.277 3.558 1.898-3.839-1.212 2.642 3.075-3.148-2.538 1.37 3.836-2.032-3.52-.09 4.079-.64-4.028-1.536 3.771.836-3.99-2.773 2.953 2.2-3.415-3.638 1.738 3.267-2.378-4.01.287 3.893-1.02-3.842-1.203 3.993.476-3.154-2.53 3.554 1.907-2.04-3.515 2.634 3.081-.65-4.026z" fill="#fff"/><path d="M12.718 15.14l1.727 3.081.121-3.545.514 3.508 1.374-3.262-.77 3.46 2.442-2.538-1.948 2.946 3.179-1.472-2.864 2.032 3.487-.207-3.393.846 3.324 1.086-3.463-.456 2.712 2.232-3.066-1.695 1.734 3.077-2.255-2.707.522 3.507-1.14-3.352-.76 3.462.13-3.544-1.94 2.95 1.382-3.258-2.86 2.04 2.448-2.532-3.39.854 3.182-1.464-3.464-.448 3.487-.198-3.07-1.688 3.32 1.095-2.26-2.701 2.706 2.24-1.148-3.35z" fill="#fff"/><path d="M17.384 19.637c2.198-3.336 6.206-6.243 10.637-6.76-4.8-.125-9.758 2.122-12.765 6.064.637.12 1.486.23 2.128.696zM17.13 36.659c-1.451-.361-2.862-1.284-3.93-2.1 2.637 5.833 8.405 9.413 14.136 9.43.474.001 1.219.03 1.674-.012-4.391-.348-9.02-2.743-11.88-7.318zM29.363 37.033c-6.103 0-11.55-1.87-14.018-4.463-1.213-4.496-.334-8.705 1.284-11.648-.755-.384-1.343-.838-1.925-1.294-2.849 4.148-3.402 8.884-2.136 13.165 2.39 2.693 8.053 4.725 14.3 4.725 2.43 0 4.675-.126 6.718-.632-1.358.198-2.739.147-4.223.147zM43 33.051s-1.02 1.088-1.74 1.606c0 0-1.934 5.726-7.753 8.33 0 0 7.102-2.265 9.493-9.936z" fill="#fff"/><path d="M15.257 18.94c1.937 1.595 4.382 2.504 6.81 3.004l.306-.88c-3.228-1.026-4.61-2.346-4.61-2.346l-2.506.223zm8.121 2.416a5.837 5.837 0 00-.25.782c4.764.763 9.166.086 9.166.086-3.764.134-6.7-.281-8.916-.868zM35 28h-5v-5h5v5zM41 27h-4v-4h4v4zM43 23h-1v-1h1v1zM41 22h-1.997v-2H41v2zM37 17h-.998v-1H37v1zM36.78 21.972h-1.436v-1.46h1.437v1.46zM34.35 22.652h-1.868v-1.897h1.868v1.897zM40.003 19h-1v-1h1v1zM38.002 20h-2v-2h2v2zM35 20h-3v-3h3v3z" fill="#fff"/></svg>