<!-- by TradingView --><svg width="56" height="56" xmlns="http://www.w3.org/2000/svg"><path fill="#E60012" d="M0 0h56v56H0z"/><path d="M46.113 23.431c-.222-.495-.444-.936-.666-1.376l-12.87 9.688-4.605 3.468-1.775 1.1-5.825 3.634h.722c.72 0 1.497-.055 2.163-.22l3.384-3.028 1.331-1.21 4.216-2.808 13.925-9.248zM46.334 23.982L28.14 37.908A11.995 11.995 0 0034.907 40C41.564 40 47 34.605 47 28a11.98 11.98 0 00-.666-4.018zM21.093 16C14.437 16 9 21.395 9 28c0 1.431.222 2.752.721 4.018l18.14-13.926C25.975 16.77 23.59 16 21.093 16zM28.028 25.688l4.105-2.697 8.543-5.56c-.5-.275-.998-.495-1.553-.715L31.8 22.44l-3.772 2.973-5.16 3.413-10.817 7.156c.333.385.721.715 1.11 1.1l9.763-7.486 5.104-3.908zM28.028 28.165l4.826-3.193 9.597-6.33c-.388-.33-.832-.66-1.276-.936l-8.598 6.606-4.605 3.523-4.826 3.192-9.597 6.33c.444.33.832.661 1.331.881l8.543-6.605 4.605-3.468zM28.028 30.642l5.159-3.413 10.762-7.21c-.333-.386-.721-.716-1.11-1.101l-9.763 7.486-5.104 3.853-4.105 2.697-8.488 5.615c.5.275 1 .495 1.554.715l7.267-5.67 3.828-2.972zM28.028 23.266l3.106-1.982 7.323-4.733c-.61-.22-1.276-.33-1.942-.44l-5.769 4.623-2.718 2.147-5.048 3.357-12.15 8.147c.278.44.555.826.888 1.211l11.095-8.422 5.215-3.908zM28.028 20.789l1.775-1.1L35.628 16h-.721c-.721 0-1.443.055-2.164.22l-3.384 3.028-1.331 1.21-4.216 2.808L9.943 32.57c.222.495.444.936.666 1.376l12.815-9.688 4.604-3.468zM28.028 33.12l5.048-3.359 12.093-8.146a9.73 9.73 0 00-.887-1.211l-11.095 8.422-5.16 3.908-3.106 1.981L17.6 39.45c.61.166 1.275.33 1.886.386l5.825-4.624 2.718-2.092z" fill="#fff"/></svg>