<!-- by TradingView --><svg xmlns="http://www.w3.org/2000/svg" width="56" height="56"><path fill="#F37020" d="M0 0h56v56H0z"/><path d="M21.51 29c.28 0 .49.22.49.5s-.2.5-.49.5h-6.08c-.84 0-1.43-.6-1.43-1.45v-4.13c0-.85.6-1.45 1.43-1.42h6.08c.28 0 .49.21.49.5 0 .28-.2.5-.49.5h-5.94c-.31 0-.57.2-.57.53V26h5.49a.5.5 0 110 1H15v1.44c0 .32.26.56.57.56h5.94zM51 23.6c0-.32.2-.6.5-.6.34 0 .5.28.5.6v4.97c0 .84-.58 1.43-1.4 1.43h-5.64a.47.47 0 01-.48-.49c0-.28.2-.51.48-.51h5.36c.31 0 .68-.19.68-.5V27h-5.6c-.82 0-1.4-.43-1.4-1.27V23.6c0-.31.2-.59.5-.59s.5.28.5.6v2.03c0 .31.26.37.57.37H51v-2.4zm-37.22 9.35h-2.4c-.14 0-.22.07-.22.18v.41h2.23c.1 0 .21.12.21.23 0 .11-.1.22-.21.22h-2.23v.34c0 .15.08.22.22.22h2.4c.11 0 .22.11.22.23 0 .1-.1.22-.22.22h-2.5c-.33 0-.58-.22-.58-.6v-1.3c0-.34.21-.6.57-.6h2.51c.11 0 .22.11.22.22 0 .12-.1.23-.21.23zm5.3-.3c-.06-.11-.17-.11-.28-.07l-1.22.86-1.26-.94c-.07 0-.21 0-.28.12-.07.11-.04.23.07.3l1.11.83-1.11.82c-.1.08-.1.2-.07.3.07.13.18.13.28.09l1.26-.9 1.22.9c.11.08.22.04.29-.04.07-.12.04-.24-.04-.31l-1.07-.78 1.07-.78c.07-.12.11-.28.04-.4zm10.48.58c0 .58-.32.72-.72.72h-.71l1.25.62c.11.04.18.18.11.3-.04.1-.18.17-.29.1l-1.94-1.02a.2.2 0 01-.1-.18c0-.1.1-.22.21-.22h1.4c.18 0 .33-.07.33-.32 0-.26-.15-.33-.33-.33h-2v1.82a.25.25 0 01-.08.18.24.24 0 01-.18.07.24.24 0 01-.18-.07.25.25 0 01-.07-.18v-1.97c0-.14.1-.25.25-.25h2.33c.4 0 .72.15.72.73zm10.55 1.03c.04-.58-.28-.73-.71-.73h-1.76c-.18 0-.33-.07-.33-.3 0-.22.15-.29.33-.29h2.26c.1 0 .21-.1.21-.22 0-.11-.1-.22-.21-.22h-2.3c-.4 0-.72.15-.72.74 0 .58.33.73.72.73h1.76c.18 0 .29.07.29.3 0 .25-.15.29-.29.29H37.1c-.1 0-.22.1-.22.22 0 .11.11.22.22.22h2.3c.4 0 .71-.15.71-.74zm5.25 0c.03-.58-.3-.73-.72-.73h-1.76c-.18 0-.33-.07-.33-.3 0-.22.15-.29.33-.29h2.26c.1 0 .22-.1.22-.22 0-.11-.11-.22-.22-.22h-2.3c-.4 0-.72.15-.72.74 0 .58.33.73.72.73h1.76c.18 0 .29.07.29.3 0 .25-.14.29-.29.29h-2.26c-.1 0-.22.1-.22.22 0 .11.11.22.22.22h2.3c.4 0 .72-.15.72-.74zm-13.14-1.31h2.4c.11 0 .22-.11.22-.23 0-.1-.1-.22-.22-.22h-2.5c-.37 0-.58.26-.58.6v1.3c0 .38.25.6.57.6h2.51c.11 0 .22-.11.22-.22 0-.12-.1-.23-.22-.23h-2.4c-.15 0-.22-.07-.22-.22v-.34h2.23c.1 0 .21-.11.21-.22s-.1-.23-.21-.23H32v-.4c0-.12.07-.2.22-.2zm-20.5-3.92c.25.2.37.44.2.72-.15.24-.44.32-.68.16l-4.2-3.21L5 27.9v1.57c0 .36-.19.53-.5.53s-.5-.17-.5-.53v-5.94c0-.35.19-.53.5-.53s.5.18.5.53v3.2l6.18-3.65c.28-.16.6-.04.73.24.14.32-.06.5-.3.66l-3.65 2.16 3.76 2.9zm9.53 3.47h2.33c.4 0 .72.18.72.74 0 .58-.32.73-.72.73H21.5v.77c0 .15-.1.26-.25.26a.25.25 0 01-.25-.26v-1.98a.26.26 0 01.07-.19.24.24 0 01.18-.07zm.25 1.07h2.01c.18 0 .33-.08.33-.3 0-.26-.15-.33-.33-.33h-2v.63zm20.5-8.5c0 1.3-.96 1.93-1.92 1.93H38.4l3.1 1.92c.32.18.48.5.34.79-.13.28-.5.35-.7.2l-4.68-2.86c-.17-.08-.27-.29-.27-.53 0-.32.2-.52.47-.52h3.42c.41 0 .92-.36.92-.94 0-.68-.5-1.06-.92-1.06H35v5.44c0 .37-.2.56-.5.56s-.5-.2-.5-.56V23.7c0-.36.27-.69.58-.69h5.67c.96 0 1.75.77 1.75 2.06zM30.08 27c.96 0 1.92-.64 1.92-1.94 0-1.3-.79-2.06-1.74-2.06h-5.68c-.3 0-.58.32-.58.69v5.77c0 .37.2.54.5.54s.5-.17.5-.54V24h5.08c.41 0 .92.38.92 1.06 0 .58-.5.94-.92.94h-3.41c-.28 0-.48.2-.48.52 0 .24.1.44.27.53l4.68 2.87c.2.14.57.07.7-.21.14-.29-.02-.6-.34-.8L28.4 27h1.68z" fill="#fff"/></svg>