<!-- by TradingView --><svg width="56" height="56" xmlns="http://www.w3.org/2000/svg"><path fill="url(#paint0_linear)" d="M0 0h56v56H0z"/><path d="M51 35H5V21h46v14z" fill="#E0B16C"/><path d="M50.016 22H6v12h44l.016-12z" fill="url(#paint1_linear)"/><path d="M11.526 27.735h.037c.252-.277 1.339-1.65 1.554-1.904.208-.247.35-.412.35-.54 0-.082-.03-.134-.104-.149-.067-.015-.097-.03-.097-.075 0-.052.037-.067.119-.067h1.636c.075 0 .127.015.127.067 0 .053-.038.068-.112.068-.104 0-.29.03-.432.082-.23.09-.46.224-.78.539-.23.224-1.354 1.604-1.607 1.874.268.351 1.703 2.039 1.993 2.316.328.313.663.628 1.064.785.224.09.372.112.462.112.052 0 .096.015.096.06 0 .052-.037.075-.178.075-.385 0-.777.022-1.161-.016-.402-.036-.603-.201-.922-.485-.327-.292-1.77-2.107-1.927-2.324l-.082-.111h-.037v.68c0 .688 0 1.388.023 1.71.014.21.081.374.268.404.103.015.267.03.364.03.06 0 .097.022.097.06 0 .052-.06.074-.142.074h-2.008c-.097 0-.149-.023-.149-.075 0-.038.03-.06.119-.06.112 0 .201-.014.268-.03.149-.03.186-.194.216-.41.037-.315.037-1.015.037-1.704v-1.315c0-1.137-.023-1.583-.038-1.822-.014-.255-.074-.375-.32-.427a1.533 1.533 0 00-.29-.022c-.082 0-.126-.015-.126-.068 0-.052.052-.067.164-.067h1.941c.104 0 .157.015.157.067 0 .053-.045.068-.105.068-.074 0-.118.007-.208.022-.2.038-.26.165-.275.427-.015.239.007.685.007 1.822v.329zM17 27.383c0-1.137 0-1.605-.015-1.844-.014-.254-.089-.382-.253-.42a1.063 1.063 0 00-.268-.029c-.074 0-.118-.015-.118-.075 0-.045.059-.06.178-.06h1.952c.097 0 .157.015.157.06 0 .06-.045.075-.12.075-.074 0-.134.008-.223.022-.2.038-.26.165-.275.427-.015.239-.015.707-.015 1.844V28.7c0 .726 0 1.449.03 1.77.03.32.113.396.493.396.081 0 .119.023.119.06 0 .052-.06.075-.142.075h-1.99c-.098 0-.15-.022-.15-.075 0-.037.03-.06.12-.06.296 0 .45-.086.483-.403.037-.314.037-1.037.037-1.763v-1.316zM20.603 29.983c.015.584.111.778.26.83.126.045.268.053.387.053.082 0 .126.015.126.06 0 .06-.067.074-.17.074H19.48c-.097 0-.164-.007-.164-.075 0-.044.044-.06.12-.06.096 0 .23-.007.333-.036.194-.06.224-.278.231-.928v-4.647c0-.149.022-.254.096-.254.082 0 .15.098.275.232.09.097 1.105 1.426 2.19 2.51.506.509 1.312 1.549 1.439 1.668v-3.557c-.007-.457-.074-.599-.253-.673-.111-.045-.29-.045-.394-.045-.09 0-.12-.023-.12-.068 0-.06.083-.067.194-.067h1.63c.096 0 .17.007.17.067 0 .046-.044.068-.133.068-.075 0-.135 0-.224.022-.208.06-.268.217-.275.636v4.956c0 .164-.029.232-.096.232-.082 0-.171-.083-.253-.165-.469-.449-1.261-1.428-2.035-2.199-.81-.808-1.475-1.808-1.608-1.95v3.316zM28 27.996c0 .187.257.21.401.21.298 0 .395-.03.529-.127.223-.165.439-.745.439-1.359 0-1.062-.7-1.368-1.139-1.368-.095 0-.23.01-.23.134v2.51zm-1-.834c0-1.136 0-1.346-.015-1.585-.015-.254-.182-.368-.428-.42a1.537 1.537 0 00-.29-.022c-.082 0-.126-.015-.126-.068 0-.052.052-.067.163-.067h2.067c.47 0 .968.045 1.37.322.208.142.505.524.505 1.024 0 .554-.23 1.299-.981 1.912.662.838 1.175 1.613 1.613 2.076.418.434.722.487.834.51.081.014.149.022.207.022.06 0 .09.022.09.06 0 .06-.051.074-.14.074h-.708c-.416 0-.603-.037-.796-.142-.32-.172-.602-.633-1.019-1.209-.297-.41-.408-.92-.506-1.032-.037-.045-.081-.052-.133-.052l-.647-.015c-.037 0-.06.015-.06.06v.105c0 .695 0 1.395.037 1.71.023.216.067.38.29.411.112.015.275.03.365.03.06 0 .09.022.09.06 0 .052-.053.074-.15.074h-2.231c-.096 0-.149-.022-.149-.075 0-.037.03-.06.119-.06.112 0 .2-.014.268-.029.149-.03.294-.202.324-.418.037-.315.037-1.015.037-1.703v-1.553zM36.696 28.075c0-1.677-.96-2.716-2.18-2.716-.855 0-1.83.479-1.83 2.341 0 1.556.856 2.922 2.284 2.922.521 0 1.726-.386 1.726-2.547zm-5.035-.143c0-1.279.84-2.932 3.071-2.932 1.853 0 3.006 1.085 3.006 2.798 0 1.712-1.191 3.198-3.08 3.198-2.135 0-2.997-1.74-2.997-3.064zM38.802 30.8c-.12-.051-.141-.089-.141-.253 0-.41.03-.86.037-.98.007-.112.03-.194.089-.194.068 0 .075.067.075.127 0 .097.03.254.066.381.164.554.603.756 1.065.756.669 0 .996-.456.996-.853 0-.367-.111-.718-.73-1.197l-.341-.27c-.819-.642-1.1-1.297-1.1-1.903 0-.823.684-1.414 1.718-1.414.483 0 .937.075 1.13.127.067.016.104.038.104.09v.898c0 .164-.022.224-.081.224-.053 0-.075-.045-.075-.135 0-.067-.037-.299-.193-.493-.112-.143-.499-.367-.983-.367-.55 0-.885.322-.885.77 0 .345.172.606.789 1.078l.208.157c.893.695 1.22 1.328 1.22 2.039 0 .433-.164.95-.7 1.301-.371.24-.787.307-1.182.307-.431 0-.766-.052-1.086-.195zM43.131 30.8c-.119-.051-.141-.089-.141-.253 0-.41.03-.86.037-.98.007-.112.03-.194.09-.194.066 0 .073.067.073.127 0 .097.03.254.067.381.164.554.603.756 1.065.756.668 0 .996-.456.996-.853 0-.367-.112-.85-.729-1.328l-.342-.27c-.819-.643-1.101-1.166-1.101-1.772 0-.823.684-1.414 1.718-1.414.484 0 .868.147 1.061.2.068.015.075.037.075.09v.897c0 .164-.022.224-.082.224-.052 0-.075-.045-.075-.135a.91.91 0 00-.192-.493 1.12 1.12 0 00-.885-.439c-.549 0-.884.322-.884.77 0 .345.171.606.788 1.078l.209.157c.892.695 1.22 1.328 1.22 2.039 0 .433-.164.95-.7 1.301-.371.24-.788.307-1.182.307-.432 0-.766-.052-1.086-.195z" fill="#E0B16C"/><defs><linearGradient id="paint0_linear" x1="10.418" y1="9.712" x2="68.147" y2="76.017" gradientUnits="userSpaceOnUse"><stop stop-color="#1A1E21"/><stop offset="1" stop-color="#06060A"/></linearGradient><linearGradient id="paint1_linear" x1="14.188" y1="24.081" x2="19.801" y2="47.727" gradientUnits="userSpaceOnUse"><stop stop-color="#1A1E21"/><stop offset="1" stop-color="#06060A"/></linearGradient></defs></svg>