<!-- by TradingView --><svg width="56" height="56" xmlns="http://www.w3.org/2000/svg"><path fill="#1C377E" d="M0 0h56v56H0z"/><path d="M41 19.773c-.01.635-.519 1.142-1.139 1.133-.619-.01-1.114-.531-1.105-1.166.008-.635.519-1.142 1.138-1.133A1.136 1.136 0 0141 19.74v.033zM24.797 12c.14.002.283.03.42.09.572.245.841.919.602 1.504-.24.586-.897.862-1.469.617a1.16 1.16 0 01-.601-1.505c.178-.436.588-.7 1.022-.706h.026zM12 30.644c.002-.15.032-.3.094-.446.248-.582.91-.848 1.478-.593.568.254.827.931.579 1.513-.248.582-.91.848-1.478.594a1.152 1.152 0 01-.673-1.04v-.028zm0-5.814c.002-.29.11-.578.325-.8a1.103 1.103 0 011.587-.007 1.17 1.17 0 01.007 1.626 1.103 1.103 0 01-1.587.008A1.16 1.16 0 0112 24.85v-.02zm19.063-5.145a.46.46 0 01.446.471.459.459 0 01-.46.458.46.46 0 01-.446-.471.459.459 0 01.46-.458zm1.417-.178a.537.537 0 01.522.551.536.536 0 01-.537.536.538.538 0 01-.523-.551c.004-.3.245-.54.538-.536zm1.763-.25a.722.722 0 01.703.741.721.721 0 01-.723.72.722.722 0 01-.703-.741.72.72 0 01.723-.72zm2.427-.225a.886.886 0 01.862.909.885.885 0 01-.887.883.886.886 0 01-.862-.909.884.884 0 01.887-.883zm-8.962.059c.23-.1.496.01.594.246a.469.469 0 01-.24.61.45.45 0 01-.595-.247.47.47 0 01.24-.61zm1.227-.749c.27-.117.58.012.695.288a.548.548 0 01-.281.712.526.526 0 01-.695-.288.548.548 0 01.28-.712zm1.515-.958a.706.706 0 01.934.387.737.737 0 01-.378.958.706.706 0 01-.934-.388.737.737 0 01.378-.957zm2.131-1.21a.867.867 0 011.147.475.904.904 0 01-.464 1.175.867.867 0 01-1.146-.475.904.904 0 01.463-1.175zm2.782-1.722c.57-.248 1.23.025 1.471.61a1.16 1.16 0 01-.595 1.507 1.112 1.112 0 01-1.47-.61 1.16 1.16 0 01.594-1.507zm-11.027 5.201a.446.446 0 01.64.006.472.472 0 01-.005.657.446.446 0 01-.642-.006.473.473 0 01.007-.657zm.874-1.157a.521.521 0 01.75.007.552.552 0 01-.008.768.521.521 0 01-.75-.007.553.553 0 01.008-.768zm1.067-1.46a.7.7 0 011.008.01.743.743 0 01-.01 1.033.7.7 0 01-1.007-.01.742.742 0 01.01-1.033zm1.552-1.925a.86.86 0 011.236.012.912.912 0 01-.011 1.267.86.86 0 01-1.237-.012.912.912 0 01.012-1.267zm1.973-2.646a1.103 1.103 0 011.587.015 1.17 1.17 0 01-.015 1.626 1.103 1.103 0 01-1.587-.015 1.17 1.17 0 01.015-1.626zm-8.37 9.039a.45.45 0 01.592-.25c.231.1.34.372.243.609a.45.45 0 01-.593.249.469.469 0 01-.243-.608zm.367-1.414a.526.526 0 01.694-.291c.27.116.397.434.284.71a.526.526 0 01-.694.292.548.548 0 01-.284-.711zm.431-1.77a.707.707 0 01.933-.391.737.737 0 01.382.956.706.706 0 01-.933.391.737.737 0 01-.382-.956zm.702-2.39a.867.867 0 011.144-.481.904.904 0 01.469 1.173.867.867 0 01-1.145.48.904.904 0 01-.468-1.173zm16.147 17.156a.904.904 0 01-.473 1.171.867.867 0 01-1.143-.484.904.904 0 01.472-1.17.867.867 0 011.144.483zm1.66 2.863a1.16 1.16 0 01-.606 1.503 1.113 1.113 0 01-1.467-.621 1.16 1.16 0 01.606-1.503 1.112 1.112 0 011.467.62zm-4.777-3.036a.536.536 0 01-.545.528.538.538 0 01-.515-.56.535.535 0 01.546-.526.538.538 0 01.514.558zm.219 1.81a.72.72 0 01-.733.71.723.723 0 01-.692-.752.72.72 0 01.733-.709.723.723 0 01.692.751zm.184 2.49a.884.884 0 01-.9.87.887.887 0 01-.849-.922.884.884 0 01.9-.87.887.887 0 01.849.922zm.368 3.309c-.018.635-.535 1.135-1.154 1.116-.62-.018-1.107-.548-1.09-1.183a1.134 1.134 0 011.155-1.116c.62.019 1.107.548 1.089 1.183zm-3.24-6.092a.45.45 0 01-.59.26.469.469 0 01-.254-.602.45.45 0 01.588-.261.468.468 0 01.255.603zm-.341 1.42a.526.526 0 01-.688.306.548.548 0 01-.298-.705.526.526 0 01.688-.305c.272.11.406.425.298.705zm-.397 1.779a.707.707 0 01-.925.41.736.736 0 01-.4-.948.707.707 0 01.924-.41.736.736 0 01.401.948zm-.655 2.405a.868.868 0 01-1.135.503.903.903 0 01-.492-1.163.868.868 0 011.135-.503.904.904 0 01.492 1.163zm-.755 3.239c-.228.59-.88.88-1.456.646a1.16 1.16 0 01-.63-1.492c.227-.59.88-.88 1.456-.646.576.233.858.902.63 1.492zm-.822-7.164a.446.446 0 01-.64.033.473.473 0 01-.032-.656.446.446 0 01.64-.033c.186.172.2.466.032.656zm-.806 1.208a.521.521 0 01-.749.038.553.553 0 01-.037-.767.522.522 0 01.749-.038.553.553 0 01.037.767zm-.981 1.522a.7.7 0 01-1.007.052.743.743 0 01-.05-1.032.7.7 0 011.007-.052c.291.271.314.733.05 1.032zm-1.438 2.016a.86.86 0 01-1.235.063.911.911 0 01-.062-1.266.86.86 0 011.235-.063.912.912 0 01.062 1.266zm-1.817 2.761a1.103 1.103 0 01-1.586.08 1.17 1.17 0 01-.078-1.623 1.103 1.103 0 011.585-.08 1.17 1.17 0 01.078 1.623zm1.789-6.803a.449.449 0 01-.6-.232.47.47 0 01.227-.615.449.449 0 01.6.233.469.469 0 01-.227.614zm-1.21.777a.525.525 0 01-.702-.272.549.549 0 01.266-.718.525.525 0 01.7.271.55.55 0 01-.265.719zm-1.494.992a.706.706 0 01-.943-.365.738.738 0 01.357-.966.706.706 0 01.943.366c.161.367.002.8-.357.965zM22.46 39.84a.866.866 0 01-1.157-.448.905.905 0 01.438-1.185.866.866 0 011.157.448.905.905 0 01-.438 1.185zm-2.744 1.786a1.111 1.111 0 01-1.484-.575 1.161 1.161 0 01.562-1.521 1.111 1.111 0 011.484.576c.255.578.003 1.26-.562 1.52zm4.402-5.316a.459.459 0 01-.456-.463.459.459 0 01.451-.466.459.459 0 01.456.462.46.46 0 01-.451.467zm-1.414.205a.537.537 0 01-.533-.54.537.537 0 01.527-.547.537.537 0 01.533.541.537.537 0 01-.527.546zm-1.759.285a.721.721 0 01-.716-.727.722.722 0 01.71-.734.721.721 0 01.716.727.722.722 0 01-.71.734zm-2.422.272a.885.885 0 01-.879-.891.886.886 0 01.87-.9.885.885 0 01.88.891.885.885 0 01-.871.9zm-3.215.49c-.62.002-1.125-.51-1.128-1.145-.003-.635.497-1.152 1.117-1.156.62-.003 1.124.51 1.128 1.145.003.635-.498 1.152-1.117 1.155zm5.915-3.342a.469.469 0 01-.234-.612.449.449 0 01.597-.24c.23.103.334.377.234.612a.449.449 0 01-.597.24zm-1.374-.399a.549.549 0 01-.274-.715c.117-.275.43-.4.698-.28.268.12.391.44.274.715a.525.525 0 01-.698.28zm-1.72-.468a.737.737 0 01-.369-.962.706.706 0 01.94-.377c.36.162.525.592.367.962a.706.706 0 01-.939.377zm-2.323-.755a.904.904 0 01-.452-1.18.867.867 0 011.152-.462.905.905 0 01.451 1.18.867.867 0 01-1.151.462zm3.618-1.442a.472.472 0 01-.003-.657.445.445 0 01.64-.003c.179.18.18.474.004.657a.446.446 0 01-.641.003zm-1.142-.88a.553.553 0 01-.003-.768.521.521 0 01.75-.003c.208.21.21.555.003.768a.521.521 0 01-.75.003zm-1.44-1.073a.743.743 0 01-.004-1.032.7.7 0 011.008-.005c.28.284.282.746.005 1.033a.7.7 0 01-1.008.004zm-1.9-1.562a.911.911 0 01-.006-1.267.86.86 0 011.237-.006.911.911 0 01.006 1.267.86.86 0 01-1.237.006zm3.725-.004a.47.47 0 01.241-.609c.23-.1.497.011.594.247a.468.468 0 01-.24.609.45.45 0 01-.595-.247zm-.73-1.258a.548.548 0 01.283-.712c.27-.117.58.013.694.289a.548.548 0 01-.281.712.526.526 0 01-.695-.289zm-.933-1.553a.737.737 0 01.38-.957.707.707 0 01.933.388.737.737 0 01-.379.957.706.706 0 01-.934-.388zm-1.178-2.186a.904.904 0 01.465-1.174.867.867 0 011.146.476.904.904 0 01-.465 1.174.867.867 0 01-1.146-.476zm-1.678-2.852a1.16 1.16 0 01.597-1.506c.57-.248 1.229.026 1.47.61a1.16 1.16 0 01-.596 1.508 1.113 1.113 0 01-1.471-.612zm5.233 4.717c0-.256.203-.464.454-.464a.46.46 0 01.453.464.459.459 0 01-.453.465.459.459 0 01-.454-.465zm-.194-1.45c0-.3.238-.543.53-.543.294 0 .531.243.531.543 0 .3-.237.544-.53.544a.537.537 0 01-.53-.544zm-.269-1.802c0-.404.32-.73.713-.73.394 0 .713.326.713.73 0 .403-.32.73-.713.73a.722.722 0 01-.713-.73zm-.254-2.484c0-.495.391-.895.875-.895.482 0 .874.4.874.895a.886.886 0 01-.875.897.886.886 0 01-.874-.897zm.66-4.446c.62 0 1.123.515 1.123 1.15 0 .635-.503 1.15-1.122 1.15-.62 0-1.123-.515-1.123-1.15 0-.635.503-1.15 1.123-1.15z" fill="#FFCB58"/><path d="M29.919 31l-3.038-3.7-.881.826V31h-2v-9h2v3.944L29.46 22h2.516l-3.673 3.944L32.186 31H29.92zM33 31v-9h2.027v6.996H39V31h-6z" fill="#fff"/></svg>