<!-- by TradingView --><svg width="56" height="56" xmlns="http://www.w3.org/2000/svg"><path fill="#003057" d="M0 0h56v56H0z"/><path d="M4 25.828v2.174L5 27l1-1v-2l-.981.022H4v1.806z" fill="#E85146"/><path d="M6.554 26.54L4 29.004v2.992l1.639-1.612L7 29.004l1.087 1.534L9.004 32H12l-.67-1-1.327-2.145-1-1.855 1.383-1.365L12 24H9.004l-2.45 2.54zM37.995 27.988V32H44v-2h-4v-1H43.509v-1.012l-.002-.986h-3.51l.003-.614-.003-.393h4L44 24.794v-.771h-6.004v3.965zM12.996 28v3.997h6.008v-.818L19 30h-3.997l-.002-.445.002-.556h3.51L18.51 28l.003-1h-3.51l-.002-.615v-.39h4.003V24h-6.008v4zM20 27.987V32h2v-2.36V28l.953.942L24 30h1l1.04-1.058L27 28v4h2v-8h-2l-.568.983L25.784 26 24.5 27.663 23.227 26l-.615-1.017L22 24h-2v3.987zM30 27.965V32h2v-2h1.306c2.264 0 3.679-1.053 3.679-2.991 0-2.05-1.347-3.009-4.698-3.009H30v3.965zm4.408-1.751c.547.214.65 1.248 0 1.634-.296.176-.787.145-1.31.152H32V26h1.177c.623 0 .86.07 1.231.215zM45 27.987V32h2v-1.996h1.997c.058 0 .45 1.997.507 1.996.195-.005 2.492 0 2.492 0l-.994-3c.692-.796.998-.983.998-2.224C52 24.727 50.833 24 47.49 24H45v3.987zm4.723-1.704c.415.402.39 1.155-.086 1.476-.211.142-.816.234-1.338.241H47V26.003h1.378c.621 0 1.158.1 1.345.28z" fill="#fff"/></svg>