<!-- by TradingView --><svg width="56" height="56" xmlns="http://www.w3.org/2000/svg"><path fill="#154A7E" d="M0 0h56v56H0z"/><path d="M33.313 20.174C31.802 15.194 28.475 12.65 27 12c0 .285 2.488 4.277 2.442 8.935-.037 3.726.6 6.21.922 6.986C31.839 32.597 35.402 35.255 37 36c-2.101-3.574-2.811-6.588-2.811-8.46.037-4.03-.569-6.59-.876-7.366zM16.357 29.833c-3.257 3.915-3.525 8.074-3.252 9.664.234-.15 2.147-4.368 5.989-6.795 3.074-1.942 4.762-3.795 5.222-4.479 3.028-3.722 3.26-8.142 2.998-9.886-1.781 3.668-3.864 5.864-5.398 6.855-3.323 2.103-5.09 3.97-5.559 4.64zM29.18 34.332c-4.93-1.274-8.807.258-10.129 1.184.237.147 4.867.077 8.702 2.516 3.068 1.951 5.464 2.687 6.279 2.812 4.658 1.149 8.754-.527 10.22-1.509-4.078-.045-6.952-.992-8.503-1.956-3.32-2.108-5.763-2.91-6.57-3.047z" fill="#F7A11A"/></svg>