<!-- by TradingView --><svg width="56" height="56" xmlns="http://www.w3.org/2000/svg"><path fill="#AC0020" d="M0 0h56v56H0z"/><path d="M33.39 12.132c0 .077-.127 1.43-.285 3.004l-.283 2.86-2.408.034-2.397.021.442.507c.62.715 1.188 2.035.799 1.881a9.357 9.357 0 00-2.418-.583l-.904-.077v.264c0 .242.084.286.977.506 1.02.253 2.197.826 2.797 1.343l.368.308-.41.638c-1.062 1.683-1.052 3.202.031 4.38.652.714 1.094.901 2.124.901.715 0 .978-.055 1.325-.242.546-.308.462-.22 4.51-4.643 2.113-2.31 3.48-3.73 3.7-3.818.19-.088.631-.187.978-.231l.631-.066V18.05l-4.384-.021-4.395-.034-.283-2.805c-.158-1.54-.284-2.894-.284-3.004-.01-.21-.221-.264-.232-.055z" fill="#fff"/><path d="M12 18.517v.518l.617.065c1.035.097 1.986.755 2.289 1.586.167.454.198 19.688.031 20.292-.303 1.122-1.097 1.77-2.3 1.9l-.637.075V44h13.484v-1.047l-.627-.065c-1.097-.097-1.913-.669-2.31-1.619-.303-.744-.25-2.126.125-2.935.523-1.155 1.83-2.084 3.074-2.18.543-.055.658-.022.826.172.177.194.177.259.052.561-.21.53-.168 1.274.104 1.813.126.26.638.94 1.14 1.512.491.572.961 1.111 1.035 1.208.125.151.114.227-.063.54-.335.561-.282.788.334 1.446l.554.594h1.338c1.276 0 1.683-.076 1.861-.367.042-.065.084-3.432.084-7.49 0-8.311.052-7.847-.784-7.049-.251.238-.523.443-.596.443-.063 0-.387-.237-.7-.518-1.098-.971-1.893-1.457-3.105-1.878-.638-.216-.92-.248-2.394-.248-1.463.01-1.756.043-2.341.248-.366.14-.68.227-.7.205-.022-.022.167-.464.428-.982.418-.831.47-1.015.47-1.652 0-.604-.062-.852-.439-1.694-.407-.918-.439-1.047-.439-1.954-.01-1.165.188-1.705.941-2.536l.491-.54H12v.53zm16.004 9.757c.857.292 2.08.853 2.08.96 0 .066-.084.076-.178.033a21.703 21.703 0 00-1.077-.291c-2.163-.54-4.17-.108-5.79 1.263-.325.27-.607.485-.638.485-.032 0-.052-.356-.032-.788l.032-.777.784-.41c1.087-.561 1.902-.734 3.24-.67.607.023 1.317.109 1.579.195zm3.543 6.336c0 .83-.042 1.51-.094 1.51s-.282-.226-.512-.517l-.408-.508.429-.992c.24-.55.46-1.004.512-1.004.042 0 .073.68.073 1.51zm2.44 3.94V44H44v-1.041l-.588-.074c-1.136-.138-1.146-.138-5.244-4.897-2.106-2.433-3.902-4.525-3.995-4.653-.176-.212-.186.043-.186 5.216z" fill="#fff"/><path d="M16.924 13.745c-.966-.078-1.979-1.08-2.375-1.745-.72.345-.593 1.307-.44 1.745 0 0 .498.786 1.122.998.623.212 2 .408 2 .408-.307.128-1.284.257-1.777.227-.493-.03-1.102-.227-1.344-.227 0 0 .694 1.628 2.242 1.995l.69.136.653.075s.614-.01 1.406-.075c.791-.066 4.36-1.49 4.969-1.338.36.09 1.385.786 1.847 1.202.264-2.471-2.353-3.4-2.705-3.4h-2.946c-.835 0-2.005.108-3.342 0z" fill="#EF9514"/></svg>