<!-- by TradingView --><svg width="56" height="56" xmlns="http://www.w3.org/2000/svg"><path fill="#FFB700" d="M0 0h56v56H0z"/><path d="M38.997 24c.65 0 1.003-.41 1.003-1 0-.628-.313-1-1.003-1S38 22.374 38 23c0 .583.389 1 .997 1zm.131 3H38v2h1.128c.616 0 .872-.4.872-1.054 0-.641-.256-.946-.872-.946zM15.19 29.138a1.95 1.95 0 01-.458-1.011 1.429 1.429 0 01.229-.809l8.935-12.255a.603.603 0 00.103-.379.692.692 0 00-.203-.488.676.676 0 00-.487-.196h-9.267a2.058 2.058 0 00-1.438.615c-.382.387-.598.91-.604 1.457v23.88a2.073 2.073 0 00.601 1.452 2.03 2.03 0 001.441.594h9.267a.67.67 0 00.486-.197.69.69 0 00.204-.487.853.853 0 00-.128-.43l-8.68-11.746zM38.575 33h.84L39 31.996 38.575 33z" fill="#ED0000"/><path d="M42.013 14.003h-8.97a2.924 2.924 0 00-2.013.96L16.1 27.85a.37.37 0 000 .505l15.328 13.064a2.58 2.58 0 001.615.582h8.945a1.982 1.982 0 001.426-.598A2.036 2.036 0 0044 39.954V16.077a2.084 2.084 0 00-.577-1.448 2.027 2.027 0 00-1.41-.626zM37.056 16h.992v1.903L39.773 16h1.251l-1.823 2.019L41.024 20h-1.215l-1.761-1.813V20h-.99l-.002-4zm1.984 5c1.25 0 1.984.843 1.984 2 0 1.135-.713 2-1.984 2-1.27 0-1.983-.865-1.983-2 .002-1.157.733-2 1.983-2zm1.984 7c0 1.104-.346 2-1.543 2h-2.425v-4h2.425c1.197 0 1.543.896 1.543 2zm-1.251 12l-1.725-1.985V40h-.992v-4h.992v1.732L39.773 36h1.251l-1.823 2.015L41.024 40h-1.251zm.259-5l-.32-1h-1.355l-.309 1h-.992l1.488-4h.992l1.488 4h-.992z" fill="#ED0000"/></svg>