<!-- by TradingView --><svg width="56" height="56" xmlns="http://www.w3.org/2000/svg"><path fill="#293C6B" d="M0 0h56v56H0z"/><path d="M8.757 25l-2.219 3H6v-3H4v8h2v-3h.538l2.219 3H11l-3-4 3-4H8.757zM11 30.113v-2.226C11 25.463 12.454 25 14.5 25c2.047 0 3.5.462 3.5 2.887v2.226C18 32.537 16.547 33 14.5 33c-2.046 0-3.5-.462-3.5-2.887zm5-.487v-1.178C16 27.283 15.55 27 14.501 27c-1.049 0-1.47.283-1.501 1.448v1.178C13.03 30.8 13.452 31 14.501 31S16 30.801 16 29.626zM22.415 28.15c2.072.167 2.585.462 2.585 2.268C25 31.72 25.047 33 21.967 33 20.185 33 19 32.958 19 30.376h2c0 .819.24.913 1.154.913.877 0 .846-.284.846-.734s.031-.672-.846-.735l-.41-.03c-1.727-.137-2.735-.126-2.735-2.384 0-2.257 1.13-2.404 2.958-2.404 1.53 0 3.033.03 3.033 2.203v.325h-2c0-.808-.287-.823-1.033-.823-.967 0-.967.263-.967.699 0 .435.146.639.64.68l.775.064zM49.415 28.15c2.072.167 2.585.46 2.585 2.267 0 1.302.047 2.582-3.033 2.582-1.782 0-2.967-.042-2.967-2.624h2c0 .82.24.913 1.154.913.877 0 .846-.283.846-.734 0-.45.031-.672-.846-.734l-.41-.032c-1.727-.136-2.734-.125-2.734-2.383 0-2.257 1.129-2.404 2.957-2.404 1.53 0 3.033.031 3.033 2.203v.326h-2c0-.809-.287-.824-1.033-.824-.967 0-.967.263-.967.699 0 .436.146.639.64.68l.775.064zM28 33h-2v-8h3l1.5 5 1.5-5h3v8h-2v-6l-1.5 6h-2L28 27v6z" fill="#fff"/><circle cx="40.504" cy="29" r="4.5" fill="#00618D"/><path d="M42.367 31.657c-.053.403.283.958.459 1.192.486-.285.836-.642.913-.73 0-.438.14-.88.213-1.033h.199c-.089-.745.154-1.36.462-1.58.246-.175.25-.643.22-.855h-.374c-.17-.226-.507-.688-.507-.723 0-.044-.462-.922-.594-.922h-.66c-.212 0-.602-.248-.771-.373-.096-.146-.18-.416.242-.329.528.11.396.132.66.198.212.052.69.256.903.35-.036-.094-.044-.127.22.505a2.322 2.322 0 001.025 1.118 4.405 4.405 0 00-1.989-3.224c-.044.183-.211.514-.423.373-.211-.14-.088-.424 0-.548-.212.007-.638.053-.638.175 0 .123.161.3.242.373l-.242.176a2.996 2.996 0 01-.286-.285c-.106-.123-.28-.052-.353 0v.285c0 .035.235.278.353.395h-.353c.018.158-.212.607-.33.811-.55.351-.594 1.14-.638 1.36-.044.22.132.724.418.922.229.157.697.065.903 0 .176.105.425.19.528.219-.051.102-.123.338 0 .46.123.123.184.198.198.22v.746c-.051-.022-.163-.022-.198.153-.035.176.117.454.198.57zM38.448 25.333c-.13.082-.406.014-.528-.02-1.15.782-1.65 1.995-1.78 2.592.09.073.275.182.24.006-.035-.175.21-.522.337-.674.147-.053.423-.128.352 0-.088.162.147.455.25.455.102 0 .132-.44.264-.454.132-.015.777-.645.865-.66.088-.014.806-.234.806-.41 0-.176-.249-.337-.498-.38-.25-.045-.499.116-.66.13-.161.016-.176-.102-.176-.204 0-.103.41-.147.528-.147h.308c.107.05.358.147.498.147.176 0 .235-.015.396 0 .162.015.47-.103.645-.147.176-.044.44-.567.382-.567-.059 0-1.54-.015-1.672 0-.132.015-.396.23-.557.333zM38.686 29.8c-.346-.413-1.275-.562-1.696-.585-.186.344-.155 1.072-.116 1.393.338.217 1.01.735.997 1.066-.013.33.059.834.098 1.04 0 0 .34.243.812.438 0 0 .33-.856.37-1.049.04-.192.14-.561.184-.722.05-.103.173-.385.266-.688.116-.378-.15-.67-.266-.67h-.649v-.224z" fill="#fff"/></svg>