<!-- by TradingView --><svg xmlns="http://www.w3.org/2000/svg" width="56" height="56"><path fill="#F0F3FA" d="M0 0h56v56H0z"/><path d="M22.6 31c2.92 0 4.4-2.11 4.4-5.67 0-3.65-1.48-5.33-4.11-5.33H18v16h3.5v-5h1.1zm.9-5.67c0 2.16-.61 2.67-1.2 2.67h-.8v-5h.8c.59 0 1.2.18 1.2 2.33zM28 36h4.82c3.2 0 4.68-2.8 4.68-8.05 0-5.24-1.47-7.95-4.68-7.95H28v16zm6-8.05c0 4.3-.5 5.05-1.57 5.05h-.93V23h.93c1.07 0 1.57.65 1.57 4.95zM48 36l-1.85-7.4A4.76 4.76 0 0048 24.59c0-2.9-1.75-4.58-4.28-4.58H39v16h3.5v-6h.44l1.46 6H48zm-5.5-13h.63c.59 0 1.37.04 1.37 2s-.88 2-1.46 2h-.54v-4zm-28.47 3.92C15.5 28.23 17 29.36 17 31.7c0 2.52-1.5 4.3-4.52 4.3-2.14 0-4.29-1.03-4.48-4.3v-1.22h3.5v.75c0 1.04.22 1.77 1 1.77.68 0 1-.42 1-.95 0-1.03-1.41-1.94-2.58-2.97C9.17 27.58 8 26.36 8 24.12 8 21.87 9.56 20 12.48 20c2.24 0 4.33.94 4.52 4.12V25h-3.5v-.6c0-.7-.22-1.4-1-1.4-.49 0-1 .43-1 .84 0 1.03.78 1.5 2.53 3.08z" fill="#273F33"/></svg>