<!-- by TradingView --><svg width="56" height="56" xmlns="http://www.w3.org/2000/svg"><path fill="#033B82" d="M0 0h56v56H0z"/><path d="M4 23.024V32h2v-3.521L9.421 32h2.542l-4.49-4.59 4.164-4.386H9.27L6 26.736v-3.712H4zM14 27v-2.446h1.91c.436 0 .762.1.98.3.217.193.326.507.326.941 0 .452-.109.778-.326.978-.218.201-.544.227-.98.227H14zm-2-3.976V32h2v-3.521h1.73c.475 0 .817.109 1.027.326.21.217.346.56.41 1.028.049.36.085.736.11 1.129.024.393.088.754.193 1.038h1.897a1.569 1.569 0 01-.206-.474 6.118 6.118 0 01-.096-.577c-.016-.2-.028-.397-.036-.589l-.025-.502a4.882 4.882 0 00-.096-.677 2.108 2.108 0 00-.206-.614 1.588 1.588 0 00-.374-.49 1.403 1.403 0 00-.58-.313v-.025c.483-.2.83-.493 1.039-.878.217-.384.326-.84.326-1.367 0-.342-.06-.66-.181-.953a2.195 2.195 0 00-.508-.79 2.248 2.248 0 00-.797-.526 2.572 2.572 0 00-1.04-.201H12zM21.393 27.538c0-.393.04-.773.121-1.14a3.11 3.11 0 01.41-.979c.186-.293.428-.522.726-.69.298-.175.66-.263 1.087-.263.427 0 .79.088 1.088.263.298.168.54.398.725.69.185.284.318.61.399.978.088.368.133.748.133 1.141 0 .377-.045.744-.133 1.104-.08.351-.214.669-.399.953a2.161 2.161 0 01-.725.69c-.298.167-.66.25-1.088.25-.426 0-.789-.083-1.087-.25a2.161 2.161 0 01-.725-.69 3.137 3.137 0 01-.411-.953 5.03 5.03 0 01-.12-1.104zm-1.897 0c0 .652.097 1.263.29 1.831.193.56.471 1.05.834 1.468a3.91 3.91 0 001.329.99c.532.234 1.128.351 1.788.351.67 0 1.265-.117 1.789-.35a3.91 3.91 0 001.33-.991 4.41 4.41 0 00.833-1.468 5.65 5.65 0 00.29-1.83c0-.67-.097-1.288-.29-1.857a4.505 4.505 0 00-.834-1.504 3.835 3.835 0 00-1.33-1.004c-.523-.242-1.119-.363-1.788-.363-.66 0-1.256.121-1.788.363a3.835 3.835 0 00-1.33 1.004c-.362.426-.64.928-.833 1.505a5.728 5.728 0 00-.29 1.855zM28.49 23.024V32h1.777v-6.017h.024L33.88 32h1.897v-8.976H34v6.007l-3.625-6.007H28.49zM38.184 27.538c0-.393.04-.773.121-1.14.089-.369.226-.695.41-.979.186-.293.428-.522.726-.69.298-.175.66-.263 1.087-.263.427 0 .79.088 1.088.263.298.168.54.398.725.69.185.284.318.61.399.978.088.368.133.748.133 1.141 0 .377-.045.744-.133 1.104-.08.351-.214.669-.399.953a2.161 2.161 0 01-.725.69c-.298.167-.66.25-1.087.25-.428 0-.79-.083-1.088-.25a2.161 2.161 0 01-.725-.69 3.135 3.135 0 01-.411-.953c-.08-.36-.12-.727-.12-1.104zm-1.897 0c0 .652.097 1.263.29 1.831.193.56.471 1.05.834 1.468a3.91 3.91 0 001.329.99c.532.234 1.128.351 1.788.351.67 0 1.265-.117 1.789-.35a3.91 3.91 0 001.33-.991c.362-.418.64-.908.833-1.468.193-.568.29-1.178.29-1.83 0-.67-.097-1.288-.29-1.857a4.504 4.504 0 00-.834-1.504 3.835 3.835 0 00-1.33-1.004c-.523-.242-1.119-.363-1.788-.363-.66 0-1.256.121-1.788.363a3.835 3.835 0 00-1.33 1.004c-.362.426-.64.928-.833 1.505a5.731 5.731 0 00-.29 1.855zM46.574 29h-1.837c-.008.552.09 1.034.29 1.435.202.402.472.732.81.99.347.26.741.448 1.184.565.451.126.915.188 1.39.188.588 0 1.104-.07 1.547-.213a3.23 3.23 0 001.124-.59c.306-.258.535-.564.688-.915.153-.35.23-.731.23-1.14 0-.503-.105-.912-.314-1.23a2.536 2.536 0 00-.725-.777 3 3 0 00-.858-.414 6.636 6.636 0 00-.665-.188c-.54-.142-.979-.26-1.317-.351a5.04 5.04 0 01-.785-.276c-.186-.092-.31-.192-.375-.301a.829.829 0 01-.097-.427c0-.192.04-.35.121-.476.08-.125.181-.23.302-.314.13-.083.27-.142.423-.175.153-.034.306-.05.46-.05.233 0 .447.02.64.062.201.042.378.113.532.214.153.1.273.238.362.413.097.176.153.397.17.665h1.836c0-.518-.097-.957-.29-1.317a2.472 2.472 0 00-.761-.903 3.096 3.096 0 00-1.112-.501 5.036 5.036 0 00-1.293-.163 4.27 4.27 0 00-1.16.163 3.187 3.187 0 00-1.04.501c-.305.226-.555.51-.748.853-.186.335-.278.732-.278 1.192 0 .41.072.76.217 1.053.153.284.35.522.592.715.242.192.516.35.822.476.306.117.62.218.942.301.315.092.625.176.93.25.307.076.58.164.823.264.241.1.435.226.58.377a.79.79 0 01.23.589.915.915 0 01-.17.564 1.224 1.224 0 01-.423.339 1.98 1.98 0 01-.544.175 4.235 4.235 0 01-.543.038c-.25 0-.492-.03-.726-.088a2.017 2.017 0 01-.616-.288 1.5 1.5 0 01-.41-.514 1.72 1.72 0 01-.158-.771z" fill="#fff"/></svg>