<!-- by TradingView --><svg width="56" height="56" xmlns="http://www.w3.org/2000/svg"><path fill="#50ACC2" d="M0 0h56v56H0z"/><path d="M18 13h-4.4s-.711.575-1.067 1.482c0 0-.533 1.088-.533 2.177V42h3.615s1.326-.242 1.385-1.21c.06-.967 0-8.411 0-8.411l7.279 8.774s.592.786 1.363.847c.77.06 5.214 0 5.214 0l-9.197-11.072L25.603 26H33v10.854S33.149 42 37.5 42h4.86s1.07-.612 1.13-2.305c.058-1.693.01-1.695.01-1.695H40s-2 .056-2-2V26s5.1.152 6-2.146v-3.5s-1.16 1.217-4.44 1.217L38 21.552v-6.528h-3.839s-.894.095-1.174 1.123L33 21.57l-7.642.02s-2.087-.115-3.69 1.92C20.065 25.546 17 29.596 17 29.596V16.54s-.032-2.25 1-3.54z" fill="#fff"/><path d="M44 19.79v4.199s-.444 1.729-4 2.01H22s-1.96.17-3.5 1.5l3.297-4.645S23.3 21 25.59 21h15.17s2.173.04 3.24-1.21z" fill="#fff"/></svg>