<!-- by TradingView --><svg width="56" height="56" xmlns="http://www.w3.org/2000/svg"><path fill="#004270" d="M0 0h56v56H0z"/><path d="M11 27c-.037-.164-.12-.259-.25-.272H10v-2.431l.227-.191L12 27h1.546c-.037-.164-.129-.348-.258-.36h-.139l-2.126-3.35 1.515-1.581c.252-.256.444-.397.573-.424a.541.541 0 01.138-.02c.155-.052.238-.14.25-.265h-1.7v.266h.739L10 23.844l.003-2.559.997-.02V21H8v.266l1 .02v5.448l-1-.006V27h3zm7.5-4v-2H14v.266h1v5.468h-1V27h4.501l-.002-2h-.201l-.185.76c-.16.512-.4.82-.72.925a1.14 1.14 0 01-.343.05H16v-2.723h1.997v-.296H16v-2.45h1.048c.475 0 .81.262 1.008.787.024.06.046.121.064.187l.176.76h.203zm4.657-1.734h.828v3.995L20.64 21h-1.483v.266h.752v5.468h-.752V27h2c-.037-.164-.1-.253-.23-.266h-.639v-4.337L23.891 27h.473v-5.734h.793V21h-2v.266zm6.688 0h.758v3.995L27.257 21h-1.47v.266h.74v5.468h-.74V27h1.995c-.037-.164-.12-.253-.25-.266h-.626v-4.337L30.505 27H31v-5.734h.721V21h-1.876v.266zM36.823 23l-.037-2H32v.266h1v5.468h-1V27h4.786l.037-2h-.24l-.185.76c-.16.512-.4.82-.721.925a1.14 1.14 0 01-.342.05H34v-2.723h2v-.296h-2v-2.45h1.335c.474 0 .81.262 1.007.787.025.06.047.121.065.187l.176.76h.24zM37 21v.266h1v5.468h-1V27h2.95c.845 0 1.54-.276 2.09-.827.541-.544.813-1.345.813-2.21 0-1.103-.386-1.92-1.156-2.451-.499-.341-1.084-.512-1.756-.512H37zm2.95.266c.752 0 1.195.405 1.423 1.179.11.394.145.874.145 1.478 0 1.502-.313 2.467-1.033 2.716a1.51 1.51 0 01-.534.095H39v-5.468h.95zM47 27c-.037-.164-.128-.253-.257-.266L46 26.733v-2.357l1.28-2.835a.565.565 0 01.47-.275c.154-.04.238-.128.25-.266h-1.636v.266h.74L45.81 24.04l-1.396-2.775H45V21h-2.305v.266h.462L45 24.454v2.279h-1v.266L47 27zm-32.838 9l1.922-5.738h.597v-.265h-1.22v.265h.262l-1.45 4.32-1.6-4.32h.413v-.265H11v.265h.537l1.802 4.911c.148.4.265.633.351.7.068.052.17.127.305.127h.167z" fill="#fff"/><path d="M16.332 36l1.923-5.738h.462v-.265h-1.73v.265h.907l-1.45 4.32-1.6-4.32h.382v-.265h-1.887v.265h.369l1.802 4.911c.148.4.265.633.351.7.068.052.17.127.305.127h.166zM22 36c-.036-.164-.12-.26-.249-.273H21v-5.464h1v-.266h-3v.265h1v5.465h-1V36h3zm5 0v-2h-.194l-.23.76c-.13.46-.318.751-.564.876a.989.989 0 01-.453.098h-1.56L24 30.262h1v-.265h-2.834v.265H23l-.001 5.472h-.613V36H27zm4.518-1.712c0-.558-.29-1.027-.868-1.408-.087-.052-.42-.23-.999-.531-.53-.282-.86-.558-.988-.827a1.032 1.032 0 01-.102-.443c0-.393.178-.662.536-.807.142-.059.293-.088.453-.088.505 0 .887.193 1.146.58.172.263.295.875.295 1.236h.296v-2c-.172 0-.27.074-.296.199-.006.046-.009.024-.009.083a3.326 3.326 0 00-1.57-.384c-.716 0-1.26.204-1.637.61-.246.27-.37.588-.37.955 0 .551.29 1.014.87 1.388.092.052.43.233 1.016.541.542.282.878.561 1.007.837a.97.97 0 01.102.433c0 .459-.2.774-.6.944-.16.072-.34.109-.537.109-.733 0-1.217-.306-1.45-1.152-.062-.216-.102-.307-.12-.563h-.334v2c.154 0 .247-.05.278-.148a1.51 1.51 0 00.018-.275c.48.334 1.044.423 1.691.423.758 0 1.34-.21 1.747-.63.284-.295.425-.656.425-1.082zm3.688-4.39c-.795 0-1.47.27-2.024.807-.585.571-.878 1.31-.878 2.215 0 1.043.348 1.853 1.044 2.43.524.433 1.134.65 1.83.65.789 0 1.457-.272 2.006-.817.579-.577.869-1.319.869-2.224 0-1.076-.358-1.896-1.073-2.46-.505-.4-1.096-.6-1.774-.6zm0 5.817c-.764 0-1.254-.43-1.47-1.29-.098-.4-.147-.889-.147-1.466 0-1.752.47-2.674 1.414-2.765.061-.007.12-.01.175-.01.826 0 1.328.534 1.507 1.604a6.9 6.9 0 01.083 1.132c0 1.614-.382 2.529-1.146 2.745-.13.033-.268.05-.416.05zm7.44-5.453h.758v3.996L40 29.997h-1.411v.265h.739l-.022 5.48h-.74V36h1.904c-.037-.164-.12-.245-.25-.258h-.535l.022-4.348L43.293 36h.49v-5.738h.739v-.265h-1.876v.265z" fill="#fff"/></svg>