<!-- by TradingView --><svg width="56" height="56" xmlns="http://www.w3.org/2000/svg"><path fill="#005695" d="M0 0h56v56H0z"/><path d="M38.08 40.403c3.607-2.93 5.916-7.4 5.916-12.415 0-8.83-7.163-15.988-15.998-15.988C19.162 12 12 19.158 12 27.994c0 8.837 7.162 15.988 15.998 15.988 1.698 0 3.333-.267 4.866-.756L39.117 48a23.245 23.245 0 004.554-3.325l-5.591-4.272zm-10.082-1.729c-5.903 0-10.693-4.787-10.693-10.686 0-5.9 4.79-10.686 10.693-10.686S38.69 22.089 38.69 27.988c0 5.906-4.79 10.686-10.693 10.686z" fill="#FFC423"/></svg>