<!-- by TradingView --><svg width="56" height="56" xmlns="http://www.w3.org/2000/svg"><path fill="url(#paint0_linear)" d="M0 0h56v56H0z"/><path d="M9 20H7v8h4v-2H9v-6z" fill="#fff"/><path fill="#fff" d="M15 24v-2h4v2zm-3-2h2v6h-2zm15 0h2v6h-2z"/><path fill="#fff" d="M16 20h2v8h-2zm-4 0h2v1h-2zm15 0h2v1h-2z"/><path fill-rule="evenodd" d="M22 20h-2v8h2v-3.936c.161-.28.46-.552 1.01-.526.82.04.984.696.99 1.022V28h2v-3.962c-.054-1.369-1.114-2.005-2.246-2.037-.767-.022-1.417.469-1.754.83V20zm12 8h2v-6h-2v3.938c-.163.284-.465.565-1.015.539-.82-.04-.979-.711-.985-1.037V22h-2v3.962c.054 1.369 1.114 2.005 2.246 2.037.767.022 1.417-.468 1.754-.83V28zm3-6h2v.626c.328-.313.822-.632 1.386-.614.729.023 1.47.35 1.852 1.026.248-.35.938-1.023 1.736-.998 1.021.032 1.978.66 2.026 2.011V28h-2v-3.434c-.005-.322-.227-.975-.966-1.014-.283-.014-.453.068-.56.193.014.09.023.182.026.279V28h-2v-3.461c-.005-.322-.19-.936-.929-.975-.262-.013-.443.052-.571.155V28h-2v-6zM9.686 29.441l3.685 7.339-.442.22-1.036-2.062H7.478L6.443 37 6 36.78l3.686-7.339zm-1.96 5.005h3.92l-1.96-3.903-1.96 3.903zm7.034-2.52v-.679h-.495V37h.494v-4.156c.098-.227.3-.556.603-.834.319-.291.739-.515 1.26-.515 1.024 0 1.53.737 1.666 1.13V37h.495v-4.369c.16-.39.73-1.136 1.845-1.136.468 0 .823.233 1.07.527.122.148.215.307.276.45a.93.93 0 01.085.323V37h.495v-4.205c0-.15-.048-.334-.125-.515a2.316 2.316 0 00-.352-.575c-.313-.375-.797-.705-1.449-.705-1.06 0-1.73.552-2.08 1.045A2.223 2.223 0 0016.624 31c-.676 0-1.21.292-1.595.645a2.99 2.99 0 00-.269.28zm9.227 2.299h4.605l.005-.245c.033-1.861-1.17-2.98-2.475-2.98-.616 0-1.264.227-1.765.72-.503.495-.841 1.241-.866 2.25-.025 1.013.306 1.778.842 2.289.531.506 1.242.741 1.946.741 1.131 0 1.852-.617 2.086-.962l-.408-.283c-.153.225-.727.746-1.678.746-.599 0-1.181-.2-1.606-.605-.382-.364-.654-.909-.686-1.671zm.716-2.148c-.36.353-.636.889-.703 1.649h4.098c-.072-1.461-1.035-2.227-1.976-2.227-.498 0-1.018.184-1.42.578zm5.299.268v-1.299h-.495V37h.495v-3.693c.148-.326.439-.793.848-1.172.428-.395.965-.676 1.592-.634l.033-.496c-.807-.054-1.47.312-1.96.765a4.149 4.149 0 00-.513.575zM33.282 37v-6h.495v6h-.495zm0-6.342v-.655h.495v.655h-.495zm2.503 1.025c.537-.49 1.232-.694 1.908-.683 1.11.018 1.881.77 2.137 1.152l-.41.28c-.2-.299-.841-.917-1.735-.932-.575-.01-1.141.165-1.568.554-.423.386-.734 1.006-.761 1.942-.028.914.326 1.546.792 1.948.476.408 1.073.58 1.527.554.933-.055 1.558-.702 1.772-.926l.356.347-.004.005c-.221.23-.962 1.005-2.095 1.072-.583.035-1.306-.181-1.876-.672-.58-.498-.999-1.275-.967-2.343.03-1.047.385-1.805.925-2.298zm7.065-.187c-.78 0-1.448.353-1.67.519l-.295-.4C41.17 31.404 41.94 31 42.85 31c.58 0 1.127.189 1.537.498.41.308.7.75.725 1.257.011.248.016.72.017 1.267 0 .363 0 .762-.002 1.156-.002.309-.001.629 0 .927.001.327.002.666 0 .895h-.495c.002-.23.001-.566 0-.887v-.125a3.665 3.665 0 01-.381.327c-.43.322-.98.6-1.506.668a2.284 2.284 0 01-1.55-.373c-.45-.309-.782-.8-.782-1.433 0-.623.284-1.098.741-1.41.447-.305 1.047-.448 1.692-.458a4.71 4.71 0 011.787.32 24.23 24.23 0 00-.016-.85c-.015-.324-.203-.64-.527-.884a2.082 2.082 0 00-1.24-.399zm1.784 2.675c-.31-.152-.97-.38-1.78-.366-.586.01-1.081.14-1.421.372-.33.225-.525.55-.525 1 0 .44.225.79.566 1.023a1.79 1.79 0 001.208.29c.413-.053.884-.282 1.272-.573.192-.143.356-.297.477-.442a1.02 1.02 0 00.2-.33l.003-.974zm1.974-2.613c.29-.332.75-.558 1.391-.558.997 0 1.687.433 1.93.683l-.342.354c-.152-.156-.719-.537-1.588-.537-.525 0-.847.18-1.031.392a.888.888 0 00-.22.685c.057.411.388.86 1.295 1.031.52.098.998.31 1.352.602.352.29.605.68.605 1.129 0 .387-.092.777-.398 1.086-.299.303-.767.492-1.443.566-.438.048-.917-.104-1.298-.296a3.254 3.254 0 01-.518-.321 1.477 1.477 0 01-.343-.35l.405-.273c.03.047.104.127.227.222.12.092.272.188.44.273.345.173.726.282 1.036.248.624-.068.967-.235 1.156-.426.181-.184.252-.424.252-.73 0-.242-.139-.503-.423-.737-.281-.232-.682-.416-1.137-.501-1.043-.196-1.591-.764-1.687-1.452a1.398 1.398 0 01.339-1.09z" fill="#fff"/><defs><linearGradient id="paint0_linear" x1="10.418" y1="9.712" x2="68.147" y2="76.017" gradientUnits="userSpaceOnUse"><stop stop-color="#1A1E21"/><stop offset="1" stop-color="#06060A"/></linearGradient></defs></svg>