<!-- by TradingView --><svg width="56" height="56" xmlns="http://www.w3.org/2000/svg"><path fill="#0193D0" d="M0 0h56v56H0z"/><path d="M11 12h27a6 6 0 016 6v27H17a6 6 0 01-6-6V12z" fill="#fff"/><path d="M14 24.833V12h2v12.833c0 6.265.241 6.278 9 11.167 7.243 4.042 14.325 6.782 19 9H33.675C28.1 41.693 16.494 37.48 14.5 32c-.612-1.683-.5-5.884-.5-7.167z" fill="#0193D0"/><path d="M17 24.833V12h2v12.833c0 .71.015 2.149 1.253 2.958C22.351 29.162 36.36 33.797 44 36.092v4.656c-6.952-2.767-21.847-9.029-24.16-10.325-2.61-1.462-2.84-3.756-2.84-5.59z" fill="#0193D0"/></svg>