<!-- by TradingView --><svg width="56" height="56" xmlns="http://www.w3.org/2000/svg"><path fill="url(#paint0_linear)" d="M0 0h56v56H0z"/><path d="M5.5 23c.054.09.158.268.5.268V27c-.036 2.135 0 4.359 0 4.545-.07.117-.295.338-.411.338-.129 0-.234.047-.234.117h6.226l.128-.641c.175-.875.105-1.19-.152-.607-.268.63-.597.607-2.497.607H7V23.268c.451-.046.5-.268.5-.268h-2zM14.87 27.503c-.724 1.913-1.435 3.856-1.563 4.007-.129.14-.362.257-.502.257-.151 0-.303.175-.338.233h1.131c.467-.005.902 0 .902 0s.232-.045-.027-.187c-.385-.21-.385-.473.175-2.094l.361-1.026h2.304l.542 1.352c.268.7.466 1.64.431 1.745-.032.105 0 .21.214.21h1.897c-.035-.07-.303-.233-.455-.233-.513 0-.571-.38-2.46-4.963-.618-1.516-1.178-2.764-1.213-2.764-.047 0-.676 1.562-1.4 3.463zm.35.497s.466-1.465.78-2.211l.164-.408.49 1.4L17 28h-1.78zM29.973 27.503c-.723 1.913-1.435 3.856-1.563 4.007-.128.14-.361.257-.501.257-.152 0-.304.175-.339.233h1.132c.467-.005.902 0 .902 0s.232-.045-.028-.187c-.385-.21-.385-.473.175-2.094l.362-1.026h2.303l.542 1.352c.268.7.467 1.64.432 1.745-.033.105 0 .21.214.21H35.5c-.035-.07-.303-.233-.454-.233-.514 0-.572-.38-2.461-4.963-.618-1.516-1.178-2.764-1.213-2.764-.046 0-.676 1.562-1.4 3.463zm.35.497s.466-1.465.78-2.211l.164-.408.49 1.4.347 1.219h-1.781zM21.517 24.735c-.152.898-.152.898-.024.898.059 0 .07-.199.152-.397.268-.641.3-.805 2.636-.805h1.935l-.571.805C25.33 25.68 24.097 27.566 23 29c0 0-1.976 2.907-2 3h5.668l.058-.268c.129-.537.222-1.423.14-1.341-.046.035-.163.245-.268.466a1.037 1.037 0 01-.606.525c-.397.128-3.616.221-3.616.093 0-.035.31-.544.624-.975l4.15-6.5h-5.505l-.128.735zM36 24s.199.21.35.21c.273 0 .455 0 .65.198V30.688c-.057.765-.222 1.079-.405 1.079-.093 0-.326.175-.361.233h2.449c-.07-.058-.245-.233-.408-.257-.35-.046-.275-.466-.275-1.935v-1.22H39.417l1.073 1.57c1.271 1.679 1.516 1.842 2.67 1.83.864 0 .899-.105.118-.268-.467-.105-.864-.466-1.971-1.854l-1.132-1.558.409-.455c1.107-1.213.99-2.967-.245-3.585-.385-.186-.75-.268-2.356-.268H36zm4.5 2c0 .847-.117 2.029-1.5 2-.333-.007-1 0-1 0v-3.592c1.713-.14 2.5.445 2.5 1.592zM44.184 24c0 .058.151.259.35.259.221 0 .384.081.466.221v7.02c0 .146-.21.245-.373.245-.152 0-.454.185-.489.255H49c1.166-.35 2.08-1.526 2.417-2.832a4.418 4.418 0 00-.046-2.551C50.879 25.05 49.37 24 48.71 24h-4.527zm4.656.807c1.271.594 1.878 1.833 1.796 3.536-.104 2.058-.78 3.157-2.76 3.157h-1.908l.023-3.53v-3.42h.836c.673 0 1.36-.058 2.013.257z" fill="#fff"/><defs><linearGradient id="paint0_linear" x1="10.418" y1="9.712" x2="68.147" y2="76.017" gradientUnits="userSpaceOnUse"><stop stop-color="#1A1E21"/><stop offset="1" stop-color="#06060A"/></linearGradient></defs></svg>