<!-- by TradingView --><svg width="56" height="56" xmlns="http://www.w3.org/2000/svg"><path fill="#262626" d="M0 0h56v56H0z"/><path d="M33.581 19.05c0 .059.089.078.863.172.892.108 1.986.29 2.977.493 5.202 1.07 8.5 3.032 9.348 5.561.182.542.227.823.227 1.44-.006 1.459-.829 2.84-2.495 4.18-2.766 2.224-7.375 3.782-12.596 4.255-1.341.123-4.265.148-5.596.049-3.155-.232-5.891-.848-8.282-1.864a9.804 9.804 0 00-.814-.32c-.241-.05.005.118.641.444 4.2 2.144 10.482 3.066 17.181 2.524 5.606-.454 10.413-1.839 13.509-3.895 1.217-.808 2.105-1.696 2.607-2.603.622-1.124.696-2.41.207-3.535-1.557-3.603-8.178-6.354-16.525-6.877-.646-.04-1.193-.074-1.213-.074-.024 0-.039.02-.039.05z" fill="#EE273C"/><path d="M24.041 19.325c-3.707.143-6.833.587-9.771 1.4-3.555.982-6.237 2.367-7.849 4.058-1.311 1.375-1.735 2.973-1.188 4.476 1.144 3.13 6.069 5.685 13.04 6.745.937.143 2.85.34 3.648.374.38.015.799.04.927.05.173.014.232.005.217-.04-.01-.03-.07-.064-.138-.074-7.385-.867-12-3.056-13.03-6.187-.247-.75-.281-1.691-.084-2.381.77-2.707 4.472-5.211 9.693-6.552 1.78-.454 3.046-.67 5.496-.922.982-.103 5.128-.084 6.138.025 3.027.33 5.364.902 7.657 1.868.389.163.72.286.734.266.05-.049-.108-.148-.799-.488-2.795-1.395-6.409-2.268-10.5-2.544-.8-.054-3.471-.103-4.19-.074z" fill="#EE273C"/><path d="M17.667 32h20.898l1.768-3H27.5l3.692-7h-8.179l-5.346 10z" fill="#fff"/></svg>