<!-- by TradingView --><svg width="56" height="56" xmlns="http://www.w3.org/2000/svg"><path fill="#EF4123" d="M0 0h56v56H0z"/><path d="M37.282 13h5.411c.163 0 .307.132.307.295v5.412c0 .163-.144.293-.307.293h-5.411a.283.283 0 01-.282-.293v-5.412c0-.163.12-.295.282-.295zM37.293 21h5.412c.162 0 .295.132.295.295v5.412a.294.294 0 01-.295.293h-5.412a.292.292 0 01-.293-.293v-5.412c0-.163.13-.295.293-.295zM37.293 29h5.412c.162 0 .295.132.295.295v5.412a.294.294 0 01-.295.293h-5.412a.292.292 0 01-.293-.293v-5.412c0-.163.13-.295.293-.295zM29.293 13h5.412c.162 0 .295.132.295.295v5.412a.294.294 0 01-.295.293h-5.412a.292.292 0 01-.293-.293v-5.412c0-.163.13-.295.293-.295zM29.293 21h5.412c.162 0 .295.132.295.295v5.412a.294.294 0 01-.295.293h-5.412a.292.292 0 01-.293-.293v-5.412c0-.163.13-.295.293-.295zM29.293 29h5.412c.162 0 .295.132.295.295v5.412a.294.294 0 01-.295.293h-5.412a.292.292 0 01-.293-.293v-5.412c0-.163.13-.295.293-.295zM21.293 13h5.412c.162 0 .295.132.295.295v5.412a.294.294 0 01-.295.293h-5.412a.292.292 0 01-.293-.293v-5.412c0-.163.13-.295.293-.295zM21.293 29h5.412c.162 0 .295.132.295.295v5.412a.294.294 0 01-.295.293h-5.412a.292.292 0 01-.293-.293v-5.412c0-.163.13-.295.293-.295zM13.293 13h5.412c.162 0 .295.132.295.295v5.412a.294.294 0 01-.295.293h-5.412a.292.292 0 01-.293-.293v-5.412c0-.163.13-.295.293-.295zM13.293 21h5.412c.162 0 .295.132.295.295v5.412a.294.294 0 01-.295.293h-5.412a.292.292 0 01-.293-.293v-5.412c0-.163.13-.295.293-.295zM13.293 29h5.412c.162 0 .295.132.295.295v5.412a.294.294 0 01-.295.293h-5.412a.292.292 0 01-.293-.293v-5.412c0-.163.13-.295.293-.295zM37.293 37h5.412c.162 0 .295.132.295.295v5.412a.294.294 0 01-.295.293h-5.412a.292.292 0 01-.293-.293v-5.412c0-.163.13-.295.293-.295zM13 42.705v-5.41c0-.163.13-.295.293-.295h5.414c.162 0 .293.132.293.295v5.41c0 .163-.13.295-.293.295h-5.414a.294.294 0 01-.293-.295zM21 42.705v-5.41c0-.163.13-.295.293-.295h5.414c.162 0 .293.132.293.295v5.41c0 .163-.13.295-.293.295h-5.414a.294.294 0 01-.293-.295zM29 42.705v-5.41c0-.163.13-.295.293-.295h5.414c.162 0 .293.132.293.295v5.41c0 .163-.13.295-.293.295h-5.414a.294.294 0 01-.293-.295z" fill="#fff"/></svg>