<!-- by TradingView --><svg width="56" height="56" xmlns="http://www.w3.org/2000/svg"><path fill="#3D1A85" d="M0 0h56v56H0z"/><path d="M7 22h3v14H7V22z" fill="#fff"/><path d="M18 33v3H9v-3h9z" fill="#fff"/><path fill-rule="evenodd" d="M36.5 36L42 22h3.3l5.5 14h-3.3l-1.1-3h-5.5l-1.1 3h-3.3zm7.15-10.7L45.3 30H42l1.65-4.7z" fill="#fff"/><path d="M33.906 31.55c-.921 3.023-3.352 4.95-6.206 4.95-3.645 0-6.6-3.344-6.6-7.9 0-4.556 2.955-7.7 6.6-7.7 2.854 0 5.285 1.927 6.206 4.95H31.02c-.62-1.369-1.762-2.2-3.32-2.2-2.431 0-3.85 2.02-3.85 4.95s1.419 5.15 3.85 5.15c1.558 0 2.7-.831 3.32-2.2h2.885z" fill="#fff"/></svg>