<!-- by TradingView --><svg width="56" height="56" fill="none" xmlns="http://www.w3.org/2000/svg"><path fill="#F0F3FA" d="M0 0h56v56H0z"/><path d="M22 14.5a2.5 2.5 0 015 0v10a2.5 2.5 0 01-5 0v-10zM22 41.5a2.5 2.5 0 005 0v-10a2.5 2.5 0 00-5 0v10z" fill="#0A2A65"/><path d="M24.5 22a2.5 2.5 0 010 5h-10a2.5 2.5 0 010-5h10z" fill="#0A2A65"/><path fill-rule="evenodd" clip-rule="evenodd" d="M24.497 27A2.5 2.5 0 0122 24.5V22h2.5a2.5 2.5 0 110 5h-.003z" fill="#000627"/><path d="M24.5 34a2.5 2.5 0 000-5h-10a2.5 2.5 0 000 5h10z" fill="#0A2A65"/><path fill-rule="evenodd" clip-rule="evenodd" d="M22 34h2.5a2.5 2.5 0 100-5h-.009A2.5 2.5 0 0022 31.5V34z" fill="#000627"/><path d="M29 14.5a2.5 2.5 0 015 0v10a2.5 2.5 0 01-5 0v-10z" fill="#AF2735"/><path d="M29 41.5a2.5 2.5 0 005 0v-10a2.5 2.5 0 00-5 0v10z" fill="#0A2A65"/><path d="M41.5 22a2.5 2.5 0 010 5h-10a2.5 2.5 0 010-5h10z" fill="#AF2735"/><path fill-rule="evenodd" clip-rule="evenodd" d="M31.487 27a2.5 2.5 0 01-2.488-2.488V24.5a2.5 2.5 0 012.5-2.5H34v2.5a2.5 2.5 0 01-2.497 2.5h-.016z" fill="#821815"/><path d="M41.5 34a2.5 2.5 0 000-5h-10a2.5 2.5 0 000 5h10z" fill="#0A2A65"/><path fill-rule="evenodd" clip-rule="evenodd" d="M29 31.513A2.5 2.5 0 0031.5 34H34v-2.5a2.5 2.5 0 00-2.494-2.5H31.5l-.085.001a2.5 2.5 0 00-2.415 2.5v.012z" fill="#000627"/></svg>