<!-- by TradingView --><svg width="56" height="56" xmlns="http://www.w3.org/2000/svg"><path fill="#003DA5" d="M0 0h56v56H0z"/><path d="M15.055 18.235l-.285-.29a16 16 0 00-.362.445l.249.237c.084-.086.165-.173.252-.256.048-.048.097-.09.146-.136zM17.716 15.183c-.17.128-.341.256-.509.393l.438.695c.174-.102.348-.201.526-.294l-.455-.794zM25.695 12.096c-.212.022-.424.044-.633.073l.056 2.295c.186.006.37.017.555.03l.023-2.398zM19.526 14.011c-.197.109-.385.22-.575.337l.473 1.052c.189-.075.379-.146.57-.212l-.468-1.177zM21.512 13.081c-.209.08-.415.165-.62.256l.427 1.476c.193-.044.388-.086.585-.122l-.392-1.61zM13.623 19.465c-.109.163-.216.326-.317.491l.122.091c.115-.152.235-.303.358-.451l-.163-.131zM23.598 12.44c-.214.05-.426.105-.637.163l.28 1.906c.191-.017.383-.03.576-.039l-.22-2.03zM30.154 12.188a14.095 14.095 0 00-.704-.087l-.668 2.963c.184.057.366.117.547.182l.825-3.059zM43.928 26.405c-.022-.236-.051-.47-.084-.704l-5.61.935c.012.163.025.327.033.492l5.66-.723zM40.164 17.767a18.3 18.3 0 00-.471-.52l-3.736 3.105c.1.141.196.285.29.43l3.917-3.015zM41.598 19.658a13.678 13.678 0 00-.413-.607l-4.333 2.757a13 13 0 01.235.468l4.511-2.618zM42.749 21.791a14.698 14.698 0 00-.311-.667l-4.893 2.253c.058.162.114.325.165.49l5.039-2.076zM16.128 16.522c-.065.064-.13.122-.197.186-.08.078-.155.159-.233.238l.352.424c.153-.12.306-.24.46-.354l-.382-.494zM43.533 24.084a13.38 13.38 0 00-.197-.703L38 25.003c.035.165.066.331.092.498l5.44-1.417zM32.484 12.703c-.234-.07-.47-.135-.71-.192l-1.225 3.245c.174.083.346.17.516.26l1.419-3.313zM27.863 12.007c-.106 0-.21-.007-.317-.007-.118 0-.234.006-.352.008l-.243 2.63c.187.03.372.065.556.101l.356-2.732zM34.724 13.573c-.219-.106-.441-.205-.665-.3l-1.877 3.414c.155.103.308.21.46.32l2.082-3.434zM38.565 16.152c-.17-.151-.343-.297-.516-.44l-3.165 3.314c.117.128.233.256.344.384l3.337-3.258zM36.776 14.757a14.145 14.145 0 00-.6-.388l-2.547 3.43c.136.118.269.24.402.366l2.745-3.408zM14.744 38.038c.115.135.235.268.355.4l.594-.546c-.132-.11-.26-.222-.386-.337l-.563.483zM39.574 38.888c.158-.163.31-.329.46-.495l-4.32-2.857a15.07 15.07 0 01-.291.369l4.15 2.983zM34.376 42.603c.2-.09.398-.185.594-.284l-2.573-3.599c-.131.09-.262.18-.394.265l2.373 3.618zM36.272 41.585c.184-.115.365-.234.545-.356l-3.203-3.463c-.118.103-.237.205-.357.303l3.015 3.516zM30.22 43.815c.215-.032.428-.064.64-.106l-1.247-3.507a13.03 13.03 0 01-.455.168l1.062 3.445zM32.328 43.36c.212-.065.421-.129.63-.2l-1.899-3.618c-.141.075-.285.146-.429.217l1.698 3.6zM43.764 30.812c.038-.22.071-.442.1-.665l-5.725-.358c-.023.158-.052.313-.08.468l5.705.555zM28.15 44c.208-.006.414-.017.619-.03l-.677-3.286c-.156.039-.313.073-.471.107L28.15 44zM43.986 28.637c.007-.21.014-.42.014-.631v-.033l-5.73.264c-.005.16-.013.318-.024.475l5.74-.075zM43.206 33.03c.074-.22.143-.443.206-.668l-5.597-1.034c-.043.154-.087.308-.135.46l5.526 1.242zM42.285 35.181c.11-.21.216-.42.315-.635l-5.305-1.722c-.062.147-.131.292-.197.437l5.187 1.92zM41.04 37.16c.14-.192.276-.381.406-.576l-4.862-2.351c-.08.137-.16.273-.247.408l4.704 2.519zM37.983 40.357c.165-.135.33-.274.492-.417l-3.76-3.227c-.104.111-.215.22-.327.33l3.595 3.314zM13.658 36.608c.102.151.207.3.315.448l.474-.34c-.123-.127-.24-.262-.357-.395l-.432.287zM15.95 39.325c.13.128.262.25.4.372l.682-.794a11.233 11.233 0 01-.42-.293l-.663.715zM12.733 35.04c.085.165.169.33.263.492l.325-.173a14.68 14.68 0 01-.315-.448l-.273.13zM12 33.368c.066.174.131.345.202.515l.15-.055a12.607 12.607 0 01-.252-.492l-.1.032zM17.319 40.525c.148.117.296.233.447.345l.74-1.126a14.305 14.305 0 01-.46-.236l-.727 1.017zM22.393 43.242c.187.059.375.115.565.168l.39-2.357c-.165-.014-.328-.03-.493-.05l-.462 2.239zM24.473 41.1l-.2 2.618c.19.035.381.064.574.093l.11-2.716c-.125.003-.25.008-.376.008l-.108-.002zM20.565 42.536c.18.084.361.161.543.237l.603-1.947c-.167-.032-.334-.064-.498-.105l-.648 1.815zM26.168 43.959c.197.014.393.029.59.037l-.23-3.018c-.158.021-.316.039-.477.054l.117 2.927zM18.861 41.61c.166.104.333.204.501.301l.718-1.517a11.977 11.977 0 01-.486-.176l-.733 1.392zM14.29 31.428v-7.16c0-.167.12-.251.357-.251.238 0 .357.084.357.252v6.79h3.08c.158 0 .238.106.238.316 0 .217-.08.326-.238.326h-3.469a.364.364 0 01-.227-.073.238.238 0 01-.097-.2zM21.498 29.515v-3.259c0-.764.21-1.328.632-1.693.422-.364.967-.546 1.637-.546.685 0 1.227.17 1.627.512.4.341.6.756.6 1.245 0 .168-.027.28-.081.337-.055.056-.147.084-.276.084-.224 0-.343-.088-.357-.263a1.35 1.35 0 00-.174-.636 1.11 1.11 0 00-.254-.32 1.226 1.226 0 00-.438-.226 2.143 2.143 0 00-.648-.09c-1.038 0-1.556.534-1.556 1.6v3.26c0 1.072.533 1.608 1.599 1.608.258.007.515-.034.757-.121a.878.878 0 00.443-.352c.079-.124.142-.256.189-.395.038-.14.066-.282.08-.426.022-.181.141-.273.358-.273.131 0 .221.03.276.09.054.06.08.173.08.341 0 .497-.203.918-.61 1.262s-.957.515-1.649.515c-.663 0-1.201-.182-1.615-.547-.414-.365-.62-.934-.62-1.707zM30.346 31.428v-7.16c0-.167.119-.251.357-.251s.356.084.356.252v7.159a.226.226 0 01-.108.2.43.43 0 01-.248.073.422.422 0 01-.254-.073.235.235 0 01-.103-.2z" fill="#fff"/></svg>