<!-- by TradingView --><svg xmlns="http://www.w3.org/2000/svg" width="56" height="56"><path fill="#F0F3FA" d="M0 0h56v56H0z"/><path d="M12.97 30.57a4.92 4.92 0 01-1.37-3.55A4.81 4.81 0 0116.5 22a4.5 4.5 0 013.64 1.84c-.29.23-.43.35-1.1.85a3.1 3.1 0 00-2.54-1.26 3.43 3.43 0 00-3.5 3.59 3.42 3.42 0 003.5 3.57c1.12 0 2.08-.53 2.66-1.41.3.21.78.6 1.12.83A4.53 4.53 0 0116.5 32a4.8 4.8 0 01-3.53-1.43zm7.17-6.73l-1.1.85 1.1-.85zM22.16 29c0 .81.33 1.69 1.39 1.69.72 0 1.3-.3 1.57-.95l1.1.61c-.17.3-.35.54-.54.75a2.42 2.42 0 01-1.31.8c-.25.07-.53.1-.82.1-.85 0-1.52-.27-2.04-.81a3.06 3.06 0 01-.76-2.18c0-.9.24-1.63.74-2.18.5-.55 1.16-.83 1.99-.83.83 0 1.5.27 1.98.8s.76 1.16.76 2.2h-4.06zm2.67-.98c-.16-.52-.63-.82-1.33-.82-.83 0-1.3.6-1.3.82h2.63zM27 26h1.38v.6c.51-.49 1.18-.6 1.83-.6.74 0 1.31.22 1.72.67.36.38.45 1 .45 1.86V32H31v-3.14c0-.6-.1-1.02-.27-1.25-.16-.23-.47-.35-.92-.35-.49 0-.9.28-1.1.6-.2.3-.33.7-.33 1.47V32H27v-6zm8.2 1.4V32H34v-4.6h-.8V26h.8v-2h1.2v2h1v1.4h-1zm2.2-1.4h1.4v.54c.33-.33.95-.54 1.42-.54.37 0 .76.12 1.16.35l-.64 1.27a1.37 1.37 0 00-.79-.28c-.77 0-1.25.57-1.25 1.7V32h-1.3v-6zm6 0v3.35c0 .96.34 1.45 1.1 1.45.77 0 1.1-.49 1.1-1.45V26H47v3.38c0 .46-.06.87-.17 1.2-.12.31-.31.58-.59.83-.45.4-1.03.59-1.73.59s-1.28-.2-1.74-.6a2.07 2.07 0 01-.6-.81 3.3 3.3 0 01-.17-1.21V26h1.4zm8.21 1.13l-1.16.58c-.18-.35-.39-.51-.65-.51-.13 0-.24.02-.33.1a.39.39 0 00-.14.3c0 .22.27.44.8.65.74.3 1.23.58 1.49.83.25.25.38.53.38.96 0 .54-.21 1.07-.64 1.43-.42.35-.92.53-1.5.53-1 0-1.72-.46-2.14-1.4l1.18-.51c.17.27.3.44.38.52.17.14.39.19.62.19.47 0 .68-.18.68-.58 0-.23-.18-.45-.54-.65a20.71 20.71 0 00-.84-.39 2.6 2.6 0 01-.85-.56 1.35 1.35 0 01-.35-.91c0-.5.21-.9.57-1.23.37-.32.81-.48 1.33-.48.77 0 1.34.37 1.71 1.13z" fill="#0E4A93"/><path d="M14.8 35.43a.45.45 0 11-.57-.71.45.45 0 01.56.7zm.6 2.27a.55.55 0 11-.68-.87.55.55 0 01.68.86zm1.8 2.14a.71.71 0 11-.88-1.11.71.71 0 01.89 1.11z" fill="#4C9D44"/><circle cx="20.67" cy="22.67" r=".39" fill="#4C9D44"/><circle cx="18.41" cy="21.24" r=".39" fill="#4C9D44"/><path d="M12.32 31.83a.4.4 0 11-.78 0 .4.4 0 01.78 0zm2.34 1.35a.4.4 0 11-.79 0 .4.4 0 01.79 0zm2.97.29a.4.4 0 11-.79 0 .4.4 0 01.79 0zm-6.4.48a.45.45 0 11-.16-.9.45.45 0 01.16.9zm-.52 2.29a.55.55 0 11-.2-1.09.55.55 0 01.2 1.09zm.59 2.74a.71.71 0 11-.26-1.4.71.71 0 01.26 1.4zM9.07 23.62a.45.45 0 11.87-.26.45.45 0 01-.87.26zm-2.33-.27a.55.55 0 111.06-.31.55.55 0 01-1.06.31zm-2.66.88a.71.71 0 111.36-.4.71.71 0 01-1.36.4zm10.38-5.11a.45.45 0 11.77.48.45.45 0 01-.77-.48zm-1.34-1.92a.55.55 0 11.94.58.55.55 0 01-.94-.59zm-2.42-1.42a.71.71 0 111.2.75.71.71 0 01-1.2-.75zM17.9 19a.45.45 0 11.53.74.45.45 0 01-.53-.73zm-.52-2.28a.55.55 0 11.65.89.55.55 0 01-.65-.9zm-1.71-2.22a.71.71 0 11.83 1.15.71.71 0 01-.83-1.15zm5.65 5.94a.45.45 0 11.21.89.45.45 0 01-.21-.89zm.39-2.31a.55.55 0 11.26 1.07.55.55 0 01-.26-1.07zm-.74-2.7a.71.71 0 11.34 1.38.71.71 0 01-.34-1.38zm-10.02 5.38a.45.45 0 11.9.05.45.45 0 01-.9-.05zm-2.11-1.04a.55.55 0 111.1.06.55.55 0 01-1.1-.06zm-2.8-.07a.71.71 0 111.42.08.71.71 0 01-1.42-.07zm2.03 7.5a.45.45 0 11.61-.69.45.45 0 01-.6.68zm-2.12.98a.55.55 0 11.73-.82.55.55 0 01-.73.82zm-1.81 2.15a.71.71 0 11.95-1.06.71.71 0 01-.95 1.06zm4.74.53a.45.45 0 11.28-.86.45.45 0 01-.28.86zm-1.54 1.77a.55.55 0 11.34-1.05.55.55 0 01-.34 1.05zm-.77 2.7A.71.71 0 117 33.98a.71.71 0 01-.43 1.35zm4.48-5.88a.4.4 0 11-.78 0 .4.4 0 01.78 0zm9.09 2.95a.4.4 0 11-.78 0 .4.4 0 01.78 0zm1.29 1.44a.45.45 0 11-.91 0 .45.45 0 01.9 0zm2.15.93a.55.55 0 11-1.1 0 .55.55 0 011.1 0zm2.8-.08a.71.71 0 11-1.42 0 .71.71 0 011.42 0zm-7.83.73a.45.45 0 11-.78-.47.45.45 0 01.78.47zm1.38 1.89a.55.55 0 11-.95-.56.55.55 0 01.95.56zm2.45 1.36a.71.71 0 11-1.22-.72.71.71 0 011.22.72zm-9.09-16.8a.4.4 0 11-.79 0 .4.4 0 01.79 0zm-1.85 2.23a.4.4 0 11-.78 0 .4.4 0 01.78 0zm-.89 2.5a.4.4 0 11-.78 0 .4.4 0 01.78 0z" fill="#4C9D44"/><circle cx="15.59" cy="21.04" r=".39" fill="#4C9D44"/></svg>