<!-- by TradingView --><svg xmlns="http://www.w3.org/2000/svg" width="56" height="56"><path fill="#194D7E" d="M0 0h56v56H0z"/><path fill-rule="evenodd" d="M27.5 15.86c-.29-.36-1.32-1.09-3.11-1.16-2.25-.08-4.1 1.35-4.1 3.51 0 2.36 2.39 3.08 3.15 3.28.76.2 1.8.51 1.82 1.42.02.72-.56 1.34-1.39 1.34-.83 0-1.7-.2-2.25-1.02L20 24.94a5.7 5.7 0 003.87 1.36c2.5-.03 3.63-1.86 3.63-3.65 0-1.6-.97-2.57-2.68-3.05-1.7-.48-2.28-1.14-2.28-1.56 0-.43.33-1.28 1.85-1.28.43 0 1.2.28 1.54.74l1.57-1.64zM11 15h2v9h5v2h-7V15zm27.5 25a5.5 5.5 0 100-11 5.5 5.5 0 000 11zm0-2a3.5 3.5 0 100-7 3.5 3.5 0 000 7zm7 2a1.5 1.5 0 100-3 1.5 1.5 0 000 3zm-12.88-1.86A5.49 5.49 0 0123 34.5a5.5 5.5 0 019.34-3.94l-1.5 1.35a3.5 3.5 0 10.18 5.02l1.6 1.21zm-16.13-3.86c.67-.34 1.98-1.37 1.89-2.7-.12-1.68-1.44-2.54-2.87-2.58-1.43-.05-3.48.73-3.48 2.73 0 .67.29 1.58 1.16 2.26-.75.3-2.24 1.33-2.19 2.94.07 2 2.16 3.11 3.9 3.07a4.5 4.5 0 002.89-1.27L18.92 40h2.75l-2.43-2.76L21.5 34h-2.53l-1.18 1.68-1.3-1.4zm-2.08.8l2.13 2.37c-.6.46-2 1.2-2.88.53-1.09-.84-.48-2.27.75-2.9zm-.39-3.42c0 .54.73 1.29 1.08 1.6l.06-.05c.5-.34 1.33-.9 1.33-1.55 0-.58-.47-1.17-1.2-1.17s-1.27.4-1.27 1.17z" fill="#fff"/></svg>