<!-- by TradingView --><svg width="56" height="56" xmlns="http://www.w3.org/2000/svg"><path fill="#335688" d="M0 0h56v56H0z"/><path d="M42 25v1h2v5h1v-5h2v-1h-5zM22 25v4l-3-4h-1v6h1v-4l3 4h1.003v-6H22zM33 29h2c-.074.428-.689 1-1.713 1-1.004 0-1.93-.96-1.93-2.006 0-1.066.905-1.994 1.95-1.994 1.053 0 1.672.964 1.693 1l1-.439c-.55-.907-1.446-1.56-2.674-1.56a2.99 2.99 0 00-2.978 2.993c0 1.685 1.29 3.006 2.939 3.006C34.815 31 36 29.875 36 28.353V28h-3v1zM27.684 27.61c-.9-.305-1.962-.414-1.962-.957 0-.315.532-.666 1.476-.653.944.013 1.74.386 2.3.653v-1.201A7.598 7.598 0 0027.033 25c-1.509 0-2.53.69-2.53 1.69 0 1.091 1.279 1.325 1.997 1.568.9.303 1.833.546 1.833 1.09 0 .314-.73.651-1.498.652-.897 0-1.777-.387-2.337-.653v1.206a7.056 7.056 0 002.423.447c1.526 0 2.582-.69 2.582-1.69 0-1.091-1.1-1.457-1.819-1.7zM14.002 25.003c-1.652 0-3 1.359-3 3a3.007 3.007 0 003 2.998c1.704 0 3-1.305 3-2.998 0-1.643-1.343-3-3-3zm0 5c-1.16.008-1.998-.842-1.998-2 0-1.159.734-2.013 1.998-2.003 1.263.01 2 .904 2 2.003 0 1.098-.842 1.99-2 2zM5 25H4v6h4v-1H5v-5zM51.606 30H49v-1.5h2c-.015-.21-.047-.295-.047-.51 0-.181.034-.314.047-.49h-2V26h2.58c.096-.407.262-.626.42-1h-3.984v6.001H52c-.161-.373-.293-.592-.394-1.001zM10.001 25H9v6h1.001v-6zM39 25l-2 6.001h1L38.359 30h2.256L41 31.001h1l-2-5.999-1-.001zm-.383 4l.883-3 .908 3h-1.79z" fill="#fff"/></svg>