<!-- by TradingView --><svg xmlns="http://www.w3.org/2000/svg" width="56" height="56"><path fill="#003A6C" d="M0 0h56v56H0z"/><path d="M44 28a16 16 0 11-32 0 16 16 0 0132 0z" fill="url(#ae3synytp)"/><path fill-rule="evenodd" d="M28 43a15 15 0 100-30 15 15 0 000 30zm0 1a16 16 0 100-32 16 16 0 000 32z" fill="url(#be3synytp)"/><path d="M42 28a14 14 0 11-28 0 14 14 0 0128 0z" fill="url(#ce3synytp)"/><path fill-rule="evenodd" d="M28 41a13 13 0 100-26 13 13 0 000 26zm0 1a14 14 0 100-28 14 14 0 000 28z" fill="url(#de3synytp)"/><path fill-rule="evenodd" d="M27.66 22.67c.43-.45 1.1-1.54 1.1-2.36 0-.86-.3-2.46-2.31-2.52-1.76-.05-4.33 1.66-4.58 5.54-.2 3.1 1.25 6.25 2.01 7.44.76 1.2.66 2.54-.32 2.41-1.23-.16-4.01-.16-4.12 2.25-.1 2.4 3.9 2.08 5.19.8a8.84 8.84 0 005.35 2.14 4.56 4.56 0 004.33-2.94c-.82.26-2.84.8-4.33.8-1.88 0-3.96-1.07-4.34-1.93.27-.9.27-2.77.27-3.53 0-1.19-.65-2.66-1.28-4.06-1.07-2.38-1.07-8.18 1.82-8.18.88 0 2.17 1.3 1.2 4.14zm-4.18 12.3c-.83-.6-3.22-1.15-3.22.32 0 2.13 3.22.54 3.22-.33z" fill="#5E3917"/><path fill-rule="evenodd" d="M27.27 22.28c.43-.45 1.1-1.55 1.1-2.37 0-.85-.3-2.46-2.31-2.51-1.76-.05-4.33 1.66-4.58 5.53-.2 3.1 1.26 6.26 2.01 7.45.76 1.2.66 2.54-.32 2.4-1.23-.15-4.01-.15-4.12 2.25-.1 2.41 3.9 2.09 5.19.8a8.84 8.84 0 005.35 2.14 4.56 4.56 0 004.33-2.94c-.82.27-2.84.8-4.33.8-1.87 0-3.96-1.06-4.33-1.92.26-.9.26-2.77.26-3.53 0-1.19-.65-2.67-1.28-4.06-1.07-2.38-1.07-8.18 1.82-8.18.88 0 2.17 1.3 1.2 4.14zm-4.18 12.29c-.83-.58-3.22-1.15-3.22.33 0 2.12 3.22.54 3.22-.33z" fill="url(#ee3synytp)"/><path d="M27.35 27.46c-.13-3 1.14-4.23 1.8-4.47v4.47h2.07v-4.12c0-3.54 2.05-4.93 3.33-4.81 1.27.11 1.62.92 1.62 1.62 0 .7-.7 1.37-1.1 1.62.3-.83.64-2.49-.52-2.49-1.45 0-2.13 2.1-1.38 6.5.43 2.5.67 5.52.6 6.27-.04 1.75-1.7 2.36-2.55 2.29.48 0 .64-.84.66-1.26v-3.93H29.7v2.68c-.02.89-.39 2.64-1.7 2.5-1.3-.12-1.44-1.1-1.37-1.7.3.57.85.27 1.1.18v-3.27l-1.53-2.08h1.15z" fill="#5E3917"/><path d="M26.97 27.26c-.14-3.01 1.14-4.24 1.8-4.48v4.48h2.07v-4.13c0-3.53 2.05-4.92 3.32-4.8 1.28.11 1.63.91 1.63 1.62 0 .7-.7 1.37-1.1 1.62.3-.83.63-2.5-.53-2.5-1.45 0-2.12 2.1-1.37 6.5.43 2.51.66 5.52.6 6.28-.04 1.74-1.7 2.35-2.55 2.28.48 0 .64-.84.65-1.25v-3.93h-2.18v2.67c-.02.9-.38 2.64-1.69 2.51-1.3-.13-1.5-1.36-1.42-1.96.3.56.9.52 1.15.43v-3.27l-1.53-2.07h1.15z" fill="url(#fe3synytp)"/><defs><linearGradient id="ae3synytp" x1="19.7" y1="14.79" x2="39.02" y2="39.35" gradientUnits="userSpaceOnUse"><stop stop-color="#FFFEBE"/><stop offset=".48" stop-color="#EED667"/><stop offset="1" stop-color="#896327"/></linearGradient><linearGradient id="be3synytp" x1="18.63" y1="14.93" x2="38.35" y2="41.1" gradientUnits="userSpaceOnUse"><stop stop-color="#FEFBBB"/><stop offset=".48" stop-color="#E3C556"/><stop offset="1" stop-color="#8A6527"/></linearGradient><linearGradient id="ce3synytp" x1="19.45" y1="17.54" x2="36.98" y2="37.83" gradientUnits="userSpaceOnUse"><stop stop-color="#FAF597"/><stop offset="1" stop-color="#966E28"/></linearGradient><linearGradient id="de3synytp" x1="18.66" y1="17.8" x2="36.72" y2="38.23" gradientUnits="userSpaceOnUse"><stop stop-color="#573E1B"/><stop offset=".3" stop-color="#F0D16A"/><stop offset=".64" stop-color="#452D1C"/><stop offset="1" stop-color="#F4F07E"/></linearGradient><linearGradient id="ee3synytp" x1="26.48" y1="17.39" x2="26.48" y2="37.98" gradientUnits="userSpaceOnUse"><stop stop-color="#FFFABF"/><stop offset=".5" stop-color="#F8DE6E"/><stop offset="1" stop-color="#B69239"/></linearGradient><linearGradient id="fe3synytp" x1="30.8" y1="18.32" x2="30.8" y2="34.14" gradientUnits="userSpaceOnUse"><stop stop-color="#FFF47C"/><stop offset="1" stop-color="#B78E35"/></linearGradient></defs></svg>