<!-- by TradingView --><svg width="56" height="56" xmlns="http://www.w3.org/2000/svg"><path fill="#005288" d="M0 0h56v56H0z"/><path d="M26 20h-5v3h5v5h3v-5h5v-3h-5v-4h-3v4z" fill="#fff"/><path d="M28.172 21.944c1.394-1.922.178-4.608-.604-5.711-2.12 2.815-1.406 4.98-.785 5.71l-1.662-1.657c-.482-.316-.864-.317-1.298-.316-.428.002-.865.317-.865.317-1.041.806-.434 1.988 0 2.478-.101-.522.275-.92.476-1.053.864-.507 2.549.49 3.283 1.053l-.125.19c-.112.152.14.372.279.464-.202.126-.683.379-1 .379-.315 0-.58-.478-.673-.717-.242 0-.519.478-.627.717v.8l.976.402c.241 0 .828-.598 1.045-.844-.353 1.23.503 2.199.976 2.529 1.282-1.079 1.06-2.136.79-2.529.241.287.855.718 1.126.844l.964-.402v-.8c-.023-.548-.72-.843-.65-.717.07.127-.07.506-.534.717-.372.169-.883-.183-1.092-.38.483-.168.464-.379.395-.463l-.21-.19c-.061-.091.224-.43 1.86-1.053 1.635-.624 1.982.442 1.95 1.053.372-.4.632-2.096-.239-2.612-.24-.143-.388-.183-.709-.183-.28 0-.904.079-1.249.451-.624.674-1.411 1.298-1.798 1.523z" fill="#005288"/><path d="M12 25H8v11h12.002v-3H12v-8zM25 25h-4v11h3v-4h7v4h3V25h-4v4h-5v-4zM44.136 25c3.619.024 4.102 2.714 3.864 4h-4c0-.963-.902-.944-1.332-1h-1.977c-1.198.07-1.661 1.13-1.691 1.556v1.878c.072 1.326 1.192 1.576 1.691 1.566.2.01.875.024 1.977 0 1.103-.024 1.362-.468 1.332-1h4v1.18c0 2.153-2.594 2.79-3.864 2.82-.18.03-1.39.07-4.793 0-3.402-.071-4.313-1.923-4.343-2.82V29c0-3.188 2.896-4.033 4.343-4 .09-.01 1.175-.024 4.793 0z" fill="#fff"/></svg>