<!-- by TradingView --><svg xmlns="http://www.w3.org/2000/svg" width="56" height="56"><path fill="#32ACED" d="M0 0h56v56H0z"/><path fill-rule="evenodd" d="M5 24h2v6h4v2H5v-8zm37.5 8h2.4l1.85-4.5 1.86 4.5H51l-3.28-8h-1.87l-3.35 8zM15 24h-2v4.83S12.98 32 16.5 32s3.5-3.17 3.5-3.17V24h-2v4.3c0 .65-.17 1.7-1.5 1.7S15 28.78 15 28.3V24zm10.83 8c1.32 0 2.48-.7 3.17-1.74l-1.6-1.05c-.35.53-.94.79-1.57.79-1.06 0-1.83-.84-1.83-1.96 0-1.13.77-2.04 1.83-2.04.65 0 1.23.34 1.57.87l1.6-1.2c-.7-1.01-1.96-1.67-3.17-1.67A3.92 3.92 0 0022 28c0 2.2 1.72 4 3.83 4zM31 24h2v8h-2v-8zm6 8h-2v-8h3.66s2.84 0 2.84 2.98c0 2.24-1.86 2.52-1.86 2.52L41.5 32h-2.4l-1.41-2H37v2zm0-4v-2h1.56c.57 0 1.04.45 1.04 1 0 .54-.5 1-1.04 1H37z" fill="#fff"/></svg>