<!-- by TradingView --><svg xmlns="http://www.w3.org/2000/svg" width="56" height="56"><path fill="url(#ahv1vhuj3)" d="M0 0h56v56H0z"/><path d="M8 21.5L5 24v12h13l2.5-3H8V21.5z" fill="#D50713"/><path d="M14 21h-3v10h10v-3h-7v-7zm8 3h3v7h-3zm8 1.47V31h-3V21h3l5 5.37V21h3v10h-3l-5-5.53zM22 21h3v2h-3zm18 0h3v4.47L47.05 21h4.05L46 26l5.36 5h-4.22L43 26.5V31h-3V21z" fill="#fff"/><path fill="#393B40" d="M22 33h29v3H22z"/><defs><linearGradient id="ahv1vhuj3" x1="10.42" y1="9.71" x2="68.15" y2="76.02" gradientUnits="userSpaceOnUse"><stop stop-color="#1A1E21"/><stop offset="1" stop-color="#06060A"/></linearGradient></defs></svg>