<!-- by TradingView --><svg width="56" height="56" fill="none" xmlns="http://www.w3.org/2000/svg"><path fill="#F0F3FA" d="M0 0h56v56H0z"/><path opacity=".5" d="M33.253 12l8.5 6.111L45 28l-3.247 9.889-8.5 6.111H22.747l-8.5-6.111L11 28l3.247-9.889 8.5-6.111h10.506z" fill="#C4C4C4"/><path d="M28.004 39.55L22.747 44h10.507l-5.25-4.45z" fill="url(#paint0_linear)"/><path d="M14.247 37.889l6.878-.612L22.747 44l-8.5-6.111z" fill="#D65879"/><path d="M11 28l5.977 3.473-2.73 6.416L11 28z" fill="#E47992"/><path d="M11.016 28.006l6.074-3.688-2.842-6.287-3.232 9.975z" fill="#EE9DBD"/><path d="M28.006 16.422l5.242-4.42L22.778 12l5.229 4.422z" fill="#E9A0BC"/><path d="M35 18.689l6.746-.583-8.498-6.105L35 18.69z" fill="#E77B93"/><path d="M41.748 18.108L39.023 24.5 45 28l-3.247-9.889-.005-.003z" fill="#D8557B"/><path d="M41.752 37.89l-2.84-6.463L45 28l-3.247 9.889h-.001z" fill="#C1356C"/><path d="M41.752 37.89l-6.902-.645L33.254 44l8.498-6.11z" fill="#B03F6D"/><path d="M22.75 12L21 18.59l-6.744-.485L22.746 12h.003z" fill="#F1D8E2"/><path d="M21 32.91l.125 4.367-6.872.594 2.724-6.398L21 32.91z" fill="#E46283"/><path d="M25.33 36.354l2.674 3.197-5.254 4.453-1.625-6.727 4.205-.923z" fill="#D04671"/><path d="M35.001 37.297l-4.4-.809-2.597 3.063L33.254 44 35 37.297z" fill="#BB3B6E"/><path d="M39.01 31.51L34.984 32.9v4.42l6.768.569-2.742-6.38z" fill="#BE396E"/><path d="M36.819 28.004l2.204-3.504L45 28l-5.977 3.543-2.204-3.54z" fill="#CF4874"/><path d="M11.01 28.003l5.967 3.47 2.208-3.47-2.151-3.675-6.024 3.675z" fill="#E98DA9"/><path d="M14.243 18.104l2.791 6.224L21 23.096V18.59l-6.757-.486z" fill="#EEC3D6"/><path d="M35 23.096v-4.407l6.749-.583-2.726 6.394L35 23.096z" fill="#E36283"/><path d="M35 18.689L33.248 12l-5.241 4.42 2.598 3.062L35 18.689z" fill="#E68FA8"/><path d="M22.752 11.99L21 18.59l4.33.893 2.677-3.061-5.255-4.433z" fill="#EEC1D7"/><path d="M35 23.096l4.023 1.404-2.204 3.504H28l7-4.909z" fill="#E25578"/><path d="M21 23.096l-3.973 1.232 2.154 3.676h8.82l-7-4.909z" fill="#E994AA"/><path d="M35 32.912l4.023-1.404-2.204-3.504H28l7 4.908z" fill="#D63169"/><path d="M21 32.912l-4.023-1.404 2.204-3.504h8.82l-7 4.908z" fill="#E57992"/><path d="M27.998 16.412l2.607 3.07L28.004 28l-2.674-8.516 2.668-3.07z" fill="#E995AB"/><path d="M30.605 19.483l4.395-.8v4.413L28 28l2.605-8.517z" fill="#E57992"/><path d="M25.34 19.488L21 18.684v4.412L28 28l-2.66-8.512z" fill="#E87793"/><path d="M25.34 19.488L21 18.566v4.53L28 28l-2.66-8.512z" fill="#EAB2C5"/><path d="M27.998 39.588l2.607-3.07L28.004 28l-2.674 8.516 2.668 3.07z" fill="#D6316A"/><path d="M30.605 36.517l4.395.8v-4.413L28 28l2.605 8.517z" fill="#C9326D"/><path d="M25.34 36.512l-4.34.804v-4.412L28 28l-2.66 8.512z" fill="#E55379"/><defs><linearGradient id="paint0_linear" x1="16.959" y1="15.997" x2="36.911" y2="41.502" gradientUnits="userSpaceOnUse"><stop stop-color="#E9A0BC"/><stop offset="1" stop-color="#B43E6E"/></linearGradient></defs></svg>