<!-- by TradingView --><svg xmlns="http://www.w3.org/2000/svg" width="56" height="56"><path fill="#FCE30E" d="M0 0h56v56H0z"/><path d="M15.46 33.38v-.03l-.23-1.68a474.46 474.46 0 00-.23-1.69c-.01-.13-.07-.17-.21-.15a4.67 4.67 0 01-.46.06c-.13 0-.15.07-.14.2.15 1.01.29 2.04.42 3.07v.02c.05.4.05.4.46.35l.14-.01.13-.02c.09 0 .14-.04.12-.12zm8.9-1.12v-.03l-.04-.35a467.78 467.78 0 01-.4-3.02c-.03-.16-.08-.2-.24-.16-.14.04-.29.06-.43.06-.16 0-.16.07-.14.2l.11.84c.12.84.24 1.68.34 2.52.02.13.06.15.18.12.16-.03.33-.05.5-.06.1-.01.16-.03.13-.12zm-7.09-7.4l-.06.01-.19.02c-.14 0-.29 0-.36.08-.08.09-.05.23-.01.37l.04.18.26 1.99.13 1c.01.07.03.13.12.11l.83-.1 1.66-.22c.09 0 .1-.05.08-.11l-.04-.23a8.44 8.44 0 01-.03-.24c-.01-.08-.04-.1-.13-.09l-.65.08-.62.08h-.02c-.24.04-.37.05-.43 0-.07-.05-.08-.17-.11-.41v-.02c-.1-.79-.2-1.58-.32-2.37 0-.08-.01-.15-.1-.13h-.05zm-2.97 8.62a6.88 6.88 0 000-.09 3.36 3.36 0 01-.04-.28c0-.13-.07-.16-.2-.15l-.74.1-.74.1c-.18.03-.24-.02-.26-.2l-.17-1.32-.12-.88a1.85 1.85 0 010-.18c-.01-.15-.01-.3-.1-.36-.1-.05-.23-.02-.37 0a1.52 1.52 0 01-.23.04c-.14 0-.17.07-.15.19l.04.3.05.31.36 2.74c.01.13.08.16.2.14l2.36-.3c.1 0 .14-.04.11-.16zm19.67-5.5c0-.07-.02-.13-.03-.18l-.03-.27c0-.11-.05-.13-.15-.1l-.32.04h-.12l-2.4.3c-.08.02-.1.06-.1.13l.07.42c.01.1.04.13.15.11l.43-.05.42-.06c.13-.02.16.03.18.14l.17 1.3.17 1.3c.03.2.08.29.3.24.12-.03.25-.05.39-.05.14-.01.15-.06.14-.2l-.25-1.71a290.04 290.04 0 00-.13-.97c-.02-.14.03-.17.15-.19l.4-.05.41-.05c.1 0 .17-.03.15-.1zm-2.26 3.44v-.05l-.7-1.34L29.96 28c-.03-.05-.06-.09-.14-.08l-.7.09c-.09.01-.14.05-.16.16l-.79 3.52c-.03.13-.01.2.14.17l.48-.06c.15-.01.21-.08.23-.23a2.14 2.14 0 01.05-.3l.04-.17c.02-.1.07-.13.16-.14.33-.03.64-.07.96-.12.21-.04.35 0 .4.22a.82.82 0 00.1.2l.07.15c.04.1.1.13.2.11l.7-.1zm-8.87-.11l-.09-.66-.2-1.58c-.02-.2-.09-.25-.28-.2a1.96 1.96 0 01-.41.06c-.12 0-.15.05-.13.16l.07.57a37.1 37.1 0 00.1.8c.05.35.1.7.13 1.06.03.29-.13.48-.4.57-.55.2-.94-.02-1.03-.6a26.62 26.62 0 00-.24-1.76 5.16 5.16 0 01-.05-.35c-.01-.13-.02-.2-.05-.22-.04-.03-.1-.02-.24 0a5.45 5.45 0 01-.38.05c-.16.01-.18.08-.16.21l.3 2.2c.1.7.44 1.07 1.15 1.19.24.04.48 0 .72-.03.81-.12 1.2-.58 1.2-1.47zm.22-4.66a140.55 140.55 0 01-.31-2.38c-.02-.09-.06-.09-.14-.08-.18.03-.36.06-.54.07-.12 0-.15.05-.13.16l.12.9.19 1.41c.04.37-.1.6-.43.7-.53.2-.93-.03-1.01-.59a96.67 96.67 0 01-.28-2.1v-.02c-.02-.13-.03-.2-.06-.22-.04-.03-.12-.02-.27 0a1.98 1.98 0 01-.35.05c-.17 0-.17.08-.16.2l.31 2.27c.1.69.53 1.1 1.23 1.15.32.02.64-.02.94-.12.63-.22.92-.63.9-1.4zm11.08-3.4v-.07a.8.8 0 00-.02-.07c-.05-.37-.05-.37-.42-.33h-.02l-2.1.27h-.01c-.15.02-.22.03-.25.07-.03.03-.02.1 0 .24v.02l.02.13c.14 1 .28 2 .4 3.01.02.2.1.24.28.21.74-.1 1.47-.2 2.2-.28h.02c.21-.03.31-.04.36-.1.04-.05.03-.15 0-.33v-.04c-.03-.2-.11-.25-.3-.22l-.84.11-.84.11c-.13.03-.16-.02-.18-.13a4.14 4.14 0 00-.07-.53c-.04-.19 0-.28.23-.29l.95-.11.5-.06c.09-.02.15-.05.12-.15-.03-.07-.03-.14-.03-.2 0-.12 0-.24-.11-.33h-.07l-.5.07-.94.13c-.2.03-.32 0-.3-.23a.76.76 0 00-.04-.32c-.06-.18.04-.2.18-.21l.64-.08c.32-.04.65-.09.98-.12.13-.02.2-.04.16-.16zm-.06 5.8v.14c.12 1 .67 1.86 2.04 1.76.69-.05 1.43-.48 1.59-1.34a2.7 2.7 0 00-.18-1.55 1.52 1.52 0 00-.7-.8c-.97-.5-2.8-.1-2.76 1.64v.14zm-6.13 1.28a2.1 2.1 0 00-.05-.57c-.17-.95-.8-1.46-1.7-1.37-.24.02-.47.05-.7.09a14.88 14.88 0 01-.79.1c-.22.01-.22.1-.19.26l.17 1.23.13.97.14 1.09c.02.1.03.16.16.14l.67-.09.88-.11c.62-.1 1.02-.45 1.2-1.03a2.32 2.32 0 00.08-.71zm9.52-6.07c.41-.31.54-.7.39-1.15a.97.97 0 00-1-.7c-.43.01-.85.07-1.27.13-.27.04-.54.08-.8.1-.14.02-.13.08-.11.17v.01l.11.82.3 2.25v.02c.03.2.04.3.1.35.05.05.16.04.37.02l.1-.02a.9.9 0 01.14-.01c.12 0 .13-.05.12-.16a26.68 26.68 0 01-.16-1.15c-.01-.07-.03-.15.1-.17l.3-.03.54-.05c.35-.02.45.07.52.4l.04.26c.03.18.05.36.12.54v.02c.03.07.05.13.16.12l.7-.1c.06 0 .12-.04.06-.08-.2-.14-.21-.33-.23-.52a1.77 1.77 0 00-.02-.2 5.17 5.17 0 01-.03-.13c-.05-.32-.11-.63-.55-.74zm3.3 4.23c.22-.15.36-.3.42-.53.2-.76-.4-1.42-1.21-1.33l-1.14.15-.74.1c-.1.01-.13.03-.11.12l.36 2.63.04.34.02.19c0 .15 0 .3.1.36.08.07.21.04.35 0a1.1 1.1 0 01.23-.03c.14 0 .17-.04.14-.18a13.2 13.2 0 01-.16-1.1c-.02-.13.01-.2.16-.2.17-.01.33-.03.5-.06l.22-.03c.37-.04.52.07.58.42l.04.23c.03.2.06.4.13.59.03.08.07.12.17.1l.44-.05a22.31 22.31 0 00.24-.03c.02 0 .05 0 .07-.04.02-.05-.02-.08-.06-.1-.1-.06-.13-.18-.15-.28v-.01l-.05-.29a7.49 7.49 0 00-.05-.3c-.04-.3-.15-.58-.54-.67zm-21.46 2.87a3.93 3.93 0 00-.01-.15c-.1-.86-.5-1.65-1.56-1.79-.73-.1-1.77.23-2.04 1.2-.1.38-.08.75-.02 1.13.27 1.58 1.69 1.81 2.58 1.4.33-.17.56-.2.81.07.07.08.13.04.2-.04.27-.34.27-.35-.08-.6-.1-.07-.1-.13-.05-.22.14-.27.17-.56.17-.85v-.15zm11.1-6.44c.37-.26.41-.6.3-.97-.1-.35-.36-.55-.72-.62a1.79 1.79 0 00-.61 0l-.5.06c-.34.05-.69.1-1.03.13-.19.02-.23.08-.2.25l.44 3.3c.02.13.07.16.19.14l.3-.04.3-.04c.16-.03.31-.05.47-.06.35-.04.7-.08 1.05-.2.42-.15.7-.54.7-1 0-.48-.2-.76-.69-.95zm12.96 1.91c.17 0 .31.08.34.2.07.25.24.22.4.19h.05l.08-.02.21-.02c.13 0 .13-.06.11-.17a1.18 1.18 0 00-1.06-.86c-.2-.02-.24-.09-.25-.25a.54.54 0 010-.07c0-.06 0-.13-.05-.15a.9.9 0 00-.41.05c-.08.03-.05.11-.02.18v.04c.06.17 0 .24-.18.27a1.22 1.22 0 00-.55.26c-.38.3-.47.7-.35 1.16.1.41.4.61.8.68.15.03.29.05.42.05.14.01.2.06.22.2.01.15.04.3.06.44l.03.24c.01.1 0 .13-.11.11-.23-.02-.42-.12-.5-.34-.04-.14-.13-.16-.25-.13a.86.86 0 00-.04.01.39.39 0 01-.1.02c-.47.05-.5.13-.25.54.1.17.25.3.43.39.22.11.45.16.7.16.2-.01.26.08.26.25v.06a.53.53 0 010 .05c0 .12.06.15.18.14h.02c.32-.04.32-.04.26-.36-.04-.17.01-.22.18-.27.22-.05.43-.17.6-.33.33-.31.36-.7.28-1.1-.1-.4-.38-.58-.76-.66a3.83 3.83 0 00-.5-.07c-.09-.01-.13-.02-.14-.12a47.38 47.38 0 01-.1-.77zm-17.05-2.36h.03c.1.8.22 1.6.31 2.4v.01c.04.26.05.4.13.45.07.06.2.04.46.01.17-.02.25-.07.22-.26l-.35-2.53-.1-.78c-.01-.1-.05-.13-.15-.12l-.61.08-.29.03c-.1.02-.13.05-.14.15a101.2 101.2 0 01-.26 2.76.43.43 0 01-.1-.15l-.92-2.42c-.04-.1-.07-.16-.2-.14a5.13 5.13 0 01-.74.1c-.25 0-.3.12-.24.33v.03l.01.03.38 2.76v.16c.01.14.02.28.1.35.07.08.2.05.32.02a.93.93 0 01.2-.04c.19 0 .2-.08.17-.21a87.02 87.02 0 01-.18-1.3l-.02-.16-.16-1.21a48 48 0 01.8 2.05l.09.22.04.15c.04.12.07.25.16.31.09.07.21.04.34 0a1.45 1.45 0 01.2-.03.36.36 0 01.05 0c.13 0 .18-.05.2-.2l.18-2.12.07-.73zM8.36 28.02l-1.63.22c-.16.02-.22 0-.24-.17-.14-1.16-.3-2.3-.46-3.46v-.04c-.06-.38-.06-.39.37-.45l1.63-.21 1.64-.21 1.77-.23 1.76-.23a543.29 543.29 0 013.17-.4l3.2-.4 2.9-.38 1.45-.18 1.44-.19 3.16-.4 3.2-.4 2.9-.37 2.85-.37 2.9-.37a543.29 543.29 0 013.16-.4l.97-.12 1.94-.24c.4-.05.4-.04.44.35v.02l.24 1.74.24 1.74c0 .12.03.16.17.14l.95-.12.64-.08c.18-.03.26-.03.29.2.17 1.45.38 2.9.59 4.34.01.13-.03.15-.14.16l-.7.1-.95.1c-.16.02-.2.06-.18.2l.12.88a126.8 126.8 0 00.2 1.54l.2 1.36c.02.13-.06.13-.13.13h-.03l-.73.1-.73.09-3.23.41a3417.4 3417.4 0 00-6.39.81l-3.2.41-2.86.36-2.88.37-1.74.23-1.5.19-3.18.4-2.88.38-2.86.36-1.73.22-1.5.2-3.16.4-.95.11-.95.12c-.13.03-.21.03-.24-.15-.15-1.18-.32-2.36-.48-3.53l-.03-.23c-.03-.16.06-.17.16-.18h.04l1.64-.21c.13-.02.15-.05.13-.17a5921.38 5921.38 0 01-.57-4.22v-.05a.17.17 0 01-.02-.04c0-.14-.05-.25-.2-.18zm34.5-.37c-.29-.02-.45-.13-.47-.33-.03-.22.14-.41.38-.48.1-.02.12.01.13.09l.04.31.04.32c.01.1-.04.1-.08.09h-.05zm.73.89l.11.77c.35-.11.47-.25.44-.49-.01-.18-.16-.3-.43-.34a.3.3 0 01-.03 0c-.04-.02-.1-.03-.09.06zm-13.3-2.66c-.01.26-.17.43-.47.48l-.49.06-.43.06c-.08.01-.12-.01-.12-.1l-.11-.78c-.02-.08.02-.1.09-.1l.26-.04c.23-.04.47-.07.7-.09.35-.02.57.19.57.5zm-1.7-1.8c-.1 0-.12.05-.1.16l.06.47.02.1c0 .05.02.08.08.07l.38-.05c.22-.02.45-.04.66-.1.25-.08.35-.25.3-.48-.05-.2-.23-.31-.48-.28a9.79 9.79 0 00-.46.06l-.46.05zm-10.57 8.4c-.24.23-.83.21-1.14-.06-.44-.4-.6-1.37-.3-1.89a.98.98 0 011.62-.07c.31.43.36.92.27 1.43-.02.13-.07.13-.17.06a1.04 1.04 0 01-.1-.08c-.08-.07-.16-.15-.22-.12a.73.73 0 00-.22.25 2 2 0 01-.09.12c-.05.07-.01.1.03.13h.01l.21.15.1.07zm22.42-4.75c-.04-.3-.23-.44-.59-.43l-.32.04c-.18.02-.37.05-.56.06-.1.02-.13.06-.12.16l.1.7c.01.1.06.13.16.12l.3-.04c.2-.03.41-.05.6-.09.34-.06.46-.23.43-.52zm-3.31-4.1c0 .17-.11.32-.33.37-.2.06-.4.08-.61.1-.15.02-.3.03-.43.06-.1.02-.11-.04-.12-.11l-.1-.72c0-.12.03-.15.15-.15l.55-.07.3-.04c.34-.04.59.16.59.56zM26.99 31.1c.12-.21.16-.44.16-.7a2.3 2.3 0 00-.22-.95.67.67 0 00-.55-.39c-.2-.02-.41.01-.62.04l-.32.05c-.08 0-.08.06-.07.12v.02l.03.25.25 1.87c.02.11.05.14.16.12l.33-.04.34-.05a.67.67 0 00.5-.34zm7.88-2.22c0-.41.1-.78.5-1a.97.97 0 011.38.43c.19.4.25.8.15 1.24-.1.42-.4.7-.85.76a.97.97 0 01-.95-.49c-.16-.28-.22-.6-.23-.94zm-5.09.4l-.22-.47-.1.5a39.8 39.8 0 00-.16.86v.05c-.02.05-.04.1.06.08.23-.02.45-.05.68-.09h.08c.07-.01.1-.04.06-.1l-.4-.83z"/></svg>