<!-- by TradingView --><svg xmlns="http://www.w3.org/2000/svg" width="56" height="56"><path fill="#F0F3FA" d="M0 0h56v56H0z"/><circle cx="28" cy="28" r="16" fill="#C9DA28"/><path d="M34.4 37a.6.6 0 00.6-.57v-1.87c0-.32-.25-.56-.6-.56h-9.85a6.48 6.48 0 01-4.14-1.81A5.4 5.4 0 0119 28.4V15.6c0-.31-.3-.6-.57-.6h-1.88c-.3 0-.56.29-.56.6v12.81c0 2.37.85 4.4 2.51 6.07A8.34 8.34 0 0024.55 37h9.86z" fill="#006225"/><path d="M21.6 19a.6.6 0 00-.6.57v1.87c0 .32.25.56.6.56h9.85c1.4 0 3.16.81 4.14 1.81A5.4 5.4 0 0137 27.6v12.8c0 .31.3.6.57.6h1.88c.3 0 .56-.29.56-.6V27.59c0-2.37-.85-4.4-2.51-6.07A8.34 8.34 0 0031.45 19h-9.86z" fill="#006225"/><circle cx="28" cy="28" r="3" fill="#fff"/></svg>