<!-- by TradingView --><svg xmlns="http://www.w3.org/2000/svg" width="56" height="56"><path fill="#FF0082" d="M0 0h56v56H0z"/><path d="M20.46 40.12c-3.22-.12-3.4-2.6-.44-3.23 2.7-.59 4.96.35 4.96.35s-.69 3.02-4.52 2.88zm14.3-25.03c1.86.15 1.72 2.7 1.21 4.31-1.48 4.71-5.03 4.85-5.03 4.85s1.12-9.38 3.82-9.16zm-4.13 11.4s5.96.05 8-6.91c1.18-4.05-.5-7.5-3.99-7.58-3.53-.07-6.26 3.02-7.54 12.24 0 0-3.4-.44-4.9-3.1-.72-1.26-1.8-.67-1.46.52 1.13 4.05 6.15 4.7 6.15 4.7s-.2 1.79-.52 3.98c-.3 2.12-.82 4.8-.82 4.8s-3.16-1-6.53-.3c-5.17 1.07-5.74 7.42.59 8.04 7.43.74 8.83-4.34 8.83-4.34s1.46.7 3.53 2.53c2.3 2.03 3.34 3.29 3.81 2.84.53-.5-.62-2.22-2.75-4.42-2.4-2.5-4.07-3.14-4.07-3.14s.4-1.65.83-4.32a281 281 0 00.84-5.53z" fill="#fff"/></svg>