<!-- by TradingView --><svg xmlns="http://www.w3.org/2000/svg" width="56" height="56"><path fill="url(#a3mfuhl0h)" d="M0 0h56v56H0z"/><path d="M22.4 23h8.3c2.61 0 4.13 2.98 2.81 5.25L26.08 40.3a3.23 3.23 0 01-5.67 0l-6.99-12.07c-1.2-1.94.32-5.23 2.93-5.23h4.44l1.84-3h-6.28c-4.9 0-7.95 5.61-5.47 9.87l6.97 11.97a6.32 6.32 0 0010.95 0l7.37-11.97C38.65 25.61 35.6 20 30.7 20H24l-1.6 3z" fill="#fff"/><path d="M27.37 14.2a6.32 6.32 0 0110.99 0l6.78 11.82c2.44 4.26-.61 9.98-5.5 9.98h-5.93l1.8-3h4.14c2.6 0 4.17-3.13 2.92-5.36L35.8 15.72a3.37 3.37 0 00-5.86 0l-6.89 11.92c-1.3 2.27.33 5.36 2.93 5.36h7.99l-1.65 3h-6.46c-4.89 0-7.94-5.72-5.5-9.98l7.01-11.83z" fill="#fff"/><defs><linearGradient id="a3mfuhl0h" x1="51.26" y1="44.35" x2="3.65" y2="13.82" gradientUnits="userSpaceOnUse"><stop stop-color="#ABCB3B"/><stop offset="1" stop-color="#2BB1E6"/></linearGradient></defs></svg>