<!-- by TradingView --><svg xmlns="http://www.w3.org/2000/svg" width="56" height="56"><path fill="url(#aweawouw4)" d="M0 0h56v56H0z"/><path fill-rule="evenodd" d="M50 29.18V27c0-2.76-9.85-5-22-5S6 24.24 6 27s9.85 5 22 5c10.02 0 19.34-.74 22-2.82zM27.98 30c6.35 0 11.5-1.34 11.5-3s-5.15-3-11.5-3c-6.36 0-11.51 1.34-11.51 3s5.15 3 11.5 3z" fill="url(#bweawouw4)"/><path d="M50 29.18C50 31.84 40.15 34 28 34c-10.02 0-19.12-1.35-22-4v-2.94c2.58 3.27 15.74 4.83 22 4.94 4.2-.03 11-1.19 11-3 0-1.56-7.74-3-11-3-6.59.03-10.16 1.64-10.78 2.06a1.19 1.19 0 01-.35-2.1C18.77 24.49 23.97 24 28 24c12.15 0 22 2.52 22 5.18z" fill="url(#cweawouw4)"/><defs><linearGradient id="aweawouw4" x1="10.42" y1="9.71" x2="68.15" y2="76.02" gradientUnits="userSpaceOnUse"><stop stop-color="#1A1E21"/><stop offset="1" stop-color="#06060A"/></linearGradient><linearGradient id="bweawouw4" x1="50" y1="27.93" x2="6" y2="27.19" gradientUnits="userSpaceOnUse"><stop stop-color="#3A673C"/><stop offset=".62" stop-color="#C7C7C6"/><stop offset="1" stop-color="#121212"/></linearGradient><linearGradient id="cweawouw4" x1="50" y1="29.18" x2="6" y2="29.18" gradientUnits="userSpaceOnUse"><stop stop-color="#121212"/><stop offset=".41" stop-color="#A4A4A4"/><stop offset=".59" stop-color="#E1E1E1"/><stop offset=".71" stop-color="#E1E1E1"/><stop offset="1" stop-color="#6F6F6E"/></linearGradient></defs></svg>