<!-- by TradingView --><svg width="56" height="56" xmlns="http://www.w3.org/2000/svg"><path fill="#E20613" d="M0 0h56v56H0z"/><path d="M17.233 14.834a75.233 75.233 0 018.201-2.146c-2.743 1.681-5.074 3.95-6.995 6.676-1.92 2.724-3.473 5.948-4.53 9.671.808 1.713 1.97 3.44 3.432 5.182 1.657 1.973 3.4 3.985 6.057 5.966 5.003 1.013 12.632-.852 15.328-3.327 2.145-5.494 2.88-11.066 1.796-16.737 1.26 2.13 2.455 4.257 3.478 6.467-.274 2.07-.997 4.336-2.077 6.76-.939 2.107-1.887 4.288-3.565 6.65-5.075 2.409-10.36 3.71-15.837 4.004-4.387-3.609-8.038-7.853-10.521-13.107.498-5.127 2.14-10.462 5.233-16.06zM34.785 12.054c-1.95-.169-5.121.061-9.302.623 1.019.073 2.155.242 3.386.488 1.485.297 3.106.706 4.825 1.194 2.434 1.773 4.808 3.596 6.814 5.726-1.808-3.205-3.702-5.952-5.723-8.03z" fill="#fff"/><path fill-rule="evenodd" d="M19 22h1v4h2.224v1H19v-5zm10.832 6.102l-.162 1.034a1.163 1.163 0 00-.215-.06 5.695 5.695 0 00-.92-.076c-.626 0-1.162.14-1.164.867-.002.362-.002.707 0 1.069.002.69.532 1.064 1.164 1.064.116 0 .357.01.465-.041V30h1v2.798a5.306 5.306 0 01-1.465.202c-.899 0-1.857-.233-2.175-1.177-.217-.641-.217-2.135 0-2.777.19-.563.722-.854 1.316-.984.67-.142 1.483-.113 2.156.04zM24.441 22c.958 0 1.7.272 2.009 1.225.216.667.216 1.883 0 2.55-.313.964-1.09 1.225-2.01 1.225-.957 0-1.7-.272-2.008-1.225-.217-.667-.217-1.883 0-2.55C22.74 22.273 23.483 22 24.44 22zm0 1c.647 0 1.05.567 1.052 1.128.002.376.002.396 0 .772-.002.562-.405 1.1-1.052 1.1-.606 0-1.079-.53-1.08-1.1a70.97 70.97 0 010-.772c.001-.561.433-1.128 1.08-1.128zm5.86 5h2.403c.85 0 1.296.836 1.296 1.6 0 .573-.202 1.363-.805 1.578L34 32.691 35.5 28h1l1.5 5h-1.004l-.298-1h-1.03l-.216-.426L35 33h-2.155l-.827-1.534H31.5V33h-1v-5h-.2zm1.199 1v1.475h.725c.4 0 .62-.454.62-.775 0-.318-.214-.7-.621-.7H31.5zm5.072 2.317L36.005 30l-.51 1.317h1.078zM33.5 22h1l1.504 5H35l-.294-1h-1.023l-.224-.427L33 27h-2v-3l-1 3h-1l-1-3v3h-1v-5h1.5l1 3 1-3H32v4.701L33.5 22zm1 3.257L34 24l-.5 1.257h1zM25.48 30H24v-1h2v-1h-2.996v5H26v-1h-2v-1.53l.624.53h.857v-1zM19 28h1l1.756 3v-3h1.064v5h-.936L20 30v3h-1v-5z" fill="#fff"/></svg>