<!-- by TradingView --><svg xmlns="http://www.w3.org/2000/svg" width="56" height="56"><path fill="#FFA300" d="M0 0h56v56H0z"/><path d="M11.6 31.26A4.12 4.12 0 018.11 33 3.98 3.98 0 014 29c0-2.23 1.79-4 4.13-4a4.14 4.14 0 013.23 1.54l-1.5 1.38A2.1 2.1 0 008.13 27C6.92 27 6 27.85 6 29s.92 2 2.11 2a2.2 2.2 0 001.8-1.04l1.7 1.3zM20 33h-2v-.78c-.58.5-1.33.78-2.13.78a3.83 3.83 0 01-2.9-1.31c-.64-.76-.99-1.7-.97-2.69 0-2.26 1.68-4 3.76-4 .81-.02 1.62.28 2.24.78V25h1.96l.04 8zm-2-5.15c-.45-.61-1.21-.85-1.95-.85-1.28 0-2.05.89-2.05 2-.04 1.11.92 2 2.1 2 .74 0 1.47-.26 1.9-.86v-2.3zm7.76-.78c-.24-.06-.5-.07-.76-.07-.77.04-1.6.45-2 1.13V33h-2v-8h2v.96a3 3 0 012.29-.96c.24 0 .47.02.71.06l-.24 2.01z" fill="#363A36"/><path d="M29 33h-2V22h2v11zm5-8a3.95 3.95 0 014 3.91v.1c0 2.22-1.72 3.99-4 3.99-2.27 0-4-1.77-4-4 0-2.19 1.74-3.98 3.92-3.98.03-.02.06-.02.08-.02zm0 6a2 2 0 100-4 2 2 0 00-2 2c0 1.14.9 2 2 2zm10.3 1.84c-.41.12-.87.16-1.3.16-2.05 0-3-1.35-3-3.24V27h-1.65v-2H40v-2h2v2h2v2h-2v2.66c0 .85.34 1.34 1.15 1.34a6 6 0 00.85-.06l.3 1.9zm7.4-6.52L48.18 31H52v2h-7v-1.32L48.61 27h-3.28v-2h6.38v1.32h-.01z" fill="#fff"/></svg>