<!-- by TradingView --><svg xmlns="http://www.w3.org/2000/svg" width="56" height="56"><path fill="#1E498D" d="M0 0h56v56H0z"/><path fill-rule="evenodd" d="M12 30h5v1h-6v-8h1v7zm12 1l-3-7-3 7h1.02l.6-1.4h2.76l.6 1.4H24zm-3-4.6l.95 2.2h-1.9l.95-2.2zm6.6-1.4H25v6h1v-2h1.47l1.32 2H30l-1.4-2.16c.62-.11 1.4-.6 1.4-1.84 0-1.58-1.12-2-2.4-2zm0 3H26v-2h1.6c.76 0 1.4.18 1.4 1 0 .8-.64 1-1.4 1zm3.4-3h5v1h-4v1.5h3v1h-3V30h4v1h-5v-6zm8.6 0H37v6h2.84A3.02 3.02 0 0043 28c0-1.52-1.18-3-3.4-3zm.24 5H38v-4h1.84c1.3 0 2.16.98 2.16 2 0 1.01-.86 2-2.16 2zM50 28c0-1.69-1.33-3-3-3s-3 1.31-3 3c0 1.68 1.33 3 3 3s3-1.31 3-3zm-3 2a2 2 0 100-4 2 2 0 000 4zM7 35v-8h1v7h7v1H7zm2-10v8h7v-1h-6v-7H9z" fill="#fff"/></svg>