<!-- by TradingView --><svg width="56" height="56" xmlns="http://www.w3.org/2000/svg"><path fill="#F0F3FA" d="M0 0h56v56H0z"/><path d="M23.842 19.552l12.959-3.506c.902-.244 1.175.538 1.199.959v3.451c-5.025.228-15.06.548-15 0 .061-.548.587-.83.842-.904z" fill="#0F5BA6"/><path d="M23.001 20.87c0-.832.667-1.093 1-1.12h14.706c1.002 0 1.275.746 1.286 1.12.005 5.467.012 16.673 0 17.75-.011 1.077-.658 1.369-.98 1.38-4.654-.01-14.171-.024-15.012 0-.84.023-1.017-.712-1-1.083V20.87z" fill="#24C0DD"/><path fill="#F2C717" d="M17 18h3v3h-3zM12 23h3v3h-3z"/><path fill="#19AAB6" d="M17 23h3v3h-3z"/><path fill="#F2C717" d="M20 26h3v3h-3z"/><path fill="#19AAB6" d="M17 29h3v3h-3z"/><path fill="#F2C717" d="M14 32h3v3h-3z"/><path fill="#0F5BA6" d="M23 29h3v3h-3z"/><path fill="#fff" d="M23 35h3v3h-3z"/><path fill="#19AAB6" d="M20 35h3v3h-3z"/><path fill="#0F5BA6" d="M26 32h3v2.997h-3z"/><path fill="#fff" d="M26 29h3v3h-3z"/><path fill="#0F5BA6" d="M23 23h3v3h-3z"/><path fill="#fff" d="M29 21h3v3h-3z"/><path fill="#0F5BA6" d="M29 26h3v3h-3z"/><path fill="#fff" d="M35 29h3v3h-3zM32 32h3v3h-3z"/></svg>