<!-- by TradingView --><svg width="56" height="56" xmlns="http://www.w3.org/2000/svg"><path fill="#C51407" d="M0 0h56v56H0z"/><path d="M26 23.544V22h1.528v1.383L26.84 25h-.648l.416-1.456H26zM4 22h1v9h3.183v1H4V22zm6 0v7.622c0 .706.184 1.378 1.04 1.378.858 0 .96-.672.96-1.378V22h1v7.52c0 1.577-.685 2.48-2 2.48s-2-.903-2-2.48V22h1zm8.534 2.303v.358c0 1.024 0 1.651-.737 2.017.867.326 1.203 1.088 1.203 2.145v.81c0 1.54-.835 2.367-2.455 2.367H14V22h2.439c1.561 0 2.095.755 2.095 2.303zM15 23v3h1.211c.606 0 1.335-.338 1.335-1.14v-.557c0-.715-.534-1.303-1.107-1.303H15zm0 4v4h1.545c1 0 1.455-.628 1.455-1.367v-.874C18 27.83 17.546 27 16.34 27H15zm7 1.688L20 22h1l1.5 5 1.5-5h1l-2 6.688V32h-1v-3.312zM30.517 22c1.627 0 2.466.893 2.466 2.455V25H32v-.638c0-.7-.585-1.363-1.5-1.362-.915.001-1.5.663-1.5 1.362 0 2.013 4 2.385 4 5.183C33 31.106 32.144 32 30.5 32c-1.644 0-2.5-.894-2.5-2.455V29h1v.646c0 .699.469 1.273 1.5 1.354 1.031.081 1.5-.756 1.5-1.455 0-2.013-3.966-2.285-3.966-5.082.017-1.57.856-2.463 2.483-2.463zM37 22h-1v10h1V22zm3 2.706V32h-1V22h1l3 7.401V22h1v10h-1l-3-7.294zM52 30h-2v2h2v-2zm-3-2v1.543C49 31.106 48.317 32 47 32s-2.002-.894-2.002-2.457v-5.086c0-1.563.685-2.457 2.001-2.457 1.317 0 2.002.894 2.002 2.457V26H48v-1.644c0-.7-.173-1.35-1-1.356-.827-.006-1 .656-1 1.356v5.288c0 .7.13 1.34 1 1.356.87.015 1-.656 1-1.356V28h1z" fill="#fff"/></svg>