<!-- by TradingView --><svg width="56" height="56" xmlns="http://www.w3.org/2000/svg"><path fill="#F0F3FA" d="M0 0h56v56H0z"/><path d="M44.61 28.468c.643.472 1.309.815 1.309 1.566 0 .217-.279.432-.902.432-.471 0-.985-.13-1.222-.475-.193-.258.086-.6-.086-.858-.13-.215-.428-.108-.622-.215-.235-.128-.257-.236-.408-.557-.17-.386-.75-1.03-1.437-1.716-.578-.579-1.2-.88-1.479-.858-.196.021-.259.021-.453.021-.493 0-.923.473-1.63.773-.493.213-.772.343-1.093.386l-.108.129.643-.021c.6 0 1.394-.087 1.995-.087.624 0 .925.558 1.16 1.137.474 1.18 1.18 2.876 2.018 4.291.406.666.75 1.095.75 1.913 0 .258-.022.602-.366.602-.47 0-1.672-.494-1.672-1.032 0-.41.321-.58.321-.988 0-.258-.386-.215-.471-.45-.3-1.266-.665-2.513-1.375-3.264-.365-.386-.408-.558-.772-.558-.194 0-.387.043-.558.108-.986.365-2.295 1.461-3.925 1.954-.622.193-.73-.171-1.372-.043h.043c-.518.107-.925.407-1.633.601-.987.28-2.682.407-4.032.237-.965-.13-2.212-.322-2.748-.3-.407 1.178-1.287 2.724-2.573 3.327-.686.3-.901.728-.686 1.5.257.963 1.115 1.673 1.565 2.488.407.706 1.072 1.823 1.78 2.188.708.364 1.139.9 1.139 1.349 0 .215-.089.344-.303.344h-1.414a.392.392 0 01-.366-.216c-.193-.363-.064-.706-.321-1.027-.194-.236-.344-.172-.58-.364-.428-.408-.107-.644-.428-1.16-.901-1.414-1.287-1.757-2.038-2.767-.428-.535-.944-.794-.944-1.5 0-.856.858-1.007.837-1.869-.558.41-1.202.731-2.19.862-.129.021-.473.279-.623.45-.343.344-.47.686-.515 1.2-.106 1.16-.341 2.34-.193 3.494.193.754.324 1.01.944 1.418.387.257.837.622.88 1.157 0 .15-.043.322-.258.322h-1.523a.387.387 0 01-.321-.194c-.172-.299-.064-.513-.128-.857-.15-.707-.944-.664-.944-1.392 0-.216.128-.495.15-.946.043-.985.343-2.574.043-4.502-.129-1.119 1.03-1.16 1.63-2.148.364-.559.257-.322.471-.729.215-.429.172-.73.151-.986 0-.323-.322-1.012-.107-2.406.086-.622.385-1.244.793-1.78 0-.021 0-.107-.13-.107-.6.043-.6-.107-1.007-.107-.385 0-.686.322-.75.492a.5.5 0 01-.279-.427c0-.215.043-.408.257-.623.086-.086 0-.128-.107-.128-.472 0-.922.579-1.03.986-.279-.043-.3-.407-.429-.407-.128 0-.214.193-.214.387 0 1.372 2.232 1.672 2.232 3.473 0 2.083-2.511 1.653-2.511 2.404 0 .15.107.279.301.365-.086.194-.301.28-.536.28-.558 0-.967-.408-.967-.966 0-1.137 1.523-1.16 1.523-2.019 0-.407-.256-.535-.493-.729C12.816 28.296 12 27.267 12 25.573c0-1.823 1.266-3.22 2.917-3.22 2.402 0 2.467 2.769 4.657 3.005.815-.557 1.78-.879 2.723-.879 1.416 0 2.037.365 3.541.365.602 0 1.61-.171 2.81-.986.45-.3.643-.365 1.05-.73.945-.818 1.824-2.405 1.824-3.54v.063c0-.364-.086-.58-.257-.58-.515 0-.965.474-1.48.967-.322.342.17.492-.558.9-.257.129-.557-.108-.836-.108-.58 0-.836-.685-.836-1.285 0-.302.236-.388.364-.666.301-.58.28-.793.557-1.373.172-.387.473-.643.452-.922 0-.106-.085-.171-.085-.278 0-.583.77-.968.77-1.547 0-.322-.364-.472-.45-.73-.086-.257-.021-.321-.021-.321a.12.12 0 01.107-.065c.3 0 .43.322.707.493.022-.385-.106-.471-.106-.75 0-.15-.022-.386.128-.386.193 0 .171.258.344.386.215.171.407.15.643.3.3.194.471.515.579.537.3.042.386-.323.236-.537.343-.021.686.258 1.139.258.708 0 .944.192 1.073.3.45.387.535.686 1.028.686.258 0 .387-.215.452-.3.343.256.364.9 0 1.437.15.453.793.495 1.093.71.3.214.257.322.472.45.172.108.322.087.45 0 .15.6-.365 1.137-.986 1.223.021.772.837 1.245 1.2 1.437-.214.472-.6.621-.943.708.107.472.623 1.158.364 1.78-.236-.108-.578 0-.578.343 0 .386.493.583-.022.86-.236.129-.279.472.15.794.558-.15 1.094-.128 1.715-.128.387 0 .902-.108 1.245-.108.646 0 1.032.257 1.504.772 1.18 1.287 2.252 2.638 3.474 3.56z" fill="#231F20"/><path d="M12.773 25.037c.258 0 .73-1.416 1.694-1.416.279 0 .343.107.343.214 0 .194-.321.366-.321.623 0 .043.02.107.107.107.236 0 .408-.515 1.372-.515.258 0 .472.021.707.086.108.021.322.13.237-.171-.237-.664-.965-1.29-1.995-1.29-1.03 0-2.101.926-2.23 2.04-.022.193-.022.322.086.322zM30.58 16.198c-.28-.11-.323-.26-.236-.603.063-.364.084-.515-.087-.558-.15-.043-.343.043-.536.258-.172.235-.451.515-.537.75-.086.303.279.26.022.753-.45.815-.558.987-.772 1.566-.193.601-.343.687-.45.88-.13.171.172.193.514.086.366-.13.386.3.258.6-.108.215-.022.3.278.064.279-.214-.15-.386-.043-1.072.107-.623.236-.965.623-1.587.322-.537.6-.923 1.157-.73.215.108.108-.278-.192-.407zM42.508 34.415c.107 0 .129-.15.129-.281 0-.3-.171-.752-.407-.945-.065.452-.28.752-.28.945 0 .153.409.281.558.281zM45.167 30.1c.172 0 .43-.066.43-.195 0-.257-.387-.708-.73-.815.236.45 0 1.01.3 1.01zM33.391 24.244c2.423 1.114 2.273 3.152 2.488 2.636.086-.214.407-1.221-.451-2.186-.665-.773-.922-.58-.665-1.222 1.051-2.555 1.717-6.417-1.436-7.77-.365-.15-.668-.15-.668-.085 0 .064.346.172.754.45 2.101 1.396 1.457 5.192-.472 7.037-.647.625-.346.775.45 1.14zM25.107 42.028c.172 0 .085-.258.021-.365-.15-.257-.428-.428-.665-.536.064.258.086.9.345.9h.299zM17.791 42.028c.172 0 .043-.258-.021-.365-.15-.257-.45-.407-.687-.515.065.258.108.88.365.88h.343zM26.654 27.503c1.33-.15 1.544-.45 1.78-1.458.107-.472.45-.966.75-1.287.194-.215.387-.386.58-.708.064-.129.107-.236 0-.192-.15.107-.6.407-.795.557-.943.664-2.38.986-2.959.986-1.225 0-2.276-.364-3.39-.364-3.346 0-4.593 2.617-4.422 4.14.021.235.064.257.15.257.237 0 .432-.901 1.269-1.694 1.222-1.16 2.552-1.824 4.44-1.824 1.373 0 1.932.45 1.932.622 0 .342-.582.365-.54.708 0 .107.325.364 1.204.258z" fill="#656263"/></svg>