<!-- by TradingView --><svg width="56" height="56" xmlns="http://www.w3.org/2000/svg"><path fill="#0070AF" d="M0 0h56v56H0z"/><path d="M43.047 17.25c2.997 4.184-1.309 12.387-9.62 18.326-8.31 5.935-17.477 7.356-20.473 3.174-2.998-4.184 1.307-12.388 9.618-18.325 8.31-5.937 17.478-7.357 20.475-3.175z" fill="#fff"/><path d="M33.756 35.46c0-.312-.172-.46-.593-.46h-11.76v-.18L29.58 24h-7.738c-.417 0-.587.16-.587.49h-.244v-2.945h.244c0 .313.17.46.587.46h12.206v.18L25.907 33h7.257c.42 0 .593-.165.593-.492H34v2.951h-.244z" fill="#0070AF"/></svg>