<!-- by TradingView --><svg xmlns="http://www.w3.org/2000/svg" width="56" height="56"><path fill="url(#aylevgpuz)" d="M0 0h56v56H0z"/><path fill-rule="evenodd" d="M37 14H19v28h18V14zm-20-2v32h22V12H17z" fill="url(#bylevgpuz)"/><path d="M17 12l-1-1h24l-1 1H17z" fill="#C7C8CA"/><path d="M39 44l1 1V11l-1 1v32z" fill="#B2B3B6"/><path d="M17 44l-1 1V11l1 1v32z" fill="#939598"/><path d="M17 44l-1 1h24l-1-1H17z" fill="#77787B"/><path d="M25.03 17.2a4.98 4.98 0 00-.35-2.05l-1.14 7.2c-.07.5-.5.64-.7.65h2.19v-.1c-1.03-.08-1.18-.48-1.12-.67l.61-4.17c0-.4.34-.75.5-.87z" fill="#B1B3B5"/><path d="M22.68 22.87c-.01.11.14.12.21.13h2.19c.15-.05.06-.12 0-.15-.75 0-.8-.48-.73-.72l.57-4.22-.35-.29-.97 5.07c-.44.1-.9.04-.92.18zm2.26-7.72c-.16-.27-.25-.11-.27 0 .23.55.31 1.6.35 2.05.18.03.34.28.4.4l2.12 4.11-.03 1.15c.03.17.17.06.2 0l2.49-5.1L31.4 23h1.43c.31 0 .47-.04.47-.11 0-.06-.12-.1-.19-.1-.78.05-1-.53-1.02-.84l-1.02-6.67c-.05-.33-.24-.23-.33-.13l-2.87 5.97c-.91-1.88-2.78-5.7-2.94-5.97z" fill="#E7E7E8"/><path d="M24.59 17.66l.33.27 2.44 4.83c.12.18.21.2.23.18l-.03-1.25c-1.15-2.19-2.16-4.5-2.5-4.5-.15 0-.38.32-.47.47z" fill="#999B9E"/><path d="M28.13 21.35l-.24-.24 2.86-5.97-.11 1.78c-.15.24-.47.7-.54.64-.07-.07-.16.02-.2.07l-1.77 3.72z" fill="#B1B3B5"/><path d="M30.5 17.18c-.22 0-.3.44-.31.58l.68 4.85c-.09.03-.21.16-.16.28.03.06.12.11.7.11h1.33v-.15c-.6-.03-1.09-.43-1.26-.63-.23-1.68-.7-5.04-.98-5.04zm-5.53 14.31c-.37.23-1.04.46-1.36.51h2.5c-.6 0-1.01-.37-1.14-.51z" fill="#999B9E"/><path d="M23.4 31.9c0 .07.17.1.24.1.56-.13 1.1-.31 1.31-.41L26 29.02l.26.3h2.59l-.11-.34h-2.4l-.26-.12 1.26-3.07.22.3.25-.57V24c-.09 0-.17.15-.2.22-.85 2-2.63 6.17-2.9 6.84-.29.67-.85.76-1.1.73-.07 0-.21.02-.21.1z" fill="#B1B3B5"/><path d="M26.24 31.9c0 .1-.14.1-.2.1-.58 0-.96-.27-1.1-.43l2.42-5.83.2.34-1.07 2.69h2.15l.08.22h-2.3l-.86 2.09c-.27.62.25.73.54.7.04.02.14 0 .14.11zm4-.84l-2.44-5.54V24a.3.3 0 01.27.19l2.95 6.8c.31.73.99.92 1.29.89.13 0 .1.12 0 .12-1.34-.02-1.94-.66-2.07-.94z" fill="#E7E7E8"/><path d="M27.56 26.08l.25-.58 2.42 5.52c.18.3.99.96 2.03.98h.07-2.87c-.03-.05-.07-.17.1-.2.1.02.29-.04.12-.33l-2.12-5.4zM24 37.01a4.07 4.07 0 013.96-4c2.45 0 3.04 1.3 3.12 2.06.01.2-.1.21-.15.2-.2-1-1.22-1.64-2.44-1.72-1.23-.08-3.23.58-3.23 3.46 0 2.89 2.48 3.56 3.42 3.56.76 0 1.13-.2 1.23-.31V37.9c0-.61-.6-.73-.9-.71-.17-.04-.1-.2 0-.2.76 0 1.35.49 1.56.73v2.31l.62.35c-.74.48-2 .6-2.5.6-1.64-.03-4.86-.87-4.68-3.98z" fill="#999B9E"/><path d="M31.09 33.37v1.81c-.15-1.06-.69-1.31-.87-1.44a4.5 4.5 0 00-1.86-.45c-.95 0-2.94.47-2.94 3.66 0 3.13 2.94 3.6 3.33 3.6.32 0 .81-.08 1.02-.19l.21.18c-.3.08-.8.2-1.23.2-.43 0-4.04-.4-4.04-3.8 0-3.28 2.35-3.93 3.65-3.94a11.5 11.5 0 012.73.37z" fill="#E7E7E8"/><path d="M31.95 37H29c.54.04 1.27.51 1.5.75l.04 2.28.66.37v-2.65c.04-.41.44-.52.64-.52.05 0 .15-.01.16-.1a.13.13 0 00-.05-.13z" fill="#E7E7E8"/><defs><linearGradient id="aylevgpuz" x1="10.42" y1="9.71" x2="68.15" y2="76.02" gradientUnits="userSpaceOnUse"><stop stop-color="#1A1E21"/><stop offset="1" stop-color="#06060A"/></linearGradient><linearGradient id="bylevgpuz" x1="39" y1="12" x2="18.99" y2="45.2" gradientUnits="userSpaceOnUse"><stop stop-color="#8A8C8F"/><stop offset=".5" stop-color="#F3F3F4"/><stop offset="1" stop-color="#8A8C8F"/></linearGradient></defs></svg>