<!-- by TradingView --><svg width="56" height="56" xmlns="http://www.w3.org/2000/svg"><path fill="#005700" d="M0 0h56v56H0z"/><path d="M52 33H42v1h10v-1zm0-9h-5v1h2v6h1v-6h2v-1zm-7.355 0c1.115.02 1.842.55 2.067.814l-.712.689c-.173-.212-.737-.502-1.355-.502s-1.183.266-1.22.782c-.036.516.3.916 1.22 1.156 1.166.304 2.35.798 2.35 2.146 0 1.39-1.252 1.927-2.645 1.915-1.115-.01-2.031-.762-2.35-1.137l.682-.777c.614.794 1.465.9 1.963.914.499.015 1.346-.137 1.355-.915.009-.777-1.06-1.017-2.075-1.34-1.016-.323-1.535-.993-1.5-1.962.036-.969.827-1.806 2.22-1.783zM31 34V24h2l5 6v-6h2v10h-2l-5-6v6h-2zm-.997-10h-2v10h2V24zM21 24l-4 10h2.397l.744-2h3.652l.711 2H27l-4-10h-2z" fill="#fff"/><path d="M20.74 30l1.27-3 1.24 3h-2.51z" fill="#005700"/><path d="M4 24v10h2v-7l3 7h2l3-7v7h2V24h-3l-3 7-3-7H4z" fill="#fff"/></svg>