<!-- by TradingView --><svg width="56" height="56" xmlns="http://www.w3.org/2000/svg"><path fill="#F0F3FA" d="M0 0h56v56H0z"/><path d="M38.476 40.927c-.4 1.164-1.217 2.112-2.274 2.636a4.16 4.16 0 01-3.363.155c-1.095-.424-1.986-1.293-2.479-2.416a4.943 4.943 0 01-.148-3.57l7.759-22.66c.4-1.163 1.218-2.111 2.275-2.634a4.163 4.163 0 013.362-.157c1.096.424 1.988 1.294 2.48 2.417a4.943 4.943 0 01.146 3.573l-7.758 22.656z" fill="#EF8031"/><path d="M13.239 28.771a1.86 1.86 0 01-2.498.889 1.901 1.901 0 01-.97-1.074 1.904 1.904 0 01.062-1.443l4.688-10.054a1.864 1.864 0 011.06-.967 1.864 1.864 0 011.437.076 1.91 1.91 0 01.908 2.519L13.239 28.77z" fill="#5D9FC0"/><path d="M19.852 32.945a2.757 2.757 0 01-1.505 1.491 2.784 2.784 0 01-3.027-.619 2.79 2.79 0 01-.813-1.965c0-.364.072-.724.212-1.06L21 15.71a2.752 2.752 0 011.505-1.493 2.775 2.775 0 012.127.013 2.796 2.796 0 011.714 2.573c0 .364-.072.724-.213 1.06l-6.28 15.083z" fill="#7CCAEE"/><path d="M27.913 36.887a3.443 3.443 0 01-1.801 1.922c-.827.37-1.763.39-2.605.055a3.4 3.4 0 01-1.12-.73 3.488 3.488 0 01-.764-1.112 3.549 3.549 0 01-.058-2.663l7.264-19.136c.161-.426.404-.816.713-1.147.31-.33.68-.595 1.09-.779a3.337 3.337 0 012.608-.053c.417.166.798.414 1.122.73.323.316.582.695.762 1.113a3.546 3.546 0 01.058 2.664l-7.269 19.136z" fill="#87CE89"/></svg>