<!-- by TradingView --><svg width="56" height="56" xmlns="http://www.w3.org/2000/svg"><path fill="url(#paint0_linear)" d="M0 0h56v56H0z"/><path d="M28 28v16c-8.837 0-16-7.163-16-16s7.163-16 16-16v16z" fill="#F42027"/><path d="M28 28v16c8.837 0 16-7.163 16-16s-7.163-16-16-16v16z" fill="#fff"/><circle cx="28" cy="28" r="14.723" fill="url(#paint1_linear)"/><path d="M27 36l-6-13-.706 10.81c-.078 1.314.591 1.638 1.706 1.703V36h-5v-.487c1.822 0 2.041-.405 2.167-2.758l.597-10.013c.094-1.704-.225-2.158-1.764-2.271V20h4.04L28 33l6.022-13H38v.47c-1.225.098-2.015.13-1.968 1.007l.801 11.667c.141 2.37.345 2.37 2.167 2.37V36h-6v-.487c1.178 0 1.813-.34 1.703-1.704L34 23l-6 13h-1z" fill="#F42027"/><defs><linearGradient id="paint0_linear" x1="10.418" y1="9.712" x2="68.147" y2="76.017" gradientUnits="userSpaceOnUse"><stop stop-color="#1A1E21"/><stop offset="1" stop-color="#06060A"/></linearGradient><linearGradient id="paint1_linear" x1="18.755" y1="18.384" x2="49.111" y2="53.248" gradientUnits="userSpaceOnUse"><stop stop-color="#1A1E21"/><stop offset="1" stop-color="#06060A"/></linearGradient></defs></svg>