<!-- by TradingView --><svg width="56" height="56" xmlns="http://www.w3.org/2000/svg"><path fill="#A32A21" d="M0 0h56v56H0z"/><path d="M29.587 42.704c-.128.376-.541 1.296-1.54 1.296-1.133 0-1.529-1.212-1.548-1.262l-.032-.116s.977.08 1.515.08c.538 0 1.457-.052 1.607-.08l-.002.082z" fill="#000"/><path d="M32.562 42.106l.234.03c-.278.716-.777 1.518-1.757 1.518-.949 0-1.42-.543-1.62-.908l-.164-.1s1.641-.053 3.307-.54zm-8.995 0l-.234.03c.277.716.777 1.518 1.757 1.518.949 0 1.462-.574 1.672-.908l.112-.1s-1.641-.053-3.307-.54z" fill="#000"/><path d="M28.843 42.778c-.154.22-.256.21-.441.21-.093 0-.232.076-.228.213.003.108.092.198.243.198.335 0 .59-.462.662-.657 0 0 .198-.009.256-.014 0 0-.355 1.043-1.275 1.043-.922 0-1.298-1.032-1.298-1.032s.776.047 1.22.047c.445 0 .728-.002.861-.008zm3.597-.459c-.602.16-1.03.29-2.04.411 0 0 .032.103.252.092.084-.005.095-.025.126-.03.063-.012.158.052.147.16-.008.077-.074.172-.298.172-.223 0-.485-.18-.616-.348 0 0-.134.03-.273.038 0 0 .43.594 1.277.594.933 0 1.278-.822 1.425-1.089z" fill="#FFF22D"/><path d="M23.69 42.32c.601.16 1.028.288 2.038.41 0 0-.031.103-.25.091-.085-.004-.096-.024-.128-.03-.062-.011-.158.053-.146.162.008.075.074.171.297.171.224 0 .485-.18.617-.348 0 0 .135.03.274.038 0 0-.43.594-1.278.594-.934 0-1.278-.822-1.424-1.089zm4.28-4.897c3.215 0 6.778-1.948 9.275-4.756.27-.304.729-.88 1.816-.88a2.46 2.46 0 012.362 2.76c-.124 1.298-2.004 4.224-5.218 6.027-3.215 1.804-6.176 2.192-8.234 2.192-2.06 0-5.02-.388-8.235-2.192-3.215-1.803-5.094-4.73-5.219-6.028a2.46 2.46 0 012.363-2.758c1.087 0 1.546.576 1.816.879 2.497 2.808 6.06 4.756 9.274 4.756z" fill="#FFF22D"/><path d="M27.97 37.31c1.558 0 3.2-.465 4.762-1.265a15.445 15.445 0 004.427-3.453c.139-.156.326-.382.625-.573.301-.193.708-.345 1.277-.345.06 0 .122.003.189.01.524.048 1.1.298 1.544.733.445.436.759 1.057.759 1.846 0 .092-.005.19-.015.294-.07.746-.698 2.005-1.807 3.286a13.133 13.133 0 01-3.469 2.83 17.262 17.262 0 01-4.582 1.785c-2.44.563-4.979.563-7.419 0a17.263 17.263 0 01-4.581-1.785 13.14 13.14 0 01-3.47-2.83c-1.108-1.28-1.736-2.54-1.807-3.286a3.09 3.09 0 01-.015-.294c0-.79.315-1.41.76-1.846a2.61 2.61 0 011.544-.734c.066-.006.129-.01.188-.01.57 0 .977.153 1.277.346.3.19.487.417.626.573a15.454 15.454 0 004.427 3.453c1.56.8 3.203 1.264 4.76 1.264zm0 .227c-1.595 0-3.274-.473-4.867-1.29-1.65-.846-3.211-2.063-4.494-3.505-.131-.147-.308-.36-.578-.533-.267-.171-.633-.307-1.151-.307a1.82 1.82 0 00-.167.008 2.373 2.373 0 00-1.403.669c-.405.397-.69.962-.69 1.684 0 .091.004.182.012.273.068.706.676 1.915 1.754 3.16a12.905 12.905 0 003.407 2.78c1.597.895 3.13 1.44 4.52 1.76a16.275 16.275 0 007.315 0c1.39-.32 2.923-.865 4.52-1.76a12.9 12.9 0 003.408-2.78c1.077-1.245 1.686-2.454 1.753-3.16.009-.09.013-.182.013-.273 0-.721-.286-1.287-.69-1.684a2.373 2.373 0 00-1.404-.67 1.818 1.818 0 00-.167-.007c-.517 0-.883.136-1.151.307-.27.173-.447.386-.578.533a15.675 15.675 0 01-4.493 3.505c-1.594.817-3.272 1.29-4.868 1.29z" fill="#000"/><path d="M18.335 32.946l-.038-.042c-.256-.29-.606-.688-1.444-.688-.488 0-1.04.258-1.408.657-.275.297-.587.821-.51 1.621.104 1.094 1.863 3.93 4.995 5.687 2.525 1.416 5.221 2.135 8.014 2.135 2.794 0 5.49-.719 8.014-2.135 3.132-1.758 4.891-4.593 4.996-5.687.076-.8-.235-1.323-.51-1.621-.367-.399-.92-.657-1.409-.657-.837 0-1.188.398-1.444.688l-.037.042c-2.692 3.026-6.374 4.906-9.61 4.906-3.235 0-6.918-1.88-9.61-4.906z" fill="#E03124"/><path d="M38.299 29.376c0-1.522 1.25-2.757 2.792-2.757 1.543 0 2.793 1.235 2.793 2.757 0 1.523-1.25 2.757-2.793 2.757-1.542 0-2.792-1.234-2.792-2.757z" fill="#FFF22D"/><path d="M38.183 29.376c0-.793.325-1.51.852-2.03a2.917 2.917 0 012.056-.841c.803 0 1.53.321 2.057.84a2.844 2.844 0 010 4.061 2.92 2.92 0 01-2.057.841 2.918 2.918 0 01-2.688-1.772 2.83 2.83 0 01-.22-1.099zm.231 0c0 .73.3 1.39.784 1.869a2.686 2.686 0 001.893.774c.74 0 1.409-.296 1.893-.774a2.633 2.633 0 00.785-1.869 2.604 2.604 0 00-.785-1.869 2.688 2.688 0 00-1.893-.774 2.687 2.687 0 00-2.474 1.632 2.6 2.6 0 00-.203 1.011z" fill="#000"/><path d="M12.115 29.38c0-1.521 1.25-2.756 2.793-2.756 1.543 0 2.793 1.235 2.793 2.757 0 1.523-1.25 2.757-2.793 2.757-1.542 0-2.793-1.234-2.793-2.757z" fill="#FFF22D"/><path d="M12 29.38c0-.792.325-1.51.852-2.03a2.902 2.902 0 012.057-.84c.803 0 1.53.321 2.056.84a2.86 2.86 0 01.852 2.03c0 .794-.326 1.511-.852 2.031a2.904 2.904 0 01-2.056.841 2.92 2.92 0 01-2.057-.84A2.844 2.844 0 0112 29.38zm.231 0a2.604 2.604 0 00.784 1.87 2.672 2.672 0 001.893.774c.74 0 1.409-.296 1.893-.774a2.632 2.632 0 00.785-1.87c0-.729-.3-1.39-.785-1.868a2.686 2.686 0 00-1.892-.774 2.698 2.698 0 00-1.894.774 2.633 2.633 0 00-.784 1.869z" fill="#000"/><path d="M41.856 21.96l.015-.737c.229.17.663.176.918-.092a.685.685 0 00.172-.505.933.933 0 00-.278-.607 46.891 46.891 0 01-1.772-1.809.768.768 0 00-.298-.266c-.118-.052-.524-.235-.835.23-.28.423-.24 1.02-.189 1.237l.883 1.184c.3.376 1.15 1.18 1.384 1.366zM23.05 14.284c1.11-.367 2.122-.67 3.486-.79l-3.486.79z" fill="#000"/><path d="M23.05 14.287c1.11-.368 2.121-.67 3.486-.79l.208-.116c-.763-.592-1.52-.995-2.273-.995-.474 0-1.435.317-1.651 1.991l.23-.09zm9.844 0c-1.11-.368-2.121-.67-3.485-.79l-.208-.116c.762-.592 1.519-.995 2.272-.995.474 0 1.436.317 1.652 1.991l-.231-.09zm-5.832-.959c.225-.01.746-.022.954-.022.208 0 .783.027.909.036l-1.863-.014z" fill="#000"/><path d="M26.718 13.44c.558-1.056 1.07-1.44 1.352-1.44.353 0 .767.556 1.092 1.27l.068.161-.282-.023c-.192-.034-.724-.04-.932-.04-.208 0-.659 0-.93.023l-.367.049z" fill="#000"/><path d="M25.627 38.432l-.5 1.838-.93-2.217-.58-.153-.706 2.6.629.167.503-1.854.946 2.237.564.15.706-2.601-.632-.167zm2.17.328l-.716-.037-.142 2.688.715.037.143-2.688zm.643-.023l.05.354.764-.106.33 2.312.71-.099-.33-2.311.752-.105-.05-.353-2.226.308zm7.388-1.096c.347.6.277 1.037-.258 1.342l-.254.144-1.003-1.714.274-.156c.64-.365 1.002-.04 1.24.384zm-1.395-.71l-.924.526 1.368 2.34.917-.523c.955-.545 1.043-1.366.669-2.022-.452-.78-1.194-.798-2.03-.322zm-1.731 3.312l-.272-.827.808-.26-.114-.343-.808.259-.232-.706.83-.266-.112-.34-1.515.486.842 2.56 1.672-.536-.114-.344-.985.317zm-10.376-2.967l-.807 1.439c-.244.433-.495.708-.906.473-.408-.222-.313-.555-.064-1l.81-1.441-.653-.357-.855 1.522c-.471.84.123 1.357.584 1.61.497.271 1.217.473 1.685-.36l.858-1.529-.652-.357zm-.462-15.813V34.07l6.107 3.874 6.106-3.874.007-12.586c-.193-.17-.6-.545-.92-.739H22.749a9.875 9.875 0 00-.885.72z" fill="#FFF22D"/><path d="M21.98 21.463v12.543l5.99 3.802 5.991-3.802.008-12.523h.231l-.008 12.585v.062l-.053.034-6.106 3.875-.063.04-.062-.04-6.106-3.875-.053-.034V21.463h.23z" fill="#000"/><path d="M34.008 21.569l-.072-.065h-.001c-.209-.186-.558-.497-.832-.662l.12-.195c.297.179.654.498.868.688h-.001l.072.063-.154.17z" fill="#000"/><path d="M33.164 20.859H22.749v-.229h10.415v.229z" fill="#000"/><path d="M22.816 20.838a8.572 8.572 0 00-.462.354c-.189.153-.359.3-.405.349l-.17-.155c.051-.055.231-.21.428-.37a8.88 8.88 0 01.476-.365l.133.187z" fill="#000"/><path d="M28.402 26.855c-.043-.018-.195.102-.264.211-.07.108-.09.248.009.3.098.051.222-.016.252-.186.017-.1.05-.305.003-.325zm-1.169.325c.026.171.153.237.252.185.098-.05.078-.19.009-.3-.07-.108-.213-.229-.256-.21-.046.02-.02.228-.005.325zm.613 1.677c.205-.332.29-.678.29-.678h-.586s.094.354.296.678zm.101-2.497l.474-.814.37.814h.613c-.37.343-.52.86-.52 1.203v.376c0 .16-.08.423-.08.423s.53.4.612.468c.035.028.071.045.046.114-.042.118-.4.276-.439.308-.08.069-.103.114-.08.183.024.068.091.08.23.034s.428-.194.671-.297c.243-.102.567-.08.567-.08v-.456h-.914v-1.461l-.162-.256.405-.707.405.712-.162.25v.765h.468v-.765l-.162-.25.405-.709.405.709-.162.25v.765h.468v-.765l-.161-.25.404-.709.405.709-.162.25.005 1.46-.919.001v.671c.209.194.405.631.405.894 0 .262-.173.376-.173.376.057.206.046.291.023.48-.024.192-.266.49-.266.49v3.481c0 .237-.555.215-.555.012v-3.412c-.313-.343-1.168-.605-1.168-.605-.313.308-.51.844-.51.844.14.092.348 0 .429-.091.08-.091.243-.114.335-.057.093.057.116.08.081.217-.034.137-.093.364-.093.524 0 .16.186.125.324.137.278.023.324.33.301.502-.023.171-.104.537-.104.765 0 .228.012.456.035.582.023.125.07.263.057.422-.015.217-.15.252-.289.115-.138-.137-2.07-2.17-2.07-2.17-.127.411.405 1.12.579 1.336.173.217.161.377.011.525-.15.149-.44.228-.497.366-.058.137.139.547.543 1.061.405.514-.462.856-.983.96-.52.102-.52-.252-.485-.446a1.76 1.76 0 00.023-.48c-.012-.17-.174-.41-.393-.696-.22-.285-.22-.548-.128-1.21.093-.662.07-1.085.07-1.085s-.232.012-.567 0c-.335-.01-.613-.204-.636-1.003-.023-.8-.042-2.705-.096-2.903-.054-.198-.27-.236-.363-.259-.092-.023-.099-.16-.006-.206.24-.119.53-.41.423-.593-.108-.183-.532-.145-.817-.008-.286.137-.586.434-.664.518-.077.083-.138.083-.13-.008a4.285 4.285 0 00-.093-.678 2.825 2.825 0 00-.224-.517c-.046-.076 0-.106.078-.076.077.03.246.1.408.145a.331.331 0 00.393-.183c.077-.152.224-.48.3-.624.078-.145.201-.114.302-.091.1.023.193.084.285.122.092.038.17.03.2-.016.031-.045.07-.06.124-.175.054-.114.123-.06.13-.015.277 1.637.995 1.712.995 1.712-.108.274-.362.708-.424.815-.061.106-.084.25-.1.365-.015.114.039 1.194.116 1.59.077.396.324.245.4.123.078-.122.317-.624.317-.624s.062-.137.062-.252c0-.114-.2-.365-.247-.441-.046-.076-.216-.228-.216-.61 0-.38.347-.646.47-.745a.319.319 0 00.108-.32c-.054-.294-.37-.913-.524-1.149-.154-.236-.455-.685-.455-.685h.625l.4-.822.44.826.454.004zm2.464 4.148v-.468s-.128-.194-.44-.194-.497.091-.497.171c0 .126.277.49.937.49zm-8.069-5.9h11.266v.758H22.343v-.758zm0-.39v-3.021h11.266v3.02H22.343z" fill="#E03124"/><path d="M31.39 24.308v-.516h-.818v-.333h.668V22h-.613l-.208-.4-.209.4h-.612v1.46h.667v.333h-1.603v-.333h.668V22h-.613l-.208-.4-.208.4h-.613v1.46h.667v.333h-1.634v-.333h.668V22h-.613l-.208-.4-.208.4h-.613v1.46h.667v.333l-1.292.003-1.287-.297.26.81h7.295z" fill="#FFF22D"/><path d="M24.28 23.433l.863.21.463-1.284v-.323l-1.327 1.397zm2.083-10.02c-1.338.117-2.16.397-3.248.757.081-.462.19-.735.379-1.007-.015.239.182.493.575.493.393 0 .611-.224.611-.358 0-.134-.082-.328-.294-.328-.211 0-.256.149-.241.209.015.06-.03.074-.091.09-.06.014-.227-.076-.166-.284.066-.23.347-.354.68-.354 0 0 .79-.032 1.795.781zm6.476.766c-1.087-.36-1.947-.64-3.285-.758.616-.423 1.19-.783 1.823-.783.332 0 .613.125.68.354.06.21-.106.298-.167.283-.06-.014-.105-.03-.09-.089.015-.06-.03-.209-.242-.209s-.294.194-.294.328c0 .135.218.358.611.358s.59-.254.576-.492c.188.271.307.547.388 1.008zm-5.652-1.012c-.036.057-.068.099-.106.162.311-.013.623-.02.935-.023.204 0 .767.027.89.036-.199-.455-.575-1.084-.837-1.084-.052 0-.167-.027-.383.218 0 0-.033.109.104.088.173-.026.24.15.226.239-.03.204-.272.402-.514.402-.241 0-.315-.038-.315-.038z" fill="#FFF22D"/><path d="M15.54 20.595l.882-1.184c.05-.217.092-.814-.19-1.236-.31-.466-.717-.282-.834-.23a.77.77 0 00-.298.265s-.847.924-1.784 1.833c-.13.126-.277.365-.289.583a.711.711 0 00.184.513c.254.268.7.254.928.084l.016.738c.235-.187 1.083-.99 1.384-1.366z" fill="#000"/><path d="M27.972 18.87c5.026 0 7.889 4.66 8.511 5.478 1.11 1.461 2.467 2.646 4.04 2.253 2.313-.578 2.19-3.961 2.19-3.961-.555-.396-1.507-.895-3.239-3.319-1.696-2.374-5.535-5.897-11.502-5.897-5.968 0-9.808 3.523-11.504 5.897-1.73 2.424-2.683 2.923-3.238 3.319 0 0-.123 3.383 2.19 3.96 1.573.394 2.93-.79 4.04-2.252.622-.818 3.485-5.478 8.512-5.478z" fill="#FFF22D"/><path d="M27.971 18.756c4.675 0 7.491 3.963 8.408 5.252.083.117.15.212.196.272.548.72 1.155 1.373 1.817 1.794.648.414 1.351.604 2.103.416 2.054-.513 2.107-3.357 2.103-3.791l-.144-.099c-.582-.396-1.517-1.033-3.074-3.213-.973-1.363-2.66-3.108-5.055-4.336-1.742-.893-3.86-1.513-6.354-1.513-2.493 0-4.611.62-6.354 1.513a14.401 14.401 0 00-5.054 4.336c-1.558 2.18-2.493 2.817-3.075 3.213l-.143.099c-.004.434.049 3.278 2.103 3.791.752.188 1.454-.003 2.103-.416.662-.422 1.269-1.074 1.817-1.794.045-.06.113-.155.196-.272.916-1.29 3.733-5.252 8.407-5.252zm0 .228c-4.554 0-7.319 3.89-8.218 5.155-.066.094-.133.186-.2.277-.563.74-1.19 1.412-1.877 1.85-.7.446-1.462.651-2.284.446-2.404-.602-2.278-4.065-2.277-4.075l.001-.056.047-.034c.063-.045.126-.088.195-.134.568-.387 1.482-1.01 3.016-3.157a14.627 14.627 0 015.138-4.407c1.772-.909 3.926-1.539 6.46-1.539 2.533 0 4.687.63 6.46 1.539 2.433 1.248 4.148 3.021 5.137 4.407 1.534 2.147 2.448 2.77 3.016 3.157.069.046.132.09.195.134l.047.034.002.056c0 .01.126 3.473-2.278 4.075-.821.205-1.583 0-2.284-.446-.687-.438-1.313-1.11-1.876-1.85-.056-.074-.12-.165-.2-.277-.9-1.265-3.665-5.155-8.22-5.155z" fill="#000"/><path d="M27.97 18.43c4.846 0 7.73 4.058 8.679 5.391.062.089.125.177.189.263 1.282 1.688 2.452 2.372 3.575 2.09 1.623-.405 1.823-2.611 1.846-3.278v-.025l-.02-.014c-.571-.389-1.528-1.04-3.13-3.282-.957-1.34-4.588-5.711-11.139-5.711-6.55 0-10.181 4.37-11.139 5.71-1.59 2.227-2.588 2.907-3.125 3.273l-.02.014v.025c.023.67.225 2.884 1.842 3.289 1.123.28 2.292-.403 3.574-2.09.047-.062.113-.155.19-.263.948-1.334 3.832-5.392 8.678-5.392z" fill="#E03124"/><path d="M17.544 20.3l-.506.595.949 1.935-2.036-.656-.436.512 2.09 1.73.315-.37-1.475-1.227 1.979.634.208-.244-.943-1.866 1.483 1.229.461-.542-2.089-1.73zm2.641-.406l-.473.5-.485-.924.958.424zm-1.102-1.222l-.465.492 1.306 2.565.32-.337-.355-.68.632-.669.713.3.527-.557-2.678-1.114zm3.19-2.437l1.022 1.615-2.277-.84-.51.314 1.446 2.283.552-.34-1.03-1.628 2.302.843.495-.306-1.445-2.283-.555.342zm8.631 1.323l.287-.822.803.273.12-.342-.803-.273.244-.702.825.28.118-.338-1.506-.512-.888 2.546 1.661.564.12-.341-.98-.333zm4.665-.17l-.245.262.573.51-1.582 1.735.532.474 1.583-1.735.565.501.242-.265-1.668-1.483zm.783 4.042l.675-.559.546.643.28-.233-.546-.642.576-.477.561.66.278-.23-1.024-1.205-2.09 1.73 1.13 1.329.28-.232-.666-.784zm3.16.685c.19.209.191.457-.026.65s-.49.151-.7-.077l-.122-.135.69-.612.159.174zm-.363 1.327c.006.006.422.21.883-.2.385-.342.255-.812-.146-1.252l-.743-.814-2.027 1.801.48.526.804-.716.238.26-.513 1.134.61.484.414-1.223zm-10.257-8.545l-.02 1.1-1.07-.019.019-1.1-.717-.012-.048 2.692.717.012.022-1.23 1.07.018-.02 1.23.716.013.048-2.692-.717-.012zm3.882 4c.508.302 1.064.254 1.323-.171.19-.297.192-.543-.035-.982-.06-.127-.135-.216-.187-.33-.099-.185-.191-.336-.104-.48.094-.154.313-.165.513-.046.21.124.297.33.339.474l.33-.141a1.294 1.294 0 00-.59-.705c-.583-.346-1.058-.255-1.256.07-.2.328-.143.598.005.878 0 0 .096.16.151.267.13.218.283.49.177.665-.13.214-.357.261-.576.127-.28-.176-.346-.378-.405-.577l-.362.154c.08.27.267.554.677.798zm-7.434-3.86c-.893.188-1.478.835-1.285 1.712.11.473.54 1.348 1.894 1.064.375-.07.58-.221.778-.406l-.25-.28a.91.91 0 01-.543.316c-.654.137-1.045-.388-1.143-.84-.143-.67.251-1.133.702-1.228.316-.066.51.016.633.066h.004l.083-.344c-.216-.086-.473-.143-.873-.06zm14.457 4.478c-.037-.16-.09-.842.172-1.202.242-.331.463-.219.581-.167a.449.449 0 01.245.327.57.57 0 01-.102.386c-.166.213-.544.354-.544.354s.484.936 1.51 1.865l-.005.631c-1.403-1.336-1.857-2.194-1.857-2.194z" fill="#FFF22D"/><path d="M40.501 19.322c.14.236.492.814 1.374 1.63.146.135.511.248.717.02a.492.492 0 00.122-.36.719.719 0 00-.215-.448c-.176-.149-.934-.905-1.478-1.499-.011.108-.108.29-.108.29-.072.101-.164.247-.412.367zm-26.146 2.35l-.004-.597c1.025-.929 1.51-1.861 1.51-1.861s-.378-.142-.544-.355a.569.569 0 01-.102-.386.45.45 0 01.244-.327c.119-.052.34-.165.581.167.263.36.194 1.037.157 1.197 0 0-.478.822-1.842 2.162z" fill="#FFF22D"/><path d="M15.492 19.322c-.139.236-.492.814-1.374 1.63-.146.135-.51.248-.716.02a.491.491 0 01-.122-.36.718.718 0 01.214-.447c.176-.15.934-.906 1.478-1.5.011.109.107.29.107.29.073.101.165.247.412.367z" fill="#FFF22D"/><path d="M12.64 29.404c0-1.239 1.017-2.243 2.272-2.243s2.272 1.004 2.272 2.243c0 1.239-1.017 2.242-2.272 2.242s-2.272-1.004-2.272-2.242z" fill="#E03124"/><path d="M16.135 27.78c.04.03.138.11.138.11.197.174.374.378.477.621.13.306-.27.766-.388.875-.53.488-.86.48-1.048.506-.19.027-.31-.089-.305-.229.012-.411.308-1.113.391-1.243a.492.492 0 01.149-.139c.195-.054.385-.137.483-.247a.442.442 0 00.103-.254zm-1.9-.296a2.15 2.15 0 01.668-.11c.355 0 .693.066.98.245.073.046.095.103.095.185 0 .264-.421.353-.702.353-.28 0-.624-.11-.868-.185s-.298-.216-.298-.278c0-.061.047-.185.124-.21zm-.9 3.231c-.286-.279-.49-.78-.49-1.31 0-.205.031-.403.088-.59 0 0 .048-.085.095-.012.034.052.079.105.12.175.04.071.263.237.242.369-.078.496-.008 1.158.016 1.266.023.108-.011.16-.07.102zm.055-1.7c-.101-.056-.222-.31-.261-.386a.391.391 0 01.012-.273c.167-.292.405-.558.714-.7.035-.016.09-.017.09.07 0 .047.024.123.025.17.001.046.022.146-.04.223-.063.077-.34.555-.407.826-.015.062-.031.125-.133.07zm1.557 2.42h-.044c-.379 0-.793-.14-1.039-.276-.254-.14-.349-.781-.349-1.11 0-1.057.442-1.693.512-1.817.07-.123.227-.139.345-.108.117.031.162.055.297.095.073.021.219.051.328.075.11.023.227.046.157.247-.07.2-.307.687-.332 1.261-.024.52.046 1.036.166 1.354.077.205.076.283-.041.28zm.54-.082c-.119.038-.173-.045-.228-.107-.21-.238-.265-.879-.265-.964 0-.085.03-.178.091-.179.513-.013.878-.16 1.213-.432.335-.272.48-.579.51-.639.03-.06.097-.05.113.038.013.07.04.198.04.335-.001.921-.63 1.678-1.475 1.948z" fill="#FFF22D"/><path d="M43.389 29.404c0-1.239-1.018-2.243-2.272-2.243-1.255 0-2.272 1.004-2.272 2.243 0 1.239 1.017 2.242 2.272 2.242 1.254 0 2.272-1.004 2.272-2.242z" fill="#E03124"/><path d="M39.998 28.034c.098.11.288.193.483.247 0 0 .094.054.149.14.083.129.378.83.391 1.242.004.14-.115.256-.305.23-.189-.028-.519-.02-1.048-.508-.117-.108-.518-.568-.388-.874.103-.244.28-.447.477-.62l.138-.112s.004.146.103.255zm1.922-.34c0 .063-.054.203-.298.278-.244.075-.587.185-.868.185-.28 0-.702-.09-.702-.353 0-.082.022-.14.095-.185.287-.18.625-.245.98-.245.235 0 .459.04.669.11.077.025.124.149.124.21zm.704 2.919c.023-.109.094-.77.016-1.266-.02-.132.201-.298.242-.369.041-.07.086-.124.12-.175.046-.073.095.012.095.012.058.191.088.39.088.59 0 .53-.205 1.03-.49 1.31-.06.058-.095.006-.07-.102zm-.117-1.668c-.068-.27-.344-.749-.407-.826-.063-.077-.042-.177-.041-.223.001-.047.025-.123.025-.17 0-.087.055-.085.09-.07.31.142.548.408.715.7.038.067.04.218.012.273-.04.076-.16.33-.262.386-.1.055-.117-.008-.132-.07zm-1.465 2.21c.12-.316.19-.834.166-1.353-.026-.574-.261-1.06-.332-1.26-.07-.202.047-.225.157-.248.11-.023.255-.053.329-.075.134-.04.179-.064.297-.095.117-.03.273-.015.344.108.07.124.512.76.512 1.818 0 .328-.095.968-.349 1.109a2.35 2.35 0 01-1.039.277h-.043c-.118.003-.12-.075-.042-.28zm-1.972-1.75c0-.137.027-.265.04-.335.016-.087.081-.098.112-.038.03.06.175.367.51.639.335.271.7.42 1.213.432.06.001.091.094.091.18 0 .084-.054.725-.266.963-.054.062-.108.145-.226.107-.845-.27-1.474-1.027-1.474-1.948z" fill="#FFF22D"/><path d="M38.855 29.392a2.223 2.223 0 01.669-1.594 2.29 2.29 0 011.614-.66c.63 0 1.202.252 1.615.66a2.232 2.232 0 010 3.188c-.413.407-.984.66-1.615.66a2.304 2.304 0 01-1.615-.66 2.247 2.247 0 01-.668-1.594zm.023 0c0 .616.253 1.174.662 1.578a2.27 2.27 0 001.598.653c.625 0 1.19-.25 1.599-.653a2.21 2.21 0 000-3.156 2.253 2.253 0 00-1.599-.654 2.278 2.278 0 00-1.598.654 2.224 2.224 0 00-.662 1.578z" fill="#FDE62F"/></svg>