<!-- by TradingView --><svg width="56" height="56" xmlns="http://www.w3.org/2000/svg"><path fill="#F0F3FA" d="M0 0h56v56H0z"/><path d="M19.524 43.97c-3.604-.354-5.187-3.112-5.52-4.45 1.133 2.358 4.152 2.54 5.52 2.335C30.893 39.52 38.57 25.924 38.786 19.092c.145-4.568-2.956-5.617-4.524-5.57-4.114.121-7.343 2.24-8.416 3.156 1.539-1.594 5.96-4.924 10.739-4.664 4.778.26 5.477 5.44 5.411 7.392-.376 11.258-14.824 25.319-22.472 24.565z" fill="#7886A3"/><path d="M22.04 39.533c-4.163 1.683-6.612.874-7.317.259.499.664 1.875 1.2 3.494 1.2 2.033 0 7.871-1.459 14.502-9.52 5.305-6.45 5.667-12.629 5.185-14.912.1 4.944-1.998 9.179-3.06 10.678C30.984 34.02 24.7 38.26 22.04 39.533z" fill="#032452"/><path d="M17 22.084v18.574c1.596.426 3.998-.419 5-.894v-13.69c0-3.928-3.333-4.297-5-3.99zm7-2.997V39c1.809-.912 3.998-3.308 5-3.803V23.24c0-4.088-3.333-4.472-5-4.153zm7-3.001V33c1.715-1.245 4.095-6.076 5-6.872v-5.934c0-4.043-3.333-4.423-5-4.108z" fill="#032452"/></svg>