<!-- by TradingView --><svg xmlns="http://www.w3.org/2000/svg" width="56" height="56"><path fill="#105469" d="M0 0h56v56H0z"/><path d="M12 23h.36c1 0 1.54-.37 1.54-1 0-.64-.53-1-1.5-1H12v2zm1.33 1l2.15 3H14.2l-2.1-3H12v3h-1v-7h1.21c1.33 0 2.66.53 2.66 2.05 0 .95-.6 1.75-1.53 1.95zm22.69-1h.36c1 0 1.48-.36 1.48-1s-.48-1-1.44-1h-.4v2zm1.33 1l2.15 3h-1.28l-2.1-3h-.1v3H35v-7h1.23c1.33 0 2.66.53 2.66 2.05 0 .95-.6 1.75-1.54 1.95zM20 21h-3v2h3v1h-3v2h3v1h-4v-7h4v1zm1 6l1.34-7 2.16 4.85L26.8 20l1.2 7h-.99l-.67-3.56L24.5 27l-1.82-3.56L22 27h-1zm11.24-3l-.67-1.7-.75 1.7h1.42zm.42 1h-2.25l-1 2h-1.07l3.24-7 3.11 7h-1.11l-.92-2zM41 22.8l2.75-2.8h1.23l-3.03 3.17L45 27h-1.2l-2.58-3.12-.22.22V27h-1v-7h1v2.8zM7 32h3v-3h1v7h-1v-3H7v3H6v-7h1v3zm6 .48a2.5 2.5 0 105 .02 2.48 2.48 0 00-2.5-2.5 2.48 2.48 0 00-2.5 2.48zm-1 0c0-.96.35-1.77 1.04-2.46A3.4 3.4 0 0115.52 29c.95 0 1.77.34 2.45 1.03A3.39 3.39 0 0119 32.51c0 .97-.34 1.8-1.03 2.47a3.44 3.44 0 01-2.5 1.02c-.87 0-1.65-.3-2.33-.9A3.33 3.33 0 0112 32.46zM21 29v6h2v1h-3v-7h1zm4 6c.51 0 1.02.03 1.5-.14.98-.36 1.5-1.35 1.5-2.36 0-1.55-1.07-2.5-2.58-2.5H25v5zm-1 1v-7h1.36c.98 0 1.92.19 2.64.9.67.66 1 1.53 1 2.6 0 1.08-.35 1.95-1.04 2.61-.74.7-1.62.89-2.62.89H24zm6 0h1v-7h-1v7zm2 0v-7l4 4.34V29h1v7l-4-4.34V36h-1zm10-4h2.35c0 .53 0 1.42-.16 1.93A3.02 3.02 0 0141.33 36C39.44 36 38 34.35 38 32.52c0-1.89 1.41-3.52 3.33-3.52 1.1 0 2.05.55 2.75 1.37l-.7.7A2.44 2.44 0 0041.35 30c-1.4 0-2.35 1.15-2.35 2.52C39 33.8 40 35 41.35 35c1.34 0 1.93-1.07 1.93-2H42v-1zm7.81-1.86l-.87.49c-.25-.42-.55-.63-1.05-.63-.49 0-1.13.24-1.13.79 0 .67 1.07.88 1.57 1.08.58.22 1 .49 1.27.8.26.33.4.72.4 1.18 0 .62-.22 1.13-.66 1.54-.43.4-.98.61-1.63.61-.61 0-1.12-.17-1.52-.52-.4-.35-.65-.83-.74-1.46l1.08-.23c.09.7.43 1.21 1.22 1.21.64 0 1.25-.43 1.25-1.08 0-.4-.25-.68-.64-.92-.35-.22-.76-.35-1.14-.5-.97-.39-1.46-.96-1.46-1.71 0-.51.2-.93.61-1.27.41-.35.92-.52 1.53-.52.81 0 1.45.38 1.91 1.14z" fill="#fff"/></svg>