<!-- by TradingView --><svg width="56" height="56" xmlns="http://www.w3.org/2000/svg"><path fill="#215EA1" d="M0 0h56v56H0z"/><path d="M6 26v6.753c0 .146-.105.243-.251.243H4V22.097c.049-.049.194-.049.292-.097H7l2.5 8 2.5-8h2.811c.097 0 .14.094.189.19v10.705l-.189.105h-1.7L13 32.895v-6.899h-.132L11 33l-3-.004C7.466 31.293 6.734 27.655 6.15 26H6zm26.664 1.792c1.231.322 3.119.348 3.546 1.85.243.973-.097 1.849-.874 2.53-.68.585-1.458.828-2.478.828-1.02 0-1.797-.34-2.574-.876-.292.048-.487.292-.778.438-.874.535-2.061.663-2.936.128-.291-.098-.534-.585-.874-.487-.826.73-2.012 1-3.11.633-.534-.195-1.02-.585-1.457-1.022-.437.146-.729.535-1.117.73-1.118.633-2.818.633-3.887-.195-.632-.535-1.02-1.266-.826-2.142.535-1.8 2.611-1.769 4.263-1.866.768-.11 1.003-.938.653-1.522-.392-.654-2.166-.97-2.624.181h-1.7s-.071-.002 0-.23c.408-1.31 1.823-1.77 3.06-1.77 1.264 0 2.77.261 3.256 1.624.388 1.266.088 2.513.234 3.876.097.486.535.876 1.07.973a1.29 1.29 0 001.352-.677 4.15 4.15 0 00.137-1.12v-3.052l-.262-.188h-1.672L23 26.291v-1.169l.163-.122h1.623l.214-.218V22.05l.097-.049 1.757.003.146.195v2.583c.05.097.098.17.195.218h1.698l.107.171v1.266h-1.93l-.07.146v4.31c0 .293.3.483.494.629.291.097.68.243 1.068.097.486-.195.849-.68.849-1.619h1.748c0 .22.097.713.388 1.054.32.32.924.438 1.409.438.485-.049 1.02-.146 1.263-.633.173-.522.083-.908-.438-1.07-1.554-.488-3.934-.196-4.274-2.337-.097-.876.388-1.655 1.02-2.142 1.166-.681 2.477-.73 3.789-.292.826.292 1.651.97 1.651 1.895l-.096.087h-1.555c-.049-.34-.345-.51-.684-.705-.596-.272-2.054-.376-2.28.524-.192.778.801.865 1.312.973zm-12.422 1.54c-1.02.389-2.417-.147-2.951 1.021-.168 1.344 1.573 1.46 2.514.963.798-.524.68-1.011.68-1.839a.272.272 0 00-.243-.146zm31.403-2.921c.242.487.355 1.07.355 1.655v4.782l-.16.152H50v-5.08c0-.417-.275-.81-.632-1.048-.401-.268-1.092-.255-1.578-.06-.486.292-.79.808-.79 1.4v4.636l-.214.152h-1.749L45 32.897v-7.751c0-.056 0-.146.086-.146H47c0 .146-.02.778.223.827.778-.73 1.944-1.022 2.964-.681.632.194 1.118.681 1.458 1.265zm-7.493.7c.583 1.167.535 2.92-.243 3.99-.874 1.46-2.429 1.996-4.032 1.899-1.566-.167-2.818-1.314-3.207-2.775-.437-1.411-.097-3.017.826-4.137 1.264-1.363 3.401-1.412 4.762-.876.825.34 1.505 1.071 1.894 1.898zm-3.79-.78c-.582.098-1.165.439-1.457.974-.486 1.07-.583 2.58.195 3.553.437.487 1.02.78 1.652.682.68-.098 1.263-.633 1.506-1.314.34-.877.388-2.142-.146-2.97-.389-.632-1.02-.973-1.75-.924z" fill="#fff"/></svg>