<!-- by TradingView --><svg width="56" height="56" xmlns="http://www.w3.org/2000/svg"><path fill="#FDB913" d="M0 0h56v56H0z"/><path d="M31.024 33H33v-1.976L25.976 24H24v1.976l2.415 2.634L24 31.024V33h1.976l2.414-2.415L31.024 33zM31 24h2v2h-2v-2zm9.366 7l.878 2H43v-1.976l-3.073-6.804V24h-2.634v.22L34 31.025V33h1.976l.878-2h3.512zm-1.756-4.585L39.707 29h-2.195l1.098-2.585zM20.146 31l.878 2H23v-1.976l-3.293-6.804V24h-2.634v.22L14 31.025V33h1.756l.878-2h3.512zm-1.756-4.585L19.488 29h-2.195l1.097-2.585zM47.55 30l2.621 3H52v-1.577l-1.829-1.935c.355-.148.896-.593 1.143-.878A2.68 2.68 0 0052 26.854a2.85 2.85 0 00-.322-1.218 2.968 2.968 0 00-.82-.977c-.6-.474-1.31-.659-2.287-.659H44v9h2v-3h1.55zM46 28v-2h3.108c.465 0 .892.448.892 1s-.427 1-.892 1H46zm-35 5h2v-9h-2.25l-.204.22L8.5 27.95l-2.045-3.73L6.25 24H4v9h2v-4.61L7.682 31h1.636L11 28.39V33z" fill="#fff"/></svg>