<!-- by TradingView --><svg width="56" height="56" viewBox="0 0 56 56" xmlns="http://www.w3.org/2000/svg"><path fill="#121425" d="M0 0h56v56H0z"/><path d="M3.54 34.64c.6-.08 1.02-.2 1.2-.36.2-.16.26-.6.26-1.23V24.9c0-.64-.07-1.04-.25-1.23-.16-.16-.57-.28-1.21-.36V23h5.05v.32c-.6.04-1.06.16-1.25.32-.22.2-.34.6-.34 1.19v8.73c0 .2.04.36.12.48.07.12.19.2.41.2.11 0 .27.04.42.04h.79c1.5 0 2.26-.12 2.79-.4.52-.28 1.05-.91 1.54-1.99h.42L12.66 35H3.54v-.36zM16.58 23v.32c-.41 0-.71.04-.86.08a.55.55 0 0 0-.42.55c0 .16.04.36.15.64.12.28.27.71.53 1.31l2.64 6.2 2.41-6.72c.11-.27.19-.55.23-.75.03-.2.07-.36.07-.52 0-.36-.15-.6-.41-.71a2.05 2.05 0 0 0-.83-.12V23h3.46v.32c-.33.04-.6.16-.79.32a3.2 3.2 0 0 0-.75 1.35l-3.73 10.39h-.26l-4.15-10.2a5.75 5.75 0 0 0-.83-1.54 1.6 1.6 0 0 0-.94-.36V23h4.48zM24.35 34.68c.68-.08 1.13-.24 1.35-.51.2-.24.3-.88.3-1.8v-7.42c0-.64-.1-1.08-.3-1.27-.18-.2-.64-.32-1.31-.36V23h3.31l3.88 8.86 3.5-8.86h3.35v.32c-.6.08-1.01.2-1.2.4-.19.2-.23.6-.23 1.23V33c0 .64.04 1.17.23 1.32.19.2.6.32 1.2.36V35h-4.97v-.32c.68-.04 1.09-.2 1.28-.4.15-.2.26-.67.26-1.43v-7.12L31.2 35h-.22L27 25.73v6.65c0 .95.15 1.59.42 1.9.19.2.56.32 1.17.4V35h-4.24v-.32zM40.49 34.72c.68-.08 1.05-.2 1.24-.4.15-.2.27-.64.27-1.43V24.9c0-.64-.08-1.04-.27-1.23-.19-.2-.6-.32-1.2-.36V23h4.94v.32c-.6.04-1.02.16-1.2.36-.2.2-.27.6-.27 1.23V28h5v-3.1c0-.63-.07-1.03-.26-1.22-.18-.2-.6-.32-1.2-.36V23h4.93v.32c-.6.04-1.02.16-1.2.36-.2.2-.27.6-.27 1.23v8.22c0 .63.07 1.03.26 1.23.2.2.6.32 1.2.36V35h-4.92v-.28c.68-.08 1.1-.2 1.24-.4.15-.2.22-.68.22-1.43v-3.9h-5v4.1c0 .63.07 1.07.26 1.23.19.2.6.32 1.2.36V35H40.5v-.28z" fill="#fff"/></svg>