<!-- by TradingView --><svg width="56" height="56" fill="none" xmlns="http://www.w3.org/2000/svg"><path fill="#295B7A" d="M0 0h56v56H0z"/><path fill-rule="evenodd" clip-rule="evenodd" d="M14.798 36.926C7.227 29.627 11.361 15 24.431 15h16.466l-3.536 7h5.722l-3.13 7h5.175l-5.425 12H23.5c-3.037.01-6.368-1.825-8.702-4.074zm3.992-.587s-.173-1.046 0-2.224C19.199 31.319 21.6 29 25.414 29h12.385l2.211-5H24.883c-4.192 0-6.526 2.29-7.398 4.824-.888 2.578-.288 5.66 1.305 7.515zm-2.7-.716c-.965-2.48-1.1-5.124-.31-7.416C16.942 24.83 20.032 22 24.883 22H35.22l2.64-5H24.43c-11.41 0-14.818 12.441-8.34 18.623zM24.228 39H38.41l3.769-8H25.414c-2.967 0-4.567 1.55-4.836 3.39-.269 1.838 1.25 4.61 3.651 4.61z" fill="#fff"/></svg>