<!-- by TradingView --><svg width="56" height="56" fill="none" xmlns="http://www.w3.org/2000/svg"><path fill="#F0F3FA" d="M0 0h56v56H0z"/><path fill-rule="evenodd" clip-rule="evenodd" d="M18.961 21L13.5 31.833 8.002 21H6v13h1.5V23.167l5.32 10.782.025.051H14.1L19.5 23.167V34H21V21h-2.039zm15.618 8.47c-.797 1.813-2.661 3.086-4.834 3.086-2.897 0-5.246-2.264-5.246-5.056 0-2.792 2.349-5.056 5.246-5.056 2.22 0 4.117 1.329 4.884 3.205L36 25.062C35 22.68 32.576 21 29.745 21 26.02 21 23 23.91 23 27.5s3.02 6.5 6.745 6.5c2.811 0 5.22-1.657 6.234-4.012l-1.4-.519zM43.003 27h6.957l.018.15c.015.113.022.17.022.35a6.5 6.5 0 11-.562-2.648l-1.328.57a5.057 5.057 0 10.358 3.022h-5.465V27z" fill="#000"/></svg>