<!-- by TradingView --><svg width="56" height="56" xmlns="http://www.w3.org/2000/svg"><path fill="#0C4578" d="M0 0h56v56H0z"/><path d="M29 25h-2v1c.229.33.984 1.301 1 3.185.016 1.884-.755 2.6-1 2.815v1h2v-4l2.998 4H34l.5-1h5l.5 1h2l2-3 2 3h2l-2.4-4 2.4-4h-2l-2 3-2-3h-2l2.6 4-1.623 2.633L38.002 25H36l-2 5v-5h-2.002v4L29 25z" fill="#fff"/><path d="M8 32.99V25h2l2 3 2-3h10.085c1.138.17 3.422 1.286 3.46 4.233.037 2.947-2.51 3.732-3.788 3.756H14v-4.46l-2 3.041-2-3.04v4.46H8z" fill="#fff"/><path d="M20 27h-4v1h3v2h-3v1h4v-4zM36 30l1-3 1 3h-2zM25.5 29c0-2-1.543-2-3.5-2v4c2.056 0 3.5 0 3.5-2z" fill="#0C4578"/></svg>