<!-- by TradingView --><svg width="56" height="56" xmlns="http://www.w3.org/2000/svg"><path fill="#5D524A" d="M0 0h56v56H0z"/><path d="M25.232 12L12 25.232v-1.676L23.556 12h1.676zm-7.111 0L12 18.12v-1.676L16.445 12h1.676zm3.407 0L12 21.528v-1.676L19.852 12h1.676zM30.768 44L44 30.768v1.676L32.444 44h-1.676zm7.111 0L44 37.88v1.676L39.556 44h-1.677zm-3.407 0L44 34.472v1.676L36.148 44h-1.676zM30.768 12L44 25.232v-1.676L32.444 12h-1.676zm7.111 0L44 18.12v-1.676L39.556 12h-1.677zm-3.407 0L44 21.528v-1.676L36.148 12h-1.676zM25.232 44L12 30.768v1.676L23.556 44h1.676zm-7.111 0L12 37.88v1.676L16.445 44h1.676zm3.407 0L12 34.472v1.676L19.852 44h1.676z" fill="#fff"/><path d="M26 20.25L21.866 19s-2.5 2-1.875 2h2.5c0 .625.009 2 1.509 2v6l2.241 1.25-1.875 2.5L22 31.5v-5l-3.884-3.75-1.25 1.25L19 26.5v6.875l4 1.875V39h10v-3.75l4-1.875V26.5l2.367-2.5-1.25-1.25L34 26.5v5l-2.134 1.25-1.875-2.5L32 29v-6c1.5 0 1.742-1.375 1.742-2h2.5c.625 0-1.875-2-1.875-2L30 20.25 29.991 27H26v-6.75zM13.742 27.125c0-.625 1.874-1.875 1.874-1.875s0 4.375.625 5.625c.179.357-2.5-1.875-2.5-2.5v-1.25zM42.5 27.125c0-.625-1.875-1.875-1.875-1.875s0 4.375-.625 5.625c-.179.357 2.5-1.875 2.5-2.5v-1.25z" fill="#fff"/></svg>