<!-- by TradingView --><svg width="56" height="56" xmlns="http://www.w3.org/2000/svg"><path fill="#F0F3FA" d="M0 0h56v56H0z"/><path d="M38.822 20.282a2.397 2.397 0 011.545.688c.48.48.71 1.044.689 1.711-.042.605-.25 1.127-.69 1.564l-1.69 1.67L40.763 28l1.691-1.669c1.044-1.043 1.566-2.294 1.545-3.775 0-1.419-.522-2.65-1.545-3.672-1.064-1.043-2.317-1.543-3.82-1.543.063-1.44-.438-2.712-1.523-3.797-1.023-1.001-2.234-1.523-3.674-1.543-1.482-.021-2.734.5-3.778 1.543l-1.67 1.669 2.087 2.086 1.67-1.669a2.24 2.24 0 011.65-.688c.626 0 1.168.23 1.627.688.46.46.69 1.022.668 1.67 0 .604-.23 1.146-.668 1.584l-1.67 1.67 2.088 2.085 1.67-1.669a2.25 2.25 0 011.711-.688z" fill="#2982BE"/><path d="M33.353 20.553L30.076 17.3l-2.087 2.086 3.277 3.254 2.087-2.086z" fill="#E13348"/><path d="M33.353 31.255L30.076 28l-2.087 2.086 3.277 3.254 2.087-2.087z" fill="#88AD6E"/><path d="M36.61 28l-3.256 3.255 2.087 2.086 3.236-3.254L36.61 28z" fill="#2982BE"/><path d="M33.354 24.725L36.61 28l2.067-2.086-3.236-3.275-2.087 2.086z" fill="#88AD6E"/><path d="M30.076 28l3.277-3.275-2.087-2.086-3.277 3.275L30.076 28z" fill="#2982BE"/><path d="M33.355 24.725l2.087-2.086-2.087-2.086-2.087 2.086 2.087 2.086z" fill="#4F4146"/><path d="M38.676 30.087l1.69 1.668c.44.417.648.939.69 1.565.02.646-.209 1.21-.69 1.69a2.393 2.393 0 01-1.544.688c-.647.02-1.231-.188-1.711-.688l-1.67-1.67-2.088 2.087 1.67 1.668c.439.438.668.98.668 1.607.021.625-.208 1.189-.668 1.668-.459.439-1.002.668-1.628.668a2.3 2.3 0 01-1.649-.668l-1.67-1.69-2.087 2.108 1.67 1.648c1.044 1.063 2.296 1.564 3.778 1.543 1.44-.02 2.65-.521 3.674-1.543 1.085-1.064 1.586-2.337 1.523-3.797 1.503.02 2.756-.5 3.82-1.544C43.477 36.073 44 34.842 44 33.425c.02-1.461-.501-2.713-1.545-3.756L40.764 28l-2.088 2.087z" fill="#88AD6E"/><path d="M38.677 30.086L40.764 28l-2.087-2.086L36.61 28l2.067 2.086z" fill="#4F4146"/><path d="M25.923 17.3l-3.277 3.253 2.087 2.086 3.257-3.254-2.067-2.086z" fill="#2982BE"/><path d="M24.253 15.63l1.67 1.67 2.067-2.087-1.65-1.669c-1.064-1.043-2.316-1.564-3.777-1.543-1.42 0-2.651.542-3.674 1.543-1.044 1.043-1.566 2.316-1.545 3.797-1.46-.042-2.734.459-3.82 1.543-.98 1.002-1.502 2.232-1.523 3.672-.021 1.46.5 2.732 1.523 3.775l1.691 1.67 2.087-2.087-1.67-1.669a2.27 2.27 0 01-.688-1.647c0-.647.23-1.169.689-1.628a2.189 2.189 0 011.67-.667 2.2 2.2 0 011.586.667l1.67 1.67 2.087-2.087-1.67-1.669a2.248 2.248 0 01-.689-1.71c.042-.626.272-1.127.69-1.544.48-.48 1.043-.688 1.71-.688a2.25 2.25 0 011.566.688z" fill="#E13348"/><path d="M25.923 17.3l2.067 2.085 2.087-2.086-2.088-2.086-2.066 2.086z" fill="#4F4146"/><path d="M15.215 28l-1.69 1.67c-1.023 1.042-1.545 2.294-1.524 3.754.02 1.44.542 2.67 1.523 3.671 1.086 1.085 2.36 1.607 3.82 1.544-.02 1.481.501 2.754 1.545 3.797 1.023 1.022 2.254 1.543 3.674 1.564 1.46 0 2.713-.5 3.777-1.564l1.65-1.649-2.067-2.106-1.67 1.689c-.438.417-.96.647-1.565.668-.668.02-1.232-.209-1.712-.668a2.391 2.391 0 01-.689-1.543c-.02-.668.209-1.23.69-1.732l1.669-1.668-2.087-2.087-1.67 1.67a2.308 2.308 0 01-1.587.688c-.647 0-1.21-.209-1.67-.689a2.158 2.158 0 01-.688-1.627c0-.626.23-1.168.689-1.627l1.67-1.668L15.214 28z" fill="#F2962A"/><path d="M17.302 30.086L19.39 28l-2.088-2.086L15.215 28l2.087 2.086z" fill="#4F4146"/><path d="M19.39 28l-2.087 2.087 3.256 3.254 1.837-1.815.25-.271L19.39 28z" fill="#E13348"/><path d="M17.303 25.914L19.39 28l3.256-3.275-2.087-2.086-3.256 3.275z" fill="#F2962A"/><path d="M27.99 25.914l-3.257-3.275-2.087 2.086L25.923 28l2.067-2.086z" fill="#E13348"/><path d="M20.56 22.64l2.086 2.085 2.088-2.086-2.088-2.086-2.087 2.086zm2.086 8.614l-.25.272-1.837 1.814 2.087 2.086 2.088-2.086-2.088-2.086zM25.923 28l2.067 2.086L30.076 28l-2.088-2.086L25.924 28z" fill="#4F4146"/><path d="M27.99 30.087L25.923 28l-3.277 3.253 2.087 2.087 3.257-3.254z" fill="#F2962A"/><path d="M27.99 36.594l-3.257-3.254-2.087 2.086 3.277 3.254 2.067-2.086z" fill="#88AD6E"/><path d="M25.923 38.68l2.067 2.107 2.087-2.107-2.088-2.086-2.066 2.086zm7.432-3.254l2.087-2.086-2.087-2.086-2.087 2.086 2.087 2.086z" fill="#4F4146"/><path d="M30.076 38.68l3.277-3.254-2.087-2.086-3.277 3.254 2.087 2.086z" fill="#F2962A"/></svg>