<!-- by TradingView --><svg width="56" height="56" xmlns="http://www.w3.org/2000/svg"><path fill="#0C203D" d="M0 0h56v56H0z"/><path d="M27.898 20.826a2.651 2.651 0 00-2.717 2.578 2.718 2.718 0 005.43 0 2.649 2.649 0 00-2.713-2.578zM19.953 35.09c.887-.431 1.124-1.762.538-2.974-.586-1.211-1.784-1.84-2.662-1.413-.878.427-1.127 1.761-.518 2.974.61 1.211 1.78 1.845 2.662 1.413M22.915 31.182a2.667 2.667 0 002.57-2.752 2.667 2.667 0 00-2.558-2.772h-.012a2.668 2.668 0 00-2.575 2.757v.015a2.666 2.666 0 002.575 2.752zM15.52 34.2c-.451.303-.304 1.302.316 2.232.62.931 1.498 1.438 1.95 1.137.451-.302.304-1.304-.32-2.233-.625-.931-1.5-1.438-1.946-1.137zM35.792 35.09c.898.432 2.085-.206 2.661-1.413.579-1.209.348-2.543-.533-2.974-.882-.432-2.076.206-2.665 1.413-.591 1.208-.348 2.543.537 2.974zM32.835 31.182a2.668 2.668 0 002.57-2.752 2.578 2.578 0 10-5.14 0 2.667 2.667 0 002.574 2.752M39.908 36.432c.622-.93.768-1.928.317-2.229-.451-.3-1.32.202-1.946 1.133-.625.931-.767 1.929-.316 2.233.451.305 1.318-.206 1.945-1.137z" fill="#fff"/><path d="M41.732 35.707c-.174-.11-.091-.791.22-1.583.314-.792.74-1.443.911-1.326.502.336-.843 3.1-1.131 2.922M13.91 20.213a10.631 10.631 0 00-.974 2.083 4.36 4.36 0 00.55-.979c.19-.348.333-.721.423-1.108M41.832 20.213c.397.656.722 1.355.969 2.083a4.768 4.768 0 01-.546-.983 4.461 4.461 0 01-.423-1.1zM23.536 12.768a3.16 3.16 0 01-1.159.202c0-.087 2.1-.745 2.263-.625a3.403 3.403 0 01-1.104.423zM16.175 17.24c.092.055-.22.597-.684 1.187-.463.59-.949 1.058-.984.966-.135-.23 1.415-2.309 1.668-2.154zM17.33 23.19c-.588 1.189-.352 2.539.534 2.97.886.432 2.076-.206 2.662-1.413.585-1.208.352-2.543-.535-2.97-.886-.428-2.076.202-2.66 1.413zM13.578 26.865c.396.09.91-.661 1.139-1.683.23-1.022.095-1.916-.301-2.007-.395-.092-.905.66-1.138 1.682-.234 1.023-.096 1.92.3 2.008zM27.898 35.901a2.576 2.576 0 002.428-2.716 2.574 2.574 0 00-5.145.142 2.648 2.648 0 002.717 2.574zM14.737 31.798c-.25-1.014-.792-1.757-1.187-1.658-.395.099-.514 1.002-.26 2.015.252 1.014.79 1.759 1.186 1.66.395-.098.51-.998.26-2.017zM14.408 28.457c0 1.228.577 2.221 1.296 2.221.72 0 1.294-.993 1.294-2.221 0-1.228-.58-2.202-1.294-2.202-.712 0-1.296.994-1.296 2.218M12.617 26.9c-.246 0-.448.738-.448 1.652 0 .915.202 1.663.448 1.663.245 0 .447-.752.447-1.663 0-.91-.198-1.652-.447-1.652zM21.313 20.608c.462.883 1.807 1.093 2.998.464 1.19-.63 1.783-1.854 1.324-2.737-.458-.883-1.81-1.09-3.001-.463-1.19.625-1.764 1.854-1.322 2.736zM19.898 16.447c-.926.63-1.432 1.5-1.132 1.944.301.444 1.298.285 2.224-.348.924-.634 1.427-1.501 1.126-1.945-.3-.443-1.292-.284-2.218.349zM15.867 20.427c-.617.934-.751 1.936-.3 2.233.45.297 1.316-.213 1.938-1.153.62-.938.75-1.936.3-2.229-.45-.292-1.32.214-1.938 1.149zM12.827 24.185c.19.09.597-.52.925-1.327.329-.808.395-1.52.222-1.584-.174-.063-.617.511-.926 1.315-.309.803-.415 1.524-.221 1.584M25.493 38.436c.462-.883-.126-2.107-1.317-2.736-1.19-.628-2.539-.419-3.002.456-.462.876.126 2.107 1.317 2.736 1.19.63 2.54.42 3.002-.463M14.013 35.703c.175-.106.092-.79-.22-1.584-.314-.791-.741-1.449-.911-1.334-.502.334.841 3.1 1.13 2.918zM16.065 19.524c.55-.733.826-1.45.625-1.585-.203-.134-.791.322-1.357 1.054-.565.733-.826 1.45-.625 1.584.202.134.811-.316 1.357-1.053zM25.685 16.23c0 .712.988 1.286 2.213 1.286 1.227 0 2.216-.574 2.216-1.287s-.992-1.29-2.216-1.29c-1.222 0-2.213.577-2.213 1.29zM20.87 38.761c-.922-.633-1.918-.791-2.218-.349-.301.444.206 1.311 1.13 1.945.926.632 1.919.79 2.22.344.3-.449-.201-1.306-1.132-1.94zM14.66 36.207c-.201.15.08.867.625 1.584.547.717 1.155 1.188 1.357 1.057.202-.131-.075-.871-.625-1.603-.55-.734-1.155-1.19-1.356-1.055M30.113 40.511c0-.712-.992-1.29-2.215-1.29-1.222 0-2.214.577-2.214 1.29 0 .714.988 1.287 2.214 1.287s2.215-.574 2.215-1.287zM24.288 13.825c-1.009.242-1.752.757-1.661 1.152.09.397.992.515 2 .274 1.01-.242 1.753-.757 1.658-1.149-.095-.392-.989-.519-1.977-.277M18.45 15.833c-.729.55-1.187 1.16-1.041 1.358.146.2.859-.086 1.581-.64.725-.555 1.188-1.16 1.045-1.359-.142-.198-.862.091-1.582.64M24.43 41.449c-1.01-.241-1.903-.118-1.977.278-.076.395.647.907 1.66 1.147 1.013.243 1.903.116 1.997-.276.095-.392-.68-.899-1.68-1.15zM19.992 41.564c.151-.197-.316-.79-1.04-1.358-.724-.566-1.436-.84-1.582-.642-.145.198.139.555.594.979.367.292.747.57 1.142.827.396.258.791.324.89.194M26.252 13.156c0 .246.74.444 1.646.444.905 0 1.644-.198 1.644-.444 0-.245-.739-.44-1.644-.44-.906 0-1.646.2-1.646.44zM20.7 14.523c.071.19.791.087 1.603-.226.81-.312 1.407-.713 1.335-.915-.07-.202-.79-.087-1.58.225-.792.314-1.41.725-1.334.916M17.991 15.96c.585-.468 1.005-.919.938-1.003-.068-.083-.598.228-1.187.693-.589.468-1.004.915-.941 1.002.063.087.6-.225 1.186-.692M29.54 43.56c0-.245-.736-.439-1.642-.439-.905 0-1.644.194-1.644.439 0 .246.73.44 1.633.44h.344c.747-.043 1.309-.222 1.309-.432M43.255 32.294c.02.183.633-2.681.49-2.55a3.422 3.422 0 00-.395 1.335c-.075.401-.104.809-.083 1.215M25.34 12.907c.791-.111 1.387-.305 1.368-.432-.02-.126-.665-.139-1.435-.028-.772.111-1.388.309-1.37.436.02.126.661.139 1.437.024zM20.751 14.055c.654-.325 1.148-.653 1.104-.736-.044-.084-.601.115-1.248.435-.65.321-1.145.654-1.106.737.04.083.601-.115 1.25-.436zM26.648 12.139c0 .079.562.142 1.25.142s1.245-.063 1.245-.143c0-.079-.287-.102-.707-.138h-1.044c-.436.024-.744.072-.744.127M35.753 21.777c-.883.427-1.124 1.758-.535 2.97.59 1.211 1.78 1.84 2.666 1.413.886-.427 1.12-1.762.53-2.97-.59-1.208-1.776-1.845-2.661-1.413zM41.33 23.175c-.395.09-.53.99-.3 2.007.228 1.018.739 1.775 1.138 1.683.4-.09.53-.99.296-2.008-.234-1.017-.738-1.77-1.134-1.682zM42.18 30.12c-.396-.1-.918.65-1.187 1.66-.269 1.01-.135 1.92.26 2.015.396.095.922-.646 1.187-1.66.266-1.013.135-1.915-.26-2.015zM40.044 30.678c.715 0 1.296-.992 1.296-2.22 0-1.227-.58-2.202-1.296-2.202-.716 0-1.3.994-1.3 2.218s.58 2.221 1.3 2.221M43.128 26.9c-.25 0-.45.737-.45 1.652 0 .915.2 1.663.45 1.663s.447-.74.447-1.651c0-.91-.201-1.651-.447-1.651M30.113 18.336c-.463.883.126 2.107 1.32 2.737 1.194.63 2.535.419 2.998-.464.463-.883-.115-2.107-1.301-2.736-1.187-.63-2.556-.42-3.018.463zM33.628 16.098c-.3.444.207 1.311 1.128 1.945.922.633 1.921.792 2.222.348.301-.444-.205-1.31-1.13-1.944-.926-.633-1.919-.792-2.22-.349zM40.177 22.66c.451-.297.316-1.299-.3-2.233-.617-.935-1.483-1.45-1.934-1.153-.452.297-.317 1.299.301 2.233.617.935 1.482 1.454 1.933 1.153zM42.919 24.185c.19-.072.09-.793-.222-1.585-.313-.79-.72-1.398-.906-1.326-.186.07-.09.792.218 1.584s.719 1.398.91 1.327zM34.57 36.155c-.463-.883-1.808-1.089-2.998-.462-1.19.625-1.784 1.852-1.321 2.735.463.883 1.807 1.094 2.998.463 1.19-.629 1.788-1.853 1.32-2.736zM41.04 20.58c.202-.15-.075-.866-.62-1.584-.547-.716-1.16-1.223-1.357-1.056-.198.166.08.867.625 1.584.545.716 1.154 1.187 1.357 1.053M34.862 38.761c-.925.633-1.436 1.501-1.13 1.94.304.44 1.293.29 2.218-.343.925-.634 1.432-1.505 1.131-1.946-.3-.44-1.297-.285-2.219.349zM39.727 37.26c-.55.734-.826 1.453-.624 1.603.202.151.81-.319 1.356-1.053s.826-1.453.625-1.604c-.202-.151-.791.322-1.357 1.054zM39.565 17.235c-.09.056.222.602.685 1.188.463.586.933 1.05.988.958.135-.229-1.415-2.308-1.673-2.153M31.459 13.825c-1.01-.242-1.907-.12-1.998.277-.092.397.647.908 1.657 1.15 1.008.241 1.907.118 1.996-.274.092-.392-.646-.91-1.655-1.153zM37.294 15.832c-.723-.55-1.435-.838-1.581-.64-.147.197.316.791 1.044 1.357.727.567 1.435.84 1.582.641.146-.198-.317-.79-1.04-1.358M31.327 41.449c-1.013.242-1.756.752-1.66 1.15.093.395.987.514 1.976.275.99-.237 1.757-.755 1.661-1.147-.095-.392-.989-.519-1.997-.278M38.379 39.565c-.15-.198-.858.086-1.582.64-.724.556-1.186 1.162-1.04 1.36.102.13.454.043.893-.195.439-.237.764-.53 1.128-.819.462-.428.723-.83.605-.986M33.447 14.296c.79.313 1.527.397 1.582.226.055-.17-.523-.599-1.332-.915-.811-.317-1.527-.396-1.583-.226-.056.172.521.599 1.333.915zM37.753 15.96c.585.467 1.115.792 1.187.692.07-.098-.353-.534-.937-1.002-.586-.465-1.114-.791-1.186-.693-.073.1.352.535.936 1.003zM33.648 42.4c-.79.33-1.4.745-1.32.934 0 0 2.922-1.187 2.918-1.187-.074-.19-.791-.08-1.581.25" fill="#73C92D"/><path d="M33.648 42.396c-.79.33-1.455.792-1.321.934.135.144 2.884-1.054 2.919-1.188.048-.197-.791-.078-1.582.25M30.405 12.907c.792.114 1.417.102 1.437-.024.019-.127-.594-.32-1.37-.436-.774-.114-1.415-.098-1.43.028-.016.127.589.32 1.363.432zM34.994 14.055c.649.321 1.21.515 1.25.436.04-.08-.451-.396-1.104-.737-.653-.34-1.218-.519-1.25-.435-.031.083.45.396 1.104.736zM32.206 12.764c.37.142.762.212 1.159.206 0-.087-2.1-.745-2.258-.625.34.201.71.343 1.099.42zM43.35 25.895c-.127-.792-.114-1.39 0-1.442.26-.107.566 2.772.458 2.808-.106.036-.344-.59-.47-1.366M22.096 42.404c.791.329 1.455.791 1.325.935-.13.142-2.887-1.054-2.923-1.189-.047-.198.791-.078 1.583.25M30.868 43.603c.385-.11.786-.151 1.187-.118 0 .088-2.152.582-2.302.452.354-.177.737-.29 1.131-.334M25.023 43.603a3.3 3.3 0 00-1.186-.118c0 .088 2.148.582 2.301.452a3.443 3.443 0 00-1.13-.334" fill="#73C92D"/></svg>