<!-- by TradingView --><svg width="56" height="56" xmlns="http://www.w3.org/2000/svg"><path fill="#005A97" d="M0 0h56v56H0z"/><path d="M27.127 27.014c-.084 1.02-1.204 1.027-1.754.902-.419.39-.568 1.209-.59 1.57-.116 1.886 1.969 2.54 3.025 2.631v1.553c-2.365 1.529-.933 3.09.078 3.68v1.345c-2.089 1.31-.792 2.64.117 3.142v1.1c-1.518 1.018-.632 1.981 0 2.335V46c-2.601-.976-1.689-2.694-.908-3.43-2.579-1.805-1.304-3.707-.345-4.432-2.545-1.605-1.551-3.87-.736-4.802-1.076-.334-3.183-1.57-3-3.85.183-2.281 1.702-3.252 2.438-3.452.593-.098 1.758-.04 1.675.98z" fill="#fff"/><path d="M28.877 27.014c.083 1.02 1.204 1.027 1.754.902.418.39.567 1.209.589 1.57.116 1.886-1.968 2.54-3.025 2.631v1.553c2.365 1.529.933 3.09-.078 3.68v1.345c2.089 1.31.792 2.64-.117 3.142v1.1c1.518 1.018.632 1.981 0 2.335V46c2.601-.976 1.689-2.694.908-3.43 2.579-1.805 1.304-3.707.345-4.432 2.545-1.605 1.551-3.87.736-4.802 1.076-.334 3.183-1.57 3-3.85-.183-2.281-1.702-3.252-2.438-3.452-.593-.098-1.758-.04-1.674.98z" fill="#fff"/><path d="M22.897 17c1.183 0 3.19 1.66 3.997 2.572l-.162-2.072 1.38-.375 1.108.375-.206 2.072c.906-.861 2.83-2.572 3.96-2.572s1.842.5 3.303.5H48l-1.247 1.033-10.95-.16c-.538 0-1.411-.181-2.829-.327-1.417-.146-3.281 1.662-4.083 2.655v.954c1.73-1.993 3.385-2.343 4.274-2.343.712 0 1.756.312 2.83.312l8.908.116-1.81 1.26c-2.172.074-6.819.222-8.03.222-1.21 0-1.77-.57-1.898-.855l-.191.203c.425 1.24 1.313 1.43 1.935 1.43h6.543l-2.027 1.304h-4.702c-.58.004-.886 0-1.152-.294l-.129.165c.338.973.93 1.395 1.621 1.395h2.796l-3.335 2.269c-1.72-3.231-4.587-3.002-5.853-2.412l-.418 23.091c.01.15-.026.463-.248.482-.224.02-.287-.316-.291-.482l-.435-23.09c-3.596-1.143-5.58 1.178-6.075 2.41l-3.157-2.193c.627.033 2.044 0 2.721 0 .683 0 1.53-.654 1.53-1.553L22.161 23c-.48.304-.927.308-1.179.308h-4.628L14.339 22h6.644c.894 0 1.639-.909 1.914-1.424l-.292-.155c-.434.564-1.262.736-1.622.751l-8.31-.179-1.8-1.278 8.817-.09c.543 0 1.543-.188 2.986-.313 1.444-.125 3.539 1.462 4.358 2.343V20.7c-2.333-2.532-3.409-2.655-4.137-2.655-.79 0-2.202.328-3.109.328l-10.808.143L8 17.43h11.788c.743 0 1.8-.43 3.109-.43z" fill="#fff"/><path d="M30 16.002a2 2 0 11-4 0 2 2 0 014 0z" fill="#fff"/></svg>