<!-- by TradingView --><svg width="56" height="56" fill="none" xmlns="http://www.w3.org/2000/svg"><path fill="#F0F3FA" d="M0 0h56v56H0z"/><path fill-rule="evenodd" clip-rule="evenodd" d="M19.683 14.329C15.076 17.137 12 22.209 12 28c0 7.663 5.388 14.069 12.582 15.634 5.63.726 8.867-7.366 9.057-10.228l-3.635-.487c.99-1.98 3.458-6.5 5.409-8.735 1.42 1.346 5.37 7.076 5.942 9.093H38.96c-.089 1.774-.922 6.062-3.547 8.51 0 .009-.245.31-.685.734C40.203 39.98 44 34.433 44 28c0-7.896-5.72-14.457-13.243-15.763-6.468.045-8.33 6.761-8.522 9.634l3.636.488c-.99 1.98-3.459 6.5-5.41 8.734-1.42-1.346-5.37-7.076-5.941-9.093h2.394c.08-1.585.753-5.178 2.77-7.671z" fill="#F47621"/><path d="M27.565 26.172c-2.51 4.87-4.817 13.18-4.817 13.18l11.328-23.08s-4.39 5.787-6.51 9.9z" fill="#1C83CE"/><path d="M29.622 29.453c2.51-4.871 4.817-13.18 4.817-13.18l-11.328 23.08s4.391-5.787 6.511-9.9z" fill="#F0F3FA"/></svg>