<!-- by TradingView --><svg width="56" height="56" xmlns="http://www.w3.org/2000/svg"><path fill="#17217E" d="M0 0h56v56H0z"/><path d="M35.71 16.445l-.077.076c3.146 2.429 4.834 6.3 4.834 10.551 0 7.515-5.831 13.588-13.35 13.588-7.98 0-14.195-5.845-13.197-13.664.076-.759.46-2.277.997-3.34l-.767.456c-.614 1.594-1.074 3.264-1.074 5.085C13.076 37.32 19.904 44 28.114 44S43 37.32 43 29.197c0-5.465-2.916-10.17-7.29-12.752z" fill="#fff"/><path d="M13.384 32.082c-.23-.987-.384-2.05-.384-3.112 0-7.439 5.601-13.588 12.813-14.575 0 0-3.145 1.746-4.45 4.858 2.532-3.491 11.432-8.046 20.793-7.135-11.816 2.96-19.028 14.878-21.1 26.189h-.153c-.154-10.476 3.76-17.839 6.752-21.103-2.993 1.29-7.596 4.175-9.745 8.426-.076-2.353.921-5.693 1.842-7.06-3.76 1.67-7.059 7.44-6.368 13.512z" fill="#FF170F"/></svg>