<!-- by TradingView --><svg xmlns="http://www.w3.org/2000/svg" width="56" height="56"><path fill="#FD1C0A" d="M0 0h56v56H0z"/><path d="M44 28a16 16 0 11-30.49-6.8 13.09 13.09 0 00-.95 4.78c0 7.25 5.86 8.3 8.34 8.27 4.17 0 8.54-2.28 12.27-5.7 0 0-.59 2.84-.73 3.67-.11.64.16 1.75.97 1.75h.32c.83 0 1.55-.68 1.7-1.51l1.36-7.77c.16-.85-.52-1.69-1.37-1.69h-7.54c-.85 0-1.62.5-1.77 1.35 0 .04-.06.28-.06.34-.12.8.46 1.31 1.26 1.31h4.16c-2.72 2.56-6.5 4.6-9.28 4.6-2.77 0-5.87-1.75-5.87-5.69C16.32 16.74 23.98 12 28 12c8.82 0 16 7.16 16 16z" fill="#fff"/></svg>