<!-- by TradingView --><svg width="56" height="56" xmlns="http://www.w3.org/2000/svg"><path fill="#F0F3FA" d="M0 0h56v56H0z"/><path d="M29.063 23.002l5.497-12.726a.458.458 0 01.79-.089l7.024 9.57a.458.458 0 01-.257.715l-12.522 3.155a.458.458 0 01-.532-.625z" fill="#BB0E82"/><path d="M23.07 13.05l-6.97-.368a.458.458 0 00-.404.713l3.577 5.32c.18.268.575.27.758.003l3.393-4.953a.458.458 0 00-.354-.716z" fill="#F99D2A"/><path d="M22.388 46.706l-8.357-21.749a.458.458 0 01.56-.602l24.428 7.392c.342.104.439.542.172.78l-16.07 14.356a.458.458 0 01-.733-.177z" fill="#0077C8"/></svg>