<!-- by TradingView --><svg width="56" height="56" xmlns="http://www.w3.org/2000/svg"><path fill="url(#paint0_linear)" d="M0 0h56v56H0z"/><path d="M39.51 16.163c-1.14-.98-2.44-1.837-3.824-2.449-.854-.408-1.748-.776-2.684-1.02A18.295 18.295 0 0028 12c-1.749 0-3.416.245-5.003.694-.935.244-1.83.612-2.684.98a16.503 16.503 0 00-3.863 2.49C13.074 19.06 11 23.264 11 27.876c0 4.776 1.993 9.103 5.45 12.041 1.139.98 2.44 1.796 3.863 2.49a18.95 18.95 0 002.684.94C24.63 43.78 26.311 44 28 44a20 20 0 005.002-.653c.936-.245 1.83-.572 2.684-.939 1.424-.653 2.725-1.469 3.823-2.449C42.966 36.98 45 32.653 45 27.877c0-4.612-2.075-8.775-5.49-11.714zM20.313 41.551a13.456 13.456 0 01-3.864-2.613c-2.806-2.653-4.718-6.694-4.636-11.02.08-4.367 1.87-8.04 4.636-10.694 1.139-1.102 2.44-2 3.864-2.694.244-.163.528-.245.772-.367-.244.163-.528.326-.772.49-1.424.98-2.766 2.122-3.864 3.47-2.155 2.53-3.579 5.754-3.62 9.795-.08 4.041 1.383 7.388 3.62 10v-.04a18.088 18.088 0 003.864 3.428c.244.204.528.367.772.53-.244-.08-.528-.163-.772-.285zm2.684-7.51a7.01 7.01 0 01-2.684-2.858c-.488-.979-.814-2.081-.814-3.224a7.344 7.344 0 01.814-3.143c.61-1.224 1.586-2.204 2.684-2.898.447-.285.894-.49 1.383-.653-.488.327-.977.694-1.383 1.102-1.383 1.306-2.196 3.02-2.237 5.592-.04 2.53.854 4.245 2.237 5.551.406.408.894.776 1.383 1.102a6.625 6.625 0 01-1.383-.571zm0-1.715c-.854-1.184-1.383-2.653-1.383-4.367 0-1.715.529-3.184 1.383-4.367 1.22-1.633 3.05-2.349 5.002-2.594 1.952.245 3.783.96 5.003 2.593.854 1.143 1.382 2.653 1.382 4.368 0 1.714-.528 3.183-1.382 4.367C31.783 33.96 29.952 34.796 28 35c-1.952-.204-3.782-1.04-5.002-2.674zm10.005 1.715a6.625 6.625 0 01-1.383.571 11.71 11.71 0 001.383-1.102c1.382-1.306 2.277-3.02 2.236-5.551-.04-2.572-.854-4.286-2.236-5.592a11.74 11.74 0 00-1.383-1.102c.447.163.935.367 1.383.653a7.679 7.679 0 012.683 2.898c.489.898.773 2 .773 3.143.04 1.183-.285 2.286-.773 3.224-.65 1.225-1.626 2.246-2.683 2.858zm6.506 4.898c-1.138 1.102-2.44 2-3.823 2.612-.244.122-.529.204-.813.285.285-.163.57-.326.813-.53 1.383-.939 2.725-2.082 3.823-3.388 2.237-2.612 3.701-5.96 3.66-10-.08-4.04-1.504-7.265-3.66-9.796a16.95 16.95 0 00-3.823-3.428c-.244-.205-.529-.368-.813-.53.285.121.57.244.813.366a15.79 15.79 0 013.823 2.694c2.766 2.654 4.596 6.327 4.677 10.694.081 4.327-1.83 8.367-4.677 11.02z" fill="#fff"/><defs><linearGradient id="paint0_linear" x1="10.418" y1="9.712" x2="68.147" y2="76.017" gradientUnits="userSpaceOnUse"><stop stop-color="#1A1E21"/><stop offset="1" stop-color="#06060A"/></linearGradient></defs></svg>