<!-- by TradingView --><svg width="56" height="56" xmlns="http://www.w3.org/2000/svg"><path fill="#0B3A5B" d="M0 0h56v56H0z"/><path d="M41.992 24.66c.335.081.688.055 1.008-.074-.319-.451-1.025-.572-1.477-.252a2.034 2.034 0 00-.078-1.091.783.783 0 00-.558.74c.004.257-.047.442-.333.486a.512.512 0 01-.185-.03.913.913 0 01-.014-.064l-.042.05c-.088-.02-.17-.031-.213.024-.043.054-.022.127.02.21-1.01 1.213-2.11 2.424-3.592 2.952-.307.11-.626.187-.943.273.395-1.65 1.509-3.057 2.789-4.188.337-.3.76-.683 1.214-.79.182-.043.288.047.453.034.153-.01.415-.23.145-.293a1.435 1.435 0 00-.45-.031l.038-1.074a.217.217 0 01.032-.127.212.212 0 01.15-.059 3.52 3.52 0 011.135.071.819.819 0 00-.926-.477c.207-.218.329-.502.344-.802-.158-.033-.314.071-.424.191-.11.12-.198.263-.338.345a.875.875 0 00-.246-.543.952.952 0 00-.261.655.866.866 0 00-.615-.192c.084.4.514.694.92.63v1.068c0 .21.027.259-.116.367-.112.085-.33.113-.461.184-.372.2-.688.486-.995.774-.913.854-1.805 1.771-2.338 2.898-.273.576-.472 1.229-.936 1.655-.075.033-.149.07-.22.11-.383.21-.73.514-1.16.585a.433.433 0 01.008-.135l.297-1.778c.055-.327.111-.66.226-.975.42.29.886.511 1.378.653-.1-.333-.318-.62-.613-.807.322.07.652.095.981.074a.935.935 0 00-.923-.462c.3-.167.58-.367.835-.597a1.335 1.335 0 00-1.336.325 1.016 1.016 0 01.363-1.116c.302-.218.694-.252 1.059-.328.365-.076.758-.238.901-.58a1.228 1.228 0 00-1.32.026c.113-.452.127-.923.043-1.381a1.51 1.51 0 00-.588.733 1.876 1.876 0 00-.354-.82 1.065 1.065 0 00.067.904.848.848 0 00-.63-.37 1.252 1.252 0 00.695 1.242c.047.023.105.05.116.103.01.052-.025.094-.056.13-.712.867-.89 2.036-1.063 3.141-.114.732-.252 1.492-.556 2.159a1.206 1.206 0 00-.188.242 3.21 3.21 0 01-1.55 1.22c.099-.164.16-.35.23-.53.106-.276.235-.543.351-.813.299-.689.525-1.405.676-2.14.103-.503.17-1.024.12-1.533.087-.455-.03-1.238-.065-1.437.472.025.9-.46.811-.922l-.678.429c.09-.29.059-.602-.085-.869a1.33 1.33 0 00-.28.728 2.184 2.184 0 00-.438-.825c-.076.324-.054.663.061.975a.904.904 0 00-.819-.34c.09.484.558.87 1.055.87a.246.246 0 01.148.027c.05.036.061.105.067.165.013.153.018.306.013.46a.321.321 0 00-.018-.024l-.037.673c-.005.094-.018.206-.1.258a.212.212 0 01-.23-.02.613.613 0 01-.155-.186l-.269-.421c-.079.325-.04.667.108.967a.787.787 0 01-.54.12 2.372 2.372 0 01-.543-.144c.08.285.4.43.692.486.177.034.357.05.537.047a.227.227 0 01.139.027.203.203 0 01.062.131c.077.409.015.834-.117 1.229-.133.394-.333.762-.542 1.123a13.998 13.998 0 01-1.072 1.624c-.655.584-1.182 1.397-2.009 1.528-.033-.3-.086-.6-.05-.898.04-.332.189-.64.32-.947.578-1.352.88-2.805 1.138-4.252.073-.411.145-.825.286-1.216.164-.451.418-.865.703-1.252.125-.17.259-.34.322-.54 0-.004.003-.01.004-.014.221-.202.4-.482.641-.669.404-.314.953-.343 1.457-.438.47-.09.925-.246 1.35-.464.292-.148.579-.327.903-.372.18-.017.363-.012.542.015l.48.053a.863.863 0 01.21.04c.099.037.18.11.265.17a1.527 1.527 0 001.241.241 2.022 2.022 0 00-.479-.505 1.113 1.113 0 00.886-.103 1.382 1.382 0 00-1.018-.228 1.46 1.46 0 00.472-.507 2.363 2.363 0 00-1.273.393c-.142.093-.283.209-.448.253-.228.061-.467-.017-.702-.026a11.387 11.387 0 001.517-1.436c.372.51 1.192.617 1.684.22a1.53 1.53 0 00-.842-.572 1.138 1.138 0 001-.24 1.856 1.856 0 00-.884-.093c.28-.226.485-.53.586-.875-.5.08-.96.32-1.31.684a.975.975 0 00-.192-.964 1.543 1.543 0 00-.18.855 1.13 1.13 0 00-.483-.611c-.086.49.019.994.294 1.41.032.04.055.086.067.136.014.103-.07.19-.148.26a13.75 13.75 0 01-1.632 1.227c-.593.38-1.226.719-1.919.858-.527.108-1.095.087-1.592-.107.094-.098.192-.187.292-.28l.83-.756c.189-.172.407-.442.663-.518.139-.04 1.591.425 1.588.359-.024-.43-.442-.796-.874-.768a2.498 2.498 0 001.226-.39c-.09-.232-.36-.357-.609-.351-.25.006-.485.116-.704.234.26-.595.568-1.168.92-1.715a2.43 2.43 0 001.606-.45c-.155-.28-.56-.273-.88-.226a3.85 3.85 0 00.797-.595 1.16 1.16 0 00-1.04.155.806.806 0 00.03-.63c-.54.465-.764 1.182-1.03 1.84a9.465 9.465 0 01-.537 1.114c0 .006 0 .012-.003.017-.043.196-.16.295-.278.448-.324.424-.619.849-1.006 1.221-.09.087-1.176.953-1.206.894-.239-.47-.151-1.044.047-1.533.199-.489.5-.932.695-1.422.537.166 1.18-.159 1.356-.687a.253.253 0 00.017-.13c-.027-.134-.209-.159-.344-.135a1.56 1.56 0 00-.802.403c-.06-.36-.2-.703-.41-1.002a1.525 1.525 0 00-.317.634l-.373-.437a.522.522 0 00-.04.584 1.238 1.238 0 00-.424-.268.758.758 0 00.02.184c-.11-.134-.12-.334-.07-.503.056-.187.17-.348.263-.519.214-.398.309-.849.272-1.298.252.127.55-.051.74-.255.188-.204.354-.457.62-.54a1.376 1.376 0 00-1.009.18c.106-.296.095-.62-.03-.908a1.696 1.696 0 00-.305.722 1.018 1.018 0 00-.701-.348 1.004 1.004 0 00.18.847c.067.087.149.163.199.26.084.164.064.361.02.541a2.485 2.485 0 01-.591 1.108c-.296-.217-.286-.646-.35-1.005-.05-.28-.162-.546-.195-.828a1.532 1.532 0 01.362-1.173 1.631 1.631 0 001.581-.641 1.801 1.801 0 00-1.561.079c.088-.386.034-.79-.154-1.14a1.803 1.803 0 00-.27 1.041 1.077 1.077 0 00-1.12-.321 1.4 1.4 0 00.393.705c.198.192.448.322.719.375a2.126 2.126 0 00-.167.487 1.238 1.238 0 00-1.073.897c0-.243-.01-.491-.103-.716-.094-.225-.283-.421-.524-.468-.052.252-.069.515.002.762.072.248.242.474.482.569-.255.24-.754.916-.785.222-.024-.519.051-1.06.083-1.579a2.38 2.38 0 001.075-.243.624.624 0 00-.645-.384 2.59 2.59 0 00-.119-.66 1.264 1.264 0 00-.298.643 1.058 1.058 0 00-.252-.608c-.13.216-.204.46-.218.712a1.002 1.002 0 00-.75-.323c.04.386.514.584.662.948.059.143.062.302.063.457a40.873 40.873 0 01-.115 3.431 12.137 12.137 0 00-1.245-2.967 1.216 1.216 0 001.187-.459 1.457 1.457 0 00-1.273.072c.162-.393.166-.833.01-1.23a1.108 1.108 0 00-.56.843 1.366 1.366 0 00-.784-.578 1.077 1.077 0 00.489.923 1.018 1.018 0 00-.99.11c.087.262.408.363.686.375.277.011.576-.017.813.127.228.14.339.404.436.65.67 1.721 1.323 3.449 1.975 5.176l.504 1.331c.164.436.33.872.471 1.316.131.412.238.83.32 1.254a3.98 3.98 0 01-.036.48 7.85 7.85 0 01-.25 1.08 142.38 142.38 0 01-1.046 3.517c-.593-1.196-1.21-2.38-1.85-3.551a65.96 65.96 0 01-.557-1.357l.666-2.175a1.484 1.484 0 001.371-.162.978.978 0 00-1.15-.18c.305-.242.524-.574.626-.947-.3.03-.584.138-.827.314a1.347 1.347 0 000-.335c.405-.079.783-.27 1.037-.566-.367-.21-.738-.08-1.099.055a.635.635 0 00.401-.526.748.748 0 00-.575.249c.116-.144.068-.368-.056-.504-.125-.136-.304-.207-.477-.273-.015.37-.015.78.236 1.055-.323-.285-.873-.264-1.172.046.327.352.827.515 1.33.504.014.114.04.219.046.244.015.101.03.214.042.333a.433.433 0 00-.043.09c-.036.112-.021.232-.017.349.013.34-.066.678-.15 1.01-.094.374-.197.748-.307 1.123a67.137 67.137 0 01-1.05-2.867c-.131-.385-.26-.783-.223-1.188.04-.437.269-.831.472-1.223.495-.967.848-2.105.48-3.127.245-.304.402-.668.455-1.054a1.119 1.119 0 00-.892.716 1.541 1.541 0 00-.849-.313c.082.19.197.366.339.518a2.467 2.467 0 00-.77-.11c.304.412.91.571 1.38.365a4.513 4.513 0 01-1.218 3.67 18.747 18.747 0 01-.97-1.646 2 2 0 001.405.026 1.188 1.188 0 00-1.148-.345 1.75 1.75 0 00.543-1.084 1.303 1.303 0 00-1.01.2.713.713 0 00-.601-.558.657.657 0 00.316.4 1.306 1.306 0 00-.915-.066l.31.28a.743.743 0 00-.844-.079c.162.32.367.674.718.753.132.03.273.016.402.058.169.056.289.198.391.347a6.666 6.666 0 00-.512 1.079c-.364-.44-1.196-.305-1.47-.805-.235-.429.148-.967.024-1.44-.18.192-.336.406-.463.637a3.33 3.33 0 00-.313-.705 1.01 1.01 0 00-.098.908.747.747 0 00-.972-.102c.356.161.64.445.802.798a1.576 1.576 0 00-.106-.009c.02.046.025.097.012.146-.027.098-.128.155-.2.228a.452.452 0 00-.073.099.479.479 0 00-.042-.26.343.343 0 00-.204-.156.63.63 0 000 .078c0 .103.03.203.088.289a.326.326 0 01.063.1.915.915 0 00-.3-.263.647.647 0 00-.1-.042c.072.197.125.4.16.608h-.32a.821.821 0 00-.29-.534l-.03.5a2.005 2.005 0 00-1.055-.006.92.92 0 00.802.413 1.86 1.86 0 00-.178.994c.174-.05.335-.137.472-.256.185-.166.308-.409.294-.654.248-.058.481-.167.684-.32a5.02 5.02 0 00.553-.477c.139-.175.29-.34.45-.494a.578.578 0 00.348.335c.097.034.203.042.3.074.117.045.226.109.323.187.418.302.84.608 1.178.997.506.582.8 1.322.948 2.076.148.753.16 1.527.16 2.292 0 .281-.07.687-.056 1.024-.377-.35-.751-.702-1.122-1.058-.453-.435-.905-.88-1.234-1.414-.329-.534-.527-1.17-.424-1.788.151.23.449.333.724.311.274-.021.53-.15.76-.301a1.143 1.143 0 00-1.226-.31 1.21 1.21 0 00.315-.95.977.977 0 00-.706.812c.026-.39-.06-.78-.249-1.123a1.293 1.293 0 00-.067.995 1.737 1.737 0 00-1-.636 1.536 1.536 0 00.981 1.192c.02.315.077.627.168.929a.696.696 0 00-.174-.094c-.499-.195-1.104-.26-1.626-.389-.936-.23-1.886-.46-2.85-.448a1.581 1.581 0 00-.46-1.491 1.543 1.543 0 00.103 1.306 1.372 1.372 0 00-1.332-.28 1.388 1.388 0 001.287.63 1.04 1.04 0 01-1.109.204c0 .375.352.71.728.695.375-.015.7-.379.669-.749.396-.01.792.01 1.184.064-.43-.002-.855.382-.837.82a1.448 1.448 0 011.294-.468c-.033.454-.234.88-.566 1.196.53-.05.715-.749 1.168-1.026.371-.227.849-.133 1.273-.031.53.127 1.102.28 1.476.658.07.148.149.292.236.43.232.372.521.703.809 1.033l.4.46a.365.365 0 00-.046.032c-.206.14-.484.104-.72.025-.235-.079-.464-.197-.712-.207-.22-.008-.435.07-.655.082-.22.012-.477-.074-.545-.28.393.124.864-.148.949-.548a.79.79 0 00-.39.14l.293-.405a1.498 1.498 0 00-1.338.468c.024-.348-.31-.676-.66-.649a.891.891 0 00.002.546.873.873 0 01-.869.147c.043.165.208.276.378.299.17.022.339-.03.494-.1.113.181.026.434-.142.566-.168.133-.392.17-.606.182.115.155.257.324.45.328a.58.58 0 00.258-.071c.243-.117.468-.27.665-.453.103-.094.209-.206.349-.226.156-.022.302.074.424.174.166.135.33.301.358.514-.294-.198-.686-.14-1.037-.07a.826.826 0 001.028.287.764.764 0 00-.224.546.714.714 0 00-.132.02c.016.352.441.504.76.662a1.96 1.96 0 011.056 1.888c-.014.15-.094.336-.243.325-.148-.011-.246-.18-.384-.228l-.009-.002-.047-.066-.933-.714a5.021 5.021 0 00-.31-.225 3.456 3.456 0 01-.378-.499 1.477 1.477 0 01-.218-.511c-.022-.17-.02-.343.005-.512l.079-.782a.523.523 0 00-.334.39.943.943 0 00.056.527 1.105 1.105 0 00-1.04-.327 1.351 1.351 0 001.048.546c.064.278.128.561.26.813.023.047.047.089.075.13a72.29 72.29 0 00-2.682-2.265.851.851 0 00.392-.655.842.842 0 00-.295-.702.915.915 0 01-.21.59c-.072-.17-.27-.26-.457-.262-.187-.001-.366.069-.54.14a2.037 2.037 0 00-.355-1.242 1.296 1.296 0 00-.036 1.17A2.204 2.204 0 0013 24.117a.93.93 0 00.874.676c.145 0 .288-.036.432-.029.29.015.542.197.77.374a25.82 25.82 0 011.781 1.59 1.855 1.855 0 00-.336.04 3.8 3.8 0 01-.217.03c-.432-.065-1.048-.004-1.291-.392.242-.256.142-.74-.185-.879.006.266.026.532.06.796-.11-.225-.3-.4-.533-.493.058.23.162.447.307.636a1.09 1.09 0 00-1.13-.314c.16.402.68.612 1.08.448-.335.152-.69.356-.768.709a.093.093 0 00.004.067c.008.01.018.017.03.023a.887.887 0 00.759-.182.874.874 0 00.302-.678c.006.204.417.315.566.359.15.045.305.075.461.088.039.003.078.004.117.003l.004.003a.966.966 0 00.157-.012 2.67 2.67 0 01.293-.018c.091.004.182.015.272.033l.157.027h-.004a.627.627 0 00-.164.058c-.127.073-.173.187-.188.314a.852.852 0 00-.106.4c-.06.14-.14.273-.236.392-.026.028-.23.165-.23.175a1.738 1.738 0 00-.15-.882.765.765 0 00-.077.807c-.214-.29-.53-.49-.884-.561.054.182.11.369.224.522.114.153.283.26.468.251a.818.818 0 00-.678.56c.598.125 1.26-.215 1.501-.767.095-.21.176-.394.167-.62v-.017c.02-.055.036-.114.05-.16a.735.735 0 01.29-.293.733.733 0 01.33-.06c.318.308.647.608 1.024.83.421.301.837.61 1.242.933a5.585 5.585 0 00-1.146.034c-.102.015-.21.033-.307-.003a.815.815 0 01-.204-.14 1.12 1.12 0 00-1.389.041l.781.088c-.273.04-.524.175-.707.38.387.01.772-.043 1.142-.155a1.308 1.308 0 00-.33 1.282.974.974 0 01.367-.535c.088-.064.189-.118.242-.213.053-.095.04-.207.08-.306.08-.204.335-.273.556-.292.47-.037.942.03 1.382.198.2.167.395.338.587.512.707.645 1.367 1.343 2.021 2.04 1.25 1.33 2.522 2.693 3.456 4.243.285.691.525 1.4.718 2.123.084.564.08 1.146.073 1.72L26.83 43H22v1h12v-1h-5.48a55.367 55.367 0 01.012-4.287c.052-.215.114-.427.189-.636.248-.71.617-1.375.855-2.089.45-1.357.438-2.897 1.273-4.06.226-.302.485-.578.773-.823.664-.445 1.45-.724 2.235-.911 1.106-.264 2.247-.371 3.343-.67l.06-.017a.759.759 0 00-.036.253c.005.194.159.35.31.473.243.196.507.363.788.498a1.168 1.168 0 00-.476-1.125 1.518 1.518 0 001.306.124 1.06 1.06 0 00-1.113-.479c.36-.182.675-.439.925-.753-.053.067-.476.109-.576.145a2.9 2.9 0 00-.538.261c-.182.114-.35.226-.468.372-.063.022-.127.046-.191.065-.72.234-1.474.34-2.224.442-.591.08-1.232.146-1.764-.091.292-.273.606-.521.94-.741.138-.088.28-.168.425-.242l-.015.018a.242.242 0 01.019-.02c.106-.055.214-.107.325-.156l.014-.004a11.308 11.308 0 014.426-.187.584.584 0 01.205.059.618.618 0 01.189.204c.121.18.252.361.432.486.179.125.418.185.621.106l-.339-.584a1.146 1.146 0 001.081-.088 1.697 1.697 0 00-1.056-.21c.188-.07.377-.14.537-.26.16-.121.29-.294.308-.492-.447.076-.872.25-1.243.508a.866.866 0 00.31-.969 1.96 1.96 0 01-1.682 1.014c-.29 0-.576-.062-.862-.106a6.186 6.186 0 00-1.48-.044c.33-.12.654-.259.969-.414a7.788 7.788 0 001.434-.953c.373-.14.801-.161 1.21-.172a1.72 1.72 0 01.463.028c.27.066.487.255.737.375a1.498 1.498 0 001.19.033 1.279 1.279 0 00-.785-.522.905.905 0 00.745-.51 1.828 1.828 0 00-1.071.201c-.106.057-.21.125-.327.149a.928.928 0 01-.228.007l-.49-.025c-.141-.007-.283-.015-.412-.075a.406.406 0 01-.215-.224c.298-.289.586-.588.87-.89.189.048.29-.135.467-.159.25-.033.287.19.455.36.16.157.354.278.566.352.127.045.55.021.617.08l-.66-.574c.298.18.617.324.95.429a1.262 1.262 0 00-.851-.82zm-11.297-6.862a.921.921 0 00.041-.1.854.854 0 00.631.385c.071.005.15.004.204.05.094.08.047.234-.006.344l-.377.78c-.06.122-.124.25-.236.327a.32.32 0 01-.236.047 3.779 3.779 0 00-.094-.543c-.1-.444-.128-.861.073-1.29zm-2.193 4.065c.003-.067.008-.134.014-.2.043-.418.153-.826.221-1.24.08-.486.1-.979.063-1.47a.977.977 0 001.153-.388 2.049 2.049 0 00-.95.126c.195-.07.33-.257.386-.454.055-.198.052-.407.047-.612-.53.194-.783.801-.843 1.359-.059.557.013 1.133-.144 1.672a.897.897 0 01-.228.4c-.226-.66-.435-1.326-.572-2.01a15.9 15.9 0 01-.274-1.897c-.041-.572.52-1.12.903-1.48.424-.398.896-.785 1.144-1.31a2.121 2.121 0 00-.025.58c.037.375.172.731.27 1.094.209.764.26 1.56.374 2.343.044.32.107.636.188.948l.372 1.515c-.011.636-.052 1.27-.12 1.903-.24.356-.491.703-.75 1.042a.269.269 0 01-.068.07c-.07.046-.154.02-.226-.033-.426-.58-.692-1.272-.935-1.958zm-6.289-1.221c-.148-.23-.314-.456-.374-.721-.047-.208-.025-.425-.011-.638.018-.272.021-.546.013-.819l.04.06c.471.723.925 1.46 1.27 2.25.696 1.593.948 3.402 1.645 4.968-.088.269-.18.536-.276.802-.08.22-.162.442-.227.668a85.303 85.303 0 01-.848-.759 3.59 3.59 0 01-.21-.978c-.05-.608 0-1.219-.035-1.827a6.271 6.271 0 00-.987-3.006zm5.01 16.293a7.182 7.182 0 01-.243-.201c-.78-1.288-1.726-2.477-2.667-3.657a7.192 7.192 0 00-.374-.445 3.077 3.077 0 01-.3-.604 1.848 1.848 0 01.39-1.808c-.152.094-.306.187-.425.32-.12.131-.201.306-.181.481a2.371 2.371 0 01-.259-.84c-.022-.195-.015-.408.1-.569.195-.275.612-.278.936-.18-.127-.328-.61-.456-.883-.23.11-.138.228-.3.195-.473a.91.91 0 00-.5.757.622.622 0 00-.725-.447.944.944 0 00.725.576c.007.51.015 1.026.162 1.514.073.246.18.484.206.742.009.087.003.18.004.272a5.672 5.672 0 01-.188-.158c-.6-.528-1.02-1.223-1.431-1.907-.26-.431-.522-.872-.645-1.36-.166-.663-.06-1.372-.226-2.036-.076.106-.073.246-.098.375-.026.129-.11.267-.24.266-.084 0-.153-.06-.212-.118-.216-.213-.397-.462-.633-.655a1.192 1.192 0 00-.534-.258c.176-.184.344-.375.533-.545.243-.221.53-.41.854-.468.452-.082.893.093 1.302.327.219.261.453.51.7.745.541.497 1.222.902 1.61 1.502-.019.334.04.675.222.955a3.252 3.252 0 00-1.205-.721.872.872 0 00-.182-1.047 1.774 1.774 0 00-.079.582 1.992 1.992 0 00-.745-.31l.265.55a.767.767 0 00-.88-.156c.16.224.402.378.674.433a.5.5 0 00-.45.327c.256.154.566.313.839.192.198-.088.338-.311.555-.316.141-.003.264.094.372.181l.424.35c.146.11.279.238.397.378.283.36.341.837.388 1.29.066.637.123 1.279.287 1.898.135.51.347 1.008.67 1.422.54 1.033 1.54 1.919 1.496 3.074zm-1.02-3.604c-.241-.45-.391-.959-.49-1.462-.168-.862-.219-1.753-.505-2.585-.207-.608-.54-1.186-.566-1.824-.018-.443.113-.877.243-1.3l.042-.136c.177.366.389.714.633 1.04l.218.375c.934 1.637 1.423 3.485 1.693 5.356l.023 2.229a15.7 15.7 0 00-1.29-1.693zm3.129 1.012c-.18.655-.39 1.474-.783 2.04-.288.416-.406-.182-.388-.42.052-.693.157-1.387.395-2.04.238-.654.616-1.267 1.15-1.717-.056.723-.18 1.438-.373 2.137h-.001z" fill="#fff"/><path d="M33.677 18.65l.01-.06-.144.291c.046-.076.09-.153.134-.23zm-1.427-3.557c.36.414.86.682 1.407.755.078.627.107 1.26.086 1.891-.01.276-.005.576-.054.852l.315-.623a26.31 26.31 0 01-.142-2.152.966.966 0 001.19-.44.945.945 0 00.112-.44 2.626 2.626 0 01-.859.136.732.732 0 00-.053-.702 3.08 3.08 0 00-.464.594 2.197 2.197 0 00-.28-1.133 1.316 1.316 0 00-.377 1.3.943.943 0 00-.882-.038z" fill="#fff"/></svg>