<!-- by TradingView --><svg xmlns="http://www.w3.org/2000/svg" width="56" height="56"><path fill="#F0F3FA" d="M0 0h56v56H0z"/><path d="M41.35 19.17a14.18 14.18 0 00-11.14-5.39A14.2 14.2 0 1041.43 36.7a16 16 0 11-.08-17.53z"/><path d="M27.19 26.5a6 6 0 0111.73.5h2.2c.84 0 1.39-.27 1.14-1.37A12.38 12.38 0 0030.18 16a12.38 12.38 0 00-12.13 9.85c-.24 1.16.8 1.15 1.36 1.15h7.65s.03-.2.13-.5zm-.1 2.5h-7.75c-.57-.02-1.53-.04-1.29 1.15A12.38 12.38 0 0030.18 40a12.38 12.38 0 0012.08-9.63c.25-1.1-.3-1.37-1.14-1.37h-2.2a6 6 0 01-11.84 0z" fill="url(#aroxm2yv0)"/><circle cx="34" cy="28" r="4" fill="#D7161E"/><defs><linearGradient id="aroxm2yv0" x1="18.01" y1="28" x2="42.32" y2="28" gradientUnits="userSpaceOnUse"><stop stop-color="#3362AF"/><stop offset="1" stop-color="#00ABEB"/></linearGradient></defs></svg>