<!-- by TradingView --><svg xmlns="http://www.w3.org/2000/svg" width="56" height="56"><path fill="#00A3BD" d="M0 0h56v56H0z"/><path d="M43.37 36l.57 2.56a.46.46 0 01-.16.47c-.55.43-1.61.97-3.52.97-1.6 0-3.18-.6-4.1-1.84-1-1.37-1.15-3.12-.6-5.16 0 0 1.02-3.74 1.42-5.27.26-1.02-.12-1.73-1-1.73-1.9 0-3.45 1.7-4.26 4.68-.51 1.94-1.92 7-2.39 8.74-.1.34-.4.58-.75.58h-2.66a.6.6 0 01-.57-.75l3.11-11.4c.18-.89.07-1.85-1.04-1.85-1.57 0-3.58 1-4.53 4.46l-2.4 8.98c-.1.35-.4.56-.74.56h-2.67c-.38 0-.68-.31-.57-.72l2.73-10.22 1.61-6.48A3.55 3.55 0 0017.5 18c-1.98-.01-3.48 1.6-3.49 3.64 0 1.22.7 2.52 2.11 3.1.33.11.5.47.42.82l-.67 2.5-.01.05a.67.67 0 01-.87.43 7.4 7.4 0 01-4.98-6.9A7.65 7.65 0 0117.4 14c4.56-.04 8.1 4.22 7.56 8.58a6.08 6.08 0 012.65-.58c1.6 0 3.02.68 3.95 1.88A6.1 6.1 0 0135.99 22c3.82 0 5.51 3.71 4.66 7.06 0 0-1 3.58-1.31 4.84-.5 1.96.43 2.04 1.11 2.1h.02a4.1 4.1 0 002.08-.35c.33-.15.75 0 .82.36z" fill="#fff"/></svg>