<!-- by TradingView --><svg width="56" height="56" xmlns="http://www.w3.org/2000/svg"><path fill="#18377A" d="M0 0h56v56H0z"/><path d="M13.318 26.004h.356c.175 0 .32-.149.32-.358 0-.126-.054-.646-.652-.646h-.024c-.175 0-.32.17-.32.363v.284c0 .2.145.357.32.357zM7.554 32A.462.462 0 008 31.546v-3.01c0-.24.186-.536.424-.536H9.45c.548 0 .548.537.548.537v3.018c0 .241.197.445.434.445h.134a.444.444 0 00.435-.445v-2.722c0-1.157-.484-1.694-1.551-1.805A3.982 3.982 0 008.965 27h-4.53a.445.445 0 00-.435.444v4.111c0 .241.197.445.435.445l.125-.01a.444.444 0 00.435-.444v-3.018c0-.24.197-.528.435-.528h1.134c.237 0 .434.287.434.528v3.009c0 .24.197.463.435.463h.121zm12-.005a.462.462 0 00.446-.454v-3.009c0-.24.186-.537.424-.537h1.025c.548 0 .548.537.548.537v3.019c0 .24.197.444.434.444h.134a.444.444 0 00.435-.444v-2.722c0-1.158-.484-1.695-1.551-1.806a3.981 3.981 0 00-.484-.028h-4.53a.445.445 0 00-.435.445v4.11c0 .241.197.445.435.445l.125-.009a.444.444 0 00.435-.444v-3.019c0-.24.197-.528.435-.528h1.134c.238 0 .434.287.434.528v3.01c0 .24.197.462.435.462h.121zM28.5 27h-1.67c-1.868 0-2.83.869-2.83 2.505S24.962 32 26.83 32h1.67c.274 0 .5-.203.5-.444v-.148c0-.24-.226-.408-.5-.408h-1.975c-.54 0-1.525-.324-1.525-1h3.49c.274 0 .51-.172.51-.412v-.157c0-.25-.236-.431-.51-.431H25c0-.807 1.19-1.005 1.525-1.003h1.965c.273 0 .509-.156.509-.396v-.157c.01-.24-.226-.444-.5-.444zm6.5 4.538v-.176c0-.25-.219-.36-.494-.36h-1.597c-.945-.002-1.873-.54-1.909-1.497-.044-1.184 1.31-1.51 1.807-1.51h1.69c.275 0 .503-.117.503-.357v-.195c0-.24-.228-.443-.504-.443h-1.53c-.932 0-1.607.148-2.13.6-.532.444-.836 1.137-.836 1.923 0 .749.323 1.433.837 1.876.532.453 1.625.555 1.625.555.276.027.732.046 1.008.046h1.026c.276-.01.504-.213.504-.462zm5.001-.968c0 .307-.27.43-.528.43H37.36c-.181 0-.359-.086-.359-.498 0-.44.27-.499.525-.499h1.948c.258 0 .528.125.528.43v.137zM41 28.863C41 27.645 40.292 27 38.844 27l-2.34-.01c-.257 0-.504.216-.504.454v.146c0 .238.247.4.505.4l1.806.01c1.233-.01 1.69.054 1.69 1 0 .046-.633 0-.89 0h-1.368C36.26 29 36 29.59 36 30.53c0 1.037.849 1.468 1.743 1.468h2.815c.258 0 .442-.251.442-.49v-2.645zm10.031-.861h.506c.244 0 .463-.2.463-.439v-.1a.483.483 0 00-.463-.463h-.506c-.244 0-.446-.178-.446-.417v-1.147a.442.442 0 00-.447-.44h-.164a.448.448 0 00-.446.44v1.147c0 .238-.202.417-.447.417h-5.318C42.55 27 42 27.508 42 28.57c0 1.154 1.283 1.361 1.283 1.361.244.037.648.065.893.065h.699c.632.007 1.128 0 1.128.524s-.588.48-1.128.478h-2.35c-.245 0-.525.136-.525.374v.146c0 .238.28.482.524.482h2.983c.792 0 1.492-.665 1.492-1.59 0-.943-1.37-1.28-1.37-1.28a3.566 3.566 0 00-.877-.13h-.75c-.415 0-1.01.01-1.01-.495s.472-.505.82-.505h5.471c.152.073.253.268.253.442v1.968c0 1.016.83 1.444.83 1.444.236.082.623.146.867.146h.32c.245 0 .447-.244.447-.482v-.1c0-.239-.202-.418-.446-.418h-.093c-.682 0-.784-.562-.784-.562a6.081 6.081 0 01-.084-.87v-1.126a.435.435 0 01.438-.44zm-37.043 2.425v-2.991c0-.248-.149-.44-.328-.44h-.334c-.18 0-.328.201-.328.44l.006 1.945v2.174c0 .239.148.44.328.44h.334c.18 0 .328-.201.328-.44l-.006-1.128z" fill="#fff"/></svg>