<!-- by TradingView --><svg width="56" height="56" xmlns="http://www.w3.org/2000/svg"><path fill="#9B8A59" d="M0 0h56v56H0z"/><circle cx="28" cy="28" r="28" fill="url(#paint0_linear)"/><path fill-rule="evenodd" d="M29.686 42.497c0 1.164 0 2.328-.005 3.492h1.863a114.247 114.247 0 00-.032-2.44c-.007-.246-.015-.492-.009-.737.202.53.406 1.059.61 1.589.205.53.41 1.059.612 1.588h2.018c-.332-.71-.66-1.425-.99-2.14l-.676-1.467c.233-.567.468-1.128.704-1.689.235-.56.47-1.122.703-1.688l-.653-.003a61.774 61.774 0 00-1.313.003c-.147.436-.296.871-.445 1.306-.187.548-.375 1.096-.56 1.651-.013-.248-.005-.493.002-.739.004-.148.009-.296.009-.446 0-.294.005-.59.01-.886.005-.296.01-.593.01-.886h-1.852c-.006 1.164-.006 2.328-.006 3.492zM12.58 39.005a1551.85 1551.85 0 01-.58 6.922v.063h1.74c.046-.693.098-1.385.15-2.077.051-.692.103-1.384.15-2.077.048.241.086.49.124.736.026.173.053.344.082.512.057.38.117.76.178 1.142.093.589.186 1.178.268 1.764h1.563c.176-.986.362-1.962.548-2.937.032-.15.058-.304.085-.457.045-.254.089-.508.153-.75.038.832.086 1.662.135 2.493.032.554.064 1.107.093 1.661h1.657c-.063-.912-.122-1.827-.182-2.742a876.783 876.783 0 00-.215-3.255c-.023-.329-.045-.656-.059-.988a87.364 87.364 0 00-1.553-.002l-.776.002c-.057.299-.111.6-.166.902-.054.302-.108.603-.165.902-.027.157-.056.314-.086.471-.085.456-.17.915-.194 1.375l-.02-.032c-.017-.537-.104-1.068-.19-1.597-.024-.142-.048-.285-.07-.427a72.87 72.87 0 00-.129-.797 72.48 72.48 0 01-.13-.797c-.807-.01-1.614-.01-2.41-.01h-.001zm22.34 0c1.138 0 2.277 0 3.415.01v1.615h-1.614v.965c.232.005.468.005.703.005.236 0 .471 0 .704.006v1.636c-.31.007-.626.004-.94.002l-.468-.002v1.122h1.615v1.626H34.92v-6.985zm5.59 0h-1.792v6.984H42v-1.625h-1.49v-5.36zm-12.982 6.984h2.019l-.395-.831a148.66 148.66 0 01-.972-2.074c.352-.178.683-.44.86-.807.155-.315.206-.671.196-1.017.01-.588-.197-1.207-.631-1.616-.508-.503-1.243-.629-1.916-.64H24.66v6.986h1.854c0-.955 0-1.91-.01-2.864.025.075.047.153.07.232.031.11.063.22.105.324l.176.483.001.004v.001h.001c.22.607.443 1.216.671 1.82zm-3.043 0h-1.926c-.026-.146-.05-.32-.073-.494-.023-.174-.046-.348-.072-.495h-1.242a9.13 9.13 0 00-.094.583c-.02.144-.04.284-.061.407H19.08c.274-1.164.55-2.328.828-3.492v-.001c.277-1.164.554-2.328.828-3.492h2.288c.476 2.328.963 4.656 1.46 6.984zm2.751-5.257c-.165-.218-.466-.27-.735-.26.016.276.013.552.01.828-.002.276-.004.551.011.827.104-.01.207-.02.3-.042.29-.083.497-.364.538-.666.042-.229.021-.5-.124-.687zm-5.05 2.863a43.095 43.095 0 01-.341-2.831c-.027.173-.048.347-.069.521a12.22 12.22 0 01-.097.696c-.053.395-.122.784-.192 1.176l-.077.438h.776zM21 16.4L12 20v17h9V16.4zm1-.4v21h10V12l-10 4zm11-4.4V37h9V8l-9 3.6z" fill="#fff"/><defs><linearGradient id="paint0_linear" x1="29.459" y1="0" x2="29.459" y2="55.984" gradientUnits="userSpaceOnUse"><stop stop-color="#8B7A48"/><stop offset="1" stop-color="#AD9B6B"/></linearGradient></defs></svg>