<!-- by TradingView --><svg xmlns="http://www.w3.org/2000/svg" width="56" height="56"><path fill="#F0F3FA" d="M0 0h56v56H0z"/><path fill-rule="evenodd" d="M7.25 26.74a1.8 1.8 0 013.25 1.06V31h-1v-3.15a.85.85 0 00-1.7 0V31H4v-3.2a1.8 1.8 0 013.25-1.06zM5 27.87a.87.87 0 011.75 0V31H5v-3.13z" fill="#0062A5"/><path d="M16.21 28.58v-.08c0-1.38-1.17-2.5-2.6-2.5A2.55 2.55 0 0011 28.5c0 1.38 1.17 2.5 2.6 2.5 1.14-.03 1.95-.51 2.35-1.16l-.86-.48-.02.02a1.1 1.1 0 01-.32.32c-.14.1-.3.17-.49.22a2.13 2.13 0 01-1.14 0 1.67 1.67 0 01-.48-.22 1.1 1.1 0 01-.33-.32.7.7 0 01-.11-.38h4l.01-.42zm-1.35-.95c.07.12.1.24.1.37H12.2c0-.13.03-.25.1-.37.07-.13.17-.24.3-.33.13-.1.28-.17.45-.22a1.82 1.82 0 011.51.22c.13.1.23.2.3.33zm19.64-.82a1.92 1.92 0 013.5 1.12V31h-1v-2.75a1.25 1.25 0 00-2.5 0V31h-1v-5h1v.81z" fill="#0062A5"/><path d="M43.74 26.81a1.92 1.92 0 013.5 1.12V31h-1v-2.75a1.25 1.25 0 00-2.5 0V31h-1v-5h1v.81zM39 25h1v6h-1z" fill="#8BC63E"/><path d="M17.6 26h-1v5h1v-3.55c.2-.28.59-.62 1.12-.34l.38-.95c-.29-.16-.97-.3-1.5.35V26zm2.4-.22a.5.5 0 100-1 .5.5 0 000 1zm.5 5.22v-5h-1v5h1zm6.5-5.22a.5.5 0 100-1 .5.5 0 000 1zm.5 5.22v-5h-1v5h1z" fill="#0062A5"/><path d="M41.5 25.78a.5.5 0 100-1 .5.5 0 000 1zM42 31v-5h-1v5h1z" fill="#8BC63E"/><circle cx="30.58" cy="23.93" r=".56" fill="#0062A5"/><circle cx="37.97" cy="23.93" r=".56" fill="#8BC63E"/><circle cx="34.27" cy="23.37" r=".67" fill="#8BC63E"/><path fill-rule="evenodd" d="M26 25h-1v1.5a2.5 2.5 0 100 4v.5h1v-6zm-1 3.5a1.5 1.5 0 10-3 0 1.5 1.5 0 003 0zm7 2a2.5 2.5 0 110-4V26h1v5h-1v-.5zm0-2a1.5 1.5 0 11-3 0 1.5 1.5 0 013 0z" fill="#0062A5"/><path d="M49 25h-1v6h1v-2h.4l1.4 2H52l-1.66-2.4 1.55-2.21h-1.2L49.56 28H49v-3z" fill="#8BC63E"/></svg>