<!-- by TradingView --><svg width="56" height="56" xmlns="http://www.w3.org/2000/svg"><path fill="#00244F" d="M0 0h56v56H0z"/><path d="M24.475 31H4v1h21.455c-.353.005-.69-.673-.98-1zM27.938 31c.089.089.131.242.248.228-.06.169.567.772.349.772h23.464v-1H27.937zM4.972 30H4s.304-.05.324-.307c.007-.074 0-4.386 0-4.386s.02-.202-.27-.307h.972l1.215 2.514L7.295 25h.972s-.27.083-.27.307v4.386c.014.184.297.307.297.307H6.998s.315-.117.324-.307c.002-.067 0-4.141 0-4.141l-1.296 2.912-1.349-2.903v4.105c.025.23.259.32.295.334zM11.993 27.617s.025-.166-.178-.194c0 0 .44-.121.8-.36v.554s.263-.658.947-.615v.592s-.337-.427-.947.196v1.916c.02.294.176.294.176.294h-.985c.068 0 .178-.037.185-.294v-2.089M17.498 29.298c.02.497.747.651 1.115.11v-1.88c-.006-.122-.128-.153-.173-.17-.047-.019.524-.074.816-.35 0 0 .002 2.61 0 2.685-.002.08.002.195.155.274h-.769s-.006-.324 0-.432c-.128.264-.885.663-1.36.351 0 0-.408-.223-.408-.613v-1.738c-.02-.13-.214-.172-.214-.172s.645-.154.84-.363v2.298M33.825 29.7c.02.3.175.3.175.3h-.997c.068 0 .175-.038.182-.3.007-.258.007-2.132.007-2.132s.034-.168-.182-.2c0 0 .453-.124.82-.368l-.005 2.7zM33.498 26.874a.387.387 0 00.378-.395.388.388 0 00-.377-.396.389.389 0 00-.38.396c0 .218.168.395.38.395zM35.482 29.664c.02.336.173.336.173.336h-.982c.067 0 .173-.043.18-.336.007-.288.007-4.028.007-4.028s.024-.184-.18-.224c0 0 .447-.139.809-.412l-.007 4.664zM48.77 27.6s.018-.163-.182-.187c0 0 .45-.184.811-.413v.419c.308-.329 1.843-.928 2.463.431.549 1.205-.683 2.182-1.485 2.15-.59-.024-.84-.291-.976-.432v1.15c.02.282.167.282.167.282h-.985c.068 0 .182-.036.189-.257V27.6h-.002zm.629 1.654c.256.41.755.588 1.083.503.227-.058 1.086-.409.79-1.625-.234-.965-1.392-1.134-1.873-.479v1.601zM20.011 29.085s.344.76 1.151.748c.495-.006.758-.257.755-.517 0-.29-.37-.511-.863-.642-1.191-.32-1.13-1.15-.75-1.447.067-.053.575-.477 1.66-.01v.554c-.078-.42-1.148-.98-1.433-.349-.17.373.476.654.872.767.146.042.93.292.914.89-.013.515-.555.936-1.353.92-.476-.009-.838-.147-.957-.217v-.697M11.199 29.663c0 .152.087.255.233.297h-.903v-.429s-.704.826-1.627.286c-.045-.027-.73-.563.027-1.247 0 0 .303-.247.829-.351.52-.103.742-.243.77-.501a.501.501 0 00-.534-.538c-.254.023-.598.124-1.158.75v-.636s2.223-.973 2.363.62v1.75zm-.668-1.567c-1.245.387-1.211.719-1.243.828-.05.169-.02.656.4.78.549.163.843-.394.843-.394v-1.214zM48.057 29.666c0 .152.088.293.234.334h-.904v-.468s-.7.825-1.625.284c-.044-.025-.73-.561.027-1.246 0 0 .302-.246.83-.351.519-.101.742-.243.768-.5a.5.5 0 00-.535-.538c-.253.023-.597.122-1.157.749v-.635s2.223-.974 2.362.617v1.754zm-.67-1.566c-1.245.387-1.211.718-1.242.827-.05.167-.019.656.4.78.548.163.842-.392.842-.392V28.1zM16.317 29.548c-.05.069-.72.625-1.675.398-1.178-.28-1.333-1.643-.753-2.291.991-1.105 2.306-.478 2.306-.478v.652c-.335-.42-.69-.89-1.377-.58-.69.312-.576 1.555-.43 1.89 0 .002.362 1.104 1.929.41zM43.036 25c-.362.273-.81.412-.81.412.198.033.178.224.178.224s.007 3.742 0 4.028c-.007.293-.117.336-.184.336h.984s-.153 0-.173-.336l.005-2.251c-.011-.363 1.301-1.133 1.306.098v2.153c-.007.293-.11.336-.178.336h.982s-.164 0-.184-.336v-2.35c-.016-.83-1.427-1.04-1.929-.208L43.036 25zM41.975 29.548c-.05.069-.717.625-1.675.398-1.177-.28-1.332-1.643-.752-2.291.99-1.105 2.305-.478 2.305-.478v.652c-.334-.42-.69-.89-1.377-.58-.69.312-.576 1.555-.43 1.89 0 .002.362 1.104 1.929.41zM38.825 29.7c.02.3.175.3.175.3h-.997c.068 0 .175-.038.182-.3.007-.258.007-2.132.007-2.132s.034-.168-.184-.2c0 0 .455-.124.821-.368l-.004 2.7zM38.5 26.874a.387.387 0 00.379-.395.388.388 0 00-.378-.396.387.387 0 00-.38.396c0 .218.169.395.38.395zM37.001 29.664c.02.336.174.336.174.336h-.983c.068 0 .173-.043.18-.336.007-.288.007-4.028.007-4.028s.025-.184-.18-.224c0 0 .45-.139.81-.412L37 29.664zM29.032 30h-.964s.301-.05.321-.307c.007-.074 0-4.386 0-4.386s.02-.202-.267-.307h.964l1.205 2.514L31.334 25h.964s-.268.083-.268.307v4.386c.014.184.295.307.295.307h-1.286s.313-.117.321-.307c.005-.067 0-4.141 0-4.141l-1.285 2.912-1.34-2.903v4.105c.03.23.261.32.297.334z" fill="#fff"/><path d="M26.941 30.94a1.925 1.925 0 01-1.27.484c-.979 0-1.87-.943-1.87-1.976 0-.488.344-1.075.771-1.075.103 0 .297.241.59.607.372.457.93 1.15 1.78 1.96zm1.91.738a7.874 7.874 0 01-.987-.79c-.108-.106-.199-.197-.267-.256l-.239-.226c-1.819-1.862-2.703-2.999-2.703-3.474 0-.358.243-.62.575-.62.437 0 .808.42.984.838.005.008.008.02.013.031.022.055.056.146.14.146.056 0 .117-.047.117-.115l-.022-.786v-.024c.003-.067.003-.16-.044-.215a.114.114 0 00-.088-.039c-.054 0-.091.034-.116.057a.103.103 0 01-.02.016l-.041-.021c-.113-.06-.376-.2-.759-.2-.603 0-1.254.369-1.254 1.17 0 .372.162.694.312.912-.74.208-1.162.852-1.162 1.779 0 .628.219 1.168.634 1.565.388.372.908.574 1.47.574.71 0 1.28-.254 1.84-.82l.154.142c.358.333.731.678 1.225.678.233 0 .594-.099.658-.19a.77.77 0 01-.42-.132z" fill="#fff"/></svg>