<!-- by TradingView --><svg width="56" height="56" xmlns="http://www.w3.org/2000/svg"><path fill="#545487" d="M0 0h56v56H0z"/><path d="M9 30l-1.99-5.455V24H5c.541.296.297.812.253 1.148l-.638 5.148c-.113.696-.222 1.25-.615 1.704h2c-.54-.25-.64-.812-.553-1.536L6.112 25 9 32l2.716-7 .577 6.073s.098.794-.29.927H14a1.539 1.539 0 01-.432-.567 1.52 1.52 0 01-.14-.685l-.74-6.012c0-.272.047-.649.312-.736h-2l-.058.736L9 30z" fill="#fff"/><path d="M18.258 28.996l.605 1.715c.215.609.379.936.137 1.289h2.003c-.639-.355-.84-1.07-1.092-1.762L18 24h-1.997c.546.183.121.727-.037 1.17l-1.872 5.068c-.251.692-.437 1.407-1.091 1.762H15c-.546-.219-.393-.627-.158-1.289l.659-1.715h2.757zm-.331-.992h-2.11L17 25l.927 3.004z" fill="#fff"/><path d="M23.382 28.517l1.745 3.046a.84.84 0 00.289.317c.118.074.45.123.584.12h1.004c-.545-.334-.984-.873-1.253-1.517l-1.67-2.887L26.452 24h-1.908c.71.1.355.791.092 1.216L23.585 27 22.1 24.301c-.102-.195-.198-.29-.508-.29L20 24c.427.275 1.137.696 1.373 1.193l1.522 2.544L20.004 32H22c-.634-.29-.292-.85-.038-1.216l1.42-2.267zM28 30.297c0 .55 0 1.235-.5 1.703h2.004c-.502-.506-.502-1.153-.502-1.703v-4.582c0-.544 0-1.091.502-1.715H27.5c.5.64.5 1.715.5 1.715v4.582zM35 30l-1.992-5.453L33 24h-2c.54.296.296.814.253 1.15l-.632 5.142c-.084.652-.228 1.25-.621 1.704h2.004c-.54-.25-.551-.815-.551-1.536l.673-5.46L35 31.996 37.63 25l.671 6.073c0 .405.08.794-.303.927H40c-.177-.139-.311-.358-.406-.57a1.509 1.509 0 01-.127-.682l-.785-6.01c0-.272.053-.648.318-.735h-2l-.062.736L35 30zM45 32h1.377c-.483-.313-.376-1.841-.376-1.841V25.67c0-.58.123-1.252.499-1.668h-2c.5.578.5 1.129.5 1.668v3.584c0 .478-.047.644-.304 1.01-.187.268-.45.447-.73.592-.28.145-.747.153-1.057.143C41.77 31 41 30.43 41 28.856V25.67c0-.539 0-1 .5-1.668h-2.002c.502.684.502 1.129.502 1.668v3.179c0 .857.013 1.656.55 2.316.264.278.576.495.92.639.343.143.71.21 1.078.195.402.018.884-.027 1.255-.195.371-.168.927-.483 1.197-.805v1zM51.36 24.422c-.533-.175-1.089-.419-1.648-.42-1.348 0-2.712.565-2.712 2.03 0 2.458 3.997 1.958 3.997 3.773 0 .812-1.322 1.195-1.956 1.195-.89-.021-1.369-.387-2.041-1v1.653c.633.24 1.367.358 2.04.35 1.72 0 2.96-1.162 2.96-2.402 0-2.142-3.996-2.011-3.996-3.601 0-.8.979-1 1.613-1 .646.003 1.276.533 1.744 1v-1.578z" fill="#fff"/></svg>