<!-- by TradingView --><svg width="56" height="56" fill="none" xmlns="http://www.w3.org/2000/svg"><path fill="#F0F3FA" d="M0 0h56v56H0z"/><path fill-rule="evenodd" clip-rule="evenodd" d="M23.178 22h6.293l.726 7.39L33.585 22H40l-2.178 11H34l1.522-8.291L31.165 33h-3.992l-.968-8.291L24.51 33H21l2.178-11z" fill="#7C7D81"/><path fill-rule="evenodd" clip-rule="evenodd" d="M35.25 17c-1.746 0-3.226.301-5.469 1.031-6.703 2.183-13.114 7.576-14.764 12.912 2.022-6.554 9.974-13.43 18.172-15.98C35.2 14.328 37.05 14 38.68 14c5.179 0 8.212 3.086 7.088 8H40.5c0-3.05-1.521-4.958-5.25-5z" fill="#296CB3"/><path fill-rule="evenodd" clip-rule="evenodd" d="M21.25 39c-3.852.026-6.25-2.594-6.25-6h-4.608s-.013.063-.03.128A9.723 9.723 0 0010 35.734c0 3.758 2.817 6.192 7.25 6.264 1.451.024 3.076-.206 4.832-.725 4.379-1.347 8.632-4.306 11.917-7.608V33c-3.231 2.808-8.22 5.969-12.75 6z" fill="#DA344A"/></svg>