<!-- by TradingView --><svg width="56" height="56" xmlns="http://www.w3.org/2000/svg"><path fill="#F46" d="M0 0h56v56H0z"/><path d="M24.751 27.76c0 3.446-2.836 6.24-6.335 6.24C14.918 34 12 31.206 12 27.76c0-8.085 12.751-8.044 12.751 0zM44 27.76c0 3.446-3.001 6.24-6.5 6.24s-6.17-2.794-6.17-6.24c0-8.062 12.67-8.062 12.67 0z" fill="#fff"/><path d="M44 27.76l-11.261 3.988a6.764 6.764 0 00-4.776-1.962c-1.858 0-3.513.749-4.686 1.962L12 27.76C12 19.056 19.163 12 28 12s16 7.056 16 15.76z" fill="#fff"/><path d="M34.3 37.8a6.3 6.3 0 11-12.6 0 6.3 6.3 0 0112.6 0z" fill="#fff"/></svg>