<!-- by TradingView --><svg width="56" height="56" xmlns="http://www.w3.org/2000/svg"><path fill="#009FAB" d="M0 0h56v56H0z"/><path d="M35.5 20a3.5 3.5 0 100-7 3.5 3.5 0 000 7zM24.5 20a3.5 3.5 0 100-7 3.5 3.5 0 000 7zM32 40h-9V24.628C22.966 21.933 20 21 20 21h5.611c1.942 0 6.389.825 6.389 4.488V40z" fill="#fff"/><path d="M43 40h-9V24.628C33.966 21.933 31 21 31 21h5.611c1.942 0 6.389.825 6.389 4.488V40zM21 40h-8s.014-9.189 0-10.25c-.027-2.04-2.47-2.75-2.47-2.75h5.77c1.455 0 4.7.627 4.7 3.404V40zM14.89 26.218c1.51 0 2.734-1.29 2.734-2.882 0-1.59-1.223-2.879-2.734-2.879-1.508 0-2.73 1.289-2.73 2.879 0 1.592 1.222 2.882 2.73 2.882z" fill="#fff"/></svg>