<!-- by TradingView --><svg xmlns="http://www.w3.org/2000/svg" width="56" height="56"><path fill="#242B6D" d="M0 0h56v56H0z"/><path d="M23.5 14.26c-.5.41-1 .82-1.45 1.23a102.96 102.96 0 00-7.41 7.3c-.37.4-.72.8-1.08 1.22a50.3 50.3 0 012.08-3.63c.46-.72.92-1.44 1.43-2.11.5-.67 1.06-1.3 1.67-1.88.33-.32.7-.58 1.1-.8.43-.2.9-.27 1.36-.2l1.57-1.34a5.3 5.3 0 00-3.29-.08 5.5 5.5 0 00-2.4 2.06c-.65.97-1.23 1.98-1.72 3.03a33.79 33.79 0 00-1.44 3.28c-.28.7-.51 1.41-.74 2.13 0 .05-.03.13.07.08.05-.03.1-.06.13-.1l.23-.2a27.66 27.66 0 011.46-1.26 104.2 104.2 0 018.82-6.96c1.3-.92 2.68-1.75 4.1-2.47.72-.35 1.46-.64 2.24-.85a3.08 3.08 0 012.28.24c.68.35 1.3.82 1.84 1.36a20.2 20.2 0 011.62 1.73 54.3 54.3 0 015.36 8.08l.31.53a133.32 133.32 0 00-3.6-2.54 79.57 79.57 0 00-3.69-2.4 80.75 80.75 0 00-7.64-4.17c-.18-.07-.33-.15-.5-.23-.52.31-1.04.65-1.52.98 2.36.9 4.67 1.93 6.92 3.09 2.28 1.13 4.52 2.34 6.75 3.57l1.84 1.06.93.54c.15.07.3.18.43.25.07.05.15.1.23.13.03.04.07.04.1.03a.07.07 0 00.03-.1 42.33 42.33 0 00-2-5.28 33.53 33.53 0 00-2.67-4.99c-.97-1.47-2.15-2.9-3.72-3.76a4.6 4.6 0 00-2.64-.59c-.83.1-1.63.33-2.38.7a22.5 22.5 0 00-5 3.32z" fill="#FC8D1B"/><path d="M20.5 32L15 25h-2v12h2v-8.7l5.39 6.7h.33L26 28.3V37h2V25h-2l-5.5 7zm17.82-7H31v12h2v-4h5.32C41.2 33 43 31.48 43 29c0-2.47-1.77-4-4.68-4zm.3 6H33v-4h5.63c.59 0 2.37.2 2.37 2 0 1.21-.73 2-2.37 2z" fill="#fff"/><path fill-rule="evenodd" d="M17 39v3h-.54v-2.31L15 41.41h-.03l-1.46-1.72v2.3H13V39h.58L15 40.71 16.44 39H17zm3.22 2.27h-1.9l-.37.71h-.55L19 39h.56l1.6 3h-.55l-.4-.73zm-.94-1.83l.7 1.38h-1.42l.72-1.38zm3.23 0h1.36V39h-3.18v.44h1.33V42h.5v-2.56zm4.74 2.12V42H24.3v-3h2.89v.45h-2.4v.8h2.02v.46H24.8v.85h2.44zm2.28-.66l.9 1.09V42h.62l-.95-1.12c.51-.09.86-.4.86-.92 0-.63-.5-.96-1.19-.96h-2v2.99h.52v-1.1h1.24zm.92-.94c0 .37-.28.5-.7.5h-1.47v-1h1.47c.41 0 .7.13.7.5zm1.14 2.02V39h.5v3h-.5v-.02zm1.86-.71h1.9l.37.73h.55l-1.6-3h-.55l-1.6 2.98h.56l.37-.71zm.94-1.82l.72 1.38h-1.43l.71-1.38zm4.98 2.1V42H36.7v-3h.51v2.55h2.16zm2.08.45c1 0 1.55-.39 1.55-.93 0-.59-.64-.77-1.57-.83-.63-.05-1.13-.1-1.13-.4 0-.33.55-.43 1.02-.43.5 0 .91.13 1.21.38l.33-.32a2.53 2.53 0 00-1.54-.47c-.85 0-1.53.3-1.53.88 0 .58.77.75 1.58.82.74.06 1.1.12 1.1.42s-.36.47-1.01.47a2.17 2.17 0 01-1.46-.5l-.31.33c.45.4 1.07.58 1.76.58z" fill="#fff"/></svg>