<!-- by TradingView --><svg width="56" height="56" xmlns="http://www.w3.org/2000/svg"><path fill="#F0F3FA" d="M0 0h56v56H0z"/><path d="M15 24.206s-1.1 4.96-1.626 7.642c-.022.105-.056.14-.166.14H10.77c-.1 0-.133-.023-.155-.128-.55-2.694-1.614-7.654-1.614-7.654v7.63c0 .129-.022.164-.155.164-.708-.012-2.015 0-2.722 0-.1 0-.122-.023-.122-.129.011-3.499.011-7.243.011-10.73 0-.106.033-.13.133-.13h4.37c.1 0 .155.13.155.13L12 28l1.28-6.836s.067-.164.189-.164h4.387c.11 0 .144.023.144.14v10.684c0 .117-.022.153-.133.153h-2.724c-.11 0-.133-.035-.133-.152 0-2.672-.01-7.619-.01-7.619z" fill="#DA0732"/><path d="M36.394 37l-3.477-.001c1.541-1.777 3.048-3.22 4.59-4.997h-8.289c-.208 0-.185-.187-.185-.187V21.187s.035-.187.174-.187c.88.012 1.761.012 2.642 0 .128 0 .15.152.15.152v7.689s.024.163.163.163h5.53l-4.805-5.973c.034-.035.064-.031.087-.031H36.2c.023 0 .126.069.149.08l5.97 7.292c.07.081.07.128 0 .198-1.934 2.175-4.035 4.218-5.924 6.43z" fill="#01339F"/><path d="M22.963 21.024h3.694c.66 0 1.22.516 1.32 1.213.012.108.023.216.023.312v3.987c0 .636-.256 1.046-.77 1.358-.157.096-.337.108-.516.108h-4.55c-.112 0-.164.024-.164.157.011 1.2-.011 2.484 0 3.685 0 .132-.017.156-.128.156h-2.727c-.111 0-.145-.024-.145-.144V25.15c0-.12.034-.151.134-.151h5.922c.257 0 .505-.137.505-.515S25.224 24 25.067 24H19.18C19 24 19 24.008 19 23.816v-2.66c0-.12.011-.156.145-.156 1.265.024 2.542.024 3.818.024zM36.394 37c1.882-2.204 3.962-4.255 5.89-6.422.069-.081.069-.128 0-.198-1.875-2.148-6.049-7.38-6.049-7.38h2.941c.093 0 .163.033.22.115l5.89 7.265c.07.07.081.117 0 .198l-5.808 6.292c-.081.094-.15.13-.267.13h-2.817zM48.718 23H51.5s-2.517 2.905-3.072 3.543c-.07.082-.105.082-.174 0-.43-.503-1.31-1.508-1.31-1.508.591-.666 1.773-2.035 1.773-2.035zM46.979 35.129l1.344-1.566c.068-.078.14.035.14.035s1.95 2.253 2.898 3.402h-2.783s-1.066-1.252-1.6-1.871z" fill="#DA0732"/><path d="M48.718 23l-1.774 2.035L45.17 23h3.548zM46.978 35.129L48.594 37h-3.239l1.623-1.871z" fill="#01339F"/></svg>