<!-- by TradingView --><svg width="56" height="56" xmlns="http://www.w3.org/2000/svg"><path fill="#D31145" d="M0 0h56v56H0z"/><path d="M30 28h2v.229c0 .565-.39.771-.768.771h-2.208C28.311 29 28 28.625 28 27.617V26.29c0-1.008.282-1.288.995-1.288h2.237c.452 0 .768.417.768.997h1v-.122C33 24.733 32.767 24 31.15 24h-2.126C27.757 24 27 24.397 27 26.122v1.756c0 1.71.757 2.122 2.024 2.122h1.704C32.315 30 33 29.924 33 28.229V27h-3v1zM35 24h-1v6h1v-6zM38.81 26h-1.62c-.556 0-1.19.258-1.19 1.534v.932c0 1.276.634 1.534 1.19 1.534h1.62c.556 0 1.19-.258 1.19-1.534v-.918C40 26.272 39.366 26 38.81 26zm.19 2.208c0 .516-.23.792-.929.792h-.259c-.492 0-.812-.247-.812-.792v-.373c0-.559.32-.835.812-.835h.26c.698 0 .928.319.928.835v.373zM43.434 26.01h-.329c-.46 0-1.04.186-1.105.836V24h-1v6h1v-.835c.118.51.516.835 1.187.835h.168C44.727 30 45 29.095 45 28.028v-.184c0-1.052-.171-1.833-1.566-1.833zM44 28.029c0 .464-.118.972-.645.972h-.644c-.311 0-.711-.344-.711-.88v-.092c0-.567.316-1.028.71-1.028h.645c.527 0 .645.449.645.913v.115zM48.816 26h-1.32c-.965 0-1.374.173-1.374 1.223h.882c0-.184.258-.223.656-.223h.666c.45 0 .674.036.674.424v.346c-.218-.288-.7-.317-1.327-.317-1.102 0-1.673.058-1.673 1.123v.316c0 .92.449 1.108 1.143 1.108h.775c.572 0 .77-.086 1.082-.504V30h1v-2.59c.013-.92-.395-1.41-1.184-1.41zm-.748 2.998h-.327c-.449 0-.744.015-.737-.293.007-.308.18-.35.67-.35h.503c.626 0 .823.057.823.35s-.143.293-.932.293zM52 24h-1v6h1v-6zM4.013 24.53s.04-.53.344-.53h1.24c.239 0 .37.39.37.39L7.5 28l1.525-3.61s.158-.39.435-.39h1.13c.423 0 .41.514.41.514V30h-1v-4l-2 4H7l-2-4v4H4v-5.47h.013zM12.002 24.439S11.956 24 12.32 24h4.21c1.152 0 1.47.705 1.47 1.786v.376c0 .799-.125 1.129-.806 1.317.454.094.806.516.806 1.503V30h-1v-.72c0-.627-.151-1.28-.621-1.28H13v2h-.998v-5.561zM13 27h3.42c.408 0 .58-.496.58-.92v-.203c0-.533-.232-.877-.717-.877H13v2zM19 26.128c0-1.73.752-2.128 2.028-2.128h1.66c2 0 2.326.332 2.312 2h-1v-.393c0-.43-.573-.607-.998-.607h-2.15c-.738 0-.852.944-.852 1.679v.627c0 .857.185 1.695.852 1.695h2.307C23.798 29 24 28.735 24 28h1v.74c0 .995-.284 1.26-1.688 1.26h-2.27C19.78 30 19 29.587 19 27.872v-1.744zM52 31.005H4v1h48v-1z" fill="#fff"/></svg>