<!-- by TradingView --><svg width="56" height="56" xmlns="http://www.w3.org/2000/svg"><path fill="#6132A0" d="M0 0h56v56H0z"/><path d="M35.258 23.002H37L40 33h-2l-.678-2h-3.616L33 33h-2c.585-2.325 1.861-7.284 2.283-8.528.421-1.243 1.492-1.498 1.975-1.47zM26.427 23H22v10h2v-3h2.553L28 33h2l-1.71-3.729c.57-.176 1.71-1.11 1.71-3.432s-2.382-2.86-3.573-2.838zM9.456 26L4 23v2l5.456 3L15 25v-2l-5.544 3z" fill="#fff"/><path d="M9.47 28.536L4 25.5V33h2v-5.603l3.47 1.923L13 27.397V33h2v-7.5l-5.53 3.036zM17 23h2v10h-2zM50 23h2v10h-2zM41.604 23H48v2h-3v8h-2v-8h-3c.123-1.188 1.12-1.931 1.604-2z" fill="#fff"/><path d="M37 29h-3c.294-1.033.914-3.18 1.041-3.502.127-.32.547-.466.741-.498L37 29zM26.613 25H24v3h2.613c.457-.073 1.375-.49 1.387-1.577.012-1.087-.92-1.402-1.387-1.423z" fill="#6132A0"/></svg>