<!-- by TradingView --><svg width="56" height="56" xmlns="http://www.w3.org/2000/svg"><path fill="#00A94E" d="M0 0h56v56H0z"/><path d="M40.5 29l1.543-5h3.278s.464-.044.662.352L47.434 29H40.5zm7.268-7H37v2h2.385l-3.526 9.991L39 34l1-3h8l1 3 3-.009-4.232-11.99zm-12.761 0h-9.745C23.358 22 23 23.82 23 23.82v3.125s-.092.752.602 1.404c.726.68 1.605.651 1.605.651h7.404s.176.048.308.171c.074.071.081.214.081.272v2.18s-.007.182-.09.268c-.081.084-.275.109-.275.109H24v1.991l8.968.008s.836.038 1.432-.48c.574-.5.6-1.254.6-1.254V28.7s.029-.42-.594-1.023C33.63 26.925 32.99 27 32.99 27h-7.638c-.38-.056-.352-.375-.352-.375v-2.248s.013-.189.097-.272c.125-.128.274-.105.274-.105H35l.007-2zM23 31.56l-1.168-.012c-.237 0-.352-.076-.382-.32-.036-.274-1.122-9.228-1.122-9.228H15.63l-1.91 6.987-.743 2.525-.68-2.466L10.37 22H5.66L4 33.991h2.779L8.045 24h.5l2.914 9.991h2.874L17.393 24h.477l.932 8.23s.053.613.664 1.217c.517.508 1.236.544 1.236.544L23 34.01v-2.45z" fill="#fff"/></svg>