<!-- by TradingView --><svg width="56" height="56" xmlns="http://www.w3.org/2000/svg"><path fill="#3C47AF" d="M0 0h56v56H0z"/><path d="M52 25h-.923l-1.386 3.247v2.764h1v-2.663L52.001 25zM35.894 29.945v-4.02c-.281.182-.846.832-.859 1.97-.012 1.14.567 1.841.859 2.05zM6.226 25.369a1.277 1.277 0 011.246.722l.247-.132c-.594-1.145-1.857-.975-2.414-.747-1.273.859-.766 2.147-.353 2.684l.22-.14c.24-.226.834-.677 1.3-.677.467 0 .743.125.823.187v3.128l-.822.163c-1.338.187-1.849-.84-1.937-1.377-.018-.335-.106-1.004-.319-1.004-.212 0-.23.405-.212.607-.026 1.82 1.725 2.24 2.468 2.194.594-.037 1.078-.296 1.246-.42v-3.478c-.082-.155-.447-.453-1.247-.397-.799.056-1.346.496-1.52.709-.524-1.385.35-1.978 1.274-2.022zM9.001 28.822c.041.902-.652 1.469-1.004 1.64v-3.299c.318.157.963.758 1.004 1.66zM11 25H9.003v.462H10V31h1v-6zM46 25h-2v.461h1v5.537h1V25zM11.354 31v-6H13v.456h-1.26V31h-.386zM46.338 31v-6h1.375v.456h-1.011V31h-.364zM13.39 29.928V25h.418v4.514c0 .795.457 1 1.295 1.016.838.015 1.18-.48 1.18-1.016V25h.4v4.439c.045.52-.209 1.561-1.58 1.561-1.218 0-1.713-.68-1.713-1.072z" fill="#fff"/><path d="M15 30.267V25h1v4.614c-.167.572-.736.64-1 .652zM19.287 31v-6h1.23c.814.096 2.468.81 2.483 2.904.016 2.095-1.656 2.937-2.482 3.096h-1.23z" fill="#fff"/><path d="M19.625 30.618v-5.25h.998c.66.084 1.983.71 1.995 2.542.013 1.832-1.325 2.569-1.995 2.708h-.998z" fill="#3C47AF"/><path d="M17.604 25.369V25h1.402v6H18v-5.631h-.396zM24 25.378h-.38V25h2.028v6h-.358v-5.622H25V31h-1v-5.622zM41.374 25.378h-.375V25h2v6h-.353v-5.622h-.285V31h-.987v-5.622zM32.557 27.954c-.08-2.239-1.926-2.954-3.1-2.954-1.046 0-1.744.477-1.962.715v4.449c.346.559 1.501.836 1.962.836 2.64 0 3.133-2.109 3.1-3.046z" fill="#fff"/><path d="M32.168 27.95c-.068-1.96-1.643-2.587-2.644-2.587-.893 0-1.488.418-1.673.627v3.961c.396.582 1.28.667 1.673.667 2.252 0 2.672-1.847 2.644-2.668z" fill="#3C47AF"/><path d="M27.214 30.104V25.84c-.286.19-.856.874-.845 2.087.011 1.214.568 1.958.845 2.178zM38.19 25.002c1.2-.04 1.832.597 1.998.92-.165.184-.344.077-.413 0-.517-.394-.735-.51-1.584-.51-.71 0-1.373.302-1.62.51v3.944c.167.263.724.779 1.62.74 1.12-.05 1.377-.567 1.688-.74.31-.172.413.077.413.23-.247.301-1.013.904-2.101.904-1.089 0-1.809-.603-2.033-.904v-4.305c.178-.247.834-.75 2.033-.79zM49.086 28.156L48.013 25h.405l.899 2.556L50.453 25h.357l-1.346 3.156V31h-.378v-2.844z" fill="#fff"/></svg>