<!-- by TradingView --><svg width="56" height="56" xmlns="http://www.w3.org/2000/svg"><path fill="#F47D30" d="M0 0h56v56H0z"/><path d="M45.528 32.589c-.418 0-.845-.153-1.088-.28C39.5 29.727 33.895 28.2 28.452 28.2c-.682 0-1.188.027-1.823.092 1.027 1.637 2.796 4.02 4.007 5.481.316.38.408.608.408.974 0 .636-.667 1.253-1.377 1.253-.474 0-.758-.188-1.196-.705-1.476-1.738-3.692-4.818-4.741-6.566-5.166.917-10.925 3.98-14.328 6.684-.39.314-.66.442-1.05.442-.723 0-1.352-.625-1.352-1.34 0-.412.152-.723.683-1.168 5.194-4.339 13.26-7.766 20.11-7.766 2.716 0 5.336.378 7.87 1 1.538.378 3.819 1.145 5.762 1.995-5.094-3.089-11.478-5.911-15.515-5.911-1.03 0-1.66.346-1.66 1.042 0 .41.227.959.568 1.51-.809.082-1.873.247-2.678.463-.421-.774-.714-1.6-.714-2.488 0-1.976 1.283-3.192 3.866-3.192 5.852 0 15.686 5.474 20.593 9.474.562.458 1.115 1.026 1.115 1.691 0 .66-.568 1.424-1.472 1.424z" fill="#fff"/></svg>