<!-- by TradingView --><svg xmlns="http://www.w3.org/2000/svg" width="56" height="56"><path d="M0 28a28 28 0 1156 0 28 28 0 01-56 0z" fill="url(#aodsunj3b)"/><path d="M29 25h-4v1h1.5v6h1v-6H29v-1zm-8 0h-1v7h4v-1h-3v-2h3v-1h-3v-2h3v-1h-3z" fill="#929497"/><path fill-rule="evenodd" d="M32.11 25l-2.71 7h1.07l.78-2h2.9l.78 2H36l-2.71-7H32.1zm1.66 4l-1.07-2.74L31.64 29h2.13zm14.09-4l-2.71 7h1.07l.78-2h2.9l.78 2h1.07l-2.71-7h-1.18zm1.66 4l-1.07-2.74L47.39 29h2.13z" fill="#929497"/><path d="M38 25h-1v7h3v-1h-2v-6zm4 0h-1v7h3v-1h-2v-6z" fill="#929497"/><path d="M7.86 32l1.2-7h1.33l1.63 5.37L13.66 25h1.33l1.2 7h-1.02l-.94-5.52L12.55 32H11.5l-1.68-5.52L8.88 32H7.86z" fill="#F6CD6E"/><path fill-rule="evenodd" d="M12 34.5a6 6 0 100-12 6 6 0 000 12zm0 1a7 7 0 100-14 7 7 0 000 14z" fill="#929497"/><defs><linearGradient id="aodsunj3b" x1="10.42" y1="9.71" x2="68.15" y2="76.02" gradientUnits="userSpaceOnUse"><stop stop-color="#1A1E21"/><stop offset="1" stop-color="#06060A"/></linearGradient></defs></svg>