<!-- by TradingView --><svg width="56" height="56" xmlns="http://www.w3.org/2000/svg"><path fill="#00367E" d="M0 0h56v56H0z"/><path d="M34.836 37.046c.532-.758 1.045-1.747 1.235-2.147 2.053.379 3.938-.537 4.624-1.042h.95v2.968l-.76-.347c-2.078 1.01-4.898.8-6.05.568zm2.449-3.753c.317-.87.554-1.958.634-2.394 2.08-.166 3.662-1.539 4.193-2.204l.917-.247.774 2.867-.825-.139c-1.742 1.515-4.521 2.042-5.693 2.117zm.942-4.381c.022-.925-.101-2.032-.166-2.47 1.919-.82 2.979-2.624 3.269-3.423l.79-.526 1.65 2.47-.825.132c-1.167 1.99-3.632 3.373-4.718 3.817zm-7.382 10.26c.867-.485 1.648-1.239 1.93-1.555 2.243 1.18 4.83.861 5.844.553l-1.454 3.401-.555-.659c-2.835.064-5.024-1.133-5.765-1.74zm.159 4.034c-2.306-.801-4.063-2.865-4.654-3.796.487 0 1.79-.51 2.38-.765 1.904 2.215 4.284 2.75 5.235 2.742l-2.644 2.557-.317-.738zm-6.099-.086c-1.925-1.797-2.7-4.3-2.847-5.327.441.211 1.876.352 2.538.396.742 2.412 2.797 3.984 3.731 4.468L24.905 44v-.88zm-5.539-2.312c-1.078-2.395-.832-5.033-.574-6.053.547.51 1.64 1.064 2.119 1.277-.16 3.17 1.096 5.004 1.743 5.525H18.99l.376-.749zm-4.239-4.27c-.177-2.8 1.06-5.026 1.7-5.79.229.617 1.14 1.534 1.566 1.916-1.289 2.395-.905 4.945-.551 5.921l-3.311-1.453.596-.594zm-2.342-5.578c.83-2.42 2.919-4.152 3.859-4.716.102.948.509 2.016.7 2.432-2.002 1.607-2.672 4.124-2.757 5.18l-2.544-2.579.742-.317zm.042-6.027c1.883-2.064 4.348-2.763 5.345-2.855-.22.71-.248 1.96-.234 2.496-2.579.693-4.114 2.784-4.56 3.743L12 24.933h.827zm4.656-7.083l1.434-3.32.55.6c2.875-.056 5.093 1.154 5.842 1.766-.566.198-1.558 1.106-1.983 1.536-2.266-1.215-4.84-.895-5.843-.583zm19.6-3.426h-3.665c1.671 1.963 1.841 4.55 1.717 5.597.85.282 1.83.918 2.213 1.2.61-3.05-.16-5.296-.62-6.038l.355-.759zm3.879 5.098c.02 1.674-.334 2.904-.513 3.31h-2.537c.985-2.154.585-4.502.244-5.402l3.489 1.46-.683.632zM31.178 12l-3.407 1.408c2.249 1.127 3.46 3.486 3.784 4.524.804-.063 1.968.141 2.45.25-.352-2.554-2.031-4.622-2.827-5.337v-.846zm-6.437.046l-2.585 2.547c3.04.344 4.745 1.985 5.217 2.762.59-.356 1.877-.629 2.447-.721-1.54-2.32-3.853-3.514-4.817-3.82l-.262-.768zM14.423 22.68v-3.667l.714.367c2.389-1.087 5.049-.87 6.08-.626-.554.622-1.01 1.726-1.168 2.2-2.978-.24-4.991 1.05-5.626 1.727zM20 33.004l2.998-10c3.636 0 11.15 0 12.12.011.97.01.948.93.817 1.388L33 33.004h-2.223c-.927 0-.834-.932-.672-1.399.62-2.053 2.037-6.277 2.167-6.749.13-.472 0-.856-.225-.856H30.68L28 33.004h-3c.755-2.489 2.24-7.604 2.372-8.148.132-.544-.061-.856-.292-.856h-1.32l-2.761 9.004H20z" fill="#fff"/></svg>