<!-- by TradingView --><svg width="56" height="56" xmlns="http://www.w3.org/2000/svg"><path fill="#003B5C" d="M0 0h56v56H0z"/><path d="M10 34H8l.998-12H11l4 8 4-8h2l1 12h-3l-.49-8.034L15 34h-1l-3.465-8.034L10 34zM27.354 23.37C25.546 24.182 25 26.156 25 28.264c0 2.108.42 3.674 2.017 4.425.872.329 2.008.534 2.983 0v-3.677h3v4.006c-3.414 1.44-8.635 1.754-10.51-2.257a5.395 5.395 0 01-.489-2.334 7.012 7.012 0 01.526-2.801c1.083-2.566 3.782-3.643 6.304-3.623 1.39-.028 2.94.32 4.169 1l-.917 2.003c-1.088-1.552-3.036-2.36-4.729-1.634zM34 22h2.994L37 34h-3V22zM47.563 33.03c-3.721 2.336-9.6.255-9.562-4.595a7.342 7.342 0 01.564-2.974C39.6 23.048 42.1 21.975 44.618 22c1.137.008 2.39.42 3.382.999l-1 2c0-.451-.522-1.937-2.477-1.937-2.614 0-3.576 2.892-3.523 5.146-.053 2.324 1.032 4.804 3.669 4.822 1.1-.007 2.589-.228 3.331-1.031l-.438 1.03z" fill="#fff"/></svg>