<!-- by TradingView --><svg width="56" height="56" xmlns="http://www.w3.org/2000/svg"><path fill="#005596" d="M0 0h56v56H0z"/><path d="M24 27h-2v-1.518s.078-3.21 4.424-3.21c0 0-2.424.117-2.424 3.327V27z" fill="#fff"/><path d="M42 23.563V18h-7v3l-8.239-3.23-20.123 6.654h5.364l14.72-4.658 18.243 7.125h5.168L42 23.563zM37 20h3v3l-3-1.452V20z" fill="#94C947"/><path d="M6.331 26h1.997l1.566 4.101L11.538 26h1.996l1.175 8h-1.997l-.548-4.76h-.039L10.246 34h-.783l-1.8-4.76L6.996 34H5l1.331-8zM16.979 30c.117-.548.548-.786 1.096-.786.509 0 .979.277 1.057.786h-2.153zm.979-2c-1.723 0-2.897 1.057-2.897 2.819 0 1.8 1.252 3.181 3.014 3.181 1.214 0 2.388-.747 2.662-2h-1.8s-.133.669-.901.669c-.878 0-1.136-1.004-1.136-1.669h3.915c0-1.893-1.187-3-2.857-3zM48.418 30c.118-.548.548-.786 1.096-.786.51 0 .98.277 1.057.786h-2.153zm.979-2c-1.722 0-2.897 1.057-2.897 2.819 0 1.8 1.253 3.181 3.014 3.181 1.214 0 2.389-.747 2.663-2h-1.801s-.132.669-.9.669c-.879 0-1.136-1.004-1.136-1.669h3.915c0-1.893-1.188-3-2.858-3zM24 28.861c.391-.665.653-.861 1.084-.94h.352v1.802c-.274-.157-.509-.157-.783-.157-.653 0-.653 1.122-.653 2.023v2.41h-2v-6h2v.862zM28 28h-2v6h2v-6zM28.057 25.638c0 .587-.47 1.057-1.057 1.057s-1.057-.47-1.057-1.057.47-1.057 1.057-1.057 1.057.509 1.057 1.057zM31 34h-2v-4h-.5v-1.543h.5V27h2v1.457h1V30h-1v4z" fill="#fff"/><path fill-rule="evenodd" d="M37 33.717a3.1 3.1 0 110-5.533V28h2v6h-2v-.283zm-.071-2.767a1.378 1.378 0 11-2.756 0 1.378 1.378 0 012.756 0zM42.5 34.142c.572 0 1.108-.155 1.569-.426l.003.284h-.006a1.15 1.15 0 01-2.11.5h-1.754a3.001 3.001 0 002.83 2c1.506 0 2.968-1 2.967-2.5v-.008l.001-.94V28h-2l.004.33a3.1 3.1 0 10-1.504 5.811zm0-1.745a1.4 1.4 0 100-2.8 1.4 1.4 0 000 2.8z" fill="#fff"/></svg>