<!-- by TradingView --><svg width="56" height="56" xmlns="http://www.w3.org/2000/svg"><path fill="#08090D" d="M0 0h56v56H0z"/><path d="M5.893 30h.797l1.918-4h-.82l-1.496 3.191L4.822 26h-.82l1.891 4zM9.797 28.333l.819-1.706.819 1.706H9.797zM8.251 30h.814l.502-.996h2.123l.456.996h.807l-1.9-4h-.873L8.25 30zM13.507 30h.764v-4h-.764v4zM15.246 30H19v-.693h-3V26h-.754v4z" fill="#fff"/><path d="M21 27.782v-1.104h1.586c.625 0 .942.091.942.55 0 .462-.317.554-.942.554H21zM20.237 30H21v-1.582h1.32L23.459 30h.943L23.2 28.364c.576-.033 1.093-.431 1.093-1.153 0-.959-.668-1.21-1.594-1.21h-2.463v4zM25 30h3.708v-.7h-2.892v-1.033h2.445v-.657h-2.445v-.91h2.827V26H25v4zM33.094 26.996c-.097-.27-.388-1.05-2.074-1.05-.301 0-1.825 0-1.825 1.173 0 .598.506.992 1.41 1.116l.938.129c.56.07.85.237.85.49 0 .34-.516.544-1.141.544-1.034 0-1.325-.415-1.465-.7l-.738.231c.092.297.501 1.126 2.181 1.126 1.045 0 1.929-.345 1.929-1.271 0-.657-.517-.997-1.395-1.131l-.927-.14c-.78-.097-.878-.275-.878-.442 0-.36.523-.49 1.04-.49.932 0 1.25.302 1.373.652l.722-.237zM35.89 29.398c-.733 0-1.568-.302-1.568-1.411 0-.943.673-1.385 1.568-1.385.894 0 1.567.442 1.567 1.385 0 1.11-.835 1.41-1.567 1.41zm-2.333-1.368c0 .813.48 2.025 2.333 2.025 1.852 0 2.332-1.212 2.332-2.025 0-1.072-.609-2.085-2.332-2.085-1.724 0-2.333 1.013-2.333 2.085zM39.74 27.782v-1.104h1.398c.624 0 .942.091.942.55 0 .462-.318.554-.942.554h-1.399zM39 30h.74v-1.582h1.134L42.01 30h.943l-1.201-1.636c.576-.033 1.093-.431 1.093-1.153 0-.959-.668-1.21-1.594-1.21H39v4zM45 30h.843v-3.3h1.69v-.658h-4.205v.657H45V30zM51.935 26.996c-.097-.27-.388-1.05-2.073-1.05-.302 0-1.826 0-1.826 1.173 0 .598.506.992 1.41 1.116l.938.129c.56.07.851.237.851.49 0 .34-.517.544-1.142.544-1.034 0-1.325-.415-1.465-.7l-.738.231c.092.297.501 1.126 2.182 1.126 1.045 0 1.928-.345 1.928-1.271 0-.657-.517-.997-1.395-1.131l-.926-.14c-.782-.097-.878-.275-.878-.442 0-.36.522-.49 1.04-.49.93 0 1.249.302 1.373.652l.721-.237z" fill="#D1D1D3"/></svg>