<!-- by TradingView --><svg width="56" height="56" xmlns="http://www.w3.org/2000/svg"><path fill="#FBBA07" d="M0 0h56v56H0z"/><path d="M4.307 25h1.012l2.796 4.192 2.797-4.189h1.011V30h-.648v-4.392h-.014L8.347 30h-.463L4.97 25.608h-.013V30h-.65v-5zm12.045 0h.806l2.843 5h-.734l-.595-1.056h-3.834L14.243 30h-.734l2.843-5zm.403.552l-1.606 2.84h3.212l-1.606-2.84zm6.28 0h-2.42V25h5.488v.552h-2.42V30h-.648v-4.448zM27.762 25h.648v5h-.648v-5zm2.789 0h.966l4.385 4.392V25h.648v5h-.968l-4.386-4.392V30h-.645v-5zm10.425 0h.806l2.843 5h-.734l-.595-1.056h-3.834L38.867 30h-.734l2.843-5zm.403.552l-1.606 2.84h3.212l-1.606-2.84zm4.753 2.85h.608v.345a.846.846 0 00.053.314.497.497 0 00.175.22.878.878 0 00.324.134c.167.032.336.047.506.044h2.01a3.26 3.26 0 00.584-.044.921.921 0 00.376-.145.555.555 0 00.199-.277c.044-.142.065-.29.063-.438a1.226 1.226 0 00-.05-.378.474.474 0 00-.17-.237.75.75 0 00-.326-.124 3.17 3.17 0 00-.506-.033H48.75c-.493 0-.907-.014-1.242-.041a2.437 2.437 0 01-.81-.182.864.864 0 01-.439-.425c-.088-.193-.132-.448-.132-.768a1.63 1.63 0 01.122-.682.938.938 0 01.37-.415c.19-.111.4-.183.618-.212.289-.04.58-.06.873-.057h1.394c.332-.006.664.02.992.077.22.036.43.119.615.243.143.099.252.24.314.405.062.182.092.374.089.567v.168h-.608c0-.157-.016-.314-.047-.469a.426.426 0 00-.214-.28c-.117-.07-.296-.114-.536-.135a12.35 12.35 0 00-.994-.034h-.69c-.313 0-.577.008-.793.023a1.61 1.61 0 00-.522.112.573.573 0 00-.288.26 1.05 1.05 0 00-.09.475c-.002.123.013.246.044.365a.434.434 0 00.172.24c.11.07.235.114.364.131.202.03.406.044.61.04h1.918c.63 0 1.087.097 1.368.29.282.195.424.498.425.913v.32c0 .3-.055.537-.165.708a1.04 1.04 0 01-.439.384c-.195.09-.404.145-.617.162a7.085 7.085 0 01-.705.034h-1.798c-.227 0-.453-.014-.677-.044a1.65 1.65 0 01-.564-.175.996.996 0 01-.39-.375c-.097-.162-.145-.375-.146-.64v-.363z" fill="#060A30"/><path d="M4 35c7.68-2 14.66-3.018 23.984-3 9.324.018 16.26 1 24.016 3-7.975-1.003-15.977-1.95-24.016-2-7.992-.019-16.104.62-23.984 2z" fill="#fff"/></svg>