<!-- by TradingView --><svg width="56" height="56" xmlns="http://www.w3.org/2000/svg"><path fill="#B20838" d="M0 0h56v56H0z"/><path d="M46.929 28.185l-.177-.086s-.708 2.74-2.653 2.57v-.086c.146-.56.176-1.142.089-1.713-.089-1.113-1.503-2.055-2.299-2.569-.796-.514-.354-1.627-3.183-2.14 1.68-7.194-7.073-7.28-7.073-7.28C22.527 16.54 20.405 12 20.405 12l-.265.257s.354 6.166 8.399 8.22c-1.51.093-3.024-.11-4.451-.595a11.38 11.38 0 01-3.86-2.23l-.177.171s1.061 5.652 8.223 7.194c0 0-5.128.342-7.427-2.57l-.265.257s1.68 4.882 8.134 6.509c0 0 5.04 1.284 3.448 7.792.068.007.13.037.177.086l-5.57-2.911-.265.685-3.183-1.97c.265-.428.442-.77.442-.77l-1.415-.429c-3.006 5.053-7.957 1.285-7.957 1.285a5.196 5.196 0 01-1.909 1.179 5.328 5.328 0 01-2.246.277c3.006-.514 3.802-2.141 3.802-2.141l.088-.172c.345.1.701.158 1.06.172 2.123 0 2.565-2.227 2.565-2.227a3.51 3.51 0 011.087-1.532 3.678 3.678 0 011.742-.78c.354-.086 1.591-.171 1.591-.171l-.088-.172s-1.061-1.712-5.747-2.654c0 0-3.802-.6-5.481-2.655l-.177.257c.191.24.398.47.619.685a15.583 15.583 0 007.515 3.597l.442.085c-2.299.514-2.83 3.768-2.83 3.768-.441 1.884-2.298.942-2.298.942l-.442-.171s-1.15 2.997-4.156 2.655L9 35.12a6.684 6.684 0 002.835-.013 6.57 6.57 0 002.558-1.185c4.686 2.569 7.338.856 8.488-.514l4.067 2.483.088-.514 7.338 4.453c.26.463.467.951.62 1.456l.618-.685L39.502 43v-2.055l-2.564-1.456.973-1.028.707-.685 1.768.6.707-.257c.181-.713.448-1.403.796-2.056l.707-.684s.177-.258.443-.6l.353-.086.354-1.541c1.15-.257 3.713-1.028 3.183-4.967zm-6.985 6.68s-.177-.172.088-.428c0 0 .443-.257-1.237-1.028 0 0 1.856.428 2.033 1.199.177.77-.353.856-.884.257zm.442-2.398s-3.978-.6-2.475-4.967h.176s.177 2.997 2.476 2.655a1.92 1.92 0 01-.177 2.312z" fill="#fff"/></svg>