<!-- by TradingView --><svg xmlns="http://www.w3.org/2000/svg" width="56" height="56"><path fill="#0E3A6E" d="M0 0h56v56H0z"/><path d="M28 14.44a.94.94 0 01-.93-.92c0-.5.42-.93.93-.93.5 0 .92.42.92.93 0 .5-.4.92-.92.92zm2.63-.24a.62.62 0 110-1.26c.33 0 .62.27.62.63 0 .35-.27.62-.62.62zm-5.26 0a.62.62 0 110-1.26c.33 0 .62.27.62.63a.63.63 0 01-.62.62zm.77-2.6a.62.62 0 01.22-.85c.3-.17.68-.07.84.22.17.3.07.68-.22.84a.6.6 0 01-.84-.22zm2.63-.61a.6.6 0 01.84-.22c.3.17.4.56.22.84a.6.6 0 01-.84.22.63.63 0 01-.22-.84z" fill="#02ADF6"/><path d="M27.22 16.16a.6.6 0 01-.84.22.6.6 0 01-.22-.84.6.6 0 01.84-.22c.29.17.39.56.22.84z" fill="#74D4FF"/><path d="M29.85 15.56c.17.3.07.67-.22.84a.62.62 0 01-.84-.22.62.62 0 01.22-.84.6.6 0 01.84.22zM28 43.29a.94.94 0 01-.93-.93c0-.5.42-.93.93-.93.5 0 .92.42.92.93 0 .5-.4.93-.92.93zm2.63-.24a.62.62 0 110-1.25.62.62 0 110 1.25zm-5.26 0a.62.62 0 110-1.25c.33 0 .62.27.62.63-.02.33-.29.62-.62.62zm.77-2.6a.62.62 0 01.22-.84c.3-.17.68-.07.84.22.17.3.07.68-.22.84a.63.63 0 01-.84-.22zm2.63-.62a.6.6 0 01.84-.22c.3.17.4.56.22.84a.6.6 0 01-.84.22.62.62 0 01-.22-.84zm-1.55 5.19a.6.6 0 01-.84.22.6.6 0 01-.22-.84.6.6 0 01.84-.22c.29.17.39.54.22.84zm2.63-.62c.17.3.07.67-.22.84a.62.62 0 01-.84-.22.62.62 0 01.22-.84.6.6 0 01.84.22z" fill="#02ADF6"/><path d="M18.8 37.84a.93.93 0 01.35-1.26.93.93 0 011.26.33.93.93 0 01-.34 1.27c-.43.25-1 .1-1.26-.34zm-4.14 2.41A.93.93 0 0115 39a.93.93 0 011.26.34.93.93 0 01-.33 1.26.92.92 0 01-1.27-.34zm8.31 4.72a.93.93 0 01.34-1.26.93.93 0 011.26.34.93.93 0 01-.33 1.26.93.93 0 01-1.27-.34zm.37-4.41a.93.93 0 01.34-1.27.93.93 0 011.27.34.93.93 0 01-.34 1.26.9.9 0 01-1.27-.33zm-1.58-2.33a.62.62 0 01.22-.84c.3-.17.67-.07.84.22.17.3.07.67-.22.84a.6.6 0 01-.84-.22zm-3.71 2.41a.78.78 0 111.35-.78.78.78 0 11-1.35.78zm3.71 2.12a.62.62 0 01.22-.84c.3-.17.67-.07.84.22.17.3.07.67-.22.84a.6.6 0 01-.84-.22z" fill="#fff"/><path d="M14.93 35.99a.94.94 0 01-.93-.93c0-.52.43-.93.93-.93s.93.42.93.93a.9.9 0 01-.93.93zm2.65-.24a.62.62 0 110-1.25.62.62 0 010 1.25zm-5.28 0a.62.62 0 110-1.25.62.62 0 110 1.25zm1.86 1.97a.6.6 0 01-.85.22.6.6 0 01-.22-.84.6.6 0 01.85-.22c.28.15.38.54.22.84zm2.63-.62c.16.3.06.67-.22.84a.62.62 0 01-.85-.22.62.62 0 01.22-.84.6.6 0 01.85.22z" fill="#02ADF6"/><path d="M17.63 43.08a.62.62 0 110-1.24.62.62 0 110 1.24zm2.57 1.24a.47.47 0 01-.46-.48c0-.27.2-.47.47-.47.27 0 .47.2.47.47 0 .27-.22.48-.47.48z" fill="#74D4FF"/><path d="M21.2 40.78a.47.47 0 01-.47-.48c0-.27.2-.47.47-.47.27 0 .47.2.47.47 0 .27-.21.48-.47.48z" fill="#02ADF6"/><path d="M18.8 18.17a.93.93 0 00.35 1.26.93.93 0 001.26-.33.93.93 0 00-.34-1.27.9.9 0 00-1.26.34zm-4.14-2.43a.93.93 0 00.34 1.27.93.93 0 001.26-.34.93.93 0 00-.33-1.27.93.93 0 00-1.27.34zm8.31-4.7a.93.93 0 00.34 1.26.93.93 0 001.26-.33.93.93 0 00-.33-1.27.9.9 0 00-1.27.34zm.37 4.4a.93.93 0 00.34 1.26.93.93 0 001.27-.33.93.93 0 00-.34-1.27.92.92 0 00-1.27.34z" fill="#fff"/><path d="M21.76 17.76c-.17.3-.07.68.22.85.3.17.67.07.84-.22a.62.62 0 00-.22-.84.6.6 0 00-.84.21z" fill="#74D4FF"/><path d="M18.05 15.35a.78.78 0 101.35.78.78.78 0 00-.29-1.06.8.8 0 00-1.06.28zm3.71-2.12c-.17.3-.07.67.22.84.3.17.67.07.84-.22a.62.62 0 00-.22-.84.62.62 0 00-.84.22z" fill="#fff"/><path d="M14.93 20c-.5 0-.93.43-.93.93 0 .53.43.93.93.93s.93-.42.93-.93a.91.91 0 00-.93-.92z" fill="#02ADF6"/><path d="M11.37 23.17a.92.92 0 000 1.85c.51 0 .93-.42.93-.93a.91.91 0 00-.93-.92zm4.49 1.42c-.5 0-.93.42-.93.92 0 .53.42.93.93.93.5 0 .93-.42.93-.93a.91.91 0 00-.93-.92zm0 5.01c-.5 0-.93.42-.93.92 0 .53.42.93.93.93.5 0 .93-.42.93-.93a.91.91 0 00-.93-.92zm-4.49 1.37a.92.92 0 000 1.85c.51 0 .93-.42.93-.93a.91.91 0 00-.93-.92z" fill="#74D4FF"/><path d="M17.58 20.26a.62.62 0 100 1.25.62.62 0 100-1.25zm-5.28 0a.62.62 0 100 1.25.62.62 0 100-1.25zm1.31 2.28a.62.62 0 100 1.25.62.62 0 100-1.25z" fill="#02ADF6"/><path d="M12.54 25.61a.62.62 0 100 1.25.62.62 0 100-1.25z" fill="#74D4FF"/><path d="M10.62 27.35a.62.62 0 100 1.25.62.62 0 100-1.25z" fill="#fff"/><path d="M12.54 29.07a.62.62 0 10.62.62.62.62 0 00-.62-.62z" fill="#74D4FF"/><path d="M13.61 27.35a.62.62 0 100 1.25.62.62 0 100-1.25z" fill="#fff"/><path d="M16.79 27.35a.62.62 0 100 1.25.62.62 0 100-1.25z" fill="#74D4FF"/><path d="M13.61 32.2a.62.62 0 100 1.24.62.62 0 100-1.24zm2.62-.03a.62.62 0 100 1.25.62.62 0 100-1.25zm-.51-8.69c.17.3.56.4.85.22a.6.6 0 00.22-.84.6.6 0 00-.85-.22c-.28.15-.38.54-.22.84zm-1.56-5.19a.6.6 0 00-.85-.22.6.6 0 00-.22.84c.17.3.56.4.85.22a.63.63 0 00.22-.84zm2.63.62a.62.62 0 00-.22-.84.62.62 0 00-.85.22c-.16.3-.06.67.22.84.3.17.68.07.85-.22z" fill="#02ADF6"/><path d="M17.63 12.93a.62.62 0 100 1.24c.34 0 .62-.27.62-.62a.61.61 0 00-.62-.62zm2.57-1.25a.47.47 0 100 .94c.28 0 .48-.2.48-.47a.48.48 0 00-.47-.47z" fill="#74D4FF"/><path d="M21.2 15.22a.47.47 0 100 .94c.27 0 .47-.2.47-.47a.47.47 0 00-.47-.47z" fill="#02ADF6"/><path d="M37.18 37.84a.93.93 0 00-.33-1.26.93.93 0 00-1.27.33.93.93 0 00.34 1.27c.44.25 1 .1 1.26-.34zm4.15 2.41a.93.93 0 00-.34-1.26.93.93 0 00-1.26.34.93.93 0 00.34 1.26.92.92 0 001.26-.34zm-8.31 4.72a.93.93 0 00-.34-1.26.93.93 0 00-1.26.34.93.93 0 00.34 1.26.93.93 0 001.26-.34zm-.37-4.41a.93.93 0 00-.34-1.27.93.93 0 00-1.26.34.93.93 0 00.33 1.26.9.9 0 001.27-.33zm1.6-2.33a.62.62 0 00-.22-.84.62.62 0 00-.84.22c-.17.3-.07.67.22.84.28.18.65.08.84-.22zm3.69 2.41a.78.78 0 10-1.35-.78.78.78 0 101.35.78zm-3.69 2.12a.62.62 0 00-.22-.84.62.62 0 00-.84.22c-.17.3-.07.67.22.84.28.19.65.09.84-.22z" fill="#fff"/><path d="M41.06 35.99c.5 0 .93-.42.93-.93a.92.92 0 00-.93-.93c-.5 0-.93.42-.93.93 0 .52.4.93.93.93zm-2.65-.24a.62.62 0 100-1.25.62.62 0 00-.62.63c.02.34.29.62.62.62zm5.28 0zm-.77-2.59a.62.62 0 00-.22-.85.62.62 0 00-.85.22c-.17.3-.06.68.22.84.29.17.68.07.85-.21zm-2.65-.63a.6.6 0 00-.84-.22.6.6 0 00-.22.85c.16.3.55.4.84.21a.6.6 0 00.22-.84zm1.57 5.19c.16.3.55.4.84.22a.6.6 0 00.22-.84.6.6 0 00-.84-.22c-.3.15-.4.54-.22.84zm-2.64-.62c-.16.3-.06.67.23.84.3.17.67.07.84-.22a.62.62 0 00-.22-.84.6.6 0 00-.84.22z" fill="#02ADF6"/><path d="M43.5 30.36a.62.62 0 100-1.25.62.62 0 100 1.25zm-5.14 12.72a.62.62 0 100-1.24.62.62 0 100 1.24zm-2.58 1.24c.26 0 .48-.2.48-.48 0-.27-.2-.47-.48-.47a.47.47 0 100 .95zm8.91-11.48c.5 0 .92-.43.92-.93a.92.92 0 00-.92-.93c-.51 0-.93.42-.93.93 0 .52.42.93.93.93zm-4.47-1.42c.5 0 .93-.42.93-.93a.92.92 0 00-.93-.93c-.5 0-.93.43-.93.93s.42.93.93.93z" fill="#74D4FF"/><path d="M34.79 40.78c.25 0 .47-.2.47-.48 0-.27-.2-.47-.47-.47a.47.47 0 100 .95z" fill="#02ADF6"/><path d="M37.18 18.17a.93.93 0 01-.33 1.26.93.93 0 01-1.27-.33.93.93 0 01.34-1.27.9.9 0 011.26.34zm4.15-2.43a.93.93 0 01-.34 1.27.93.93 0 01-1.26-.34.93.93 0 01.34-1.27.93.93 0 011.26.34zm-8.31-4.7a.93.93 0 01-.34 1.26.93.93 0 01-1.26-.33.93.93 0 01.34-1.27.9.9 0 011.26.34zm-.37 4.4a.93.93 0 01-.34 1.26.93.93 0 01-1.26-.33.93.93 0 01.33-1.27.92.92 0 011.27.34zm1.6 2.32c.17.3.07.68-.22.85a.62.62 0 01-.84-.22.62.62 0 01.22-.84c.28-.19.65-.09.84.21zm3.69-2.41a.78.78 0 11-1.35.78.78.78 0 01.29-1.06.8.8 0 011.06.28zm-3.69-2.12c.17.3.07.67-.22.84a.62.62 0 01-.84-.22.62.62 0 01.22-.84.63.63 0 01.84.22z" fill="#fff"/><path d="M41.06 20c.5 0 .93.43.93.93 0 .53-.42.93-.93.93a.94.94 0 01-.93-.93c0-.5.4-.92.93-.92zm-2.65.26a.62.62 0 110 1.25.62.62 0 01-.62-.63.63.63 0 01.62-.62zm5.28 0a.62.62 0 110 1.25.62.62 0 110-1.25zm-.77 2.6c.16.3.06.67-.22.84a.62.62 0 01-.85-.22.62.62 0 01.22-.84.6.6 0 01.85.22zm-2.65.62a.6.6 0 01-.84.22.6.6 0 01-.22-.84.6.6 0 01.84-.22c.3.15.4.54.22.84zm1.57-5.19a.6.6 0 01.84-.22c.3.17.4.55.22.84a.6.6 0 01-.84.22.63.63 0 01-.22-.84zm-2.64.62a.62.62 0 01.23-.84c.3-.17.67-.07.84.22.17.3.07.67-.22.84a.62.62 0 01-.84-.22z" fill="#02ADF6"/><path d="M43.5 25.64a.62.62 0 110 1.24.62.62 0 110-1.24zm-5.14-12.71a.62.62 0 110 1.24.62.62 0 01-.62-.62c0-.35.27-.62.62-.62zm-2.58-1.25a.47.47 0 110 .94.47.47 0 01-.47-.47c0-.25.22-.47.47-.47zm8.91 11.48c.5 0 .92.42.92.93 0 .52-.42.92-.92.92a.94.94 0 01-.93-.92c0-.5.42-.93.93-.93zm-4.47 1.44a.92.92 0 010 1.85.94.94 0 01-.93-.93c0-.52.42-.93.93-.93z" fill="#74D4FF"/><path d="M34.79 15.22a.47.47 0 110 .94.47.47 0 110-.94z" fill="#02ADF6"/><path d="M39.22 28.62a.62.62 0 100-1.25.62.62 0 100 1.25z" fill="#74D4FF"/><path d="M42.4 28.62a.62.62 0 100-1.25.62.62 0 100 1.25zm2.98 0a.62.62 0 100-1.25.62.62 0 00-.63.63c0 .35.27.62.63.62zM20 34h1v-5.62c0-2.23.58-5.38 3.52-5.38 2.5 0 2.98 3.2 2.98 5v6h1v-4.43c0-2.3.36-6.57 3.5-6.57 2.35 0 3 2.53 3 4.29V34h1v-6.39c0-1.45-.14-2.56-.4-3.28A3.65 3.65 0 0032.22 22a4.53 4.53 0 00-4.1 3.05C27.66 23.48 26.4 22 24.65 22c-1.62 0-2.63.59-3.64 2v-2h-1v12z" fill="#fff"/></svg>