<!-- by TradingView --><svg width="56" height="56" xmlns="http://www.w3.org/2000/svg"><path fill="#0B3666" d="M0 0h56v56H0z"/><path d="M9 30H8v3h1v-3zM21 29.334c0-.982-.493-1.334-1.441-1.334-.768 0-1.559.239-1.559 1h-1.004c.058-1.24 1.163-2 2.563-2 1.2 0 2.441.42 2.441 2v4h-1c-.024-.26.011-.74 0-1-.361.71-1.196 1-2 1-1.014 0-2.004-.508-2.004-1.613 0-1.59 1.458-2.053 2.844-2.053H21zm-1.266.745c-.676.034-1.734.31-1.734 1.134 0 .7.864.793 1.321.787 1.277-.017 1.679-.613 1.679-2l-1.266.08zM27.492 27c1.395 0 2.508.516 2.508 2h-1c.049-.723-.76-1.003-1.508-1.003-.747 0-1.492.173-1.492.715 0 .633 1.36.646 1.794.768 1.024.317 2.206.429 2.206 1.704C30 32.663 28.555 33 27.313 33c-1.266 0-2.327-.692-2.313-2h1c.023.7.794 1 1.492 1 .838 0 1.508-.266 1.508-.748 0-1.263-3.881-.328-3.881-2.54-.003-1.18 1.275-1.712 2.373-1.712zM34 26h-3v-1h7v1h-3v7h-1v-7zM49.64 32.223c-1.062 0-1.471-.892-1.471-2.222s.409-2.222 1.47-2.222c.64 0 .988.323 1.13.817H51.9C51.682 27.599 50.822 27 49.722 27 47.864 27 47 28.387 47 30.045c0 1.668.748 2.955 2.629 2.955 1.296 0 2.278-.777 2.371-2.053h-1.11c-.059.813-.516 1.276-1.25 1.276zM43 31c-.211.405-.517 1.122-1.444 1.029-1.065 0-1.635-.709-1.559-2.029h4s.202-3-2.441-3C39.812 27 39 28.343 39 30c0 1.67.79 3 2.556 3 1.433 0 2.454-1.19 2.444-2h-1zm-1.444-3.133c.933 0 1.433.574 1.433 1.133h-2.992c0-.573.626-1.133 1.559-1.133zM11.995 25l-.843 3h-.258l-.89-3H8v4h.996v-2.534h.326l1.3 3.534h.743l1.34-3.534h.297v6.53H14V25h-2.005zM8 28.998H7v1h1v-1zM3.998 28.998h-1v1h1v-1zM5.999 27h-1v1h1v-1zM5.999 31h-1v1h1v-1z" fill="#fff"/></svg>