<!-- by TradingView --><svg width="56" height="56" xmlns="http://www.w3.org/2000/svg"><path fill="#17365E" d="M0 0h56v56H0z"/><path d="M37.98 28.515c0 3.956 3.175 6.887 8.015 9.378l-.604.88c-3.024-2.345-9.831-2.93-12.855-.732-2.723 1.905-4.235 6.3-4.084 9.964h-.757c.152-3.663-1.058-8.06-3.78-9.964-3.176-2.344-10.133-1.759-13.159 1.026l-.756-.88c4.084-2.052 7.864-5.42 7.864-9.525 0-3.955-3.327-6.904-7.864-8.662l.303-1c3.327 2.051 9.225 2.189 11.796.577C24.973 17.819 27.846 12.69 27.694 8h.757c-.151 3.81 1.815 10.112 5.293 12.016 3.328 1.758 8.916 1.33 11.942-1.016l.314.875c-4.082 1.61-8.02 4.683-8.02 8.64zm-9.832-7.034c-2.42 0-4.385 2.784-4.385 6.301 0 3.517 1.965 6.448 4.385 6.448s4.234-2.93 4.234-6.448c.002-3.517-1.814-6.301-4.234-6.301z" fill="#FF3E3B"/></svg>