<!-- by TradingView --><svg xmlns="http://www.w3.org/2000/svg" width="56" height="56"><path fill="#F0F3FA" d="M0 0h56v56H0z"/><path fill-rule="evenodd" d="M27 45a14 14 0 100-28 14 14 0 000 28zm0 1a15 15 0 100-30 15 15 0 000 30z" fill="#A18C5E"/><path d="M22.39 37.52c-.74.5-3.36 3-4.53 4.15l.35.32 4.61-4.04-.43-.43z" fill="#B56D23"/><path d="M23.15 38.16l-4.21 4.37-.73-.54 2.8-2.79a5.73 5.73 0 011.82-1.25l.32.21z" fill="#C78544"/><path d="M21.79 36.52l-4.31 4.84.38.32 4.54-4.15c-.16-.43-.61-1-.61-1z" fill="#C7893C"/><path d="M19.29 34l-4.64 3.62.42.74 4.91-3.88-.69-.48z" fill="#F7D192"/><path d="M25.6 29.04l-11.14 8.21.2.38c3.64-2.77 10.75-8.18 10.94-8.29a4.8 4.8 0 001.27-1.57c.16-.49.51-.92.76-1.17.24-.24.59-.62.59-1.03 0-.32.4-.55.6-.62.47 0 1-.34 1.2-.51.35-.52 1.1-.53 1.44-.46h2.97l2 2 .26 1.52c.19.37.53 1.2.43 1.54-.11.44-.75.76-.91.98-.13.17-.85.86-1.2 1.19l-.58.16v.46l-3.3 2.41c-1.04.01-3.25.06-3.75.17-.5.1-.65.37-.67.48l.4-.16 4.02-.19c1.27-.73 5.56-4.04 6-5.2.34-.93-.15-1.83-.44-2.17v-1.19l-2.05-2.2c-.78.04-2.51.1-3.18 0-.84-.1-1.38.14-1.6.47-.21.32-.8.38-1.05.46-.24.08-.7.48-.8.86-.1.3-.46.82-.63 1.03-.18.14-.56.53-.67 1-.1.48-.78 1.16-1.1 1.44z" fill="#E8B77C"/><path d="M35.6 26.9l.85-.9.74 2.91c-.74-.7-1.3-1.27-1.58-1.47v-.53z" fill="#B66E30"/><path d="M16.86 36.82c-.52.65-1.4 1.18-1.8 1.54a21.35 21.35 0 002.42 3l4.32-4.83a5.39 5.39 0 00-2-2.23c.06.1-.1.49-1.16 1.14a7.94 7.94 0 00-1.78 1.38z" fill="#E8B46B"/><path d="M37.17 28.85l-1.5-1.4-.06-.46.86-1-2.24-2.05c-.82 0-2.87-.06-3.35-.04-.5.02-1.31.73-1.82 1.03-.8-.2-1.26 1.37-1.64 1.85-.3.39-1.15 1.7-1.56 2.35l-2.96 2.23c.42.09 2.02 1.37 2.76 2.02l2.63-2.1-.71-.36c.6-.35 1.6-1.8 2.06-2.58.57.3 1.24.76 1.47.98 1.78.17 5.36.42 5.56.34.2-.09.5-.4.5-.8z" fill="#E6B46D"/><path d="M28.2 31.28l-2.62 2.16.96 1.25 4.7-.45 3.53-2.68 1.93-1.95-2.98-.2-2.49-.13-1.57-1.06-2.13 2.7.68.36z" fill="#CB893E"/><path d="M29.21 25.1a8.95 8.95 0 01-1.32 1.8 5.25 5.25 0 001.63-1.8c0-.16-.2-.06-.3 0zm-1.34 4.24l.94-1.02c0 .33-.61 1.02-.94 1.17-.34.16-.84.16-1.07.18-.18.02-1.15.49-1.6.72l1.42-1.05c.2-.14.91-.06 1.25 0zm6.7-1.57c-.98.34-2.52 0-3.16-.2.55.48 1.75.6 2.28.6l-.67.89 1.55-1.29z" fill="#B66E30"/><path d="M23.4 31.6c.32-.2 1.66-1.56 2.26-2.17l-2.7 1.93.44.24zm10.5-2.58a2.87 2.87 0 011.34-1.07c.9.34 1.74 1.24 1.04 1.58-.7.34-1.04.84-1.04 1.1 0 .2-.43.21-.65.2-.36-.37-1.01-1.24-.7-1.8zm-4.1-3.68v-.65l1.14-.55h3.23l-2.84 1.78-.52-.58h-1zm1.67 2.72c.3.08 1.25.25 1.68.33 0 .26-.2.75-.97.65-.98-.13-1.08-1.09-.71-.98z" fill="#F7D192"/><path d="M29.78 30.7c-.33 0-1.16.25-1.53.37h1.24c.07.87.98 1.16 1.43 1.2 1.94.05 2.7-.81 2.96-.92.25-.1 0-1.01-.6-.65-.48.3-1.4.23-1.79.16-.43-.05-1.38-.16-1.71-.16z" fill="#E6B46D"/><path d="M28.2 33.04c-.33 0-1.33.63-1.79.94.23 0 1.11 0 1.63-.26.42-.2 1.3-.38 1.69-.44.08-.34.08-1.03-.55-1.1-.62-.06-.91.55-.98.86z" fill="#B66E30"/><path d="M29.84 39.2c-2.84-5.4-5.96-7.57-7.23-7.97l-.58.32c3.5 1.35 8.68 8.98 7.36 9.37-1.06.3-1.48-.44-1.55-.85.07-1.17-1-2.95-1.55-3.7l-.26.56c.43.64 1.3 2.1 1.32 2.69.03.6-.31.36-.48.16l-1.68-2.17-.33.45c.87 1.16 2.93 3.47 4.3 3.47 1.37 0 1.03-1.55.68-2.33z" fill="#A18C5E"/><path d="M22.42 37.57c-1.47-2.68-3.05-3.58-3.66-3.7l.44-.3c.05-.36.2-.67.26-.79a1.65 1.65 0 011.38-.3l1.19-.94c1.2.54 2.54 1.57 3.06 2.03.83.55 2.11 2.08.62 3.77-1.5 1.69-2.82.86-3.3.23z" fill="#EBD453"/><path d="M23.12 37.55a53.6 53.6 0 00-2.39-3.26l1.5 1.23 1.8-1.75a5.57 5.57 0 00-2.08-1.45l.29-.16c1.5.47 3.4 2.47 3.5 2.65.1.19.67.97-.42 2.22-.87 1-1.83.76-2.2.52z" fill="#884928"/><path d="M24.03 34.94l-1.4 1.36c.8 1.93 2.2.81 2.68.19.38-.5.1-.62-.1-.6-.7.4-1.25.16-1.44 0 .64.06 1.3-.3 1.06-.79-.19-.4-.61-.27-.8-.16z" fill="#EBD453"/><circle cx="22.29" cy="33.46" fill="#fff" r=".21"/><circle cx="19.92" cy="33.08" fill="#fff" r=".21"/><circle cx="24.12" cy="35.5" fill="#fff" r=".21"/><path d="M23.18 33.6c-.46.7-1.11.33-1.41.09 0 .78.71.83 1.07.76l-.88.85.27.23 1.8-1.75a4.16 4.16 0 00-1.48-1.18l-.35.26c.54-.06 1.44.05.98.74z" fill="#B2842C"/><path d="M32.72 24.3c.2 0 .54.28.68.42-.3.53-1.03 1.53-1.62 1.27-.74-.32-.61-1.69-.39-1.69.18 0 .34.28.39.42.23-.26.68-.42.94-.42z" fill="#C98B38"/><path d="M31.72 25.92l5.65-4.64 1.8 2.02-4.03 3.82c-2.63.96-3.38-.4-3.42-1.2z" fill="#423932"/><path d="M32.4 26.33c.32-.69 3.42-3.23 4.93-4.4l.66.78c-1.07 1.21-3.27 3.7-3.57 3.97-.3.27-.29-.3-.24-.62-.52.9-2.2 1.13-1.79.27z" fill="#6A635D"/><path d="M33.39 25.2c.22-.64 2.7-2.84 3.91-3.86l.17.37c-1.26 1.1-3.83 3.35-4.08 3.49z" fill="#C0B7B2"/><path d="M46.68 14.2l-7.15 5.7 1.03 1.06 7.26-5.8a.72.72 0 000-.95c-.32-.38-.9-.16-1.14 0z"/><ellipse rx="1.83" ry="2.26" transform="matrix(.7733 -.63404 .63093 .77584 39.07 21.33)" fill="#FAEC34"/><ellipse rx="1.83" ry="2.26" transform="matrix(.7733 -.63404 .63093 .77584 43.09 17.83)" fill="#FAEC34"/><circle cx="38.48" cy="20.69" fill="#fff" r=".59"/><circle cx="42.49" cy="17.24" fill="#fff" r=".59"/><path d="M17.68 12.09c17.21-.8 24.85.44 29.96 1.99l-.71 1.13c-4.6-1.6-12.08-1.98-14.49-1.98-4.63-.2-12.23.08-15.45.25l.69-1.4z"/><circle cx="23.54" cy="12.46" r="1.06" fill="#FAEC34"/><circle cx="26.5" cy="12.46" r="1.06" fill="#FAEC34"/><circle cx="29.46" cy="12.46" r="1.06" fill="#FAEC34"/></svg>