<!-- by TradingView --><svg width="56" height="56" xmlns="http://www.w3.org/2000/svg"><path fill="#F0F3FA" d="M0 0h56v56H0z"/><rect x="4" y="22" width="48" height="14" rx="1" fill="#EE3342"/><rect x="5" y="23" width="46" height="12" rx="1" fill="#F0F3FA"/><path d="M8 25.944V32h1v-4.5l2 2.5 2-2.5V32h1v-6.056h-1L11 28.5l-2-2.556H8zM27 26h-4v6h4v-1h-3v-2h2.5v-1H24v-1h3v-1zM43 26h-4v6h4v-1h-3v-2h2.5v-1H40v-1h3v-1zM29 32v-6h1v5h2v1h-3zM34 32v-6h1v5h2v1h-3zM17 26h-1v3.672c0 1.5 1.3 2.5 2.5 2.5s2.5-1 2.5-2.5V26h-1v3.672c0 2-3 2-3 0V26z" fill="#020303"/><path d="M45 32v-6h2.5c2 0 1.5 3.5 0 3.5L49 32h-1.5l-1-2.5H46V32h-1zm1-5v1.5h1c.869 0 1-1.5 0-1.5h-1z" fill="#020303"/></svg>