<!-- by TradingView --><svg xmlns="http://www.w3.org/2000/svg" width="56" height="56"><path fill="#60BB46" d="M0 0h56v56H0z"/><path d="M6 24H4v8h2v-4.54c0-.41.28-1.46 1.4-1.46.91 0 1.1.94 1.1 1.46V32h2v-4.34c0-.8.53-1.7 1.5-1.66.78.03 1 .7 1 1.14V32h2v-5.57c-.04-1.01-.74-2.43-2.4-2.43-1.34 0-2.18.83-2.44 1.25-.28-.37-.74-1.19-2.09-1.25a2.6 2.6 0 00-2.07.91V24zm28 0h-2v8h2v-4.54c0-.41.28-1.46 1.4-1.46.91 0 1.1.94 1.1 1.46V32h2v-4.34c0-.8.53-1.7 1.5-1.66.78.03 1 .7 1 1.14V32h2v-5.57c-.04-1.01-.74-2.43-2.4-2.43-1.34 0-2.18.83-2.44 1.25-.28-.37-.74-1.19-2.09-1.25a2.6 2.6 0 00-2.07.91V24zm-16.49 0h-1.99l2.76 6.82L16.33 35h2.06l5.02-11h-2.05l-1.98 4.38L17.5 24z" fill="#253746"/><path fill-rule="evenodd" d="M27 32a4 4 0 100-8 4 4 0 000 8zm0-2a2 2 0 10-2-2c0 1.1.9 2 2 2z" fill="#fff"/><path fill-rule="evenodd" d="M48 32a4 4 0 100-8 4 4 0 000 8zm0-2a2 2 0 10-2-2c0 1.1.9 2 2 2z" fill="#253746"/></svg>