<!-- by TradingView --><svg width="56" height="56" xmlns="http://www.w3.org/2000/svg"><path fill="#F0F3FA" d="M0 0h56v56H0z"/><path d="M28.25 44L23 34.5l5.25-9.5h10.5L44 34.5 38.75 44h-10.5zm9-2l4.17-7.578L37.25 27h-7.575l-4.087 7.422L29.675 42h7.575z" fill="#FF9D03"/><path d="M29 23l-5-6 5-5h10l5 5-5 6H29zm9-2l3.197-4L38 14h-8l-3.197 3L30 21h8z" fill="teal"/><path d="M12.915 37L8 30.855l5.135-9.702L22.085 18 27 23.983l-5.282 9.864L12.915 37zm7.488-5.107l4.105-7.643-3.037-3.739-6.977 2.537-3.972 7.477 3.071 3.839 6.81-2.47z" fill="#FF7200"/></svg>