<!-- by TradingView --><svg width="56" height="56" xmlns="http://www.w3.org/2000/svg"><path fill="#0054A4" d="M0 0h56v56H0z"/><path d="M11.003 31.288c0 3.94 1.26 7.45 1.891 8.712h26.111c-.429-2.066-1.948-5.024-2.653-6.244 4.612 2.215 8.11 2.396 9.283 2.21.273-2.584-.326-4.542-.66-5.198 2.753-4.061 2.114-6.7 1.45-7.512-1.068-.615-3.542-1.95-4.891-2.376-1.35-.424-2.838-1.39-3.413-1.821-2.083-1.77-4.422-2.24-5.332-2.254-1.93 0-6.17-.292-7.681-1.46-1.512-1.17-3.009-1.378-3.568-1.336-7.472 1.836-10.537 12.354-10.537 17.279z" fill="#fff"/><path d="M13.278 29.715c.06 3.908 2.01 8.496 2.977 10.285h10.842c-.928-.9-1.68-3.754-1.71-5.493-.022-1.392.584-3.774.89-4.791.61-1.783 1.863-5.703 1.986-7.123.153-1.776-1.137-2.65-1.222-2.768-.085-.118-.136-.323 0-.44.11-.093.383.039.506.117.741.314 2.753 2.633 1.139 7.001-1.292 3.495-1.597 6.211-1.589 7.133C27.23 36.61 29.775 40 31.306 40c1.225 0 1.322-1.763 1.217-2.627-.423-3.527-2.748-9.683-2.748-9.881 0-.198-.155-.945.31-.989.37-.035.596.465.662.72.23.996.561 1.664.698 1.874 3.08 5.557 3.315 9.595 3.047 10.903h1.936c.186-5.95-4.65-12.58-4.69-12.778-.04-.199-.18-.837.22-.994.32-.125.607.324.71.564 1.281 3.582 2.594 4.996 3.09 5.255 2.203 1.658 6.625 2.22 8.56 2.294 0-1.391-.52-2.553-.781-2.96-2.263-.178-2.506.962-2.345 1.554l-1.154-.259c-.953-2.22 2.258-2.726 3.983-2.702 1.004-1.739 2.79-5.513-1.564-7.068-3.483-1.243-5.918-2.787-6.7-3.404l.67.814c-.446.444-.31.802-.185.925.893.777 1.377 1.554 1.489 2.628.089.858-.46 2.035-.745 2.516h-2.494c1.251-1.036 1.564-1.912 1.564-2.22-.09-1.037-1.551-2.209-2.27-2.665l.706-1.37c-1.756-1.864-8.35-3.219-11.426-3.663 0-.246-.327-.747-1.637-.777-1.638-.037-3.909 1.702-5.993 5.551-1.667 3.079-2.134 6.933-2.158 8.474z" fill="#0054A4"/><path d="M14.743 27.87c-.112 4.265 2.43 9.877 3.715 12.13h4.437c-8.65-11.348-5.979-16.877-5.792-17.374.15-.397-.226-.433-.432-.4-.596.104-1.816 1.379-1.928 5.644zm3.531-5.425c.202 1.994 2.967 5.207 4.324 6.564l1.248-2.75c-4.532-1.738-4.646-4.442-4.631-4.692.014-.25-.058-.435-.267-.5-.184-.058-.395.111-.476.235-.26.454-.22.925-.198 1.143zm1.62-2.893c1.587-.445 4.938.435 6.705 1.193l-1.55 2.721c-2.826-3.81-5.402-2.827-5.631-2.722-.229.106-.428.106-.566-.063-.122-.15-.04-.406.046-.526.33-.407.784-.543.996-.603z" fill="#fff"/></svg>