<!-- by TradingView --><svg width="56" height="56" xmlns="http://www.w3.org/2000/svg"><path fill="url(#paint0_linear)" d="M0 0h56v56H0z"/><path d="M8.004 20v9H11v-5.543l.002-.01c.072-.488.22-1.474 1.17-1.447.957.028.828.996.828 1.457V29h2.996a557.44 557.44 0 000-6.079c-.018-1.312-.434-2.832-2.627-2.918-1.755-.07-2.604 1.076-2.81 1.658V20H8.005zM26 29V16h3v7.807L32.073 20H35c-1.089.319-3.116 1.48-3 4.56.116 3.081 2.008 4.244 3 4.44h-2.927l-1.912-3.866L29 26.925V29h-3z" fill="#fff"/><path d="M38.024 24h-3.27c0-.904.48-2 1.77-2 1.211 0 1.505 1.333 1.5 2z" fill="#fff"/><path fill-rule="evenodd" d="M34.762 25c0 .86.343 2 1.737 2 .974 0 1.51-.609 1.51-1H39c.159 1.094 1.52 3 3.396 3 .704 0 2.407-.235 2.982-1.608V29h2.587V16H45v5.179C44.771 20.77 44 20 42.71 20c-1.613 0-3.71.896-3.71 5h-4.238zm8.876-3c-.774 0-1.726.394-1.631 2.583.104 2.433 1.207 2.42 1.59 2.417h.04C44.21 27 45 26.651 45 24.582 45 22.319 44.411 22 43.638 22zm-26.876.719c.034-.913.979-2.734 4.489-2.719 3.51.015 3.75 2.012 3.75 3.178V29h-3v-1.475c-.285.504-.95 1.505-2.477 1.474-1.909-.038-3.006-.861-3.026-2.412-.02-1.551 1.137-2.375 2.417-2.758 1.024-.306 2.388-.363 3.085-.363v-.747c0-.364-.493-.719-1.074-.719-.816 0-1.402.241-1.625.93-.081 0-1.727-.14-2.54-.211zm5.234 1.99c-.983.05-2.855.396-2.855 1.566 0 1.137.99 1.168 1.458 1.119.52-.054 1.515-.666 1.397-2.684zM8 31h.659v1.738c.11-.236.52-.711 1.283-.727.954-.02 1.726.757 1.715 1.953-.012 1.196-.625 1.914-1.715 2.033-.307.023-1.009-.087-1.363-.717l-.25.617H8V31zm1.828 4.535c.64 0 1.159-.687 1.159-1.535 0-.848-.519-1.535-1.159-1.535S8.67 33.152 8.67 34c0 .848.519 1.535 1.158 1.535zM26.797 31h-.658v1.74c-.11-.237-.52-.712-1.284-.728-.953-.02-1.726.757-1.714 1.953.011 1.195.624 1.913 1.715 2.032.306.023 1.008-.087 1.362-.717l.25.72h.33v-5zm-1.794 4.575c-.64 0-1.158-.687-1.158-1.535 0-.848.518-1.535 1.158-1.535.64 0 1.158.687 1.158 1.535 0 .848-.518 1.535-1.158 1.535zM44.343 37h.659v-1.717c.11.237.52.716 1.283.732.954.02 1.726-.762 1.715-1.966-.011-1.203-.625-1.926-1.715-2.046-.307-.024-1.008.088-1.363.722V32h-.579v5zm1.794-4.526c.64 0 1.159.685 1.159 1.53s-.519 1.53-1.158 1.53c-.64 0-1.159-.685-1.159-1.53s.519-1.53 1.159-1.53zM37.698 32c1.06 0 1.918.895 1.918 2s-.859 2-1.918 2c-1.06 0-1.918-.895-1.918-2s.859-2 1.918-2zm0 .521c.683 0 1.237.662 1.237 1.479 0 .816-.554 1.478-1.237 1.478s-1.237-.662-1.237-1.478c0-.817.554-1.479 1.237-1.479z" fill="#fff"/><path d="M12.293 36v-4h.602v.966c.39-.93 1.154-1.018 1.487-.947v.597c-1.08-.025-1.397.84-1.42 1.276V36h-.67zm21.095 0v-4h.601v.966c.391-.93 1.155-1.018 1.488-.947v.597c-1.081-.025-1.397.84-1.42 1.276V36h-.67zm-14.27 0v-4h.68v.798c.267-.648.956-.802 1.267-.798 1.088.01 1.413.81 1.44 1.209V36h-.653v-2.115c0-.544-.067-1.365-.894-1.365-.9 0-1.146.842-1.16 1.208V36h-.68zM43.6 32v4h-.68v-.798c-.267.648-.956.802-1.267.798-1.088-.01-1.413-.81-1.44-1.209V32h.654v2.115c0 .544.066 1.365.893 1.365.9 0 1.146-.842 1.16-1.208V32h.68z" fill="#fff"/><path d="M32.398 33.555c0-.372-.142-.713-.377-.978-.004-.23.15-.584.818-.526v-.565c-.342-.081-1.047-.034-1.194.781a1.684 1.684 0 00-.865-.236c-.893 0-1.617.683-1.617 1.524 0 .44.197.836.513 1.114-.24.11-.598.374-.566.77a.91.91 0 00.26.567 1.098 1.098 0 00.643 1.99h1.965a1.1 1.1 0 000-2.198h-1.789c-.205-.067-.433-.201-.433-.427 0-.22.191-.354.368-.422.2.084.423.13.656.13.894 0 1.618-.682 1.618-1.524zm-.635 0a.994.994 0 01-.983 1.007.994.994 0 01-.982-1.006c0-.556.44-1.006.982-1.006.543 0 .983.45.983 1.006zm-2.22 3.342a.55.55 0 01.551-.551h1.803a.55.55 0 010 1.102h-1.803a.551.551 0 01-.55-.551zm-14.664-3.873c.049-.334.488-1.005 1.853-1.024 1.365-.018 1.662.714 1.64 1.083v2.093c.013.185.061.711.146.824h-.68a7.04 7.04 0 01-.093-.765 1.615 1.615 0 01-1.4.765c-.973-.012-1.586-.494-1.573-1.176.014-.683.507-1.4 2.973-1.306.076-.345-.021-1.04-1.013-1.059-.992-.019-1.222.463-1.213.706l-.64-.141zm2.879.964c-.755-.073-2.265.002-2.265.883.005.235.2.689.943.632.927-.07 1.366-.664 1.322-1.515z" fill="#fff"/><defs><linearGradient id="paint0_linear" x1="10.418" y1="9.712" x2="68.147" y2="76.017" gradientUnits="userSpaceOnUse"><stop stop-color="#1A1E21"/><stop offset="1" stop-color="#06060A"/></linearGradient></defs></svg>