<!-- by TradingView --><svg xmlns="http://www.w3.org/2000/svg" width="56" height="56"><path fill="#F0F3FA" d="M0 0h56v56H0z"/><path fill-rule="evenodd" d="M4 30v-5.34c0-.22.2-.65.79-.66.55-.01.73.26.91.52l.04.06L8.1 28.1V24h.56v5.64c0 .35-.36.54-.67.11l-3.41-5.09V30H4zm9.56 0v-3.56c0-.15.13-.43.52-.44.36 0 .49.17.6.35l.03.04 1.56 2.35V26h.37v3.76c0 .24-.24.36-.44.07l-2.26-3.39V30h-.38zm-4.17 0l1-3.6c.06-.2.2-.4.51-.4s.43.18.52.33L12.77 30h-.78l-.42-1.06h-1.46L9.8 30h-.42zm1.4-3.27l-.58 1.86h1.28l-.7-1.86zM21.14 28c0 1.1-.82 2-1.84 2s-1.84-.9-1.84-2 .82-2 1.84-2 1.84.9 1.84 2zm-.66 0c0 .93-.53 1.68-1.18 1.68-.65 0-1.18-.75-1.18-1.68 0-.92.53-1.67 1.18-1.67.65 0 1.18.75 1.18 1.67z" fill="#D8234C"/><path fill-rule="evenodd" d="M22 33.18V22h.57v11.18L29.58 22H31l-6.77 10.67-.06.08c-.34.51-.84 1.25-1.37 1.25-.73 0-.8-.51-.8-.82zM41.85 28c0 1.1-.82 2-1.83 2-1.01 0-1.83-.9-1.83-2s.82-2 1.83-2c1.01 0 1.83.9 1.83 2zm-.65 0c0 .92-.53 1.67-1.18 1.67-.65 0-1.18-.75-1.18-1.67 0-.93.53-1.67 1.18-1.67.65 0 1.18.74 1.18 1.67zm1.29 2v-3.56c0-.15.13-.43.52-.44.36 0 .48.17.6.35l.03.04 1.56 2.35V26h.37v3.76c0 .24-.24.36-.44.07l-2.26-3.39V30h-.38zM30 26h-.7v4h.7v-4zm16.72 0h.7v4h-.7v-4zm5.23 0h-.6l-1.17 1.48L49.12 26h-.9l1.5 2.07L48.17 30h.6L50 28.47 51.09 30H52l-1.53-2.12L51.95 26zM34.6 26h1.9a1.05 1.05 0 010 2.1h-.13l1.35 1.9h-.96l-1.3-1.9h-.16V30h-.7v-4zm.7.36h.78a.75.75 0 010 1.5h-.78v-1.5zM32.56 26H31v4h1.86a1.06 1.06 0 00.32-2.07 1.06 1.06 0 00-.62-1.93zm-.37.36h-.49v1.41h.49a.7.7 0 100-1.41zm.2 1.76h-.69v1.52h.69a.76.76 0 000-1.52z" fill="#00477B"/></svg>