<!-- by TradingView --><svg xmlns="http://www.w3.org/2000/svg" width="56" height="56"><path fill="#F0F3FA" d="M0 0h56v56H0z"/><path d="M21.78 24.96H8.18v1.66h17l-3.4-1.66zM8.18 31.1h13.54l3.41-1.66H8.18v1.66zm0-12.74v3.76h7.77l-7.77-3.76zm9 4.35h-9v1.66h12.38l-3.38-1.66zm10.91 5.27l-1.67-.8H8.18v1.63h18.18l1.73-.83z" fill="#EF3E42"/><path d="M28.09 27.98l1.67-.8h18.21v1.63H29.82l-1.73-.83z" fill="#004990"/><path d="M8.18 37.67l7.71-3.73H8.18v3.73zm0-4.32h8.94l3.38-1.66H8.18v1.66zm39.61-6.28h.18v-8.71l-17.7 8.59H47.8v.12zm-17.64 1.95l17.82 8.65v-8.74h-.18v.1H30.15z" fill="#EF3E42"/><path d="M47.76 18H8v20h40V18h-.24zM47 19v18H9V19h38z" fill="#004990"/><path d="M13 35.34l-4.82 2.33V18.36L13 20.69v14.65z" fill="#004990"/><path d="M9.29 19.21l.24.71h.74l-.6.45.24.71-.63-.41-.62.41.24-.7-.6-.45h.75l.24-.72zm2.2 1.25l.25.71h.74l-.6.45.25.7-.63-.4-.63.4.24-.7-.6-.45h.75l.24-.71zm-2.2 1.18l.24.72h.74l-.6.44.24.71-.63-.41-.62.41.24-.71-.6-.44h.75l.24-.72zm2.2 1.25l.25.71h.74l-.6.44.25.72-.63-.42-.63.42.24-.72-.6-.44h.75l.24-.71zm-2.2 1.3l.24.71h.74l-.6.45.24.7-.63-.4-.62.4.24-.7-.6-.45h.75l.24-.7zm2.2 1.25l.25.7h.74l-.6.45.25.71-.63-.41-.63.41.24-.7-.6-.45h.75l.24-.71zm-2.2 1.3l.24.71h.74l-.6.45.24.7-.63-.4-.62.4.24-.7-.6-.45h.75l.24-.7zm2.2 1.25l.25.7h.74l-.6.45.25.71-.63-.41-.63.41.24-.7-.6-.45h.75l.24-.71zm-2.2 1.3l.24.71h.74l-.6.44.24.72-.63-.42-.62.42.24-.72-.6-.44h.75l.24-.71zm2.2 1.24l.25.71h.74l-.6.45.25.71-.63-.41-.63.41.24-.71-.6-.45h.75l.24-.7zm-2.2 1.3l.24.72h.74l-.6.44.24.71-.63-.41-.62.41.24-.7-.6-.45h.75l.24-.71zm2.2 1.25l.25.71h.74l-.6.45.25.7-.63-.4-.63.4.24-.7-.6-.45h.75l.24-.7zm-2.2 1.3l.24.72h.74l-.6.44.24.71-.63-.41-.62.41.24-.7-.6-.45h.75l.24-.71z" fill="#fff"/></svg>