<!-- by TradingView --><svg width="56" height="56" xmlns="http://www.w3.org/2000/svg"><path fill="#065FA3" d="M0 0h56v56H0z"/><path d="M31 20.222c.093-1.596 1.503-2.949 2.954-3.351 3.04-.843 4.893-.848 9.255-.858.831-.002 1.753-.005 2.791-.013-3.89 3.4-6.996 8.758-6.3 14-.86-.686-1.547-1.553-2.23-2.417-.43-.542-.857-1.083-1.326-1.576l.085-.161c.422-.8.842-1.597 1.087-2.504.428-1.586 1.6-1.96 3.082-1.916.112.003-.087-1.222-.498-1.33-.48-.127-.928-.133-1.387-.14-.597-.007-1.212-.016-1.937-.29-.413-.157-.879.056-1.225.228-.457.228-.841.569-1.227.91-.502.446-1.007.893-1.678 1.095L31 20.222zm-20.942-.918c2.286-1.475 4.496-2.494 7.207-2.963 3.416-.59 7.115-.634 9.668 1.693 4.817 4.391 8.719 9 12.946 14.019.167.198.153.737.007.816-3.002 1.618-5.975 2.949-9.177 4.066-.51.177-1.151-.034-1.47-.308-2.608-2.243-4.772-4.726-6.942-7.215-1.838-2.108-3.68-4.221-5.8-6.198-1.783-1.663-3.925-2.85-6.317-3.553-.192-.057-.227-.29-.122-.357zM18.591 48c2.127-3.47 4.996-6.401 8.357-8.754L27 35.479c-1.518-1.844-3.285-3.83-4.981-5.739-.525-.59-1.042-1.172-1.544-1.74-.155 3.353-.379 6.48-1.548 9.696-1.202 3.306-1.148 6.9-.336 10.304z" fill="#fff"/><path d="M35.706 26c.45-.802.912-1.592 1.174-2.5.43-1.488 1.603-1.84 3.09-1.798.111.003-.088-1.146-.5-1.248-1.107-.273-2.045.053-3.331-.403-.415-.147-.88.053-1.228.215-1.055.493-1.723 1.546-2.911 1.88L35.706 26z" fill="#065FA3"/></svg>