<!-- by TradingView --><svg xmlns="http://www.w3.org/2000/svg" width="56" height="56"><path fill="#189FCF" d="M0 0h56v56H0z"/><path d="M4.6 24h-.4a.2.2 0 00-.2.2v7.6c0 .11.09.2.2.2h1.6a.2.2 0 00.2-.2v-3.48a.2.2 0 01.34-.15l4 3.78a.2.2 0 00.14.05h.32a.2.2 0 00.2-.2v-7.6a.2.2 0 00-.2-.2H9.2a.2.2 0 00-.2.2v3.32a.2.2 0 01-.34.15l-3.93-3.62A.2.2 0 004.6 24zm7.6 0h5.6c.11 0 .2.09.2.2v1.6a.2.2 0 01-.2.2h-3.6a.2.2 0 00-.2.2v.6c0 .11.09.2.2.2h2.6c.11 0 .2.09.2.2v1.6a.2.2 0 01-.2.2h-2.6a.2.2 0 00-.2.2v.6c0 .11.09.2.2.2h3.6c.11 0 .2.09.2.2v1.6a.2.2 0 01-.2.2h-5.6a.2.2 0 01-.2-.2v-7.6c0-.11.09-.2.2-.2z"/><path d="M46.2 24h5.6c.1 0 .2.09.2.2v1.6a.2.2 0 01-.2.2h-3.6a.2.2 0 00-.2.2v.6c0 .11.08.2.2.2h2.6c.1 0 .2.09.2.2v1.6a.2.2 0 01-.2.2h-2.6a.2.2 0 00-.2.2v.6c0 .11.08.2.2.2h3.6c.1 0 .2.09.2.2v1.6a.2.2 0 01-.2.2h-5.6a.2.2 0 01-.2-.2v-7.6c0-.11.08-.2.2-.2z" fill="#fff"/><path d="M20.95 24H19.3a.2.2 0 00-.19.27l2.83 7.6c.03.08.1.13.2.13h.39a.2.2 0 00.18-.11l1.62-3.45a.2.2 0 01.36 0l1.13 2.4c.25.64.74.98 1.06 1.1.1.04.2-.01.23-.1l2.8-7.57a.2.2 0 00-.19-.27h-1.68a.2.2 0 00-.18.13l-1.18 2.95a.2.2 0 01-.37 0l-1.37-2.96a.2.2 0 00-.18-.12h-.5a.2.2 0 00-.18.12l-1.39 2.97a.2.2 0 01-.37-.01l-1.17-2.95a.2.2 0 00-.19-.13z"/><path fill-rule="evenodd" d="M29.02 31.7l3.39-7.38a.63.63 0 01.55-.32c.3 0 .5.18.57.32l3.45 7.4c.07.16-.09.33-.26.28a13.5 13.5 0 00-3.76-.72c-1.29-.01-2.79.4-3.68.7-.17.07-.34-.11-.27-.28zm2.8-2.1l.98-2.14c.03-.05.09-.11.19-.11s.16.06.18.1l1.01 2.17c.08.16-.09.34-.26.3a3.94 3.94 0 00-.93-.15c-.3 0-.63.06-.9.14-.18.05-.35-.14-.28-.3z" fill="#fff"/><path d="M41.3 23.68a3.97 3.97 0 013.11 1.64.2.2 0 01-.03.26l-1.1.94a.2.2 0 01-.27-.01L43 26.5c-.38-.42-.77-.87-1.81-.89-1-.01-2.19.85-2.19 2.23 0 1.53 1.2 2.29 2.3 2.29.81 0 1.52-.53 1.7-.74v-.19a.2.2 0 00-.2-.2h-1.6a.2.2 0 01-.2-.2v-1.6c0-.11.09-.2.2-.2h3.6c.1 0 .2.09.2.2v2.55A4.47 4.47 0 0141.3 32c-1.67.05-4.3-1.23-4.3-4.17 0-2.7 2.22-4.18 4.3-4.16zm-11.57 9.18c-1.36.71-2.44.4-3.1-.07-.1-.07-.3.07-.24.17 1.32 2.23 3.72 2.24 7.28 1.22a7.85 7.85 0 015.4.27c.12.05.27-.15.19-.23a8.59 8.59 0 00-9.53-1.36z" fill="#fff"/></svg>