<!-- by TradingView --><svg xmlns="http://www.w3.org/2000/svg" width="56" height="56"><path d="M0 28a28 28 0 1156 0 28 28 0 01-56 0z" fill="#173375"/><path d="M23 26.4V12.8c1.57-.52 3.25-.8 5-.8v16.02c0 3-4 4.5-4 8v7.5a15.91 15.91 0 01-5-2.26v-7.63c0-.3.09-.59.25-.84l3.33-5c.27-.4.42-.89.42-1.38z" fill="#fff"/><path d="M18 25.4v-9.89c1.2-.96 2.55-1.76 4-2.35v13.25c0 .3-.09.58-.25.83l-3.33 5c-.27.4-.42.9-.42 1.39v6.89a16.09 16.09 0 01-4-4.75v-3.14c0-.3.09-.6.25-.84l3.33-5c.27-.4.42-.89.42-1.38z" fill="#fff"/><path d="M17 25.4v-9a15.98 15.98 0 00-4 17.21v-.97c0-.5.15-.98.42-1.4l3.33-4.99c.16-.25.25-.54.25-.83zm27 2.62c0 3.48-1.11 6.7-3 9.33V18.68c1.89 2.63 3 5.85 3 9.34zm-4-10.6a16.06 16.06 0 00-5-3.81v28.81a16.1 16.1 0 005-3.81V17.42zm-6-4.26a15.9 15.9 0 00-5-1.13V44c1.76-.1 3.44-.5 5-1.13v-29.7z" fill="#fff"/></svg>