<!-- by TradingView --><svg xmlns="http://www.w3.org/2000/svg" width="56" height="56"><path fill="#F0F3FA" d="M0 0h56v56H0z"/><path d="M4 30.27V23.1a9.6 9.6 0 012.73-2.02L12 27.87v-7.3c.02-.47.44-.58.62-.57h.84c.42 0 .52.36.52.58l.02 9.78c-.04.59-.33.64-.54.64h-.52c-.38 0-.62-.2-.73-.31L6 22.76v7.5c.02.58-.35.73-.54.74h-.9c-.45-.02-.56-.5-.56-.73z" fill="#1E2C53"/><path fill-rule="evenodd" d="M20.5 29.72A3.22 3.22 0 0117.95 31c-1.82 0-3.3-1.57-3.3-3.5s1.48-3.5 3.3-3.5c1.03 0 1.94.5 2.55 1.28v-.78c0-.28.22-.5.5-.5h.5c.28 0 .5.22.5.5v6a.5.5 0 01-.5.5H21a.5.5 0 01-.5-.5v-.78zm-.02-2.22c0 1.31-1 2.37-2.24 2.37-1.23 0-2.23-1.06-2.23-2.37s1-2.37 2.23-2.37c1.24 0 2.24 1.06 2.24 2.37z" fill="#1E2C53"/><rect x="50.54" y="24" width="1.46" height="7" rx=".5" fill="#1E2C53"/><rect x="31" y="24" width="1.46" height="7" rx=".5" fill="#1E2C53"/><path d="M35.74 24.5c0-.28.22-.5.5-.5h.46c.27 0 .5.22.5.5v5.95l-1.46-1V24.5z" fill="#1E2C53"/><path fill-rule="evenodd" d="M24.5 20.75L23 20v10.5c0 .28.22.5.5.5h.5a.5.5 0 00.5-.5v-.54c.6.64 1.43 1.04 2.35 1.04a3.4 3.4 0 003.31-3.5 3.4 3.4 0 00-3.3-3.5c-.93 0-1.76.4-2.36 1.04v-4.29zm.01 6.75c0 1.31.96 2.37 2.15 2.37 1.18 0 2.14-1.06 2.14-2.37s-.96-2.37-2.14-2.37c-1.19 0-2.15 1.06-2.15 2.37z" fill="#1E2C53"/><path d="M34.22 25.34c-1.16.2-1.8 1.48-1.97 2.1l.06-1.7c.72-1.48 1.57-1.74 2.1-1.74.44 0 .57.23.59.34v.69c-.01.28-.3.33-.45.31h-.33zm8.95-.98l-1.92 5.18v2.7h.43l2.81-7.57c.2-.52-.04-.64-.22-.67h-.56c-.3-.01-.45.16-.54.36zm-3.85 0l1.93 5.18v2.7h-.44l-2.8-7.57c-.2-.52.04-.64.22-.67h.56c.3-.01.45.16.53.36zM47.51 31a3.47 3.47 0 01-2.76-3.48c0-1.94 1.49-3.52 3.32-3.52 1.84 0 3.33 1.58 3.33 3.52 0 .85-.28 1.62-.75 2.23.05-.36.04-.74.02-1.08 0-.29-.02-.55.01-.75l-.1.13c.03-.17.05-.35.05-.52 0-1.32-1.01-2.4-2.26-2.4-1.25 0-2.25 1.08-2.25 2.4 0 1.31 1 2.38 2.25 2.38.31 0 .6-.06.88-.18A4.1 4.1 0 0147.5 31z" fill="#1E2C53"/><path d="M14 18c-4.92-.04-8.7 2.21-9.96 3.35v.95c3.38-3.08 8.06-3.79 9.97-3.76 8.2.15 12.95 4.09 14.03 4.86 2.34 1.66 8.84 9.32 16.65 9.6 3.57.12 5.44-1.87 5.92-2.64v-2.35c-.6 3.8-3.99 4.43-5.92 4.43-7.61.07-13.87-7.35-16.65-9.45-3.53-2.67-7.87-4.93-14.03-4.99z" fill="url(#aowsaaed3)"/><circle cx="36.47" cy="22.43" r=".76" fill="#1E2C53"/><path fill-rule="evenodd" d="M14.54 33l1.3 3h-.3l-.37-.85H13.9l-.36.85h-.3l1.3-3zm-.51 1.85h1.02l-.51-1.2-.51 1.2zm2.33-1.52v1.22c.24.03.54.02.79-.06a.75.75 0 00.34-.2.5.5 0 00.12-.36.53.53 0 00-.13-.37.76.76 0 00-.35-.2 2.04 2.04 0 00-.77-.03zm0 1.53c.26.02.59 0 .87-.08a.92.92 0 00.48-.29.8.8 0 00.2-.57.82.82 0 00-.22-.56c-.13-.14-.3-.23-.48-.28-.35-.1-.76-.08-1.03-.03l-.12.02V36h.3v-1.14zm-4.98-1.54v1.07c.15 0 .33 0 .5-.02.22-.03.42-.1.55-.19.13-.09.2-.2.2-.37a.4.4 0 00-.13-.3.78.78 0 00-.35-.16 2.34 2.34 0 00-.77-.03zm0 1.37V36h-.3v-2.94l.12-.02c.27-.04.67-.06 1.02.02.18.04.35.12.48.24.14.12.22.29.23.5 0 .29-.13.5-.33.63-.12.09-.27.14-.42.19l.94 1.38h-.36l-.92-1.32c-.16.01-.32.02-.46.01zm-6.51-1.4H4V33h2v.3h-.83V36h-.3v-2.7zM9 33h1.78v.3H9.3v1.07h1.18v.3H9.3v1.03h1.48v.3H9v-3zm9.15 0h1.68v.3h-1.38v1.07h1.1v.3h-1.1v1.03h1.38v.3h-1.68v-3zm5.46.3h-.82V33h1.95v.3h-.83V36h-.3v-2.7zm2.61.02c.3-.24.66-.32.94-.32.46 0 .8.23.92.35l-.2.21a1.08 1.08 0 00-.72-.26c-.23 0-.52.07-.75.25-.23.18-.4.47-.4.94s.18.8.4.97c.24.18.53.25.75.25.15 0 .32-.06.46-.14.15-.08.27-.18.33-.25l.21.2c-.08.1-.21.21-.39.3-.17.1-.38.18-.61.18-.27 0-.63-.07-.92-.3-.3-.24-.53-.65-.53-1.2 0-.57.21-.95.51-1.18zm2.36-.1c.17-.15.4-.22.67-.22.45 0 .7.24.77.4l-.27.13c-.02-.06-.17-.23-.5-.23a.72.72 0 00-.47.15.47.47 0 00-.16.37c0 .13.07.25.2.33.14.1.3.14.43.14h.02c.45.06.8.5.8.9a.8.8 0 01-.25.6.93.93 0 01-.64.21c-.2 0-.4-.05-.54-.13a1.31 1.31 0 01-.32-.24l.22-.2a1.01 1.01 0 00.64.28c.19 0 .34-.05.44-.14a.5.5 0 00.15-.38c0-.26-.24-.55-.53-.6-.18 0-.4-.07-.58-.19a.7.7 0 01-.34-.58c0-.24.09-.45.26-.6zM6.36 33h.3v1.37h1.69V33h.3v3h-.3v-1.33h-1.7V36h-.3v-3zm13.92 1.98V33h.3v1.98c0 .12.03.3.15.46.12.14.33.27.71.27.33 0 .5-.11.61-.25a.8.8 0 00.15-.48V33h.3v1.98c0 .2-.05.45-.2.66-.18.22-.45.36-.86.36-.46 0-.76-.15-.94-.37a1.03 1.03 0 01-.22-.65zM25.43 36h-.3v-3h.3v3z" fill="#7B9B44"/><defs><linearGradient id="aowsaaed3" x1="4.04" y1="21.88" x2="51.59" y2="29.37" gradientUnits="userSpaceOnUse"><stop stop-color="#1E2C53"/><stop offset=".33" stop-color="#91AE5E"/><stop offset=".66" stop-color="#91AE5E"/><stop offset="1" stop-color="#1E2C53"/></linearGradient></defs></svg>