<!-- by TradingView --><svg xmlns="http://www.w3.org/2000/svg" width="56" height="56"><path fill="#F0F3FA" d="M0 0h56v56H0z"/><path d="M16 29a1.5 1.5 0 100-3 1.5 1.5 0 000 3zm-.67-2.1c-.2.22-.35.56-.35.56s-.04-.53.2-.76c.24-.24.68-.23.78-.2.05.01-.01.04-.11.08-.15.07-.38.17-.52.32z" fill="#005288"/><path d="M20.44 27.3a7.09 7.09 0 00-3.15-2.5 8.06 8.06 0 00-3.03-.8c-1.23-.05-2.15.29-2.81.98-.29.3-.45.65-.45 1.22.03.4.12.66.3.98.18.3.7.83.7.82-.36-1.4.28-1.99 1.25-2.49a5.54 5.54 0 015.06.22c.66.4 1.36 1.2 1.38 2 0 .43-.13.8-.29 1.06-.52.86-1.43 1.25-2.86 1.45-.75.08-1.72-.13-2.54-.24.86.43 2.57 1 3.96 1 1.54 0 2.9-.55 3.03-2 .05-.68-.2-1.15-.55-1.7zm-8.1-2.4c-.74.47-.77 1.03-1.08 1.3.06-.62.24-1.02.55-1.3a2.88 2.88 0 012.1-.66c.27.02-.65.05-1.57.65zm7.64 5.43c-.63.46-1.66.5-2.44.31-.3-.07.72.04 1.82-.48.89-.42 1.3-.93 1.35-1.37-.08.7-.1 1.08-.73 1.54zM4 25h2.41l2.17 2.75V25h2.03v5H8.29L6 27.18V30H4v-5zm16.47 1h2.23l.9 2.39h.01l.9-2.39h2.22l-2 4h-2.25l-2-4zm6.27 1.4c.11-.52.35-.92.82-1.13.46-.2 1.16-.27 2.16-.27 1.95 0 2.71.4 2.71 1.55v1.85c0 .3.09.47.18.6h-1.95a1.6 1.6 0 01-.07-.38c-.43.37-1.07.54-2.09.54-1.27 0-2.08-.32-2.08-1.3 0-.7.54-1.16 1.94-1.21l1.61-.07c.38-.02.51-.1.51-.32 0-.25-.35-.26-.89-.26-.43 0-.86.03-.95.4h-1.9zm3.8.85c-.33.07-.87.1-1.55.16-.35.03-.52.14-.52.38 0 .27.24.44.71.44.64 0 1.35-.15 1.35-.8v-.18zM33 25h4.88c1.1 0 1.6.47 1.6 1.27a1 1 0 01-.64.97v.01c.7.17.92.77.92 1.14 0 .99-.53 1.63-2.12 1.63H33V25zm2 2h1.48c.44 0 .52-.18.52-.38 0-.18-.08-.38-.52-.38H35V27zm0 1.8h1.48c.43 0 .52-.17.52-.39s-.1-.41-.52-.41H35v.8zm5.32-1.4c.11-.52.35-.93.82-1.13A5.2 5.2 0 0143.2 26c1.94 0 2.81.4 2.81 1.55v1.85c0 .3.1.47.2.6h-1.95a1.61 1.61 0 01-.07-.38c-.43.37-1.08.54-2.1.54-1.27 0-2.08-.32-2.08-1.3 0-.7.54-1.16 1.95-1.21l1.61-.07c.38-.03.44-.11.44-.32 0-.25-.27-.26-.81-.26-.44 0-.87.03-.96.4h-1.91zm3.8.85c-.32.06-.86.1-1.54.16-.35.03-.52.14-.52.38 0 .27.24.44.7.44.65 0 1.36-.15 1.36-.81v-.17zM47 30.68c.15.02.13.02.35.02.39 0 .55-.01.7-.34l.1-.25-1.9-4.11h1.97l.9 2.3.91-2.3H52l-2.3 5.2c-.3.64-.6.8-1.62.8H47v-1.32z" fill="#005288"/></svg>