<!-- by TradingView --><svg width="56" height="56" xmlns="http://www.w3.org/2000/svg"><path fill="#4FB94A" d="M0 0h56v56H0z"/><path d="M32.14 21.63l2.836 2.626a4.999 4.999 0 00-.864.482c-.468.317-1.079.82-1.858 1.648l-5.542 5.763c-.951.986-1.917 1.768-2.816 2.18l-2.836-2.624a4.34 4.34 0 00.27-.13c.163-.08.36-.195.594-.355.466-.316 1.079-.817 1.857-1.645l5.542-5.755c.951-.986 1.918-1.776 2.817-2.19z" fill="#fff"/><path d="M21.16 35.563c1.254 0 2.406-.245 3.189-.643.356-.183.866-.5 1.306-.834a14.896 14.896 0 001.58-1.404l5.55-5.746c1.398-1.45 2.24-1.896 2.75-2.071l2.847 2.647c-.595.625-7.678 8.037-7.678 8.037a26.31 26.31 0 01-1.338 1.318c-.331.302-.9.75-1.194.961C26.506 39.027 24.28 40 21.282 40 14.492 40 9 34.569 9 28.317 9 20.56 15.168 16.06 20.789 16.06c1.72-.05 3.103.233 4.194.599 1.01.337 1.773.744 2.325 1.022-.652.413-1.285.972-2.329 2.067l-1.137 1.202c-.262-.099-1.425-.495-2.919-.452-3.604.104-7.547 2.976-7.405 7.685.133 4.404 3.828 7.38 7.642 7.38z" fill="#fff"/><path d="M31.653 21.08c-.359.183-.87.498-1.309.833a14.73 14.73 0 00-1.58 1.404l-5.548 5.747c-1.4 1.448-2.242 1.895-2.75 2.071l-2.848-2.647c.595-.625 7.678-8.037 7.678-8.037a28.08 28.08 0 011.338-1.32c.331-.3.9-.747 1.196-.959 1.663-1.2 3.893-2.172 6.89-2.172C41.51 16 47 21.429 47 27.681c0 7.759-6.169 12.258-11.789 12.258-1.72.05-3.103-.235-4.195-.6-1.012-.337-1.776-.746-2.33-1.024.691-.457 1.284-.96 2.335-2.063l1.137-1.202a8.145 8.145 0 002.917.453c3.606-.105 7.549-2.979 7.407-7.687-.134-4.403-3.83-7.38-7.643-7.38-1.256 0-2.404.245-3.186.644z" fill="#fff"/></svg>