<!-- by TradingView --><svg width="56" height="56" fill="none" xmlns="http://www.w3.org/2000/svg"><path fill="#F0F3FA" d="M0 0h56v56H0z"/><path fill-rule="evenodd" clip-rule="evenodd" d="M21.936 9.76l.369.402C27.632 15.976 31 22.21 31 28c0 5.79-3.368 12.024-8.695 17.838l-.369.402-.369-.402C16.235 40.018 13 33.786 13 28c0-5.786 3.235-12.018 8.567-17.838l.369-.402zm0 1.485C16.908 16.855 14 22.7 14 28c0 5.3 2.908 11.145 7.936 16.755C26.975 39.14 30 33.295 30 28c0-5.295-3.025-11.14-8.064-16.755z" fill="url(#paint0_linear_3186)"/><path fill-rule="evenodd" clip-rule="evenodd" d="M25.936 9.76l.369.402C31.632 15.976 35 22.21 35 28c0 5.79-3.368 12.024-8.695 17.838l-.369.402-.369-.402C20.235 40.018 17 33.786 17 28c0-5.786 3.235-12.018 8.567-17.838l.369-.402zm0 1.485C20.908 16.855 18 22.7 18 28c0 5.3 2.908 11.145 7.936 16.755C30.975 39.14 34 33.295 34 28c0-5.295-3.025-11.14-8.064-16.755z" fill="url(#paint1_linear_3186)"/><path fill-rule="evenodd" clip-rule="evenodd" d="M30 9.762l.368.4C35.699 15.951 39 22.238 39 28c0 5.76-3.301 12.049-8.632 17.839l-.368.4-.368-.4C24.301 40.049 21 33.76 21 28c0-5.76 3.301-12.049 8.632-17.839l.368-.4zm0 1.48c-5.032 5.59-8 11.486-8 16.758 0 5.272 2.968 11.169 8 16.757C35.032 39.17 38 33.272 38 28c0-5.272-2.968-11.169-8-16.757z" fill="url(#paint2_linear_3186)"/><path fill-rule="evenodd" clip-rule="evenodd" d="M34 9.762l.368.4C39.7 15.952 43 22.325 43 28.084c0 5.762-3.303 11.965-8.632 17.754l-.368.4-.368-.4C28.301 40.049 25 33.76 25 28c0-5.76 3.301-12.049 8.632-17.839l.368-.4zm0 1.48c-5.032 5.59-8 11.486-8 16.758 0 5.272 2.968 11.169 8 16.758 5.034-5.587 8-11.403 8-16.673 0-5.274-2.97-11.252-8-16.842z" fill="url(#paint3_linear_3186)"/><defs><linearGradient id="paint0_linear_3186" x1="13.665" y1="28" x2="30.537" y2="28" gradientUnits="userSpaceOnUse"><stop stop-color="#C5CD2D"/><stop offset="1" stop-color="#FBD106"/></linearGradient><linearGradient id="paint1_linear_3186" x1="17.385" y1="27.32" x2="34.257" y2="27.32" gradientUnits="userSpaceOnUse"><stop stop-color="#11B3AB"/><stop offset=".95" stop-color="#84C44A"/></linearGradient><linearGradient id="paint2_linear_3186" x1="21.908" y1="28.254" x2="37.953" y2="28.254" gradientUnits="userSpaceOnUse"><stop stop-color="#1BA4DB"/><stop offset="1" stop-color="#20B066"/></linearGradient><linearGradient id="paint3_linear_3186" x1="25.156" y1="27.408" x2="42.855" y2="27.247" gradientUnits="userSpaceOnUse"><stop stop-color="#0469AF"/><stop offset="1" stop-color="#008962"/></linearGradient></defs></svg>