<!-- by TradingView --><svg xmlns="http://www.w3.org/2000/svg" width="56" height="56"><path fill="#F0F3FA" d="M0 0h56v56H0z"/><path d="M4 24.5a.5.5 0 01.91-.28l.06.06L8 28.18V24.5a.5.5 0 011 0v5a.5.5 0 01-.5.5.59.59 0 01-.52-.21L5 25.95v3.55a.5.5 0 01-1 0v-5zm16.5-.5a.5.5 0 00-.5.5v5c0 .28.23.5.5.5h3a.5.5 0 100-1H21v-1.5h2.5a.5.5 0 100-1H21V25h2.5a.5.5 0 100-1h-3zm5 0a.5.5 0 00-.5.5v5a.5.5 0 001 0v-5a.5.5 0 00-.5-.5zM9.52 27.74c0-1.75 1.47-2.23 2.2-2.23 1.52.06 2 .96 2.02 1.78.03.65-.47.78-.73.76h-2.36c.03.75.41 1.24 1.18 1.24.61 0 1.07-.47 1.23-.7.1-.15.37-.19.53-.05.17.13.11.37.07.45-.42.84-1.37 1.01-1.83 1.01-.39 0-2.31-.1-2.31-2.26zm2.17-1.48c-.8.02-1.03.77-1.05 1.14h2.02c.01-.39-.18-1.16-.97-1.14zm17.56-.75c-.73 0-2.2.48-2.2 2.23 0 2.16 1.92 2.26 2.3 2.26.47 0 1.42-.17 1.84-1 .04-.09.09-.33-.07-.46-.16-.14-.44-.1-.54.05-.15.23-.62.7-1.23.7-.76 0-1.15-.5-1.18-1.24h2.37c.25.02.75-.1.73-.76-.03-.82-.5-1.72-2.02-1.78zm-1.08 1.9c.01-.38.25-1.13 1.04-1.15.8-.02.98.75.98 1.14h-2.02zm10.72.33c0-1.75 1.47-2.23 2.2-2.23 1.52.06 2 .96 2.02 1.78.02.65-.48.78-.73.76h-2.36c.03.75.41 1.24 1.18 1.24.6 0 1.07-.47 1.23-.7.1-.15.37-.19.53-.05.16.13.11.37.07.45-.42.84-1.37 1.01-1.83 1.01-.39 0-2.31-.1-2.31-2.26zm2.17-1.48c-.8.02-1.03.77-1.05 1.14h2.02c0-.39-.18-1.16-.97-1.14zM15 24.5a.5.5 0 011 0v1.14h.6a.4.4 0 010 .79H16v2.13c0 .5.26.62.53.56.34-.07.45.17.47.3.04.18-.1.58-.98.58-.86 0-1.01-.87-1.02-1.42a.5.5 0 010-.06v-2.1h-.6a.4.4 0 010-.78h.6V24.5zm35-.5a.5.5 0 00-.5.5v1.14h-.6a.4.4 0 000 .79h.6v2.1a.5.5 0 000 .05c0 .55.16 1.42 1.02 1.42.87 0 1.02-.4.98-.59-.02-.12-.13-.36-.47-.29-.27.06-.53-.07-.53-.56v-2.14h.6a.4.4 0 000-.78h-.6V24.5a.5.5 0 00-.5-.5zm-17 2.07c.23-.26.68-.6 1.3-.57.76.03 1.07.47 1.13.68a1.5 1.5 0 011.28-.68c.89 0 1.28.66 1.29 1.48v2.52a.5.5 0 01-1 0v-2.47c0-.22-.26-.65-.69-.65-.53 0-.81.43-.81.94v2.18a.5.5 0 01-1 0v-2.28c0-.34-.18-.84-.68-.84-.64 0-.82.55-.82 1.06v2.06a.5.5 0 01-1 0V26a.5.5 0 011 0v.07zm11.5-.57a.5.5 0 00-.5.5v3.5a.5.5 0 101 0v-2.18c.11-.43.38-.97 1.08-.97.62 0 .91.58.92.89v2.26a.5.5 0 001 0V27c0-.05 0-.1-.03-.16-.1-.76-.48-1.3-1.41-1.33a2.3 2.3 0 00-1.56.51V26a.5.5 0 00-.5-.5z"/><path fill="#079D47" d="M4 31h8v1H4z"/><path fill="#E01B23" d="M24 31h8v1h-8z"/><path fill="#8A8A8A" d="M14 31h8v1h-8z"/><path fill="#1C7EBD" d="M34 31h8v1h-8z"/><path fill="#ECCA07" d="M44 31h8v1h-8z"/></svg>