<!-- by TradingView --><svg width="56" height="56" xmlns="http://www.w3.org/2000/svg"><path fill="#023F74" d="M0 0h56v56H0z"/><path d="M35.586 18.195c-.385-.009-.303-.215-.15-.477.232-.398-.114-.88-.787-1.166a4.236 4.236 0 00-1.179-.293c-.404-.037-.86-.407-.97-.645a1.208 1.208 0 01-.1-.614c.046.156.134.31.3.458.116.102.31.18.43.239.227.11.474.141.604.146.217.009.439.018.612.044 1.826.271 1.333 1.402 1.39 1.362.32-.228 1.125-.726 1.71-.738 1.05-.024 1.495 1.453 2.793 1.399-1.246.482-1.676-.153-2.552-.355-1.256-.29-1.444.655-2.1.64zM36.41 18.823c-.289.064-.517.448-.627.687a2.9 2.9 0 00-.232.924c-.019.476.231 1.297 1.068 1.627.227.09.396.164.71.164.145 0 .557-.079.81-.19 2.023-.887 8.737-4.734 10.6-2.432.822 1.017 1.052 2.526.514 4.533-.07.262-.115.448-.094.586.055.348.454.354.706.183.195-.132.337-.425.385-.689.234-1.293.368-3.128-.115-4.003-2.707-4.912-10.858 1.332-13.171.942-.295-.05-.523-.259-.665-.535-.3-.584-.253-1.469.111-1.797z" fill="#F6F8FD"/><path d="M32.519 17.83c.224.238.599.415 1.006.543.282.09.577.137.864.238.795.279-.368 1.829-.86 2.458-.817 1.042-.335 3.117 1.097 3.874.757.4 1.943.302 2.737.23.51-.048.835.062.843.305.039 1.3-3.767.577-4.85-1.242-1.446-2.426.906-4.104-.113-4.909-.54-.425-.993-.49-1.319-1.066-.52-.921-.216-1.994.302-2.7-.263.942.043 2.005.293 2.27zM5 31.997c.217-1.123.383-1.887.539-2.526l.148-.58.096-.387.2-.823.965 1.79c.409.765.817 1.616 1.235 2.526h1.139c.087-.426.174-.842.26-1.268A97.636 97.636 0 0111 25H9.983c-.2 1.045-.313 1.627-.426 2.072l-.148.638-.192.794-.06.29-.113.474a22.504 22.504 0 00-.392-.764C7.722 26.81 7.432 26.2 6.893 25H5.67a82.811 82.811 0 01-1.348 5.797c-.105.397-.209.803-.322 1.2h1zM16 31.997h1.547c.427-.945.878-1.844 1.355-2.734.017.917.009 1.834-.008 2.734h1.322L23 27h-1l-1.518 2.84.067-2.843-1.347.009c-.467.987-.976 1.953-1.472 2.927v-2.936L16 27.006s-.017 4.532 0 4.99zM23.137 32l1.194-3.935L25 32h.632l2.356-3.887-.638 3.884h1.848l.802-6.99h-1.113l-2.527 4.29-.728-4.3h-1.137c-.684 2.384-2.495 7-2.495 7l1.137.003z" fill="#F6F8FD"/><path d="M31.385 28.52c.075-.078.384-.263.468-.324.327-.237.542-.325.823-.351.327-.035.561.184.542.465-.01.053-.019.114-.047.167-.084.22-.233.342-.58.421l-.196.044c-1.608.351-2.02.693-2.31 1.589-.28.86.15 1.44 1.01 1.448.59.009 1.066-.158 1.413-.465.009.017.027.035.037.052.28.44.87.606 1.777.211.084-.035.159-.07.233-.114l.15-.544a.482.482 0 01-.168.044c-.215.035-.356-.08-.318-.246.01-.08.028-.158.047-.237l.654-2.309c.243-.886-.028-1.202-1.066-1.351a3.207 3.207 0 00-.944.035c-.43.07-1.468.647-1.525.682v.784zm1.534.817l-.337 1.167c-.065.22-.093.483-.411.518-.16.018-.318-.061-.355-.202-.038-.158-.01-.368.168-.825.084-.21.177-.35.327-.412l.608-.246zM37 32.001s.844-3.33 1.121-3.449c.301-.127.697-.163.88-.009L39.365 27c-.569 0-1.14.294-1.442.78l.183-.78h-1.577l-1.164 5.001H37z" fill="#F6F8FD"/><path d="M40.736 32c.117-.617.393-1.842.393-1.842L41.673 32h2.058l-1.213-2.974 2.184-1.807h-1.297s-1.306 1.228-1.983 1.816c.292-1.362.703-2.696 1.113-4.026L40.795 25c-.514 2.355-1.079 4.698-1.792 7h1.733z" fill="#F6F8FD"/><path d="M48.937 28.962c.28-1.24-.391-2.005-1.715-1.961-1.436.053-2.555.88-3.06 2.383-.53 1.61.272 2.63 1.913 2.613.727-.01 1.24-.141 1.706-.414l.587-.958c-.896.718-3.006.794-2.461-.924a36.434 36.434 0 012.77.009s.186-.414.26-.748zm-2.844-.009c.099-.419.358-1.026.774-1.222a.386.386 0 01.55.229c.066.295.006.688-.111.967a20.68 20.68 0 01-1.213.026zM15.397 28.966c.28-1.24-.391-2.006-1.716-1.962-1.436.053-2.554.88-3.058 2.384-.531 1.61.27 2.63 1.912 2.612.727-.009 1.24-.141 1.706-.414l.522-1.046c-.186.15-1.175.545-1.37.571-.765.106-1.213-.316-1.11-1.028.028-.185.056-.29.084-.379a36.434 36.434 0 012.77.01s.185-.414.26-.748zm-2.844-.01c.019-.078.224-.606.317-.755.196-.29.308-.396.457-.467a.386.386 0 01.55.23c.038.166.038.35-.074.826-.01.044-.019.096-.038.14-.298.018-.597.027-.904.027h-.308z" fill="#F6F8FD"/><path d="M49.031 30.586c-.149 1.067.227 1.525 1.316 1.392.243-.039.422-.122.657-.275V31a.583.583 0 01-.22.086c-.313.057-.327-.11-.218-.671.196-.95.62-2.841.62-2.841l.602.047.212-.934-.642.086.477-1.773-1.762.686-.18 1.068-.51-.076-.219.943.549-.038-.682 3.003z" fill="#F6F8FD"/></svg>