<!-- by TradingView --><svg width="56" height="56" xmlns="http://www.w3.org/2000/svg"><path fill="#026770" d="M0 0h56v56H0z"/><path d="M27.343 38.138c-5.466 0-9.896-4.407-9.896-9.844 0-5.436 4.43-9.842 9.896-9.842 5.465 0 9.896 4.406 9.896 9.842 0 5.437-4.43 9.844-9.896 9.844zm18.393-13.473c-1.689-7.721-10.997-12.263-20.792-10.145-9.795 2.119-16.368 10.095-14.68 17.816 1.688 7.72 10.997 12.262 20.792 10.144 9.795-2.119 16.367-10.095 14.68-17.815z" fill="#fff"/><path d="M27.065 37.714c-5.307 0-9.609-4.303-9.609-9.61a9.608 9.608 0 019.61-9.608c5.306 0 9.608 4.301 9.608 9.608s-4.302 9.61-9.609 9.61zM29.5 16C22.597 16 17 21.597 17 28.5S22.597 41 29.5 41 42 35.403 42 28.5 36.403 16 29.5 16z" fill="#9BD3CD"/></svg>