<!-- by TradingView --><svg width="56" height="56" xmlns="http://www.w3.org/2000/svg"><path fill="url(#paint0_linear)" d="M0 0h56v56H0z"/><path d="M28 33l4-5 1.555 1.835L31 33h-3z" fill="#FF5000"/><path d="M9.956 23H8v6h3v-2.505c.085-.204 1.083-.824 2.302-.908 1.219-.083 1.698.854 1.698 1.436V33h3v-6.694c-.144-2.256-1.083-3.212-3.2-3.302-1.694-.072-3.388.847-3.8 1.315-.128-.777-.595-1.319-1.044-1.319z" fill="#fff"/><path d="M8 33v-4h3v4H8z" fill="#FF5000"/><path d="M23.723 23.001c3.853-.076 4.436 3.968 4.246 5.999h-8.956c-.06-1.174-.105-5.904 4.71-5.999z" fill="#fff"/><path d="M23.985 32.99c-3.637.203-4.836-2.576-4.98-3.99H22c.284 1.015.699 1.508 2.583 1.55 1.507.034 2.652-.399 3.036-.62v2.242c-1.041.609-2.857.799-3.634.818z" fill="#FF5000"/><path d="M30.4 22.925L28 23l8.004 10H39l-4-5 3.69-5h-2.686L33.5 26c-.115-.174-1.061-1.266-1.57-2.046-.508-.78-1.232-1.01-1.53-1.029z" fill="#fff"/><path d="M23.6 25.358c-1.269-.025-1.595 1.09-1.6 1.65h2.988c.067-.54-.119-1.624-1.388-1.65z" fill="url(#paint1_linear)"/><path d="M43.797 23.004c-1.451-.058-3.347.529-4.113.83v2.47c.499-.241 1.213-.665 3.323-.721 1.683-.045 2.053.914 2.03 1.425-.222-.042-1.075-.101-2.713 0-2.047.126-3.376 1.172-3.322 3.138.053 1.966 1.562 2.76 3.215 2.85 1.322.072 2.43-.776 2.82-1.209v-1.641c-.49.245-1.366.463-1.743.541-.479.102-1.444.076-1.473-.848-.028-.923.97-.863 1.473-.839H48v-1.83c0-3.336-2.389-4.094-4.203-4.166z" fill="#fff"/><path d="M45 33v-4h3v4h-3z" fill="#FF5000"/><defs><linearGradient id="paint0_linear" x1="10.418" y1="9.712" x2="68.147" y2="76.017" gradientUnits="userSpaceOnUse"><stop stop-color="#1A1E21"/><stop offset="1" stop-color="#06060A"/></linearGradient><linearGradient id="paint1_linear" x1="22.558" y1="25.644" x2="23.896" y2="28.438" gradientUnits="userSpaceOnUse"><stop stop-color="#1A1E21"/><stop offset="1" stop-color="#06060A"/></linearGradient></defs></svg>