<!-- by TradingView --><svg width="56" height="56" fill="none" xmlns="http://www.w3.org/2000/svg"><path fill="#F0F3FA" d="M0 0h56v56H0z"/><path d="M28.428 27.642C25.959 24.968 26 21.446 26 21.446V9.987c9.16 7.626 13.19 13.644 13.19 13.644 5.07 6.554 1.726 12.724 1.726 12.724-5.314 12.41-16.136 8.164-16.136 8.164 7.378-.097 8.854-5.366 8.854-5.366 1.616-4.216-2.338-8.317-2.338-8.317s-2.598-2.9-2.868-3.194z" fill="#006BB6"/><path d="M28 33.135v8.328s-.002.523.51.537c0 0 .95.03 1.438-1.648 0 0 1.22-3.653-1.948-7.217zM25 21v17.195s-.056 3.928 3.153 4.676c0 0-3.334 2.376-7.396-.23 0 0-4.344-2.312-3.181-8.777 0 0 .555-4.337 7.424-12.864z" fill="#009CDC"/><path d="M28 48c11.045 0 20-8.954 20-20S39.044 8 28 8C16.954 8 8 16.954 8 28s8.954 20 20 20z" stroke="#FCBA65" stroke-width="1.319"/></svg>