<!-- by TradingView --><svg width="56" height="56" xmlns="http://www.w3.org/2000/svg"><path fill="#516E86" d="M0 0h56v56H0z"/><path d="M14.51 31c1.375 0 2.512-1.006 2.49-2.49-.022-1.483-1.107-2.51-2.49-2.51C13.135 26 12 27.043 12 28.51c-.001 1.468 1.135 2.49 2.51 2.49zm0-6c1.93 0 3.49 1.615 3.49 3.51 0 1.928-1.61 3.49-3.49 3.49-1.9 0-3.51-1.572-3.51-3.49 0-1.917 1.599-3.51 3.51-3.51zM38.51 31c1.375 0 2.512-1.006 2.49-2.49-.022-1.483-1.106-2.51-2.49-2.51C37.135 26 36 27.043 36 28.51c-.001 1.468 1.135 2.49 2.51 2.49zm0-6c1.93 0 3.49 1.615 3.49 3.51 0 1.928-1.61 3.49-3.49 3.49-1.9 0-3.51-1.572-3.51-3.49 0-1.917 1.599-3.51 3.51-3.51zM5 25l4 5v-5h1v7H9l-4-5v5H4v-7h1zM19.005 25L21 31l2-6h1l-2.5 7h-1L18 25h1.005zM32.13 25c.356 0 1.24.205 1.597.49l-.155 1.045c-.52-.378-.976-.535-1.442-.535C30.91 26 30 27.031 30 28.452c0 1.483.971 2.548 2.24 2.548.11-.011.404.022.76-.213V30h-1v-1h2v2.389c-.52.386-1.132.611-1.76.611-1.931 0-3.24-1.616-3.24-3.548C29 26.554 30.378 25 32.13 25zM44 25v6h2.004v1h-3v-7H44zM48 31h.925C50.242 31 51 29.618 51 28.47c0-1.264-.651-2.043-1.663-2.367C48.86 25.948 48.455 26 48 26v5zm.907-6c.329 0 .649.101.93.205C51.114 25.712 52 27.006 52 28.49c0 1.48-.857 2.754-2.125 3.282-.311.124-.686.228-1.04.228H47v-7h1.907zM27.995 32L26 26l-2 6h-1l2.5-7h1l2.5 7h-1.005z" fill="#fff"/><path d="M27 32l-1-3-1 3h2z" fill="#DBB57B"/></svg>