<!-- by TradingView --><svg xmlns="http://www.w3.org/2000/svg" width="56" height="56"><path fill="#F0F3FA" d="M0 0h56v56H0z"/><path d="M44 22h-1v10h1V22zm-4.74 3.92L38 24.65h1.26v1.27zm1.13.64l-.52-1.72 1.12.6-.6 1.12zm1.05-.63l-.45 1.73 1.1-.64-.65-1.09zm.82 1.75l-1.27 1.27h1.27v-1.27zm-6 .03L35 28.98V27.7h1.26zM39.3 32l-1.27-1.26V32h1.27zm-3.06-3.05l-.42 1.74-.66-1.08 1.08-.66zm1.15 2.84l-.48-1.72-.62 1.1 1.1.62zm-.5-5.17l-1.75.39.69-1.07 1.06.68zm-.63-1.1l1.75.37-.7-1.06-1.05.7zm4.11 4.54l1.73-.45-.64 1.09-1.09-.64zm.63 1.07l-1.74-.39.67 1.07 1.07-.68z" fill="#0A0A0A"/><path d="M17 25l2.38 6h.7l1.89-4.91L23.71 31h.66L27 25h-.61l-2.07 4.96L22.56 25h-.72l-1.9 4.98L18.13 25H17zm-5.17 2.52c-.08-.92.57-2.07 1.6-2.12 1.22-.06 1.65 1.09 1.56 2.12h-3.16zm3.92 2.22c-.64.27-1.37 1.2-2.75.63-.43-.17-.78-.49-.97-.9a3.26 3.26 0 01-.27-1.47H16c-.03-.86.04-1.45-.52-2.17-.43-.56-1.08-.77-1.77-.82-1.4-.1-2.74.7-3.03 2.12a3.9 3.9 0 00.24 2.21c.67 1.37 1.97 1.88 3.44 1.57.36-.07.63-.17.95-.33.44-.22.4-.39.44-.84zM4 25v6h1v-3.36c0-.96.53-1.93 1.73-2 1.22-.06 1.27 1.05 1.27 2V31h1v-4.06c-.01-1.32-.67-1.94-1.94-1.92-.9 0-1.6.57-2.06.93V25H4z" fill="#7F6C2D"/><path d="M31.57 25c-1.4 0-2.9.2-3.2 1.8-.03 1.17.35 1.65 1.1 2.38-.45.23-.79.31-.85.96-.03.38.07.53.23.8l.22.19.25.2.08.07c-2.05.57-1.9 3.28.8 3.57 4.07.43 5.24-4.15 1.68-4.37-.61-.03-3.24.35-2.32-.98.45-.65 3.94.68 3.56-3.03a2.36 2.36 0 00-.6-1.12H34V25h-2.43zm-.72.32c.54 0 1.16.27 1.37 1.12.22.91-.11 2.05-.7 2.34-2.26 1.1-3.08-2.46-1.29-3.34.16-.07.38-.12.62-.12zm.1 6.05c1.24-.02 2.44.6 1.93 2-.67 1.84-4.3 1.79-3.84-.79.14-.74.96-1.2 1.92-1.21zM50 28.83c-.3 3.82-4.34 3.46-3.98-.52.35-3.83 4.28-3.32 3.98.52zm0-2.27a3.64 3.64 0 00-.6-.85c-.73-.82-1.94-.82-2.65-.45-1.13.58-1.76 1.7-1.75 3.45.01 1.52.63 2.67 1.68 3.12.95.4 2.01.06 2.7-.57.1-.1.56-.6.62-.8V32h1V22h-1v4.56z" fill="#0A0A0A"/></svg>