<!-- by TradingView --><svg width="56" height="56" xmlns="http://www.w3.org/2000/svg"><path fill="#008BCA" d="M0 0h56v56H0z"/><path d="M45.28 22.992L44.272 24l1.008 1.008L46.288 24l-1.008-1.008zM33.432 23.998v7h.582v-7h-.582zM16.027 26v5h.582v-5h-.582zM15.998 24v1h.64v-1h-.64zM14.97 31.056a3.3 3.3 0 00-.282.068 1.45 1.45 0 01-.388.048c-.29 0-.514-.07-.67-.213-.148-.149-.222-.41-.222-.786v-3.676H12.5V26h.908v-1.385h.582V26H15v.497h-1.01v3.443c0 .123.003.23.01.32.006.091.025.165.058.224.032.058.08.1.145.126a.88.88 0 00.291.038c.078 0 .155-.006.233-.019a2.7 2.7 0 00.242-.048v.475zM3 31h.595v-2.67c0-.174.006-.336.02-.485.012-.149.048-.304.106-.465a1.517 1.517 0 01.495-.679c.122-.091.258-.162.407-.214.149-.058.314-.087.495-.087.465 0 .798.113.999.34.2.226.3.565.3 1.018V31H7v-3.252a4.33 4.33 0 00-.038-.591 1.209 1.209 0 00-.214-.563 1.441 1.441 0 00-.67-.553 2.23 2.23 0 00-.862-.165c-.35 0-.65.078-.902.233a3.768 3.768 0 00-.718.601V26H3v5z" fill="#fff"/><path d="M10.829 28.06a7.2 7.2 0 01-.388.058l-.805.107c-1.17.155-1.756.66-1.756 1.513 0 .246.045.46.136.64.09.175.213.323.368.446.156.123.333.214.534.272.207.058.42.087.64.087a2.48 2.48 0 001.028-.213c.317-.142.598-.35.844-.621 0 .09.007.178.02.262a.886.886 0 00.068.223.746.746 0 00.145.175.474.474 0 00.233.087c.084.02.171.029.262.029a.853.853 0 00.252-.039l.204-.058v-.456c-.246.09-.411.107-.495.049-.078-.065-.116-.21-.116-.437V27.45c0-.291-.049-.537-.146-.738a1.13 1.13 0 00-.388-.475 1.503 1.503 0 00-.582-.262 3.04 3.04 0 00-1.484.01c-.24.058-.453.155-.64.291-.181.13-.33.3-.446.514-.117.207-.185.46-.204.757h.592c.025-.22.077-.401.155-.543.084-.15.187-.266.31-.35.13-.09.278-.152.446-.184a2.46 2.46 0 01.553-.058c.453 0 .773.097.96.29.195.188.292.43.292.728 0 .09-.013.191-.04.301a.294.294 0 01-.174.223c-.097.045-.223.081-.378.107zm-.155.553c.252-.033.5-.1.747-.204v.786c0 .252-.052.472-.156.66a1.403 1.403 0 01-.417.455 1.841 1.841 0 01-.582.262c-.22.058-.446.087-.679.087a1.75 1.75 0 01-.407-.048 1.24 1.24 0 01-.35-.165 1.016 1.016 0 01-.242-.281.9.9 0 01-.087-.408c0-.342.123-.598.368-.766.253-.168.602-.268 1.048-.3.252-.02.505-.046.757-.078zM19.904 31.172a2.659 2.659 0 01-.912-.174 2.089 2.089 0 01-.737-.495 2.414 2.414 0 01-.495-.825 3.3 3.3 0 01-.184-1.154c0-.368.048-.711.145-1.028.097-.323.243-.605.437-.844.194-.24.436-.427.727-.563.291-.142.63-.213 1.019-.213.394 0 .737.071 1.028.213.29.136.533.324.727.563.194.233.337.51.427.834.097.324.146.67.146 1.038 0 .401-.055.763-.165 1.087-.11.323-.269.601-.476.834-.2.233-.446.414-.737.543a2.375 2.375 0 01-.95.184zm1.707-2.648c0-.297-.033-.575-.097-.834a1.924 1.924 0 00-.3-.67 1.427 1.427 0 00-.525-.455c-.213-.11-.475-.165-.785-.165-.304 0-.566.061-.786.184a1.479 1.479 0 00-.524.476c-.136.194-.236.42-.3.678a3.15 3.15 0 00-.098.786c0 .31.036.598.107.863.078.26.188.482.33.67.142.187.32.333.533.436.214.104.46.155.738.155a1.6 1.6 0 00.776-.174c.22-.123.397-.285.533-.485s.236-.427.3-.68c.065-.251.098-.513.098-.785z" fill="#fff"/><path d="M23.01 31.006h.583v-2.67c0-.175.006-.336.02-.485a1.85 1.85 0 01.106-.466 1.515 1.515 0 01.495-.679c.122-.09.258-.162.407-.213.149-.058.314-.087.495-.087.465 0 .798.113.999.339.2.226.3.566.3 1.018v3.243h.582v-3.252c0-.207-.013-.404-.038-.592a1.21 1.21 0 00-.214-.563 1.443 1.443 0 00-.67-.552 2.233 2.233 0 00-.862-.165c-.35 0-.65.077-.902.232a3.77 3.77 0 00-.718.602v-.71h-.582v5z" fill="#fff"/><path d="M30.45 28.098c.11-.013.239-.033.387-.058a1.49 1.49 0 00.379-.107.294.294 0 00.174-.223c.026-.11.04-.21.04-.3a.967.967 0 00-.292-.728c-.188-.194-.508-.291-.96-.291-.2 0-.385.019-.553.058a1.143 1.143 0 00-.446.184c-.123.084-.227.2-.31.35-.078.142-.13.323-.156.543h-.592c.02-.298.088-.55.204-.757.117-.213.265-.385.446-.514.188-.136.401-.233.64-.291a3.036 3.036 0 011.485-.01 1.5 1.5 0 01.582.262c.168.116.297.275.388.475.097.2.145.447.145.738v2.735c0 .226.039.372.116.436.084.059.25.042.495-.048v.456l-.203.058a.856.856 0 01-.253.039c-.09 0-.178-.01-.262-.03a.476.476 0 01-.232-.087.75.75 0 01-.146-.174.887.887 0 01-.068-.223 1.713 1.713 0 01-.02-.262 2.529 2.529 0 01-.843.62c-.317.143-.66.214-1.028.214-.22 0-.434-.03-.64-.087a1.544 1.544 0 01-.534-.272 1.364 1.364 0 01-.369-.446 1.415 1.415 0 01-.135-.64c0-.854.585-1.358 1.755-1.514l.805-.106zm.98.29a2.86 2.86 0 01-.748.204c-.252.033-.504.059-.756.078-.447.032-.796.133-1.048.3-.246.169-.369.424-.369.767a.9.9 0 00.088.408c.064.11.145.203.242.28.104.072.22.127.35.166.135.032.271.048.407.048.233 0 .459-.029.679-.087.22-.058.414-.146.582-.262.174-.123.313-.275.417-.456.103-.188.155-.407.155-.66v-.785zM37.218 25.75c.259 0 .484.039.677.118.328.136.594.385.796.748V26h1.312v4.771c0 .666-.112 1.168-.337 1.506-.385.581-1.124.872-2.216.872-.66 0-1.199-.13-1.615-.389-.417-.259-.648-.645-.692-1.16h1.468c.038.158.1.271.185.34.145.124.39.186.734.186.487 0 .812-.163.976-.488.107-.209.161-.56.161-1.052v-.331c-.13.22-.268.386-.417.497-.268.205-.617.308-1.047.308-.663 0-1.193-.232-1.59-.696-.396-.468-.593-1.1-.593-1.895 0-.767.191-1.411.573-1.932.382-.524.924-.787 1.625-.787zm.336 4.177c.316 0 .583-.119.8-.355.218-.24.327-.62.327-1.142 0-.49-.104-.862-.312-1.117a1.007 1.007 0 00-.83-.384c-.473 0-.8.223-.98.668-.094.236-.142.529-.142.876a2 2 0 00.152.8c.183.436.511.654.985.654z" fill="#fff"/><path d="M43.885 25.888a.33.33 0 00-.061-.005c-.405 0-.733.106-.986.317-.026.022-.053.043-.081.064-.136.104-.29.223-.463.508v-.774h-1.289v5h1.36v-2.431c0-.414.052-.72.156-.92.186-.353.551-.53 1.094-.53a3.466 3.466 0 01.389.024v-1.248l-.061-.003h-.011c-.014-.002-.025-.002-.034-.002h-.013zM44.66 25.998h1.369v5h-1.37v-5z" fill="#fff"/><path d="M50.014 25.96a1.65 1.65 0 00-.834-.21c-.679 0-1.222.253-1.63.759-.403.505-.605 1.198-.605 2.079 0 .764.205 1.39.615 1.88.414.486.922.73 1.525.73.367 0 .673-.07.92-.209.245-.139.465-.361.658-.668V31H52v-7h-1.394v2.527a1.62 1.62 0 00-.592-.568zm.331 3.674c-.199.285-.49.427-.871.427-.382 0-.668-.142-.857-.427-.187-.287-.28-.669-.28-1.146 0-.442.092-.811.275-1.108.186-.3.477-.45.871-.45.26 0 .486.082.682.246.32.272.479.723.479 1.355 0 .452-.1.82-.299 1.104z" fill="#fff"/></svg>