<!-- by TradingView --><svg width="56" height="56" xmlns="http://www.w3.org/2000/svg"><path fill="#005DAA" d="M0 0h56v56H0z"/><path d="M11.963 21.094c-.684 2.045-1.199 3.592-3.08 9.238A2231.413 2231.413 0 007 35.989c0 .005 1.593.011 3.541.011h3.538l.039-.13c.117-.393 2.397-7.539 2.413-7.556.01-.014.83 1.709 1.822 3.827l1.8 3.845 4.04.008c2.223.003 4.07 0 4.105-.008.06-.017.047-.03-.136-.15-.643-.423-1.31-1.13-1.746-1.845a7.794 7.794 0 01-.55-1.138c-.09-.25-.234-.726-.234-.776 0-.014.144.025.321.083.174.061.425.142.556.18l.237.073.027.145c.09.434.319 1.082.54 1.533.332.676.846 1.364 1.312 1.753.177.15.196.159.319.15l.128-.008-.16-.111c-.358-.248-.927-.902-1.238-1.42a7.519 7.519 0 01-.517-1.112c-.095-.276-.25-.855-.234-.871a3.68 3.68 0 01.43.089c.313.072 1.13.239 1.18.239.002 0 .016.117.024.256.07.938.316 1.934.64 2.59.145.298.158.312.245.32.05.006.085 0 .08-.013-.006-.011-.074-.159-.153-.323-.327-.674-.54-1.55-.646-2.63l-.016-.178.076.017c.297.061 1.4.186 2.09.24.19.013.354.03.359.035.008.009-.845 2.586-.934 2.822-.011.03.002.039.073.03l.087-.008.156-.459c.087-.253.3-.89.474-1.419l.321-.96.755-.003c.811-.003 1.47-.05 2.239-.161.247-.036.454-.064.46-.059.024.028-.515.866-.815 1.267-.275.364-1.018 1.112-1.326 1.335-.136.1-.37.248-.518.326l-.267.147h.172c.202 0 .316-.053.646-.292.76-.556 1.555-1.497 2.165-2.56.08-.14.145-.253.15-.259.003-.003.275-.064.602-.13.33-.067.793-.173 1.03-.234.24-.062.44-.109.446-.103.017.016-.392.62-.632.93a9.34 9.34 0 01-1.964 1.902c-.31.22-.839.526-1.105.638l-.227.094.115.009c.305.022 1.201-.479 1.912-1.066.71-.59 1.386-1.375 1.942-2.257l.213-.34.169-.047c.092-.025.356-.11.585-.186.232-.075.425-.13.43-.125.02.016-.264.398-.588.796-.953 1.171-2.345 2.365-3.568 3.066l-.31.178 6.507.008c3.579.003 6.515-.002 6.523-.014.011-.013.41-1.243.886-2.735.476-1.491.888-3.036.915-3.117l.049-.15-3.378.022-3.38.02.019-.067c.01-.037.78-2.09 1.705-4.875.93-2.785 1.686-5.067 1.686-5.072 0-.003-1.86-.006-4.132-.003-3.898 0-4.132.003-4.067.047.51.359 1.275 1.094 1.692 1.62.319.406.632.896.847 1.321.183.365.305.651.286.67-.005.01-.199-.08-.43-.194-.232-.114-.591-.27-.801-.35-.21-.078-.406-.154-.436-.165-.035-.014-.093-.117-.16-.284a12.162 12.162 0 00-1.038-1.958c-.376-.576-.488-.71-.586-.71-.046 0-.082.008-.082.017 0 .008.055.08.12.158.346.415.847 1.216 1.158 1.854.163.328.356.781.356.831 0 .014-.15-.016-.33-.069-.182-.05-.508-.128-.726-.175a6.444 6.444 0 01-.406-.092 7.956 7.956 0 01-.093-.426 18.246 18.246 0 00-.433-1.72c-.112-.347-.112-.35-.196-.35-.068 0-.08.008-.063.047.156.418.627 2.37.58 2.415a1.5 1.5 0 01-.267-.027 24.147 24.147 0 00-1.31-.14l-.21-.016.12-.381c.406-1.292.583-1.868.583-1.895 0-.02-.03-.031-.073-.025-.071.008-.085.044-.444 1.146l-.37 1.138-.733.006c-.406.005-.948.027-1.21.053-.261.025-.48.038-.485.036-.016-.02.507-.604.875-.98.463-.467.871-.832 1.307-1.16L34.82 20h-.122c-.107 0-.15.02-.31.142-.581.442-1.385 1.216-1.932 1.861-.16.192-.308.365-.324.384-.02.02-.194.062-.387.09-.422.066-1.024.192-1.455.303l-.313.083.327-.325c.885-.877 1.964-1.675 3.16-2.34l.354-.198h-.163c-.159 0-.189.011-.58.236a13.556 13.556 0 00-2.948 2.26l-.45.448-.49.17c-.27.092-.643.23-.828.306a2.753 2.753 0 01-.349.13c-.018-.019.592-.65.932-.96a15.923 15.923 0 013.35-2.359l.436-.231h-3.573c-1.967 0-3.577.006-3.577.011 0 .006-.466 1.405-1.038 3.108-.569 1.706-1.171 3.5-1.334 3.988-.284.851-.314.932-.333.904-.005-.005-.822-1.811-1.82-4.012L19.245 20H12.325l-.362 1.094zm25.986-.91a7.06 7.06 0 011.166.615c.433.292.793.6 1.215 1.043.398.418.635.743.828 1.135a4.75 4.75 0 01.425 1.509l.016.203-.13-.128a5.274 5.274 0 00-.714-.576l-.284-.192-.09-.229a8.212 8.212 0 00-1.318-2.159c-.25-.295-.86-.904-1.128-1.121a1.744 1.744 0 01-.198-.173c.008 0 .103.034.212.073zm-6.284.256c-1.395.798-2.781 1.903-3.688 2.935l-.286.323-.49.25c-.273.14-.635.337-.807.443a4.21 4.21 0 01-.321.186c-.014-.01.174-.272.441-.612.253-.325 1.019-1.113 1.351-1.397a12.955 12.955 0 013.037-1.9c.338-.15 1.07-.443 1.117-.445.014 0-.144.097-.354.217zm3.007 2.025c.003.003-.13.437-.302.963l-.313.955-.235.02c-.863.074-1.672.533-2.28 1.287-.463.576-.858 1.38-1.084 2.207l-.073.262-.45-.017c-.493-.022-.599-.034-.599-.078 0-.061.357-1.113.499-1.47.52-1.31 1.13-2.412 1.972-3.567.258-.353.357-.467.414-.478.163-.034.757-.08 1.228-.098.45-.016 1.196-.008 1.223.014zm.82.04c.433.038 1.182.139 1.229.166.073.048.212 1.364.223 2.129l.005.473h-1.28l-.008-.07c-.055-.467-.436-.74-1.117-.804a1.303 1.303 0 01-.267-.039c-.016-.014.54-1.758.591-1.861.02-.036.052-.045.156-.036.07.008.28.027.468.041zm-3.775.43a16.616 16.616 0 00-2.394 4.703l-.145.445-.256-.008c-.335-.011-1.773-.114-1.787-.13-.019-.02.05-.287.177-.696a10.724 10.724 0 011.953-3.581c.512-.624.488-.602.766-.677.574-.161 1.67-.392 1.885-.4.049-.003.016.052-.2.345zm5.5-.18c.326.067.76.178 1.043.264l.218.07.1.311c.177.557.322 1.21.384 1.74l.02.147h-1.847l-.017-.579A15.495 15.495 0 0036.977 23c-.047-.304-.047-.3-.03-.3.005 0 .128.024.27.055zm2.02.612c.27.108.883.415 1.052.526l.125.08.087.337c.082.318.14.587.177.86l.017.117-.768-.006-.771-.008-.063-.376a10.205 10.205 0 00-.346-1.416 5.471 5.471 0 01-.095-.312c0-.025.256.062.585.198zm-9.825-.117c-.656.818-1.06 1.402-1.427 2.079a11.408 11.408 0 00-.923 2.242c-.055.19-.104.348-.11.354-.01.014-.838-.061-1.094-.098-.088-.01-.117-.027-.117-.064 0-.1.198-.745.346-1.127.332-.862.811-1.697 1.454-2.532l.202-.264.286-.128c.42-.19 1.326-.534 1.41-.537.025-.003.014.025-.027.075zm-2.053.86c-.194.262-.513.726-.654.963-.237.386-.589 1.099-.755 1.536-.139.359-.346 1.026-.346 1.113a.07.07 0 01-.027.055c-.044.028-.844-.114-.844-.15 0-.047.147-.56.24-.837.193-.58.402-1.05.705-1.59.163-.291.166-.294.738-.648.27-.17.956-.545.997-.545.01 0-.01.047-.055.103zm13.578.228c.235.178.619.543.66.62a.406.406 0 01.01.193l-.019.136h-.754l-.017-.106c-.046-.278-.13-.687-.177-.86-.03-.103-.054-.2-.054-.214 0-.03.098.034.351.231zm-4.067 2.388c-.024.253-.139.896-.228 1.288l-.077.32-1.114-.006c-.967-.005-2.653-.05-2.672-.072-.005-.003.114-.392.264-.863l.273-.854h3.573l-.019.187zm2.125.083c-.035.51-.207 1.475-.27 1.517-.016.01-.47.022-1.005.022-.762 0-.975-.008-.975-.036 0-.017.044-.229.096-.465.051-.237.12-.612.152-.835a6.1 6.1 0 01.068-.44c.008-.024.226-.033.98-.033h.973l-.019.27zm1.245-.25l.455.016v.1c0 .173-.106.78-.205 1.17a5.203 5.203 0 01-.103.38c-.016.017-.616.064-1.051.084-.404.02-.417.017-.4-.034.086-.289.217-1.063.25-1.458.01-.13.022-.244.03-.258.013-.025.425-.025 1.024 0zm1.34.153c-.054.417-.272 1.358-.321 1.388-.033.022-.556.109-.654.109h-.066l.052-.19c.101-.361.196-.86.254-1.321l.016-.131h.738l-.019.145zm-16.044 1.221c.006.009-.013.14-.043.29-.172.851-.243 1.783-.194 2.523.02.265.052.604.076.755.025.15.036.28.028.292-.02.016-.7-.326-.787-.395-.039-.031-.063-.12-.096-.329-.054-.364-.06-1.675-.01-2.123.035-.312.16-1.09.18-1.124.013-.02.822.089.846.111zm1.373.153c.006.003-.022.156-.063.337-.081.387-.16.854-.212 1.26-.055.437-.044 1.79.014 2.182.057.373.057.378.002.378-.054 0-1.024-.328-1.051-.356-.035-.036-.128-.707-.158-1.146a8.27 8.27 0 01.044-1.525c.04-.398.155-1.088.198-1.21l.025-.062.594.064c.33.04.602.073.607.078zm1.367.109c.45.036.823.07.831.075.006.006-.057.281-.136.61a15.027 15.027 0 00-.343 1.82c-.063.503-.117 1.385-.104 1.71l.008.237-.095-.008a18.801 18.801 0 01-1.231-.245c-.267-.064-.319-.084-.332-.134-.117-.478-.15-1.89-.063-2.632.049-.404.147-.985.229-1.347l.04-.19.191.017c.104.012.556.05 1.005.087zm1.668.114c.22.011.4.028.4.036 0 .008-.022.128-.046.267a4.214 4.214 0 00-.044.654c0 .342.01.443.068.668.199.757.673 1.322 1.288 1.53l.172.059-.174.52c-.096.287-.207.61-.245.72l-.068.198-.142-.01-.673-.056c-.49-.04-1.525-.159-1.691-.195-.069-.014-.071-.022-.088-.27-.038-.587.063-1.767.23-2.669.073-.403.31-1.424.342-1.48.009-.011.071-.017.142-.005.068.008.305.022.529.033zm11.146.39c-.314.884-.777 1.855-1.158 2.431-.1.15-.109.156-.49.315-.213.089-.39.159-.395.153a3.66 3.66 0 01.196-.356c.425-.724.902-1.79 1.152-2.574a3.8 3.8 0 01.106-.3c.036-.037.698-.092.706-.06.005.018-.05.193-.117.39zm-.75-.312c0 .005-.057.178-.125.381a11.99 11.99 0 01-.852 1.953c-.22.404-.567.971-.61 1-.052.033-1.218.42-1.232.408a5.009 5.009 0 01.232-.498c.414-.834.779-1.806 1.032-2.749.058-.22.115-.406.123-.415.008-.008.215-.027.457-.041.246-.011.483-.025.526-.03.123-.015.45-.023.45-.01zm-5.227.114l1.409.022-.082.309a21.571 21.571 0 01-.814 2.48c-.115.286-.63 1.39-.665 1.427-.02.022-.98.147-1.444.189-.485.042-2.005.072-2.037.039-.008-.008.09-.328.215-.71l.232-.698.275.011c.863.036 1.631-.373 2.116-1.127l.142-.217-.2-.017c-.108-.01-.631-.02-1.157-.022-.528 0-.961-.005-.961-.011 0-.006.534-1.644.555-1.703.006-.017.186-.022.51-.011.275.011 1.133.028 1.907.039zm3.593-.009c0 .064-.163.671-.288 1.08-.237.771-.654 1.756-1.011 2.393-.152.273-.098.245-.782.423-.422.109-1.438.331-1.454.317a9.553 9.553 0 01.223-.492c.128-.267.313-.685.411-.93.216-.523.586-1.65.758-2.29.068-.25.128-.459.133-.464.011-.011.815-.04 1.842-.064.12-.006.168.005.168.027zm.725 3.379c-.324.436-.72.893-1.19 1.366a12.465 12.465 0 01-2.367 1.886c-.268.165-.529.304-.41.218.78-.574 1.251-.977 1.853-1.595.534-.543.904-.985 1.31-1.558l.245-.348.387-.156a3.88 3.88 0 01.398-.145c.005.003-.095.153-.226.332zm-14.276-.017l.297.13.1.36c.377 1.33 1.022 2.37 2.014 3.247.18.159.128.145-.23-.064-1.326-.78-2.266-2.06-2.658-3.623-.079-.309-.079-.314.063-.24.063.034.248.12.414.19z" fill="#fff"/></svg>