<!-- by TradingView --><svg width="56" height="56" xmlns="http://www.w3.org/2000/svg"><path fill="#74CA00" d="M0 0h56v56H0z"/><path d="M9 25h2v6H9v-6zm3 6h2v-3.361c0-.387.355-.963 1.103-.963.271 0 .897.083.897.91V31h2v-3.906C18 25.952 16.87 25 15.944 25c-.515 0-1.58.1-1.944.593V25h-2v6zm7.825 1.28c.335.237 1.3.72 2.492.72C24.997 33 25 31.189 25 30.09V25.48c-.387-.156-1.516-.479-2.616-.479-1.125 0-3.154.35-3.154 2.943 0 .82.32 1.36.787 1.877.414.457 1.02.658 1.656.658.804 0 1.22-.159 1.357-.29 0 0 .182.346-.068.853-.207.197-.437.249-.823.249-.62 0-1.374-.293-1.6-.45l-.714 1.44zM23 27.942c0 .833-.625.864-.907.86-.7-.009-1.093-.658-1.093-1.165 0-.584.407-1.103 1.317-1.103.2 0 .683.188.683.188v1.22zM28.425 25c-1.867 0-2.776 1.466-2.776 3 0 2.072 1.647 3 3 3 .4 0 1.375-.084 2.198-.616l-.592-1.352a2.83 2.83 0 01-1.497.416c-1.245 0-1.438-.835-1.459-.973H31v-.523c0-.422-.034-.941-.426-1.677C30.2 25.573 29.509 25 28.425 25zM27.3 27.51c0-.451.559-.834 1.126-.834.648 0 .993.464.993.835h-2.119zM33.5 31h2l2.5-6h-2l-1.5 3.475L33 25h-2l2.5 6zm5.5 0h2.005V25.01H39V31zm3-2.621c0 1.003.218 1.645.583 2.016.316.321.785.609 1.63.602.82-.006 1.421-.43 1.685-.657l-.536-1.39c-.172.13-.578.382-.83.38-.41-.003-.536-.179-.536-.654V27H45v-2l-1.004.009V23H42v5.379zm4.519 2.712l-.703 1.415s.604.494 1.549.494c.946 0 1.598-.436 2.106-1.633.136-.32.263-.666.396-1.027L52 25h-2l-1 3.5-1-3.5h-2.002l2.135 5.535s-.046.195-.102.308a1.07 1.07 0 01-.374.438c-.534.318-1.138-.19-1.138-.19zM4 21h5v4H4v-4z" fill="#F6F8FD"/></svg>