<!-- by TradingView --><svg xmlns="http://www.w3.org/2000/svg" width="56" height="56"><path fill="#2854A1" d="M0 0h56v56H0z"/><path d="M28.22 8.12l.05-.12.05.12c.2.5.98 2.42 1.6 3.43l.47.76c.4.64.78 1.26 1.16 1.94 1.05 1.9 1.53 5.15-1.63 7.45.67-3.04.9-4.95.85-6.15a30.63 30.63 0 01-1.84 5.8 83.8 83.8 0 00-.67-9.28c-.37 2.92-.6 6-.65 9.28-.8-1.86-1.41-3.8-1.84-5.8-.05 1.2.18 3.1.85 6.15-3.16-2.3-2.69-5.54-1.63-7.45.38-.68.76-1.3 1.16-1.95l.47-.75c.61-1 1.4-2.92 1.6-3.43zm12.6 10.33a5.15 5.15 0 01.1-.01l-.06.08c-.24.32-1.16 1.52-1.56 2.27l-.3.58c-.26.49-.51.96-.8 1.45-.81 1.37-2.69 2.89-5.35 1.82a19.98 19.98 0 004.23-1.81c-1.44.5-2.9.86-4.38 1.07a63.4 63.4 0 005.64-3.93c-2 .88-4.04 1.9-6.14 3.13.87-1.2 1.87-2.3 2.99-3.33-.79.42-1.92 1.29-3.6 2.85.27-2.8 2.51-3.75 4.12-3.82.57-.03 1.12-.03 1.68-.03h.66c.86 0 2.37-.25 2.77-.32zm-25.1 0c.4.07 1.9.32 2.77.32h.66c.56 0 1.1 0 1.68.03 1.6.07 3.84 1.01 4.11 3.82a19.73 19.73 0 00-3.59-2.85 22.79 22.79 0 013 3.33 63.84 63.84 0 00-6.16-3.11 63.45 63.45 0 005.65 3.91 23.41 23.41 0 01-4.38-1.07c.74.49 2.04 1.07 4.23 1.81-2.66 1.07-4.54-.45-5.35-1.82a34.8 34.8 0 01-.8-1.45l-.3-.58a21.82 21.82 0 00-1.62-2.35l.1.01zM13 26v15h6v-8.78L24.6 41H31v-6h6v6h6V26h-6v5h-6v-5h-6v8.64L19.78 26H13z" fill="#fff"/></svg>