<!-- by TradingView --><svg width="56" height="56" xmlns="http://www.w3.org/2000/svg"><path fill="#004684" d="M0 0h56v56H0z"/><path d="M42.431 21c2.227 0 3.974.936 4.569 1.432l-.633 1.47c-.876-2.169-2.989-2.558-3.936-2.482-3.686.191-5.335 2.368-5.431 5.1-.096 2.73 2.667 5.155 5.642 5.022 2.38-.107 3.68-1.65 4.032-2.407L47 30.53c-.71.745-2.432 1.471-4.569 1.471C40.243 32 36 30.53 36 26.52c0-4.011 3.724-5.52 6.431-5.52zM11.354 21h-2.03v.23c.736.009.952.764.969 1.14.008 2.048.02 6.659 0 7.76A1.737 1.737 0 019 31.812V32h3.01v-.188c-.738-.19-1.008-1.2-1.05-1.68v-7.762c2.755 3.083 8.33 9.303 8.59 9.526.261.223.331.037.333-.084v-8.579c0-1.389.745-1.863 1.117-1.927V21h-2.669v.305c.853.057.99 1.308 1.045 1.927V30l-8.022-9zM27 21h-4v.215c.514 0 1.487.643 1.5.964.01 2.01.024 6.377 0 7.758a1.845 1.845 0 01-1.498 1.84V32H27v-.224c-.73-.043-1.515-1.244-1.5-1.839V26.44h7v3.498c0 1.402-1.206 1.81-1.5 1.84V32h4.002v-.224c-.758-.02-1.498-1.234-1.502-1.839-.008-2.336-.02-7.159 0-7.758.02-.6 1.03-.892 1.262-.963V21H31v.215c.85 0 1.49.643 1.5.964V26h-7v-3.82c0-.558 1.267-.875 1.5-.963V21zM8 34h40v1H8z" fill="#fff"/></svg>