<!-- by TradingView --><svg width="56" height="56" xmlns="http://www.w3.org/2000/svg"><path fill="#08090D" d="M0 0h56v56H0z"/><path d="M20.432 27.427c.447-.481.384-.89.821-2.024a7.23 7.23 0 0113.493 0c.438 1.135.375 1.543.821 2.024.435.47.892.573 2.312.573H44c0-4.625-1.986-8.853-5.184-11.788a15.996 15.996 0 00-21.633 0A15.993 15.993 0 0012 28h6.12c1.421 0 1.878-.103 2.312-.573zm21.904 7.689L36.424 29.2C35.19 27.965 35.294 28 33.544 28H22.456c-1.75 0-1.646-.035-2.882 1.201l-5.91 5.915a16.006 16.006 0 005.992 6.55c1.514-1.513 6.054-6.056 6.81-6.812.62-.62.895-.86 1.231-.964a.968.968 0 01.604 0c.336.103.61.343 1.23.964l6.81 6.813a16.003 16.003 0 005.994-6.551z" fill="#fff"/></svg>