<!-- by TradingView --><svg width="56" height="56" xmlns="http://www.w3.org/2000/svg"><path fill="#F0F3FA" d="M0 0h56v56H0z"/><path d="M44.905 16L34.94 38h-8.152c1.94-1.517 2.276-3.333 1.207-6.245l-4.27-10.633-4.4 11.284a4.727 4.727 0 00-.388 1.91c0 .753.172 1.496.5 2.173.33.677.807 1.048 1.398 1.511H11l9.964-22h7.592l3.407 12.11 1.984-5.035L37.097 16h7.808z" fill="#0066A4"/><path d="M20.524 34.92c0-1.015 3.174-9.968 3.174-9.968s2.809 7.602 3.334 9.397c.603 2.064-.826 3.556-2 3.556-1.715-3.143-.223-4.453 1.047-4.572-1.619-.222-2.254.794-2.317 1.524-.54-2.317.095-5.841.095-5.841s-1.778 3.746-.762 7.016c.43 1.382 1.536 2.063 1.46 2.984-.039.477-.031.476-.38.984-.392-.106-.858-.317-.858-.317s.541-.182.667-.477c.175-.408-.038-.971-.444-1.047-2.826-.53-3.016-2.222-3.016-3.238z" fill="#419639"/></svg>