<!-- by TradingView --><svg width="56" height="56" xmlns="http://www.w3.org/2000/svg"><path fill="#017FC1" d="M0 0h56v56H0z"/><path d="M23.33 26.752c3.804-3.17 8.2-4.13 9.459-2.73 2.27 2.527-3.159 7.647-5.866 9.466-5.962 4.004-12.14 5.124-14.144 2.622-2.05-2.56-.174-7.883 7.03-13.546 6.74-5.293 18.752-8.588 22.661-5.165 3.935 3.447.321 12.792-11.325 19.148-7.18 3.92-17.111 5.485-17.222 5.453.514-.06 9.74-2.221 16.009-6.578 5.723-3.974 10.9-10.697 7.648-14.341-2.357-2.641-9.662-1.494-16.133 3.054-4.183 2.94-7.269 7.102-5.694 9.427 1.157 1.707 5.15 1.87 9.844-1.5 2.199-1.584 4.152-3.832 3.45-4.993-.632-1.046-2.862-.607-4.652.284-2.534 1.262-4.735 3.517-4.735 3.517s.928-1.835 3.67-4.118z" fill="#fff"/></svg>