<!-- by TradingView --><svg xmlns="http://www.w3.org/2000/svg" width="56" height="56"><path fill="#083B92" d="M0 0h56v56H0z"/><path d="M23.04 24.04c.07.04.13.1.18.16l.75.76.6.62 4.67 4.74v-5.23c0-.17-.02-.35-.05-.52-.05-.24-.16-.37-.38-.37l-.3-.05h-.03c-.05 0-.14 0-.14-.07 0-.08.1-.08.17-.08h2c.07 0 .16-.01.17.06.02.1-.2.1-.32.12h-.07c-.2.04-.35.18-.38.36-.02.16-.02.32-.02.48v6.87c-.01.09-.07.12-.15.07a1.3 1.3 0 01-.23-.17l-.03-.02-1.27-1.2-4.72-4.87v5.32c.02.24.07.73.4.75l.13.01c.18.02.45.03.45.12 0 .08-.08.1-.14.1h-2.17c-.08 0-.16-.02-.16-.1 0-.06.05-.07.1-.08a11.77 11.77 0 01.35-.04c.4-.06.4-.55.39-.89v-2.68a616.27 616.27 0 010-2.9V24.3c0-.06 0-.13.03-.2.03-.1.09-.11.17-.05zM35 24.1l.01.02.08.18v.01l.25.6a456.18 456.18 0 001.34 3.33l.96 2.38c.07.2.17.38.27.56v.01l.16.23.02.03a1 1 0 00.78.4h.02c.06 0 .23 0 .23.07s-.1.07-.17.07H37l-.1-.01c-.05-.03-.07-.1-.02-.12.18-.08.14-.2.09-.34L36 29.15c-.06-.15-.06-.15-.22-.15h-2.13c-.17 0-.18 0-.23.15l-.13.37-.52 1.45a3 3 0 00-.12.46c-.05.28.08.39.39.4h.04c.07 0 .16 0 .18.08.03.08-.15.1-.2.09h-1.99c-.08 0-.25 0-.25-.1 0-.09.19-.08.26-.08h.03c.33 0 .59-.11.75-.38.1-.17.19-.35.26-.53l1.1-2.9 1.01-2.67a377.85 377.85 0 01.48-1.21l.01-.02c.03-.05.05-.1.12-.11.08 0 .11.06.14.11zm-.3 1.45a1 1 0 01-.04.04 89.1 89.1 0 00-.52 1.53l-.49 1.45c.15.04 2 .04 2.14 0v-.03l-.03-.08-.49-1.36-.5-1.41a.62.62 0 00-.05-.09c0-.02-.02-.03-.03-.05zm-20.55-1.39c-.04-.04-.07-.08-.13-.12-.08-.06-.16-.05-.2.04a.74.74 0 00-.02.2v6.61c0 .34 0 .83-.39.9a5.31 5.31 0 01-.35.03c-.05 0-.1.02-.1.07 0 .1.08.1.16.1h2.16c.07 0 .14-.01.15-.09 0-.09-.28-.1-.46-.12h-.13c-.32-.03-.37-.52-.39-.77V25.7l4.72 4.87 1.27 1.2.02.03c.07.06.11.1.2.15.08.04.17.04.19-.05v-6.88c0-.16 0-.32.02-.48.03-.18.19-.32.37-.36h.08c.12-.01.34-.03.32-.12-.01-.06-.14-.06-.22-.06h-1.94c-.07 0-.18 0-.18.08 0 .07.09.07.14.07h.02l.31.05c.22 0 .32.13.37.37.04.17.05.35.06.52v5.23l-4.67-4.74-.6-.62-.75-.76-.03-.03zm28.22-.07c0-.08-.11-.1-.17-.1h-2.42c-.11 0-.18.05-.17.1.02.07.07.07.13.08h.03l.1.01.33.05c.17.05.27.16.3.33.02.08.03.17.03.26v5.2c0 .5-.02 1.3-.09 1.54a.35.35 0 01-.3.24h-.05c-.11 0-.31.01-.31.1 0 .1.17.1.25.1h4.19c.28 0 .36-.04.42-.3.05-.23.08-.47.12-.7 0-.08.02-.14.03-.21 0-.06.02-.22-.07-.23-.07 0-.09.06-.1.1l-.01.04-.04.11-.1.28a.77.77 0 01-.67.47c-.54.05-1.09.07-1.62 0a.8.8 0 01-.6-.55c-.08-.22-.08-.52-.08-1v-4.94c0-.17.02-.37.05-.54.03-.19.17-.29.36-.32l.23-.02.06-.01h.02c.06 0 .15-.01.15-.08zm3.94.07c.04-.02.12-.05.1-.12-.03-.05-.3-.05-.38-.05h-1.48c-.2 0-.4 0-.4.08 0 .06.06.08.11.08.3.03.51.17.72.36.2.2.4.41.55.65.3.46.6.96.9 1.46.28.47.56.94.84 1.37.25.38.37.79.36 1.23v.67c-.01.46-.01.93-.04 1.37-.01.23-.12.53-.37.53h-.04c-.1 0-.32.01-.32.1 0 .1.17.1.24.1h2.1c.1 0 .25-.03.25-.12 0-.07-.07-.07-.13-.07h-.05c-.08 0-.15-.02-.22-.03l-.16-.02c-.22-.02-.3-.38-.3-.7l-.02-1.18v-.78c-.01-.41.1-.8.31-1.16l.46-.8c.39-.68.8-1.38 1.22-2 .15-.2.32-.4.5-.6.22-.22.48-.36.8-.38.07 0 .15-.02.15-.1 0-.04-.1-.06-.2-.06h-1.66c-.1 0-.23.02-.23.07 0 .07.06.08.12.1h.01c.14.04.2.13.2.26-.01.08-.01.16-.04.23-.05.12-.1.24-.17.35l-.87 1.51c-.3.55-.61 1.1-.9 1.59-.19-.3-.39-.65-.6-1.02-.19-.35-.38-.7-.55-.98a107 107 0 01-.82-1.33c-.06-.1-.11-.22-.14-.34-.04-.14 0-.2.14-.27zm-38.14-.05c-.03-.06-.06-.12-.13-.12s-.1.06-.13.11v.02l-.09.2a361.45 361.45 0 00-2.5 6.57c-.08.19-.17.36-.27.53-.16.27-.41.38-.75.39h-.02c-.08 0-.27-.01-.27.07 0 .1.17.11.25.11h1.99c.05 0 .23-.01.2-.1-.02-.07-.11-.07-.18-.07h-.04c-.3-.02-.43-.13-.38-.4a3 3 0 01.11-.46l.52-1.45.13-.37c.05-.14.06-.15.23-.15h2.13c.17 0 .17 0 .22.14l.96 2.39c.05.13.1.25-.08.34-.06.02-.04.09.02.11l.09.02h1.94c.08 0 .17 0 .17-.08 0-.06-.17-.06-.23-.06h-.02a1 1 0 01-.77-.4l-.03-.03-.15-.23v-.02c-.1-.18-.2-.36-.28-.55l-.96-2.38c-.28-.72-.56-1.43-.85-2.12l-.5-1.21-.23-.6v-.01l-.09-.17v-.02zm-.34 1.48l.04-.04c0 .02.02.04.03.05l.04.09c.17.45.34.93.5 1.42.17.46.33.92.5 1.35a.57.57 0 01.02.11c-.13.04-1.99.04-2.13 0l.48-1.45.5-1.48a.2.2 0 01.02-.05z" fill="#fff"/></svg>