<!-- by TradingView --><svg width="56" height="56" xmlns="http://www.w3.org/2000/svg"><path fill="red" d="M0 0h56v56H0z"/><path d="M4 24.005V32h1.353v-5.474L9.466 32h1.12v-7.995H9.308v4.244l-3.414-4.244H4zm17.71 0L18.832 32h1.396l1.935-5.505L24.14 32h2.104l-2.982-7.995H21.71zm2.991 0l-.497 1.318.709 1.837.253-.665L27.091 32h2.21l-2.96-7.995H24.7zm4.79 0c.004 1.784-.016 3.57 0 5.354.035.703.27 1.423.824 1.91.566.51 1.368.694 2.125.726.722.026 1.545-.045 2.196-.363a2.385 2.385 0 001.227-1.494c.222-.726.112-1.487.137-2.231v-3.902h-1.438v5.043c-.005.498-.05 1.053-.444 1.422-.404.349-1.074.347-1.582.28a1.146 1.146 0 01-.962-.882c-.164-.608-.072-1.238-.096-1.858v-4.005h-1.987zm7.509 0V32h2v-6.916c.42.016 1.062-.035 1.476.042.402.072.748.346.867.726.147.404.153.874-.01 1.276-.169.388-.59.581-.995.664-.258.058-.528.081-.793.104.681 1.27 1.37 2.834 2.051 4.104h2.115c-.623-1.129-1.249-2.56-1.871-3.689.526-.186 1.054-.468 1.321-.965.242-.423.291-.927.254-1.4a2.094 2.094 0 00-1.026-1.578c-.492-.313-1.101-.39-1.68-.363H37zm10.02 0L43.912 32h1.353l.846-2.423h2.844L49.822 32H52l-3.15-7.995h-1.83zm.508 2.055l.972 2.417h-1.945l.973-2.418zm-24.814 2.957L21.709 32h1.269l.38-1.312-.644-1.671zM15.331 24c-.943-.005-1.91.29-2.59.91-.834.76-1.22 1.862-1.237 2.927-.034.908.16 1.838.687 2.617a3.314 3.314 0 001.776 1.339c.815.257 1.721.273 2.548.06.896-.238 1.662-.832 2.083-1.599.544-.946.652-2.069.486-3.117-.14-.838-.52-1.669-1.194-2.258-.657-.58-1.563-.864-2.464-.869-.015 0-.031-.003-.047-.005L15.33 24zm.08 1.02c.12.003.242.023.359.059.65.187 1.06.763 1.247 1.339.21.577.25 1.193.233 1.798-.029.808-.197 1.672-.793 2.298-.29.275-.673.483-1.1.47-.736.01-1.315-.564-1.564-1.16-.352-.814-.396-1.713-.296-2.577.097-.691.323-1.423.909-1.898a1.59 1.59 0 011.004-.33z" fill="#fff"/></svg>