<!-- by TradingView --><svg xmlns="http://www.w3.org/2000/svg" width="56" height="56"><path fill="#0B4357" d="M0 0h56v56H0z"/><path d="M29.04 36.49a42.17 42.17 0 007.42 5.08 15.97 15.97 0 01-18.44-1.07c-.07-3.82.62-8.7 3.55-12.87a.77.77 0 00.06-.07l.05.07a33.19 33.19 0 007.36 8.86zm3.82-10l.42.66.05.08a.65.65 0 01.05-.08c2.82-4 3.55-8.68 3.55-12.42a16 16 0 00-16.85-.64 42.79 42.79 0 015.83 4.18 33.2 33.2 0 016.95 8.2v.01zm-11.2-.82a1.26 1.26 0 011 .55l.5.64c.96 1.3 2.77 3.7 7.95 7.3 2.72 1.9 5.69 3.4 8.82 4.46a15.92 15.92 0 00-.03-21.28c-.73 3.48-2.22 7.63-5.3 10.97-.37.42-.75.77-1.3.78a1.26 1.26 0 01-1-.55l-.49-.63c-.97-1.3-2.77-3.7-7.96-7.3a36.03 36.03 0 00-7.2-3.89 15.95 15.95 0 00-1.57 20.67c.74-3.48 2.24-7.6 5.3-10.95.35-.4.72-.76 1.28-.77z" fill="#fff"/></svg>