<!-- by TradingView --><svg width="56" height="56" xmlns="http://www.w3.org/2000/svg"><path fill="#3F4F7D" d="M0 0h56v56H0z"/><path d="M27 14.024V17.2c.018.27-.25.816-1.12.799a137.22 137.22 0 00-3.114 0c-.794.02-2.38.582-2.335 2.56.045 1.976 1.578 2.392 2.335 2.44h13.227c.158 0 .467.16.45.512-.016.353-.287.488-.45.488H18.902c-.788-.014-2.377.464-2.392 2.49-.015 2.028 1.592 2.51 2.392 2.51h18.382c.169.007.482.164.49.507.01.342-.318.493-.49.493H19.99c-.763.055-2.273.589-2.228 2.466.045 1.877 1.503 2.444 2.228 2.534h13.205c.19 0 .434.173.434.522 0 .35-.238.478-.434.478h-3.827c-.725.014-2.353.327-2.368 2.47a240.27 240.27 0 00-.004 3.506C18.075 41.548 11 35.455 11 28c0-7.456 7.077-13.55 16-13.976zm1.995 0A285.8 285.8 0 0029 17.517c.015 2.508-1.682 2.525-2.558 2.483H22.94c-.106 0-.443.104-.432.481.01.377.338.498.432.519h13.444c.694.07 2.09.618 2.136 2.512.045 1.894-1.404 2.426-2.136 2.488H18.996c-.189 0-.411.201-.42.49-.007.29.268.496.42.496h18.663c.725.07 2.179.571 2.179 2.465s-1.454 2.48-2.18 2.549H20.216c-.171 0-.43.124-.438.466-.008.341.28.534.438.534h13.467c.662 0 2.053.611 2.068 2.489.015 1.877-1.389 2.515-2.068 2.511-1.075-.007-3.346-.017-3.826 0s-.856.47-.856.737v3.24C37.923 41.55 45 35.455 45 28c0-7.457-7.08-13.552-16.005-13.976z" fill="#fff"/></svg>