<!-- by TradingView --><svg width="56" height="56" xmlns="http://www.w3.org/2000/svg"><path fill="#F0F3FA" d="M0 0h56v56H0z"/><path d="M51.88 30.556c-.51-.03-.81-.132-1.064-.38-.195-.22-.315-.6-.315-1.054L50.486 26h1.394c.06 0 .105-.033.105-.091l.015-.786c0-.058-.045-.123-.105-.123h-1.394v-1.498a.101.101 0 00-.105-.103h-1.763c-.06 0-.133.044-.133.103v5.62c0 .995.426 1.727 1.056 2.239.48.41 1.26.63 2.174.63h.165c.06 0 .105-.045.105-.103v-1.215c-.015-.073-.06-.117-.12-.117zm-20.613-.005h-.09c-.48 0-.668-.088-.878-.307-.195-.234-.3-.6-.3-1.142v-6.981c0-.059-.045-.121-.105-.121l-1.776.004c-.06 0-.118.044-.118.102v6.996c0 1.04.313 1.8.928 2.313.45.38 1.155.585 1.98.585.12 0 .24 0 .374-.015.06 0 .105-.058.105-.102v-1.23a.11.11 0 00-.03-.073c-.03-.014-.06-.029-.09-.029zM11.554 25c-.78 0-1.074.317-1.554.712l.003-.59c0-.058-.045-.122-.105-.122H8.11c-.06-.02-.105.044-.105.102L8 31.892c0 .058.045.108.105.108h1.793c.06 0 .105-.05.105-.108v-4.6c-.003-.617.6-.792.99-.792.554 0 1.007.383 1.007 1.422v3.999c0 .059.056.079.116.079h1.782c.06 0 .105-.02.105-.079v-4.336c.045-1.712-1.13-2.585-2.449-2.585zm9.786 3c.075-1.01.448-1.564 1.377-1.564.93 0 1.28.525 1.28 1.564H21.34zm1.45-3c-2.28 0-3.288 1.75-3.288 3.507 0 1.756.978 3.493 3.288 3.493 1.05 0 2.066-.317 2.68-.947a.11.11 0 00.016-.146l-.656-.858c-.03-.044-.105-.059-.15-.03-.54.381-1.114.566-1.654.566h-.134c-.78-.03-1.373-.678-1.552-1.585h4.5c.06 0 .106-.044.106-.088.045-.322.05-.449.05-.625C25.966 26.224 24.769 25 22.79 25zm19.633 3c.075-1.01.39-1.56 1.375-1.56.93 0 1.222.52 1.222 1.56h-2.597zm1.434-3c-2.28 0-3.3 1.75-3.3 3.507 0 1.756 1.036 3.493 3.345 3.493 1.05 0 2.01-.317 2.625-.947a.11.11 0 00.015-.146l-.66-.86c-.03-.044-.104-.059-.15-.03-.539.381-1.11.568-1.65.568h-.135c-.78-.03-1.344-.678-1.524-1.585h4.419c.06 0 .097-.06.127-.149.05-.152.031-.388.031-.564C46.955 26.224 45.837 25 43.857 25zm-8.859.715c.48-.395.774-.711 1.554-.711 1.32 0 2.494.872 2.449 2.585v4.336c0 .058-.045.079-.105.079h-1.782c-.06 0-.116-.02-.116-.08v-3.999c0-1.039-.453-1.421-1.007-1.421-.39 0-.993.174-.99.792v4.6a.106.106 0 01-.105.108h-1.793a.106.106 0 01-.105-.109l.004-6.789c0-.058.045-.122.105-.102h1.79c.06 0 .104.063.104.122l-.003.59z" fill="#A4AAAD"/><path d="M11 21c-3.862 0-7 3.138-7 7s3.138 7 7 7 7-3.138 7-7c.014-3.862-3.138-7-7-7zm5.566 7A5.575 5.575 0 0111 33.566 5.575 5.575 0 015.434 28 5.575 5.575 0 0111 22.434c3.067.014 5.566 2.5 5.566 5.566z" fill="url(#paint0_linear)"/><defs><linearGradient id="paint0_linear" x1="11.004" y1="35.008" x2="11.004" y2="21" gradientUnits="userSpaceOnUse"><stop stop-color="#8AB232"/><stop offset="1" stop-color="#BCCB2A"/></linearGradient></defs></svg>