<!-- by TradingView --><svg xmlns="http://www.w3.org/2000/svg" width="56" height="56"><path fill="#F0F3FA" d="M0 0h56v56H0z"/><circle cx="28" cy="28" r="16" fill="#00529B"/><circle cx="28" cy="28" fill="#EACB4C" r="12"/><circle cx="28" cy="28" r="8" fill="url(#aiateulpp)"/><circle cx="28" cy="28" r="3" fill="url(#biateulpp)"/><path d="M40 28h-1.04s-.3-5.15-3.46-7.87c-2.14-2.07-5.54-3.23-7.5-3.23V16a12 12 0 0112 12z" fill="#211E04"/><path d="M28.5 12h-1v11.24h-.83v.26h.23l1.14 2.55 1.06-2.55h.23v-.26h-.83V12zM44 27v1H33.12v.89h-.26v-.24l-2.55-1.13 2.55-1.07v-.23h.26V27H44z" fill="#5A580E"/><defs><linearGradient id="aiateulpp" x1="31.08" y1="21.2" x2="23.11" y2="34.02" gradientUnits="userSpaceOnUse"><stop stop-color="#fff"/><stop offset=".46" stop-color="#8B782C"/><stop offset="1" stop-color="#614E02"/></linearGradient><linearGradient id="biateulpp" x1="28.69" y1="25" x2="26.1" y2="29.65" gradientUnits="userSpaceOnUse"><stop stop-color="#FFFFEB"/><stop offset=".48" stop-color="#817028"/><stop offset="1" stop-color="#564C1B"/></linearGradient></defs></svg>