<!-- by TradingView --><svg width="56" height="56" xmlns="http://www.w3.org/2000/svg"><path fill="#3B3B3B" d="M0 0h56v56H0z"/><path d="M29.404 16.558c-2.254-.666-3.408.371-3.704.973l1.233.491c.296-.283.881-.589 1.136-.706 1.562-.566 2.018.235 2.051.706.217 1.898-.387 3.18-.716 3.583-.89.85-3.035 2.175-4.497.681-1.463-1.494-1.236-3.792-.94-4.755.157-.66 1.039-2.29 3.312-3.52 2.273-1.232 4.933-1.12 5.979-.91.354.076 1.166.364 1.581.91.415.544 1.606 2.346 2.15 3.178l.692 1.01c.79.767 1.202 1.75 1.31 2.144.073 1.842-.022 1.92-.324 4.232-.241 1.85-2.254 3.71-3.23 4.41-1.089.82-3.459 2.597-4.23 3.142-.77.545-1.194 2.145-1.31 2.876l-.296 1.741c-.115.43-.534 1.318-1.285 1.439-.75.12-2.24-.909-2.89-1.439-.52-.134-1.977-.166-3.657.783-1.68.948-3.27 2.868-3.854 3.709L16 44c.744-.347 2.473-1.358 3.442-2.618.968-1.26 2.176-2.206 2.658-2.521 2.336-1.319 4.407-.636 5.15-.13.562.456 1.957 1.119 3.04.13 1.082-.989 1.169-3.101 1.077-4.033.418-1.802 2.03-2.825 2.785-3.11 1.595-.89 4.942-3.319 5.569-5.925.626-2.607.05-4.818-.317-5.597-.221-.43-.935-1.76-2.017-3.638-1.083-1.877-2.38-3.204-2.895-3.633-1.136-.698-4.348-1.675-8.104 0-3.755 1.675-4.315 4.685-4.126 5.98.198 1.438 1.334 4.396 4.3 4.719 2.964.323 4.331-1.565 4.644-2.549.338-1.228.45-3.85-1.803-4.517z" fill="#C1A46B"/><path d="M37.691 16.847c-.116-2.583-1.788-3.426-2.61-3.525 1.891 1.244 2.249 3.435 2.191 4.375-.419 3-.915 3.204-2.77 5.223-1.484 1.615-4.943 3.559-6.487 4.329-1.47.414-5.108 2.397-7.902 7.015-2.793 4.618-3.906 8.412-4.113 9.731 1.095-1.642 3.492-5.38 4.32-7.192.83-1.814 3.087-4.382 4.112-5.44.63-.648 2.76-2.38 6.248-4.114 3.486-1.735 5.237-3.609 5.677-4.33.493-.947 1.45-3.489 1.334-6.072z" fill="#C1A46B"/><path stroke="#C1A46B" d="M13 34.5h8m10 0h9"/></svg>