<!-- by TradingView --><svg xmlns="http://www.w3.org/2000/svg" width="56" height="56"><path fill="#F0F3FA" d="M0 0h56v56H0z"/><path fill-rule="evenodd" d="M20 20H6v16h14V20zm-8.5 2H8v12h3v-6.5l3.5 6.5H18V22h-3v7.5L11.5 22zM35 20H21v16h14V20zm-7 2c3.73 0 6 2.64 6 6s-2.27 6-6 6-6-2.64-6-6 2.27-6 6-6zm3 6c0 1.92-1.36 3.5-3 3.5s-3-1.58-3-3.5c0-1.9 1.36-3.5 3-3.5s3 1.6 3 3.5zm5-8h14v16H36V20zm12 14h-2v-1c-1 1-2.34 1-3.42 1-3.55 0-5.58-2.45-5.58-5.85C37 25 39 22 42.75 22 46 22 48 24 48 26h-3s-.4-1-2.25-1C40.41 25 40 27.31 40 28c0 1.44 1 3 2.75 3S45 30 45 30h-2v-2h5v6z" fill="#253654"/></svg>