<!-- by TradingView --><svg width="56" height="56" xmlns="http://www.w3.org/2000/svg"><path fill="#0C479C" d="M0 0h56v56H0z"/><path d="M7.333 32H5v-8h4.036l4.63 5.973V24h2.332v8h-3.953l-4.712-6.074V32zM24.008 30c.522 0 .706 0 .83-.114.117-.106.168-.244.168-.7v-2.373c0-.455-.05-.592-.168-.7-.124-.113-.308-.113-.83-.113h-4.01c-.521 0-.705 0-.83.114-.117.107-.168.244-.168.7v2.372c0 .456.051.594.169.7.124.113.308.114.829.114h4.01zm2.995-.502c0 1.08-.19 1.453-.506 1.81-.485.532-1.189.692-2.545.692h-3.897c-1.357 0-2.062-.16-2.546-.692-.316-.357-.506-.73-.506-1.81v-2.996c0-1.08.19-1.452.506-1.81.484-.532 1.189-.692 2.546-.692h3.897c1.356 0 2.06.16 2.545.692.315.358.506.73.506 1.81v2.996zM34.346 24h3.115l-4.204 3.742L38 32h-3.335l-4.305-4.172L34.346 24zM28 24h2.36v8H28v-8zM41 24h-2.425v8H41v-8zM45.65 29h3.002l-1.502-3.027L45.65 29zm4.548 3l-.646-1h-4.93l-.518 1h-2.668l4.281-8h3.002L53 32h-2.802z" fill="#fff"/></svg>