<!-- by TradingView --><svg width="56" height="56" xmlns="http://www.w3.org/2000/svg"><path fill="#213864" d="M0 0h56v56H0z"/><path d="M4 31h1v-2.997L7 31h1v-5H7v2.998L5 26H4v5zm5.668-3.474c-.439.392-.668.883-.668 1.472 0 .549.185 1.04.573 1.425.388.384.878.577 1.427.577.373 0 .727-.109 1.037-.283.31-.174.519-.416.698-.726a1.92 1.92 0 00.27-.988 1.952 1.952 0 00-1.012-1.72A1.977 1.977 0 0011 27c-.5 0-.947.184-1.332.526zM12 28.997c0 .564-.41.994-1 1.003-.59.009-1-.4-1-1.006 0-.617.485-1 1-.994.515.007 1 .42 1 .997zM14 31h1v-1.674c0-.64-.005-1.331.81-1.326.697 0 .7.705.7 1.178L16.5 31h1v-1.822c0-.434.16-1.184.718-1.178.598 0 .777.501.777.966V31H20v-2.332c0-.84-.364-1.668-1.337-1.668-.439 0-1.02.332-1.266.689-.218-.412-.63-.689-1.103-.689-.442 0-.992.215-1.294.543V27h-1v4zm10-3.526A1.562 1.562 0 0022.83 27c-1.086 0-1.83.974-1.83 2 0 1.018.793 2 1.858 2 .462 0 .812-.187 1.142-.495V31h.996v-4H24v.474zm0 1.527c0 .607-.458.99-1 .999a.976.976 0 01-1-1c0-.594.418-1 1-1 .582 0 1 .394 1 1.001zm5-1.527A1.586 1.586 0 0027.82 27c-1.085 0-1.82.974-1.82 2 0 1.018.784 2 1.849 2 .46 0 .821-.187 1.151-.495V31h1v-5h-1v1.474zm0 1.527c0 .607-.45.999-1 .999s-1-.408-1-1c0-.595.441-1 1-1 .559 0 1 .394 1 1.001zM31 31h1v-2h2v-1h-2v-1h2v-1h-3v5zm3.77-1.976c0 1.089.902 1.996 1.988 1.996A2.011 2.011 0 0038.77 29c.005-1.09-.928-1.98-2.016-1.977-1.082 0-1.984.918-1.984 2zm3-.023c0 .7-.523 1.014-1.003 1.019-.48.004-.997-.32-.997-1.019 0-.64.49-1 .997-1 .506 0 1.003.346 1.003 1zm1.654-.017c0 1.079.912 2.002 1.996 2.002 1.069 0 2.001-.937 1.996-2 .006-1.072-.927-2-1.996-2-1.084 0-1.996.917-1.996 1.998zm2.996.002a.993.993 0 01-1 1c-.446-.012-.995-.33-.995-.999 0-.668.524-.997.995-1 .472-.004 1 .33 1 .999zm4.58-1.46A1.652 1.652 0 0045.811 27c-.5 0-.923.199-1.273.57-.349.372-.538.85-.538 1.431 0 .561.195 1.03.556 1.408.36.377.788.591 1.283.591.22 0 .425-.064.613-.141a1.83 1.83 0 00.548-.38V31h1v-4.996h-1v1.522zm-.24.665c.2.203.24.536.24.796s-.04.606-.24.812a.996.996 0 01-.75.31.98.98 0 01-.738-.315c-.2-.21-.272-.478-.272-.803 0-.324.07-.588.267-.795a.978.978 0 01.74-.31c.304 0 .555.102.754.305zM50.373 27c-.617 0-1.373.421-1.373 1.084 0 .75.437.856 1.056 1.163.202.1 1.211.33.845.862-.412.32-1.059.03-1.358-.315l-.557.537c.334.43.78.669 1.338.669.762 0 1.676-.302 1.676-1.199 0-.615-.589-.873-1.099-1.12-.177-.047-1.204-.275-.771-.795.376-.298.986.088 1.214.31l.586-.56c-.374-.491-.96-.639-1.557-.636z" fill="#fff"/><path d="M13.995 26a1.001 1.001 0 00-.997-1A.997.997 0 0012 26a1.001 1.001 0 00.998 1 .997.997 0 00.998-1zm-.546 0a.453.453 0 01-.871.176.454.454 0 01.42-.618.451.451 0 01.451.442z" fill="#09F"/></svg>