<!-- by TradingView --><svg width="56" height="56" xmlns="http://www.w3.org/2000/svg"><path fill="#0C384B" d="M0 0h56v56H0z"/><path d="M4 23v11h2v-7.043L12.066 34H13V23h-2v6.516L5.504 23H4zm39 0v11h2v-7.043L51.066 34H52V23h-2v6.516L44.504 23H43z" fill="#fff"/><path fill-rule="evenodd" d="M19.5 34a5.5 5.5 0 100-11 5.5 5.5 0 000 11zm0-2a3.5 3.5 0 100-7 3.5 3.5 0 000 7z" fill="url(#paint0_linear)"/><path d="M28.5 34L25 23h2l2.5 7.005L32 23h2l-3.5 11h-2z" fill="#fff"/><path d="M33 34l3.5-11h2L42 34h-2.006l-.94-2.617h-3.112L35.022 34H33zm4.515-8l-1.317 4h2.703l-1.386-4z" fill="#fff"/><defs><linearGradient id="paint0_linear" x1="22.996" y1="24.221" x2="15.512" y2="32.242" gradientUnits="userSpaceOnUse"><stop stop-color="#89ADB5"/><stop offset="1" stop-color="#AB7063"/></linearGradient></defs></svg>