<!-- by TradingView --><svg width="56" height="56" xmlns="http://www.w3.org/2000/svg"><path fill="#F0F3FA" d="M0 0h56v56H0z"/><path d="M46.127 33c.166-.882-.543-1-1.152-1-.94 0-1.519.05-1.733 1.172-.21 1.103.569 1.015 1.309 1.074.63.044.928-.089.788.637-.132.686-.661.597-1.02.597-.793 0-.985-.078-.91-.45l.052-.304h-.543l-.066.363c-.166.867.617.911 1.37.911.77 0 1.454-.044 1.66-1.137.245-1.27-.605-1.112-1.48-1.171-.538-.03-.722.02-.591-.672.092-.485.411-.475 1.064-.475.551 0 .783.063.709.455h.542zm-5.285 1.78l-.026.147c-.105.549-.35.598-1.064.598-.936 0-.984-.295-.752-1.525h2.514l.07-.377c.28-1.436-.041-1.623-1.162-1.623-1.243 0-1.633.403-1.939 2.015-.284 1.48-.17 1.985 1.182 1.985.775 0 1.488-.054 1.685-1.078l.026-.142h-.534zm-1.735-1.24c.196-.802.524-1.04 1.219-1.04.694 0 .86.26.737 1.04h-1.956zM37.18 32h-.52l-.74 4h.52l.74-4zm.19-1h-.522l-.118.61h.521l.118-.61zm-4.578 1l-.74 4h.522l.464-2.465c.109-.686.39-1.034 1.037-1.034.433 0 .551.162.46.642l-.053.26h.5l.052-.28c.135-.725-.088-1.123-.758-1.123-.39 0-.823.138-1.09.565l-.004-.015.118-.55h-.508zm-1.358 0h-1.363l.233-.997h-.52l-.233.997h-.446l-.092.475h.446l-.455 2.354c-.17.911-.035 1.171.78 1.171.713 0 1.063-.363 1.208-1.132l.061-.29h-.495l-.06.29c-.067.372-.123.657-.614.657-.385 0-.464-.093-.39-.515l.485-2.535h1.359l.096-.475zm-3.75 1c.166-.882-.543-1-1.152-1-.94 0-1.519.05-1.733 1.172-.21 1.103.569 1.015 1.309 1.074.63.044.927-.089.787.637-.13.686-.66.597-1.02.597-.792 0-.984-.078-.91-.45l.053-.304h-.543l-.066.363c-.166.867.617.911 1.37.911.77 0 1.453-.044 1.66-1.137.244-1.27-.605-1.112-1.48-1.171-.539-.03-.723.02-.591-.672.092-.485.411-.475 1.064-.475.551 0 .783.063.709.455h.542zm-5.615 3h.53l.74-4h-.521l-.456 2.466c-.179.926-.582 1.059-1.317 1.059-.674 0-.648-.334-.53-.96L20.993 32h-.52l-.478 2.564c-.192 1.024.053 1.436.972 1.436.455 0 .91-.088 1.19-.564h.014l-.1.564zm-5.518-.475c-.748 0-.954-.162-.696-1.51.258-1.357.473-1.514 1.27-1.514.853 0 .88.45.682 1.514-.232 1.2-.442 1.51-1.256 1.51zm.884.475h.526l1.006-5h-.525l-.359 1.55h-.013c-.066-.47-.635-.55-1.015-.55-1.244 0-1.524.849-1.738 2.015-.228 1.186-.254 1.985.985 1.985.468 0 .923-.083 1.212-.549l.013.015-.092.534zm-5.806-4h-.526l-.74 4h.521l.434-2.308c.17-.897.407-1.191 1.26-1.191.587 0 .815.117.675.828L12.759 36h.52l.491-2.627C13.99 32.295 13.613 32 12.72 32c-.399 0-.92.08-1.174.545h-.013L11.63 32zm-2.08-1h-.561L8 36h.56l.99-5z" fill="#595959"/><path d="M31.361 20h-3.908l-.994 4.462c1.714-1.215 3.433-2.695 4.902-4.462zm-5.899 8.93h2.497l.511-2.287h2.21c2.608 0 3.386-.857 3.947-3.37.094-.423.148-.8.162-1.135-.95.817-4.523 3.734-9.039 5.5l-.288 1.292zm17.898-3.12c-.303 1.358-.236 1.619.8 1.619.999 0 1.157-.26 1.46-1.619.302-1.357.264-1.632-.735-1.632-1.036 0-1.223.275-1.525 1.632zm4.407 0c-.573 2.571-1.273 3.19-3.994 3.19-2.685 0-3.118-.69-2.561-3.19.571-2.56 1.25-3.203 3.986-3.203 2.746 0 3.157.56 2.569 3.203zm-9.13-.703c.099-.44.232-.929-.355-.929-.648 0-.906.488-1.021 1.001l-.836 3.75h-2.148L35.601 23h2.085l-.22 1h.087c.446-.715 1.155-1.393 1.954-1.393 1.498 0 1.362 1.167 1.108 2.31l-.109.488h-1.935l.067-.298z" fill="#EF1209"/><path d="M31.177 22.087h-1.711l-.557 2.608h1.711c.994-.036 1.155-.145 1.412-1.31.205-.922.12-1.298-.855-1.298zM21.892 29h2.149l.166-.756c-.741.233-1.502.429-2.274.573l-.04.183zm-1.243-3.468c.171-.77.454-1.321 1.415-1.321.7 0 .807.301.685.913l-.419 1.894c.775-.402 1.606-.87 2.458-1.404l.216-.97c.3-1.356-.217-2.016-1.665-2.016-1.011 0-1.705.376-2.237 1.372h-.089l.208-1h-2.149l-1.337 6 2.347-.905.567-2.563zM13.057 23.5h3.996l-.369 2H12.69l-.387 1.5h4.344l-.434 2H9.37l1.99-9h6.755l-.436 2h-4.257l-.365 1.5z" fill="#595959"/></svg>