<!-- by TradingView --><svg width="56" height="56" xmlns="http://www.w3.org/2000/svg"><path fill="#F0F3FA" d="M0 0h56v56H0z"/><path d="M21.709 21.826S11.413 25.83 6.829 29.48c-5.313 4.233.877 7.904 19.506 6.01C38.368 34.264 53.03 30.01 53.03 30.01c-3.6.704-18.582 2.816-22.938 3.27-.529.053-21.526 2.207-21.526-1.587 0-3.299 13.126-9.484 13.126-9.484l-.888 2.834 2.661-2.643 2.097 1.172-.698-2.266 2.568-2.19-3.172.755-1.076-1.852-.894 2.399-2.87.855 2.29.552z" fill="#1A75BC"/><path d="M23.238 18.642l.661 1.605 2.626-.813-2.021 1.68.492 1.643-1.55-.755-1.945 1.794.625-2.305-2.154-.244 2.719-.64.547-1.965z" fill="#DEB02E"/><path d="M18 23.998V31h-2l-2-4v4h-2v-7.002h2L16 28v-4.002h2zM24 26.003V31h-2v-.715a2.406 2.406 0 01-.542.453 2.276 2.276 0 01-.941.262c-.325 0-.598-.04-.811-.117-.214-.08-.375-.185-.477-.314a.918.918 0 01-.192-.41c-.025-.142-.037-.425-.037-.847V26h2v3.484c0 .382.36.516.514.516a.49.49 0 00.486-.516V26l2 .003zM33 25.003V26h1v1h-1v2.382c0 .366.03.375.09.417.059.041.556.057.91.057V31h-1.819c-.62 0-.799-.086-1.016-.384-.157-.215-.165-.79-.165-1.344V27h-.566v-1H31v-1h2v.003zM36.339 27.585h-1.593v-.28c0-.324.061-.463.18-.638.121-.175.361-.329.723-.465.362-.133.77-.202 1.351-.202.696 0 1.28.076 1.633.23.353.15.566.338.635.561.07.22.107.568.107 1.256v2.095c0 .306.27.858.27.858h-1.957v-.631h-.222s-.06.631-1.37.631-1.544-.54-1.544-1.404c0-.86.465-1.443 1.322-1.573.857-.13 1.674-.272 1.674-.682 0-.411-.294-.5-.577-.5-.283.003-.632.291-.632.744zm1.115.951c-.513.16-.811.293-.893.402-.082.109-.122.263-.122.465 0 .232.037.38.106.447.07.066.213.1.426.1.2 0 .309-.049.373-.1.06-.052.113-.17.113-.396v-.918h-.003zM42 26v1c.365-.454 1.308-.975 2-1v1.694c-.461 0-.799 0-1.016.071-.216.071-.785.232-.859.431-.074.2-.125.456-.125.9V31h-2v-5h2zM25 29h2s-.424 1 .518 1c.569 0 .482-.631.482-.849 0-.42-.053-.631-1.164-1.23-1.111-.597-1.836-.962-1.836-2.36S26.526 24 27.611 24c1.085 0 2.389.34 2.389 1.22V26h-2v-.4c0-.162.008-.599-.482-.599s-.518.305-.518.713c0 .407.585 1.027 1.836 1.61 1.25.582 1.164 1.613 1.164 1.895 0 .286.23 1.781-2.482 1.781C25.08 31 25 29.942 25 29.574 25.005 29.212 25 29 25 29z" fill="#000"/></svg>