<!-- by TradingView --><svg width="56" height="56" xmlns="http://www.w3.org/2000/svg"><path fill="#439539" d="M0 0h56v56H0z"/><path d="M33.457 21.811c-1.346.076-2.527-.226-3.425-.83l.225 1.585c.897.453 2.378.377 2.826.377-.074.453-.169 1.907.28 2.812l1.645.227c-.598-.906-.803-2.057-.803-3.416 0-.528-.3-.755-.748-.755z" fill="#fff"/><path d="M35.85 20.151c-1.795.226-3.813-.226-5.757-1.66l-.224-2.038c1.869 1.283 3.514 2.34 6.28 2.264.897 0 1.196.226 1.121 1.132-.075 2.717.972 4.453 2.243 6.264l-2.018-.226c-1.346-1.887-1.87-3.925-1.645-5.736z" fill="#fff"/><path d="M38.915 17.057c-1.645.377-5.233.226-9.345-2.944-.15-1.51-.225-2.113-.225-2.113 1.795 1.51 5.458 3.925 9.57 3.623 1.271-.076 1.57.15 1.42 1.434-.299 4.15 2.094 7.773 3.664 9.585 0 0-.673-.076-2.093-.227-3.215-4.075-3.365-7.698-2.99-9.358zm-4.71 16.452c-.075-1.358.203-2.585.802-3.49l-1.645.226c-.449.905-.353 2.434-.353 2.887-.449-.075-1.876-.258-2.773.195l-.225 1.66c.898-.604 2.026-.723 3.446-.723.449-.075.748-.302.748-.755z" fill="#fff"/><path d="M35.85 35.925c-.225-1.812.224-3.85 1.645-5.736l2.018-.227c-1.27 1.887-2.392 3.547-2.243 6.264 0 .906-.224 1.208-1.121 1.132-2.767-.075-4.411.982-6.28 2.265l.224-2.038c1.944-1.359 3.962-1.887 5.757-1.66z" fill="#fff"/><path d="M38.915 38.943c-.374-1.66-.15-5.207 2.99-9.358A98.057 98.057 0 0044 29.358c-1.495 1.812-3.963 5.434-3.663 9.585.074 1.283-.15 1.51-1.42 1.434-4.188-.302-7.776 2.114-9.57 3.623 0 0 .074-.68.224-2.113 4.112-3.17 7.7-3.245 9.345-2.944zM22.542 34.19c1.345-.076 2.547.226 3.444.83l-.224-1.585c-.898-.453-2.398-.377-2.846-.377.074-.453.18-1.904-.268-2.81l-1.645-.226c.598.906.791 2.054.791 3.413 0 .528.3.755.748.755z" fill="#fff"/><path d="M20.15 35.925c1.794-.227 3.812.226 5.756 1.66l.224 2.038c-1.869-1.283-3.514-2.34-6.28-2.265-.897 0-1.196-.226-1.121-1.132.075-2.717-.972-4.453-2.243-6.264l1.944.151c1.42 1.962 1.944 4 1.72 5.812z" fill="#fff"/><path d="M17.084 38.943c1.645-.377 5.233-.15 9.345 2.944.15 1.51.225 2.113.225 2.113-1.795-1.51-5.458-3.925-9.57-3.623-1.271.076-1.57-.15-1.42-1.434.299-4.15-2.169-7.773-3.664-9.584 0 0 .673.075 2.093.226 3.215 4.15 3.29 7.698 2.99 9.358zm4.71-16.377c.075 1.359-.179 2.523-.777 3.429l1.645-.226c.448-.906.328-2.373.328-2.826.449.076 1.894.174 2.792-.279l.224-1.66c-.897.604-2.119.807-3.464.732-.524.075-.748.302-.748.83z" fill="#fff"/><path d="M20.15 20.151c.224 1.811-.225 3.849-1.645 5.736l-2.02.226c1.272-1.886 2.393-3.547 2.244-6.264-.075-.906.224-1.207 1.121-1.132 2.766.076 4.411-.981 6.28-2.264l-.224 2.038c-1.944 1.358-3.962 1.886-5.757 1.66z" fill="#fff"/><path d="M17.084 17.057c.374 1.66.15 5.207-2.99 9.358-1.496.151-2.094.227-2.094.227 1.495-1.812 3.963-5.434 3.663-9.585-.15-1.283.15-1.51 1.42-1.434 4.113.377 7.776-2.114 9.57-3.623 0 0-.074.68-.224 2.113-4.112 3.17-7.7 3.321-9.345 2.944z" fill="#fff"/></svg>