<!-- by TradingView --><svg width="56" height="56" xmlns="http://www.w3.org/2000/svg"><path fill="#6A1A41" d="M0 0h56v56H0z"/><path d="M12 16.535s1.348-.869 2.272.212c.925 1.08 1.515 2.344 1.85 3.059.232.49.929 1.598 1.31 2.01.57.617 3.024 3.029 3.024 3.029s.734-.854 1.337-1.353c.808-.67 1.808-1.206 1.808-1.206-1.174.101-1.84.528-2.177.716-.422.235-1.35.837-1.35.837l.488-3.475s-.945.685-1.85.37c-.718-.252-1.333-1.328-1.333-1.328l-.517.272.026-1.926 1.72 1.003-.555.29s.395.712.792.95c.395.237.898.105 1.268-.053s1.321-.687 2.271-.158c0 0 .185.133.53.262.67.257.988.188.988.188l-.301-1.852-3.54.843-.66-1.108-.45-.104.315-2.013h3.647l.847-1h2.853L28 13h3l-1.057 2.48s-.343.74.422 1.028c.765.29 1.268.423.609 1.556L35.464 13s-1.294 2.955.424 4.959l6.394-4.697s-1.875 2.929-.131 7.02c0 0-2.854 2.478-.634 5.776 0 0-3.443.136-4.631 5.07 0 0-2.766-.76-3.886 1.16-.938 1.602.36 3.36.36 3.36s-.636.927-.041 1.52c.743.742 1.538-.161 1.538-.161s.065 1.334 1.07 1.334c1.004 0 1.293-1.191 1.293-1.191s1.181 1.153 2.137.198c1.07-1.068.152-2.9-1.54-2.214l.45.87-4.361-.396 1.824-3.984.58.896s1.357-1.029 3.356-.79c1.635.196 3.394 1.399 4.067 3.584.596 1.936.348 5.064-2.338 6.901-1.514 1.034-4.106 1.042-6.246-.355 0 0-1.746 1.135-3.806 1.135-2.061 0-3.461-1.161-3.461-1.161s-1.374 1.16-3.462 1.16c-2.087 0-3.699-1.056-3.699-1.056s-4.351 3.028-8.167-1.142c0 0 5.072 2.148 8.167-.796 0 0 2.298 1.86 4.598 1.36 0 0-1.875-5.357-6.634-7.255 0 0-3.41.697-3.947 1.233-.3.3-.908.698-1.337 1.125-.698.697-1.401.756-1.401.756V34.58s.236.8.71.8c.476 0 1.42-.9.691-1.909 0 0-.926-.615-1.401-1.036v-1.516s.206.308.408.605c.194.28 1.152.47 1.257-.032.107-.5.078-1.95-1.665-1.662 0 0 1.743-1.501 2.935.58l2.246-1.265-3.145-5.328S12.845 22.867 12 24v-3s.254.846.847.693c0 0 1.082-.252.554-1.227 0 0-.952-.477-1.401-.66v-2.228s.326 1.074.749 1.232c.422.158 1.129-.534 1.101-1.036-.027-.5-.317-1.45-1.85-1.24zm12.003.924c.24-.067.34.263.34.263l.027.123.414 2.627s.02.2-.041.338c-.179.402-1.267.1-1.676-.06-.324-.126-.622-.479-1.352-.479-.135 0-.261.042-.261.042l-.284 2.007s1.02-.68 1.895-.735c1.282-.084 1.976.258 1.976.258s-.693.728-1.85 1.883c-1.208 1.206-1.528 2.62-1.528 2.62 1.068-.45 3.067-2.025 3.067-2.025-1.294 2.925-8.137 6.944-9.404 7.562-1.267.619-.844 2.25-.844 2.25s3.085-.717 5.616-1.698a108.65 108.65 0 004.356-1.824l1.516 3.605-2.006-1.991-2.162.895c3.098 2.755 4.28 8.039 4.28 8.039.765-.198 1.8-1.159 1.8-1.159 3.997 2.445 7.267 0 7.267 0 4.428 2.889 6.886.017 7.292-1.261.405-1.286.546-3.276-.847-4.714-1.424-1.475-3.234-1.186-3.234-1.186-1.157.14-2.168 1.07-2.168 1.07l-.238-.46-.717 1.43 1.626.16-.278-.458s1.52-1.265 2.956-.59c1.436.675 2.018 2.64.762 4.104-1.194 1.388-2.956.479-2.956.479s-.378.81-1.372.81c-1.192 0-1.541-.894-1.541-.894s-1.13.378-1.989-.48c-.859-.856-.281-2.191-.281-2.191-.746-.746-1.462-2.98-.127-4.611 1.595-1.954 3.968-1.44 3.968-1.44.801-4 3.705-4.49 3.705-4.49-1.154-2.98.873-5.23.873-5.23-1.014-1.18-.76-3.09-.76-3.09l-6.757 4.806c1.254-.426 2.478.036 2.478.036-1.692 0-2.253 1.06-2.253 1.06s.07.296-.068.75c1.861.044 2.826.883 2.826.883-1.688-.588-3.154.456-3.154.456-.196.786-.556 1.354-.556 1.354 1.58.126 2.276 1.769 2.276 1.769-1.855-1.558-3.52-.602-3.52-.602-.564.225-1.718 1.097-2.337 1.602-.619.505-.478.872-.31 1.462.167.59.957 2.699.957 2.699l-2.817-3.908s2.874-1.94 3.294-2.304c.423-.366.227-.506.086-.62-.14-.11-.309-.308-.309-.308-.732-.704-.48-1.8-.14-2.193.336-.393.28-.842.195-.983-.083-.142-.252-.478-.252-.478-.478-.675.169-1.519.169-1.519.618-.9-.113-1.405-.113-1.405-.281-.534-.197-.759.084-1.377.28-.618-.394-.646-.9-.872-.507-.224-.452-.562-.396-.955.057-.395.452-1.546.452-1.546-.817.196-1.245 1.235-1.245 1.235h-3.152l-.715 1h-3.261l-.164.567.37.627s2.985-.612 3.412-.735zm-7.878 7.564c1.988 3.335 2.359 3.415 2.359 3.415.53-1.72 1.14-2.489 1.14-2.489s-2.53-2.786-3.302-3.818c-.572-.758-1.656-2.748-1.656-2.748-.53.423-.262.911-.13 1.397.202.735-.156 1.522-.156 1.522l1.745 2.72zm15.168-5.535c.37.9 0 1.246-.346 1.801-.345.556-.212.82.159 1.59.372.764 0 1.11-.318 1.745-.318.636.345.848.345.848 1.22-1.668.53-4.316.53-4.316l3.29-2.46c-.796-1.298-.956-2.119-.956-2.119l-2.704 2.911zm-5.656-.839C26.121 17.115 27 17 27 17h-2.004l.641 1.65z" fill="#fff"/></svg>