<!-- by TradingView --><svg xmlns="http://www.w3.org/2000/svg" width="56" height="56"><path fill="#F0F3FA" d="M0 0h56v56H0z"/><path d="M13 23.25a.75.75 0 011.5 0v9.5a.75.75 0 01-1.5 0v-9.5z" fill="#D2DA00"/><path d="M43 23.25a.75.75 0 10-1.5 0l.05 9.53a.72.72 0 001.45 0v-9.53z" fill="#0280C4"/><rect x="16" y="17" width="2" height="22" rx="1" fill="#C8D600"/><rect width="2" height="22" rx="1" transform="matrix(-1 0 0 1 40 17)" fill="#2C8EC4"/><path d="M19.5 15.25a1.25 1.25 0 112.5 0v25.5a1.25 1.25 0 11-2.5 0v-25.5z" fill="#A6CB0C"/><path d="M36.5 15.25a1.25 1.25 0 10-2.5 0v25.5a1.25 1.25 0 102.5 0v-25.5z" fill="#53A6C2"/><rect x="24" y="12" width="3" height="32" rx="1.5" fill="#98C95D"/><rect x="29" y="12" width="3" height="32" rx="1.5" fill="#82C9B5"/><path d="M23.04 25c-5.12.05-9.5 2.26-11.04 3.35 7.1-.64 13.45.9 16.03 1.68 2.07.62 5.64.9 7.16.97 5.55-.2 8.18-2.28 8.81-3.29-4.29.84-9.1-.13-13.21-1.36A34.94 34.94 0 0023.04 25z" fill="#F0F3FA"/></svg>