<!-- by TradingView --><svg width="56" height="56" xmlns="http://www.w3.org/2000/svg"><path fill="#6FB315" d="M0 0h56v56H0z"/><path d="M4 23.49s1.255.735 1.963 1.952c.45.77.555 1.46.627 1.683 1.4.022 1.995.608 2.8 1.943.176.29.361.594.538.876a22.906 22.906 0 00-.804-1.083c-.58-.727-1.327-1.41-2.478-1.432-.265-.007-.345-.007-.45-.007-.105 0-.241 0-.66-.008 1.24.638 1.336 2.218 2.124 3.242.724.942 1.36 1.728 3.193 2.054.258.045.869.134 1.15.119-.377-.297-.675-.712-1.013-1.239a10.845 10.845 0 01-.869-1.936 54.935 54.935 0 01-.86-2.937c-.346-1.35-.933-2.588-2.663-3.07-.523-.141-1.52-.163-2.115-.163-.29 0-.483.007-.483.007z" fill="#fff"/><path d="M12.679 23.039l-1.93 7.181c.394.958.764 1.753 1.359 2.282l2.123-7.866.017-.063c.024-.093.032-.187.032-.28-.008-.756-.7-1.238-1.601-1.254zM5.464 27.704L4.04 33h1.979l.812-3.068c-.37-1.009-.74-1.79-1.367-2.228zM20.16 33h-1.368c-.25 0-.394-.097-.418-.23-.032-.133-.008-.321.056-.572a3.45 3.45 0 01-.949.619c-.402.188-.9.282-1.504.282-.708 0-1.199-.141-1.472-.415-.266-.274-.394-.634-.37-1.08a5.64 5.64 0 01.097-.729c.056-.258.112-.516.184-.767l1.078-4.031c.08-.016.17-.032.25-.04.152-.015.305-.023.458-.023.161 0 .314.016.467.047a.933.933 0 01.394.172.617.617 0 01.225.352c.04.196.024.4-.04.588l-.764 2.85a9.664 9.664 0 00-.137.602 1.277 1.277 0 00-.008.462.457.457 0 00.233.305c.129.07.322.11.58.11.353.008.7-.07 1.013-.22.306-.148.49-.336.547-.555l1.239-4.643c.08-.015.168-.03.249-.039.153-.015.306-.023.458-.023.161 0 .314.016.467.055a.885.885 0 01.386.188.72.72 0 01.217.375c.032.204.024.407-.04.603L20.16 33zM22.227 31.707a2.032 2.032 0 01.032-.583c.04-.202.08-.411.145-.613l1.802-6.444.233-.03.233-.022c.08-.007.161-.007.242-.007.16 0 .313.015.466.044a.88.88 0 01.386.165c.113.09.185.21.217.344.04.187.025.38-.04.56l-.219.875 2.107.007-.394 1.42-2.107-.007-.883 3.065c-.185.65.016.972.587.972.145 0 .282-.023.419-.06.128-.038.257-.082.386-.135.104-.044.209-.097.305-.157.089-.052.145-.097.185-.127.08.172.145.352.201.531.04.135.04.277 0 .419a.724.724 0 01-.257.35c-.16.128-.338.24-.53.322a3.385 3.385 0 01-.757.232c-.298.06-.603.09-.909.09-.627 0-1.086-.112-1.367-.337a1.162 1.162 0 01-.483-.874zM30.898 26.921c.105-.1.21-.2.322-.284.29-.222.62-.391.981-.499a2.17 2.17 0 01.966-.053c.12.015.24.053.346.107.217.1.313.338.233.553-.08.253-.201.49-.362.713-.161.238-.338.476-.523.699a1.522 1.522 0 00-.426-.307 1.326 1.326 0 00-.572-.108c-.305 0-.603.085-.852.253-.233.139-.402.361-.483.614L29.33 33h-2.043l1.842-6.754.185-.03a9.3 9.3 0 01.217-.024c.08-.008.177-.008.29-.008.273-.007.546.054.788.177a.585.585 0 01.29.56zM35.025 32.931a1.687 1.687 0 01-.282.045 8.721 8.721 0 01-.45.015c-.394 0-.684-.075-.893-.232-.201-.158-.241-.465-.113-.93l1.56-5.573c.081-.015.17-.03.25-.037a4.69 4.69 0 01.459-.023c.16 0 .313.015.466.045a.953.953 0 01.394.165.59.59 0 01.226.338c.04.187.024.382-.04.562l-1.577 5.625zm2.501-8.902c-.08.292-.265.547-.523.72a1.42 1.42 0 01-.852.277c-.314 0-.547-.09-.708-.277-.16-.188-.193-.428-.113-.728.08-.292.266-.547.523-.735.242-.18.547-.285.861-.285a.851.851 0 01.692.285c.16.203.2.443.12.743zM40.543 31.573a2.992 2.992 0 001.246-.262c.161-.067.314-.15.459-.239.137-.09.257-.172.37-.239.096.172.169.351.225.538.065.172.08.358.048.538-.056.201-.233.388-.53.552a3.95 3.95 0 01-1.006.381 5.575 5.575 0 01-1.408.157c-.45 0-.909-.052-1.343-.172a2.286 2.286 0 01-1.054-.582c-.281-.277-.458-.65-.555-1.12-.088-.471-.032-1.061.17-1.771a4.705 4.705 0 01.715-1.509c.298-.403.66-.754 1.078-1.046.386-.269.82-.47 1.279-.605a4.89 4.89 0 011.32-.194c.562 0 1.013.082 1.359.247.321.141.587.373.772.657.169.284.265.612.273.941.008.373-.112.949-.217 1.315l-.056.194c-.024.075-.049.15-.073.239l-.08.247c-.024.067-.048.1-.072.16h-4.416c-.105.508.024.75.225 1.087.193.306.62.478 1.27.486zM41.934 29c.12-.44.21-1.058.097-1.334-.105-.277-.402-.419-.885-.419a1.624 1.624 0 00-1.102.396c-.314.262-.611.879-.74 1.357h2.63zM46.157 33h-2.059l1.842-6.75.185-.031c.065-.008.137-.016.217-.023.08-.008.177-.008.29-.008.273-.008.547.046.788.161.21.107.298.3.282.575a3.46 3.46 0 01.949-.605c.402-.185.9-.277 1.504-.277.708 0 1.199.138 1.472.407.265.268.394.621.37 1.058a5.42 5.42 0 01-.096.714c-.057.253-.113.506-.185.752L50.622 33h-2.044l1.07-3.95c.057-.208.105-.407.137-.584.032-.153.032-.306.008-.46a.448.448 0 00-.233-.3c-.129-.068-.322-.107-.58-.107a2.29 2.29 0 00-1.013.215c-.306.146-.49.33-.547.545L46.157 33z" fill="#0F0708"/></svg>