<!-- by TradingView --><svg width="56" height="56" xmlns="http://www.w3.org/2000/svg"><path fill="#0080A5" d="M0 0h56v56H0z"/><path d="M37.02 20.3s2.93-.15 5.144 2.27A7.88 7.88 0 0144 25.858c-1.06-7.82-7.817-13.85-16-13.858-8.183.009-14.94 6.038-16 13.86.4-1.448 1.1-2.483 1.835-3.289 2.214-2.42 5.143-2.27 5.143-2.27 7.286.363 7.022 7.624 7.022 7.624v15.996c.342.034.653.06 1 .077V26.914c0-2.328-.41-4.59-2.044-6.206-1.503-1.493-3.45-2.32-5.49-2.347a10.31 10.31 0 013.512-3.645 9.572 9.572 0 015.02-1.424h.003c1.77 0 3.508.493 5.02 1.425a10.289 10.289 0 013.513 3.644c-2.04.026-3.985.854-5.488 2.347C29.41 22.324 29 24.588 29 26.917v17.08c.346-.016.66-.04 1-.076V27.926s-.263-7.262 7.02-7.627zm.656 8.64s-1.094.018-2.015.593C34.56 30.215 33 31.52 33 34.378V43c3.24-1.16 6.431-3.218 8.336-5.996 1.26-2.035 1.323-3.655 1.004-4.822-.447-1.512-1.846-3.397-4.664-3.242zm4.12-3.757c-.981-.759-2.44-1.337-4.612-1.337 0 0-6.184.037-6.184 5.372v14.518c.347-.069.662-.143 1-.232V30.643s.031-1.32.612-2.464c.63-1.307 1.993-2.444 4.886-2.524 0 0 2.438-.224 4.256 1.744.855.97 1.627 2.114 1.644 5.361 1.528-4.506-.808-6.898-1.602-7.577zm-22.98-1.337c-2.17 0-3.627.578-4.61 1.337-.794.68-3.13 3.07-1.603 7.577.016-3.247.788-4.392 1.643-5.36 1.82-1.969 4.257-1.745 4.257-1.745 2.89.08 4.163 1.218 4.792 2.524.584 1.145.705 2.464.705 2.464v12.863c.338.088.652.164 1 .233v-14.52c0-5.336-6.184-5.373-6.184-5.373zm1.527 5.687c-.924-.575-2.017-.593-2.017-.593-2.82-.155-4.219 1.73-4.665 3.242-.317 1.167-.256 2.789 1.004 4.822C16.572 39.782 19.762 41.84 23 43v-8.622c0-2.858-1.56-4.163-2.657-4.845z" fill="#fff"/></svg>