<!-- by TradingView --><svg width="56" height="56" xmlns="http://www.w3.org/2000/svg"><path fill="#6C2078" d="M0 0h56v56H0z"/><path d="M19 24s.008-1.395.005-1.905v-4.822C35.505 19.506 36.989 29.897 37 29.995L42 31c-1.244-6.827-6.155-13.355-13.736-16.332C21.542 12.031 14.903 12 14.623 12H14v12l5 1v-1z" fill="#fff"/><path d="M19 14v2c2.121.234 4.697.52 7.538 1.417 5.265 1.656 9.145 5.201 10.457 8.583H37c-.011-.076-1.752-10.26-18-12z" fill="#6C2078"/><path d="M37 32V38.812C20.433 36.574 19 27 19 27l-4.996-1.003c1.244 6.829 6.153 12.36 13.732 15.333C34.46 43.97 41.1 44 41.377 44H42V33c0-.304 0-.06 0 0l-5-1z" fill="#fff"/><path d="M37 42v-2c-2.202-.237-4.602-.48-7.66-1.42C23.83 36.885 20.38 34.458 19 31c.088.482 1.369 9.263 18 11z" fill="#6C2078"/></svg>