<!-- by TradingView --><svg width="56" height="56" xmlns="http://www.w3.org/2000/svg"><path fill="#F0F3FA" d="M0 0h56v56H0z"/><path d="M17.003 20c-1.04-.002-2.005 1.014-2.003 2v9.021c0 .993.963 1.979 2.003 1.979C18.044 33 19 32.014 19 31.021V22c0-1.067-1.004-2-1.997-2zM11 22c-1.122-.002-2.001.809-2 1.872v9.42c-.001 1.063.878 1.71 2 1.708 1.11.002 2.001-.638 2-1.709v-9.419c.001-1.063-.878-1.874-2-1.872zm11.51-2c-.929 0-1.51.586-1.51 1.596v8.62c0 1.01.572 1.784 1.5 1.784s1.5-.774 1.5-1.784v-8.62c0-1.01-.562-1.596-1.49-1.596z" fill="#006E9F"/><path d="M46.995 24c-.131 0-.26.035-.381.104a1.04 1.04 0 00-.323.295 1.477 1.477 0 00-.216.443c-.05.166-.075.343-.075.523v6.256c0 .755.444 1.379.995 1.379.55 0 1.005-.61 1.005-1.379v-6.242c0-.755-.455-1.379-1.005-1.379z" fill="#9AD9E9"/><path d="M27.5 22c-.835 0-1.5.777-1.5 1.72v7.56c0 .943.677 1.72 1.5 1.72s1.5-.777 1.5-1.72v-7.56c0-.943-.677-1.72-1.5-1.72z" fill="#0083BF"/><path d="M42.5 26c-.825 0-1.5.624-1.5 1.387v6.226c0 .763.675 1.387 1.5 1.387s1.5-.624 1.5-1.387v-6.226c0-.763-.675-1.387-1.5-1.387z" fill="#58C9E8"/><path d="M37.5 26c-.833 0-1.5.687-1.5 1.545v6.91c0 .858.667 1.545 1.5 1.545s1.5-.687 1.5-1.545v-6.91c0-.858-.667-1.545-1.5-1.545z" fill="#00B3E2"/><path d="M32.5 25c-.829 0-1.5.698-1.5 1.56v6.88c0 .862.671 1.56 1.5 1.56s1.5-.698 1.5-1.56v-6.88c-.013-.862-.684-1.56-1.5-1.56z" fill="#0083BF"/></svg>