<!-- by TradingView --><svg width="56" height="56" xmlns="http://www.w3.org/2000/svg"><path fill="url(#paint0_linear)" d="M0 0h56v56H0z"/><path d="M12.025 32.026a1.14 1.14 0 01.189-.9c.188-.265.48-.45.812-.513l7.526-1.424a1.364 1.364 0 01.961.177c.14.088.26.2.354.33.094.132.16.278.192.433a1.127 1.127 0 01-.188.901 1.243 1.243 0 01-.352.332c-.14.088-.297.15-.461.18l-7.525 1.424a1.351 1.351 0 01-.961-.177 1.201 1.201 0 01-.547-.763z" fill="#F37021"/><path d="M22.95 25.868a1.244 1.244 0 01-.353.332 1.364 1.364 0 01-1.422.004l-6.39-3.983a1.246 1.246 0 01-.359-.33 1.126 1.126 0 01-.009-1.34c.094-.131.215-.245.355-.333a1.361 1.361 0 011.43.006l6.389 3.983c.14.087.26.199.354.33a1.125 1.125 0 01.004 1.332" fill="#FDB714"/><path d="M27.793 22.033c.062.31-.01.63-.197.891a1.287 1.287 0 01-.808.505c-.329.062-.671 0-.953-.171a1.202 1.202 0 01-.55-.75l-1.518-7.055a1.128 1.128 0 01.179-.912 1.24 1.24 0 01.353-.337 1.363 1.363 0 011.434-.001c.141.09.262.203.355.336.093.134.157.283.188.44l1.517 7.054z" fill="#D92632"/><path d="M30.977 22.62l4.248-5.992c.188-.265.48-.449.812-.512a1.35 1.35 0 01.96.178 1.2 1.2 0 01.547.762 1.14 1.14 0 01-.19.9l-4.246 5.992c-.091.135-.21.252-.35.343-.14.091-.298.155-.464.189a1.364 1.364 0 01-.975-.174 1.241 1.241 0 01-.357-.336 1.126 1.126 0 01.016-1.35" fill="#F37021"/><path d="M42.949 27.401l-7.524 1.424a1.35 1.35 0 01-.962-.177 1.2 1.2 0 01-.547-.763 1.14 1.14 0 01.189-.901c.188-.265.48-.45.813-.513l7.525-1.422a1.363 1.363 0 01.975.166c.143.087.265.2.36.332a1.127 1.127 0 010 1.348 1.245 1.245 0 01-.36.331 1.331 1.331 0 01-.47.175z" fill="#FDB714"/><path d="M41.552 37.46a1.241 1.241 0 01-.352.331 1.36 1.36 0 01-1.422.003l-6.394-3.982a1.198 1.198 0 01-.537-.76c-.064-.31.004-.632.19-.895.187-.263.477-.447.807-.51a1.35 1.35 0 01.956.168l6.389 3.983c.14.087.26.198.355.329a1.125 1.125 0 01.008 1.332z" fill="#D92632"/><defs><linearGradient id="paint0_linear" x1="10.418" y1="9.712" x2="68.147" y2="76.017" gradientUnits="userSpaceOnUse"><stop stop-color="#1A1E21"/><stop offset="1" stop-color="#06060A"/></linearGradient></defs></svg>