<!-- by TradingView --><svg width="56" height="56" xmlns="http://www.w3.org/2000/svg"><path fill="#F0F3FA" d="M0 0h56v56H0z"/><path d="M30.291 19.422c-3.086-4.965-9.22-4.657-11.9-3.883l.225.798c6.074-1.581 9.842 1.733 10.966 3.588l.71-.503z" fill="#A3D172"/><path d="M27.863 19.07c-4.353-3.898-10.154-1.877-12.51-.38l.44.703c5.387-3.227 9.931-1.106 11.53.358l.54-.682z" fill="#66C07E"/><path d="M25.58 19.551c-5.184-2.688-10.3.716-12.21 2.754l.6.57c4.416-4.469 9.344-3.548 11.256-2.529l.354-.795z" fill="#66C07E"/><path d="M23.269 20.395c-5.729-1.12-9.684 3.588-10.946 6.082l.736.378c2.985-5.532 7.973-6.037 10.094-5.597l.116-.863z" fill="#66C07E"/><path d="M21.525 21.954c-5.823.405-8.427 5.979-9.001 8.715l.808.175c1.454-6.119 6.142-7.9 8.303-8.026l-.11-.864z" fill="#66C07E"/><path d="M20.13 23.998c-5.478 2.017-6.427 8.097-6.216 10.885l.825-.058c-.308-6.282 3.697-9.304 5.738-10.03l-.347-.797z" fill="#66C07E"/><path d="M19.373 26.172c-4.765 3.378-4.099 9.497-3.17 12.133l.78-.271c-1.93-5.985 1.15-9.948 2.932-11.182l-.542-.68z" fill="#66C07E"/><path d="M19.12 28.672c-3.6 4.603-1.215 10.274.428 12.535l.67-.485c-3.559-5.18-1.739-9.861-.384-11.554l-.714-.496z" fill="#16AEA2"/><path d="M19.742 30.96c-2.267 5.39 1.522 10.233 3.7 11.981l.52-.644c-4.793-4.06-4.265-9.056-3.402-11.047l-.818-.29z" fill="#16AEA2"/><path d="M20.89 33.049c-.796 5.794 4.116 9.488 6.672 10.61l.335-.756c-5.679-2.678-6.46-7.64-6.142-9.786l-.866-.068z" fill="#16AEA2"/><path d="M22.473 34.844c.824 5.79 6.56 7.989 9.325 8.364l.116-.82c-6.195-1.01-8.308-5.566-8.59-7.718l-.851.174z" fill="#16AEA2"/><path d="M32.526 20.325c-1.671-5.604-7.669-6.928-10.459-6.89l.007.83c6.276.08 9.038 4.271 9.635 6.358l.817-.298z" fill="#A3D172"/><path d="M34.398 21.863c-.074-5.844-5.484-8.758-8.18-9.485l-.22.799c6.019 1.794 7.53 6.58 7.532 8.748l.867-.062z" fill="#A3D172"/><path d="M35.77 23.745c1.525-5.64-2.884-9.925-5.28-11.363l-.429.708c5.3 3.375 5.447 8.391 4.858 10.478l.852.177z" fill="#A3D172"/><path d="M36.652 26.091c2.945-5.05-.184-10.345-2.117-12.361l-.6.57c4.227 4.65 3.056 9.536 1.942 11.397l.775.394z" fill="#A3D172"/><path d="M36.86 28.396c4.207-4.054 2.637-10.004 1.326-12.472l-.732.386c2.801 5.628.346 10.008-1.232 11.495l.638.59z" fill="#1289B3"/><path d="M36.29 30.84c5.16-2.734 5.287-8.887 4.705-11.622l-.81.169c1.146 6.184-2.419 9.716-4.344 10.71l.45.744z" fill="#1289B3"/><path d="M35.152 32.95c5.702-1.248 7.471-7.141 7.643-9.932l-.825-.056c-.552 6.266-4.932 8.71-7.053 9.15l.235.838z" fill="#1289B3"/><path d="M33.637 34.69c5.828.315 9.096-4.895 10.001-7.54l-.78-.273c-2.194 5.893-7.064 7.083-9.225 6.942l.004.87z" fill="#1289B3"/><path d="M31.594 35.932c5.529 1.873 10.074-2.266 11.655-4.57l-.679-.473c-3.693 5.086-8.703 4.922-10.747 4.204l-.23.84z" fill="#1289B3"/><path d="M29.24 36.593c4.782 3.353 10.303.659 12.466-1.108l-.519-.645c-4.969 3.843-9.732 2.276-11.492 1.012l-.456.741z" fill="#1289B3"/><path d="M26.873 36.62c3.692 4.53 9.737 3.44 12.298 2.33l-.325-.762c-5.824 2.344-9.982-.462-11.333-2.158l-.64.59z" fill="#16AEA2"/><path d="M24.556 36.11c2.412 5.327 8.533 5.825 11.292 5.409l-.119-.82c-6.229.772-9.531-3.008-10.404-4.994l-.769.406z" fill="#16AEA2"/></svg>