<!-- by TradingView --><svg xmlns="http://www.w3.org/2000/svg" width="56" height="56"><path d="M0 28a28 28 0 1156 0 28 28 0 01-56 0z" fill="#F0F3FA"/><ellipse cx="29.36" cy="28" rx="2.91" ry="2.85" fill="#263866"/><path d="M39.33 14.09A17.53 17.53 0 0029.36 11C19.77 11 12 18.61 12 28s7.77 17 17.36 17c3.67 0 7.08-1.12 9.9-3.03.36-.25.66-.48.85-.9.29-.62.37-4.2-1.03-2.92A14.4 14.4 0 0129.36 42C21.5 42 15 35.69 15 28s6.5-14 14.36-14c3.6 0 6.9 1.4 9.4 3.56 1.48 1.28 1.73-1.69 1.42-2.48a2.05 2.05 0 00-.85-1z" fill="#77BD1E"/><path d="M22.71 37.37c2.02 1.5 4.54 2.4 7.27 2.4A11.9 11.9 0 0042 28a11.9 11.9 0 00-12.02-11.77c-2.73 0-5.25.9-7.27 2.4-.16.12-.3.28-.4.45-.4.66-.23 2.95.76 2.61.4-.13.68-.52.99-.77a9.43 9.43 0 015.92-2.07c5.17 0 9.35 4.1 9.35 9.15a9.25 9.25 0 01-9.35 9.15 9.42 9.42 0 01-6.11-2.23c-.22-.19-.43-.47-.72-.57-1.6-.55-1.28 2.4-.44 3.02z" fill="#77BD1E"/><path d="M33.91 22.29a7.37 7.37 0 00-4.4-1.44c-4.03 0-7.3 3.2-7.3 7.15a7.23 7.23 0 007.3 7.15c1.62 0 3.11-.51 4.32-1.38.3-.21.55-.4.63-.77.2-.91-.41-2.45-1.18-1.62A5.14 5.14 0 0124.4 28a5.14 5.14 0 118.87-3.38c.74.8 1.45-.7 1.2-1.62-.08-.33-.3-.52-.57-.71z" fill="#77BD1E"/></svg>