<!-- by TradingView --><svg width="56" height="56" fill="none" xmlns="http://www.w3.org/2000/svg"><path fill="#423D3E" d="M0 0h56v56H0z"/><path d="M14.5 12.5h27v31h-27v-31z" stroke="#FEC425"/><path d="M36.976 36.981c.294.185.538.427.732.725.195.3.292.662.292 1.088 0 .435-.064.954-.237 1.185-.172.232-.472.546-.787.721-.264.146-.457.3-1.164.3h-6.904v-.468c.114-.009.28-.026.498-.053.218-.03.22-.033.315-.073a.387.387 0 00.222-.257c.02-.07.05-.421.05-.421l.025-6.379a.876.876 0 00-.085-.395c-.053-.114-.107-.236-.268-.307-.143-.066-.156-.086-.332-.121-.175-.036-.23-.058-.35-.066v-.468h5.265a5.3 5.3 0 011.032.098c.332.066.906.176 1.205.343.28.154.51.363.69.626.18.264.27.585.27.963 0 .33-.064.624-.192.883a1.958 1.958 0 01-.54.66c-.219.175-.73.331-1.014.454-.28.119-.583.21-.91.277v.06c.29.03.612.098.967.203.36.102.94.238 1.22.422zm-2.201-1.404a1.55 1.55 0 00.362-.62 2.65 2.65 0 00.107-.797c0-.514-.152-.916-.455-1.206-.304-.294-.54-.378-1.21-.442-.151 0-.39-.008-.623 0-.228.005-.795.022-.951.027v3.592h1.325c.396-.043.494-.046.769-.138.28-.093.505-.231.676-.416zm.924 2.983c0-.553-.201-1.008-.604-1.364-.399-.356-.686-.531-1.43-.531-.304 0-.56.004-.768.013-.21.005-.788.009-.892.013l-.026 2.951c0 .277.128.486.37.626.242.141 1.125.106 1.414.106 1.062 0 1.277-.168 1.555-.395.309-.251.381-.676.381-1.419z" fill="#FDC425"/><path d="M24.99 35.997c-.603 0-1.517-.143-2.072-.363a4.475 4.475 0 01-1.466-.949 4.584 4.584 0 01-1.01-1.51c-.251-.597-.427-1.193-.427-1.94 0-.747.156-1.733.402-2.34a4.707 4.707 0 011.025-1.575 4.5 4.5 0 011.53-1.009c.587-.237 1.889-.326 2.557-.326.498 0 .949.058 1.352.172a5.19 5.19 0 011.152.481l.292-.635h.659v3.024h-.61c-.075-.325-.242-.614-.393-.992a2.267 2.267 0 00-.449-.678c-.228-.299-.53-.387-.843-.554a2.2 2.2 0 00-1.074-.257c-.46 0-.89.094-1.288.283-.394.19-.877.471-1.166.84-.275.356-.49.809-.647 1.358-.157.55-.217 1.396-.217 2.072 0 .598.08 1.147.241 1.648.166.497.401.934.705 1.312.303.374.661.666 1.074.877.417.21.882.316 1.394.316a3.27 3.27 0 001.06-.165c.322-.114.602-.263.84-.448.237-.193.445-.413.625-.659.18-.246.415-.685.528-.975l.48.217c-.383 1.185-.981 1.782-1.655 2.182-.673.395-1.67.593-2.6.593zm12.98-14.515a1.86 1.86 0 00-.41.093 1.417 1.417 0 00-.378.158c-.185.105-.31.186-.377.244a4.045 4.045 0 00-.384.448c-.37.483-.711.973-1.024 1.47-.313.496-.705 1.127-1.174 1.892-.176.28-.156.22-.213.39-.057.172-.034.692-.034 1.017l.005 2.405c0 .158.033.297.1.415.07.114.19.246.356.316.1.035.11.056.367.11.256.047.462.074.619.078v.484H30.32v-.484c.133-.009.423-.024.689-.046.265-.026.45-.06.555-.099.17-.066.287-.156.348-.27.067-.114.067-.255.067-.422v-2.893c0-.07-.04-.197-.136-.382-.09-.189-.199-.398-.327-.626a105.271 105.271 0 00-1.849-3.177 3.518 3.518 0 00-.42-.567 1.983 1.983 0 00-.413-.336 1.424 1.424 0 00-.412-.152 2.856 2.856 0 00-.427-.066v-.479h4.592v.48c-.484.008-.826.039-1.025.091-.199.053-.299.128-.299.225 0 .026.015.072.043.138.029.066.069.15.121.25.062.115.135.247.22.396.086.145.167.286.243.422.222.391.45.782.682 1.173l.911 1.516a112.206 112.206 0 001.7-2.597c.394-.624.59-.997.59-1.12a.292.292 0 00-.12-.244.908.908 0 00-.32-.145 2.326 2.326 0 00-.449-.066 32.44 32.44 0 01-.448-.04v-.479h3.535v.48zm-9.443-6.014c-.133.004-.53.096-.53.096a2.084 2.084 0 00-.574.214c-.17.11-.287.32-.349.633a6.802 6.802 0 00-.085 1.186v6.41h-.619l-5.855-7.214-.016 4.478v1.235c0 .524.19.602.298.697.107.095.206.12.547.204.341.084.567.128.676.132v.468H18v-.468a5.61 5.61 0 00.805-.125c.304-.08.494-.15.57-.211.166-.123.28-.31.341-.56.062-.255.092-.688.092-1.3l.017-4.26a1.71 1.71 0 00-.114-.606 1.119 1.119 0 00-.306-.468 2.15 2.15 0 00-.697-.37c-.29-.105-.524-.162-.704-.171V15h3.635l4.66 6.003v-3.32c0-.545-.038-.963-.114-1.253-.076-.294-.185-.49-.327-.586-.133-.084-.351-.165-.655-.244a4.019 4.019 0 00-.72-.132V15h4.044v.468z" fill="#FDC425"/></svg>