<!-- by TradingView --><svg width="56" height="56" xmlns="http://www.w3.org/2000/svg"><path fill="url(#paint0_linear)" d="M0 0h56v56H0z"/><path d="M34.458 12.003c-.298.013-.462.103-.462.103 1.148.218 2.09.518 2.815 1.515.363.368.25.933-.113 1.256-.687.78-1.867 1.025-2.875.775-3.421-.77-6.656-2.265-10.17-2.654-1.883-.237-3.723.626-5.022 1.874-1.2 1.146-1.502 2.831-1.265 4.402.265 1.243 1.232 2.543 2.631 2.726-.828-.857-1.119-2.3-.26-3.191.486-.574 1.349-.653 2.066-.547 2.724.482 5.378 1.263 8.095 1.789 1.52.394 2.547.865 4.102 1.134V27l-2 1.998L34 31v7c-1.62 1.193-3.287 1.574-5.26 1.353-2.095-.111-3.955-1.3-5.328-2.744 2.3-1.17 5.235-2.537 7.588-3.609.083-3.948-.023-7.857 0-11.806-2.94 1.175-6.403 2.637-9.334 3.83.848-2.065 2.277-4.03 4.333-5.023-.537.03-1.1-.008-1.6.215-3.848 1.447-6.725 4.85-7.919 8.645-.798 2.41-.54 5.046.325 7.403 1.073 2.622 3.058 4.943 5.69 6.268 1.478.728 3.069 1.448 4.763 1.468 3.507.278 7.618-.62 9.985-3.136 1.033-1.056 1.553-2.433 2.065-3.766.475-1.312.74-2.71.692-4.098-1.135 2.145-2.939 3.578-5 5v-7l2-2.002L35 27c.004-1.754-.004-4.063 0-5.815 2.005-.1 4.137-1.1 4.677-3.102.377-1.308.573-2.857-.268-4.04-.774-.84-1.748-1.642-2.926-1.845-.138-.112-1.37-.225-2.025-.195zm-9.46 12.002c-.007 3.802.035 7.65-.003 11.452l-1.818.893c-1.209-1.666-1.825-3.765-2.17-5.756-.095-1.68-.036-3.527.578-5.103l3.413-1.486z" fill="#fff"/><defs><linearGradient id="paint0_linear" x1="10.418" y1="9.712" x2="68.147" y2="76.017" gradientUnits="userSpaceOnUse"><stop stop-color="#1A1E21"/><stop offset="1" stop-color="#06060A"/></linearGradient></defs></svg>