<!-- by TradingView --><svg width="56" height="56" xmlns="http://www.w3.org/2000/svg"><path fill="#CC2131" d="M0 0h56v56H0z"/><path d="M42.335 12.931c.092 0 1.18-.03 1.668 0L44 40.445c0 .762.076 1.708-.077 2.44-.092.488-.55 1.054-1.069 1.115-.275.03-.58 0-.885 0l-14.504.004L12.95 44c0-1.464.03-2.854.153-4.165.092-1.312.428-2.593.672-3.783 1.008-4.789 3.482-9.12 6.14-12.293 1.557-1.83 3.207-3.507 5.192-4.91 2.963-2.105 5.131-3.478 10.416-5.003.672-.183 1.374-.305 2.077-.427.519-.091 1.038-.213 1.557-.274 1.04-.122 2.078-.214 3.177-.214z" fill="#fff"/><path d="M13.165 12.076c.916-.122 2.061-.076 3.008-.076h19.014c2.077 0 4.246-.061 6.293 0-2.519.115-5.012.59-7.423 1.327-10.324 3.172-17.807 10.798-20.953 21.108-.58 1.8-.794 3.752-1.038 5.918-.092-2.136-.031-4.423-.031-6.589v-18.18c0-.793-.092-1.738.03-2.47.092-.458.611-.977 1.1-1.038z" fill="#fff"/><path d="M21.473 34.861c1.253 0 2.291.628 2.291 2.064 0 1.406-1.038 2.064-2.29 2.064-1.253 0-2.291-.658-2.291-2.064 0-1.436 1.038-2.064 2.29-2.064zM20.1 36.925c0 .897.58 1.436 1.374 1.436.794 0 1.375-.539 1.375-1.436 0-.897-.58-1.436-1.375-1.436-.794 0-1.374.539-1.374 1.436zm13.203 1.805l.007-3.367c.03-.33.062-.36.062-.36h-1.039s.03.03.061.51l-.008 3.098c-.03.358-.06.389-.06.389h1.038s-.031-.03-.061-.27zm-1.556 0v-3.307c.03-.39.06-.42.06-.42h-.946s.061.03.061.42v2.62l-1.985-3.04h-1.192s.061.03.061.42v3.337c0 .21-.03.24-.03.24h.916s-.03-.03-.06-.3v-2.632L30.645 39h1.16s-.03-.03-.06-.27zm7.476-5.089v-3.308c.031-.3.062-.33.062-.33h-.916s.03.03.061.3l-.031 2.71-1.985-3.01h-1.161s.03.03.061.45v3.218c-.03.3-.061.329-.061.329h.916s-.03-.03-.061-.24v-2.71L38.123 34h1.16s-.03-.03-.06-.359zM27.55 39s-.122-.09-.305-.3l-1.1-1.495c.642-.15 1.07-.419 1.07-1.166 0-.659-.55-1.039-1.345-1.039h-1.924s.054.038.054.517l.007 3.213c0 .24-.03.27-.03.27h.977s-.03-.03-.061-.21v-3.213h.825c.488 0 .61.312.61.611 0 .45-.396.658-.855.658l-.366-.03 1.313 2.004.061.18h1.008-.03.091zm-4.847-9.992c1.497 0 2.74.833 2.74 2.538 0 1.705-1.253 2.453-2.749 2.453-1.497 0-2.749-.748-2.749-2.453 0-1.705 1.261-2.538 2.758-2.538zm-1.659 2.538c0 1.077.672 1.705 1.65 1.705.977 0 1.649-.628 1.649-1.705.01-1.162-.663-1.79-1.64-1.79-.977 0-1.65.628-1.659 1.79zm18.615 2.275l-.031-.659c.336.15.475.203.841.203.275 0 .642-.12.642-.449 0-.568-1.521-.968-1.521-1.925 0-.509.367-.987 1.344-.987.336 0 .641.06.947.12l.03.658c-.274-.09-.488-.15-.763-.15-.459 0-.642.24-.642.419 0 .628 1.502.938 1.502 1.895 0 .479-.181 1.054-1.22 1.054-.396 0-.763-.09-1.13-.18z" fill="#CC2131"/><path d="M19.152 34.285l.06.799c-.366-.09-.885-.207-1.251-.178-1.13.03-1.741.591-1.772 1.686 0 1.035.703 1.627 1.772 1.657.458 0 .885-.118 1.282-.237l-.03.828a7.596 7.596 0 01-1.436.149c-1.435 0-2.687-.77-2.718-2.308-.061-1.686 1.07-2.544 2.75-2.544.451.004.901.053 1.343.148zm15.804-.787v-.178s-.061.03-.428.06H32.91v-1.095h1.528c.244.03.275.059.275.059l-.008-.743s-.03.03-.305.059h-1.497v-1.035h1.71c.276.03.306.059.306.059v-.68h-2.993s.061.059.061.384l.008 3.169c0 .414-.061.444-.061.444h2.992l.031-.503zm7.109 3.189l-.887.006s.061.03.092.355l-.031 1.213c-.214.059-.489.119-.825.119-.825 0-1.406-.451-1.406-1.338 0-.859.672-1.42 1.68-1.42.427 0 .855.118 1.283.236l-.03-.68c-.46-.09-.947-.178-1.406-.178-1.588 0-2.443.947-2.443 2.041 0 1.39 1.07 1.96 2.322 1.96.672 0 1.07-.095 1.59-.184v-1.775c.03-.325.06-.355.06-.355zm-4.28 2.076v-3.488c.03-.237.061-.275.061-.275h-.916s.03.038.06.363v2.69L35 35.008 33.814 35s.03.038.061.452v3.281c-.03.237-.06.267-.06.267h.916s-.03-.03-.062-.237l.031-2.662 1.985 2.9h1.161s-.03-.031-.061-.238zm-7.05-5.028l.824-3.347.122-.384h-1.038l-.092.561-.488 2.578-.734-2.607-.122-.532h-1.283l-.091.503-.763 2.636-.459-2.43-.092-.71H25.45l.183.503.795 3.229c.03.206 0 .266 0 .266h1.222s-.03-.06 0-.237l.916-2.933h.03l.887 2.933c.03.178.03.237.03.237h1.192s-.031-.06.03-.266z" fill="#CC2131"/></svg>