<!-- by TradingView --><svg xmlns="http://www.w3.org/2000/svg" width="56" height="56"><path fill="#F0F3FA" d="M0 0h56v56H0z"/><path fill-rule="evenodd" d="M41 23.66c0 6.44-6.04 11.66-13.5 11.66-.3 0-.61 0-.92-.02-.28.23-.3.44-.1.62 3.9 1.56 12.64 2.56 16.52 2.86-4.54.11-6.39 2.76-6.75 4.08a283.56 283.56 0 01-17.24-10.09c-1.33.22 6.43 7.87 9.85 11.23-3.45-2.12-7.61-.88-9.26 0a323.76 323.76 0 01-4.64-16.02c-.62-1.33-.96-2.8-.96-4.32C14 17.22 20.04 12 27.5 12S41 17.22 41 23.66zM31 25.5c0 2.49-3.14 4.5-7 4.5-3.87 0-7-2.01-7-4.5s3.13-4.5 7-4.5c3.86 0 7 2.01 7 4.5z" fill="#231816"/></svg>