<!-- by TradingView --><svg width="56" height="56" xmlns="http://www.w3.org/2000/svg"><path fill="#CC2A2D" d="M0 0h56v56H0z"/><path d="M23.04 20.76c-.622-.134-2.04-.352-2.04.649V22h1.591v2H21v3.508s.839.103 1.282.17V29h-5.554v-1.321A95.218 95.218 0 0118 27.508V24h-1v-2h1v-.566C18 20.106 19.303 19 21.755 19c.45 0 .933.03 1.44.105l-.154 1.656zM30.04 20.76c-.622-.134-2.04-.352-2.04.649V22h1.591v2H28v3.508s.839.103 1.282.17V29h-5.554v-1.321A95.218 95.218 0 0125 27.508V24h-1v-2h1v-.566C25 20.106 26.303 19 28.755 19c.45 0 .933.03 1.44.105l-.154 1.656z" fill="#fff"/><path d="M31 29v-1.321c.49-.072 1-.171 1-.171v-3.955l-1-.125V22h4v5.508s.649.102 1.04.17V29H31zm2.381-7.593c-.864 0-1.578-.537-1.578-1.205 0-.675.714-1.202 1.578-1.202.877 0 1.587.527 1.587 1.202 0 .658-.71 1.205-1.587 1.205z" fill="#fff"/><path d="M41.017 29.186c-2.72 0-4.206-1.33-4.206-3.482 0-2.004 1.346-3.835 4.577-3.835.634 0 1.333.08 1.94.216v2.278h-1.666c-.066-.271-.108-.52-.158-.748-.127-.044-.297-.046-.463-.046-.9 0-1.541.799-1.541 1.89 0 1.137.583 1.966 2.097 1.966.531 0 1.125-.092 1.62-.264l.175 1.761c-.77.171-1.472.264-2.375.264z" fill="#fff"/><path d="M9.832 38H6v-1.227l1-.133v-4.378l-1-.102V31h4.254c2.04 0 3.846 1.36 3.846 3.563C14.1 36.598 12.75 38 9.832 38zm.422-5.577H9v4.014h1.254c1.346 0 1.846-.937 1.846-1.832 0-.51-.273-2.182-1.846-2.182z" fill="#fff"/><path d="M15 38v-1.084l1-.134v-4.548l-1-.102V31h7.421v1.818h-1.993c-.05-.164-.072-.316-.096-.467L18 32.345v1.327h2.197c.033-.13.04-.197.095-.318h1.472v2.154h-1.472c-.055-.108-.063-.164-.095-.279L18 35.227v1.515h2.319c.038-.182.087-.429.127-.603h2.018V38H15" fill="#fff"/><path d="M27.425 36.098c-.06 0-.208 0-.4-.006v.698l1.343.136V38H24v-1.074l1-.132V32.27l-1-.102V31h3.268c2.64 0 3.832 1.145 3.832 2.598 0 1.284-1.033 2.5-3.675 2.5zm.168-3.664H27l.002 2.306h.539c.738 0 1.559-.333 1.559-.96 0-.626-.5-1.346-1.507-1.346z" fill="#fff"/><path d="M47.25 33l-.136-.598H46v4.394l1 .133V38l-4 .005v-1.076l1-.138v-4.389h-.929l-.138.598H41v-2h8v2h-1.75z" fill="#fff"/><path d="M40.624 34.615c0 2.237-1.89 3.577-4.405 3.577-2.513 0-4.395-1.341-4.395-3.577 0-2.192 1.89-3.615 4.395-3.615s4.405 1.423 4.405 3.615zm-6.285-.017c0 1.037.697 1.923 1.881 1.923 1.184 0 1.88-.886 1.88-1.923 0-.963-.64-1.916-1.88-1.916-1.242 0-1.88.953-1.88 1.916z" fill="#fff"/><path fill-rule="evenodd" d="M10.6 29.35c3.093 0 5.6-2.373 5.6-5.3 0-2.927-2.507-5.3-5.6-5.3-3.093 0-5.6 2.373-5.6 5.3 0 2.927 2.507 5.3 5.6 5.3zm.1-2.35c1.491 0 2.7-1.343 2.7-3s-1.209-3-2.7-3S8 22.343 8 24s1.209 3 2.7 3z" fill="#fff"/><path d="M47.98 23.557c-.7 0-1.211.479-1.27 1.195h2.4c.026-.774-.422-1.195-1.13-1.195zM51.43 26h-4.743c.023.931.655 1.622 1.97 1.622a6.48 6.48 0 002.341-.436l.221 1.612c-.895.32-1.966.482-2.942.482-2.62 0-4.057-1.127-4.057-3.563 0-2.134 1.364-3.717 3.824-3.717 2.401 0 3.456 1.412 3.456 3.24 0 .292-.024.424-.07.76z" fill="#fff"/></svg>