<!-- by TradingView --><svg xmlns="http://www.w3.org/2000/svg" width="56" height="56"><path fill="#F0F3FA" d="M0 0h56v56H0z"/><path d="M23.4 21.93c-3.9-.97-12.06-2.94-14.1-3.21-2.05-.27-1.24 1.82-.5 2.92.72 1.1 2.69 3.23 5.1 3.23 2.38 0 7.3-.83 9.71-1.37a.8.8 0 00.6-.79c0-.44-.44-.69-.81-.78zm1.14 3.22c-.07-.22-.29-.6-1.06-.46l-.74.12c-2.73.43-11.14 1.75-11.14 3.35 0 1.53 3.84 2.52 4.82 2.52 2.13 0 5.49-2.52 7.88-4.68.18-.16.34-.56.24-.85z" fill="url(#alubfjboj)"/><path d="M32.6 21.93c3.9-.97 12.06-2.94 14.1-3.21 2.05-.27 1.24 1.82.5 2.92-.72 1.1-2.69 3.23-5.1 3.23-2.38 0-7.3-.83-9.71-1.37a.8.8 0 01-.6-.79c0-.44.44-.69.81-.78zm-1.14 3.22c.07-.22.29-.6 1.06-.46l.74.12c2.73.43 11.14 1.75 11.14 3.35 0 1.53-3.84 2.52-4.82 2.52-2.13 0-5.49-2.52-7.88-4.68-.18-.16-.34-.56-.24-.85z" fill="url(#blubfjboj)"/><path d="M28.48 17.49a.49.49 0 11-.97 0 .49.49 0 01.97 0zm-1.28.3c.22 0 .53.2.67.62v.82c0 .16-.23.42-.49.63-.3.25-.75.45-1.06.44-.32-.02-.5-.32-.52-.85-.02-.54.58-1.66 1.4-1.66zm1.6 0c-.22 0-.53.2-.67.62v.82c0 .16.23.42.49.63.3.25.75.45 1.06.44.32-.02.5-.32.52-.85.02-.54-.58-1.66-1.4-1.66zm-.8 6.87a1.64 1.64 0 100-3.27 1.64 1.64 0 000 3.27z" fill="url(#clubfjboj)"/><path d="M28.09 26.2c.43 0 1.22.34 1.22 1.39 0 1.33-.67 1.95-1.22 1.95-.45 0-1.23-.34-1.28-1.95-.02-.49.34-1.4 1.28-1.4zm-.02 3.56c.34 0 .89.18.51 1.2v1.29c.1.29.11.96-.51.96-.7 0-.64-.72-.53-.96v-1.29c-.19-.4-.31-1.2.53-1.2zm.52 4.8c.37-.96-.18-1.13-.52-1.13-.84 0-.72.76-.53 1.13v1.22c-.1.23-.17.91.53.91.62 0 .62-.63.52-.9v-1.23zm-.53 2.35c.3 0 .78.17.45 1.1v1.17c.1.27.1.88-.45.88-.6 0-.55-.66-.46-.88v-1.17c-.16-.37-.27-1.1.46-1.1zm.45 4.19c.33-.7-.15-.82-.45-.82-.73 0-.62.54-.46.82v.88c-.1.16-.14.65.46.65.55 0 .54-.45.45-.65v-.88zm-.47 3.9c-.3-.66-.75-2.16 0-2.16.7 0 .3 1.38 0 2.16z" fill="url(#dlubfjboj)"/><defs><linearGradient id="alubfjboj" x1="8" y1="24.68" x2="24.15" y2="24.68" gradientUnits="userSpaceOnUse"><stop stop-color="#85318A"/><stop offset="1" stop-color="#ED4A5E"/></linearGradient><linearGradient id="blubfjboj" x1="48" y1="24.68" x2="31.85" y2="24.68" gradientUnits="userSpaceOnUse"><stop stop-color="#85318A"/><stop offset="1" stop-color="#ED4A5E"/></linearGradient><linearGradient id="clubfjboj" x1="28" y1="17" x2="28" y2="24.66" gradientUnits="userSpaceOnUse"><stop stop-color="#AB2C79"/><stop offset="1" stop-color="#EE4C5C"/></linearGradient><linearGradient id="dlubfjboj" x1="28.06" y1="26.2" x2="28.06" y2="45" gradientUnits="userSpaceOnUse"><stop stop-color="#F17050"/><stop offset=".27" stop-color="#FA9E21"/><stop offset=".88" stop-color="#AB2D75"/></linearGradient></defs></svg>