<!-- by TradingView --><svg width="56" height="56" xmlns="http://www.w3.org/2000/svg"><path fill="#01AEF0" d="M0 0h56v56H0z"/><path d="M21.747 24.024c-3.109.188-4.764 1.368-5.477 3.392-.266.747-.27 1.148-.27 4.082V34h4v-1.918c0-1.102.017-2.167.034-2.365.16-1.696.957-2.538 2.48-2.546V24c-.255.006-.512.006-.767.024zM41 29.209V34h4v-7l.505.012c.314.013.984.117 1.158.158 1.638.4 1.332 3.41 1.337 4.574V34h4l-.014-2.618c-.005-1.37.19-3.124-.467-4.424-.87-1.716-2.846-2.709-5.808-2.92-.276-.02-1.286-.038-2.242-.038H41v5.209zM24 29.277V34h4V24h-4v5.277z" fill="#fff"/><path d="M8.996 26.875a2.247 2.247 0 100 4.494 2.247 2.247 0 000-4.494zM3.75 29.122a5.247 5.247 0 1110.494 0 5.247 5.247 0 01-10.494 0zM34.547 26.753a2.247 2.247 0 100 4.494 2.247 2.247 0 000-4.494zM29.3 29a5.247 5.247 0 1110.494 0A5.247 5.247 0 0129.3 29z" fill="#fff"/></svg>