<!-- by TradingView --><svg width="56" height="56" fill="none" xmlns="http://www.w3.org/2000/svg"><path fill="#F0F3FA" d="M0 0h56v56H0z"/><path fill-rule="evenodd" clip-rule="evenodd" d="M49 28c0 5.799-4.701 10.5-10.5 10.5S28 33.799 28 28s4.701-10.5 10.5-10.5c2.853 0 5.441 1.138 7.334 2.985l-2.944 2.997A6.3 6.3 0 1044.476 26h4.334c.125.648.19 1.316.19 2z" fill="#6B9C30"/><path fill-rule="evenodd" clip-rule="evenodd" d="M36.36 33.927c.3.108.61.194.927.256-.871 1.165-1.527 2.869-1.838 3.867a10.451 10.451 0 01-2.815-1.34l3.727-2.783zM34.096 23.495c-.456.446-.844.96-1.149 1.526-1.39-1.187-2.013-1.521-3.934-1.5l-.008-.01a10.52 10.52 0 011.808-2.663l3.283 2.647z" fill="#003411"/><path fill-rule="evenodd" clip-rule="evenodd" d="M36.61 34.011A10.488 10.488 0 0128 38.5c-5.8 0-10.5-4.701-10.5-10.5S22.2 17.5 28 17.5c3.563 0 6.712 1.775 8.61 4.488a6.315 6.315 0 00-3.36 2.528 6.3 6.3 0 100 6.967 6.315 6.315 0 003.36 2.529z" fill="#006838"/><path d="M18.851 22.844a10.546 10.546 0 012.407-2.894 8.918 8.918 0 013.359 2.735 6.325 6.325 0 00-2.405 2.823 5.34 5.34 0 00-3.36-2.664z" fill="#003411"/><path fill-rule="evenodd" clip-rule="evenodd" d="M25.075 33.581a6.253 6.253 0 001.619.583c-.867 1.187-1.514 2.894-1.812 3.865a10.461 10.461 0 01-2.925-1.441l2.832-3.068.286.061z" fill="#003411"/><path fill-rule="evenodd" clip-rule="evenodd" d="M17.5 38.5C23.299 38.5 28 33.799 28 28s-4.701-10.5-10.5-10.5S7 22.201 7 28s4.701 10.5 10.5 10.5zm0-4.2a6.3 6.3 0 100-12.6 6.3 6.3 0 000 12.6z" fill="#005129"/><path fill="#6B9C30" d="M37.889 26h9.612v4h-9.612z"/><path fill-rule="evenodd" clip-rule="evenodd" d="M32.559 26H19.506v4h13.053a5.733 5.733 0 01-.359-2c0-.701.126-1.374.359-2z" fill="#006838"/><path fill-rule="evenodd" clip-rule="evenodd" d="M32.524 30a6.29 6.29 0 01-.324-2c0-.7.114-1.372.324-2h4.369l-1.545-1.545 1.262-1.262 4.28 4.28.545.527-.01.008.017.017-1.262 1.262-3.57 3.57-1.262-1.262L36.943 30h-4.419z" fill="#FBAA19"/><path fill-rule="evenodd" clip-rule="evenodd" d="M27.81 30h-4.334a6.253 6.253 0 01-.435 1h4.524c.098-.327.18-.66.245-1zM28.192 30h4.334c.116.348.262.682.434 1h-4.524a10.44 10.44 0 01-.244-1z" fill="#003411"/></svg>