<!-- by TradingView --><svg width="56" height="56" xmlns="http://www.w3.org/2000/svg"><path fill="#EF4638" d="M0 0h56v56H0z"/><path d="M11.089 33.897c-.432.285-.956.396-1.61.31-1.352-.161-1.608-1.19-1.562-1.945.129-2.59.991-6.814 2.087-8.92.28-.546.653-.93 1.085-1.178V21.15c-1.201.235-2.332.768-3.393 1.4C5.83 23.652 4.07 26.377 4 29.053v.422C4.152 33.512 7.101 35 9.666 35c.467 0 .957-.062 1.423-.161v-.942zm1.585-12.116c1.493.024 1.633 1.573 1.574 2.267-.117 1.437-.746 4.373-1.294 6.306-.466 1.672-.956 2.96-1.865 3.543v.942a11.378 11.378 0 002.483-.83c3.16-1.536 4.629-4.857 4.629-7.843C18.2 22.66 15.81 21 12.476 21c-.466 0-.933.05-1.387.149v1.015c.454-.272.99-.383 1.585-.383z" fill="#fff"/><path d="M32.296 21l-.956 4h-.536c.047-3.901-3.136-3.202-3.556-3.19-4.162.246-5.352 9.95-5.212 10.748.409 2.257 3.51 2.245 4.28.024.337-.957.582-2.669 1.06-4.582h-1.65L26 27h7.59l-.198 1h-2.168L30 33c-2.834 2.442-11.053 3.496-11.67-2.663-.502-5.055 4.546-9.005 8.604-9.337 1.27 0 3.077.258 3.846 1.252L31.668 21h.63zM33.916 29h.816l-1.422 6h-.816l1.422-6zM36.61 21h-.886l-1.388 6h.875l1.399-6zM36 27l-.241 1h4.675l-1.748 6h-1.504l-.199 1h11.892l1.341-5h-.467c-1.62 2.896-3.368 4.013-5.106 4h-2.005l1.783-6c2.262.037 2.536.115 2.437 2h.431l1.352-5.356h-.512C47.522 26.902 45.832 27 45.214 27h-.571l1.212-5h1.412c.092 0 3.31.092 3.345 3h.56L52 21H40.598l-.199 1h1.48l-1.235 5H36z" fill="#fff"/></svg>