<!-- by TradingView --><svg xmlns="http://www.w3.org/2000/svg" width="56" height="56"><path fill="#F0F3FA" d="M0 0h56v56H0z"/><path fill-rule="evenodd" d="M6.38 30a2.44 2.44 0 002.39-2.5c0-1.38-1.07-2.5-2.39-2.5A2.44 2.44 0 004 27.5C4 28.88 5.07 30 6.38 30zm.8-.75c.9-.45 1.25-1.6.8-2.57-.45-.97-1.52-1.4-2.4-.95-.89.45-1.24 1.6-.8 2.57.45.97 1.53 1.4 2.4.95zM10.49 25h1.53c.45.03 1.36.35 1.33 1.44-.01.28-.2.94-.88 1.37.34.53 1.14 1.7 1.64 2.19h-.76a11.9 11.9 0 01-1.88-2.2v1.89l.18.31h-1.16l.15-.31v-4.36L10.5 25zm.94.43c.4.04 1.18.3 1.18 1.05s-.79 1.03-1.18 1.08v-2.13zM17.5 25l-2.52 5h1.24l-.08-.35.5-1.2h1.64l.46 1.2-.08.35h1.28l-2.44-5zm0 1.6l-.57 1.2h1.08l-.5-1.2z" fill="#08A7E6"/><path d="M25.54 25.21v.86c-.34-.28-.8-.48-1.24-.48-.7 0-1.99.34-1.99 1.96 0 1.88 1.82 1.87 2.67 1.63v-1.31l-.24-.42h1.23l-.14.42v1.76c-.4.32-1.19.38-1.53.37-1.29 0-2.72-.54-2.72-2.45 0-2.34 2.1-2.53 2.72-2.55.5-.01 1.04.13 1.24.21zm5.24-.21h-2.67l.2.67v3.73l-.2.6h2.57l.34-.9-.87.42h-1.09v-1.8h.55l.54.22.43-.74h-1.52v-1.72h.55l.75.34.42-.82zm2.98 0h-1.11l.59.64v3.55l-.2.81h1.16l-.23-.8v-2.6l2.49 3.4h.85l-.14-.51V25.4l.14-.4h-1l.15.4v3.17L33.76 25zm6.84 0h-1.12l.18.55v3.86l-.18.59h1.12l-.14-.59v-3.86l.14-.55zm5.88 4.61c-.37.25-.82.39-1.3.39a2.47 2.47 0 01-2.42-2.5c0-1.38 1.08-2.5 2.43-2.5.47 0 .92.14 1.3.39v.8a1.8 1.8 0 00-2.13-.46c-.9.45-1.26 1.6-.8 2.57.45.97 1.55 1.4 2.45.95.18-.1.34-.21.47-.35v.71zM49.84 25c.4.03.76.22.9.31v.74c-.16-.15-.56-.44-.9-.41a.75.75 0 00-.72.74c-.02.33.27.54.42.6.5.27 1.46.76 1.46 1.7 0 .89-.83 1.32-1.46 1.32a2 2 0 01-.99-.22v-.96c.19.22.63.54.99.54.43 0 .63-.4.63-.6 0-.2 0-.48-.46-.7-.52-.23-1.31-.63-1.37-1.57-.07-1.18 1-1.52 1.5-1.49z" fill="#08A7E6"/><path fill-rule="evenodd" d="M29.5 37a9.5 9.5 0 100-19 9.5 9.5 0 000 19zm-.01-1.45c5.09 0 9.22-3.6 9.22-8.05 0-4.45-4.13-8.05-9.22-8.05-5.1 0-9.22 3.6-9.22 8.05 0 4.45 4.13 8.05 9.22 8.05z" fill="#CADB2A"/></svg>