<!-- by TradingView --><svg width="56" height="56" xmlns="http://www.w3.org/2000/svg"><path fill="#F0F3FA" d="M0 0h56v56H0z"/><path d="M15.177 20.153c5.296-6.969 14.17-6.272 17.77-4.878-9.16-.55-13.59 4.53-15.331 9.057-1.475 4.557 0 9.642 1.393 11.5 5.64 7.52 12.892 6.62 17.074 5.575-3.136 2.44-10.105 4.281-16.377.697-7.317-4.18-10.62-13.937-4.53-21.951z" fill="#029CD7"/><path d="M28.766 16.32c7.742-1.034 12.892 5.227 13.589 8.711-3.833-5.575-10.105-6.272-14.635-4.181-3.582 1.805-5.553 5.066-5.923 6.968-1.558 8.015 2.787 10.802 5.923 12.893-2.439-.349-8.183-2.298-9.756-9.06-1.434-6.168 2.48-14.22 10.802-15.33z" fill="#15499F"/><path d="M41.658 26.773c-9.06-4.53-15.68-.349-18.467 4.878-.07.132 4.204-1.059 8.71-1.394 6.272-.465 10.454 2.44 10.454 2.44.18 0 .19-2.212 0-3.485-.212-1.42-.697-2.439-.697-2.439z" fill="#097CC1"/><path d="M42.006 33.393c-2.828-1.987-5.923-2.439-8.71-2.439 0 0 2.279 1.556 3.484 4.878.832 2.297.348 4.879.348 4.879s1.394-.697 3.136-3.136c1.394-2.44 1.864-4.096 1.742-4.182z" fill="#F7931D"/></svg>