<!-- by TradingView --><svg width="56" height="56" xmlns="http://www.w3.org/2000/svg"><path fill="url(#paint0_linear)" d="M0 0h56v56H0z"/><path d="M31 30h3c-.808 5.845-5.898 10-11.978 10C15.384 40 10 34.63 10 28.003 10 21.373 15.384 16 22.022 16c6.08 0 11.17 4.155 11.978 10h-3v4zm-5-1.997C26 25.816 24.19 24 22 24c-2.187 0-4 1.816-4 4.003C18 30.183 19.813 32 22 32c2.19 0 4-1.816 4-3.997zM35 17v9h4v4h-4v9h9V17" fill="#fff"/><defs><linearGradient id="paint0_linear" x1="10.418" y1="9.712" x2="68.147" y2="76.017" gradientUnits="userSpaceOnUse"><stop stop-color="#1A1E21"/><stop offset="1" stop-color="#06060A"/></linearGradient></defs></svg>