<!-- by TradingView --><svg width="56" height="56" xmlns="http://www.w3.org/2000/svg"><path fill="#00263E" d="M0 0h56v56H0z"/><path d="M47.887 22H8.113C5.842 22 4 24.685 4 27.998s1.841 5.998 4.113 5.998h39.774c2.271 0 4.113-2.685 4.113-5.998S50.158 22 47.887 22zm0 11H8.113C6.478 33 5 30.615 5 27.998S6.477 23 8.113 23h39.774C49.522 23 51 25.381 51 27.998 51 30.614 49.522 33 47.887 33z" fill="#fff"/><path d="M7 28c0 1.812.596 3 2.003 3S11 29.812 11 28c0-1.813-.59-3-1.997-3C7.597 25 7 26.187 7 28zm1 0c0-1.363.4-2 1.003-2 .603 0 .996.637.996 2s-.393 2-.996 2S8 29.364 8 28zm7.47-.602c.015-1.347-.588-2.398-1.956-2.398-1.237 0-2.036.979-2.036 3s.798 3 2.036 3c1.33 0 1.948-1.035 1.956-2.35h-1.02c-.031.618-.332 1.35-.936 1.35-.535 0-.998-.62-.998-2s.463-2 .998-2c.443 0 .905.364.935 1.398h1.02zM21.878 29h-.762l.384-2 .378 2zM22 25h-1l-1.502 6h1.025l.292-1h1.38l.308 1h.994L22 25zm4.5 0v3L25 25h-1v6h1v-3l1.5 3h1.002v-6H26.5zm9.5.997l.712.003c.472 0 .746.481.746.962 0 .48-.274 1.038-.746 1.038H36v-2.003zM35 31l1-.003v-2.404L37.458 31l1.188-.003-1.356-2.223c.815-.12 1.172-1.162 1.172-1.812 0-1.002-.471-1.962-1.46-1.962H35v6zm14-4c-.077-1.315-.81-2-2-2-1.252 0-2 .979-2 3s.748 3 2 3c1.314 0 2-.93 2-2.134V28h-2v1h1c0 .454-.3 1.004-1 1.004S46 29.38 46 28c0-1.379.366-1.98 1-2 .634-.02 1 .402 1 1h1zm-30 4v-1h-2v-1.5h2v-1h-2V26h2v-1h-3v6h3zm21 0h-1v-6h1M43.5 28v-3h1.002v6H43.5L42 28v3h-1v-6h1l1.5 3zM31 29.998v1h-3v-6h3v1h-2v1.5h2v1h-2v1.5h2zM34.534 29.998v1h-3v-6h3v1h-2v1.5h2v1h-2v1.5h2z" fill="#fff"/></svg>