<!-- by TradingView --><svg width="56" height="56" xmlns="http://www.w3.org/2000/svg"><path fill="#F0F3FA" d="M0 0h56v56H0z"/><path d="M24 32h.043c1.273.366 2.639.534 3.957.534 1.317 0 2.692-.145 4-.513V45h-8V32z" fill="#ED1C24"/><path fill-rule="evenodd" d="M28 13c2.736 0 5.802.686 7.618 2.31C37.41 16.957 38 19.518 38 21.99c0 2.492-.4 4.94-2.217 6.564C33.731 30.405 30.736 31 28 31c-2.736 0-5.684-.686-7.5-2.31-1.793-1.624-2.5-4.208-2.5-6.701 0-2.676.684-5.01 2.641-6.77C22.434 13.572 25.264 13 28 13zm-.012 5.358c1.208 0 2.543.288 3.327.947.805.657 1.06 1.706 1.06 2.693 0 1.008-.191 1.995-.975 2.653-.89.74-2.204.987-3.412.987-1.186 0-2.479-.267-3.262-.925-.806-.658-1.102-1.707-1.102-2.715 0-1.09.296-2.015 1.144-2.735.784-.658 2.034-.904 3.22-.905z" fill="#231F20"/></svg>