<!-- by TradingView --><svg xmlns="http://www.w3.org/2000/svg" width="56" height="56"><path fill="#F0F3FA" d="M0 0h56v56H0z"/><path d="M4 26.64V34h8.57c-1.3-.6-2.2-3.81-2.7-5.6l-.07-.23-.02-.1c-.4-1.44-1.38-4.9-2.94-4.77-.43-.04-1.58.6-2.84 3.34zM13.48 34H16v-3.7c-.4 1.3-1.26 3.24-2.52 3.7z" fill="#EE3A43"/><path d="M6.03 22H4v3.22c.36-1.1 1.05-2.64 2.03-3.22zM16 28.83c-1.43 3.18-2.45 3.71-2.92 3.71-1.48 0-2.42-3.09-2.91-4.7l-.05-.15a25.8 25.8 0 01-.24-.88C9.46 25.22 8.8 22.76 7.6 22H16v6.83z" fill="#007AC3"/><path fill-rule="evenodd" d="M18.8 22c-1 0-1.8.8-1.8 1.8v5.14a1.8 1.8 0 103.6 0V23.8c0-1-.8-1.8-1.8-1.8zm0 1.55a.58.58 0 00-.59.58v4.48a.58.58 0 101.17 0v-4.48a.58.58 0 00-.58-.58zM21.26 22h1.34v8.74h-1.34V22zm2.34 0h1.33v7h1.73v1.74H23.6V22zm13.05 0h-3.7v1.99h1.18v6.75h1.34V24h1.18v-2zm3.91 0h3.71v2h-1.19v6.74h-1.33V24h-1.19v-2zm4.2 0h-.11v8.74h3.29V29H46v-1.5h1.94v-2H46V24h1.94v-2h-3.17zM32.5 24.58c0-.83-.3-2.58-1.58-2.58-1.56 0-1.8 2.12-1.76 2.58v.15c.03.56.1 1.8 1.12 2.36 1.05.58 1.1.94 1.1 1.09 0 .2-.08.62-.46.62-.4 0-.57-.33-.54-.87h-1.22c-.04.92.25 2.81 1.76 2.81 1.5 0 1.75-2.12 1.68-3.22a2.46 2.46 0 00-1.4-2.22l-.05-.02c-.28-.12-.77-.34-.77-.83 0-.56.33-.59.54-.56.22.03.38.24.38.69h1.2zM50.31 22c1.28 0 1.58 1.75 1.58 2.58h-1.2c0-.45-.17-.66-.38-.69-.22-.03-.54 0-.54.56 0 .5.49.71.77.83l.04.02A2.46 2.46 0 0152 27.52c.07 1.1-.19 3.22-1.68 3.22-1.5 0-1.8-1.9-1.77-2.8h1.23c-.04.53.14.86.54.86.38 0 .46-.42.46-.62 0-.15-.06-.5-1.1-1.09-1.02-.56-1.09-1.8-1.12-2.36v-.15c-.04-.46.2-2.58 1.76-2.58zm-12.35 0l-1.44 8.74h1.21l.23-1.21h1.28l.17 1.21h1.33L39.24 22h-1.28zm.63 2.87l-.43 2.85h.88l-.45-2.85z" fill="#007AC3"/><path fill="#EE3A43" d="M17 31h35v1H17z"/><path opacity=".6" fill="#007AC3" d="M17 33h35v1H17z"/></svg>