<!-- by TradingView --><svg width="56" height="56" xmlns="http://www.w3.org/2000/svg"><path fill="#F0F3FA" d="M0 0h56v56H0z"/><path d="M14.544 19c-6.122 0-8.618 4.751-8.542 7h4.837c.27 0 .453-.3.453-.3l2.95-4.7c.076-.075.481-.075.53 0 1.057 1.65 2.848 4.602 3.022 4.775.182.18.303.225.454.225H23c0-2.324-2.484-7-8.456-7z" fill="#CB2026"/><path d="M14.544 35c-6.122 0-8.618-4.751-8.542-7h4.837c.27 0 .454.3.454.3l2.949 4.7c.075.075.48.075.529 0 1.058-1.65 2.848-4.602 3.023-4.775.182-.18.303-.225.454-.225H23c0 2.324-2.485 7-8.456 7z" fill="#010101"/><path d="M29.445 35h-5.89v-.73c.168-.014.33-.03.485-.05.162-.02.304-.054.427-.1.207-.08.346-.194.417-.341.077-.154.116-.354.116-.6v-9.857c0-.253-.052-.487-.155-.7a1.135 1.135 0 00-.398-.5c-.129-.088-.326-.171-.591-.251a3.053 3.053 0 00-.689-.14V21h4.711l.146.16L28 33.048c0 .247.042.447.126.6.084.154.22.274.407.361.13.06.265.114.408.16.142.047.31.08.504.1V35zM36.474 35h-5.948v-.73c.168-.014.333-.03.495-.05.161-.02.3-.054.417-.1.207-.08.352-.194.436-.341.084-.154.126-.354.126-.6v-6.052a1.17 1.17 0 00-.155-.61 1.295 1.295 0 00-.388-.43c-.238-.165-.643-.341-.93-.371v-.731l4.328.015.145.15v7.898c0 .234.048.434.145.6.097.16.236.281.417.361.13.06.272.114.427.16.155.047.317.08.485.1V35zM33 24.172c-2.604 0-2.507-2.959 0-2.959 2.604 0 2.604 2.959 0 2.959zM50.5 35h-5.722v-.73l.446-.05a1.19 1.19 0 00.398-.1.629.629 0 00.29-.321c.059-.14.088-.347.088-.62V28.74c0-1.343-1.463-2.386-2.718-1.942C42.756 26.99 42 27.5 42 27.94v5.13c0 .233.032.43.097.59.065.153.171.27.32.35.103.06.233.114.388.16.155.047.23.08.38.1V35h-5.64v-.73c.162-.014.324-.03.486-.05.168-.027.31-.06.426-.1.207-.074.35-.188.427-.341.077-.154.116-.354.116-.6v-5.855c0-.207-.052-.41-.155-.61-.262-.508-.76-.948-1.3-.998v-.731l4.126.015.145.15v1.658l.07-.01c.222-.513.69-.873 1.135-1.171.239-.16.552-.297.94-.41 1.27-.372 3.402-.286 4.309.79.53.613.795 1.43.795 2.452v4.66c0 .246.065.413.136.56.07.146.203.263.397.35a2.825 2.825 0 00.902.24V35z" fill="#000"/></svg>