<!-- by TradingView --><svg width="56" height="56" xmlns="http://www.w3.org/2000/svg"><path fill="#004262" d="M0 0h56v56H0z"/><path d="M13.969 30.662c-.008.162-.078.186-.21.186h-2.038v2.543h1.821c.11 0 .156.07.156.21v.417c0 .162-.04.208-.148.208h-1.83v3.53c0 .198-.038.244-.154.244h-.403c-.124 0-.163-.034-.163-.255v-7.513c0-.162.039-.232.147-.232h2.729c.085 0 .124.058.124.175v.034l-.031.453zM15.728 38h-.446c-.127 0-.195-.075-.195-.226v-4.526c0-.15.068-.248.195-.248h.446c.126 0 .185.097.185.248v4.526c0 .15-.059.226-.185.226zm-.233-5.964a.497.497 0 01-.495-.518c0-.312.233-.518.495-.518.263 0 .505.206.505.518a.511.511 0 01-.505.518zm20.948 5.968h-.447c-.127 0-.195-.075-.195-.226v-4.526c0-.15.068-.248.195-.248h.447c.126 0 .184.097.184.248v4.526c0 .15-.058.226-.184.226zm-.233-5.964a.497.497 0 01-.495-.518c0-.312.232-.518.495-.518.262 0 .505.206.505.518a.511.511 0 01-.505.518zM20.036 38h-.369c-.102 0-.148-.07-.148-.212v-2.835c0-.718-.142-1.235-.77-1.235-.36 0-.807.264-1.082.588v3.482c0 .141-.047.212-.149.212h-.369c-.094 0-.149-.07-.149-.202v-4.582c0-.142.04-.216.149-.216h.345c.095 0 .15.064.15.196l.007.313c.36-.395.831-.509 1.287-.509.902 0 1.247.71 1.247 1.812v2.976c0 .141-.039.212-.15.212zm10 0h-.369c-.102 0-.148-.07-.148-.212v-2.835c0-.718-.142-1.235-.77-1.235-.36 0-.807.264-1.082.588v3.482c0 .141-.047.212-.149.212h-.369c-.094 0-.149-.07-.149-.202v-4.582c0-.142.04-.216.149-.216h.345c.095 0 .15.064.15.196l.007.313c.36-.395.831-.509 1.287-.509.902 0 1.247.71 1.247 1.812v2.976c0 .141-.039.212-.15.212zm4.402-.284a2.797 2.797 0 01-1.253.288c-1.457 0-2.163-1.012-2.163-2.492 0-1.46.826-2.512 2.218-2.512.4 0 .864.11 1.19.288.064.03.092.07.092.13 0 .029-.01.049-.019.079l-.074.318c-.018.069-.046.118-.102.118a.167.167 0 01-.083-.03c-.289-.138-.604-.247-.966-.247-.882 0-1.44.705-1.44 1.817 0 1.012.41 1.886 1.402 1.886.4 0 .743-.1 1.04-.238.029-.01.057-.02.075-.02.046 0 .074.03.092.098l.084.28c.01.039.02.078.02.108 0 .06-.029.089-.113.13zm-9.674-3.326a1.411 1.411 0 00-1.223-.714c-.777 0-1.363.675-1.363 1.856 0 1.092.515 1.767 1.243 1.767.645 0 1.16-.506 1.343-1.002V34.39zm1.13 3.614h-.423c-.445 0-.657-.337-.657-.734h-.02c-.232.436-.889.734-1.505.734-1.394 0-2.01-1.162-2.01-2.413 0-1.658 1-2.591 2.151-2.591.505 0 1.05.209 1.353.606l.01-.328c0-.119.082-.169.193-.169h.454c.121 0 .182.06.182.189l-.01 3.575c0 .228.01.387.05.446.04.07.091.09.172.09h.071c.091 0 .14.02.14.128v.339c0 .1-.049.128-.15.128zM41.42 34.39a1.403 1.403 0 00-1.217-.714c-.774 0-1.356.675-1.356 1.856 0 1.093.512 1.767 1.236 1.767.643 0 1.156-.506 1.337-1.002V34.39zm1.124 3.614h-.421c-.443 0-.654-.337-.654-.734h-.02c-.23.436-.884.734-1.497.734-1.386 0-2-1.162-2-2.413 0-1.657.995-2.59 2.141-2.59.502 0 1.045.208 1.346.605l.01-.328c0-.119.081-.169.192-.169h.452c.12 0 .18.06.18.189l-.01 3.575c0 .228.01.387.05.446.041.07.091.09.172.09h.07c.09 0 .14.02.14.129v.338c0 .1-.05.128-.15.128zm2.114 0h-.456c-.111 0-.168-.067-.168-.225v-7.584c0-.157.045-.16.126-.191h.526c.083 0 .14.046.14.191v7.573c0 .157-.057.236-.168.236zM11.19 21.597c-.874 0-1.593.729-1.593 2.369 0 1.751.638 2.428 1.592 2.428.884 0 1.593-.71 1.593-2.428 0-1.784-.638-2.369-1.593-2.369zm0 6.403c-2.02 0-3.186-1.585-3.186-3.968C8.004 21.66 9.19 20 11.19 20c2.1 0 3.185 1.716 3.185 3.966 0 2.493-1.296 4.034-3.185 4.034zm12.074-3.878c-.504 0-.837.387-.907.842h1.683c0-.416-.252-.842-.776-.842zm1.895 1.76h-2.822c.12.61.685.949 1.3.949a3.53 3.53 0 001.27-.252.28.28 0 01.12-.03c.092 0 .142.06.162.137.04.164.192.61.192.754 0 .126-.09.165-.192.213-.534.232-1.239.329-1.824.329-1.603 0-2.62-.948-2.62-2.496 0-1.5 1.058-2.486 2.61-2.486.645 0 1.189.232 1.563.619.503.512.604 1.18.604 1.857v.126c0 .232-.11.28-.363.28zM34.718 28h-1.044c-.272 0-.268-.15-.28-.473v-4.32l-1.777 4.539c-.084.23-.22.254-.356.254h-.386c-.199 0-.314-.035-.418-.265l-1.862-4.528v4.435c0 .323-.164.358-.384.358h-.856c-.24 0-.355-.092-.355-.334v-.034l.281-7.263c.011-.276.126-.369.325-.369h.752c.24 0 .334.093.427.312l2.204 4.495 2.215-4.495c.084-.197.198-.312.428-.312h.731c.209 0 .283.08.293.289L35 27.642v.036c0 .218-.093.322-.282.322zm3.663-3.513c-.181-.156-.398-.281-.7-.281-.495 0-.923.488-.923 1.295 0 .52.126 1.322.892 1.322.363 0 .61-.274.731-.42v-1.916zM40.161 28h-.454c-.594 0-.867-.292-.998-.574h-.02c-.272.301-.918.574-1.412.574-1.452 0-2.127-1.109-2.127-2.403 0-1.721 1.11-2.597 2.218-2.597.564 0 1.019.253 1.23.545l.03-.338A.23.23 0 0138.86 23h.895c.142 0 .242.09.242.246v3.48c0 .097.053.165.164.165h.08c.142 0 .213.049.213.195v.697c0 .145-.152.217-.293.217zm1.951 0h-.942c-.22 0-.325-.077-.325-.32v-4.37c0-.222.136-.31.325-.31h.942c.2 0 .304.077.304.31v4.37c0 .22-.094.32-.304.32zm-.419-6.317c-.398 0-.848-.3-.848-.83 0-.544.418-.853.849-.853.42 0 .837.31.837.842 0 .531-.44.841-.837.841zM47.688 28h-1.035c-.229 0-.316-.11-.316-.299v-2.655c0-.42-.087-.699-.588-.699-.36 0-.773.15-1.078.39V27.7c0 .19-.076.299-.294.299h-1.068c-.186 0-.305-.09-.305-.27v-4.428c0-.19.076-.302.316-.302h1.057c.163 0 .272.053.294.223v.21c.5-.36 1.024-.433 1.666-.433 1.199 0 1.667.689 1.667 1.776V27.7c0 .2-.076.299-.316.299zm-28.004 0H18.65c-.229 0-.316-.11-.316-.299v-2.655c0-.42-.087-.699-.588-.699-.36 0-.773.15-1.078.39V27.7c0 .19-.076.299-.294.299h-1.068c-.186 0-.305-.09-.305-.27v-4.426c0-.19.076-.304.316-.304h1.057c.163 0 .272.055.294.225v.21c.5-.36 1.024-.435 1.666-.435 1.199 0 1.667.689 1.667 1.776V27.7c0 .2-.077.299-.316.299z" fill="#fff"/></svg>