<!-- by TradingView --><svg xmlns="http://www.w3.org/2000/svg" width="56" height="56"><path fill="#F0F3FA" d="M0 0h56v56H0z"/><path d="M30.94 22.53c1.5 0 2.76 1.2 2.76 2.68a2.73 2.73 0 01-2.72 2.72c-1.5 0-2.76-1.2-2.76-2.68a2.74 2.74 0 012.72-2.72zm0 4.66c1.11 0 1.97-.88 1.97-1.94a2 2 0 00-1.97-1.98c-1.07 0-1.97.88-1.97 1.98 0 1.06.9 1.94 1.97 1.94zm3.4-1.99c-.03-.1 0-.17.11-.17h.43c.07 0 .1.04.14.1l.5 1.6.83-1.66c.04-.04.07-.07.14-.07h.04c.07 0 .1.03.14.07l.83 1.7.5-1.64c.04-.1.14-.1.25-.1h.29c.1 0 .18.07.1.17l-.9 2.73c-.03.04-.06.07-.13.07h-.04c-.07 0-.1-.03-.14-.07L36.49 26l-.93 1.94c-.03.04-.07.07-.1.07h-.04c-.07 0-.1-.03-.14-.07l-.94-2.73zm6.52-.2c.77 0 1.4.56 1.4 1.28v.2c0 .07-.08.13-.15.13H40.1c.03.43.41.76.87.76.27 0 .52-.1.66-.2.1-.03.13-.06.2 0l.21.27c.07.07.07.1 0 .2-.2.16-.59.36-1.1.36-.91 0-1.5-.66-1.5-1.48A1.37 1.37 0 0140.86 25zm.7 1.15a.7.7 0 00-.7-.62c-.38 0-.73.26-.76.62h1.46zM43 25.13c0-.06.07-.13.15-.13h.22c.07 0 .08.03.1.1l.12.3c.07-.06.47-.4 1.1-.4.94 0 1.31.61 1.31 1.4v1.46c0 .07-.07.14-.15.14h-.44a.15.15 0 01-.14-.14v-1.5c0-.48-.26-.71-.66-.71-.51 0-.84.34-.88.44v1.77c0 .1-.03.14-.18.14h-.4c-.08 0-.15-.07-.15-.14v-2.73zm3.83 2.4l.18-.27c.03-.04.03-.07.07-.07.04 0 .07 0 .1.03 0 0 .33.2.73.2.21 0 .39-.1.39-.23 0-.2-.18-.3-.61-.47-.47-.2-.9-.47-.9-.95 0-.37.33-.77 1.08-.77.43 0 .75.13.9.23.07.04.1.14.07.2l-.15.24c-.03.07-.14.1-.21.07 0 0-.32-.14-.65-.14-.25 0-.36.1-.36.2 0 .21.18.28.5.38.58.23 1.05.44 1.05.98 0 .44-.47.84-1.15.84-.5 0-.86-.17-1.04-.3 0-.04-.04-.1 0-.17z" fill="#929594"/><path d="M29.6 31.1l-.15-.18c-.32-.32-.54-.64-.54-1.1 0-.56.47-1.2 1.43-1.2.86 0 1.44.57 1.44 1.24 0 .78-.8 1.23-.93 1.38l.86.88c.14-.25.21-.53.28-.85.04-.14.07-.25.25-.18l.43.11c.22.04.15.21.15.28-.11.43-.25.82-.47 1.2l.68.64c.1.1.18.18 0 .35l-.31.27c-.11.07-.22.1-.33-.04l-.54-.55a2.3 2.3 0 01-1.65.65c-.97 0-1.61-.65-1.61-1.42-.04-.96.9-1.38 1-1.49zm.67 2.11c.4 0 .75-.14 1-.46l-1.14-1.2c-.1.07-.65.32-.65.92-.03.46.33.74.8.74zM31 29.9c0-.28-.25-.56-.65-.56-.35 0-.57.25-.57.5 0 .24.18.42.4.66l.17.18c.11-.07.65-.32.65-.78z" fill="#901F33"/><path d="M34.77 28.72c0-.07.07-.1.14-.1h.11c.07 0 .1.03.14.06l1.62 3.85h.03l1.62-3.85c.03-.03.07-.07.14-.07h.1c.08 0 .11.04.15.1l.95 5.11c.04.1-.03.18-.14.18h-.5c-.07 0-.1-.04-.14-.1l-.6-3.42h-.04l-1.4 3.47c-.03.07-.07.05-.14.05h-.14a.2.2 0 01-.14-.05l-1.4-3.47h-.04l-.5 3.41c0 .07-.08.11-.15.11h-.5c-.11 0-.18-.07-.15-.18l.98-5.1zm5.71 2.42c0-.07.07-.14.15-.14h.43c.07 0 .14.07.14.14v2.72c0 .07-.07.14-.14.14h-.43c-.08 0-.15-.07-.15-.14v-2.72zm1.77 0c0-.06.07-.14.14-.14h.22c.07 0 .09.04.1.11l.11.3c.08-.07.47-.41 1.08-.41.93 0 1.29.61 1.29 1.4v1.46c0 .07-.07.14-.14.14h-.43c-.08 0-.15-.07-.15-.14v-1.5c0-.47-.25-.71-.64-.71-.5 0-.83.34-.86.44v1.77c0 .1-.04.14-.18.14h-.4a.15.15 0 01-.14-.14v-2.72zM47.5 31c.84 0 1.5.67 1.5 1.48 0 .81-.66 1.52-1.5 1.52a1.5 1.5 0 110-3zm0 2.4c.45 0 .84-.41.84-.92a.87.87 0 00-.84-.87c-.45 0-.84.4-.84.87 0 .5.35.91.84.91zm2.5-2.26c0-.07.07-.14.14-.14h.22c.07 0 .1.03.14.1l.07.33c.21-.28.5-.46.85-.43.29 0 .64.07.57.28l-.18.35c-.06.1-.14 0-.42 0a.81.81 0 00-.68.35v1.88c0 .14-.07.14-.21.14h-.36a.15.15 0 01-.14-.14v-2.72z" fill="#929594"/><path d="M10.24 26.7c-.29.07-.54.1-.83.1h-5.3a6.03 6.03 0 015.45-4.77A6.04 6.04 0 0116 26.26V22h3l2.5 4.48L24 22h3v4.8H12.78a3.1 3.1 0 01-.82-.1 3.59 3.59 0 00-1.72 0zm1.68.46c.29-.07.54-.11.83-.11H27v.88H11.35a3.1 3.1 0 01-.83-.1 3.58 3.58 0 00-1.72 0c-.28.07-.53.1-.82.1H4c0-.28.04-.6.07-.88h5.3c.3 0 .58.04.83.1a3.59 3.59 0 001.72 0zm-1.4 1.13a3.58 3.58 0 01-1.72 0 3.1 3.1 0 00-.82-.11H4c0 .28.04.6.07.88h2.58c.29 0 .54-.03.83-.1a3.59 3.59 0 011.72 0c.25.07.53.1.82.1H27v-.88H11.35c-.29 0-.58.04-.83.1zM9.2 29.42c.28-.07.53-.11.82-.11H27V34h-3v-4.4L22 34h-1l-2-4.4V34h-3v-4.4c-.75 3.16-3.83 4.62-6.48 4.37a5.83 5.83 0 01-5.38-4.66h2.51c.29 0 .58.04.83.1a3.59 3.59 0 001.72 0z" fill="#901F33"/><circle cx="40.84" cy="29.43" r=".43" fill="#929594"/></svg>