<!-- by TradingView --><svg width="56" height="56" xmlns="http://www.w3.org/2000/svg"><path fill="#0068B6" d="M0 0h56v56H0z"/><path d="M4 28.002C4 25.882 5.221 24 7.54 24 9.868 24 11 25.929 11 28.002c0 2.118-1.147 4.002-3.46 4.002-2.283 0-3.54-1.585-3.54-4.002zm1.002 0C5.062 29.79 6.164 31 7.539 31c1.444 0 2.488-1.121 2.461-2.998C9.973 26.125 8.945 25 7.54 25c-1.429 0-2.597 1.214-2.538 3.002zM16 32.004V28.51c0-.613-.406-1.552-1.366-1.51-.96.042-1.463.582-1.634 1.066V32h-1v-6h1l.134.857h.045c.432-.584 1.362-.85 2.081-.85 1.11 0 1.74.475 1.74 2.206v3.791h-1zM22.82 31.373c-.595.463-1.425.627-2.162.627C18.914 32 18 30.774 18 29.097c0-1.695.865-3.097 2.574-3.097C22.282 26 23 27.178 23 28.416c0 .307-.038.702-.113 1.084H19c.057 1.17.821 1.5 1.873 1.5a2.4 2.4 0 001.392-.458l.555.831zM20.574 27c-1.037.024-1.574.727-1.574 1.5h3.004c0-.718-.394-1.524-1.43-1.5zM27.506 29.78c0-.803-1.505-1.346-2.081-1.573-.96-.41-1.87-.873-1.87-2.008 0-1.482 1.289-2.199 2.672-2.199.76 0 1.631.075 2.31.45l-.488.943c-.515-.319-1.4-.393-1.992-.393-.716 0-1.45.445-1.375 1.101.074.657 1.56 1.274 2.118 1.512.934.389 1.917.904 1.917 2.005 0 1.612-1.393 2.386-2.897 2.386-.807 0-1.712-.092-2.445-.462l.44-1c.561.297 1.61.458 2.242.458.937 0 1.45-.614 1.45-1.22zM33 32v-3.715c0-.579-.066-1.285-.827-1.285-.508 0-1.005.264-1.173.694V32h-1v-6h.86l.14.9c.415-.56.783-.9 1.484-.9.728 0 1.17.284 1.426.956.347-.572.883-.956 1.653-.956C37.025 26 37 27.142 37 28.374V32h-1v-3.715c0-.572-.024-1.285-.749-1.285-.521 0-1.098.204-1.251.694V32h-1zM38.565 26.429c.733-.32 1.582-.429 2.377-.429.78 0 1.304.19 1.607.528.336.358.451.919.451 1.396a52.44 52.44 0 00-.093 2.24c0 .606.005 1.256.204 1.836h-.873L42 31.146c-.508.58-1.323.854-2.047.854-.922 0-1.732-.62-1.732-1.605 0-1.08.966-1.58 1.936-1.704A13.421 13.421 0 0142 28.608c.137-1.063-.252-1.608-1.323-1.608-.582 0-1.206.067-1.743.31l-.37-.881zm3.067 4.18a1.34 1.34 0 00.368-.417v-.715c-.234-.022-.934.002-1.153.016-.634.044-1.652 0-1.602.902.05.901 1.89.572 2.387.214zM46.598 27.12a1.968 1.968 0 00-.633-.12c-.518 0-.965.608-.965 1.073V32h-1v-6h.584l.416.853c.253-.535.404-.853 1.089-.853.196 0 .419.047.668.127l-.159.994zM47 27h1v-1.68l1-.407V27h1v1h-1v1.673c0 .425.057 1.327.626 1.327.269 0 .546-.101.79-.207l.584.87a3.82 3.82 0 01-1.54.341c-1.1 0-1.46-.651-1.46-1.671V28h-1v-1z" fill="#fff"/></svg>