<!-- by TradingView --><svg xmlns="http://www.w3.org/2000/svg" width="56" height="56"><path fill="url(#a0nfmaaga)" d="M0 0h56v56H0z"/><path d="M44 28a16 16 0 01-17.16 15.96c-1.5-1.07-10.12-7.28-11.67-8.7-1.7-1.57-2.93-3.41-2.8-4.46.11-.8.7-.8 1.1-.8H31.2l-1.95-2H15.17l3.13-3h6.86l-6.86-4.54c-2.17 1.35-4.88 4.07-6.17 5.5a15.96 15.96 0 015-9.7l10.65 7.22a39.8 39.8 0 018.28 7.85L34.67 33H16.28l2.09 2H32.5l-2.99 3H22.4l7.11 4.56c2.6-1.64 7.79-6.2 7.72-11.23-.07-5.03-5.17-9.32-7.72-10.84l-9.63-6.28A16 16 0 0144 28z" fill="#fff"/><defs><linearGradient id="a0nfmaaga" x1="28" y1="0" x2="28" y2="56" gradientUnits="userSpaceOnUse"><stop stop-color="#0180C9"/><stop offset="1" stop-color="#194F90"/></linearGradient></defs></svg>