<!-- by TradingView --><svg xmlns="http://www.w3.org/2000/svg" width="56" height="56"><path fill="#0F5CAC" d="M0 0h56v56H0z"/><path d="M8 28.5c0-4.23 3.26-7.5 7.5-7.5 4.78 0 7.5 2.86 7.5 7.5 0 4.5-2.94 7.5-7.5 7.5C11 35.97 8 33.03 8 28.5zm3 0c0 2.64 1.4 6.5 4.5 6.5 3.35 0 4.5-3.66 4.5-6.5S18.85 22 15.5 22c-3.06 0-4.5 3.88-4.5 6.5zM24.6 36v-.02c.29-2.43.4-3.38.4-7.52 0-4.15 0-5.57-.3-7.46.75.06 1.4.04 2.07.02L27.8 21h1.85c1.61 0 2.48.4 3.23 1.03S34 23.77 34 25.43c0 1.85-.37 2.77-1.3 3.52-.92.75-2.12 1.05-4.03 1.05H28v2.66c0 .89.08 1.84.15 2.75l.05.59h-3.6zM31 25.44C31 24 30.78 22 28.78 22H28v7c2 0 3-1.75 3-3.56zM40 23c0 4.33-.1 8.42-.3 13h3.6c-.22-4.48-.3-8.6-.3-13 1.3 0 2.71.2 4 .4V21H36v2.4c1.28-.2 2.7-.4 4-.4z" fill="#fff"/></svg>