<!-- by TradingView --><svg xmlns="http://www.w3.org/2000/svg" width="56" height="56"><path fill="#F0F3FA" d="M0 0h56v56H0z"/><path d="M37.2 21.22c-1.94-2.27-3.32-3.79-4.55-5.6-1.14-1.67-1.84-3.1-1.84-4.56 0-1.43.57-2.94.57-2.94L31.34 8c-1.67 4.07-2.62 6.5-2.3 9.96.33 3.7 3 6.67 5.28 9.14 1.84 2 2.96 3.26 3.47 5.55.35 1.6.56 4.96-1.8 8.2-2.14 2.92-5.48 3.9-6.99 4.15v1c1.68-.2 5.7-.99 8.56-3.61 2.56-2.35 3.57-4.39 4.24-7.55.56-2.68-.07-6.5-1.73-9.45a26.36 26.36 0 00-2.88-4.17zM19.88 40.81a10 10 0 01-1.6-8.19c.5-2.29 1.61-3.55 3.45-5.55 2.29-2.47 5-5.42 5.33-9.11.32-3.46-.64-5.9-2.3-9.96l-.04.12s.57 1.51.57 2.94c0 1.46-.7 2.88-1.84 4.56-1.23 1.81-2.62 3.33-4.55 5.6a26.6 26.6 0 00-2.93 4.17c-1.66 2.94-2.34 6.77-1.77 9.45.67 3.16 1.59 5.2 4.15 7.55 3.02 2.77 7.21 3.46 8.65 3.61v-1c-1.3-.2-4.85-1.08-7.12-4.19z" fill="#02ADF0"/><path d="M37 35.08a8.8 8.8 0 00-2.73-6.39 33.83 33.83 0 01-4.48-5.33C28.36 21.03 28 19 28 19s-.37 2.04-1.81 4.36a35.11 35.11 0 01-4.54 5.42A8.76 8.76 0 0019 35.04 9 9 0 0028 44c4.97 0 9-4 9-8.92z" fill="#171363"/><circle cx="28" cy="35" r="7" fill="#ED1E23"/></svg>