<!-- by TradingView --><svg width="56" height="56" xmlns="http://www.w3.org/2000/svg"><path fill="#F60" d="M0 0h56v56H0z"/><path d="M7.744 24.017c.928-.052 1.889.175 2.654.746.662.488 1.138 1.226 1.373 2.036.25.865.282 1.79.16 2.682-.112.768-.388 1.522-.864 2.121a3.654 3.654 0 01-2.107 1.3 4.374 4.374 0 01-2.634-.228 3.596 3.596 0 01-1.678-1.481c-.482-.814-.664-1.792-.647-2.741-.005-1.009.226-2.05.805-2.87.672-.979 1.809-1.517 2.938-1.565zm-.087 1.926c-.438.06-.845.317-1.092.703-.32.497-.418 1.11-.439 1.699-.013.655.057 1.341.373 1.919.219.399.6.693 1.03.785.525.113 1.116.052 1.557-.293.395-.315.607-.82.704-1.32.106-.57.11-1.16.021-1.733-.083-.51-.269-1.031-.65-1.376-.406-.375-.986-.465-1.504-.384zM15 25.21c.606-.745 2.06-1.292 3-1.2v2.103c-.597.005-1.787.086-2.336.361-.24.131-.664.33-.664.607v5.922h-2V24.01h2v1.2zM20.66 24.308c.821-.283 1.704-.306 2.552-.175.714.123 1.454.427 1.902 1.07.344.474.447 1.099.41 1.689.002 2.002-.013 4.109.01 6.11h-1.887c-.062-.25-.123-.603-.184-.853a4.58 4.58 0 01-1.823.78c-.652.111-1.35.128-1.962-.178-.534-.258-.948-.772-1.12-1.373-.212-.73-.174-1.571.207-2.23.34-.587.904-.973 1.481-1.243 1.023-.469 2.131-.663 3.229-.802-.009-.355.06-.763-.177-1.056-.333-.408-.893-.434-1.361-.39-.654.055-1.258.432-1.666.978-.48-.293-.96-.584-1.436-.884a3.592 3.592 0 011.825-1.444zm.862 4.657c-.33.154-.663.369-.848.713-.249.445-.203 1.061.119 1.45a.857.857 0 00.662.301c.738.015 1.423-.393 1.96-.912-.003-.676 0-1.351-.002-2.026-.642.087-1.29.206-1.891.474zM31.007 24.138c.672-.135 1.4-.11 2.03.192.861.41.946 1.536.963 2.364v6.309h-2v-5.948c-.011-.371.057-.779-.181-1.072-.241-.276-.63-.297-.96-.258-.658.086-1.361.484-1.859.921v6.357h-2v-8.524c.587-.087 1.201-.172 1.789-.257.055.332.127.663.188.995.616-.468 1.276-.915 2.03-1.08zM36.393 25.354c.496-.721 1.283-1.227 2.131-1.295.546-.033 1.107.019 1.616.238.388.166.749.447.934.851.052-.312.11-.825.156-1.138h1.794v8.588c-.012.825-.186 1.704-.74 2.321-.618.688-1.534.948-2.401 1.04-1 .101-2.067.043-2.964-.483-.575-.33-1.028-.911-1.155-1.597l2.092-.356c.054.217.15.437.335.563.372.255.835.27 1.265.264.409-.001.85-.118 1.132-.45.31-.366.376-.88.39-1.353-.004-.357.008-.714-.009-1.07-.212.361-.465.716-.823.927-.517.31-1.134.335-1.711.277a2.961 2.961 0 01-2.048-1.167c-.62-.821-.837-1.9-.846-2.93-.02-1.13.206-2.308.852-3.23zm2.585.31c-.31.06-.595.237-.797.49-.291.358-.426.825-.488 1.285a7.438 7.438 0 00-.005 1.576c.057.515.174 1.062.526 1.445.263.301.662.428 1.041.416.407.01.829-.132 1.119-.443.318-.343.467-.819.542-1.284a7.13 7.13 0 00.069-1.337c-.036-.609-.204-1.243-.618-1.688a1.508 1.508 0 00-1.389-.46zM45.49 25.315c.54-.707 1.358-1.122 2.195-1.23.935-.118 1.94.003 2.746.563.657.448 1.112 1.183 1.336 1.976.204.732.272 1.621.212 2.382h-5.327c.004.578.084 1.07.379 1.566.238.404.65.662 1.087.73.451.07.933.041 1.346-.184.366-.199.649-.533.881-.891.518.311 1.037.621 1.557.928-.477.91-1.358 1.514-2.294 1.734-.956.218-1.986.222-2.904-.176-.715-.305-1.305-.909-1.65-1.646-.443-.945-.534-2.033-.471-3.077.064-.955.324-1.93.906-2.675zm1.655.787c-.299.356-.426.839-.46 1.307 1.078.002 2.157 0 3.235.001-.01-.461-.109-.947-.403-1.298-.333-.406-.864-.553-1.351-.514a1.44 1.44 0 00-1.021.504z" fill="#fff"/></svg>