<!-- by TradingView --><svg width="56" height="56" xmlns="http://www.w3.org/2000/svg"><path fill="#036B37" d="M0 0h56v56H0z"/><path d="M51.998 24H51v3.368c-.544-.273-1.362-.358-1.973-.37-1 0-1.754.3-2.261.9-.508.6-.763 1.433-.763 2.501 0 1.332.296 2.267.891 2.8.595.533 1.353.801 2.274.801.45.002.898-.057 1.332-.172a2.67 2.67 0 001.073-.537c.27-.214.429-.545.427-.894L51.998 24zM51 32.267c0 .632-1.618.743-1.973.733C47.368 33 47 31.579 47 30.4c0-1.491.776-2.4 2-2.4.715 0 1.544.12 2 .39v3.877zM18.284 27.273c-.603.181-1.032.35-1.284.504V34h1v-5.234c0-.21.104-.564.392-.657C18.733 28 19.561 27.998 20 28h1v-.822a2.138 2.138 0 00-.919-.177c-.609 0-1.214.093-1.797.272zM43.284 27.273c-.603.181-1.032.35-1.284.504V34h1v-5.234c0-.21.103-.564.392-.657C43.733 28 44.561 27.998 45 28h1v-.822a2.138 2.138 0 00-.919-.177c-.609 0-1.214.093-1.797.272zM22.938 32.367c-.32-.371-.504-1.108-.504-1.912 0-.767.177-1.493.504-1.844.328-.352 1.071-.611 1.733-.611.53 0 1.087.152 1.725.438l-.012-1.036a4.805 4.805 0 00-1.94-.402c-.898 0-1.64.278-2.224.837-.583.558-.876 1.46-.874 2.71 0 1.214.296 2.093.887 2.636.593.544 1.333.815 2.223.817a4.484 4.484 0 001.94-.429v-1.058c-.536.284-1.125.483-1.725.49-.705 0-1.415-.266-1.733-.636zM31.426 27c-.659 0-1.75.257-2.426.626V24h-1v10h1v-5.437c.483-.287 1.49-.56 2.05-.563.515 0 1.182.06 1.525.438.343.379.425.985.425 1.535V34h1v-4.204C34 27.977 33.142 27 31.426 27zM40.223 27.524c-.528-.348-1.168-.524-1.918-.524-.858-.003-1.585.114-2.305.557v1.118c.654-.5 1.113-.67 2-.675 1.128 0 2 .698 2 1.6v.635c-.55-.318-1.187-.522-2.013-.522-.798 0-1.897.16-2.334.522-.434.362-.653.905-.653 1.63 0 .77.266 1.318.798 1.645.533.327 1.206.49 2.022.49 1.019 0 1.801-.117 2.353-.352.55-.234.827-.653.827-1.254v-3.18c.01-.776-.248-1.341-.777-1.69zM40 32.385c.014.22-.527.418-.747.475-.239.079-.675.141-1.253.141-.385.01-1.183-.095-1.513-.286-.307-.186-.487-.57-.487-.941a.91.91 0 01.432-.797c.27-.178 1.046-.295 1.568-.293.594 0 1.511.22 2 .417v1.285zM9.899 23c2.863.006 5.101 2.363 5.101 5s-2.448 5.025-5.101 5C7.246 32.975 5.004 30.633 5 27.998 4.996 25.363 7.035 22.994 9.899 23zm0-1C6.642 22 4 24.686 4 28c0 3.313 2.64 6 5.899 6C13.156 34 16 31.314 16 28c-.002-3.314-2.844-6-6.101-6z" fill="#fff"/><path opacity=".998" d="M10 28.06c.031.074-.007.156-.086.185a.157.157 0 01-.199-.08c-.032-.073.007-.154.086-.184a.157.157 0 01.199.08zm2.658 1.32s-.207-.217-.494-.464c-.287-.248-.649-.528-.954-.652-.447-.18-.759-.103-.854.076-.092.177.034.454.461.668.294.148.755.24 1.141.297.386.057.7.076.7.076zm-.634-3.342s-.287.117-.63.29c-.344.175-.742.41-.963.642-.323.339-.341.639-.187.775.153.136.474.11.829-.201.241-.214.48-.591.657-.914.176-.322.294-.592.294-.592zm-2.6 4.936s.158-.25.325-.58c.167-.329.341-.733.373-1.043.047-.45-.13-.701-.341-.729-.21-.027-.455.17-.545.614-.06.306-.013.74.048 1.098.063.358.14.64.14.64zm-2.632-2.358s.307.063.696.107c.388.046.858.073 1.183.006.477-.098.68-.33.644-.526-.036-.194-.314-.35-.797-.289-.332.04-.764.216-1.112.381-.347.166-.614.321-.614.321zm1.604-3.052s.031.29.104.645c.072.356.19.78.359 1.048.248.39.549.496.736.404.188-.092.26-.386.052-.792-.144-.28-.456-.605-.734-.863-.275-.255-.517-.442-.517-.442z" fill="#fff"/></svg>