<!-- by TradingView --><svg width="56" height="56" xmlns="http://www.w3.org/2000/svg"><path fill="url(#paint0_linear)" d="M0 0h56v56H0z"/><path d="M14.686 17.12A2 2 0 0014 18.628v14.406a2 2 0 001.165 1.817L24 38.911v6.478l4.976 2.125a2 2 0 002.082-.317l10.238-8.716a2 2 0 00.703-1.523V23.033a2 2 0 00-1.145-1.808l-8.859-4.185v-6.5l-5.901-2.033a2 2 0 00-1.966.384l-9.442 8.229zM25 38.487V23.688c2.316-2.04 3.683-4.081 6-6.118v14.883l-6 6.034z" fill="#fff"/><defs><linearGradient id="paint0_linear" x1="10.418" y1="9.712" x2="68.147" y2="76.017" gradientUnits="userSpaceOnUse"><stop stop-color="#1A1E21"/><stop offset="1" stop-color="#06060A"/></linearGradient></defs></svg>