<!-- by TradingView --><svg width="56" height="56" xmlns="http://www.w3.org/2000/svg"><path fill="#EE2934" d="M0 0h56v56H0z"/><path d="M30.551 38.952c1.822-2.257 2.725-5.064 2.725-8.407 0-2.808-.82-5.052-2.247-6.9C29.659 21.87 27.914 21 25.779 21c-2.726 0-5.096.93-6.931 3.188C17.026 26.445 16 29.25 16 32.62c0 2.82.85 5.227 2.276 7.06 1.426 1.835 3.295 2.67 5.483 2.67 2.712-.014 4.97-1.142 6.792-3.4zM13 15v15.432c.692-2.426 2.076-4.613 4.137-6.574 3.12-2.962 6.806-4.443 11.042-4.443 2.626 0 4.759.875 6.396 2.61 1.638 1.735 2.457 4.006 2.457 6.799 0 4.048-1.567 7.546-4.702 10.509-1.835 1.72-3.869 2.948-6.1 3.667H41V15H13z" fill="#fff"/></svg>