<!-- by TradingView --><svg xmlns="http://www.w3.org/2000/svg" width="56" height="56"><path fill="#003B75" d="M0 0h56v56H0z"/><path d="M32 21h4v14h-4V21zm11.06 0a6.2 6.2 0 00-4.28 1.36c-.8.74-1.33 1.9-1.32 3.02 0 .88.36 1.74 1.03 2.36 1 .83 2.1 1.08 3.23 1.35.83.2 1.67.39 2.5.82.28.13.78.38.78 1.04 0 .8-.97 1.08-2.04 1.05a2.37 2.37 0 01-2.27-2A72.84 72.84 0 0037 30c0 1.21.46 2.74 1.38 3.55 1.28 1.11 3 1.45 4.68 1.45 2.96 0 5.94-1.26 5.94-4.54 0-1-.31-2-1.11-2.64-1.02-.83-2.34-1.1-3.66-1.35-.85-.17-1.7-.34-2.46-.67-.33-.12-.76-.43-.77-.8 0-1 1.3-1 1.83-1 1.21 0 1.94.56 2.02 1.44h3.69c-.08-1.14-.55-2.5-1.47-3.23a5.71 5.71 0 00-2.73-1.13c-.42-.05-.85-.08-1.28-.08zM30 21H20v3h3v11h4V24h3v-3zM6 28c.01-3.79 3-7 7-7s6.97 3.18 7 7c.03 3.84-2.87 7-7 7a6.8 6.8 0 01-7-7zm10 0c0-1.95-.88-4-3-4-2.13 0-3 2.16-3 4 0 1.84.84 4 3 4s3-2.05 3-4z" fill="#FD5375"/></svg>