<!-- by TradingView --><svg xmlns="http://www.w3.org/2000/svg" width="56" height="56"><path fill="url(#aq4cg13xk)" d="M0 0h56v56H0z"/><path d="M44 18c-4.7 2.7-10.16 4-16 4s-11.3-1.3-16-4v4.98A64.74 64.74 0 0028 25c5.5 0 10.88-.72 16-2.02V18zM28 29.5c5.42 0 10.75.29 16 1v-5c-5.25.71-10.58 1-16 1s-10.8-.29-16-1v4.96c5.2-.67 10.58-.96 16-.96zm16 3.52V38c-4.7-2.74-10.16-4-16-4s-11.3 1.26-16 4v-4.98A64.74 64.74 0 0128 31c5.5 0 10.88.72 16 2.02z" fill="#fff"/><defs><linearGradient id="aq4cg13xk" x1="10.42" y1="9.71" x2="68.15" y2="76.02" gradientUnits="userSpaceOnUse"><stop stop-color="#1A1E21"/><stop offset="1" stop-color="#06060A"/></linearGradient></defs></svg>