<!-- by TradingView --><svg xmlns="http://www.w3.org/2000/svg" width="56" height="56"><path fill="#F0F3FA" d="M0 0h56v56H0z"/><path d="M17.47 24.57V23h1.62L22 25.95v1.57h-1.6l-2.93-2.95z" fill="#55585A"/><path d="M12 19.07v-1.56h1.62l2.93 2.94V22h-1.62L12 19.07z" fill="#CBCCCC"/><path d="M23 30.06v-1.57h1.61l2.93 2.95V33h-1.62L23 30.06zm5.47 5.51V34h1.61L33 36.95v1.57h-1.6l-2.93-2.95z" fill="#55585A"/><path d="M28.48 24.57V23h1.6L33 25.95v1.57h-1.6l-2.92-2.95zM23 19.06v-1.57h1.62l2.92 2.94V22h-1.61L23 19.06zm10 0v-1.57h-1.6l-2.93 2.94V22h1.61L33 19.06z" fill="#A4482F"/><path d="M38.54 13.58V12h-1.61L34 14.95v1.57h1.62l2.92-2.94zm0 10.99V23h-1.61L34 25.95v1.57h1.62l2.92-2.95z" fill="#DE8C38"/><path d="M27.53 24.57V23h-1.6L23 25.95v1.57h1.61l2.92-2.95z" fill="#55585A"/><path d="M22 30.06v-1.57h-1.6l-2.92 2.95V33h1.61L22 30.06z" fill="#DE8C38"/><path d="M33 30.05v-1.57h-1.6l-2.93 2.95V33h1.61L33 30.05z" fill="#55585A"/><path d="M27.53 35.57V34h-1.61L23 36.95v1.57h1.6l2.93-2.95z" fill="#A4482F"/><path d="M22 41.06v-1.57h-1.61l-2.92 2.95V44h1.6L22 41.06zm12-11v-1.57h1.62l2.92 2.95V33h-1.6L34 30.06z" fill="#DE8C38"/><path d="M39.48 35.57V34h1.61L44 36.95v1.57h-1.6l-2.92-2.95z" fill="#CBCCCC"/></svg>