<!-- by TradingView --><svg width="56" height="56" xmlns="http://www.w3.org/2000/svg"><path fill="#4472C4" d="M0 0h56v56H0z"/><path d="M40.938 25H36v.217c.92-.066.972.546 1 .864v3.769c0 .813-.589.961-1 .933V31h3v-.217c-.922 0-1.005-.622-1-.933V28.1h1.704L42 31h2v-.217c-.658.04-1.032-.216-1.136-.35l-1.103-1.6c-.764.027-1.492-.477-1.761-.733.823.05 3.243 0 3.243-1.566 0-1.254-1.537-1.545-2.305-1.534z" fill="#fff"/><path d="M40.3 25.223H38v2.676h1.926c.687.011 2.063-.244 2.074-1.355.01-1.112-1.128-1.344-1.7-1.321z" fill="#4472C4"/><path d="M29 25h-6v.235c.861-.073.988.571 1 .902-.004.941-.01 3.012 0 3.765.01.753-.625.889-1 .863V31h3.005v-.235c-.884 0-1.021-.567-1.005-.863v-1.896h.891c.803 0 1.028 1.011 1.04 1.517h.182v-3.386h-.181c-.03.994-.617 1.634-1.04 1.634H25v-2.536c-.073-.013.439-.031 1.871 0 1.432.032 1.903 1.59 1.96 2.366H29V25zM17.79 25h-3.75v.193c.746 0 1.232.336 1.382.504l2.162 2.576c-1.597 2.036-3.055 2.554-3.584 2.52V31h3.461v-.207h-.61c-.198 0-.456-.313-.476-.595-.02-.284.075-.423.125-.458l1.237-1.311 1.204 1.45c.129.15.296.317.309.551.013.235-.295.34-.451.363h-.619V31H22v-.207c-.515.083-1.128-.437-1.37-.708l-2.107-2.502c1.397-1.74 2.75-2.318 3.251-2.39V25h-3.067v.193c.367 0 .844.267.92.44a.493.493 0 010 .354l-1.196 1.458-1.196-1.458a.739.739 0 01-.191-.425c-.025-.218.487-.337.747-.37V25z" fill="#fff"/><ellipse cx="8.5" cy="27" rx="4.5" ry="4" fill="#fff"/><ellipse cx="33.02" cy="28" rx="3.5" ry="3" fill="#fff"/><ellipse cx="8.5" cy="27.071" rx="2.5" ry="3.757" fill="#4472C4"/><ellipse cx="33.02" cy="28.022" rx="2.5" ry="2.828" fill="#4472C4"/><path d="M49.028 25.002H45v.232c.924-.086 1.005.511 1 .82.016.916.038 2.957 0 3.8-.038.841-.636.944-1 .89v.25h3.53c1.199.066 3.467-.433 3.467-2.96 0-2.8-2.022-3.073-2.969-3.032z" fill="#fff"/><path d="M48.589 25.233H47v5.564h1.589c.77.037 2.328-.468 2.408-2.774.08-2.306-1.572-2.82-2.408-2.79z" fill="#4472C4"/><path fill="#fff" d="M4 32h48v1H4z"/></svg>