<!-- by TradingView --><svg width="56" height="56" xmlns="http://www.w3.org/2000/svg"><path fill="#00689C" d="M0 0h56v56H0z"/><path d="M14.024 42.682C12.711 41.532 12 39.725 12 37.785V18.31c0-2.129.948-3.428 2.516-4.54.803-.414 1.66-.565 2.425-.414.766.094 2.024.226 3.866 1.997.711.696 5.215 4.162 5.89 5.141.674.923 1.476 1.903 1.713 2.788.712 2.41-.948 3.748-.948 3.748L14.024 42.682z" fill="#fff"/><path d="M19 12h19.488C41.821 12 44 14.731 44 18.215v19.57C44 41.307 41.388 44 38.056 44H22c3.062-3.899 9.86-13.297 10.887-14.634 1.117-1.488 3.422-.132 3.422-.132l4.755 3.428 2.846-3.993s-1.189-.83-2.522-1.997c-2.882-2.505-6.79-6.31-9.402-8.023-3.764-2.543-9.492-5.236-11.941-6.122-.27-.131-.54-.188-.793-.282L19 12z" fill="#fff"/></svg>