<!-- by TradingView --><svg width="56" height="56" xmlns="http://www.w3.org/2000/svg"><path fill="#F0F3FA" d="M0 0h56v56H0z"/><path d="M26.774 21l-13.512-8 3.55 8h9.962z" fill="#D45125"/><path d="M26.773 21l-14.405 6.987L16.81 21h9.963z" fill="#442978"/><path d="M26.774 24.107l-18.77 9.956 12.29.614 6.48-10.57z" fill="#2C9545"/><path d="M26.775 24.107L25.71 45l-5.416-10.323 6.48-10.57z" fill="#442978"/><path d="M29.232 24.107l18.77 9.956-12.29.614-6.48-10.57z" fill="#2C9545"/><path d="M29.232 24.107L30.297 45l5.416-10.323-6.481-10.57z" fill="#442978"/><path d="M29.232 21l13.512-8-3.549 8h-9.963z" fill="#D45125"/><path d="M29.232 21l14.392 6.987L39.195 21h-9.963z" fill="#442978"/></svg>