<!-- by TradingView --><svg width="56" height="56" xmlns="http://www.w3.org/2000/svg"><path fill="#EE1B2C" d="M0 0h56v56H0z"/><rect x="4.54" y="20.436" width="46.987" height="16.957" rx="3" fill="#fff"/><path d="M48.448 20H7.552C5.586 20 4 21.627 4 23.6v10.8C4 36.373 5.586 38 7.552 38h40.896a3.536 3.536 0 002.513-1.043A3.563 3.563 0 0052 34.435V23.6c0-1.973-1.587-3.6-3.552-3.6zm.548 17H7c-.701 0-2-1.298-2-2V23c0-.702 1.288-2 2-2h42c.712 0 2 1.299 2 2v12c0 .693-1.28 2-2.004 2z" fill="#08090D"/><path d="M20.572 29.33h-2.113L17.7 31h2.113l-.511 1.004h-4.804l2.9-6.004h4.804l-.484 1h-2.112l-.636 1.313h2.112l-.51 1.017zM26.329 26h2.42l-2.8 5.995H23.36V30l-1.158 1.995h-2.249L22.752 26h2.521v2l1.056-2zm-13.414 1h.254c.239 0 .375 0 .34.175 0 .035 0 .07-.033.14l-.653 1.373c-.102.175-.238.316-.51.316h-.376L12.915 27zm-4.918 5h2.59l.832-2h2.555c.681 0 1.044-.285 1.283-.705l1.086-2.35c.034-.07.034-.14.034-.21 0-.42-.443-.735-.988-.735h-4.6l-2.792 6zm38.467-2.67h-2.112L43.634 31h2.112l-.477.995H40.43L43.264 26H48l-.406 1h-2.112l-.619 1.313h2.112l-.511 1.017zm-6.337 2.665l-.58-3.506 3.237-2.49H40.23L38 28l.867-2h-2.76l-2.76 5.996h2.76l.681-1.578.486-.417.264 1.995h2.589zm-8.551-3.576c-.511-.176-.205-.596-.205-.596l.24-.456c.101-.175.34-.21.34-.21.545-.035.34.315.34.315L32 28h2.78l.271-.598S35.938 26 31.883 26c0 0-2.42 0-2.93.982l-.477.946s-.511.736.613 1.122l1.601.561c.477.176.205.561.205.561l-.273.526c-.102.175-.306.14-.306.14-.511 0-.341-.35-.341-.35l.34-.488H27.59l-.375.593s-.886 1.402 3.169 1.402c0 0 2.35.106 2.793-.7l.444-.877s.715-.982-.58-1.473l-1.465-.526z" fill="#EE1B2C"/></svg>