<!-- by TradingView --><svg width="56" height="56" xmlns="http://www.w3.org/2000/svg"><path fill="#00BC99" d="M0 0h56v56H0z"/><circle cx="28" cy="28" r="16" fill="#000"/><path d="M33.334 25.175a7.51 7.51 0 00-.838 14.288 10.31 10.31 0 01-7.041 2.765c-5.714 0-10.347-4.632-10.347-10.346 0-5.715 4.633-10.347 10.347-10.347 3.155 0 5.981 1.413 7.879 3.64z" fill="#B1DAD9"/><circle cx="35.187" cy="32.452" r="6.285" fill="#F4DF5E"/><path d="M40.5 27.15c.034-.374.05-.752.05-1.134 0-7.026-5.695-12.721-12.72-12.721-7.026 0-12.722 5.695-12.722 12.721 0 .267.009.532.025.794a11.498 11.498 0 0110.322-6.426 11.48 11.48 0 019.185 4.58 7.484 7.484 0 015.86 2.185z" fill="#DDE273"/></svg>