<!-- by TradingView --><svg width="56" height="56" xmlns="http://www.w3.org/2000/svg"><path fill="#00A7F3" d="M0 0h56v56H0z"/><path d="M27 26v-7h7.08c.914 0 1.811.18 2.417.766.502.486 1.201 1.52 1.147 3.85-.038 1.588-.382 2.37-.623 2.743-.232.36-.585.683-1.235.968-1.566.686-3.845.724-6.786.674v4c.422 0 .858.008 1.302.015 5.164.081 11.497.181 11.693-8.18C42.16 16.803 37.905 15 34.08 15H22v11h5z" fill="#fff"/><path d="M23.6 31.6a12.715 12.715 0 00-1.6 6.175V45c2.629 0 5-2.257 5-5.04V28H15.76C13.131 28 11 30.216 11 33h6.82c2.011 0 3.992-.48 5.78-1.4z" fill="#039"/></svg>