<!-- by TradingView --><svg xmlns="http://www.w3.org/2000/svg" width="56" height="56"><path fill="#FA4616" d="M0 0h56v56H0z"/><path d="M6 20h16v16H6V20zm14 14V22H8v12h12zM9 24v5.35C9 31.59 10.39 33 12.47 33 14.6 33 16 31.6 16 29.35V24h-2v5.35c0 1.27-.5 1.9-1.5 1.9s-1.5-.67-1.5-1.9V24H9zm9 1c.58 0 1-.42 1-1 0-.52-.38-1-1-1-.58 0-1 .42-1 1 0 .58.42 1 1 1zm-1 1v7h2v-7h-2zm10.25 4c1.82 0 3.02-1.2 3.02-2.98A2.88 2.88 0 0027.25 24H24v9h2v-3h1.25zm-.5-1.5H26v-3h.76c.97 0 1.55.6 1.55 1.52 0 .97-.58 1.48-1.55 1.48zM46 26.92V24h-2v9h2v-3.97c0-.8.13-1.75 1-1.75s1 .86 1 1.66V33h2v-4.23c0-1.72-.86-2.77-2.42-2.77-.98 0-1.47.68-1.58.92zm-15.58 2.45c0 2.14 1.44 3.63 3.37 3.63 1.15 0 1.79-.4 2.21-1.07V33h2v-7h-2v.92c-.2-.59-1.09-1.19-2.21-1.19-1.96 0-3.37 1.54-3.37 3.64zm5.58 0c0 1.23-.67 2.03-1.79 2.03s-1.74-.87-1.74-2.03c0-1.26.7-2.06 1.74-2.06 1.16 0 1.79.84 1.79 2.06zm6 1.16c0 .63.25.94.68.94H43V33h-.66c-1.76 0-2.34-.8-2.34-2.47V27.5h-1V26h1v-2h2v2h1v1.5h-1v3.03z" fill="#fff"/></svg>