<!-- by TradingView --><svg xmlns="http://www.w3.org/2000/svg" width="56" height="56"><path fill="#F0F3FA" d="M0 0h56v56H0z"/><path fill-rule="evenodd" d="M12 15v26.06L50 28 12 15zm17.46 12c.12 0 .19.08.19.23 0 .04 0 .1-.03.18l-.72 3.1a.78.78 0 00-.02.15c0 .13.08.2.23.2l-.04.14h-.92c-.14 0-.24-.1-.24-.23v-.07l.01-.03.74-3.17a.8.8 0 00.02-.15c0-.12-.06-.17-.2-.21l.03-.14h.95zm.16-1c.15 0 .22.04.22.16a.6.6 0 01-.01.1l-.11.48h-.64c-.18 0-.27-.08-.27-.21l.01-.12.11-.41h.7zm-5.07.4l-.15.6h.94l-.08.5c-.04.2-.1.26-.33.26h-.32c-.28 0-.38.07-.44.32l-.4 1.73-.03.22c0 .16.08.27.24.27h.3c.3 0 .46-.04.57-.3h.13l-.23.74c-.05.2-.2.26-.5.26h-1.09c-.3 0-.47-.21-.47-.5l.03-.24.57-2.5h-.35l.12-.53c.5-.07.86-.33 1.08-.83h.41zm-2.89.6c.52 0 .79.23.79.67 0 .13-.03.25-.06.36l-.51 2.38-.02.09a.82.82 0 00-.03.17c0 .12.08.18.2.2l-.02.13h-.84c-.22 0-.32-.06-.32-.23 0-.07.02-.17.05-.32-.2.3-.3.4-.4.46-.08.05-.28.09-.6.09-.6 0-.9-.33-.9-.94 0-1.04.5-1.74 1.24-1.74h.84c.25 0 .37-.1.37-.37 0-.17-.08-.23-.27-.23h-.91c-.23 0-.33-.07-.33-.3 0-.1.02-.25.07-.42h1.65zm-1.72 2.8c0 .34.18.4.6.4.14 0 .28 0 .4-.02l.27-1.18h-.59c-.44 0-.68.28-.68.8zm7-2.6c0-.13-.07-.2-.23-.2h-1l-.03.14c.17.03.25.1.25.24 0 .03 0 .07-.02.1l-.7 3.13a.68.68 0 00-.02.15c0 .15.09.24.23.24h.96l.02-.14c-.14 0-.22-.07-.22-.2 0-.02 0-.06.02-.1v-.04l.51-2.23c.08-.33.28-.5.56-.5h.38c.34 0 .39-.09.47-.43l.07-.36h-.52c-.35 0-.53.15-.8.56l.06-.23.02-.13zm3.37.42c-.14.2-.34.74-.52 1.63-.07.38-.1.64-.1.76 0 .59.49.99 1.42.99.81 0 1.26-.16 1.57-.81.15-.33.24-.7.34-1.14.1-.4.17-.75.17-1.1 0-.58-.51-.95-1.49-.95-.65 0-1.03.12-1.4.62zm.7.74c.13-.42.3-.63.67-.63.33 0 .52.18.52.5 0 .13-.07.65-.31 1.41-.13.42-.3.63-.66.63-.34 0-.54-.2-.54-.52 0-.06.06-.58.31-1.39zm4.2-1.96l-.15.6H36l-.09.5c-.04.2-.1.26-.33.26h-.32c-.28 0-.37.07-.43.32l-.4 1.73-.03.22c0 .16.08.27.24.27h.3c.3 0 .46-.04.56-.3h.13l-.22.74c-.05.2-.2.26-.5.26h-1.1c-.29 0-.46-.21-.46-.5l.03-.24.57-2.5h-.36l.12-.53c.5-.07.87-.33 1.09-.83h.4zm-18.8 1.86a.4.4 0 00-.06-.03c-.08-.04-.18-.09-.18-.28 0-.16-.16-1.48-.16-1.48h-.05c-.04.4-.06.87-.07 1.2l-.03.53a.44.44 0 000 .4c.03.08-.02 1.2-.04 1.68v.1h-.1v.3l-.52.25-.04.02a.52.52 0 01-.19.05c-.2 0-.2-.22-.12-.3.04-.04.12-.1.2-.14l.1-.07v-.05H15v-.16l.06-1.6a.43.43 0 00-.07-.26c-.06-.08-.07-.2-.07-.28v-.05l.02-2.2-.1-.05.1-.72s-.44 0-.5-.1a.38.38 0 01-.06-.26c.02-.07.16-.22.25-.31l.05-.06c.05-.06-.01-.3-.05-.42-.18-.07-.64-.28-.64-.34 0-.07.02-.2.04-.25.15-.48.58-1.47.66-1.65.03-.08.16-.14.18-.14L14.8 18h.05l.15 2s.18.06.34.03l.2-.05c.15-.04.3-.08.46-.08.16 0 .3.04.45.08l.21.05c.16.03.37-.03.37-.03l-.03.04c-.07.13-.17.31-.39.44-.03.32-.1.45-.16.56a1.66 1.66 0 00-.06.12c-.03.05-.05.08-.05.23 0 .13.17.2.63.2.4 0 1.03 1.97 1.03 2.08 0 .26-.71.9-.85 1.01l.11 1.16h-.16v2.51a15.9 15.9 0 01.17 2.12c-.03.04-.07.04-.07.04v.05l.08.06c.1.06.2.13.12.21-.06.07-.14.1-.3.1-.24 0-.57-.37-.57-.37h-.11a6.79 6.79 0 00-.15-2.03c-.03-.16.01-.18.13-.25l.02-.02zm-1.27-6.68l-.09-1.34.15.13.16.08a2.56 2.56 0 00.24.68c.03.06.06.1.06.2 0 .26-.23.26-.43.25h-.09zm1.8 1.52l-.08.57v.01c.01.04.03.09.05.08l.16-.04.15-.05a.8.8 0 00.1-.24c0-.04-.07-.27-.08-.3-.01-.03-.07-.18-.18-.18-.08 0-.12.09-.12.15zm1.3 1.51s.26.28.41.31a11.15 11.15 0 001.48.07c.15 0 .38-.02.53-.26.04-.07.1-.34.1-.7 0-.98-.32-2.18-.96-2.8-.27-.25-.56-.24-.83-.23h-.76c-.32 0-.59-1-.59-1h2.41c.81.21 1.97 2.18 1.97 4.16l-.01.48c-.13 1.67-2.25 1.47-3.4 1.24l-.34-1.27z" fill="#CF0033"/><path d="M12 33h23.46l-11.64 4H12v-4z" fill="#343394"/><path d="M35.46 33H12v.5h22.02l1.44-.5zM25.3 36.5H12v.5h11.84l1.46-.5z" fill="#F0F3FA"/></svg>