<!-- by TradingView --><svg width="56" height="56" xmlns="http://www.w3.org/2000/svg"><path fill="#F0F3FA" d="M0 0h56v56H0z"/><path d="M18.713 15.18s.38 2.07.492 3.01c1.109.208 2.14.561 3.143 1.077-1.334.752-2.342 2.473-2.342 2.473l-3.256.077-1.52-1.495c-.668-.665 0-1.818 0-1.818l3.483-3.324zM15.778 24.051s-1.595-1.571-1.972-2.447c-.054 1.285-1.447 2.467-1.632 3.767l2.812 3.452c1.228-.992 2.76-1.333 2.76-1.333s.187-1.215.39-1.764c.2-.547.373-1.159.49-1.73-.957.25-2.848.055-2.848.055z" fill="#294096"/><path d="M14.987 28.815c-.779-1.267-3.05-1.626-2.813-3.444 0 0 1.46-2.543 1.504-3.771l.127-.018.127-.017c.356.838 1.846 2.486 1.846 2.486s.37.033.552.033c.765 0 1.532-.16 2.296-.087-.115.562-.293 1.19-.49 1.729-.195.523-.39 1.764-.39 1.764l-2.1.571-.659.754zM15.4 30.123c-.914-.57-2.418-1.307-3.4-1.755.074 1.492-.182 2.9.349 4.37a2.47 2.47 0 001.441 1.498c.747.21 1.924.394 2.699.422.432-.627 1.385-1.538 2.031-1.941-.267-.841-.563-3.404-.563-3.404s-1.583.436-2.558.81zM17.246 36.444c-.9-.335-2.727-.416-3.707-.357.295.622.413 1.557.741 2.141.729 1.306 1.868 2.781 3.517 2.37.777-.192 1.878-.214 2.609-.47.018-.578.044-.906.374-1.383.454-.655.608-.655.19-1.322-.526-.843-1.718-2.76-1.718-2.76s-1.203 1.282-2.006 1.781z" fill="#294096"/><path d="M14.28 38.228c-.37-.665-.408-1.457-.74-2.14 1.249-.076 2.499.003 3.706.356.695-.468 2.006-1.781 2.006-1.781s1.187 1.913 1.718 2.76c.372.585.168.79-.19 1.322-.315.462-.356.807-.374 1.383-.77.267-1.86.282-2.609.47-1.682.416-2.762-1.025-3.517-2.37zm0 0c.755 1.345 1.835 2.786 3.517 2.37.775-.192 1.919-.251 2.609-.47.018-.534.049-.913.374-1.383.358-.532.562-.736.19-1.322l-1.718-2.76s-1.597 2.265-2.006 1.781c-.026.013.023-.015 0 0-1.183-.395-2.473-.404-3.707-.357.246.62.449 1.629.741 2.141zM37.223 15.18s-.387 2.195-.498 3.19c-1.12.22-2.152.591-3.157 1.135 1.697.974 2.352 2.614 2.352 2.614l3.286.08s1.067-.984 1.534-1.584c.49-.633.292-1.22.036-1.933-.52-1.44-3.553-3.502-3.553-3.502z" fill="#294096"/><path d="M35.92 22.119s-.655-1.64-2.352-2.614c.997-.52 2.057-.902 3.157-1.136.108-.862.498-3.189.498-3.189s3.017 2.025 3.553 3.502c.236.667.434 1.327-.036 1.933-.493.626-1.534 1.585-1.534 1.585l-3.286-.081zm3.286.08s1.11-1.028 1.534-1.584c.47-.606.272-1.266.036-1.933-.472-1.313-3.553-3.502-3.553-3.502s-.403 2.329-.498 3.19a12.26 12.26 0 00-3.157 1.135c1.697.974 2.352 2.614 2.352 2.614l3.286.08zM40.155 23.981l2.019-2.25s1.456 2.45 1.639 3.743c.256 1.814-2.837 3.432-2.837 3.432l-1.228-.82-1.55-.5s-.613-2.36-.89-3.476l2.585.253" fill="#294096"/><path d="M40.976 28.906l-1.228-.82-1.55-.5s-.613-2.36-.89-3.476c0 0 1.705.09 2.313.09.185 0 .534-.219.534-.219l2.019-2.25s1.439 2.401 1.639 3.743c.265 1.7-2.837 3.432-2.837 3.432zm0 0s3.102-1.733 2.837-3.432c-.15-1.116-1.64-3.743-1.64-3.743l-2.28 2.632-2.586-.253c.278 1.116.89 3.476.89 3.476l1.55.5 1.229.82zM40.77 30.318c.921-.57 2.24-1.423 3.23-1.867-.072 1.484.187 2.885-.352 4.347-.664 1.767-2.543 1.727-4.17 1.906l-2.058-1.926.755-3.31s1.61.48 2.596.85z" fill="#294096"/><path d="M39.478 34.704l-2.058-1.926.755-3.31s1.718.502 2.596.85c.918-.567 2.22-1.412 3.229-1.867 0-.195-.01.201 0 0 .008 1.4.137 3.005-.352 4.347-.664 1.767-2.543 1.727-4.17 1.906zm0 0c1.627-.18 3.506-.14 4.17-1.906.489-1.343.36-2.946.352-4.347-.003.138.002-.131 0 0-.916.442-2.37 1.335-3.23 1.867-.05-.02.052.02 0 0-.949-.36-2.595-.85-2.595-.85l-.755 3.31 2.058 1.926zM38.71 36.481l3.738-.354c-.4 1.506-.985 2.66-2.037 3.808-.656.72-1.239.933-2.257.685-.782-.192-1.893-.216-2.632-.47-.015-.576-.098-.875-.38-1.377-.592-.513-.613-.654-.192-1.315l1.734-2.745 2.027 1.768z" fill="#294096"/><path d="M38.154 40.62c-.757-.188-1.852-.205-2.632-.47-.02-.576-.102-.872-.38-1.377-.525-.46-.564-.724-.192-1.315.536-.843 1.734-2.745 1.734-2.745l2.027 1.768 3.737-.354c-.4 1.506-.985 2.66-2.037 3.808-.646.711-1.348.908-2.257.685zm0 0c.91.223 1.61.026 2.257-.685 1.052-1.149 1.636-2.302 2.037-3.808l-3.737.354-2.027-1.768s-1.239 1.959-1.734 2.745c-.372.59-.333.855.192 1.315.258.466.362.845.38 1.377.698.212 1.85.28 2.632.47zM22.843 16.496c0 .444-.51.917-.98.917-.467 0-.98-.473-.98-.917 0-.444.51-.917.98-.917s.98.473.98.917z" fill="#294096"/><path d="M20.883 16.496c.003-.497.428-.915.98-.917.554.002.98.42.98.917 0 .497-.429.915-.98.917-.552-.002-.98-.42-.98-.917zm0 0c0 .392.595.917.98.917s.98-.527.98-.917-.595-.917-.98-.917-.977.527-.98.917zM35.043 16.255c0 .445-.513.915-.98.915-.47 0-.983-.47-.983-.915 0-.444.513-.917.983-.917.464 0 .98.473.98.917z" fill="#294096"/><path d="M33.08 16.255c.003-.497.429-.915.983-.917.554.002.98.418.98.917 0 .497-.426.915-.98.915s-.98-.418-.983-.915zm0 0c.003.39.595.915.983.915.385 0 .977-.525.98-.915-.003-.392-.595-.917-.98-.917-.388 0-.98.525-.983.917zM26.542 41.502h.933s.016.985.044 1.148c-1.99-.103-2.793 1.46-4.794 1.343-1.49-.087-4.3-2.162-4.3-2.162l3.607-.922s-.176-2.19.103-2.024c2.689 1.602 4.23 1.414 4.23 1.414l.177 1.203z" fill="#294096"/><path d="M22.725 43.993c-1.64-.097-4.3-2.162-4.3-2.162l3.607-.922s-.176-2.19.103-2.024c2.689 1.602 4.23 1.414 4.23 1.414.017.407.076.809.177 1.203h.933s.008.96.044 1.148c-1.755-.12-3.036 1.39-4.794 1.343zm4.794-1.343l-.044-1.148h-.933l-.177-1.203s-1.541.188-4.23-1.414c-.28-.167-.103 2.024-.103 2.024l-3.606.922s2.94 2.083 4.299 2.162c-.075 0 .074.005 0 0 1.694.02 2.924-1.343 4.794-1.343zM29.736 41.502l3.993-2.635c.2.909.098 2.031.098 2.031l3.201.95-8.106.802.814-1.148z" fill="#294096"/><path d="M28.922 42.65l.814-1.148a4.87 4.87 0 00.194-1.203s2.214-.386 3.8-1.432c.2.909.097 2.031.097 2.031l3.201.95s-2.465 2.145-4.045 2.145c-1.54-.012-2.498-1.45-4.06-1.343zm8.106-.802l-3.201-.95s.103-1.122-.098-2.03l-3.993 2.634h-.694l-.12 1.148c.005 0 .12-1.148.12-1.148 3.67.039 7.986.346 7.986.346z" fill="#294096"/><path d="M28.922 42.65H27.52l-.977-1.148h3.194l-.814 1.148zM12 28.368l3.4 1.756 2.557-.81-1.134 1.153-4.823-2.1z" fill="#294096"/><path d="M16.823 30.467l1.134-1.154-2.558.81L12 28.369l4.823 2.1zM38.175 29.469l2.406.724L44 28.451l-3.23 1.867-2.595-.85zM27.475 41.502l.796-.502.771.502M27.475 41.502l1.447 1.148-1.447-1.148zM27.475 41.502l1.447 1.148-.736.469c-2.315-1.544-.71-1.617-.71-1.617z" fill="#294096"/><path d="M32.86 13.37a1.532 1.532 0 00-.644-.132c-.698.002-1.414.373-1.855.782-.184.182-.349.594-.54.983a3.524 3.524 0 01-.287.503c-.09.132-.182.18-.19.173l-.012-.002c-.058-.016-.127-.157-.122-.396 0-.487.208-1.24.21-1.675a.785.785 0 00-.017-.177c-.125-.516-.748-1.527-1.377-1.42-.527-.09-1.18.987-1.287 1.42a.668.668 0 00-.018.177c.003.437.218 1.188.215 1.677.005.239-.06.378-.124.394-.007.002-.012.004-.017.004-.013.01-.112-.043-.205-.175-.304-.394-.587-1.226-.858-1.486-.458-.41-1.204-.78-1.922-.782-.23 0-.458.038-.668.132l-.142.06.096.115c1.007 1.185 1.227 3.217 1.799 4.746.665-.276 1.763-.458 3.005-.458 1.402 0 2.618.23 3.238.567.582-1.538.782-3.64 1.773-4.855l.089-.112-.14-.063z" fill="#DE7F36"/></svg>