<!-- by TradingView --><svg width="56" height="56" xmlns="http://www.w3.org/2000/svg"><path fill="#F0F3FA" d="M0 0h56v56H0z"/><path d="M44 23h3.341c.683 0 .659.667.659.667V29l-4-6z" fill="#E83434"/><path d="M48 29h3.345c.725 0 .653.777.653.68V35L48 29z" fill="#CBCBCC"/><path d="M43.432 31.573h.136c0 .048.04.946.8 1.301.1.047.448.126.68.126h4.712l-1.232-2h-3.472c-1.048 0-1.424-.653-1.56-1.073-.136.412-.52 1.073-1.56 1.073H4.128l1.256 2h36.752c.762-.063 1.296-.653 1.296-1.427z" fill="#E83434"/><path d="M41.936 35.997c1.24 0 1.496-1.22 1.496-1.542h.136c0 .84.644 1.542 1.488 1.542h6.064l-1.256-1.995c-1.672 0-3.345-.008-5.016-.008-.66-.071-1.166-.545-1.336-1.176-.128.461-.496 1.184-1.568 1.184H5.472l1.224 1.995h35.24z" fill="#CBCBCC"/><path d="M12.304 27h2.416v-1h-2.416v-1.757c0 .056-.048-.243.248-.243H15v-1h-3.544c-.96 0-1.104 1.027-1.104 1.39v4.488c0 .801.496 1.116 1.104 1.116H15V29h-2.44c-.208 0-.256-.187-.256-.268V27zM23.488 29.995L23.48 23h-1.688c-.392 0-.84.392-1.056.83-.096.2-1.368 2.975-1.368 2.975S18.008 24 17.912 23.83c-.176-.33-.472-.822-1.144-.822H15.24v6.987H16c1.072 0 1.256-.968 1.256-1.176l.008-3.19 2.104 4.459 2.104-4.474v3.205c0 .807.72 1.176 1.232 1.176.336-.007.784 0 .784 0zM32.416 28.824c0 1.03-1.016 1.176-1.224 1.176h-.648v-5.824c0-.53.208-1.176 1.016-1.176h.856v5.824s0-1.014 0 0zM38.032 29.992h1.752V23h-.864c-.128 0-1.24.077-1.24 1.176v3.189l-.024-.031s-1.344-2.39-2.112-3.68c-.264-.446-.664-.662-.944-.654-.16.008-1.6 0-1.6 0v6.992s.592.008.712.008C33.84 30 35 29.885 35 28.809v-3.25s1.032 1.96 1.8 3.288c.52.907.848 1.145 1.232 1.145zM48.152 30s-2.896-3.96-4.352-6.11c-.552-.817-1.008-.89-1.504-.89H40.2v7h.872c.96 0 1.224-.875 1.224-1.223v-.772h1.59s.724.934 1.108 1.435c.256.332.56.56.952.56h2.206zm-5.856-3v-1.615L43.283 27h-.987zM48 23h3.313c.588 0 .687.412.687.63V29l-4-6zM7.808 23.008L4 23.016V30h.872C5.392 30 6 29.64 6 28.815v-1.392s.176.008 1.816.008c1.608 0 2.168-1.456 2.168-2.11 0-.316-.04-.728-.264-1.133-.336-.614-.984-1.18-1.912-1.18zm.096 2.248c0 1.01-.944 1.213-1.152 1.213H6V24h.752c.416 0 1.152.213 1.152 1.256zM28.696 26.492s1.264-.469 1.264-1.677c0-1.369-1.824-1.815-2.312-1.815H24v7s3.496-.008 4.072-.008c.576 0 2.08-.584 2.08-1.869-.008-1.292-1.456-1.63-1.456-1.63zM26 24h.744c.504 0 1.088.3 1.088.946 0 .646-.768 1.054-1.072 1.054H26v-2zm.808 5H26v-2h.792c.424 0 1.16.346 1.16 1 0 .685-.816 1-1.144 1z" fill="#231C1C"/></svg>