<!-- by TradingView --><svg width="56" height="56" xmlns="http://www.w3.org/2000/svg"><path fill="#F0F3FA" d="M0 0h56v56H0z"/><path d="M10.679 34l1.466-8h8.517c1.41 0 2.82.488 2.257 2.688-.452 1.76-2.445 2.312-3.385 2.312H14.57l-.507 3H10.68z" fill="#1B5EA8"/><path d="M31.831 26h-9.138c2.166 2.076.188 4.136-1.072 4.944L21.114 34H29.8c2.595-.282 2.922-1.963 3.046-2.83.121-.846-.526-1.185-.902-1.354-.113-.056-.027-.383.113-.395.45-.037 1.579-.6 1.692-1.842.13-1.422-1.072-1.579-1.918-1.579z" fill="#1B5EA8"/><path d="M14.965 29l.282-1.5h4.492c.303 0 .641.113.698.395.09.722-.564 1.105-.846 1.105h-4.626zM24.836 32l.283-1.394h3.835c.207 0 .62.09.62.451 0 .632-.564.943-.846.943h-3.892zM25.4 29l.283-1.44h3.836c.206 0 .62.09.62.451 0 .632-.564.99-.846.99H25.4z" fill="#F0F3FA"/><path d="M32.733 29.703c2.2-1.184 1.617-3.139.96-3.703H42.5c.375 0 .95.319.782.94-.271.992-1.072 1.06-1.523 1.06h-4.964c-.226 0-.524.032-.677.338-.245.49.044.662.382.662h5.202c.395 0 .96.282.96.733C42.604 30.75 41.758 31 41.193 31h-5.471L35 34h-3.497c2.256-1.534 1.997-3.5 1.23-4.297z" fill="#1B5EA8"/><path d="M41.045 12.572c.091.031.178.063.262.094l-.262-.094c-4.115-1.408-15.119-2.124-24.557 5.791-12.24 10.266-8.01 21.548-3.44 24.876-3.216-2.144-7.164-6.318-5.754-13.99 1.717-9.338 12.184-15.389 16.584-16.752 1.977-.613 5.922-1.692 10.096-1.466 2.506 0 6.083 1.194 7.072 1.541zM14.751 44.274c4.116 1.408 15.12 2.124 24.558-5.791 12.24-10.266 8.01-21.547 3.44-24.875 3.216 2.143 7.164 6.317 5.754 13.988-1.717 9.34-12.184 15.39-16.584 16.753-1.977.613-5.922 1.692-10.096 1.467-2.506 0-6.083-1.194-7.072-1.542z" fill="#C72F41"/></svg>