<!-- by TradingView --><svg width="56" height="56" xmlns="http://www.w3.org/2000/svg"><path fill="#4C80B2" d="M0 0h56v56H0z"/><path d="M5.228 28.377c0 .157.016.273.047.347a.279.279 0 00.173.147c.089.03.229.044.42.044.013 0 .02.015.02.044 0 .03-.007.044-.02.044-.182 0-.766-.002-.868-.007-.089.005-.833.008-.984.008-.014 0-.02-.015-.02-.045s.006-.044.02-.044a.91.91 0 00.306-.037.21.21 0 00.133-.14 1.23 1.23 0 00.034-.331l-.003-3.774c0-.147-.01-.255-.033-.324a.21.21 0 00-.133-.14.8.8 0 00-.307-.044c-.013 0-.013-.03-.013-.06 0-.029 0-.065.013-.065H5.76c.453 0 .81.12 1.073.33.262.207.393.529.393.966 0 .305-.065.85-.207 1.062-.142.21-.326.37-.553.479a1.55 1.55 0 01-.686.162c-.12 0-.224-.013-.313-.037-.009 0-.013-.012-.013-.037 0-.015.002-.03.006-.044.01-.015.018-.02.027-.015.066.02.142.03.226.03.205 0 .373-.106.507-.317.137-.212.2-.799.2-1.187s-.076-.688-.227-.899c-.147-.211-.362-.317-.646-.317-.125 0-.21.032-.254.096-.044.064-.066.19-.066.376l.002 3.73zM9.39 26c.103 0 .2.053.294.137a.357.357 0 01.146.287c0 .103-.029.19-.087.258a.291.291 0 01-.226.096.295.295 0 01-.167-.045.647.647 0 01-.126-.132.485.485 0 00-.107-.103.142.142 0 00-.1-.037.254.254 0 00-.146.059c-.05.034-.127.11-.234.228l-.004 1.659c0 .196.043.331.127.405.084.069.24.103.466.103.018 0 .027.015.027.044 0 .03-.009.044-.027.044-.155 0-.366-.007-.366-.007l-1.206.008c-.013 0-.02-.015-.02-.045s.007-.044.02-.044c.138 0 .231-.034.28-.103.049-.074.066-.209.066-.405v-1.46c0-.152-.007-.263-.042-.331-.031-.074-.082-.111-.153-.111-.076 0-.183.034-.32.103H7.47c-.013 0-.024-.012-.033-.037-.004-.024-.002-.039.007-.044L8.418 26c-.005 0 .026-.01 0 0 .048 0 .093.063.133.166.044.098.07.233.08.405.182-.206.33-.35.446-.434.12-.084.225-.137.313-.137zM12.43 28.443c.009 0 .018.01.027.03.013.02.015.034.006.044-.164.177-.33.304-.5.383a1.294 1.294 0 01-.552.118c-.28 0-.522-.064-.727-.192a1.3 1.3 0 01-.466-.523 1.69 1.69 0 01-.16-.726 1.6 1.6 0 01.2-.789 1.47 1.47 0 01.546-.574c.231-.143.489-.214.773-.214.275 0 .486.066.633.199.147.128.207.353.207.579 0 .142-.025.222-.074.222H10.737c-.013.093-.006.154-.006.267 0 .423.089.776.266 1.021.183.246.431.369.747.369.11 0 .226-.017.346-.052.12-.034.229-.086.327-.155l.013-.007zm-1.1-2.296a.439.439 0 00-.346.177c-.098.118-.182.328-.226.535l.946-.022c-.014-.428-.13-.69-.373-.69zM13.416 26.439c0 .142.044.265.133.368.093.103.227.211.4.324.169.108.293.194.373.258a.808.808 0 01.326.656c0 .167-.037.324-.113.472a.907.907 0 01-.34.36c-.15.09-.33.123-.54.123-.244 0-.475-.056-.692-.189a.133.133 0 01-.04-.088l-.014-.73c0-.014.011-.022.034-.022.026-.005.042-.002.046.008.071.245.19.454.353.626.165.172.331.258.5.258a.27.27 0 00.22-.096c.058-.064.087-.157.087-.28 0-.182-.047-.324-.14-.427a1.798 1.798 0 00-.413-.332 4.767 4.767 0 01-.354-.228.787.787 0 01-.306-.649c0-.29.093-.5.28-.633a1.13 1.13 0 01.686-.218c.102 0 .193.019.273.033.085.015.178.045.28.089.04.015.06.042.06.08 0 .124-.002.22-.007.288l-.006.369c0 .014-.014.022-.04.022-.027 0-.04-.008-.04-.022a.559.559 0 00-.107-.302.972.972 0 00-.28-.288.591.591 0 00-.346-.118c-.182 0-.273.096-.273.288zM17.033 28.413c.018 0 .031.01.04.03.013.02.013.034 0 .044a2.002 2.002 0 01-.48.405A1.01 1.01 0 0116.1 29c-.195 0-.362-.034-.5-.137-.137-.103-.206-.277-.206-.523v-1.636c0-.152-.024-.258-.073-.317-.05-.059-.138-.088-.267-.088-.004 0-.01-.008-.02-.022a.151.151 0 010-.089c.005-.015.011-.022.02-.022.227-.01.409-.064.547-.162a.916.916 0 00.326-.45c.009-.02.027-.029.053-.029.032 0-.007.01.02.03v.589c.258-.005.872.022.872.022v.184s-.601.005-.872 0v1.747c0 .186.07.324.154.412a.47.47 0 00.346.133c.178 0 .351-.074.52-.221l.013-.008zM18.012 25.282a.384.384 0 01-.3-.118.477.477 0 01-.106-.332c0-.127.035-.228.106-.302a.397.397 0 01.3-.118c.125 0 .22.037.287.11.066.075.1.178.1.31a.498.498 0 01-.1.332c-.067.078-.162.118-.287.118zM17.365 29c-.013 0-.02-.015-.02-.044 0-.03.007-.044.02-.044.138 0 .23-.035.28-.104.049-.073.073-.208.073-.405l.008-1.39c0-.167-.016-.287-.047-.36-.031-.074-.082-.111-.153-.111a.609.609 0 00-.247.08h-.006c-.018 0-.032-.011-.04-.036-.01-.03-.007-.047.006-.051L18.265 26c.023 0 .045.024.067.048.022.025.033.047.033.067v.162a16.38 16.38 0 00-.013.722l-.008 1.404c0 .197.025.332.074.405.053.07.149.104.286.104.014 0 .02.014.02.044s-.006.044-.02.044c-.115 0-.206.005-.273 0H17.638c-.067.005-.158 0-.273 0zM21.555 25.997c.004-.005.01-.008.02-.008.009 0 .018.005.026.015.014.005.02.012.02.022v3.42c0 .46-.124.834-.373 1.12-.248.289-.597.434-1.046.434-.293 0-.533-.05-.72-.147-.186-.094-.28-.231-.28-.413 0-.128.034-.224.1-.288a.35.35 0 01.24-.088c.125 0 .216.032.274.096.062.064.122.16.18.287.057.133.117.231.18.295.066.069.168.103.306.103.155 0 .28-.088.373-.265.093-.177.14-.496.14-.958v-1.076a2.32 2.32 0 01-.44.354.929.929 0 01-.48.125.93.93 0 01-.506-.147 1.053 1.053 0 01-.36-.45 1.709 1.709 0 01-.133-.707c0-.349.073-.654.22-.914.147-.265.34-.467.58-.604.24-.138.497-.206.773-.206.24 0 .455.063.646.191a.833.833 0 00.26-.191zm-1.14 2.638c.178 0 .371-.079.58-.236v-1.592a.734.734 0 00-.146-.471.445.445 0 00-.374-.185c-.222 0-.397.123-.526.369-.124.245-.187.562-.187.95 0 .369.056.656.167.863.116.2.278.302.486.302zM24.571 28.443c.01 0 .018.01.027.03.013.02.016.034.007.044-.165.177-.331.304-.5.383-.169.079-.353.1-.553.1-.28 0-.522-.046-.726-.174a1.3 1.3 0 01-.467-.523 1.608 1.608 0 01-.16-.707 1.6 1.6 0 01.2-.789 1.47 1.47 0 01.547-.575c.23-.142.488-.232.772-.232.276 0 .487.085.634.218.146.127.22.338.22.564 0 .143-.025.214-.074.214h-.406l-1.2.004c-.013.093-.02.173-.02.286 0 .423.09.757.267 1.002.182.246.43.369.746.369.111 0 .227-.017.347-.052.12-.034.228-.086.326-.155l.013-.007zm-1.099-2.277a.439.439 0 00-.347.177c-.097.118-.168.314-.213.52l.947-.022c-.014-.427-.143-.675-.387-.675zM27.563 24.001c.195 0 .4.02.613.06.213.034.38.08.5.14.04.014.064.034.073.058.013.02.024.057.033.11l.08 1.025c0 .015-.011.025-.033.03-.023.005-.036-.003-.04-.023-.151-.388-.353-.687-.607-.898a1.332 1.332 0 00-.88-.317c-.439 0-.779.179-1.018.538-.24.358-.36.816-.36 1.42 0 .452.078 1.13.206 1.503.134.373.318.67.553.892.24.216.511.324.813.324.284 0 .538-.103.76-.31.226-.21.428-.53.606-.957.005-.02.018-.027.04-.023.027.005.04.015.04.03l-.1 1.002a.321.321 0 01-.033.118c-.01.015-.034.032-.074.052a3.167 3.167 0 01-1.219.225c-.542 0-.995-.1-1.36-.336a2.229 2.229 0 01-.805-.906c-.17-.369-.267-1.017-.267-1.415 0-.467.114-.856.34-1.214a2.37 2.37 0 01.913-.833c.382-.196.79-.295 1.226-.295zM30.807 29c-.275 0-.517-.044-.726-.181a1.41 1.41 0 01-.473-.568 1.843 1.843 0 01-.167-.78c0-.32.074-.59.22-.811.147-.226.333-.393.56-.501.226-.113.46-.159.7-.159.275 0 .515.06.72.203.203.142.359.332.465.567.111.231.167.48.167.745 0 .294-.067.557-.2.788a1.435 1.435 0 01-.54.53c-.222.128-.464.167-.726.167zm.2-.13c.173 0 .304-.093.393-.28.094-.191.14-.464.14-.818 0-.343-.04-.638-.12-.884-.08-.245-.184-.43-.313-.553a.582.582 0 00-.413-.191c-.355 0-.533.351-.533 1.054 0 .329.038.621.113.877.076.25.178.447.307.59.128.137.27.205.426.205zM35.887 28.912c.013 0 .02.014.02.044s-.007.044-.02.044c-.115 0-.606.005-.673 0-.07.005-.55 0-.666 0-.014 0-.02-.015-.02-.044 0-.03.007-.044.02-.044.137 0 .23-.035.28-.104.048-.073.073-.208.073-.405l-.008-1.132c0-.265-.044-.461-.133-.59-.084-.127-.22-.19-.406-.19a.848.848 0 00-.334.073.971.971 0 00-.293.199l.008 1.64c0 .197.024.332.073.405.054.07.15.104.287.104.013 0 .02.014.02.044s-.007.044-.02.044c-.116 0-.207.005-.273 0h-.793c-.067.005-.158 0-.274 0-.013 0-.02-.015-.02-.044 0-.03.007-.044.02-.044.138 0 .231-.035.28-.104.05-.073.074-.208.074-.405l-.008-1.456c0-.152-.018-.263-.053-.331-.031-.074-.083-.111-.154-.111-.075 0-.182.034-.32.103h-.013c-.013 0-.024-.012-.033-.037-.005-.024-.002-.039.007-.044l.926-.501a.258.258 0 01.046-.015c.05 0 .096.054.14.162.045.104.071.246.08.428.307-.403.644-.604 1.013-.604.24 0 .429.085.566.258.143.167.214.388.214.663l.007 1.485c0 .197.025.332.074.405.053.07.148.104.286.104zM36.781 26.439c0 .142.045.265.134.368.093.103.226.211.4.324.168.108.293.194.373.258a.806.806 0 01.326.656c0 .167-.038.324-.113.472a.908.908 0 01-.34.36c-.151.09-.331.123-.54.123-.244 0-.475-.056-.693-.189a.133.133 0 01-.04-.088l-.013-.73c0-.014.011-.022.033-.022.027-.005.042-.002.047.008.071.245.189.454.353.626.164.172.331.258.5.258a.27.27 0 00.22-.096c.057-.064.086-.157.086-.28 0-.182-.046-.324-.14-.427a1.798 1.798 0 00-.413-.332 4.761 4.761 0 01-.353-.228.787.787 0 01-.306-.649c0-.29.093-.5.28-.633.186-.138.415-.218.686-.218.102 0 .193.019.273.033.084.015.178.045.28.089.04.015.06.042.06.08 0 .124-.002.22-.007.288l-.007.369c0 .014-.013.022-.04.022-.026 0-.04-.008-.04-.022a.558.558 0 00-.106-.302.971.971 0 00-.28-.288.592.592 0 00-.347-.118c-.182 0-.273.096-.273.288zM41.565 28.45c.013 0 .024.013.033.037.013.025.013.04 0 .044l-.953.469c.013 0-.009.005 0 0-.044 0-.084-.02-.12-.122a1.784 1.784 0 01-.053-.435c-.293.383-.61.557-.953.557-.244 0-.437-.066-.58-.233-.137-.172-.206-.395-.206-.67v-1.084c0-.319-.069-.479-.207-.479a.353.353 0 00-.166.052h-.007c-.018 0-.03-.012-.04-.037-.009-.03-.007-.046.007-.051l.926-.498c.022 0 .044.031.067.055.026.02.04.04.04.06v1.628c0 .53.184.796.553.796a.706.706 0 00.293-.067.941.941 0 00.273-.199v-1.26c0-.319-.069-.479-.207-.479a.39.39 0 00-.173.052h-.006c-.014 0-.025-.012-.034-.037-.009-.03-.006-.046.007-.051l.926-.498c-.013 0 .009-.005 0 0 .022 0 .044.031.067.055.026.02.04.04.04.06v1.96c0 .167.013.285.04.353.03.069.08.103.146.103a.746.746 0 00.273-.08h.014zM46.65 28.912c.017 0 .026.014.026.044s-.009.044-.026.044c-.116 0-.607.005-.673 0-.071.005-.551 0-.667 0-.013 0-.02-.015-.02-.044 0-.03.007-.044.02-.044.138 0 .231-.035.28-.104.053-.073.08-.208.08-.405l.011-1.132c0-.265-.042-.461-.126-.59-.08-.127-.204-.19-.373-.19a.77.77 0 00-.34.08.883.883 0 00-.286.221l-.012 1.611c0 .197.025.332.073.405.054.07.15.104.287.104.018 0 .026.014.026.044s-.008.044-.026.044c-.116 0-.207.005-.273 0h-.787c-.07.005-.164 0-.28 0-.013 0-.02-.015-.02-.044 0-.03.007-.044.02-.044.138 0 .232-.035.28-.104.054-.073.08-.208.08-.405l.012-1.132c0-.265-.042-.461-.127-.59-.08-.127-.204-.19-.373-.19a.758.758 0 00-.32.073.833.833 0 00-.273.192l-.011 1.647c0 .197.024.332.073.405.053.07.149.104.286.104.014 0 .02.014.02.044s-.006.044-.02.044c-.115 0-.206.005-.273 0h-.792c-.067.005-.158 0-.274 0-.013 0-.02-.015-.02-.044 0-.03.007-.044.02-.044.138 0 .231-.035.28-.104.049-.073.073-.208.073-.405l.012-1.456c0-.152-.018-.263-.053-.331-.032-.074-.083-.111-.154-.111-.075 0-.182.034-.32.103h-.013c-.013 0-.024-.012-.033-.037-.005-.024-.002-.039.007-.044l.972-.527c-.004 0 .027-.01 0 0 .05 0 .096.065.14.173.045.104.071.244.08.42.302-.398.626-.596.973-.596.209 0 .375.056.5.17.124.112.2.274.226.485.307-.437.646-.655 1.02-.655.24 0 .422.076.546.228.129.152.193.383.193.693l-.011 1.485c0 .197.024.332.073.405.053.07.149.104.287.104zM49.368 28.443c.01 0 .018.01.027.03.013.02.016.034.007.044-.165.177-.331.304-.5.383-.169.079-.353.1-.553.1-.28 0-.522-.046-.726-.174a1.3 1.3 0 01-.467-.523 1.608 1.608 0 01-.16-.707 1.6 1.6 0 01.2-.789 1.47 1.47 0 01.547-.575c.23-.142.488-.232.773-.232.275 0 .486.085.633.218.146.127.22.334.22.56 0 .142-.025.222-.074.222H47.69c-.013.093-.02.173-.02.286 0 .423.09.757.267 1.002.182.246.43.369.746.369.111 0 .227-.017.347-.052.12-.034.228-.086.326-.155l.013-.007zm-1.099-2.277a.438.438 0 00-.346.177c-.098.118-.17.31-.214.516l.947-.022c-.014-.428-.143-.67-.387-.67zM51.56 26c.102 0 .2.053.293.137a.357.357 0 01.147.287c0 .103-.029.19-.087.258a.291.291 0 01-.226.096.295.295 0 01-.167-.045.646.646 0 01-.126-.132.485.485 0 00-.107-.103.142.142 0 00-.1-.037.254.254 0 00-.146.059c-.05.034-.127.11-.234.228l.017 1.655c0 .197.042.332.126.405.085.07.24.104.467.104.017 0 .026.014.026.044s-.008.044-.026.044c-.156 0-.278.005-.367 0h-.932c-.067.005-.158 0-.274 0-.013 0-.02-.015-.02-.044 0-.03.007-.044.02-.044.138 0 .231-.035.28-.104.049-.073.073-.208.073-.405l-.016-1.456c0-.152-.018-.263-.053-.331-.031-.074-.082-.111-.154-.111-.075 0-.182.034-.32.103h-.013c-.013 0-.024-.012-.033-.037-.004-.024-.002-.039.007-.044l.972-.527c-.004 0 .027-.01 0 0 .05 0 .094.063.134.166.044.098.07.233.08.405.182-.206.33-.35.446-.434.12-.084.224-.137.313-.137zM11.348 34.958c.01 0 .014.009.014.027 0 .018-.005.015-.014.015-.111 0-.566.006-.633.003-.057.003-.563-.003-.66-.003-.01 0-.015.003-.015-.015s.005-.027.014-.027c.117 0 .203-.008.257-.023.054-.015.09-.044.11-.086a.528.528 0 00.028-.202v-1.102H8.913v1.102c0 .09.01.157.029.203.019.041.055.07.109.085s.14.023.257.023c.006 0 .01.009.01.027 0 .018-.004.015-.01.015-.111 0-.97.003-1.037 0-.063.003-.15.003-.261.003-.007 0-.01 0-.01-.018s.003-.027.01-.027c.11 0 .191-.008.242-.023a.156.156 0 00.105-.086.548.548 0 00.028-.202l-.002-2.287a.51.51 0 00-.028-.198.156.156 0 00-.105-.085.715.715 0 00-.233-.028c-.01 0-.014-.009-.014-.027 0-.018.004-.022.014-.022h.257c.146.006.263 0 .352 0 .12 0 .26.006.418 0h.262s.01.004.01.022-.004.027-.01.027a.856.856 0 00-.252.028.186.186 0 00-.115.094.51.51 0 00-.028.198l.002 1.05h1.536l-.002-1.05c0-.09-.01-.156-.029-.198a.169.169 0 00-.11-.094.878.878 0 00-.256-.028c-.01 0-.014-.009-.014-.027 0-.018.005-.022.014-.022h.233c.159.006.301 0 .428 0 .086 0 .208.006.366 0h.266c.01 0 .015.004.015.022s-.005.027-.014.027a.812.812 0 00-.243.028.156.156 0 00-.105.085.606.606 0 00-.023.198l.002 2.287c0 .09.008.157.024.203.019.041.053.07.104.085.05.015.132.023.243.023zM14.855 34.284c0-.006.007-.01.02-.01.009 0 .017.004.023.01.01.003.014.006.014.009a4.804 4.804 0 00-.047.64c0 .023-.005.041-.014.053-.01.01-.029.014-.058.014h-2.101c-.01 0-.014-.01-.014-.027 0-.018.004-.027.014-.027a.753.753 0 00.219-.023.14.14 0 00.095-.085.65.65 0 00.023-.203v-2.27a.606.606 0 00-.023-.198.14.14 0 00-.095-.086.66.66 0 00-.22-.027c-.009 0-.014-.01-.014-.027 0-.018.005-.027.015-.027h2.016c.032 0 .047.013.047.04l.01.6c0 .005-.01.01-.029.013-.015.003-.025 0-.028-.009a.685.685 0 00-.257-.387.815.815 0 00-.475-.127h-.143c-.095 0-.165.02-.21.06-.044.038-.066.098-.066.18v1.049h.395c.184 0 .325-.03.423-.09a.281.281 0 00.148-.253c0-.009.007-.013.023-.013.02 0 .029.004.029.013l-.005.406.005.216c.006.102.01.183.01.243 0 .006-.01.01-.03.01-.018 0-.028-.004-.028-.01a.33.33 0 00-.152-.288c-.098-.072-.24-.108-.428-.108h-.39v1.072c0 .087.018.152.053.194.034.042.09.063.166.063h.157c.247 0 .445-.048.594-.144a.832.832 0 00.328-.446zM19.524 34.946c.016 0 .024.009.024.027 0 .018-.008.027-.023.027h-.295-.847c-.012 0-.019-.01-.019-.027 0-.018.007-.027.02-.027a.487.487 0 00.175-.023.093.093 0 00.057-.09c0-.05-.031-.136-.095-.257l-.494-.923h-.847l-.337.707a.573.573 0 00-.062.243c0 .109.04.193.119.253.082.06.192.09.328.09.016 0 .024.009.024.027 0 .018-.008.027-.024.027h-.873-.259c-.013 0-.019-.01-.019-.027 0-.018.006-.027.02-.027a.46.46 0 00.223-.05.625.625 0 00.18-.184c.06-.09.132-.223.214-.397l1.036-2.302c.006-.009.02-.013.043-.013.025 0 .04.004.043.013l1.184 2.37c.111.213.203.36.276.441.073.081.15.122.229.122zm-2.282-1.42h.718l-.376-.765-.342.766zM21.534 34.617c0 .078.007.135.02.171a.11.11 0 00.07.068.655.655 0 00.181.018h.162c.247 0 .461-.062.642-.185a.902.902 0 00.361-.509c0-.006.007-.009.02-.009.006 0 .012.003.018.009.01.003.015.006.015.01a8.039 8.039 0 00-.043.742c0 .024-.006.042-.02.054-.009.01-.026.014-.052.014h-2.244c-.006 0-.01-.01-.01-.027 0-.018.004-.027.01-.027a.753.753 0 00.219-.023.14.14 0 00.095-.085.548.548 0 00.028-.203v-2.27c0-.09-.01-.156-.028-.198a.14.14 0 00-.095-.086.659.659 0 00-.219-.027c-.006 0-.01-.01-.01-.027 0-.018.004-.027.01-.027l.243.004.361-.004.361.004.243-.004c.01 0 .014.009.014.027 0 .018-.005.027-.014.027a.66.66 0 00-.219.027.14.14 0 00-.095.09.606.606 0 00-.024.198v2.248zM25.055 32.234c-.377 0-.648.233-.813.698-.003.01-.012.014-.028.014-.016-.003-.024-.01-.024-.018.013-.12.027-.275.043-.464.016-.192.023-.337.023-.433 0-.015.008-.022.024-.022.02 0 .029.007.029.022 0 .066.09.1.27.1a29.428 29.428 0 001.551.004l.323-.005c.12 0 .208-.007.262-.022.057-.015.093-.045.11-.09.002-.012.012-.018.028-.018.019 0 .028.006.028.018a10.468 10.468 0 00-.048.91c0 .009-.007.013-.023.013s-.025-.004-.029-.013c-.047-.231-.136-.404-.266-.518a.691.691 0 00-.48-.176c-.092 0-.154.02-.186.059-.028.036-.042.106-.042.211l-.003 2.131c0 .093.01.16.028.203.02.042.056.07.11.085s.14.023.256.023c.01 0 .015.009.015.027 0 .018-.005.027-.015.027a6.35 6.35 0 01-.27-.005h-.78s-.159.005-.276.005c-.01 0-.014-.01-.014-.027 0-.018.004-.027.014-.027.114 0 .198-.008.252-.023.057-.015.095-.043.114-.085a.476.476 0 00.033-.203l.003-2.14c0-.102-.014-.17-.043-.207-.028-.036-.087-.054-.176-.054zM31.535 34.946c.01 0 .014.009.014.027 0 .018-.005.027-.014.027-.111 0-.2-.002-.267-.005l-.366.005-.428-.005a4.69 4.69 0 01-.233.005c-.01 0-.014-.01-.014-.027 0-.018.005-.027.014-.027.117 0 .203-.008.257-.023.054-.015.09-.043.11-.085a.527.527 0 00.028-.203v-1.09H29.1v1.09c0 .09.01.158.028.203.02.042.056.07.11.085s.14.023.257.023c.006 0 .01.009.01.027 0 .018-.004.027-.01.027-.111 0-.2-.002-.267-.005l-.413.005-.357-.005c-.063.003-.15.005-.261.005-.007 0-.01-.01-.01-.027 0-.018.003-.027.01-.027.11 0 .191-.008.242-.023a.156.156 0 00.105-.085.548.548 0 00.028-.203v-2.27c0-.09-.01-.156-.028-.199a.156.156 0 00-.105-.085.719.719 0 00-.233-.027c-.01 0-.014-.01-.014-.027 0-.018.005-.027.014-.027l.257.004L29.495 32c.006 0 .01.009.01.027 0 .018-.004.027-.01.027a.86.86 0 00-.252.027.186.186 0 00-.114.094.51.51 0 00-.03.199v1.045h1.537v-1.045c0-.09-.01-.156-.029-.199a.17.17 0 00-.11-.094.882.882 0 00-.256-.027c-.01 0-.014-.01-.014-.027 0-.018.005-.027.014-.027l1.027.004.267-.004c.01 0 .014.009.014.027 0 .018-.005.027-.014.027a.816.816 0 00-.243.027.157.157 0 00-.105.085.607.607 0 00-.023.199v2.27c0 .09.008.158.023.203.02.042.054.07.105.085.05.015.132.023.243.023zM34.676 32.004c.14 0 .285.012.438.036.152.021.27.05.356.086.029.009.046.021.053.036.009.012.017.035.023.068l.057.626c0 .009-.008.015-.023.018-.016.003-.026-.002-.029-.014a1.335 1.335 0 00-.433-.55c-.18-.129-.39-.193-.627-.193-.314 0-.557.11-.728.329-.171.219-.257.513-.257.883 0 .276.056.605.148.833.095.228.226.41.394.545a.925.925 0 00.58.198.847.847 0 00.543-.189c.161-.129.306-.324.432-.586.003-.012.013-.016.029-.013.019.003.028.009.028.018l-.07.613a.176.176 0 01-.025.072c-.006.009-.023.02-.052.031-.282.1-.572.149-.87.149-.387 0-.71-.072-.97-.216a1.456 1.456 0 01-.576-.554 1.791 1.791 0 01-.19-.78c0-.285.081-.537.243-.756.165-.22.382-.39.651-.51.273-.12.564-.18.875-.18zM40.276 34.946c.015 0 .023.009.023.027 0 .018-.008.027-.023.027h-.885-.256c-.013 0-.02-.01-.02-.027 0-.018.007-.027.02-.027a.487.487 0 00.175-.023.093.093 0 00.057-.09c0-.05-.031-.136-.095-.257l-.494-.923h-.847l-.337.707a.573.573 0 00-.062.243c0 .109.04.193.119.253.082.06.192.09.328.09.016 0 .024.009.024.027 0 .018-.008.027-.024.027h-.87-.262c-.012 0-.019-.01-.019-.027 0-.018.007-.027.02-.027a.46.46 0 00.223-.05.623.623 0 00.18-.184c.06-.09.132-.223.214-.397l1.025-2.297c.007-.01.021-.014.043-.014.026 0 .04.005.043.014l1.196 2.365c.11.213.203.36.275.441.073.081.15.122.229.122zm-2.283-1.42h.718l-.383-.765-.335.766zM44.651 34.946c.007 0 .01.009.01.027 0 .018-.003.027-.01.027h-.846c-.07 0-.2-.123-.39-.37-.19-.249-.44-.65-.709-1.094a5.127 5.127 0 01-.37 0l.019 1.099c0 .093.007.16.023.203.016.042.046.07.09.085a.807.807 0 00.224.023c.007 0 .01.009.01.027 0 .018-.003.027-.01.027-.105 0-.187-.002-.247-.005h-.709a5.724 5.724 0 01-.256.005c-.01 0-.015-.01-.015-.027 0-.018.005-.027.015-.027a.753.753 0 00.218-.023.14.14 0 00.095-.085.548.548 0 00.029-.203l-.01-2.239a.606.606 0 00-.023-.198.14.14 0 00-.095-.086.66.66 0 00-.22-.026c-.005 0 0-.068 0-.086h.871c.057-.003.285 0 .361 0 .292 0 .522.069.68.171.162.1.243.239.243.419 0 .138-.054.37-.143.495a1.01 1.01 0 01-.347.307c.254.378.485.728.656.941.175.213.328.37.462.469a.689.689 0 00.394.144zm-2.316-1.54c.077.011.169.017.276.017a.615.615 0 00.271-.05.287.287 0 00.143-.17c.032-.082.057-.295.057-.442 0-.246-.038-.416-.114-.509-.076-.093-.186-.14-.328-.14-.108 0-.184.023-.228.068-.045.045-.067.12-.067.225l-.01 1zM47.943 34.284c0-.006.006-.01.019-.01.01 0 .017.004.024.01.01.003.014.006.014.009a4.804 4.804 0 00-.048.64c0 .023-.004.041-.014.053-.01.01-.028.014-.057.014H45.78c-.01 0-.014-.01-.014-.027 0-.018.005-.027.014-.027a.753.753 0 00.22-.023.14.14 0 00.094-.085.647.647 0 00.024-.203v-2.27a.603.603 0 00-.024-.198.14.14 0 00-.095-.086.656.656 0 00-.219-.027c-.01 0-.014-.01-.014-.027 0-.018.005-.027.014-.027h2.016c.032 0 .048.013.048.04l.01.6c0 .005-.01.01-.029.013-.016.003-.025 0-.029-.009a.686.686 0 00-.256-.387.815.815 0 00-.476-.127h-.142c-.096 0-.165.02-.21.06-.044.038-.066.098-.066.18v1.049h.394c.184 0 .325-.03.424-.09a.281.281 0 00.147-.253c0-.009.008-.013.024-.013.019 0 .028.004.028.013l-.004.406.004.216c.007.102.01.183.01.243 0 .006-.01.01-.029.01-.019 0-.028-.004-.028-.01a.33.33 0 00-.152-.288c-.099-.072-.241-.108-.428-.108h-.39v1.072c0 .087.017.152.052.194.035.042.09.063.166.063h.157c.248 0 .446-.048.595-.144a.832.832 0 00.328-.446z" fill="#fff"/><path d="M8 26c7.232-3.673 25.758-9.47 42-3.271-7.469-1.614-26.325-3.22-42 3.271z" fill="#fff"/></svg>