<!-- by TradingView --><svg width="56" height="56" xmlns="http://www.w3.org/2000/svg"><path fill="#355FB0" d="M0 0h56v56H0z"/><path d="M28 12a16 16 0 100 32 16 16 0 000-32zm0 31.147a15.147 15.147 0 110-30.294 15.147 15.147 0 010 30.294zm-5.31-27.26h-.177A13.286 13.286 0 1028 14.702h-.367c-.273 0-.427.19-.427.498s.154.498.415.498h.332a12.243 12.243 0 11-5.061 1.09c.237-.107.296-.344.178-.628a.497.497 0 00-.38-.273zm-.154 3.224a.45.45 0 00-.284.095 10.478 10.478 0 000 17.517.45.45 0 00.284.095.594.594 0 00.498-.32.546.546 0 00-.071-.806 9.232 9.232 0 010-15.408.545.545 0 00.237-.355.746.746 0 00-.142-.462.616.616 0 00-.522-.356zm5.239 18.086c-.296 0-.522.201-.522.628s.202.616.522.616H28a10.477 10.477 0 000-20.954h-.225c-.32 0-.522.25-.522.629s.202.628.522.628H28a9.232 9.232 0 110 18.465l-.225-.012zM21.849 23.52a.676.676 0 011.007-.071.664.664 0 01.214.984 6.175 6.175 0 000 7.11.664.664 0 01-.214.984.675.675 0 01-1.007-.07 7.68 7.68 0 010-8.937z" fill="url(#paint0_linear)"/><path d="M27.735 32.224c-.484 0-.768-.352-.768-.886 0-.535.284-.876.768-.876C29.028 30.42 30.046 29.32 30 28c-.07-2.015-2.458-2.725-4-1.597v10.813c0 .523-.468.784-1 .784s-.976-.261-.976-.785V25.596a1.35 1.35 0 01.28-.496c.128-.145.287-.263.465-.345a6.479 6.479 0 012.955-.773C30.06 23.863 32 25.634 32 28c0 2.393-1.962 4.319-4.276 4.202l.011.022zm0 3.207c-.484 0-.768-.353-.768-.887 0-.535.284-1.059.768-1.059 3.054 0 5.265-2.147 5.265-5.36 0-4.037-3.842-6.53-7.486-5.2a2.326 2.326 0 01-.71.181.843.843 0 01-.581-.246.782.782 0 01-.222-.572V15.75c0-.466.432-.75.999-.75s1 .284 1 .75v5.298c.613-.153 1.066-.23 1.7-.227a7.738 7.738 0 015.18 2.238A7.166 7.166 0 0135 28.126c0 1.889-.76 3.704-2.12 5.066a7.738 7.738 0 01-5.18 2.239h.035z" fill="#fff"/><defs><linearGradient id="paint0_linear" x1="16.693" y1="16.681" x2="39.461" y2="39.449" gradientUnits="userSpaceOnUse"><stop stop-color="#fff"/><stop offset=".12" stop-color="#fff" stop-opacity=".79"/><stop offset=".24" stop-color="#fff" stop-opacity=".62"/><stop offset=".35" stop-color="#fff" stop-opacity=".5"/><stop offset=".44" stop-color="#fff" stop-opacity=".43"/><stop offset=".5" stop-color="#fff" stop-opacity=".4"/><stop offset=".56" stop-color="#fff" stop-opacity=".43"/><stop offset=".66" stop-color="#fff" stop-opacity=".51"/><stop offset=".77" stop-color="#fff" stop-opacity=".65"/><stop offset=".9" stop-color="#fff" stop-opacity=".84"/><stop offset="1" stop-color="#fff"/></linearGradient></defs></svg>