<!-- by TradingView --><svg width="56" height="56" xmlns="http://www.w3.org/2000/svg"><path fill="#0089C4" d="M0 0h56v56H0z"/><path d="M24.674 40H36V8L24.674 40z" fill="#fff"/><path fill-rule="evenodd" d="M29.85 32.968c-.714-1.303-.91-2.47-.566-3.502.458-1.23 1.57-1.466 2.606-1.466 1.518.063 2.05 1.038 2.11 2.633v.364h-2v-.5c0-.64-1.02-.708-1.02.136 0 1.425 2.02 4.018 2.02 4.018v-1.655h2v6.487c0 .393-.167.516-.577.516H31.35c-3.66.082-4.293-4.705-1.5-7.031zM33 37.991c-1.412 0-3.311.075-2.874-2.362.098-.49.27-.758.467-.978L33 37.991z" fill="#FDB813"/><path d="M18 27.685c0-2.317 1.13-3.688 4.314-3.685 2.198.003 3.686 1.032 3.686 3.08V29h-3v-1.24c0-.455-.255-.976-1-.976-.635 0-1 .405-1 .977v8.692c0 .575.399.933 1 .933s1-.271 1-.963V34h-1v-3h4v5.423L24.798 40H20.31C18.817 40 18 38.318 18 36.423v-8.738z" fill="#fff"/><path fill-rule="evenodd" d="M12 34v6H9V24h3.241c1.53 0 3.445.47 4.169 2.065C17.44 28.005 17.462 34 13.2 34H12zm0-7c.78-.15 1.93.13 2.14 1.062.21.932 0 1.755 0 1.755C13.997 30.935 12.9 31 12 31v-4zM40 33h4v-3h-4v-3h4v-3h-7v16h7v-3h-4v-4z" fill="#fff"/></svg>