<!-- by TradingView --><svg width="56" height="56" xmlns="http://www.w3.org/2000/svg"><path fill="#A9431E" d="M0 0h56v56H0z"/><path d="M28 44c-3.644 0-5.961-3.223-6-6.351.017-5.269 4.044-10.305 6-15.649 1.615 5.306 5.476 10.203 6 15.649C34 40.955 31.644 44 28 44z" fill="#000"/><path d="M14.345 19.595C18.235 13.453 24.422 12.038 27 12l-5.536 13.593c-.781 1.9-2.182 4.91-2.438 9.663-.256 4.752 2.889 7.81 4.493 8.744-6.871-2.822-9.174-6.819-10.112-8.744-1.328-2.728-2.629-10.03.938-15.662zM41.655 19.595C37.494 13.273 31.578 12.038 29 12l5.536 13.593c.781 1.9 2.182 4.91 2.438 9.663.256 4.752-2.889 7.81-4.493 8.744 6.87-2.822 9.174-6.819 10.111-8.744 1.328-2.728 2.728-10.094-.937-15.662z" fill="#fff"/></svg>