<!-- by TradingView --><svg xmlns="http://www.w3.org/2000/svg" width="56" height="56"><path fill="url(#a5hr1j3lv)" d="M0 0h56v56H0z"/><path d="M27 7a1 1 0 012 0 1 1 0 11-2 0zm0 42a1 1 0 012 0 1 1 0 11-2 0zm1.01-40.27zM17 14.09a1 1 0 01-1 .91 1 1 0 111-.91zm-6.82 9.93a.98.98 0 00-1.16.77 1 1 0 00.76 1.18h.03l.03.01A.99.99 0 0011 25a1 1 0 00-.81-.98h-.01zm.95 13.48a1 1 0 01.39-1.37 1 1 0 11-.38 1.37zm11.21 6.56a1 1 0 10.02 0h-.01zm10.71 1.27a1 1 0 01.63-1.27h.02a.98.98 0 011.25.61 1 1 0 01-.62 1.26.98.98 0 01-1.28-.6zm11.46-9.2a1.03 1.03 0 00-1.39.4 1 1 0 00.36 1.34 1.02 1.02 0 001.52-.89 1 1 0 00-.5-.85v-.01zM45.83 24a1 1 0 11.34 1.98 1 1 0 01-.34-1.97zm-6.47-9.24c.18.15.4.23.64.23h.09a1 1 0 00.55-1.77 1 1 0 10-1.28 1.54zm-12.28-2.29a.93.93 0 011.86 0 .93.93 0 01-1.86 0zm-3.63 1.62a.93.93 0 10-.9-.66c.13.4.5.66.9.66zm-4.15 2a.92.92 0 01-.77-.4.93.93 0 11.77.4zm-3.97 2.93c.16.13.37.2.58.2h.1a.93.93 0 10-.68-.2zm-1.73 4.2a.94.94 0 01-.34-.07h-.01a.93.93 0 01.68-1.73h.01a.93.93 0 01-.34 1.8zm-1.1 4.49h.07a.93.93 0 00.07-1.86.93.93 0 10-.14 1.85zm.2 2.76a.93.93 0 11-.7 1.12c-.12-.5.2-1 .7-1.12zm1.42 4.4a.93.93 0 10.93 1.61.93.93 0 00-.93-1.61zm2.7 5.1a.93.93 0 111.27-1.37.93.93 0 01-1.28 1.37zm4.43 2.86a.93.93 0 10-.84-1.34.93.93 0 00.42 1.25h.01c.13.06.26.1.4.1v-.01zm3.85-.3c.2-.16.45-.22.7-.18a.93.93 0 01-.29 1.85.93.93 0 01-.4-1.68zm5.72 0a.93.93 0 10-1.11 1.5.93.93 0 001.11-1.5zm3.02-.19a.93.93 0 01.49-1.27.93.93 0 11.75 1.71.94.94 0 01-1.24-.44zm4.03-3.67a.93.93 0 101.32.05.93.93 0 00-1.32-.05zm2.73-3.31a.93.93 0 111.66.85.93.93 0 01-1.66-.85zm2.28-2.97l.21.02a.93.93 0 10-.9-1.14c-.12.5.19 1 .69 1.12zm.58-4.58a.93.93 0 11.07 0h-.07zm-1-4.5a.93.93 0 100-1.86.93.93 0 000 1.86zm-3.01-4.36a.93.93 0 111.45-1.16.93.93 0 01-1.45 1.16zm-3.17-2.97a.93.93 0 00.7.15.93.93 0 10-.7-.15zm-3.61-1.86a.94.94 0 01-.83-.5.93.93 0 01.4-1.26.93.93 0 01.86 1.66.92.92 0 01-.43.1zm-7.62 1.91a.89.89 0 00.67.14.9.9 0 10-.67-.14zm-1.57.8a.9.9 0 01-1.17-.48.9.9 0 111.17.49zm-3.3.86a.9.9 0 001.25.24.9.9 0 10-1.24-.24zm-.3 1.1a.9.9 0 11-1.79 0 .9.9 0 011.8 0zm-3.23 1.43a.9.9 0 00.25 1.24.9.9 0 00.67.14.9.9 0 10-.91-1.38zm-1.26 2.38a.9.9 0 111.65.68.9.9 0 01-1.65-.68zm-.08 3.6l.18.03a.9.9 0 10-.17-.01v-.01zm-.07.74a.9.9 0 110 1.79.9.9 0 010-1.79zM15 31.08a.89.89 0 00.67.13.9.9 0 00-.35-1.76.9.9 0 00-.33 1.63H15zm.89.83a.9.9 0 11-.5 1.17.9.9 0 01.5-1.17zm1.52 3.93a.9.9 0 10-.5-1.64.9.9 0 00.5 1.64zm.7 1.05a.9.9 0 111.79 0 .9.9 0 01-1.8 0zm2.83 2.48a.9.9 0 00.88-1.07.9.9 0 10-.88 1.07zm1.87-.54a.8.8 0 01.68 0h.01a.9.9 0 01.48 1.17.9.9 0 01-1.17.48.9.9 0 010-1.65zm2.56 2.42c.06.02.12.02.18.02a.9.9 0 00.88-.71.9.9 0 10-1.06.7zm4.43-1.36a.9.9 0 111.63.32.9.9 0 01-1.38.92.9.9 0 01-.25-1.24zm3.97-.58zm.89-1.58a.89.89 0 011.24.25c.13.2.18.43.13.67a.9.9 0 01-1.62.32.9.9 0 01.25-1.24zm3.06-1.48a.9.9 0 10-1.26 1.26.9.9 0 001.26-1.26zm.22-1.82a.9.9 0 110 .02v-.01zm2.75-1.36a.9.9 0 10-1.65-.68.9.9 0 001.65.68zm.4-2a.89.89 0 01-.67.14.9.9 0 11.67-.13zm-.25-4.12a.9.9 0 100 1.79.9.9 0 000-1.79zm-1-2.1a.9.9 0 011.62.32h.01a.9.9 0 01-1.37.91.9.9 0 01-.25-1.24zm.37-1.08a.9.9 0 10-.69-1.65.9.9 0 00.69 1.65zm-1.7-2.16a.9.9 0 01-.57-.38.9.9 0 01.74-1.4.9.9 0 11-.17 1.78zm-1.42-3.71a.9.9 0 100 1.78.9.9 0 000-1.78zm-1.94.2a.89.89 0 01-.5-.16h.01a.9.9 0 11.5.16zm-1.87-2.9a.9.9 0 10-.68 1.65.9.9 0 00.68-1.66zm-2.74.99l-.17-.02a.9.9 0 01-.33-1.62.9.9 0 11.5 1.64zm-2.5-2.04a.9.9 0 100 1.79.9.9 0 000-1.79zm.9 26.53a.9.9 0 11-1.79 0 .9.9 0 011.79 0zm-.9-23.85a.85.85 0 100 1.7.85.85 0 000-1.7zm-3.49 2.31a.85.85 0 110-1.69.85.85 0 010 1.7zm-3.62.28a.85.85 0 00.47 1.5h.08a.85.85 0 10-.54-1.5zm-.9 3.14a.85.85 0 11-1.66.44.85.85 0 011.65-.44zm-1.35 3.08a.85.85 0 10-1.4.97.85.85 0 001.4-.97zm-.84 3.2a.85.85 0 01.98.68.85.85 0 11-.98-.68zm1.58 3.35a.85.85 0 10-.44 1.63.85.85 0 00.44-1.63zm2.05 4.38a.85.85 0 01-.84-.77.85.85 0 11.91.77h-.07zm3.88 1.22a.84.84 0 00-.51-1.08.85.85 0 10.5 1.08zm6.99-.58a.85.85 0 01-.8 1.14.85.85 0 11.8-1.14zm2.27-.64zm2.28-2.71a.84.84 0 01-.84-.85.85.85 0 11.84.85zm1.37-5.02a.85.85 0 10-.3 1.67.85.85 0 00.3-1.67zm-.3-3.55a.85.85 0 11.3 1.67.85.85 0 01-.3-1.67zm-.64-1.76a.85.85 0 10-.85-1.47.85.85 0 00.85 1.47zm-2.71-2.61a.85.85 0 11.08 0h-.08zm-3.87-2.91a.85.85 0 001.16 1.06.85.85 0 10-1.16-1.06zm-1.85 20.12a.85.85 0 11-1.7 0 .85.85 0 011.7 0zm-.84-18.56a.78.78 0 100 1.55.78.78 0 000-1.55zM22.14 22a.78.78 0 011.1 1.1.78.78 0 01-1.1-1.1zm-1.66 6.67a.78.78 0 10-.78-.78c0 .43.35.78.78.78zm2.76 4a.78.78 0 11-1.1 1.11.78.78 0 011.1-1.1zm9.59 1.11a.78.78 0 100-1.1c-.3.3-.3.8 0 1.1zm2.76-6.67a.78.78 0 010 1.56.78.78 0 110-1.56zm-2.21-3.78a.78.78 0 100-1.56.78.78 0 000 1.56zM28.8 35.47a.78.78 0 11-1.55 0 .78.78 0 011.55 0zm-.77-11.74a.68.68 0 100-1.35.68.68 0 000 1.35zm.67 9.16a.68.68 0 11-1.35 0 .68.68 0 011.35 0z" fill="#A0D035"/><defs><linearGradient id="a5hr1j3lv" x1="10.42" y1="9.71" x2="68.15" y2="76.02" gradientUnits="userSpaceOnUse"><stop stop-color="#1A1E21"/><stop offset="1" stop-color="#06060A"/></linearGradient></defs></svg>