<!-- by TradingView --><svg width="56" height="56" xmlns="http://www.w3.org/2000/svg"><path fill="#F07D2C" d="M0 0h56v56H0z"/><path d="M4 26v6h1.639v-1.214H7.43c.89 0 2.592-.532 2.57-1.677v-1.664C10 27.037 9.175 26 7.43 26H4zm1.639 1.214h1.555c.412.009 1.18.244 1.18 1.118 0 .9-.777 1.186-1.18 1.186H5.64v-2.304z" fill="#fff"/><path d="M11 32v-6h5.5v1.238h-3.893v1.159h3.515v1.19h-3.515v1.16H16.5V32H11zm13.71 0v-6h5.409v1.238H26.29v1.159h3.456v1.19H26.29v1.16h3.828V32H24.71z" fill="#fff"/><path fill-rule="evenodd" d="M17.475 26v6h3.547c.928 0 2.58-.39 2.565-1.877v-2.356c0-.644-.946-1.767-2.565-1.767h-3.547zm1.583 1.252v3.515h1.7c.444 0 1.235-.229 1.228-1.1v-1.38c0-.378-.453-1.035-1.229-1.035h-1.7z" fill="#fff"/><path d="M33.164 32l-2.142-6h1.686l2.105 6h-1.649z" fill="#fff"/><path d="M33.824 25.997l.735-2 .71 2-.71 2-.735-2zm4.273.003h-1.699l-1.243 3.646.85 2.354 2.092-6z" fill="#666"/><path d="M41.953 26c.891 0 1.731.22 2.04.33v1.21c-.753-.202-1.674-.262-2.04-.268-1.632.063-1.852.644-1.852 1.006v1.492c.094.69 1.02 1.005 1.852 1.005.665 0 1.637-.189 2.04-.283v1.225c-.262.095-1.036.283-2.04.283-1.256 0-2.401-.456-2.888-.817-.389-.289-.507-.811-.517-1.036V27.79c0-.453.345-.828.517-.959.644-.565 1.774-.832 2.888-.832z" fill="#fff"/><path fill-rule="evenodd" d="M48.725 26c1.112 0 3.275.55 3.275 1.725v2.29c0 .61-.447 1.945-3.275 1.985-1.19.016-3.383-.458-3.383-1.985v-2.29c0-.641 1.084-1.725 3.383-1.725zm-.026 1.22c.584 0 1.718.325 1.718 1.02v1.35c0 .361-.235 1.15-1.718 1.172-.624.01-1.774-.27-1.774-1.171v-1.352c0-.378.569-1.018 1.774-1.018z" fill="#fff"/></svg>