<!-- by TradingView --><svg width="56" height="56" xmlns="http://www.w3.org/2000/svg"><path fill="#F0F3FA" d="M0 0h56v56H0z"/><path d="M34.756 20.104c5.476-1.535 7.617-.103 8.008.912-1.154-4.647-9.355-1.97-12.433-.912-2.758.914-7.648 3.881-13.05 9.169-5.403 5.288-4.378 7.726-3.8 8.985 0-1.444.549-4.28 3.98-7.52 4.29-4.051 10.45-8.715 17.295-10.634z" fill="url(#paint0_linear)"/><ellipse cx="27.122" cy="28" rx="10.59" ry="16" fill="url(#paint1_linear)"/><ellipse cx="28.004" cy="28" rx="9.708" ry="16" fill="url(#paint2_linear)"/><path d="M21.517 39.5c-5.475 1.535-7.626-.11-8.017-1.125 0 4.534 6.156 3.553 9.234 2.495 2.758-.914 9.626-4.063 15.028-9.35 5.403-5.289 5.598-9.128 5.02-10.387-.162 1.37-1.345 4.922-4.776 8.163-4.29 4.05-9.644 8.285-16.489 10.203z" fill="url(#paint3_linear)"/><path d="M25.717 19.132l3.82-5.828-.81 3.188 2.09-.669-3.896 5.85.94-3.33-2.144.789z" fill="url(#paint4_linear)"/><path d="M23.12 22.73v3.095h-.477v-3.094h-1.05v3.094h-.486v-1.15l-.114.08-.14.058-.137.044-.1.014a.725.725 0 01-.608-.299 1.185 1.185 0 01-.16-.283 1.167 1.167 0 01-.05-.35v-1.208h-.39v-.466h3.235v-.44l-.014-.088v-.03c-.015-.07-.063-.114-.146-.134h-.638a.116.116 0 00-.083.036c-.027.015-.047.047-.059.095v.131l-.014.422h-.417v-.924l.013-.08c.003-.078.027-.135.07-.171a.22.22 0 01.144-.055h1.34c.065 0 .12.012.166.036a.222.222 0 01.1.124l.006.03.009.036v1.012h.577v.466h-.577zm-2.013 0h-.84v1.129c0 .247.062.41.186.488.051.02.088.03.109.032a.54.54 0 00.068.005h.077a.339.339 0 00.118-.044 1.12 1.12 0 00.118-.08l.091-.088.073-.102v-1.34zm8.413 2.207l.085-.139c.061-.097.106-.183.134-.258a.973.973 0 00.058-.244v-.087c-.08-.301-.223-.452-.43-.452-.134 0-.25.073-.347.219l-.036.058-.037.08-.036.087v1.616h-.482v-1.179l-.063.059-.05.036-.077.036-.073.03c-.037 0-.062.006-.077.021h-.077a.794.794 0 01-.211-.025.595.595 0 01-.194-.098.817.817 0 01-.295-.445 1.575 1.575 0 01-.05-.415v-1.106l-.078-.096v.096h-.432l-.004 1.347-.014.182a.4.4 0 01-.036.167l-.074.145c-.165.24-.604.492-.689.052v-.044c0-.058.039-.12.115-.182l.12-.087.06-.059.018-.05.019-.103.009-.109v-1.26h-.777l.005 1.908.027.27c.015.145.07.298.166.458.095.16.258.277.488.35l.136.043.186.044-.109.539-.24-.087-.182-.073a1.576 1.576 0 01-.404-.262 1.473 1.473 0 01-.404-.56 2.046 2.046 0 01-.091-.3l-.05-.327-.014-.379v-1.623h-.381v-.466h5.877v.466h-1.598v.786l.045-.073.05-.058a.835.835 0 01.164-.11.592.592 0 01.204-.036.72.72 0 01.577.289c.057.073.115.174.172.305.04.105.07.228.09.369v.122c0 .244-.071.506-.215.784-.06.107-.13.207-.207.3a.46.46 0 01-.18.125l-.328-.372c.07-.029.148-.104.236-.225zm-1.09-2.206h-.7v1.12l.014.212.04.138a.227.227 0 00.096.095l.154.03c.115 0 .225-.069.327-.205l.027-.036.041-.059v-1.295zm7.598-.001v3.095h-.477v-3.094l-.256-.002v.002h-.604v3.094h-.485v-1.587H32.86l-.1.043h-.195v.335l.014.168.032.146.068.203a.292.292 0 00.095.131l.114.073.145.022.532-.008v.474h-.754c-.08-.02-.18-.06-.302-.124a.833.833 0 01-.292-.371 1.792 1.792 0 01-.092-.291l-.045-.387v-.386l-.182-.006h-.082l-.055-.06c-.035-.04-.054-.103-.054-.188l.014-.117.04-.087.055-.051.082-.022h.707c.066 0 .112-.01.137-.029.027 0 .059-.023.095-.066l.092-.134.027-.074v-.044l.01-.06.008-.066-.006-.066-.012-.074v-.066l-.023-.067-.064-.133-.077-.125h-1.416v-.466h4.174v-.44l-.013-.088v-.03c-.016-.07-.064-.114-.146-.134h-.64a.116.116 0 00-.082.036c-.027.015-.047.047-.059.095v.131l-.013.422h-.418v-.924l.013-.08c.003-.078.027-.135.07-.171a.22.22 0 01.144-.055h1.34c.065 0 .12.012.166.036a.222.222 0 01.1.124l.006.03.009.036v1.012h.577v.466h-.577zm-1.822 0h-.9l.06.188.04.164.028.158.013.15a.866.866 0 01-.018.188l-.04.165.817-.008v-1.004z" stroke="#231F20" stroke-width=".5" stroke-linejoin="round"/><path d="M23.343 22.875v3.094h-.477v-3.094h-1.05v3.094h-.486v-1.15l-.113.08-.141.058-.136.044-.1.014a.725.725 0 01-.609-.298 1.182 1.182 0 01-.159-.284 1.17 1.17 0 01-.05-.35v-1.208h-.39v-.466h3.234v-.44l-.014-.088v-.03c-.014-.07-.063-.114-.146-.134h-.638a.116.116 0 00-.083.037c-.027.015-.046.046-.058.095v.13l-.014.423h-.418v-.925l.014-.08c.003-.078.026-.135.07-.17a.22.22 0 01.143-.056h1.34a.34.34 0 01.166.037.222.222 0 01.1.123l.006.03.01.036v1.012h.576v.466h-.577zm-2.013 0h-.84v1.128c0 .248.062.41.186.488.052.02.088.03.11.033a.659.659 0 00.067.004h.077a.339.339 0 00.119-.044c.012-.005.051-.031.118-.08l.09-.087.073-.102v-1.34zm8.414 2.206l.086-.138c.061-.097.106-.184.134-.259a.968.968 0 00.057-.243v-.088c-.08-.301-.222-.451-.43-.451-.133 0-.25.073-.346.218l-.036.058-.037.08-.036.088v1.616h-.482v-1.18l-.063.059-.05.036-.078.037-.072.029c-.037 0-.062.007-.078.022h-.076a.605.605 0 01-.404-.124.817.817 0 01-.296-.444 1.573 1.573 0 01-.05-.415v-1.107l-.078-.096v.096h-.432l-.004 1.347-.014.182a.402.402 0 01-.036.168l-.074.145c-.166.24-.605.49-.69.051v-.044c0-.058.04-.118.116-.182l.12-.087.06-.058.018-.051.018-.102.01-.11v-1.259h-.777l.005 1.907.027.27c.015.146.07.299.166.459.095.16.258.276.488.35l.136.043.186.043-.109.54-.24-.088-.182-.073a1.573 1.573 0 01-.404-.262 1.478 1.478 0 01-.405-.56 2.039 2.039 0 01-.09-.299l-.05-.328-.014-.378v-1.624h-.381v-.466h5.877v.466h-1.598v.787l.045-.074.05-.058a.82.82 0 01.163-.108.58.58 0 01.205-.037c.227 0 .419.096.576.289.058.072.115.173.173.304.04.105.07.228.09.37v.122c0 .243-.071.506-.215.783-.06.107-.13.208-.207.3a.464.464 0 01-.18.125l-.328-.371c.07-.03.148-.104.236-.226zm-1.09-2.206h-.7v1.121l.014.212.041.138a.227.227 0 00.096.095l.154.029c.115 0 .224-.069.327-.204l.027-.037.041-.058v-1.296zm7.598 0v3.094h-.477v-3.094l-.255-.001v.001h-.604v3.094h-.486v-1.587h-1.344l-.1.044h-.195v.335l.013.167.032.146.068.204a.293.293 0 00.095.13l.114.073.145.022.532-.007v.473h-.754c-.08-.019-.18-.06-.302-.123a.833.833 0 01-.292-.372 1.775 1.775 0 01-.092-.29l-.045-.387v-.386l-.182-.007h-.081l-.055-.06c-.036-.04-.055-.103-.055-.188l.014-.116.04-.087.056-.051.081-.022h.707c.067 0 .112-.01.137-.03.027 0 .059-.022.095-.066l.092-.134.027-.074v-.043l.01-.06.008-.066-.006-.066-.012-.074V23.2l-.022-.066-.065-.134-.077-.125h-1.416v-.466h4.174v-.44l-.013-.088v-.03c-.015-.07-.064-.114-.146-.134h-.639a.116.116 0 00-.083.037c-.027.015-.046.046-.059.095v.13l-.013.423h-.418v-.925l.014-.08c.003-.078.026-.135.07-.17a.22.22 0 01.143-.056h1.34a.34.34 0 01.166.037.222.222 0 01.1.123l.006.03.01.036v1.012h.576v.466h-.577zm-1.822 0h-.9l.06.187.04.165.028.158.014.15a.84.84 0 01-.019.187l-.04.165.817-.007v-1.005z" fill="#fff" stroke="#fff" stroke-width=".2"/><path d="M20.483 27.515h2.674c.582 0 1.018.122 1.308.368.29.245.435.594.435 1.046 0 .466-.158.83-.474 1.092-.316.261-.799.393-1.447.393h-.88v1.71h-1.616v-4.61zm1.616 1.965h.393c.311 0 .528-.047.654-.143a.443.443 0 00.188-.366.482.482 0 00-.163-.368c-.109-.1-.314-.151-.614-.151h-.458v1.028zm3.456-1.965h3.978v.99h-2.362v.805h2.017v.93H27.17v1.884h-1.616v-4.61zm8.117 2.726l1.41.377c-.095.35-.244.642-.448.877a1.925 1.925 0 01-.759.531c-.301.12-.686.18-1.151.18-.566 0-1.03-.073-1.387-.218-.359-.146-.67-.403-.93-.77s-.39-.836-.39-1.407c0-.764.229-1.35.687-1.76.458-.41 1.107-.614 1.945-.614.655 0 1.17.117 1.547.352.375.235.654.595.836 1.081l-1.421.28a1.046 1.046 0 00-.156-.309.912.912 0 00-.33-.25 1.052 1.052 0 00-.438-.089c-.363 0-.643.13-.837.39-.147.193-.221.496-.221.909 0 .512.088.861.263 1.052.176.19.422.284.738.284.308 0 .541-.077.698-.23.158-.152.272-.375.344-.666z" fill="#231F20" stroke="#231F20" stroke-width=".5" stroke-miterlimit="2.613"/><path d="M20.853 27.816h2.674c.582 0 1.018.123 1.308.368.29.245.435.595.435 1.047 0 .465-.158.83-.474 1.091-.316.262-.799.393-1.447.393h-.88v1.71h-1.616v-4.609zm1.616 1.965h.394c.31 0 .527-.047.653-.143a.442.442 0 00.188-.365.481.481 0 00-.164-.369c-.108-.1-.313-.15-.613-.15h-.458v1.027zm3.456-1.965h3.978v.99h-2.362v.806h2.017v.93H27.54v1.883h-1.616v-4.609zm8.117 2.726l1.41.378c-.095.35-.244.641-.448.876a1.917 1.917 0 01-.759.532c-.302.12-.686.179-1.152.179-.566 0-1.028-.073-1.386-.218-.359-.146-.67-.402-.93-.77-.26-.366-.39-.835-.39-1.407 0-.763.229-1.35.687-1.76.458-.41 1.107-.614 1.944-.614.656 0 1.172.117 1.547.352.376.235.655.596.837 1.082l-1.42.28a1.044 1.044 0 00-.157-.31.912.912 0 00-.33-.25 1.046 1.046 0 00-.438-.088c-.364 0-.643.13-.837.39-.147.192-.221.495-.221.908 0 .512.088.862.263 1.052.176.19.422.284.738.284.308 0 .54-.076.699-.23.157-.152.271-.374.343-.666zm-7.82-11.846l1.942-.67-.737 2.516 2.737-4.295-1.743.58.528-2.119-2.727 3.988z" fill="#fff"/><defs><linearGradient id="paint0_linear" x1="13.004" y1="37.623" x2="41.126" y2="19.171" gradientUnits="userSpaceOnUse"><stop stop-color="#EF4723"/><stop offset=".149" stop-color="#F36E21"/><stop offset="1" stop-color="#ED1C24"/></linearGradient><linearGradient id="paint1_linear" x1="34.889" y1="16.26" x2="20.222" y2="40.139" gradientUnits="userSpaceOnUse"><stop stop-color="#7EA4D2"/><stop offset=".208" stop-color="#2B59A0"/><stop offset=".443" stop-color="#A9D5F0"/><stop offset=".639" stop-color="#044895"/><stop offset=".813" stop-color="#83B4DE"/><stop offset="1" stop-color="#054A96"/></linearGradient><linearGradient id="paint2_linear" x1="34.774" y1="16.568" x2="22.501" y2="40.896" gradientUnits="userSpaceOnUse"><stop stop-color="#6687BC"/><stop offset=".182" stop-color="#0E4E96"/><stop offset=".391" stop-color="#76ABDB"/><stop offset=".571" stop-color="#195395"/><stop offset=".752" stop-color="#7AAFDE"/><stop offset=".856" stop-color="#105299"/><stop offset="1" stop-color="#587EB7"/></linearGradient><linearGradient id="paint3_linear" x1="43.004" y1="22.592" x2="13.481" y2="39.701" gradientUnits="userSpaceOnUse"><stop stop-color="#ED2224"/><stop offset=".53" stop-color="#F9A01B"/><stop offset="1" stop-color="#ED1C24"/></linearGradient><linearGradient id="paint4_linear" x1="25.27" y1="18.429" x2="30.61" y2="18.313" gradientUnits="userSpaceOnUse"><stop stop-color="#F26B27"/><stop offset=".529" stop-color="#FFEE80"/><stop offset="1" stop-color="#F26B27"/></linearGradient></defs></svg>