<!-- by TradingView --><svg width="56" height="56" xmlns="http://www.w3.org/2000/svg"><path fill="url(#paint0_linear)" d="M0 0h56v56H0z"/><path d="M51.997 30.854c.002-.003 0-1.065 0-1.065h-.368c-.4 0-.494-.06-.494-.338v-3.37H52v-.97h-.865V23.7h-1.482v1.411h-.736v.97h.736v3.297c0 1.104.263 1.502 1.493 1.502.158 0 .44-.016.85-.026zM43.493 30.88h1.493v-3.592c0-.696.453-1.114 1.147-1.114.64 0 .865.339.865 1.058v3.648h1.493v-4.06c0-1.213-.61-1.82-1.84-1.82-.706 0-1.273.259-1.694.769v-.649h-1.464v5.76zM42.577 23.2h-1.493v1.283h1.493V23.2zM42.577 25.12h-1.493v5.76h1.493v-5.76zM36.361 28c0-1.057.48-1.858 1.315-1.858.834 0 1.304.801 1.304 1.858 0 1.058-.476 1.697-1.305 1.697-.828 0-1.314-.642-1.314-1.697zm-1.515 0c0 1.761 1.072 2.88 2.83 2.88 1.756 0 2.804-1.119 2.804-2.88 0-1.76-1.048-3.05-2.805-3.05-1.757 0-2.83 1.289-2.83 3.05zM32.88 27.815c0 .985-.473 1.562-1.21 1.562-.79 0-1.25-.558-1.25-1.562 0-1.084.432-1.642 1.221-1.642.79 0 1.24.567 1.24 1.642h-.001zM28.966 32.8h1.452v-3.035c.368.547.936.835 1.65.835 1.305 0 2.294-1.104 2.294-2.845 0-1.691-.961-2.796-2.314-2.796-.726 0-1.23.28-1.662.896v-.714h-1.42V32.8zM25.934 30.88h1.462v-4.746h.925v-.993h-.936v-.37c0-.338.137-.398.547-.398h.39v-1.125a9.256 9.256 0 00-.715-.03c-1.146 0-1.672.439-1.672 1.434v.489h-.8v.993h.8l-.001 4.746zM20.897 28c0-1.057.48-1.858 1.315-1.858.834 0 1.304.801 1.304 1.858 0 1.058-.473 1.697-1.304 1.697-.831 0-1.315-.642-1.315-1.697zm-1.537 0c0 1.761 1.095 2.88 2.852 2.88s2.83-1.119 2.83-2.88c0-1.76-1.074-3.05-2.831-3.05S19.36 26.24 19.36 28zM14.841 28c0-1.057.536-1.858 1.37-1.858.835 0 1.305.801 1.305 1.858 0 1.058-.473 1.697-1.305 1.697-.831 0-1.37-.642-1.37-1.697zm-1.46 0c0 1.761 1.073 2.88 2.83 2.88 1.757 0 2.83-1.119 2.83-2.88 0-1.76-1.073-3.05-2.83-3.05-1.757 0-2.83 1.29-2.83 3.05zM9.995 30.88h1.494v-3.254c0-.796.42-1.194 1.23-1.194h.494V25a1.649 1.649 0 00-.221-.01c-.715 0-1.22.328-1.61 1.057v-.906H9.995v5.739zM7.913 27.815c0 .985-.473 1.562-1.21 1.562-.79 0-1.25-.558-1.25-1.562 0-1.084.432-1.642 1.22-1.642.79 0 1.242.567 1.242 1.642h-.002zM4 32.8h1.451v-3.035c.368.547.936.835 1.651.835 1.305 0 2.294-1.104 2.294-2.845 0-1.691-.961-2.796-2.315-2.796-.725 0-1.23.28-1.661.896v-.714H4V32.8z" fill="#fff"/><defs><linearGradient id="paint0_linear" x1="10.418" y1="9.712" x2="68.147" y2="76.017" gradientUnits="userSpaceOnUse"><stop stop-color="#1A1E21"/><stop offset="1" stop-color="#06060A"/></linearGradient></defs></svg>