<!-- by TradingView --><svg width="56" height="56" xmlns="http://www.w3.org/2000/svg"><path fill="#D63700" d="M0 0h56v56H0z"/><path d="M30.857 29h-5.454l1.298 2h3.896l.26-2z" fill="#fff"/><path d="M25 39h-2.974L22 19h10v2h-7v18zM8 39V19h6.234c1.948 0 5.454 1.535 5.454 5.508 0 2.25-1.09 6.492-5.454 6.492h-1.689l-1.043-2h2.987c3.246 0 3.773-8-.255-8H11v18H8zM48 29h-3v7.023c-8.558 2.477-12.337-9.467-5.961-13.767 2.597-1.751 5.8-1.192 7.402-.53l.78-1.986c-4.546-1.589-10.26-.794-12.728 4.105-1.512 3.004-2.337 9.535 1.949 12.846 5.114 3.95 9.913 1.898 11.558.662V29z" fill="#fff"/></svg>