<!-- by TradingView --><svg width="56" height="56" xmlns="http://www.w3.org/2000/svg"><path fill="#013088" d="M0 0h56v56H0z"/><path d="M6.679 22.988c-.897 0-1.79-.028-2.679.109V33h1v-4c.27.037 1.249 0 1.531 0C7.794 29 10 28.544 10 26c0-2.324-1.875-3.012-3.321-3.012zM6.556 28H5v-4c.246-.037 1.273 0 1.679 0C7.49 24 9 24.464 9 26c.012 1.253-.945 2-2.444 2zM12.5 27C11 27 10 28.393 10 30.335c0 1.892 1.078 2.808 2.91 2.808.754 0 1.432-.165 2.125-.443l-.258-1.069c-.555.238-1.258.48-1.868.48C11.5 32.111 11 31.5 11 30.335h4C15 28.5 14.45 27 12.5 27zm0 1c.868 0 1.5 1 1.49 1.524H11C11 29 11.578 28 12.5 28zM18.796 27.03c-.836 0-1.427.38-1.796.81V27h-1v6h1v-3.353c0-.9.44-1.647 1.452-1.647.983 0 1.548.5 1.548 1.794V33h1v-3.329c0-1.171-.57-2.642-2.204-2.642zM24.796 27.03c-.836 0-1.427.38-1.796.81V27h-1v6h1v-3.353c0-.9.44-1.647 1.452-1.647.983 0 1.548.5 1.548 1.794V33h1v-3.329c0-1.171-.57-2.642-2.204-2.642zM31.38 27c-.48 1.483-1.426 4.453-1.426 4.453L28.301 27H27l2.274 5.694c.025.05.061.172.061.221 0 .037-.049.136-.073.185-.197.442-.66.91-.992 1.18-.3.258-1.27.29-1.27.29l.5.93c.561-.102 1.147-.196 1.5-.5.713-.614 1.189-1.337 2-3.5l1.5-4.5h-1.12zM38.8 25l-2.035 6.146L34.728 25h-1.54l-.567 8H33.7l.519-6.28L36.2 33h1.1l2.021-6.28L39.8 33h1.12l-.509-8H38.8zM46.3 29.573c0-1.659-.727-2.573-2.275-2.573-.737 0-1.475.226-2.003.57l-.099.061.344.669c.537-.312 1.103-.53 1.733-.53.836 0 1.308.754 1.32 1.529-3.233 0-3.778 1.01-3.778 1.87 0 .91.664 1.831 1.942 1.831.664 0 1.598-.246 2.016-.688l.1.688h1c-.226-1.129-.3-2.279-.3-3.427zm-.97.577s.067.631 0 .896c-.136.544-.977 1.134-1.83 1.134-.528 0-1.07-.5-1.07-1.04.017-1.027 2.264-.99 2.9-.99zM50.058 27.9c.489 0 .91.082 1.328.32l.331-.785a3.695 3.695 0 00-1.659-.381c-1.941-.012-3.447 1.09-3.447 3.008 0 1.88 1.23 3.145 3.06 3.145.643 0 1.29-.116 1.856-.43L51.172 32c-.458.197-.906.3-1.413.3-1.118 0-2.16-.961-2.16-2.3 0-1.229 1.175-2.1 2.46-2.1zM18 20h-2v2.974L18 23v-3z" fill="#fff"/><path d="M31.183 24.473l-8.16-4.067c-.639-.27-1.56-.308-2.175 0L12.7 24.473c-1.425.7.775 1.745 2.176 1.057l7.053-3.527 7.09 3.527c1.414.713 3.552-.369 2.164-1.057z" fill="#F3C300"/></svg>