<!-- by TradingView --><svg width="56" height="56" xmlns="http://www.w3.org/2000/svg"><path fill="#0B5ED7" d="M0 0h56v56H0z"/><path d="M21 24h-2v3h-3v-3h-2v8h2v-3h3v3h2v-8zm8 6v-6h-2v8h4v-2h-2zm-4-6h-2v8h2v-8zm9 0h-2v8h2v-8zm11.445 2.12c0-.418.402-.61 1.05-.61.712 0 1.485.16 2.01.387l-.185-1.672A8.508 8.508 0 0046.25 24c-1.824 0-3.06.747-3.06 2.314 0 2.698 3.524 2.152 3.524 3.405 0 .482-.341.738-1.175.738-.741 0-1.886-.256-2.566-.61l.248 1.768c.68.257 1.606.385 2.35.385C47.454 32 49 31.357 49 29.429c0-2.569-3.555-2.088-3.555-3.309zm-6.514 3.896c2.1 0 2.962-1.07 2.962-3.03 0-2.152-.953-2.978-3.272-2.978-.896 0-1.849-.008-2.621-.008v8h2v-1.991l.931.007zm1.009-3.03c0 .995-.267 1.649-1.443 1.649L38 28.627v-3.173c.131-.008.382 0 .497 0 1.113 0 1.443.567 1.443 1.532zM9.772 30.01c2.1 0 3.102-1.093 3.102-3.053 0-2.152-1.094-2.956-3.411-2.956H7v8h2v-1.991h.772zm1.206-3.053c0 .995-.464 1.67-1.639 1.67H9v-3.172c.131-.008.223-.008.339-.008 1.112 0 1.639.545 1.639 1.51z" fill="#fff"/></svg>