<!-- by TradingView --><svg width="56" height="56" xmlns="http://www.w3.org/2000/svg"><path fill="#F0F3FA" d="M0 0h56v56H0z"/><path d="M23.612 31.898c-1.521 3.358-2.488 6.854-2.764 10.417.276 0 .483.068.76.137 2.142.343 4.284.548 6.357.548 2.488-.069 4.839-.343 7.189-.891 3.18-.754 6.152-1.919 8.846-3.495-3.247 0-6.496-.41-9.744-1.37l-2.903-1.028-1.451-.617a33.614 33.614 0 01-6.29-3.7z" fill="#939495"/><path d="M27.966 11c2.142 2.946 3.595 6.167 4.355 9.523.276 1.029.413 2.126.551 3.153.277 2.81.139 5.62-.414 8.429 3.525-.412 6.982-1.37 10.091-2.81-.69-2.055-1.52-4.043-2.625-6.03-1.036-1.92-2.35-3.769-3.87-5.482a9.386 9.386 0 01-.208-.206c-2.281-2.671-4.978-4.863-7.88-6.577z" fill="#CE2035"/><path d="M27.965 24.977c-2.764.96-5.39 2.331-7.67 4.043a15.118 15.118 0 00-2.005 1.646A25.799 25.799 0 0012 39.163c2.696 1.44 5.668 2.467 8.848 3.152.276-3.563 1.243-7.059 2.764-10.417a38.685 38.685 0 014.353-6.92zm-6.38 6.556c.372.083.748.16 1.128.228.173.035.329.053.476.07-.147-.017-.303-.034-.476-.068-.38-.069-.756-.147-1.128-.23z" fill="#951B28"/><path d="M27.965 11c-2.834 1.714-5.528 3.906-7.81 6.577-.068.07-.138.139-.207.206 2.626 1.644 5.046 3.7 7.258 6.167.276.343.552.685.76 1.027 1.865 2.193 3.317 4.591 4.492 7.128.553-2.81.69-5.62.414-8.43-.138-1.026-.275-2.124-.551-3.153-.76-3.355-2.213-6.576-4.356-9.522z" fill="#E42F31"/><path d="M42.549 29.296c-3.11 1.439-6.567 2.397-10.091 2.809-2.834.274-5.805.273-8.846-.206a33.608 33.608 0 006.29 3.7l1.451.617 2.903 1.028c3.248.96 6.497 1.37 9.744 1.37 0-3.152-.483-6.303-1.451-9.318z" fill="#B3B5B5"/><path d="M19.948 17.783a35.476 35.476 0 00-4.077 5.826c-.898 1.711-1.659 3.424-2.212 5.138-.76 2.261-1.244 4.591-1.52 6.921 1.451-2.056 3.18-3.838 5.045-5.414.83-.617 1.659-1.234 2.558-1.782 2.488-1.575 5.32-2.74 8.223-3.495-.207-.342-.483-.684-.76-1.026-2.21-2.468-4.63-4.524-7.257-6.168z" fill="#5C0E1F"/></svg>