<!-- by TradingView --><svg xmlns="http://www.w3.org/2000/svg" width="56" height="56"><path fill="#86BCC5" d="M0 0h56v56H0z"/><path d="M32 29.3l-.31 1.47.56.53 7.82-7.17c.44-.35.74.08.35.41l-7.97 7.33h-1l-.7 3.28h-.41s-6.52 5.9-7.19 6.47c-.67.58-1.28.47-1.13-.22l1.05-4.93.4-.02s7.57-6.8 8.01-7.23c.44-.43.62-.37.52.08zm7.1 1.47l.3-1.47c.1-.45-.08-.51-.52-.08-.44.44-8.01 7.23-8.01 7.23l-.4.02-1.04 4.93c-.15.7.46.8 1.12.22.68-.57 7.19-6.47 7.19-6.47h.41l.7-3.28h1l7.97-7.33c.4-.33.09-.76-.35-.41l-7.82 7.17-.56-.53zm-14.26.53l-.57-.53-.24 1.1h1L33 24.54c.4-.33.1-.76-.35-.41l-7.81 7.17zm20.73 3.86l.7-3.29.23-1.1.31-1.46c.1-.45-.08-.51-.52-.08-.43.42-8.02 7.23-8.02 7.23l-.38.02-1.05 4.92c-.15.7.45.8 1.13.23.67-.57 7.18-6.47 7.18-6.47h.42z" fill="#fff"/><path d="M8.83 32H8l1.62-7h1.15l1.35 5.95L16.24 25h1.27l-1.63 7h-.87l1.4-5.92L12.29 32h-.71l-1.37-5.95L8.83 32zm15.02-4.34c.33-.38.79-.66 1.43-.66.23 0 .45.04.67.08l-.19.75c-.22-.08-.39-.1-.63-.1-1.05 0-1.48 1-1.7 1.88L22.88 32H22l.94-3.99c.07-.3.12-.6.16-.9h.81l-.07.55zM18.8 31.4c1.2 0 1.77-.9 1.93-1.84l-.59-.02c-.94 0-2.34.13-2.34 1.09 0 .48.48.76 1 .76zm1.56-.05c-.46.47-1.05.65-1.8.65-.88 0-1.63-.56-1.63-1.37 0-1.42 1.89-1.7 3.22-1.7.3 0 .71-.03.71-.37 0-.61-.4-.95-1.1-.95h-1.71l.1-.61h1.71c1.22 0 1.88.57 1.88 1.57 0 .2-.04.53-.14.9l-.3 1.27c-.1.37-.18.77-.2 1.15h-.82c.02-.18.04-.37.08-.54zm-3.7-12.89c.38-.45.87-.68 1.64-.73 1.02 0 1.79.54 1.79 1.52 0 .35-.08.72-.16 1.05L19.3 23h-.85l.64-2.84c.08-.32.12-.53.12-.86 0-.56-.34-.9-1-.9-1.12 0-1.7 1.03-1.95 2.09l-.6 2.51h-.86l1.65-7h.84l-.63 2.46zm-3.7-1.74h-.73l-.61 2.6h.75c1.13 0 2.19-.41 2.19-1.53 0-.89-.73-1.07-1.6-1.07zM10.74 23h-.88l1.64-7h1.34c1.4 0 2.6.28 2.6 1.79 0 1.53-1.51 2.23-2.99 2.23h-1L10.74 23zm11.34-.6c1.2 0 1.76-.9 1.93-1.84l-.6-.02c-.94 0-2.33.13-2.33 1.09 0 .48.48.76 1 .76zm1.55-.05c-.45.47-1.04.65-1.79.65-.88 0-1.64-.56-1.64-1.37 0-1.42 1.9-1.7 3.23-1.7.3 0 .7-.03.7-.37 0-.61-.39-.95-1.1-.95h-1.7l.09-.61h1.72c1.22 0 1.88.57 1.88 1.57 0 .2-.05.53-.14.9l-.3 1.27c-.1.37-.18.88-.2 1.26h-.82c.02-.18.04-.48.07-.65zm6.69-3.65c.47-.5.9-.7 1.62-.7.74 0 1.3.33 1.42.95.38-.6 1-.95 1.84-.95.99 0 1.62.56 1.62 1.46 0 .2-.08.56-.16.91L36.03 23h-.85l.63-2.6c.07-.28.13-.56.13-.91 0-.5-.24-.87-.85-.87-1.06 0-1.62 1.04-1.83 1.9L32.68 23h-.85l.63-2.6c.07-.29.14-.57.14-.92 0-.5-.24-.87-.85-.87-1.07 0-1.63 1.05-1.83 1.91l-.58 2.47h-.85l.95-4.03c.07-.28.12-.57.14-.86h.82c-.02.2-.04.4-.08.6zM27 18.66c.33-.38.79-.66 1.43-.66.23 0 .45.04.67.08l-.2.75c-.22-.08-.38-.1-.62-.1-1.05 0-1.49 1-1.7 1.88L26.01 23h-.86l.95-3.99c.07-.3.12-.6.15-.9h.82l-.07.55zm11.7 3.74c1.18 0 1.76-.9 1.92-1.84l-.59-.02c-.94 0-2.34.13-2.34 1.09 0 .48.48.76 1 .76zm1.54-.05c-.46.47-1.04.65-1.79.65-.88 0-1.64-.56-1.64-1.37 0-1.42 1.9-1.7 3.23-1.7.3 0 .7-.03.7-.37 0-.61-.39-.95-1.1-.95h-1.7l.09-.61h1.72c1.22 0 1.87.57 1.87 1.57 0 .2-.04.53-.14.9l-.29 1.27c-.1.37-.18.77-.2 1.15h-.82l.07-.54z" fill="#002B53"/></svg>