<!-- by TradingView --><svg width="56" height="56" xmlns="http://www.w3.org/2000/svg"><path fill="#005697" d="M0 0h56v56H0z"/><path d="M22.148 25.276L4 28l16.43-2.043c1.074-.113 2.147-.113 3.006.227l1.826.793-3.114-1.7zm.323 6.014l-3.76 5.447 3.437-4.653c.323-.454.75-.794 1.074-1.022l1.934-1.247-2.685 1.475zm3.22 3.292c-.107-.683-.107-1.363.108-1.703l.967-2.269-1.826 2.95L28 44l-2.308-9.418zm7.946-3.292l-2.685-1.474 1.504 1.022c.537.34.967.566 1.61 1.475l3.33 4.426-3.76-5.45zm.43-6.014l-3.114 1.702 2.15-.908c.643-.34 1.396-.227 2.469-.114L51.894 28l-17.826-2.723zm-1.933-2.722l-1.826 2.609 1.719-2.155c.215-.228.321-.34.645-.568l4.724-3.29-5.262 3.404zm-6.442-1.02L28 12.116 24.94 22.44l1.826 2.723-.967-1.929c-.107-.567-.215-1.247-.107-1.701z" fill="#fff"/><path d="M31.168 22.441L28 12.003V27.21l3.168-4.768zm2.469 2.27l3.76-5.559-8.055 7.827 4.295-2.269zM52 28H28.914l4.938 2.61L52 28.001zm-24.698 0l-5.047 2.61L4.108 28h23.194zm-8.59-8.849l3.759 5.558 4.401 2.27-8.16-7.828zm0 17.587l5.37-3.292 2.79-4.425-8.16 7.717zm18.684 0l-8.268-7.717 2.899 4.425 5.37 3.292zM28 28.795l3.168 4.767L28 44V28.794zm-3.919-6.354l-5.37-3.29 4.404 2.949a4.573 4.573 0 011.18 1.021l1.503 2.043-1.717-2.723z" fill="#fff"/></svg>