<!-- by TradingView --><svg xmlns="http://www.w3.org/2000/svg" width="56" height="56"><path fill="#F0F3FA" d="M0 0h56v56H0z"/><path d="M22.16 10c-1.8 6.96-1.22 18.54 13.1 22.66 1.66-5.88 1.81-18.47-13.1-22.66z" fill="#9777B5"/><path d="M18.99 45.44c5.48.7 14.25-.87 16-12.2-4.65-.7-14.26.41-16 12.2z" fill="#BDDEA9"/><path d="M32.06 15.84c-4.5 5.25-3.98 15.4 3.2 16.82 1.15-4.06 1.57-11.34-3.2-16.82z" fill="#393473"/><path d="M22.47 37.31c4.45 2.93 12.13 1.54 12.52-4.08-3.22-.47-8.8-.1-12.52 4.09z" fill="#66AE45"/></svg>