<!-- by TradingView --><svg width="56" height="56" xmlns="http://www.w3.org/2000/svg"><path fill="#006791" d="M0 0h56v56H0z"/><path d="M25 22.966C25 28.443 22.523 30 18.115 30c-.78 0-1.255-.045-1.255-.045v-1.977s.826.022 1.402.022C21.529 28 23 27.491 23 23c0-4.67-1.867-5-5.27-5H14v19h-2V16h6.126C22.648 16 25 17.938 25 22.966zM28 16v2l16-.002V22h-6v13h-4v2h6V24h6v-8H28zm2 21.034V22h-2l.04 15.034c0 3.012-.329 4.966-4.85 4.966-.576 0-1.19-.022-1.19-.022v1.977s.263.045 1.043.045C27.44 44 30 42.5 30 37.034z" fill="#fff"/></svg>