<!-- by TradingView --><svg width="56" height="56" xmlns="http://www.w3.org/2000/svg"><path fill="#0B2265" d="M0 0h56v56H0z"/><path d="M19.997 27.093V31h-1.998v-3.355c0-.823-.321-1.297-.999-1.297-.678 0-1 .465-1 1.297V31h-2v-6h2v.796c.41-.517.976-.796 1.876-.796 1.338 0 2.121.682 2.121 2.093zM8 23l-4 8h2.002L10 23H8zm2.5 2L9 27.998h3L10.5 25zM9 29l1 2h3l-1-2H9zm17.322-3.458c.463.456.677 1.14.677 1.963V31h-1.426l-.285-.594c-.428.473-1.012.594-1.877.594C22.234 31 21 30.529 21 29.31c0-1.34 1.292-1.998 2.772-1.998.633 0 1.088.105 1.534.254v-.096c0-.727-.455-1.122-1.347-1.122-.632 0-1.096.114-1.613.298l-.58-1.155c.687-.298 1.364-.491 2.425-.491.963-.009 1.694.104 2.13.542zm-.999 3.058a2.766 2.766 0 00-1.132-.228c-.757 0-1.532.387-1.532.939 0 .473.703.689 1.274.689.829 0 1.39-.453 1.39-1.084V28.6zM35 28c0 2.05-1.567 2.974-3.056 2.974-.945 0-1.498-.226-1.917-.726L30 33h-2v-8h2l.027.779c.428-.57.99-.805 1.917-.805 1.462 0 3.056.975 3.056 3.026zm-2.004 0c0-1.026-.687-1.74-1.516-1.74S30 26.976 30 28c0 1.026.651 1.687 1.48 1.687.83 0 1.516-.653 1.516-1.687zm16.9-3c-.9 0-1.486.279-1.896.796V25h-2v6h2v-3.355c0-.824.323-1.297 1-1.297s1 .464 1 1.297V31h2v-4c0-1.411-.766-2-2.104-2zm-5.67.542c.463.456.774 1.14.774 1.963V31h-1.523l-.285-.594c-.428.473-1.026.594-1.89.594C40.125 31 39 30.494 39 29.276c0-1.341 1.196-1.964 2.676-1.964.633 0 1.088.105 1.534.254v-.096c0-.727-.455-1.122-1.346-1.122-.633 0-1.097.114-1.614.298l-.58-1.155c.687-.298 1.364-.491 2.425-.491.963-.009 1.694.104 2.13.542zm-.999 3.058a2.766 2.766 0 00-1.132-.228c-.757 0-1.376.352-1.376.904 0 .473.547.724 1.118.724.829 0 1.39-.453 1.39-1.084V28.6zM36 31h2v-8h-2v8z" fill="#F6F8FD"/></svg>