<!-- by TradingView --><svg xmlns="http://www.w3.org/2000/svg" width="56" height="56"><path fill="#F0F3FA" d="M0 0h56v56H0z"/><path fill="#767676" d="M4 23h5v5H4zm0 6h5v5H4zm6 0h5v5h-5zm0-6h5v5h-5zm6 0h5v5h-5z"/><path fill="#8B2E26" d="M16 29h5v5h-5z"/><path d="M24.75 24.92V26H24v-3h1.41c.27 0 .51.04.72.12.2.08.36.2.48.35.1.15.16.32.16.51a.8.8 0 01-.36.69c-.25.16-.58.25-1.01.25h-.65zm0-.5h.66c.2 0 .35-.04.45-.11a.4.4 0 00.16-.33.44.44 0 00-.16-.35.66.66 0 00-.43-.14h-.68v.93zm3.77 1.09h1.58V26h-2.33v-3h.75v2.51zm4.58-.16h-1.3l-.25.65h-.8l1.35-3h.7l1.35 3h-.8l-.24-.65zm-1.1-.5h.9l-.45-1.1-.45 1.1zm5.4-1.35h-1.11V26h-.75v-2.5h-1.09V23h2.95v.5zm1.7 2.5h-.74v-3h.74v3zm4.12 0h-.74l-1.46-1.99V26h-.74v-3h.74l1.46 2v-2h.74v3zm3.88-3v1.95c0 .32-.13.58-.38.77a1.6 1.6 0 01-1.01.28c-.42 0-.76-.1-1-.27a.9.9 0 01-.39-.76V23h.75v1.95c0 .2.05.34.17.43.11.09.27.13.47.13.42 0 .63-.18.64-.54V23h.75zm2.07 0l.93 2.19.92-2.19H52v3h-.75v-2.25l-.9 2.25h-.51l-.9-2.24V26h-.75v-3h.98z" fill="#8C2D27"/><path d="M26.94 29.6c-.14.13-.32.23-.57.3-.24.07-.52.1-.82.1-.31 0-.57-.05-.81-.15a1.25 1.25 0 01-.54-.49c-.13-.2-.2-.45-.2-.74v-.2c0-.29.06-.55.18-.76.12-.21.3-.38.52-.49.23-.11.5-.17.8-.17.44 0 .77.08 1.01.25a1 1 0 01.43.72h-.72a.55.55 0 00-.22-.37.8.8 0 00-.47-.11c-.25 0-.44.07-.58.23-.13.15-.2.39-.2.7v.18c0 .3.08.54.22.7.14.15.35.23.63.23s.48-.05.6-.15v-.5h-.68v-.44h1.42v1.16zm2.59-.75h-.59V30h-.74v-3h1.34c.42 0 .75.08.98.23.23.15.35.37.35.65 0 .2-.05.37-.16.5-.1.13-.27.24-.48.32l.78 1.27V30h-.8l-.68-1.15zm-.59-.49h.6c.19 0 .33-.03.43-.11.1-.08.16-.18.16-.32a.4.4 0 00-.15-.32c-.1-.08-.24-.12-.44-.12h-.6v.87zm6.11.22c0 .28-.06.54-.19.75-.12.22-.3.39-.54.5-.23.12-.5.17-.8.17-.3 0-.56-.05-.8-.16a1.28 1.28 0 01-.54-.5c-.13-.22-.2-.47-.2-.75v-.14c0-.29.07-.55.2-.77.12-.22.3-.39.54-.5.23-.12.5-.18.8-.18.3 0 .56.06.8.18.23.11.41.28.54.5.13.22.2.48.2.77v.13zm-.75-.14c0-.3-.07-.54-.2-.7a.72.72 0 00-.58-.24.72.72 0 00-.58.23c-.13.16-.2.4-.2.7v.15c0 .3.06.53.2.69.14.16.33.25.58.25.25 0 .44-.08.58-.24.13-.16.2-.39.2-.7v-.14zM38.98 27v1.97a.9.9 0 01-.38.76c-.24.19-.58.27-1 .27-.43 0-.76-.08-1-.26a.89.89 0 01-.38-.74v-2h.74v1.98c0 .19.05.33.17.42.1.08.27.13.47.13.41 0 .62-.18.63-.54V27h.75zm2 1.9V30h-.74v-3h1.4c.28 0 .52.04.72.12.2.08.36.2.47.34.11.15.17.32.17.5 0 .3-.12.52-.36.68-.24.17-.58.25-1 .25h-.66zm0-.5h.67c.2 0 .34-.03.44-.1a.4.4 0 00.16-.33.43.43 0 00-.16-.35.66.66 0 00-.43-.13h-.68v.91zM24.96 31l.93 2.2.91-2.2h.97v3h-.74v-2.26l-.9 2.26h-.5l-.9-2.26V34H24v-3h.96zm6.2 1.7h-1.42v.82h1.66V34H29v-3h2.4v.49h-1.66v.73h1.42v.47zm4.1-1.21h-1.1V34h-.74v-2.51h-1.08V31h2.92v.49zm2.78 1.87h-1.3l-.24.64h-.79l1.34-3h.68l1.34 3h-.78l-.25-.64zm-1.1-.49h.9l-.45-1.13-.45 1.13zm3.79.65h1.57V34H40v-3h.73v2.52zM45 33.2c0-.12-.05-.2-.15-.27-.1-.06-.27-.12-.53-.19a4.37 4.37 0 01-.6-.2c-.41-.18-.62-.42-.62-.72 0-.65.82-.82 1.32-.82.55 0 1.32.24 1.32 1H45c0-.34-.22-.52-.59-.52-.36 0-.57.13-.57.34 0 .19.24.3.7.42.83.2 1.2.5 1.2.95 0 .65-.79.81-1.3.81-.62 0-1.44-.25-1.44-1h.73c0 .32.24.52.71.52.35 0 .56-.12.56-.33z" fill="#767676"/></svg>