<!-- by TradingView --><svg xmlns="http://www.w3.org/2000/svg" width="56" height="56"><path d="M0 28a28 28 0 1156 0 28 28 0 01-56 0z" fill="#F0F3FA"/><path d="M40.26 38.28a16 16 0 10-24.52 0A33.92 33.92 0 0128 36c4.32 0 8.46.8 12.26 2.28z" fill="#088B3D"/><path d="M29.75 23H34v11.5c0 .28.22.5.5.5h2a.5.5 0 00.5-.5V23h3a1 1 0 001-1v-2.5a.5.5 0 00-.5-.5H27.55a.5.5 0 00-.4.2l-3.21 4.3-2.8-4.27a.5.5 0 00-.41-.23H15.5a.5.5 0 00-.5.5v.5a1 1 0 001 1h4.53l2.45 3.8-.9 1.2H24l3.9-5.3a.5.5 0 01.4-.2h10.9c.17 0 .3.13.3.3v.4a.3.3 0 01-.3.3H36v12.2a.3.3 0 01-.3.3h-.4a.3.3 0 01-.3-.3V21.5h-6L20.47 33h-1.73l3.73-5h-1.9l-4.06 5.4a1 1 0 00.8 1.6h5.79l-.97-1.73L29.75 23z" fill="#F0F3FA"/><path d="M28.1 33l-1.8-3H28l2.54 4.24a.5.5 0 01-.43.76H24.5l1-2h2.6z" fill="#F0F3FA"/><path opacity=".7" d="M28 44a15.94 15.94 0 01-11.13-4.51A31.93 31.93 0 0128 37.5c3.92 0 7.67.7 11.13 1.99A15.95 15.95 0 0128 44z" fill="#F18200"/></svg>