<!-- by TradingView --><svg width="56" height="56" xmlns="http://www.w3.org/2000/svg"><path fill="#0060B3" d="M0 0h56v56H0z"/><path d="M17.739 22L12 17h11.132c1.16 1.008 3.623 3.108 4.194 3.449a1.24 1.24 0 001.339 0L32.815 17H44l-5.836 5H17.74zm0 6L12 23h11.132c1.16 1.008 3.623 3.108 4.194 3.449a1.24 1.24 0 001.339 0L32.815 23H44l-5.836 5H17.74zm0 6L12 29h11.132c1.16 1.008 3.623 3.108 4.194 3.449a1.24 1.24 0 001.339 0L32.815 29H44l-5.836 5H17.74zm0 6L12 35h11.132c1.16 1.008 3.623 3.108 4.194 3.449a1.24 1.24 0 001.339 0L32.815 35H44l-5.836 5H17.74z" fill="#fff"/></svg>