<!-- by TradingView --><svg width="56" height="56" xmlns="http://www.w3.org/2000/svg"><path fill="#AA74B9" d="M0 0h56v56H0z"/><path d="M47.61 31.982l.39-3.734-2.416-.93a17.725 17.725 0 00-.222-2.198l2.155-1.5-1.154-3.57-2.579.138a17.869 17.869 0 00-1.096-1.919l1.36-2.25-2.498-2.79-2.3 1.18a17.665 17.665 0 00-1.777-1.302l.333-2.616-3.412-1.526-1.623 2.024a17.344 17.344 0 00-2.151-.467L29.867 8h-3.734l-.667 2.51c-.733.106-1.451.26-2.154.454l-1.708-1.998-3.412 1.527.407 2.568c-.62.396-1.218.826-1.784 1.294L14.45 13.23l-2.499 2.79 1.41 2.176c-.407.611-.776 1.253-1.104 1.913l-2.619-.06-1.154 3.57 2.17 1.414c-.122.72-.202 1.452-.235 2.2L8 28.247l.39 3.734 2.548.403c.181.722.41 1.423.678 2.107l-1.798 1.916 1.867 3.252 2.498-.676c.455.578.944 1.13 1.465 1.648l-.867 2.487 3.02 2.206 2.006-1.638c.647.342 1.316.647 2.009.909l.214 2.621 3.652.78 1.171-2.318c.378.025.758.04 1.142.04.355 0 .707-.013 1.056-.035l1.26 2.313 3.651-.78.132-2.589c.694-.257 1.364-.56 2.012-.9l2.084 1.596 3.021-2.207-.93-2.428a17.566 17.566 0 001.475-1.638l2.554.607 1.866-3.251-1.828-1.834c.271-.682.504-1.383.69-2.103l2.572-.488z" fill="#000"/><path fill-rule="evenodd" d="M15.27 28c0-7.138 5.755-12.926 12.857-12.926 7.1 0 12.857 5.788 12.857 12.926 0 7.139-5.755 12.927-12.857 12.927C21.025 40.925 15.27 35.14 15.27 28zM14.607 28c0-7.508 6.053-13.594 13.52-13.594S41.647 20.491 41.647 28c0 7.507-6.053 13.593-13.52 13.593s-13.52-6.086-13.52-13.593z" fill="#925DA1"/><path d="M14.005 24.459h1.594v.051c.109-.048.22-.085.335-.113a1.39 1.39 0 01.352-.044c.26 0 .5.049.724.147a1.81 1.81 0 01.964.991c.093.226.14.465.14.718a1.908 1.908 0 01-.512 1.313 1.803 1.803 0 01-1.316.54c-.15 0-.291-.015-.42-.045a1.955 1.955 0 01-.377-.12v1.164h.515v.936h-2.008v-.936h.44v-3.666h-.431v-.936zm2.205.837a.77.77 0 00-.403.113.962.962 0 00-.318.318v.998a.846.846 0 00.721.393.86.86 0 00.332-.065.85.85 0 00.458-.475.949.949 0 00.068-.362c0-.144-.023-.273-.068-.386a.804.804 0 00-.455-.469.868.868 0 00-.335-.065zM18.524 22.682H20v4.382l.53-.01v.936l-2.006.01v-.936h.48v-3.446h-.48v-.936zM23.44 27.809c-.08.05-.153.093-.22.13a1.213 1.213 0 01-.198.081 1.463 1.463 0 01-.438.065c-.211 0-.401-.028-.57-.085a1.315 1.315 0 01-.424-.24 1.067 1.067 0 01-.355-.81c0-.163.03-.315.092-.454a.994.994 0 01.273-.355c.119-.1.264-.178.435-.233.173-.057.37-.085.59-.085a3.856 3.856 0 01.813.089v-.11a.479.479 0 00-.05-.229.425.425 0 00-.143-.16.594.594 0 00-.223-.093 1.231 1.231 0 00-.283-.03 2.098 2.098 0 00-1.036.246l-.328-.663c.232-.16.475-.282.728-.366.255-.085.525-.127.81-.127.221 0 .425.025.612.076.189.047.35.127.485.239.135.11.24.253.315.43.077.178.116.395.116.65v1.289h.475V28h-1.477v-.191zm-.78-.53c.162 0 .309-.026.441-.079.132-.052.245-.116.338-.191v-.451h-.82a.506.506 0 00-.29.092.37.37 0 00-.096.11.318.318 0 00-.034.15c0 .105.037.192.112.263.078.07.194.106.35.106zM28.55 25.963c0-.198-.053-.353-.158-.465a.54.54 0 00-.417-.17.897.897 0 00-.359.078.95.95 0 00-.352.294v1.364h.574V28h-2.2v-.936h.519v-1.669h-.513v-.936h1.613v.311a1.782 1.782 0 011.077-.376c.426 0 .754.12.984.359.23.237.345.584.345 1.042v1.268h.503V28h-1.617v-2.037zM31.547 26.452l.01.106a.719.719 0 00.127.27.875.875 0 00.215.195.989.989 0 00.273.12c.1.024.202.037.305.037a2.343 2.343 0 00.56-.069 4.08 4.08 0 00.502-.167l.377.7c-.13.08-.25.149-.36.206-.106.054-.215.1-.324.136-.11.037-.226.063-.349.079a2.964 2.964 0 01-.43.027c-.308 0-.582-.05-.82-.15-.24-.103-.442-.24-.606-.414a1.803 1.803 0 01-.372-.608 2.148 2.148 0 01.006-1.47 1.803 1.803 0 01.971-.998c.228-.098.481-.147.759-.147s.524.047.738.14c.217.091.4.22.547.383.148.162.262.353.342.574.08.22.123.455.13.708.007.057.01.114.01.17.002.055.001.112-.003.172h-2.608zm.817-1.292a.997.997 0 00-.328.047.638.638 0 00-.373.308c-.036.069-.065.14-.085.215h1.48a1.112 1.112 0 00-.069-.218.539.539 0 00-.325-.304.816.816 0 00-.3-.048zM36.017 24.459h.708v.896h-.714l-.007 1.497c0 .086.007.157.02.212a.344.344 0 00.058.126c.028.032.06.053.096.065a.425.425 0 00.127.017.979.979 0 00.229-.024c.066-.018.132-.039.198-.062l.147.66a1.597 1.597 0 01-.896.24 1.13 1.13 0 01-.4-.072.937.937 0 01-.331-.216 1.073 1.073 0 01-.23-.365 1.351 1.351 0 01-.081-.51l.01-1.568h-.51v-.896h.514l.006-.848 1.063-.506-.007 1.354zM18.261 30.459h.646v.896h-.646v1.708h.653V34h-2.198v-.937h.53v-1.709h-.537v-.895h.537v-.588c0-.207.037-.39.11-.547.072-.157.17-.29.29-.396a1.26 1.26 0 01.424-.243c.16-.055.327-.082.502-.082a1.787 1.787 0 01.619.103 1.032 1.032 0 01.325.191l-.393.721a.656.656 0 00-.42-.126.43.43 0 00-.315.12.417.417 0 00-.093.146.542.542 0 00-.034.202v.499zM19.512 30.459h1.59v2.604h.492V34h-2.082v-.937h.533v-1.668h-.533v-.936zm.479-1.142c0-.084.015-.163.044-.236a.608.608 0 01.796-.324.619.619 0 01.322.324.606.606 0 11-1.162.236zM23.549 30.459h.707v.896h-.714l.003 1.411c0 .087.007.157.02.212a.345.345 0 00.059.127c.027.031.06.053.096.064a.424.424 0 00.126.018.985.985 0 00.23-.024c.065-.019.131-.04.197-.062l.147.66a1.594 1.594 0 01-.895.239c-.14 0-.272-.024-.4-.072a.936.936 0 01-.332-.215 1.075 1.075 0 01-.229-.366 1.351 1.351 0 01-.082-.51v-1.483h-.509v-.895h.513l.007-.848 1.063-.506-.007 1.354zM27.859 31.963c0-.198-.053-.353-.157-.465a.54.54 0 00-.417-.17.897.897 0 00-.36.078.95.95 0 00-.351.294v1.363h.574V34h-2.201v-.937h.52v-1.668h-.514v-.936h1.614v.311a1.78 1.78 0 011.076-.376c.427 0 .755.12.985.359.23.237.345.584.345 1.042v1.268h.503V34h-1.617v-2.037zM30.856 32.452v.02a.719.719 0 00.144.263.875.875 0 00.215.195.984.984 0 00.274.12c.1.025.201.037.304.037a2.343 2.343 0 00.56-.068 4.013 4.013 0 00.503-.167l.376.7c-.13.08-.25.148-.359.205-.107.055-.215.1-.325.137-.11.037-.225.063-.348.079a2.98 2.98 0 01-.431.027c-.308 0-.581-.05-.82-.15a1.793 1.793 0 01-.605-.414 1.8 1.8 0 01-.373-.608c-.084-.233-.133-.387-.133-.646 0-.26.044-.504.133-.732a1.804 1.804 0 011.73-1.145c.278 0 .524.047.738.14.216.091.399.22.547.383.148.162.262.353.342.574.08.22.123.455.13.708.006.057.01.114.01.17.002.055 0 .112-.004.172h-2.608zm.817-1.292a.998.998 0 00-.328.047.638.638 0 00-.372.308c-.037.069-.065.14-.086.215h1.48a1.112 1.112 0 00-.068-.218.538.538 0 00-.325-.304.815.815 0 00-.3-.048zM36.25 31.543a.263.263 0 00-.055-.158.418.418 0 00-.154-.13.93.93 0 00-.252-.092 1.485 1.485 0 00-.336-.034.94.94 0 00-.307.055.335.335 0 00-.116.085.197.197 0 00-.045.133.3.3 0 00.01.079c.01.025.026.049.048.072a.383.383 0 00.093.065.695.695 0 00.157.044l.642.127c.233.045.428.102.585.17.157.069.284.149.38.24a.8.8 0 01.204.304.994.994 0 01.065.362c0 .203-.047.38-.143.533-.094.153-.218.2-.373.302-.152.1-.326.175-.52.225a2.336 2.336 0 01-.93.055 1.812 1.812 0 01-.28-.065 1.321 1.321 0 01-.221-.096 1.469 1.469 0 01-.178-.126h-.619v-.869h.968v.02a.295.295 0 00.061.175.507.507 0 00.15.123c.064.034.136.06.216.079.08.016.164.024.253.024.205 0 .354-.027.447-.079.094-.055.14-.124.14-.208a.228.228 0 00-.068-.168.492.492 0 00-.242-.113l-.657-.14c-.412-.08-.723-.212-.933-.396a.918.918 0 01-.314-.718c0-.171.04-.326.12-.465.08-.141.187-.26.324-.359.137-.1.296-.178.479-.232a2.07 2.07 0 01.59-.082 2.4 2.4 0 01.684.092c.09.027.167.06.233.1.068.035.129.074.181.115h.595v.95h-.882zM40.017 31.543a.263.263 0 00-.055-.158.418.418 0 00-.154-.13.93.93 0 00-.253-.092 1.485 1.485 0 00-.335-.034.94.94 0 00-.307.055.335.335 0 00-.117.085.197.197 0 00-.044.133.3.3 0 00.01.079c.01.025.025.049.048.072a.383.383 0 00.092.065.695.695 0 00.157.044l.643.127c.233.045.427.102.584.17.158.069.284.149.38.24a.8.8 0 01.205.304.994.994 0 01.065.362c0 .203-.048.3-.144.452-.093.153-.217.28-.372.383-.153.1-.326.175-.52.225a2.336 2.336 0 01-.93.055 1.812 1.812 0 01-.28-.065 1.321 1.321 0 01-.222-.096 1.46 1.46 0 01-.178-.126h-.618v-.869h.967v.02a.295.295 0 00.062.175.507.507 0 00.15.123c.064.034.136.06.215.079.08.016.164.024.253.024.205 0 .355-.027.448-.079.093-.055.14-.124.14-.208a.228.228 0 00-.068-.168.492.492 0 00-.243-.113l-.656-.14c-.413-.08-.724-.212-.933-.396a.918.918 0 01-.315-.718c0-.171.04-.326.12-.465.08-.141.188-.26.325-.359.136-.1.296-.178.478-.232a2.07 2.07 0 01.591-.082 2.4 2.4 0 01.684.092c.089.027.166.06.233.1.068.035.128.074.18.115h.595v.95h-.882z" fill="#fff"/></svg>