<!-- by TradingView --><svg width="56" height="56" xmlns="http://www.w3.org/2000/svg"><path fill="#00BBDC" d="M0 0h56v56H0z"/><path d="M29.5 12h-5.194c-.184 0-.306.151-.306.339V18h-5.627c-.186 0-.373.185-.373.372v25.29c0 .186.15.338.335.338h8.327a.336.336 0 00.335-.339v-4.324a.336.336 0 00-.335-.339h-2.317a.346.346 0 00-.345.34V41h-3V21h7.988c1.729 0 3.078 1.233 3.012 3-.063 1.68-1.145 3-2.804 3h-2.2v-2.637c0-.187-.15-.363-.334-.363h-2.248c-.185 0-.414.176-.414.363v5.334c0 .187.267.303.451.303h5.087c3.345 0 5.539-2.59 5.46-6-.078-3.31-2.307-6-5.573-6H27v-3h2.5c4.777 0 8.573 4.141 8.5 9-.072 4.774-3.88 9-8.59 9h-5.065c-.184 0-.345.19-.345.377v2.279c0 .187.16.344.345.344h5.048C35.724 36 40.938 30.417 41 24c.063-6.48-5.12-12-11.499-12z" fill="#fff"/></svg>