<!-- by TradingView --><svg xmlns="http://www.w3.org/2000/svg" width="56" height="56"><path fill="#F0F3FA" d="M0 0h56v56H0z"/><path fill-rule="evenodd" d="M10 27.16c0 1.59-1 2.2-2.7 2.2H5.7V32H5v-7h2.3c1.92 0 2.7.88 2.7 2.16zm-.7.07c0-.89-.49-1.53-1.88-1.53H5.7v2.95h1.72c1.23 0 1.88-.52 1.88-1.42zm6.7.11c0 1.74-1.75 2.18-2.19 2.18L16 32h-.9l-2.65-3c.97 0 2.83-.1 2.83-1.66 0-.93-.6-1.64-1.94-1.64H11.7V32H11v-7h2.22c2.06 0 2.78 1.08 2.78 2.34zm10.7-1.64h2.02V25H24v.7h2V32h.7v-6.3zm7.7 6.3h-.73l-.9-2.3h-2.92l-.9 2.3h-.7l2.72-7h.7l2.74 7zm-1.9-3l-1.19-3.06-1.2 3.06h2.4zm2.5 3h4v-.7h-3.3V25H35v7zm5.7 0H40v-7h.7v7zM24 28.5a3.5 3.5 0 11-7 0 3.5 3.5 0 017 0zm-.7 0a2.8 2.8 0 11-5.6 0 2.8 2.8 0 015.6 0z" fill="#4C4C4C"/><path d="M42.69 32h-.93l3.06-3.48L41.76 25h.93l3.07 3.52L42.7 32zm1.97 0h-.96l3-3.48-3-3.52h.96l2.7 3.22L50.05 25H51l-2.9 3.52L51 32h-.95l-2.7-3.16-2.7 3.16z" fill="#5BA284"/></svg>