<!-- by TradingView --><svg width="56" height="56" xmlns="http://www.w3.org/2000/svg"><path fill="#007FBE" d="M0 0h56v56H0z"/><path d="M12 23.42v.584h2v-2.005l-2 1.422zM43 32.995h2v-11h-2v11zM4 27.003L6 26c0-2.369-.446-2 3.002-2L11 23.282C11 22 9.197 22 7 22H4v5.003zM9 25.004c0 2.67.396 2.436-3 2.436L4 29v3.995h2v-3.996h2.299c1.81-.118 2.402-.284 2.701-1.325V24l-2 1.004zM17 25.52V25H15.003v7.995H17V28s0-1 1-1 1 1 1 1v4.995h2.003v-3.126c0-2.422-.014-3.378-.616-4.158-.603-.78-2.496-1.048-3.387-.192zM24 25.53v-.52H22.003V33H24v-4.992s0-1 1-1 1 1 1 1V33h2.003v-3.124c0-2.42-.014-3.375-.616-4.155-.603-.78-2.496-1.048-3.387-.192zM32.01 25.017c-1.934 0-3.008 1.265-3.008 1.985v.65H31v-.65c.291-.992 2-.708 2 0 0 .884-.234.832-2.022 1.415-1.662.707-1.976 1.605-1.976 2.582 0 .784.093 1.164.48 1.566.32.33.887.434 1.518.434 1.017 0 1.69-.486 2-.619V33h2v-3.38c0-2.618.151-4.603-2.99-4.603zm.99 5.796c0 .702-.712.74-.712.74-.311 0-.962 0-.962-.74v-.62c0-.677.962-1.194 1.674-1.194v1.814zM36 29.004c0 3.016.726 3.998 3 3.998s3-.944 3-3.003h-2c0 .895-.129 1.612-1 1.612-1 0-.99-.867-1-2.607-.01-1.74.146-2.378 1-2.378.621 0 1 .321 1 1.373h2c0-1.985-.838-3.004-3-3.004-2.66 0-3 1.63-3 4.01zM46 28.953c0 2.52.352 4.216 3.35 4.026 1.738-.088 2.365-1.453 2.65-2.98h-1.874c0 .84-.114 1.523-1.126 1.523-1.012 0-1.001-1.098-1.001-1.098V29l2.127-.008L52 29c0-2.108-.264-4.003-3-4.003-2.565 0-3 1.875-3 3.956zm3-2.574c1.001-.014 1.008.705 1.008 1.62h-2.009c0-.887 0-1.605 1.001-1.62zM12 32.995h2v-8h-2v8z" fill="#fff"/></svg>