<!-- by TradingView --><svg width="56" height="56" xmlns="http://www.w3.org/2000/svg"><path fill="#F0F3FA" d="M0 0h56v56H0z"/><path d="M38.469 31.204c-.665-1.928.585-4.255 1.396-4.405 0 0-1.988 3.156 0 4.405 1.91 1.199 4.2.25 4.832-.33 1.471-1.348 3.194-4.677.888-8.524C43.28 18.502 37.868 17.18 35.451 17c2.763-.045 9.178.962 11.412 5.349 2.234 4.386.71 7.596-.611 8.854-3.438 3.509-7.451.962-7.783 0z" fill="#367E3D"/><path d="M40.636 26.03a5.503 5.503 0 00-.218-.018c-2.013.004-7.831 3.92-4.479 9.378 2.787 4.537 8.285 2.974 10.686 1.626-2.63 2.157-5.84 2.246-7.828 1.705-2.114-.7-6.045-3.519-4.824-7.96 1.172-4.262 4.655-4.86 6.445-4.75.079 0 .152.006.218.018z" fill="#367E3D"/><path d="M32 33.004h-2c.32-4.874 3.77-7.038 5.453-7.51-3.368 2.206-3.747 5.926-3.453 7.51z" fill="#07446A"/><path d="M41.949 24.836c2.46 1.277 2.148 3.784 1.685 4.878 1.064-2.128.798-4.264-1.685-5.89-2.483-1.626-6.297-.614-6.445-.555-.396.159-3.595.815-5.705 4.524-1.303 2.289-2.022 5.42-2.022 6.754.113-.74.938-2.724 1.282-3.71 1.017-2.79 3.627-4.95 4.14-5.291 1.302-.866 5.675-2.306 8.75-.71zM15 33.004v-8.007h2l3 5.006v-5.006h2v8.007h-2L17 28v5.004h-2zM8 33.004v-8.007h1.841c1.339 0 4.124 0 4.159 2.61.028 2.088-1.77 2.789-4 2.61v2.787H8z" fill="#07446A"/><path d="M10.002 28.954v-2.618c1.002 0 2 .056 2 1.337 0 1.28-.76 1.28-2 1.28z" fill="#fff"/><path d="M23 33v-8h2l3.64 6.358L28 33l-3-5v5h-2z" fill="#07446A"/></svg>