<!-- by TradingView --><svg width="56" height="56" xmlns="http://www.w3.org/2000/svg"><path fill="#246EB7" d="M0 0h56v56H0z"/><path d="M18 32.024v-8.317h2.284c2.371 0 3.557.85 3.557 2.55 0 1.732-1.186 2.598-3.557 2.598H20v3.169h-2zM20 25v2.58h.163c.629 0 1.109-.092 1.44-.274.33-.191.496-.537.496-1.037 0-.477-.157-.81-.472-1.001-.315-.199-.803-.268-1.464-.268H20zm11.794-1.055l-.121 1.49c-.613-.31-1.36-.465-2.239-.465-.895 0-1.613.258-2.154.774-.532.517-.798 1.216-.798 2.098 0 .881.254 1.584.762 2.109.517.516 1.234.774 2.154.774.412 0 .602-.119.602-.119v-2.073h-1.413V27h3.425v4.667c-.863.293-1.811.44-2.844.44-1.323 0-2.408-.385-3.255-1.155-.839-.779-1.258-1.82-1.258-3.122 0-1.295.431-2.32 1.294-3.074.864-.755 2.03-1.133 3.497-1.133.944 0 1.727.108 2.348.322zM34 32v-8.293h5V25h-3v2h2.59v1.437H36v2.17l3 .023V32h-5zM9.199 30.222l14.14-18.853-14.14 14.14c-2.03 2.03-1.1 3.613 0 4.713zM25.077 9.206l18.858 14.133L29.79 9.204c-2.031-2.03-3.614-1.099-4.713.002zM46.433 25.52L32.452 44.49l14.02-14.258c2.014-2.047 1.07-3.622-.039-4.713zM30.436 47.19l-18.88-14.103L25.722 47.2c2.034 2.027 3.616 1.093 4.713-.009z" fill="#fff"/></svg>