<!-- by TradingView --><svg width="56" height="56" xmlns="http://www.w3.org/2000/svg"><path fill="#C52033" d="M0 0h56v56H0z"/><path d="M44.371 19.631c1.485 1.405 2.288 3.122 2.69 5.013.785 4.319-1.852 8.586-6.479 11.673-1.205-.312-6.391-1.37-11.664 2.047-4.139-.104-7.753.85-9.028 1.231-.454.121-.751.208-.751.208-.332.07-.472.139-.472.139s.769.555 3.196.989c1.048.242 2.41.45 3.859.45.541.018 1.083.018 1.624 0a32.781 32.781 0 001.816-.103c2.48-.209 4.82-.712 6.967-1.457 7.387-2.515 12.31-7.788 11.805-13.547-.192-2.584-1.45-4.77-3.563-6.643zm-25.634 20.31c3.143-.52 6.356.504 7.317.85-.07 0-4.156.036-7.317-.85zm12.59.192a16.2 16.2 0 01-.978.19l-.576.105c-3.143-.954-6.338-.99-8.33-.868-.506.018-.942.052-1.291.087 2.165-.434 3.946-.572 5.22-.59 2.393.018 4.82.451 6.462.972a3.71 3.71 0 00-.507.104zm-.192-1.613c1.624-1.11 4.907-2.828 9.22-2.203h0c-1.1-.07-4.54-.087-7.648 2.463a24.715 24.715 0 00-1.572-.26zm3.667.624c1.99-2.15 4.54-2.619 5.623-2.723-1.642 1.075-3.545 1.995-5.623 2.723zm-9.097-23.433c6.111-1.11 11.839-.347 15.89 1.873-3.877-2.22-8.993-3.33-14.738-2.827-11.018.972-19.418 7.58-18.771 15.004.227 2.601 1.484 4.787 3.597 6.66-1.485-1.405-2.288-3.122-2.69-5.013-1.257-6.938 6.234-13.858 16.712-15.697zm8.8 9.54c.629-.035 1.013.277 1.135.676.07.243.227.295.472.191.471-.173.978-1.18.541-1.786-.262-.347-1.065-.608-2.2-.4-1.624.296-2.864 1.37-2.864 2.793 0 1.318 1.223 1.96 1.869 2.446.646.503.838.85.716 1.405-.105.45-.472.832-1.1.884-.716.07-1.135-.416-1.135-.971.017-.312-.175-.33-.455-.226-.401.174-.908.712-.977 1.336-.035.399.087.677.349.902.384.364 1.047.555 2.13.382 1.834-.313 3.196-1.718 3.196-3.175 0-1.248-.943-1.7-1.624-2.202-.681-.503-1.013-.85-.996-1.353.053-.538.42-.867.943-.902zm5.658-4.58c-.314.296-.681.937-.96 1.614-.07.19-.175.433-.297.728-.524.226-.978.451-1.17.59-.402.295-.576.66-.524.989.07.347.419.33.82.173.07-.035.158-.07.263-.104a22.128 22.128 0 00-.524 1.717c-.56 2.151-.996 5.048 1.24 5.238 1.414.105 2.41-1.18 2.863-2.029.21-.399.332-.884.088-1.04-.158-.105-.35-.018-.63.277-.226.243-1.012 1.197-1.553 1.11-.664-.087-.751-1.162.105-4.18.192-.694.384-1.318.576-1.89.28-.088.559-.174.855-.26.786-.21 2.061-.452 2.445-.487.472-.052.559-.52 0-.745-.419-.174-1.414-.243-2.794.034.402-1.11.716-1.82.821-2.064.157-.347 0-.537-.314-.468-.315.052-.96.468-1.31.798zM28.848 37.948a15.21 15.21 0 013.527-1.7 2.967 2.967 0 00-3.842-.59 2.88 2.88 0 00-1.362 2.29c.542-.017 1.1-.017 1.677 0zm-1.537-16.53c-.035-2.705-3.457-3.468-6.828-2.74-3.23.694-6.635 3.105-7.02 5.845-.348 2.446 1.625 2.585 1.991 2.533.245-.035.28-.174.175-.364-.14-.26-.489-.902 0-2.377.489-1.491 2.27-3.781 5.309-4.336 3.003-.538 4.313.711 3.736 2.983-.541 2.168-2.706 3.903-4.75 4.77-.698.295-1.326.486-1.798.607.052-.173.122-.33.175-.503 1.414-3.798 2.567-5.828 2.811-6.313.192-.4-.035-.625-.524-.434-.524.208-1.641.954-2.427 2.255-.786 1.3-2.183 4.024-3.213 6.955-1.013 2.932-1.292 5.221-.471 6.314.314.416.733.607.873.624.244.052.489.07.576-.572.105-.711.68-3.695 1.676-6.869.856-.156 2.288-.538 3.894-1.353 2.969-1.474 5.85-4.163 5.815-7.024zm3.335 7.945c.681-2.74-.593-4.111-2.392-4.007-2.06.139-4.33 2.047-4.907 4.943-.628 3.105 1.03 4.215 2.794 3.99 1.677-.209 3.702-1.77 4.505-4.926zm-4.365 3.503c-.838.052-1.292-1.023-.646-3.14.506-1.647 1.38-2.896 2.217-2.983.873-.086 1.188.885.594 3.001-.559 2.012-1.432 3.07-2.165 3.122zm23.678-6.747c-.733-8.377-11.106-14.05-23.242-12.991-12.136 1.04-21.425 8.412-20.674 16.807.733 8.326 11.158 13.997 23.294 12.94 12.136-1.059 21.356-8.43 20.622-16.756zM29.267 42.023c-11.612 1.006-21.6-4.301-22.299-12.176-.699-7.874 8.207-14.882 19.82-15.888 11.611-1.006 21.53 4.354 22.228 12.246.699 7.874-8.154 14.812-19.75 15.818zm1.117-7.302c.332.018.646.104.96.208l-.296-.884-.664.676zm2.41 1.249l.472-1.18-1.205.504c.28.208.523.433.733.676zm-6.146 1.925a4.43 4.43 0 01.21-.954l-1.346.174 1.136.78zm2.898-3.14l-.786-.884-.157 1.18c.315-.14.629-.243.943-.295zm-1.641.73l-.873-.278.21.988a6.3 6.3 0 01.663-.71z" fill="#fff"/></svg>