<!-- by TradingView --><svg width="56" height="56" xmlns="http://www.w3.org/2000/svg"><path fill="url(#paint0_linear)" d="M0 0h56v56H0z"/><path d="M47.508 21.184c-.048.017-5.405 1.989-10.691 5.271-2.494 1.539-4.583 3.135-6.24 4.74a9.517 9.517 0 01-1.663-.35c1.037-.524 1.786-1.113 2.24-1.475 1.364-1.087 2.151-2.559 2.151-3.86.002-1.192-.355-2.116-1.11-2.848-1.492-1.461-3.952-1.374-4.194-1.367-.24-.007-2.696-.094-4.195 1.367-.751.732-1.103 1.654-1.103 2.849 0 1.3.785 2.772 2.147 3.859.458.362 1.2.95 2.238 1.472a9.15 9.15 0 01-1.664.353c-1.652-1.605-3.746-3.201-6.233-4.74-5.292-3.28-10.65-5.254-10.696-5.271L8 21l.07.526c.005.075.252 1.897 1.646 4.015 1.286 1.951 3.824 4.528 8.644 5.733 2.747.687 5.017.8 6.851.615.325.318.62.635.904.955.59.666 1.11 1.337 1.542 2.004a10.337 10.337 0 00-1.368 5.153c.003.08.057 1.807.715 2.522.336.374.595.477.998.477.408 0 .66-.1.997-.477.66-.718.72-2.442.72-2.522a10.425 10.425 0 00-1.372-5.153c.44-.666.949-1.338 1.544-2.004.285-.32.586-.635.901-.955 1.836.184 4.107.072 6.853-.615 4.819-1.205 7.361-3.782 8.644-5.733 1.395-2.114 1.638-3.94 1.647-4.015l.063-.526-.49.184zm-28.994 9.459c-4.621-1.156-7.043-3.609-8.269-5.457a11.001 11.001 0 01-1.432-3.185c1.484.581 5.787 2.367 10.046 5.01 2.253 1.392 4.166 2.82 5.71 4.258-1.86.112-3.921-.089-6.055-.626zm6.695-1.744c-1.205-.966-1.9-2.296-1.9-3.388 0-1 .287-1.818.904-2.42 1.333-1.302 3.755-1.179 3.777-1.179l.014-.22.012.22c.022 0 2.44-.123 3.769 1.18.62.601.906 1.42.906 2.419 0 1.092-.692 2.422-1.897 3.386a11.513 11.513 0 01-2.793 1.622 11.635 11.635 0 01-2.792-1.62zm4.187 11.208c0 .028-.019 2.748-1.395 2.748-1.376 0-1.395-2.72-1.395-2.748.013-1.544.48-3.118 1.395-4.689.913 1.571 1.382 3.145 1.395 4.689zm.024-7.703a14.627 14.627 0 00-1.416 1.862 15.965 15.965 0 00-1.417-1.862 30.67 30.67 0 00-.574-.62A9.678 9.678 0 0028 31.25c.593.23 1.26.419 1.99.534-.194.21-.394.417-.571.62zm16.337-7.218c-1.221 1.848-3.641 4.301-8.27 5.457-2.133.537-4.194.738-6.056.626 1.55-1.437 3.462-2.866 5.713-4.258C41.4 24.37 45.71 22.582 47.19 22c-.167.661-.568 1.865-1.433 3.185z" fill="#fff"/><path d="M25.496 25.122c0 .446.228.077.792.077.591 0 .798.37.8-.077a.806.806 0 00-.8-.806.798.798 0 00-.792.806zM29.642 25.199c.585 0 .794.37.794-.077a.796.796 0 10-1.593 0c.003.446.232.077.799.077z" fill="#fff"/><path d="M29.673 22.875c-1.278-.045-1.71.598-1.71.598v.488l.005-.002v.164c.012-.017.551-.642 1.527-.642 1.168 0 1.69.79 1.69 1.77 0 1.314-1.147 3.004-3.222 3.739-2.067-.739-3.219-2.425-3.219-3.738-.002-.984.524-1.77 1.698-1.77.972 0 1.51.626 1.524.64l-.003-.16v-.489s-.42-.643-1.703-.598c-1.388.044-2.097 1.248-2.097 2.349 0 1.58 1.506 3.588 3.803 4.235 2.293-.647 3.801-2.656 3.801-4.235 0-1.101-.709-2.305-2.094-2.35" fill="#fff"/><path d="M27.536 26.184c0 .364.257 1.018.43 1.018.171 0 .429-.654.429-1.018 0-.356-.191-.48-.432-.48-.234 0-.427.125-.427.48z" fill="#fff"/><defs><linearGradient id="paint0_linear" x1="10.418" y1="9.712" x2="68.147" y2="76.017" gradientUnits="userSpaceOnUse"><stop stop-color="#1A1E21"/><stop offset="1" stop-color="#06060A"/></linearGradient></defs></svg>