<!-- by TradingView --><svg width="56" height="56" xmlns="http://www.w3.org/2000/svg"><path fill="#F0F3FA" d="M0 0h56v56H0z"/><path d="M35.231 22.377c.49.386.99.9 1.426 1.372l.05.056.319.35v-.021c0-1.837-.998-3.433-2.46-4.242l.088.307.045.138.04.134c.168.566.332 1.195.415 1.774l.008.057.005.024.064.05zm-16.234 1.665c0 .165.011.327.025.486l.417-.502a10.59 10.59 0 011.304-1.317l.035-.028.02-.02.013-.074c.116-.787.23-1.235.43-2.002l.2-.776c-1.455.814-2.444 2.403-2.444 4.232zm14.804 4.481l.069.12.015.026.156-.063a4.704 4.704 0 002.293-1.989l.043-.075.02-.036-.071-.108c-.01-.016-.014-.026-.025-.04l-.03-.046-.014-.024-.06-.09c-1.729-2.56-4.58-4.255-7.817-4.323l-.086-.002h-.04l-.056.114a4.945 4.945 0 00-.4 3.069l.022.114.01.056.165-.006c.07-.002.134-.005.196-.005 2.387 0 4.472 1.329 5.61 3.308zm-7.125-1.07a6.899 6.899 0 01-.848-3.322c0-1.261.337-2.44.919-3.447l.056-.099.027-.049-.123-.113a4.563 4.563 0 00-2.758-1.186l-.08-.006-.044-.003-.059.116a10.33 10.33 0 00-1.172 4.785 10.347 10.347 0 001.052 4.55l.002.002.018.038.039.078.018.04.125-.007a4.563 4.563 0 002.78-1.12l.086-.074.04-.037-.063-.12-.015-.026zM13.878 24.03a10.275 10.275 0 002.407 6.623l.29.348.056-.46a12.266 12.266 0 011.011-3.677l.027-.052.012-.027-.036-.087a6.94 6.94 0 01-.53-2.667c.002-3.726 2.92-6.745 6.528-6.745 2.089 0 3.942 1.014 5.138 2.591l.037.046.019.026.086.008c1.273.08 2.488.37 3.617.842l.412.172-.154-.43c-1.376-3.85-4.952-6.594-9.155-6.602-5.392.011-9.753 4.52-9.765 10.09zm9.776 6.901c-.07.332-.114.677-.114 1.032.002.725.159 1.412.437 2.028l.038.086.017.038.134-.007c3.287-.185 6.138-2.042 7.773-4.765l.047-.073.023-.043-.078-.108a4.658 4.658 0 00-2.44-1.763l-.096-.029-.048-.016-.08.138c-1.1 1.937-3.11 3.252-5.427 3.323l-.103.002-.05.003-.033.154zm8.818 3.293l.134-.004c5.276-.149 9.504-4.6 9.515-10.088-.011-5.574-4.374-10.083-9.764-10.096a9.595 9.595 0 00-1.492.123l-.452.074.363.288a12.039 12.039 0 012.58 2.876l.03.048.012.024.084.017c3.064.549 5.395 3.302 5.401 6.626v.021c-.001 3.377-2.402 6.178-5.537 6.668l-.059.01-.024.004-.051.073a12.051 12.051 0 01-2.638 2.816l-.367.28.45.082c.473.088.956.139 1.45.154l.159.004h.206zm-4.526 1.047l-.04-.017-.027-.01-.071.029c-.563.222-1.257.407-1.873.542l-.414.089a4.54 4.54 0 002.67.87c.876 0 1.694-.253 2.396-.687l-.77-.204-.091-.025a16.23 16.23 0 01-1.778-.585l-.002-.002zm.245 6.784l.07.002.177-.005c4.125-.115 7.61-2.862 8.938-6.679l.157-.455-.424.197a11.172 11.172 0 01-3.696.997l-.057.007-.027.001-.051.067c-1.197 1.54-3.03 2.526-5.087 2.526-3.608 0-6.527-3.022-6.529-6.75 0-.763.122-1.498.348-2.177l.02-.06.008-.027-.04-.076a12.197 12.197 0 01-1.16-3.756l-.07-.47-.282.374a10.294 10.294 0 00-2.06 6.19c.01 5.491 4.238 9.948 9.514 10.09l.16.004h.09zm4.166-29.96c6.431 0 11.642 5.388 11.643 12.037 0 3.72-1.635 7.044-4.2 9.255l-.038.03-.022.02-.01.078C38.995 39.425 34.11 44 28.19 44h-.06c-5.816-.029-10.623-4.472-11.453-10.248l-.013-.064-.003-.023-.063-.05c-2.794-2.2-4.596-5.67-4.598-9.581.002-6.649 5.213-12.037 11.643-12.037 1.558 0 3.047.315 4.408.89l.044.021.023.01.073-.03a11.327 11.327 0 014.166-.794z" fill="#373535"/><path d="M13.877 24.029c.005 2.537.915 4.85 2.406 6.621l.292.347.054-.457a12.268 12.268 0 011.015-3.677l.023-.054.013-.027-.036-.086a6.982 6.982 0 01-.531-2.668c.002-3.724 2.924-6.745 6.528-6.747 2.09.002 3.943 1.016 5.14 2.593l.037.046.018.026.086.006c1.272.081 2.489.374 3.617.843l.413.173-.154-.432c-1.377-3.85-4.95-6.592-9.155-6.598-5.392.008-9.753 4.518-9.766 10.09zm9.777 6.9c-.071.331-.114.677-.114 1.031a4.94 4.94 0 00.437 2.029l.04.084.015.041.134-.011c3.286-.181 6.137-2.038 7.772-4.762l.048-.074.023-.041-.077-.112a4.682 4.682 0 00-2.44-1.761l-.098-.03-.047-.015-.08.137c-1.103 1.936-3.111 3.253-5.427 3.324l-.105.003-.05.002" fill="#4598D2"/><path d="M26.677 27.451a6.91 6.91 0 01-.846-3.323c0-1.26.336-2.44.919-3.446l.055-.099.028-.048-.123-.113a4.536 4.536 0 00-2.758-1.186l-.08-.007-.043-.002-.061.116a10.35 10.35 0 00-1.17 4.784 10.35 10.35 0 001.051 4.551l.019.038.04.08.017.038.126-.006a4.552 4.552 0 002.78-1.123l.086-.073.042-.035-.065-.12-.017-.024v-.002zm5.8 6.768l.132-.003c5.276-.147 9.504-4.601 9.513-10.088-.01-5.575-4.372-10.084-9.76-10.093a9.423 9.423 0 00-1.494.122l-.452.072.361.289a11.977 11.977 0 012.58 2.877l.03.048.015.022.083.018c3.062.55 5.394 3.302 5.403 6.626v.02c-.002 3.38-2.405 6.177-5.541 6.67l-.057.008-.026.005-.048.075a12.049 12.049 0 01-2.639 2.813l-.367.28.449.083c.472.086.956.14 1.452.153l.158.003" fill="#FF3818"/></svg>