<!-- by TradingView --><svg width="56" height="56" xmlns="http://www.w3.org/2000/svg"><path fill="#005DAB" d="M0 0h56v56H0z"/><path d="M12.554 20.45c1.074 0 1.677.615 1.809 1.846.01.144.016.294.016.45 0 1.475-.586 2.165-1.76 2.254H11v-4.55h1.554zM13 30c-.066-.277-.232-.444-.462-.466H11V25.51h1.719c1.852 0 3.041-.484 3.567-1.616.175-.377.263-.793.263-1.247 0-1.054-.46-1.809-1.38-2.263-.516-.255-1.14-.383-1.875-.383H8v.45h1v9.084H8V30h5zM26.467 30c0-.255-.077-.416-.23-.45a.778.778 0 00-.181-.016h-.51L21.7 20h-1.02l-3.616 9.534H16V30h3.003c0-.255-.077-.416-.23-.45a.92.92 0 00-.181-.016h-.871l1.178-3.031h3.32l1.256 3.031H22.34V30h4.127zm-4.444-3.996H19.08L20.565 22l1.458 4.004zM32.349 30v-.466H31v-4.037h1.086L34.392 30H37c0-.244-.037-.4-.18-.433a1.184 1.184 0 00-.197-.016h-.345l-2.269-4.31c1.118-.3 1.83-.898 2.137-1.797.088-.277.132-.554.132-.832 0-.832-.362-1.497-1.085-1.996-.603-.41-1.337-.616-2.203-.616H28v.45h1v9.084h-1V30h4.349zm-.181-9.55c.888 0 1.37.441 1.677 1.273.11.3.155.621.155.965 0 .887-.27 1.536-.83 1.947-.295.21-.52.363-.904.363H31v-4.549h1.168zM42 30c-.066-.277-.214-.444-.444-.466H41v-3.96l.753-.582L45 30h3c-.066-.277-.214-.444-.444-.466h-.246l-4.11-5.89 2.646-2.446c.45-.433.79-.671 1.02-.715.087-.023.17-.034.246-.034.274-.089.422-.238.444-.449H45v.45h.846L41 24.808v-4.36h1V20h-4v.45h1v9.084h-1V30h4zM11.742 32.222h.7v3.424l-3.087-3.641H8v.217h.682v4.553H8V37h1.756c-.034-.134-.11-.215-.23-.225h-.494V33.15L12.325 37h.466v-4.778h.682v-.217h-1.73v.217zM18.948 37c0-.124-.04-.194-.12-.21a.426.426 0 00-.093-.008h-.264L16.483 32h-.529l-1.883 4.782h-.545V37h1.552c0-.124-.04-.194-.12-.21a.504.504 0 00-.094-.008h-.452l.623-1.548h1.722l.64 1.548h-.589V37h2.14zm-2.293-2h-1.526l.765-1.976.76 1.976zM22.834 37c-.045-.134-.12-.207-.221-.218H22v-4.564h.289c.414 0 .71.199.886.596.029.065.054.132.077.202l.222.67h.247L23.687 32h-4.348l-.043 1.685h.256l.222-.669c.136-.42.355-.672.656-.758.091-.027.193-.04.307-.04H21v4.564h-.826V37h2.66zM26.71 37c-.034-.134-.11-.223-.23-.234H26v-4.548h.71V32h-2.412v.218H25v4.548h-.702V37h2.413zM29.547 32C28.129 32 27 32.999 27 34.476 27 35.964 28.1 37 29.547 37 30.965 37 32 35.974 32 34.508 32 33.018 30.994 32 29.547 32zm0 4.766c-1.127 0-1.549-1.273-1.549-2.258 0-1.026.33-2.29 1.549-2.29 1.305 0 1.453 1.272 1.453 2.258 0 .963-.253 2.29-1.453 2.29zM36.491 32.218h.7v3.428L34.103 32h-1.355v.218h.681v4.557h-.681V37h1.756c-.034-.134-.111-.215-.23-.225h-.495v-3.63L37.088 37h.452v-4.782h.682V32H36.49v.218zM43.705 37c0-.124-.04-.194-.12-.21a.426.426 0 00-.093-.008h-.264L41.23 32h-.529l-1.873 4.782h-.546V37h1.552c0-.124-.04-.194-.12-.21a.504.504 0 00-.093-.008h-.452l.6-1.546h1.722l.662 1.546h-.589V37h2.14zm-2.316-2h-1.526l.78-2 .746 2zM48 37v-1.71h-.222l-.213.694c-.12.376-.292.615-.52.718-.12.053-.258.08-.418.08L46 36.79v-4.564h.627v-.218h-2.153v.218H45v4.564h-.526v.218L48 37z" fill="#fff"/><path fill="#E8A713" d="M8 15h40v2H8zM8 40h40v1H8z"/></svg>