<!-- by TradingView --><svg width="56" height="56" xmlns="http://www.w3.org/2000/svg"><path fill="#062440" d="M0 0h56v56H0z"/><path d="M47.57 31.44c0 .485-1.28.878-2.86.878-1.58 0-2.86-.393-2.86-.878 0-.486 1.28-.88 2.86-.88 1.58 0 2.86.394 2.86.88zM8 24v8H6V22h3.574c.358 0 .908 0 1.752.535 1.054.669 1.501 2.121 1.555 2.503.053.382.25 1.682-.787 3-.829 1.055-1.983.962-2.52.962H8.163l.66-2h.751c.608 0 1.605-.07 1.426-1.58-.15-1.274-.943-1.395-1.426-1.42H8zM15 32V22h3.332c1.565-.09 3.742 1.144 3.668 3.459-.07 2.158-1.256 3.038-2.113 3.497C20.53 30 22 32 22 32h-2l-2-3h-.66l.42-2h.715c.643 0 1.632-.05 1.525-1.541C19.907 24.17 19.1 24 18.332 24H17v8h-2zM26 22.03V32h-2v-9.236l2-.733zM30 25.076V32h-2V22h2l3 4.576L36.131 22H38v10h-2v-6.924l-3 5-3-5zM42.907 27.599c.167-.774 1.235-2.228 1.85-3.083l.006.007c.62.857 1.673 2.309 1.86 3.076.124.515-.09 2.02-1.866 2.063-1.761-.043-1.977-1.472-1.85-2.063z" fill="#fff"/><path d="M44.764 33.656c2.655 0 4.807-.693 4.807-1.548 0-.357-.377-.687-1.01-.949.892.302 1.439.71 1.439 1.16C50 33.246 47.664 34 44.781 34c-2.882 0-5.218-.753-5.218-1.681 0-.417.469-.797 1.245-1.09-.537.25-.852.552-.852.88 0 .854 2.152 1.547 4.807 1.547z" fill="#fff"/><path d="M44.768 32.8c1.928 0 3.49-.495 3.49-1.104 0-.255-.273-.49-.733-.677.648.215 1.045.506 1.045.827 0 .662-1.696 1.199-3.789 1.199-2.092 0-3.788-.537-3.788-1.2 0-.296.34-.567.904-.776-.39.178-.619.394-.619.627 0 .61 1.563 1.103 3.49 1.103z" fill="#fff"/><path fill-rule="evenodd" d="M44.764 32.166c2.615 0 4.736-2.276 4.736-5.083 0-2.807-2.12-5.083-4.736-5.083-2.616 0-4.737 2.276-4.737 5.083 0 2.807 2.12 5.083 4.736 5.083zm0-1.682c1.747 0 3.163-1.523 3.163-3.401 0-1.879-1.416-3.401-3.163-3.401-1.748 0-3.164 1.522-3.164 3.4 0 1.88 1.416 3.402 3.163 3.402z" fill="#fff"/></svg>