<!-- by TradingView --><svg width="56" height="56" xmlns="http://www.w3.org/2000/svg"><path fill="#00A4E4" d="M0 0h56v56H0z"/><path d="M50 32.5c0 .831-.669 1.5-1.5 1.5s-1.5-.669-1.5-1.5.669-1.5 1.5-1.5 1.5.669 1.5 1.5z" fill="#F89728"/><path d="M17 34h3v-3.576c-.992.092-2.093.167-3 .23V34zm5.774 0h3.55l-2.7-3.968c-.985.127-1.955.23-2.896.323L22.774 34zm22.082-8.701l1.008-2.01c-.76.467-1.55.91-2.366 1.325.501.11.969.345 1.358.685zm-1.122 1.486l-.727-.225c-.495-.161-1.267-.415-1.267-1.071 0-.017 0-.035.005-.052-.946.42-1.921.812-2.918 1.163.248 1.56 1.346 1.987 2.918 2.442.609.178 1.73.46 1.73 1.278 0 .789-.715 1.129-1.38 1.129-.975 0-1.82-.519-2.536-1.158l-1.223 2.35c1.122.8 2.474 1.359 3.86 1.359 1.105 0 2.254-.392 3.116-1.135.873-.76 1.138-1.906 1.138-3.023-.005-1.808-1.189-2.597-2.716-3.057zm-8.683 1.042c0 1.934-1.397 3.345-3.099 3.345-1.273 0-2.372-.789-2.85-1.998-.998.19-1.995.357-2.976.507.716 2.608 2.942 4.318 5.82 4.318 3.522 0 6.07-2.556 6.07-6.19 0-.305-.029-.604-.074-.904-.952.323-1.921.617-2.896.893.005.012.005.017.005.029zM8 31v3h3v-3H8zm20.854-3.213c0 .051 0 .109.005.16h.006c-.006-.068-.006-.137-.011-.207v.047zm-3.578-1.964c0-2.395-1.646-3.823-3.815-3.823H17v7.376c1.955-.133 4.32-.329 6.596-.616 1.093-.507 1.68-1.647 1.68-2.937zm-2.91.104c0 1.635-1.108 2.073-2.038 2.073h-.276v-4h.276c.93 0 2.037.436 2.037 1.823v.104zM42.555 22c-2.028 0-3.538 1.347-3.758 3.334 2.187-.784 4.283-1.71 6.193-2.805-.795-.282-1.674-.529-2.434-.529z" fill="#fff"/><path d="M31.953 22c-3.162 0-6.069 2.378-6.069 5.77l.056.668a79.014 79.014 0 002.92-.49c0-.052-.006-.104-.006-.161v-.104c0-1.549 1.397-2.96 3.099-2.96 1.284 0 2.394.807 2.862 1.866.952-.259 1.899-.547 2.828-.852C36.76 23.468 34.432 22 31.953 22zm-15.597 4.065c0-2.574-1.628-4.065-3.99-4.065H8v8l6.457-.313c1.24-.518 1.9-1.796 1.9-3.622zm-3.02.104c0 1.37-.97 1.831-2 1.831H11v-4h.336c1.104 0 2 .654 2 2.065v.104z" fill="#fff"/></svg>