<!-- by TradingView --><svg width="56" height="56" fill="none" xmlns="http://www.w3.org/2000/svg"><path fill="#F0F3FA" d="M0 0h56v56H0z"/><path d="M11 25h.72v1.126a2.49 2.49 0 01.72-.811c.292-.21.65-.315 1.072-.315.073 0 .145.006.214.018.069.012.14.026.213.043l-.085.714a.884.884 0 00-.28-.048c-.318 0-.592.05-.824.151-.232.101-.423.24-.573.418a1.75 1.75 0 00-.335.624c-.074.238-.11.495-.11.77V31H11v-6zM14 28c0-.436.075-.837.223-1.204a2.752 2.752 0 011.568-1.574c.37-.148.773-.222 1.21-.222.435 0 .837.074 1.203.222.355.141.679.353.95.623.27.272.483.595.624.951.148.367.222.768.222 1.204 0 .436-.074.838-.222 1.203-.141.356-.354.68-.624.952-.271.27-.595.482-.95.623A3.182 3.182 0 0117 31c-.436 0-.84-.074-1.21-.222a2.752 2.752 0 01-1.567-1.575A3.174 3.174 0 0114 28zm.74 0c0 .32.052.624.155.907.098.276.251.528.45.741.203.214.447.384.717.5.28.124.593.186.938.186.346 0 .658-.062.939-.186a2.19 2.19 0 00.715-.5c.2-.213.353-.465.45-.74.105-.292.157-.6.155-.908 0-.321-.051-.623-.154-.908a2.126 2.126 0 00-1.167-1.24 2.298 2.298 0 00-.938-.186c-.345 0-.659.062-.938.186a2.12 2.12 0 00-1.166 1.24 2.635 2.635 0 00-.155.908zM4 25h.727v1.152h.024c.111-.195.255-.37.424-.514a2.54 2.54 0 01.552-.36c.199-.095.408-.166.623-.21A3.004 3.004 0 0110 28.01C10 29.696 8.697 31 7 31c-.863 0-1.806-.348-2.249-1.13h-.024V34H4v-9zm.654 3.011a2.336 2.336 0 00.679 1.655c.433.433 1.015.665 1.667.665 1.308 0 2.281-1.037 2.273-2.32 0-1.272-.998-2.342-2.281-2.342-.331 0-.638.062-.92.186a2.33 2.33 0 00-1.417 2.156z" fill="#5C558C"/><path d="M34 25h.788v1.136c.342-.722 1.26-1.136 2.035-1.136C38.269 25 39 26.094 39 27.41V31h-.727v-3.554c0-.94-.435-1.792-1.45-1.792-1.27 0-2.035 1.075-2.035 2.29V31H34V25zM32.755 29.778c-.283.436-.632.749-1.048.938-.416.19-.875.284-1.375.284a2.94 2.94 0 01-1.163-.222 2.622 2.622 0 01-.896-.623 2.743 2.743 0 01-.576-.952 3.537 3.537 0 01-.2-1.215c0-.428.069-.823.206-1.186.138-.362.331-.676.582-.944.25-.268.551-.482.884-.63.34-.152.715-.228 1.127-.228.428 0 .805.076 1.133.228a2.482 2.482 0 011.326 1.463c.113.321.17.646.17.976v.518h-4.7c0 .157.03.356.09.599s.172.48.334.71c.161.23.377.428.648.592.27.165.62.248 1.047.248.372 0 .731-.091 1.079-.272.347-.181.613-.428.8-.741l.532.457zm-.557-2.26c0-.255-.051-.493-.152-.716-.1-.22-.24-.419-.412-.586a1.966 1.966 0 00-1.375-.55c-.396 0-.724.083-.987.247-.262.165-.47.354-.624.568a2.275 2.275 0 00-.327.624c-.065.202-.097.34-.097.414h3.974zM26.443 30.621c0 .726-.1 1.313-.302 1.76C25.648 33.474 24.694 34 23.524 34c-1.035 0-2.134-.398-2.773-1.249l.57-.557c.494.73 1.333 1.128 2.204 1.123 1.098 0 1.595-.423 1.895-1.056.093-.198.162-.397.206-.595.045-.198.07-.386.08-.563.007-.178.011-.32.011-.43v-.81h-.024a2.272 2.272 0 01-.854.834c-.36.203-.782.304-1.266.304a2.965 2.965 0 01-2.114-.88 3.11 3.11 0 01-.642-.955A2.9 2.9 0 0120.581 28c0-.413.08-.802.236-1.164a3.035 3.035 0 011.593-1.596 2.85 2.85 0 011.163-.24c.484 0 .907.101 1.266.303.35.194.646.483.854.836h.024V25h.727v5.622zm-.702-2.62a2.351 2.351 0 00-.648-1.64 2.237 2.237 0 00-.703-.494 2.081 2.081 0 00-.866-.183 2.078 2.078 0 00-.866.183 2.236 2.236 0 00-1.175 1.229 2.338 2.338 0 00-.176.905c0 .32.059.622.177.905a2.236 2.236 0 001.175 1.229c.273.122.568.185.865.183.298.002.593-.06.866-.184a2.244 2.244 0 001.176-1.228c.117-.286.176-.594.175-.905z" fill="#8EC43F"/><path d="M40.49 23.758a.527.527 0 00-.157.387c0 .154.052.283.157.388a.528.528 0 00.388.157.526.526 0 00.387-.157.528.528 0 00.158-.388.527.527 0 00-.158-.387.527.527 0 00-.387-.158.53.53 0 00-.388.158zM41.241 25h-.726v6h.726v-6zM44.38 26h2.032l-.198-.654h-1.835v-1.698h-.727v1.698h-1.211V26h1.211v3.56c-.002.19.025.38.078.563.05.167.135.322.25.454.112.13.261.232.447.309.186.077.408.115.666.115.138 0 .295-.02.473-.061.178-.04.335-.084.472-.133l-.06-.654c-.13.057-.265.103-.406.14-.141.036-.28.054-.418.054-.242 0-.432-.069-.57-.206-.137-.137-.205-.331-.205-.581V26zM48.547 33.685c.242-.21.432-.497.57-.86L52 25h-.775l-1.806 4.971L47.566 25h-.812l2.278 5.88-.51 1.533c-.04.113-.086.225-.138.333-.05.106-.114.206-.188.297a.907.907 0 01-.26.218.697.697 0 01-.346.085c-.113 0-.224-.014-.333-.043a7.85 7.85 0 01-.257-.071v.695c.07.016.141.03.215.043.12.02.242.03.363.03.404 0 .727-.105.969-.315z" fill="#5C558C"/></svg>