<!-- by TradingView --><svg xmlns="http://www.w3.org/2000/svg" width="56" height="56"><path fill="#F0F3FA" d="M0 0h56v56H0z"/><path d="M41.73 22.76a14.16 14.16 0 00-8.98-9.05l-.95 2.83c4.24 1.14 6.67 5.34 7.35 7.3l2.58-1.08zM28.31 38.6c-3.7-.08-6.05-1.62-6.76-2.38l-2.61 4.01c2.34 2.38 7.22 3.23 9.37 3.36V38.6z" fill="#1C769D"/><path d="M30 27L14 12l-5 6.8L30 27z" fill="#24A83B"/><path d="M33.24 12.75c-5.45-1.7-9.9-.11-11.44.9l2.86 4.06a11.17 11.17 0 017.02-.25l1.56-4.71zM28 44c16.37-1.1 17.48-15.91 15.07-22.05l-5.83 2.34c2.2 10.49-5.16 13.31-9.24 13.42V44z" fill="#2956A2"/><path d="M22.93 35.2A8.92 8.92 0 0119 28h-7.98a16.07 16.07 0 007.4 14.02l4.52-6.82z" fill="#123674"/></svg>