<!-- by TradingView --><svg xmlns="http://www.w3.org/2000/svg" width="56" height="56"><path fill="#0A3F83" d="M0 0h56v56H0z"/><path d="M8.5 22v1.2l3.5 1.6V26l-3.5-1.6v1.2l3.5 1.6v1.6l-3.5 1.6v1.2L12 30v1.2l-3.5 1.6V34l4.5-2v-8l-4.5-2z" fill="#fff"/><path d="M8.5 22v1.2L5 24.8V26l3.5-1.6v1.2L5 27.2v1.6l3.5 1.6v1.2L5 30v1.21l3.5 1.59V34L4 32v-8l4.5-2z" fill="#ED8B00"/><path d="M15.8 31H15v-6h2.41c1.47 0 1.98.95 1.98 2 0 1.03-.53 2-1.98 2H15.8v2zm2.75-4.01c0-.58-.18-1.21-1.16-1.21h-1.6v2.51h1.6c.98 0 1.16-.72 1.16-1.3zm8.01 1.64V31h-.77v-6h2.5c1.44 0 1.93.8 1.93 1.83 0 .8-.3 1.45-1.1 1.7l1.4 2.47h-.92l-1.25-2.36h-1.8v-.01zm2.83-1.8c0-.58-.2-1.08-1.18-1.08h-1.65V28h1.65c.97 0 1.18-.6 1.18-1.17zm9.81-1.08V31h-.84v-5.25H36.4V25h4.76v.75H39.2zm6.27 2.55H42.8v1.97H46V31h-4v-6h4v.77h-3.22v1.81h2.69v.73zM50.7 25L48 27.73V25h-.75v6H48v-2.33l.62-.64L50.98 31H52l-2.82-3.5 2.5-2.5h-.98zm-29.96 4.64h2.7l.53 1.36h.82l-2.35-6h-.7l-2.35 6h.8l.55-1.36zm1.34-3.7l1.1 3.06h-2.2l1.1-3.06zm10.45 3.7h2.7l.53 1.36h.82l-2.35-6h-.7l-2.35 6h.8l.55-1.36zm1.34-3.7l1.1 3.06h-2.2l1.1-3.06z" fill="#fff"/></svg>