<!-- by TradingView --><svg width="56" height="56" xmlns="http://www.w3.org/2000/svg"><path fill="#F0F3FA" d="M0 0h56v56H0z"/><path d="M17 25h2v1.264c.343-.973.75-1.264 1.56-1.264.13 0 .212.01.44.036v2.03c-.22-.073-.514-.083-.727-.073-.824.009-1.273.398-1.273 1.58V31h-2v-6zm22 1h2v5h-2v-5z" fill="#F79239"/><path d="M22 27h-.825v-1.498H22V24h2v1.502h.832V27H24v4h-2v-4zm21 0h-.826v-1.498H43V24h2v1.502h.832V27H45v4h-2v-4z" fill="#009ADB"/><path d="M48.976 27.713L49.984 25H52l-3.355 8h-2.108l1.513-3.296L46 25h1.983l.993 2.713z" fill="#7082C0"/><path d="M28.46 27.713L29.47 25h2.016l-3.355 8h-2.107l1.512-3.296L25.485 25h1.983l.993 2.713z" fill="#30B457"/><path d="M41 24a1 1 0 11-1-1 1 1 0 011 1z" fill="#009ADB"/><path d="M38 28.25c-.401.535-1.061.75-1.805.75-1.432 0-2.182-.92-2.195-2-.013-1.08.782-2 2.195-2 .744 0 1.395.215 1.805.749V23.39a4.225 4.225 0 00-1.805-.39C33.88 23 32 24.793 32 27s1.88 4 4.195 4c.643 0 1.254-.143 1.805-.39v-2.36zM6.935 23H4v8h2v-2h.935c1.687 0 3.1-1.23 3.065-3-.026-1.609-1.309-3.008-3.065-3zm.035 4H6v-2h.978c.534 0 1.02.464 1.02 1-.009.528-.486 1-1.028 1z" fill="#ED1B2F"/><path d="M14 25v.373c-.357-.274-.769-.373-1.313-.373C11.104 25 10 26.442 10 28s.993 3 2.679 3c.535 0 1.076-.063 1.321-.336V31h2v-6h-2zm-1 4c-.604.007-1.002-.424-1-1 .002-.576.41-1.017 1-1 .59.017 1 .45 1 1s-.396.993-1 1z" fill="#7082C0"/></svg>