<!-- by TradingView --><svg xmlns="http://www.w3.org/2000/svg" width="56" height="56"><path fill="#F0F3FA" d="M0 0h56v56H0z"/><path d="M10.71 32c-.3.42-1.56.74-3.07.74-1.74 0-3.14-.42-3.14-.95 0-.33.56-.62 1.4-.79-1.12.17-1.9.53-1.9.95C4 32.53 5.5 33 7.36 33c1.8 0 3.27-.45 3.35-1z" fill="#613C8C"/><path d="M9.65 32.02a.28.28 0 00.08-.18c0-.4-1.06-.72-2.37-.72-1.3 0-2.36.32-2.36.72 0 .34.78.62 1.83.7-.83-.1-1.43-.33-1.43-.6 0-.35.95-.63 2.13-.63s2.14.28 2.14.63a.2.2 0 01-.02.08z" fill="#6967A1"/><path d="M7.32 32.22c.74 0 1.34-.18 1.34-.4 0-.15-.23-.28-.6-.36.55.07.94.25.94.45 0 .27-.68.5-1.52.5-.85 0-1.53-.23-1.53-.5 0-.03 0-.06.02-.08.02.21.61.4 1.35.4z" fill="#1194C9"/><path d="M7.67 32.1c.4-.03.68-.15.68-.29 0-.16-.4-.3-.89-.3s-.89.14-.89.3c0 .04.03.08.07.11l-.01-.03c0-.13.32-.24.72-.24.4 0 .72.11.72.24 0 .1-.16.17-.4.21z" fill="#98D9E9"/><rect x="47.18" y="26" width=".5" height="4" rx=".25" fill="#613C8C"/><rect x="32.87" y="26" width=".5" height="4" rx=".25" fill="#1194C9"/><path d="M7.25 26a.25.25 0 00-.25.25v5.5a.25.25 0 10.5 0v-2.43a2 2 0 100-2.64v-.43a.25.25 0 00-.25-.25zm3.25 2a1.5 1.5 0 11-3 0 1.5 1.5 0 013 0z" fill="#1194C9"/><path d="M43.03 30a.25.25 0 01-.25-.25v-4.5a.25.25 0 01.5 0v1.43a2 2 0 110 2.64v.43c0 .14-.11.25-.25.25zm3.25-2a1.5 1.5 0 10-3 0 1.5 1.5 0 003 0z" fill="#613C8C"/><path fill-rule="evenodd" d="M16 29.5a1.5 1.5 0 100-3 1.5 1.5 0 000 3zm0 .5a2 2 0 100-4 2 2 0 000 4zm20-.5a1.5 1.5 0 100-3 1.5 1.5 0 000 3zm0 .5a2 2 0 100-4 2 2 0 000 4z" fill="#1194C9"/><path fill-rule="evenodd" d="M50 29.5a1.5 1.5 0 100-3 1.5 1.5 0 000 3zm0 .5a2 2 0 100-4 2 2 0 000 4z" fill="#613C8C"/><path d="M12.25 26a.25.25 0 00-.25.25v3.5a.25.25 0 10.5 0v-2.49a.25.25 0 00.05-.05c.09-.12.26-.3.47-.46.21-.15.45-.25.67-.24a.25.25 0 10.01-.5c-.37-.01-.71.15-.97.34l-.23.18v-.28a.25.25 0 00-.25-.25zm8.65.01c.13-.04.27.03.32.16.07.2.07.44.05.64-.02.2-.06.37-.1.48v.01l-1.04 2.54a.25.25 0 01-.47 0l-1.4-3.5a.25.25 0 11.47-.18l1.17 2.92.8-1.95c.02-.08.06-.22.07-.37a.97.97 0 00-.03-.43.25.25 0 01.16-.32zm1.2 1.75a1.5 1.5 0 012.96 0H22.1zm-.52.26a2 2 0 003.65 1.11.25.25 0 00-.41-.28 1.5 1.5 0 01-2.72-.59h3.23c.14 0 .25-.11.25-.25V28a2 2 0 10-4 0v.01zM38.75 26a.25.25 0 00-.25.25v3.5a.25.25 0 10.5 0v-2.66c.08-.1.22-.25.41-.37.2-.13.45-.22.71-.22.67.01 1.08.53 1.1 1.05v1.56c0 .13.01.32.1.5.08.18.26.36.55.39a.25.25 0 10.04-.5c-.06 0-.1-.04-.14-.11a.61.61 0 01-.05-.27v-1.58A1.59 1.59 0 0040.13 26a1.78 1.78 0 00-1.13.4v-.15a.25.25 0 00-.25-.25zm-12.5 0a.25.25 0 00-.25.25v3.5a.25.25 0 10.5 0v-2.66c.07-.1.21-.25.4-.37.2-.13.45-.22.72-.22.67.01 1.07.53 1.1 1.05v1.56c-.01.13 0 .32.1.5.08.18.25.36.54.39a.25.25 0 10.05-.5c-.07 0-.11-.04-.15-.11a.61.61 0 01-.05-.27v-1.58A1.59 1.59 0 0027.63 26a1.78 1.78 0 00-1.13.4v-.15a.25.25 0 00-.25-.25zm4.5-1c.14 0 .25.11.25.25v.9h.75a.25.25 0 110 .5H31v2.27c0 .1.02.25.1.37.06.1.16.2.35.21h.3a.25.25 0 110 .5h-.32a.93.93 0 01-.77-.46 1.21 1.21 0 01-.16-.63v-2.26h-.45a.25.25 0 110-.5h.45v-.9c0-.14.11-.25.25-.25z" fill="#1194C9"/><circle cx="47.43" cy="25.31" r=".3" fill="#613C8C"/><circle cx="33.12" cy="25.3" r=".3" fill="#1194C9"/></svg>