<!-- by TradingView --><svg xmlns="http://www.w3.org/2000/svg" width="56" height="56"><path fill="#F0F3FA" d="M0 0h56v56H0z"/><path fill="#166A39" d="M13 13h30v30H13z"/><path d="M17.3 18.63c8.34-3.21 20.54-.56 25.7 1.22v19.1c-.3.42-1.7 1.07-2.35 1.35.7-1.04.85-2 .85-2.81 0-2.39-2.4-4.14-4.92-4.14-1.84 0-3.06 1.18-3.15 1.64 1.05.2 1.85.94 1.85 2.06 0 1.2-.77 1.88-1.21 2.18-3.03-10.3-12.12-17.45-16.8-20.06-.21-.12-.2-.44.04-.54z" fill="#F4EB60"/><path d="M34.25 34.73a2.5 2.5 0 011.53 2.41c0 1.13-.61 1.91-1.35 2.44-.74.52-1.62.8-2.19.9l-.24.05.07-.24a4.1 4.1 0 00-.03-2.96c-.38-.76-1.15-1.28-2.42-1.28-1.01 0-1.69.36-2.12.82-.36.36-.56.78-.65 1.12a4.2 4.2 0 011.39-.1c.36.05.73.16 1.02.41.3.26.49.64.51 1.17.02.43-.07.78-.25 1.06-.17.28-.41.48-.68.62-.53.29-1.17.35-1.6.33-.53 0-1.94-.17-3.48-.8l-.63-.27c-1.68-.71-3.33-1.41-5.98-1.5a8.43 8.43 0 00-4.54.96l-.17-.25a8.7 8.7 0 014.72-1c2.71.08 4.4.8 6.08 1.51l.64.27c1.5.62 2.88.77 3.37.78.4.02.98-.04 1.45-.29.23-.12.43-.3.57-.52.14-.22.22-.51.2-.88-.02-.47-.18-.77-.4-.96a1.6 1.6 0 00-.87-.34 3.58 3.58 0 00-1.49.15l-.24.1.04-.26c.05-.4.28-1.02.77-1.52.5-.51 1.25-.91 2.34-.91 1.37 0 2.25.56 2.69 1.45.4.81.4 1.87.12 2.94a5.48 5.48 0 001.82-.8 2.64 2.64 0 001.23-2.2v-.01a2.2 2.2 0 00-1.52-2.2l-.18-.06.1-.16c.3-.43 1.21-1.24 2.92-1.15 2.1.12 4.32 1.33 4.52 3.82.04.56-.11 1.9-1.1 3.2.73-.2 1.98-.78 2.94-1.4l.16.25A13.5 13.5 0 0139.84 41l-.45.1.3-.35a4.88 4.88 0 001.33-3.34c-.18-2.27-2.22-3.42-4.24-3.54-1.4-.07-2.2.5-2.53.87zm-15.4-15.72c9.44-2.25 20.48.34 24.15 1.98v2.14c-9.69-4-18.84-3.31-22.18-2.63l-2-1.3a.1.1 0 01.03-.19z" fill="#F0F3FA"/><path d="M33.1 18.4c4.41.57 8.05 1.6 9.9 2.44v2.47c-9.65-3.99-18.83-3.34-22.15-2.66l-.06.01-2.05-1.34a.25.25 0 01.07-.45c4.75-1.14 9.89-1.05 14.3-.48zm-14.1.73l1.86 1.21c3.38-.68 12.55-1.26 22.14 2.63v-1.83a40.99 40.99 0 00-9.93-2.45c-4.36-.57-9.4-.65-14.07.44z" fill="#166A39"/></svg>