<!-- by TradingView --><svg width="56" height="56" xmlns="http://www.w3.org/2000/svg"><path fill="#007FA3" d="M0 0h56v56H0z"/><path d="M36.399 14.06c6.876 3.853 8.477 12.491 3.692 21.231-4.204 7.683-13.385 10.964-20.226 7.053-6.842-3.912-8.177-14.825-5.236-21.105 4.269-9.12 14.173-11.437 21.77-7.178z" fill="#fff"/><path d="M36.24 20.688c1.345 1.413 1.764 3.557 1.53 5.316-.267 2.005-1.504 3.861-3.56 5.091-1.63.977-3.772 1.365-5.88 1.385-.016.328-.083 1.46-.116 1.64a1.15 1.15 0 01-.258.553c-.227.29-.62.477-1.01.587-.31.086-.616.124-.834.124-.036 0-.072-.003-.108-.006a1.061 1.061 0 01-.64-.304 1.063 1.063 0 01-.268-.64l-.017-.223c-.044-.192-.126-9.937-.079-9.763.036-1.168 1.79-1.371 2.83-1.165 1.042.206.779 1.452.75 2.982 0 0-.05 2.013-.146 4.14 1.328-.05 2.382-.422 3.368-.904 1.992-.972 3.047-2.463 3.047-4.657s-2.172-4.651-6.18-4.651c-4.008 0-5.728.994-7.668 2.572-.437.357-.775.715-1.093.95-.318.237-1.166.273-1.391-.28-.275-.665.236-1.408.537-1.767.472-.564 1.633-1.7 2.922-2.36 1.476-.758 3.28-1.574 5.794-1.637 2.274-.055 5.864.125 8.45 2.997l.02.02zm-8.693 16.65a1.65 1.65 0 00-.681-.316 1.265 1.265 0 00-.246-.025c-.447 0-.886.242-1.172.649a1.536 1.536 0 00-.275 1.132c.042.25.136.467.277.628.157.181.398.321.697.405.173.047.35.073.527.073.387 0 .734-.115 1.004-.329a1.26 1.26 0 00.48-1.01 1.555 1.555 0 00-.611-1.207z" fill="#007FA3"/></svg>