<!-- by TradingView --><svg xmlns="http://www.w3.org/2000/svg" width="56" height="56"><path fill="#1C4267" d="M0 0h56v56H0z"/><path d="M7.73 18h16.51c.44 0 .76.25.76.69v7.65c0 .44-.34.66-.78.66H16.5c-.22 0-.5.23-.5.53 0 .3.28.47.5.47h7.78c.44 0 .72.35.72.79v7.52c0 .43-.27.69-.7.69H12.67c-.44 0-.68-.36-.68-.8v-2.3c0-.42.34-.9.77-.9h7.76c.18-.03.47-.13.47-.49s-.28-.5-.47-.51H12.8c-.44 0-.8-.29-.8-.72v-7.56c0-.44.33-.72.77-.72h7.71c.21 0 .52-.15.52-.51s-.31-.48-.52-.49h-8.32c-.68 0-1.16.46-1.16 1.15V36.2c0 .44-.38.8-.82.8H7.69c-.43 0-.69-.36-.69-.8V18.8c0-.44.29-.8.73-.8zm33.73 0h.5v.57h-.5V18zm.47 1h-.43v3h.43v-3zm-11.61 9H27v.4h1.43V32h.45v-3.6h1.44V28zm4.54 5h-.44v4h.44v-4zm-5.03 1.76V33h.47v4h-.47v-1.84h-2.36V37H27v-4h.47v1.76h2.36zM39.2 29h-.43v3h.43v-3zm-.47-1h.5v.57h-.5V28zm-3.85 1c-.6 0-.86.34-.97.57V29h-.48v3h.48v-1.67c.01-.26.1-.94.82-.94.65 0 .71.55.71.87V32h.49v-2c0-.47-.3-1-1.05-1zm1.06-2.58a.99.99 0 01-.95.58c-.73 0-1-.54-1-1.01V24h.48v1.74c0 .32.04.88.68.88.7 0 .78-.7.8-.95V24h.46v3h-.47v-.58zM41.3 29c-.59 0-.85.34-.96.57V29h-.48v3h.48v-1.67c0-.26.1-.94.81-.94.65 0 .71.55.71.87V32h.48v-2c0-.47-.3-1-1.04-1zm1.9-9.43c.1-.23.36-.57.94-.57.71 0 1 .53 1 1v2h-.46v-1.74c0-.32-.06-.87-.7-.87-.68 0-.77.67-.78.94V22h-.47v-3h.47v.57zM39.55 34h-.44v3h.44v-3zm-.47-1h.49v.57h-.5V33zm2.7 1c-.59 0-.85.34-.96.57V34h-.48v3h.48v-1.67c.01-.27.1-.94.81-.94.65 0 .72.55.72.87V37h.47v-2c0-.47-.3-1-1.03-1zm-3.03-14.5c.1-.21.34-.5.88-.5.67 0 .94.47.94.9V22h-.43v-1.86c0-.3-.06-.8-.65-.8-.65 0-.73.62-.74.86V22h-.44v-4h.44v1.5zm-4.84.26V19h-.46v3h.48v-1.37c0-.89.47-1.3 1.17-1.17v-.44a1 1 0 00-1.19.74zM40.46 24v.77s.2-.9 1.19-.75v.44c-.7-.12-1.17.29-1.17 1.17V27H40v-3h.46zm-8.14 10c-.94 0-1.37.72-1.37 1.5 0 .77.41 1.5 1.37 1.5.95 0 1.36-.73 1.36-1.5 0-.78-.43-1.5-1.36-1.5zm0 2.62c-.63 0-.9-.5-.9-1.12 0-.63.28-1.13.9-1.13s.9.5.9 1.13c0 .62-.27 1.12-.9 1.12zm-2.08-6.12c0-.78.43-1.5 1.39-1.5.95 0 1.38.73 1.38 1.5S32.6 32 31.63 32c-.98 0-1.4-.73-1.4-1.5zm.47 0c0 .62.27 1.12.91 1.12.65 0 .92-.5.92-1.12 0-.62-.29-1.12-.91-1.12-.63 0-.92.5-.92 1.12zM37.7 33v1.72c-.2-.35-.46-.53-.92-.53-.73 0-1.17.63-1.17 1.4 0 .81.46 1.41 1.17 1.41a1 1 0 00.94-.54V37h.42v-4h-.44zm-.8 3.66c-.57 0-.85-.48-.85-1.06 0-.59.27-1.06.85-1.06s.82.47.82 1.06c0 .58-.24 1.06-.82 1.06zM33.03 24v3.7h-.44v-1.43c-.19.35-.5.53-.92.53-.72 0-1.17-.63-1.17-1.4 0-.8.46-1.4 1.17-1.4a1 1 0 01.95.54V24h.41zm-1.24 2.45c.59 0 .83-.47.83-1.05 0-.58-.25-1.06-.83-1.06-.57 0-.85.48-.85 1.06 0 .58.27 1.05.85 1.05zm1.1-5.86v-.29c0-.52-.31-1.3-1.21-1.3-.85 0-1.35.67-1.35 1.5s.46 1.5 1.35 1.5a1.2 1.2 0 001.2-1h-.44c-.1.32-.32.63-.78.63-.58 0-.86-.46-.88-1.04h2.11zm-1.22-1.21c.45 0 .75.3.77.88H30.8c.06-.5.35-.88.87-.88zm12.72 5.92v.3h-2.16c.03.57.3 1.03.9 1.03.47 0 .69-.3.8-.63h.44c-.13.64-.65 1-1.22 1-.9 0-1.38-.67-1.38-1.5s.52-1.5 1.38-1.5c.92 0 1.24.78 1.24 1.3zm-.47-.04c-.02-.58-.32-.88-.78-.88-.53 0-.82.38-.9.88h1.68zm1.52 5.33v-.29c0-.52-.32-1.3-1.23-1.3-.85 0-1.36.67-1.36 1.5s.47 1.5 1.36 1.5c.57 0 1.08-.36 1.21-1h-.44c-.1.32-.33.63-.78.63-.6 0-.87-.46-.9-1.04h2.14zm-1.24-1.21c.46 0 .76.3.78.88h-1.66c.07-.5.36-.88.88-.88zM27 18h1.56c1.01 0 1.44.48 1.44 1.19 0 .86-.6 1.2-1.45 1.2h-1.07V22H27v-4zm1.55.4h-1.07V20h1.07c.32 0 .95-.08.95-.81 0-.67-.54-.8-.95-.8zm8.17 1.9c-.06 0-.11-.02-.17-.03-.35-.06-.68-.11-.68-.43 0-.25.2-.48.63-.48.66 0 .69.46.69.46h.43s0-.82-1.11-.82c-.8 0-1.08.5-1.08.87 0 .26.1.64.83.77.74.13.98.2.98.51 0 .32-.3.49-.68.49-.37 0-.71-.12-.8-.55h-.44s.02.91 1.23.91c.62 0 1.14-.33 1.14-.86 0-.65-.51-.75-.91-.83h-.06zm11.13 14.97l.18.03.05.01c.4.08.92.18.92.83 0 .53-.52.86-1.14.86-1.21 0-1.23-1-1.23-1h.45c.07.43.42.64.79.64.37 0 .68-.17.68-.49 0-.31-.24-.38-.98-.51-.73-.13-.83-.5-.83-.77 0-.38.27-.87 1.08-.87 1.11 0 1.11.82 1.11.82h-.44s-.02-.46-.68-.46c-.43 0-.63.23-.63.48 0 .32.32.37.67.43zm-10.34-3.71c-.17-.05-.25-.21-.25-.5V29.3h.81v-.37h-.81v-.79h-.48v.79h-.46v.37h.46v1.87c0 .24.02.84.84.84.18 0 .36-.03.53-.08v-.41s-.38.12-.64.05zm1.89-6.58v1.25c0 .57.07.77.07.77H39c-.03-.16-.04-.4-.04-.56-.17.4-.56.56-1.04.56-.5 0-.93-.3-.93-.82 0-.54.4-.77.91-.85l1.04-.13v-.13c0-.2-.04-.7-.69-.7-.65 0-.67.54-.67.54h-.46c.03-.38.3-.91 1.14-.91 1 0 1.15.6 1.15.98zm-1.38 1.66c.43 0 .91-.26.91-.84v-.25l-.84.1c-.54.05-.63.32-.63.5 0 .25.13.5.56.5zM47.94 19v.58A1.05 1.05 0 0047 19c-.82 0-1.25.64-1.25 1.43 0 .8.45 1.44 1.25 1.44.46 0 .76-.22.93-.56v.35c0 .56-.2.98-.87.98-.61 0-.72-.32-.76-.44l-.01-.03h-.47s.07.83 1.26.83 1.32-.9 1.32-1.25V19h-.45zm-.86 2.5c-.6 0-.89-.48-.89-1.07 0-.58.28-1.06.89-1.06.6 0 .88.47.88 1.06 0 .6-.29 1.07-.88 1.07zm-1.53 13.07V34H46v2.75c0 .35-.13 1.25-1.32 1.25-1.2 0-1.27-.84-1.27-.84h.47v.02l.01.02c.05.12.15.43.77.43.68 0 .87-.41.87-.97v-.36a.98.98 0 01-.94.56c-.8 0-1.25-.64-1.25-1.43 0-.8.44-1.43 1.25-1.43a1.04 1.04 0 01.96.57zm-1.75.86c0 .59.29 1.06.88 1.06.6 0 .9-.47.9-1.06 0-.59-.3-1.06-.9-1.06-.6 0-.88.47-.88 1.06zM29.44 24.99c-.12-.05-.4-.13-.98-.25h-.04c-.73-.13-.83-.32-.84-.65-.01-.25.17-.72.9-.72.95 0 1 .63 1 .63h.44c-.04-.4-.3-1-1.44-1-.89 0-1.35.52-1.35 1.11 0 .4.13.82.95 1l.39.07c.63.11 1.08.2 1.08.7 0 .62-.6.74-.99.74-.38 0-1.04-.1-1.11-.83H27c.06.88.77 1.21 1.6 1.21.8 0 1.4-.44 1.4-1.15a.86.86 0 00-.56-.86z" fill="#fff"/></svg>