<!-- by TradingView --><svg xmlns="http://www.w3.org/2000/svg" width="56" height="56"><path fill="#F0F3FA" d="M0 0h56v56H0z"/><path fill-rule="evenodd" d="M30.73 19.16a11.98 11.98 0 00-3.34 8.28c0 3.43 1.47 6.54 3.83 8.76A13.9 13.9 0 0119.93 42C12.23 42 6 35.73 6 28s6.24-14 13.93-14c4.36 0 8.25 2.01 10.8 5.16zM7.7 24.5L7.44 31h1.4l.18-5.46h1.23c.31 0 .85.16.85.8 0 .8-.65 1.03-.98 1.06h-.97l.27.95c.05.01.28.03.83 0 .68-.03 2.2-.43 2.2-2.14 0-1.33-1.02-1.71-1.49-1.71H7.7zm5.43 0L12.8 31h1.43l.35-6.5h-1.46zm2.07 4.87l.2-3.37h1.44l-.17 2.56c-.03.44.06 1.3.97 1.28.91-.03 1.27-.75 1.27-1.28l.13-2.56h1.42l-.29 5H18.9v-.87c-.46.6-1.39.83-1.8.87-1.64.08-1.9-1.02-1.9-1.63zM21.4 26l-.13 5h1.4l.1-2.73c.01-.42.39-1.22 1.7-1.13v-1.08c-.28-.11-1.02-.15-1.7.63V26H21.4zm3.58 5l.26-5h1.4l-.17 5h-1.5zm1.1-5.33a.9.9 0 100-1.82.9.9 0 000 1.82z" fill="#F30"/><path d="M27.89 27.17c.1-1.42 2.29-1.27 3.33-.97v.97c-1.8-.65-1.93.11-1.93.22s.04.48 1.01 1.06c.78.45.95.93.92 1.33-.13 1.51-2.53 1.32-3.58 1l-.16-1c.26.27.98.39 1.56.39.24-.02.74-.15.77-.48.04-.34-.44-.73-.69-.89-1.15-.72-1.25-1.27-1.23-1.63zM33.2 26l.09-.8 1.16-.2-.08 1h1.33l-.09 1h-1.24l-.1 2.24c-.01.87.89.8 1.34.66l-.18.94c-.26.12-.81.16-1.06.16-1.16.02-1.47-.68-1.42-1.1l.14-2.9h-.68v-1h.8z" fill="#F30"/><path fill-rule="evenodd" d="M40.77 30.77c-1.39.42-4.19.55-4.33-2.19A2.6 2.6 0 0139.17 26c1.97 0 2.4 1.62 2.24 2.4h-3.7c-.08.58.18 1.75 1.79 1.72.2.02.76-.02 1.43-.3l-.16.95zm-2.95-2.88c.09-.35.45-1.06 1.26-1.07.8-.01 1.03.71 1.04 1.07h-2.3z" fill="#F30"/><path d="M42.41 26l-.23 5h1.32l.08-2.56c0-.56.36-1.47 1.1-1.47.6 0 .8.49.8.8L45.31 31h1.38l.1-2.77c0-.73.33-1.26.97-1.26.64 0 .77.76.78.99l-.1 3.04h1.42l.14-3.66c-.02-.77-.6-1.31-1.45-1.34a2.21 2.21 0 00-1.75.75c-.17-.25-.7-.75-1.48-.75-.79 0-1.4.5-1.61.75V26h-1.3z" fill="#F30"/></svg>