<!-- by TradingView --><svg width="56" height="56" xmlns="http://www.w3.org/2000/svg"><path fill="#F0F3FA" d="M0 0h56v56H0z"/><path d="M43.19 20.172c-.755.53-1.635.784-2.397.692-.6-.073-1.206-.305-1.638-.628l-.213-.16-1.58 1.585-1.585 1.584h1.108l1.108-1.108 1.111-1.105.21.124c.26.153.619.292.98.381.375.096 1.22.102 1.626.016.372-.08.876-.276 1.248-.482l.31-.175.087.06c.165.115.723.378 1.006.473.768.254 1.632.26 2.38.016.268-.085.636-.257.791-.368l.09-.064 1.17 1.172 1.172 1.171-.19.267c-.788 1.105-.937 2.39-.439 3.813.562 1.606.696 2.476.515 3.34-.203.977-.95 1.825-1.927 2.183-.318.118-.683.19-1.664.33-1.155.169-1.387.213-1.765.34-.298.099-.828.35-1.08.511-.139.09-.161.096-.224.057a7.156 7.156 0 00-.943-.488c-.473-.19-.68-.232-2.162-.445l-.724-.101v.742l.089.02c.048.009.286.038.53.066 1.61.181 2.448.476 3.083 1.086l.196.187.216-.21c.648-.615 1.464-.895 3.172-1.079 1.095-.117 1.543-.216 2-.444.327-.165.568-.346.914-.69.832-.824 1.206-1.974 1.073-3.294-.07-.677-.159-1.035-.476-1.953-.638-1.847-.505-2.787.603-4.155l.162-.203-1.565-1.565c-.864-.864-1.578-1.569-1.59-1.569-.013 0-.1.058-.191.13-.226.172-.813.458-1.105.534-.711.19-1.378.149-2.073-.127a4.29 4.29 0 01-.927-.502 2.242 2.242 0 00-.19-.136c-.016-.01-.153.066-.302.171z" fill="#FE0000"/><path d="M5 27.274l.016 3.317H6.603l-.01-1.149.01-1.165 1-.019c1.054-.019 1.146-.032 1.533-.194.578-.24 1.02-.79 1.153-1.422.076-.365.047-.952-.064-1.295-.216-.657-.714-1.055-1.438-1.255-.238-.066-.314-.07-2.016-.082L5 24v3.274zm3.016-2.026c.555.09.774.343.771.89-.006.4-.152.634-.482.764-.162.064-.245.073-.946.083l-.772.013v-1.784H7.2c.333 0 .702.016.816.035zM10.841 27.277l.035 3.315h1.46l-.034-1.388c0-.829.012-1.49.034-1.61.086-.54.315-.759.81-.787.308-.016.498.05.622.219.168.225.165.219.184 1.95l.016 1.616.724.01.72.005v-1.724c0-1.832-.009-1.984-.155-2.368-.14-.372-.45-.66-.848-.79a2.724 2.724 0 00-1.012-.093 1.844 1.844 0 00-.911.435l-.184.168V24h-1.46v3.278zM16.428 24.619v.619h1.46V24h-1.46v.619zM18.905 27.277v3.333h1.46V24h-1.46v3.277zM21.38 27.277v3.333H22.842V24h-1.46v3.277zM23.857 24.619v.619h1.46V24h-1.46v.619zM40.34 24.356c-1.159.159-2.013 1.02-2.587 2.606-.483 1.337-.565 2.254-.258 2.86.286.566.969.887 1.87.887.635 0 1.143-.143 1.61-.448.413-.27.708-.654.952-1.238.188-.442.232-.66.232-1.127 0-.397-.003-.422-.102-.626-.174-.371-.44-.571-.923-.695a1.826 1.826 0 00-1.28.13l-.184.092.057-.165c.092-.263.334-.724.476-.904.245-.308.524-.442.734-.356.136.057.197.175.216.413l.012.21.778.056c.429.032.784.048.794.039.032-.032.016-.391-.023-.534a1.565 1.565 0 00-.606-.848c-.39-.263-1.219-.425-1.768-.352zm-.133 3.203a.55.55 0 01.136.165c.159.299-.102 1.22-.482 1.702-.251.32-.629.413-.81.197-.203-.242-.105-.857.244-1.53.277-.537.62-.737.912-.534zM45.692 24.356a2.575 2.575 0 00-1.153.46 4.129 4.129 0 00-.816.858c-.4.603-.822 1.707-1 2.615-.079.416-.073.978.016 1.26.235.763.924 1.163 1.99 1.16.772 0 1.41-.232 1.886-.686.273-.26.362-.384.553-.765.571-1.14.45-2.172-.292-2.553-.49-.247-1.222-.247-1.676-.003-.093.05-.169.083-.169.073 0-.047.137-.374.251-.603.289-.575.635-.876.937-.82.184.036.304.245.304.531v.114l.613.045c.333.022.689.041.784.041l.175.003.01-.168c.028-.495-.343-1.082-.83-1.311a3.342 3.342 0 00-1.583-.25zm-.146 3.194c.215.11.254.476.104.977-.238.816-.701 1.315-1.104 1.194-.204-.06-.251-.174-.235-.555.031-.648.416-1.429.797-1.62.17-.085.266-.085.438.004zM28.784 25.63c-.368.047-.66.174-.899.4l-.152.142-.01-.219-.009-.215-.689-.01-.692-.006v6.54l.724-.007.72-.01.01-1.025.006-1.022.2.152c.511.39 1.242.486 1.886.245.66-.251 1.15-.88 1.33-1.715.073-.34.073-1.019 0-1.362-.178-.825-.597-1.422-1.187-1.704a2.428 2.428 0 00-1.238-.184zm.365 1.187c.495.206.774.997.632 1.797-.083.454-.258.73-.553.876-.155.076-.216.089-.45.086-.213 0-.302-.016-.42-.073-.174-.086-.39-.305-.46-.474-.273-.644-.18-1.612.19-2 .255-.266.712-.358 1.06-.212zM33.682 25.614c-.467.031-.92.152-1.21.317a1.681 1.681 0 00-.54.597c-.104.229-.148.498-.13.765.048.644.461.98 1.496 1.225 1.01.238 1.25.324 1.38.492.144.181.049.454-.202.581-.111.06-.216.083-.41.092-.574.032-.927-.196-.984-.631l-.022-.156-.689.006-.689.01.01.143c.047.762.536 1.33 1.333 1.552.787.216 1.844.127 2.416-.21.076-.044.206-.139.282-.212.305-.282.445-.59.473-1.054.026-.419-.054-.67-.298-.933-.292-.314-.62-.448-1.667-.68-.565-.123-.787-.21-.898-.343-.137-.158-.089-.361.108-.46.178-.089.765-.08.946.016a.518.518 0 01.289.406l.016.14H36.089l-.023-.184a1.557 1.557 0 00-1.013-1.302c-.336-.127-.936-.203-1.37-.177zM16.419 25.721v4.89h1.46v-4.89h-1.46zM23.88 25.744c-.014.01-.023 1.11-.023 2.444v2.422h1.46V25.721h-.708c-.39 0-.72.01-.73.023z" fill="#000"/></svg>