<!-- by TradingView --><svg xmlns="http://www.w3.org/2000/svg" width="56" height="56"><path fill="#F0F3FA" d="M0 0h56v56H0z"/><path d="M12 40.54C21.76 33.46 27.62 17.78 28 8c1.2 17.86 10.65 27.76 15.85 32.54-13.44-6.69-26.83-2.79-31.85 0z" fill="#2AAE3F"/><path d="M43.77 41c-13.82-7.05-26.78-2.94-31.5-.01l-.27-.43c4.84-2.99 17.98-7.15 32 0l-.23.44zM25.79 25.63c.42-4.4 2.8-4.87 3.93-4.56-1.12 1.1-1.5 3.28-.75 5.59.6 1.84.75 3.4.75 3.96-.21 4.16-2.74 4.95-3.93 4.68.68-.75 1.28-2.93.59-5.3-.55-1.9-.62-3.7-.6-4.37z" fill="#F27A1D"/><path d="M27.33 21.39a2.8 2.8 0 012.46-.56l.42.11-.32.3c-1.03 1-1.41 3.08-.68 5.34.6 1.87.76 3.46.76 4.04v.01c-.1 2.13-.81 3.45-1.69 4.18-.86.74-1.87.89-2.55.74l-.42-.1.3-.32c.29-.32.6-1 .74-1.91a7.33 7.33 0 00-.21-3.15 15.35 15.35 0 01-.6-4.45v-.02c.21-2.24.93-3.53 1.8-4.21zm-1.3 4.25c-.02.65.05 2.42.59 4.29.35 1.22.38 2.4.23 3.37a5.15 5.15 0 01-.6 1.8c.5 0 1.13-.18 1.71-.67.74-.63 1.4-1.79 1.51-3.82 0-.53-.15-2.06-.74-3.88-.7-2.14-.46-4.23.5-5.49a2.36 2.36 0 00-1.59.54c-.71.57-1.4 1.71-1.6 3.86z" fill="#fff"/></svg>