<!-- by TradingView --><svg xmlns="http://www.w3.org/2000/svg" width="56" height="56"><path fill="#F0F3FA" d="M0 0h56v56H0z"/><circle cx="28" cy="28" r="16" fill="url(#ah0nq41ni)"/><path d="M44 28c-20.69 4.77-31.1.46-31.52 3.91A16.03 16.03 0 0128 12a16 16 0 0116 16z" fill="#535960"/><path d="M42.01 27.4c0 1.56-6.15 1.17-14.19 1.17s-14.56 0-14.94-1.17a14.57 14.57 0 1129.13 0z" fill="url(#bh0nq41ni)"/><path d="M40.64 32.08c.34.38 1.4 4.1-.42 6.25a15.97 15.97 0 01-16.35 5.13c7.58-2.38 11.42-6.4 16.77-11.38z" fill="url(#ch0nq41ni)"/><path d="M23.83 14.72c-.16-.48-1.22-.2-1.73 0-3.22.8-5.87 4.1-7.12 5.8-1 1.35-1.6 3.97-1.77 5.1l2.01 1.9c1.48.64 2.36-.09 2.62-.53 1.53-4.66 5.15-7.16 6-7.56.67-.32.68-1.26.6-1.69-.14-.8-.45-2.53-.6-3.02z" fill="#fff"/><path d="M38.71 21.26c2.07.44 2.55 2.64 2.52 3.69.07.73-1.09 1.38-1.68 1.61-2.97-.32-3.3-.87-3.62-1.35-.56-.85.2-4.5 2.78-3.95z" fill="#E3BEDF"/><path d="M40.87 24.2c.84 1.46.64 2.54.36 3.03 0-.5-.52-.91-.79-1.06-.31.06-1.15.15-1.94 0-.98-.2-1.6-.7-2.02-1.41-.42-.7.45-2.05 2.02-2.56 1.26-.4 1.94 1.07 2.37 2z" fill="#fff"/><path d="M17.9 29.24c7.28 2.37 15.35.55 18.48-.66-3.86 0-19.96 0-23.42-1.1-.14.59-.2 1.76.71 1.76h4.23z" fill="#252528"/><defs><linearGradient id="ah0nq41ni" x1="37.55" y1="21.28" x2="14.97" y2="37.29" gradientUnits="userSpaceOnUse"><stop stop-color="#5B5E65"/><stop offset=".84" stop-color="#B0ACB0"/></linearGradient><linearGradient id="bh0nq41ni" x1="16.39" y1="18.6" x2="40.42" y2="26.92" gradientUnits="userSpaceOnUse"><stop stop-color="#9C95A1"/><stop offset=".44" stop-color="#6A6874"/><stop offset=".69" stop-color="#76727D"/><stop offset="1" stop-color="#958D98"/></linearGradient><linearGradient id="ch0nq41ni" x1="30.12" y1="35.43" x2="39.04" y2="43.06" gradientUnits="userSpaceOnUse"><stop stop-color="#8A898F"/><stop offset="1" stop-color="#575C61"/></linearGradient></defs></svg>