<!-- by TradingView --><svg width="56" height="56" xmlns="http://www.w3.org/2000/svg"><path fill="#CF0A2C" d="M0 0h56v56H0z"/><path d="M4 26h3.49C8.707 26 9 26.732 9 27.712v.429C9 28.886 8.728 30 7.824 30H5v1H4v-5zm1 3h2.27c.389.034.733-.31.73-1-.003-.69-.454-1-.84-1H5v2z" fill="#000"/><path d="M23 26h3.49c1.217 0 1.51.732 1.51 1.712v.429c0 .745-.272 1.859-1.176 1.859H24v1h-1v-5zm1 3h2.27c.389.034.733-.31.73-1-.003-.69-.454-1-.84-1H24v2z" fill="#fff"/><path d="M10 26h3.777c.965 0 1.223.587 1.223 1.485v.317c0 .674-.125 1.063-.699 1.23v.013c.367.083.682.283.682 1.106V31H14v-.6c0-.15-.189-.4-.577-.4H11v1h-1v-5zm1 3h2.326c.337 0 .674-.324.674-.994 0-.67-.393-1.006-.786-1.006H11v2z" fill="#000"/><path d="M40 26h3.777c.965 0 1.223.587 1.223 1.485v.317c0 .674-.125 1.063-.699 1.23v.013c.367.083.682.283.682 1.106V31H44v-.6c0-.15-.189-.4-.577-.4H41v1h-1v-5zm1 3h2.326c.337 0 .674-.324.674-.994 0-.67-.394-1.006-.786-1.006H41v2z" fill="#fff"/><path d="M16 27.77c0-1.434.719-1.77 1.926-1.77h2.148c1.207 0 1.926.339 1.926 1.77v1.46c0 1.434-.719 1.77-1.926 1.77h-2.148C16.719 31 16 30.661 16 29.23v-1.46zm1 .994c0 .93.34 1.236 1.14 1.236h1.715c.838 0 1.145-.234 1.145-1.236v-.528c0-.77-.296-1.236-1.237-1.236h-1.57c-.874 0-1.193.302-1.193 1.236v.528z" fill="#000"/><path d="M46 27.77c0-1.434.719-1.77 1.926-1.77h2.148c1.207 0 1.926.339 1.926 1.77v1.46c0 1.434-.719 1.77-1.926 1.77h-2.148C46.719 31 46 30.661 46 29.23v-1.46zm1 .994c0 .93.34 1.236 1.14 1.236h1.715c.839 0 1.145-.234 1.145-1.236v-.528c0-.77-.296-1.236-1.237-1.236h-1.57c-.874 0-1.193.302-1.193 1.236v.528zM29 26h4v1h-3v1h3v.996h-3V30h3v1h-4v-5zM34.002 26H39v1h-2v4h-1v-4h-2l.002-1z" fill="#fff"/></svg>