<!-- by TradingView --><svg width="56" height="56" xmlns="http://www.w3.org/2000/svg"><path fill="#85744D" d="M0 0h56v56H0z"/><path d="M44 39.357a.642.642 0 01-.64.643h-6.72a.642.642 0 01-.64-.643V21.643c0-.355.288-.643.64-.643h6.72c.352 0 .64.288.64.643v17.714zM20 39.357a.642.642 0 01-.64.643h-6.72a.64.64 0 01-.64-.643V21.643c0-.355.288-.643.64-.643h6.72a.64.64 0 01.64.643v17.714zM33 39.187a.806.806 0 01-.798.813h-8.4a.808.808 0 01-.802-.813V16.813c0-.449.36-.813.802-.813h8.4c.44 0 .798.367.798.813v22.374z" fill="#fff"/></svg>