<!-- by TradingView --><svg width="56" height="56" fill="none" xmlns="http://www.w3.org/2000/svg"><path fill="#00B6EF" d="M0 0h56v56H0z"/><path d="M32.02 12H25.6c-.371 0-.6.356-.6.734V43h-2l-.005-30.315a.667.667 0 00-.681-.685h-4.632a.667.667 0 00-.682.685v31.577c0 .342.5.738 1 .738s1-.347 1-.738V14h2v30.315c0 .392.326.685.716.685h4.602c.39 0 .682-.294.682-.685V14.538c0-.293.152-.538.445-.538h4.576C38.058 14 42 18.837 42 25s-4 11-10 11h-1v-2c4.868 0 9-4 9-9s-3.854-9-9.004-9h-1.314a.667.667 0 00-.682.685v4.581c0 .403.4.734.779.734h.681c1.996 0 3.54 1 3.54 3s-1.5 3-3.442 3h-.828c-.34 0-.73.405-.73 1s.292 1 .682 1h.73C34 30 36 27.5 36 25s-2-5-5-5v-1.997c4.109.102 7 2.997 7 6.997s-3 7-7.004 7h-1.314a.667.667 0 00-.682.685v4.63c0 .392.292.685.682.685H32c6.767 0 12-6.054 12-13 .146-6.946-5.212-13-11.98-13z" fill="#fff"/></svg>