<!-- by TradingView --><svg width="56" height="56" xmlns="http://www.w3.org/2000/svg"><path fill="#F16E24" d="M0 0h56v56H0z"/><path fill-rule="evenodd" d="M19.499 19H14.5a.5.5 0 000 1H16v12.516l-2.395.837a.5.5 0 10.33.944l5.03-1.76-.007 2.962a.5.5 0 001 .002l.009-3.313 1.598-.56a.5.5 0 10-.33-.944l-1.265.443L19.999 20H26.5a.5.5 0 000-1H19.499zM17 20v4.022h1.988l.01-4.022H17zm1.975 9l-.006 2.477-1.969.689V29h1.975zM17 28h1.978l.007-2.978H17V28zm-5-8.5a.5.5 0 00-1 0V22H8.5a.5.5 0 000 1H11v3H8.5a.5.5 0 000 1H11v7.5c0 .111.005.221.015.33l-2.003-1.683-.012.015v-3.663a.5.5 0 00-1 0v8a.5.5 0 101 0v-3.056l3.092 2.597c.102.097.21.188.324.273l.039.032.002-.003c.575.414 1.28.658 2.043.658h12a.5.5 0 000-1h-12a2.489 2.489 0 01-1.466-.475l-.274-.23A2.493 2.493 0 0112 34.5V31h1.5a.5.5 0 000-1H12v-3h1.5a.5.5 0 000-1H12v-3h1.5a.5.5 0 000-1H12v-2.5zm9.035 4.027a.5.5 0 01.5-.5h4.718a.5.5 0 01.473.662l-1.95 5.701 2.18 4.907a.5.5 0 11-.913.406L24.3 30.781l-1.327 3.88a.5.5 0 11-.946-.323l1.676-4.9-1.66-3.735a.5.5 0 11.914-.406l1.222 2.75 1.374-4.02h-4.018a.5.5 0 01-.5-.5zM39.999 19.5a.5.5 0 10-1 0v1.563h-5.534a2.5 2.5 0 00-2.5 2.5v13.94a.5.5 0 101 0v-13.94a1.5 1.5 0 011.5-1.5H46.72l.146-.147 2.04-2.04a.5.5 0 00-.707-.708l-1.894 1.895H40V19.5zM39.5 23a.5.5 0 01.5.5V25h7.5a.5.5 0 010 1H40v3h5.5a2.5 2.5 0 012.5 2.5v4a2.5 2.5 0 01-2.5 2.5h-9a2.5 2.5 0 01-2.5-2.5v-4a2.5 2.5 0 012.5-2.5H39v-5.5a.5.5 0 01.5-.5zm0 7h-3a1.5 1.5 0 00-1.5 1.5v4a1.5 1.5 0 001.5 1.5h9a1.5 1.5 0 001.5-1.5v-4a1.5 1.5 0 00-1.5-1.5h-6z" fill="#fff"/></svg>