<!-- by TradingView --><svg width="56" height="56" xmlns="http://www.w3.org/2000/svg"><path fill="#F0F3FA" d="M0 0h56v56H0z"/><path d="M11 30.619a3 3 0 116 0 3 3 0 01-6 0zM18 30.619a3 3 0 116 0 3 3 0 01-6 0zM25 30.619a3 3 0 116 0 3 3 0 01-6 0zM32 30.619a3 3 0 116 0 3 3 0 01-6 0zM39 30.619a3 3 0 116 0 3 3 0 01-6 0z" fill="#006CB7"/><path d="M11 23.81a3 3 0 116 0 3 3 0 01-6 0zM18 23.81a3 3 0 116 0 3 3 0 01-6 0zM25 23.81a3 3 0 116 0 3 3 0 01-6 0zM32 23.81a3 3 0 116 0 3 3 0 01-6 0zM39 23.81a3 3 0 116 0 3 3 0 01-6 0z" fill="#739DD3"/><path d="M11 17a3 3 0 116 0 3 3 0 01-6 0zM18 17a3 3 0 116 0 3 3 0 01-6 0zM25 17a3 3 0 116 0 3 3 0 01-6 0zM32 17a3 3 0 116 0 3 3 0 01-6 0zM39 17a3 3 0 116 0 3 3 0 01-6 0z" fill="#BFDCF3"/><path fill-rule="evenodd" d="M18.05 38.347c.007.981-.622 2.15-.837 2.368L18.293 42H16.59l-.379-.47c-.494.204-.982.366-1.634.36-1.981-.015-3.665-1.64-3.59-3.653a3.514 3.514 0 013.527-3.397 3.531 3.531 0 013.536 3.507zm-3.52-2.127c1.136.006 2.01.941 2.06 2.096.024.53-.163 1.144-.333 1.317L15.733 39h-1.496l1.018 1.386a2.62 2.62 0 01-.833.11c-1.154-.056-2.018-1.07-1.977-2.245.04-1.144.959-2.038 2.085-2.031zM39 35h1.424l3.076 4.263V35H45v7h-1.474L40.5 37.703V42H39v-7zM19 42v-7h1.5v7H19zM34 35h4v1.359h-2.5v1.404H38v1.44h-2.5v1.438H38V42h-4v-7zM23.366 35H25l2.5 7H26l-.553-1.255H23L22.5 42h-1.59l2.456-7zm.86 1.84l.782 2.66h-1.61l.828-2.66zM33.316 36.6c-.094-.265-.983-1.837-3.114-1.757-2.237.084-3.322 2.09-3.276 3.61.06 2.061 1.5 3.547 3.414 3.547 1.579 0 3.48-1.073 3.382-4H30.5v1.5h1.542c-.189.757-.966 1.084-1.672 1.084-1.027-.001-2.02-.984-2.02-2.13.001-1.257.931-2.16 1.96-2.173.812-.01 1.458.325 1.808.879l1.198-.56z" fill="#ED1C24"/></svg>