<!-- by TradingView --><svg width="56" height="56" xmlns="http://www.w3.org/2000/svg"><path fill="url(#paint0_linear)" d="M0 0h56v56H0z"/><path d="M10.503 18C6.56 18 4 20.137 4 22.841c0 .81.15 1.467.426 2.284h.085c-.202-.763-.299-1.33-.299-1.938 0-2.497 2.222-4.187 6.32-4.187 5.495 0 12.066 2.423 15.938 7.379h.084C23.36 21.825 17.2 18 10.504 18zm17.063 14.247C26.758 34.325 24.408 35 20.998 35c-4.373 0-9.315-1.895-12.221-4.639a2.678 2.678 0 00.285-3.69 2.783 2.783 0 00-3.723-.518c-.572.395-.969.99-1.11 1.663a2.67 2.67 0 00.344 1.96 2.745 2.745 0 001.615 1.199 2.788 2.788 0 002.01-.213C11.116 33.381 15.906 36 20.678 36c3.496 0 6.03-1.162 6.977-3.753h-.089zm-20.65-1.95a1.994 1.994 0 01-1.267-.44 1.938 1.938 0 01-.688-1.139 1.917 1.917 0 01.213-1.307 1.965 1.965 0 011.014-.87 2.004 2.004 0 011.345-.028c.438.145.81.438 1.051.826a1.919 1.919 0 01-.366 2.463c-.273-.289-.53-.592-.77-.909H6.43c.355.454.739.884 1.15 1.287a1.956 1.956 0 01-.663.117zm18.611-.225c-.08-.1-.133-.29-.133-.54V28h-.81v1.503c0 .563.14.902.445 1.162a1.65 1.65 0 002.007 0c.304-.26.444-.6.444-1.162V28h-.809v1.53c0 .25-.05.44-.133.54a.676.676 0 01-.505.223.688.688 0 01-.506-.223v.002zm6.496-2.07c-.391 0-.756.197-1.012.592a1.02 1.02 0 00-.384-.434 1.041 1.041 0 00-.561-.158 1.027 1.027 0 00-.752.356.72.72 0 00-.125.202v-.558L28.417 28v3h.81v-1.473c0-.598.32-.814.623-.814.304 0 .525.207.525.761V31h.809v-1.473c0-.598.32-.814.626-.814.29 0 .524.207.524.761V31h.808v-1.606c0-.862-.467-1.394-1.119-1.394v.002zM11.41 30.055c-.084-.1-.133-.29-.133-.54V28h-.81v1.487c0 .563.141.903.445 1.163.28.232.638.364 1.004.35.366.014.723-.118 1.003-.35.304-.26.445-.6.445-1.163V28h-.81v1.515c0 .25-.05.44-.132.54a.68.68 0 01-.506.222.69.69 0 01-.506-.222zm7.71-1.668a.575.575 0 00-.108.171V28h-.772v3h.809v-1.431c0-.598.365-.856.668-.856a.561.561 0 01.48.222c.08.1.133.29.133.54V31h.808v-1.497c0-.564-.08-.94-.39-1.213a1.177 1.177 0 00-.828-.29 1.053 1.053 0 00-.8.387zm16.386-2.765c-.994 0-1.604.63-1.604 1.39 0 .584.365 1.102 1.096 1.41l.515.211c.511.218.76.558.76.935 0 .458-.394.758-.832.758-.52 0-.919-.302-1.081-.816l-.691.243c.104.377.33.71.644.948.315.238.7.367 1.097.369.907 0 1.675-.619 1.675-1.554 0-.773-.535-1.3-1.251-1.587l-.532-.215c-.388-.157-.58-.44-.58-.697 0-.362.32-.65.776-.65.327 0 .6.181.813.502l.624-.419c-.322-.55-.83-.828-1.429-.828zM52 29.719c0-1.056-.606-1.856-1.597-1.856-1.024 0-1.619.73-1.619 1.654 0 .979.738 1.55 1.65 1.55.65 0 1.088-.264 1.339-.571l-.566-.434c-.165.212-.39.315-.745.315-.354 0-.818-.217-.83-.478H52v-.18zm-2.358-.407c.041-.415.304-.754.779-.754.415 0 .72.276.786.754h-1.565zm-25.78-.641V28h-.852v-1h-.808v1h-.426v.671h.426v1.278c0 .796.437 1.051 1.073 1.051.204-.002.404-.064.587-.151v-.547a1.16 1.16 0 01-.38.056c-.314 0-.472-.126-.472-.514v-1.168l.852-.005zm-8.986.745c.002-.494.256-.861.834-.861.579 0 .83.424.83.861s-.252.944-.83.944c-.577 0-.837-.45-.835-.944zM17.306 28h-.776v.399a.79.79 0 00-.255-.308 1.222 1.222 0 00-.746-.25c-.834 0-1.462.523-1.462 1.575S14.695 31 15.529 31c.27.002.533-.014.746-.177a.83.83 0 00.266-.311v.477h.765V28zm29.182 2.36c-.578 0-.83-.392-.83-.844 0-.453.252-.902.83-.902s.812.479.812.902c0 .423-.236.844-.814.844h.002zm-.83.63v-.478a.835.835 0 00.265.313c.214.163.477.25.747.249.832 0 1.432-.562 1.439-1.557.007-.994-.607-1.614-1.44-1.614a1.218 1.218 0 00-.746.25.802.802 0 00-.265.301v-.467h-.767V33h.767v-2.01zm-6.369-2.496a.91.91 0 01.64.29l.374-.582a1.361 1.361 0 00-.991-.398c-1.055 0-1.72.734-1.729 1.619-.01.884.707 1.65 1.762 1.65a1.378 1.378 0 00.991-.393l-.374-.583a.898.898 0 01-.64.29.924.924 0 01-.941-.961c.007-.568.386-.934.907-.934l.001.002zm2.239.933c0-.551.252-.91.83-.91.579 0 .83.47.83.91 0 .44-.252.852-.83.852-.577 0-.836-.392-.832-.853.005-.462.002.001.002.001zM43.955 28h-.766v.36a.828.828 0 00-.265-.307 1.225 1.225 0 00-.746-.249c-.836 0-1.458.63-1.458 1.623s.623 1.564 1.458 1.564c.27.001.533-.087.746-.25a.826.826 0 00.265-.306V31h.766v-3z" fill="#fff"/><defs><linearGradient id="paint0_linear" x1="10.418" y1="9.712" x2="68.147" y2="76.017" gradientUnits="userSpaceOnUse"><stop stop-color="#1A1E21"/><stop offset="1" stop-color="#06060A"/></linearGradient></defs></svg>