<!-- by TradingView --><svg width="56" height="56" xmlns="http://www.w3.org/2000/svg"><path fill="#DE382C" d="M0 0h56v56H0z"/><path d="M9 25.68l5-3.085V39H9V25.68zM40 25.68l5-3.085V39h-5V25.68z" fill="#fff"/><ellipse cx="42.339" cy="19.552" rx="2.837" ry="2.827" fill="#fff"/><ellipse cx="17.397" cy="25.775" rx="2.837" ry="2.827" fill="#fff"/><path d="M27 15l-5 3v12.752a8.08 8.08 0 000 .493v.054h.002A8 8 0 1027 23.578V15zm6.102 15.998a3.106 3.106 0 11-6.212 0 3.106 3.106 0 016.212 0z" fill="#fff"/></svg>