<!-- by TradingView --><svg width="56" height="56" xmlns="http://www.w3.org/2000/svg"><path fill="#35AF5D" d="M0 0h56v56H0z"/><path d="M12 15.777C12 13.69 13.54 12 15.438 12h25.124C42.461 12 44 13.69 44 15.777v24.446C44 42.31 42.46 44 40.562 44H15.438C13.539 44 12 42.31 12 40.223V15.777z" fill="#fff"/><path fill="#fff" d="M37.939 34.742H44V44h-6.061z"/><path d="M24 33c0-2.924-2-3.172-3-2.93V33h3z" fill="#F6B237"/><path d="M38.344 17.002h-4.968c-.24 1.97.452 2.623.828 2.704 2.349-.194 3.036.323 3.086.605.211 1.291-.464 5.649-.828 7.666-.602-1.323-.903-5.447-.978-7.343-1.897-.452-2.346.43-2.334.928-.39 1.775.966 6.98 1.694 9.36l-2.258 5.206c2.348 1.065 3.437-1.01 3.688-2.18 1.204 2.906 2.986 2.664 3.726 2.18l-2.409-5.205c3.102-11.362 1.794-14.015.753-13.92zM30 27h-3v3h3v-3zM24.27 32.981H30v1.997h-4.56c-1.247 0-1.3-1.33-1.17-1.997zM30 22h-3v3h3v-3zM32 38.025V18.998h-2v19.027h2z" fill="#35AF5D"/><path d="M27 32.981V19.39c-1.57 0-1.988.841-2 1.262v12.33h2z" fill="#35AF5D"/><path d="M19 19v-2.921c1.725-.362 1.894.609 2 1.14V19c1.98 0 3.087 1.168 3 2h-3v3c2.152 0 3.159 1.168 3 2h-3v12c5.163.012 16.402.029 17.628 0 1.225-.029 1.463 1.167 1.372 2H20.762c-1.386 0-2.25-.638-2.508-.923 0 1.012-1.514 1.06-2.254.923V29.134c0-1.588 1.26-1.622 2-1.44v8.017c0 .996.708 1.276 1 1.289V26c-.131.05-.507.12-1.746 0-1.239-.12-1.364-1.218-1.254-2h3v-3c-.11.017-.507.04-1.746 0-1.239-.04-1.364-1.184-1.254-2h3zM31.495 17h-7.151c-.241 1.52.502 1.965.903 1.998h7.339c.24-1.52-.627-1.965-1.091-1.998z" fill="#35AF5D"/></svg>