<!-- by TradingView --><svg width="56" height="56" xmlns="http://www.w3.org/2000/svg"><path fill="#82BE41" d="M0 0h56v56H0z"/><ellipse cx="20" cy="28.028" rx="9" ry="9.025" fill="#fff"/><ellipse cx="19.995" cy="28" rx="5.995" ry="6" fill="#82BE41"/><path d="M19 37v-3.177h2V37c-.67.14-1.612.058-2 0z" fill="#82BE41"/><path d="M30 36.997h-9v-.084c2.877-.728 4.802-2.202 5.315-2.913H30v2.997zM31 24h3c0-1.601 2.001-2 3.284-2 2.146 0 3.238 2.165 1.893 3.9L31 34v3h12v-3h-7.467c1.761-1.547 5.19-5.082 6.221-6.285C42.785 26.51 43.018 24.81 43 24.11c0-1.695-.856-5.09-5.716-5.11-4.859-.02-6.3 3.24-6.284 5z" fill="#fff"/></svg>