<!-- by TradingView --><svg xmlns="http://www.w3.org/2000/svg" width="56" height="56"><path fill="#408CC4" d="M0 0h56v56H0z"/><path fill="#fff" d="M35 10h4v34h-4zm-5 3h4v31h-4V13zm-15 9h4v19.32h-4V22zm5-3h4v25h-4V19zm5-3h4v28h-4V16z"/><path fill-rule="evenodd" d="M34.94 31.16l.16.52c1.1 3.58 2.27 7.36 5.5 9.91v1.39c-4.05-.28-7.37-5.06-8.53-7.42-2.21 3.49-8.26 10.14-14.7 8.8-6.43-1.33-6.1-8.69-5.13-12.2.86-3.88 4.77-11.43 13.6-10.54 5.13.52 7.03 3.57 8.36 7.3 1.2-1.1 2.53-2.24 3.72-3.06.14-.1.26 0 .18.15a89.6 89.6 0 01-3.16 5.15zm-13.06-3.71c5.71-3.78 8.44 1.57 9.08 4.71-9.82 10.97-13.05 7.9-14.18 6.82a13.8 13.8 0 00-.1-.1c-1.04-.96-1.94-6.72 5.2-11.43z" fill="#408CC4"/></svg>