<!-- by TradingView --><svg width="56" height="56" xmlns="http://www.w3.org/2000/svg"><path fill="#CE2028" d="M0 0h56v56H0z"/><path d="M18.998 23l4.588-.003.617.032.276.036.258.05.233.074.211.086.186.105.17.124.144.146.11.164.093.187.063.21.038.234.013.25-.021.284-.051.306-.089.374-.131.348-.165.324-.22.288-.267.26-.321.215-.385.187-.344.137.166.082.237.064.195.1.16.128.127.16.09.188.058.223.026.247-.005.31-.02.352-.038.814v1.913h-3v-2.51l-.021-.133-.043-.114-.063-.082-.093-.064-.11-.041-.135-.032-.182-.023h-.632L20 32h-2.999l1.997-9zm2.455 3.76l.237-.013.216-.032.195-.074.173-.091.148-.123.131-.16.089-.2.064-.23.03-.223-.022-.178-.068-.133-.101-.1-.136-.073-.173-.046-.203-.023-.224-.004h-.28l-.334 1.703h.258zM27.152 31.946L25.998 26H29v3.597L30 26h2.998L29 34h-3.002l1.154-2.054zM35.277 31.047s-.639 1.165-1.992.953c-1.353-.212-1.464-1.888-1.324-2.854.14-.966 1.268-3.15 3.039-3.15 1.138 0 1.3.554 1.3.554l.7-3.553h3L38 32h-3l.277-.953zm.271-3.365c-.548-.165-.807.536-.91 1.105-.103.57-.27 1.282.362 1.428.632.147.813-.712.902-1.289.09-.577.195-1.08-.354-1.244zM45.6 30l-.1.256-.115.22-.136.206-.15.194-.17.174-.19.165-.206.145-.228.131-.25.12-.268.104-.29.083-.308.074-.333.053-.356.046-.377.02-.405.009-.32-.008-.317-.03-.298-.045-.285-.066-.268-.09-.242-.116-.224-.133-.202-.165-.171-.19-.145-.22-.114-.243-.08-.277-.043-.31L39 29.77l.035-.376.08-.41.092-.36.118-.334.145-.314.171-.289.193-.268.22-.244.237-.224.255-.194.285-.178.294-.152.317-.128.334-.108.35-.082.365-.062.378-.037.395-.009.4.009.369.045.338.062.307.086.273.112.237.136.21.166.18.186.15.206.11.236.092.256.048.277.022.302-.004.322-.04.347-.074.368-.093.392h-4.174l-.044.17-.03.227-.01.194.023.157.057.133.083.099.123.074.154.037.198.017.123-.013.114-.024.233-.116.105-.079.1-.099.084-.124.075-.161H45.6zm-2.094-1.698l.017-.075.027-.19-.005-.165-.035-.145-.061-.115-.088-.1-.114-.061-.14-.038-.163-.016-.167.016-.159.038-.135.061-.136.1-.11.116-.093.144-.078.165-.062.19-.035.075h1.537zM49.78 26l-.274 1.465h.017l.191-.308.212-.279.233-.249.245-.215.27-.178.282-.126.3-.085.153-.02.162-.005h.432l-.594 2.59-.27-.072h-.224l-.14.03-.283.085-.27.143-.246.181-.228.229-.183.261-.15.296-.09.312-.33 1.944H46L47 26h2.78z" fill="#fff"/><path d="M16.916 23.367l-.932.208-.887.24-.842.276-.79.294-.739.321-.687.349-.629.375-.29.195-.274.199 5.346 1.352-.086.43L4 24.48h7.623l.588-.244.621-.236.638-.212.666-.199.687-.18.707-.159.728-.136.743-.117-.085.37zM27.206 36.199L28 34.603l-1.125.142-1.165.116-1.207.072-1.236.026-.728-.009-.723-.026-1.406-.094-1.36-.151-1.302-.21-1.24-.258-1.17-.313-1.091-.356-.513-.196-.492-.205-.471-.219-.451-.222-.417-.237-.397-.245-.368-.254-.348-.263-.305-.272-.29-.272-.252-.28-.223-.295-.194-.299-.157-.302-.124-.304-.091-.316-.05-.32-.02-.322.012-.316.058-.317.086-.312.124-.312.158-.303.194-.303.223-.294.256-.285L8.992 26l-.23.205-.22.21-.203.209-.194.219-.178.223-.16.227-.286.463-.224.477-.09.245-.07.241-.063.254-.045.25-.029.512.016.37.058.375.087.36.12.362.157.347.182.353.223.338.248.326.277.32.31.317.335.303.36.294.388.286.414.276.438.263.463.254.48.24.508.224.525.218.546.2.566.188.583.178 1.22.303 1.28.241 1.332.178.694.063.695.049.71.026.716.014.827-.014.822-.044.819-.071.794-.09.785-.115.765-.139.74-.156.723-.173z" fill="#000"/></svg>