<!-- by TradingView --><svg xmlns="http://www.w3.org/2000/svg" width="56" height="56" viewBox="0 0 56 56"><path fill="#0036A7" d="M0 0h56v56H0z"/><path d="M14 12h28v22.02C42 39.47 32.78 45.8 28 47c-4.72-1.2-14-6.6-14-12.98V12z" fill="#fff"/><path d="M24 25.5a3.5 3.5 0 0 1 3.5-3.5H29v1.5a3.5 3.5 0 0 1-3.5 3.5H24v-1.5zM22 25.5a3.5 3.5 0 0 0-3.5-3.5H17v1.5a3.5 3.5 0 0 0 3.5 3.5H22v-1.5zM24.06 21.94a3.5 3.5 0 0 0 0-4.95L23 15.93l-1.06 1.06a3.5 3.5 0 0 0 0 4.95L23 23l1.06-1.06z" fill="#78AF01"/><path d="M20.36 40c-1.19-1-2.25-2.15-3.03-3.38L17 36v-7h22v6.75c-.86 1.5-2.2 2.96-3.7 4.25H20.35zM24.92 43A24.02 24.02 0 0 1 22 41.26V41h12v.03A24.8 24.8 0 0 1 30.93 43h-6zM34.55 28.03h-6.57L36 20.79v-2.4L40.42 22h-2.36l-3.5 6.03z" fill="#0036A7"/></svg>