<!-- by TradingView --><svg xmlns="http://www.w3.org/2000/svg" width="56" height="56"><path fill="#F0F3FA" d="M0 0h56v56H0z"/><path fill="#ED1C24" d="M27 23h2v14h-2zm14 1s-2 .9-2 2v11h7v-2h-5V24zm-13-1.5c-1.2 0-1.17-1-1-1.5l1-2 1 2c.17.5.2 1.5-1 1.5zm-16 8.17V37h-2V27c0-1.5 1.74-3 3.5-3a3.5 3.5 0 01.83 6.9l2.85 6.1h-2.2L12 30.67zM13.5 26a1.5 1.5 0 100 3 1.5 1.5 0 000-3z"/><path d="M15 19h-3v1.15a7.5 7.5 0 00-6 7.35V30a1 1 0 011 1v4a1 1 0 01-1 1v1h3v-9.5a4.5 4.5 0 119 0V37h3v-1a1 1 0 01-1-1v-4a1 1 0 011-1v-2.5a7.5 7.5 0 00-6-7.35V19zm29 0h-3v1.15a7.5 7.5 0 00-6 7.35V30a1 1 0 011 1v4a1 1 0 01-1 1v1h3v-9.5a4.5 4.5 0 119 0V37h3v-1a1 1 0 01-1-1v-4a1 1 0 011-1v-2.5a7.5 7.5 0 00-6-7.35V19zM31 37h3V17.5a3.54 3.54 0 00-5-2.66V14h-2v.84a3.49 3.49 0 00-1.5-.34 3.54 3.54 0 00-3.5 3V37h3V18c0-1 1.92-1 1.92 0h2.16c0-1 1.92-1 1.92 0v19z" fill="#FFD503"/></svg>