<!-- by TradingView --><svg width="56" height="56" xmlns="http://www.w3.org/2000/svg"><path fill="#163962" d="M0 0h56v56H0z"/><path d="M10 25c1 0 1.516.241 1.516 1.436 0 1.201-.31 1.68-1.516 1.564v-3zm-2 7c.287-.023.575-.059.862-.059.288 0 .85.036 1.138.059v-2.998L11.806 32c.344-.023.803-.059 1.148-.059.356 0 .701.036 1.046.059l-.448-.723a57.289 57.289 0 01-1.746-2.922c.86-.066 1.746-.355 1.746-2.267S11.77 24 10.448 24H8v8zM18.545 29.484l.686-1.827.741 1.827h-1.427zm1.547.516l.566 2c.226-.017.445-.044.671-.044.226 0 .445.027.671.044l-2.176-6a1.733 1.733 0 01-.593 0L17 31.983c.125-.009.25-.027.374-.027.125 0 .242.018.367.027L18.384 30h1.708zM28.351 32c.798-2.056 1.728-4.015 2.649-6a3.633 3.633 0 01-.873 0c-.513 1.452-1.13 2.895-1.776 4.33-.57-1.453-1.215-2.878-1.68-4.33-.275.018-.56.044-.835.044-.276 0-.56-.026-.836-.044a130.995 130.995 0 012.544 6c.133-.018.266-.044.409-.044.133 0 .265.026.398.044zM35 26v6h4c-.02-.123-.052-.255-.052-.379 0-.123.031-.255.052-.378-.64.07-1.355.114-2.425.123v-2.238h1.092c.472 0 .945.032 1.333.077-.02-.124-.052-.255-.052-.379 0-.123.031-.256.052-.38-.388.045-.86.083-1.333.083h-1.092v-1.894c1.07-.018 1.785.052 2.425.123-.02-.123-.052-.256-.052-.38 0-.122.031-.255.052-.378h-4zM43 31.982c.107-.008.221-.026.328-.026.106 0 .22.018.327.026V27.75l.892.998c.924 1.04 1.809 2.116 2.757 3.244L48 32v-6a2.016 2.016 0 01-.654 0v4.093c-1.154-1.408-2.374-2.737-3.536-4.093H43v5.982z" fill="#fff"/></svg>