<!-- by TradingView --><svg width="56" height="56" xmlns="http://www.w3.org/2000/svg"><path fill="#EE2722" d="M0 0h56v56H0z"/><path d="M37.761 26.896c1.032-1.349 1.834-3.577 1.834-5.87 0-4.67-4.371-9.026-11.615-9.026-4.447 0-7.978 1.788-10.365 3.827a15.752 15.752 0 014.911-.769c5.559 0 12.078 4.386 15.235 11.838zm-19.523 2.21c-1.031 1.347-1.833 3.576-1.833 5.867 0 4.671 4.371 9.027 11.615 9.027 4.447 0 7.978-1.788 10.363-3.825-1.168.382-2.83.767-4.909.767-5.559 0-12.078-4.384-15.235-11.836zm8.656-10.866c-1.347-1.033-3.576-1.835-5.867-1.835-4.67 0-9.027 4.371-9.027 11.617 0 4.447 1.788 7.976 3.825 10.361a15.727 15.727 0 01-.767-4.909c0-5.557 4.384-12.076 11.836-15.234zm14.048 4.286c0 5.559-4.384 12.078-11.838 15.235 1.347 1.032 3.578 1.836 5.87 1.836 4.67 0 9.026-4.372 9.026-11.615 0-4.449-1.79-7.98-3.825-10.365.38 1.166.767 2.83.767 4.909z" fill="#fff"/></svg>