<!-- by TradingView --><svg width="56" height="56" xmlns="http://www.w3.org/2000/svg"><path fill="#003C63" d="M0 0h56v56H0z"/><path d="M7 26.508v.754c.871-.785 2.166-1.178 2.781-1.178.39 0 .718.084.985.252a.775.775 0 01.415.722c0 1.282-2.241 1.307-2.164 0 0 0-.205-.042-.576.05-.346.09-1.441.85-1.441 1.19V33.8a.2.2 0 01-.2.2H5.2a.2.2 0 01-.2-.2V28c0-.45-.297-.706-.892-.769-.256-.031-.353-.018-.353-.122 0-.247 1.745-.609 2.507-.852.236-.105.395-.157.477-.157.174 0 .261.136.261.408zM17 29.27v-1.82c0-.565-.491-.848-1.188-.848-.374 0-1.723 0-1.86.475.983.527.322 2.052-.708 2.052-1.148 0-1.282-1.442-.446-2.087.43-.335.808-.58 1.433-.738a7.907 7.907 0 011.857-.25c.902 0 1.579.12 2.03.36.451.24.6.523.713.848.113.313.169.648.169 1.004V33.8a.2.2 0 01-.2.2h-1.6a.2.2 0 01-.2-.2v-.684l-.527.172c-.41.199-.8.356-1.169.47a3.8 3.8 0 01-1.23.19c-.8 0-1.384-.168-1.753-.503-.359-.335-.538-.732-.538-1.193 0-.732.4-1.302 1.2-1.71.799-.408 2.233-.832 4.017-1.272zm0 3.343v-2.84c-.81.188-1.588.439-2.05.753-.45.303-.676.743-.676 1.318 0 .325.092.607.277.848.194.24.497.36.907.36A3.18 3.18 0 0017 32.614zM27 33.31s-.375.203-.62.34c-.502.288-1.273.329-1.846.329a4.785 4.785 0 01-2.844-.91c-.841-.618-1.261-1.58-1.261-2.888 0-1.14.364-2.109 1.091-2.904.728-.805 1.876-1.208 3.445-1.208.676 0 1.328.152 2.035.455V24.1c0-.47-.267-.773-.882-.825a5.905 5.905 0 01-.277-.063c-.082-.02-.123-.073-.123-.157 0-.203 1.965-.767 2.282-.838.317-.07.669-.206.801-.206.164 0 .246.392.246.392l-.046 11.398a.2.2 0 01-.2.2l-1.601.002a.2.2 0 01-.2-.2v-.493zm0-.657v-5.501c-.605-.293-1.102-.44-1.574-.44-.687 0-1.271.257-1.753.77-.482.502-.723 1.354-.723 2.557 0 2.156.836 3.233 2.507 3.233.656 0 1.133-.169 1.543-.618zM31.2 34a.2.2 0 01-.2-.2v-6.976a.2.2 0 01.107-.177c.239-.124.806-.419 1.023-.525.287-.147.492-.22.615-.22.164 0 .255.13.255.392V33.8a.2.2 0 01-.2.2h-1.6zM46 26.256v.736c.523-.304 1.172-.524 1.602-.66.43-.146.908-.22 1.43-.22 1.21 0 2.004.294 2.384.88.39.575.584 1.156.584 1.742v5.072a.2.2 0 01-.2.2l-1.6-.005a.2.2 0 01-.2-.2v-5.162c0-.7-.44-1.156-.768-1.365-.318-.21-.707-.314-1.168-.314-.605 0-1.408.236-2.064.706v6.14a.2.2 0 01-.2.2h-1.6a.2.2 0 01-.2-.199v-5.748c0-.283-.072-.471-.215-.565-.144-.094-.37-.152-.677-.173-.266-.031-.4-.11-.4-.235 0-.152 2.026-.854 2.246-.956.472-.178.733-.267.785-.267.174 0 .261.131.261.393zM40 29.302v-1.82c0-.566-.653-.848-1.35-.848-.374 0-1.722 0-1.86.475.983.526.322 2.051-.708 2.051-1.148 0-1.282-1.442-.446-2.087.43-.335.808-.58 1.433-.737a7.906 7.906 0 011.857-.252c.902 0 1.7.12 2.152.361.451.241.733.524.846.848.112.314.076.65.076 1.005v5.503a.2.2 0 01-.2.2l-1.6.005a.2.2 0 01-.2-.2V33l-.69.32c-.41.198-.799.355-1.168.47a3.8 3.8 0 01-1.23.189c-.8 0-1.384-.168-1.753-.502-.359-.335-.538-.733-.538-1.193 0-.733.4-1.303 1.2-1.711C36.62 30.165 38 29.5 40 29.302zm0 3.198v-2.696c-.81.188-1.75.44-2.212.753-.45.304-.676.743-.676 1.319 0 .324.092.607.277.847.194.24.497.361.907.361.451 0 1.222-.291 1.704-.584z" fill="#fff"/><path d="M31.004 23.386a.2.2 0 01.105-.177l1.602-.856a.2.2 0 01.295.177l-.01 1.872a.2.2 0 01-.112.179l-1.593.779a.2.2 0 01-.287-.18v-1.794z" fill="#26BCB3"/></svg>