<!-- by TradingView --><svg width="56" height="56" xmlns="http://www.w3.org/2000/svg"><path fill="#4B2A91" d="M0 0h56v56H0z"/><path d="M26.087 32.715c0 .915-.725 1.659-1.618 1.659-.896 0-1.62-.744-1.62-1.66 0-.913.724-1.657 1.62-1.657.893 0 1.618.744 1.618 1.658zM27.97 43.07V20.52c-.079-3.448-2.11-6.397-5.007-7.741a8.79 8.79 0 00-3.079-.76c-5.346-.29-9.478 2.946-10.58 7.315-.716 2.66-.163 5.857 1.627 8.543 2.196 3.299 11.225 12.045 15.584 15.942a.89.89 0 00.536.182.93.93 0 00.92-.93zm5.564-11.308c-2.109 0-3.814 1.788-3.814 3.996 0 2.204 1.705 3.993 3.814 3.993 2.102 0 3.812-1.789 3.812-3.993 0-2.208-1.71-3.996-3.812-3.996zm-3.73 9.463c-.754 0-1.363.622-1.363 1.388 0 .767.61 1.387 1.363 1.387.752 0 1.361-.62 1.361-1.387 0-.766-.61-1.388-1.36-1.388zM40.95 21.598c-2.956 0-5.356 2.476-5.356 5.536 0 3.053 2.4 5.528 5.357 5.528 2.963 0 5.36-2.475 5.36-5.528 0-3.06-2.397-5.536-5.36-5.536zm3.271-6.396a2.784 2.784 0 00-2.78 2.787 2.785 2.785 0 002.78 2.785A2.783 2.783 0 0047 17.99a2.783 2.783 0 00-2.779-2.787zm-10.074 6.397c2.69 0 4.87-2.148 4.87-4.8 0-2.65-2.18-4.799-4.87-4.799-2.681 0-4.86 2.148-4.86 4.8 0 2.651 2.179 4.799 4.86 4.799zm.187 5.085c0 1.674-1.33 3.03-2.972 3.03-1.64 0-2.97-1.356-2.97-3.03 0-1.675 1.33-3.031 2.97-3.031 1.642 0 2.972 1.356 2.972 3.031z" fill="#fff"/></svg>