<!-- by TradingView --><svg xmlns="http://www.w3.org/2000/svg" width="56" height="56"><path fill="#F0F3FA" d="M0 0h56v56H0z"/><path d="M11.03 31c.47 5.85 7.34 6.8 10.84 5.66-7 .6-9.81-7.55-.07-15.13 7.8-6.07 14.04-4.58 16.15-3.09-1.28-3.52-5.2-4.42-7.16-4.42-8.83-.53-20.4 9.16-19.76 16.98z" fill="url(#agirmae4b)"/><path d="M14.9 31.26c0 3.72 3.47 6.54 6.97 5.4-7 .6-9.81-7.55-.07-15.13 7.8-6.07 14.04-4.58 16.15-3.09-2.56-2.11-4.9-1.97-6.85-1.86h-.02c-8.14 1.2-16.19 9-16.19 14.68z" fill="#0C4C91"/><path d="M11.03 31c.47 5.85 7.34 6.8 10.84 5.66C8.56 38.3 9 25.51 19.26 18.66c9.7-6.5 15.8-4.05 18.7-.22-1.29-3.52-5.2-4.42-7.17-4.42-8.83-.53-20.4 9.16-19.76 16.98z" fill="url(#bgirmae4b)"/><path d="M39.37 25.03c-6.14 14.3-23.54 16.67-28.1 11.15 2.25 5.01 8.03 5.96 10.73 5.8 13.66-.8 20.45-10.86 22.14-15.79L47 27.93l-2.54-9.34-8.41 6.44h3.32z" fill="url(#cgirmae4b)"/><path d="M43.8 25.43c-6.87 17.42-28.05 19.5-32.54 10.75 2.26 5.01 8.04 5.96 10.74 5.8 13.66-.8 20.45-10.86 22.14-15.79l-.34-.76z" fill="url(#dgirmae4b)"/><path d="M39.37 25.03c-6.14 14.3-23.54 16.67-28.1 11.15 2.7 4.25 9.84 3.56 11.29 3.23 13.22-3 17.4-13.68 17.7-14.95l-.9.57z" fill="url(#egirmae4b)"/><path d="M37.8 24.37l-1.92.7 3.48-.03.91-.58-2.47-.09z" fill="#009A4D"/><path d="M46.1 26.69l-2.3-1.26.34.77L47 27.92l-.9-1.23zm-1.95-7.11l.3-.99-8.55 6.48 1.89-.7 6.36-4.79z" fill="#90CA65"/><defs><linearGradient id="agirmae4b" x1="32.45" y1="13.3" x2="13.99" y2="34.93" gradientUnits="userSpaceOnUse"><stop stop-color="#0C4C91"/><stop offset=".61" stop-color="#0081AD"/><stop offset="1" stop-color="#084E92"/></linearGradient><linearGradient id="bgirmae4b" x1="36.38" y1="16.04" x2="14.16" y2="35.96" gradientUnits="userSpaceOnUse"><stop offset=".33" stop-color="#0084AF"/><stop offset="1" stop-color="#0C4C91"/></linearGradient><linearGradient id="cgirmae4b" x1="44.31" y1="20.26" x2="18.14" y2="42.58" gradientUnits="userSpaceOnUse"><stop stop-color="#03A251"/><stop offset=".42" stop-color="#8DC864"/><stop offset="1" stop-color="#009D4F"/></linearGradient><linearGradient id="dgirmae4b" x1="44.14" y1="26.77" x2="13.88" y2="39.57" gradientUnits="userSpaceOnUse"><stop stop-color="#009A4D"/><stop offset="1" stop-color="#009D4F"/></linearGradient><linearGradient id="egirmae4b" x1="40.23" y1="25.44" x2="13.34" y2="37.79" gradientUnits="userSpaceOnUse"><stop offset=".22" stop-color="#90CA65"/><stop offset="1" stop-color="#47AF56"/></linearGradient></defs></svg>