<!-- by TradingView --><svg width="56" height="56" xmlns="http://www.w3.org/2000/svg"><path fill="#FF7900" d="M0 0h56v56H0z"/><path d="M24.224 27.77c5.922 0 12.84-1.767 12.84-7.424 0-4.01-3.924-5.346-7.694-5.346C23.61 15 13 18.178 13 29.46c0 5.663 4.293 8.548 11.186 8.548 7.286 0 12.412-4.797 14.256-10.634-4.28 7.32-9.72 9.6-14.16 9.6-5.51 0-7.612-4.06-7.612-7.538 0-9.956 7.785-13.39 12.7-13.39 3.318 0 5.615 2.136 5.615 4.451 0 6.394-9.616 6.497-13.854 6.497C20.696 26.994 19 27 19 27l-1 1c1.94.273 4.83.714 7.744 2.176C31.804 33.212 37.486 41 45.033 41c2.738 0 3.45-.828 3.967-1.553-3.697 2.337-9.89-1.714-13.228-4.848-2.75-2.578-5.157-5.28-11.548-6.83z" fill="#fff"/></svg>