<!-- by TradingView --><svg xmlns="http://www.w3.org/2000/svg" width="56" height="56"><path fill="#F0F3FA" d="M0 0h56v56H0z"/><path d="M17 17v8.42c0 1.57-1.05 2.93-1.79 3.9l-.27.36a19.17 19.17 0 01-4.96 4.58A11.1 11.1 0 018 27.9c0-5.44 3.88-9.96 9-10.9zm4 0v8.42c0 1.6 1.16 3.57 1.9 4.56a15.03 15.03 0 005.08 4.33 11.1 11.1 0 002.02-6.4c0-5.44-3.88-9.96-9-10.91zm4.05 20.17a19.58 19.58 0 01-5.51-4.98 3.08 3.08 0 01-.3-.52 3.6 3.6 0 00-.24-.43l-.18.28-.26.39a23.41 23.41 0 01-5.72 5.19 10.89 10.89 0 0012.2.07z" fill="#0259A0"/><path d="M35 17v8.39c0 1.67-1.09 3.12-1.81 4.1l-.11.14A19.32 19.32 0 0128 34.29c-1.26-1.8-2-4-2-6.38 0-5.44 3.88-9.96 9-10.91zm4 0v8.39c0 1.58 1.33 3.55 2.08 4.54a14.98 14.98 0 004.94 4.32A11.1 11.1 0 0048 27.91c0-5.44-3.88-9.96-9-10.91zm4.12 20.13a19.55 19.55 0 01-5.54-4.95c-.14-.18-.24-.36-.34-.54a5.47 5.47 0 00-.24-.4c-.07.09-.13.2-.18.3-.07.12-.14.25-.23.36a23.1 23.1 0 01-5.73 5.22 10.89 10.89 0 0012.26 0z" fill="#0259A0"/><path d="M28 21.55a11.07 11.07 0 000 12.73 11.07 11.07 0 000-12.73z" fill="#E83B37"/></svg>