<!-- by TradingView --><svg width="56" height="56" xmlns="http://www.w3.org/2000/svg"><path fill="#EA1C2C" d="M0 0h56v56H0z"/><path d="M9.128 29.42c.636-.028 2.14-.935 2.14-2.352C11.268 25.84 9.976 25 8.352 25H4v8h1v-3.448h2.617L10.584 33h1.768l-3.224-3.58zM5 29v-3.453h3.209c1.178 0 1.778.55 1.791 1.521A1.922 1.922 0 018.035 29H5zm23.324-4l-3.127 6.347L22 25h-1.02l3.822 8H25l4-8h-.676zm10.65 0c-2.451 0-4.836 1.757-4.836 3.93.03 2.252 2.294 3.08 3.444 3.07-.324-.227-.637-.396-.922-.718-.494-.557-1.011-1.116-1.011-2.353 0-1.983 1.491-3.4 3.334-3.4 1.844 0 3.297 1.511 3.297 3.4 0 1.89-1.197 3.504-3.04 3.504H31V25h-1.005v8h9.245c2.3 0 4.541-1.908 4.541-4.07 0-2.164-2.337-3.93-4.807-3.93zM52 25h-.57v5.762L46.128 25H45v8h.587v-6.564L51.62 33H52v-8zm-37 7.386v-2.829h3V29h-3v-3.433h4.995L19.701 25H14v8h5.701l.294-.614H15z" fill="#fff"/></svg>