<!-- by TradingView --><svg xmlns="http://www.w3.org/2000/svg" width="56" height="56"><path fill="#F0F3FA" d="M0 0h56v56H0z"/><path d="M27 44H17l10-8.5V44z" fill="url(#awib421z1)"/><path d="M39 44h-6.74L27 35.5 39 44z" fill="url(#bwib421z1)"/><path d="M27 35.52L17 23.15l10-13.14v25.5z" fill="url(#cwib421z1)"/><path d="M17 44V23.15L27 35.5 17 44z" fill="url(#dwib421z1)"/><path d="M35.43 33.1L27 20.9V10l.51-.01C34.41 10 40 15.8 40 22.96c0 3.9-1.93 7.76-4.57 10.14z" fill="url(#ewib421z1)"/><path d="M39 44l-12-8.5V20.91l8.28 11.83L39 38.06V44z" fill="url(#fwib421z1)"/><defs><linearGradient id="awib421z1" x1="27.39" y1="45.02" x2="21.03" y2="38.53" gradientUnits="userSpaceOnUse"><stop stop-color="#19AD48"/><stop offset=".91" stop-color="#01471C"/></linearGradient><linearGradient id="bwib421z1" x1="25.94" y1="37.44" x2="38.05" y2="43.82" gradientUnits="userSpaceOnUse"><stop stop-color="#01471C"/><stop offset="1" stop-color="#19AD48"/></linearGradient><linearGradient id="cwib421z1" x1="17.55" y1="22.76" x2="30.8" y2="22.76" gradientUnits="userSpaceOnUse"><stop stop-color="#19AD48"/><stop offset=".83" stop-color="#01471C"/></linearGradient><linearGradient id="dwib421z1" x1="24.05" y1="33.58" x2="13.49" y2="33.58" gradientUnits="userSpaceOnUse"><stop stop-color="#19AD48"/><stop offset=".73" stop-color="#01471C"/></linearGradient><linearGradient id="ewib421z1" x1="36.52" y1="16.84" x2="27.98" y2="25.2" gradientUnits="userSpaceOnUse"><stop stop-color="#19AD48"/><stop offset="1" stop-color="#01471C"/></linearGradient><linearGradient id="fwib421z1" x1="36.02" y1="30.18" x2="29.48" y2="34.83" gradientUnits="userSpaceOnUse"><stop offset=".01" stop-color="#01471C"/><stop offset="1" stop-color="#19AD48"/></linearGradient></defs></svg>