<!-- by TradingView --><svg width="56" height="56" xmlns="http://www.w3.org/2000/svg"><path fill="#E22027" d="M0 0h56v56H0z"/><path d="M45.036 20H40.55L35 32.525V27h-8v3h3.984c-.718 1.297-2.101 2.209-3.69 2.209a4.215 4.215 0 113.447-6.641l2.569-3.13a8.165 8.165 0 00-6.018-2.64 8.19 8.19 0 00-7.351 4.583c-.189-1.011-.63-1.858-1.318-2.529C17.51 20.715 16.018 20 13.513 20H6v16h5v-5.182L15.524 36h5.689L16.5 31c.793-.287 1.596-.726 2.123-1.265.207-.201.39-.418.552-.65.53 4.017 3.96 7.118 8.117 7.118 1.646 0 3.423-.489 4.708-1.327V36h6.873l.977-2h5.89l.98 2h5.047l-6.731-16zM15.34 25.544c0 1.014-.75 1.456-2.057 1.456H11v-3h2.26c.95 0 2.081.224 2.081 1.544zM41.23 30l1.566-3.928 1.6 3.928h-3.166z" fill="#fff"/></svg>