<!-- by TradingView --><svg xmlns="http://www.w3.org/2000/svg" width="56" height="56"><path fill="#CE153F" d="M0 0h56v56H0z"/><path d="M27 33.36v-2.62c.86-.08 2.8-.05 2.8 1.26 0 1.12-.84 1.35-1.86 1.35a63.71 63.71 0 00-.94 0z" fill="#fff"/><path d="M36.25 19.81c-.47-2.73-1.5-5.82-4.52-7.75-.51-.32-1-.57-1.34-.74-.54-.27-.71-.36-.03-.3 4.36.37 7.24 3.9 7.95 4.76l.07.09c2.45 2.96 2.19 7.73 2.06 8.64-.12.91-.5 2.34-.93 3.27l-.13.25c-.13.24-.26.49-.17.41 3.33-3.1 3.14-6.81 2.41-9.44l-.23-.79c-.1-.3-.16-.49-.1-.38-.11-.2.5.45.74.8 4.5 6.71.31 12.88-2.98 14.71-.11.07-.25.14-.4.21-.29.16-.58.31-.62.36-.05.08-.05.15 1.07-.17a7.4 7.4 0 003.9-2.46c.4-.47.62-.95.75-1.22.1-.2.13-.27.13-.12 0 .16-.26 1.2-.4 1.72a8.74 8.74 0 01-3.45 4.88c-.55.35-1.15.55-1.84.77-.73.23-1.78.4-2.48.29-.33-.05.07.43.15.51.72.65 1.8 1.3 3.22.96.23-.06-.13.22-.36.4l-.13.1c-.51.41-1.12.7-1.79.97-1.17.46-3.06.6-4.43.19-.42-.13-.76-.31-1.04-.46l-.34-.17-.18-.09a.95.95 0 00-.2-.08c-.04-.01-.1.33-.17.72a8.57 8.57 0 01-1.59 3.8l-.03.06c-.11.15-.35.47-.44.5-.17.03-.85-.83-.96-.97a11.18 11.18 0 01-1.52-2.54c-.17-.4-.36-.85-.45-.84-.06 0-.23.12-.44.25-.23.15-.5.32-.68.4-1.27.54-3.9.68-6.42-1.23-.36-.28-.9-.89-.74-.8.35.2.81.29 1.27.35 1.5.2 2.81-.58 3.6-1.08.28-.18.67-.47.7-.58.03-.08-.31 0-.66.07l-.5.1c-.65.07-1.72.09-2.47.04-3.86-.25-5.81-3.32-6.6-5.3-.09-.2-.17-.58-.11-.57a17.24 17.24 0 00.65.55A8 8 0 0018 34.84c.12-.01.11-.16-.11-.25a8 8 0 01-1.85-1.35 13.08 13.08 0 01-2.38-3.2l-.18-.32c-2.6-4.52-1.32-8.55.19-10.33.12-.15.5-.54.42-.43.2-.26.08.14-.06.65-.11.36-.23.78-.26 1.03-.43 4.4 1.57 6.93 2.75 7.7.1.08-.21-.68-.45-1.27-.12-.27-.21-.5-.24-.6-.27-.83-.5-2.16-.53-2.65-.5-6.66 3.2-11.63 10.03-12.7.68-.1.12.18-.37.43l-.4.21c-.68.4-1.77 1.25-2.46 2.03-3.93 4.42-3.21 8.8-1.61 11.76.44.83 1.74 2.63 2.93 2.95.02 0 .07-.24.12-.53.05-.26.1-.56.16-.76.17-.64.53-1.2.87-1.72l.11-.18.04-.05c.07-.1.18-.26.1-.31l-.28-.17a1.6 1.6 0 01-.3-.2c-.58-.53-1.1-1.61-.86-1.48 1.47.79 2.47.1 2.68-.03a3.1 3.1 0 001.12-1.8v-.02c.15-.57.3-1.2.1-1.81-.1-.3-.55-.85-1.03-.74-.06.01-.1.07-.13.12l-.01.02c-.19.27-.08.4.14.51.22.1.1.23-.15.26-.62.08-1.11-.41-.82-1.01.1-.2.27-.33.44-.45l.25-.2c-.36-.13-.7.28-1 .64-.14.18-.28.35-.4.44-.32.2-.85.31-1.34.22-.34-.07-.5-.14-.65-.36-.15-.2-.32-.5-.27-.83.04-.2.13-.4.26-.4.04-.01.05.09.05.21 0 .14.02.32.08.43.45.81 1.39.06 1.74-.27.2-.2.47-.43.74-.57l.33-.14.17-.07c.05-.04.08-.1-.05-.2-.6-.42-1.3-.2-1.6.33l-.12.25c-.06.13-.11.26-.2.37-.18-.1-.26-.22-.36-.39a11.59 11.59 0 00-.08-.13c-.13-.21-.25-.4-.34-.67-.15-.44-.25-1 0-1.44.2-.38.6-.7 1.05-.84l.2-.04c.11 0 .22-.02.3-.07.05-.03.1-.1.13-.18l.07-.13c.14-.16.4-.34.6-.42 1.2-.52 2.16-.03 3.11.45.6.3 1.17.6 1.8.64a3.64 3.64 0 002.31-.73c.1-.1.1 0 .01.13a4.05 4.05 0 01-1.34 1.7v.01c-.13.1-.22.16-.13.31.72 1.09.8 1.78.86 2.37l.04.35a4 4 0 01-.03 1.03c-.12.79-.37 1.9-.32 1.68l-.14.6c-.08.33-.16.64-.21.97-.1.65.09 1.16.25 1.6l.1.27c.25.74 1.01 1.14 1.41 1.34.17.09.27.14.25.17-.04.07-.63 0-1.12-.07-.34-.05-.63-.09-.66-.07-.17.11.54 1.43 1.07 2.08l.06.08c.1.15.24.33.45.18a6.77 6.77 0 002.44-2.93l.15-.31c.51-1 1.07-2.97.6-5.73zM26.08 16c.11.14.32.1.48.03.74-.35.45-1.27-.46-1.27l-.02.04a.65.65 0 00-.03.06c.14.1.31.25.35.45.05.28-.12.46-.25.6l-.07.09zm.55 21.06h.94c-.04-.12-.16-.18-.27-.24-.12-.05-.3-.1-.3-.22V34c-.03 0 .06 0 0 0h.78c.8.02 1.48 1 2.08 1.8.2.27.38.52.56.72.16.18.43.38.68.47.37.14.95.1 1.3-.03.08-.03.13-.07.17-.19-.2 0-.72 0-1.08-.4l-.25-.3-.18-.21-.23-.28c-.52-.63-1.13-1.4-1.95-1.75 0 0 .9-.1 1.38-.53.51-.48.69-1.83.2-2.48-.1-.13-.25-.27-.4-.35a2.5 2.5 0 00-.61-.27c-.92-.3-3.93-.2-3.93-.2 0 .14.13.24.26.33.11.08.22.16.22.27v2.75c-.2.03-.42.07-.66.13l-.29.78c.28-.1.6-.17.95-.21v2.53c0 .12-.12.17-.23.22-.12.06-.24.11-.28.24v.01h1.14z" fill="#fff"/></svg>