<!-- by TradingView --><svg xmlns="http://www.w3.org/2000/svg" width="56" height="56"><path fill="#555658" d="M0 0h56v56H0z"/><path fill-rule="evenodd" d="M15.24 20c-2.4.03-5.16.16-6.24.23v.52c2-.28 2 .9 2 1.42v11.7c.05 1.62-.95 1.63-2 1.63v.5h6v-.5c-1.86 0-2-.49-2-1.63v-4.52h3.45c.48.15 2.85 2.51 3.98 3.68A8.38 8.38 0 0028 35.89v-.49c-2.45-.16-4.1-1.66-5.44-3.06a95.79 95.79 0 00-3.88-3.71c1.13-.26 3.32-1.56 3.32-4.17 0-3.39-3.77-4.5-6.76-4.46zM20 24.6c0-4.05-4.6-4.36-7-4.05v8.24c6.25.68 7-2.4 7-4.2zm9-4.6h6v.52c-.86 0-2.02.24-2 1.59V27h10v-4.9c0-1.07-.43-1.6-2-1.6V20h6v.52c-.62 0-2 .32-2 1.59v11.62c0 .71 0 1.72 2 1.72V36h-6v-.55c1.6 0 2-.34 2-1.72V28H33v5.73c0 .65.15 1.72 2 1.72V36h-6v-.55c1.11 0 2-.11 2-1.72V22.1c.05-.53-.42-1.6-2-1.6V20z" fill="#fff"/></svg>