<!-- by TradingView --><svg width="56" height="56" xmlns="http://www.w3.org/2000/svg"><path fill="#EE333E" d="M0 0h56v56H0z"/><path d="M40 33.667V18h2.5c2.346 0 3.178.224 3.178 2H47v-4H29l.002 4h1.388c0-1.75.864-2.004 3.21-2.004H36v15.671C36 35.591 34.829 36 34 36v1h8v-1c-.848 0-2-.413-2-2.333zM15 23v-5h2.5c3.614 0 4.5 1.982 4.5 4 0 1.745-.798 3.863-4.76 3.918H17v1.31c.053 0 .199.004.25.008 1.967.14 3.103 2.94 4.299 5.888.743 1.83 1.509 3.718 2.51 5.06.788 1.054 2.564 1.816 4.317 1.816H31v-1.266h-.336c-.841 0-1.618-.689-1.917-1.068-.805-1.02-1.552-2.678-2.322-4.387-1.359-3.014-2.79-6.188-4.738-6.31C24.564 26.446 27 24.342 27 21.5c0-2.503-1.813-5.5-7.95-5.5H9v1.25c.849 0 2 .332 2 2.25v14.087C11 35.51 9.83 36 9 36v1h8v-1c-.849 0-2-.463-2-2.381V23z" fill="#fff"/></svg>