<!-- by TradingView --><svg width="56" height="56" xmlns="http://www.w3.org/2000/svg"><path fill="#0C609A" d="M0 0h56v56H0z"/><path fill-rule="evenodd" d="M28 43c8.284 0 15-6.716 15-15 0-8.284-6.716-15-15-15-8.284 0-15 6.716-15 15 0 8.284 6.716 15 15 15zm0 2c9.389 0 17-7.611 17-17s-7.611-17-17-17-17 7.611-17 17 7.611 17 17 17z" fill="#fff"/><path d="M20.812 20L18 24h6v-4h-3.188zM25 20h2v4h-2zm6.894 0H28v4h3.629c.637 0 2.383.332 2.371 2-.012 1.668-1.628 2-2.371 2h-1.832v4C31.629 31.82 38 32 38 25.695c0-4.692-4.274-5.7-6.106-5.695zM18 28h4v8.005h-4z" fill="#fff"/><path fill="#7FBBDE" d="M22 28h8v4h-8z"/><path d="M33.103 36l-3.109-4.023c2.544-.116 4.244-.644 4.73-.907L39 36h-5.897z" fill="#7FBBDE"/></svg>