<!-- by TradingView --><svg width="56" height="56" xmlns="http://www.w3.org/2000/svg"><path fill="#4A5E5E" d="M0 0h56v56H0z"/><path d="M42.375 24.267C40.843 18.095 35.147 13 27.975 13 19.507 13 12.877 20.422 13 27.843c0 .42.016.865.058 1.36 1.994-1.04 3.723-2.214 5.745-3.547a70.601 70.601 0 002.028-1.389c.375-1.369.83-3.025.87-3.127.94-.679 2.86-1.682 3.299-2.14.013.471.115 1.185.202 2 1.424-1.221 2.246-2.244 3.073-3.317v-.006c4.124 2.92 8.231 5.137 14.1 6.59zm1.616 2.825c-3.488-.746-8.493-2.424-15.289-5.802-5.427 4.172-11.319 8.249-16.196 10.654-.192-.77-.346-1.57-.418-2.381.006-.003.033 0 .039-.003l-.039.003-.026-.307a16.194 16.194 0 01-.066-1.413C11.996 19.107 19.164 12 27.975 12c7.465 0 13.861 5.029 15.557 12.23l.07.3-.018.004.024.007c.195.827.325 1.679.383 2.55zm-.045 2.037l.05.014c.013-.182-.016-.533-.01-.717-1.74-.73-3.661-1.307-6.34-1.928-8.315-1.928-17.104 1.433-24.769 6.7a15.827 15.827 0 004.016 6.315c5.394-7.868 15.045-12.162 27.053-10.384zM18.305 40.726C23.529 32.72 33.579 29.1 43.828 30.672 42.611 38.227 36.005 44 28.037 44a16.014 16.014 0 01-9.732-3.274z" fill="#fff"/></svg>