<!-- by TradingView --><svg xmlns="http://www.w3.org/2000/svg" width="56" height="56"><path fill="url(#a5zufdkyl)" d="M0 0h56v56H0z"/><path fill-rule="evenodd" d="M46.41 26.88c.15-.1.7-.3 1.64-.28 1.17.02 1.9.7 1.95 1.52V31h-1v-.22c-.13.09-.57.22-.95.22-.58 0-2.05-.09-2.05-1.34 0-1.3 1.5-1.48 2.05-1.48.25 0 .62.04.95.1 0-.48-.39-1.34-2.59-.67v-.73zM49 28.89v.85c-.02.18-.23.54-.9.6-.84.07-1.1-.4-1.1-.7 0-.28.15-.75.74-.75H49zm-31.59-2.03c.15-.1.7-.3 1.64-.28 1.17.03 1.9.7 1.95 1.53V31h-1v-.23c-.13.09-.57.23-.95.23-.58 0-2.05-.1-2.05-1.35 0-1.3 1.5-1.48 2.05-1.48h.16c.24 0 .53-.01.79.04 0-.38-.39-1.28-2.59-.61v-.74zM20 28.88v.85c-.02.18-.23.54-.9.6-.84.06-1.1-.4-1.1-.7 0-.28.15-.75.74-.75H20z" fill="#fff"/><path d="M23 25.5V31h1v-3.74l2 2.56 2-2.56V31h1v-5.5h-1l-2 2.63-2-2.63h-1z" fill="#fff"/><path fill-rule="evenodd" d="M34.08 29.2c.08-.86-.24-2.6-2.12-2.6-1.88-.01-2.37 1.49-2.37 2.27 0 .87.41 2.08 2.49 2.13.33 0 1.12-.05 1.69-.3v-.88c-.27.14-.97.42-1.69.42-.9 0-1.44-.59-1.48-1.03h3.48zm-.96-.74c0-.32-.38-1.1-1.2-1.11-.83-.02-1.3.69-1.3 1.11h2.5z" fill="#fff"/><path d="M39 25v6h-1v-.29c-.07.06-.33.29-.92.29-.75 0-2.4-.27-2.4-2.25 0-2 1.73-2.27 2.4-2.27.52 0 .76.1.9.15H38V25h1zm-1 2.45a3.25 3.25 0 00-1.02-.21c-.48 0-1.33.26-1.33 1.5 0 1.23.92 1.5 1.33 1.48.4 0 .86-.21 1.02-.5v-2.27zM40 25h1v1h-1zm0 1.6h1V31h-1zM51 25h1v6h-1zm-6.95 1.57c.74 0 1.3.2 1.48.29v.8a4.06 4.06 0 00-1.48-.36c-.7 0-1.5.3-1.52 1.44-.01 1.14.82 1.48 1.52 1.46.7-.02 1.28-.23 1.48-.34v.84c-.23.1-.85.3-1.48.3-.78 0-2.52-.28-2.52-2.26 0-1.88 1.6-2.17 2.52-2.17zM11.8 32.84c0-.54.47-.84.97-.84.4 0 .71.19.83.3l-.26.3a.93.93 0 00-.57-.18c-.38 0-.57.2-.57.42 0 .12.05.2.16.28.12.09.3.15.55.2a.9.9 0 01.57.3c.13.15.2.35.2.54a.8.8 0 01-.25.59c-.18.16-.44.25-.8.25-.17 0-.58-.05-.9-.3l.24-.33c.22.17.53.21.66.21.3 0 .45-.07.53-.14a.36.36 0 00.11-.28.4.4 0 00-.09-.27.54.54 0 00-.34-.17c-.26-.05-.5-.12-.7-.25a.74.74 0 01-.34-.63zm8.1-.01c0-.53.47-.83.97-.83.4 0 .72.19.84.3l-.27.3a.93.93 0 00-.57-.19c-.37 0-.56.2-.56.42 0 .13.05.22.16.3.12.08.3.14.54.18.25.05.44.15.58.3.13.16.19.36.19.55 0 .19-.04.41-.22.58-.18.17-.45.26-.82.26-.17 0-.59-.05-.9-.3l.23-.32c.22.16.54.2.67.2.32 0 .47-.07.54-.14.07-.06.1-.15.1-.28a.4.4 0 00-.1-.27.56.56 0 00-.34-.17c-.25-.05-.5-.12-.7-.26a.74.74 0 01-.33-.63zm17 .01c0-.54.47-.84.97-.84.4 0 .71.18.83.3l-.26.3a.93.93 0 00-.57-.18c-.38 0-.57.2-.57.42 0 .11.05.2.16.28.12.09.3.15.54.2a.83.83 0 01.76.85c.01.17-.03.4-.2.57-.18.17-.45.26-.83.26a1.6 1.6 0 01-.9-.29l.24-.34c.21.17.53.21.66.21.33 0 .48-.07.55-.14.06-.06.09-.15.09-.28a.4.4 0 00-.1-.27c-.05-.07-.15-.14-.33-.17a1.72 1.72 0 01-.7-.25.74.74 0 01-.34-.63zm-20.33.84V35h.4v-1.32l.95-1.46-.33-.22-.82 1.25-.8-1.25-.33.22.93 1.46zm8.13-1.28h-.85V32h2.11v.4h-.85V35h-.4v-2.6zm3.42-.4h1.76v.42h-1.36v.87h1.14v.42h-1.14v.87h1.36V35h-1.76v-3zm6.18.8l-.75 1.15h-.34l-.68-1.13V35h-.4v-3h.37l.89 1.46.93-1.46h.37v3h-.4v-2.2z" fill="#fff"/><path d="M13.26 22.55c.63 0 1.22.2 1.71.52a3.45 3.45 0 10-3.25 6v-.38a3.3 3.3 0 01-1.63-2.86c0-1.8 1.42-3.28 3.17-3.28z" fill="#FAD13E"/><path d="M14.95 28.48a3.05 3.05 0 10-4.47-1.54 2.8 2.8 0 012.72-3.43 2.8 2.8 0 011.75 4.97z" fill="#FAD13E"/><path d="M15.95 23.35l4.42-2.5-3.89 3.21-.53-.7zM12.92 22l.93-4.98-.05 5.03-.88-.05zm-3.04 1.43l-3.2-3.94 3.81 3.3-.61.64zm-.81 3.23L4 26.5l4.99-.7.08.87zm1.96 2.65l-3.35 3.8 2.62-4.3.73.5zm3.51-7.03l2.26-3.09-1.54 3.52-.72-.43zm-3.32.01l-.95-3.71 1.74 3.43-.8.28zm-2.14 2.67L5.6 23.38l3.76.78-.28.8zm.7 3.35L6.3 29.88l3.08-2.3.41.73z" fill="#009BDB"/><path d="M11.5 25.45V31h1v-4.73h1.7c.29 0 .89.16.91.84.03.69-.6.85-.92.89h-.97l-.43.7h.75l1.8 2.3h1.26l-1.73-2.21a1.72 1.72 0 001.27-1.68c-.06-1.37-1.2-1.67-1.76-1.66H11.5z" fill="#fff"/><defs><linearGradient id="a5zufdkyl" x1="10.42" y1="9.71" x2="68.15" y2="76.02" gradientUnits="userSpaceOnUse"><stop stop-color="#1A1E21"/><stop offset="1" stop-color="#06060A"/></linearGradient></defs></svg>