<!-- by TradingView --><svg xmlns="http://www.w3.org/2000/svg" width="56" height="56"><path fill="#4F7A32" d="M0 0h56v56H0z"/><path d="M11.3 29c0 4.07 1.19 7.85 3.32 10.84a17.86 17.86 0 0125.1-25.36A17.68 17.68 0 0029.14 11 17.93 17.93 0 0011.3 29zm3.35-.14c0 3.3.97 6.37 2.7 8.8A14.49 14.49 0 0137.69 17.1a14.34 14.34 0 00-8.56-2.83c-8 0-14.48 6.53-14.48 14.59zm4.69 6.97a12.28 12.28 0 01-2.2-7.15c0-6.55 5.28-11.86 11.78-11.86 2.6 0 5 .85 6.96 2.3a11.78 11.78 0 00-16.54 16.72zm-.22-7.12c0 2.2.64 4.24 1.79 5.85a9.64 9.64 0 0113.54-13.69 9.55 9.55 0 00-5.7-1.88 9.68 9.68 0 00-9.63 9.72zm3.44 4.28a7.77 7.77 0 01-1.39-4.52 7.48 7.48 0 017.45-7.51 7.4 7.4 0 014.41 1.45 7.46 7.46 0 00-10.47 10.58zm-.14-4.62c0 1.42.41 2.73 1.15 3.76a6.2 6.2 0 018.7-8.8 6.13 6.13 0 00-3.66-1.2c-3.42 0-6.2 2.8-6.2 6.24zm2.09 2.9a5.06 5.06 0 01-.9-2.95 4.87 4.87 0 017.71-3.94 4.84 4.84 0 00-8.07 3.63c0 1.26.48 2.4 1.26 3.26zm.36-3.03c0 .79.23 1.51.64 2.09a3.43 3.43 0 014.82-4.87 3.44 3.44 0 00-5.46 2.79zm16.51-12.08a18.62 18.62 0 013.32 10.85c0 9.93-8 18-17.85 18-3.95 0-7.6-1.3-10.56-3.49a17.86 17.86 0 0025.09-25.36zm.36 11.09c0-3.31-.96-6.37-2.69-8.8A14.49 14.49 0 0118.7 39.01a14.34 14.34 0 008.56 2.83c8 0 14.48-6.54 14.48-14.6zm-4.76-7.02a12.28 12.28 0 012.19 7.14c0 6.55-5.27 11.87-11.77 11.87-2.6 0-5.01-.86-6.96-2.3a11.78 11.78 0 0016.54-16.72zm.17 7.4c0-2.2-.64-4.24-1.79-5.85a9.64 9.64 0 01-13.55 13.69 9.55 9.55 0 005.7 1.88 9.68 9.68 0 009.64-9.72zm-3.42-4.52a7.77 7.77 0 011.39 4.53 7.48 7.48 0 01-7.46 7.5 7.38 7.38 0 01-4.4-1.45 7.46 7.46 0 0010.48-10.58zm.28 4.57c0-1.41-.42-2.72-1.15-3.76a6.2 6.2 0 01-8.7 8.8c1.01.75 2.28 1.2 3.65 1.2 3.42 0 6.2-2.8 6.2-6.24zm-2.23-2.84c.58.81.9 1.84.9 2.94a4.87 4.87 0 01-7.72 3.94 4.84 4.84 0 008.07-3.63c0-1.25-.47-2.39-1.25-3.25zm-.5 3.02c0-.78-.22-1.5-.63-2.08a3.43 3.43 0 01-4.82 4.87 3.44 3.44 0 005.46-2.79z" fill="#fff"/></svg>