<!-- by TradingView --><svg width="56" height="56" xmlns="http://www.w3.org/2000/svg"><path fill="#F80" d="M0 0h56v56H0z"/><circle cx="28" cy="28" r="16" fill="#fff"/><path d="M18.146 29.197L17.67 32H15l1.424-8h3.858c.594 0 1.128.058 1.543.117 1.698.238 2.345 2.02 1.188 3.387-.297.35-.653.584-1.188.759.68.223 1.128.515 1.128 1.284 0 .656-.237 1.281-.237 1.927 0 .176.059.292.178.292l-.06.234H20c0-.462.049-.89.164-1.343.059-.234.059-.467.059-.642 0-.682-.702-.818-1.246-.818h-.831zm.356-1.752h1.068c.415 0 .712-.058.95-.175.88-.433.46-1.401-.535-1.401H18.74l-.237 1.576zM27.454 26h2.186l-.183.95c.365-.365.668-.668 1.032-.85a2.566 2.566 0 011.215-.304c.667 0 1.153.182 1.517.486.304.303.486.789.486 1.396 0 .243 0 .486-.06.729L33.039 32h-2.428l.546-3.169c.092-.443.166-1.153-.607-1.153-.733 0-1.043.552-1.153 1.214L28.85 32h-2.428l1.032-6zM36.135 32.474c.465.532 1.395.158 1.64-1.032l.12-.486c-.481.482-1.157.668-1.82.668-.973 0-1.707-.503-2.065-1.396-.629-1.574.447-3.593 1.883-4.31.928-.465 2.53-.38 2.974.728L39 26h1.999c-.352 2.034-.936 5.396-1.154 6.05-.527 1.582-1.801 1.942-3.345 1.942-1.118 0-2.915-.246-2.915-1.7h2.429s.053.114.121.182zm.243-4.25c-.149.448-.216 1.042.06 1.457.302.452 1.123.274 1.519-.121.42-.42.573-1.447.242-1.943-.509-.764-1.558-.18-1.82.607zM23.325 32l1.336-5h1.76l-.728 5h-2.368z" fill="#0074AE"/><path d="M25.746 24.313a2.064 2.064 0 00-1.208.437.35.35 0 01-.44-.544c.345-.28.942-.582 1.637-.593.718-.012 1.5.288 2.177 1.148a.35.35 0 01-.55.433c-.549-.697-1.128-.89-1.616-.881z" fill="#F80"/><path d="M25.841 25.328a.95.95 0 00-.552.199.35.35 0 11-.44-.544 1.65 1.65 0 01.981-.355c.44-.007.908.179 1.302.68a.35.35 0 11-.55.433c-.266-.338-.531-.417-.74-.413z" fill="#F80"/><path d="M26.361 26.16c0 .304-.303.547-.607.547-.364 0-.607-.243-.607-.547 0-.303.304-.546.607-.546.364 0 .607.243.607.546z" fill="#F80"/></svg>