<!-- by TradingView --><svg width="56" height="56" xmlns="http://www.w3.org/2000/svg"><path fill="#337C97" d="M0 0h56v56H0z"/><path d="M23.476 24.025c-.131.525-.787 1.017-1.18 1.379.164-.46.164-1.117.59-1.346.229.033.36-.099.59-.033zm-14.423.82c-.655.46-1.245.985-1.475 1.773-.59 1.575-1.082 3.183-1.606 4.758-.36.099-.656.361-.95.624.59-1.707 1.18-3.512 1.77-5.251.524-.853 1.31-1.576 2.229-1.936l.032.032zm18.29 1.94l-.393.657c-.262-.197-.623-.492-1.016-.328-.262.164-.328.426-.262.689.295 1.083 1.377 2.322.262 3.339-.328.46-.787.887-1.344.788-.295-.032-.23-.394-.426-.558.164-.23.328-.46.524-.623.066.295.131.59.394.787.328.033.557-.23.72-.492.46-1.444-1.77-3.176.263-4.292.59-.163.754-.196 1.278.034z" fill="#fff"/><path d="M24.996 26.624c-.554-.095-1.108.188-1.434.629-.978 1.351.75 2.498.293 3.85-.163.188-.358.44-.62.409-.26.032-.423-.189-.554-.378-.065-.188-.032-.502-.163-.628-.195.252-.391.597-.75.66-.162-.032-.032-.252-.13-.315.293-1.415.685-2.875.978-4.227l-.489.283c-.326.22-.782.283-1.076.565.196-.031.457-.283.717-.157-.13 1.069-.489 2.075-1.108 2.956-.196.22-.41.911-.8.785.032-1.1.376-2.263.702-3.301.066-.346.066-.755.228-1.07l-.13-.062c-1.141-.095-2.315.566-2.804 1.604-.652.848-.344 2.358-1.518 2.86-.065-.093-.13-.125-.13-.22.163-1.383.605-2.829.833-4.181-.066-.063-.13-.126-.196-.063-.913.315-1.597 1.132-2.086 1.887-.098-.598.26-1.195.26-1.793-.554.315-1.173.566-1.662.975-.098-.314.359-.723.065-1.069-.163-.032-.391-.063-.587.031-1.336.975-1.988 2.453-2.054 4.056l-.75.755c-.13.094-.26 0-.325-.094-.457-1.07-.327-2.704-1.761-3.05 1.206-.598 2.934-.975 3.13-2.547-.066-.472-.196-.88-.652-1.195-1.174-.723-3-.723-4.337-.252-.912.346-1.956.975-2.086 2.044.032.378.13.692.456.944.261.22.49.252.88.22.131-.095.425-.063.392-.283a1.143 1.143 0 01-.652.094 1.028 1.028 0 01-.913-.786c-.098-.692.424-1.195.945-1.604 1.141-.723 2.674-.943 3.88-.597.717.251 1.174.88 1.174 1.666-.326 1.164-1.598 1.95-2.706 2.39v.095c.293-.126.456.22.652.377.359.692.424 1.51.652 2.264.163.315.228.786.684.786.555-.126.913-.629 1.305-.975.13.19.065.472.195.63.098.219.326.408.587.345.88-.157 1.141-1.038 1.467-1.667-.326.315-.424 1.038-1.043 1.038-.163-.063-.261-.22-.392-.346-.521-1.132.62-1.76 1.174-2.547.391-.314.88-.943 1.434-1.006.098.189-.065.503-.097.755-.261 1.226-.62 2.679-.815 3.78.163-.315.489-.63.815-.787.26-1.037.391-2.27 1.14-3.12.197-.25.49-.66.881-.723.033.064.13.095.098.158-.13 1.478-1.061 3.018-.637 4.465.652-.283.88-.85 1.467-1.258.065.252 0 .63.065.88.065.158.098.378.293.378.88-.629 1.355-1.667 2.007-2.453l.098.063c-.196.723-.41 1.54-.311 2.327.032.189.228.063.326.032.684-.567 1.094-1.447 1.615-2.076l.033.063c-.098.566-.424 1.43-.033 1.995.359-.094.62-.471.913-.66.033.063.163.126.13.22.131.283.359.503.718.503.456-.189.913-.408 1.174-.88.521-.598.423-1.65.032-2.31-.098-.534-.75-1.226-.098-1.666.326-.126.62.03.848.188l.228-.503c.098-.094 0-.125-.065-.156zm-13.334 2.798l-.098-.032c.13-.849.39-1.729.978-2.326.098-.032.228 0 .26.125.033.912-.489 1.573-1.14 2.233zm6.437 1.54c-.13.032-.228-.125-.228-.22.065-1.068.344-2.39.93-3.364.327-.252.75-.346 1.207-.252-.229 1.352-.768 2.862-1.909 3.837zm19.976.266c-.261-.063-.391-.314-.457-.535-.098-1.352.126-2.812 1.202-3.661.13-.032.424-.126.49.094.031.786-.588 1.447-1.208 2.013v.094l2.297-1.516c-.228.032-1.51.907-1.649.967.49-.629.983-1.149 1.211-1.903-.033-.126-.13-.22-.293-.22-1.598.408-2.767 2.151-2.93 3.755-.326.347-.652.849-1.174.944-.195-.064-.26-.252-.358-.378-.229-1.132.06-2.372.582-3.315.196-.283.489-.346.847-.315.229.032.229.315.196.41.13-.284.359-.472.521-.724l-.065-.063c-.521-.346-.945.125-1.434.346-.848.88-1.397 2.152-1.495 3.315-.293.157-.554.818-.945.566.195-1.258.484-2.624.81-3.819.032-.157.163-.44 0-.566-.848.347-1.728 1.101-2.217 1.887l-.066-.063c.098-.629.326-1.163.425-1.792-.033-.063-.099-.063-.164-.094l-1.303.88v.094c.162-.094.39-.314.586-.188-.065 1.415-.521 2.813-1.63 3.82-.098.03-.196.094-.261-.032.065-1.573.587-3.128.945-4.543-.913-.094-1.663.252-2.25.912-.814 1.164-1.626 2.667-1.268 4.208.066.095.163.189.261.126.88-.629 1.138-1.787 1.823-2.447l.098.063c-.033.692-.554 1.398-.359 2.184 0 .157.196.252.326.22.652-.409 1.076-1.021 1.532-1.556l.098.14c-.098.472-.293.976-.326 1.416.26-.315.489-.66.88-.787.326-.974.424-2.214 1.142-3.032.326-.252.554-.786.945-.535-.13 1.132-.517 2.373-.712 3.505 0 .314-.033.66.227.848.522-.314.913-.848 1.403-1.226.13.44.097 1.07.619 1.226.75-.314 1.108-.88 1.728-1.383.13.283.098.66.26.975.164.189.36.409.685.409.685-.283 1.044-.88 1.5-1.446v-.126c-.325.283-.554.848-1.075.848zm-10.011-.366c-.065.032-.13.158-.228.064-.228-.912.258-1.881.388-2.793.26-.535.848-1.069 1.5-.85-.163 1.29-.943 2.51-1.66 3.58z" fill="#fff"/><path d="M44.706 30.976c-.387.346-.742.85-1.29.975-.45 0-.515-.472-.676-.786-.226-.755-.288-1.755-.643-2.447-.194-.157-.354-.503-.645-.377v-.095c1.097-.44 2.335-1.051 2.657-2.214 0-.786-.45-1.415-1.16-1.667-1.193-.346-2.708-.126-3.836.597-.516.41-1.032.912-.935 1.604.097.409.452.754.903.786.225.031.45 0 .645-.094.032.22-.225.263-.388.283-.386.031-.612 0-.87-.22-.322-.252-.419-.566-.45-.944.128-1.069 1.16-1.698 2.062-2.044 1.322-.471 3.127-.471 4.287.252.452.315.58.723.645 1.194-.193 1.573-1.883 1.776-3.076 2.373 1.418.346 1.287 2.163 1.738 3.232.065.095.194.189.323.095l.74-.755-.031.252z" fill="#fff"/><path d="M42.951 24.977c-.652.44-1.239.943-1.467 1.697-.587 1.51-1.102 3.177-1.624 4.686-.358.095-.652.346-.945.598.587-1.635 1.2-3.491 1.786-5.158.523-.817 1.305-1.51 2.218-1.855l.032.032zm1.573 5.347c.163-1.604 1.345-3.316 2.943-3.725.163 0 .26.094.293.22-.228.755-.782 1.352-1.271 1.981.227.063.423-.126.652-.157 1.532.062 3.423.377 4.434-.944.26-.314.39-.692.293-1.132-.26-.471-.848-.849-1.435-.849-.586-.03-1.076 0-1.5.284.458-.472 1.273-.503 1.957-.346.358.157.782.346 1.01.723.164.314.098.723 0 1.038-1.303 1.949-3.847 1.634-5.998 1.855v-.095c.62-.566 1.239-1.226 1.206-2.012-.065-.22-.358-.126-.49-.094-1.075.848-1.311 2.278-1.214 3.63.066.22.196.472.457.535.522 0 .75-.567 1.076-.85v.126c-.456.567-.815 1.164-1.5 1.447-.325 0-.521-.22-.684-.41-.163-.314-.13-.691-.26-.974l.03-.251z" fill="#fff"/></svg>