<!-- by TradingView --><svg width="56" height="56" fill="none" xmlns="http://www.w3.org/2000/svg"><path fill="#14467A" d="M0 0h56v56H0z"/><path d="M23.607 31.162c-3.041-3.405-2.423-7.476-1.734-9.085 0 3.034 2.432 5.93 3.625 7.198 1.194 1.267 4.446 4.545 7.583 7.338 3.138 2.794 5.002 5.983 5.542 7.227h-2.04c-.944-1.178-3.207-3.33-4.177-4.222-1.822-1.674-5.759-5.05-8.8-8.456z" fill="#21AA89"/><path d="M25.665 25.747c-4.816-6.357-2.006-9.32 0-10.005-1.684 2.032-.363 4.937.51 6.282 1.049 1.612 4.01 5.398 7.556 8.29 3.546 2.893 4.9 6.222 5.134 7.525v5.956h-.179c-.145-1.826-1.288-6.288-4.702-9.52-3.308-3.13-7.808-7.853-8.319-8.528z" fill="#21AA89"/><path stroke="#fff" d="M17.5 12.5h21v31h-21z"/></svg>