<!-- by TradingView --><svg width="56" height="56" xmlns="http://www.w3.org/2000/svg"><path fill="url(#paint0_linear)" d="M0 0h56v56H0z"/><path d="M42.827 19.416c-.347-.684-.925-1.597-1.734-2.282-.347-.342-.809-.57-1.387-.684-.462-.114-.924-.229-1.387-.229h-.115c-.578 0-1.733.115-2.427 1.027-.347.343-.462.913-.347 1.483.116.457.347.8.81.913 0 0 .115 0 .346.114-.115 0-.231.229-.231.229-.231.342-.809.912-2.427.912h-.115c-.81 0-1.503-.228-2.312-1.255-.462-.684-.809-1.711-.809-3.537 0-.912-.115-1.711-.346-2.281-.116-.457-.463-.8-.81-1.027-.23-.229-.577-.343-1.04-.457C28.035 12 27.342 12 26.764 12c-.693 0-1.04.114-1.271.456 0 0 0 .114-.116.114h-.462c-.347 0-.693.115-1.04.115-.693.114-1.04.342-1.502.684-.116.114-.462.457-.578.913-.116.342 0 .57.116.684 0 0 0 .115.115.115.231-.229.578-.343 1.156-.343.693 0 1.733.343 2.08.913.462.799.347 1.37.231 2.168-.231 1.94-1.04 2.966-2.542 3.194h-.81c-1.155 0-1.964-.342-2.31-1.026-.232-.229-.232-.343-.232-.343s.116 0 .231-.114c.463-.228.694-.456.81-.913.115-.456 0-1.026-.347-1.483-.578-.57-1.387-.913-2.427-.913a4.36 4.36 0 00-1.387.229c-1.387.342-2.427 1.255-3.236 2.966-.578 1.141-1.04 2.738-1.155 4.336-.116 1.597-.116 2.966 0 4.221.23 2.054.578 3.309 1.04 4.564.462 1.369 1.155 2.624 1.849 3.765.23.456.346.685.462.799.116-.114.231-.228.347-.457.23-.228 1.04-1.255 1.27-1.597.348-.228.694-.913.925-1.37l.116-.227.231.228c.231.228.347.456.347.799 0 .342-.116.684-.231 1.369-.232.684-.578 1.597-1.04 2.282 0 .114-.116.228-.116.228-.231.456-.347.684-.231.798.116 0 .462-.114.809-.456.347-.228 1.155-.913 2.196-2.396.808-1.027 1.386-2.168 1.964-3.423l.116-.228.23.114c.116 0 .232.114.232.228.115.228.115.457.115.799-.115.799-.577 1.94-.924 2.738-.578 1.37-1.733 2.967-2.542 4.108 0 0-.232.228-.232.342.116.114.232.228.463.342l.346.228c1.156.913 2.196 1.712 3.583 2.396 1.04.57 3.236 1.712 4.622 2.054 1.387-.342 3.583-1.483 4.623-2.054 1.387-.798 2.427-1.483 3.582-2.396l.347-.228c.231-.114.347-.342.462-.342 0 0-.115-.114-.115-.228l-.116-.114c-.809-1.141-1.964-2.739-2.542-4.108-.347-.799-.81-2.053-.925-2.738 0-.342 0-.57.116-.799 0-.114.115-.114.231-.228s.231-.114.231-.114l.116.228c.578 1.255 1.27 2.282 1.964 3.423 1.04 1.483 1.85 2.168 2.196 2.396.347.228.693.456.809.456h.116c.115-.114 0-.342-.232-.798 0-.114-.115-.229-.115-.229a12.838 12.838 0 01-1.04-2.281c-.231-.685-.347-1.027-.347-1.37 0-.342.116-.684.347-.798l.23-.114.116.228c.231.456.694 1.14.81 1.37.23.341 1.04 1.254 1.27 1.596l.347.343c.116-.114.231-.343.462-.685v-.114c.694-1.14 1.272-2.396 1.85-3.765.462-1.37.808-2.51 1.04-4.564.115-1.255.23-2.624 0-4.221 0-1.598-.347-3.195-1.04-4.336z" fill="#fff"/><defs><linearGradient id="paint0_linear" x1="4.956" y1="13.278" x2="47.413" y2="49.204" gradientUnits="userSpaceOnUse"><stop stop-color="#20C4F4"/><stop offset="1" stop-color="#006E98"/></linearGradient></defs></svg>