<!-- by TradingView --><svg width="56" height="56" xmlns="http://www.w3.org/2000/svg"><path fill="#009C69" d="M0 0h56v56H0z"/><path d="M17.543 14h20.894c.857 0 1.563.684 1.563 1.514v25.982c0 .83-.706 1.504-1.563 1.504h-.627c-.656-3.413-2.277-7.483-4.323-10.68.972 4.928 2.522 7.916 3.624 10.68.303.991.59 1.75.836 3-.685-1.068-1.319-1.848-1.88-3h-1.37c-.655-3.413-2.276-7.483-4.323-10.68.973 4.928 2.522 7.916 3.624 10.68.303.991.591 1.75.836 3-.684-1.068-1.318-1.848-1.88-3h-1.37c-.655-3.413-2.276-7.483-4.322-10.68.973 4.928 2.522 7.916 3.624 10.68.303.991.59 1.75.836 3-.685-1.068-1.319-1.848-1.88-3h-1.37c-.655-3.413-2.276-7.483-4.323-10.68.973 4.928 2.522 7.916 3.624 10.68.303.991.591 1.75.836 3-.684-1.068-1.318-1.848-1.88-3h-9.165c-.857 0-1.563-.673-1.563-1.504v-11.5h14.193C33.775 29.997 37 27.47 37 24c0-3.469-3.225-6-6.806-6H16.001v-2.492c-.029-.824.677-1.508 1.542-1.508z" fill="#fff"/></svg>