<!-- by TradingView --><svg width="56" height="56" xmlns="http://www.w3.org/2000/svg"><path fill="#0260AA" d="M0 0h56v56H0z"/><path d="M13 20H8v16h5V20zM27 20h-5v16h5V20zM15 28v-8h3.122C20.306 20 21 22.626 21 24.397 21 26.167 19.894 28 18.122 28H15zM15 36v-6h2l4 6h-6zM29 25.98v-5.861c1.2-.374 4.056 0 4 3.117-.047 2.494-2.686 2.868-4 2.743zM29 36v-8h2.5c.425 0 2.552 1.438 2.499 4.188-.053 2.75-1.659 3.812-2.5 3.812H29zM41 36V20c-2.025.275-6.06 2.246-6 7.931.061 5.685 4.026 7.748 6 8.069zM42 20.003h6v4l-6-4zM42 36.004h6v-5l-6 5z" fill="#F6F8FD"/></svg>