<!-- by TradingView --><svg width="56" height="56" xmlns="http://www.w3.org/2000/svg"><path fill="#003F7E" d="M0 0h56v56H0z"/><path d="M47.998 38H15v-8.515c0-.934-.473-1.475-1.424-1.485H12v-3h1.608c.844.015 1.516-.635 1.61-1.358.121-.953-.818-1.642-1.71-1.642-1.03.003-1.478 0-2.508 0 .045 0-.038 0 0 0v10H8.003c0-4.398-.003-8.602-.003-13 2.06.002 4.124-.049 6.183.008 2.313.063 4.082 2.477 3.837 4.68-.135 1.207-.709 2.219-1.564 3.052.884.413 1.544 1.112 1.544 2.14V35h1V19.012c1.728-.107 3.805-.007 5.537-.005 2.422.01 4.721 1.8 5.343 4.355C31.009 28 26.9 31 23 31c0 0 .003-2.128 0-3 1.822 0 4.025-.72 4.29-2.72.259-1.981-1.394-3.28-3.302-3.28H22v13h25.998v3z" fill="#fff"/><path d="M31 19.002c4.31 0 8.619.003 12.928-.002C45.968 19 48 20.926 48 23.003 47.998 26 48 32 48 32h-3v-8.38c.004-1.088-.938-1.61-1.905-1.62-.79-.012-2.095 0-2.095 0v10h-3v-8.289c0-.916-.364-1.691-1.345-1.711H34v10h-2.997C31 27.678 31 23.665 31 19.002z" fill="#fff"/></svg>