<!-- by TradingView --><svg width="56" height="56" xmlns="http://www.w3.org/2000/svg"><path fill="url(#paint0_linear)" d="M0 0h56v56H0z"/><path d="M30 12c1.426.658 2.57 1.249 3.744 2.394 1.58 1.783 2.34 4.91 1.444 6.998-.4.932-1.177 1.645-2.1 2.353-1.514 1.159-5.252 1.844-8.092 2.255 1.872.178 3.637 1.18 4.828 1.7 1.525.666 2.322 1.246 3.471 2.527.157.176.262.343.232.373-.03.03-.013.052.037.052.086 0 .285.345.263.456-.005.03.038.11.096.18.159.191.463 1.058.616 1.75.091.407.166 1.48.217 3.169.064 2.133.106 2.663.26 3.224.102.37.21.773.244.896.034.124.214.456.401.74.617.79.075.143.788 1.004.196.21.458.448.76.622.448.336 1.561.862 2.302 1.088.612.188.855.214 2.582.219H44V12h-7.066c-3.208.003-5.986-.004-6.934 0zm-18 0v15.764C11.996 36.422 12 44 12 44h20a33.595 33.595 0 01-1.895-.62c-.991-.44-1.804-1.122-2.586-1.913-.834-.947-1.314-2.864-1.279-5.101.01-.535-.008-1-.04-1.03-.03-.03-.055-.426-.055-.879 0-.9-.18-2.102-.409-2.732-.17-.47-.374-1.023-.74-1.456-.572-.864-1.855-1.994-3.108-2.57C20.687 27.147 18.064 26 17 26c3.864-.662 7.317-1.714 8.784-3.659 1.372-1.82 1.515-4.516.356-6.74-.796-1.527-2.164-2.652-4.122-3.393-.477-.181-.646-.208-5.227-.208h-4.79z" fill="#119CE7"/><defs><linearGradient id="paint0_linear" x1="10.418" y1="9.712" x2="68.147" y2="76.017" gradientUnits="userSpaceOnUse"><stop stop-color="#1A1E21"/><stop offset="1" stop-color="#06060A"/></linearGradient></defs></svg>