<!-- by TradingView --><svg xmlns="http://www.w3.org/2000/svg" width="56" height="56"><path fill="#202C4B" d="M0 0h56v56H0z"/><path d="M43.93 17H41.1c-.05 0-.1.05-.1.1v12.87A5.18 5.18 0 0135.84 35a5.54 5.54 0 01-3.83-1.58c-.07-.07-.17-.02-.19.05l-.81 2.84c-.03.07 0 .15.07.24A8.2 8.2 0 0035.7 38h.12c1.86 0 3.97-.62 5.18-1.7v1.6c0 .05.05.1.1.1h2.8c.05 0 .1-.05.1-.1V17.1c0-.05-.02-.1-.07-.1zm-24.6 4h-.1c-1.87 0-3.88.63-5.23 1.69V21.1c0-.05-.05-.1-.1-.1h-2.77c-.07-.02-.13.05-.13.1v16.8c0 .05.08.1.13.1h2.77c.05 0 .1-.05.1-.1v-8.83c0-2.81 2.5-5.07 5.22-5.07 1.48 0 2.77.6 3.84 1.58.07.08.16.03.18-.05l.75-2.86c.03-.08-.02-.17-.07-.24A8.32 8.32 0 0019.34 21zm14.85 0h.12c1.67 0 3.23.52 4.62 1.43.05.07.1.16.07.24l-.79 2.86c-.02.08-.11.13-.18.05A5.59 5.59 0 0034.18 24 5.21 5.21 0 0029 29.07v8.83c0 .05-.09.1-.13.1h-2.78c-.04 0-.09-.05-.09-.1V21.1c0-.05.02-.12.1-.1h2.77c.04 0 .13.05.13.1v1.59A8.7 8.7 0 0134.18 21z" fill="#fff"/></svg>