<!-- by TradingView --><svg width="56" height="56" xmlns="http://www.w3.org/2000/svg"><path fill="#68468A" d="M0 0h56v56H0z"/><path d="M11.732 36.981l18.636.011L49 37c-1.74-5.886-4.729-18-4.729-18H7l4.732 17.981zm8.19-11.857c.174.076.234.156.238.327 0 .156-.716 2.892-.803 3.06-.132.254-.392.394-.724.394-.192 0-.207.008-.207.091 0 .05.067.521.15 1.05l.151.962L17.39 31l-.151-1.023-.151-.98h-.75l-.28.972L15.771 31h-1.294l.69-2.589c.381-1.433.736-2.77.792-2.975l.098-.436h1.867c1.576 0 1.882.075 1.999.124zM25.32 25l-.32 1h-1.755l-.467 1.404 1.712.02-.283 1.082L22.5 28.5l-.379 1.496h1.885L23.74 31H20.51s1.122-4.011 1.65-6h3.158zm6.04 0l-.252 1h-2.908l-.554 2.05c-.26.98-.562 1.95-.562 1.95h1.709l.454-1.562h-.85l.26-1.015h2.065L29.795 31h-3.69c-.4 0-.42-.043-.42-.274 0 0 1.248-4.998 1.357-5.195.11-.206.354-.531.563-.531h3.755zM36 31h-1v-1h-1.816l-.516 1h-1.32L34 26v-1h2v6zm4.711-6L39.5 30s1.89-.007 1.883.015L41.11 31h-3.254l1.643-5.992L40.71 25z" fill="#fff"/><path d="M16.5 28h1.6l.648-1.992H17.08L16.5 28zM33.736 29H35c0-.842.004-1.685 0-2.527L33.735 29z" fill="#fff"/></svg>