<!-- by TradingView --><svg width="56" height="56" xmlns="http://www.w3.org/2000/svg"><path fill="#2F6745" d="M0 0h56v56H0z"/><path d="M17.288 14.745C18.47 13.137 20.54 12.111 22.58 12H33.194c-1.626 0-3.134.5-4.316 1.414-1.42 1.026-2.528 2.524-2.764 4.16-.119.61-.114 1.303-.114 1.913V44c-3.46-1.525-6.643-3.133-9.984-4.77V18.35c-.118-1.276.414-2.496 1.272-3.605z" fill="#fff"/><path d="M32.632 13.525c1.39-.194 2.81 0 4.11.61 1.626.804 2.69 2.219 3.134 3.938.325 1.525-.004 3.523-.862 4.854-.976 1.303-2.483 2.218-4.198 2.523-1.094.111-2.277 0-3.341-.416-1.508-.61-2.69-1.72-3.341-3.133-.769-1.72-.646-4.244.537-5.77.827-1.386 2.335-2.3 3.961-2.606z" fill="#fff"/></svg>