<!-- by TradingView --><svg xmlns="http://www.w3.org/2000/svg" width="56" height="56"><path fill="#1F325D" d="M0 0h56v56H0z"/><path fill-rule="evenodd" d="M27 23h-1.6v2.22h-2.24V23h-1.6v6h1.6v-2.22h2.24V29H27v-6zm15.4 7H42v2h.4v-2zm-38 0H4v2h.4v-2zm9.4 0h-.98v.4h.58V32h.4v-1.6h.57V30h-.58zm23.8 0h.99v.4H38V32h-.4v-1.6H37V30h.6zM18 30h-.4v2H19v-.4h-1v-.43h1v-.4h-1v-.37h1V30h-1zm32.6 0H52v.4h-1v.37h1v.4h-1v.43h1v.4h-1.4v-2zm-28.2 1.07V30h.99a.6.6 0 01.2 1.19l.6.8h-.54l-.6-.77h-.25V32h-.4v-.93zm.41-.2v-.53h.52a.27.27 0 110 .54h-.52zM7.07 23H4v6h1.59v-2.14h.1L7.13 29H9l-1.47-2.2a1.93 1.93 0 00-.46-3.8zm-.27 1.41H5.59v1.2H6.8a.6.6 0 100-1.2zM9.63 23h1.57v3.4a1.11 1.11 0 102.23 0V23H15v3.32a2.68 2.68 0 11-5.37 0V23zm8.7 0c1.17.04 2 .46 2.27.67l-.68 1.22c-.28-.17-1-.5-1.6-.5-.66 0-.8.22-.84.34-.04.14.15.44 1.19.52 1.3.1 2.04.82 2.04 1.76 0 .94-.7 1.99-2.44 1.99-1.4 0-2.4-.48-2.72-.72l.8-1.27c.68.45 1.5.61 1.92.6.41-.01.7-.15.7-.4 0-.16-.03-.36-1.21-.52-1.2-.16-1.96-.65-1.99-1.8-.02-1.15 1.08-1.93 2.56-1.89zM52 23H29v6h23v-6zm-17.92 2.1v-.6h2.55v.6h-.97v2.4h-.61v-2.4h-.97zm7.03-.6v3h2.2v-.6h-1.59v-.57h1.6v-.6h-1.6v-.64h1.6v-.59H41.1zm3.46.4v-.4h2.2v.6H45.2v.63h1.59v.6h-1.6v.58h1.6v.59h-2.2v-2.61zm3.11-.4v.6h.97v2.4h.61v-2.4h.97v-.6h-2.55zm-10.1 0v3h.61v-1.17h.18l.87 1.17h.65L39 26.33a.91.91 0 000-1.83h-1.43zm.58.5v.82h.78a.4.4 0 000-.81h-.78zm-6.06-.55c.52 0 .95.2 1.1.3l-.3.44c-.07-.08-.31-.23-.8-.24-.48 0-.6.23-.6.35-.03.11.06.33.6.37.68.04 1.15.39 1.17.9.02.5-.5.97-1.22.98-.58.02-1.1-.26-1.3-.4l.32-.51c.16.13.58.4.98.38.49-.02.57-.3.57-.38 0-.08-.03-.28-.67-.36-.64-.09-1.04-.33-1.08-.87-.04-.54.59-.96 1.23-.96zM8 30v2h.4v-1.25L9.2 32h.38v-2H9.2v1.24L8.4 30H8zm25.09 2c.37 0 .69-.24.83-.59l-.37-.13c-.08.22-.26.38-.46.38-.28 0-.5-.3-.5-.66 0-.36.22-.66.5-.66.2 0 .37.15.45.37l.38-.14a.91.91 0 00-.83-.57c-.5 0-.92.45-.92 1s.41 1 .92 1zm13.31 0l-.75-2h.5l.47 1.33.5-1.33h.45l-.75 2h-.42zm-18.46-2l-.77 2h.45l.17-.46h.7l.22.46h.46l-.82-2h-.41zm-.05 1.2l.26-.67.29.66h-.55z" fill="#fff"/></svg>