<!-- by TradingView --><svg width="56" height="56" xmlns="http://www.w3.org/2000/svg"><path fill="#BA2126" d="M0 0h56v56H0z"/><path d="M48 28.522c.027-1.042-1.212-.84-2.014-.956-.23-.03-.933-.066-.93-.396 0-.274.654-.43.884-.425.277-.003.952.124 1.06.425h1c-.173-.93-1.087-1.362-2.014-1.362-.832-.01-1.986.397-1.986 1.404-.017.77.652.915 1.288 1.038.346.068 1.716.067 1.712.4-.004.357-.757.403-1.014.4-.376 0-.846-.141-.986-.4h-1c0 .156.04.323.123.449.255.388.528.66.997.785a3.256 3.256 0 001.658 0c.624-.17 1.226-.653 1.222-1.354v-.008zM43 26h-1v2.08c.003.494-.678.93-1.164.92-.5.01-.843-.417-.836-.932V26h-1v2.08c-.005 1.068.54 1.93 1.61 1.921.45.004 1.098-.181 1.39-.503v.503h1V26zm-5 0h-1v3.99h1V26zm0-2h-1v1h1v-1zm-3.31 3.731c.007.661-.54 1.237-1.202 1.232-.66.005-1.209-.583-1.204-1.23-.005-.694.585-1.3 1.283-1.256.645.04 1.127.615 1.11 1.247l.013.007zm1.19-.017c.01-1.216-.969-2.275-2.21-2.268-.508-.004-1.307.18-1.67.51v-1.955h-1V30h1v-.57c.368.36 1.136.564 1.67.56 1.218.003 2.247-1.045 2.21-2.276zM30 26h-1v2.08c.006.493-.676.928-1.16.92-.503.013-.84-.416-.84-.928V26h-1v2.08c-.013 1.05.547 1.934 1.635 1.921.45.005 1.074-.181 1.365-.503v.503h1V26zm-9 .61V25h2.02c.513-.012.98.304.98.844.014.508-.44.764-.901.766H21zm3.866 2.573c0-.533.076-1.114-.188-1.6a1.191 1.191 0 00-.513-.483c.55-.232.896-.748.882-1.343.031-1.19-1.122-1.776-2.167-1.754H20v5.998h1v-2.387h1.852c.437-.024 1.041.283 1.001.742v.9c0 .236.033.529.127.745h1.027a2.345 2.345 0 01-.141-.818zM10.802 21.794a.846.846 0 00.839-.852.846.846 0 00-.839-.853.846.846 0 00-.838.853c0 .47.375.852.838.852zM12.031 19.937a.791.791 0 00.785-.798.791.791 0 00-.785-.798.791.791 0 00-.784.798c0 .44.35.798.784.798zM9.835 23.92c.492 0 .89-.405.89-.905s-.398-.904-.89-.904a.898.898 0 00-.89.904c0 .5.398.905.89.905zM9.208 26.279c.522 0 .945-.43.945-.96s-.423-.96-.945-.96a.952.952 0 00-.944.96c0 .53.423.96.944.96zM8.996 28.797c.55 0 .997-.453.997-1.012 0-.559-.446-1.012-.997-1.012-.55 0-.996.453-.996 1.012 0 .559.446 1.012.996 1.012zM9.268 31.392c.58 0 1.048-.476 1.048-1.064 0-.589-.469-1.065-1.048-1.065-.579 0-1.048.476-1.048 1.064 0 .589.47 1.065 1.048 1.065zM10.072 33.96c.608 0 1.102-.502 1.102-1.12 0-.619-.494-1.12-1.102-1.12-.61 0-1.103.502-1.103 1.12 0 .618.494 1.12 1.103 1.12zM11.435 36.385c.638 0 1.154-.525 1.154-1.173s-.516-1.173-1.154-1.173c-.637 0-1.154.525-1.154 1.173s.517 1.173 1.154 1.173zM13.364 38.536c.666 0 1.206-.55 1.206-1.226 0-.678-.54-1.227-1.206-1.227-.666 0-1.206.55-1.206 1.227s.54 1.226 1.206 1.226zM15.817 40.279a1.27 1.27 0 001.26-1.281 1.27 1.27 0 00-1.26-1.281 1.27 1.27 0 00-1.26 1.28 1.27 1.27 0 001.26 1.282zM18.699 41.48c.724 0 1.311-.598 1.311-1.334 0-.737-.587-1.334-1.311-1.334-.725 0-1.312.597-1.312 1.334 0 .736.587 1.334 1.312 1.334zM21.866 42.001c.753 0 1.364-.62 1.364-1.386 0-.766-.61-1.387-1.364-1.387-.753 0-1.364.62-1.364 1.386 0 .766.611 1.387 1.364 1.387zM25.134 41.737a1.43 1.43 0 001.417-1.441 1.43 1.43 0 00-1.417-1.441 1.43 1.43 0 00-1.418 1.44 1.43 1.43 0 001.418 1.442zM26.294 15.546c.143 0 .26-.118.26-.263a.261.261 0 00-.26-.263.261.261 0 00-.26.263c0 .145.117.263.26.263zM25.279 15.242a.313.313 0 00.311-.316.313.313 0 00-.311-.315.313.313 0 00-.311.316c0 .174.139.315.31.315zM24.021 15.023a.368.368 0 00.365-.37.368.368 0 00-.365-.37.368.368 0 00-.365.37c0 .205.163.37.365.37zM22.705 14.912a.42.42 0 00.417-.424.42.42 0 00-.417-.423.42.42 0 00-.417.423.42.42 0 00.417.424zM21.279 14.953c.259 0 .47-.214.47-.477a.473.473 0 00-.47-.478.473.473 0 00-.47.478c0 .263.21.477.47.477zM19.764 15.169a.527.527 0 00.523-.532.527.527 0 00-.523-.532.527.527 0 00-.523.532c0 .294.234.532.523.532zM18.177 15.603a.58.58 0 00.576-.584.58.58 0 00-.576-.584.58.58 0 00-.575.584.58.58 0 00.575.584zM16.558 16.284a.632.632 0 00.627-.637.632.632 0 00-.627-.638.632.632 0 00-.626.638c0 .352.28.637.626.637zM14.948 17.242c.376 0 .68-.31.68-.692a.687.687 0 00-.68-.693c-.376 0-.681.31-.681.693 0 .382.305.692.68.692zM13.403 18.494a.739.739 0 00.733-.745.739.739 0 00-.733-.746.74.74 0 00-.733.746c0 .411.329.745.733.745zM13.546 23.685c.364 0 .659-.3.659-.669a.664.664 0 00-.659-.669c-.363 0-.658.3-.658.67 0 .369.295.668.659.668zM12.87 25.353a.703.703 0 00.697-.709.703.703 0 00-.697-.709.703.703 0 00-.698.71c0 .39.313.708.698.708zM12.483 27.178a.743.743 0 00.737-.75c0-.413-.33-.749-.737-.749a.743.743 0 00-.736.75c0 .414.33.749.736.749zM12.446 29.107a.78.78 0 00.775-.787.78.78 0 00-.775-.788.78.78 0 00-.774.788.78.78 0 00.774.787zM12.797 31.066a.82.82 0 00.814-.828.82.82 0 00-.814-.827.82.82 0 00-.814.827.82.82 0 00.814.828zM13.576 32.976a.86.86 0 00.853-.868.86.86 0 00-.853-.867.86.86 0 00-.854.867c0 .48.382.868.854.868zM14.792 34.738a.9.9 0 00.893-.907.9.9 0 00-.893-.907.9.9 0 00-.893.907c0 .5.4.907.893.907zM16.432 36.25c.514 0 .93-.422.93-.944a.937.937 0 00-.93-.945.937.937 0 00-.93.945c0 .522.416.945.93.945zM18.437 37.412c.536 0 .97-.441.97-.985a.977.977 0 00-.97-.985c-.535 0-.97.441-.97.985s.435.985.97.985zM20.714 38.1c.558 0 1.01-.458 1.01-1.024 0-.566-.452-1.025-1.01-1.025-.557 0-1.008.46-1.008 1.025 0 .566.451 1.025 1.008 1.025zM26.36 19.16a.192.192 0 00.191-.194.192.192 0 00-.19-.194.192.192 0 00-.192.194c0 .107.086.193.191.193zM25.56 18.838c.127 0 .23-.105.23-.234a.232.232 0 00-.23-.233.232.232 0 00-.231.233c0 .13.103.234.23.234zM24.708 18.559c.15 0 .27-.123.27-.274a.272.272 0 00-.27-.273c-.149 0-.27.122-.27.273 0 .151.121.274.27.274zM23.76 18.35a.31.31 0 00.307-.311.31.31 0 00-.308-.312.31.31 0 00-.307.312.31.31 0 00.307.31zM22.717 18.239a.349.349 0 00.347-.35.349.349 0 00-.347-.352.349.349 0 00-.346.351c0 .194.155.351.346.351zM21.59 18.253a.389.389 0 00.386-.391.389.389 0 00-.386-.392.389.389 0 00-.386.392c0 .216.173.391.386.391zM20.39 18.42a.429.429 0 00.426-.432.429.429 0 00-.426-.432.429.429 0 00-.425.432c0 .238.19.431.425.431zM19.147 18.762c.256 0 .463-.21.463-.47s-.207-.471-.463-.471a.467.467 0 00-.463.47c0 .26.207.471.463.471zM17.883 19.308a.506.506 0 00.502-.51.506.506 0 00-.502-.51.506.506 0 00-.502.51c0 .282.224.51.502.51zM16.637 20.076c.3 0 .542-.246.542-.55a.546.546 0 00-.542-.55c-.299 0-.541.246-.541.55 0 .304.242.55.541.55zM15.454 21.078a.586.586 0 00.581-.59c0-.326-.26-.591-.58-.591a.586.586 0 00-.582.59c0 .327.26.591.581.591zM14.383 22.32a.624.624 0 00.619-.63.624.624 0 00-.619-.629.624.624 0 00-.619.63c0 .347.277.628.619.628zM23.135 38.226c.579 0 1.048-.476 1.048-1.065 0-.588-.47-1.064-1.048-1.064-.58 0-1.049.476-1.049 1.064 0 .589.47 1.065 1.049 1.065zM25.505 37.686c.579 0 1.048-.477 1.048-1.065s-.469-1.065-1.048-1.065c-.579 0-1.048.477-1.048 1.065s.47 1.065 1.048 1.065zM16.058 28.906a.57.57 0 00.565-.574.57.57 0 00-.565-.574.57.57 0 00-.564.574.57.57 0 00.564.574zM16.362 30.32c.326 0 .591-.27.591-.601a.597.597 0 00-.591-.602.597.597 0 00-.592.602c0 .332.265.601.592.601zM16.971 31.692c.343 0 .621-.282.621-.63a.626.626 0 00-.62-.632.626.626 0 00-.621.631c0 .349.278.631.62.631zM17.9 32.946c.358 0 .65-.296.65-.661 0-.365-.292-.66-.65-.66a.655.655 0 00-.65.66c0 .365.29.66.65.66zM19.128 34.005a.682.682 0 00.677-.688.682.682 0 00-.677-.688.682.682 0 00-.677.688c0 .38.303.688.677.688zM20.613 34.8c.39 0 .706-.322.706-.718a.712.712 0 00-.706-.718.712.712 0 00-.706.718c0 .396.316.718.706.718zM22.286 35.243a.741.741 0 00.734-.747.741.741 0 00-.734-.748.741.741 0 00-.735.748c0 .412.329.747.735.747zM24.048 35.272c.42 0 .762-.347.762-.775a.768.768 0 00-.762-.774.768.768 0 00-.762.774c0 .428.341.775.762.775zM26.442 21.588a.113.113 0 100-.227.113.113 0 000 .227zM25.899 21.354c.077 0 .14-.064.14-.143a.142.142 0 00-.14-.142.142.142 0 00-.14.142c0 .079.062.143.14.143zM25.343 21.135a.17.17 0 00.169-.17.17.17 0 00-.169-.17.17.17 0 00-.168.17c0 .094.076.17.168.17zM24.718 20.952a.196.196 0 00.195-.197.196.196 0 00-.195-.198.196.196 0 00-.195.198c0 .109.088.197.195.197zM24.021 20.825a.226.226 0 00.224-.227c0-.125-.1-.227-.224-.227a.225.225 0 00-.224.227c0 .125.1.227.224.227zM23.26 20.774c.139 0 .252-.115.252-.257a.255.255 0 00-.253-.257.255.255 0 00-.253.257c0 .142.113.257.253.257zM22.44 20.81c.154 0 .28-.128.28-.285a.282.282 0 00-.28-.284.282.282 0 00-.281.284c0 .157.125.285.28.285zM21.57 20.96c.17 0 .309-.14.309-.313a.311.311 0 00-.31-.313c-.17 0-.309.14-.309.313s.139.313.31.313zM20.67 21.238a.34.34 0 00.339-.342.34.34 0 00-.338-.343.34.34 0 00-.339.343c0 .189.152.342.339.342zM19.764 21.667a.368.368 0 00.365-.37.368.368 0 00-.366-.37.368.368 0 00-.365.37c0 .204.164.37.366.37zM18.937 22.154c.218 0 .394-.18.394-.4 0-.221-.176-.4-.394-.4a.397.397 0 00-.394.4c0 .22.176.4.394.4zM18.1 22.913a.427.427 0 00.424-.43c0-.237-.19-.43-.423-.43a.427.427 0 00-.424.43c0 .238.19.43.424.43zM17.352 23.841c.248 0 .45-.204.45-.457a.454.454 0 00-.45-.457.454.454 0 00-.45.457c0 .253.2.457.45.457zM16.729 24.935c.265 0 .48-.219.48-.488a.484.484 0 00-.48-.488.484.484 0 00-.48.488c0 .27.215.488.48.488zM16.279 26.165c.28 0 .508-.231.508-.517a.513.513 0 00-.508-.517.513.513 0 00-.509.517c0 .286.228.517.509.517zM16.04 27.5a.54.54 0 00.535-.544.54.54 0 00-.535-.544.54.54 0 00-.536.544c0 .301.24.545.536.545zM25.79 34.839c.42 0 .762-.347.762-.775a.768.768 0 00-.762-.774.768.768 0 00-.762.774c0 .428.34.775.762.775z" fill="#fff"/></svg>