<!-- by TradingView --><svg xmlns="http://www.w3.org/2000/svg" width="56" height="56"><path d="M0 28a28 28 0 1156 0 28 28 0 01-56 0z" fill="#F0F3FA"/><path d="M17 22h-3v4.6c0 2.22 1.93 3.4 4 3.4 2.07 0 4-1.18 4-3.4V22h-3v4.85c0 .53-.45.97-1 .97s-1-.44-1-.97V22z" fill="#C3102C"/><path fill-rule="evenodd" d="M5 22h5a2.5 2.5 0 01.9 4.83L12.74 30h-2.9L8.1 27H8v3H5v-8zm3 3.5v-2h1a1 1 0 110 2H8z" fill="#C3102C"/><path d="M31 22h-8v2h2.5v6h3v-6H31v-2zm1 0h3v3h2v-3h3v8h-3v-3h-2v3h-3v-8zm11 0h-2v2h1l-.5 1h1l.5-1v-2zm4.77 5.04c-3.6-.4-4.1-1.95-4.1-2.44 0-1.28 1-2.06 2.17-2.39.87-.24 1.98-.3 2.83 0a3.15 3.15 0 012.1 2.39h-2.5c-.12-.34-.23-.57-.6-.68-.5-.14-1.24-.1-1.3.31-.16 1.16 4.9.18 4.62 3.5-.16 1.06-1.24 1.82-2.31 2.1-.9.24-2.08.23-2.99 0a2.94 2.94 0 01-2.27-2.3h2.55c1.3 1.45 3.3 0 1.8-.5zM18.45 22h.3v3.88h-.3V22zm-.6 0h.3v3.88h-.3V22zm-.6 0h.3v3.88h-.3V22z" fill="#C3102C"/><path d="M5 35.87c.16-.02.25-.05.3-.09.03-.04.05-.15.05-.32v-1.73c0-.14-.02-.24-.07-.28-.04-.04-.13-.07-.28-.08v-.07h1.11v.07c-.15.01-.24.04-.29.08-.04.04-.06.14-.06.28v.78h1.2v-.78c0-.14-.01-.24-.06-.28-.04-.04-.14-.07-.28-.08v-.07h1.1v.07c-.14.01-.24.04-.28.08-.04.04-.06.14-.06.28v1.78c0 .14.02.24.06.28.04.04.14.07.29.08v.07H6.62v-.07c.15-.02.25-.04.29-.09.04-.04.06-.15.06-.32v-.78H5.76v.83c0 .14.02.24.06.28.05.04.14.07.29.08v.07H5v-.07zm3.77-1.25c0 .42.09.73.25.93.17.2.37.3.6.3.24 0 .45-.1.61-.29.17-.2.25-.51.25-.94 0-.44-.08-.75-.25-.95a.76.76 0 00-1.2.01c-.17.2-.26.52-.26.94zm-.45 0c0-.43.13-.77.4-1.03.25-.23.55-.35.9-.35.37 0 .67.12.92.35.26.26.4.6.4 1.03 0 .43-.14.78-.42 1.03-.24.23-.54.35-.9.35-.37 0-.68-.13-.92-.38-.25-.26-.38-.6-.38-1zm3.4.52c.07.18.15.32.24.43.16.18.36.28.6.28.12 0 .23-.04.32-.13.1-.08.14-.19.14-.33a.47.47 0 00-.14-.34 2.48 2.48 0 00-.38-.28l-.34-.21c-.1-.07-.19-.13-.25-.2a.61.61 0 01-.17-.42.68.68 0 01.73-.7c.1 0 .2.02.33.07l.22.06c.05 0 .08 0 .1-.03a.25.25 0 00.05-.1h.08l.09.85h-.1c-.06-.26-.17-.44-.31-.54a.73.73 0 00-.43-.15c-.1 0-.2.03-.28.1a.32.32 0 00-.12.27c0 .1.03.19.09.26s.16.15.29.23l.35.22c.22.13.37.26.46.37.1.12.14.25.14.4 0 .22-.08.4-.24.53a.87.87 0 01-.6.21c-.13 0-.26-.02-.4-.07a1.44 1.44 0 00-.22-.07c-.05 0-.08.02-.1.05a.28.28 0 00-.03.09h-.09l-.12-.85h.1zm4.08-1.12c0-.24-.1-.41-.32-.5a1.08 1.08 0 00-.43-.08c-.08 0-.13.01-.15.03-.02.01-.03.05-.03.1v1.05a5.7 5.7 0 00.2.01c.2 0 .34-.02.44-.08.2-.09.29-.27.29-.53zm-1.67 1.85c.16-.02.25-.04.29-.09.04-.05.06-.15.06-.32v-1.73c0-.14-.03-.23-.07-.28-.04-.04-.13-.07-.28-.08v-.07h1.06c.34 0 .6.06.77.2.18.12.27.3.27.51 0 .27-.1.47-.3.6-.2.12-.44.18-.74.18a9.03 9.03 0 01-.32 0v.72c0 .15.03.24.07.28.05.04.15.07.31.08v.07h-1.12v-.07zm2.61 0c.16-.01.26-.04.31-.07.05-.04.07-.14.07-.3v-1.77c0-.15-.02-.24-.07-.28-.05-.05-.15-.07-.31-.08v-.07h1.18v.07c-.16 0-.27.03-.32.08-.05.04-.07.13-.07.28v1.78c0 .15.02.25.07.29.05.03.16.06.32.07v.07h-1.18v-.07zm1.72-2.57h2.26l.02.67h-.1c-.04-.2-.1-.35-.18-.41-.07-.07-.22-.1-.45-.1h-.22v2.05c0 .15.02.25.07.29.05.03.15.06.31.07v.07h-1.16v-.07c.17-.01.27-.04.32-.08.04-.05.06-.16.06-.33v-2h-.22c-.22 0-.38.03-.46.1-.08.06-.14.2-.18.41h-.1l.03-.67zm4.21 1.61l-.47-1.1-.45 1.1h.92zm-1.73 1.03v-.07c.1-.01.18-.05.23-.12.05-.06.14-.24.27-.54l.83-1.96h.08l1 2.27a1 1 0 00.15.28c.04.03.1.06.2.07v.07h-1v-.07c.11-.01.19-.02.22-.04.04-.01.05-.05.05-.1 0-.03 0-.06-.02-.11l-.05-.16-.17-.38h-1.04a21.05 21.05 0 00-.22.61c0 .07.03.12.08.14.04.02.1.03.2.04v.07h-.8zm3.26-.07c.14-.02.24-.04.28-.08.04-.04.07-.13.07-.28v-1.78c0-.14-.03-.24-.07-.28-.04-.04-.14-.07-.29-.08v-.07h1.13v.07a.55.55 0 00-.3.07c-.04.04-.07.13-.07.26v1.92l.02.1c.02.03.05.05.1.06h.28c.36 0 .6-.02.72-.08.13-.06.25-.21.37-.45h.1l-.2.7H24.2v-.08zm2.83 0c.17-.01.27-.04.32-.07.05-.04.07-.14.07-.3v-1.77c0-.15-.02-.24-.07-.28-.05-.05-.15-.07-.32-.08v-.07h1.19v.07c-.17 0-.27.03-.32.08-.05.04-.07.13-.07.28v1.78c0 .15.02.25.07.29.05.03.15.06.32.07v.07h-1.19v-.07zm1.73-2.57H31l.03.67h-.1c-.05-.2-.1-.35-.18-.41-.07-.07-.22-.1-.45-.1h-.23v2.05c0 .15.03.25.08.29.04.03.15.06.31.07v.07H29.3v-.07c.17-.01.27-.04.31-.08.05-.05.07-.16.07-.33v-2h-.23c-.22 0-.37.03-.45.1-.08.06-.14.2-.18.41h-.1l.03-.67zm3.94 0v.07a.6.6 0 00-.2.02c-.05.02-.07.05-.07.11v.06l.06.1.6.9.56-.9a.37.37 0 00.06-.16c0-.06-.03-.1-.1-.11a.72.72 0 00-.18-.02v-.07h.88v.07a.4.4 0 00-.22.07c-.1.07-.21.2-.33.39l-.6.9v.78c0 .15.03.25.08.29.05.04.16.06.34.07v.07h-1.22v-.07c.18-.01.29-.04.33-.08.04-.05.07-.15.07-.33v-.7l-.53-.76c-.18-.27-.3-.44-.38-.51a.38.38 0 00-.26-.12v-.07h1.12zm4.77-.05c.16 0 .31.02.46.06l.26.07c.06 0 .1-.01.12-.04a.25.25 0 00.06-.1h.09l.03.85h-.1c-.07-.2-.16-.34-.24-.43a.8.8 0 00-.62-.25c-.25 0-.48.1-.68.29-.19.2-.29.51-.29.96 0 .37.1.66.3.86.19.21.43.31.71.31a1.25 1.25 0 00.36-.05c.1-.03.15-.06.17-.08.03-.03.04-.06.04-.1v-.64c0-.16-.02-.25-.07-.29-.04-.04-.13-.06-.28-.07v-.07h1.02v.07c-.1 0-.17.02-.2.05-.05.04-.08.13-.08.26v.78c0 .05-.12.11-.35.2-.23.07-.45.1-.66.1-.39 0-.72-.1-.99-.33-.3-.25-.44-.6-.44-1.02 0-.37.12-.69.35-.95.26-.3.6-.44 1.03-.44zm2.59 1.32c.28 0 .49-.04.61-.09.21-.08.32-.25.32-.49 0-.23-.1-.39-.28-.47a1 1 0 00-.4-.07c-.12 0-.2 0-.22.02-.02.02-.03.06-.03.12v.98zm-.75 1.3c.15-.02.25-.04.28-.09.04-.05.06-.15.06-.32v-1.73c0-.14-.02-.23-.06-.28-.05-.04-.14-.07-.28-.08v-.07h1.1c.23 0 .42.02.58.08.29.11.43.32.43.61 0 .2-.06.36-.19.46-.13.11-.3.18-.53.21l.83 1.02c.05.06.1.1.15.13a.5.5 0 00.2.06v.07h-.65l-.95-1.23-.22.01v.79c0 .15.02.24.06.28.05.04.15.07.3.08v.07H39.3v-.07zm3.57-1.25c0 .42.08.73.24.93a.77.77 0 001.21 0c.17-.19.26-.5.26-.93 0-.44-.09-.75-.26-.95a.76.76 0 00-1.2.01c-.17.2-.25.52-.25.94zm-.46 0c0-.43.14-.77.4-1.03.25-.23.55-.35.91-.35s.67.12.91.35c.27.26.4.6.4 1.03 0 .43-.14.78-.41 1.03-.25.23-.55.35-.9.35-.37 0-.68-.13-.93-.38-.25-.26-.38-.6-.38-1zm4.34-1.32v.07c-.15.01-.25.04-.3.08-.04.04-.07.13-.07.28V35c0 .2.03.37.09.49.1.21.3.32.6.32.33 0 .55-.11.66-.33.06-.12.1-.31.1-.57v-1.04c0-.21-.03-.35-.08-.4-.05-.06-.15-.1-.3-.11v-.07h.93v.07c-.16.02-.26.05-.3.11-.06.06-.08.2-.08.4v1.04c0 .28-.04.5-.13.65-.15.29-.45.43-.88.43-.44 0-.73-.14-.89-.42a1.22 1.22 0 01-.12-.6v-1.25c0-.15-.03-.24-.07-.28-.05-.04-.14-.07-.3-.08v-.07h1.14zm3.81.72c0-.24-.11-.41-.32-.5a1.08 1.08 0 00-.43-.08c-.08 0-.13.01-.15.03-.02.01-.03.05-.03.1v1.05a5.7 5.7 0 00.2.01c.19 0 .33-.02.44-.08.19-.09.29-.27.29-.53zm-1.67 1.85c.15-.02.25-.04.29-.09.03-.05.05-.15.05-.32v-1.73c0-.14-.02-.23-.06-.28-.04-.04-.14-.07-.28-.08v-.07h1.05c.34 0 .6.06.78.2.18.12.27.3.27.51 0 .27-.1.47-.3.6-.2.12-.45.18-.75.18a9.03 9.03 0 01-.3 0v.72c0 .15.01.24.06.28.05.04.15.07.3.08v.07h-1.1v-.07z" fill="#4B494A"/></svg>