<!-- by TradingView --><svg width="56" height="56" fill="none" xmlns="http://www.w3.org/2000/svg"><path fill="#F0F3FA" d="M0 0h56v56H0z"/><path d="M33.914 33.333c4.372-.898 8.452-1.415 13.054.234-1.966-1.528-5.028-1.872-7.408-1.797-1.847.059-3.72.424-5.516.842-3.145.732-6.682 1.776-8.779 2.174 3.1-.164 5.846-.877 8.649-1.453zM15.161 35.483c-2.544-2.08-3.294-4.319-.163-6.59-.85 0-1.821.118-2.544.548-.772.46-1.152 1.3-1.067 2.17.176 1.793 2.164 3.573 3.774 3.872zM10.318 35.478c2.611 4.317 11.292 4.514 17.167 1.417-4.83 1.417-12.78 2.458-17.167-1.417z" fill="#127FC5"/><path d="M14.332 37.159c-6.187-2.346-4.862-6.853-3.035-8.797-2.415 7.248 4.58 8.01 9.106 7.907 5.706-.425 11.173-2.18 16.84-2.968 4.327-.601 8.804-.673 12.27 2.77-.878-.586-2.857-1.502-5.45-1.882-5.01-.536-10.038.73-14.881 1.885-4.864 1.161-10.422 2.487-14.85 1.085z" fill="#125E8F"/><path d="M46.996 25.422l2.33-1.436-.277 2.846 2.348-1.342-.463-.301.034-.057.996.648-.032.055-.474-.306-3.066 1.744.28-2.808-2.336 1.433.389-3.456-.467-.296.035-.058 1.39.905-.036.06-.389-.254-.262 2.623zM19.59 22.222l-.009-.065.491-.064-.396-2.993-.49.064-.008-.054 2.636-.356c.25-.034.446-.062.587-.084.141-.025.208-.053.201-.084l.043-.006.406.94-.046.007a2.409 2.409 0 00-.228-.374.947.947 0 00-.257-.239.78.78 0 00-.31-.112 1.293 1.293 0 00-.387.012l-1.579.211.183 1.384.904-.121c.512-.07.874-.199.8-.764l.057-.01.184 1.385-.06.01c-.071-.54-.466-.626-.967-.558l-.909.123.203 1.54 1.674-.216a1.67 1.67 0 00.428-.103c.12-.051.224-.12.311-.205a1.03 1.03 0 00.215-.31c.059-.123.108-.267.146-.43l.047-.007-.227 1.062-.047.006c.003-.018-.017-.03-.061-.035a1.37 1.37 0 00-.178.002l-.278.028-.349.047-2.73.369zM39.934 23.133l.022-.061.464.17 1.008-2.843-.465-.17.018-.052 2.504.904c.238.085.424.151.56.197.137.043.21.05.217.018l.04.015-.066 1.024-.044-.016a2.422 2.422 0 00-.032-.438.956.956 0 00-.12-.331.79.79 0 00-.224-.243c-.09-.07-.21-.118-.35-.17l-1.499-.542-.466 1.314.859.312c.485.175.866.228 1.057-.31l.055.018-.466 1.316-.057-.018c.182-.513-.13-.773-.605-.945l-.865-.31-.518 1.461 1.585.584c.156.056.297.097.427.107.13.01.254-.003.37-.038a1.02 1.02 0 00.332-.177 2.1 2.1 0 00.325-.314l.045.016-.685.838-.044-.016c.01-.015-.002-.035-.038-.06a1.39 1.39 0 00-.159-.08 25.855 25.855 0 00-.26-.104l-.332-.12-2.593-.936zM16.122 22.498l.912-2.908-.528.153-.011-.054 1.113-.322.013.047-.512.15-1.125 3.588-2.818-2.444-.53.148-.024-.06 1.71-.484.024.06-.505.146 2.28 1.98zM33.453 21.36l1.95-2.329-.545-.064.01-.054 1.15.136-.005.048-.53-.06-2.407 2.874-1.668-3.351-.545-.07v-.063l1.762.217v.064l-.522-.061 1.35 2.714zM9.706 22.105l1.58-.675.018.055-.482.202 1.183 2.787.488-.198.026.064-1.577.682-.029-.07.524-.226-1.176-2.782-.53.222-.025-.061zM37.456 19.354l1.67.393-.016.056-.508-.123-.67 2.955.51.13-.017.068-1.672-.387.017-.074.555.129.673-2.948-.557-.135.015-.064zM6.753 27.445l.452-.32.038.069-1.294.92-.04-.07.36-.258-1.727-2.46-.366.254-.032-.056 1.975-1.418c.376-.267.958-.58 1.438-.454.14.034.261.124.362.267a.678.678 0 01.09.647 1.11 1.11 0 01-.17.306c-.075.1-.16.192-.258.279.166-.079.323-.133.494-.13.445.007.643.361.981.53.163.073.35.09.496-.015a.496.496 0 00.192-.305.521.521 0 00-.082-.403L9.7 24.8a.512.512 0 01.1.27.578.578 0 01-.045.259.815.815 0 01-.146.236 1.05 1.05 0 01-.21.187c-.19.129-.467.272-.698.232-.304-.067-.529-.293-.786-.451-.262-.165-.509-.226-.762-.046l-1.188.845.788 1.113zm-1.743-2.45l.917 1.278 1.15-.822c.428-.305.62-.61.27-1.11-.334-.475-.741-.488-1.164-.188l-1.173.842zM26.051 21.477l.552-.002-.008.077-1.582.012.006-.08.441-.005-.03-3.015-.444-.003.005-.064 2.423-.028c.46-.003 1.115.073 1.438.454.096.109.145.251.146.428a.679.679 0 01-.291.582 1.09 1.09 0 01-.312.155 1.91 1.91 0 01-.37.08c.181.03.34.077.48.177.361.262.325.668.507 1.002.092.152.237.273.416.272a.489.489 0 00.33-.141.515.515 0 00.114-.166.472.472 0 00.046-.212h.047a.512.512 0 01-.07.277.57.57 0 01-.184.188.803.803 0 01-.252.11 1.037 1.037 0 01-.28.033c-.227-.003-.536-.045-.703-.211-.213-.23-.269-.545-.392-.823-.122-.286-.29-.478-.6-.476l-1.453.01.02 1.369zm-.05-3.017l.032 1.579 1.409-.015c.523-.004.854-.144.848-.755-.006-.583-.333-.83-.85-.825l-1.439.016z" fill="#125E91"/><path d="M16.993 16.683l.05.042-.041.05-.05-.041.041-.052z" fill="#135F93"/></svg>