<!-- by TradingView --><svg xmlns="http://www.w3.org/2000/svg" width="56" height="56"><path fill="#F0F3FA" d="M0 0h56v56H0z"/><path fill-rule="evenodd" d="M21.5 30.5L19.18 25H18l3 7h1l3-7h-1.17l-2.33 5.5zM35 25h-1v7h5v-1h-4v-6zm4.18 0l2.32 5.5 2.33-5.5H45l-3 7h-1l-3-7h1.18zM12 32h5v-1h-4v-2h4v-1h-4v-2h4v-1h-5v7zm39 0h-5v-7h5v1h-4v2h4v1h-4v2h4v1zm-40.22-4.77v-.02a2.1 2.1 0 00-.59-1.5 2.87 2.87 0 00-2.04-.7H5v7h1V26h2.05c1.27 0 1.7.56 1.7 1.31 0 .71-.55 1.17-1.7 1.17h-.81L9.74 32H11l-1.91-2.65a2.12 2.12 0 001.69-2.12zM32 28.5a2.5 2.5 0 11-5 0 2.5 2.5 0 015 0zm1 0a3.5 3.5 0 11-7 0 3.5 3.5 0 017 0z"/></svg>