<!-- by TradingView --><svg xmlns="http://www.w3.org/2000/svg" width="56" height="56"><path fill="#F0F3FA" d="M0 0h56v56H0z"/><path d="M36.36 15H26c2.57 1.6 7 5 7 5l5-5h-.92c-2.78-2.53-6.89-5.32-10.75-4.97-.23.02-.47.13-.65.26-.28.19-.5.44-.6.83l.05-.01h.03l.05-.02c3.24-1.93 8.36 1.77 11.15 3.91z" fill="#0072BC"/><path d="M23.85 27.88l.5.84.06-.01c.02 0 .04 0 .05-.02l.99-.96.02-.02 1.6-1.54c.14-.15.14-.24-.03-.38-.2-.16-.4-.34-.6-.52-.29-.26-.59-.53-.9-.76-.6-.44-1.2-.86-1.81-1.28l-1.23-.86c-.15-.1-.3-.2-.47-.28-.35-.2-.7-.4-.93-.77a1.3 1.3 0 01-.2-.52c-.01-.15.08-.23.26-.13l.64.34a23.89 23.89 0 014.88 3.28l.81.67c.14.1.27.22.4.33l.36-.32.25-.22c.27.27.19.46-.02.65l-.14.16-.13.15-3.28 3.16-.01.01c-.33.32-.33.32-.04.65l.17.2.94 1.22c.7.9 1.38 1.81 2.13 2.67a28.94 28.94 0 004.82 4.58c2.99 2.15 3.92 1.5 2.37-1.95-.35-.78-.75-1.53-1.2-2.25a37.64 37.64 0 00-4.35-5.47l-1.15-1.26c-.17-.2-.28-.46-.36-.7-.04-.1.03-.31.12-.37.1-.07.3-.07.41-.01.19.1.35.26.5.42l.42.45 2.24 2.45a27.2 27.2 0 012.67 3.56 15.46 15.46 0 012.26 4.98c.23 1.05.43 2.1-.75 2.95H42v-6.24c-.11.04-.17.1-.2.17-1.32 3.34-7.48-3.82-8.67-5.14-.8-.88-1.6-1.78-2.3-2.74a73.88 73.88 0 01-3.16-4.78 27.12 27.12 0 01-2.84-6 11 11 0 01-.58-3.51v-.12h-.06v2.69a5.02 5.02 0 00-2.38-.32c-3.27.43-1.58 5.53-.77 7.32l.2.44c.49 1.08.98 2.16 1.52 3.21.33.65.7 1.28 1.09 1.9z" fill="#0072BC"/><path d="M23.34 29.8l-.16.13c-.12.11-.24.21-.34.33-.14.15-.23.12-.36 0l-.76-.65c-.82-.71-1.63-1.43-2.48-2.1-.52-.43-1.07-.8-1.63-1.17l-.45-.3c-.16-.1-.16-.42-.16-.42V21.5c0-1.3-1.74-.36-2.1.23l-.1-.06c.36-.7.8-1.21 1.64-1.34.88-.14 1.7.07 2.52.34.08.03.16.03.25.04l.16.01-.05-.1c-.03-.06-.05-.1-.05-.14.05-.6-.37-.66-.74-.72h-.06l-.06-.01c-.34-.06-.7-.05-1.05-.04h-.21s-.15 0-.15-.21v-4.49h3.23c-1.73 1.49-1.13 3.7-.55 5.89.5 1.88 1.32 3.62 2.23 5.31A62.12 62.12 0 0026.28 33c2.47 3.06 5.01 6.06 8.74 8.01h-3.4c-.62 0-.8-.34-1.06-.85-.42-.84-.95-1.62-1.47-2.4l-.15-.2a35.21 35.21 0 00-3.43-4.23c-.38-.42-.78-.84-1.18-1.25l-.18-.2a323.58 323.58 0 01-.3-.3c-.05-.06-.11-.13-.19-.15-.15-.05-.4-.14-.46-.07a.64.64 0 00-.1.51c.06.21.21.41.36.58l.82.86c.37.38.74.77 1.1 1.17A35.06 35.06 0 0130 40.69c.5.93.73 1.7 1.13 2.67.11.26.13.56.15.85l.02.18v.13c.01.05-.02.1-.05.16v.02l-.01.02-.02.03v.01h-.08l-.05-.24a11.64 11.64 0 00-1.3-3.16c-.17-.27-.44-.36-.75-.36h-3.67a.73.73 0 01-.6-.25l-1.06-1.12c-.49-.52-.98-1.03-1.44-1.57-.5-.59-.96-1.2-1.43-1.8v-.01l-.65-.84c-.1-.13-.08-.23.04-.34l.24-.23.29-.27c.2-.19.21-.4.1-.62a2.8 2.8 0 00-.12-.24c-.22-.38-.2-.5.11-.81l.97-.95.02-.02 1.42-1.39c.2-.19.32-.4.08-.75zm17.97-16.85l-1.91 2.03L42 15v4.45A50.67 50.67 0 0039.12 16c-.12-.14-.27-.16-.39-.03-.23.36 1.31 2.28 1.87 2.98.34.42 1.13 1.64 1.13 1.64l.69.9c.57.75 1.23 1.6 1.58 2.23v.64l-2-2.77v10.48a34.43 34.43 0 00-4.62-7.47 59.55 59.55 0 00-2.5-2.82 5.12 5.12 0 00-.75-.68c-.3-.21-.56-.05-.56.33 0 .34.14.62.36.86l.58.6c.33.33.66.66.96 1 .4.48.79.98 1.18 1.5l.53.68c1.24 1.42 5.5 8.86 3.51 8.32a8.33 8.33 0 01-3-1.7 40.88 40.88 0 01-3.93-3.7c-.26-.27-.52-.54-.76-.83a140.36 140.36 0 01-2.65-3.33l-.42-.57c-.12-.15-.03-.25.07-.34l.01-.01a869.21 869.21 0 015.15-5.07l.01-.01 3.82-3.74c.78-.75 2.32-2.29 2.32-2.29l.06.07-.06.08z" fill="#0072BC"/><path d="M17 34.65v-1.21c.02-.62-.38-1.14-.67-1.65a19.04 19.04 0 01-2.12-5.4c-.07-.41-.35-.57-.66-.66-.51-.14-1.04-.22-1.57-.3-.33-.04-.67 0-.95.24-.02.02-.05.02-.09.03h-.05c-.04-.4.33-.78.78-.87a3.7 3.7 0 012.08.32l.11.03.08.02v-2.34h.13v.1c.02.08.02.16.02.24-.05.86.08 1.7.27 2.52.36 1.57.94 3.06 1.7 4.47a66.7 66.7 0 002.39 4.06c.6.93 1.28 1.8 1.97 2.66 1.14 1.4 2.3 2.78 3.5 4.12a19.93 19.93 0 003.45 3.05c.7.48 1.4.9 2.2 1.16.62.19 1.26.3 1.83-.18l.07-.02h.05c-.14.56-.6.94-1.13.96a4.55 4.55 0 01-2.37-.78 15.51 15.51 0 01-3.25-2.5l-1.3-1.33-.17-.16c-.28-.3-.6-.23-1.03-.23H17v-2.24s-.92.74-.82.96c.22.5-.07.78-.35 1.06l-.07.07-.03.03-.45.43-.08.08-.07.06c-.25.23-.59.26-.94.04a6.1 6.1 0 01-1.6-1.6c-.03-.02-.04-.07-.04-.12l-.02-.1.27.26.57.55c.27.22.57.42.87.6.23.16.59.09.8-.11l.45-.46c.38-.4.4-.72.1-1.2a6.77 6.77 0 00-.7-.9v-.01l.02-.02.03-.03.13.12.31.3c.05.04.08.1.12.15v.02l.04.05.02.02v.01l.01.01c.26.35.26.35.54.06l.04-.04c.44-.46.9-.9 1.36-1.35l.09-.08c.23-.23.33-.5.34-.84.02-.57 0-1.15-.25-1.68a1.02 1.02 0 00-.34-.43c-.11-.07-.23-.02-.35-.02zm12.57-11.03a40.42 40.42 0 01-4.1-7.98c-.12-.3-.23-.7.21-.4 1.85 1.28 3.53 2.74 5.21 4.21l1.4 1.21c.16.14.16.25.01.39a509.77 509.77 0 01-1.64 1.5l-.57.57-.31.31-.12.11-.1.08z" fill="#0072BC"/><path d="M15.07 24.92c.14.06.27.11.29.41.01.33.33.71.62.93.55.42 1.11.82 1.68 1.22a25.09 25.09 0 013.04 2.37v.01l.57.5.26.23.36.32c.13.1.11.17 0 .28l-.69.65c-.32.32-.64.63-.97.93-.14.12-.32 0-.46-.08a2.2 2.2 0 00-.05-.04c-.38-.22-.47-.2-.8.12-.27.29-.28.3-.47-.04-.51-.92-.86-1.68-1.36-2.6a.97.97 0 01-.1-.43l.01-1.52c.02-.44-.62-.98-1-1.14-.52-.2-.72-.63-.84-1.14l-.2-.68c-.06-.15-.16-.4.1-.3zm-1.75 13.47c-.53-.3-.8-.2-.8.37v.04c0 .05 0 .11.02.16.4.9 1.07 1.52 1.95 1.9.1.05.32-.05.43-.14.08-.07.12-.27.08-.37-.33-.85-.9-1.51-1.68-1.96zm-1.95-7.59l.23.42.05-.02.07-.02-.01-.25c0-.18-.01-.36-.07-.51-.14-.33-.3-.64-.45-.96-.19-.37-.37-.74-.52-1.11a4.73 4.73 0 01-.4-1.87l-.02-.18-.02-.1c-.2.31-.3.92-.18 1.3.26.8.53 1.6.84 2.37.13.32.3.62.48.93z" fill="#0072BC"/></svg>