<!-- by TradingView --><svg width="56" height="56" xmlns="http://www.w3.org/2000/svg"><path fill="#1477C6" d="M0 0h56v56H0z"/><path d="M43.41 21.541c-2.74-5.873-9.069-9.844-16.229-9.523-7.15.323-13.036 4.83-15.17 10.91L12 22.96l.078-.003.008-.018c2.398-5.114 8.212-8.869 15.185-9.183 6.978-.314 13.154 2.908 16.062 7.79l.077-.005zM12.597 34.47c2.742 5.868 9.069 9.835 16.225 9.512C35.98 43.66 41.872 39.14 44 33.05l-.08.003c-2.395 5.117-8.212 8.877-15.188 9.19-6.973.314-13.147-2.903-16.056-7.78l-.079.006z" fill="#fff"/><path d="M36.998 33.709c0 2.603-4.971 5.291-4.971 5.291C41.205 35.912 42 31.608 42 29.967c0-3.625-4.003-4.774-8.43-5.346-3.443-.444-5.998-.45-8.394-.676-3.809-.36-4.89-1.264-4.89-2.604 0-2.535 5.355-5.341 5.355-5.341C16.926 18.582 15 22.546 15 25.018c0 5.957 12.794 5.892 17.936 6.39 3.175.309 4.074 1.335 4.062 2.3z" fill="#fff"/></svg>