<!-- by TradingView --><svg width="56" height="56" xmlns="http://www.w3.org/2000/svg"><path fill="#FFBF22" d="M0 0h56v56H0z"/><path d="M9.844 29.819h3.48l.18.685c.464 1.761 2.124 3.41 4.674 4.642 2.7 1.305 6.177 2.024 9.79 2.024 3.614 0 7.09-.72 9.79-2.024 2.551-1.233 4.21-2.881 4.677-4.642l.182-.686h3.546v-8.007H9.845v8.008zm18.124 9.186c-7.782 0-14.34-2.706-16.026-7.005H8V20h40v11.996h-4.005c-1.686 4.3-8.244 7.009-16.027 7.009z" fill="#fff"/><path d="M9 21v10h3.611c1.096 4.158 7.554 7.087 15.358 7.087S42.23 35.157 43.326 31H47V21H9z" fill="#004D41"/><path d="M12.083 26.769c0 .64.572.933 1.158.933.823 0 1.196-.484 1.196-.879 0-.347-.198-.49-.442-.647-.151-.096-.98-.47-1.165-.559-.699-.354-.98-.695-.98-1.192 0-.348.155-.79.51-1.07.338-.274.832-.355 1.289-.355.245 0 .585.034.822.061.236.026.314.02.418.014-.06.422-.066.537-.053 1.048h-.328c-.015-.715-.617-.846-.982-.846-.601 0-1.08.346-1.08.83 0 .511.456.735.929.933l.585.238c.573.229 1.084.516 1.084 1.19 0 .735-.564 1.534-1.864 1.534-.344 0-1.165-.109-1.43-.123.016-.198.031-.402.031-.6 0-.18-.006-.35-.022-.52h.337l-.013.01zm4.453-.611c-.434.156-.592.47-.592.74 0 .319.22.607.655.607.403 0 .649-.26.73-.383.224-.322.224-.744.224-1.07-.327-.009-.693-.014-1.014.1l-.003.006zm1.69.388c0 .646 0 .973.366.973.1 0 .167-.04.252-.087l.13.176c-.36.232-.542.392-.848.392-.57 0-.57-.61-.57-.898-.091.196-.403.898-1.284.898-.784 0-1.065-.554-1.065-.97 0-.464.29-.758.655-.942.504-.246 1.08-.257 1.691-.271 0-.565-.025-1.04-.145-1.183-.15-.179-.419-.179-.494-.179-.44 0-.844.224-1.15.517l-.195-.307c.322-.204.998-.665 1.76-.665.366 0 .693.134.832.394.07.135.07.285.07.455l-.004 1.697z" fill="#fff"/><path d="M18.8 24.435c.434-.015.8-.15 1.135-.435l.19.128c-.038.395-.038.475-.038.811.13-.168.259-.343.457-.497.342-.262.8-.442 1.134-.442.97 0 .992.83.998 1.12v2.035c-.006.423.107.555.633.575V28c-.343-.015-.677-.03-1.02-.03-.312 0-.564.015-.914.03v-.27c.602-.014.627-.227.627-.65v-1.72c0-.183-.006-.396-.107-.558-.097-.161-.34-.308-.654-.308-.328 0-.671.153-.876.401-.236.279-.236.474-.242 1.037v.984c.009.584.009.797.632.817v.264c-.334-.015-.677-.03-1.02-.03-.305 0-.57.021-.935.033v-.275c.633-.029.648-.198.655-.731v-1.296c0-1.007-.006-1.022-.645-1.022v-.248l-.01.007zm6.36-.058c-.37 0-.63.116-.774.226-.365.279-.5.863-.5 1.36 0 .95.487 1.549 1.136 1.549.284 0 .67-.147.907-.592.107-.204.176-.35.176-1.358 0-.329-.006-.65-.015-.979-.205-.08-.51-.206-.923-.206h-.006zm.123-1.943c.709-.015 1.02-.09 1.402-.432l.176.087c-.022.153-.038.29-.054.468-.044.497-.044 2.746-.044 3.411 0 .141 0 1.097.01 1.163 0 .086.022.32.274.32.1 0 .23-.042.32-.072l.054.264c-.585.101-.73.146-1.234.36l-.129-.073c.047-.437.047-.656.038-.904-.318.584-.768.974-1.423.974-.882 0-1.483-.777-1.483-1.822 0-1.204.815-2.118 2.194-2.118.284 0 .542.045.715.081 0-.218-.006-.862-.022-1.051-.016-.24-.076-.387-.397-.387h-.39v-.263l-.007-.006z" fill="#fff"/><path d="M29.786 25.425c0-.29.015-1.128-.838-1.128-.35 0-.89.178-1.013 1.128h1.85zm.731 1.916c-.236.185-.808.659-1.592.659-.898 0-1.682-.674-1.682-1.914 0-1.232.761-2.086 1.865-2.086 1.439 0 1.439 1.396 1.439 1.774h-2.634c-.016 1.62 1.134 1.708 1.385 1.708.572 0 .907-.275 1.09-.43l.129.289zm1.523-3.26c-.038.394-.053.52-.061.98.114-.243.449-.948 1.34-1.061l.16.163a8.13 8.13 0 00-.054.913h-.29c-.047-.222-.154-.371-.402-.371-.183 0-.413.128-.542.344-.199.305-.199.722-.199 1.011v1.14c.016.453.211.505.882.505V28c-.428-.012-.756-.034-1.127-.034-.353 0-.709.016-1.067.031v-.28c.51-.006.617-.134.632-.46v-2.12c-.01-.429-.145-.429-.633-.429v-.253c.501-.036.816-.166 1.166-.455l.188.093.007-.012zm4.112-.003c-.032.21-.054.329-.054.618 0 .15.007.29.007.432h-.274c-.016-.192-.032-.43-.268-.63a.861.861 0 00-.589-.207c-.503 0-.793.314-.793.63 0 .393.305.506 1.133.81.318.119.93.372.93 1.084 0 .433-.275 1.182-1.509 1.182-.365 0-.922-.088-1.197-.088.023-.192.038-.387.038-.579 0-.17-.015-.35-.028-.527l.28.006c.038.216.151.914.989.908.463.006.8-.26.8-.61 0-.429-.482-.614-1.014-.825-.388-.149-1.005-.386-1.005-1.062 0-.637.488-1.22 1.455-1.22.211 0 .746.078.891.084l.208-.006zm.96 1.818c0 .84.258 1.76 1.178 1.76 1.143 0 1.143-1.328 1.143-1.535 0-.786-.312-1.827-1.234-1.781-.813.04-1.087.794-1.087 1.559v-.003zm3.09.024c0 1.316-.936 2.08-2.07 2.08-.144 0-.607-.015-.966-.222-.381-.216-.81-.728-.81-1.657 0-1.255.844-2.07 2.047-2.116 1.348-.052 1.798 1.01 1.798 1.915z" fill="#fff"/><path d="M40.123 24.418c.434-.016.8-.104 1.135-.418l.19.08c-.038.435-.038.524-.038.894.13-.185.259-.379.457-.548.343-.29.8-.426 1.135-.426.966 0 .99.853.997 1.173l.006 1.902c-.01.465.104.61.63.633V28c-.343-.017-.68-.028-1.02-.028-.315 0-.564.011-.916.028v-.292c.601-.016.623-.25.623-.716l-.006-1.555c0-.202-.01-.436-.107-.614-.101-.178-.344-.34-.655-.34-.33 0-.671.168-.879.442-.236.307-.236.522-.245 1.142l.006.744c.006.643.006.878.633.9v.29c-.337-.016-.68-.032-1.02-.032-.306 0-.573.016-.939.03v-.297c.63-.031.646-.218.655-.805l-.006-1.087c0-1.11-.01-1.126-.649-1.126v-.274l.013.008zM18.444 29c.709.033 1.416.066 2.125.066.775 0 1.187-.041 1.628-.066-.054.483-.07.63-.054 1.218h-.305c-.006-.74-.28-.837-1.036-.837-.274 0-.554.013-.838.04-.022.369-.022.425-.028.805l-.021 1.633h.724c.592-.01.881-.01.881-.733h.306c0 .347-.016.683-.016 1.03 0 .25.01.498.016.75h-.296c-.007-.667-.328-.7-.747-.707h-.865l.022 1.297c.008.62.016.805.122.957.137.201.32.201.678.201V35c-.397-.017-.79-.062-1.187-.062-.365 0-.693.039-1.112.062v-.343c.665-.016.747-.056.772-1.326v-2.769c-.007-1.152-.092-1.224-.769-1.224V29zm4.6 3.859a.932.932 0 00-.593.877c0 .378.221.716.655.716.404 0 .648-.305.731-.45.22-.379.22-.878.22-1.265-.326-.007-.692-.015-1.011.122h-.001zm1.691.458c0 .764 0 1.151.366 1.151.099 0 .167-.049.25-.105l.13.21c-.357.273-.54.427-.845.427-.57 0-.57-.684-.57-1.022-.091.234-.403 1.022-1.286 1.022-.784 0-1.068-.61-1.068-1.102 0-.547.29-.89.655-1.108.501-.29 1.08-.307 1.691-.32.05-.385.041-.602-.078-.77-.155-.209-.42-.209-.498-.209-.444 0-.847.268-1.15.614l-.191-.37c.318-.24.998-.735 1.76-.735.365 0 .692.108.828.415.066.162.066.34.066.542l-.06 1.36z" fill="#fff"/><path d="M26.607 31.097c-.038.395-.054.521-.061.984.116-.246.45-.969 1.341-1.08l.16.178c-.037.41-.043.507-.053.917h-.29c-.044-.224-.15-.373-.402-.373-.183 0-.41.127-.542.343-.198.306-.198.723-.198 1.014v1.098c.015.456.214.508.884.508V35c-.425-.015-.752-.051-1.127-.051-.35 0-.708.036-1.064.051v-.302c.51-.006.617-.134.633-.462v-2.085c-.007-.43-.145-.43-.633-.43v-.255c.504-.036.815-.175 1.165-.466l.192.102-.005-.005zm1.507.32a2.037 2.037 0 001.137-.4l.192.08-.029.782c.268-.431.747-.879 1.5-.879.884 0 .9.598.906.806.425-.633 1.004-.806 1.395-.806.982 0 .982.659.982.95l.003 2.295c0 .217.01.477.65.492V35a21.719 21.719 0 00-.996-.015c-.327 0-.661.003-.989.015v-.272c.624-.015.64-.245.655-.492l-.003-1.99c-.01-.171-.025-.395-.116-.514a.616.616 0 00-.526-.262 1.15 1.15 0 00-.646.195c-.371.244-.393.535-.403 1.012l.003 1.527c.01.254.038.508.64.52V35c-.318-.015-.64-.025-.957-.025-.334 0-.671.01-1.005.025v-.279c.548-.03.623-.186.64-.462l-.004-2.02c0-.165-.006-.446-.151-.602a.599.599 0 00-.457-.18 1.26 1.26 0 00-.58.146c-.493.276-.493.731-.5 1.104l.004 1.476c.009.26.015.514.639.535V35c-.312-.015-.633-.03-.945-.03-.343 0-.677.012-1.01.027v-.283c.623-.03.63-.247.63-.56l-.004-1.732c-.006-.768-.016-.768-.64-.783v-.239l-.015.018zm9.465-.345c-.032.208-.054.327-.054.619 0 .148.01.29.01.43h-.274c-.016-.192-.032-.43-.268-.632a.85.85 0 00-.585-.21c-.503 0-.792.315-.792.636 0 .394.306.505 1.135.811.321.12.929.373.929 1.089 0 .432-.274 1.185-1.508 1.185-.366 0-.923-.089-1.197-.089.022-.192.038-.387.038-.58 0-.172-.016-.351-.032-.53l.284.006c.037.218.15.918.988.909.466.006.8-.263.8-.612 0-.434-.478-.62-1.01-.829-.39-.15-1.006-.388-1.006-1.067 0-.642.488-1.208 1.454-1.208.215 0 .747.058.892.067h.198l-.002.005z" fill="#fff"/></svg>