<!-- by TradingView --><svg xmlns="http://www.w3.org/2000/svg" width="56" height="56"><path fill="#F0F3FA" d="M0 0h56v56H0z"/><path d="M12 18v5c3.31-2.93 9.93-5 15.53-5 3.82 0 6.47 1 6.47 1s1.13-1.43 1.9-2.2C36.7 16 38 15 38 15c0-.03-19.63 0-23 0-1.6 0-3 1.56-3 3z" fill="url(#ad1mfvazs)"/><path d="M44 18v10a33.62 33.62 0 00-6-7c1.44-4.38 3-6 3-6s2.34.34 3 3z" fill="url(#bd1mfvazs)"/><path d="M44 31s-3-4.56-7-7c0 0-1.31 6.86-1.88 10-.73 4.1-3.12 7-3.12 7h8s1.82-.04 2.72-.94c.9-.9 1.28-1.95 1.28-2.97V31z" fill="url(#cd1mfvazs)"/><path d="M12.01 37V25s6.22-4 12.87-4c5.65 0 8.12 1 8.12 1s-1.08 5.31-3.95 10.84S20.01 41 20.01 41h-4s-1.68.12-2.95-1.19C11.8 38.5 12.01 37 12.01 37z" fill="url(#dd1mfvazs)"/><defs><linearGradient id="ad1mfvazs" x1="16.88" y1="14.14" x2="35.62" y2="18.15" gradientUnits="userSpaceOnUse"><stop offset=".23" stop-color="#F9BF13"/><stop offset="1" stop-color="#FDEFCB"/></linearGradient><linearGradient id="bd1mfvazs" x1="36" y1="21.81" x2="44.44" y2="19.64" gradientUnits="userSpaceOnUse"><stop offset=".22" stop-color="#FFF3DB"/><stop offset=".91" stop-color="#F9BF13"/></linearGradient><linearGradient id="cd1mfvazs" x1="38" y1="24.25" x2="42.88" y2="41.06" gradientUnits="userSpaceOnUse"><stop stop-color="#B9C7E2"/><stop offset=".35" stop-color="#4488BD"/><stop offset=".65" stop-color="#0063A7"/></linearGradient><linearGradient id="dd1mfvazs" x1="11.26" y1="36.63" x2="37.38" y2="22.39" gradientUnits="userSpaceOnUse"><stop offset=".3" stop-color="#0063A7"/><stop offset=".5" stop-color="#3783BA"/><stop offset=".63" stop-color="#5494C4"/><stop offset=".75" stop-color="#6FA4CD"/><stop offset=".88" stop-color="#CBDAED"/></linearGradient></defs></svg>