<!-- by TradingView --><svg width="56" height="56" xmlns="http://www.w3.org/2000/svg"><path fill="#0C357A" d="M0 0h56v56H0z"/><path d="M4.944 28h1.78v-.999h-.527v-3.004h.784v.513h.687V23H4v1.51h.687v-.513h.784V27h-.527v1zM8 28h1.79v-1h-.527v-1.274h1.953V27h-.527v1h1.735v-1h-.482v-3h.482v-1h-1.735v1h.527v1.026H9.263V24h.527v-1H8v1h.537v3H8v1zm4.899 0h3.16v-1.341h-.693V27h-1.26v-1.289h1.279v-.678h-1.278V24h1.252v.411h.694V23H12.9v1h.482v3H12.9v1zm5.119 0h1.76c1.235 0 1.575-.611 1.575-1.488 0-.58-.296-.998-.823-1.168.418-.155.72-.502.72-1.039 0-.699-.508-1.305-1.542-1.305h-1.69v1h.482v3h-.482v1zm1.202-1v-1.31h.552c.546 0 .862.267.862.697 0 .446-.341.613-.843.613h-.571zm0-2v-1h.475c.514 0 .785.106.785.502 0 .402-.258.498-.766.498h-.494zm4.928 3c1.285 0 2.17-1.16 2.17-2.523 0-1.356-.891-2.477-2.17-2.477C22.863 23 22 24.113 22 25.477c0 1.357.87 2.523 2.148 2.523zm0-1c-.582-.012-1.148-.555-1.148-1.523 0-.975.54-1.477 1.148-1.477.608 0 1.19.51 1.19 1.477 0 .975-.608 1.535-1.19 1.523zm3.988 1c.867 0 1.49-.502 1.49-1.385 0-.862-.533-1.335-1.291-1.631-.424-.17-.653-.283-.653-.664 0-.34.22-.544.543-.544.264 0 .475.051.612.224a.45.45 0 00-.045.219c0 .233.167.473.463.473.244 0 .43-.19.43-.522 0-.559-.67-1.172-1.46-1.172-.854 0-1.4.58-1.4 1.322 0 .861.514 1.32 1.298 1.631.424.163.655.343.655.725 0 .403-.193.519-.655.519-.277 0-.493-.208-.647-.328a.646.646 0 00.058-.283.46.46 0 00-.463-.459c-.263 0-.443.219-.443.551 0 .565.672 1.324 1.508 1.324zm2.833 0h1.78v-1h-.527v-3h.784v.51h.687V23h-3.668v1.51h.687V24h.784v3h-.527v1zm5.215 0c1.285 0 2.144-1.16 2.144-2.523 0-1.356-.853-2.479-2.132-2.479-1.285 0-2.209 1.115-2.209 2.48 0 1.355.918 2.522 2.197 2.522zm.012-1c-.614-.003-1.196-.555-1.196-1.523 0-.975.522-1.477 1.184-1.477.661 0 1.157.51 1.157 1.477 0 .975-.53 1.526-1.145 1.523zm6.178 1.021l.392-.014V24l.388-.002v-1H41.61v1L42 24v2.001L40 23h-1v1h.361v3H39v1h1.485v-1h-.417v-2.476l2.306 3.497zM4 34h1.85c1.028 0 1.594-.616 1.594-1.386 0-.58-.315-1.172-.842-1.341.418-.156.72-.502.72-1.039 0-.7-.508-1.234-1.542-1.234H4v1h.572v3H4v1zm1.291-1v-1.128h.553c.546 0 .813.163.813.594 0 .445-.293.534-.794.534h-.572zm0-2.017V30h.476c.514 0 .835.09.835.485 0 .403-.308.498-.816.498h-.495zM8 34h3v-1.328h-.622V33h-1.26l.007-1h1.278v-.785H9.125V30h1.253v.328H11V29H8v1h.399l-.006 3h-.4L8 34zm7.333-.002h1.735V33h-.527v-.846c.09.008.212.008.347.008.083 0 .167-.008.257-.014l.848 1.85H19V33h-.513l-.648-1.064c.462-.205.796-.93.796-1.53 0-.947-.694-1.406-1.664-1.406h-1.638v1h.482v3h-.482v.998zm1.619-2.769c-.231 0-.334-.007-.411-.014V30h.392c.584 0 .905.136.905.624 0 .487-.34.605-.886.605zm6.07 2.769c.675 0 1.416-.36 1.827-.861l-.593-.659c-.315.375-.74.522-1.234.522-.69-.064-1.177-.478-1.177-1.41 0-.968.386-1.59 1.155-1.59.386 0 .69.13.812.236a.627.627 0 00-.045.24c0 .304.2.502.489.502.263 0 .462-.233.462-.572 0-.558-.735-1.406-1.718-1.406-1.233 0-2.214 1.19-2.214 2.59 0 1.448.932 2.409 2.236 2.409zm4.209 0c1.285 0 2.273-1.143 2.273-2.507 0-1.357-.994-2.491-2.273-2.491-1.285 0-2.211 1.113-2.211 2.477 0 1.356.933 2.521 2.211 2.521zm0-.998C26.593 33 26 32.445 26 31.477c0-.975.593-1.477 1.231-1.477.638 0 1.231.523 1.231 1.49 0 .976-.593 1.51-1.23 1.51zM30 34h1.666v-1h-.507l.083-2.195 1.2 2.195h.097l1.215-2.195.084 2.195h-.508v1H35v-1h-.436l-.164-3h.6v-1h-1.224l-1.264 2.66L31.18 29H30v1h.551l-.105 3H30v1zm5.516 0h1.735v-1h-.527v-.633c.09.007.212.007.411.007.996 0 1.684-.788 1.684-1.855 0-.947-.694-1.519-1.6-1.519h-1.703v1h.482v3h-.482v1zm1.684-2.51a4.9 4.9 0 01-.476-.013V30h.456c.52 0 .842.321.842.706 0 .385-.276.785-.822.785zM38.775 34h1.626v-1h-.514l.237-.556h1.58l.239.556h-.489v1h1.626v-1h-.366l-1.068-3h.463v-1h-2.39v1h.462l-1.04 3h-.366v1zm1.549-2.22l.622-1.78.56 1.78h-1.182zM46.898 34h.392v-4h.462v-1H46v1h.583v2.004L44.502 29h-1.1v1h.483v3h-.482v1h1.715v-1h-.527v-2.294L46.898 34zM49 34h2v-1h-.625v-.86L51.562 30H52v-1h-1.614v1h.399l-.757 1.47-.791-1.47h.372v-1H48v1h.433l1.216 2.14V33H49v1zm-37.381-.002h3V32.67h-.623V33h-1.259l.006-1h1.279v-.787h-1.279V30h1.253v.327h.623v-1.329h-3V30h.399l-.007 3h-.399l.007.998z" fill="#fff"/></svg>