<!-- by TradingView --><svg width="56" height="56" fill="none" xmlns="http://www.w3.org/2000/svg"><path fill="url(#paint0_linear)" d="M0 0h56v56H0z"/><path d="M42.79 21.735a15.208 15.208 0 00-3.44-5.113 16.42 16.42 0 00-5.127-3.398C32.295 12.405 30.215 12 28 12c-2.185 0-4.257.405-6.223 1.224-1.966.818-3.675 1.948-5.127 3.398-1.46 1.45-2.593 3.157-3.417 5.113C12.408 23.692 12 25.781 12 28.002c0 2.222.408 4.303 1.232 6.243a16 16 0 003.441 5.114 16.031 16.031 0 005.127 3.43 15.697 15.697 0 004.945 1.176c.416.031.832-.631 1.255-.631.424 0 .84.662 1.255.631a15.822 15.822 0 004.99-1.177 15.937 15.937 0 005.105-3.398c1.46-1.45 2.593-3.157 3.417-5.113C43.593 32.32 44 30.23 44 28.01c0-2.23-.408-4.318-1.21-6.275zM31.214 36.78c-1.21 1.036-2.322 1.995-3.063 2.977a.196.196 0 01-.31 0c-.74-.974-1.852-1.933-3.055-2.977-2.76-2.378-5.882-5.075-5.882-8.824 0-5.128 4.166-9.462 9.096-9.462s9.096 4.334 9.096 9.462c-.007 3.757-3.13 6.446-5.882 8.824z" fill="#fff"/><path d="M22.995 37.328c3.183 2.853 3.743 5.191 3.743 6.625.416.023.84.047 1.255.047.416 0 .84-.016 1.255-.047 0-1.434.56-3.772 3.743-6.625 2.45-2.198 5.648-4.661 5.648-9.33 0-5.994-4.877-11.06-10.646-11.06-5.77 0-10.646 5.066-10.646 11.06 0 4.669 3.198 7.132 5.648 9.33zM28 19.782c4.332 0 7.992 3.812 7.992 8.317 0 3.297-2.745 5.659-5.164 7.748-1.059.912-2.042 1.754-2.692 2.611a.167.167 0 01-.273 0c-.65-.857-1.625-1.7-2.684-2.611-2.42-2.089-5.164-4.459-5.164-7.748-.008-4.505 3.652-8.317 7.985-8.317z" fill="url(#paint1_linear)"/><defs><linearGradient id="paint0_linear" x1="10.418" y1="9.712" x2="68.147" y2="76.017" gradientUnits="userSpaceOnUse"><stop stop-color="#1A1E21"/><stop offset="1" stop-color="#06060A"/></linearGradient><linearGradient id="paint1_linear" x1="27.997" y1="44.001" x2="27.997" y2="16.931" gradientUnits="userSpaceOnUse"><stop stop-color="#F3E794"/><stop offset=".039" stop-color="#ECDF8D"/><stop offset=".208" stop-color="#D1C272"/><stop offset=".376" stop-color="#BEAE5F"/><stop offset=".541" stop-color="#B3A154"/><stop offset=".7" stop-color="#AF9D50"/></linearGradient></defs></svg>