<!-- by TradingView --><svg width="56" height="56" xmlns="http://www.w3.org/2000/svg"><path fill="#FFEC00" d="M0 0h56v56H0z"/><path d="M13.525 27.527v-.24c0-1.592-1.376-2.372-4.145-2.372-2.152 0-4.533.62-4.533 2.883 0 1.226.811 1.395 2.451 1.682 1.43.255 2.329.303 2.329.908 0 .414-.424.653-1.147.653-.864 0-1.252-.27-1.252-.892v-.096h-3.21c0 .144-.018.192-.018.271C4 32.506 6.399 33 8.321 33c2.188 0 4.71-.733 4.71-3.042 0-2.023-1.8-1.73-3.563-2.001-.423-.064-1.129-.112-1.129-.637 0-.383.388-.637.988-.637.705 0 1.058.223 1.058.716 0 .032 0 .08-.017.128h3.157zM19.022 25h-3.369l-2.622 11h3.492l.895-3.983c.53.812 1.376 1.178 2.663 1.178 3.122 0 4.603-2.467 4.603-4.872 0-2.07-1.287-3.408-3.245-3.408-1.041 0-1.905.35-2.61 1.067l.193-.982zm.97 2.367c.741 0 1.165.51 1.165 1.306 0 .972-.494 2.197-1.834 2.197-.847 0-1.323-.494-1.323-1.37 0-.876.493-2.133 1.992-2.133zM30.671 25h-3.474l-1.94 8h3.492l1.922-8zm.741-3H27.92l-.512 2h3.493l.511-2zM39.604 25.01c-2.167-.42-3.061 1.16-4.196 2.564L35.971 25h-3.334l-1.923 8h3.458l.864-3.307c.42-1.805 2.051-2.453 3.916-1.911l.652-2.772zM44.073 25.01h-3.475L38.658 33h3.492l1.923-7.99zm.74-3.01h-3.492l-.511 2h3.492l.511-2zM51.97 25H50.1l.6-2h-3.476l-.634 2h-1.517l-.494 2h1.517l-.688 2.496c-.265 1.083-.3 1.274-.3 1.593 0 1.624 1.587 1.911 3.034 1.911.987 0 1.287-.016 2.028-.127l.53-2.23c-.318.032-.636.032-.953.032-.512 0-.97-.016-.97-.574 0-.111.07-.478.158-.796l.67-2.305h1.87l.494-2z" fill="#000"/></svg>