<!-- by TradingView --><svg width="56" height="56" xmlns="http://www.w3.org/2000/svg"><path fill="#E4002B" d="M0 0h56v56H0z"/><path d="M7.218 28.343a1.605 1.605 0 00-.934-.315c-.259 0-.603.133-.603.397 0 .277.38.384.625.453l.359.095C7.419 29.168 8 29.502 8 30.27c0 .473-.129.957-.56 1.279-.423.314-.99.447-1.537.447A3.67 3.67 0 014 31.454l.603-.995c.352.27.769.491 1.25.491.33 0 .682-.145.682-.478 0-.347-.553-.466-.854-.542-.884-.22-1.466-.422-1.466-1.341 0-.964.783-1.593 1.868-1.593.546 0 1.214.15 1.695.39l-.56.957zM10.997 28.5l-.682 1.5h1.422l-.74-1.5zM9.903 31l-.403.996H8l2.209-5h1.629l2.163 5H12.5L12.14 31H9.904zM16.5 31h1.502v.996h-2.997v-5H16.5V31zM20.495 31h1.502v.996H19v-5h1.495V31zM20.995 26.996H22.5l.996 1.504 1.004-1.504h1.496l-1.746 2.6v2.4h-1.49v-2.4l-1.765-2.6zM27.713 31.697h.828c.381 0 .777.014 1.107-.192.331-.206.533-.517.533-.889a.971.971 0 00-.561-.895c-.331-.152-.784-.16-1.144-.16h-.762v2.136zm0-2.433h.598c.366 0 .661.02.97-.186.31-.206.404-.458.404-.803 0-.324-.137-.643-.447-.822-.273-.159-.611-.159-.927-.159h-.598v1.97zm-.345 2.732v-5h1.086c.41 0 .799.026 1.123.291.33.266.453.637.453 1.035 0 .457-.195.796-.626 1.021.669.126 1.122.623 1.122 1.26 0 .404-.165.77-.503 1.034-.382.299-.785.359-1.267.359h-1.388zM32 27.294v1.71h2.303v.299H32v2.394h2.364v.299h-2.737v-5h2.737v.298H32zM43 26.996h.368v3.076c0 .503 0 .935-.372 1.348-.373.38-.943.576-1.498.576s-1.125-.197-1.497-.576c-.373-.413-.373-.845-.373-1.349v-3.075H40v2.984c0 1.018.392 1.629 1.498 1.7 1.08-.063 1.502-.697 1.502-1.7v-2.984zM45.664 31.996h-.329v-4.702H44v-.298h3v.298h-1.335v4.702zM48 26.996h.386L50 29.529l1.615-2.533H52l-1.825 2.864v2.136h-.35V29.86L48 26.996zM35.965 30l1.092-2.432L38.131 30h-2.166zm1.198-3h-.212l-2.213 5h.36l.735-1.694h2.43L39.01 32h.36l-2.207-5z" fill="#fff"/></svg>