<!-- by TradingView --><svg width="56" height="56" xmlns="http://www.w3.org/2000/svg"><path fill="#385072" d="M0 0h56v56H0z"/><path d="M8.102 21v1.73H7.96c-.046-.332-.128-.596-.248-.793a1.25 1.25 0 00-.505-.468 1.442 1.442 0 00-.681-.174.941.941 0 00-.658.236c-.173.155-.26.332-.26.532 0 .152.055.291.165.417.158.184.534.43 1.128.738.484.25.814.444.99.579.179.133.315.29.41.472a1.2 1.2 0 01.145.572c0 .379-.153.706-.459.982-.303.273-.695.41-1.174.41-.15 0-.292-.012-.425-.034a4.65 4.65 0 01-.493-.133c-.247-.079-.404-.118-.47-.118a.211.211 0 00-.153.055c-.036.037-.063.113-.08.23H5.05v-1.717h.141c.067.36.156.629.268.808.112.177.283.325.512.443.232.118.486.177.762.177.318 0 .57-.08.753-.243a.741.741 0 00.28-.576.749.749 0 00-.108-.372 1.103 1.103 0 00-.325-.351c-.1-.074-.371-.23-.815-.469-.443-.24-.76-.433-.948-.575a1.575 1.575 0 01-.425-.473A1.139 1.139 0 015 22.317c0-.359.143-.668.428-.926.286-.26.65-.391 1.09-.391.276 0 .568.065.876.196.143.061.244.092.302.092a.23.23 0 00.161-.055c.043-.04.078-.117.103-.233h.142zm3.577 5.096v.136H9.457v-.136h.184c.214 0 .37-.06.466-.181.062-.079.092-.268.092-.569V22c0-.253-.016-.42-.05-.502a.337.337 0 00-.156-.159.745.745 0 00-.352-.088h-.184v-.137h2.222v.137h-.187c-.212 0-.366.06-.463.18-.064.08-.095.269-.095.569v3.346c0 .254.016.421.05.502a.336.336 0 00.16.159c.11.059.226.088.348.088h.187zM17.07 21l.135 1.58h-.134c-.135-.394-.31-.69-.524-.89-.309-.288-.705-.432-1.19-.432-.66 0-1.162.252-1.506.757-.289.425-.433.932-.433 1.52 0 .477.096.912.287 1.306.191.394.441.683.75.867.31.182.63.273.956.273a2.177 2.177 0 001.07-.277v-1.446c0-.25-.02-.414-.06-.49a.372.372 0 00-.184-.178c-.082-.042-.227-.063-.436-.063v-.14h2.008v.14h-.096c-.198 0-.335.064-.409.192-.05.091-.076.27-.076.539v1.531a3.969 3.969 0 01-.869.336 3.929 3.929 0 01-.952.107c-1.002 0-1.763-.31-2.283-.93a2.43 2.43 0 01-.585-1.608c0-.44.11-.863.329-1.266.26-.48.617-.849 1.07-1.107.38-.214.83-.321 1.347-.321.188 0 .36.015.512.044.156.03.375.095.658.196.143.052.238.077.287.077a.15.15 0 00.122-.062c.036-.045.058-.13.065-.255h.142zm1.142.114h1.408l3.17 3.753V21.98c0-.307-.035-.499-.107-.575-.094-.103-.243-.155-.447-.155h-.18v-.137h1.805v.137h-.183c-.22 0-.375.064-.467.192-.056.078-.084.258-.084.538v4.256h-.138l-3.42-4.067v3.08c0 .308.035.5.104.576.097.104.248.27.45.27h.183v.136H18.5v-.136h.18c.222 0 .376-.179.468-.307.056-.078.084-.258.084-.538v-3.48a2.247 2.247 0 00-.344-.336 1.242 1.242 0 00-.34-.15 1.264 1.264 0 00-.337-.034v-.137zm9.812 3.443h-2.008l-.352.79c-.087.194-.13.339-.13.435 0 .076.037.144.11.203.077.056.24.093.49.11v.137H24.5v-.136c.217-.037.357-.085.42-.144.13-.118.275-.358.433-.72l1.824-4.118h.134l1.805 4.162c.146.335.277.553.394.654.12.098.286.153.497.166v.136h-2.046v-.136c.207-.01.346-.044.417-.1a.253.253 0 00.111-.207c0-.108-.05-.279-.153-.513l-.313-.72zm-.108-.273l-.88-2.022-.902 2.022h1.782zm6.236-3.055l.057 1.173h-.145c-.028-.207-.066-.354-.115-.443a.74.74 0 00-.317-.313 1.105 1.105 0 00-.516-.104h-.73v3.823c0 .307.034.5.102.576.097.103.246.155.448.155h.18v.136h-2.2v-.136h.184c.22 0 .375-.064.467-.192.056-.079.084-.259.084-.539v-3.823h-.624c-.242 0-.414.018-.516.052a.704.704 0 00-.34.27c-.095.132-.15.312-.169.538h-.145l.061-1.173h4.234zm4.362.13v-.136h1.836v.137h-.195a.531.531 0 00-.47.247c-.054.076-.081.253-.081.532v2.029c0 .502-.052.892-.157 1.17-.102.275-.305.512-.608.712-.3.196-.711.295-1.232.295-.566 0-.995-.095-1.288-.284a1.549 1.549 0 01-.624-.764c-.082-.219-.122-.63-.122-1.233V22.11c0-.308-.045-.51-.134-.605-.087-.096-.228-.144-.425-.144h-.195v-.137h2.241v.137h-.198c-.215 0-.368.065-.46.195-.063.09-.095.273-.095.554v2.18c0 .195.018.417.053.668.039.251.106.447.203.587.097.14.236.256.417.347.184.091.408.137.673.137.34 0 .643-.072.91-.214.268-.143.45-.325.547-.547.1-.223.15-.601.15-1.132v-2.026c0-.312-.036-.508-.107-.587-.1-.108-.248-.162-.444-.162h-.195zM46 26.23h-1.385l-1.755-2.339c-.13.005-.236.008-.318.008h-.107l-.118-.008v1.454c0 .315.035.51.107.587.097.108.242.162.436.162h.203v.136H40.84v-.136h.195c.22 0 .377-.069.471-.207.054-.076.08-.257.08-.542v-3.232c0-.315-.035-.51-.107-.587-.1-.108-.247-.162-.444-.162h-.194v-.137h1.889c.55 0 .956.04 1.216.118.263.076.485.22.666.428.183.207.275.454.275.742 0 .307-.105.574-.314.8-.206.227-.527.387-.963.48l1.07 1.435c.245.33.456.549.632.657.175.108.405.177.688.207v.136zm-3.683-2.571c.048 0 .09 0 .126.003h.088c.495 0 .867-.103 1.117-.31a.976.976 0 00.378-.79c0-.312-.102-.565-.306-.76-.201-.196-.469-.294-.803-.294-.148 0-.348.023-.6.07v2.08zm5.715-2.159v1.978h1.14c.296 0 .493-.043.593-.13.132-.112.206-.312.221-.597h.142v1.741h-.142c-.035-.243-.07-.4-.107-.468a.471.471 0 00-.225-.203c-.105-.05-.266-.074-.482-.074h-1.14v1.65c0 .22.01.356.03.405.021.047.057.085.108.115.05.027.148.04.29.04h.88c.293 0 .506-.02.639-.059a.958.958 0 00.382-.232c.158-.153.32-.383.486-.69H51l-.447 1.254h-3.997v-.136h.183a.749.749 0 00.348-.085.307.307 0 00.165-.177c.03-.079.046-.24.046-.483v-3.251c0-.317-.033-.513-.1-.587-.092-.098-.245-.147-.459-.147h-.183v-.137h3.997l.057 1.096h-.15c-.053-.263-.113-.444-.179-.542a.596.596 0 00-.287-.226c-.102-.036-.282-.055-.54-.055h-1.422zM19.938 33.447c.36.073.629.192.807.354.248.226.371.503.371.83 0 .248-.081.487-.244.716a1.409 1.409 0 01-.674.498c-.283.103-.716.155-1.3.155H16.45v-.136h.195c.217 0 .373-.067.467-.2.059-.086.088-.27.088-.55v-3.232c0-.31-.037-.505-.111-.586-.1-.109-.247-.163-.444-.163h-.195v-.136h2.242c.418 0 .753.03 1.005.088.383.089.675.246.876.473.202.223.302.482.302.774 0 .251-.079.476-.237.676-.158.196-.391.343-.7.439zm-2.004-.2c.095.018.202.031.322.041.122.007.256.011.401.011.372 0 .652-.038.838-.114a.9.9 0 00.432-.358c.1-.16.149-.335.149-.524 0-.293-.124-.542-.37-.75-.248-.206-.61-.31-1.083-.31-.255 0-.485.028-.689.082v1.922zm0 2.391c.296.067.588.1.876.1.462 0 .814-.1 1.056-.299a.934.934 0 00.363-.745c0-.195-.055-.381-.164-.561-.11-.18-.289-.321-.536-.424-.247-.104-.553-.155-.918-.155-.158 0-.293.002-.405.007a2.137 2.137 0 00-.272.026v2.051zm7.539-1.313h-2.008l-.352.79c-.087.194-.13.339-.13.435 0 .076.037.144.11.203.077.056.24.093.49.11V36H21.95v-.136c.217-.037.357-.085.421-.144.13-.118.274-.358.432-.72l1.825-4.118h.133l1.806 4.162c.145.335.276.553.394.653.12.099.285.154.497.166V36h-2.046v-.136c.206-.01.345-.044.416-.1a.253.253 0 00.111-.207c0-.108-.05-.279-.153-.513l-.313-.72zm-.107-.273l-.88-2.022-.903 2.022h1.783zm2.569-3.055h1.407l3.171 3.752v-2.885c0-.308-.036-.5-.107-.576-.094-.103-.243-.155-.447-.155h-.18v-.136h1.805v.136H33.4c-.219 0-.374.064-.466.192-.056.079-.084.258-.084.539V36h-.138l-3.42-3.948v3.08c0 .308.035.5.104.577.097.103.246.154.447.154h.184V36h-1.805v-.136h.18c.221 0 .378-.064.47-.192.056-.08.084-.259.084-.54v-3.478a2.247 2.247 0 00-.344-.336 1.247 1.247 0 00-.34-.152 1.263 1.263 0 00-.337-.033v-.136zm8.634 2.228l1.913 1.834c.313.303.581.51.803.62.222.108.444.17.665.184V36h-2.467v-.136c.148 0 .254-.024.318-.07.066-.05.1-.104.1-.163a.324.324 0 00-.039-.159c-.023-.046-.102-.134-.237-.262l-1.79-1.708v1.612c0 .254.017.421.05.502a.335.335 0 00.16.159c.11.059.226.089.348.089h.176V36h-2.21v-.136h.183c.214 0 .37-.06.467-.181.061-.079.092-.268.092-.569v-3.232c0-.253-.017-.422-.05-.505a.342.342 0 00-.157-.155.746.746 0 00-.352-.089h-.183v-.136h2.21v.136h-.176a.764.764 0 00-.348.085.325.325 0 00-.164.177c-.03.079-.046.241-.046.487v1.531l.524-.468c.757-.67 1.215-1.116 1.373-1.34a.474.474 0 00.103-.258c0-.056-.026-.106-.08-.147-.054-.045-.144-.067-.272-.067h-.118v-.136h1.904v.136a1.172 1.172 0 00-.305.044c-.092.028-.204.08-.337.16-.133.075-.296.2-.49.372-.056.049-.315.301-.776.756l-.792.76z" fill="#fff"/></svg>