<!-- by TradingView --><svg width="56" height="56" fill="none" xmlns="http://www.w3.org/2000/svg"><path fill="#F0F3FA" d="M0 0h56v56H0z"/><path d="M20 24.03c0-2.225-1.723-4.036-3.921-4.036-.567 0-1.079.439-1.079 1.014 0 .584.512.992 1.079.992 1.048 0 1.921.955 1.921 2.021C18 25.087 17.127 26 16.079 26h-2.567c.254.262.488.61.488 1.008 0 .431-.194.73-.49.992h2.577C18.277 28 20 26.255 20 24.03z" fill="#AA9969"/><path d="M6 35c0 .517.449 1 .983 1h2.785c2.066 0 3.732-1.606 3.732-3.582 0-1.984-1.674-3.597-3.748-3.597a.918.918 0 00-.93.934c0 .517.395.934.93.934.99 0 1.848.772 1.848 1.721 0 .95-.859 1.59-1.848 1.59H6.975C6.45 34 6 34.483 6 35z" fill="#969799"/><path d="M20 18.008c0-.584-.418-1.008-.99-1.008H16.029C13.816 17 12 18.818 12 21.043 12 23.277 13.592 25 15.813 25c.572 0 1.187-.425 1.187-1s-.382-1-.954-1C14.986 23 14 22.118 14 21.052c0-1.066.987-2.052 2.046-2.052h2.972c.564 0 .982-.417.982-.992zM13.5 27.008c0-.525-.43-1.008-.964-1.008H9.752C7.685 26 6 27.683 6 29.698c0 2.023 1.693 3.66 3.768 3.66.534 0 .93-.425.93-.958a.937.937 0 00-.93-.957c-.99 0-1.768-.787-1.768-1.752S8.77 28 9.76 28h2.776c.535 0 .964-.467.964-.992z" fill="#000"/><path fill-rule="evenodd" clip-rule="evenodd" d="M23.994 27.069c-.292-.395-.452-.965-.452-1.74l.007-3.55c0-.234.073-.534.212-.629.138-.095.32-.146.553-.146a1.62 1.62 0 01.594.108c.042.014.073.023.091.03v2.382c.345-.346.853-.52 1.334-.52.626 0 1.18.264 1.588.688.412.428.655 1.052.655 1.79 0 .68-.206 1.373-.713 1.85-.452.424-1.079.672-1.793.672-.87 0-1.608-.32-2.076-.935zM25 25.589c0 .329.098.581.286.77.188.189.425.28.718.273.292 0 .53-.091.718-.287.188-.189.277-.448.277-.763s-.09-.574-.277-.777a.93.93 0 00-.718-.301.966.966 0 00-.718.315c-.09.098-.16.21-.21.343a1.222 1.222 0 00-.076.427zm19.5 1.675c0 .487-.044 1.21-.169 1.552-.258 1-1.16 1.488-2.22 1.488-.573 0-1.562-.005-2.112-.155v.855h1.087c.56 0 .765.269.765.725 0 .26-.072.507-.184.739H40v1.431c0 .43.286.677.697.677.26 0 .549-.075.773-.22l.556 1.007c-.514.465-.958.64-1.668.64-.574 0-1.023-.172-1.347-.491-.324-.32-.51-.745-.51-1.278v-4.902c0-.47.272-.685.739-.685.367 0 .829.089 1.293.177.468.09.938.18 1.315.18.47 0 .786-.028.992-.241.174-.174.168-.568.162-.98a15.714 15.714 0 01-.002-.227c-.25.328-.753.448-1.152.448-1.353 0-2.259-.713-2.259-1.848V23.72c0-.492.476-.716.917-.716.23 0 .27.017.47.1l.024.01v2.678c0 .55.389.915 1.036.915s.964-.493.964-.915V23.72c0-.446.367-.716.81-.716.229 0 .478.022.69.11v4.15zM14 34.313c0 .517.206.93.555 1.233.349.31.832.458 1.45.458.215 0 .429-.022.627-.06a3.383 3.383 0 00.935-.325c.111-.058.199-.117.262-.169l-.626-1.026a2.047 2.047 0 01-.325.133c-.15.051-.317.08-.508.08-.095 0-.182-.007-.27-.021a.663.663 0 01-.237-.096.634.634 0 01-.174-.2.677.677 0 01-.11-.34v-1.576h1.798a1.58 1.58 0 00.198-.735c0-.442-.222-.665-.824-.665H15.58v-1.86l-.026-.01c-.037-.014-.092-.035-.206-.071a1.96 1.96 0 00-.484-.06c-.254 0-.452.053-.602.149a.586.586 0 00-.262.51v4.651zm33.5 1.69H49v-2.726c0-.51.279-.91.825-.91.35 0 .649.107.853.213.19-.198.322-.46.322-.743 0-.197-.038-.325-.155-.447-.322-.335-.855-.386-1.29-.386-.597 0-1.1.174-1.45.508-.349.333-.605.825-.605 1.447v3.045zm-25 0H21v-10.41c0-.216.107-.366.246-.458.138-.085.32-.131.554-.131.16 0 .313.02.444.052.115.033.191.061.234.077l.022.009v10.862zm.125-12.227a.738.738 0 00-.233-.548.818.818 0 00-.583-.223.789.789 0 00-.576.223.738.738 0 00-.233.548c0 .216.08.399.233.547.153.15.35.217.576.217a.842.842 0 00.582-.216.737.737 0 00.234-.548zm13.227 4.228h-1.464v-2.946c0-.91.554-1.634 1.42-1.923.277-.085.576-.131.896-.131.314 0 .612.038.896.13.877.285 1.4 1.018 1.4 1.924v2.946h-1.45v-2.592c0-.677-.306-.993-.846-.993-.568 0-.852.331-.852.993v2.592zm-2.533-3.939c.131.257.197.586.197.974v2.811c-.037.015-.124.03-.248.044l-.197.021-.277.03c-.19.015-.408.03-.655.044-.248.008-.503.015-.78.015-.459 0-.838-.044-1.144-.125-.306-.08-.546-.19-.728-.336a1.127 1.127 0 01-.38-.498 1.656 1.656 0 01-.108-.6c0-.571.182-.981.539-1.223.357-.242.925-.366 1.697-.366.197 0 .357 0 .488.007.132.008.19.015.277.03 0-.22-.044-.388-.218-.513-.175-.117-.46-.183-.86-.183a2.77 2.77 0 00-.86.11 2.36 2.36 0 00-.24.095.54.54 0 00-.124.073c-.009-.004-.02-.017-.037-.035a.854.854 0 01-.145-.184 1.255 1.255 0 01-.102-.198.649.649 0 01-.044-.241c0-.542.54-.813 1.617-.813.35 0 .685.03.991.095.306.066.576.176.802.337.233.16.408.366.539.63zm-1.913 2.94c.19 0 .419 0 .594-.058v-.996l-.072-.01c-.423-.062-.954-.14-1.305.135-.13.102-.167.248-.167.395 0 .124.035.247.145.344.186.163.519.189.75.189h.055zm12.64 7.128c.59 0 1.075-.037 1.457-.103.382-.066.685-.168.908-.292a1.07 1.07 0 00.462-.468c.087-.183.127-.387.127-.621 0-.212-.048-.417-.151-.614a1.794 1.794 0 00-.446-.534 2.29 2.29 0 00-.717-.366 3.274 3.274 0 00-.963-.131c-.382 0-.74.058-1.075.183a2.823 2.823 0 00-.868.504c-.247.22-.438.482-.573.79-.143.306-.207.65-.207 1.023 0 .395.072.753.207 1.06.135.307.326.57.573.782.24.212.526.38.852.49.327.11.669.168 1.043.168.295 0 .573-.022.82-.059.247-.043.462-.087.653-.146.183-.058.342-.11.462-.168.12-.058.207-.102.263-.132l-.558-1.038a.498.498 0 01-.127.066c-.072.03-.167.066-.279.095a6.36 6.36 0 01-.398.088c-.151.03-.318.044-.486.044-.222 0-.413-.015-.573-.059a1.44 1.44 0 01-.39-.146 1.054 1.054 0 01-.239-.197.551.551 0 01-.103-.22h.326zm-.35-1.33a.88.88 0 01.207-.322.96.96 0 01.334-.227c.136-.059.287-.088.47-.088.255 0 .438.051.565.146.128.095.191.212.191.337a.505.505 0 01-.04.182c-.023.059-.103.117-.214.168-.12.052-.303.088-.55.117-.247.03-.589.044-1.035.044 0-.117.024-.24.072-.358zm4.807-6.773a8.792 8.792 0 01-1.457.103h-.326a.551.551 0 00.103.219c.056.066.136.131.24.197.103.059.23.11.39.146.158.044.35.059.572.059.168 0 .335-.015.486-.044a6.36 6.36 0 00.398-.088c.112-.029.207-.066.279-.095a.498.498 0 00.127-.066l.558 1.039c-.056.029-.144.073-.263.131-.12.059-.279.11-.462.168a5.614 5.614 0 01-.653.146 5.644 5.644 0 01-.82.059c-.374 0-.716-.059-1.043-.168a2.455 2.455 0 01-.852-.49 2.172 2.172 0 01-.573-.782 2.622 2.622 0 01-.207-1.06c0-.373.064-.716.207-1.024.135-.306.326-.57.573-.789.247-.212.534-.38.868-.504a3.059 3.059 0 011.075-.183c.358 0 .677.044.963.131.279.088.518.212.717.366.19.16.342.336.446.534.103.197.151.402.151.614 0 .234-.04.438-.127.621a1.07 1.07 0 01-.462.468c-.223.124-.526.226-.908.292zm-1.6-1.55a.88.88 0 00-.207.322.958.958 0 00-.072.358c.446 0 .788-.014 1.035-.044.247-.029.43-.065.55-.116.111-.052.19-.11.215-.169a.505.505 0 00.04-.182c0-.125-.064-.242-.192-.337-.127-.095-.31-.146-.565-.146-.183 0-.334.03-.47.088a.96.96 0 00-.334.226zm-17.52 8.896l-.734 2.628h-1.372s-.992-2.506-1.409-3.803a1.677 1.677 0 01-.08-.512c0-.438.329-.685.744-.685.21 0 .453.036.636.15.267.98.806 2.85.806 2.85s.395-1.45.66-2.345c.12-.4.331-.655.77-.655.237 0 .472.094.683.196l.77 2.804s.396-1.362.61-2.111c.072-.302.181-.52.305-.663.203-.236.63-.264.915-.173.182.058.338.132.5.233l-1.67 4.714h-1.394l-.74-2.628zM18.5 36.004H20v-4.856c-.012-.005-.02-.01-.03-.017a.58.58 0 00-.145-.066 1.375 1.375 0 00-.444-.061c-.233 0-.415.053-.554.16-.138.106-.327.288-.327.538v4.302zm6.5 0h-1.5v-6.33c0-.241.151-.422.29-.52.138-.097.32-.15.553-.15.16 0 .314.022.445.06.104.036.153.058.188.072.009.004.016.008.024.01v6.858zm-5.68-7a.78.78 0 00-.575.227.758.758 0 00-.233.558c0 .22.08.407.233.551.153.152.35.22.576.22a.846.846 0 00.583-.22.707.707 0 00.233-.55c0-.221-.08-.407-.233-.559a.822.822 0 00-.583-.227zM38 33.039c0-.388-.066-.717-.197-.974a1.617 1.617 0 00-.539-.63 2.142 2.142 0 00-.801-.336 4.742 4.742 0 00-.991-.095c-1.078 0-1.617.27-1.617.813 0 .087.014.168.043.241a1.247 1.247 0 00.247.382c.016.018.028.03.037.035a.544.544 0 01.124-.073 2.36 2.36 0 01.24-.095 2.77 2.77 0 01.365-.08c.146-.022.306-.03.495-.03.401 0 .685.066.86.183.175.125.218.293.218.513a2.167 2.167 0 00-.276-.03c-.131-.007-.292-.007-.488-.007-.773 0-1.34.124-1.698.366-.357.242-.54.652-.54 1.223 0 .212.037.41.11.6.073.19.197.359.38.498.181.146.422.256.728.337.306.08.684.124 1.143.124.277 0 .532-.007.78-.015.248-.014.466-.029.656-.044l.276-.03.197-.02c.124-.016.212-.03.248-.045V33.04zm-1.516 1.908c-.175.058-.403.058-.593.057h-.055c-.232 0-.565-.026-.75-.19a.435.435 0 01-.146-.343c0-.147.037-.293.168-.395.35-.275.882-.197 1.305-.135l.071.01v.996z" fill="#000"/></svg>