<!-- by TradingView --><svg width="56" height="56" xmlns="http://www.w3.org/2000/svg"><path fill="#96002D" d="M0 0h56v56H0z"/><path d="M43.993 29.568v-.01c-5.415-1.774-15.448.518-19.836-1.803-1.243-.648-2.237-2.396-1.347-3.755H12.485c-.112.527-.334 1.457-.389 2h8.748c-.873.886-1.736 1.685-2.47 3.062-.78 1.465.896 1.973 1.914 2.232 5.522 1.449 17.37.347 22.407 3.181 0-.002 0-.007.006-.01a.037.037 0 00.007.003c.67-1.576.995-2.77 1.186-4.074.038-.268.077-.546.106-.82-.004 0-.007-.006-.007-.006zM28.032 12c-2.395 0-5.434.576-7.739 2H35.74c-1.729-1.2-4.928-2-7.708-2zm8.848 3.776l-1.32 1.585c-.064.082-1.207 1.375.88 1.94 1.412.378 3.193.35 5.149.166-1.089-1.711-2.494-3.275-4.136-4.467h-18.84c-.672.486-1.649 1.418-2.24 2h17.941c1.123-1.224 2.803-1.455 2.566-1.224zm-8.51 5.783c-.504.56-1.099 1.137-1.48 1.794-.255.396-.578 1.281 1.108 1.845 1.6.533 3.326.561 4.995.561 3.617-.065 7.233-.492 10.853-.374l-.011-.038h.01c-.123-.995-.678-2.838-.923-3.29h-.003l-.002-.006c-3.143.304-7.523 1.251-10.62-.378-.588-.313-1.485-.866-1.485-1.643-.021-.46.64-1.672 1.02-2.03H15.52c-.396.515-.951 1.44-1.283 2h15.755c-.467.453-.885.666-1.128.986H13.62c-.232.525-.66 1.467-.84 2.014h11.861c1.676-1.042 3.693-1.635 3.73-1.443v.002zM18.065 27H12c0 .537.02 1.464.069 2h3.06c.873-.669 2.162-1.449 2.935-2zM29.8 37.166c-4.867-2.82-11.12-1.686-14.47-3.64-1.425-.83-1.985-2.73-1.72-3.526h-1.541c1.133 8.169 8.15 14 15.963 14 1.478 0 2.899-.214 4.25-.587.634-2.252.316-4.625-2.482-6.247z" fill="#fff"/></svg>