<!-- by TradingView --><svg xmlns="http://www.w3.org/2000/svg" width="56" height="56"><path fill="#F0F3FA" d="M0 0h56v56H0z"/><path d="M18.74 37.97s.68 1.18 3.46 1.1c1.97-.08 3.18-1.1 3.74-1.16.73-.03 2.3-.53 4.92 2.35 0 0 .4.2.62-.2 0 0-1.8-1.75-3.49-2.29a8.27 8.27 0 00-5.45-.2c-.31.09-2.9 1-3.8.4zm4.16-.93s-.93-.37-1.43-2.03c-.37-1.22-1.66-1.73-2.17-2.35 0 0 .85 2.94 1.8 3.76 0 0-.42.03-.81-.12-.42-.1-2.14-.62-2.62-.67-.45-.03-1.01-.62-1.18-.74 0 0 .37 1.87 3.32 2.54.45.12 1.4.03 1.91-.14.28-.08.62-.14 1.18-.25z" fill="#00276F"/><path d="M19.64 35.77s-.28-1.55-.53-2.68c-.26-1.24-1.18-2.1-1.44-2.85 0 0-.05 3.13 1.27 4.8 0 0-.4 0-.62-.34a9.52 9.52 0 00-2.33-2.2 3.47 3.47 0 01-1.3-1.3s-.05 3.6 4.95 4.57z" fill="#00276F"/><path d="M17.08 32.58s0-1.3.31-2.74c.28-1.21-.4-1.95-.4-2.74 0 0-.98 2.6-.25 4.58 0 0-.25-.26-.39-.65a7.27 7.27 0 00-1.46-2 7.5 7.5 0 01-1.18-1.53s.05.56.36 1.47c.09.3.09 1.4 1.66 2.54 1.58 1.1 1.35 1.07 1.35 1.07z" fill="#00276F"/><path d="M13.6 23.75s-.8 2.82 2.16 5.41c0 0 .06-1.15.73-2.48.31-.6.25-1.64.25-2.4 0 0-1.63 2.15-1.2 3.9 0 0-.03-.31-.29-.7-.25-.46-.36-1.65-.98-2.32a2.8 2.8 0 01-.65-1.36l-.02-.05z" fill="#00276F"/><path d="M15.28 20s-1.97 2.34-.14 5.92c0 0 .68-1.13 1.69-2.23.22-.25.67-1.41.93-2.23 0 0-2.06 1.04-2.4 3.36 0 0 .06-.31-.05-.76-.08-.43.14-1.58.14-2.49 0-.62-.22-1.38-.17-1.58z" fill="#00276F"/><path d="M17.34 17.8s-2.06.92-1.47 4.82c0 0 .85-.88 1.94-1.61.26-.17.9-1.1 1.3-1.78 0-.03-2.2.96-2.79 2.46 0 0 .06-.37.09-.8 0-.39.25-1.07.56-1.83.22-.5.3-1.1.37-1.27z" fill="#00276F"/><path d="M19.7 17.09s-2.25.9-2.96 3.44c0 0 2.82-1.75 2.96-3.39v-.05zm17.23 20.88s-.67 1.18-3.46 1.1c-1.96-.08-3.14-1.1-3.74-1.16-.7-.03-2.27-.53-4.92 2.35 0 0-.39.2-.59-.2 0 0 1.78-1.75 3.46-2.29a8.28 8.28 0 015.46-.2c.3.09 2.9 1 3.8.4zm-4.16-.93s.93-.37 1.44-2.03c.36-1.22 1.65-1.73 2.16-2.35 0 0-.84 2.94-1.8 3.76 0 0 .45.03.84-.12.4-.1 2.11-.62 2.6-.67.47-.03 1-.62 1.17-.74 0 0-.36 1.87-3.32 2.54-.42.12-1.37.03-1.88-.14-.3-.08-.65-.14-1.2-.25z" fill="#00276F"/><path d="M36.03 35.77l.54-2.68c.25-1.24 1.2-2.1 1.43-2.85 0 0 .06 3.13-1.24 4.8 0 0 .37 0 .62-.34a9.42 9.42 0 012.3-2.2c.6-.29 1.27-1.1 1.33-1.3-.03 0 .03 3.6-4.98 4.57z" fill="#00276F"/><path d="M38.62 32.58s0-1.3-.34-2.74c-.28-1.21.42-1.95.42-2.74 0 0 .99 2.6.26 4.58 0 0 .22-.26.36-.65a7.41 7.41 0 011.5-2 8.72 8.72 0 001.17-1.53s-.08.56-.36 1.47c-.11.3-.11 1.4-1.69 2.54-1.54 1.1-1.32 1.07-1.32 1.07z" fill="#00276F"/><path d="M42.1 23.75s.77 2.82-2.19 5.42c0 0-.05-1.16-.73-2.49-.28-.6-.25-1.64-.25-2.4 0 0 1.66 2.15 1.2 3.9 0 0 .04-.31.29-.7.25-.46.4-1.65 1.01-2.32.42-.48.6-1.16.62-1.36l.06-.05z" fill="#00276F"/><path d="M40.42 20s1.94 2.34.11 5.92c0 0-.64-1.13-1.66-2.23a11.2 11.2 0 01-.95-2.23s2.05 1.04 2.39 3.36c0 0-.03-.31.05-.76.12-.43-.14-1.58-.1-2.49-.04-.62.19-1.38.16-1.58z" fill="#00276F"/><path d="M38.34 17.8s2.05.92 1.46 4.82c0 0-.84-.88-1.94-1.61-.25-.17-.9-1.1-1.3-1.78 0-.03 2.2.96 2.82 2.46 0 0-.09-.37-.09-.8 0-.39-.25-1.07-.59-1.83-.2-.5-.3-1.1-.36-1.27z" fill="#00276F"/><path d="M35.98 17.09s2.25.9 2.95 3.44c0 0-2.78-1.75-2.95-3.39v-.05z" fill="#00276F"/><path fill-rule="evenodd" d="M27.99 17.66A8.95 8.95 0 0137 26.54a8.95 8.95 0 01-9.01 8.85A8.94 8.94 0 0119 26.54c0-4.9 4.04-8.88 8.99-8.88zm-.03 6.53c1.3 0 2.36 1.02 2.36 2.3a2.36 2.36 0 01-2.36 2.32 2.34 2.34 0 01-2.34-2.33c0-1.27 1.05-2.3 2.34-2.29zm.08-.03c.17-1.93.17-3.04-.14-4.87-.05-.3.2-.38.33-.16.33.5.91.44 1.16.2.22-.23.5-.2.27.16a20.17 20.17 0 00-1.23 4.7c-.09.14-.25.11-.39-.03zm-.08.03c-.28-1.9-.36-3.04-.17-4.87.03-.3-.22-.36-.35-.14-.3.53-.86.5-1.13.25-.22-.2-.5-.14-.25.2.74 1.6 1.02 2.6 1.49 4.61.1.12.3.06.4-.05zm-.88.2a18.01 18.01 0 00-2.8-4.02c-.22-.22-.06-.41.19-.3.55.25.99-.11 1.04-.47.09-.3.33-.42.33 0 .39 1.71.77 2.7 1.6 4.59-.03.11-.2.17-.36.2zm-.22-.03a17.88 17.88 0 01-2.78-4.04c-.13-.28-.35-.2-.35.08.02.6-.47.86-.83.8-.3-.05-.52.14-.1.3 1.48.95 2.27 1.67 3.76 3.1.19.03.27-.1.3-.24zm-.66.69a18.54 18.54 0 00-4.56-2.02c-.3-.11-.28-.33 0-.39.6-.05.8-.6.69-.91-.11-.3.02-.56.27-.17a21.34 21.34 0 003.8 3.15c.05.14-.12.25-.2.34zm-.14.08c-1.87-.58-3-1.02-4.61-2-.25-.16-.42.04-.25.26.33.47.05.97-.28 1.1-.3.11-.38.4.06.3 1.76.06 2.94.17 4.97.64.03-.13.17-.16.11-.3zm-.4.44a18.8 18.8 0 01-4.87-.72c-.3-.08-.42.14-.2.3.47.4.33.95.06 1.14-.28.2-.25.47.14.28 1.7-.42 2.8-.47 4.89-.58.16-.14.14-.28-.03-.42zm-.04.61c-1.92.44-3 .53-4.86.53-.33 0-.36.24-.08.36.55.24.55.8.35 1.07-.22.25-.13.53.2.23a20.9 20.9 0 014.4-1.86v-.33zm.09.89A15.97 15.97 0 0022.05 30c-.25.22-.44.08-.33-.17.2-.58-.2-.97-.55-1.02-.33-.03-.47-.28-.03-.3 1.7-.48 2.61-.84 4.46-1.78l.1.34zm.05.24a17.48 17.48 0 01-3.93 2.96c-.27.17-.16.4.11.36.6-.05.9.42.85.78-.02.3.17.5.3.08a20.03 20.03 0 012.95-3.87l-.28-.3zm.44.5a18.25 18.25 0 01-3.02 3.87c-.22.23-.09.42.19.3.55-.19.99.17 1.02.53.05.3.3.45.33 0 .46-1.68.88-2.65 1.81-4.48l-.33-.22zm2.78-3.48a16.9 16.9 0 012.52-4.2c.2-.26 0-.42-.24-.31-.53.28-1-.06-1.08-.39-.08-.3-.35-.38-.32.03a20.78 20.78 0 01-1.24 4.67c0 .17.16.28.36.2zm.22.05a16.62 16.62 0 002.41-4.28c.11-.28.36-.23.36.05.03.61.55.83.9.72.31-.08.53.11.15.3a20 20 0 00-3.47 3.4c-.24.17-.35-.08-.35-.19zm.55.8a19.12 19.12 0 014.36-2.35c.28-.1.22-.33-.05-.36a.74.74 0 01-.74-.88c.1-.3-.09-.53-.28-.14a21.68 21.68 0 01-3.49 3.4l.2.34zm.21 0a18.3 18.3 0 004.37-2.29c.25-.17.42 0 .28.22-.3.53.03 1 .36 1.1.3.09.38.37-.06.31-1.76.17-2.8.44-4.78 1.02l-.16-.35zm.33.83c1.96-.1 3.11-.08 4.95.25.3.06.39-.16.17-.3-.5-.36-.42-.91-.17-1.13.25-.23.2-.5-.16-.28-1.68.58-2.72.77-4.79 1.08V26zm.14.34c1.95.25 3.08.3 4.95.13.33-.02.38.2.14.34-.53.3-.5.85-.25 1.1.22.25.16.53-.2.25-1.61-.72-2.66-1-4.67-1.44l.03-.38zm-.27 1c1.73.88 2.69 1.46 4.15 2.67.22.2.4.03.27-.22a.74.74 0 01.47-1.05c.3-.05.41-.33-.03-.3A21.76 21.76 0 0130.35 27l-.2.33zm-.06.07a17.92 17.92 0 004.15 2.66c.28.14.2.36-.08.36a.73.73 0 00-.8.83c.09.3-.1.5-.3.11a21.3 21.3 0 00-3.21-3.65l.24-.3zm-.77.97a17.86 17.86 0 012.5 4.2c.14.28.36.23.36-.05.03-.58.55-.83.88-.75.33.09.55-.1.14-.27a22.01 22.01 0 01-3.55-3.35l-.33.22zm-.52.3c.74 1.8 1.07 2.86 1.35 4.7.05.31.27.31.35.04a.74.74 0 011.05-.5c.27.14.52.03.2-.25a20.27 20.27 0 01-2.56-4.12l-.39.14zm-.58.06c.22 1.94.25 3.04.03 4.9-.03.3.2.36.33.14.33-.53.9-.47 1.16-.23.21.23.49.17.24-.19-.68-1.6-.93-2.63-1.34-4.64l-.42.02zm-.33.03c-.05 1.94 0 3.04.39 4.87.08.3-.17.36-.33.16-.36-.5-.9-.38-1.13-.13-.22.24-.5.22-.3-.17.58-1.66.74-2.68.99-4.73h.38zm-1.15-.39a16.73 16.73 0 01-2 4.46c-.14.27.05.41.27.27.5-.33.99-.08 1.13.25.1.3.38.36.3-.05.05-1.75.22-2.8.68-4.79l-.38-.14z" fill="#00276F"/><path d="M28.07 24.05a2.43 2.43 0 012.46 2.4c0 1.3-1.1 2.39-2.46 2.39a2.4 2.4 0 01-2.42-2.38 2.4 2.4 0 012.42-2.4zM22.7 44.97l1.21.3-.1.35.72.2.2-.74-.93-.23c-.76-.2-.98-.48-.84-1.1l.14-.48c.17-.65.48-.79 1.26-.62l2.06.51-.28 1.1-1.13-.28.09-.31-.74-.2-.16.68.92.25c.73.17 1.02.48.88 1l-.17.72c-.09.32-.23.46-.5.54-.2.06-.4.06-.8-.03l-2.1-.53.28-1.13zm7.63 1.95l-2.14.08c-.42 0-.65-.03-.85-.17-.2-.14-.28-.31-.28-.6l-.08-2.08c0-.4.06-.56.25-.73.2-.15.45-.2.82-.23l2.1-.08.03 1.2-1.12.07v-.43l-.79.03.09 2.2.78-.03-.02-.59 1.15-.06.06 1.42zm1.15-1.08l.34-.08-.62-2.12-.34.09-.23-.77 1.89-.53.22.79-.28.05.62 2.12.28-.08.23.79-1.89.5-.22-.76zM19.7 14.49c-1.18.28-1.77.45-2.96.99-.47-.48-.7-.74-1.15-1.22-.11.12-.17.15-.28.26-.11-.09-.14-.14-.25-.26a16.03 16.03 0 013.2-2.48c.06.11.12.17.17.28-.22.17-.34.23-.59.4l.76 1.07c.03.03.03.06 0 .09 0 .02 0 .05-.03.08 0 .08-.05.17-.11.23-.25.05-.4.1-.65.2V14c-.03-.03-.03-.06-.05-.11l-.06-.06c-.25-.34-.36-.5-.62-.82-.3.23-.48.34-.76.6.4.48.62.7 1.02 1.18.84-.34 1.29-.45 2.13-.65.09.14.11.23.23.34z" fill="#00276F"/><path d="M23.01 12.68c-.47.17-.73.29-1.18.48-.2-.4-.28-.59-.47-1.01-.26.11-.4.2-.68.3-.06-.13-.11-.22-.2-.36.29-.14.43-.22.7-.34l-.41-.9c-.34.14-.51.23-.85.4l.34.67c.03.03.03.06.03.12 0 .05-.06.1-.12.2l-.14.13a.67.67 0 01-.16.2l-.17.17c.08-.03.14-.03.2-.06.05 0 .1 0 .16-.02h.17c.14 0 .23.02.25.08.09.14.12.2.17.31.03.06.06.09.12.11.02 0 .1.03.2 0l.1-.02.15-.06c.05.11.08.17.16.28-.25.14-.39.2-.61.31l-.29.14c-.08.03-.16.06-.25.06-.08 0-.14-.03-.2-.03a.4.4 0 00-.08-.11c-.11-.17-.14-.26-.25-.42l-.06-.06c-.03 0-.08-.03-.14-.06-.03 0-.11 0-.2.03 0 .03-.02.03-.05.06h-.03l-.23-.31.09-.06c.05-.03.08-.06.08-.08a.49.49 0 00.17-.17c.06-.06.06-.14.03-.26l-.06-.11c-.1-.23-.2-.31-.3-.54-.29.17-.43.23-.68.4l-.2-.28a16.05 16.05 0 014.22-2c.06.13.06.19.11.33-.28.09-.42.14-.7.26.3.81.48 1.2.79 2.03l.36-.14c.03.14.06.22.11.33zm4.99-.9c-.51 0-.77.03-1.27.09-.06-.46-.09-.65-.12-1.1-.3.02-.45.05-.73.08-.03-.17-.05-.25-.05-.42l.73-.09c-.06-.4-.06-.59-.12-.99-.36.03-.53.06-.9.12.03.28.06.45.12.73 0 .06 0 .09-.03.11a.73.73 0 01-.14.17l-.2.09c-.05.05-.14.08-.2.14l-.22.08c.08 0 .14.03.2.03.05 0 .11 0 .17.03.05 0 .1.03.16.06.12.02.2.08.2.17l.06.3c.03.1.03.12.08.15.03.03.09.05.17.08h.11c.06 0 .12 0 .17-.03 0 .14.03.2.03.34-.25.03-.4.06-.65.12l-.3.02c-.09 0-.17 0-.26-.02l-.14-.09c-.03-.06-.06-.08-.08-.14l-.09-.45-.03-.09c-.02-.02-.08-.05-.1-.08-.07-.03-.12-.03-.2-.03h-.06c-.03 0-.03 0-.06.03a1.62 1.62 0 00-.11-.4c.06 0 .06-.02.11-.02.06 0 .09-.03.09-.03l.22-.14c.06-.03.09-.12.11-.2-.02-.06-.02-.09-.02-.14l-.15-.62-.75.2c-.03-.15-.03-.23-.09-.34a16.7 16.7 0 014.56-.6v.34c-.28 0-.43 0-.73.03.05.85.08 1.3.1 2.17.15 0 .23 0 .37-.03 0 .15 0 .23.03.37z" fill="#00276F"/><path d="M29.85 11.84c-.5-.06-.76-.06-1.27-.06.03-1.01.03-1.52.03-2.54h-.53V8.9h.61c-.02-.05-.05-.05-.08-.11-.06-.08-.11-.17-.17-.23a1.09 1.09 0 00-.28-.22l-.17-.06h-.36a.32.32 0 00-.23.09c-.08.02-.11.1-.11.2 0 .08.03.1.03.14 0 .05 0 .08.05.08l-.78.06c-.06-.03-.15-.06-.2-.12a.6.6 0 01-.14-.22c0-.12.08-.23.25-.31.2-.09.42-.14.73-.17.37-.03.54-.03.87-.03a1.765 1.765 0 011.07.37c.11.08.23.22.34.4.06.05.06.08.08.16l.85.06-.06.36c-.28-.02-.42-.05-.73-.05l-.14 2.14c.14.03.22.03.37.03-.03.14-.03.23-.03.37zm4.41-1.16c-.03.11-.14.17-.3.2h-.2a.63.63 0 01-.2.03c-.06 0-.09 0-.14-.03.03.03.05.03.11.05.03 0 .08.03.11.06.06.06.14.11.23.17.05.06.11.14.11.2v.11l-.28.82c0 .03-.03.06-.06.08-.02.03-.05.06-.08.06-.14.03-.31.06-.5 0-.43-.11-.63-.17-1.08-.25-.05-.03-.1-.06-.14-.06a.44.44 0 01-.22-.17c-.03-.03-.09-.06-.09-.11l-.02-.12c.05-.25.08-.36.1-.62.32.09.49.12.77.17l-.09.4c-.02.17.06.25.28.3.06.04.15.04.2-.02.09-.03.11-.06.14-.11l.14-.54a.31.31 0 000-.22c-.03-.06-.05-.12-.14-.15-.03-.02-.05-.02-.08-.02-.06-.03-.06-.03-.11-.03-.15-.06-.23-.06-.37-.09.03-.14.06-.2.08-.33.14.02.2.02.31.05.09.03.14.03.2.06.08 0 .11 0 .17-.03.11 0 .2-.08.2-.17.05-.14.08-.2.1-.34.04-.05 0-.11-.05-.17a.51.51 0 00-.2-.14c-.1-.03-.2-.03-.25 0-.08.03-.11.09-.14.14v.09c-.34-.09-.5-.14-.84-.2.03-.09.03-.14.05-.25.03-.06.03-.09.09-.12.03-.03.08-.05.14-.08.06-.03.14-.03.25-.03.09.03.14.03.23.03.5.11.73.17 1.2.3.12.04.2.1.29.15.05.03.14.08.22.17 0 .06.03.06.03.11.03.03.03.06.03.09-.09.25-.11.36-.2.56zm1.18 2.65c-.45-.2-.7-.3-1.18-.48.2-.5.31-.76.5-1.27-.22-.08-.3-.1-.53-.2l.14-.33c.2.05.31.11.54.2.11-.32.17-.46.3-.77l-.36-.14c.06-.11.09-.2.11-.3.85.27 1.27.47 2.06.87-.06.1-.09.17-.14.3l-.7-.33-.9 1.97c.1.09.2.12.33.17-.08.12-.11.2-.17.31z" fill="#00276F"/><path d="M37.1 14.26c-.42-.28-.65-.39-1.1-.64.48-.9.7-1.33 1.21-2.23-.2-.12-.3-.14-.47-.26l.14-.3c.87.42 1.29.64 2.08 1.18l-.2.28-.62-.4L37 13.76c.11.08.2.1.3.2-.08.1-.1.16-.19.3z" fill="#00276F"/><path d="M41.38 14.35l-.48-.42c-.2.22-.31.33-.5.56-.26-.23-.4-.34-.66-.54 0-.05 0-.1-.02-.14a.38.38 0 00-.14-.17l-.23-.1c-.08-.04-.14 0-.17.02-.03.06-.05.06-.08.11-.03.06-.03.14 0 .23 0 .03.03.08.08.11.06.09.11.09.17.17.14.11.23.14.37.28.05.06.08.09.17.14l.16.23c.03.11.03.2-.02.28l-.29.28c-.05.06-.1.09-.14.12-.05.02-.1.02-.2 0-.05 0-.13-.06-.22-.09-.11-.08-.17-.11-.25-.2a.784.784 0 01-.2-.14l.23.82-.76-.42v-.14c0-.06 0-.17-.03-.31-.06-.23-.08-.37-.11-.43a.68.68 0 00-.28-.28l-.06-.06c-.06 0-.06-.02-.08-.02l.22-.34c.11.11.14.17.25.3l.17.18c.06.05.11.11.2.17.34.25.53.34.62.22l.11-.11c.03-.06.03-.11 0-.2a.66.66 0 00-.2-.22l-.39-.29a1.03 1.03 0 00-.2-.17.363.363 0 01-.11-.16c-.03-.06-.06-.12-.06-.17 0-.06 0-.12.03-.17.11-.14.14-.23.26-.37.05-.08.14-.11.28-.11.05.03.14.03.2.08.1.06.13.11.25.17l.67.5c.09-.1.14-.13.23-.24-.6-.48-.9-.71-1.52-1.1l.2-.29c1.18.76 1.74 1.19 2.78 2.18l-.26.25zm.92-.57c-.03-.05-.05-.05-.1-.1a.443.443 0 00-.1-.12 1.75 1.75 0 00-.47-.28c-.06 0-.14-.03-.23 0-.05 0-.1.05-.17.08-.02.06-.05.09-.08.14 0 .03-.03.09 0 .17-.28-.22-.4-.34-.67-.56 0-.09 0-.12.02-.17.03-.09.06-.11.09-.17a.75.75 0 01.17-.14c.08-.03.17-.03.3-.03a1 1 0 01.46.17c.16.08.33.22.47.34l.51.48-.2.2z" fill="#00276F"/></svg>