<!-- by TradingView --><svg xmlns="http://www.w3.org/2000/svg" width="56" height="56"><path fill="#F0F3FA" d="M0 0h56v56H0z"/><path d="M31.26 17.97l1.38-1.14L28 10l-4.41 6.49.94 1.79 3.47-5.1 3.26 4.8z" fill="#7EA4CB"/><path d="M28 22l-6-8.83L16 22h2.16L22 16.35 25.84 22H28zm12 0l-6-8.83L28 22h2.16L34 16.35 37.84 22H40z" fill="#034A99"/><path fill-rule="evenodd" d="M23.81 24c1.26 0 3.28.5 3.2 3.98-.11 4.05-2.38 4.03-3.11 4.02h-.09c-.75 0-3.24-.04-3.24-4.02 0-3.82 2.47-3.98 3.24-3.98zm-.01 1.42c.62 0 1.61.32 1.57 2.57-.05 2.61-1.17 2.6-1.53 2.6h-.04c-.39 0-1.6-.03-1.6-2.6 0-2.47 1.22-2.57 1.6-2.57zM8 26c.11-2.5 3.52-2.15 5.2-1.67l-.14 1.22c-3.06-.36-3.5 0-3.5.61 0 .54 1 .92 1.53 1.07 2.06.5 2.28 1.69 2.25 2.41-.12 2.84-3.56 2.52-5.26 2l.15-1.24c3.25.47 3.53-.09 3.53-.76 0-.58-.9-.88-1.56-1.05-2.08-.53-2.23-1.86-2.2-2.6zm34.7 0c.11-2.5 3.49-2.15 5.16-1.67l-.15 1.22c-3.02-.36-3.45 0-3.45.61 0 .54.97.92 1.5 1.07 2.05.5 2.27 1.69 2.24 2.41-.12 2.84-3.53 2.52-5.22 2l.15-1.24c3.22.47 3.5-.09 3.5-.76 0-.58-.89-.88-1.55-1.05-2.06-.53-2.2-1.86-2.17-2.6zm-23.07-1.74c-1-.24-3.2-.51-4.12.12-1.08.75-1.1 2.26-1.12 3.41v.14c-.03 1.16.17 3.06 1.12 3.62.97.58 2.16.54 4.12.15v-1.33c-.72.16-2.32.38-2.94 0-.7-.44-.73-1.8-.7-2.44-.01-.7 0-2.1.7-2.39.7-.3 2.2-.1 2.94 0v-1.28zM18.25 36.5c.05-2.18-1.2-2.49-1.98-2.49-.49 0-2.02.1-2.02 2.49 0 2.49 1.55 2.5 2.02 2.5h.05c.45.01 1.86.03 1.93-2.5zm-1 0c.02-1.4-.6-1.6-1-1.6-.24 0-1 .06-1 1.6 0 1.6.76 1.62 1 1.62h.03c.23 0 .93.02.97-1.62zM28.39 24h2.85a2.83 2.83 0 110 5.67H30V32h-1.61v-8zM30 25.4h1.02a1.43 1.43 0 010 2.86H30v-2.85zM20.74 34H19v5h1v-1.46h.74a1.77 1.77 0 000-3.54zm-.1.88H20v1.78h.64a.9.9 0 000-1.78zM35.09 34H33v5h1v-1.64h1.01l.6 1.61h1.1l-.7-1.89A1.68 1.68 0 0035.1 34zm-.21.83H34v1.7h.88a.85.85 0 100-1.7zM27 34h-1v2h-2v-2h-1v5h1v-2.19h2V39h1v-5zm10-10h-1.6v4.9a3.1 3.1 0 106.2 0V24H40v5.24a1.5 1.5 0 11-3 0V24zM10.26 34H8v5h2.26a1.35 1.35 0 00.55-2.59 1.27 1.27 0 00-.55-2.41zm-.31.85H9v1.23h.95a.61.61 0 100-1.23zM10 36.9H9v1.22h1a.61.61 0 100-1.22zm2.5-2.9h1v5h-1v-5zm16.63 0L28 39h1.07l.24-1h1.57l.27 1h1.05l-1.16-5h-1.9zm.27 3.2l.5-2.35h.33l.52 2.34H29.4zM43.8 39l1.13-5h1.9L48 39h-1.05l-.27-1H45.1l-.23 1H43.8zm1.9-4.15l-.5 2.34h1.35l-.53-2.34h-.32zm-7-.85h-1.02v5h1.01v-3.86h.14l1 3.61h1.03l1.02-3.6H42V39h1v-5h-1.78l-.86 3.56-.91-3.56h-.76z" fill="#034A99"/></svg>