<!-- by TradingView --><svg width="56" height="56" xmlns="http://www.w3.org/2000/svg"><path fill="#646766" d="M0 0h56v56H0z"/><path d="M4 29c-.024 2.112 1.752 2.976 3.648 2.976 2.328 0 3.564-1.176 3.564-2.748 0-1.944-1.92-2.34-2.544-2.496-2.148-.552-2.556-.636-2.556-1.296 0-.72.696-.972 1.296-.972.9 0 1.632.264 1.692 1.296h1.824c0-1.98-1.644-2.76-3.432-2.76-1.548 0-3.204.84-3.204 2.592 0 1.608 1.284 2.1 2.556 2.436 1.26.336 2.544.492 2.544 1.416 0 .876-1.008 1.068-1.668 1.068-1.008 0-1.896-.372-1.896-1.512H4z" fill="#fff"/><path d="M13.413 23.708H11.71v1.86H9.1v1.14h2.61v3.816c0 1.236.911 1.476 1.955 1.476.336 0 .708-.012.996-.06v-1.332a2.62 2.62 0 01-.528.048c-.576 0-.72-.144-.72-.72v-3.228H14.5v-1.14h-1.087v-1.86z" fill="#fff"/><path d="M20.632 29c.12-1.908-.9-3.6-3.012-3.6-1.884 0-3.168 1.416-3.168 3.276 0 1.92 1.212 3.432 3.168 3.432 1.404 0 2.444-.644 2.924-2.108h-1.5c-.108.384-.68.824-1.364.824-.948 0-1.476-.744-1.524-1.824h4.476zm-4.476-.996c.024-.48.336-1.32 1.416-1.32.828 0 1.2.456 1.356 1.32h-2.772z" fill="#fff"/><path d="M26.623 29c.12-1.908-.9-3.6-3.012-3.6-1.884 0-3.168 1.416-3.168 3.276 0 1.92 1.212 3.432 3.168 3.432 1.404 0 2.424-.644 2.904-2.108h-1.5c-.108.384-.66.824-1.344.824-.948 0-1.476-.744-1.524-1.824h4.476zm-4.476-.996c.024-.48.336-1.32 1.416-1.32.828 0 1.2.456 1.356 1.32h-2.772z" fill="#fff"/><path d="M26.601 32h1.704v-9h-1.704v9z" fill="#fff"/><path d="M34.339 27.752c-.108-1.584-1.452-2.352-2.916-2.352-2.016 0-3.168 1.428-3.168 3.36 0 1.86 1.284 3.348 3.156 3.348 1.632 0 2.772-.9 2.988-2.544h-1.644c-.108.756-.564 1.26-1.356 1.26-1.068 0-1.44-1.236-1.44-2.124 0-.912.36-2.016 1.452-2.016.708 0 1.152.372 1.26 1.068h1.668z" fill="#fff"/><path d="M38.204 29.54c0 .372-.048 1.428-1.38 1.428-.552 0-1.044-.156-1.044-.792 0-.624.48-.804 1.008-.912.528-.096 1.128-.108 1.416-.36v.636zm-2.194-2.064c.06-.672.48-.936 1.128-.936.6 0 1.104.108 1.104.84 0 .696-1.01.828-2.054.984-1.056.144-2.112.48-2.112 1.884 0 1.272.936 1.86 2.112 1.86.756 0 1.548-.204 2.088-.768.012.204.12.468.18.66h1.516s-.178-.649-.178-1.213l.152-3.623c0-1.488-1.488-1.764-2.724-1.764-1.392 0-2.82.48-2.916 2.076h1.704z" fill="#fff"/><path d="M39.714 29.984c.072 1.644 1.476 2.184 2.916 2.184 1.416 0 2.832-.528 2.832-2.16 0-1.152-.858-1.74-1.854-1.968-.972-.228-1.932-.312-1.932-.924 0-.504.564-.576.948-.576.612 0 1.116.18 1.164.84h1.62c-.132-1.524-1.38-1.98-2.736-1.98-1.332 0-2.7.408-2.7 1.992 0 1.092.984 1.44 1.968 1.656 1.11.492 1.818.672 1.818 1.188 0 .6-.624.792-1.116.792-.672 0-1.296-.3-1.308-1.044h-1.62z" fill="#fff"/><path d="M51.553 29c.12-1.908-.9-3.6-3.011-3.6-1.885 0-3.169 1.416-3.169 3.276 0 1.92 1.213 3.492 3.169 3.492 1.404 0 2.423-.624 2.904-2.088h-1.5c-.108.384-.66.804-1.344.804-.948 0-1.476-.804-1.524-1.884h4.475zm-4.475-.996c.023-.48.335-1.32 1.415-1.32.828 0 1.2.456 1.356 1.32h-2.771z" fill="#fff"/></svg>