<!-- by TradingView --><svg width="56" height="56" xmlns="http://www.w3.org/2000/svg"><path fill="#5700FF" d="M0 0h56v56H0z"/><path d="M8.375 29.435c-3.184-.856-3.184-2.462-3.184-3.434C5.191 24.442 7.096 23 9.32 23c2.122 0 4.33.925 4.356 3.498h-2.972c0-.793-.7-.925-1.199-.925-.679 0-1.135.317-1.109.793 0 .317.297.634.929.792l1.793.476c2.563.697 2.882 2.393 2.882 3.07C14 32.937 11.644 34 9.42 34 7.197 34 5.021 32.71 5 30.365h2.95a1.495 1.495 0 001.565 1.22c.701 0 1.296-.338 1.296-.882 0-.449-.27-.703-1.062-.903l-1.374-.365zM35.021 34H32V23h3l.021 11zM37 18h3v16h-3V18zm-19 5.87h-3V34h3v-6.25a1.5 1.5 0 013 0V34h3v-6.25a1.5 1.5 0 013 0V34h3v-7.75c0-1.795-1.455-2.88-3.25-2.88-2.25 0-3.25 2.13-3.25 2.13-.413-1.32-1.794-2.13-3.25-2.13-.873 0-1.666.345-2.25.905v-.405zM35.5 20a2 2 0 11-4 0 2 2 0 014 0z" fill="#fff"/><path fill-rule="evenodd" d="M51.576 30a5.35 5.35 0 10-1.036 2.177l-1.843-1.58c-.404.45-1.197 1.003-2.197 1.003-1.451 0-2.5-1.1-2.5-1.6h7.576zM46.3 26c-1.5 0-2.3 1.5-2.3 2h4.7c0-.5-.802-2-2.4-2z" fill="#fff"/></svg>