<!-- by TradingView --><svg width="56" height="56" xmlns="http://www.w3.org/2000/svg"><path fill="#F0F3FA" d="M0 0h56v56H0z"/><path d="M48 32.741l-.005-.002v.001S34.955 29.798 16.154 36c0 0 1.87-1.868 7.508-4.915.36-.193.714-.396 1.063-.608-4.955.236-10.572.9-16.724 2.256 0 0 2.538-2.085 9.9-5.155 7.632-3.183 4.194-4.687 1.723-6.523-2.47-1.836 8.74-2.964 28.377 11.686z" fill="url(#paint0_linear)"/><path d="M24.566 25.75c1.958 1.177 4.564 2.055.164 4.73 14.305-.681 23.088 2.2 23.27 2.261-16.691-10.065-25.534-8.251-23.434-6.99z" fill="url(#paint1_linear)"/><defs><linearGradient id="paint0_linear" x1="31.373" y1="24.395" x2="14.199" y2="33.043" gradientUnits="userSpaceOnUse"><stop stop-color="#00BEE1"/><stop offset="1" stop-color="#001D43"/></linearGradient><linearGradient id="paint1_linear" x1="37.367" y1="23.243" x2="25.611" y2="30.737" gradientUnits="userSpaceOnUse"><stop stop-color="#FFD900"/><stop offset="1" stop-color="#F7901E"/></linearGradient></defs></svg>