<!-- by TradingView --><svg width="56" height="56" xmlns="http://www.w3.org/2000/svg"><path fill="#312B91" d="M0 0h56v56H0z"/><path d="M7.744 25v2h-.167c-.056-.404-.149-.66-.278-.88a1.6 1.6 0 00-.594-.57 1.695 1.695 0 00-.778-.201c-.316 0-.557.092-.76.276a.84.84 0 00-.298.642c0 .184.056.35.186.496.185.22.573.445 1.26.794.556.313.946.386 1.15.551.195.154.394.346.505.566.11.202.166.441.166.68 0 .441-.166.827-.519 1.157-.352.33-.922.492-1.46.492-.168 0-.281-.018-.446-.055-.092 0-.278-.056-.556-.147-.297-.092-.464-.147-.556-.147-.074 0-.13.018-.167.073-.037.037-.074.126-.093.273h-.175l-.008-2h.175c.074.423.193.699.323.92.14.22.34.397.575.513.274.146.58.222.89.22.353 0 .7-.087.923-.289a.907.907 0 00.315-.68.807.807 0 00-.13-.44 1.295 1.295 0 00-.37-.423c-.112-.091-.411-.199-.93-.474-.501-.294-.835-.425-1.058-.59-.204-.184-.427-.314-.538-.516a1.368 1.368 0 01-.167-.68c0-.422.167-.79.5-1.102.316-.312.743-.459 1.243-.459.316 0 .668.073 1.02.239.167.073.278.11.353.11.074 0 .13-.037.185-.074.038-.036.075-.146.112-.275h.167zm2.76.35v2.35l1.543.003c.334 0 .557-.055.686-.147.149-.147.223-.226.242-.557h.182v1.821h-.182c-.038-.293-.075-.382-.112-.474a.65.65 0 00-.26-.239 1.448 1.448 0 00-.556-.092l-1.544-.003v1.966c0 .275.019.422.038.477.018.056.055.11.11.147.075.037.186.037.353.037h1.002c.334 0 .593-.018.742-.055a1.47 1.47 0 00.445-.276c.167-.183.353-.459.556-.826h.167L13.397 31h-4.6v-.195h.223c.13 0 .26-.036.39-.091.092-.056.142-.111.16-.203.038-.092.025-.587.025-.587v-3.851s0-.63-.08-.723c-.112-.128-.254-.165-.495-.165h-.223V25h4.6l.074 1.324h-.167c-.075-.313-.13-.515-.204-.643a.68.68 0 00-.334-.257c-.13-.055-.334-.074-.63-.074h-1.633zM18.255 29h-2.319l-.408.924c-.092.22-.148.404-.148.514 0 .092.056.165.13.239.093.073.35.11.646.128V31h-2v-.195c.26-.037.445-.092.52-.165.147-.147.314-.423.5-.863L17.157 25h.17l2.19 4.832c.166.404.315.661.445.79.148.11.334.183.575.183V31h-2.38v-.195c.241 0 .432-.037.507-.11.092-.073.13-.147.13-.239 0-.128-.056-.349-.167-.624L18.256 29zm-.099-.344l-1-2.655-1.071 2.655h2.071zm6.664-.716c.408.092.723.22.927.423.278.257.41.587.41.992 0 .293-.076.569-.28.845-.186.275-.445.459-.76.587-.334.129-.835.213-1.503.213h-2.819v-.194h.223c.24 0 .366-.093.477-.258.074-.091.06-.615.06-.615v-3.859c0-.367-.012-.625-.086-.717-.13-.129-.229-.172-.451-.172h-.223V25h2.578c.482 0 .872.056 1.169.13.426.11.76.294 1.001.57.223.256.352.569.352.918.002.292-.096.577-.278.808-.185.22-.445.404-.797.514zm-2.318 2.608c.328.072.664.11 1 .11.539 0 .947-.11 1.225-.349.278-.238.426-.532.426-.881 0-.239-.074-.46-.203-.68-.112-.202-.334-.367-.612-.496-.279-.128-.63-.184-1.057-.184h-.464c-.13.019-.241.019-.316.037v2.443zm0-2.847c.11.018.24.037.37.055h.464c.427 0 .742-.037.965-.128a1.04 1.04 0 00.5-.423 1.26 1.26 0 00.167-.624c0-.35-.148-.643-.426-.9-.279-.24-.705-.368-1.243-.368-.297 0-.556.037-.797.11v2.278zM37.766 29h-2.319l-.408.924c-.092.22-.148.404-.148.514 0 .092.037.165.13.239.092.073.278.11.556.128V31h-1.873v-.195c.24-.037.408-.092.483-.165.148-.147.315-.423.5-.863L36.783 25h.167l2.077 4.832c.166.404.315.661.445.79.148.11.334.183.575.183V31H37.69v-.195c.241 0 .39-.037.482-.11.074-.073.13-.147.13-.239 0-.128-.056-.349-.185-.624L37.766 29zm-.13-.344l-.9-2.656-1.159 2.656h2.059zM46.148 31h-1.594l-2.022-2.75h-.53v1.674s0 .643.03.698c.11.128.277.183.5.183h.24V31h-2.615v-.195h.279c.26 0 .426-.073.538-.238.026-.07.026-.643.026-.643v-3.84s.01-.642-.045-.697a.701.701 0 00-.519-.202h-.279V25h2.226c.631 0 1.113.075 1.41.166.296.092.556.258.76.515.223.238.316.532.316.881 0 .368-.112.68-.353.955-.241.258-.612.46-1.112.57l1.223 1.69c.297.404.538.661.742.79.204.128.464.202.78.238V31zm-4.146-3.004h.159c.575 0 1.002-.203 1.28-.442.296-.238.445-.55.445-.936 0-.368-.13-.68-.352-.9-.241-.239-.538-.35-.928-.35-.167 0-.326.005-.604.06v2.568zM46.148 31v-.195h.223c.24 0 .426-.073.538-.238.055-.092.092-.312.092-.643v-3.84c0-.385-.037-.605-.13-.697-.11-.129-.278-.202-.5-.202h-.214V25h2.42c.891 0 1.559.13 2.023.332a2.31 2.31 0 011.13 1.01c.28.46.427 1.033.427 1.658 0 .827-.26 1.483-.76 2.053-.556.606-1.428.947-2.578.947h-2.67zM48 30.567c.37.073.522.092.782.092a2.32 2.32 0 001.706-.698c.445-.478.668-1.153.668-1.961 0-.827-.223-1.456-.668-1.934-.464-.477-1.039-.698-1.744-.698-.26 0-.41 0-.744.074v5.125z" fill="#fff"/><ellipse cx="30.538" cy="27.48" rx="3.792" ry="3.828" fill="#fff"/><path d="M26.646 27.494a3.83 3.83 0 011.126-2.717 3.829 3.829 0 012.716-1.125 3.83 3.83 0 012.717 1.125 3.828 3.828 0 011.125 2.717 3.83 3.83 0 01-1.125 2.716 3.83 3.83 0 01-2.717 1.126 3.83 3.83 0 01-2.716-1.126 3.83 3.83 0 01-1.125-2.716zm1.25-2.593a3.658 3.658 0 00-1.075 2.593c0 1.013.41 1.93 1.074 2.593a3.656 3.656 0 002.593 1.074c1.013 0 1.93-.41 2.594-1.074a3.655 3.655 0 001.073-2.593 3.656 3.656 0 00-1.073-2.593 3.657 3.657 0 00-2.594-1.074c-1.012 0-1.93.41-2.593 1.074z" fill="#947732"/><path d="M32.498 28.74c.08.536.25.577.055 1.095l-.346.693.11.208.804-.582.748-1.108.25-.582c-.356.76-.318.304-.692-.07-.06-.06-.375-.263-.444-.263l-.485.61zm-3.26-4.252c.061.36.769-.272.587 0-.189.281.309.379 0 .554-.278.158-.43.394-.588.706 0 0-.067.328-.4.534-.238.147-.427-.028-.62.128-.039.032-.073 1.523-.16 1.372-.048-.085-1.138.243-1.156.405a.402.402 0 01-.069.194l-.07-1.385.25-.873.61-1.08.595-.555c.715-.383.205.13 1.02 0z" fill="#927732"/><path d="M29.348 30.447c.069.083.756-.365.756-.365s.84-.357.738-.663c0-.152.124-.186 0-.269-.125-.083-.655-.66-.738-.729 0 0-.357.11-.592.112-.424.003-1.467-.977-1.48-.88-.015.097.873.768.873.768s.028.417 0 .57c-.027.152.607.428.607.428l-.164.536S29 31 29.153 30.889c.153-.111.195-.442.195-.442zm2.327-3.549a.307.307 0 00.019.11s.578.18.578.264c-.07-.07.055.069 0 0 .069.069.364.305.364.388 0 .083-.139.47-.139.47l.084.098.912.932s.373-.18.429-.348c.047-.144.222-.372.222-.372s-.083-.24 0-.31c.083-.068.053-.534.122-.548.07-.014-1.246-.573-1.246-.573l1.124-.197c.012.03-.044-.083 0 0l-2.469.086z" fill="#927732"/><path d="M34.104 26.745c.013-.219-.096-.554-.096-.554l-.499-.873-.125-.235a8.311 8.311 0 00-.887-.735c-.627-.357-1.09-.522-1.773-.568-.01.031-.028.049-.028.083 0 .225-.166.167-.166.24 0 .16.343 0 .343 0s.645-.545.802 0c.027.095.614.172.618.444l.445.361c-.003.16-.236.424-.24.585-.004.131.244.323.24.445-.005.146-.442.341-.445.46-.006.197-.621.429-.618.5 0 0 2.373.796 2.43-.153z" fill="#927732"/></svg>