<!-- by TradingView --><svg width="56" height="56" xmlns="http://www.w3.org/2000/svg"><path fill="#F0F3FA" d="M0 0h56v56H0z"/><path d="M19.061 15.262c-1.236.175-2.825 0-3.354 1.221-.354-.348-.53-.698-1.06-.523-.902.296-1.588.523-2.119 1.395-.176.175-.882-.174-1.236 0a3.007 3.007 0 01-1.765.524c0 .698-.353 1.22-1.06 1.57-.176.175.354.523.177.698-.53.349-.53.872-.353 1.396.177.348.883.348 1.413.348.353.175.176.524 0 .524-1.06-.524-1.766.348-2.119 1.047-.12.237.088.556.289.846-.232.043-.425.123-.504.279-.212.611.097.583.194.757.098.174.116.325.067.47-.019.058-.13.186-.13.186H20V15c-.399.067-.543.164-.94.262zM22.327 15.262c1.237.175 2.825 0 3.355 1.221.354-.348.53-.698 1.059-.523.903.296 1.589.523 2.12 1.395.175.175.882-.174 1.235 0 .53.35 1.059.524 1.765.524 0 .698.354 1.22 1.06 1.57.176.175-.354.523-.177.698.53.349.53.872.353 1.396-.176.348-.883.348-1.412.348-.354.175-.177.524 0 .524 1.06-.524 1.765.348 2.118 1.047.12.237-.088.556-.289.846.233.043.426.123.504.279.212.611.034.583-.064.757-.098.174-.116.325-.067.47.019.058.131.186.131.186H21V15c.398.067.93.164 1.327.262zM14.294 33.772c.353-.523.883-.697 1.059-1.045.707 1.568 2.296.173 3.531.173.177 0 .353.175.353.349-.176 1.57-1.235 5.107-2.825 5.63a10.04 10.04 0 01-.926.282l-.011.839H20V27H7.5c.224.27.528.915.528 1.296.06 0 .162.102.262.204-.235-.039-.47-.077-.705.039-.706.523-.706 1.57-.353 2.268.353.872 1.236-.175 1.942.349-.177.173-.353.523-.353.698.353.698.883.698 1.589 1.046 0 .175 0 .349.176.523.53.174 1.095.268 1.625.268.706.175 1.73.604 2.083.081z" fill="#006C68"/><path d="M23.515 35.56c-1.005 0-1.817-.348-2.05-.515-.141-.103-.154-.284-.154-.606 0-.052 0-.696.038-1.16 0-.051.013-.232.168-.232.116 0 .155.103.18.219.246 1.147 1.122 1.96 2.038 1.96.54 0 1.534-.387 1.534-1.431 0-1.006-.877-1.496-1.805-1.921-1.044-.465-2.063-.967-2.063-2.334 0-1.186.903-2.217 2.54-2.217.748 0 1.508.205 1.689.296.154.09.154.206.154 1.34 0 .285 0 .387-.18.387-.129 0-.18-.077-.31-.477-.154-.502-.386-1.237-1.456-1.237-1.058 0-1.405.735-1.405 1.237 0 .916.747 1.238 1.779 1.664.722.31 2.075.94 2.075 2.398 0 1.43-1.057 2.63-2.772 2.63zM29.733 31.417c.526 0 .832-.27.832-.588 0-.723-.832-.748-1.017-.748-1.103 0-1.483 1.006-1.483 1.201 0 .135.05.135.33.135h1.338zm-1.509.38c-.208 0-.318.012-.318.65 0 1.373.907 2.427 2.17 2.427.551 0 1.053-.209 1.348-.49.184-.184.196-.197.27-.197.085 0 .11.074.11.11 0 .185-.858 1.264-2.415 1.264-1.618 0-2.844-1.067-2.844-2.77 0-1.815 1.373-2.992 3.04-2.992 1.851 0 2.243 1.36 2.243 1.778 0 .22-.134.22-.33.22h-3.274z" fill="#5F6062"/><path d="M32.527 28.76c0-.415 0-.886-.442-.927-.22-.028-.281-.028-.281-.18 0-.125.036-.139.392-.236.319-.083.834-.29 1.054-.415.294-.167.319-.18.38-.18.135 0 .135.152.135.29 0 .18-.05 1.04-.05 1.191v5.777c0 .776 0 .929.528 1.012.306.041.367.11.367.235 0 .167-.121.167-.207.167-.332 0-.576-.056-1.287-.056-.81 0-.957.056-1.215.056-.146 0-.269 0-.269-.18 0-.126.098-.18.368-.222.527-.083.527-.236.527-.998v-5.333z" fill="#5F6062"/><path d="M37.41 31.417c.506 0 .8-.27.8-.588 0-.723-.8-.748-.977-.748-1.058 0-1.423 1.006-1.423 1.201 0 .135.047.135.317.135h1.283zm-1.448.38c-.2 0-.306.012-.306.65 0 1.373.872 2.427 2.083 2.427.53 0 1.013-.209 1.295-.49.176-.184.188-.197.259-.197.082 0 .106.074.106.11 0 .185-.824 1.264-2.319 1.264-1.553 0-2.73-1.067-2.73-2.77 0-1.815 1.318-2.992 2.919-2.992 1.777 0 2.154 1.36 2.154 1.778 0 .22-.13.22-.319.22h-3.142zM43.025 34.91c.565 0 1.083-.245 1.302-.44.023-.013.08-.062.127-.062.046 0 .104.05.104.123 0 .246-.865 1.03-2.098 1.03-1.313 0-2.868-.822-2.868-2.722 0-1.974 1.705-3.04 3.133-3.04.185 0 1.775.098 1.775.81 0 .17-.058.858-.346.858-.196 0-.334-.197-.714-.736-.357-.503-.576-.662-.899-.662-.507 0-1.682.613-1.682 2.525 0 1.336 1.083 2.317 2.166 2.317M46.714 33.759c0 .551.074 1.115.711 1.115.184 0 .355-.037.784-.306a.303.303 0 01.135-.05c.061 0 .098.062.098.11 0 .185-.784.933-1.68.933-.636 0-1.238-.417-1.238-1.337v-3.518c0-.16-.097-.233-.281-.22-.098 0-.184.012-.282.012-.062 0-.209 0-.209-.135 0-.122.135-.196.184-.22l.331-.172c.295-.147.674-.478 1.08-1.104.048-.061.122-.146.207-.146.037 0 .16 0 .16.196v.833c0 .233.049.282.307.282h.698c.172 0 .258-.024.367-.024.099 0 .185.024.16.245-.024.22-.061.257-.22.257-.209 0-.491-.024-1.08-.024-.208 0-.232.024-.232.281v2.992zM26.596 40.248l-.216-.019c-.225-.023-.23-.112-.246-.376l-.003-.042c-.039-.654-.05-1.437-.06-2.065a42.911 42.911 0 00-.008-.469c-.006-.38.024-.458.378-.496l.145-.013.013-.01c.045-.034.046-.103.045-.123-.002-.053-.022-.096-.054-.116l-.017-.01h-.018c-.18.011-.382.018-.543.018-.122 0-.249 0-.455-.017l-.06-.005-.002.06c-.012.253-.178.564-.453 1.082l-.63 1.215c-.122.238-.248.483-.38.709-.11-.195-.212-.395-.32-.604l-.76-1.464c-.147-.287-.338-.697-.313-.93l.008-.07-.07.006c-.2.018-.362.018-.504.018-.143 0-.287-.006-.482-.018h-.014l-.013.006a.137.137 0 00-.073.1.16.16 0 00.03.135l.014.017.118.013c.337.053.374.099.363.443-.011.286-.035.777-.068 1.299-.036.573-.067.898-.104 1.28-.035.394-.11.402-.33.427l-.152.02-.012.01a.128.128 0 00-.044.103c0 .053.022.104.056.132l.017.014.022-.002a11.605 11.605 0 011.3 0h.014l.012-.004c.036-.016.062-.052.068-.1a.155.155 0 00-.048-.144l-.014-.011-.251-.019c-.177-.013-.223-.035-.223-.485 0-.475.023-.98.043-1.367.015-.277.03-.554.048-.844.05.105.099.212.146.318l.164.35.626 1.273c.15.3.375.753.463 1.011l.007.015c.027.037.077.048.102.048.062 0 .093-.027.115-.06.103-.25.362-.77.66-1.323l.546-1.02c.053-.098.125-.238.195-.373l.11-.213.017 2.232c0 .375 0 .414-.249.438l-.198.02-.014.013a.151.151 0 00-.041.121.15.15 0 00.06.114l.016.01h.02a16.136 16.136 0 011.461 0h.016l.014-.007a.133.133 0 00.064-.105.156.156 0 00-.04-.133l-.014-.013zM30.182 39.551l-.018.02c-.174.332-.331.5-.41.541-.131.062-.316.081-.76.081-.509 0-.64-.056-.703-.116-.083-.085-.1-.28-.1-.566v-.822c0-.1 0-.1.145-.1h.357c.214 0 .374.005.46.027.081.02.12.068.147.18l.055.227.012.025c.036.04.097.044.122.044.059 0 .108-.022.13-.06l.008-.012v-.017c0-.056-.004-.132-.01-.217a5.07 5.07 0 01-.014-.342c0-.122.007-.246.014-.356.006-.09.01-.17.01-.233v-.015l-.008-.015c-.022-.036-.071-.058-.13-.058-.024 0-.086.004-.122.044l-.01.012-.051.253c-.03.137-.065.147-.11.161-.03.01-.14.033-.503.033h-.357c-.06 0-.124 0-.136-.01-.005-.006-.01-.039-.01-.096v-1.166c0-.176 0-.176.128-.176h.442c.26 0 .458.006.582.034.274.065.33.23.413.482l.012.034.011.02c.024.026.062.04.107.04s.107-.015.137-.057l.012-.017-.009-.096c-.032-.338-.061-.625-.094-.715l-.018-.048-.05.012c-.066.016-.447.016-.815.016h-1.153c-.233 0-.436-.005-.722-.018h-.014l-.013.006c-.044.021-.064.079-.067.125-.003.056.015.1.05.121l.121.02c.31.035.324.066.324.678v2.098c0 .621-.037.648-.328.672l-.223.02-.015.013c-.032.03-.046.082-.037.137.008.049.031.086.064.102l.013.006.014-.001c.336-.01.56-.017.833-.017h.552c.543 0 1.096.005 1.643.017h.036l.016-.03a5 5 0 00.282-.826l.003-.018-.008-.018c-.044-.095-.174-.106-.237-.063M34.115 38.473c0 1.14-.592 1.767-1.666 1.767-.39 0-.595-.062-.71-.215-.094-.127-.11-.302-.11-.602v-2.151c0-.24.012-.373.037-.396.026-.019.186-.071.574-.071 1.74 0 1.875 1.276 1.875 1.668zm-.556-1.785c-.36-.127-.756-.179-1.368-.179-.48 0-.971.015-1.544.047l-.017.004a.126.126 0 00-.08.11.146.146 0 00.065.138l.157.026c.205.027.239.098.239.508v2.216c0 .606-.012.631-.318.671l-.16.02-.014.013c-.032.03-.046.082-.038.137.008.049.032.086.065.102l.013.006h.014c.31-.013.523-.018.765-.018.09 0 .211.009.353.018.196.014.42.029.647.029.384 0 .938-.05 1.401-.286.702-.363 1.105-1.015 1.105-1.788 0-.834-.48-1.497-1.285-1.774" fill="#5F6062"/><path d="M36.315 36.782l.153-.012.026-.01c.035-.02.052-.065.049-.12-.003-.046-.022-.103-.067-.125l-.013-.006h-.014c-.3.012-.51.018-.759.018-.259 0-.47-.006-.77-.018h-.014l-.013.006c-.045.022-.065.079-.066.126-.004.054.014.099.048.12l.179.02c.304.025.321.063.321.69v2.075c0 .623-.011.648-.323.683l-.172.02-.014.013c-.032.03-.046.082-.038.137.008.049.032.086.065.102l.013.006h.014c.296-.012.507-.018.77-.018.254 0 .47.007.76.018h.013l.013-.006c.045-.022.064-.08.067-.125.003-.056-.014-.1-.049-.121l-.177-.026c-.311-.035-.324-.06-.324-.683V37.47c0-.626.019-.664.322-.688M40.536 39.437a.17.17 0 00-.096.027l-.014.009-.006.016c-.122.298-.445.798-1.23.798-1.056 0-1.765-.74-1.765-1.843 0-1.264.868-1.715 1.68-1.715.682 0 1.076.264 1.202.807l.003.02.016.012c.065.053.2.041.248-.022l.014-.02-.003-.023c-.048-.347-.08-.712-.086-.851l-.002-.061-.061.006c-.043.005-.075-.003-.151-.022a5.054 5.054 0 00-1.1-.142c-.66 0-1.245.176-1.691.508a1.953 1.953 0 00-.797 1.59c0 .687.319 1.273.898 1.652.422.268.931.399 1.558.399.394 0 .846-.088.989-.138.065-.022.136-.044.205-.055l.021-.004.014-.016c.104-.125.263-.521.307-.828l.003-.019-.011-.018c-.03-.05-.094-.067-.145-.067M43.16 38.633c-.008.005-.032.01-.112.01h-.755c-.028 0-.07 0-.095-.003.005-.018.015-.046.02-.059l.386-1.014c.038-.097.073-.18.099-.24.03.074.063.172.094.261l.332.95c.02.056.028.09.03.095zm1.478 1.596c-.227-.025-.297-.081-.475-.58l-.87-2.427c-.083-.23-.169-.468-.24-.695-.017-.059-.072-.093-.146-.093h-.026l-.017.019a.631.631 0 01-.291.205l-.052.013.01.053c.016.077-.018.18-.1.381l-.626 1.574c-.179.452-.318.779-.42 1.016a17.01 17.01 0 00-.12.284c-.085.206-.215.242-.32.25l-.22.019-.013.01c-.03.024-.047.067-.044.116.002.043.02.097.06.124l.016.01.145-.006c.142-.006.306-.013.458-.013l.203.003c.183.004.315.006.432.015h.014l.013-.005c.043-.018.072-.06.077-.113.005-.054-.017-.107-.055-.133l-.23-.027c-.125-.01-.125-.03-.125-.06 0-.033.017-.138.131-.465l.215-.612c.032-.091.04-.101.18-.101h.926c.161 0 .163.004.197.107l.27.793a1.2 1.2 0 01.077.29c-.003.007-.04.037-.163.048l-.178.018-.027.01c-.037.024-.057.072-.053.125a.139.139 0 00.074.119l.011.006.13-.004c.159-.006.355-.014.588-.014.26 0 .475.005.74.018h.021l.017-.012c.038-.03.051-.088.05-.13-.002-.048-.02-.087-.053-.108l-.191-.028zM48.214 39.528a.138.138 0 00-.086.026l-.018.023c-.133.32-.288.496-.379.547-.088.047-.218.07-.722.07-.444 0-.565-.058-.629-.117-.095-.096-.111-.238-.111-.59V37.46c0-.622.015-.653.321-.678l.148-.011.025-.01c.035-.02.052-.064.05-.12-.003-.046-.022-.103-.067-.125l-.013-.005h-.015c-.3.012-.509.017-.752.017-.237 0-.437-.005-.796-.017h-.014l-.013.005c-.045.022-.063.08-.066.126-.003.055.014.099.049.12l.18.02c.33.025.345.057.345.678v2.099c0 .616-.012.64-.316.671l-.204.02-.014.013c-.033.03-.046.082-.038.137.008.049.03.086.064.102l.013.006h.014c.349-.012.54-.018.796-.018h.565c.672 0 1.23.006 1.526.017l.035.002.017-.032c.086-.158.264-.76.264-.843 0-.068-.082-.105-.159-.105" fill="#5F6062"/></svg>