<!-- by TradingView --><svg xmlns="http://www.w3.org/2000/svg" width="56" height="56"><path fill="#F0F3FA" d="M0 0h56v56H0z"/><path fill-rule="evenodd" d="M7.02 23.5c-.18 0-.35 0-.5.02l.41 1.03.1-1.05zm-.55.03c-.2.02-.38.05-.55.09l.78.96-.23-1.05zm-.6.1c-.22.06-.42.13-.59.22l1.2.84-.61-1.06zm-.62.24c-.28.14-.49.31-.65.5l1.7.52-1.05-1.02zm-.66.52c-.5.58-.49 1.26-.49 1.38v.01c0 .15 0 1.81 2.34 2.08h.03v-2.62a.6.6 0 010-.05l-1.88-.8zm3.05.76a.6.6 0 010 .09v.54h2.17c.04-.36-.04-.9-.4-1.35l-1.77.72zm1.76-.74a2.07 2.07 0 00-.6-.51l-1 .97 1.6-.46zm-.63-.53c-.17-.1-.37-.18-.6-.24l-.61 1.08 1.21-.84zm-.63-.25a3.74 3.74 0 00-.55-.1l-.22 1.08.77-.98zm-.6-.1c-.14-.02-.3-.03-.47-.03l.08 1.05.4-1.03zm.1 5.88v-2.93c1.92.26 2.36 1.5 2.36 2.12 0 .8-.4 2.39-2.96 2.4-2.57.01-3.1-1.6-3.04-2.4h2.47v.81a.59.59 0 101.17 0zm5.1-3.41c-1.25 0-2.26 1-2.26 2.25v.5a2.25 2.25 0 004.37.75H13.5a.82.82 0 01-1.58-.32V29h3.04l.02-.25v-.5c0-1.24-1-2.25-2.25-2.25zm0 1a.82.82 0 00-.82.82V28h1.64v-.18a.82.82 0 00-.82-.82zm12.44 1.25a2.25 2.25 0 014.5 0v.5c0 .08 0 .17-.02.25h-3.04v.18a.82.82 0 001.58.32h1.35a2.25 2.25 0 01-4.37-.75v-.5zm1.44-.43a.82.82 0 011.64 0V28h-1.64v-.18zM41 23.7h1.6V25H41v-1.3zm1.6 2.3H41v5h1.6v-5zm-25.66 0h-1.33v5h1.33v-3.53a.88.88 0 011.67.41V31H20v-3.27a1.73 1.73 0 00-3.06-1.1V26zm18.67 0h1.4v.65a1.8 1.8 0 013.17 1.15V31h-1.44v-3.08a.92.92 0 00-1.74-.43V31h-1.39v-5zm-12.78 0c1.38 0 1.75.91 1.77 1.37h-1.22c-.1-.33-.46-.37-.62-.37-.16 0-.61.04-.6.45.03.32.56.39.82.42 1.54.25 1.8 1.1 1.8 1.46 0 .5-.34 1.67-2.1 1.67-1.6 0-1.9-1-1.9-1.52H22c.06.47.51.53.76.52.19 0 .63-.05.62-.42-.01-.37-.47-.56-.7-.6-1.9-.3-1.9-1.2-1.9-1.53 0-.32.26-1.45 2.05-1.45zm29 1.37c-.03-.46-.4-1.37-1.78-1.37-1.8 0-2.05 1.13-2.05 1.45 0 .34 0 1.23 1.9 1.52.23.05.7.24.7.6 0 .38-.43.43-.62.43-.25 0-.7-.05-.76-.52H48c0 .52.3 1.52 1.9 1.52 1.76 0 2.1-1.17 2.1-1.67 0-.36-.26-1.21-1.8-1.45-.26-.04-.8-.11-.81-.43-.02-.4.44-.45.6-.45.15 0 .5.04.6.37h1.23zM32.62 26a2.44 2.44 0 00-2.43 2.44v.12a2.44 2.44 0 004.88 0v-.12c0-1.35-1.1-2.44-2.44-2.44zm0 4c.57 0 1.03-.67 1.03-1.5S33.2 27 32.64 27s-1.02.67-1.02 1.5.46 1.5 1.02 1.5zm12.77-4a2.2 2.2 0 00-2.2 2.2v.6a2.2 2.2 0 004.37.36h-1.51c-.11.5-.35.84-.63.84-.39 0-.7-.67-.7-1.5s.31-1.5.7-1.5c.27 0 .5.32.62.79h1.5A2.2 2.2 0 0045.4 26z" fill="#225E9C"/></svg>