<!-- by TradingView --><svg width="56" height="56" fill="none" xmlns="http://www.w3.org/2000/svg"><path fill="#F0F3FA" d="M0 0h56v56H0z"/><path fill-rule="evenodd" clip-rule="evenodd" d="M7.024 23.5c-.18 0-.35.009-.51.023l.418 1.03.092-1.053zm-.554.028c-.198.02-.38.052-.546.092l.78.964-.234-1.056zm-.6.105a2.943 2.943 0 00-.589.217l1.195.844-.606-1.061zm-.62.233a2.146 2.146 0 00-.646.504l1.695.518-1.049-1.022zm-.66.52c-.492.584-.487 1.264-.486 1.384v.01c0 .15 0 1.815 2.333 2.085h.033v-2.626l.002-.047-1.881-.806zm3.048.765a.592.592 0 01.006.088v.541h2.17a1.96 1.96 0 00-.397-1.347l-1.78.718zm1.757-.746a2.073 2.073 0 00-.594-.506l-1.008.969 1.602-.463zm-.621-.521a2.72 2.72 0 00-.602-.244l-.612 1.083 1.214-.84zm-.636-.253a3.74 3.74 0 00-.55-.102l-.217 1.08.767-.978zm-.59-.106a4.965 4.965 0 00-.479-.025l.083 1.053.395-1.028zm.096 5.888V26.48C9.56 26.743 10 27.978 10 28.6c0 .795-.398 2.388-2.962 2.4-2.565.012-3.091-1.595-3.034-2.4H6.47v.813a.587.587 0 101.174 0zM12.731 26a2.248 2.248 0 00-2.248 2.248v.499a2.248 2.248 0 004.367.754h-1.354a.819.819 0 01-1.572-.32v-.183h1.637V29h1.404c.01-.083.014-.168.014-.253v-.499A2.248 2.248 0 0012.731 26zm.011 1a.819.819 0 00-.819.819V28h1.638v-.181a.819.819 0 00-.819-.819zm12.44 1.248a2.248 2.248 0 014.496 0v.499c0 .085-.005.17-.014.253H28.26v-.002h-1.637v.183a.819.819 0 001.572.32h1.354a2.25 2.25 0 01-4.367-.754v-.499zm1.44-.43a.819.819 0 011.638 0V28h-1.637v-.181zM41 23.7h1.598V25H41v-1.3zm1.598 2.3H41v5h1.598v-5zm-25.655 0H15.61v5h1.333v-3.526a.881.881 0 011.663.408v3.117H20v-3.27a1.73 1.73 0 00-3.057-1.107V26zm18.667 0h1.392v.646a1.8 1.8 0 013.182 1.154V31h-1.446V27.92a.92.92 0 00-1.736-.425V31H35.61v-5zM22.83 26c1.378 0 1.751.914 1.77 1.366h-1.221c-.102-.323-.46-.37-.616-.37-.157 0-.617.046-.594.45.018.324.55.394.816.429h.002c1.535.243 1.792 1.1 1.792 1.458 0 .498-.336 1.667-2.095 1.667-1.602 0-1.908-1.003-1.905-1.516H22c.062.463.511.524.762.516.186 0 .625-.053.616-.424-.01-.37-.467-.555-.695-.602-1.905-.299-1.905-1.188-1.905-1.521v-.006c0-.313.258-1.447 2.05-1.447zm28.992 1.366c-.019-.452-.392-1.366-1.77-1.366C48.257 26 48 27.134 48 27.447v.006c0 .333 0 1.222 1.905 1.521.228.047.685.232.694.602.01.37-.43.424-.616.424-.25.008-.699-.053-.762-.516H48c-.004.513.303 1.516 1.905 1.516C51.664 31 52 29.831 52 29.333c0-.359-.258-1.215-1.793-1.458h-.001c-.266-.035-.799-.105-.817-.428-.022-.405.437-.452.594-.452.157 0 .515.048.617.37h1.22zM32.638 26a2.44 2.44 0 00-2.441 2.44v.12a2.44 2.44 0 004.882 0v-.12A2.44 2.44 0 0032.638 26zm0 4c.562 0 1.017-.672 1.017-1.5S33.2 27 32.64 27c-.561 0-1.016.672-1.016 1.5s.455 1.5 1.016 1.5zm12.76-4a2.2 2.2 0 00-2.2 2.2v.6a2.2 2.2 0 004.37.357H46.06c-.113.5-.353.843-.63.843-.386 0-.7-.672-.7-1.5s.314-1.5.7-1.5c.267 0 .499.319.617.787h1.511A2.2 2.2 0 0045.398 26z" fill="#225E9C"/></svg>