<!-- by TradingView --><svg width="56" height="56" xmlns="http://www.w3.org/2000/svg"><path fill="#00487A" d="M0 0h56v56H0z"/><path d="M4.278 34.519c-.26-.126-.278-.197-.278-.68 0-.892-.018-1.607 0-1.892.019-.197.056-.286.149-.286.11 0 .129.053.129.197 0 .16 0 .41.056.66C4.61 33.84 5.759 34 7 34c1.778 0 2.815-.892 2.815-2.036 0-1.232-.537-1.946-2.13-3.214l-.833-.66c-1.963-1.555-2.407-2.662-2.407-3.876 0-1.91 1.481-3.214 3.833-3.214.722 0 1.26.072 1.722.178.352.072.5.09.649.09.148 0 .184.035.184.125s-.074.678-.074 1.893c0 .285-.036.41-.13.41-.11 0-.129-.089-.147-.232-.018-.214-.13-.696-.24-.893-.112-.196-.631-.84-2.335-.84-1.277 0-2.08.662-2.08 1.966 0 1.017.303 1.66 2.08 3l.52.393c2.184 1.66 2.704 2.768 2.704 4.196 0 .732-.298 2.09-1.575 2.965C8.76 34.786 7.76 35 6.76 35c-.87 0-1.722-.125-2.481-.481zM18 30.34v3.589c.056.446-.11.678.389.749.222.036.594.072.74.072.112 0 .131.071.131.125 0 .071-.074.125-.26.125h-3.743c-.185 0-.26-.036-.26-.125 0-.054.037-.107.13-.107.612 0 .8-.248.873-.84V24l-2.188.036c-1.019.018-1.407.125-1.648.483-.185.267-.204.375-.26.482-.036.125-.092.142-.166.142a.12.12 0 01-.111-.125c0-.16.336-1.857.354-1.982.037-.09.111-.286.167-.286.112 0 .278.125.723.179.463.053 1.092.071 1.277.071h6.149a8.46 8.46 0 001.166-.071c.241-.036.39-.072.464-.072.073 0 .073.09.073.179v2.036c0 .125-.074.196-.148.196s-.11-.053-.13-.267l-.018-.161c-.055-.465-.463-.805-2.018-.84H18v6.34zM26 30.34c0 1.465 0 2.929.074 3.554.055.446.11.732.593.803.24.036.592.072.74.072.093 0 .13.071.13.125 0 .071-.093.106-.278.106h-4.264c-.168 0-.26-.017-.26-.106 0-.054.037-.125.13-.125.148 0 .352-.036.5-.072.315-.071.511-.357.567-.803.074-.625.068-2.09.068-3.554v-2.562c0-2.357.037-3.207 0-3.689-.037-.518-.32-.714-.673-.786a3.048 3.048 0 00-.5-.053c-.073 0-.129-.071-.129-.125 0-.09.074-.125.26-.125h3.912c.185 0 .26.036.26.125 0 .054-.075.125-.13.125-.112 0-.222 0-.407.036-.445.09-.538.268-.575.803C26 24.571 26 25.304 26 27.661v2.679zM29 27.66c0-2.356.037-3.09 0-3.571-.037-.518-.033-.732-.57-.803a5.496 5.496 0 00-.555-.036c-.056 0-.13-.072-.13-.125 0-.09.074-.125.259-.125h1.852c.315 0 3.852.017 4.223 0 .314-.018.592-.018.74-.071.093-.019.167-.09.223-.09.074 0 .11.071.11.143 0 .107-.073.661-.129 1.09-.018.143-.037.822-.074 1-.018.071-.074.16-.148.16s-.13-.071-.13-.178c0-.125-.055-.375-.148-.572-.092-.196-.48-.482-1.112-.482H31.13c-.093 0-.13.036-.13.161v3.714c0 .09 0 .125.111.125h1.838c.278 0 .519 0 .74-.017.39-.036.612-.09.76-.268.074-.09.149-.161.205-.161.073 0 .092.053.092.125 0 .089-.112.697-.148 1.196-.038.304-.057.911-.057 1.018 0 .143-.036.305-.148.305-.092 0-.11-.073-.11-.144-.02-.161-.037-.375-.112-.554-.074-.214-.171-.5-.671-.5h-2.37c-.092 0-.13.055-.13.161v1.178c0 1.5 0 2.965.074 3.554.056.447.149.733.592.803.242.036.594.072.741.072.094 0 .13.072.13.125 0 .072-.093.107-.278.107h-4.032c-.168 0-.241-.018-.241-.107 0-.053.036-.125.13-.125.664 0 .738-.27.837-.875.094-.625.047-2.089.047-3.553v-2.68zM37 27.66V24.09s-.023-.754-.38-.803a6.84 6.84 0 00-.62-.036c-.056 0-.13-.071-.13-.125 0-.09.074-.125.26-.125h1.954c.11 0 3.518.018 3.888 0 .315-.018.611-.071.742-.09.073-.018.148-.07.222-.07.055 0 .074.07.074.142 0 .107-.093.679-.13 1.107-.018.144-.056.822-.093 1-.018.072-.073.161-.147.161-.094 0-.13-.071-.13-.196 0-.107-.018-.357-.093-.536C42.306 24.268 42 24 41.5 24h-2.407c-.074 0-.093.053-.093.161v3.679c0 .107.018.16.11.16h2.39c.5 0 .768-.089.935-.25.111-.107.185-.197.241-.197.056 0 .092.037.092.126 0 .09-.11.697-.147 1.197-.037.303-.075.875-.075.982 0 .125-.036.285-.148.285-.074 0-.11-.053-.11-.143 0-.142 0-.303-.075-.5-.055-.214-.203-.393-.833-.464-.445-.054-1.992-.036-2.27-.036-.091 0-.11.054-.11.107v1.233c0 .517-.02 2.142 0 2.445.037 1.019.139 1.214 1.75 1.215.426 0 1.205 0 1.63-.16.426-.18.648-.447.741-1.054.036-.18.074-.233.166-.233.093 0 .112.125.112.233 0 .106-.13 1.553-.223 1.875-.11.393-.277.339-.908.339h-5.833c-.166 0-.258-.036-.258-.125 0-.054.036-.125.13-.125.623 0 .693-.25.693-.75v-6.34zM47 30.375s-.093 3 .203 3.268c.32.289.89.357 2.168.357.851 0 1.573-.018 1.962-.465.203-.232.334-.553.39-.857.017-.107.073-.196.166-.196.074 0 .111.071.111.232 0 .16-.111 1.482-.24 1.93-.111.356-.168.356-1.038.356h-6.611c-.167 0-.259-.036-.259-.125 0-.054.036-.125.13-.125.147 0 .35-.036.498-.072.316-.071.354-.338.428-.785.092-.625.092-2.09.092-3.554v-2.678c0-2.358 0-3.09-.037-3.573-.037-.518-.13-.73-.667-.802a5.545 5.545 0 00-.556-.036c-.055 0-.13-.071-.13-.125 0-.089.075-.125.26-.125h4.168c.166 0 .259.036.259.125 0 .053-.075.107-.13.107-.111 0-.352.018-.537.036-.482.09-.575.285-.611.82C47 24.571 47 25.303 47 27.661v2.714z" fill="#fff"/></svg>