<!-- by TradingView --><svg width="56" height="56" xmlns="http://www.w3.org/2000/svg"><path fill="#0047BA" d="M0 0h56v56H0z"/><path d="M44 13H13v31h31V13z" fill="#fff"/><path d="M14.035 39.606h.212c.106 1.165.847 1.853 1.906 1.853.953 0 1.641-.636 1.641-1.43 0-.9-.688-1.323-1.8-2.011-1.217-.742-1.906-1.324-1.906-2.436 0-1.111.9-2.011 2.118-2.011.688 0 1.165.264 1.482.264.159 0 .318-.106.318-.264h.212v1.747h-.212c-.159-.953-.794-1.536-1.747-1.536-.9 0-1.43.477-1.43 1.218 0 .582.371 1.112 1.006 1.535.741.477 1.43.794 1.906 1.218.582.423.9 1.112.9 1.747 0 1.218-1.059 2.17-2.382 2.17-.741 0-1.27-.317-1.641-.317-.16 0-.318.106-.318.318h-.265v-2.065zM22.135 41.776c-1.482 0-2.594-1.111-2.594-2.594 0-1.429 1.059-2.54 2.488-2.54 1.218 0 2.065.74 2.065 1.958h-3.6c0 1.747.794 2.806 2.065 2.806.582 0 1.059-.265 1.535-.847l.159.159c-.582.688-1.27 1.058-2.118 1.058zm1.006-3.44c0-.954-.53-1.483-1.27-1.483-.742 0-1.218.53-1.377 1.482h2.647zM26.53 37.647c.74-.688 1.27-1.006 1.747-1.006.211 0 .423.053.688.212l-.37.847c-.371-.159-.742-.265-1.007-.265-.37 0-.74.16-1.059.53v2.488c0 .688.16.9.848.9v.212c-.424 0-.9-.053-1.324-.053-.424 0-.847 0-1.27.053v-.212c.688 0 .846-.212.846-.9v-2.382c0-.794-.211-1.112-.794-1.112h-.053v-.212c.636-.053 1.218-.106 1.8-.159v1.06h-.053zM30.606 37.753c-.212-.53-.424-.794-.847-.794h-.053v-.212h2.329v.212c-.37.053-.53.159-.53.423 0 .106.054.212.107.37l1.111 2.7 1.06-2.646c.052-.159.105-.265.105-.424 0-.317-.159-.423-.582-.476v-.212H35.053v.212c-.53 0-.794.318-1.06 1.006l-1.481 3.759H32.3l-1.694-3.918zM38.23 41.406v.212c-.424 0-.848-.053-1.271-.053-.424 0-.847 0-1.27.053v-.212c.688 0 .846-.212.846-.9v-2.382c0-.794-.158-1.112-.74-1.112h-.054V36.8c.636-.053 1.218-.106 1.747-.159v3.865c0 .994.23.9.741.9zm-1.43-7.359c.318 0 .635.265.635.635a.644.644 0 01-.635.636c-.318 0-.635-.318-.635-.636.053-.37.317-.635.635-.635zM39.024 40.03h.211c.16.952.742 1.482 1.536 1.482.582 0 .953-.37.953-.9 0-.636-.53-.847-1.377-1.218-.794-.37-1.217-.741-1.217-1.43 0-.74.635-1.323 1.535-1.323.423 0 .794.212 1.006.212.159 0 .264-.053.317-.212h.16v1.43h-.213c-.105-.741-.582-1.165-1.217-1.165-.53 0-.847.265-.847.688 0 .477.37.688 1.059 1.006 1.005.477 1.535.847 1.535 1.694s-.688 1.483-1.641 1.483c-.583 0-1.006-.318-1.218-.318-.159 0-.265.106-.318.265h-.158V40.03h-.106z" fill="#0047BA"/></svg>