<!-- by TradingView --><svg xmlns="http://www.w3.org/2000/svg" width="56" height="56"><path fill="#F0F3FA" d="M0 0h56v56H0z"/><path d="M25.5 30.08h-4.34c-2.8 0-3.79-2.5-1.63-4.44 1.36-1.22 2.75-2.4 4.14-3.59.84-.71 1.68-1.43 2.5-2.15l5.32-4.61a30.7 30.7 0 00-3.57-.21c-11.05 0-20 5.82-20 13 0 5.18 4.66 9.65 11.4 11.74l11.8-10.22c2.98-3.18-.95-3.6-.95-3.6h4.34c2.8 0 3.79 2.64 1.62 4.6-1.35 1.21-2.74 2.4-4.13 3.58l-2.51 2.15-5.22 4.53c1.19.15 2.41.22 3.66.22 11.05 0 20-5.82 20-13 0-5.2-4.7-9.68-11.48-11.76l-11.9 10.32c-2.98 3.17.95 3.44.95 3.44z" fill="#0C4CA3"/></svg>