<!-- by TradingView --><svg width="56" height="56" xmlns="http://www.w3.org/2000/svg"><path fill="#2E7D32" d="M0 0h56v56H0z"/><path d="M13 31.014v-4.01c3.465 1.515 9.018 2.004 11.43 1.996-1.005 1.333-1.12 3.183-1.12 4.004-5.415-.058-9.13-1.351-10.31-1.99z" fill="#fff"/><ellipse cx="23.5" cy="16" rx="10.5" ry="3" fill="#fff"/><path d="M13 23.71V20c8.162 2.924 16.734 1.218 20 0v2.353c-4.035-.043-6.675 2.629-7.39 3.647-9.334 0-11.798-1.69-12.61-2.29zm0 14.132V34c2.996 1.6 8.227 1.764 10.468 1.647.272 2.07 1.135 3.763 1.532 4.351-7.353.063-11.064-1.411-12-2.156z" fill="#fff"/><circle cx="35" cy="34" r="11.5" stroke="#2E7D32" stroke-width="3"/><circle cx="35" cy="34" r="10" fill="#fff"/></svg>