<!-- by TradingView --><svg width="56" height="56" xmlns="http://www.w3.org/2000/svg"><path fill="#73B535" d="M0 0h56v56H0z"/><path fill-rule="evenodd" d="M16 37.685C16 36.306 17.135 35 18.536 35h18.928c1.4 0 2.536 1.306 2.536 2.685S38.882 40 37.481 40H18.553c-1.4 0-2.553-.936-2.553-2.315zM18.536 36c-.854 0-1.546.844-1.546 1.685 0 .84.71 1.315 1.563 1.315h18.928c.854 0 1.53-.474 1.53-1.315 0-.84-.693-1.685-1.547-1.685H18.536zM21.246 16.783c-1.944 1.077-3.259 2.443-3.689 3.637-.351.976-.229 1.528.019 1.95.255.433.661.63.984.63h19.477c.323 0 .73-.197.985-.63.247-.422.37-.974.018-1.95-.43-1.194-1.745-2.56-3.689-3.637C33.425 15.716 30.95 15 28.3 15c-2.651 0-5.127.716-7.053 1.783zm-.472-.852A15.736 15.736 0 0128.298 14c2.828 0 5.465.79 7.525 1.931 2.043 1.132 3.59 2.65 4.133 4.16.428 1.187.329 2.05-.095 2.772-.415.707-1.129 1.137-1.824 1.137H18.56c-.695 0-1.408-.43-1.824-1.137-.424-.721-.523-1.585-.095-2.773.543-1.51 2.09-3.027 4.133-4.159zM38.413 26.43c-.358-.367-.84-.861-1.757-.861-.918 0-1.4.494-1.758.861l-.015.016c-.353.362-.583.584-1.075.584s-.722-.222-1.075-.584l-.015-.016c-.358-.367-.84-.861-1.756-.861-.918 0-1.4.494-1.756.861l-.016.016c-.353.362-.582.584-1.074.584-.492 0-.721-.222-1.074-.584l-.015-.015c-.358-.368-.84-.863-1.757-.863-.918 0-1.4.495-1.757.862l-.015.016c-.353.362-.582.584-1.075.584-.492 0-.721-.222-1.074-.584l-.015-.016c-.358-.367-.84-.861-1.757-.861-.918 0-1.4.494-1.757.862l-.015.015c-.353.362-.582.584-1.074.584a.487.487 0 100 .974c.917 0 1.399-.495 1.756-.862l.016-.016c.352-.362.581-.583 1.074-.583.492 0 .721.221 1.074.583l.016.016c.357.367.839.862 1.756.862.918 0 1.4-.495 1.757-.862l.015-.016c.353-.362.582-.583 1.075-.583.492 0 .721.221 1.074.583l.015.016c.358.367.84.862 1.757.862.918 0 1.4-.495 1.757-.862l.015-.016c.353-.362.582-.583 1.074-.583.491 0 .72.221 1.074.583l.015.016c.357.367.84.862 1.757.862.918 0 1.4-.495 1.757-.862l.016-.016c.352-.362.582-.583 1.075-.583.492 0 .722.221 1.074.583l.016.016c.357.367.839.862 1.756.862a.487.487 0 100-.974c-.492 0-.721-.222-1.074-.584l-.015-.015zM38.102 31H17.888a.913.913 0 00-.914.913c0 .505.41 1.087.913 1.087h20.215c.504 0 .913-.582.913-1.087a.913.913 0 00-.913-.913zm-20.214-1C16.845 30 16 30.87 16 31.913c0 1.043.845 2.087 1.887 2.087h20.215c1.042 0 1.887-1.044 1.887-2.087 0-1.042-.845-1.913-1.887-1.913H17.888z" fill="#fff"/></svg>