<!-- by TradingView --><svg width="56" height="56" xmlns="http://www.w3.org/2000/svg"><path fill="#112369" d="M0 0h56v56H0z"/><path d="M27.284 12.235c-8.71.39-15.441 7.757-15.05 16.47.39 8.715 7.774 15.45 16.483 15.06 8.709-.392 15.441-7.78 15.05-16.493-.39-8.692-7.775-15.45-16.483-15.037z" fill="#FEBD5E"/><path d="M27.284 12.018c-8.818.39-15.659 7.866-15.268 16.71.391 8.822 7.884 15.667 16.7 15.254 8.818-.39 15.66-7.888 15.268-16.71-.39-8.822-7.883-15.667-16.7-15.254zm1.867 15.515a588.353 588.353 0 004.409 4.042c5.017 4.172 3.3 7.996 1.39 9.322-1.455 1-3.084 1.477-5.19 1.608-.196.021-.544-.087-.565-.413-.022-.37.52-.457.52-.457 4.735-.934 3.345-4.041 1.673-5.628-.695-.673-7.275-6.345-7.275-6.345-6.32-5.41-5.799-9.648-5.799-9.648.304-5.193 4.843-6.475 8.274-6.193.413.044.63.283.565.609-.065.37-.608.39-.608.39-1.086.066-2.063.175-2.823.675-2.78 1.868-1.955 5.04 1.737 8.561.456.456.956.913 1.477 1.39 0 .044.738.696 2.215 2.087zm-2.15 13.45c.022.5-1.194.74-2.606.587-1.759-.174-3.866-.739-5.712-2.325-1.694-1.456-2.736-3.477-3.236-5.237-.542-1.803-.738-3.933.11-3.759.26.044.716 1.217 1.215 2.064.522.87.934 1.348 1.325 1.652.174.13.782-1.217 1.65-1.978.5-.412 1.065-.565 1.152.696.108 1.543-.174 3.368.282 3.368.412 0 1.368-.326 3.453-.5.782-.065 1.216.087.478 1.13-.37.522-.869 1.26-2.042 2.108 1.781 1.673 3.91 1.477 3.931 2.194zm1.39-16.145c-.13-.521-.174-1.173-.065-1.999.217-1.738.695-2.564 1.238-3.933.716-1.825-1.043-2.89-.739-3.564.391-.912 1.65.24 3.04.326 1.195.066 1.934.022 2.868.13 1.237.175 2.736.587 3.41 1.37.607.717-.327 1.586-1.434 1.043-.825-.391-1.846-.152-1.238.695.738.804 1.086.826 1.824 1.021 2.042.544 2.085 2.478.695 3.499-1.564 1.152-3.149.674-3.8-1.586-.326-1.13-1.108-1.695-1.933-1.37-.804.305-.326 1.804.282 3.173 1.238 3.151-1.824 3.042-2.172 2.999-1.628-.326-1.976-1.804-1.976-1.804z" fill="#189BD4"/></svg>