<!-- by TradingView --><svg width="56" height="56" xmlns="http://www.w3.org/2000/svg"><path fill="#FF2911" d="M0 0h56v56H0z"/><path d="M30 14v6.283l1 .523v4.282l-3-1.79-14.248 8.162L12 28.445l14-8.162V14h4zM15.142 33.688L20 30.94v-1.859l4-2.286v4.145l13.997 7.987-1.755 3.014L22 33.778 16.895 36.7l-1.753-3.012zm4.858-11v-8.686L24 14v6.283l-4 2.405zm19.325 14.011L34 33.778l-1.332.755-3.508-2.01L32 30.94V14l4 .002V30.94l5.077 2.748-1.752 3.011zm-12.28 1.247l-7.067 4.05-1.756-3.069 5.316-2.99 3.508 2.009zM37 24.323l7 4.122-1.752 3.015L37 28.341v-4.018z" fill="#fff"/></svg>