<!-- by TradingView --><svg xmlns="http://www.w3.org/2000/svg" width="56" height="56"><path fill="url(#abdjmw0nl)" d="M0 0h56v56H0z"/><path d="M19 37h1.82c.43-.05 1.44-.37 1.92-2.1l5.01-15.98c.55-2.53 3.14-5.84 6.84-5.92H37v6h-1.82c-.59 0-1.5.47-2.02 2.29a1257.4 1257.4 0 01-4.86 15.69c-.74 2.32-2.68 5.78-7.48 6.02H19v-6zm0 0V19h-6v18h6zm18-18v18h6V19h-6z" fill="#fff"/><defs><linearGradient id="abdjmw0nl" x1="10.42" y1="9.71" x2="68.15" y2="76.02" gradientUnits="userSpaceOnUse"><stop stop-color="#1A1E21"/><stop offset="1" stop-color="#06060A"/></linearGradient></defs></svg>