<!-- by TradingView --><svg width="56" height="56" xmlns="http://www.w3.org/2000/svg"><path fill="#0064AA" d="M0 0h56v56H0z"/><path d="M8.205 31a2.16 2.16 0 01-.842-.152 2.199 2.199 0 01-.714-.486 2.276 2.276 0 01-.645-1.585v-1.522c0-1.238.985-2.255 2.201-2.255H22.8c.584 0 1.144.25 1.556.67.413.42.645.95.645 1.545v1.604C25 30.056 24.015 31 22.8 31H8.204zm24.996 0c-.29 0-.575-.037-.843-.15a2.199 2.199 0 01-.714-.486 2.244 2.244 0 01-.477-.727 2.06 2.06 0 01-.168-.814v-1.625c0-1.238.986-2.201 2.202-2.201h14.598C49.015 24.997 50 26 50 27.237v1.542A2.204 2.204 0 0147.8 31H33.2zM20.552 44a2.17 2.17 0 01-1.107-.297 2.214 2.214 0 01-.81-.823l-5.518-8.866a.923.923 0 01.239-1.186.887.887 0 01.396-.17L17.617 32c.484 0 .824.045 1.195.227.372.182.68.475.883.84l2.833 4.63c.11.188.241.303.472.303h10c.232 0 .636-.115.746-.303l2.538-4.615a2.04 2.04 0 01.882-.84c.372-.182.636-.242 1.1-.242l3.961.672a.887.887 0 01.668.508.937.937 0 01.105.429.948.948 0 01-.14.42l-5.177 8.852a2.217 2.217 0 01-.81.823 2.166 2.166 0 01-1.108.296H20.552zm-.081-32c-.389-.003-.77.1-1.108.296-.337.196-.616.48-.81.823l-5.436 8.879a.923.923 0 00.239 1.187.885.885 0 00.396.17l3.865.645c.462 0 .824-.032 1.195-.214a2.04 2.04 0 00.883-.84l2.747-4.589c.11-.189.327-.357.558-.357h10c.232 0 .55.17.66.357l2.6 4.629c.203.365.51.658.882.84.371.182.788.244 1.195.178l3.61-.636c.243-.111.849-.218.971-.48a.926.926 0 00.082-.43c-.006-.148-.09-.293-.164-.42l-5.236-8.92a2.215 2.215 0 00-.81-.822A2.164 2.164 0 0035.681 12H20.47z" fill="#F6F8FD"/></svg>