<!-- by TradingView --><svg width="56" height="56" xmlns="http://www.w3.org/2000/svg"><path fill="#81A9D1" d="M0 0h56v56H0z"/><path d="M49.09 34c.318 0 .632.127.75.203v.478c-.334-.24-.639-.283-.75-.274-.177 0-.54.064-.566.319-.026.254.567.512.888.68.26.138.588.406.588.788 0 .478-.481.797-1.027.805-.436.008-.773-.138-.887-.212v-.593c.196.312.638.398.887.398.25 0 .589-.143.546-.398-.043-.255-.428-.433-.685-.557-.3-.145-.834-.443-.834-.912 0-.522.656-.725 1.09-.725zM44 37v-3h.873c.283 0 .6.26.634.8a.818.818 0 01-.408.768c.408.432.77 1.135.901 1.432h-.453c-.313-.713-.742-1.16-.918-1.295h-.244V37H44z" fill="#fff"/><path d="M44.361 35.322v-.962c.467 0 .73.091.727.484-.004.393-.31.478-.727.478z" fill="#81A9D1"/><path d="M34.997 37v-3h.507v2.586h1.493V37h-2zM24.051 37L23 34h.387l.664 1.953.713-1.953h.423l.69 1.953.7-1.953H27l-1.124 3-.894-2.4-.93 2.4zM18 37v-3h1.916v.44h-1.39v.812h1.39v.434h-1.39v.88H20V37h-2zM30 37v-3h1.916v.44h-1.39v.812h1.39v.434h-1.39v.88H32V37h-2zM39 37v-3h1.916v.44h-1.39v.812h1.39v.434h-1.39v.88H41V37h-2zM43 22h-6v.48c.848-.042.965.473 1 .735v6.365c0 .862-.612.93-1 .855V31h6.463L44 29h-.433c-.454 1.095-2.269.992-2.567 1-1.676 0-2-.097-2-.698v-2.297c.368.006 1.836 0 2.284 0 .447 0 .701.641.716.995h.418v-3H42c.012 1.095-.401 1-.716 1H39v-3c.393-.006 1.907-.014 2.731 0 .824.014.985.567 1.015 1H43v-2zM10.987 22.38l.33 2.62h-.525c-.194-1.446-1.207-1.943-2.297-2C7.405 22.943 6 23.772 6 25.56c0 1.998 2.242 2.432 3.546 3.021.786.28 2.406 1.404 2.453 3.444C12.057 34.573 9.546 36 7.756 36c-1.355 0-2.81-.456-3.367-.685L3.999 33h.507c.44 1.732 2.257 2.057 3.25 2 .992-.057 2.197-.708 2.244-2.29.046-1.583-1.282-2.516-2.244-2.835C6.514 29.464 3.844 28.041 4 25.56 4.194 22.46 7.289 22 8.495 22c.966 0 2.064.254 2.492.38zM17 22h-4v.525c.988 0 1.505.382 1.5.573.01 1.968.025 6.06 0 6.689-.025.63-1.104.721-1.5.688V31h4v-.525c-1.05.066-1.505-.431-1.5-.688v-6.689c.012-.564 1.073-.617 1.5-.573V22zM25.205 22.496V24h-.369c-1.021-1.129-2.152-1-2.483-1-.33 0-3.391-.093-3.356 3.338C19.033 29.77 21.743 30 22.694 30c.76 0 1.306-.37 1.306-.508v-1.505c0-.333-.64-.48-1-.496V27h3v.491c-.658-.038-1 .316-1 .496v1.505c.011.32.328.486.432.529v.352c-1.827.627-3.171.73-4.03.544-1.21-.261-3.584-1.543-3.39-4.579.24-3.794 3.007-4.338 4.341-4.338 1.067 0 2.346.33 2.852.496zM29 22h-2v.485c1.09 0 1.01.494 1 .856v6.156c-.035.853-.585 1.045-.99 1.034V31H30v-.469c-1 0-1-.684-1-1.034V24l5 7h1v-7.546c0-.97.572-.97.997-.97V22H33v.485c.827 0 1 .42 1 .97V29l-5-7zM45.548 22h-.326L45 24.37h.418c.157-1.084.579-1.355.77-1.355H48v6.77c0 .738-.923.759-1.315.677V31h3.643v-.538c-.982.16-1.341-.385-1.328-.677v-6.77a63.587 63.587 0 011.825 0c.49.013.605.908.6 1.354h.405L52 22h-.34a.59.59 0 01-.509.43 461.29 461.29 0 01-4.963 0c-.47-.011-.622-.291-.64-.43zM13 32h37v1H13zM14.571 36.336V34h.417c.01.656.022 2.03 0 2.445-.025.47-.584.555-.988.555v-.303c.442-.012.565-.245.571-.36z" fill="#fff"/></svg>