<!-- by TradingView --><svg xmlns="http://www.w3.org/2000/svg" width="56" height="56"><path fill="#F0F3FA" d="M0 0h56v56H0z"/><path d="M23.93 29.58c1.35-6.77 15.3-6.1 21.68-4.82v.77c-5.88-.83-10.87 0-13.03 1.89-1.63 1.41 0 3.76.83 4.88 2.3 3.1 1.85 5.1 1.33 5.71C31.2 42.67 22.1 43.13 18 42.78l-1.33-1.05c7.14-.98 9.7-3.14 10.1-4.1.35-.5.64-2.05-1-4.22-1.65-2.18-1.93-3.33-1.83-3.83z" fill="url(#asjmfnonb)"/><path fill-rule="evenodd" d="M45 28a17 17 0 01-32.6 6.78c.2-.16.38-.33.57-.5 4.5-3.93 11-9.6 18.93-11.35 4.45-.97 9.7-.08 12.53.68.37 1.4.57 2.87.57 4.39zm-.7-4.87c-1.22-.77-3.4-2.05-6.87-3.88-5.2-2.75-8.51-5.89-9.52-7.12-2.32 3.3-11.62 14-16.51 19.55a17 17 0 0132.9-8.55zM46 28a18 18 0 11-36 0 18 18 0 0136 0z" fill="url(#bsjmfnonb)"/><defs><linearGradient id="asjmfnonb" x1="45.61" y1="25.08" x2="16.66" y2="37.69" gradientUnits="userSpaceOnUse"><stop stop-color="#D7A955"/><stop offset=".56" stop-color="#EBBD68"/><stop offset="1" stop-color="#8E5F28"/></linearGradient><linearGradient id="bsjmfnonb" x1="31.59" y1="14.03" x2="10" y2="49.03" gradientUnits="userSpaceOnUse"><stop stop-color="#CACACA"/><stop offset=".5" stop-color="#393838"/></linearGradient></defs></svg>