<!-- by TradingView --><svg width="56" height="56" xmlns="http://www.w3.org/2000/svg"><path fill="#131F74" d="M0 0h56v56H0z"/><path d="M35.072 26H43l-.611 2h-4.685l-.464 1h4.787l-.702 2h-4.707l-.386 1h4.844l-.883 2H32c.694-2.12 2-6.52 2.235-7.168.235-.649.656-.825.837-.832zM10.045 20h9.957L19 23h-5v.149c.702 1.078 2.421 3.752 3.163 4.68.743.929.87 1.885.837 2.247C17.92 32.052 15.956 34 15.212 34H4l1-3h6.624v-.303c-1.095-1.555-3.648-4.92-4.083-5.457-.525-.65-.559-1.392-.525-1.78.441-2.587 2.276-3.394 3.029-3.46zM20.538 26h2.892c-.662 0-2.195 6.757-2.387 7.336-.153.463-.47.636-.61.664H17.61c.65-2.184 1.99-6.696 2.143-7.268.154-.572.587-.726.785-.732zM24.75 26c-.554.197-2.064 5.415-2.75 8h3.355l1.14-4 1.071 2 2.008-2-1.09 4h2.957a893.847 893.847 0 001.816-6.377c.29-1.062.616-1.525.743-1.623h-3.33l-2.397 3.002L26.496 26h-1.747zM43.816 26H52l-.644 2h-4.128l-1.419 4H50l-1 2h-8l2.816-8z" fill="#fff"/></svg>