<!-- by TradingView --><svg xmlns="http://www.w3.org/2000/svg" width="56" height="56"><path fill="#F0F3FA" d="M0 0h56v56H0z"/><path d="M25 37V22h1l-.04 15H25z" fill="#1B4A75"/><path d="M26.35 19.85a.85.85 0 11-1.7 0 .85.85 0 011.7 0z" fill="#E1E54A"/><path d="M33.95 34.1a.97.97 0 11-1.95 0 .97.97 0 011.95 0z" fill="#1B4A75"/><path d="M31.68 28.81a.97.97 0 11-1.95 0 .97.97 0 011.95 0zm.12-2.91a.92.92 0 11-1.85 0 .92.92 0 011.84 0z" fill="#0F748E"/><path d="M40.86 23.52a.9.9 0 11-1.78 0 .9.9 0 011.78 0z" fill="#E1E54A"/><path d="M32.64 23.37a.81.81 0 11-1.62 0 .81.81 0 011.62 0z" fill="#14A8BF"/><path d="M40.32 25.87a.76.76 0 11-1.51 0 .76.76 0 011.51 0zm-1.94 2.46a.54.54 0 11-1.08 0 .54.54 0 011.08 0zm-2.36 2.57a.32.32 0 11-.65 0 .32.32 0 01.65 0z" fill="#E1E54A"/><path d="M34.27 21.28a.6.6 0 11-1.19 0 .6.6 0 011.19 0z" fill="#14A8BF"/><path d="M40 21.28a.7.7 0 11-1.4 0 .7.7 0 011.4 0z" fill="#E1E54A"/><path d="M36.49 19.74a.46.46 0 11-.92 0 .46.46 0 01.92 0z" fill="#14A8BF"/><path d="M38.63 19.76a.49.49 0 11-.97 0 .49.49 0 01.97 0z" fill="#E1E54A"/><path d="M32.43 31.59a1.03 1.03 0 11-2.05 0 1.03 1.03 0 012.05 0z" fill="#0F748E"/><path d="M36.1 19.75h1.63" stroke="#E1E54A" stroke-width=".14"/><path d="M36.1 19.75h.82" stroke="#14A8BF" stroke-width=".14"/><path d="M33.95 21.33h4.86" stroke="#E1E54A" stroke-width=".14"/><path d="M33.95 21.33h3.02" stroke="#14A8BF" stroke-width=".14"/><path d="M32.32 31.39l3.21-.43" stroke="#E1E54A" stroke-width=".14"/><path d="M32.32 31.39l1.27-.17" stroke="#0F748E" stroke-width=".14"/><path d="M32.32 23.44h7.03" stroke="#E1E54A" stroke-width=".15"/><path d="M32.32 23.44h3.69" stroke="#14A8BF" stroke-width=".15"/><path d="M31.07 28.74l7.01-.4" stroke="#E1E54A" stroke-width=".13"/><path d="M31.07 28.74l3.06-.18" stroke="#0F748E" stroke-width=".13"/><path d="M31.78 25.87h7.1" stroke="#E1E54A" stroke-width=".15"/><path d="M31.78 25.87h3.3" stroke="#0F748E" stroke-width=".15"/><path d="M18.96 20.2A4.44 4.44 0 0121 24h-1c0-1.33-.6-2.31-1.59-2.98A6.93 6.93 0 0014.5 20c-2.2.02-3.84 1.26-4.4 2.67-.29.7-.3 1.45-.02 2.14.3.68.9 1.36 1.99 1.87.94.46 1.9.65 2.94.86l.2.04c1.1.22 2.25.47 3.36 1.11.88.5 1.65 1.19 2.08 2.08.44.9.49 1.97 0 3.16a4.63 4.63 0 01-2.47 2.38c-1.1.5-2.4.73-3.7.69C11.33 36.9 8 34.87 8 31h1c0 3.13 2.68 4.9 5.51 5a7.43 7.43 0 003.26-.6 3.64 3.64 0 001.96-1.85c.39-.95.33-1.72.02-2.35-.3-.65-.9-1.2-1.68-1.64a9.75 9.75 0 00-3.06-1l-.22-.05c-1.01-.2-2.1-.42-3.16-.92a4.8 4.8 0 01-2.47-2.4 3.77 3.77 0 010-2.89c.73-1.83 2.76-3.28 5.33-3.3a7.92 7.92 0 014.47 1.2zm20.91-.15a8 8 0 11-5.2 14.7l-.67.75A9.01 9.01 0 1039.27 19l.6 1.05z" fill="#1B4A75"/></svg>