<!-- by TradingView --><svg xmlns="http://www.w3.org/2000/svg" width="56" height="56"><path fill="url(#aq05sceht)" d="M0 0h56v56H0z"/><path d="M42 16.68L32.5 14H14v.32L23.33 17H42v-.32zM32.5 20l9.5 2.55V23H23.33L14 20.45V20h18.5zm0 6l9.5 2.55V29H23.33L14 26.45V26h18.5zm0 6l9.5 2.55V35H23.33L14 32.45V32h18.5zm9.5 8.68L32.5 38H14v.47L23.33 41H42v-.32z" fill="#fff"/><defs><linearGradient id="aq05sceht" x1="10.42" y1="9.71" x2="68.15" y2="76.02" gradientUnits="userSpaceOnUse"><stop stop-color="#1A1E21"/><stop offset="1" stop-color="#06060A"/></linearGradient></defs></svg>