<!-- by TradingView --><svg width="56" height="56" xmlns="http://www.w3.org/2000/svg"><path fill="#F0F3FA" d="M0 0h56v56H0z"/><path d="M32 37l5-25L19 11 21 37h11zM20 48l-1-9 18 3-17 6z" fill="#F51D26"/><path d="M16.24 12.674l6.934 29.91.65-.194-5.435-26.35 6.218-1.237-8.367-2.129z" fill="#63B938"/><path d="M25.064 8l2.4 33.777.719.223-1.395-30.628 6.954-1.247L25.064 8z" fill="#FFD506"/><path d="M30 15l-.266 27.406.686.213.865-24.216 6.198-1.246L30 15z" fill="#7A3997"/><path d="M33.712 21.988L31.85 43.001l.655.182 2.024-17.78L40 24.162l-6.288-2.175z" fill="#0089CC"/><path d="M16 27l5.133 16 .614-.239-3.681-12.49 4.434-1.196L16 27z" fill="#F9A818"/><path d="M21.752 18.66L25.266 42l.68-.204-2.471-19.759 5.605-1.232-7.328-2.146z" fill="#2BBEF1"/></svg>