<!-- by TradingView --><svg width="56" height="56" xmlns="http://www.w3.org/2000/svg"><path fill="#F0F3FA" d="M0 0h56v56H0z"/><path d="M28.157 33.096c2.668-2.203 4.005-5.162 4.127-6.066 2.318 2.178 6.7 6.891 5.724 8.864-.977 1.974-6.064 7.218-8.41 9.328.841-.808 2.457-3.033 2.197-5.467-.26-2.426-2.606-5.366-3.628-6.647l-.01-.012z" fill="#FBB416"/><path d="M15.028 27.725c-.065-3.223 2.02-7.302 3.225-8.931-.844 2.271.732 4.644 2.096 6.327 1.365 1.683 3.711 3.964 6.279 6.368 1.561 1.462 2.578 2.404 3.788 3.956 1.21 1.551 2.015 4.497 1.19 6.688-.826 2.19-3.441 4.824-4.645 5.867 2.602-3.888-8.198-11.324-10.084-14.107-.79-1.167-1.784-2.946-1.85-6.168z" fill="#F26F24"/><path d="M24.382 15.442c-.078-2.833 3.173-6.214 5.005-7.442-.449 2.493.688 4.012 1.177 4.59 2.736 3.226 5.63 6.318 8.354 9.557 1.09 1.431 2.207 3.507 2.072 6.59-.134 3.081-2.288 6.496-3.372 7.8 0-8.914-12.98-11.795-13.236-21.095z" fill="#18457A"/></svg>