<!-- by TradingView --><svg width="56" height="56" xmlns="http://www.w3.org/2000/svg"><path fill="#005DAB" d="M0 0h56v56H0z"/><path d="M18.12 17.087c-3.347.601-5.726 3.8-5.308 7.12.14 1.132.48 1.995 1.883 4.774 1.394 2.754 1.725 3.59 1.873 4.662.34 2.466-1.272 4.81-3.146 4.592-1.036-.122-1.777-.889-2.09-2.152-.394-1.622-.026-3.578.295-5.185-.602.548-.887 1.142-1.115 1.935-.462 1.586-.67 4.322-.375 4.87.358.654 1.168 1.003 2.71 1.186 2.754.322 5.63-1.281 6.867-3.817.47-.976.627-1.769.566-2.867-.087-1.577-.531-2.805-1.917-5.297-.958-1.726-1.655-3.19-1.838-3.852-.218-.819-.262-2.074-.096-2.77.252-1.073.836-1.944 1.603-2.397.725-.417 1.978-.417 2.327.462.34.827.33 2.788-.035 4.644l-.157.802c.615-.381 1.009-1.065 1.228-1.743.236-.715.428-1.656.576-2.762.087-.654.078-.75-.079-1.055-.33-.653-1.403-1.141-2.623-1.193-.41-.018-.923 0-1.15.043z" fill="#fff"/><path d="M26.415 17.514c0 .837-.793 4.104-2.806 11.467-1.917 7.015-2.588 9.167-3.398 10.84-.427.889-.619 1.185-1.055 1.62-.67.663-1.028.785-2.16.724l-.785-.052.026.279c.026.252.061.279.593.427.706.209 2.274.244 2.962.07 1.133-.28 2.37-1.09 3.129-2.057 1.167-1.508 1.734-3.172 3.842-11.328 2.405-9.315 2.893-11.101 3.364-12.042.113-.227.226-.462.226-.462h-3.938v.514zM30.5 17c0 .009.088.261.175.523.305.854.366 2.021.445 8.391.078 6.091.174 9.08.348 10.953.053.506.114 1.185.148 1.508.027.322.079.61.122.627.14.096 1.273-1.856 2.388-4.095a172.302 172.302 0 002.449-5.272c.705-1.604 1.307-2.954 1.341-2.989.07-.078.175 3.381.175 5.55 0 1.438.113 3.312.27 4.54.14 1.098.366 2.31.427 2.31.148 0 2.788-4.828 3.817-6.971 1.263-2.65 1.768-3.817 2.614-6.056.854-2.275 1.359-4.052 1.62-5.76.27-1.708.148-2.327-.557-2.937-.21-.174-.401-.322-.436-.322-.026 0-.122.558-.2 1.237-.48 3.8-1.595 8.008-3.102 11.72-.924 2.283-1.081 2.64-1.15 2.64-.114 0-.21-3.738-.21-8.016 0-4.27.079-5.734.357-6.954.07-.305.157-.6.157-.627H37.69l.157.627c.252.985.348 2.475.244 3.66-.148 1.7-.532 3.146-1.447 5.472-.662 1.69-2.091 5.185-2.195 5.368-.105.183-.236-4.932-.227-8.679.009-3.024.349-5.411.67-6.448H30.5z" fill="#fff"/></svg>