<!-- by TradingView --><svg xmlns="http://www.w3.org/2000/svg" width="56" height="56"><path fill="url(#aj0ibe25d)" d="M0 0h56v56H0z"/><path d="M17 33.6V20.99c0-.18.1-.33.27-.38l1.7-.59a.4.4 0 01.53.38v8.14c0 .27.32.4.5.22l4.82-4.65a.4.4 0 01.28-.11h2.16c.27 0 .4.33.2.52l-4.32 4.17a.3.3 0 000 .42l4.35 4.38a.3.3 0 01-.21.51H25.1a.4.4 0 01-.29-.12l-3.25-3.28a.3.3 0 00-.43 0l-1.64 1.63v1.37a.4.4 0 01-.4.4h-1.7a.4.4 0 01-.4-.4zM7.6 24h7.35a.4.4 0 01.4.47l-.23 1.2a.4.4 0 01-.4.33H8.2a.7.7 0 00-.7.7v.6c0 .39.31.7.7.7h5.3a2 2 0 012 2v2a2 2 0 01-2 2H5.41a.4.4 0 01-.4-.46l.2-1.2a.4.4 0 01.4-.34h6.69a.7.7 0 00.7-.7v-.6a.7.7 0 00-.7-.7H7a2 2 0 01-2-2v-2c0-1.1.9-2 2-2h.6zm23.9 0H29v10h2.5V24zM29 21h2.5v2H29v-2zm6.5 0H33v13h2.5V21zm1.5 0h2.49v13h-2.5V21zm4.4 3h8.2c.22 0 .4.18.4.4v1.33c0 .1-.04.2-.1.27l-5.02 5.5a.3.3 0 00.22.5h4.5c.22 0 .4.18.4.4v1.2a.4.4 0 01-.4.4h-8.2a.4.4 0 01-.4-.4v-1.34c0-.1.04-.2.11-.28l5.19-5.47a.3.3 0 00-.22-.51H41.4a.4.4 0 01-.4-.4v-1.2c0-.22.18-.4.4-.4z" fill="#fff"/><defs><linearGradient id="aj0ibe25d" x1="6.7" y1="9.73" x2="46.26" y2="47.9" gradientUnits="userSpaceOnUse"><stop stop-color="#6E73EF"/><stop offset="1" stop-color="#A338E1"/></linearGradient></defs></svg>