<!-- by TradingView --><svg width="56" height="56" fill="none" xmlns="http://www.w3.org/2000/svg"><path fill="url(#paint0_linear_3186)" d="M0 0h56v56H0z"/><path fill-rule="evenodd" clip-rule="evenodd" d="M17 33.6V20.985a.4.4 0 01.27-.378l1.7-.586a.4.4 0 01.53.378v8.142a.3.3 0 00.508.216l4.815-4.645a.4.4 0 01.278-.112h2.157a.3.3 0 01.208.516l-4.326 4.17a.3.3 0 00-.005.429l4.357 4.373a.3.3 0 01-.213.512h-2.173a.4.4 0 01-.284-.118l-3.255-3.28a.3.3 0 00-.425-.001L19.5 32.23v1.37a.4.4 0 01-.4.4h-1.7a.4.4 0 01-.4-.4zM7.604 24h7.346a.4.4 0 01.393.474l-.225 1.2a.4.4 0 01-.393.326H8.2a.7.7 0 00-.7.7v.6a.7.7 0 00.7.7h5.3a2 2 0 012 2v2a2 2 0 01-2 2H5.412a.4.4 0 01-.395-.462l.19-1.2A.4.4 0 015.6 32H12.3a.7.7 0 00.7-.7v-.6a.7.7 0 00-.7-.7H7a2 2 0 01-2-2v-2a2 2 0 012-2h.604zm23.894-.003h-2.495v10h2.495v-10zM29.003 21h2.495v2h-2.495v-2zm6.492 0H33v13h2.495V21zm1.5-.003h2.495v13h-2.495v-13zM41.4 24h8.2c.22 0 .4.18.4.4v1.332a.4.4 0 01-.105.27l-5.015 5.496A.3.3 0 0045.1 32H49.6c.22 0 .4.18.4.4v1.2a.4.4 0 01-.4.4h-8.2a.4.4 0 01-.4-.4v-1.345a.4.4 0 01.11-.275l5.189-5.474a.3.3 0 00-.218-.506H41.4a.4.4 0 01-.4-.4v-1.2c0-.22.18-.4.4-.4z" fill="#fff"/><defs><linearGradient id="paint0_linear_3186" x1="6.699" y1="9.728" x2="46.265" y2="47.901" gradientUnits="userSpaceOnUse"><stop stop-color="#6E73EF"/><stop offset="1" stop-color="#A338E1"/></linearGradient></defs></svg>