<!-- by TradingView --><svg width="56" height="56" xmlns="http://www.w3.org/2000/svg"><path fill="#053E5E" d="M0 0h56v56H0z"/><path d="M5.35 26.104c-.493.125-.812.457-1.242 1.29-.657 1.274-.63 1.307 1.306 1.349.767.016 1.397 0 1.397 0 0 .165-.159.41-.21.574H4.884l-1.717-.025-.046.208s-.094.285-.122.36c-.064.142.104.14 2.314.14 3.095-.009 3.095 0 3.78-1.357.2-.4.365-.825.365-.941 0-.341-.439-.45-1.808-.45H6.395c-.088-.106.17-.46.23-.566H10l.087-.27c.11-.49.193-.412-2.199-.404-1.223 0-2.364.042-2.538.092zM10.655 26.32c-.128.416-1.655 3.377-1.808 3.53-.137.141-.082.15 1.141.15h1.297v-.209c0-.108.1-.4.21-.64.164-.334.31-.501.593-.651l.375-.174.064.233c.027.125.127.492.21.816l.18.625 3.789-.004h3.804l.224-.33s.217-.328.217-.336h-2.875s.166-.371.303-.63l.244-.452H21.2l.162-.292c.083-.191.15-.35.15-.374h-2.54c.028-.034.137-.305.247-.53l.2-.386h2.872s.016-.152.03-.25c.023-.162.046-.416.046-.416h-5.002s-.03.123-.063.295c-.034.172-1.133 2.472-1.562 3.238l-.182.333-.128-.208c-.155-.25-.858-2.222-.858-2.406 0-.116.456-.383 1.68-.974l.543-.278h-1.778s-.122.13-.208.203c-.888.754-2.41 1.549-2.566 1.549-.073 0 .576-1.24.777-1.499l.195-.253h-2.469l-.091.32zM23.702 26.129c-.694.2-.977.549-1.872 2.339-.393.782-.42 1.207-.091 1.398.191.117.536.13 2.317.13h2.106l.26-.354c.147-.192.284-.437.32-.479h-1.366s-1.412.042-1.412 0c0-.124.961-2.035 1.098-2.185.128-.142.274-.15 1.452-.125 1.178.025 1.305.025 1.305.025l.092-.333c.045-.183.11-.383.127-.441.055-.15-3.77-.134-4.336.025zM28.764 26.217c0 .2-1.72 3.333-1.912 3.533-.073.075-.18.24 0 .246l1.095.004c.737 0 1.086.022 1.15 0 .064-.023.075-.097.075-.15 0-.084.172-.483.373-.883l.365-.716h1.696c0 .1-.763 1.424-.891 1.558-.057.059-.215.191 0 .19h1.094c.723 0 1.123.016 1.191 0 .109-.025.106-.103.106-.182 0-.2 1.663-3.52 1.706-3.588.044-.07.274-.229 0-.229H33c-.5 0-.422.217-.422.217-.027.133-.23.494-.385.802l-.287.533h-.816c-.448 0-.815.017-.815 0 0-.116.768-1.335.768-1.335s.238-.212-.043-.217c-.193-.004-.33.004-1.136.004C29 26 29.5 26 29 26c-.26 0-.236.217-.236.217zM35.297 26.229c-.064.308-1.616 3.354-1.79 3.53-.063.066-.101.241-.007.241h4.947l.228-.317c.128-.166.25-.341.268-.366.01-.025-.794 0-1.455 0h-1.46l.09-.183c.046-.117.174-.367.275-.558l.17-.308H39.133l.172-.333c.11-.191.192-.366.192-.375 0-.008-.584-.008-1.288.009 0 0-1.287.023-1.241-.069.018-.058.118-.29.2-.48l.147-.334h1.424l1.397.025.091-.291c.055-.158.092-.345.092-.387 0-.033-1.123-.03-2.502-.03H35.5c-.203 0-.203.226-.203.226zM41.227 26c-.403 0-.325.177-.339.222-.159.524-1.436 3.177-1.755 3.606-.133.172 0 .172 0 .172h1.14c.69 0 1.098.01 1.133 0 .082-.023.1-.1.1-.15 0-.075.145-.466.328-.874l.338-.725h.338c.392 0 .338-.116.511 1.266l.055.483h2.42l-.165-.775c-.21-.99-.21-.974.055-.974.484 0 .776-.233 1.095-.857.43-.84.446-.978.263-1.186 0 0-.182-.208-.456-.208H41.226zm3.291.711c0 .059-.082.325-.182.516l-.174.358H42.51l.493-.915h.758c.547 0 .757-.017.757.041zM48.205 26.042c-.53.141-.875.478-1.276 1.252-.694 1.332-.63 1.407 1.305 1.44.767.017 1.432-.003 1.432.013 0 .025-.099.212-.181.345l-.139.233-1.706.005h-1.718l-.043.178c-.165.525-.31.492 2.227.492 3.04-.009 3.105-.025 3.817-1.49.557-1.15.429-1.258-1.489-1.258-1.35 0-1.405-.025-1.113-.4.146-.19.162-.186 1.797-.186h1.663l.11-.313L53 26l-2.31.004c-1.27 0-2.35-.004-2.486.038z" fill="#fff"/></svg>