<!-- by TradingView --><svg width="56" height="56" fill="none" xmlns="http://www.w3.org/2000/svg"><path fill="#F0F3FA" d="M0 0h56v56H0z"/><path fill-rule="evenodd" clip-rule="evenodd" d="M28.883 20l-.834 4.63c-.334 1.852-1.28 2.37-3.276 2.37-2.723 0-2.887-.704-2.586-2.37L23.02 20h1.815l-.827 4.593c-.141.787.292.796 1.055.796.771 0 1.046-.065 1.193-.88L27.068 20h1.815z" fill="#009CC0"/><path fill-rule="evenodd" clip-rule="evenodd" d="M28.577 36H26.77l1.244-7h1.806l-1.244 7zM31.45 34.423h2.83L33.99 36h-4.638l1.246-7h1.808l-.957 5.423zM36.32 36h-1.806l1.244-7h1.806l-1.244 7zM43.69 33.336l-.037.202c-.138.753-.27 1.433-.987 1.957-.715.514-1.47.505-2.265.505-1.863 0-3.206-.092-2.746-2.61l.325-1.781C38.396 29.33 39.67 29 41.68 29c1.88 0 2.72.193 2.38 2.26l-.049.266h-1.88l.048-.266c.049-.616-.372-.661-.992-.661-1.041 0-1.2.321-1.38 1.304l-.196 1.075c-.188 1.029-.215 1.423.88 1.423.759 0 1.134-.055 1.281-.863l.038-.202h1.88zM47.611 30.36h-.018l-1.354 3.14 1.671.008-.299-3.149zM45.582 35l-.482 1h-1.904l3.26-7h2.733L50 36h-1.88L48 35h-2.418z" fill="#B0BA25"/><path fill-rule="evenodd" clip-rule="evenodd" d="M17.983 21H7.5L7 20h11.479l-.496 1zm-.002 14H7.498L7 36h11.479l-.498-1zm-1.171-1.508c-2.206-1.637-3.426-2.884-3.88-5.405 2.284.792 3.71 2.913 3.88 5.405zm-8.202.04c.158-2.312 1.73-4.797 4.073-5.46-.491 2.535-1.607 4.107-4.073 5.46zm.064-11.028c2.304 1.287 3.411 2.712 3.933 5.06-2.145-.614-3.742-2.852-3.933-5.06zm8.14.055c-.252 2.28-1.744 4.283-3.81 4.985.505-2.3 1.754-3.444 3.81-4.985zm.41-.559c0 2.5-1.514 4.937-3.79 5.825 2.471.926 3.824 3.175 3.824 6.175H8.182c0-2.5 1.488-5.272 3.918-6.169C9.815 26.995 8.25 24.41 8.22 22h9.001z" fill="#231F20"/><path d="M24.222 31.756c2.002.147 2.458.404 2.17 1.984l-.01.05c-.205 1.122-.403 2.21-3.375 2.21-1.666 0-2.793-.034-2.534-2h1.77c-.005.441.287.493 1.04.493.859 0 1.152-.055 1.258-.634.107-.581.012-.588-.779-.639l-.063-.004-.398-.027-.186-.013c-1.555-.109-2.458-.172-2.11-2.072.36-1.975 1.49-2.104 3.282-2.104 1.5 0 2.774.028 2.426 1.93L26.7 31h-1.767c.03-.493-.273-.493-.921-.493-.988 0-1.107.202-1.178.587-.1.55.16.57.636.607h.003l.749.055z" fill="#B0BA25"/><path d="M32.424 22.756c2.01.147 2.463.404 2.178 1.984l-.01.06c-.274 1.514-.398 2.2-3.387 2.2-1.662 0-2.715-.274-2.537-2h1.769c-.004.442.289.493 1.044.493.863 0 1.157-.055 1.264-.633.106-.583.012-.589-.783-.64l-.063-.004-.399-.027-.186-.013c-1.562-.109-2.468-.172-2.12-2.072C29.558 20.129 30.692 20 32.49 20c1.505 0 2.784.028 2.435 1.929l-.013.071H33.14c.03-.494-.275-.494-.926-.494-.991 0-1.11.202-1.182.588-.1.55.16.57.638.606h.004l.751.056z" fill="#009CC0"/></svg>