<!-- by TradingView --><svg width="56" height="56" xmlns="http://www.w3.org/2000/svg"><path fill="#0E3846" d="M0 0h56v56H0z"/><path d="M36.639 42.401c-.282-.333-.954-.925-1.493-1.315l-.981-.71.853-.601c.47-.33.934-.602 1.033-.602.328 0 1.349 2.685 1.355 3.564.002.43-.191.344-.767-.336zM24.624 42.183c-2.299-.403-4.91-1.58-6.434-2.9l-.683-.592 1.11.35c1.278.402 4.297.486 5.675.158.805-.192.81-.191 2.05.62 1.323.864 2.573 1.43 3.55 1.606.368.067.127-.078-.631-.38-1.255-.497-3.323-1.838-3.244-2.101.025-.08.733-.39 1.575-.686 2.854-1.007 5.147-2.352 7.007-4.11 1.173-1.109 1.983-2.079 2.387-2.856.43-.826.503-.383.093.557-.871 1.994-2.75 4.107-4.892 5.5-.605.393-1.1.786-1.1.874 0 .087.423.672.94 1.3.516.628.939 1.182.939 1.231 0 .63-1.74 1.09-2.14 1.17-.612.122-4.48.56-6.202.259zM39.764 39.338a10.927 10.927 0 00-1.666-.78c-.474-.166-.863-.37-.863-.452 0-.156 1.169-1.494 1.382-1.582.235-.097 1.186 1.067 1.788 2.188.68 1.27.586 1.36-.641.626z" fill="#FFB926"/><path d="M19.25 38.591c-2.995-.614-4.3-1.828-5.492-5.111-.385-1.058-.407-1.21-.147-.984 1.036.895 3.061 1.375 5.422 1.285l1.526-.058.694.992c.382.545 1.247 1.613 1.923 2.372 1.225 1.375 1.228 1.38.769 1.478-1.13.24-3.585.254-4.694.026zM24.082 37.208c-1.082-1.156-2.823-3.535-2.686-3.67.042-.041.623-.224 1.292-.406 2.48-.674 5.616-2.193 7.675-3.718 2.306-1.707 3.836-3.394 5.029-5.546.531-.959.652-1.097.577-.66-.138.806-1.197 2.795-2.184 4.104-1.173 1.554-3.456 3.592-5.103 4.553l-1.367.799.462.781c.254.43.837 1.33 1.297 2.002l.835 1.221-.948.412c-.818.355-2.155.806-3.449 1.164-.292.08-.576-.126-1.43-1.036zM42.22 35.726c-.407-.126-1.195-.28-1.751-.34-.557-.063-1.012-.153-1.012-.2 0-.264.922-1.882 1.072-1.882.385 0 2.545 1.794 2.876 2.39.2.359-.098.367-1.186.032z" fill="#FFB926"/><path d="M15.666 32.809c-.542-.17-1.261-.516-1.598-.768-.973-.728-1.146-1.343-1.04-3.684.05-1.107.169-2.211.265-2.454l.175-.441.869.422c.569.276 1.269.45 2.029.503l1.16.082.468 1.53c.257.843.825 2.273 1.263 3.178.663 1.37.754 1.672.547 1.8-.438.272-3.076.165-4.138-.168zM20.452 32.071c-.894-1.57-2.17-4.794-2.174-5.495-.002-.2.221-.301.831-.38.933-.122 2.676-.684 4.177-1.348 2.544-1.124 5.864-3.949 6.865-5.84.513-.971.88-1.287.682-.587-.457 1.613-2.17 4.009-3.867 5.407-.72.593-2.632 1.811-3.112 1.983-.123.043.286 1.012 1.084 2.566a631.562 631.562 0 011.331 2.6c.108.229-4.465 1.824-5.227 1.824-.096 0-.361-.329-.59-.73zM40.886 31.446c.064-.316.164-.859.22-1.207.09-.544.155-.62.466-.537.65.172 3.243 1.501 3.304 1.693.04.126-.515.215-1.697.273-.967.047-1.905.145-2.084.218-.295.12-.315.078-.209-.44zM41.254 28.063c-.179-.532-.162-1.972.025-2.042.275-.104 2.254.185 3.048.444.96.314.897.54-.213.772a9.599 9.599 0 00-1.839.62c-1.003.485-.932.47-1.02.206z" fill="#FFB926"/><path d="M15.799 25.647c-.855-.178-1.964-.797-1.964-1.096 0-.472.934-2.395 1.725-3.55.838-1.222 2.6-2.991 3.902-3.767l.59-.35.706 2.047a58.262 58.262 0 001.407 3.64c.64 1.456.675 1.612.417 1.807-.372.281-3.2 1.165-3.96 1.238-.585.057-.598.044-.796-.78-.25-1.043-.291-4.165-.066-4.938.093-.316.136-.607.096-.646-.04-.039-.2.359-.355.884-.29.98-.39 4.264-.156 5.176.109.427.086.445-.545.426a7.508 7.508 0 01-1.001-.09zM40.308 23.572c-.212-.557-.353-1.044-.313-1.082.04-.04.766-.162 1.614-.273 1.452-.19 2.46-.13 2.46.148 0 .067-.357.308-.792.535-.435.226-1.157.698-1.604 1.048-.448.35-.85.635-.896.635-.046 0-.257-.455-.469-1.011zM38.594 20.433c-.324-.438-.611-.846-.64-.906-.071-.153 1.6-.908 2.529-1.142.423-.107.903-.232 1.067-.28.507-.143.335.225-.494 1.062-.437.441-.985 1.086-1.219 1.432-.234.347-.477.63-.54.63-.063 0-.38-.358-.703-.796zM36.124 17.843c-.468-.368-.874-.728-.902-.801-.073-.192 1.622-1.481 2.57-1.954.446-.222.811-.322.811-.222s-.206.527-.457.949c-.251.42-.617 1.2-.813 1.731l-.356.966-.853-.669zM32.838 15.899c-.494-.236-.897-.522-.897-.636 0-.43 2.215-2.91 2.605-2.919.176-.003.16.131-.114 1.018-.13.423-.292 1.272-.36 1.887-.066.614-.17 1.109-.23 1.098-.059-.011-.511-.213-1.004-.449zM20.835 15.628c-.272-.75-.428-3.38-.208-3.514.1-.06.404.283.687.773.28.484.82 1.226 1.201 1.648l.693.769-1.092.421-1.092.422-.189-.52zM24.472 14.738c-.19-.487.496-3.738.79-3.738.066 0 .296.547.512 1.216.215.668.541 1.47.724 1.782.182.311.304.593.27.627-.035.034-.544.126-1.133.205-.86.115-1.089.097-1.163-.092zM29.056 14.844c-.412-.08-.778-.173-.813-.207-.256-.252 1.429-3.637 1.81-3.637.077 0 .15.63.164 1.399.013.769.099 1.655.19 1.969.092.314.167.59.167.614 0 .077-.754.009-1.518-.138z" fill="#FFB926"/></svg>