<!-- by TradingView --><svg xmlns="http://www.w3.org/2000/svg" width="56" height="56"><path fill="url(#aggiewdjh)" d="M0 0h56v56H0z"/><path d="M28.06 13L49 17.41v21.36L28.06 43 7 38.77V17.4L28.06 13zM9 19.03v18.1l19.06 3.83L47 37.13v-18.1l-18.94-3.99-19.06 4z" fill="#E5415F"/><path fill-rule="evenodd" d="M25 17.94V28h2v-4h4v-6.06l-3-.58-3 .58zm4 1.51V22h-2v-2.55h2zM18 28v-8.67l2-.39V26h2v-7.47l2-.39V28h-6zm-1-8.46v3.97h-2v-1.5l-1.64.29v.7L17 25v3h-6v-2.46h2v.85h2v-.68l-4-2.09v-2.87l6-1.2zM32 28v-9.86l6 1.2v2.16l-3.46-.61v2H38v1.7h-3.46V26H38v2h-6zm7 0v-8.49l6 1.24V25h-1.19L45 28h-2.16l-1.1-3H41v3h-2zm2-4.46v-1.7l2 .38v1.32h-2zm-30 11.7V30h2v3.63l2 .4v2.02l-4-.8zM15.75 30v6.18l5 .99v-1.78l-3-.59v-.83l2.68.35v-1.5l-2.68-.32v-.93l3 .14V30h-5zm11.75 0v8.5L25 38v-2.16l-1.5-.24v2.1l-2-.39v-5.05L23.12 30h4.38zm-4 2.04v1.83l1.5.17v-2h-1.5zm11-2.04h-6v8.47l6-1.17v-4.26l-2.5.16V35h.5v.69l-1.5.23v-3.73l3.5-.2V30zm.75 7.15V30h1.98v5.03l1.18-.2V30h1.84v2.68l-.83.91.83-.1v.53l-1.7 2.4 1.7-1.88v1.65l-5 .96zm9.75-5.8V30h-4v1.82l1.61-1.65L41 32.35v.53l.87-.07-.87.86v2.37l4-.77v-1.35l-2.05.33v-.7l1.91-.21v-1.19l-1.91.12v-.8l2.05-.12z" fill="#fff"/><defs><linearGradient id="aggiewdjh" x1="1.25" y1="21.38" x2="52.76" y2="39.75" gradientUnits="userSpaceOnUse"><stop stop-color="#610E48"/><stop offset="1" stop-color="#00086E"/></linearGradient></defs></svg>