<!-- by TradingView --><svg width="56" height="56" fill="none" xmlns="http://www.w3.org/2000/svg"><path fill="#F0F3FA" d="M0 0h56v56H0z"/><path fill-rule="evenodd" clip-rule="evenodd" d="M26.738 39.21c6.888 0 12.472-5.584 12.472-12.472s-5.584-12.472-12.472-12.472-12.472 5.584-12.472 12.472S19.85 39.21 26.738 39.21zm0 2.672c8.364 0 15.144-6.78 15.144-15.144s-6.78-15.144-15.144-15.144-15.144 6.78-15.144 15.144 6.78 15.144 15.144 15.144z" fill="#726038"/><path opacity=".8" fill-rule="evenodd" clip-rule="evenodd" d="M25.996 41.734c6.818 0 12.323-5.497 12.323-12.25 0-6.752-5.505-12.248-12.323-12.248-6.819 0-12.323 5.496-12.323 12.249 0 6.752 5.504 12.249 12.323 12.249zm0 2.672c8.282 0 14.995-6.68 14.995-14.921s-6.713-14.922-14.995-14.922S11 21.243 11 29.485c0 8.24 6.714 14.921 14.996 14.921z" fill="#FFE38D"/><path opacity=".8" fill-rule="evenodd" clip-rule="evenodd" d="M29.856 40.991c6.888 0 12.471-5.584 12.471-12.471 0-6.888-5.583-12.472-12.471-12.472S17.384 21.632 17.384 28.52c0 6.887 5.584 12.471 12.472 12.471zm0 2.673C38.22 43.664 45 36.884 45 28.52s-6.78-15.144-15.144-15.144-15.144 6.78-15.144 15.144c0 8.363 6.78 15.144 15.144 15.144z" fill="#F99638"/></svg>