<!-- by TradingView --><svg xmlns="http://www.w3.org/2000/svg" width="56" height="56"><path fill="#F0F3FA" d="M0 0h56v56H0z"/><ellipse cx="29.45" cy="15" rx="2.27" ry="3" fill="#223472"/><path d="M26.71 30.4h7.97l-.35.6H26.7v-.6zm-1.97 2h9l-.4.6h-8.6v-.6zm-1.81 2h9l-.4.6h-8.6v-.6zm-.63 2h7.63l-.33.6h-7.3v-.6z" fill="#1FA7E1"/><path d="M28.08 19.68C22.03 14.94 21 10.55 21 9v4.32c0 2.48 1.14 6.97 5.95 10.34 3.84 2.7 6.54 5.7 7.4 6.86 0 .67-1.04 2.79-5.19 5.98-4.15 3.18-5.19 6.27-5.19 7.41V49c.11-1 1.08-4.81 5.95-8.58 3.9-3 5-6.27 5.08-7.52v-4.7c0-1.02-.86-3.79-6.92-8.52z" fill="url(#am3hsk54p)"/><path d="M27.84 24.77c4.86-3.87 6.13-7.53 6.16-8.88v5.58c0 3.27-2.84 6.07-4.26 7.06-5.37 3.74-7.44 8-7.73 9.67v-5.86c-.13-.91.97-3.7 5.83-7.57z" fill="url(#bm3hsk54p)"/><path d="M29.91 28.4h3.55a.3.3 0 110 .6h-4.38l.83-.6z" fill="#1FA7E1"/><defs><linearGradient id="am3hsk54p" x1="28" y1="9" x2="28" y2="49" gradientUnits="userSpaceOnUse"><stop stop-color="#0480C8"/><stop offset=".15" stop-color="#007EC8"/><stop offset=".46" stop-color="#243574"/><stop offset=".61" stop-color="#017DC5"/><stop offset="1" stop-color="#213470"/></linearGradient><linearGradient id="bm3hsk54p" x1="33.48" y1="16.96" x2="22.49" y2="37.78" gradientUnits="userSpaceOnUse"><stop stop-color="#00B5EE"/><stop offset="1" stop-color="#008BD0"/></linearGradient></defs></svg>