<!-- by TradingView --><svg width="56" height="56" xmlns="http://www.w3.org/2000/svg"><path fill="#3F386A" d="M0 0h56v56H0z"/><path d="M11.86 19.232c-2.208.705-3.693 2.394-3.841 4.361-.093 1.262.148 2.097.89 3.118.743 1.02 2.34 1.763 5.308 2.43 4.046.929 4.714 1.337 4.714 3.007 0 1.596-1.3 2.654-3.248 2.635-2.536-.021-4.077-1.47-4.683-3.783H7.998L8 37h3v-1.295c2.519 1.117 5.81 2.033 8.45.804 2.19-1.002 3.36-2.987 3.137-5.307-.167-1.967-1.28-3.34-3.23-4.083-.537-.204-2.17-.668-3.618-1.02-3.786-.947-4.526-1.808-4.008-3.211.39-1.058 1.243-1.522 2.728-1.522 1.813 0 4.117.702 4.541 2.634h3v-5h-3v1.744c-.074-.037-1.22-.825-1.832-1.14-1.493-.747-3.71-.904-5.307-.372zM25 21h2l-.002 14H25v2h7v-2h-2V22.984L35 34h3l5-11v12h-2v2h7v-2h-2V21h2v-2h-7l-4.5 10.5S33.055 21.683 32 19h-7v2z" fill="#fff"/></svg>