<!-- by TradingView --><svg width="56" height="56" xmlns="http://www.w3.org/2000/svg"><path fill="#003059" d="M0 0h56v56H0z"/><path d="M20.032 25.876s1.407-2.045 3.3-2.1c2.922-.056 5.303 5.307 5.682 6.08C32.261 22.45 37.671 16.203 42 12H15v30.5c0 1.658-.216 2.875-.325 3.428 1.19-.166 6.006-.923 10.551-2.582 8.117-2.985 11.309-6.136 11.309-6.191l.216-.222.109.277s1.028 2.322 2.002 3.538c1.136 1.327 1.731 1.493 2.056 1.382.433-.166.757-.885.865-2.156.109-1.216.217-4.036.217-7.408V14.377c-7.792 9.84-13.581 24.657-13.581 24.657s-3.842-13.268-8.387-13.158z" fill="#fff"/></svg>