<!-- by TradingView --><svg width="56" height="56" xmlns="http://www.w3.org/2000/svg"><path fill="#008341" d="M0 0h56v56H0z"/><path d="M17.575 13.56c-.904.907-2.386 4.267-3 6.754-.76 2.89-.76 8.904-.037 12.028.76 3.293 2.459 6.485 4.267 7.997 1.41 1.176 1.482 1.21 2.17.639.94-.773 2.639-4.2 3.253-6.519.76-2.755.651-10.685-.144-13.406-.832-2.856-2.206-5.309-3.797-6.854-1.482-1.412-1.88-1.512-2.712-.639zM33.413 20.549c-1.627.773-3.942 3.024-4.81 4.637-1.59 2.956-1.916 6.988-.614 7.492 1.519.504 5.46-2.99 6.834-6.081.795-1.747 1.085-4.536.615-5.678-.434-1.042-.579-1.076-2.025-.37zM36.305 32.914c-4.592.974-8.533 2.956-11.245 5.644-1.808 1.781-3.001 3.764-2.495 4.234.145.134 1.989.235 4.086.201 3.327 0 4.267-.168 6.581-.974 4.918-1.713 8.931-4.57 10.377-7.425.434-.84.507-1.244.217-1.512-.65-.605-5.098-.672-7.52-.168z" fill="#fff"/></svg>