<!-- by TradingView --><svg width="56" height="56" xmlns="http://www.w3.org/2000/svg"><path fill="#25468A" d="M0 0h56v56H0z"/><path d="M9.74 33.724c-.08.192-.144.304-.304.304s-.224-.112-.304-.304L5.12 24.119C4.703 23.111 4 23.527 4 23.175c0-.095.064-.175.192-.175H9.18c.24 0 .352.032.352.16 0 .303-.975.128-.975.895 0 .304.256.86 2.238 5.864h.032c1.391-3.534 1.918-4.489 1.918-5.224 0-1.599-1.374-1.103-1.374-1.52 0-.127.064-.175.271-.175h3.406c.144 0 .256.032.256.128 0 .416-1.167-.064-2.079 2.174L9.74 33.724zm7.244-6.3c0-.511-.067-.655-.387-.655-.511 0-.895.272-.895.751 0 .368.064.768.064 1.151 0 .72-.496 1.232-1.359 1.232-.88 0-1.231-.384-1.231-.976 0-1.279 2.35-2.542 4.429-2.542 1.758 0 2.382.72 2.382 2.014l-.065 4.63c0 .192.096.305.272.305.431 0 .495-.576.735-.576.08 0 .144.08.144.143 0 .16-.544 1.327-2.254 1.327-1.04 0-1.596-.384-1.788-1.023-.863.688-1.522 1.023-2.321 1.023-1.343 0-1.887-.767-1.887-1.455 0-1.247.9-1.96 4.161-3.11v-2.239zm0 2.574c-.991.4-1.251 1.392-1.251 1.912 0 .863.24 1.327.655 1.327.272 0 .387-.192.53-.335l.066-2.904zm21.793-3.613c2.047 0 3.182 1.375 3.182 2.414 0 .912-.544 1.327-1.247 1.327-.656 0-1.215-.463-1.215-1.327 0-.511.096-1.04.096-1.359 0-.527-.32-.767-.8-.767-.767 0-1.374 1.023-1.374 2.238 0 2.143 1.279 3.566 2.494 3.566 1.63 0 1.55-1.039 1.902-1.039.112 0 .144.064.144.16 0 .416-.96 2.606-3.582 2.606-1.726 0-3.549-1.567-3.549-3.902 0-2.286 1.95-3.917 3.949-3.917zM46 33.025c0 .783.927.48.927.815 0 .08-.032.16-.175.16h-4.503c-.144 0-.176-.08-.176-.16 0-.336.927-.032.927-.815v-9.038c0-.8-.991-.591-.991-.896 0-.367 1.241.049 3.991-.99v10.924zm.436-3.154c1.439-1.232 1.79-1.551 1.79-2.095 0-1.103-.927-.8-.927-1.151 0-.112.08-.144.224-.144 1.092 0 2.187-.016 3.28-.016.191 0 .256.064.256.16 0 .32-1.106 0-2.672 1.742l2.558 4.674c.463.8 1.055.431 1.055.8 0 .127-.08.159-.4.159h-3.965c-.16 0-.256-.032-.256-.176 0-.256.544-.096.544-.56 0-.24-.16-.527-.304-.815l-1.183-2.578zm-12.612-4.458c.034.097.177.071.176-.031l-.021-2.33c0-.001 0-.011-.005-.022a.054.054 0 00-.05-.03c-2.887.024-5.14 0-8.027 0-.176 0-.24.048-.24.192 0 .511 1.343-.096 1.343 1.023v1.133c0 .1.099.172.192.137.28-.104.58-.162.894-.162.725 0 1.184.303 1.667.794.091.091.247.024.247-.104v-2.48c0-.082.067-.148.149-.145 1.137.039 2.428.25 3.221 1.206.25.301.376.597.454.82zM26.377 34c-.144 0-.176-.08-.176-.16 0-.336.8-.032.8-.815v-4.69c0-.703-.369-.959-.752-.959-.343 0-.913.304-1.249.624v5c0 .783.8.48.8.815 0 .08-.032.16-.176.16h-4.375c-.144 0-.176-.08-.176-.16 0-.335.927-.032.927-.815v-4.744c0-1.087-1.055-.896-1.055-1.2 0-.255 1.29.033 4.055-.67v1.102c1.12-.863 1.686-1.103 2.566-1.103 1.599 0 2.434.991 2.434 2.382v4.258c0 1.15 1.671.396 2.183.142.786-.39 1.415-.83 1.713-1.685.033-.097.176-.072.176.03l-.01 2.43c0 .002 0 .012-.005.022a.055.055 0 01-.05.03l-7.63.006z" fill="#fff"/><path d="M32.213 29.878c.028.195.028.377.187.377.086 0 .143-.024.143-.158v-3.986c0-.134-.057-.158-.143-.158-.159 0-.159.182-.187.377-.112.729-.815 1.35-1.765 1.513a.057.057 0 00-.05.065c.012.118.017.164.03.258.002.023.022.04.048.046.914.175 1.603.8 1.737 1.666z" fill="#fff"/></svg>