<!-- by TradingView --><svg width="56" height="56" xmlns="http://www.w3.org/2000/svg"><path fill="#F2641E" d="M0 0h56v56H0z"/><path d="M10 25v-.064C10 24 9.244 23 7.837 23c-1.337 0-2.224.733-2.224 1.836 0 .91.599 1.257 1.33 1.514.785.282 1.376.475 1.376.983 0 .394-.358.652-.91.652-.653 0-.98-.381-.98-.977V27H5.009C5 27.048 5 27.08 5 27.105c0 1.4 1.042 2.008 2.286 2.008 1.182 0 2.433-.54 2.433-1.941 0-1.168-.777-1.579-1.92-1.901-.295-.08-.8-.177-.8-.588 0-.346.318-.572.808-.572.552 0 .77.365.832.889h1.36zM15.5 27h-1.446c-.164.684-.51.937-1.093.937-.668 0-1.057-.636-1.057-1.506 0-.934.435-2.215 1.508-2.215.638 0 .933.331.933.784h1.4v-.129c0-1.256-.894-1.871-2.278-1.871-1.89 0-3.009 1.538-3.009 3.447 0 1.619.886 2.69 2.402 2.69 1.423 0 2.36-.695 2.64-2.137zM21.954 23H20.5l-.54 2.352h-1.928l.54-2.352h-1.454l-1.286 6h1.454l.49-2.368h1.92L19.214 29h1.454l1.286-6zM27.71 23h-1.4l-.563 2.529a30.492 30.492 0 00-.233 1.482c-.101-.37-.218-.741-.35-1.104L24.319 23h-1.454l-1.293 6h1.407l.49-2.432c.085-.435.171-.902.218-1.337.077.354.233.797.342 1.103l.98 2.666h1.414l1.286-6zM32.98 23h-4.393l-1.174 6h4.462l.257-1h-3.025l.234-1.376h2.744l.233-1.16h-2.787L29.776 24h2.962l.241-1zM35.454 23H34l-1.288 6h1.454l1.288-6zM36.354 23l-1.174 6h2.262c1.089 0 1.913-.12 2.667-1.031.498-.596.785-1.732.785-2.61 0-1.079-.497-1.916-1.298-2.198-.52-.177-1.205-.161-1.765-.161h-1.477zm1.477 1h.669c.879 0 .933.49.933 1.48 0 .677-.288 1.884-.716 2.222-.295.233-.56.298-1.212.298H37l.831-4zM46.654 23h-4.393l-1.174 6h4.463l.257-1h-3.025l.233-1.376h2.745l.233-1.16H43.25L43.5 24h2.913l.241-1zM47.545 23L46 29h1.5l.5-2h1.069c.606 0 .847.01.847.655 0 .314-.039.636-.039.95 0 .17.016.282.047.395h1.43c-.054-.153-.07-.266-.07-.548 0-.636.024-.853.024-.998 0-.564-.086-.886-.583-1.12.77-.105 1.275-1.007 1.275-1.86 0-.75-.358-1.24-1.026-1.386-.272-.064-.552-.088-1.003-.088h-2.426zm1.205 1h.94c.42 0 .848.232.848.747 0 .717-.567 1.253-1.112 1.253h-1.174l.498-2zM4 34l.537-3H23.07l-.269 2.333L25.032 31H51l-.537 3H4z" fill="#fff"/></svg>