<!-- by TradingView --><svg width="56" height="56" xmlns="http://www.w3.org/2000/svg"><path fill="#FF9E18" d="M0 0h56v56H0z"/><path d="M20.16 27h-4.32c-.48 0-.84.32-.84.748v13.504c0 .392.36.748.84.748h4.32c.48 0 .84-.32.84-.748V27.748c0-.427-.36-.748-.84-.748z" fill="#fff"/><path d="M24.302 31H11.698a.72.72 0 00-.698.714v3.572c0 .393.3.714.698.714h12.604a.72.72 0 00.698-.714v-3.572c0-.393-.3-.714-.698-.714z" fill="#fff"/><path d="M41.193 13h-4.407c-.404 0-.786.331-.786.773v18.286L22.367 13.846c-.514-.699-.844-.846-1.835-.846h-4.76a.776.776 0 00-.77.773v9.46c0 .404.33.767.771.767h4.453c.403 0 .77-.326.77-.767v-2.838l14.472 19.648c.514.7 1.028.957 1.945.957h3.817c.403 0 .77-.368.77-.81V13.773c-.036-.442-.367-.773-.807-.773z" fill="#fff"/></svg>