<!-- by TradingView --><svg width="56" height="56" xmlns="http://www.w3.org/2000/svg"><path fill="#ED1C24" d="M0 0h56v56H0z"/><path fill-rule="evenodd" d="M35.647 38.829l1.637-1.63 1.524 1.63h-2.032v1.688h2.145v1.223h-2.145v1.746h2.032L37.284 45l-1.637-1.746v-4.425zm-4.402 0l1.693-1.63 1.58 1.63v4.425l-1.072 1.222-1.185-1.28h1.242v-4.25h-1.299V45h-.959v-6.171zm-4.515.058l1.637-1.688 1.636 1.63v4.54L28.31 45l-1.58-1.63v-4.483zm-10.39.246c.633.434 3.734 2.813.626 5.809H12l2.032-1.805s.988.35 1.89-.611c0 0 .65-1.281-.197-1.95 0 0-.678-.816-1.976-1.514 0 0-1.862-.873-1.072-3.61 0 0 .565-4.192 5.644-6.462l.298-.111c.153-.006-3.74 2.672-4.587 6.398 0 0-.254.845 0 2.009 0 0 0 .786.988 1.31 0 0 .874.378 1.157.437l.163.1zM19.957 45h1.13V13.329l-1.13 1.047V45zm1.976-31.733V45h1.185l.002-13.041v-.524L24.473 45h1.072V11.99h-1.072s-.029 14.787 0 14.787L22.949 12.63l-1.016.637zm5.756 25.736h1.298v4.25H27.69v-4.25zm12.417-.233l1.523-1.571 1.694 1.804v1.456h-.96v-1.572H41.01v4.308h1.298v-1.339h1.016v1.456L41.686 45l-1.58-1.63v-4.6z" fill="#08090D"/><path d="M28.338 11c-8.65 0-15.66 7.233-15.66 16.156 0 1.69.25 3.317.716 4.848l.723-.763c-.35-1.3-.537-2.67-.537-4.085 0-8.408 6.607-15.225 14.758-15.225s14.76 6.817 14.76 15.225c0 4.082-1.559 7.788-4.093 10.522l.694.598C42.364 35.379 44 31.465 44 27.156 44 18.234 36.988 11 28.338 11zM15.29 34.244l-.468 1.05a16.008 16.008 0 004.063 4.741v-1.191a15.129 15.129 0 01-3.595-4.6z" fill="#fff"/></svg>