<!-- by TradingView --><svg width="56" height="56" xmlns="http://www.w3.org/2000/svg"><path fill="#E52126" d="M0 0h56v56H0z"/><path d="M49.383 33.002c1.555 0 2.585-.978 2.617-2.352.03-1.28-1.11-2.14-2.161-2.462-1.198-.367-1.843-.363-1.843-1.188 0-.711.602-1.32 1.454-1.32.851 0 1.313.406 1.55 1.32h1v-1.554c-.639-.296-1.822-.448-2.519-.446C48 25 47 25.848 47 27.275c0 1.394 1.072 1.817 2.102 2.14C50.29 29.783 51 30.175 51 31c0 .759-.65 1.311-1.576 1.311-.947 0-1.153-.252-1.428-1.311H47v1.435c.694.383 1.604.578 2.387.569l-.005-.002zM38.258 26.65c.368-.88.6-1.149 1.062-1.149h.056c.447 0 .63.256.63.691l.004 3.852c0 1.873 1.23 2.955 3.197 2.955 1.64 0 2.793-1.093 2.793-2.865v-3.807c0-.68.378-.714.859-.792L47 25.5v-.513L44 25v.532l.222.033c.484.079.778.082.778.762v3.807c0 1.36-.681 1.866-1.793 1.866C42.095 32 41 31.494 41 30.134V26.19c0-.435.532-.61.878-.644l.316-.033V25h-5.44v.513l.23.02c.568.055.747.401.506 1.003L36 31l-1.883-5c-.169-.413.08-.409.554-.451l.329-.033V25h-3.44v.513l.21.02c.421.044.56.156.831.813L35 33h1l2.258-6.35zm-12.266 2.497c0-1.762.715-3.147 2.271-3.147 1.535 0 2.281 1.407 2.281 3.168 0 1.761-.725 2.832-2.28 2.832-1.535 0-2.272-1.093-2.272-2.855v.002zm-1.472.021c0 2.207 1.556 3.836 3.743 3.836s3.753-1.64 3.753-3.858c0-2.22-1.563-4.146-3.751-4.146-2.189 0-3.75 1.95-3.75 4.168h.005zm-8.844-2.575c.494-.835.756-1.08 1.303-1.08h.062c.515 0 .959.305.959.74v5.288c0 .625-.298.826-.79.904l-.21.034V33l2.995-.003v-.514l-.212-.038c-.494-.078-.783-.28-.783-.904V27l4 6.001.996.003v-6.545c0-.521.307-.83.788-.903l.216-.033V25h-3v.523l.218.033c.484.078.782.29.782.903V31l-4-6h-4.715v.522l.217.02c.568.055.736.346.39.925l-1.221 2.088-1.325-2.302c-.231-.402-.084-.647.358-.691l.315-.033V25H9.708v.523l.21.019c.42.045.525.19.894.802l1.82 3.067.043 2.336c0 .474-.189.658-.559.703l-.315.033v.514l3.202.004v-.513l-.315-.033c-.358-.033-.648-.228-.648-.708l-.043-2.333 1.679-2.82zm-8.847 6.41c1.84 0 3.047-1.572 3.047-3.368 0-1.66-1.196-2.141-2.49-2.576C6.019 26.6 5.22 26.3 5.22 25.242c0-.893.578-1.472 1.63-1.472 1.051 0 1.242.474 1.631 1.777h.807V23.55A5.205 5.205 0 006.902 23C5.146 23 4 24.05 4 25.762s1.274 2.225 2.567 2.66c1.34.445 2.111 1.212 2.111 2.251 0 1.004-.61 1.595-1.777 1.595-1.219 0-1.49-.785-1.901-2.268H4v2.32c.559.356 1.662.684 2.829.684" fill="#F6F8FD"/></svg>