<!-- by TradingView --><svg width="56" height="56" xmlns="http://www.w3.org/2000/svg"><path fill="#02505C" d="M0 0h56v56H0z"/><path d="M36.638 14.183c-4.557-1.643-9.991-.328-13.21 3.411-2.885 3.206-3.805 8.301-2.007 12.288l.46 1.028c0 .04-.125.164-.21.04-3.093-2.959-4.305-7.685-2.675-11.753 1.463-3.986 5.686-7.069 9.992-7.192 2.843-.082 5.393.781 7.65 2.178z" fill="#F6F8FD"/><path d="M24.406 12.336c-4.188 1.945-6.993 6.248-6.951 10.8 0 4.633 2.889 9.06 7.119 10.923l1.423.497c.042.206-.071.206-.293.206a11.17 11.17 0 01-9.631-5.461c-2.052-3.104-2.052-7.945-.126-11.09 1.759-3.227 5.15-5.089 8.459-5.875z" fill="#F6F8FD"/><path d="M42.993 21.33c.422.987.757 2.01 1.003 3.057-2.09-4.544-6.856-7.432-11.747-7.007-4.682.17-9.24 3.737-10.619 8.281-.023.078-.042.467-.292.297-.126-4.502 2.508-8.706 6.563-10.617 3.93-1.911 9.072-1.062 12.249 1.996 1.254 1.105 2.132 2.548 2.843 3.992z" fill="#F6F8FD"/><path d="M17.037 31.907c3.055 3.269 7.869 4.427 12.137 3.186.754-.25 1.549-.497 2.26-.87l4.562 7.78V42c-4.478 2.648-11.342 2.652-15.736-.08-6.194-3.559-9.291-10.22-7.952-17.171.377-1.862 1.088-3.558 2.05-5.172-1.506 4.262-.501 9.102 2.68 12.33z" fill="#F6F8FD"/></svg>