<!-- by TradingView --><svg xmlns="http://www.w3.org/2000/svg" width="56" height="56"><path fill="#008C3C" d="M0 0h56v56H0z"/><path d="M4 24h4.26c.84-.06 2.52.27 2.56 2.15.03.64-.29 1.99-1.8 2.32.29.06.96.45 1.42 1.47l1 2.06H9.17l-1.24-2.43c-.3-.64-1.3-.88-1.93-.82V32H4v-8zm3.78 1.59H6v1.7h1.78a.86.86 0 000-1.7z" fill="#fff"/><path d="M14 26a3 3 0 100 6h.5a3 3 0 002.68-1.65l-1.87-.2a1.22 1.22 0 01-.58.47 1.3 1.3 0 01-1.36-.26 1.2 1.2 0 01-.37-.86h4.46A3.01 3.01 0 0014.5 26H14zm1.4 2.06c.06.15.1.31.1.47H13a1.22 1.22 0 01.77-1.13 1.26 1.26 0 011.63.66zM26.5 26a3 3 0 100 6h.5a3 3 0 002.68-1.65l-1.87-.2a1.22 1.22 0 01-.58.47 1.3 1.3 0 01-1.36-.26 1.2 1.2 0 01-.37-.86h4.46A3.01 3.01 0 0027 26h-.5zm1.4 2.06c.06.15.1.31.1.47h-2.5a1.22 1.22 0 01.77-1.13 1.26 1.26 0 011.63.66z" fill="#fff"/><path d="M17.5 26v6h2v-3.13c0-.49.38-1.08 1.07-1.08.58 0 .93.45.93.68V32h2v-4c0-.9-.47-1.96-1.85-2a2.58 2.58 0 00-2.12 1.11V26H17.5zm15.71-1.99c2.5-.16 3.22 1.45 3.25 2.28l-2.16.12c-.16-.7-.55-.98-1.09-.98-.47 0-.86.14-.9.59-.05.44.45.52.7.56 3.04.44 3.67 1.85 3.69 2.4.02.99-.25 3.02-3.18 3.02-3.1 0-3.68-1.73-3.68-2.69l2.21-.14a1.38 1.38 0 001.37 1.3c.23 0 1.03-.09 1.03-.8 0-.5-.62-.79-1.03-.87-2.71-.52-3.29-1.53-3.29-2.3 0-.48-.08-2.29 3.08-2.49zM43.5 24h2v8h-2z" fill="#fff"/><path fill-rule="evenodd" d="M45.81 27.77c.04-.61.71-1.83 3.08-1.77.89 0 2.83.2 2.83 2v2.97c0 .17.04.72.28 1.03h-2c-.06-.1-.18-.5-.22-.82a3 3 0 01-2.01.82c-1.26.02-2.1-.75-2.1-1.57.02-.81.35-1.55 2.1-1.86 1.4-.25 1.85-.48 1.9-.57.02-.23-.13-.66-.78-.66-.74 0-.95.45-1.03.66l-2.05-.23zm3.83 1.43c.09.42.02 1.31-.95 1.5-.21.06-.72.06-.86-.3-.17-.43.06-.83 1.81-1.2zm-10.16-5.34a.08.08 0 11-.15 0 .08.08 0 01.15 0zm-.43.96a.26.26 0 100-.52.26.26 0 000 .52zm-.47-.05a.26.26 0 11-.52 0 .26.26 0 01.52 0zm-.73.41a.26.26 0 11-.52 0 .26.26 0 01.52 0zM40.4 24a.08.08 0 100-.15.08.08 0 000 .15zm1.04.23a.08.08 0 11-.15 0 .08.08 0 01.15 0zm.8.62a.08.08 0 100-.15.08.08 0 000 .15zm.76.6a.08.08 0 11-.15 0 .08.08 0 01.15 0zm.42.9a.08.08 0 100-.15.08.08 0 000 .15zm.38.85a.08.08 0 11-.16 0 .08.08 0 01.16 0zm0 1.03a.08.08 0 100-.15.08.08 0 000 .15zm-.07.87a.08.08 0 11-.15 0 .08.08 0 01.15 0zm-.43.96a.08.08 0 100-.15.08.08 0 000 .15zm-.4.64a.08.08 0 11-.16 0 .08.08 0 01.15 0zm-.77.72a.08.08 0 100-.15.08.08 0 000 .15zm-.8.42a.08.08 0 11-.15 0 .08.08 0 01.15 0zm-1.02.35a.08.08 0 100-.16.08.08 0 000 .16zm-.9-.04a.08.08 0 11-.16 0 .08.08 0 01.16 0zm-1.09-.13a.08.08 0 100-.15.08.08 0 000 .15zm-.83-.5a.08.08 0 11-.15 0 .08.08 0 01.15 0zm-.77-.49a.08.08 0 100-.15.08.08 0 000 .15zm-.48-.75a.08.08 0 11-.15 0 .08.08 0 01.15 0zm-.5-.78a.08.08 0 100-.15.08.08 0 000 .15zm-.14-1.06a.08.08 0 11-.16 0 .08.08 0 01.16 0zm-.08-.79a.08.08 0 100-.15.08.08 0 000 .15zm.3-1.05a.08.08 0 11-.15 0 .08.08 0 01.15 0zm.39-.84a.08.08 0 100-.15.08.08 0 000 .15zm.7-.81a.08.08 0 11-.15 0 .08.08 0 01.16 0zm.72-.5a.08.08 0 100-.15.08.08 0 000 .16zm.9-.41a.08.08 0 11-.15 0 .08.08 0 01.15 0zm1.39.74a.26.26 0 100-.52.26.26 0 000 .52zm1.1-.1a.26.26 0 11-.51 0 .26.26 0 01.52 0zm.47.62a.26.26 0 100-.52.26.26 0 000 .52zm.91.26a.26.26 0 11-.52 0 .26.26 0 01.52 0zm.23.87a.26.26 0 100-.52.26.26 0 000 .52zm.6.45a.26.26 0 11-.52 0 .26.26 0 01.52 0zm-.1 1.05a.26.26 0 100-.52.26.26 0 000 .52zm.23.53a.26.26 0 11-.52 0 .26.26 0 01.52 0zm-.45 1.05a.26.26 0 100-.52.26.26 0 000 .52zm-.12.45a.26.26 0 11-.52 0 .26.26 0 01.52 0zm-.8.86a.26.26 0 100-.52.26.26 0 000 .52zm-.35.2a.26.26 0 11-.52 0 .26.26 0 01.52 0zm-1.01.57a.26.26 0 100-.52.26.26 0 000 .52zm-.56-.11a.26.26 0 11-.52 0 .26.26 0 01.52 0zm-1.1.2a.26.26 0 100-.53.26.26 0 000 .52zm-.5-.51a.26.26 0 11-.51 0 .26.26 0 01.52 0zm-.95-.16a.26.26 0 100-.52.26.26 0 000 .52zm-.28-.79a.26.26 0 11-.52 0 .26.26 0 01.52 0zm-.68-.37a.26.26 0 100-.52.26.26 0 000 .52zm-.02-1a.26.26 0 11-.52 0 .26.26 0 01.52 0zm-.38-.57a.26.26 0 100-.52.26.26 0 000 .52zm.35-1.07a.26.26 0 11-.52 0 .26.26 0 01.52 0zm.01-.5a.26.26 0 100-.53.26.26 0 000 .52zm.72-.93a.26.26 0 11-.52 0 .26.26 0 01.52 0zm2.97-.42a.25.25 0 00.21-.37l.35.11a.25.25 0 10.33.15l.32.19a.25.25 0 10.27.2c.1.1.19.18.27.28h-.03a.25.25 0 10.25.26l.2.31a.25.25 0 00-.32.24.25.25 0 00.47.08c.05.11.1.23.12.35a.25.25 0 00-.37.2.25.25 0 00.45.15c.02.12.04.24.04.37a.25.25 0 100 .35l-.06.39a.25.25 0 10-.08.34 3.1 3.1 0 01-.14.34.25.25 0 10-.16.3c-.06.11-.13.22-.2.31a.25.25 0 10-.23.27l-.28.26v-.05a.25.25 0 10-.28.25c-.1.06-.21.13-.33.18a.25.25 0 10-.33.14 3.1 3.1 0 01-.36.1.25.25 0 10-.36.06l-.3.01h-.05a.25.25 0 00-.17-.42.25.25 0 00-.2.4 3.09 3.09 0 01-.34-.07.25.25 0 10-.35-.11l-.31-.14a.25.25 0 10-.33-.2c-.1-.06-.18-.13-.27-.2a.25.25 0 10-.28-.27 3.13 3.13 0 01-.2-.25.25.25 0 10-.23-.34 3.1 3.1 0 01-.14-.28.25.25 0 00.31-.24.25.25 0 00-.44-.14c-.03-.1-.06-.2-.07-.31.03.02.08.03.12.03a.25.25 0 10-.17-.42 3.26 3.26 0 010-.32.25.25 0 00.42-.18.25.25 0 00-.37-.21l.07-.32a.25.25 0 10.14-.37c.05-.13.11-.24.18-.35a.25.25 0 10.23-.33l.2-.25a.25.25 0 10.3-.26 2 2 0 01.28-.2l-.01.06a.25.25 0 10.32-.24c.11-.05.22-.1.33-.13a.25.25 0 10.37-.1c.11-.03.22-.05.34-.06a.25.25 0 00.19.4.25.25 0 00.18-.41c.12 0 .23 0 .35.02a.25.25 0 00.15.44zm-1.15.72a.18.18 0 100-.36.18.18 0 000 .36zm.68-.26a.18.18 0 11-.36 0 .18.18 0 01.36 0zm.32.22a.18.18 0 100-.36.18.18 0 000 .36zm.66-.03a.18.18 0 11-.36 0 .18.18 0 01.36 0zm.26.45a.18.18 0 100-.36.18.18 0 000 .36zm.54.18a.18.18 0 11-.36 0 .18.18 0 01.36 0zm.09.6a.18.18 0 100-.36.18.18 0 000 .36zm.36.3a.18.18 0 11-.36 0 .18.18 0 01.36 0zm-.13.7a.18.18 0 100-.37.18.18 0 000 .36zm.11.3a.18.18 0 11-.36 0 .18.18 0 01.36 0zm-.36.66a.18.18 0 100-.36.18.18 0 000 .36zm-.1.24a.18.18 0 11-.36 0 .18.18 0 01.36 0zm-.56.52a.18.18 0 100-.36.18.18 0 000 .36zm-.26.07a.18.18 0 11-.36 0 .18.18 0 01.36 0zm-.67.33a.18.18 0 100-.36.18.18 0 000 .36zm-.33-.16a.18.18 0 11-.36 0 .18.18 0 01.36 0zm-.67.09a.18.18 0 100-.36.18.18 0 000 .36zm-.3-.38a.18.18 0 11-.35 0 .18.18 0 01.36 0zm-.56-.14a.18.18 0 100-.36.18.18 0 000 .36zm-.15-.56a.18.18 0 11-.36 0 .18.18 0 01.36 0zm-.42-.28a.18.18 0 100-.36.18.18 0 000 .36zm.07-.67a.18.18 0 11-.36 0 .18.18 0 01.36 0zm-.18-.32a.18.18 0 100-.36.18.18 0 000 .36zm.3-.67a.18.18 0 11-.36 0 .18.18 0 01.36 0zm.07-.33a.18.18 0 100-.36.18.18 0 000 .36zm.52-.56a.18.18 0 11-.36 0 .18.18 0 01.36 0zm.23-.11a.18.18 0 100-.36.18.18 0 000 .36z" fill="#fff"/></svg>