<!-- by TradingView --><svg width="56" height="56" xmlns="http://www.w3.org/2000/svg"><path fill="#184185" d="M0 0h56v56H0z"/><path d="M35 33.37l1.821 1.64.268.244c.253.224.911.524.911 1.402v5.016l-1 .172V36h-1.56c-1.164 0-1.845 0-2.844-.589l-6.668-6.258c-1.08-1.077-1.235-1.355-1.25-2.153h.846c.92 0 1.916-.58 2.47-1.153 1.02-1.053 1.008-2.673 1.006-2.725V23h-1v.136c0 .013.04 1.292-.696 2.049-.373.383-1.122.815-1.78.815H20v2.042l-1 .17v-3.189c-.003-.135.076-.567.287-.775.21-.209.62-.253.758-.248H25v-5h-1l-1.63 1.813s-.06.083-.152.155a.485.485 0 01-.128.032h-2.088L20 16h3.964C28.86 16 32 18.714 32 23.056v4.27l2.226 2.786s.124.144.215.287c.3.473.559 1.009.559 1.593v1.378zM27 34v3.27c.005.144.005.456-.09.563-.111.124-.368.158-.48.167h-3.913l-.18-.996L26 36.995v-3.807c-.001-.993.573-1.348 1.359-1.337L29.749 34H27zm10.541-11C35.011 23 35 24.792 35 27.436v1.983l-2-2.439v-3.924c0-2.457-1.008-4.506-2.65-5.922C28.779 15.777 26.57 15 23.965 15h-5.022C17.162 15 17 14.28 17 13.694V13h-1v.694c0 .698.287 2.306 2.942 2.306H19l.002 6h3.121c.093-.007.413-.02.646-.2.204-.157.325-.317.36-.367L24 20.6V23h-3.921c-.144-.005-.94.047-1.465.567-.546.54-.617 1.393-.614 1.471v4.342l3-.555V27h2.721c.03 1.21.38 1.682 1.541 2.84l1.28 1.179c-.894 0-1.543.94-1.542 1.946V36h-3.837l.573 3h4.73c.076-.004.747-.07 1.157-.53.381-.426.381-1.104.377-1.218V35h2.694l1.231 1.094c.671.697 1.998.906 3.516.906H36v5.994l3-.525v-5.813c0-1.31-.954-1.833-1.277-2.119l-.27-.244L36 32.928v-5.492c0-2.78.01-3.436 1.541-3.436h1.355c-.188.35-.513 1-1.546 1H37v1h.35c2.156 0 2.632-1.757 2.643-2.515L40 23h-2.459z" fill="#FFFFFE"/></svg>