<!-- by TradingView --><svg width="56" height="56" xmlns="http://www.w3.org/2000/svg"><path fill="#004A90" d="M0 0h56v56H0z"/><path d="M42 12l-3.953 7.12h-9.554s-5.271-.313-7.989 3.13c-2.635 3.52-2.059 5.555-1.235 8.215 0 0-6.342-3.443-5.106-10.093 0 0 .494-5.086 7.66-7.355 0 0 2.223-.782 6.423-1.017H42z" fill="#fff"/><path d="M35.002 28.117c0 3.678-3.13 6.729-7 6.729-3.954 0-7.084-3.051-7.084-6.729 0-3.677 3.13-6.728 7.083-6.728 3.87 0 7 3.051 7 6.728z" fill="#fff"/><path d="M14 44l3.953-7.12h9.554s5.27.313 7.988-3.13c2.636-3.52 2.06-5.554 1.154-8.214 0 0 6.423 3.442 5.188 10.092 0 0-.494 5.086-7.66 7.355 0 0-2.223.782-6.423 1.017H14z" fill="#fff"/></svg>