<!-- by TradingView --><svg width="56" height="56" fill="none" xmlns="http://www.w3.org/2000/svg"><path fill="#F0F3FA" d="M0 0h56v56H0z"/><path fill-rule="evenodd" clip-rule="evenodd" d="M34.346 31.146c.11.416.165.916.165 1.502 0 1.026-.262 2.028-.784 3.004a11.077 11.077 0 01-2.062 2.711 18.15 18.15 0 01-2.805 2.235 17.082 17.082 0 01-3.012 1.575c-2.135.843-4.564 1.744-7.134 1.976a11.112 11.112 0 007.45 2.85c6.142 0 11.122-4.954 11.122-11.066 0-2.226-.663-4.297-1.8-6.033a11.15 11.15 0 01-1.323.717c.074.18.137.358.183.53z" fill="#7FCCC2"/><path fill-rule="evenodd" clip-rule="evenodd" d="M21.909 42.594a12.876 12.876 0 002.806-.78c1.73-.692 3.196-1.67 4.398-2.93 1.2-1.262 1.8-2.758 1.8-4.49 0-.84-.223-1.694-.67-2.56a7.248 7.248 0 00-.233-.412c-.1.003-.2.005-.302.005-3.964 0-7.343-2.03-9.358-5.1C17.198 28.316 15 31.81 15 35.791c0 2.524.841 4.853 2.259 6.726.448.08.944.153 1.506.218 1 .114 2.11.033 3.144-.141z" fill="#7FCCC2"/><path fill-rule="evenodd" clip-rule="evenodd" d="M29.93 31.8c.1 0 .199-.003.298-.005-.484-.822-1.264-1.85-2.347-3.09-1.11-1.307-1.955-2.463-2.537-3.47-.582-1.005-.873-2.162-.873-3.47 0-1.307.318-2.614.956-3.922a13.99 13.99 0 012.371-3.47c.333-.352.79-.767 1.373-1.246a11.152 11.152 0 012.08-1.32c.803-.402 1.746-.754 2.828-1.056.43-.12.88-.214 1.35-.285A11.02 11.02 0 0029.929 9c-6.194 0-11.215 5.104-11.215 11.4 0 2.293.669 4.427 1.816 6.215 2 3.12 5.462 5.185 9.4 5.185z" fill="#7581BE"/><path d="M30.126 24.771a26.151 26.151 0 01-1.642-2.398 7.852 7.852 0 01-1.172-4.156c0-1.929.697-3.475 2.093-4.637 1.396-1.162 3.21-1.744 5.445-1.744 1.02 0 1.906.093 2.66.276A11.14 11.14 0 0141 20.214c0 2.276-.683 4.417-1.857 6.206-1.205 1.836-2.988 3.338-4.968 4.24-.677-1.612-1.416-2.81-2.561-4.114-.18-.204-.358-.407-.533-.611a24.486 24.486 0 01-.955-1.164z" fill="#7581BE"/></svg>