<!-- by TradingView --><svg xmlns="http://www.w3.org/2000/svg" width="56" height="56"><path fill="#333" d="M0 0h56v56H0z"/><path d="M42.36 18.37a.3.3 0 00-.03-.03l.03.03zm-3.7-2.06s3.26 1.5 3.67 2.03A16.96 16.96 0 0028.36 11c-7.8 0-14.38 5.05-16.36 12h4l2.7-4.63v2.07c.31.25.67.45 1.06.65.34.18.7.38 1.05.63-.41.6 0 1.19 0 1.19s1.83-.5 2.93.5c.41.37 2.37 0 1-1.7-1.92-.68-1.6-1.73-.5-1.73.5 0 2.6 1.74 2.6 1.74.2.08.5-.4.9-1.06.71-1.14 1.73-2.79 3.04-2.79 1.4-.31 1.35-1.51.47-1.98-.88-.47-.4-1.1.67-.35 1.06.74 1.59-.13 1.04-1.04l-1.04-.9h.58l2.96 2.45s.77-1.1 1.3-1.1c.39 0 .52.25.66.55.19.38.4.81 1.24.81zm-2.62 3.79a7.5 7.5 0 001.32-1.88c.48-1.04 1.11.02.65.45-.36.35-1.47 1.1-1.97 1.43zM40.46 35H44c-2.68 5.9-8.64 10-15.57 10a17.08 17.08 0 01-14.8-8.52 17.06 17.06 0 0012.84 5.78c5.79 0 10.9-2.87 14-7.26zM21.2 25h-7.7c-.83 0-1.5.67-1.5 1.5v2c0 .83.67 1.5 1.5 1.5H19v1h-7v2h8.5c.83 0 1.5-.67 1.5-1.5v-2c0-.83-.67-1.5-1.5-1.5H15v-1h7v.3-.3h6.7c.17 0 .3.13.3.3V30h2.8v-3.5c0-.83-.67-1.5-1.5-1.5h-9.1zm12.3 0H42v2h-7v1h5.5c.83 0 1.5.67 1.5 1.5v2c0 .83-.67 1.5-1.5 1.5H23.73a1.5 1.5 0 01-1.5-1.5V28H25v2.7c0 .17.13.3.3.3H39v-1h-5.5a1.5 1.5 0 01-1.5-1.5v-2c0-.83.67-1.5 1.5-1.5z" fill="#fff"/></svg>