<!-- by TradingView --><svg width="56" height="56" xmlns="http://www.w3.org/2000/svg"><path fill="#3A8ABB" d="M0 0h56v56H0z"/><path d="M19.867 26.005c2.376.014 2.748 2.403 2.638 3.596H18.59c.053.656.664 1.117 1.398 1.099.587-.014 1.142-.396 1.345-.585l.891.85c-.657.865-1.846 1.053-2.358 1.035-2.195.07-2.825-1.89-2.865-2.877-.035-1.046.489-3.133 2.865-3.119zM10.496 34v-8H12v.925c.414-.766 1.384-.934 1.776-.922 2.085.036 2.62 1.862 2.656 3.091.043 1.491-1.114 2.906-2.656 2.906-.784 0-1.776-.438-1.776-.845V34h-1.504zM43.5 31.998v-6H45v.857c.167-.285.7-.857 1.622-.857.92 0 1.471.572 1.632.857.351-.72 1.444-.871 1.946-.857 1.473 0 1.813 1.246 1.8 1.868v4.132h-1.5v-3.67c.02-.286-.181-.857-.968-.857-.787 0-1.046.571-1.032.857v3.67H47v-3.67c-.007-.286-.286-.857-1.04-.857-.753 0-.967.571-.96.857v3.67h-1.5zM37 30.206V26h1.5v3.462c0 .313.112.99 1.062.99.76 0 .975-.657.938-.99V26H42v6h-1.5v-.873c-.298.736-1.342.893-1.814.873-1.43.047-1.723-1.18-1.686-1.794zM33 32v-6h1.5v1.209c.326-1.136 1.146-1.291 1.538-1.21L36 27.5c-1.34-.041-1.53 1.287-1.5 1.83V32H33zM29.5 26v-1H31v1h1v1.5h-1c-.005.64-.012 2.056 0 2.366.015.388.057.664.41.664a.932.932 0 00.59-.221v1.328c-.355.325-.943.357-1.188.332-1.028-.015-1.322-.965-1.312-1.439V27.5H29V26h.5zM26.237 25.998c1.074-.016 1.844.626 2.095.948L27.377 28c-.33-.463-.715-.48-1.136-.5h-.004c-.423-.02-1.237.382-1.237 1.343 0 1.166.648 1.657 1.237 1.657.486 0 1.048-.306 1.268-.5l.827.875c-.183.361-.86 1.084-2.095 1.084-1.544 0-2.755-1.2-2.737-3.116.019-1.916 1.395-2.826 2.737-2.845z" fill="#fff"/><path d="M20.95 28.503h-2.376c.1-.384.486-1.148 1.24-1.134.756.014 1.073.762 1.137 1.134zM14.792 28.986c.043-1.215-.874-1.567-1.337-1.591-.464 0-1.391.318-1.391 1.591s.927 1.603 1.39 1.61c.428-.03 1.295-.395 1.338-1.61z" fill="#3A8ABB"/><path d="M7.006 24.002c1.217-.043 2.327.632 2.73.975l-.898 1.276c-1.106-.823-2.205-.871-2.633-.723-.244.085-.513.354-.5.723.018.46 1.121.927 2.244 1.193.898.212 1.401.59 1.528.791.802 1.021.507 2.103.26 2.517-.168.378-.872 1.155-2.35 1.24-1.48.085-2.874-.791-3.387-1.24l.985-1.205c.843.978 2.24.963 2.833.833.133-.03.412-.192.467-.603.055-.411-.288-.644-.467-.709a12.923 12.923 0 01-2.453-.833c-.392-.171-1.393-.808-1.365-1.984.035-1.471 1.486-2.198 3.006-2.251z" fill="#fff"/></svg>