<!-- by TradingView --><svg width="56" height="56" xmlns="http://www.w3.org/2000/svg"><path fill="url(#paint0_linear)" d="M0 0h56v56H0z"/><path d="M22.35 28.561c.063-.518-.172-.873-.476-.828-.994.145-1.295 1.061-1.321 1.501l-.159 3.34c0 .607.02 1.61.53 1.425.64-.232.835-.491.95-1.077 0-1.45.396-3.714.476-4.361zm12.463-5.692c.064-.518-.17-.873-.475-.829-.994.145-1.295 1.062-1.321 1.502l-.159 3.34c0 .606.02 1.609.53 1.424.64-.232.835-.49.95-1.077 0-1.45.396-3.713.475-4.36z" fill="#fff"/><path d="M13.861 24.931c-.506 1.488-1.417 4.102-1.81 5.288-.083.246-.097.71.21.875.308.166.763.093 1-.47.254-.774.794-2.117 1.014-2.416.22-.299.375.125.424.374l1.59 9.59c.02.381.204 1.124.767 1.041.563-.083.773-.729.808-1.041 1.157-11.25 3.382-15.964 4.117-18.127.371-1.095 1.558-3.137 2.012-3.611.441-.453 1.053-1.575.323-2.151-.777-.614-1.72-.084-1.964.34-2.738 4.766-4.672 14.215-5.296 18.344-.477-2.605-1.39-7.891-1.458-8.165-.093-.38-.272-.835-.797-.835-.41 0-.815.598-.94.964z" fill="#fff"/><path d="M21.927 24.676c-.617.486-.585.988-.398 1.184.252.205.533.092 1.074-.337.481-.382.489-.749.395-.939-.1-.172-.455-.394-1.071.092zm12.3-4.957c-.617.486-.585.988-.398 1.184.252.205.533.092 1.074-.337.482-.382.489-.749.395-.94-.1-.171-.455-.393-1.071.093zm-9.549 6.723c-.937.349-1.172 1.155-1.172 1.515-.047.94-.14 2.998-.14 3.696 0 .697.328.81.492.78.843-.257 1.241-.863 1.241-1.285v-1.883c0-1.056.313-1.59.891-1.828.46-.19.625-.56.68-.812.15-.698-.344-.75-.61-.688-.07.022-.445.156-1.382.505z" fill="#fff"/><path d="M28.604 24.533c.644-.406 1.061-.17 1.189 0 .183.479-.159.988-.625 1.535-.619.726-.948 3.153 0 3.257 1.186.129 1.185-4.375 1.152-4.583-.064-.407.26-1.165.924-1.195.58-.025.73.603.659.986-.343 1.847-.274 4.48-.197 5.566.623-.688 5.31-3.364 7.576-4.615-.527.18-.373-1.904-.23-2.97.077-.344.026-1-.79-.87-.818.128-.978 2.119-.956 3.098.009.408.059 1.026-.626 1.646-.685.62-1.054.04-1.054-.259l.23-3.905c0-.215.066-.723.33-1.033.263-.31 1.23-.28 1.68-.226.296-.376 1.074-1.142 1.812-1.194.738-.051.922.775.922 1.194-.21 3.073.198 3.798.428 3.777.824-.538 2.557-1.414 2.9-.614.342.8-.603 1.514-1.285 1.711-3.611 1.045-8.95 4.416-11.169 5.97-.185 3.487.078 6.977.232 8.287.073.624.19 1.75-.779 1.885-.968.136-1.16-.636-1.134-1.039l.252-8.18c-3.176 1.98-7.227 5.954-8.856 7.693-.3.385-1.072 1.021-1.75.487-.677-.534-.02-1.391.393-1.753 2.228-2.273 7.737-6.433 10.212-8.229v-.671c-.208.204-1.132.7-1.698.671-.566-.029-1.252-.438-1.282-2.51-.03-2.074.735-3.41 1.54-3.917z" fill="#fff"/><defs><linearGradient id="paint0_linear" x1="10.418" y1="9.712" x2="68.147" y2="76.017" gradientUnits="userSpaceOnUse"><stop stop-color="#1A1E21"/><stop offset="1" stop-color="#06060A"/></linearGradient></defs></svg>