<!-- by TradingView --><svg width="56" height="56" xmlns="http://www.w3.org/2000/svg"><path fill="#EC3B43" d="M0 0h56v56H0z"/><path d="M47.307 35.236c.535-2.496.693-5.144.693-7.816 0-2.303-.221-4.482-.622-6.659-5.796-1.803-12.446-2.757-19.502-2.757-6.915 0-13.491.967-19.204 2.704C8.27 22.884 8 25.118 8 27.42c0 2.672.273 5.266.808 7.762 5.796 1.804 12.424 2.822 19.48 2.822 6.916 0 13.305-1.03 19.019-2.768z" fill="#fff"/><path d="M15.239 23.557c-.015-.194-.089-.314-.195-.394-.106-.08-.249-.107-.401-.107-.226 0-.51.074-.477.388.038.36.692.38 1.137.548.787.294 1.091.748 1.151 1.317.122 1.15-.838 1.691-1.783 1.691-1 0-1.955-.501-2.03-1.718h1.299c.027.26.1.421.222.542.127.106.287.12.507.12.262 0 .57-.147.536-.461-.037-.348-.487-.395-1.114-.615-.55-.194-1.095-.502-1.18-1.297-.114-1.077.784-1.571 1.662-1.571.926 0 1.802.381 1.903 1.557h-1.237zM20.206 26.927h-1.17l.05-.372h-.012c-.226.287-.553.445-.962.445-.549 0-1.033-.22-1.104-.777-.032-.254.027-.61.19-2.22h1.207l-.161 1.526a1.292 1.292 0 00-.009.322c.02.163.204.259.38.259.543 0 .498-.547.55-.918l.124-1.19h1.207l-.29 2.925zM21.396 22h1.207l-.16 2.02h.013c.171-.288.497-.44.832-.44.427 0 1.234.44 1.234 1.438 0 .606-.198 1.982-1.325 1.982-.365 0-.776-.082-.995-.55h-.012l-.044.55H21l.396-5zm.917 3.46c.029.274.215.541.483.541.492 0 .593-.365.593-.8-.037-.358-.208-.599-.512-.585-.494 0-.613.369-.564.843zM32.553 22.002h1.207l-.159 2.021h.012c.172-.289.497-.44.833-.44.426 0 1.233.44 1.233 1.438 0 .606-.198 1.981-1.324 1.981-.366 0-.777-.082-.996-.55h-.012l-.044.548h-1.146l.396-4.998zm.917 3.46c.029.275.215.542.483.542.493 0 .593-.365.593-.801-.037-.358-.208-.598-.512-.585-.493 0-.612.37-.564.844zM28.333 26.929h-1.17l.05-.372h-.012c-.226.287-.553.445-.962.445-.549 0-1.033-.22-1.104-.778-.032-.254.027-.609.19-2.222h1.207l-.161 1.529a1.292 1.292 0 00-.009.321c.02.164.203.26.38.26.543 0 .498-.548.55-.92l.124-1.19h1.207l-.29 2.927zM29.43 24h1.17l-.046.532h.012c.175-.31.543-.53.854-.53.2 0 .318.012.432.045l-.102.987a1.53 1.53 0 00-.472-.073c-.512 0-.743.203-.805.818l-.12 1.223h-1.208L29.43 24zM36.247 24.938c.09-.76.72-.936 1.494-.936.573 0 1.545.067 1.634.76.058.446-.161 1.729-.137 1.916a.661.661 0 00.081.253h-1.182a.766.766 0 01-.078-.276h-.013c-.183.232-.577.347-.93.347-.543 0-1.052-.214-1.122-.76-.097-.753.498-.957 1.398-1.018.339-.022.887.022.842-.33-.026-.198-.227-.248-.41-.248-.244 0-.404.077-.444.292h-1.133zm1.353 1.42c.408 0 .538-.269.557-.693-.184.088-.406.11-.624.127-.2.016-.376.11-.349.319.025.198.22.248.416.248zM40.3 24h1.164l-.044.448h.012a1.16 1.16 0 01.925-.446c.555 0 1.057.214 1.13.79.016.129.006.343-.016.557L43.295 27h-1.207l.142-1.341c.016-.17.052-.366.037-.485-.024-.186-.182-.281-.377-.281-.384 0-.48.253-.515.558L41.217 27H40.01l.29-3zM15.397 28h2.131c.789 0 1.35.505 1.462 1.61.1 1.01-.541 1.878-1.673 1.878h-.891l-.12 1.513H15L15.397 28zm1.126 2.298h.506c.53 0 .682-.231.648-.567-.039-.386-.34-.449-.617-.449h-.451l-.086 1.016zM19.474 30h1.17l-.046.53h.012c.175-.31.543-.53.854-.53.201 0 .318.011.432.045l-.101.987a1.532 1.532 0 00-.473-.073c-.512 0-.742.203-.805.817L20.397 33H19.19l.284-3zM23.787 30c.827 0 1.415.385 1.514 1.25.084.731-.201 1.75-1.5 1.75-.778 0-1.453-.38-1.563-1.338-.105-.914.396-1.662 1.55-1.662zm-.03 2.207c.425 0 .505-.633.476-.88-.039-.342-.148-.535-.436-.535-.43 0-.507.655-.473.953.027.23.13.462.434.462zM26.277 30h1.17l-.03.411h.012c.173-.274.424-.412.796-.412.89 0 1.238.692 1.303 1.218.11.88-.234 1.897-1.307 1.897-.347 0-.694-.04-1.005-.434L27.094 34h-1.207l.39-4zm2.06 1.348c-.036-.291-.15-.526-.504-.526-.536 0-.544.72-.511.983.013.109.102.486.498.486.482 0 .565-.56.518-.943zM30.254 30.935c.091-.76.72-.935 1.495-.935.573 0 1.545.066 1.634.759.057.446-.162 1.729-.137 1.916a.658.658 0 00.08.254h-1.182a.764.764 0 01-.078-.276h-.012c-.184.231-.577.347-.93.347-.543 0-1.052-.215-1.122-.76-.098-.754.498-.958 1.398-1.018.339-.022.887.022.841-.33-.025-.199-.227-.248-.41-.248-.243 0-.404.077-.443.291h-1.134zm1.354 1.42c.408 0 .538-.269.556-.693-.183.088-.406.11-.623.127-.2.016-.376.11-.35.32.026.197.222.247.417.247zM34.307 30h1.164l-.045.445h.013a1.16 1.16 0 01.925-.445c.555 0 1.057.214 1.13.79.016.129.006.343-.016.558L37.302 33h-1.207l.142-1.342c.016-.17.052-.367.037-.486-.024-.186-.182-.282-.377-.282-.384 0-.48.254-.515.559l-.158 1.55h-1.207l.29-2.999zM41.173 32.098c-.048.193-.179.903-1.397.903-1.001 0-1.469-.567-1.549-1.261-.15-1.31.79-1.74 1.492-1.74.625 0 1.422.352 1.525 1.25.018.154.032.32.003.496h-2.013c.035.302.167.556.505.556.233 0 .358-.105.4-.204h1.034zm-.954-.92a.538.538 0 000-.093c-.025-.215-.18-.386-.452-.386-.288 0-.459.177-.506.48h.958z" fill="#EC3B43"/></svg>