<!-- by TradingView --><svg width="56" height="56" xmlns="http://www.w3.org/2000/svg"><path fill="#EE1878" d="M0 0h56v56H0z"/><path d="M9.432 25.554s-.391-.406-1.177-.406c-.467 0-.93.23-.92.714.022 1.019 2.84 1.835 2.838 3.496 0 .311.177 2.253-2.77 2.397-.055.003-1.172.065-2.325-.845l.616-1.04c1.118.918 1.497.724 1.587.72.99-.038.979-.744.974-.938-.028-1.212-2.837-1.79-2.776-3.636.047-1.414 1.378-1.983 2.461-1.983 1.171 0 2.077.578 2.077.578l-.585.943zM15.304 24.033C13.23 23.965 13 25.313 13 25.313V24h-1.964v11H13v-4.43s.408 1.187 1.809 1.187c2.675 0 3.363-2.53 3.363-3.945 0-1.564-.537-3.702-2.868-3.779zm-.987 6.567C13.25 30.57 13 28.804 13 27.899c0-1.303.248-2.701 1.478-2.701 1.345 0 1.675 1.21 1.675 2.7 0 1.373-.434 2.74-1.836 2.702zM21 21h-2v11h2V21zM24 29.22s-.215 1.627 1.35 1.618c.138-.001 1.6.106 1.65-1.965V24h2v8h-2.014l-.003-.98c-1.038 1.233-2.338 1.166-2.406 1.166-2.585 0-2.577-2.388-2.577-2.388V24h2v5.22zM35 26.98s.094-1.627-1.472-1.618c-.137.001-1.528-.105-1.528 1.965V32h-2v-8h2v1.18c1.038-1.233 2.235-1.166 2.302-1.166 2.585 0 2.698 2.388 2.698 2.388V32h-2v-5.02zM40 31.996h-2V21h2v6.523h.094l2.585-3.028 1.434.635-2.444 2.677 2.897 3.707-1.783.607L40 28.103v-.002 3.895zM52 28.726L46 32v-1.43L50.684 28 46 25.495V24l6 3.34v1.386z" fill="#fff"/></svg>