<!-- by TradingView --><svg width="56" height="56" xmlns="http://www.w3.org/2000/svg"><path fill="#17468F" d="M0 0h56v56H0z"/><path d="M18.656 19.946c.332-4.084 4.95-6.946 7.178-7.79 1.472-.218 2.936-.192 3.337-.105-8.167 2.884-8.875 7.105-8.148 8.725 1.452-6.131 9.022-7.797 12.54-7.774 5.118 1.813 7.98 5.993 8.948 8.228-1.231-.443-5.21-.777-9.826 1.248-4.615 2.026-9.117 2.67-10.791 2.74-2.421.082-7.317-.69-7.084-4.442.232-3.752 4.556-6.557 6.966-7.519-1.633.983-4.796 3.875-4.863 6.897-.066 3.021 3.459 3.694 5.23 3.652-2.889-.83-3.528-2.919-3.487-3.86z" fill="#fff"/><path d="M20.221 26.441c-4.873.45-6.93-2.506-7.232-4.018-3.17 9.302 2.156 16.282 5.37 18.313 13.86.277 19.086-7.123 19.791-10.839 1.28 7.224-8.834 12.149-13.976 13.618 2.42.76 5.6.529 7.722 0 3.835-1.985 9.097-7.094 9.236-11.933.138-4.839-5.329-6.394-8.08-6.567 6.475-.505 10.05 2.362 10.938 3.811.086-1.978-.209-3.756-.49-4.822-.792-.331-3.258-1.184-5.954-1.322-2.696-.138-4.925.432-5.703.735-1.843.82-6.749 2.575-11.622 3.024z" fill="#fff"/></svg>