<!-- by TradingView --><svg width="56" height="56" xmlns="http://www.w3.org/2000/svg"><path fill="#004C97" d="M0 0h56v56H0z"/><path d="M40.579 36.498l-1.506-1.505 1.51-1.51 1.506 1.506-1.51 1.51zM36.28 26.6l4.298-4.299 1.507 1.507-4.299 4.299-1.506-1.507zM34.602 25h-1.29l.001 1.212.389.388-4.306 4.306-1.507-1.506 7.098-7.098 1.506 1.507-1.502 1.502-.389-.311zM26.6 33.702l-1.506-1.505 1.506-1.508 1.506 1.507-1.506 1.506zm-5.592 0L19.5 32.196l9.898-9.897 1.507 1.506-9.898 9.897zm4.087-12.69l4.3-4.301 1.507 1.506-4.302 4.302-1.505-1.506zm7.097-7.097l1.507 1.505-1.507 1.508-1.506-1.507 1.506-1.506zm4.302 4.3l-4.298 4.299-1.506-1.506 4.298-4.298 1.506 1.506zm1.289-4.3l1.507 1.506-1.507 1.506-1.506-1.506 1.506-1.506zm1.508 7.098l-1.507 1.506-1.507-1.505 1.507-1.508 1.507 1.507zm1.288-4.302l1.507 1.506-1.507 1.507-1.506-1.507 1.506-1.506zm-19.566.213l-1.508-1.504 1.509-1.508 1.506 1.505-1.507 1.507zM44 34.32l-2.128-2.127L44 30.289v-1.29h-1.31l-2.107 1.935-1.507-1.537 4.905-4.905.002-1.363-2.116-2.116 2.128-2.129V17.55l-2.128-2.129 2.123-2.123v-1.29H42.7l-2.123 2.124-2.125-2.127-1.338-.001-2.127 2.128-2.13-2.128h-1.335l-4.92 4.92-1.508-1.507 1.903-2.124v-1.29H25.71l-1.902 2.125-2.126-2.126h-1.337l-2.594 2.405-.427-.41H16v1.314l.51.503-4.512 4.912V22h1.289l4.911-5.29 1.469 1.418-2.666 2.598v1.29h1.29l5.516-5.306 1.505 1.503L23 20.36v1.338l2.31 2.11L13 35.706v1.29h1.215l3.995-3.51 1.507 1.505-7.709 7.709v1.29h1.29l10.505-10.505 1.506 1.508-4.302 4.477V41h1.289L34.99 27.89l1.506 1.507L34 31.88V33h1.707l2.079-2.315 1.505 1.508-5.29 5.183v1.619h1.21l2.572-2.713 1.506 1.506L34 42.864V44h1.656l8.343-8.344L44 34.32zM16 12h-1.28L12 14.719V16h1.282L16 13.28V12zM44 40H42.72L40 42.719V44h1.282L44 41.282V40z" fill="#fff"/></svg>