<!-- by TradingView --><svg width="56" height="56" xmlns="http://www.w3.org/2000/svg"><path fill="#F0F3FA" d="M0 0h56v56H0z"/><path d="M44 28c0 8.837-7.163 16-16 16s-16-7.163-16-16 7.163-16 16-16 16 7.163 16 16z" fill="#fff"/><path d="M42.736 34.247c.82-1.81 1.264-4.15 1.264-6.447C44 19.074 36.837 12 28 12s-16 7.074-16 15.8c0 3.153.865 6.256 2.367 8.554 4.94-1.841 10.604-2.945 16.398-3.114 4.104-.12 8.209.238 11.97 1.007z" fill="#80BC00"/><path d="M28.057 44c6.276 0 11.85-3.732 14.397-9.136-10.226-1.051-18.686 2.023-24.436 5.636 2.697 2.189 6.323 3.5 10.039 3.5z" fill="#003B7C"/><path d="M20.863 25.78a11.33 11.33 0 00-1.401-.483c-.38-.114-.667-.209-.86-.281a1.507 1.507 0 01-.49-.288.57.57 0 01-.197-.442c0-.184.076-.323.227-.419.151-.096.358-.144.622-.144.334 0 .746.08 1.239.241.492.161 1.18.454 1.312.795l.88-1.851a5.78 5.78 0 00-1.512-.661A6.296 6.296 0 0018.939 22c-.652 0-1.224.102-1.716.304-.492.203-.872.493-1.14.868a2.198 2.198 0 00-.4 1.31c0 .528.13.952.389 1.27.26.317.572.555.936.711.365.158.826.313 1.384.466.373.1.661.186.867.258.205.073.376.171.512.293a.594.594 0 01.203.46.56.56 0 01-.273.505c-.182.115-.433.173-.75.173-.434 0-.933-.115-1.495-.345-.562-.23-1.139-.572-1.375-1.028l-.91 1.786a5.527 5.527 0 001.738.96c.67.233 1.344.35 2.018.35.613 0 1.169-.096 1.669-.287.5-.191.893-.477 1.18-.856.287-.38.43-.837.43-1.373s-.131-.971-.395-1.304a2.447 2.447 0 00-.948-.741zm8.008 1.698a2.492 2.492 0 01-.363.54 3.809 3.809 0 00-.2-.29c-.28-.36-.591-.653-1.022-.79l-1.077 1.098c.28.071.565.293.74.493.059.068.108.134.154.2-.047.002-.092.009-.14.009-.403 0-.776-.113-1.117-.338a2.44 2.44 0 01-.819-.922 2.733 2.733 0 01-.308-1.298c0-.467.1-.895.302-1.284a2.34 2.34 0 01.82-.916 2.038 2.038 0 011.122-.333c.403 0 .773.111 1.11.333.338.22.603.526.797.916.194.389.29.817.29 1.284 0 .476-.096.91-.29 1.298zm1.76 2.24c-.286.064-.596-.018-.919-.238.282-.218.535-.468.752-.74.058-.064.113-.13.162-.202a4.087 4.087 0 00.721-2.368c0-.78-.191-1.485-.575-2.114a4.074 4.074 0 00-1.582-1.482c-.67-.36-1.42-.54-2.25-.54-.83 0-1.58.18-2.25.54-.672.36-1.2.854-1.583 1.482a3.973 3.973 0 00-.575 2.114c0 .774.184 1.475.552 2.103a4.107 4.107 0 001.518 1.5c.644.371 1.369.568 2.175.591.003 0 .006-.002.01-.004.051.002.1.005.154.005.407 0 .795-.044 1.164-.13.354.4.758.69 1.214.86.48.18.965.21 1.457.088a2.24 2.24 0 001.038-.569c.028-.028-.73-1.175-.73-1.175-.113.168-.263.238-.453.28zM38.896 30s.104-.321.104-.519v-4.396L37.163 29h-1.324L34 25.085v4.396c0 .2.13.519.13.519h-2.274s.144-.321.144-.519v-6.866c0-.458-.144-.615-.144-.615h2.558l.187.383 1.9 4.423 1.853-4.43.184-.376h2.596s-.135.16-.135.614l.006 6.867c0 .2.134.519.134.519h-2.243z" fill="#fff"/></svg>