<!-- by TradingView --><svg width="56" height="56" fill="none" xmlns="http://www.w3.org/2000/svg"><path fill="url(#paint0_linear)" d="M0 0h56v56H0z"/><path d="M21.515 32.442L32.86 21.269l-1.623-1.598-11.345 11.172a3.908 3.908 0 01-5.467 0 3.766 3.766 0 010-5.384l10.013-9.86L22.815 14l-10.013 9.86a6.003 6.003 0 000 8.582c2.406 2.37 6.307 2.37 8.713 0zM34.48 23.558L23.138 34.731l1.622 1.598 11.345-11.172a3.908 3.908 0 015.467 0 3.767 3.767 0 010 5.384l-10.012 9.86L33.18 42l10.013-9.86a6.003 6.003 0 000-8.582c-2.406-2.37-6.307-2.37-8.713 0z" fill="#fff"/><path d="M27.48 16.387L16.76 26.946l1.622 1.598 10.722-10.558a4.922 4.922 0 016.885 0l1.623-1.599c-2.797-2.755-7.333-2.755-10.131 0zM39.237 29.054L28.515 39.613c-2.797 2.755-7.333 2.755-10.13 0l1.622-1.599a4.922 4.922 0 006.885 0l10.722-10.558 1.623 1.598z" fill="#fff"/><defs><linearGradient id="paint0_linear" x1="10.418" y1="9.712" x2="68.147" y2="76.017" gradientUnits="userSpaceOnUse"><stop stop-color="#1A1E21"/><stop offset="1" stop-color="#06060A"/></linearGradient></defs></svg>