<!-- by TradingView --><svg width="56" height="56" xmlns="http://www.w3.org/2000/svg"><path fill="url(#paint0_linear)" d="M0 0h56v56H0z"/><path d="M14.752 20.736C15.454 17.797 17.921 17 19.505 17h18.386c-1.98 1.245-2.627 3.616-2.891 5H20.693c-1.002 0-1.193 0-1.584 1.226L16.733 32H11.83s1.734-6.283 2.922-11.264z" fill="#00ADE6"/><path d="M33.366 34H11.188L10 39h24.554c2.218 0 3.565-2.075 3.96-3.32.793-2.768 2.395-7.982 2.773-9.963.396-2.075 1.188-3.717 1.98-3.717H45l1.5-5h-5.213c-1.98 0-3.168 2.214-3.564 3.32-.792 3.598-3.169 12.038-3.169 12.038S34.158 34 33.366 34z" fill="#00ADE6"/><defs><linearGradient id="paint0_linear" x1="10.418" y1="9.712" x2="68.147" y2="76.017" gradientUnits="userSpaceOnUse"><stop stop-color="#1A1E21"/><stop offset="1" stop-color="#06060A"/></linearGradient></defs></svg>