<!-- by TradingView --><svg width="56" height="56" xmlns="http://www.w3.org/2000/svg"><path fill="#209A8D" d="M0 0h56v56H0z"/><path d="M7.813 25c1.192.018 1.951.739 2.182 1.097l-.793.595c-.43-.464-.836-.615-1.39-.692-.553-.077-1.386.217-1.364.825.019.486.563.763.789.84l1.784.553c1.14.42 1.4 1.116 1.4 1.913 0 .785-.677 1.869-2.608 1.869-1.563 0-2.518-1.017-2.8-1.537l.88-.509C6.345 30.674 7.17 31 7.813 31s1.548-.072 1.585-.869c.027-.584-.513-.873-.885-.984l-1.604-.509c-.734-.298-1.456-.785-1.468-1.813-.01-1.028.881-1.847 2.372-1.825z" fill="#fff"/><circle cx="14.5" cy="28.5" r="3.5" fill="#fff"/><path d="M47.799 26.08c0 1.933 3.357 3.742-.3 5.504-.33.16-.628.373-.922.293a3.5 3.5 0 01.923-6.873 3.5 3.5 0 013.478 3.105c.015.129-1.024-2.1-3.18-2.028z" fill="#fff"/><path d="M51 28.502A3.5 3.5 0 0147.5 32c-.38 0-.673-.05-.9-.112 0 0 2.847-1.01 2.847-2.562 0-1.932-1.762-3.318-1.762-3.318 1.326 0 3.109.74 3.29 2.115.02.15.025.223.025.379z" fill="url(#paint0_linear)"/><circle cx="14.5" cy="28.5" r="2.5" fill="#209A8D"/><ellipse cx="47.5" cy="28.498" rx="2.5" ry="2.498" fill="#209A8D"/><path d="M19 32v-7h1v1.443c.432-1.272 1.247-1.469 1.715-1.443.375.02.861.234 1.057.337l-.432.888c-.336-.198-.78-.232-.96-.227-1.211.02-1.38 1.445-1.38 2.107V32h-1zm4 0v-7h1v1.443c.432-1.272 1.23-1.469 1.698-1.443.375.02.861.234 1.058.337l-.432.888c-.337-.198-.781-.232-.961-.227-1.211.02-1.363 1.445-1.363 2.107V32h-1zm7.003-6.996c2.615.036 3.339 2.265 3.339 4h-5.997c.171 1.397 1.295 1.916 2.658 2 1.09.067 1.935-.527 2.222-.853l.712.668c-1.031 1.013-2.386 1.21-2.934 1.183-3.34 0-3.68-2.963-3.659-3.52.022-.558.32-3.523 3.659-3.478z" fill="#fff"/><path d="M29.968 26.004c-1.855-.01-2.522 1.329-2.623 2h5c-.02-.663-.522-1.99-2.377-2z" fill="#209A8D"/><path d="M34 25v7h1v-4.08c0-.738.859-1.979 2.319-1.92 1.168.047 1.654 1.127 1.681 1.627V32h.999v-4.373c0-1.125-.719-2.58-2.498-2.626-1.423-.038-2.3.993-2.501 1.512V25h-1zm7 0v-3h1v3h1.627v1H42v4.066c0 .64.332.924.715.934.306.008.62-.198.738-.326l.546.666c-.378.516-1.065.655-1.361.66-1.418 0-1.629-1.244-1.638-1.934V26h-1.001v-1H41z" fill="#fff"/><defs><linearGradient id="paint0_linear" x1="49.941" y1="25.973" x2="47.95" y2="32.001" gradientUnits="userSpaceOnUse"><stop offset=".383" stop-color="#00587C"/><stop offset=".599" stop-color="#FDFEFE"/><stop offset=".84" stop-color="#005979"/></linearGradient></defs></svg>