<!-- by TradingView --><svg width="56" height="56" xmlns="http://www.w3.org/2000/svg"><path fill="#002D72" d="M0 0h56v56H0z"/><path d="M18.79 18.437L23.004 15c-.125 1.655 1.593 4.268 2.468 5.368l11.81 13.264c.56.58 1.067 2.444.404 3.806-.721 1.483-3.449 2.993-4.722 3.562.038-1.932-1.537-4.257-2.33-5.177-3.006-3.22-9.489-10.227-11.374-12.502-1.886-2.274-1.309-4.226-.47-4.884zM37.609 20.105L32.588 24c-5.7-4.983-7.41-8.086-7.554-9.014-.075-.484-.102-1.495.767-2.273.727-.651 2.007-.898 2.497-.565 2.598 1.772 8.074 5.425 9.055 6.122.98.696.658 1.492.256 1.835zM18.391 35.895L23.412 32c5.7 4.983 7.41 8.086 7.554 9.014.075.484.102 1.495-.767 2.273-.727.651-2.007.898-2.497.565-2.598-1.772-8.074-5.425-9.055-6.122-.98-.696-.659-1.492-.256-1.835z" fill="#FEBF3E"/></svg>