<!-- by TradingView --><svg width="56" height="56" xmlns="http://www.w3.org/2000/svg"><path fill="#00958F" d="M0 0h56v56H0z"/><path d="M8.08 29.155c-.215-.164-.847-.308-1.408-.487-.562-.181-1.006-.36-1.333-.534C4.446 27.656 4 27.012 4 26.204c0-.422.119-.796.356-1.124.241-.331.585-.59 1.031-.775.45-.186 1.197-.305 1.754-.305.562 0 1.062.102 1.5.305.44.2.78.483 1.021.85.245.367.338.784.338 1.251H8c0-.718-.436-1.14-1.154-1.14-.552 0-1.227.311-1.227.943 0 .253.128.465.383.636.26.171.882.305 1.382.454.921.275 1.592.615 2.014 1.022.42.406.631.912.631 1.519 0 .673-.257 1.203-.772 1.588-.514.381-1.207.572-2.078.572a4.073 4.073 0 01-1.652-.326c-.496-.221-.876-.523-1.138-.904A2.304 2.304 0 014 29.444h2c.002.558.143 1.289 1.18 1.289.812 0 1.796-.912.9-1.578zM13 32h-2v-8h2v8zM17 24l1.5 5 1.5-5h3v8h-1.998v-6L19 32h-1l-2-6v6h-2v-8h3zM26 29v3h-2v-8h3.107c.59 0 1.108.107 1.554.32.45.215.795.627 1.037 1.022.24.392.302.84.302 1.343 0 .762-.24 1.274-.769 1.716-.525.438-1.22.599-2.151.599H26zm0-1c1.119 0 2.013 0 2-1.495-.013-1.496-.978-1.505-2-1.505v3zM34.542 29.155c-.215-.164-.688-.335-1.25-.513-.56-.182-1.005-.36-1.333-.535-.892-.478-1.344-1.121-1.344-1.93 0-.421.124-.796.362-1.123.241-.332.585-.59 1.03-.776.45-.185.954-.278 1.512-.278.561 0 1.146.102 1.585.305.439.2.886.483 1.127.85.245.367.384.784.384 1.251h-2.001c0-.644-.48-1.128-1.122-1.128-.396 0-.703.084-.923.251a.775.775 0 00-.33.653c0 .253.129.465.384.636.26.171.639.332 1.139.481.921.275 1.652.514 2.073.92.42.407.78.915.78 1.588 0 .674-.381 1.236-.896 1.62-.514.382-1.028.573-1.9.573a4.073 4.073 0 01-1.65-.326c-.497-.221-.877-.523-1.14-.904a2.323 2.323 0 01-.414-1.326h2c0 .859.169 1.289 1.205 1.289.813 0 1.486-1.01.722-1.578zM44.12 28.177c0 .766-.136 1.438-.41 2.015a3.064 3.064 0 01-1.176 1.337c-.508.314-1.09.471-1.749.471-.651 0-1.232-.155-1.743-.465a3.104 3.104 0 01-1.188-1.326c-.28-.578-.423-1.241-.426-1.99v-.385c0-.766.138-1.44.415-2.021.281-.585.675-1.032 1.182-1.342.511-.314 1.094-.471 1.75-.471.654 0 1.235.157 1.743.47.51.31.904.758 1.182 1.343.28.58.42 1.253.42 2.016v.348zm-2.01-.186c-.008-1.267-.457-2.365-1.336-2.379-.878-.014-1.452.756-1.46 2.38 0 1.181.368 2.42 1.471 2.434 1.103.014 1.331-1.167 1.324-2.434zM52 32h-2l-3-5v5h-2v-8h2l3 5v-5h2v8z" fill="#fff"/></svg>