<!-- by TradingView --><svg width="56" height="56" xmlns="http://www.w3.org/2000/svg"><path fill="#173E6A" d="M0 0h56v56H0z"/><circle cx="18.337" cy="33.64" r="4.253" fill="#fff"/><circle cx="37.308" cy="15.58" r="3.475" fill="#fff"/><circle cx="36.98" cy="30.165" r="3.544" fill="#fff"/><path d="M25.958 36.83a4.045 4.045 0 105.47.082 8.63 8.63 0 01-2.612.401 8.62 8.62 0 01-2.858-.484zM25.099 20.85a3.744 3.744 0 10-2.99 2.343 8.696 8.696 0 012.99-2.342zM33.27 16.179a3.162 3.162 0 00-3.674 3.871c1.783.16 3.41.858 4.717 1.932a3.16 3.16 0 001.512-2.598 4.087 4.087 0 01-2.555-3.205z" fill="#fff"/><path d="M32.547 30.165a4.434 4.434 0 013.652-4.365 7.923 7.923 0 00-15.288 3.42 5.112 5.112 0 012.475 5.23 7.895 7.895 0 005.43 2.153 7.903 7.903 0 005.894-2.63 4.43 4.43 0 01-2.163-3.808z" fill="#fff"/></svg>