<!-- by TradingView --><svg width="56" height="56" xmlns="http://www.w3.org/2000/svg"><path fill="#0080C5" d="M0 0h56v56H0z"/><path d="M16.56 27h-2.53c-.116 0-.163-.235-.22-.311-.762-1.022-2.217-1.13-3.164-.696a1.155 1.155 0 00-.727.977c-.048.482.227.777.599 1.011.574.362 1.223.547 1.857.764.826.283 1.657.555 2.433.964 1.238.654 1.994 1.618 1.962 3.078-.003.178.068.221.225.22.608-.007 1.217.004 1.826-.007a.521.521 0 01.271.038c.085.04.157.1.21.178a2.983 2.983 0 003.324.916 1.61 1.61 0 00.769-.55 1.13 1.13 0 00-.105-1.516c-.368-.377-.84-.58-1.32-.76-.867-.327-1.742-.633-2.61-.955a5.476 5.476 0 01-1.109-.565c-1.698-1.118-1.939-3.316-.52-4.776.792-.817 1.783-1.235 2.894-1.36 1.679-.19 3.178.211 4.39 1.45.414.433.777 1.096.985 1.658.075.194.028.244-.167.242a144.91 144.91 0 00-2.284 0 .342.342 0 01-.291-.152c-.37-.447-.877-.908-1.443-1.04a2.653 2.653 0 00-1.687.166c-.456.206-.74.542-.77 1.049-.028.463.258.746.62.97.569.35 1.205.537 1.83.75.867.296 1.74.578 2.546 1.023.905.5 1.379 1.189 1.635 2.241.006-.064.014-.128.018-.192.003-.064 0-.128 0-.192 0-4.849-.002-9.24-.007-14.237 0-.307.028-.387.34-.386 3.332.013 6.983.013 10.314 0 .294 0 .347.086.346.357-.008 3.927-.005 7.103 0 11.041 1.13-3.322 3.354-4.974 6.847-4.752 2.18.138 3.834 1.422 5.01 3.354h-2.045c-.096 0-.193-.007-.288.001-.506.034-1.011-.233-1.451-.486-1.395-.72-2.819-.685-4.125.21-1.309.897-1.7 2.253-1.58 3.766.12 1.506.811 2.68 2.255 3.262 1.48.597 2.891.393 4.167-.584a.529.529 0 01.332-.169c.948.004 1.923.002 2.878.002-.498 1.364-2.296 3.146-4.837 3.481-1.623.214-3.147-.087-4.53-.98-1.373-.888-2.157-2.24-2.633-3.798 0 2.268-.012 4.618 0 6.886.002.304-.049.41-.391.41a1214.16 1214.16 0 00-10.313-.005c-.263.001-.297-.064-.295-.332.013-1.613.006-3.225.006-4.838v-.382c-.172.632-.294 1.213-.738 1.695-.761.786-1.719 1.168-2.775 1.331a6.163 6.163 0 01-2.85-.193 4.781 4.781 0 01-2.778-2.274c-.058-.1-.112-.204-.187-.34-.03.067-.052.106-.066.148-.343 1.05-1.056 1.777-2.046 2.208-1.599.696-3.235.744-4.851.071-1.29-.536-2.167-1.528-2.675-2.818-.035-.089-.052-.152-.041-.196.015-.056.079-.078.22-.076.736.01 1.51.008 2.246.001a.388.388 0 01.196.031.39.39 0 01.15.132 3.002 3.002 0 003.215 1.023c.31-.083.594-.248.818-.479a1.148 1.148 0 00-.04-1.684 3.196 3.196 0 00-1.125-.656c-.878-.329-1.764-.636-2.641-.964a5.917 5.917 0 01-1.36-.704c-1.43-1.013-1.749-2.867-.723-4.29.692-.958 1.668-1.483 2.807-1.692 1.794-.329 3.418.018 4.758 1.33.523.514.924 1.374 1.04 1.951z" fill="#fff"/><path d="M32.296 32l-.685-.772s.705-.363 1.01-.627c.25-.227.44-.522.551-.855a2.19 2.19 0 00.086-1.04 2.106 2.106 0 00-.403-.947 1.867 1.867 0 00-.783-.603 2.44 2.44 0 00-1.089-.145c-1.61.1-2.459 1.768-1.68 3.304a8 8 0 00.21.379l.1.174-.167.107c-.12.078-.241.155-.36.237-.82.568-1.202 1.383-1.055 2.43.147 1.048.765 1.66 1.686 1.917 1.131.315 2.128-.009 3-.818.063-.058.216-.226.216-.226L34 36v-4h-1.704zm-2.016-2.818c0-.48.228-.852.6-.978.407-.139.86.016 1.062.363a1.143 1.143 0 01-.094 1.24c-.233.298-.55.453-.875.593a.14.14 0 01-.101.013.15.15 0 01-.086-.06c-.272-.338-.519-.688-.506-1.171zm.385 5.265c-.66-.002-1.175-.4-1.275-.985-.11-.644.252-1.302.852-1.584a.182.182 0 01.14-.02.196.196 0 01.116.086l.127.139c.455.499.911.998 1.372 1.49.108.115.097.186-.012.282-.387.34-.804.596-1.32.593z" fill="#0080C5"/></svg>