<!-- by TradingView --><svg width="56" height="56" xmlns="http://www.w3.org/2000/svg"><path fill="#EE3625" d="M0 0h56v56H0z"/><path d="M33.47 28.027l-.398-.065c-.396-.069-.811-.164-.811-.548 0-.33.434-.414.88-.414.665 0 1.266.218 1.332.25l.346-.918c-.14-.07-.733-.332-1.666-.332-.855 0-1.837.337-1.837 1.414 0 .964.653 1.325 1.34 1.442l.48.08c.463.076.864.244.864.537 0 .37-.508.542-1.055.542-.875 0-1.389-.252-1.537-.31l-.403.905c.125.063.723.388 1.889.388 1.13 0 2.106-.538 2.106-1.544-.008-.936-.728-1.294-1.53-1.427zM37 24.001l-1 .571V26h-.639v1h.64v2.183c0 .912.2 1.815 1.57 1.815h.43V30h-.21c-.674 0-.79-.45-.79-.96V27h1v-1h-1v-2zm8.543 3.002c.418 0 .883.131 1.011.575l.934-.345c-.271-.927-1.146-1.23-1.934-1.23-1.412 0-2 .802-2 1.623v1.706c0 .822.588 1.668 2 1.668.788 0 1.663-.347 1.934-1.275l-.934-.318c-.128.443-.582.596-1 .596-.727 0-1-.39-1-.829v-1.39c0-.438.262-.781.989-.781zm4.325 1.227L52 26h-1l-2 2v-4.002h-1v7h1v-1.641l.452-.357L51 30.997 52 31l-2.133-2.77zM42 27h-1.606c-.177 0-.394.2-.394.37V29h-1v-1.63c0-.36.127-.714.39-.968.264-.255.631-.401 1.004-.4H42V27zm-2 3h1.58c.17 0 .42-.218.42-.382V28h1v1.618c0 .363-.15.71-.416.968A1.459 1.459 0 0141.58 31H40v-1zm-18-4h1v1h-1v2.03c0 .51.101.97.774.97H23v1h-.429C21.2 31 21 30.085 21 29.173V27h-2v2.03c0 .51.073.97.747.97H20v1h-.422C18.208 31 18 30.085 18 29.173V27h-.553v-1H18v-1.422L19 24v2h2v-1.422L22 24v2zm-11.419 0c-.339 0-.758.07-1.067.196V24H8.52v7h.995v-3.74c.215-.13.57-.259.872-.259.673 0 1.128.263 1.128.795V31h1v-3.345c0-.98-.773-1.655-1.933-1.655zM16 29.857c-.204.105-.505.143-.76.143-.8 0-1.24-.288-1.24-.829V26h-1v3.19c0 1.22.8 1.807 2.107 1.807.626 0 1.293-.152 1.893-.403V26h-1v3.857zm-9.535-1.83c-.074-.012-.325-.052-.398-.065-.396-.069-.832-.179-.808-.543.023-.364.56-.418 1.007-.418.664 0 1.122.228 1.189.26l.358-.93c-.139-.07-.732-.331-1.666-.331-.854 0-1.79.343-1.79 1.42 0 .963.605 1.32 1.295 1.436.094.017.393.066.48.08.462.076.868.237.868.53 0 .37-.513.534-1.06.534-.875 0-1.389-.237-1.537-.296L4 30.61c.126.063.723.388 1.889.388 1.13 0 2.111-.526 2.111-1.532-.01-.936-.735-1.306-1.535-1.439zm21.535-.4c0-.889-.757-1.627-2.018-1.627C24.55 26 24 26.82 24 27.626v1.612c0 1.115.739 1.762 1.982 1.762 1.096 0 1.665-.612 1.834-.979l-.904-.524c-.077.216-.435.503-.923.503-.662 0-.989-.34-.989-.787V29h3v-1.374zM27 28h-2v-.242c0-.394.274-.758.977-.758.677 0 1.023.353 1.023.739V28zm1.5-.374V31h.999v-3.286c0-.279.164-.755.95-.755.123 0 .462.025.551.041v-1c-.097-.023-.378 0-.606 0-1.36 0-1.894.779-1.894 1.626z" fill="#fff"/></svg>