<!-- by TradingView --><svg xmlns="http://www.w3.org/2000/svg" width="56" height="56"><path fill="#F0F3FA" d="M0 0h56v56H0z"/><path d="M12.4 26.36l-.37-4.76-.37 4.76-1.42-4.56.7 4.72-2.4-4.12 1.74 4.44-3.26-3.49L9.7 27.3l-3.95-2.68 3.5 3.26-4.45-1.73 4.12 2.4-4.72-.7 4.56 1.41-4.76.37 4.76.37h6.54l4.76-.37-4.76-.37 4.56-1.42-4.72.7 4.13-2.4-4.45 1.74 3.5-3.26-3.96 2.68 2.68-3.95-3.26 3.5 1.74-4.45-2.4 4.12.7-4.72-1.42 4.56z" fill="#F6BE58"/><path d="M15 30a3 3 0 00-3-3.2A3 3 0 009 30h6z" fill="#EC9B24"/><path d="M4 30.5h48v.5H4zM24.22 24l.1 1.54h-.21c-.05-.52-.65-1.27-1.38-1.25-.74.03-1.05.6-1.05 1.02 0 .42.41.89 1.12 1.05.77.19 1.85.65 1.85 1.82A1.8 1.8 0 0122.88 30c-.77 0-1.24-.38-1.48-.56l-.01-.01-.23.25H21l.16-1.61h.31v.54c.18.79.88 1.09 1.41 1.07.42-.02 1.15-.25 1.15-1.07 0-.81-.69-1.15-1.15-1.27-.61-.15-1.84-.73-1.8-1.8.06-1.34 1.3-1.54 1.72-1.54.33 0 .73.13.89.2.23.09.32-.1.34-.2h.19zm2.77 2h-1.71v.3h.18c.25 0 .3.23.3.35v2.1c-.03.34.3 1.25 1.68 1.25 1.15 0 1.45-.93 1.45-1.36v-2c-.02-.25.15-.33.23-.33h.24V26h-1.44v.3h.31c.17 0 .17.2.18.33v2.12c0 .3-.18.86-.97.86-.8 0-1.03-.59-1.03-.86v-2.1c-.02-.26.14-.34.22-.34h.36V26zM30 26h1.11l2.18 2.88v-2.3c0-.1-.02-.25-.24-.25h-.2V26H34v.33h-.18c-.06 0-.19.04-.2.27V30h-.26l-2.5-3.27v2.6c0 .1.06.31.25.33h.22V30H30v-.34h.27c.13 0 .22-.11.24-.32v-2.6c0-.14-.06-.41-.33-.41H30V26zm14.31 0h-1.1v.33h.18c.26 0 .32.27.32.4v2.6c-.02.22-.13.31-.18.33h-.33V30h1.3v-.34h-.19c-.19-.02-.25-.22-.25-.32v-2.6l2.5 3.26h.27v-3.4c0-.23.13-.28.2-.27h.17V26h-1.25v.33h.22c.24 0 .32.19.32.27v2.28L44.31 26zM35 24h2.33v.4h-.56c-.07 0-.2.04-.2.25v4.7c0 .12.02.28.2.31h1.66c.36 0 .82-.44 1.28-1.66H40l-.5 2H35v-.34h.4c.22 0 .37-.17.36-.3v-4.7c0-.1-.08-.26-.36-.26H35V24zm7.2 2h-1.75v.33h.36c.15 0 .2.13.2.2v2.88c-.02.18-.14.24-.2.25h-.36V30h1.75v-.34h-.32c-.15 0-.18-.17-.18-.25v-2.88c0-.15.12-.2.18-.2h.32V26zm6.1 0h1.47v.34h-.3c-.02.01-.08.05-.08.15v1.37h.19l1.18-1.37s.14-.15.04-.15h-.24V26h1.27v.34h-.4c-.04 0-.15.06-.22.15l-1.2 1.3 1.65 1.88H52V30h-1.5v-.33h.15c.05-.03.11-.1 0-.2-.12-.1-.76-.9-1.07-1.3h-.2v1.36c0 .05.02.14.1.14h.3V30H48.3v-.33h.29c.07 0 .13-.04.13-.17v-3c-.02-.05-.08-.15-.18-.15h-.24V26z"/></svg>