<!-- by TradingView --><svg width="56" height="56" xmlns="http://www.w3.org/2000/svg"><path fill="#F6F8FD" d="M0 0h56v56H0z"/><circle cx="5.5" cy="28.5" r="1.5" fill="#575757"/><circle cx="8.5" cy="24.5" r="1.5" fill="#D0D0D0"/><circle cx="12.5" cy="24.5" r="1.5" fill="#0197E4"/><circle cx="19.5" cy="24.5" r="1.5" fill="#678663"/><circle cx="23.5" cy="24.5" r="1.5" fill="#2C7097"/><circle cx="31.5" cy="24.5" r="1.5" fill="#B5D77A"/><circle cx="37.5" cy="24.5" r="1.5" fill="#AC700E"/><circle cx="23.5" cy="28.5" r="1.5" fill="#387472"/><circle cx="15.449" cy="28.5" r="1.5" fill="#7893BE"/><circle cx="5.5" cy="32.522" r="1.5" fill="#8E8E8E"/><circle cx="28.5" cy="28.5" r="1.5" fill="#279E40"/><circle cx="41.5" cy="28.5" r="1.5" fill="#B15196"/><circle cx="45.5" cy="28.5" r="1.5" fill="#F19542"/><circle cx="45.5" cy="24.5" r="1.5" fill="#CF016D"/><circle cx="50.5" cy="24.5" r="1.5" fill="#CC000D"/><circle cx="28.5" cy="32.522" r="1.5" fill="#76B71C"/><circle cx="41.5" cy="32.522" r="1.5" fill="#98814A"/><circle cx="19.5" cy="32.522" r="1.5" fill="#6A73BB"/></svg>