<!-- by TradingView --><svg xmlns="http://www.w3.org/2000/svg" width="56" height="56"><path fill="#F0F3FA" d="M0 0h56v56H0z"/><path d="M16.24 25v-1.22c.07-.96-.8-2.78-4.93-2.78C6.15 21 6 23.31 6 24.56c0 1.39.3 2.94 3.6 4.28.83.32 2.47 1.22 2.4 2.33v.57c-.02.26-.21.78-.8.8-.6.01-.79-.53-.8-.8V30H6v1.74c0 1.34.8 3.35 5.3 3.26 4.45-.1 5.2-1.95 5.2-2.94v-1.82c.02-.76-.7-2.58-3.74-3.75-.79-.27-2.37-1.04-2.37-1.93v-.19c0-.26.15-.8.8-.8.66 0 .81.54.81.8V25h4.24zm.76-4h11v3h-3v11h-5V24h-3v-3zm12.37 0l-.51 3.01c.26.33.87.82 1.93.98 1.26.2 1.5 1.15 1.45 1.6.37.18 1.26.78 1.86 1.75.38.24 1.65.66 1.96.35.13-.16.25-.75-.35-1.82.37.47 1.04 1.56.7 2.13-.33.57-1.49.18-2.02-.09l.1.29c.02.05 0 .18-.2.3-.26.15-1.75.75-2.34.89a.56.56 0 01.11-.65c.24-.24.4-.49.45-.58.05-.07.08-.25-.15-.34-.24-.1-1.05-.27-1.42-.34l.64 2.06-.6.26a7.2 7.2 0 00-2-2.1c-.07-.03-.17-.1-.12-.22.06-.1.25-.02.34.05.27.14.9.52 1.3.9.06.03.16.1.2.07.04-.03-.04-.18-.09-.25-.34-.47-1.3-1.4-2.38-1.5L27 35h4.87l.24-3h1.8l.22 3H39l-2.59-14h-7.04zm5.8 7.22c-.58-.54-1.67-1.68-1.67-2.43 0-.8 1.77-1.08 3.67-.41-1.11-.22-3.28-.4-3.28.41 0 .28.3.97 1.27 1.9v.53zM50 35h-2.88l-.4-1.19c-.93.92-2.72 1.18-3.5 1.19-3.4.05-4.23-2.4-4.22-3.63v-6.79l.01-.08c.1-.78.43-3.56 5.7-3.5 4.4.05 5.36 2.41 5.29 3.58V26h-4.5v-1.5a1 1 0 10-2 0v7a1 1 0 102 0V30h-1v-2H50v7z" fill="#133596"/></svg>