<!-- by TradingView --><svg width="56" height="56" xmlns="http://www.w3.org/2000/svg"><path fill="#009460" d="M0 0h56v56H0z"/><path d="M38.423 22.498l-4.882 3.888-3.135-2.37 4.526-3.518c.304-.269.525-.718.602-1.427.078-.708-.369-1.263-.602-1.451-1.663-1.247-5.19-3.863-5.994-4.355-.804-.492-1.571-.205-1.854 0l-5.798 4.158c-.266.131-.818.61-.895 1.48-.077.87.564 1.59.895 1.84l17.302 12.908c.633.56 1.364 1.55 1.41 3.27.046 1.722-.822 2.876-1.41 3.242l-8.766 6.424c-.377.213-.929.413-1.76.413-.83 0-1.452-.159-1.758-.413l-8.911-6.424c-.48-.455-1.459-1.544-1.39-3.241.07-1.698.762-2.712 1.39-3.271l5.248-3.92 3.028 2.24-4.614 3.477c-.362.414-.605.834-.605 1.474 0 .67.355 1.257.605 1.473 1.894 1.395 5.797 4.244 6.258 4.48.461.235 1.115.098 1.384 0l5.846-4.126a2.46 2.46 0 00.96-1.827c.046-.825-.62-1.549-.96-1.807l-16.8-12.492c-.595-.478-1.57-1.876-1.54-3.72.029-1.844.677-2.82 1.283-3.355l8.4-5.946c1.732-1.105 3.499-.432 4.056 0l8.481 6.155c.611.502 1.465 1.418 1.486 3.146.022 1.728-.644 2.832-1.486 3.595z" fill="#fff"/></svg>