<!-- by TradingView --><svg xmlns="http://www.w3.org/2000/svg" width="56" height="56"><path fill="#F8511A" d="M0 0h56v56H0z"/><path d="M22 25.45V23h-2v-3h-3v10.4c0 .56.38 3.6 5 3.6v-2.48c-.91-.07-1.94-.2-2-1.12v-4.95h2zM28 23v2.35c.87.06 1.84.74 1.84 1.9H25.4c0-1.02 1.05-1.88 2.05-1.88V23c-2.96.14-5.05 2.3-5.05 5.5 0 3.11 1.78 5.36 5.05 5.5v-2.44c-1.67-.24-2.05-1.48-2.05-2.56H33v-.22c0-3.35-1.76-5.69-5-5.78zm0 8.57V34c3.58-.08 4.65-2.31 4.8-3.63h-2.89c-.03.34-.57 1.2-1.91 1.2zm9-7.54V23h-3v11h3v-9.97zM46.1 23c-1.3 0-2.49.41-3.33 1.38-.52-.81-1.42-1.38-2.92-1.38-.96 0-1.74.28-2.3.68v2.42c.34-.4.83-.59 1.34-.59 1.14 0 1.61.83 1.61 1.8V34h3v-6.4c0-1.44.9-2.09 1.83-2.09 1.15 0 1.67.83 1.67 1.8V34h3v-7.4c0-2.1-1.4-3.6-3.9-3.6zM9.23 26.15c0-.68.76-.94 1.48-.97V23c-2.52.06-4.5 1.2-4.5 3.35 0 2.5 2.08 3.03 4.44 3.34l.6.08c.85.12 1.75.3 1.75.95 0 .74-.87 1.06-1.79 1.09V34c3.85-.1 4.79-2 4.79-3.6 0-2.68-2.59-3.04-4.56-3.32-1.22-.16-2.2-.3-2.2-.93zm3.45.17c0-.66-.6-1.06-1.47-1.13V23c4.03.1 4.45 2.5 4.45 3.32h-2.98zM9 30.47c0 .9.81 1.26 1.7 1.32V34C6.26 33.92 6 31.02 6 30.47h3z" fill="#fff"/></svg>