<!-- by TradingView --><svg width="56" height="56" xmlns="http://www.w3.org/2000/svg"><path fill="#0072BC" d="M0 0h56v56H0z"/><path d="M42.625 24h-6.132c-.189.835-.64 2.754-.933 3.742-.294.99-.922 1.258-1.2 1.258H31l-3.415 6h4.909c1.493 0 1.622.903 1.5 1.395L33.426 40h6.398l2.8-16z" fill="#fff"/><path d="M15.723 33H9.291L8 40h11.474c2.044 0 3.651-.945 4.255-2l7.267-12.714c1.147-2.019 3.124-2.35 3.968-2.286h7.84L44 16c-3.394.017-10.747.039-13.004 0-2.256-.037-3.65 1.35-4.064 2.048l-7.458 12.619C18.305 32.372 16.897 33 15.724 33z" fill="#fff"/></svg>