<!-- by TradingView --><svg xmlns="http://www.w3.org/2000/svg" width="56" height="56"><path fill="#243782" d="M0 0h56v56H0z"/><path d="M27.45 11.5a.5.5 0 011 0 .5.5 0 01-1 0zM25.21 43a.8.8 0 01-.79-.8c0-.43.35-.8.79-.8a.8.8 0 01.79.8.8.8 0 01-.79.8zM28 41a1 1 0 001-1 1 1 0 00-1-1 1 1 0 00-.01 2zm1-25a1 1 0 11-2 0 1 1 0 011-1 1 1 0 011 1zm5.55-3a.5.5 0 00.45-.54.5.5 0 10-.47.54h.02zM21.84 32H19.3l6.33-11H28l-6.16 11zm14.85 0h-2.53L28 21h2.36l6.33 11zM25 39a1 1 0 11-2 0 1 1 0 011-1 1 1 0 011 1zm7.37-21.31a1 1 0 001-1 1 1 0 00-1-1 1 1 0 00-.01 2zM21.36 37a1 1 0 11-2 0 1 1 0 011-1 1 1 0 011 1zM35 19a1 1 0 001 1 1 1 0 001-1 1 1 0 00-2-.01zM17.58 35a1 1 0 110-2 1 1 0 011 1 1 1 0 01-1 1zm19.94-12.87a1 1 0 001 1 1 1 0 001-1 1 1 0 00-2-.01zm-14.79-5.45a1 1 0 112 0v.01a1 1 0 01-1 1 1 1 0 01-1-1.01zM32 38a1 1 0 00-1 1 1 1 0 001 1 1 1 0 00.01-2zM19 19a1 1 0 112 0 1 1 0 01-1 1 1 1 0 01-1-1zm16.78 17a1 1 0 00-1 1 1 1 0 001 1 1 1 0 00.01-2zM16.5 22.18a1 1 0 112 0 1 1 0 01-2 0zM37.52 34a1 1 0 001 1 1 1 0 001-1 1 1 0 00-2-.01zM40 27a1 1 0 110-2 1 1 0 011 1 1 1 0 01-1 1zm-1 3a1 1 0 001 1 1 1 0 001-1 1 1 0 00-2-.01zm-23-3a1 1 0 110-2 1 1 0 011 1 1 1 0 01-1 1zm-1 3a1 1 0 001 1 1 1 0 001-1 1 1 0 00-2-.01zm15.8 13a.8.8 0 01-.8-.8c0-.43.35-.8.8-.8a.8.8 0 01.78.8.8.8 0 01-.79.8zm-6.38-29.8a.8.8 0 101.58 0 .8.8 0 10-1.58 0zm6.37.8a.8.8 0 01-.79-.8c0-.43.35-.8.79-.8a.8.8 0 01.79.8.8.8 0 01-.79.8zM19.24 39.9a.8.8 0 101.47.58.8.8 0 10-1.47-.57zm16.34-23.95a.8.8 0 01-.44-1.03.8.8 0 011.47.58.8.8 0 01-1.03.45zm-.04 24.87a.8.8 0 101.16-1.07.8.8 0 10-1.16 1.07zM20.67 15.79a.8.8 0 01-1.12-.05.8.8 0 011.16-1.07.8.8 0 01-.04 1.12zm19.11 21.98a.8.8 0 10.67-1.43.8.8 0 10-.67 1.43zm-23.06-.38a.8.8 0 01-1.05.38.8.8 0 01.67-1.43c.4.18.57.65.38 1.05zm22.84-18.15a.8.8 0 10.67-1.43.8.8 0 10-.67 1.43zm-22.88.3a.8.8 0 01-1.06.37.8.8 0 01.67-1.43c.4.19.57.65.39 1.05zm25.73 13.89a.8.8 0 10.22-1.57.8.8 0 10-.22 1.57zM14.37 23.18a.8.8 0 01-.9.68.8.8 0 01.22-1.56.8.8 0 01.68.88zm28.54.39a.8.8 0 10-.79-1.37.8.8 0 10.8 1.37zm-28.64 8.96a.8.8 0 01-.3 1.09.8.8 0 01-.79-1.37.8.8 0 011.09.28zm-1.89-5.31a.8.8 0 10.22 1.56.8.8 0 10-.22-1.56zm30.41.46a.8.8 0 01.65-.52.8.8 0 01.21 1.56.8.8 0 01-.86-1.04zm-3.24-12.12a.5.5 0 00.45-.54.5.5 0 10-.47.54h.02zm4.76 3.65a.5.5 0 01-.45.54h-.02a.5.5 0 01-.07-1 .5.5 0 01.54.46zM46.55 25a.5.5 0 00.45-.54.5.5 0 10-.47.54h.02zm.45 5.86a.5.5 0 01-.45.55h-.03a.5.5 0 01-.06-1 .5.5 0 01.54.45zM44.55 37a.5.5 0 00.45-.54.5.5 0 10-.47.54h.02zm-4.05 3.99a.5.5 0 01-.45.54h-.02a.5.5 0 01-.07-1 .5.5 0 01.54.46zm-5.95 3a.5.5 0 00.45-.53.5.5 0 10-.47.54h.02zm-6.05.47a.5.5 0 01-.45.54h-.03a.5.5 0 01-.06-1 .5.5 0 01.54.46zM21.55 44a.5.5 0 00.45-.54.5.5 0 10-.47.54h.02zm-5.05-3.01a.5.5 0 01-.45.54h-.03a.5.5 0 01-.06-1 .5.5 0 01.54.46zm-4.86-4a.5.5 0 00.45-.53.5.5 0 10-.47.54h.02zM10 30.87a.5.5 0 01-.45.55h-.03a.5.5 0 01-.06-1 .5.5 0 01.54.45zM9.55 25a.5.5 0 00.45-.54.5.5 0 10-.47.54h.02zm3.04-5.8a.5.5 0 01-.45.55h-.03a.5.5 0 01-.06-1 .5.5 0 01.54.46zm3.96-3.64a.5.5 0 00.45-.54.5.5 0 10-.47.54h.02zm5.45-3.1a.5.5 0 01-.45.54h-.03a.5.5 0 01-.06-1 .5.5 0 01.54.46z" fill="#fff"/></svg>