<!-- by TradingView --><svg width="56" height="56" xmlns="http://www.w3.org/2000/svg"><path fill="#0099D8" d="M0 0h56v56H0z"/><path d="M38 24h6l-7 16h-6l7-16z" fill="#fff"/><path d="M46 20H20.395c-1.492 0-2.983.087-4.052 1.136-1.037 1.016-1.648 2.406-1.645 3.864.004 1.588.724 3.049 1.915 4.082l4.977 4.614c.755.69.156 2.316-.794 2.304H8l9-20h31l-2 4z" fill="#fff"/><path d="M33 24l-7 16h-3.16c-.259-.06-.287-.242-.059-.38 1.52-.54 2.764-1.814 3.308-3.322.685-1.9.175-4.054-1.21-5.512L19.59 25.89a1.087 1.087 0 01-.235-1.264c.2-.407.597-.59 1.033-.615L33 24z" fill="#fff"/></svg>