<!-- by TradingView --><svg width="56" height="56" xmlns="http://www.w3.org/2000/svg"><path fill="url(#paint0_linear)" d="M0 0h56v56H0z"/><path d="M24 41.51c4.73-.696 8.513-4.336 9-8.51.348.626.688 1.555.688 2.599 0 3.687-3.114 6.401-6.801 6.401-1.183 0-2.609-.42-2.887-.49zm11.583-19.493c-.279-.208-1.113-.765-1.74-1.182-2.295-1.53-4.034-2.435-4.034-4.105 0-1.043.834-1.808 1.947-1.808 2.018 0 4.383 1.808 4.383 1.808C39.756 19.374 42 23.548 42 28c0 1.74-.471 3.374-.68 4 0-2.017-1.077-6.922-5.737-9.983zM16.6 36.195C14.93 33.76 14 30.922 14 28c0-7.652 5.93-13.235 12.4-14-.14.07-1.74 1.27-1.74 3.774 0 2.296 1.6 4.313 2.923 6.191.347.487.626.974 1.043 1.53C29.67 27.096 31 29.184 31 31.618c0 4.383-3.626 7.792-7.87 7.792-3.756.07-5.626-1.962-6.53-3.214zM12 28c0 8.835 7.165 16 16 16s16-7.165 16-16-7.165-16-16-16-16 7.165-16 16z" fill="#fff"/><defs><linearGradient id="paint0_linear" x1="10.418" y1="9.712" x2="68.147" y2="76.017" gradientUnits="userSpaceOnUse"><stop stop-color="#1A1E21"/><stop offset="1" stop-color="#06060A"/></linearGradient></defs></svg>