<!-- by TradingView --><svg xmlns="http://www.w3.org/2000/svg" width="56" height="56"><path fill="#E26300" d="M0 0h56v56H0z"/><path d="M11.16 27.97c-2.9-.85-6.9-2.96-3.24-5.57 1.79-1.27 6.44-1.51 8.91 1.52-2.27-3.25-7.37-3.94-10.5-1.3-4 3.38 1.98 7.32 5.06 8.37v1h3.46a2 2 0 001.96-1.73c-3.76.06-7.15-.63-9.88-2.9 2.93 1.49 6.08 1.7 9.47 1.36a1.96 1.96 0 00-1.55-.76h-1.98a1 1 0 01-.99-1.01 1 1 0 011-1.01h3.46v-1.01h-3.47a2 2 0 00-1.98 2.02c0 .37.1.72.27 1.02zm7.11 2.23a3.46 3.46 0 003.02 1.8h1.98v-1.01h-1.98a2.45 2.45 0 01-1.88-.88l-1.14.09zm.55-1.8l-1 .14v-.08a3.5 3.5 0 013.47-3.53h1.98v1h-1.98a2.5 2.5 0 00-2.47 2.46zm5.45 1.06a3 3 0 002.96 2.79 3 3 0 002.97-3.03v-.8l-.99.18v.62a2 2 0 01-1.98 2.02 2 2 0 01-1.98-1.95l-.98.17zm1.06-2.3l-1.05.19a3 3 0 012.95-2.68 2.97 2.97 0 012.72 1.82l-1.05.12a1.97 1.97 0 00-1.67-.92c-.9 0-1.67.62-1.9 1.46zm5.86 1.07V32h1v-3.03h1.04L34.9 32h1.14l-1.68-3.04c.8-.08 1.46-.65 1.7-1.4-.41.03-.81.07-1.21.12a.98.98 0 01-.69.28h-1.4l-1.57.27zm1-1.94l-1 .08v-1.44h2.97a1.98 1.98 0 011.82 1.2l-1.2.02a.97.97 0 00-.62-.21h-1.98v.35zm4.95 1.18V32h.98v-3.03h1.99a2 2 0 001.95-1.68l-1.03.02a1 1 0 01-.92.65h-1.98v-.55l-1 .06zm.98-1.33l-.98-.02v-1.2h2.97c.87 0 1.61.59 1.88 1.39l-1.18-.07a.98.98 0 00-.7-.3h-1.98v.2zm4.96 1.14V32h.99v-4.71h-1zm.99-.81l-1-.08v-1.46h1v1.54zm1.01.83a3.14 3.14 0 00-.02.4v1.52a3 3 0 002.97 3.03A3 3 0 0051 29.22v-1.51l-.01-.26-1-.02.02.27v1.52c0 1.12-.89 2.02-1.98 2.02s-1.98-.9-1.98-2.02v-1.51c0-.14.01-.27.04-.4l-1-.01zm1.24-.62l-1.05-.1a2.97 2.97 0 012.76-1.9 3 3 0 012.95 2.7 17.04 17.04 0 00-1.04-.2 1.99 1.99 0 00-1.91-1.5c-.73 0-1.37.4-1.71 1z" fill="#fff"/></svg>