<!-- by TradingView --><svg xmlns="http://www.w3.org/2000/svg" width="56" height="56"><path fill="#F58427" d="M0 0h56v56H0z"/><path d="M4 21c1-.83 3.5-1.7 5.5 1.5-2 1-4.3.9-5.5-1.5z" fill="#026D43"/><path d="M14 28.5a5 5 0 11-10 0 5 5 0 0110 0z" fill="#fff"/><path d="M11.24 24.8a.61.61 0 01.26.52v.45a.26.26 0 01-.26.26.3.3 0 01-.21-.1c-.72-.75-2.09-.67-2.4.38-.25.84.37 1.29.9 1.61 1.28.77 2.14 2.08 1.27 3.49-.85 1.37-2.72 1.28-3.99.52a.67.67 0 01-.31-.59v-.45c0-.1.07-.18.17-.2a.21.21 0 01.17.04c.8.61 2.26 1 2.86.1.5-.76.02-1.41-.8-1.9-1.03-.63-1.82-1.62-1.44-2.9.47-1.58 2.47-2.08 3.78-1.22z" fill="#F58427"/><path d="M20 27.81v3.89a.3.3 0 01-.3.3h-.4a.3.3 0 01-.3-.3v-.4c-.73.95-2.26 1.2-3.16.3-.6-.6-.45-1.55-.1-2.03.7-1 2.15-1.05 3.26-1.07v-.69c0-.54-.69-.91-1.2-.91-.96 0-1.39.56-1.76.98a.13.13 0 01-.23-.1v-.65c0-.2.07-.4.23-.54.5-.42 1.14-.69 1.76-.69 1 0 2.2.83 2.2 1.91zm-1 2.49v-.8c-.54.01-1.18-.01-1.71.2-.81.32-.92 1.31 0 1.44.66.09 1.3-.35 1.71-.84zm33-2.49v3.89a.3.3 0 01-.3.3h-.4a.3.3 0 01-.3-.3v-.4c-.73.95-2.26 1.2-3.16.3-.6-.6-.45-1.55-.1-2.03.7-1 2.15-1.05 3.26-1.07v-.69c0-.54-.68-.91-1.2-.91-.96 0-1.39.56-1.76.98a.13.13 0 01-.23-.1v-.65c0-.2.08-.4.23-.54.5-.42 1.14-.69 1.76-.69 1 0 2.2.83 2.2 1.91zm-1 2.49v-.8c-.54.01-1.19-.01-1.71.2-.82.32-.92 1.31 0 1.44.66.09 1.3-.35 1.71-.84zM22 27v3.6c0 .67.34 1.27.97 1.48.51.17 1.07.03 1.58-.36.18-.13.18-.39.02-.54l-.14-.15c-.16-.15-.4-.14-.6-.03-.25.17-.45.16-.55.13-.12-.04-.28-.19-.28-.52V27h1.2a.3.3 0 00.3-.3v-.4a.3.3 0 00-.3-.3H23v-1.1a.4.4 0 00-.4-.4h-.2a.4.4 0 00-.4.4V26h-.7a.3.3 0 00-.3.3v.4a.3.3 0 00.3.3h.7zm7.56-.81c.16.08.24.25.24.43v.26a.33.33 0 01-.46.3 2.53 2.53 0 00-1.04-.28c-.3 0-.57.07-.74.2-.15.1-.26.27-.26.57 0 .14.05.24.21.35.17.12.39.22.68.34l.16.07c.33.14.75.33 1.07.63.35.33.58.78.58 1.39 0 .57-.24 1.01-.63 1.3-.37.28-.84.39-1.27.4a3.35 3.35 0 01-1.3-.23 2.27 2.27 0 01-.19-.09.6.6 0 01-.31-.53v-.34c0-.16.13-.29.28-.29.08 0 .15.03.2.08.36.29.83.41 1.3.4.3-.01.54-.09.7-.2.12-.1.22-.24.22-.5 0-.32-.1-.51-.27-.66a2.7 2.7 0 00-.78-.45l-.13-.05c-.28-.12-.62-.26-.89-.45a1.38 1.38 0 01-.63-1.17c0-.62.26-1.09.68-1.39.39-.28.88-.38 1.32-.38.44 0 .9.1 1.26.29zM32.6 26c.22 0 .4.18.4.4V30c0 1 .46 1.2 1 1.2.4 0 .73-.36 1-.92V26.4c0-.22.18-.4.4-.4h.2c.22 0 .4.18.4.4v5.2a.4.4 0 01-.4.4h-.2a.4.4 0 01-.4-.4v-.05c-.33.38-.75.65-1.25.65-.97 0-1.75-.7-1.75-1.85V26.4c0-.22.18-.4.4-.4h.2zm5.4.3a.3.3 0 01.3-.3h.4a.3.3 0 01.3.3v5.4a.3.3 0 01-.3.3h-.4a.3.3 0 01-.3-.3v-5.4z" fill="#fff"/><path d="M40.44 26c-1.1 0-2 1-2 2.25v3.7c0 .02.03.05.06.05h.2a.3.3 0 00.3-.3v-3.2c0-.83.49-1.5 1.22-1.5.74 0 1.28.67 1.28 1.5v3.2a.3.3 0 00.3.3h.4a.3.3 0 00.3-.3v-3.45c0-1.24-.95-2.25-2.06-2.25z" fill="#fff"/><path d="M43.78 26c-1.23 0-2.28 1.12-2.28 2.5v3.2a.3.3 0 00.3.3h.4a.3.3 0 00.3-.3v-3.2c0-.83.54-1.5 1.28-1.5.73 0 1.22.67 1.22 1.5v3.2a.3.3 0 00.3.3h.4a.3.3 0 00.3-.3v-3.2c0-1.38-1-2.5-2.22-2.5z" fill="#fff"/></svg>