<!-- by TradingView --><svg width="56" height="56" xmlns="http://www.w3.org/2000/svg"><path fill="#015194" d="M0 0h56v56H0z"/><path d="M14 25c-.017 1.374 0 2.744 0 4.116 0 .593.463.89 1.053.89.524 0 .947-.334.947-1.001V25h2l-.033 3.63c0 2.11-.655 3.37-3.078 3.37-2.194 0-2.882-1.519-2.882-2.741 0-1.42-.016-2.84 0-4.259H14zM19 25h2.736l1.23 4H23v-4h2v7h-2.703L21 28v4h-2v-7zM31.61 31.914c-.72.087-1.412.186-2.142.186-2.494 0-3.819-1.633-3.819-3.6 0-2.19 1.325-3.6 4.13-3.6.78 0 1.247.074 1.87.186l-.35 2.04a5.674 5.674 0 00-1.052-.11c-1.637 0-1.948.89-1.948 1.484 0 .705.35 1.484 1.83 1.484.39 0 .78-.036 1.13-.074l.351 2.004zM35.568 24.8c2.307 0 3.532 1.678 3.532 3.7 0 2.022-1.225 3.7-3.532 3.7-2.343 0-3.568-1.678-3.568-3.7 0-2.022 1.225-3.7 3.568-3.7zm0 1.85c-.829 0-1.268.934-1.268 1.85 0 .915.44 1.747 1.268 1.747.829 0 1.232-.832 1.232-1.747 0-.916-.403-1.85-1.232-1.85zM46 32h-2.475L42 28.921V32h-2v-7h3.288c1.729 0 2.271.925 2.271 2.034 0 .925-.542 1.702-1.322 1.739L46 32zm-4-4l.644-.004c.407 0 .746-.037.746-.628 0-.445-.136-.74-.678-.74H42V28zM4.31 29.853c.812.151 1.276.188 1.894.188 1.006 0 1.702-.11 1.934-.374.116-.113.194-.226.194-.414 0-.565-.387-.716-.735-.753l-1.547-.266C4.425 27.858 4 26.653 4 25.937c0-.904.31-1.544.812-1.995.62-.603 1.508-.942 3.094-.942.928 0 1.856.075 2.785.226l-.155 1.845a14.081 14.081 0 00-2.204-.182c-.813 0-1.802.099-1.802.814 0 .527.719.655.912.693l1.624.257c1.238.226 1.934 1.054 1.934 2.335C11 31.02 9.8 32 7.326 32c-1.276 0-2.398-.113-3.287-.264l.27-1.883z" fill="#fff"/><path d="M47.033 36h1.31c1.546-1.155 2.735-2.582 3.551-4.213 1.632-3.075 1.394-7.628-.493-10.516-2.08-3.226-5.372-5.268-9.256-5.41h-.87c-.147.006-.296.014-.445.025-4.01.34-7.953 3.227-9.33 7.1h1.955l1.02-1.545c2.616-3.228 6.933-4.468 10.893-3.143 3.45 1.104 6.084 4.621 6.441 8.155.408 3.958-1.479 7.492-4.776 9.547z" fill="url(#paint0_linear)"/><defs><linearGradient id="paint0_linear" x1="31.886" y1="15.741" x2="52.541" y2="36.405" gradientUnits="userSpaceOnUse"><stop stop-color="#F3AE18"/><stop offset="1" stop-color="#DD3E31"/></linearGradient></defs></svg>