<!-- by TradingView --><svg width="56" height="56" xmlns="http://www.w3.org/2000/svg"><path fill="#F0F3FA" d="M0 0h56v56H0z"/><path d="M17.39 25l3.23-4c1.569.4 5.954 1.442 10.935 2.421 4.981.98 15.699 1.304 20.435 1.579h-34.6z" fill="#60C9DF"/><path d="M7.378 27.686c-1.118.144-1.964.633-2.235 1.293-.128.309-.155.82-.059 1.192.224.878.772 1.235 2.448 1.58.83.171 1.022.246 1.107.427.053.117.042.154-.064.266-.186.197-.484.26-1.197.26-.687-.005-1.553-.254-2.053-.43a6.015 6.015 0 00-.336-.106c-.01 0-.01.378-.005.836l.016.84c.687.238 1.344.336 2.074.393 1.778.133 3.07-.149 3.736-.814.394-.394.5-.665.506-1.299 0-.622-.096-.894-.442-1.24-.351-.35-.777-.521-1.884-.75-1.054-.224-1.176-.266-1.272-.436-.085-.165.085-.373.383-.463.463-.139 2.314-.043 2.9.186l-.003-1.497c-.387-.424-2.696-.364-3.62-.238zM12 30c0 1.293.114 2.167.146 2.31.174.782.796 1.4 1.538 1.672 1.267.457 3.358.35 4.258-.224.516-.33.894-.894 1.01-1.5.033-.16.054-1.198.054-2.4V28H16v4c0 .5-1 .5-1 0v-4h-3v2zM20.017 34H22v-5l1.95 5H26l2-5v5h2v-6h-4l-1 3-1.05-3h-3.933v6zM31 34h1.983v-5l1.95 5h2.05l2-5v5h2v-6h-4l-1 3-1.05-3H31v6zM42 34h2v-6h-2v6zM45 30h1.998v4H50v-4h2v-2h-7v2z" fill="#112442"/><path opacity=".6" d="M5.497 25l3.335-4L19 23l-1.61 2H5.498z" fill="#007890"/><path opacity=".6" d="M5.497 25l2.35-2.856 5.135.932L11.405 25H5.497z" fill="#007890"/><path opacity=".6" d="M11.403 25l3.308-3.973s1.011.319 3.14.798C26.765 23.552 33.001 24 45.001 25H11.402z" fill="#00A8CC"/></svg>