<!-- by TradingView --><svg xmlns="http://www.w3.org/2000/svg" width="56" height="56"><path fill="#000098" d="M0 0h56v56H0z"/><path d="M40 26h3V15h-3v6c0 1.43 0 3-2 3-1.6 0-2-1.1-2-2.39V15h-3l.02 6.97c0 .81.08 1.55.34 2.07.68 1.36 2.32 1.96 3.87 1.96.77 0 2.2-.29 2.77-.92V26zm3 7.5s-.56-3.5-4.95-3.5C33.67 30 33 33.5 33 33.5v4s.83 3.5 5.05 3.5c4.23 0 4.95-3.5 4.95-3.5v-4zm-7 0s.38-1.5 2-1.5c1.63 0 2 1.5 2 1.5v4s-.38 1.5-2 1.5c-1.63 0-2-1.5-2-1.5v-4zM12 30h3v1.47A4.56 4.56 0 0118.48 30c1.55 0 2.28.56 3.04 1.51.9-1.17 2.16-1.51 3.7-1.51 2.41 0 3.78 1.52 3.78 3.55V41h-3v-6c0-1.34-.14-3-2-3-1.75 0-2 1.66-2 3v6h-3v-6c0-1.27-.17-3-2-3s-2 1.66-2 3v6h-3V30zm5.48-13c1.14.02 2.53.2 3.02 1.2l1.5-1.37C20.94 15.5 19.26 15 17.53 15c-1.69 0-3.95.34-4.53 2.19v2.18s.2 1.04 1.33 1.52c.84.36 1.75.51 2.66.66l.71.13c.6.1 1.8.5 1.8 1.07 0 .98-1.43 1.25-2.18 1.25-1.05 0-3.05-.6-3.7-1.47L12 24c1.35 1.4 3.5 2 5.48 2 1.89 0 4.18-.75 4.52-2.27v-2.26s-.23-1.16-1.33-1.6c-.86-.34-1.79-.48-2.7-.63l-.75-.11-.07-.02c-.62-.1-1.65-.27-1.65-1.08 0-.84 1.28-1.03 1.98-1.03z" fill="#fff"/></svg>