<!-- by TradingView --><svg width="56" height="56" xmlns="http://www.w3.org/2000/svg"><path fill="#154785" d="M0 0h56v56H0z"/><path d="M8.152 32.526c.232.35.644.474 1.102.474h16.98l-8.29.819 9.78 4.232 11.738-5.05h4.698c.444 0 1.04-.19 1.268-.694l.994-2.184 2.814-1.19-1.929-.805.657-1.444c.082-.18.122-.358.122-.529a.996.996 0 00-.161-.547c-.235-.361-.69-.577-1.221-.577l-17.148-.002.021-.053 8.584-.653.012-.067-10.402-4.341-12.029 5.12-4.044-.004c-.451 0-1.05.274-1.269.779l-.817 1.88-2.925 1.242 1.993.901-.572 1.323c-.103.24-.154.475-.154.694 0 .25.066.48.198.676z" fill="#FFE600"/><path d="M25.834 25.994l-.008.064 1.274.28-1.064 2.384-.499-2.728h-2.043l-2.691 5.996h2.087l1.203-2.681.542 2.68h1.953l2.682-5.995h-3.436zm-3.226 0h-2.06L18.442 31h-.974c.04-.087 2.108-5.006 2.108-5.006h-2.062l-2.315 5.154c-.104.228-.097.45.016.608.108.15.307.234.56.234h3.249c.497 0 1.026-.272 1.155-.594.094-.233 2.386-5.306 2.41-5.357l.02-.045zM14.6 28.847l-2.038-.599c.027-.06.568-1.212.585-1.248h.99l-.453 1h2.055l.512-1.17c.102-.245.095-.464-.017-.617-.107-.143-.299-.222-.545-.222h-3.136c-.679 0-1.116.22-1.337.671l-.796 1.776a.753.753 0 00-.062.288c0 .09.02.176.059.253.068.133.19.229.353.277l2.036.613c-.025.058-.494 1.094-.51 1.131h-.982c.035-.078.46-.986.46-.986H9.712l-.505 1.135c-.128.312-.062.504.017.61.11.146.313.241.56.241h3.239c.486 0 1.015-.27 1.154-.577l.79-1.754a.674.674 0 00.063-.275.554.554 0 00-.055-.243.603.603 0 00-.375-.304zm20.27-2.619c-.109-.153-.308-.237-.563-.237h-3.103c-.387 0-1.075.087-1.337.672l-2.009 4.486c-.103.23-.098.446.016.606.11.151.308.235.562.235h3.28c.422 0 .957-.222 1.124-.594l2.045-4.566c.104-.228.1-.442-.014-.601zM30.928 31h-.982l1.858-4h.98c-.04.086-1.84 3.961-1.856 4zm15.91-4.77c-.109-.155-.309-.24-.563-.24H43.17c-.386 0-1.074.088-1.337.673l-2.007 4.485c-.105.232-.099.447.016.606.108.152.307.236.56.236h3.281c.422 0 .956-.222 1.122-.593l2.047-4.567c.104-.228.098-.441-.015-.6zM42.925 31h-.981c.038-.087 1.788-3.962 1.806-4h.98c-.04.086-1.787 3.961-1.805 4zm-6.045 0H35.9c.038-.087 1.679-3.962 1.697-4h.98c-.035.076-.353 1-.353 1h2.134l.507-1.17c.105-.228.1-.442-.013-.601-.11-.154-.31-.238-.563-.238h-3.104c-.387 0-1.075.087-1.337.672l-2.008 4.486c-.105.23-.098.446.016.605.108.152.307.236.56.236h3.282c.42 0 .956-.222 1.122-.593L39.434 30h-2.053s-.485.962-.5 1z" fill="#154785"/><path d="M15.412 22.121l-.737.186-4.594-3.386 2.446-.976.244-2.618 4.603 3.39s-.04.789-.04.824c.025.02 2.88 2.131 3.328 2.463l-3.387 1.437-.055.024-1.807-1.344zM40.98 36.975l.786-1.053 3.068 5.823-6.504-1.215.728-.976-4.633-3.41 3.444-1.46 3.111 2.291z" fill="#FF3B4B"/></svg>