<!-- by TradingView --><svg xmlns="http://www.w3.org/2000/svg" width="56" height="56"><path fill="#FBBF14" d="M0 0h56v56H0z"/><path d="M6.73 25c1.07.02 1.86.45 2.13.66l-.52 1.04a3.32 3.32 0 00-1.61-.56c-.42-.01-1.26.15-1.24.8.02.51.62.73.96.81C8.5 28.24 9 28.91 9 30.01 8.99 31.1 7.92 32 6.45 32 5.2 32 4.3 31.5 4 31.2l.6-1.09c1.44 1.03 2.7.66 2.99.3.18-.22.32-1.12-.86-1.35-1.48-.28-2.57-.9-2.51-2.13.05-1.22 1.17-1.95 2.51-1.93zm2.64 4.28V25h.56c.53 0 .72.55.72.82v2.98c0 .8.27 1.87 1.35 1.91.85.04 1.51-.73 1.73-1.11v-3.78c0-.67.39-.82.58-.82h.7v7h-1.28v-.71c-.6.58-1.55.71-1.94.7-1.94.05-2.42-1.68-2.42-2.71zm11.99-1.56V32h-.56c-.53 0-.72-.55-.72-.82V28.2c0-.8-.28-1.87-1.35-1.91-.85-.04-1.51.73-1.73 1.11v3.78c0 .67-.39.82-.58.82h-.7v-7H17v.71a3.05 3.05 0 011.94-.7c1.94-.05 2.42 1.68 2.42 2.71z" fill="#65666B"/><path d="M21.15 25l2.04 4.9 2.17-.56.62-1.36.53 1.12 1.22-.3-1.75-3.8-1.81 3.97-1.4-3.44a.87.87 0 00-.82-.53h-.8zm2.13 5.16l.78 1.83 1.01-2.15-1.79.32zM27.85 32l-1.11-2.4 2.26-.3-1.15 2.7zm.05-3.22l1.27-3.24c.06-.17.3-.53.8-.53h.81l-1.46 3.54-1.42.23zM37.43 25h.71c.19 0 .57.18.6.84.17-.31.8-.93 1.9-.94v1.29c-.51.03-1.58.31-1.8 1.2v1.14l-1.4-.09V25zm0 4.29V32h1.38v-2.63l-1.38-.08zm3.57-.43l1.22.13v-6.24c0-.26-.14-.77-.72-.77H41v6.88zm4.04-3.5l-2.41 3.66 2.54.3-.62-1.06L46.7 25h-.98c-.38 0-.56.2-.68.36zM41 29.55l2.52.17-1.36 1.98c-.1.13-.3.3-.68.3H41v-2.45zm2.95.17l1.54.13L46.85 32h-1.47l-1.43-2.27zm7.91-4.06a3.78 3.78 0 00-2.13-.66c-1.34-.02-2.46.71-2.51 1.93-.06 1.22 1.03 1.85 2.51 2.13.7.14.93.5.97.83l1.3.24V30c.01-1.1-.5-1.77-2.55-2.26-.34-.08-.94-.3-.96-.82-.02-.64.82-.8 1.24-.79.42.01 1.03.18 1.61.56l.52-1.04zm.1 4.66l-1.27-.17a.6.6 0 01-.1.26c-.3.36-1.55.73-3-.3l-.59 1.1c.3.28 1.2.79 2.45.79 1.33 0 2.33-.73 2.52-1.68zm-16.84-3.47a2.28 2.28 0 00-.42-.4l.3-.75-.37.7c-.15-.1-.3-.17-.47-.23l.11-.75-.2.72-.33-.07-.05-1.07a3.5 3.5 0 012.38 1.12l-.72.63.4-.61-.63.7zm.33.53c.06.14.12.3.16.44l1.15-.46-1.12.6.05.38 1.3-.22a3.48 3.48 0 00-.72-1.77l-.7.8.7-.5-.82.73zm.17 1.74c0 .04-.02.07-.03.1l1.24.36c.04-.13.08-.27.1-.4l-1.31-.06zm.33-.69l1.05.02c0-.11 0-.22-.02-.33l-1.03.31zm-.4.96l1.28.2c-.08.24-.18.46-.3.67l-1.1-.6.11-.27zm-.2.43l1.17.45c-.14.23-.3.45-.48.64l-.88-.81c.07-.09.13-.18.18-.28zm.25.82l.42.29a3.6 3.6 0 01-.08.08l-.34-.37zm-.3.29l.37.32-.1.08-.27-.4zm-.54-.44l.79.85c-.2.15-.42.27-.66.37l-.39-1.04c.1-.05.18-.11.26-.18zm-.87.41l-.17.03-.05 1.07c.18-.01.36-.04.54-.07l-.32-1.03zm.17-.04l.16 1.07c.23-.05.45-.12.66-.21l-.54-.96-.28.1zm-2.65-1.63l-.02-.07-1.32.05.1.36 1.24-.34zm-.16-.77l-1.13-.35 1.2.2c0-.14.03-.27.05-.4l-1.03-.56 1.07.43c.04-.16.1-.32.18-.47l-.81-.72.66.47-.67-.75c-.48.6-.77 1.35-.77 2.18l1.25-.03zm.44-1.74l-.72-.64A3.49 3.49 0 0133.4 25l-.06 1.06-.38.07-.2-.71.12.74c-.17.05-.33.13-.48.23l-.37-.7.3.75c-.15.1-.29.23-.41.37l-.65-.71.42.62zm-.23 2.66l-1.29.2c.08.25.19.49.32.7l1.1-.6c-.05-.1-.1-.2-.13-.3zm.2.44l-1.17.47c.14.23.3.44.48.63l.9-.8-.21-.3zm.62.7c.1.08.2.14.3.2l-.39 1.03c-.24-.1-.47-.23-.69-.38l.78-.84zm-.79.85l.31-.47-.45.36.14.1zm-.39-.32l.48-.55-.6.43.12.12zm2.28.95c-.17 0-.33-.03-.5-.05l.3-1.03.14.01.06 1.07zm-.37-1.12l-.14 1.06c-.23-.04-.45-.1-.67-.19l.54-.96a2 2 0 00.27.09zm.45 1.12h.08-.08z" fill="#fff"/></svg>