<!-- by TradingView --><svg width="56" height="56" xmlns="http://www.w3.org/2000/svg"><path fill="#F0F3FA" d="M0 0h56v56H0z"/><path d="M17.15 13.512c2.113 5.57 4.53 16.864-1.138 29.269-.065.16.137.303.353.16 6.788-4.53 12.708-13.214 14.655-20.31-6.757-3.526-10.823-7.168-13.284-9.504-.326-.322-.729.03-.586.385z" fill="#ED1C24"/><path d="M47.728 28.139c-5.626-.901-11.101-2.78-14.667-4.507-2.066 5.515-6.053 11.427-10.226 15.491-.227.2-.046.543.326.276 8.914-6.282 18.201-9.297 24.576-10.556.35-.08.355-.605-.009-.704z" fill="#840041"/></svg>