<!-- by TradingView --><svg xmlns="http://www.w3.org/2000/svg" width="56" height="56"><path d="M0 28a28 28 0 1156 0 28 28 0 01-56 0z" fill="#F0F3FA"/><path fill-rule="evenodd" d="M8.22 36c1.45 0 2.63-1.2 2.63-2.67a2.65 2.65 0 00-2.63-2.68 2.65 2.65 0 00-2.62 2.68A2.65 2.65 0 008.22 36zm0-.97c.93 0 1.67-.76 1.67-1.7s-.74-1.7-1.67-1.7c-.92 0-1.67.76-1.67 1.7s.75 1.7 1.67 1.7zm18.11.97a2.68 2.68 0 002.65-2.7c0-1.5-1.19-2.71-2.65-2.71a2.68 2.68 0 00-2.66 2.7c0 1.5 1.19 2.7 2.66 2.7zm0-.98a1.7 1.7 0 001.69-1.73 1.7 1.7 0 00-1.7-1.72 1.7 1.7 0 00-1.68 1.72c0 .95.75 1.73 1.69 1.73zm10.22.98a2.68 2.68 0 002.65-2.7c0-1.5-1.19-2.71-2.66-2.71a2.68 2.68 0 00-2.65 2.7c0 1.5 1.19 2.7 2.66 2.7zm0-.98a1.7 1.7 0 001.68-1.73 1.7 1.7 0 00-1.68-1.72 1.7 1.7 0 00-1.7 1.72c0 .95.76 1.73 1.7 1.73z" fill="#164989"/><path d="M12 36v-5h1.57L16 34.79V31h1v5h-1.41L13 31.96V36h-1zm9.96-1.5c-.3.33-.73.53-1.2.53-.92 0-1.67-.76-1.67-1.7s.75-1.7 1.67-1.7c.43 0 .82.16 1.11.43l.72-.64a2.6 2.6 0 00-1.83-.77 2.65 2.65 0 00-2.63 2.68A2.65 2.65 0 0020.76 36c.8 0 1.51-.36 2-.94l-.8-.56zM31 31h-1v5h3v-1h-2v-4zm13.98.27l-.73.7c-.3-.24-.7-.4-1.13-.4-.99 0-1.79.78-1.79 1.74s.8 1.7 1.79 1.7c.5 0 .95-.2 1.28-.52v-.8h-1.02v-.9h2.04v2.47s-1.06.74-2.3.74a2.74 2.74 0 01-2.81-2.69c0-1.5 1.26-2.72 2.81-2.72.71 0 1.36.26 1.86.68zM46 31h1.23l1.27 1.93L49.77 31H51l-2.01 3v2H48v-1.95L46 31z" fill="#164989"/><path d="M44.89 26.72c-.44.65-1.13 1-1.92 1-1.61 0-2.43-1.16-2.43-2.67 0-1.6 1.09-2.73 2.43-2.73.68 0 1.3.32 1.74.82l1.05-1.05a4.04 4.04 0 00-6.84 2.95 3.95 3.95 0 004.05 3.94c1.23 0 2.21-.52 2.96-1.39l-1.04-.87zM7 21c-1.28 0-2.3.73-2.55 1.79-.26 1.1.38 2.18 1.65 2.63l.57.19c.3.1.54.17.8.3.34.16.49.33.55.53.1.31.15.58-.05.73-.22.18-.8.35-1.37.28a2.48 2.48 0 01-1.46-.62l-1.09 1.06c.66.66 1.5.99 2.36 1.08.83.1 1.76-.04 2.43-.57a2.2 2.2 0 00.73-2.42 2.5 2.5 0 00-1.4-1.53c-.35-.18-.8-.32-1.16-.43l-.37-.13c-.33-.12-.49-.27-.56-.39a.43.43 0 01-.05-.34c.04-.2.3-.54.97-.54.65 0 1.3.23 1.61.46l.97-1.3A4.62 4.62 0 007 21zm4 0h1.62v4.59c0 1.12.76 1.88 1.65 1.88.9 0 1.62-.78 1.62-1.88V21h1.62v4.59a3.24 3.24 0 01-3.24 3.24A3.27 3.27 0 0111 25.59V21zm9.2 8h-1.62v-8h3.78a2.3 2.3 0 012.2 2.27c0 1-.52 2.02-1.67 2.32L24.85 29H23l-1.87-3.41h-.92V29zm0-4.49h1.62c.6 0 1.12-.64 1.12-1.24s-.53-1.08-1.12-1.08H20.2v2.32zM26 21h4.31v1.46h-2.7v2.18h2.7v1.49h-2.7V29H26v-8z" fill="#00B7F0"/><path fill-rule="evenodd" d="M33.91 21h1.6l3.1 7.83h-1.74L36 26.82h-2.51l-.92 2h-1.75l3.1-7.82zm.8 2.64l.84 2.18h-1.61l.78-2.18z" fill="#00B7F0"/><path d="M52 21h-5.39v8H52v-1.5h-3.77v-1.68H52v-1.58h-3.77v-1.8H52V21z" fill="#00B7F0"/><path d="M42.96 27.68c.79 0 1.49-.4 1.93-1.04l1.14.98A4.07 4.07 0 0142.95 29a3.9 3.9 0 01-4.03-3.97l1.62.13a2.44 2.44 0 002.42 2.52zm-10.51-2.99L30.75 29h1.87l.84-1.96h2.47l.82 1.96h1.95l-1.62-4.08c-.6-.03-1.32-.1-1.93-.13l.37 1.02h-1.58l.38-1.02s-1.28-.09-1.87-.1zM26 24.64h4.31v1.56h-2.7V29H26v-4.36zm-7.42.32c1.82-.13 3.66-.22 5.58-.28-.28.44-.7.77-1.22.92l1.91 3.4H23l-1.87-3.33h-.92V29h-1.62v-4.04zm-2.69.22l1.62-.14v.63A3.35 3.35 0 0114.26 29 3.37 3.37 0 0111 25.73l1.62-.2v.14c0 .88.75 1.74 1.64 1.74.9 0 1.63-.86 1.63-1.74v-.5zm-7.98 1.06c.56-.1 1.07-.21 1.64-.3l.04.1c.23.78.08 1.75-.75 2.38-.67.51-1.6.65-2.43.56A4.12 4.12 0 014 27.89l1.14-1.11c.35.34.89.57 1.45.63.58.06 1.03-.06 1.26-.23.3-.24.26-.63.06-.94zm38.7-.35l1.62.26v1.27H52V29h-5.39v-3.11z" fill="#164989"/></svg>