<!-- by TradingView --><svg width="56" height="56" xmlns="http://www.w3.org/2000/svg"><path fill="#00B35A" d="M0 0h56v56H0z"/><path d="M42.535 20.054a28.875 28.875 0 01-3.214 7.233c-4.47 7.187-11.525 11.478-16.658 13.811a50.966 50.966 0 01-4.59 1.827v.021c4.192-.08 7.97-.739 11.262-1.966 3.734-1.393 6.776-3.488 9.04-6.223 3.326-4.016 4.772-9.169 4.173-14.704l-.013.001zm-26.273 3.364c-2.852 3.593-3.82 8.932-2.958 16.33.065.688.142 1.248.204 1.64l.034.023c3.108-1.534 15.235-8.5 15.18-23.676l-.029-.026c-5.799.614-9.87 2.483-12.431 5.71z" fill="#fff"/><path d="M30.278 17.47l-.023.055c.149 2.534-.011 3.946-.48 6.297-.844 4.22-2.673 8.141-5.438 11.655a32.198 32.198 0 01-3.964 4.181l.005.014c6.17-2.27 13.565-6.311 18.114-13.373 4.494-6.976 3.876-9.875 3.396-12.284l-.013-.004c-2.656 2.054-7.375 2.8-11.597 3.459z" fill="#fff"/></svg>