<!-- by TradingView --><svg xmlns="http://www.w3.org/2000/svg" width="56" height="56"><path fill="#F0F3FA" d="M0 0h56v56H0z"/><path fill-rule="evenodd" d="M42 23h2.84c.58-.04 1.95.29 1.97 1.96 0 .45-.25 1.43-1.31 1.69L47.16 30h-1.05l-1.6-3.18H44V30h-1v-6.08c0-.2-.32-.59-1-.57V23zm2 3.25v-2.37c.01-.12.2-.35.65-.32a1.3 1.3 0 011.18 1.37c-.02.84-.58 1.32-1.08 1.32H44zM9.02 23.27A8.38 8.38 0 007.2 23c-.8 0-3.2.2-3.2 2.35 0 1.8 1.94 2.75 3.03 3.29l.25.12a2 2 0 011.1 1.81c-.02 1.24-.9 1.73-1.74 1.74a5.06 5.06 0 01-2.47-.66v1.06c.4.1 1.36.29 2.22.29 1.07 0 3.23-.48 3.23-2.7 0-1.79-1.48-2.61-2.34-3-.89-.4-2.21-1.16-2.16-2.24.06-1.08 1.15-1.37 1.69-1.38a5.4 5.4 0 012.21.57v-.98zM11.5 23v7h-1v-5.93c-.02-.2-.13-.57-.75-.55v-.32l1.75-.2zm2.5 6.34V23l-1.8.2v.32c.6-.02.78.36.8.55V30h3.6v-1.65h-.23s.01.63-.24.84c-.17.14-.54.15-.54.15H14zM16.26 23h1.7l1.74 5.52L21.4 23h.54l-2.14 7h-.72l-1.87-6.06c-.05-.2-.3-.58-.95-.57V23zm10.1 0h-4.14v.36c.64-.01.79.43.78.66V30h3.35v-1.54h-.21c0 .76-.38.97-.56.98h-1.25c-.26-.01-.32-.31-.33-.46v-2.33h1.24c.4.02.5.58.5.85H26v-2.23h-.26c0 .5-.33.7-.5.73H24v-1.98c.01-.34.22-.46.33-.48h1.02c.63.02.79.69.79 1.02h.21V23zm2.98 0h-2.66v.35c.67-.02.82.37.82.57V30h1v-3.18h.51l1.6 3.18h1.05l-1.67-3.35c1.06-.26 1.32-1.24 1.31-1.7A1.84 1.84 0 0029.34 23zm-.84.88v2.37h.73c.5 0 1.06-.48 1.08-1.32a1.3 1.3 0 00-1.18-1.37c-.44-.03-.62.2-.63.32zM49.94 23H47v.35c.7-.02 1 .37 1 .57V30h1v-3.18h1.47c.87 0 1.54-1.04 1.53-1.86-.02-1.67-1.45-2-2.06-1.96zm-.94.88v2.38h.85c.54 0 1.14-.49 1.15-1.33a1.33 1.33 0 00-1.26-1.37c-.48-.02-.73.2-.74.32zm-17.02 1.51a2.39 2.39 0 014.75-.39h-1.08v-.07a1.32 1.32 0 10-2.65 0v3.27a1.32 1.32 0 002.38.8h.94a2.39 2.39 0 01-4.34-1.39v-2.22zm4.78 2.26v-2.3 2.3zM37 25.5a2.5 2.5 0 015 0v2a2.5 2.5 0 01-5 0v-2zm1-.47a1.5 1.5 0 013 0v2.92a1.5 1.5 0 01-3 0v-2.92z" fill="url(#adzulp5uf)"/><path d="M30.7 32.15s-9.14-1.13-20.17-1.13V33c15.91 0 20.16-.85 20.16-.85z" fill="#999149"/><path d="M52 33v-1.55c-10.75-.18-29.4.95-37.38 1.55H52z" fill="#CBCBCD"/><defs><linearGradient id="adzulp5uf" x1="28" y1="23" x2="28" y2="33" gradientUnits="userSpaceOnUse"><stop offset=".13" stop-color="#A75A4A"/><stop offset=".44" stop-color="#7D1A1B"/></linearGradient></defs></svg>