<!-- by TradingView --><svg xmlns="http://www.w3.org/2000/svg" width="56" height="56"><path fill="#5C6972" d="M0 0h56v56H0z"/><path fill-rule="evenodd" d="M37.53 20.89a3.6 3.6 0 00-1.2-.75c-.57.16-1.1.43-1.57.8.16.2.37.41.62.6.35.27.8.5 1.3.56a2.4 2.4 0 011.54.05 2.19 2.19 0 00-.69-1.26zm-.16-.89c-.24 0-.47.02-.7.06.32.16.69.38 1 .69.3.29.56.66.69 1.1l.1-.13a3.25 3.25 0 011.6-.9 4.68 4.68 0 00-2.68-.82zm2.53 1.07c.13-.03.26-.06.4-.07.25.2.49.44.7.7l-1.01.9a2.6 2.6 0 00-.17-.15c-.34-.27-.77-.46-1.23-.33a.56.56 0 01-.16.02v-.04a.96.96 0 01.18-.24c.1-.1.2-.2.34-.3.27-.2.6-.39.95-.49zm-.2 1.54l.14.12-.38.33c-.22-.25-.5-.53-.87-.74l.05-.01c.38-.1.74.05 1.06.3zm-5.95-.56c.24-.37.53-.7.86-.98.14.17.32.36.53.54a2.5 2.5 0 00-.78.86 30.48 30.48 0 00-.6-.42zm-.55 1.17c.1-.35.26-.69.45-1a17.68 17.68 0 01.62.43 1.87 1.87 0 00-.12 1.02c-.18-.15-.4-.27-.62-.35l-.33-.1zm-.2 1.29c0-.38.05-.74.14-1.1l.32.1c.34.13.63.31.78.58A2.95 2.95 0 0035 25.3a16.37 16.37 0 01-1.9.08c-.06-.28-.09-.58-.09-.88zm1.29 3.14a4.65 4.65 0 01-1.15-2.05 16.44 16.44 0 002.04-.11 4.07 4.07 0 00.4 1.3c.14.36.29.75.4 1.15-.7-.16-1.28-.25-1.7-.29zm1.84 1.16a4.37 4.37 0 01-1.6-.93c.4.05.91.14 1.5.28.05.21.09.43.1.65zm1.24.19c-.35 0-.7-.05-1.03-.13a4.3 4.3 0 00-.09-.66c.65.17 1.38.39 2.12.69-.32.06-.66.1-1 .1zm2.35-.62c-.32.19-.66.33-1.02.43-.88-.37-1.75-.63-2.5-.82-.12-.46-.29-.89-.44-1.28l-.1-.26-.13-.36c.4.53 1 .91 1.84.91a2.4 2.4 0 001.56-.5c0 .16.02.34.05.52.03.16.07.32.13.46a.7.7 0 00.26.33c.07.04.14.13.2.25.06.1.1.2.15.32zM35 24.51c0 .2.02.4.07.6-.21-.22-.4-.51-.54-.82a2.18 2.18 0 01-.2-.92c0-.22.04-.41.1-.6l.82.61c-.17.37-.25.76-.25 1.13zm1.34-2.28a2.4 2.4 0 00-1 .97l-.82-.61a2.26 2.26 0 01.79-.85c.29.21.63.4 1.03.5zm2.84 4.75a4.14 4.14 0 01-.05-.66l.32-.37v-.01L41 27.29c-.32.4-.7.73-1.1.99a2.33 2.33 0 00-.15-.32.87.87 0 00-.28-.32.51.51 0 01-.18-.24 1.84 1.84 0 01-.1-.42zM20.62 20a2.21 2.21 0 00.16.75l-.08-.02a3.03 3.03 0 00-.7-.08V20h.62zm.2 0c0 .11.02.25.05.38.05.2.12.4.24.53.18.2.46.36.89.39V20h-1.18zM22 21.5a1.52 1.52 0 01-.86-.29c.01.26.07.59.2.88.1.22.24.4.44.51l.22-.08V21.5zm-.27 1.34c.08.05.17.1.27.13v2.97a5.92 5.92 0 01-2.27-1.49c.13-.05.25-.14.37-.24.13-.11.25-.25.39-.39l.14-.14c.29-.3.63-.62 1.1-.84zm-.18-.13c-.17-.15-.3-.34-.39-.54a2.73 2.73 0 01-.22-1.14 1.06 1.06 0 00-.3-.1 2.82 2.82 0 00-.64-.08v2.65h-2.04c.17.15.38.31.6.45.17.11.35.21.52.28.17.06.32.09.44.07.15-.02.3-.1.45-.24.12-.1.24-.23.37-.37l.14-.15c.28-.29.62-.6 1.07-.83zm-3.18 1.35a1.2 1.2 0 00-.39.38c-.16.25-.26.6-.18 1.06H16v.76a5.34 5.34 0 01-1-.39c-.4-.18-.76-.4-1-.55v-2.91c.22 0 .46 0 .67-.02.18-.02.35-.05.47-.1a.59.59 0 00.11-.05c.06.12.13.23.22.3a.82.82 0 00.53.2v.76h1.65c.2.17.45.38.72.56zm.2.13a.62.62 0 00-.16.09 1 1 0 00-.26.27c-.14.21-.23.52-.14.95H20v1.34a8.03 8.03 0 01.96-.02c.17.02.32.05.43.12a1.2 1.2 0 01.32.32l.02.02.07.09a.34.34 0 00.2.11v-1.33c-.44-.1-1.4-.55-2.5-1.65-.16.01-.32-.02-.49-.09-.15-.05-.3-.13-.44-.22zM22 27.7a.54.54 0 01-.34-.17 1.47 1.47 0 01-.09-.11l-.02-.03a1 1 0 00-.28-.27.8.8 0 00-.33-.09 3.88 3.88 0 00-.94.02V29h2v-1.32zm-10.96-6.24a5.94 5.94 0 01-.9-1.42 3.95 3.95 0 00-1.75.16c-.4.13-.75.34-1.04.61-.29.28-.48.57-.6.89-.1.31-.15.62-.15.93 0 .48.1.9.29 1.24.2.35.45.62.75.82.3.2.6.36.88.47.41.15.8.26 1.13.35.82.24 1.35.4 1.35.88 0 .07-.02.14-.05.2.13.14.33.26.6.28.49.03 1.03.03 1.39.01.04-.2.06-.42.06-.64 0-.6-.16-1.1-.47-1.51a3.39 3.39 0 00-1.55-1.02c-.33-.12-.73-.25-1.22-.4l-.18-.04c-.41-.1-.82-.22-.82-.64 0-.42.57-.62.9-.62.56 0 1.17.3 1.51.74l.62-.56a4.89 4.89 0 01-.75-.73zm.15-.13a5.88 5.88 0 01-.82-1.26l.37.07a3.38 3.38 0 011.93 1.26l-.73.65a4.65 4.65 0 01-.75-.72zM9.68 27c.24 0 .84-.04 1.14-.28.16.17.39.31.71.34.47.03 1 .03 1.36.01a2.27 2.27 0 01-.7 1.14c-.27.25-.62.44-1.04.58-.42.14-.91.21-1.47.21-.82 0-1.55-.16-2.19-.48A3.6 3.6 0 016 27.14l1.6-1.21A2.54 2.54 0 009.68 27zM14 20.37V20h2v2.53h-.05a.62.62 0 01-.35-.14.71.71 0 01-.21-.4c-.1-.45-.4-.83-.7-1.11a3.6 3.6 0 00-.69-.51zm0 .23v1.6c.21.01.45 0 .66-.01.17-.02.31-.04.41-.08.1-.04.11-.07.12-.09-.1-.39-.35-.73-.64-1-.19-.18-.39-.32-.55-.42zm0 8.4v-3.44c.24.15.56.33.9.5.36.17.75.32 1.1.4V29h-2zm28-5.62V20h2v1.44c-.11.03-.24.07-.36.13-.3.15-.6.42-.81.96a1.55 1.55 0 01-.83.85zm0 .21v2.44c.32.06.7.31 1 .88.26.49.65.86 1 1.13V26.7l1.06-1.16L47.3 29H50l-3.27-5.01L49.89 20h-2.7L44 23.65v-2c-.09.02-.18.05-.27.1a1.5 1.5 0 00-.72.85 1.71 1.71 0 01-1.01 1zm2 4.7c-.4-.28-.84-.72-1.17-1.27-.3-.5-.6-.7-.83-.77V29h2v-.7zm-6 5.3V39h6v-2h-4v-1h1.97a14.06 14.06 0 00-1.61-2H40v-.36c-.4-.4-.8-.75-1.17-1.04-.26.35-.54.7-.83 1zm0-.29c.23-.25.46-.54.68-.83-.25-.2-.48-.36-.68-.5v1.33zm0-1.58c.23.16.5.35.8.59a26.2 26.2 0 00.85-1.31H38v.72zm1.88-.72a18.32 18.32 0 01-.93 1.43c.33.27.69.58 1.05.93V33h4v-2h-4.12zm.75 3c.56.6 1.1 1.27 1.58 2H44v-2h-3.37zM23.35 22.78a4.46 4.46 0 00.96 4.9 4.5 4.5 0 100-6.36c-.41.42-.73.9-.96 1.46zM27.5 27a2.5 2.5 0 100-5 2.5 2.5 0 000 5zM10 31l.8 2.64c.24-.12.53-.37.78-.84.22-.4.5-.63.75-.75a1.82 1.82 0 01-.63-.41c-.23-.22-.4-.46-.51-.64H10zm2.43 8l-1.57-5.17c.29-.13.62-.42.9-.94.2-.4.5-.6.72-.7l.98 3.17.82-3.05c.3.02.7.02 1.1-.02.44-.04.91-.13 1.25-.3l.9 3.36.69-2.19.43-.26c.26-.2.54-.43.8-.68a11.74 11.74 0 01.08 1.77 1.36 1.36 0 01-.15.56c-.13.25-.25.48-.33.76-.1.32-.14.7-.09 1.22.02.16-.03.35-.14.57-.1.2-.27.43-.45.66-.4.47-.92.93-1.3 1.24h-.4l-1.18-4.1-1.15 4.1h-1.91zm-.32-8l.26.85c-.19-.07-.37-.2-.53-.36a2.94 2.94 0 01-.41-.49h.68zm3.24 1.1c-.37.03-.73.03-1.02.01l.3-1.11h1.74l.2.78c-.3.18-.75.27-1.22.32zm3.18.63l-.23.16.59-1.89h1.28a4.07 4.07 0 01-.73.95c-.29.3-.6.57-.9.78zm1.46-1.1c.17-.22.31-.44.4-.63H21l-.2.68a2.76 2.76 0 00-.81-.06zm-1.09 6.24l1.83-6a2.53 2.53 0 00-.54-.06.9.9 0 00-.44.09l-.12.14a12.05 12.05 0 01.1 1.96 1.54 1.54 0 01-.18.65c-.12.24-.23.46-.31.72-.08.29-.12.64-.08 1.14.02.22-.05.45-.16.68-.1.19-.23.38-.38.57l.28.1zm-.42.06c.1.03.24.07.37.13l-.29.94h-1.18c.35-.3.76-.67 1.1-1.07zm4.94-6.05l.35-.88h1.96l.47 1.16c-.4.11-.91.27-1.4.49-.3.14-.61.3-.87.5a3.43 3.43 0 00-.51-1.27zm-.1.23c.1.14.2.33.27.54.08.2.14.42.15.64-.16.14-.29.3-.39.46a5.42 5.42 0 00-.57 1.21V35l-.08.22c-.07.2-.24.38-.47.58-.16.13-.34.27-.55.41l1.64-4.1zm-1.78 4.44l.18-.13c.23-.16.45-.32.64-.48.24-.2.43-.41.53-.65l.08-.25V35l.05-.19a5.25 5.25 0 01.72-1.25l-.01.1c-.07.4.05.66.23.84.12.1.26.18.39.21L23.8 36h1.48a21.55 21.55 0 00.09 2h-2.13l-.42 1h-2.26l.98-2.45zM25.57 38h.7l.4 1h2.27l-2.51-6.26c-.3.23-.65.67-.82 1.4-.08.36-.11.84-.13 1.35l.22.51h-.22a22.18 22.18 0 00.09 2zm-.27-2.93c.02-.36.06-.7.12-.97.18-.81.58-1.3.93-1.55l-.08-.2c-.4.1-.9.27-1.38.48a4.4 4.4 0 00-.94.55c0 .11 0 .22-.02.32-.06.34.04.54.17.66.1.1.22.15.33.18l.32-.75.55 1.28zM28 31l2.03 4.72a9.22 9.22 0 00.34-2.47 5.35 5.35 0 01-1.3-2.25H28zm2.55 2.65c-.05.84-.17 1.7-.4 2.35l1.28 3h2.14l1.32-3.08a4.2 4.2 0 00-.78-1.21.75.75 0 00-.52-.24 1.4 1.4 0 00-.5.09L32.52 36l-.84-2.04a2.57 2.57 0 01-1.1-.54l-.02.23zm3.7.92c.27.28.53.64.75 1.1l1.48-3.47a8.1 8.1 0 00-1.63.62c-.5.25-.98.52-1.35.74l-.3.75c.11-.03.25-.05.4-.04.22.01.46.1.66.3zM37 31l-.42.98c-.52.09-1.19.36-1.82.66-.4.2-.8.42-1.13.61l.48-1.17c.67-.24 1.13-.7 1.41-1.08H37zm-1.73 0c-.24.3-.59.61-1.05.82l.33-.82h.72zm-4.7.31l1 2.42c-.37-.1-.7-.3-1-.57.02-.64.02-1.33 0-1.85zM29.29 31h1.08c.03.49.03 1.26.02 1.97a5.17 5.17 0 01-1.1-1.97z" fill="#fff"/><path d="M27.5 16.6c4.06 0 6.5 2.77 6.5 2.77S31.69 16 27.5 16c-4.19 0-6.5 3.38-6.5 3.38s2.44-2.78 6.5-2.78zm5.14 4.4s-1.36-3-5.14-3c-3.78 0-5.14 3-5.14 3s1.77-2.5 5.14-2.5c3.38 0 5.14 2.5 5.14 2.5zM21 30.63s2.44 2.77 6.5 2.77c4.06 0 6.5-2.77 6.5-2.77S31.69 34 27.5 34c-4.19 0-6.5-3.38-6.5-3.38zM22.36 29s1.36 3 5.14 3c3.78 0 5.14-3 5.14-3s-1.77 2.5-5.14 2.5c-3.38 0-5.14-2.5-5.14-2.5z" fill="#329ED5"/></svg>