<!-- by TradingView --><svg width="56" height="56" xmlns="http://www.w3.org/2000/svg"><path fill="url(#paint0_linear)" d="M0 0h56v56H0z"/><path d="M35 20l-12 4v-2c-4.732.608-9.937 3.683-9.97 7.806-.027 3.299 4.312 5.453 6.485 6.117-1.157-.353-3.223-.351-7.247-2.703C8.245 30.868 8 27.68 8 26.157c0-.818.476-3.049 3.706-5.51C14.936 18.188 20.618 17.226 23 17v-1.996L35 20z" fill="#fff"/><path d="M21.099 36L33 32v2c4.732-.608 9.937-3.675 9.97-7.799.027-3.298-4.312-5.452-6.485-6.117 1.157.354 3.223.352 7.246 2.704C47.755 25.14 48 28.327 48 29.851c0 .818-.477 3.049-3.706 5.509C41.064 37.82 35.382 38.775 33 39v2.004L21.099 36z" fill="#D01820"/><defs><linearGradient id="paint0_linear" x1="10.418" y1="9.712" x2="68.147" y2="76.017" gradientUnits="userSpaceOnUse"><stop stop-color="#1A1E21"/><stop offset="1" stop-color="#06060A"/></linearGradient></defs></svg>