<!-- by TradingView --><svg width="56" height="56" xmlns="http://www.w3.org/2000/svg"><path fill="#F99D1C" d="M0 0h56v56H0z"/><path d="M27.044 26.966c-1.83.496-3.66.91-5.489 1.489A24.24 24.24 0 008 22.419a44.47 44.47 0 0125.613-8.27l-3.16 2.895S43.842 16.548 47.168 12c-.1.479-.239.95-.415 1.406a15.202 15.202 0 01-4.907 6.863 28.721 28.721 0 01-6.902 3.969 63.62 63.62 0 01-7.568 2.728c-.083-.082-.25 0-.332 0zM48 26.553a75.005 75.005 0 00-25.114 3.142 23.962 23.962 0 014.24 6.036c6.737-3.72 16.05-8.517 20.874-9.178zm-20.042 11.08A22.987 22.987 0 0129.455 44l11.726-11.99-13.223 5.623z" fill="#fff"/></svg>