<!-- by TradingView --><svg width="56" height="56" xmlns="http://www.w3.org/2000/svg"><path fill="#F0F3FA" d="M0 0h56v56H0z"/><path d="M42.742 22.003c1.539 0 3.369.095 4.346 1.469.621.881.787 1.972.87 3.02 0 .336.042.672.042 1.008V34h-2.004v-4.15c0-1.134.04-2.005 0-3.138-.08-2.223-1.483-3.219-3.762-3.092-1.296.08-2.632.62-3.052 1.902-.166.588-.182 1.14-.182 1.768V34l-2 .003v-12L38 22l.536 2c.29-.756 1.182-1.157 1.928-1.493.705-.294 1.491-.42 2.278-.504zM8 25.31c0 1.527.943 2.314 2.243 2.784 1.656.671 3.415.815 5.112 1.36 1.015.374 1.676.946.892 2.034-.76.832-1.723.957-2.72.957C11.821 32.444 10 32.065 10 30H8c.131 3.096 2.75 3.795 5.383 4.003 2.067 0 5.094-.717 5.094-3.273.099-1.524-1.183-2.375-2.443-2.853-1.2-.419-2.443-.587-3.644-.88-.831-.226-2.406-.111-2.39-1.595.016-1.483 1.49-1.76 2.712-1.826 1.893 0 3.322.343 3.322 2.424h1.969c0-.962-.23-2.109-.933-2.822-.746-.755-2.643-1.178-4.085-1.178C11.542 22 8 22.613 8 25.309zM19 22l3.5 12h2c1.035-3.147 3-10 3-10s2.128 6.76 3.194 10h1.946L36 22l-2 .003L31.5 32l-3-10h-2l-3 10L21 22h-2z" fill="url(#paint0_linear)"/><defs><linearGradient id="paint0_linear" x1="8.086" y1="28.003" x2="47.965" y2="28.003" gradientUnits="userSpaceOnUse"><stop stop-color="#0B355F"/><stop offset="1" stop-color="#00A4E3"/></linearGradient></defs></svg>