<!-- by TradingView --><svg width="56" height="56" xmlns="http://www.w3.org/2000/svg"><path fill="#37BFC3" d="M0 0h56v56H0z"/><path d="M23.581 20.395l-7.863 7.643L12 24.298l7.817-7.716 3.764 3.813z" fill="#fff"/><path d="M22.774 27.835l-7.332 7.239L12 31.588l7.403-7.133 3.37 3.38zM20.805 40.42l-4.443-4.343 3.652-3.609 4.384 4.394-3.593 3.558z" fill="#fff"/><path d="M31.666 36.57l-7.332 7.353-3.53-3.503 7.446-7.374 3.416 3.523z" fill="#fff"/><path d="M39.52 36.37l-7.513 7.513-3.808-3.837 3.467-3.477.289.29 4.098-4.102 3.468 3.613zM24.544 12l4.192 4.377-3.727 3.727-4.32-4.382L24.544 12zM28.106 31.355l-3.757 3.859-3.611-3.721 3.794-3.701 3.574 3.563zM39.919 27.494L44 31.746l-3.655 3.799-4.298-4.243 3.872-3.808z" fill="#fff"/><path d="M32.44 12.673l11.18 11.18-11.597 11.409-11.142-11.03 11.56-11.56z" fill="#fff"/></svg>