<!-- by TradingView --><svg width="56" height="56" fill="none" xmlns="http://www.w3.org/2000/svg"><path fill="#F0F3FA" d="M0 0h56v56H0z"/><path fill-rule="evenodd" clip-rule="evenodd" d="M30 10h-4v8.2a9.944 9.944 0 00-3.515 1.457l-5.799-5.8-2.828 2.83 5.799 5.798A9.944 9.944 0 0018.2 26H10v4h8.2a9.944 9.944 0 001.457 3.515l-5.8 5.799 2.83 2.828 5.798-5.799A9.944 9.944 0 0026 37.8V46h4v-8.2a9.944 9.944 0 003.515-1.457l5.799 5.8 2.828-2.83-5.799-5.798A9.944 9.944 0 0037.8 30H46v-4h-8.2a9.944 9.944 0 00-1.457-3.515l5.8-5.799-2.83-2.828-5.798 5.799A9.944 9.944 0 0030 18.2V10zm7.8 16h-4.141a6 6 0 100 4H37.8a10.052 10.052 0 000-4z" fill="#F36523"/></svg>