<!-- by TradingView --><svg width="56" height="56" xmlns="http://www.w3.org/2000/svg"><path fill="#F0F3FA" d="M0 0h56v56H0z"/><path d="M51.705 29L52 28h-4v1h1.5v3h1v-3h1.205zM47 28h-1v2.564L44 28h-1v4h1v-2.546L46 32h1v-4zm-5.292 1l.295-1h-2.998v4h2.703l.295-1H40v-.5h.996l.295-1H40V29h1.708zM37 32v-4h-1v4h1zm-3.862-3.302c.295 0 .613.186.89.331l.24-.756A3.038 3.038 0 0032.976 28c-.424 0-.756.127-1.032.345-.277.218-.424.473-.424.764 0 .29.128.545.368.745.092.073.332.182.72.382l.644.328c.203.109.232.219.232.364 0 .237-.213.324-.693.324a2.4 2.4 0 01-1.088-.26l-.294.699c.369.2.83.309 1.382.309.516 0 .94-.09 1.235-.291.332-.218.498-.527.498-.91 0-.272-.129-.526-.405-.726l-1.25-.689c-.166-.11-.315-.227-.315-.355 0-.218.159-.33.583-.33zM30 28h-1v2.5L26.996 28H26v4h1l-.004-2.42L29 32h1v-4zm-5.309 1L25 28h-3v4h2.691l.313-1H23v-.5h1l.295-1H23V29h1.691zm-4.869-.053l.307-.674a3.037 3.037 0 00-1.29-.273c-.406 0-.756.127-1.051.345-.258.218-.405.473-.405.764 0 .29.128.545.368.745.092.073.332.182.7.382l.614.333c.203.11.27.217.27.363 0 .237-.201.332-.699.332-.405 0-.714-.1-1.046-.264l-.318.69c.369.2.83.31 1.364.31.534 0 .959-.09 1.254-.291.331-.218.497-.527.497-.91 0-.272-.129-.526-.405-.726a4.903 4.903 0 00-.72-.4l-.529-.27c-.184-.11-.281-.276-.281-.403 0-.218.135-.308.559-.308.297-.001.553.11.811.255z" fill="#36377C"/><path d="M37.843 26.494l.572-1.346c-2.82-2.23-6.175-3.3-10.083-3.244l-1.64.092-2.747.443c-.94.202-2.212.57-3.834 1.105-1.714.572-2.986.94-3.797 1.143-1.456.35-2.894.572-4.258.627-1.88.092-3.484 0-4.793-.258a9.067 9.067 0 01-1.07-.277v.664c1.586.46 3.485.664 5.734.627a23.781 23.781 0 004.294-.535c.83-.166 2.102-.497 3.816-.958 1.622-.461 2.876-.775 3.797-.959l1.936-.276 2.267-.092c4.074.092 7.337 1.16 9.806 3.244z" fill="#fff"/><path d="M38.419 27.004L39 25.539c-2.868-2.429-6.28-3.593-10.255-3.533l-2.605.22-1.856.362c-.956.221-2.25.622-3.9 1.204-1.743.623-3.036 1.024-3.861 1.245-1.481.381-2.943.622-4.33.682-1.913.1-3.544 0-4.875-.28a10.036 10.036 0 01-3.056-1.205L4 24.876c1.95 1.184 4.63 1.746 8.061 1.666 1.406-.04 2.868-.24 4.368-.582.844-.18 2.137-.542 3.88-1.044 1.65-.501 2.925-.843 3.863-1.043l2.905-.361 1.369-.04c4.142.1 7.46 1.264 9.973 3.532z" fill="#EFCA56"/></svg>