<!-- by TradingView --><svg xmlns="http://www.w3.org/2000/svg" width="56" height="56"><path fill="#F0F3FA" d="M0 0h56v56H0z"/><path fill-rule="evenodd" d="M42 36H14v5a3 3 0 003 3h22a3 3 0 003-3v-5zm-23.5 3.59c-.44-.17-1.1-.82-.28-2 .09.05.27.25.27.69.18.05.6.03.8-.5.1.02.32.15.4.5.04-.23.18-.69.42-.69s.32.26.33.38c.2.13.62.31.7 0 .12-.38.28-.95.75-.19l.6-.19v-.35h.33v1.56h-.33c-.08-.18-.3-.52-.5-.52s-.24.25-.24.38c-.15-.01-.47-.05-.6-.14-.13-.09-.3.15-.36.28-.15.07-.43.12-.35-.28-.18-.04-.6-.01-.9.47-.15.06-.48.15-.64 0 .01.2-.06.6-.4.6zm-.13 1.37c-.28.47-.92 1.35-1.18 1.12-.33-.3-.26-.53.46-1.12.58-.47.87-.68.95-.72l.16.36c.32-.05.93-.26.86-.65-.08-.4-.39-.17-.53 0-.25-.05-.6-.2 0-.46.6-.27.93.2 1.02.46.1.29.46.76 1.11.29l-.69-.75h1.45v.46l-.33.29h.33v.36h-.33v1.48h-.43v-1.12h-.26v1.12h-.43v-1.12l-.59.5.17.62c-.32.28-1.03.82-1.35.72-.39-.13-.55-.72 0-.72-.23-.2-.64-.69-.39-1.12zm.81.24a.22.22 0 100-.44.22.22 0 000 .44zm.74-.52a.22.22 0 11-.43 0 .22.22 0 01.43 0zm-.74 1.02a.22.22 0 100-.43.22.22 0 000 .43zm2.98-.75c.35 0 1.03.14.99.65-.04.5-.54.57-.78.54-.2-.11-.5-.52-.2-1.2zm3.58-3.62h.68v-.52h.7v.37l.6.15v.33l-.6.23.6.14V39l-.78.58h.66V40l-.48.2h.6v.8l-.78.47H28v.31l-.89.38v.9h-.7v-.66h-.95l.95-.62-.68-.3v-.81l.58-.5-.85-.4v-1.75h.95l-.1-.37-.58-.1v-.23zm.68 1.08h-.46v.43h.46v-.43zm.52 0h.47v.43h-.47v-.43zm-.52.57h-.46v.43h.46v-.43zm-.39.54h.47v.26h-.47v-.26zm.47 1.1h-.47v.26h.47v-.27zm-.47.49h.47v.26h-.47v-.26zm1.47-.63h-.46v.27h.46v-.27zm1.82 2.24c-.16-.05-.47-.23-.47-.56v-.9c-.27-.1-.76-.37-.68-.67h.95c-.25-.16-.74-.56-.72-.8.02-.25.5-.26.72-.23.43-.14 1.32-.29 1.43.22-.01.17-.4.62-1 .42l.13.4c.41-.1 1.23-.23 1.23 0 0 .27-.17.67-.98.67h-.25v1.45h-.36zm4.12-3.09c-.4.95.28 1.25.68 1.29-.52-.94 1.83-1.64 2.92-1.64.88 0 .69.62.48.93.42 0 1.23-.19 1.1-.93-.13-.75-1.43-.5-2.06-.3l.74-.64c-.08-.74-.65-.5-.93-.28-.18-.24-.78-.32-1.06-.33v1.55c-.2-.44-.7-1.24-1.2-.94-.48.31-.02 1 .27 1.3-.18.25-.7.1-.94 0zm2.38 2.44c-.58.2-1.7.45-1.57-.19.13-.64.82-.52 1.15-.39v-.45h-.57v-.48h.57c.06-.29.3-.75.8-.29l.94.3-.93.47v.45c.51-.19 1.52-.46 1.44 0-.07.47-1.25.58-1.83.58zM16.85 31.58c.01-.12.18-.45.72-.72.18-.35.67-1.12 1.16-1.35.5-.22 1.17-.25 1.45-.24.36-.1 1.2-.35 1.67-.65.47-.3.69-.12.74 0 .23-.46.83-1.42 1.42-1.54.1 0 .04-.33 0-.5-.28-.26-.83-.88-.83-1.3v-1.66l-.28.21.28-.9c.08-1.05-.16-3.2-1.76-3.27.3-.64 1.03-2.32 1.48-3.86.34-.09 1.1-.31 1.39-.46h.8l2.04-1.48h1.73c.33.05 1.04.3 1.26.93.23.61 1.09 1.06 1.49 1.2.21.19.66.69.74 1.2.07.52.48.88.68 1l.18 1.2c.3.25.87 1.02.74 2.03.19.21.45.8 0 1.52-.12.09-.3.36 0 .68.09.32.2 1.1 0 1.66-.22.37-.64 1.25-.5 1.8-.1.37-.38.95-.7.3-.38.7-1.14 2.22-1.14 2.78h.92l.22.47h.28v-.31l-.28-.65-.56-.4.56-.28.46.52c.3-.01.93.1 1.2.65.28.56.57.85.69.93l.21.68a2.96 2.96 0 00-.9-.9c-.36-.2-.46-.72-.46-.95l-.5.24c-.07.23-.24.73-.24.93 0 .2-.3-.07-.46-.23l-.22 1.37.5.16-.28 1.54-.4-1.05v1.05l.4.28-.22.58-.34-.43c-.12.03-.33.16-.18.43h-1.89c.07-.26.32-.84.84-1.01-.05-.17-.26-.45-.65-.25h-.19l.5-1.3v-1.37c-.14-.24-.46-.57-.71 0v2.67l-1.05 1.26h-.4l.77-1.26c.05-.3.02-.89-.53-.87v-.27h.53l.34-1.3-.71.22 1.26-1.4-1.97.4-.25-.8h1.33c-.41-.38-1.35-.96-1.82-.24a.93.93 0 000 1.05l.28.54-.72-.23v-1.64a4.71 4.71 0 00-1.45-1.91c-.12.5-.33 1.7-.18 2.43l.18 1.35h-.7c.04-.27.12-.93 0-1.35a4.75 4.75 0 010-1.57c-.37.15-1.03.69-.8 1.57.23.33.66 1.21.48 2.07 0 .93.12 2.87.6 3.21h-.6c-.09-.78-.26-2.57-.21-3.48a2.27 2.27 0 00-.74-1.8c.15.43.46 1.43.46 2.07l.04 1c.05.89.11 1.96-.04 2.21H22.6c-.05-.47-.2-1.56-.34-2.13-.15-.56.06-.95.19-1.08.03-.28-.05-.94-.6-1.26v-1.33l-2.68 1.17c-.67.48-2.07 1.42-2.31 1.42zm14.62-1.32v.66l-.6-.12.15-.54h.45zm.12 1.88v-.76l-.5.14v.76l.5-.14zm-2.95-17.97c-.03.16-.24.49-.79.56l-.12-.18.91-.38zm-2.01 4.17l-1.56 1.53v-.85l.57-.68v-.66h.54v.46l.27.11v-.57h.76v.21c-.18 0-.46.3-.58.45zm-3.83.43h-.4v.54h.4v-.54zm.83-1.9H24v.54h-.36v-.54zm.18 1.9h-.36v.54h.36v-.54zm3.4-2h.36v.54h-.36v-.54zm.36-2.31h-.36V15h.36v-.54zM23.8 20.3h.37v.54h-.37v-.54zm0 1.35h-.36v.54h.36v-.54zm4.83-4.88c.02.13.13.58.19.78.18-.06.51-.27.44-.65-.06-.4-.45-.25-.63-.13zm-1-1.58c.22-.05 1.02.08 2.54.93h.4v-.43c.32.23 1.02.94 1.29 1.97l-1.18-1.06-.51.38h-.65v-.38l.25-.17-2.13-1.24zm-3.87 8.78v-1.35c-.07.1-.23.38-.3.64-.07.26.17.58.3.7zm.32-1.85h.68l.15-.16.2.16.39.76-.59-.48-.46.32h-.37v-.6zm.5 1.47c-.3.07-.54.42-.62.58.1-.05.35-.13.52 0 .17.14-.07.3-.2.35-.03.28.19.33.3.33l.68-.33.08-1.14h-.24v.8l-.36-.18-.16-.41zm.99-.24v1.7c.16-.2.48-.7.46-.9a2.44 2.44 0 00-.46-.8zm.7 1.67v-1h.26l.1.64h.73v.65l.54.78h-.42c.03.1.16.41.42.97.26.55.1.77 0 .8-.47.05-.67-1.16-.7-1.77h-.32v1.17c-.17.06-.59.01-.93-.57-.35-.58.07-1.35.33-1.67zm6.48-6.25v-.34h-.7a.72.72 0 00-.7-.57c-.63-.02-1.53.38-1.6.57h2v.34h1zm-3.98.57a4.4 4.4 0 00-1.8 1.25l.72.13.59-.7.67.11-1.08 1.38v.33l-.47.13v-.36h-.44v.55h-.27l.08.58-.47.32v.52h.9v.28h-.34v.34h.83v.39l.82.11.26.49-.5.23.12.8.56.66v1.41l1.38.88v-.55h.36l.08.36h.34l.2-.36.38.36.88-2-.76-.25-.9-.2v.2l1.04.25-.26.32c-.41.42-.8-.18-.92-.42-.13-.25-.57-.3-.75 0-.14.23-.32.38-.4.42-.58-.37-.54-1.33-.17-1.32.3.02 1.55-.2 2.15-.3v-.26h-1.78a.94.94 0 01.5-.62h.45v.39h.54c.3-.01.79.26.99.4v-2a.99.99 0 01.9-.74v-.1c-.58-.15-.84.22-.9.42h-.2c-.08-.53.47-1.02.76-1.2l.86-.13c0-.23-.06-.85-.2-1.47-.17-.77-1.46-1.59-2.21-1.55-.75.05-1.5.2-2.54.52zm1.83 6.97c.18-.16.64-.5 1.1-.5.48-.02.71.46.77.7-.08.1-.32.25-.55 0-.26-.29-1.01-.23-1.25-.2h-.07zm1.9-.54c.02.26.37.32.54.31 1.02-.75.92-1.8.75-2.24l-.21-.23.21-.86-.21-.4v.6c-.04.48-.27.73-.38.8h-.48l.08.58c.2-.06.6-.15.6 0 0 .14-.23.17-.4.19l-.12.02c-.16.03-.28.37 0 .58.22.17.1.37 0 .44-.3.04-.37.16-.37.21zm-6.72 5.6V32l.4.25.18.46c.07.2.15.59-.18.53-.32-.06-.27-.57-.2-.81l-.43-.43v-.63h.23zm11.34 1.66l-.82-.6.35-.21.79.81h-.32zm-2.08 1.93l-.88-2.59h.57c.3.5.48 1.93.53 2.59h-.22zm2.84-1.48l.53 1.13h.41l-.6-1.13h-.34zm-.8.81c-.17.03-.51.1-.62.1l.35.7.57-.2-.3-.6zm-7.54.06l-.4.6h.4l.15-.4-.15-.2zm1.6-9.65c.08.19.42.21.58.2.09-.13-.03-.27-.1-.32-.3.01-.38-.13-.38-.2 0-.39.38-.5.58-.56.02 0 .05 0 .07-.02.16-.05.05-.48-.17-.5-.17-.01-.55.21-.71.32.1.44-.17.6-.31.63v.45h.43zm-.93-.4c-.2.1-.58.32-.55.58.18-.06.55-.27.55-.57zm-.64-.3c-.33.02-.58-.3-.67-.45.53.16 1.31 0 1.64-.1-.19.17-.64.54-.97.55zm-.67-2.1c-.37 0-.75.4-.9.61v.1h.9c.29.5.8.62 1.03.62.82-.06.83-.5.73-.72v-.36c.23.12.35.29.38.36h.29l.09-.36h.27v-.41h-.45c-.32-.43-1.16-.53-1.55-.52v.21h.1v.3h-.5v.28h.64v.27H28.9v-.38zm1.64.78a.16.16 0 11-.33 0 .16.16 0 01.33 0z" fill="#C90007"/><path d="M21.56 12l.36.79h.87l.16-.79h12.9c-.06.41-.23.76-.38 1H17a2 2 0 00-2 2v26c0 1.1.9 2 2 2h22a2 2 0 002-2V26.14c.27-.55.69-.74 1-.78V41a3 3 0 01-3 3H17a3 3 0 01-3-3V15a3 3 0 013-3h4.56zM39 13h-2.89c.1-.35.37-.73.6-1H39c.7 0 1.35.24 1.86.65-.29.14-.67.32-1.1.5A2 2 0 0039 13zm1.89 1.34A2 2 0 0141 15v7.71c.18.27.52.68 1 1.06V15a3 3 0 00-.9-2.15c-.1.4-.17.98-.21 1.49z" fill="#C90007"/></svg>