<!-- by TradingView --><svg xmlns="http://www.w3.org/2000/svg" width="56" height="56"><path fill="#F0F3FA" d="M0 0h56v56H0z"/><path d="M28.59 43.98c5.35-.3 9.41-4.75 9.41-10.19 0-4.76-3.38-8.64-7.78-9.77A3 3 0 0125 22a3 3 0 015.88-.84A13.02 13.02 0 0141 33.81c0 1.65-.35 3.22-.9 4.67A16.02 16.02 0 0028.02 12c-.22 0-.43 0-.65.02A10.05 10.05 0 0018 22.21c0 4.66 3.11 8.1 7.4 9.3a3 3 0 11.02 3.02C19.52 33.33 15 28.47 15 22.21c0-1.65.35-3.22.9-4.67A16.02 16.02 0 0027.98 44c.22 0 .41 0 .6-.02z" fill="url(#a4guzop0s)"/><defs><linearGradient id="a4guzop0s" x1="28" y1="12" x2="28" y2="44" gradientUnits="userSpaceOnUse"><stop stop-color="#F7BE16"/><stop offset="1" stop-color="#F05123"/></linearGradient></defs></svg>