<!-- by TradingView --><svg width="56" height="56" xmlns="http://www.w3.org/2000/svg"><path fill="#F0F3FA" d="M0 0h56v56H0z"/><path d="M36 39c-1.256.621-2.656 1.045-4.067.995a8.472 8.472 0 01-3.99-1.156 8.07 8.07 0 01-2.891-2.887 7.692 7.692 0 01-1.053-3.88v-8.145a8.127 8.127 0 00-1.064-4.016C22.237 18.678 21.227 17.759 20 17c1.256-.622 2.656-1.046 4.067-.995 1.411.05 2.785.447 3.99 1.155a8.071 8.071 0 012.891 2.887 7.692 7.692 0 011.053 3.88v8.147a8.06 8.06 0 00.657 3.208A8.318 8.318 0 0034.546 38c.44.424.928.678 1.454 1z" fill="#FF671F"/><path d="M21 32h-5.322a7.797 7.797 0 01-3.438-.78 7.873 7.873 0 01-2.748-2.227c-.737-.942-1.057-2.204-1.31-3.376a7.987 7.987 0 01.038-3.555 7.95 7.95 0 011.577-3.18 7.868 7.868 0 012.796-2.165 7.807 7.807 0 013.455-.715c1.19.029 1.894.45 2.952 1-.5.324-.886.701-1.304 1.127a8.391 8.391 0 00-2.108 3.618c-.387 1.366-.53 2.66-.21 4.044.319 1.384 1.28 2.856 2.224 3.91C18.547 30.757 19.666 31.54 21 32z" fill="#FF9E1B"/><path d="M48 31.999a8.24 8.24 0 01-.989 3.915 7.885 7.885 0 01-2.708 2.913 7.521 7.521 0 01-3.735 1.167c-1.32.052-2.392-.369-3.568-.994a6.394 6.394 0 001.206-1.016c.977-1.016 1.602-2.275 1.982-3.655.38-1.38.417-2.836.105-4.234a8.575 8.575 0 00-1.887-3.757A8.144 8.144 0 0035 24h5.299c2.042.006 4 .85 5.443 2.35A8.164 8.164 0 0148 31.999z" fill="#EB3300"/></svg>