<!-- by TradingView --><svg width="56" height="56" xmlns="http://www.w3.org/2000/svg"><path fill="#00A4E4" d="M0 0h56v56H0z"/><path d="M8 25.58V32H6v-6.42H4V24h6v1.58H8zm5.648 2.095c-.96-.182-1.648.456-1.648 1.822V32h-2v-6h2v1.22c.336-.684.832-1.265 1.744-1.22l-.096 1.675zM17.5 32v-.911c-.288.546-1.164.911-1.932.911-1.248 0-1.824-.729-1.824-1.64 0-1.458 1.692-2.093 3.756-2.138v-.228c0-.41-.588-.732-1.356-.732-.528 0-1.248.136-1.776.41l-.144-1.23c.624-.182 1.488-.442 2.208-.442 2.016 0 2.568.989 2.568 2.264V32h-1.5zm0-2.76c-1.392 0-2.028.482-2.028.983 0 .273.24.546.624.546.672 0 1.404-.482 1.404-1.165v-.364zm33 2.76v-.954c-.288.547-1.236.954-2.052.954-1.2 0-1.776-.771-1.776-1.683 0-1.457 1.764-2.13 3.828-2.175v-.228c0-.41-.66-.695-1.428-.695-.528 0-1.296.137-1.776.41l-.144-1.23c.624-.182 1.44-.399 2.208-.399 2.016 0 2.64.946 2.64 2.222V32h-1.5zm0-2.81c-1.393 0-2.052.485-2.052.986 0 .273.192.551.576.551.672 0 1.476-.49 1.476-1.173v-.365zM24 32v-3.778c0-.456-.18-.732-.611-.732-.672 0-1.355.55-1.355 1.142V32H20v-6h2v1c.336-.547 1.296-1 2.208-1 1.296 0 1.792.946 1.792 1.857V32h-2zm4.576.003A6.602 6.602 0 0127 31.775v-1.321c.336.136.876.25 1.308.295.576 0 .692-.203.692-.523 0-.774-2-.774-2-2.415 0-.956.712-1.822 2.536-1.822.336 0 1.128.091 1.464.182v1.387c-.334-.226-.984-.293-1.368-.293-.48 0-.632.273-.632.546 0 .684 2 .584 2 2.224 0 1.185-.648 2.014-2.424 1.968zM40 23h2v9h-2v-9zm-5 4l-2 5.003h-2L34 24h2l3 8h-2l-2-5z" fill="#fff"/><path d="M32 37l1-5h4l-5 5z" fill="#F37736"/><path d="M43 24.46l2-.46v2h1v1.5h-1v2.431c0 .506.297.69.624.69.235 0 .188-.046.376-.092v1.241c-.375.138-.797.23-1.218.23C43.516 32 43 31.356 43 30.115V24.46z" fill="#fff"/></svg>