<!-- by TradingView --><svg width="56" height="56" xmlns="http://www.w3.org/2000/svg"><path fill="url(#paint0_linear)" d="M0 0h56v56H0z"/><path d="M27.938 18C12.294 18 4 29.05 4 29.05l3.4 2.286s.41-1.025 1.353-2.491c.004.367.054.624.054.624.601 4.642 5.133 4.53 5.133 4.53h28.09s4.592.126 5.192-4.513c0 0 .049-.24.051-.605.923 1.43 1.33 2.424 1.33 2.424L52 29.042S43.58 18 27.938 18z" fill="#ED1C24"/><path fill-rule="evenodd" d="M46.527 29.45S45.915 33 41.972 33H13.927c-3.942 0-4.497-3.583-4.497-3.583-.152-.951.033-1.602.328-2.053C12.597 23.645 18.288 19 28 19c9.794 0 15.385 4.716 18.223 8.437.328.415.45 1.092.304 2.013zm-26.78-3.87l.468-1h-5.999l-.47 1h2.324l-2.406 4.87h1.553l2.405-4.87h2.125zM40 29.54c.334.236.966-.08 1.412-.706.446-.625.54-1.323.204-1.56-.333-.236-.966.081-1.412.706-.446.626-.538 1.323-.204 1.56zm-5.253-.024c.334.236.966-.08 1.414-.706.446-.625.535-1.324.203-1.56-.331-.236-.964.08-1.412.706-.448.626-.536 1.324-.205 1.56zm-3.88-2.52c-.94.389-1.23 1.36-1.23 1.36-.192.525.314.305.314.305.56-.194 1.074-.77 1.289-1.088.239-.357.038-.55.038-.55-.143-.117-.411-.026-.411-.026zm-11.803 2.52c.333.236.964-.08 1.412-.706.445-.625.538-1.324.203-1.56-.333-.236-.966.08-1.413.706-.446.626-.536 1.324-.202 1.56zm23.41.06c.13.135.433-.005.433-.005.416-.163.707-.367.808-.438l.037-.025.259.455s-.294.365-1.321.767c-1.025.404-1.471-.058-1.58-.263-.108-.198-.305-.03-.305-.03-.777.523-1.642.607-2.125.15a1.038 1.038 0 01-.249-.38 5.226 5.226 0 01-.993.5c-1.027.403-1.47-.06-1.58-.264-.108-.197-.305-.028-.305-.028-.777.52-1.643.606-2.124.147a1.116 1.116 0 01-.33-.705 4.506 4.506 0 01-2.84 1.024c-.96 0-1.543-.283-1.847-.7-.343.145-.991.39-1.687.59-.885.253-1.113-.048-1.225-.196a.422.422 0 00-.008-.011c-.108-.142-.388-1.239-.388-1.239-.068-.288-.24-.153-.24-.153l-.563.357-.648 1.302h-1.29l.267-.539a7.422 7.422 0 01-.877.415c-1.026.403-1.471-.06-1.581-.264-.107-.197-.303-.028-.303-.028-.778.52-1.644.606-2.126.147-.602-.574-.378-1.781.503-2.697.88-.915 2.3-1.255 3.054-.595l.198-.355h1.293l-1.269 2.653s-.118.25.015.384c.13.137.433-.005.433-.005.366-.144.87-.434 1.12-.585l2.185-4.406h1.294l-1.347 2.714s-.144.389.228.236l1.65-1.018h1.342l-2.195 1.43s.235 1.325.298 1.478l.01.025c.06.15.145.362.637.207 0 0 .36-.053.986-.385a1.99 1.99 0 01.07-.962c.328-1.065 1.682-2.154 3.246-2.06 0 0 .951.035 1.02.726.073.69-.705 1.59-2.772 2.351 0 0 .21.9 2.057.35 0 0 .873-.2 1.575-1.411a2.34 2.34 0 01.08-.141.842.842 0 00.026-.05l-.001.005c.124-.202.274-.398.452-.586.881-.915 2.3-1.255 3.054-.595l1.182-2.312h1.291l-2.25 4.61s-.117.25.013.384c.131.137.434-.005.434-.005.31-.121.55-.266.694-.36.04-.545.326-1.17.835-1.698.879-.915 2.299-1.256 3.053-.595l.198-.355h1.293l-1.268 2.653s-.116.25.014.384z" fill="#fff"/><defs><linearGradient id="paint0_linear" x1="10.418" y1="9.712" x2="68.147" y2="76.017" gradientUnits="userSpaceOnUse"><stop stop-color="#1A1E21"/><stop offset="1" stop-color="#06060A"/></linearGradient></defs></svg>