<!-- by TradingView --><svg width="56" height="56" xmlns="http://www.w3.org/2000/svg"><path fill="#0480BC" d="M0 0h56v56H0z"/><path d="M25 33.178V45.7a.3.3 0 00.3.3h5.4a.3.3 0 00.3-.3V33.144a.3.3 0 01.517-.208l7.4 7.738a.3.3 0 00.492-.088l1.904-4.379a.3.3 0 00-.084-.35L37.2 32.53c-.263-.217-.018-.634.3-.51l4.702 1.821a.3.3 0 00.409-.28v-1.397a.3.3 0 00-.14-.253L30.14 24.089a.3.3 0 01-.139-.254v-6.404a.3.3 0 01.404-.281l6.516 2.413c.297.11.54-.255.324-.486l-7.504-8.073a.026.026 0 01-.005-.009l-.39-1.093a1.403 1.403 0 00-2.643 0l-.39 1.093a.026.026 0 01-.005.009l-7.251 8.066c-.21.234.037.593.331.48l6.205-2.393a.3.3 0 01.408.28v6.398a.3.3 0 01-.14.254L13.53 31.912a.3.3 0 00-.14.253v1.408a.3.3 0 00.403.282l5.259-1.903c.318-.115.554.301.291.514l-4.163 3.389a.3.3 0 00-.085.356l1.971 4.37a.3.3 0 00.496.078l6.916-7.682a.3.3 0 01.523.2z" fill="#fff"/><path d="M25 22.808V19.68a.3.3 0 00-.498-.226l-6.816 5.996c-.256.224 0 .634.314.502l6.816-2.868a.3.3 0 00.184-.276zM31.28 22.808v-3.13a.3.3 0 01.497-.225l6.838 5.998c.256.224 0 .633-.314.502l-6.838-2.869a.3.3 0 01-.183-.276z" fill="#FFC700"/></svg>