<!-- by TradingView --><svg xmlns="http://www.w3.org/2000/svg" width="56" height="56"><path fill="#F0F3FA" d="M0 0h56v56H0z"/><path d="M14.15 26.19l7.04-7.04A3.96 3.96 0 0123.75 18l2.36-2.36.24-.22a6.97 6.97 0 00-7.27 1.63l-7.04 7.04a6.96 6.96 0 000 9.84l7.04 7.04a6.97 6.97 0 009.31.48c-.92-.5-1.63-1.24-2.37-1.98-1.52.9-3.52.7-4.83-.61l-7.04-7.04a3.98 3.98 0 010-5.62z" fill="url(#ag0n4diyk)"/><path d="M28.14 37.53c.8.63 1.54 1.37 2.57 1.65l5.25-5.26a6.96 6.96 0 000-9.84l-4.9-4.9c-.65.17-1.27.51-1.78 1.03l-.7.7 5.27 5.28a3.98 3.98 0 010 5.62l-5.71 5.72z" fill="url(#bg0n4diyk)"/><path d="M20.69 42.16a6.97 6.97 0 008.23-1.2l7.04-7.04a6.97 6.97 0 001.2-8.23l-2.28 2.28c.35 1.33.01 2.8-1.03 3.84l-7.04 7.04a3.98 3.98 0 01-3.84 1.03l-2.28 2.28z" fill="url(#cg0n4diyk)"/><path d="M41.85 30.81l-7.04 7.04A3.96 3.96 0 0132.25 39l-2.36 2.36-.24.22c2.46.88 5.3.34 7.27-1.63l7.04-7.04a6.96 6.96 0 000-9.84l-7.04-7.04a6.97 6.97 0 00-9.31-.48c.92.5 1.63 1.24 2.37 1.98 1.52-.9 3.52-.7 4.83.61l7.04 7.04a3.98 3.98 0 010 5.62z" fill="url(#dg0n4diyk)"/><path d="M27.86 19.47c-.8-.63-1.54-1.37-2.57-1.65l-5.25 5.26a6.96 6.96 0 000 9.84l4.9 4.9a3.96 3.96 0 001.78-1.03l.7-.7-5.27-5.28a3.98 3.98 0 010-5.62l5.71-5.72z" fill="url(#eg0n4diyk)"/><path d="M35.31 14.84a6.97 6.97 0 00-8.23 1.2l-7.04 7.04a6.97 6.97 0 00-1.2 8.23l2.28-2.28a3.98 3.98 0 011.03-3.84l7.04-7.04a3.98 3.98 0 013.84-1.03l2.28-2.28z" fill="url(#fg0n4diyk)"/><defs><linearGradient id="ag0n4diyk" x1="23.65" y1="15.28" x2="24.7" y2="42.37" gradientUnits="userSpaceOnUse"><stop stop-color="#BC8538"/><stop offset="1" stop-color="#F3D987"/></linearGradient><linearGradient id="bg0n4diyk" x1="23.65" y1="15.28" x2="24.7" y2="42.37" gradientUnits="userSpaceOnUse"><stop stop-color="#BC8538"/><stop offset="1" stop-color="#F3D987"/></linearGradient><linearGradient id="cg0n4diyk" x1="23.65" y1="15.28" x2="24.7" y2="42.37" gradientUnits="userSpaceOnUse"><stop stop-color="#BC8538"/><stop offset="1" stop-color="#F3D987"/></linearGradient><linearGradient id="dg0n4diyk" x1="32.35" y1="41.72" x2="32" y2="14.63" gradientUnits="userSpaceOnUse"><stop stop-color="#BC8538"/><stop offset="1" stop-color="#F3D886"/></linearGradient><linearGradient id="eg0n4diyk" x1="32.35" y1="41.72" x2="32" y2="14.63" gradientUnits="userSpaceOnUse"><stop stop-color="#BC8538"/><stop offset="1" stop-color="#F3D886"/></linearGradient><linearGradient id="fg0n4diyk" x1="32.35" y1="41.72" x2="32" y2="14.63" gradientUnits="userSpaceOnUse"><stop stop-color="#BC8538"/><stop offset="1" stop-color="#F3D886"/></linearGradient></defs></svg>