<!-- by TradingView --><svg width="56" height="56" xmlns="http://www.w3.org/2000/svg"><path fill="#F0F3FA" d="M0 0h56v56H0z"/><path d="M15 38h26v-1H15v1zm0 8h26v-1H15v1zm0-7h6v1h-2v4h-2v-4h-2v-1zm8.329 1.098L24.326 42h-2.011l1.014-1.902zM19.572 44h1.81l.55-1h2.793l.622 1H27l-2.657-5h-2.028l-2.743 5zM29 40h2.5c.507 0 .5.245.5.688v.222c0 .368-.066.59-.5.59H29V40zm-2 4h2v-1.246h2.295c.507 0 .705.156.705.746v.5h1.54v-.803c0-.886-.362-1.033-.869-1.18.725-.149.87-.59.87-1.255v-.369c0-.885-.29-1.393-1.521-1.393H27v5zm8.496-2.795c0-.664.145-.812 1.014-.812h1.883c.797 0 .941.148.941.812v.59c0 .738-.145.877-.869.877h-2.028c-.796 0-.94-.14-.94-.877l-.001-.59zm-1.593 1.033c0 1.549.869 1.762 2.245 1.762h2.534C40.131 44 41 43.787 41 42.238v-1.55c0-1.55-.87-1.696-2.318-1.696h-2.534c-1.376 0-2.245.147-2.245 1.696v1.55z" fill="#000"/><path d="M15 36h26V10H15v26z" fill="#B61131"/></svg>