<!-- by TradingView --><svg xmlns="http://www.w3.org/2000/svg" width="56" height="56"><path fill="#F0F3FA" d="M0 0h56v56H0z"/><path d="M8 34v-9.03H5v-1.96l45.29.99-40.29.97V34H8z" fill="#75787D"/><path d="M21 34v-8h1v8h-1z" fill="#75787D"/><path d="M33 34v-8h1v8h-1zm13.57-7.95l-.02-.05h1.12l-.02.05L50.88 34H49.8l-.82-2h-3.75l-.81 2h-1.08l3.23-7.95zM45.64 31h2.94l-1.47-3.62L45.64 31z" fill="#014976"/><path fill-rule="evenodd" d="M14 26h-1v8h1v-3.5h1.7c1.47 0 2.21 2.4 2.45 3.5h1.05l-.06-.19c-.31-1.06-.84-2.85-1.63-3.44a2.25 2.25 0 00-.76-4.37H14zm0 3.5h2.75a1.25 1.25 0 100-2.5H14v2.5z" fill="#828282"/><path d="M27.5 25.8a3.5 3.5 0 013.25 2.2h-1.11a2.5 2.5 0 00-2.14-1.2c-1.9 0-2.5 1.67-2.5 3.25s.6 3.25 2.5 3.25a2.5 2.5 0 002.2-1.3h1.09a3.5 3.5 0 01-3.29 2.3c-2.47 0-3.5-2.11-3.5-4.25s1.03-4.25 3.5-4.25z" fill="#014976"/><path fill-rule="evenodd" d="M38.5 26H36v8h2.5c2.29 0 3.5-1.93 3.5-4 0-2.07-1.21-4-3.5-4zm0 1H37v6h1.5c1.74 0 2.5-1.48 2.5-3s-.76-3-2.5-3z" fill="#014976"/></svg>