<!-- by TradingView --><svg width="56" height="56" xmlns="http://www.w3.org/2000/svg"><path fill="#F0F3FA" d="M0 0h56v56H0z"/><path d="M10 24H4c.078.224 0 .726 0 .726h2.5V32c.429-.094.821-.04 1 0v-7.274H10A1.338 1.338 0 0110 24z" fill="#0044AD"/><path fill-rule="evenodd" d="M10.998 24h3.02c.75-.006 2.238.367 2.192 1.911-.046 1.544-1.61 2.092-2.385 2.173L16.998 32c-.3-.044-.908-.105-1.277 0l-3.077-3.803H12V32c-.199-.044-.602-.105-1.002 0v-8zm1.003.505h1.8c.434-.015 1.313.26 1.365 1.474.052 1.214-1.104 1.637-1.69 1.697h-1.475v-3.171z" fill="#0044AD"/><path d="M21.502 24.378l-1.69 2.499c2.598-.363 5.044 1.264 5.943 2.123l-2.55-4.091c-.205-.356-.49-.874-.963-.907-.444-.03-.643.237-.74.376zm5.008 6.538c-.55-2.368-5.119-2.915-5.4-2.915-2.896-.056-3.405 2.156-3.208 3.05.158.714 1.008.93 1.412.949h5.753c1.287 0 1.498-.722 1.443-1.084z" fill="#69B363"/><path fill-rule="evenodd" d="M38.996 32a4 4 0 100-8 4 4 0 000 8zm.002-.391c1.656 0 3-1.598 3-3.568s-1.344-3.567-3-3.567c-1.657 0-3 1.597-3 3.567 0 1.97 1.343 3.568 3 3.568zm-5.632-.243a4.212 4.212 0 01-2.234.634C28.85 32 27 30.21 27 28s1.85-4 4.132-4c.888 0 1.711.271 2.385.733l-.26.715c-.555-.603-1.303-.973-2.126-.973-1.71 0-3.131 1.597-3.131 3.567 0 1.97 1.42 3.567 3.13 3.567.869 0 1.653-.411 2.215-1.074v.836l.021-.005z" fill="#0044AD"/><path d="M45 24v8c.259-.082.847-.034 1 0v-6.196L51.625 32H52v-8c-.232.095-.841.04-1 0v6.196L45.392 24H45z" fill="#0044AD"/></svg>