<!-- by TradingView --><svg width="56" height="56" xmlns="http://www.w3.org/2000/svg"><path fill="#F06F37" d="M0 0h56v56H0z"/><path d="M14.295 30H9.391c.168.952.832 1.51 1.624 1.51.504 0 1.136-.066 1.6-.878l1.52.328c-.568 1.379-1.72 2.043-3.128 2.043-1.824 0-3.304-1.42-3.304-3.495 0-2.076 1.488-3.513 3.328-3.513 1.72 0 3.2 1.363 3.264 3.381l-.008.624h.008zm-4.829-1.002h3.112c-.216-.845-.898-1.316-1.578-1.316-.648.009-1.326.495-1.534 1.316zM32.667 33.003h-1.885v-.742c-.52.474-1.224.742-2.128.742-1.64 0-3.16-1.366-3.16-3.364 0-1.998 1.52-3.38 3.16-3.38.904 0 1.616.268 2.128.742V24h1.885v9.003zm-1.885-3.372c0-1.177-.92-1.911-1.832-1.911-1.032 0-1.808.742-1.808 1.911 0 1.177.776 1.895 1.808 1.895.92 0 1.832-.726 1.832-1.895zM46.429 26.002h-2.352v1.505h2.165c.656 0 1.096.296 1.096.981v.313h-1.67c-1.623 0-2.56.87-2.56 2.181 0 1.336.985 2.224 2.457 2.224.88 0 1.333-.313 1.773-.76v.557H49v-4.65c0-1.623-.923-2.317-2.571-2.35zm.91 4.245c0 .87-.598 1.53-1.502 1.53-.656 0-1.096-.33-1.096-.828 0-.465.36-.778.904-.778h1.701v.076h-.008zM36.358 25.995h-2.352v1.507h2.352c.656 0 1.096.296 1.096.982v.11h-1.856c-1.624 0-2.56.871-2.56 2.183 0 1.337.984 2.226 2.456 2.226.88 0 1.52-.313 1.96-.761v.761H39v-4.655c0-1.625-1.002-2.319-2.642-2.353zm1.096 4.046c0 .872-.784 1.532-1.688 1.532-.656 0-1.096-.33-1.096-.83 0-.465.36-.778.904-.778h1.888v.076h-.008zM22.19 25.995H19.84v1.507h2.352c.656 0 1.096.296 1.096.982v.11H21.43c-1.624 0-2.56.871-2.56 2.183 0 1.337.984 2.226 2.456 2.226.88 0 1.52-.313 1.96-.761v.761h1.71v-4.655c0-1.625-1.158-2.319-2.806-2.353zm1.097 4.046c0 .872-.784 1.532-1.688 1.532-.656 0-1.096-.33-1.096-.83 0-.465.36-.778.904-.778h1.888v.076h-.008zM18.927 26.004c-1.047 0-1.643.453-2.163 1.271v-1.28H15v7.008h1.764V30.74c0-1.95.572-3.178 2.147-3.178h.08v-1.558h-.064z" fill="#fff"/><path d="M7.384 31.3a2.321 2.321 0 01-.736.155c-.568 0-.648-.326-.648-1.081V28h1.448v-1.453H6V25H4v5.506c0 1.72 1.008 2.497 2.528 2.497.536 0 1.056-.109 1.712-.459-.344-.342-.672-.762-.856-1.244zM42.573 31.438c-.072.008-.136.015-.192.015-.568 0-.944-.327-.944-1.082v-2.477h1.791v-1.355h-1.791v-1.535h-1.704v5.5c0 1.72 1.008 2.5 2.528 2.5.376 0 .704-.055 1.095-.203-.503-.35-.695-.927-.783-1.363zM52 31.922c0 .609-.464 1.081-1.12 1.081-.648 0-1.12-.464-1.12-1.081 0-.585.464-1.09 1.12-1.09.656 0 1.12.513 1.12 1.09z" fill="#fff"/></svg>