<!-- by TradingView --><svg width="56" height="56" xmlns="http://www.w3.org/2000/svg"><path fill="#432780" d="M0 0h56v56H0z"/><path d="M4 23.909v1.09h3.009V33.003H8.99V24.999H12v-1.997H4v.907zM18 28v5h2V23h-2v5zM35 24.537V26s-.504-.22-.744-.311c-.7-.27-1.412-.287-2.147-.148-.89.158-1.368.338-2.004.931-1.032.949-1.317 2.405-.992 3.702.24.95 1.032 1.924 1.93 2.366 2.254 1.12 4.932.118 5.752-2.161.155-.415.177-.534.205-3.907.028-3.373 0-3.472 0-3.472h-2v1.537zm-1.442 2.903c.728.205 1.23.705 1.428 1.417.417 1.535-1.364 2.886-2.877 2.18-.713-.335-1.123-.889-1.18-1.587-.042-.567.113-1.002.495-1.41a2.11 2.11 0 012.134-.6z" fill="#F6F8FD"/><path d="M13.136 25.037c-1.171.228-2.15.998-2.708 2.13-.56 1.148-.573 2.416-.027 3.613.3.663 1.051 1.482 1.657 1.796 1.218.627 2.615.556 3.706-.193.386-.27.945-.82.945-.933 0-.029-.3-.292-.659-.584l-.658-.542-.193.214c-.1.121-.366.306-.586.42-.918.47-2.016.361-2.555-.55a1.92 1.92 0 01-.193-.408c0-.029 1.25 0 2.788 0h2.788l.04-.198c.02-.086.04-.364.04-.62 0-1.717-1.138-3.525-2.728-4.031-.46-.142-1.218-.192-1.657-.114zm1.853 2.13c.336.283.577.833.577.833h-1.805s-1.896.028-1.896 0c0-.135.12-.596.506-.832.386-.237.811-.428 1.39-.407.406.015.892.124 1.228.407zM23.943 25.08c-1.375.327-2.532 1.536-2.842 2.959-.397 1.814.403 3.692 1.943 4.531.397.22 1.216.434 1.652.434.476 0 1.025-.157 1.527-.427a4.89 4.89 0 01.43-.213c.02 0 .033.114.033.249v.39h1.718v-2.439c0-1.9-.02-2.369-.105-2.689-.35-1.28-1.342-2.347-2.532-2.724-.542-.171-1.289-.2-1.824-.071zm1.652 2.055c1.137.598 1.421 2.213.569 3.258-.536.648-1.587.861-2.294.463-1.143-.648-1.44-2.206-.608-3.223a2.127 2.127 0 011.011-.683c.35-.1.946-.02 1.322.185zM40.793 25.035c-1.495.249-2.708 1.345-3.18 2.869-.177.562-.149 1.737.049 2.32.522 1.517 1.77 2.542 3.342 2.741.275.036.6 0 .6 0s-.226-.107-.261-.107c-.036 0-.339-.494-.339-.822 0-.356.055-.516.28-.758l.374-.207-.514-.042a2.168 2.168 0 01-1.557-1.118c-.254-.491-.268-1.345-.028-1.8.345-.67.952-1.119 1.608-1.204.465-.064.57-.128.733-.456.176-.355.176-.662 0-1.032-.212-.441-.395-.505-1.107-.384z" fill="#F6F8FD"/><path d="M42.207 32.942c1.495-.25 2.708-1.346 3.18-2.87.177-.561.149-1.736-.049-2.32-.522-1.516-1.77-2.541-3.342-2.74-.275-.036-.585 0-.585 0l.246.106c.186.162.36.484.36.812 0 .258-.119.643-.296.797l-.167.125.276.054a2.266 2.266 0 011.583 1.16c.254.49.268 1.345.028 1.8-.345.67-.952 1.118-1.608 1.204-.465.064-.57.128-.733.455-.176.356-.176.662 0 1.032.212.442.395.506 1.107.385z" fill="#00B5E2"/><path d="M48.522 25.08c-1.353.306-2.396 1.429-2.75 2.957-.152.632-.101 1.713.095 2.302.771 2.282 3.028 3.298 4.932 2.232.518-.291 1.239-.974 1.188-1.137-.012-.05-.297-.327-.632-.611l-.607-.526-.341.291c-.765.654-1.689.647-2.365-.021-.6-.59-.81-1.429-.563-2.26.17-.562.708-1.151 1.201-1.308.645-.213 1.303-.042 1.796.47.196.198.234.212.348.134C51.09 27.42 52 26.594 52 26.544c0-.22-.816-.952-1.353-1.222-.335-.163-1.154-.327-1.489-.32-.132 0-.408.029-.636.078z" fill="#F6F8FD"/></svg>