<!-- by TradingView --><svg width="56" height="56" xmlns="http://www.w3.org/2000/svg"><path fill="#F0F3FA" d="M0 0h56v56H0z"/><path d="M41.067 24.004H44C41.2 18.424 34.006 15 27.557 15c-3.591 0-7.013.972-9.557 2.724 16.699-5.749 22.595 5.395 23.067 6.28z" fill="#7DC246"/><path d="M18 17.92c1.16-.196 2.969-.323 4.482-.323 6.729 0 10.79 2.916 12.522 6.403l4.996.01c-6.238-10.358-19.91-6.72-22-6.09z" fill="#7DC246"/><path d="M30 20.679h-1.033c-3.348 0-6.362 1.267-7.866 3.302l-.018.023H17l.03-.046c1.862-2.903 6.154-3.516 9.419-3.516 1.725 0 3.073.173 3.444.225l.107.012z" fill="#0079C2"/><path d="M10 24.005c1.37-3.343 6.192-5.732 11.688-5.732 3.014 0 5.901.706 8.126 1.984l.186.104-.21-.035c-.214-.034-.435-.075-.661-.11-1.11-.184-2.26-.375-3.445-.375-6.669 0-8.85 2.62-9.744 4.163H10zM17 39h-3V28h-4v-2h10.999v2H17v11zM22 39V26h4.99c2.237 0 3.71.448 4.63 1.41.94.98 1.38 2.56 1.38 4.98 0 2.44-.44 4.061-1.38 5.092C30.683 38.519 29.21 39 26.985 39H22zm3-11v9h1.694C29.21 37 30 36.03 30 32.39c0-3.377-.738-4.39-3.306-4.39H25zM38.707 39c-.788 0-3.269-.15-4.707-.997V35c1.607 1.565 3.015 1.967 4.7 1.967 1.572 0 2.3-.617 2.3-1.553v-.033c0-.88.033-1.26-2.65-1.912-2.815-.69-4.344-1.487-4.344-3.737v-.034c0-1.047.52-1.994 1.462-2.668.937-.662 2.254-1.03 3.704-1.03 1.71 0 3.56.242 4.828 1v3c-1.325-1.462-3.384-1.99-4.798-1.99-1.413 0-2.2.667-2.2 1.519v.033c.013.791.194 1.273 2.708 1.819 3.003.651 4.29 1.787 4.29 3.804 0 1.153-.508 2.15-1.462 2.818-.937.652-2.26.997-3.831.997z" fill="#0079C2"/></svg>