<!-- by TradingView --><svg width="56" height="56" xmlns="http://www.w3.org/2000/svg"><path fill="#0E0F7E" d="M0 0h56v56H0z"/><path d="M14 23v13h-4V23H6v-3h12.806l-1.04 3H14zm36 12.998l-5.342-6.336 5.292-4.957h-3.788L42 28.836V20h-3.46v15.998H42v-5.303l4.114 5.303H50z" fill="#fff"/><path d="M37.248 32.738c-.223.122-1.405.7-2.845.7-2.195 0-3.269-1.524-3.269-3.508 0-1.614 1.17-3.415 3.364-3.415 1.366 0 2.366.555 2.537.67l.19-2.55c-.701-.33-1.712-.635-3.02-.635C30.598 24 28 26.56 28 30.092c0 3.367 2.232 5.907 5.987 5.907 1.45 0 2.594-.357 3.377-.714l-.115-2.547zm-11.135 2.39c-.932.416-2.21.872-4.438.872C17.773 36 16 33.37 16 30.068c0-3.482 2.04-6.067 5.453-6.067 3.512 0 5.39 2.353 5.39 6.045 0 .308-.02.55-.035.727a3.318 3.318 0 00-.015.242h-7.899c-.049.83.683 2.562 3.073 2.562 2.159 0 3.516-.752 4.03-1.052l.116 2.604zm-4.587-8.82c-1.486 0-2.413 1.06-2.657 2.47h4.927c0-.625-.245-2.47-2.27-2.47z" fill="#fff"/></svg>