<!-- by TradingView --><svg width="56" height="56" xmlns="http://www.w3.org/2000/svg"><path fill="#2F4F5A" d="M0 0h56v56H0z"/><path d="M5.85 33.934c0-.08.163-.343.36-.558.195-.216 1.002-2.058 1.791-4.093 1.638-4.22 2.064-5.046 3.047-5.892l.702-.604-1.779.108c-2.033.123-3.231.488-3.976 1.212-.567.55-.915 1.53-.76 2.134.138.533-.236.485-.817-.104-.688-.698-.516-1.644.47-2.582 1.233-1.174 2.073-1.336 7.61-1.468 2.678-.064 4.897-.101 4.932-.082.034.02-.172.191-.46.382-.39.26-.971.363-2.31.411-1.616.058-1.835.11-2.294.55-.527.506-1.59 2.916-2.95 6.694-.774 2.148-1.396 3.246-2.026 3.581-.483.256-1.54.476-1.54.31zm15.916.001c0-.073.155-.36.344-.637.19-.277.391-.632.448-.789.058-.157.28-.73.494-1.276l.39-.992-.827.724c-1.439 1.114-2.982 1.353-3.744.58-.803-.813-.521-2.835.735-4.576 1.41-1.952 4.013-2.673 4.013-1.111 0 .716-1.04 2.105-2.406 2.96-1.14.713-1.461 1.402-1.092 2.1.224.424.625.417 1.567-.027 1.172-.553 2.232-1.9 2.78-3.387.264-.717.484-1.63.484-1.662 0-.033-.19-.095-.421-.14-.39-.073-.377-.098.166-.33.324-.14.732-.215.912-.536 1.01-1.796 2.338-2.685 4.506-2.806 1.45-.08 1.57.02 2.027.483.265.269.483.585.483.702 0 .292-1.04 1.322-1.334 1.322-.186 0-.19-.05-.014-.227.123-.126.224-.465.224-.755 0-1.148-1.728-1.45-3.009-.526-.53.383-1.668 1.644-1.668 1.987 0 .074.843.088 1.872.03 1.987-.11 2.368.06 1.335.602-1.51.792-2.998 5.428-1.817 5.599.895.13 2.551-3.29 2.551-5.033 0-.505.064-.54 1.685-.923 2.041-.483 2.324-.416 2.192.52-.052.375-.172 1.259-.249 1.454-.078.195.302-.377.785-.9.98-1.061 1.752-1.473 2.44-1.298.906.23.774 1.033-.76 4.5-.427.965-.672 1.812-.674 2.325-.003.93-.2 1.003-.876.318-.648-.658-.491-1.84.522-4.11.425-.953.774-1.829.774-1.946 0-.865-1.935 1.648-3.137 3.92-.86 1.626-1.014 1.86-1.573 1.914-.335.033-.608-.004-.608-.082 0-.077.45-1.32.964-2.66 1.107-2.88 1.17-3.667.434-3.489-.73.177-.796.235-.796.7 0 .534-.976 3.018-1.628 3.884-1.01 1.343-2.71 2.052-3.62 1.407-.95-.674-.21-3.908 1.265-5.358l.742-.729-1.084.064-1.084.063-.787 2.514c-1.083 3.06-1.942 4.883-2.459 5.223-.512.336-1.467.603-1.467.41zm.016-6.49c.701-.753.99-1.561.609-1.71-.531-.206-1.592 1.349-2.027 2.77l-.139.455.537-.39c.295-.216.743-.829 1.02-1.125zm-5.7 4.86c-.389-.309-.494-.557-.494-1.161v-.768l-.655.538c-1.485 1.148-2.767 1.428-3.545.639-.435-.441-.47-.613-.356-1.482.3-2.292 1.987-4.618 3.93-5.028.46-.097.683-.038.976.259.319.324.348.474.185.949-.24.696-1.715 2.29-2.755 2.828-.71.367-.732.534-.732 1.216 0 .409.075.791.168.849.446.28 1.428-.273 2.318-1.183.775-.79 1.179-1.49 2.253-3.894 1.232-2.76 1.243-2.8 1.83-2.955.342-.09.693-.137.781-.106.088.032-.357 1.34-1.112 3.08-1.627 3.747-2.027 4.909-2.027 5.886 0 .836-.088.874-.766.333zm-1.977-4.437c.869-.835 1.225-1.74.918-2.051-.141-.143-.294-.142-.522.002-.731.462-2.121 3.33-1.425 2.934.144-.081.607-.48 1.029-.885zm35.097 4.424c-.428-.342-.5-.524-.441-1.139.038-.402.003-.732-.077-.732s-.145.085-.145.189c0 .373-1.558 1.387-2.163 1.387-.654 0-1.207-.541-1.207-1.102 0-.328-.026-.257-.421.11-1.169 1.082-2.658 1.316-3.427.536l-.462-.537-.672.553c-.789.542-1.772.609-2.225.15-.45-.456-.281-1.312.85-3.85.964-2.161 1.052-2.575 1.826-2.739.427-.09.805-.143.84-.118.033.026-.492 1.517-1.067 2.815-1.083 2.444-1.25 3.26-.75 3.26.443 0 1.39-.875 1.39-1.243 0-.567.823-2.408 1.492-3.236.766-.948 1.981-1.59 3.008-1.59 1.238 0 1.604.785.702 1.505-.602.48-.903.506-.723.06.417-1.028-.208-1.317-1.066-.491-1.592 1.532-2.454 5.4-1.11 4.996.915-.275 1.791-1.089 2.383-2.214 1.28-2.436 2.789-3.83 4.861-3.856.686-.009 1.31.046 1.385.122.076.077-.08.632-.345 1.234-.808 1.833-1.64 4.483-1.669 5.434-.014.496-.078.902-.141.902-.064 0-.345-.182-.626-.406zm-1.17-1.965c.618-.644 2.642-4.629 2.458-4.815-.218-.221-1.164.218-1.69.785-.737.793-1.692 2.69-1.914 3.695-.274 1.236.162 1.363 1.147.335zm-6.748-6.112c-.32-.122-.296-.908.038-1.189.423-.356.945-.162.945.352 0 .479-.595.985-.983.837z" fill="#fff"/></svg>