<!-- by TradingView --><svg width="56" height="56" xmlns="http://www.w3.org/2000/svg"><path fill="#002366" d="M0 0h56v56H0z"/><path d="M5 28h2v6h1v-6h2v-1H5v1zM12 31h2v-1h-2v-2h2v-1h-3v7h3v-1h-2v-2zM16 27h-1v7h4v-1h-3v-6zM21 27h-1v7h4v-1h-3v-6zM28 31.02c0 1.158-.313 1.977-1.494 1.977-1.182 0-1.506-.865-1.506-1.977V27h-1v4.02c0 .91.208 1.628.624 2.166.415.539 1.05.814 1.882.814.831 0 1.466-.275 1.881-.814.405-.526.613-1.256.613-2.166V27h-1v4.02zM39.26 27l-2.739 7h1l.868-2h2.28l.852 2h1l-2.75-7h-.51zm-.577 4l.838-2 .819 2h-1.657zM47 32l-3-5h-1v7h1v-5l3 5h1v-7h-1v5z" fill="#fff"/><path d="M39.398 17c-5.438 0-10.253 3.819-11.394 9H29c1.095-4.718 5.433-8 10.398-8C45.32 18 50 22.565 50 28.322c0 1.818-.599 4.109-1.532 5.678h1.08c.91-1.648 1.451-3.804 1.451-5.678C51.011 22.07 45.804 17 39.4 17z" fill="#fff"/><path d="M35 27v5.998c-.873-.418-1.434-1.252-2-1.998.25-.192.54-.476.753-.764.262-.371.4-.779.4-1.21 0-.648-.238-1.151-.7-1.51-.45-.348-1.039-.516-1.727-.516H30v7h1v-2.5h1.164c.593.78 1.45 1.912 2.414 2.308.213.096.463.156.763.168.113.012.25.024.438.024h.225v-7H35zm-4 3.5V28c.882-.037 2.014.011 2.005 1.124-.009 1.112-.44 1.376-2.005 1.376z" fill="#fff"/></svg>