<!-- by TradingView --><svg width="56" height="56" xmlns="http://www.w3.org/2000/svg"><path fill="#F0F3FA" d="M0 0h56v56H0z"/><path d="M4 27.764s12.041-4.615 24.486-4.536c14.753.095 23.43 4.899 23.43 4.899l.084-.294s-8.625-5.985-23.402-5.83c-14.272.15-24.54 5.468-24.54 5.468L4 27.764z" fill="#946244"/><path d="M10.97 29.293H9.6L9.928 28h4.566l-.33 1.293h-1.371L11.52 34H9.698l1.272-4.707zM15.2 28h4.145l-.317 1.244h-2.322l-.37 1.113h2.176l-.305 1.194h-2.174l-.296 1.205h2.41L17.832 34h-4.233l1.602-6zM20.393 28h2.038l.145 3.715h.02L23.625 28h1.705l-1.602 6H21.73l-.297-3.651h-.018L20.495 34h-1.704l1.602-6zM26.488 28h2.037l.145 3.715h.02L29.721 28h1.705l-1.602 6h-1.999l-.296-3.651h-.02L26.591 34h-1.706l1.603-6zM32.582 28h4.145l-.316 1.244h-2.322l-.37 1.113h2.176l-.305 1.194h-2.175l-.296 1.205h2.411L35.214 34H30.98l1.601-6zM40.019 29.824c.169-.663.071-.859-.281-.859-.559 0-.792.492-1.194 2.071-.402 1.58-.452 2.005.106 2.005.452 0 .633-.328.915-1.432h1.763l-.11.433c-.417 1.637-1.664 2.03-2.83 2.03-2.047 0-2.28-.859-1.725-3.036.568-2.234 1.446-3.102 3.337-3.102 1.646 0 2.08.72 1.793 1.849l-.094.368h-1.764l.084-.327zM44.157 33.04c.559 0 .727-.534 1.128-2.113.402-1.58.451-2.005-.107-2.005s-.726.425-1.128 2.005c-.401 1.579-.45 2.114.107 2.114zm1.283-5.15c1.862 0 2.282.852 1.726 3.037-.556 2.184-1.41 3.145-3.27 3.145-1.862 0-2.283-.96-1.727-3.145.556-2.185 1.41-3.036 3.271-3.036z" fill="#000"/></svg>