<!-- by TradingView --><svg width="56" height="56" xmlns="http://www.w3.org/2000/svg"><path fill="#F0F3FA" d="M0 0h56v56H0z"/><path d="M42.498 37.224c2.643.862 2.912-.64 1.111-2.392-3.556-3.436-8.92-6.177-15.775-6.177-6.854 0-12.213 2.74-15.77 6.177-1.8 1.752-1.53 3.254 1.111 2.392 2.307-.754 7.51-2.386 14.655-2.386 7.201 0 12.362 1.632 14.668 2.386z" fill="#1F5593"/><path d="M11.363 21H10v-1h4v1h-1.324v4h-1.313v-4zM15.155 20h3.474v1h-2.16v.994h2.04V23h-2.04v1h2.238v1h-3.552v-5zM20.628 20H22v4h2v1h-3.372v-5zM25 20h3.338v1h-2.096v.994h1.974V23h-1.974v1h2.174v1H25v-5zM33.697 24.803c-.375.092-.702.197-1.374.197-1.217 0-2.742-.651-2.742-2.48 0-1.68 1.205-2.52 2.735-2.52.52 0 .916.116 1.374.25l-.106 1.045c-.425-.229-.698-.338-1.196-.338-.885 0-1.452.664-1.452 1.563 0 .949.69 1.526 1.559 1.526.429 0 .78-.115 1.139-.251l.063 1.008zM37.082 20c1.623 0 2.47.95 2.47 2.5 0 1.536-.861 2.5-2.47 2.5-1.61 0-2.473-.964-2.473-2.5 0-1.55.848-2.5 2.473-2.5zm0 4.045c.796 0 1.115-.748 1.115-1.545 0-.837-.319-1.544-1.115-1.544-.8 0-1.116.707-1.116 1.544 0 .797.316 1.545 1.116 1.545zM41.01 20h1.967l1.01 3.345h.014L45.026 20H47v5h-1.268l.02-3.997h-.012L44.483 25h-1.088l-1.167-3.997h-.012L42.244 25H41.01v-5z" fill="#000"/></svg>