<!-- by TradingView --><svg width="56" height="56" xmlns="http://www.w3.org/2000/svg"><path fill="#F0F3FA" d="M0 0h56v56H0z"/><path d="M47 23.326v.984c-.968-.777-2.251-1.187-3.56-1.187-3.313 0-5.907 2.782-5.907 6.335 0 1.586.546 3.097 1.538 4.256 1.096 1.286 2.794 2.054 4.542 2.054 1.253 0 2.447-.4 3.387-1.187v1.062c0 .15.127.357.275.357h2.519c.148 0 .206-.207.206-.357V23.326c0-.15-.058-.326-.206-.326h-2.608c-.149 0-.186.176-.186.326zm.158 6.132c0 1.646-1.255 3.271-3.178 3.271-1.842 0-3.177-1.414-3.177-3.271 0-2.06 1.524-3.284 3.139-3.284 2.003 0 3.216 1.637 3.216 3.284zM12.023 32.832c-.731 0-1.254-.226-1.606-.666-.265-.33-.388-.773-.388-1.5V26h3.37c.143 0 .258-.12.258-.264v-2.487a.25.25 0 00-.258-.25h-3.37V20.27a.27.27 0 00-.27-.271H7.267a.27.27 0 00-.27.271V23H4.296c-.15 0-.295.11-.295.261v2.463c0 .15.146.276.295.276h2.703v4.37c0 1.71.267 2.796.895 3.632.854 1.149 2.296 1.756 4.172 1.756 1.445 0 2.13-.344 2.628-.739.144-.114.173-.37.088-.492-.07-.098-1.183-1.878-1.183-1.878-.101-.165-.315-.202-.495-.104-.243.134-.708.287-1.08.287z" fill="#204E77"/><path d="M19.843 23.116c-1.68 0-3.195.675-4.27 1.9-1.024 1.17-1.588 2.744-1.588 4.435 0 3.715 2.592 6.31 6.303 6.31 1.631 0 3.237-.599 4.37-1.597.05-.045.11-.103.172-.165a.273.273 0 00.025-.356l-1.295-1.72a.266.266 0 00-.398-.033 4.486 4.486 0 01-.257.229c-.536.437-1.403.964-2.543.964-1.706 0-3.017-1.43-3.202-3.083h7.957a.372.372 0 00.383-.332c.015-.154.028-.357.028-.605 0-1.663-.566-2.953-1.594-4.109a5.407 5.407 0 00-4.09-1.838zm0 2.677c1.024 0 2.201.935 2.337 2.207h-4.87c.154-.996 1.156-2.207 2.533-2.207z" fill="#204E77"/><path d="M32 32.649v-1.736c.001-.708.167-1.499.447-2.305.317-.918.773-1.697 1.278-2.265l.878-1.08v4.059L32 32.649z" fill="#269E75"/><path d="M34.603 25.253l1.53-1.945a.472.472 0 01.545-.154.51.51 0 01.324.486L37 26.204l-2.397 3.108v-4.059z" fill="#9FD142"/><path d="M37 26.204v1.473c.026.756-.121 1.627-.426 2.51-.28.806-.645 1.514-1.077 2.058l-.894 1.166v-4.08L37 26.204z" fill="#35786E"/><path d="M34.604 29.313v4.08l-1.733 2.175a.472.472 0 01-.545.154.513.513 0 01-.326-.486V32.65l2.604-3.337z" fill="#204E77"/><path d="M31 32.649v-1.736c-.001-.708-.166-1.499-.446-2.305-.317-.918-.773-1.697-1.278-2.265l-.77-.972v4.06L31 32.649z" fill="#269E75"/><path d="M28.505 25.371l-1.637-2.063a.471.471 0 00-.544-.154.511.511 0 00-.324.486l.013 2.564 2.491 3.227v-4.06z" fill="#9FD142"/><path d="M26.012 26.204l.008 1.473c-.026.757.102 1.627.408 2.51.28.806.644 1.514 1.076 2.058l1 1.266v-4.08l-2.492-3.227z" fill="#35786E"/><path d="M28.505 29.431v4.08l1.625 2.057c.132.17.35.228.545.154a.513.513 0 00.325-.486V32.65l-2.495-3.218z" fill="#204E77"/></svg>