<!-- by TradingView --><svg width="56" height="56" fill="none" xmlns="http://www.w3.org/2000/svg"><path fill="#F0F3FA" d="M0 0h56v56H0z"/><path d="M16 38V18c1.704 1.7 5.202 5.642 5.512 5.878.308.237.791.099.994 0L28 18c1.74 1.709 5.306 5.66 5.58 5.877.274.218.7.09.879 0L40 18v20H16z" fill="#D71635"/><path d="M22.708 25.302c-.642-.546-1.224-.228-1.435 0l-4.035 4.143c-.094.057-.273.275-.232.69.041.413.356.854.723.854 2.729.008 8.269.02 8.6 0 .413-.026.671-.57.671-.855 0-.227-.154-.554-.231-.689-1.086-1.154-3.42-3.598-4.061-4.143zM34.708 25.3c-.642-.547-1.224-.228-1.435 0l-4.035 4.143c-.094.057-.273.275-.232.69.041.414.356.854.723.854 2.729.008 8.269.02 8.6 0 .413-.026.671-.57.671-.855 0-.227-.154-.554-.231-.689-1.086-1.154-3.42-3.598-4.061-4.144z" fill="#fff"/><rect x="12.5" y="14.5" width="31" height="26.996" rx="2.5" stroke="#000"/></svg>