<!-- by TradingView --><svg xmlns="http://www.w3.org/2000/svg" width="56" height="56"><path fill="#F0F3FA" d="M0 0h56v56H0z"/><path d="M13 22H4v2h3.5v9h2v-9H13v-2z" fill="#415A68"/><path fill-rule="evenodd" d="M16.48 32.35c-.6.41-1.33.65-2.12.65a3.94 3.94 0 01-3.87-4c0-2.2 1.73-4 3.87-4 .79 0 1.52.24 2.12.65V25h2v8h-2v-.65zm0-3.26a2 2 0 110-.18v.18z" fill="#415A68"/><path d="M22 25c2.16 0 2.8 1.6 2.8 2.36h-1.98c0-.52-.5-.73-.82-.73-.32 0-.8.2-.8.63 0 .46.63.7 1.48.89 1.95.43 2.32 1.64 2.32 2.28 0 .9-.71 2.57-3 2.57s-2.97-1.63-3-2.45h2c0 .53.7.81 1.05.81.36 0 .95-.17.95-.69 0-.62-.78-.79-1.34-.93-2.52-.61-2.5-1.91-2.5-2.24.02-.33.15-2.5 2.84-2.5z" fill="#415A68"/><path fill-rule="evenodd" d="M44 33a4 4 0 100-8 4 4 0 000 8zm0-2a2 2 0 100-4 2 2 0 000 4z" fill="#415A68"/><path d="M33.14 30.66a4 4 0 11.23-.66h-5.69c.1.33.67 1 1.82 1 .3 0 .89-.06 1.33-.34h2.31zM29.5 27c-1.18 0-1.69.66-1.8 1h3.63c-.12-.33-.65-1-1.83-1zm6.5-4h-2v10h2v-3.42L38.59 33H41l-2.95-3.98L41 25h-2.41L36 28.5V23z" fill="#415A68"/><path d="M49.46 25H47l2.54 4H52l-2.54-4z" fill="#00B6DE"/><path d="M49.46 33H47l2.54-4H52l-2.54 4z" fill="#00A7E5"/></svg>