<!-- by TradingView --><svg xmlns="http://www.w3.org/2000/svg" width="56" height="56"><path fill="#870028" d="M0 0h56v56H0z"/><path d="M29 13V9c-.93 1.76-3.05 4-4 4.7v.3h1.5v5.85A2.1 2.1 0 0028.87 22a2.87 2.87 0 002.63-1.9l-.5-.25c-1.05 1.65-2 .78-2 0V14h2v-1h-2zm3.5 16c.05-1.46-.61-5-3.7-5-3.75 0-4.33 4.1-4.3 5.35.03 1.04.48 4.65 4.3 4.65 1.03 0 2.61-.53 3.7-2.74l-.4-.3c-.26.49-1.01 1.6-2.04 1.6A3.12 3.12 0 0127 29h5.5zM27 28c-.07-1.06.15-3.24 1.62-3.28 1.39-.04 1.38 1.93 1.37 3.07V28H27zm-3.51 8H29v1h-.32c-.28.03-.7.06-.48.42l1.06 1.72 1.13-1.72c.15-.25-.06-.42-.75-.42v-1h3.54v1h-.52c-.35.02-1.04.05-1.32.42-.48.62-1.34 1.89-1.7 2.44l2.43 4.19c.28.5.57.95 1.43.95v1H28v-1h.32c.34.02.88.04.48-.58l-1-1.82-1.25 1.82c-.2.32 0 .58.46.58h.4v1H23.5v-1h.6c.24.01 1.05.05 1.57-.58.4-.47.9-1.22 1.32-1.85l.43-.65-2.43-4.2-.03-.04c-.18-.28-.44-.68-1.46-.68v-1z" fill="#fff"/></svg>