<!-- by TradingView --><svg width="56" height="56" xmlns="http://www.w3.org/2000/svg"><path fill="url(#paint0_linear)" d="M0 0h56v56H0z"/><path d="M38 33h3v-9h-3v4l-3-4h-3v9h3v-4l3 4zM31 28.5V28h-5v2h2.178c0 .35-.806.63-1.627.63-1.261 0-1.896-1.09-1.896-2.13 0-1.04.726-2.08 1.896-2.08.54 0 1.109.225 1.449.583L30 26c-.688-1.274-2.005-2-3.516-2-2.466 0-4.475 2.021-4.475 4.5 0 2.47 2.01 4.5 4.475 4.5C29.257 33 31 30.987 31 28.5zM21 31h-4v-1.5h3v-2h-3V26h4v-2h-7v9h7v-2zM4 26h3v7h3v-7h3v-2H4v2zM48 24h-3l-3 9h3l.415-1h2.17L48 33h3l-3-9zm-2.186 6l.686-3 .69 3h-1.376z" fill="#fff"/><defs><linearGradient id="paint0_linear" x1="10.418" y1="9.712" x2="68.147" y2="76.017" gradientUnits="userSpaceOnUse"><stop stop-color="#1A1E21"/><stop offset="1" stop-color="#06060A"/></linearGradient></defs></svg>