<!-- by TradingView --><svg xmlns="http://www.w3.org/2000/svg" width="56" height="56"><path fill="#F0F3FA" d="M0 0h56v56H0z"/><path d="M23.6 41.4c-1.79.47-3.24.5-4.34.07-5.41-2.07-9.8-6.89-10.22-11.16-.26-2.45.82-4.42 3.13-5.9.75-.47 1.6-.92 2.5-1.37a31.21 31.21 0 015.34-1.9 41.47 41.47 0 0115.74-1.05c2.07.28 4.03.73 5.76 1.35.2.08.37.13.52.2.38.15.68.35.9.58.8.87.28 2.47-.3 3.67-2.5 5.22-10.67 12.31-17.13 14.86l-.5.2c-.45.18-.96.33-1.4.45z" fill="#33BBED"/><path d="M19.56 19.34a43.23 43.23 0 0116.46-1.1c2.16.3 4.16.75 5.96 1.4v-.02c-.1-.3-.27-.58-.52-.85-.95-.97-2.08-1.9-3.36-2.7-3.9-2.5-9.04-4.1-13.4-4.07-.66 0-1.3.05-1.9.13-3.92.5-4.94 3.92-4.04 7.49.22-.13.5-.2.8-.28z" fill="#BFD530"/><path d="M20.08 21.12l-.77.22a12.68 12.68 0 002.48 3.75c.83.87 2.25 1.32 3.96 1.47 5.38.45 13.63-2.22 15.78-5.12a27.81 27.81 0 00-5.76-1.35 40.7 40.7 0 00-15.69 1.03z" fill="#92C5EB"/><path d="M42.66 25.89c.1-.23.23-.48.3-.73a.647.647 0 00-.25-.12c-.28-.13-.6-.18-1-.15-1.36.1-2.8.37-4.24.82-4.43 1.38-8.97 4.27-11.75 7.62-.42.5-.8 1.03-1.15 1.55a4.61 4.61 0 00.53 6.02l.4-.15c6.49-2.57 14.65-9.67 17.16-14.86z" fill="#466AA6"/><path d="M26.77 42.25A12.4 12.4 0 0034 43.97c1.2-.07 2.46-.87 3.66-2.07 3.5-3.55 6.56-10.7 6.34-14.51-3 5.4-10.7 12.06-17.23 14.86z" fill="#F58720"/></svg>