<!-- by TradingView --><svg width="56" height="56" xmlns="http://www.w3.org/2000/svg"><path fill="url(#paint0_linear)" d="M0 0h56v56H0z"/><path d="M12 31.994V23h-2v2.998H6V23H4v8.994h2v-3.998h4v3.998h2zm3.22.003c.785 0 1.34-.25 1.763-.857H17v.857h2V28.95c0-1.903-.606-2.95-2.851-2.95-1.013 0-2.041.304-2.752.917l1.028.965c.413-.423.94-.683 1.57-.683.67 0 1.018.401 1.018 1.024-1.605 0-4.013.038-4.013 2.012 0 1.149 1.053 1.762 2.22 1.762zm1.53-2.646h.262l-.012.374c0 .705-.479 1.068-1.238 1.068-.423 0-.914-.2-.914-.623 0-.77 1.31-.819 1.902-.819zm5.24-.271c0-.76.083-1.492 1.085-1.492.988 0 .93.865.93 1.542v2.864h1.998V28.77c0-1.565-.357-2.77-2.307-2.77-.938 0-1.418.484-1.671.939H22V26h-1.997v5.992H22V29.08h-.01zm8.065 2.914c2.05 0 3.693-1.205 3.693-3.069 0-1.864-1.643-3.069-3.693-3.069s-3.687 1.205-3.687 3.069c0 1.864 1.637 3.069 3.687 3.069zm0-4.545c1.025 0 1.643.6 1.643 1.481 0 .877-.613 1.482-1.643 1.482-1.025 0-1.638-.6-1.638-1.482s.613-1.481 1.638-1.481zM38 31.994L41 26h-2l-1.965 3.994h-.028L35 26h-2l3 5.992h2zm5.773.006c1.015 0 2.041-.412 2.665-1.128l-1.368-.906c-.327.401-.754.694-1.393.694-.754 0-1.312-.434-1.468-1.106h4.525V29c0-1.822-1.146-3-2.966-3-1.95 0-3.51 1.178-3.51 3 0 1.823 1.564 3 3.515 3zm-.181-4.724c.704 0 1.212.493 1.197 1.079h-2.575c.05-.553.523-1.08 1.378-1.08zM49 29.547c0-1.166.398-1.736 2.067-1.736.322 0 .628.113.933.185v-1.934c-.204-.05-.48-.061-.73-.061-.967 0-1.752.372-2.222 1.082H49V26h-2v5.992h2v-2.446z" fill="#fff"/><defs><linearGradient id="paint0_linear" x1="10.418" y1="9.712" x2="68.147" y2="76.017" gradientUnits="userSpaceOnUse"><stop stop-color="#1A1E21"/><stop offset="1" stop-color="#06060A"/></linearGradient></defs></svg>