<!-- by TradingView --><svg width="56" height="56" fill="none" xmlns="http://www.w3.org/2000/svg"><path fill="#406745" d="M0 0h56v56H0z"/><path stroke="#F6F8FD" stroke-width="2" d="M12.996 13H43v30H12.996z"/><path d="M13.389 26.104L19 18l6 8.004h1.005L22 20l5.024-6.536L36 26.004c-5.45.849-16.535 3.667-16.732 9.142-.082 1.532.728 4.615 3.732 5.854h10.465c-1.663-1.033-5.067-3.416-5.897-5.854-1.038-3.047.494-5.645 3.26-7.144 2.767-1.498 6.74-1.698 8.172-1.998-3 .821-8.781 3.215-9.308 5.046-.379 1.315-.17 4.434 2.816 6.644 3.077 2.277 4.496 2.963 5.073 3.306h4.857v-3.306c-2.026-1.032-6.126-3.807-6.324-6.644-.247-3.547 6.176-4.946 6.57-4.946l-.246 11.59v5.246h-29.05V26.104z" fill="#F6F8FD"/><path d="M41 19a3 3 0 11-6 0 3 3 0 016 0z" fill="#F6F8FD"/></svg>