<!-- by TradingView --><svg width="56" height="56" xmlns="http://www.w3.org/2000/svg"><path fill="#F0F3FA" d="M0 0h56v56H0z"/><path d="M25.363 12.001c.19.146.374.3.57.438.444.311.944.322 1.455.242.412-.064.823-.135 1.23-.218.372-.076.734-.024 1.098.04.286.053.57.11.857.166.47.093.923.07 1.36-.15.42-.212.863-.35 1.342-.325.348.019.676.11.933.353.188.18.412.243.657.267.211.022.425.033.636.063.296.042.555.155.746.404.25.327.613.459 1.006.524.592.098 1.143.294 1.634.645.435.31.73.717.908 1.211.138.38.237.778.407 1.144.382.833.864 1.569 1.724 2.035 1.347.729 2.134 1.905 2.45 3.383.061.283.014.594-.01.89-.021.277-.095.55-.116.827-.023.32.105.604.288.862.194.272.322.571.391.895.16.744.041 1.462-.265 2.143-.181.403-.415.785-.649 1.16a.763.763 0 00-.115.603c.05.226.092.455.127.683.065.417.004.81-.28 1.142-.225.264-.453.53-.773.692a1.013 1.013 0 00-.256.19c-.153.157-.25.33-.186.569.123.47.168.949.12 1.436a.441.441 0 00.04.22c.285.601.239 1.179-.13 1.728a5.188 5.188 0 01-.447.602c-.23.256-.532.335-.874.27-.267-.051-.536-.128-.802-.125-.336.004-.673.069-1.006.122-.384.062-.765.123-1.154.034-.365-.085-.675-.24-.865-.579-.166-.295-.338-.587-.486-.89a1.053 1.053 0 00-.468-.496c-.31-.16-.623-.313-.94-.47-.34.191-.665.378-.994.56-.85.467-1.734.862-2.627 1.242-.179.076-.35.165-.526.25-.763.37-1.136 1.037-1.322 1.81a8.28 8.28 0 00-.189 1.43c-.044.711.071 1.417.069 2.13-.002.305.087.531.12.85 2.67 0 5.291-.003 7.949-.003v1H18.005v-.997h7.475c.364-.42.329-.812.39-1.273.11-.85.207-1.702.292-2.553a1.123 1.123 0 00-.334-.953 5.604 5.604 0 01-.905-1.196c-.388-.664-.969-1.16-1.637-1.532-.718-.4-1.462-.751-2.248-1.151l-.563-.237c-.153-.069-.282-.19-.484-.14-.261.066-.532.097-.8.129-.37.044-.716-.071-1.05-.198-.29-.109-.482-.033-.65.197-.022.031-.059.052-.08.084-.351.556-.902.58-1.468.521-.275-.028-.533-.036-.8.056a6.61 6.61 0 01-1.677.337 3.633 3.633 0 01-1.456-.165c-.608-.206-.985-.748-1.009-1.385a2.216 2.216 0 01.509-1.529c.042-.052.081-.107.135-.176-.494-1.018-.287-1.884.597-2.552-.24-.221-.502-.411-.698-.655-.373-.464-.426-1.011-.239-1.561.077-.225.082-.42.027-.64-.186-.741-.096-1.446.382-2.056.212-.27.49-.495.763-.707.321-.247.67-.461 1.01-.685.188-.123.255-.32.303-.51.063-.251.08-.512.113-.77.036-.276.048-.556.102-.828.054-.268.17-.515.394-.625.076-.472.11-.918.224-1.343.28-1.038.97-1.666 2.044-1.853.385-.067.71-.252 1.013-.48a.445.445 0 00.152-.262c.073-.419.31-.711.651-.952.188-.131.367-.289.514-.464.258-.307.57-.52.953-.63.483-.14.967-.278 1.454-.408.317-.084.56-.232.681-.56.195-.527.611-.75 1.157-.757a1.14 1.14 0 00.722-.26c.141-.113.31-.19.466-.281l.933.001zm.55 19.523c.033.33.054.596.09.862.098.762.188 1.525.307 2.284.091.577.354 1.074.814 1.46.263.22.527.168.637-.154.084-.247.132-.504.08-.767-.045-.226-.083-.455-.139-.678-.19-.755-.388-1.51-.577-2.265a.478.478 0 00-.227-.32 12.159 12.159 0 00-.689-.367c-.078-.036-.177-.033-.297-.055zm7.898 2.358a1.838 1.838 0 00-1.467-.334c-.428.075-.849.197-1.285.056-.06-.02-.127-.018-.193-.027-.175.346-.26.7-.287 1.065-.026.335.07.402.404.354.473-.069.916-.236 1.358-.404.496-.188.987-.391 1.47-.71zm-9.838-.262c-.004-.028 0-.06-.011-.084-.303-.672-.717-1.272-1.198-1.83-.04-.047-.112-.1-.165-.097-.286.015-.573.071-.733.335-.162.267-.284.558-.424.837.526.34 2.168.885 2.53.839zm5.14-2.024a1.406 1.406 0 00-.606.44.303.303 0 00-.067.204c.04.401.082.802.144 1.2.03.192.056.396.222.575.097-.079.202-.136.269-.223.163-.213.311-.44.461-.663a.673.673 0 00.03-.759c-.146-.255-.221-.553-.453-.774z" fill="#000"/><path d="M36.558 32.728c0-.372 1-.63 1.285-.654.285-.024.455-.024.813.016.358.04 1.04.064 1.147.064.106 0 .373.057.398.242.024.186-.122.34-.431.548-.31.21-.122.542-.082.735.04.193.22.404-.064.84-.285.436-.627.436-.952.114-.325-.323-.903-1.172-1.195-1.358-.293-.183-.919-.232-.919-.547zM28.5 27a.5.5 0 100-1 .5.5 0 000 1z" fill="#4A7E45"/><path d="M24.938 24.284c-.044.016-.442-.031-.676-.209-.233-.177-.479-.387-.646-.431-.166-.045-.669-.133-.924-.431-.257-.299-.469-.365-.804-.388-.334-.022-.87-.354-.88-.908-.012-.553-.312-.763-.992-1.184-.564-.348-.931-1.608.056-2.833.178-.221 0-.465.078-.785.077-.322.088-.599.87-1.052a21.355 21.355 0 001.716-1.117c.123-.1.58-.566 1.182-.588.925-.032 2.597.565 2.864.576.268.01.874.032 1.26-.033.39-.066 2.452-.785 2.976-.841.525-.056.948.388 1.204.399.256.01 1.114-.078 1.516.099.401.177.457.487.501.487.044 0 1.037.044 1.36.133.324.088 1.137.354 1.517.963.378.609.39 1.184.903 1.604.512.42.87.554.87 1.163s.48 1.35.758 1.471c.279.122 1.368.146 2.24 1.506.747 1.162-.102 2.18-.156 2.711-.045.442.056 1.45-.211 1.793-.268.343-.458.221-.48.908-.022.686 0 .987-.512 1.428-.246.21-.512.508-.635.686-.123.178-.145.564-.603.841-.457.277-1.19.185-1.594.42-.568.333-.926 1.102-1.438 1.04-.836-.098-.825-.785-1.706-.928-.846-.138-.591.177-1.203.077-.614-.099-1.003-.697-1.517-.785-.512-.088-.828-.19-.828-1.076v-5.432c0-1.483-1.78-2.645-3.118-2.645-1.415 0-2.886 1.127-2.886 2.644l-.002.616c0 .062-.036.093-.06.101zM35 23.254a.255.255 0 00-.25-.254h-1.509c-.138 0-.241.118-.241.254v1.517c0 .136.103.229.241.229h1.51c.137 0 .249-.093.249-.23v-1.516zm2.995 0a.255.255 0 00-.25-.254H36.23c-.137 0-.23.118-.23.254v1.517c0 .136.093.229.23.229h1.516c.137 0 .25-.093.25-.23v-1.516zM35 26.248a.249.249 0 00-.25-.248h-1.509a.242.242 0 00-.241.248v1.512c0 .136.103.24.241.24h1.51c.137 0 .249-.104.249-.24v-1.512zm2.995 0a.249.249 0 00-.25-.248H36.23c-.137 0-.23.111-.23.248v1.512c0 .136.093.24.23.24h1.516c.137 0 .25-.104.25-.24v-1.512z" fill="#4A7E45"/><path d="M21.992 33.721c.069-.18.381-.068.602.01.22.078 1.714.57 1.84.6.126.032.346.172.346-.297 0-.468-.135-1.184-.299-1.705-.08-.25-.127-.265.236-.281.363-.016.52.094.614.297.095.203.268.172.316.407.047.235.252 2.534.882 3.191.63.658 1.45 1.223 1.86.329.078-.172.11-.704.378-.86.267-.156.582-.313.74-.86.156-.548.52-1.455.723-1.377.205.079.41-.125.032 1.032-.378 1.158-.173 1.142-.095 1.22.08.079.777.089 1.812-.453.3-.156 1.533-.524 2.048-.907.127-.094.204-.032.284.047.079.079.614.141.582.25-.031.11-.299.203-.819.438-.52.234-2.756 1.141-3.56 1.72-.803.579-1.055.876-1.307 1.986-.252 1.11-.142 3.645-.252 3.926-.11.282-.551.032-.693 0-.143-.031-.363-.328-.567-.391-.205-.063-.363-.063-.395-.172-.031-.11.08-.266-.142-.313-.22-.047-.3-.171-.284-.423.016-.25.332-2.315.268-2.643-.063-.329-.47-.675-.724-.908-.583-.531-1.07-1.752-1.465-2.049-.665-.502-1.659-1.014-1.937-1.095-.387-.112-.368-.292-.526-.432-.157-.14-.545-.161-.497-.287z" fill="#5E3624"/><path d="M23.34 31.463c.06-.1.2.023.254.152.053.13.4.659.4.659.077.114.154.267.016.306-.139.038-.169-.161-.246-.268-.079-.107-.478-.757-.424-.849zM27.556 32.22c.092-.016.13-.008.2.275.07.284.14.535.17.613.03.076-.023.175-.116.198-.093.023-.147-.108-.177-.26-.03-.153-.163-.673-.163-.673s-.054-.13.086-.154z" fill="#5E3624"/></svg>