<!-- by TradingView --><svg xmlns="http://www.w3.org/2000/svg" width="56" height="56"><path fill="#F0F3FA" d="M0 0h56v56H0z"/><path d="M44 28a16 16 0 01-28.87 9.5c2.04-.55 2.65-1.46 2.91-1.87l.01-.01c.92-1.39 1-3.74.95-4.78-.57-4.61.11-6.67.48-7.4l.08-.17c.38-.8 1.1-2.27 3.25-2.27h9.26c3.6 0 4.54 4.5 4.54 6.3.36 4.94 1.25 7.4 1.65 8.05.26.7 1.12 2.09 2.07 1.53 1.12-.65.47-1.93 0-2.5C39.71 33.64 39 31.15 39 30c-.16-4.67-1.17-7.6-1.84-8.58.32-.42 3.52-.43 5.23-.42 1.03 2.1 1.61 4.49 1.61 7zm-27 3.09c.05 3.8-1.83 4.74-2.95 4.75a15.93 15.93 0 01-.2-15.31l4.77.47c-.42.52-1.13 1.68-1.62 3.24-.5 1.55-.2 5.2 0 6.85zM28 12c-5.16 0-9.75 2.44-12.68 6.24 1.18.5 4.36 1.1 9.78.55.6-.08 2-.75 1.9-2.02v-2.5c0-.46.16-1.02 1.01-1h.3c.3.03.69.26.69 1v3.31c0 .51.56 1.42 2.03 1.42h10.2c-2.88-4.23-7.73-7-13.23-7zm-1 12.13c0 .96-.31 2.86-2.8 5.5-2.71 2.86-2.53 4.72-2.12 6.32.41 1.6 2.3 4.05 6.5 4.05 4.09 0 5.42-2.45 5.42-5.3 0-1.92-2.84-6-4.26-4.15-.34.45.15.98.39 1.23l.08.1.38.43c.65.72 1.41 1.56 1.41 2.67 0 1.18-.86 3.01-3.42 3.01-2.55 0-4.58-1.45-4.58-4.03 0-.9 1.11-2.13 1.67-2.71.7-.72 2.7-3.4 2.75-3.75.24-.47.58-1.64.58-3.38.03-.39-.22-1.13-1-1.13-.79 0-.95.52-1 1.13z" fill="#D1301D"/></svg>