<!-- by TradingView --><svg width="56" height="56" xmlns="http://www.w3.org/2000/svg"><path fill="#FFC200" d="M0 0h56v56H0z"/><path d="M27.998 12C19.161 12 12 19.165 12 28.002c0 .211.007.425.018.636 1.544-3.017 4.657-6.56 9-8.657-.007-.096-.018-.196-.018-.297a3.684 3.684 0 114.029 3.668 3.671 3.671 0 01-3.275-1.45c-4.506 2.664-6.902 8.196-7.227 14.723a15.955 15.955 0 003.08 3.531c2.617-6.223 6.77-10.56 15.22-13.328 0-.05-.008-.096-.008-.146a3.682 3.682 0 017.365-.002 3.69 3.69 0 01-2.536 3.506 3.672 3.672 0 01-4.113-1.33c-6.527 3.005-10.474 9.632-10.66 14.3 1.651.56 3.383.845 5.127.844C36.839 44 44 36.84 44 27.998 43.998 19.165 36.838 12 27.998 12z" fill="#fff"/></svg>