<!-- by TradingView --><svg width="56" height="56" xmlns="http://www.w3.org/2000/svg"><path fill="#FF8300" d="M0 0h56v56H0z"/><path d="M5.5 33v-1s1-.053 1-.833V24h-.919S5 24.11 5 24.748V26H4v-3h7v3h-1v-1.226s0-.801-.591-.774H8.5v7.167S8.434 32 9.5 32v1h-4zM16 33h-4v-1s1-.169 1-.833V24.72S12.882 24 12 24v-1h4v1s-1-.05-1 .721v6.446s.152.833 1 .833v1zm4 0l-3 .01V32s1-.016 1-1v-6.279S18.085 24 17 24v-1h3l1.5 6 2.05-6H27v1s-1 .056-1 .907V31s.2.974 1 1v1.01L23 33v-1s1-.148 1-1v-5l-2 7h-1l-2-7v5s.172 1 1 1v1zm8 0v-1s1-.229 1-1v-6.305S28.774 24 28 24c.027-.373 0-1 0-1h4v1s-1 .03-1 .747v2.375l1.695-2.454s.082-.668-.301-.668v-1h3.323v1s-.628.2-.846.474c-.22.274-1.869 3.026-1.869 3.026l2.278 3.87s.42.63.72.63v1h-3.633v-1s1.026-.125.445-.977C32.23 30.172 31 28.062 31 28.062v2.96S30.954 32 32 32v1h-4zm8.408 0v-1s1.04-.099 1.04-.95v-6.276s-.13-.774-1.04-.774v-1H43v2h-1c0-.644-.112-1-1-1h-1.603v3h1.085s.535-.157.52-1H42v3h-1s.009-1-.628-1c-.636-.014-1.002 0-1.002 0v4h1.839S42 32 42 31h1v2h-6.592zM44 33v-1S45 31.901 45 31v-6.081s-.238-.945-1-.919v-1h3l2 6v-4.526S48.711 24 48 24v-1h4v1s-1 .136-1 .668V33h-2l-3-6v4s.097 1 1 1v1h-3z" fill="#fff"/></svg>