<!-- by TradingView --><svg width="56" height="56" xmlns="http://www.w3.org/2000/svg"><path fill="#D51100" d="M0 0h56v56H0z"/><path d="M23.042 22.062c-6.1 0-11.042 4.907-11.042 10.965C12 39.086 16.943 44 23.042 44c6.1 0 11.042-4.914 11.042-10.973 0-6.058-4.943-10.965-11.042-10.965zm-.575 3.511c3.942 0 7.137 3.132 7.137 6.996 0 3.864-3.195 6.995-7.137 6.995-3.943 0-7.138-3.131-7.138-6.995 0-3.864 3.195-6.996 7.138-6.996z" fill="#fff"/><path d="M30.434 10c-.352-.011-.635.14-.945.36-.38.27-.709.706-.905 1.136-.999 2.197-1.944 4.314-2.897 6.424-.235.518-.504 1.098-.911 1.487-.255.244-.508.465-.843.367-.346-.101-.462-.271-.582-.62-.153-.445-.143-1.315-.192-1.784-.094-.917.024-1.86-.205-2.75-.108-.42-.472-1.35-1.035-1.383-.86-.05-1.48 1.303-1.85 2.06-.86 1.767-1.142 3.746-1.123 6.614.002.305.02.916.02.916s1.228-.423 1.85-.55a10.94 10.94 0 013.356-.169 11.577 11.577 0 013.172.804 11.132 11.132 0 014.857 3.97 10.97 10.97 0 011.013 1.869c.28.656.497 1.345.644 2.059a10.578 10.578 0 01.226 2.207 10.576 10.576 0 01-.226 2.214 10.834 10.834 0 01-1 2.814l.13.028c1.252.26 2.458.383 3.733.31 1.981-.112 4.05-.249 5.796-1.22.588-.326 1.364-.813 1.383-1.501.02-.627-.596-1.093-1.116-1.418-.524-.326-1.298-.369-1.905-.458-.902-.133-1.677-.012-2.637-.127-.782-.093-1.942-.253-2.11-1.086-.159-.794.793-1.48 1.357-2.045 1.137-1.141 2.568-1.92 3.815-2.933 1.438-1.17 2.82-2.23 4.124-3.554.414-.422.815-.747 1.123-1.256.22-.362.484-.928.445-1.354-.027-.283-.175-.496-.404-.655-.37-.26-.771-.23-1.22-.226-.462.003-.85.117-1.287.275-1.203.434-2.336 1.057-3.48 1.636-.845.427-1.591 1.1-2.5 1.354-.546.152-1.336.53-1.692.077-.346-.44.199-1.12.411-1.643.436-1.074 1.143-2.016 1.74-3.004.67-1.108 1.456-2.137 2.069-3.279.301-.56.68-1.117.787-1.749.078-.453.09-.966-.116-1.375-.119-.234-.34-.447-.589-.508-.452-.11-.952.096-1.377.29-.624.284-1.466.91-1.938 1.417-1.606 1.724-2.903 3.241-4.426 4.844-.52.549-1.22 1.528-1.904 1.22-.473-.213-.375-1.017-.315-1.537.181-1.579.508-3.2.685-4.81.083-.758.24-1.584.178-2.284-.036-.386-.076-.756-.295-1.072-.154-.225-.468-.345-.733-.388a1.11 1.11 0 00-.16-.012l.004-.001zm-7.966 15.564a7.39 7.39 0 00-1.438.14 7.227 7.227 0 00-1.35.396c-.012.004-.012.016-.02.02.004.012.009.037.016.05.797 2.156 1.747 4.369 3.206 6.12 1.485 1.781 3.354 3.197 5.377 4.28l.048.02c.032-.04.054-.079.082-.12a6.964 6.964 0 001.076-2.503 6.967 6.967 0 000-2.82 6.958 6.958 0 00-1.075-2.503 7.002 7.002 0 00-.87-1.03 7.17 7.17 0 00-1.055-.86 7.235 7.235 0 00-3.994-1.192l-.003.002z" fill="#fff"/><path d="M32.832 38.05c.131-.253.244-.496.356-.76a10.977 10.977 0 00.815-3.152c.04-.368.055-.742.055-1.12a10.547 10.547 0 00-.226-2.208 10.832 10.832 0 00-.644-2.059 10.93 10.93 0 00-1.014-1.869 11.033 11.033 0 00-2.986-2.961 10.99 10.99 0 00-1.87-1.009 11.042 11.042 0 00-2.076-.634 10.945 10.945 0 00-3.357-.17 11.546 11.546 0 00-2.942.712c.07.895.314 2.273.688 3.305a7.237 7.237 0 012.809-.562 7.206 7.206 0 012.781.55c.427.177.833.39 1.212.642.38.251.732.544 1.055.86.323.317.614.658.87 1.03a6.947 6.947 0 011.075 2.503c.096.455.145.927.145 1.41a6.82 6.82 0 01-.562 2.722 6.94 6.94 0 01-.658 1.192c-.027.04-.056.078-.085.119 1.381.732 3.034 1.14 4.558 1.458z" fill="#D51100"/></svg>