<!-- by TradingView --><svg width="56" height="56" xmlns="http://www.w3.org/2000/svg"><path fill="#F0F3FA" d="M0 0h56v56H0z"/><path d="M31.85 26.441c6.905 5.55 10.14 12.984 7.225 16.606-2.914 3.623-10.874 2.06-17.778-3.488-6.905-5.55-10.14-12.984-7.226-16.606 2.915-3.623 10.874-2.06 17.78 3.488z" fill="#FF2896"/><path d="M41 13c-.267 1.455-.533 2.938-.8 4.394-.111.537-.445 1.074-.934 1.343-.356.202-.8.285-1.2.263h-4.848c-.849 4.886-1.704 9.773-2.49 14.67-.089.425-.11.873-.289 1.276-.178.38-.467.739-.845.896-.355.156-.756.18-1.134.158h-5.802l3.423-17h-7.159c.29-1.455.556-2.95.845-4.405.111-.47.356-.895.734-1.186.356-.247.778-.409 1.223-.409H41z" fill="#570066"/></svg>