<!-- by TradingView --><svg width="56" height="56" xmlns="http://www.w3.org/2000/svg"><path fill="#D31245" d="M0 0h56v56H0z"/><path d="M26.73 19.977c.614.168 1.335-.37 1.61-1.18.274-.811 0-1.61-.62-1.769-.62-.158-1.332.371-1.607 1.18-.275.81 0 1.609.616 1.769zM45.79 19.977c.615.168 1.332-.37 1.609-1.18.276-.811 0-1.61-.618-1.769-.619-.158-1.338.371-1.608 1.18-.27.81.004 1.609.617 1.769zM36.259 19.977c.616.168 1.335-.37 1.61-1.18.275-.811 0-1.61-.616-1.769-.617-.158-1.338.371-1.61 1.18-.274.81 0 1.609.616 1.769zM45.792 20.76c-1.047-.433-1.695-.17-2.475.505l-2.466 2.229c-.654.57-1.513 1.308-2.434 2.08.072-1.054.183-3.857-2.15-4.82-1.052-.432-1.696-.169-2.476.506l-2.47 2.235c-.623.545-2.421 2.07-2.433 2.08.071-1.055.18-3.857-2.152-4.82-1.049-.43-1.694-.168-2.475.507l-2.47 2.235c-.624.546-2.433 2.08-2.433 2.08.072-1.053.181-3.857-2.153-4.82-1.047-.431-1.695-.168-2.473.506l-2.478 2.23c-.55.481-1.254 1.087-2.012 1.727l-1.27 1.115a.111.111 0 00-.039.124.114.114 0 00.108.076h2.313a.378.378 0 01.17.337s.035.201-.196.622c-.114.233-.266.543-.342.717-.147.312-.357.762-.585 1.29l-.017.042a25.397 25.397 0 00-1.187 3.227S8.01 36.946 8 38.546c0 0-.032.432.248.447.323.045.422-.327.422-.327a17.306 17.306 0 011.764-3.826s1.776-2.915 2.971-4.073l.47 1.897c.17.664.165 1.361-.017 2.023a25.228 25.228 0 01-1.195 3.709.284.284 0 00.14.406c.088.042.298.078.587-.322 0 0 1.48-1.886 2.493-3.491 0 0 .974-1.358.926-2.51 0 0-.036-1.18-.28-2.904a4.489 4.489 0 01-.048-.66c0-.12.01-.249.01-.384 0-1.315.935-1.888 2.866-2.053.328-.03.686-.046 1.073-.05.107 0 .638-.063.64.42a1.28 1.28 0 01-.202.655c-.117.233-.268.543-.341.716-.147.312-.357.762-.587 1.29a26.782 26.782 0 00-1.196 3.264s-1.184 4.176-1.196 5.776c0 0-.029.432.25.447.323.046.423-.327.423-.327a19.927 19.927 0 011.857-3.937s1.72-2.911 2.883-3.972l.471 1.897c.17.665.163 1.361-.017 2.023a25.352 25.352 0 01-1.196 3.71.283.283 0 00.139.405c.089.043.299.078.587-.322 0 0 1.48-1.886 2.494-3.491 0 0 .973-1.357.925-2.509 0 0-.036-1.18-.28-2.905a4.355 4.355 0 01-.05-.659s0-.251.01-.384c.105-1.312.937-1.889 2.868-2.054.328-.029.683-.045 1.071-.05.11 0 .639-.063.642.421 0 0 .026.223-.206.644-.115.233-.265.543-.342.717-.148.312-.359.762-.587 1.29a26.52 26.52 0 00-1.196 3.263s-1.183 4.176-1.195 5.776c0 0-.03.432.247.447.325.046.425-.327.425-.327a19.914 19.914 0 011.857-3.955s1.68-2.789 2.883-3.954l.471 1.897a3.95 3.95 0 01-.019 2.023 25.578 25.578 0 01-1.195 3.71.285.285 0 00.14.406c.085.042.297.077.586-.322 0 0 1.479-1.887 2.495-3.492 0 0 .971-1.357.925-2.509 0 0-.035-1.18-.281-2.905a4.517 4.517 0 01-.048-.659c-.003-.128 0-.256.01-.384 0-1.315.936-1.889 2.866-2.054.33-.028.683-.045 1.074-.052.106 0 .635-.062.639.423 0 0 .034.203-.195.622-.116.233-.27.543-.35.715-.419.884-1.336 2.9-1.797 4.58 0 0-1.183 4.177-1.195 5.777 0 0-.03.432.247.447.323.045.424-.327.424-.327a19.564 19.564 0 011.85-3.937s1.487-2.495 2.89-3.972l.47 1.897c.17.664.166 1.36-.015 2.023a25.464 25.464 0 01-1.195 3.709.284.284 0 00.14.406c.087.042.297.078.586-.322 0 0 1.48-1.886 2.495-3.491 0 0 .971-1.358.925-2.51 0 0-.037-1.18-.28-2.904a4.335 4.335 0 01-.037-.951c.039-1.027.637-1.39 1.064-1.517a1.54 1.54 0 01.218-.05l.4-.06c.173-.035.344-.078.512-.13a.717.717 0 00.243-.158c.251-.27.398-.617.415-.983v-.052c.015-.91.218-3.885-2.198-4.878zM17.194 19.977c.613.168 1.336-.37 1.61-1.18.276-.811 0-1.61-.617-1.769-.619-.158-1.336.371-1.61 1.18-.273.81 0 1.609.617 1.769z" fill="#fff"/></svg>