<!-- by TradingView --><svg xmlns="http://www.w3.org/2000/svg" width="56" height="56"><path fill="#0763A0" d="M0 0h56v56H0z"/><path fill="#fff" d="M8 27h2v8H8zm5-2v2H5v-2z"/><path d="M19 22.5a.5.5 0 011 0v5.82a1.75 1.75 0 11-1 0V22.5z" fill="#38C4FF"/><path d="M14.25 30a5.25 5.25 0 014.25-5.16v2.07a3.25 3.25 0 001 6.34 3.25 3.25 0 001-6.34v-2.06a5.25 5.25 0 01-1 10.4A5.25 5.25 0 0114.25 30z" fill="#38C4FF"/><path d="M27 23.5l6 7.64V25h2v12l-6-7.77V35h-2V23.5zM38 25h2v10h-2zm6.83 5.09L41.14 25h2.47l2.45 3.38L48.51 25h2.47l-3.68 5.09L50.86 35h-2.47l-2.33-3.2-2.32 3.2h-2.47l3.56-4.91z" fill="#fff"/></svg>