<!-- by TradingView --><svg width="56" height="56" xmlns="http://www.w3.org/2000/svg"><path fill="#00386E" d="M0 0h56v56H0z"/><path d="M11.238 27c-.271.02-.62.13-.892.283-.89.478-1.241 1.297-1.319 2.157-.038.401.058.937.446 1.262.426.363 1.356.344 1.802.21.852-.268 1.474-1.01 1.726-1.947.116-.44.058-1.108-.252-1.452-.426-.497-1.143-.57-1.511-.513zm-1.242 2.937c-.039-.478.273-2.042 1.01-2.348.232-.115.561-.153.793.02.291.21.31.553.291.706-.02.497-.292 1.698-.931 2.119-.214.115-.62.172-.814.057-.233-.114-.33-.306-.35-.554zm5.328-4.223h-.33l-1.22.554-.058.306c.484 0 .484 0 .388.401l-.656 3.314c-.058.306-.078.325-.562.402l-.058.305h1.899l.058-.325c-.446-.057-.446-.076-.388-.42l.927-4.537zm13.874 1.758l.097-.42h-.33l-1.24.534-.077.306c.503 0 .503.23.387.63l-.387 1.794c-.078.287-.097.306-.581.363l-.067.325h1.907l.078-.325c-.465-.076-.465-.095-.387-.44l.31-1.391c.115-.574.251-.937.425-.975.117-.02.31-.057.64.153.485.306.95-.115.891-.593a.536.536 0 00-.29-.4c-.446-.173-1.027.114-1.376.439zm7.634-1.468h-.31l-.097.191s-.576.952-1.37 1.085l-.059.421h.46l-.504 1.835c-.097.477-.271.955-.077 1.184.213.325 1.008.306 1.278.21.291-.114.562-.248.814-.516l-.213-.21c-.213.268-.736.287-.814.153-.077-.115-.058-.248.058-.745l.427-1.911h.872l.077-.42h-.523c-.174 0-.349.019-.232-.402l.213-.875zm3.372 3.073l-.236 1.212c-.078.344-.078.325-.543.382l-.058.325h1.9l.057-.325c-.445-.076-.445-.095-.387-.44l.293-1.574c.078-.42.194-.898-.116-1.185-.465-.42-1.376-.306-1.995.115l.387-2.045h-.33l-1.22.535-.058.306c.445-.077.484-.153.445.23l-.29 1.585-.41 2.091c-.059.306-.059.325-.543.383l-.058.325h1.899l.058-.325c-.446-.077-.465-.077-.388-.44l.39-2.09c.582-.46 1.066-.345 1.221-.211.194.19.117.458-.018 1.146zm4.921.63l-.29-.152c-.446 1.146-1.668 1.223-1.997.573-.155-.287-.155-.841.059-1.395h2.48c.116-.84-.205-1.351-.63-1.561-.524-.268-1.377-.21-1.92.191-.852.65-1.132 1.6-1.132 2.134 0 1.873 2.713 2.045 3.43.21zm-.689-1.542h-1.298c.233-.4.504-.554.62-.592.175-.057.368-.057.504.038.116.096.232.23.174.554z" fill="#fff"/><path d="M7.868 26.21l-.926 3.678c-.155.65-.272.707-.874.745L6 30.996h2.457l.097-.363c-.563-.038-.68.076-.485-.764l.867-3.486c1.068.19 1.748-.191 2.312-.63.136-.096.136-.287 0-.306-.253-.02-.136.267-.214.286-1.127.268-2-.172-2.992-.42l-.369-.096c-.757-.19-2.058-.382-2.797.02-.582.305-.835.878-.874 1.222-.02.344.078.86.583 1.185.369.248.719.267 1.185.21a.859.859 0 00.582-.401c.078-.134.156-.383-.038-.574a.525.525 0 00-.408-.133c-.292.038-.37.267-.505.478-.156.133-.428.133-.583.057-.33-.153-.35-.478-.389-.688a.89.89 0 01.428-.783c.622-.325 2.176.133 3.011.4zm9.673-.496h-.33l-1.224.554-.058.287c.486 0 .486.02.389.42l-.659 3.314c-.058.306-.077.325-.563.382l-.058.325h1.903l.059-.325c-.447-.076-.447-.076-.37-.44l.911-4.517zM32.59 27a2.662 2.662 0 00-.874.306c-.893.478-1.257 1.274-1.335 2.134-.039.382.059.937.447 1.261.427.363 1.36.344 1.806.21.855-.267 1.49-1.006 1.743-1.923.116-.44.039-1.109-.252-1.472-.428-.496-1.166-.573-1.535-.516zm-1.218 2.918c-.039-.459.247-2 .985-2.325.233-.096.583-.134.816.038.291.21.291.554.291.688-.038.516-.305 1.694-.946 2.115-.194.115-.622.172-.816.057-.214-.114-.31-.306-.33-.573zm20.319-1.739l.31-.057-.155-1.032h-.252l-.136.115c-.874-.344-1.612-.21-2.098.248-.31.287-.448.802-.37 1.108.097.478.7.707 1.03.802l.155.039c.117.038.66.152.776.42.06.134.02.325-.077.459-.252.305-.757.267-1.01.21-.233-.019-.855-.42-1.01-.898l-.35.057.117 1.185h.29l.137-.134c.272.134.486.21.66.23.641.133 1.535.114 1.962-.459.233-.306.33-.746.194-1.166-.174-.535-.834-.764-1.184-.86l-.155-.057c-.175-.057-.563-.153-.622-.363-.038-.076-.038-.248.059-.382.155-.21.485-.248.66-.23.583.058.952.364 1.069.765zM22.828 25c-.797-.019-2.39-.006-2.992.471-.563.44-.64.994-.582 1.395.077.535.447.86.932 1.013.214.115 1.01.095 1.34-.114.233-.134.428-.306.389-.574-.02-.19-.078-.305-.272-.401a.522.522 0 00-.447 0c-.31.191-.252.344-.486.42-.233.096-.447.096-.66-.057-.214-.172-.233-.497-.214-.669.02-.305.253-.65.68-.783.544-.191 1.613-.191 2.04-.172.291.019.583.076.447.573l-.949 3.809c-.155.63-.37.688-.953.745l-.097.344h3.07c.952 0 1.826.02 2.448-.688.35-.382.485-.917.408-1.338-.078-.477-.43-1.172-.878-1.324.835-.134 1.243-.516 1.38-1.032.077-.268 0-.726-.176-.975-.446-.592-1.224-.643-1.65-.643h-2.778zm.217 5.407l.596-2.362c.563 0 1.34-.019 1.67.21.292.192.395.567.356.854-.078.477-.408 1.299-1.515 1.299h-1.107zm1.22-4.878h.33c.894 0 1.224-.039 1.496.229.214.21.194.497.117.745-.117.42-.466.937-1.399.937h-1.03l.486-1.912zm23.074 1.943l.116-.42h-.33l-1.243.534-.078.306c.505 0 .505.21.389.63l-.39 1.787c-.077.305-.096.305-.582.382l-.077.305h1.923l.058-.305c-.447-.077-.447-.096-.369-.44l.291-1.403c.117-.592.273-.936.447-.975.116-.038.31-.076.641.153.486.306.952-.133.894-.63a.57.57 0 00-.292-.363c-.446-.192-1.03.095-1.398.439z" fill="#fff"/></svg>