<!-- by TradingView --><svg width="56" height="56" xmlns="http://www.w3.org/2000/svg"><path fill="#737475" d="M0 0h56v56H0z"/><path d="M4 27v-1h6v1H8v5H7v-5H4zM11 32v-6h2.5c.101 0 1.449-.051 2 .5.834.834.5 3-1 3L16 32h-1.5L13 29h.5c1.389 0 1.422-2 0-2H12v5h-1zM17 26v6h1v-6h-1z" fill="#BDC471"/><path d="M21 26v6h1v-1.96h2c3 0 3-4.04 0-4.04h-3z" fill="#fff"/><path d="M22 29v-2h2c1.5 0 1.5 2 0 2h-2z" fill="#737475"/><path d="M32.95 28.9a3.1 3.1 0 11-6.2 0 3.1 3.1 0 016.2 0z" fill="#fff"/><path d="M31.832 28.916a1.95 1.95 0 11-3.9 0 1.95 1.95 0 013.9 0z" fill="#737475"/><path d="M34 32v-6h1v6h-1zM36 26v6h1v-4l5 4v-6h-1v4l-5-4zM43 27v-1h9v1h-6v5h-1v-5h-2z" fill="#fff"/><path d="M47 28h3v1h-2v2h4v1h-5v-4z" fill="#fff"/></svg>