<!-- by TradingView --><svg width="56" height="56" xmlns="http://www.w3.org/2000/svg"><path fill="#571F10" d="M0 0h56v56H0z"/><path d="M13.114 24.163c.444 0 .651-.046.806-.08.145-.045.228-.08.424-.08.404 0 1.278.581 1.278 1.81 0 .569-.268.944-.796.944-.9 0-.89-1.343-1.417-1.343-.403 0-.362.615-.362.706v3.492c0 1.353.952.705.952 1.501 0 .352-.197.887-2.13.887-.528 0-2.462-.01-2.462-.887 0-.602.64-.364.848-.796.103-.239.144-.922.155-1.206l.083-2.514c.041-1.194-.176-1.183-.32-1.183-.466 0-.694 1.343-1.532 1.343-.403 0-.641-.41-.641-.82 0-.966.708-1.934 1.297-1.934.073 0 .187.035.383.08.197.034.476.08.89.08h2.544zm2.27 5.05c0-2.035 1.625-3.213 3.331-3.213 1.81 0 2.844 1.587 2.844 2.997 0 1.866-1.82 3.004-3.34 3.004-1.53 0-2.834-.99-2.834-2.787z" fill="#fff"/><path d="M18.27 27.371c-.34 0-.527.353-.506.683.04.717.227 2.468.94 2.514.394.022.477-.342.477-.706 0-.512-.207-2.49-.91-2.49z" fill="#571F10"/><path d="M21.93 29.214c0-2.036 1.623-3.214 3.33-3.214 1.81 0 2.844 1.587 2.844 2.997 0 1.866-1.82 3.004-3.34 3.004-1.53 0-2.834-.99-2.834-2.787z" fill="#fff"/><path d="M24.816 27.371c-.341 0-.527.353-.507.683.041.717.228 2.468.941 2.514.393.022.476-.342.476-.706 0-.512-.207-2.49-.91-2.49z" fill="#571F10"/><path d="M31.464 29.385c0 .762.293.944.574.944.325 0 .513-.262.701-.262.209 0 .356.319.356.523 0 .75-1.192 1.411-2.248 1.411-.533 0-1.872-.25-1.872-2.06V27.6c0-.41.006-.599-.464-.599-.555 0-.508 0-.508-.231 0-.16-.03-.285.095-.376l2.383-1.273c.24-.16.23-.12.544-.12.418 0 .439-.05.439.472 0 .956-.084.528.408.528h.732c.45 0 .396.063.396.575 0 .372.002.425-.407.425h-.721c-.366 0-.408.28-.408.69v1.695zM35.56 26c.408 0 .899.177 1.056.177.199 0 .366-.177.564-.177.481 0 .963 1.076.963 1.542 0 .307-.241.535-.513.535-.596 0-.931-.899-1.391-.899a.393.393 0 00-.376.387c0 .727 2.3.864 2.3 2.627 0 1.07-.952 1.809-2.039 1.809-.428 0-1.192-.045-1.318-.045-.146 0-.272.045-.408.045-.208 0-.313-.034-.46-.216-.261-.319-.532-1.07-.532-1.502 0-.296.094-.535.397-.535.46 0 .879 1.126 1.464 1.126.209 0 .407-.114.407-.364 0-.671-2.049-.75-2.049-2.628 0-1.136.858-1.882 1.935-1.882zm6.032 3.737c0 1.342.617.853.617 1.456 0 .774-1.329.807-1.799.807-1.798 0-1.87-.477-1.87-.75 0-.41.428-.432.553-.785.136-.398.157-2.047.042-2.468-.094-.398-.627-.273-.627-.785 0-.808 2.655-1.212 2.76-1.212.313 0 .324.267.324.506v3.231zm-2.066-3.897c-.44 0-.91-.216-.91-.773 0-.751 1.38-1.067 1.913-1.067.419 0 1.015.157 1.015.726 0 .887-1.422 1.114-2.018 1.114zm5.558 3.386c-.116 0-.283-.035-.283.159 0 .568.68 1.046 1.171 1.046 1.03 0 1.4-.674 1.62-.674.22 0 .408.352.408.569 0 .875-1.704 1.676-2.645 1.676-1.882 0-2.854-1.48-2.854-2.946 0-1.752 1.37-3.056 2.937-3.056C47.216 26 48 27.52 48 28.373c0 .751-.314.853-.648.853h-2.268z" fill="#fff"/><path d="M46.015 27.793c0-.41-.228-.729-.61-.729-.342 0-.621.387-.621.751 0 .41.352.319.62.319.28 0 .61.067.61-.341z" fill="#571F10"/></svg>