<!-- by TradingView --><svg width="56" height="56" xmlns="http://www.w3.org/2000/svg"><path fill="#F6F8FD" d="M0 0h56v56H0z"/><path d="M56 0H0v24h5.135C7.065 13.25 16.466 5.093 27.772 5.093c11.306 0 20.706 8.157 22.637 18.907H56V0z" fill="#1C4379"/><path d="M5.103 32H0v24h56V32h-5.558c-1.856 10.842-11.3 19.093-22.67 19.093-11.37 0-20.814-8.251-22.67-19.093z" fill="#020910"/><path d="M55.717 24H.284C2.224 10.43 13.894 0 28 0c14.106 0 25.776 10.43 27.717 24z" fill="#1C4379"/><path d="M56 32H0c1.96 13.57 13.75 24 28 24s26.04-10.43 28-24z" fill="#020910"/><circle cx="28" cy="28" r="15.889" fill="#F6F8FD"/><circle cx="28" cy="28" r="13.816" fill="#030A11"/><circle cx="28" cy="28" r="11.744" fill="#FDFCFC"/><path d="M27.416 26.98c0 .512-.096 1.024.16 1.536.096.224 0 .48-.032.704-.288 1.536-.448 3.071-.128 4.607.096.512-.096 1.024-.224 1.504-.064.224-.288.192-.448.224-.16.032-.16-.16-.192-.288-.096-.48.032-.928-.032-1.408a17.993 17.993 0 010-4.543c.064-.512.16-1.056-.128-1.568-.064-.128-.096-.352.096-.48.096-.064.032-.128 0-.192-.032-.096-.096-.224-.128-.32-.064-.128.128-.416-.128-.416-.288 0-.576.128-.704.384-.064.128-.032.288-.256.256-.224-.032-.384-.128-.448-.352-.064-.384.032-.704.32-.96.128-.128.288-.256.448-.288.544-.064.832-.448 1.12-.832.32-.416.416-.416.896-.16.064.032.096.064.16.032 1.184-.576 2.496-.832 3.744-1.152 1.12-.288 2.24-.288 3.392-.032.191.032.383.096.415.352.032.096.096.192.16.288.448.672.416 1.216-.16 1.792-.096.064-.192.192-.192.288-.032.288-.128.448-.448.48-.096 0-.16.096-.192.192-.032.064-.064.16-.096.16-.575.064-.735.704-1.247.864-.32.096-.672.288-.832.64-.032.096-.128.096-.192.096-.736.096-1.248.608-1.92.832-.192.064-.096.16-.032.256.16.256.416.416.672.576.288.224.576.448.704.8.064.128.128.128.224.128.32-.032.576.096.768.351.256.288.576.384.96.384.415-.032.831 0 1.215 0 .672 0 1.248-.288 1.824-.64.384-.223.832-.351 1.184-.671.128-.096.256-.16.256-.384 0-.128.128-.192.256-.192.192 0 .128.16.128.256.032.48-.224.832-.544 1.151-.192.192-.384.352-.544.576-.16.193-.448.32-.736.32-.224-.032-.384.032-.416.256-.032.192-.16.224-.32.256-.864.224-1.727.192-2.591.256-.256.032-.608-.224-.928-.384-.064-.032-.096-.096-.192-.128-1.184-.448-2.112-1.28-3.008-2.111-.256-.224-.512-.32-.864-.192-.224.096-.48.16-.64-.064-.16-.224-.096-.48.032-.704.192-.416.64-.608.992-.896.064-.064.192-.032.288.064.064.096.096.288.224.224.288-.128.64.032.864-.256.096-.096.16-.224.32-.256.704-.128 1.28-.512 1.856-.928.224-.16.512-.32.768-.416.768-.288 1.247-.896 1.823-1.44.288-.256.128-.544-.16-.8-.8-.64-1.727-.384-2.591-.32-1.216.128-2.368.576-3.488.992-.192.064-.416.16-.576.288-.32.192-.576.384-.48.832.032.16-.032.352-.032.576z" fill="#C92631"/><path d="M22.712 34.34c.288-.385-.064-.8-.064-1.217 0-.352-.064-.704.192-.992.096-.096.064-.256.032-.384-.288-1.152-.096-2.303.128-3.424.096-.543.032-1.055-.032-1.567s-.128-1.024-.064-1.568c0-.096.064-.192-.064-.256-.096-.064-.16.032-.224.064-.48.224-.928.448-1.408.672a.753.753 0 01-.255.064c-.544-.096-.96.16-1.409.416-.255.128-.671-.032-.767-.32-.096-.288-.032-.544.192-.768.128-.096.288-.192.416-.192.767.064 1.44-.352 2.175-.448.672-.064 1.248-.384 1.472-1.088.096-.288.32-.32.576-.192.672.32 1.248.224 1.824-.288.096-.096.192-.064.288-.064a1.19 1.19 0 00.736-.16c.864-.448 1.824-.608 2.784-.832.288-.064.544-.32.864-.256.128.032.288-.064.32.128.032.16 0 .288-.16.352s-.288.16-.448.224c-.8.288-1.632.48-2.368.896-.48.288-.992.352-1.472.576-.512.224-.96.512-1.536.608-.192.032-.256.128-.288.288-.032.448.096.96-.224 1.376-.032.032 0 .064 0 .128.288 1.408-.128 2.784-.064 4.191.032.672-.192 1.376-.192 2.048-.032.576-.128 1.152-.128 1.728 0 .256 0 .512-.128.736-.064.16-.16.32-.352.288-.192-.032-.288-.16-.32-.352 0-.096 0-.224-.032-.416z" fill="#C92631"/></svg>