<!-- by TradingView --><svg width="56" height="56" xmlns="http://www.w3.org/2000/svg"><path fill="#F57A14" d="M0 0h56v56H0z"/><path d="M21.459 18.263a.521.521 0 00-.763-.094.604.604 0 00-.09.81c.188.25.529.292.763.096.234-.2.276-.561.09-.812zm5.452-2.176c-.044-.316-.32-.533-.617-.486-.295.046-.5.337-.457.653.043.317.319.533.615.487.296-.047.502-.337.459-.654zm2.638 23.172c-.295.046-.5.34-.457.655.043.316.32.533.614.486.297-.046.503-.338.46-.654a.547.547 0 00-.617-.487zm5.082-2.332a.603.603 0 00-.088.81.52.52 0 00.76.094.602.602 0 00.091-.81.522.522 0 00-.763-.094zm-16.53-1.084c.223.642.888.962 1.483.726.601-.236.908-.939.684-1.58-.22-.636-.886-.962-1.484-.725-.598.236-.905.945-.684 1.579zm2.19 2.079c.173.592.758.915 1.31.73.554-.18.864-.804.69-1.394-.171-.588-.761-.916-1.313-.733-.552.183-.86.808-.687 1.397zm2.747 1.41c.115.481.572.768 1.022.646.45-.123.723-.606.607-1.087-.114-.48-.573-.768-1.023-.646-.449.123-.72.608-.606 1.087zm2.977.691c.075.402.441.66.817.58.374-.08.62-.469.543-.87-.074-.399-.44-.658-.817-.58-.375.08-.619.472-.543.87zm-8.62-9.188c.572-.302.805-1.04.521-1.648-.285-.613-.975-.858-1.55-.556-.568.3-.807 1.035-.522 1.647.284.61.979.857 1.55.557zm-.04-3.252c.504-.3.683-.982.4-1.518-.284-.539-.923-.728-1.427-.425-.506.3-.684.979-.4 1.517.283.536.92.728 1.426.426zm.654-3.243c.393-.263.51-.817.26-1.236a.81.81 0 00-1.16-.276.928.928 0 00-.26 1.234c.249.418.768.542 1.16.278zm1.38-2.88a.769.769 0 00.165-1.028.665.665 0 00-.967-.176.767.767 0 00-.166 1.03c.222.332.655.41.967.174zm-1.207 12.504c.637-.293.93-1.08.655-1.76-.276-.68-1.014-.99-1.65-.698-.637.292-.934 1.076-.658 1.758.275.68 1.017.992 1.653.7zm14.068 4.521a.55.55 0 00-.264.705c.112.276.408.4.663.282a.552.552 0 00.266-.707.496.496 0 00-.665-.28zm6.356-13.319c-.57.3-.805 1.038-.522 1.646.285.614.977.858 1.55.556.57-.299.806-1.034.521-1.646-.283-.607-.978-.857-1.55-.556zm.04 3.25c-.503.301-.685.982-.401 1.52.286.539.924.726 1.427.424.505-.301.684-.978.4-1.516-.284-.538-.92-.73-1.426-.427zm-.653 3.243c-.392.265-.51.817-.262 1.234.25.419.769.542 1.16.278.392-.264.51-.815.261-1.235-.249-.416-.769-.54-1.16-.277zm-1.38 2.88a.769.769 0 00-.166 1.03.668.668 0 00.97.176.768.768 0 00.162-1.03.667.667 0 00-.966-.175zM24.017 16.81a.493.493 0 00-.665-.28.55.55 0 00-.264.707c.11.272.408.396.664.28a.552.552 0 00.265-.706zM37.9 20.157c-.222-.641-.888-.962-1.484-.726-.6.235-.907.94-.684 1.579.223.638.887.963 1.484.728.599-.235.906-.944.684-1.581zm-2.19-2.078c-.173-.59-.76-.916-1.312-.731-.551.182-.863.806-.689 1.396.172.588.762.916 1.313.732.552-.183.86-.81.688-1.397zm-2.746-1.41c-.116-.481-.575-.768-1.022-.645-.45.122-.723.606-.607 1.088.115.478.574.769 1.023.645.448-.122.72-.61.606-1.088zm-2.979-.69c-.075-.403-.44-.659-.815-.579-.377.08-.621.466-.544.869.074.399.44.66.816.578.376-.08.619-.47.543-.867zm8.83 8.517c-.638.293-1.378-.021-1.654-.7-.275-.682.02-1.465.659-1.759.636-.291 1.375.018 1.651.7.276.677-.02 1.466-.656 1.76zM24.948 13.017c-.1-.396-.48-.627-.852-.521-.37.106-.591.508-.491.903.1.397.482.629.85.524.372-.106.592-.51.493-.906zm7.449.384c.1-.396-.123-.8-.494-.905-.369-.105-.75.125-.85.522-.099.395.122.8.492.905.37.105.753-.127.852-.522zm-7.942 28.675c-.368-.104-.75.13-.85.524-.099.395.122.798.49.903.373.106.754-.126.853-.522.1-.393-.121-.799-.493-.905zm7.09 0c-.37.106-.59.512-.492.906.1.395.482.627.85.521.372-.105.593-.508.493-.904-.098-.394-.481-.627-.852-.523zM12.618 31.881c-.043.874.587 1.609 1.4 1.654.819.045 1.514-.615 1.558-1.49.042-.867-.585-1.609-1.4-1.654-.816-.045-1.515.622-1.558 1.49zm1.585 3.626c-.077.788.456 1.486 1.195 1.57.736.081 1.397-.483 1.475-1.272.078-.784-.459-1.488-1.195-1.57-.738-.082-1.397.488-1.475 1.272zm2.56 3.141c-.094.628.307 1.212.893 1.311.588.099 1.14-.324 1.233-.952.093-.625-.308-1.211-.896-1.31-.586-.099-1.138.327-1.23.951zm3.171 2.419c-.103.513.205 1.015.684 1.123.48.109.952-.216 1.055-.73.101-.509-.205-1.013-.685-1.121-.48-.109-.953.218-1.054.728zm-5.76-15.459c.817-.045 1.443-.787 1.402-1.656-.044-.874-.74-1.535-1.559-1.489-.812.045-1.443.78-1.399 1.654.043.869.742 1.536 1.557 1.491zm1.504-3.844c.736-.083 1.273-.786 1.195-1.57-.078-.788-.74-1.355-1.475-1.272-.74.082-1.273.783-1.195 1.57.077.784.736 1.354 1.475 1.272zm2.315-3.46c.588-.099.989-.687.896-1.313-.093-.627-.645-1.05-1.233-.951-.587.099-.988.682-.894 1.31.092.625.644 1.054 1.231.954zm2.995-2.644c.48-.109.786-.61.684-1.122-.102-.513-.573-.835-1.054-.726-.48.108-.787.607-.685 1.12.102.51.575.837 1.055.728zM13.61 29.714c.887 0 1.608-.768 1.608-1.716 0-.95-.72-1.712-1.608-1.712-.887 0-1.611.761-1.611 1.714 0 .946.724 1.714 1.611 1.714zM28 42.624c-.356 0-.646.308-.646.689 0 .381.29.687.646.687.358 0 .648-.306.648-.688 0-.38-.29-.688-.648-.688zm13.823-12.233c-.813.045-1.44.787-1.398 1.654.043.875.74 1.535 1.556 1.49.814-.045 1.443-.78 1.4-1.654-.043-.868-.74-1.535-1.558-1.49zm-1.502 3.845c-.735.081-1.273.785-1.196 1.57.079.788.741 1.352 1.476 1.27.738-.083 1.272-.78 1.195-1.57-.078-.784-.738-1.353-1.475-1.27zm-2.313 3.46c-.588.1-.99.686-.896 1.311.093.628.645 1.05 1.232.952.586-.1.988-.683.895-1.311-.094-.625-.646-1.05-1.231-.952zm-2.996 2.643c-.48.108-.787.612-.685 1.121.102.514.574.839 1.055.73.479-.108.786-.61.684-1.124-.102-.509-.574-.836-1.054-.727zm-6.364-27.652c0-.382-.29-.687-.648-.687-.356 0-.646.305-.646.687 0 .381.29.688.646.688.358 0 .648-.307.648-.688zm14.733 11.43c.044-.873-.586-1.609-1.4-1.654-.816-.046-1.513.615-1.556 1.489-.043.87.586 1.61 1.398 1.656.817.045 1.515-.622 1.558-1.49zm-1.585-3.625c.077-.787-.457-1.488-1.195-1.57-.734-.082-1.397.484-1.476 1.272-.077.784.461 1.488 1.196 1.57.738.082 1.397-.488 1.475-1.272zm-2.557-3.14c.093-.63-.31-1.212-.894-1.312-.588-.098-1.14.324-1.233.953-.093.625.308 1.213.896 1.312.585.099 1.138-.329 1.23-.954zm-3.173-2.42c.103-.513-.205-1.012-.684-1.12-.482-.109-.953.213-1.055.726-.102.512.204 1.013.685 1.122.48.109.952-.217 1.054-.728zm6.322 14.782c-.889 0-1.609-.768-1.609-1.716 0-.95.72-1.712 1.611-1.712.888 0 1.61.761 1.61 1.714 0 .946-.722 1.714-1.612 1.714zm-10.745 2.222c.269-.148.368-.512.222-.796-.148-.286-.482-.396-.75-.239a.61.61 0 00-.223.8c.142.286.48.393.75.235zm.793-1.332a.545.545 0 00.206-.712.48.48 0 00-.67-.212c-.24.135-.328.46-.2.714a.48.48 0 00.664.21zm.395-1.545c.21-.122.285-.4.17-.622a.414.414 0 00-.58-.185.481.481 0 00-.177.624c.11.22.38.3.587.183zm-.069-1.605a.42.42 0 00.156-.538.358.358 0 00-.5-.159.403.403 0 00-.151.535.36.36 0 00.495.162zm-3.433 5.144a.54.54 0 00-.753-.239c-.27.152-.364.51-.218.8.142.284.476.397.746.236.273-.151.369-.511.225-.797zm-1.511.065a.485.485 0 00-.67-.212.544.544 0 00-.2.71c.131.257.43.351.669.214.243-.133.331-.455.2-.712zm-1.453-.414c-.116-.22-.376-.306-.583-.183a.467.467 0 00-.173.62.414.414 0 00.58.189.482.482 0 00.176-.626zM25.11 31.4a.36.36 0 00-.499-.158.405.405 0 00-.15.53.35.35 0 00.499.157c.178-.098.246-.337.15-.529zm5.662.648c-.166-.327-.546-.453-.854-.272a.684.684 0 00-.252.904.616.616 0 00.853.271.694.694 0 00.253-.903zm1.065-6.252c.08.159.267.216.413.131a.332.332 0 00.125-.44.303.303 0 00-.418-.14.35.35 0 00-.12.449zm-5.16-2.403a.54.54 0 00.753.243.616.616 0 00.224-.802.538.538 0 00-.753-.238c-.27.154-.364.513-.223.797zm1.514-.063a.471.471 0 00.663.21.54.54 0 00.202-.71.473.473 0 00-.666-.21c-.241.136-.325.453-.199.71zm1.45.413c.112.222.38.304.582.183.214-.122.29-.399.176-.621a.418.418 0 00-.58-.189.482.482 0 00-.178.627zm1.253.849c.097.19.32.26.505.163a.415.415 0 00.15-.537c-.1-.191-.322-.265-.5-.16a.407.407 0 00-.155.534zm-7.139 5.473c-.151.084-.205.283-.124.447a.304.304 0 00.42.133.344.344 0 00.121-.448c-.082-.156-.269-.218-.417-.132zm.612-6.013a.608.608 0 00-.226.802c.146.284.478.392.747.238a.605.605 0 00.229-.798c-.143-.287-.482-.4-.75-.242zm-.799 1.337a.546.546 0 00-.203.71c.132.253.43.35.668.212a.542.542 0 00.203-.711.481.481 0 00-.668-.21zm-.392 1.547a.473.473 0 00-.172.618.42.42 0 00.585.187.478.478 0 00.175-.622.417.417 0 00-.588-.183zm.063 1.607a.411.411 0 00-.148.534c.099.194.323.26.5.155a.398.398 0 00.15-.53.361.361 0 00-.502-.159zm3.102-5.227c.163.322.053.728-.252.904-.309.176-.687.05-.853-.273a.687.687 0 01.252-.904.61.61 0 01.853.273zm1.647 12.204c.374.12.766-.108.872-.503.107-.398-.101-.814-.475-.93-.376-.118-.766.11-.876.509-.109.392.106.807.479.924zm1.986-.471c.335.104.68-.097.778-.452.097-.35-.09-.72-.424-.824-.332-.106-.682.098-.778.45-.097.354.095.723.424.826zm1.796-1.157c.26.082.533-.078.609-.352.08-.281-.071-.573-.331-.653-.262-.084-.536.078-.615.355a.535.535 0 00.337.65zm1.398-1.642a.398.398 0 00.499-.287.434.434 0 00-.27-.53.4.4 0 00-.496.29c-.061.225.06.463.267.527zm-8.1 1.58c.108-.394-.104-.814-.48-.93-.373-.116-.76.11-.87.51-.109.394.1.81.476.927.374.115.764-.112.874-.507zm-1.527-1.485c.096-.352-.096-.725-.428-.83-.332-.103-.675.101-.775.454-.098.352.09.72.423.826.335.105.68-.097.78-.45zm-1.088-1.912c.077-.277-.074-.568-.332-.645a.48.48 0 00-.611.352c-.074.277.068.57.332.651.26.084.534-.078.611-.358zm-.462-2.12a.43.43 0 00-.269-.528c-.21-.066-.432.066-.497.29a.426.426 0 00.272.523c.21.068.43-.058.494-.285zm4.986 6.461c.125-.458-.117-.937-.55-1.07-.429-.133-.878.126-1.002.582-.124.46.116.935.549 1.07.428.132.88-.13 1.003-.582zm6.875-4.944c-.043.167.045.345.2.393.161.05.325-.046.37-.216a.318.318 0 00-.2-.393.298.298 0 00-.37.216zm-2.913-7.657c-.111.397.104.813.477.93.374.117.764-.115.873-.51.112-.396-.101-.813-.474-.929-.376-.117-.765.114-.876.51zm1.528 1.483c-.098.358.093.724.423.828.332.104.678-.1.777-.453.1-.35-.09-.72-.424-.823-.33-.104-.675.099-.776.448zm1.086 1.91a.53.53 0 00.334.653c.263.081.535-.078.612-.356.077-.278-.072-.569-.333-.649a.488.488 0 00-.613.351zm.461 2.122a.426.426 0 00.272.526c.211.067.432-.063.494-.289a.43.43 0 00-.27-.525.397.397 0 00-.496.288zM21.948 25.78a.291.291 0 00-.366.213c-.047.169.04.347.2.396.159.05.323-.049.37-.217a.319.319 0 00-.204-.392zm6.071-5.3c-.377-.12-.762.11-.874.506-.11.397.1.811.475.93.373.117.763-.112.874-.506.112-.397-.102-.815-.475-.93zm-1.988.473c-.334-.102-.68.1-.778.45-.097.353.094.722.426.826.33.104.68-.095.776-.45.094-.351-.096-.722-.424-.826zm-1.796 1.156c-.263-.082-.533.08-.61.356a.528.528 0 00.334.65c.26.082.534-.079.612-.355a.533.533 0 00-.336-.65zm-1.4 1.64a.402.402 0 00-.497.29.426.426 0 00.271.524c.211.065.431-.062.494-.286a.43.43 0 00-.268-.529zm7.743-2.03c-.124.453-.572.713-1.001.578-.434-.136-.672-.61-.547-1.069.123-.454.572-.717 1.003-.584.43.135.676.615.545 1.075zm-6.834 15.183a.863.863 0 001.274-.04c.34-.387.327-.994-.038-1.358a.864.864 0 00-1.276.043 1 1 0 00.04 1.355zm2.626.712a.765.765 0 001.134-.032.891.891 0 00-.032-1.207.772.772 0 00-1.137.035.89.89 0 00.035 1.204zm2.784-.213c.254.256.654.239.893-.03a.7.7 0 00-.026-.948.607.607 0 00-.895.03.704.704 0 00.027.948zm2.592-1.048a.49.49 0 00.725-.024.566.566 0 00-.023-.768.489.489 0 00-.722.022.57.57 0 00.02.77zm-10.565-3.335a1.006 1.006 0 00-.038-1.358.861.861 0 00-1.274.041c-.342.383-.33.99.035 1.358a.87.87 0 001.277-.041zm-.97-2.746a.896.896 0 00-.034-1.21.771.771 0 00-1.136.037.897.897 0 00.035 1.208.768.768 0 001.134-.035zm-.203-2.96a.707.707 0 00-.027-.952.603.603 0 00-.894.03.704.704 0 00.026.948c.253.256.655.24.895-.027zm.658-2.814a.571.571 0 00-.023-.77.49.49 0 00-.722.021.565.565 0 00.023.77.492.492 0 00.722-.021zm2.247 10.862a1.157 1.157 0 00-.043-1.563.995.995 0 00-1.468.047 1.157 1.157 0 00.045 1.562.992.992 0 001.466-.046zm11.016-1.419a.426.426 0 00.017.575.364.364 0 00.538-.022.416.416 0 00-.017-.57.362.362 0 00-.538.017zm.892-10.959c-.342.386-.326.994.04 1.358a.864.864 0 001.274-.041 1 1 0 00-.04-1.359.865.865 0 00-1.274.042zm.971 2.745a.89.89 0 00.035 1.206.766.766 0 001.134-.036.89.89 0 00-.034-1.206.769.769 0 00-1.135.036zm.202 2.962a.705.705 0 00.029.948.603.603 0 00.893-.028.699.699 0 00-.028-.95.609.609 0 00-.894.03zm-.656 2.812a.572.572 0 00.02.772.492.492 0 00.727-.026.573.573 0 00-.022-.77.493.493 0 00-.725.024zm-13.28-10.017a.367.367 0 00-.539.017.423.423 0 00.014.574.363.363 0 00.539-.016.425.425 0 00-.014-.575zm10.205-2.387a.863.863 0 00-1.277.039c-.341.386-.326.991.036 1.358a.867.867 0 001.277-.04c.341-.385.326-.994-.036-1.357zm-2.632-.717a.772.772 0 00-1.134.035.894.894 0 00.036 1.208.767.767 0 001.133-.035.896.896 0 00-.035-1.208zm-2.781.216a.607.607 0 00-.893.03.704.704 0 00.027.952c.252.252.654.239.893-.031a.706.706 0 00-.027-.95zm-2.594 1.05a.493.493 0 00-.724.022.57.57 0 00.02.77c.208.205.531.195.725-.024a.57.57 0 00-.02-.768zm10.344 2.51a.995.995 0 01-1.467.043 1.151 1.151 0 01-.041-1.56.993.993 0 011.466-.049c.416.42.436 1.118.042 1.566z" fill="#fff"/></svg>