<!-- by TradingView --><svg width="56" height="56" xmlns="http://www.w3.org/2000/svg"><path fill="#00AEEF" d="M0 0h56v56H0z"/><path d="M33.907 27.255a1.843 1.843 0 11-3.686 0 1.843 1.843 0 013.686 0zm-1.945-4.096a1.536 1.536 0 11-3.072 0 1.536 1.536 0 013.072 0zm-4.301 0a1.536 1.536 0 11-3.072 0 1.536 1.536 0 013.072 0zm-.001-3.636a1.382 1.382 0 11-2.764 0 1.382 1.382 0 012.765 0zm3.892 0a1.382 1.382 0 11-2.764 0 1.382 1.382 0 012.764 0zm-.614-3.123a1.024 1.024 0 11-2.048 0 1.024 1.024 0 012.048 0zm-.41-2.406a.768.768 0 11-1.536 0 .768.768 0 011.536 0zm-2.969 0a.768.768 0 11-1.536 0 .768.768 0 011.536 0zm.205-2.202a.614.614 0 11-1.23 0 .614.614 0 011.23 0zm2.15 0a.614.614 0 11-1.229 0 .614.614 0 011.229 0zm-1.211-1.312a.46.46 0 11-.921 0 .46.46 0 01.921 0zm-1.144 5.92a1.024 1.024 0 11-2.048 0 1.024 1.024 0 012.048 0zm-3.789 7.117a1.178 1.178 0 11-2.355 0 1.178 1.178 0 012.355 0zm11.366 0a1.178 1.178 0 11-2.355 0 1.178 1.178 0 012.355 0zm-.512-3.328a1.024 1.024 0 11-2.048 0 1.024 1.024 0 012.048 0zM33.6 17.066a.768.768 0 11-1.536 0 .768.768 0 011.536 0zm-1.024-2.612a.614.614 0 11-1.229 0 .614.614 0 011.23 0zm-1.177-1.789a.46.46 0 11-.922 0 .46.46 0 01.922 0zm-5.377-.003a.46.46 0 11-.921 0 .46.46 0 01.921 0zm-.819 1.792a.614.614 0 11-1.228 0 .614.614 0 011.228 0zm-.716 2.612a.768.768 0 11-1.536 0 .768.768 0 011.536 0zm-.512 3.123a1.024 1.024 0 11-2.049 0 1.024 1.024 0 012.049 0zm7.929 15.648a1.536 1.536 0 111.53-2.665 1.536 1.536 0 01-1.53 2.665zm2.14-3.731a1.536 1.536 0 111.529-2.665 1.536 1.536 0 01-1.529 2.665zm3.153 1.809a1.382 1.382 0 111.376-2.398 1.382 1.382 0 01-1.376 2.398zm-1.936 3.375a1.383 1.383 0 111.376-2.398 1.383 1.383 0 01-1.376 2.398zm3.015 1.022a1.024 1.024 0 111.019-1.777 1.024 1.024 0 01-1.02 1.777zm2.291.842a.768.768 0 11.765-1.333.768.768 0 01-.765 1.333zm1.478-2.576a.768.768 0 11.764-1.333.768.768 0 01-.764 1.333zm1.808 1.273a.614.614 0 11.611-1.066.614.614 0 01-.611 1.066zm-1.071 1.865a.614.614 0 11.612-1.066.614.614 0 01-.611 1.066zm1.759-.416a.46.46 0 11.459-.8.46.46 0 01-.459.8zm-4.584-3.92a1.024 1.024 0 111.02-1.776 1.024 1.024 0 01-1.02 1.776zm-4.287-6.828a1.178 1.178 0 111.172-2.043 1.178 1.178 0 01-1.172 2.043zm-5.656 9.86a1.178 1.178 0 111.172-2.043 1.178 1.178 0 01-1.172 2.043zm3.141 1.212a1.024 1.024 0 111.02-1.777 1.024 1.024 0 01-1.02 1.777zm3.219.666a.768.768 0 11.764-1.333.768.768 0 01-.764 1.333zm2.774.41a.615.615 0 11.612-1.065.615.615 0 01-.612 1.066zm2.139-.13a.46.46 0 11.458-.8.46.46 0 01-.458.8zm2.677-4.662a.46.46 0 11.458-.8.46.46 0 01-.458.8zm-1.147-1.602a.614.614 0 11.611-1.066.614.614 0 01-.61 1.066zm-1.908-1.922a.768.768 0 11.764-1.332.768.768 0 01-.764 1.332zm-2.455-1.998a1.024 1.024 0 111.02-1.776 1.024 1.024 0 01-1.02 1.776zm-13.792 5.451a1.536 1.536 0 10-1.529-2.665 1.536 1.536 0 001.53 2.665zm-2.14-3.731a1.536 1.536 0 10-1.529-2.665 1.536 1.536 0 001.529 2.665zm-3.153 1.809a1.382 1.382 0 10-1.376-2.398 1.382 1.382 0 001.376 2.398zm1.936 3.375a1.383 1.383 0 10-1.376-2.398 1.383 1.383 0 001.376 2.398zm-3.015 1.022a1.024 1.024 0 10-1.018-1.777 1.024 1.024 0 001.019 1.777zm-2.29.842a.768.768 0 10-.765-1.333.768.768 0 00.764 1.333zm-1.478-2.576a.768.768 0 10-.765-1.333.768.768 0 00.765 1.333zm-1.808 1.273a.615.615 0 10-.612-1.066.615.615 0 00.612 1.066zm1.07 1.865a.614.614 0 10-.612-1.066.614.614 0 00.612 1.066zm-1.759-.362a.46.46 0 10-.459-.8.46.46 0 00.46.8zm4.584-3.974a1.024 1.024 0 10-1.019-1.776 1.024 1.024 0 001.019 1.776zm4.288-6.828a1.178 1.178 0 10-1.172-2.042 1.178 1.178 0 001.172 2.042zm5.656 9.86a1.178 1.178 0 10-1.173-2.043 1.178 1.178 0 001.173 2.043zm-3.142 1.212a1.024 1.024 0 10-1.019-1.777 1.024 1.024 0 001.02 1.777zm-3.219.666a.768.768 0 10-.764-1.333.768.768 0 00.764 1.333zm-2.774.41a.614.614 0 10-.611-1.065.614.614 0 00.611 1.066zm-2.138-.13a.46.46 0 10-.459-.8.46.46 0 00.459.8zm-2.678-4.662a.46.46 0 10-.458-.8.46.46 0 00.458.8zm1.148-1.602a.614.614 0 10-.612-1.066.614.614 0 00.611 1.066zm1.907-1.922a.768.768 0 10-.764-1.332.768.768 0 00.764 1.332zm2.455-1.998a1.024 1.024 0 10-1.019-1.776 1.024 1.024 0 001.02 1.776zm8.148-3.13a1.843 1.843 0 11-3.686 0 1.843 1.843 0 013.687 0zm3.807 6.661a1.843 1.843 0 11-3.686 0 1.843 1.843 0 013.686 0z" fill="#fff"/></svg>