<!-- by TradingView --><svg width="56" height="56" xmlns="http://www.w3.org/2000/svg"><path fill="#F0F3FA" d="M0 0h56v56H0z"/><path d="M21.753 28.023l-6.84 6.78M14.968 21.187l6.785 6.836M34.232 28.023l6.84 6.78M41.017 21.187l-6.785 6.836M27.965 21.735l-6.758-6.864M34.778 14.926l-6.813 6.808M27.965 34.256l-6.758 6.864M34.778 41.065l-6.813-6.809" stroke="#80BC00" stroke-width="1.5"/><path d="M23.398 24.74a3.687 3.687 0 00-4.093.487 3.712 3.712 0 00-1.1 3.986 3.709 3.709 0 001.247 1.764 3.69 3.69 0 005.582-1.303c.427-.873.494-1.88.188-2.803a3.706 3.706 0 00-1.824-2.131zM32.587 24.74a3.686 3.686 0 014.095.479 3.712 3.712 0 011.107 3.985 3.71 3.71 0 01-1.244 1.766 3.69 3.69 0 01-5.585-1.296 3.722 3.722 0 01-.192-2.801 3.706 3.706 0 011.819-2.134zM31.246 23.385a3.722 3.722 0 00-.488-4.104 3.696 3.696 0 00-3.97-1.104 3.697 3.697 0 00-1.758 1.249 3.717 3.717 0 001.29 5.601c.87.43 1.876.5 2.798.193a3.701 3.701 0 002.128-1.835zM31.247 32.605a3.721 3.721 0 01-.48 4.107 3.696 3.696 0 01-3.97 1.11 3.698 3.698 0 01-1.76-1.245 3.718 3.718 0 011.283-5.604 3.686 3.686 0 012.796-.197 3.7 3.7 0 012.13 1.83z" fill="#0F206C"/><path d="M16.216 32.197a2.893 2.893 0 00-3.21.393 2.914 2.914 0 00-.856 3.13 2.897 2.897 0 005.36.355 2.921 2.921 0 00-1.294-3.878zM16.253 23.803a2.894 2.894 0 01-3.196-.426 2.915 2.915 0 01-.832-3.125 2.913 2.913 0 01.98-1.373 2.897 2.897 0 014.37 1.019 2.94 2.94 0 01.14 2.225 2.928 2.928 0 01-1.462 1.68zM39.77 32.197a2.895 2.895 0 013.213.376 2.913 2.913 0 01.87 3.127 2.896 2.896 0 01-5.36.374 2.931 2.931 0 01-.148-2.199 2.92 2.92 0 011.424-1.678zM39.733 23.803a2.894 2.894 0 003.195-.426 2.915 2.915 0 00.833-3.125 2.913 2.913 0 00-.981-1.373 2.897 2.897 0 00-4.37 1.019 2.94 2.94 0 00-.139 2.225 2.928 2.928 0 001.462 1.68zM23.805 16.178a2.922 2.922 0 00-.444-3.2 2.901 2.901 0 00-3.114-.82 2.918 2.918 0 00.757 5.664 2.884 2.884 0 002.115-.73c.287-.255.52-.566.686-.914zM32.171 16.215a2.92 2.92 0 01.408-3.21 2.901 2.901 0 013.112-.85 2.903 2.903 0 011.373.979 2.918 2.918 0 01-1.001 4.39c-.69.338-1.485.391-2.214.146a2.924 2.924 0 01-1.678-1.455zM23.805 39.785a2.92 2.92 0 01-.401 3.21 2.902 2.902 0 01-3.109.857 2.918 2.918 0 01-.391-5.366 2.903 2.903 0 012.218-.16 2.914 2.914 0 011.683 1.459zM32.171 39.785a2.922 2.922 0 00.424 3.206 2.9 2.9 0 003.115.836 2.918 2.918 0 00.353-5.369 2.912 2.912 0 00-2.218-.14 2.924 2.924 0 00-1.674 1.467z" fill="#80BC00"/></svg>