<!-- by TradingView --><svg width="56" height="56" xmlns="http://www.w3.org/2000/svg"><path fill="url(#paint0_linear)" d="M0 0h56v56H0z"/><path d="M12 22v8h4v-2.883C16 24.773 18.09 23 20.358 23 22.616 23 25 24.772 25 27.117v5.702C25 35.164 22.825 37 20.555 37H20c.064.014-.077 0 0 0v4h8.002l.151-.256v-25.34L28 15l-16 7z" fill="#E8682E"/><path d="M28 15v26h8v-4c.076.013-.09 0 0 0 .076 0-.09 0 0 0h-.691C33.052 37 31 35.205 31 32.86v-5.703C31 24.813 33.064 23 35.333 23c.526 0 1.218-.007 1.68.182C38.538 23.626 40 25.07 40 26.794V30h4v-8l-16-7z" fill="#964A2F"/><defs><linearGradient id="paint0_linear" x1="10.418" y1="9.712" x2="68.147" y2="76.017" gradientUnits="userSpaceOnUse"><stop stop-color="#1A1E21"/><stop offset="1" stop-color="#06060A"/></linearGradient></defs></svg>