<!-- by TradingView --><svg width="56" height="56" xmlns="http://www.w3.org/2000/svg"><path fill="#0BB3E1" d="M0 0h56v56H0z"/><path d="M15.41 21.997C17.475 17.165 22.205 14 28 14c7.732 0 14 6.268 14 14s-6.268 14-14 14c-6.936 0-12.696-5.045-13.806-11.666l-1.973.332C13.491 38.233 20.071 44 28 44c8.837 0 16-7.163 16-16s-7.163-16-16-16c-6.559 0-12.034 3.61-14.43 9.21-.52 1.217-.262 2.45.441 3.348.69.882 1.804 1.442 3.034 1.442h3.001l-.252.811-.734 2.286c-.458 1.372-.275 2.926.458 3.932.734 1.005 1.834 1.554 3.21 1.554.916 0 1.925-.183 2.842-.549-.275-.365-.459-.731-.642-1.188-.027-.11-.063-.22-.1-.333-.085-.261-.175-.536-.175-.856-.55.274-1.192.366-1.834.366-.367 0-.917-.092-1.192-.549-.275-.365-.366-.914-.183-1.554l1.008-3.109.281-.811h2.598L26 24h-2.58l1.325-4.137h-2.751L20.67 24h-3.625c-.625 0-1.154-.285-1.46-.675a1.262 1.262 0 01-.176-1.328zm22.497 10.687c-.638 0-1.457-.096-2.004-.482-.029-.031-.06-.062-.093-.094-.172-.168-.377-.37-.453-.775 0-.193 0-.482.09-.772l2.005-6.465h-2.733l-1.73 5.597c-.456 1.447-1.913 2.605-3.188 2.605-.365 0-.82-.096-1.002-.482-.183-.29-.365-.676-.091-1.351L30.71 24H27.98l-1.73 5.596c-.456 1.351-.274 2.799.455 3.86.728.965 1.73 1.544 3.097 1.544 1.275 0 2.641-.579 3.734-1.544.364.58.82.965 1.457 1.255.911.289 1.458.289 2.095.289.173 0 .383-.039.537-.067a1.52 1.52 0 01.192-.03c.045-.048.068-.096.091-.144a.51.51 0 01.091-.145l.273-.579.274-.579.273-.579a.496.496 0 00.09-.193.498.498 0 01.092-.193c-.273.193-.638.193-1.093.193z" fill="#fff"/></svg>