<!-- by TradingView --><svg width="56" height="56" xmlns="http://www.w3.org/2000/svg"><path fill="#F0F3FA" d="M0 0h56v56H0z"/><path d="M16.76 33.842s-1.594-3.747 1.743-4.98c3.32-1.226 3.934-2.563.249-5.668-3.701-3.12-3.934-9.612 2.64-9.168 7.266.49 6.124 6.506 6.074 7.788-.05 1.282-.548 6.409 3.386 6.113 3.934-.297 5.41-6.148 6.025-7.592.797-1.873 3.088-5.422 7.27-4.042 3.526 1.163 1.096 5.373.2 5.817 0 0 1.47-3.673-1.768-3.673-3.236 0-5.427 6.803-5.627 7.493-.2.69-1.544 6.458-6.075 6.014-4.53-.444-4.78-4.831-4.88-9.613-.1-4.781-2.539-6.243-4.88-6.161-2.116.073-3.46 2.932.05 6.013 3.223 2.829 3.187 6.162 1.294 7.543-1.892 1.38-4.406.074-5.7 4.116z" fill="#F57F29"/><path d="M16.636 35.05s1.096 2.464 2.54 1.38c1.444-1.085-.299-5.029-4.73-8.035-4.432-3.008-5.105-4.61-3.935-5.817 1.61-1.662 18.524.444 16.283 19.422l-3.585-1.33s.274-8.85-2.09-11.634c-2.272-2.675-5.404-4.807-6.549-3.278-.716.955 1.967 2.588 3.262 4.165 1.294 1.578 6.274 7.887 2.689 9.218-3.586 1.33-3.885-4.092-3.885-4.092zM45.22 22.725s-.125 1.552-4.68 1.971c-4.283.394-8.317.543-4.98 6.606 3.336 6.063.697 6.408-.797 5.669-1.494-.74-5.94-4.211-.762-13.971h-4.53s-3.72 17.224 6.114 16.854c4.132-.155 4.73-3.205 2.016-7.467-2.714-4.264-.698-4.982 2.59-5.719 3.41-.764 4.98-1.232 5.029-3.943z" fill="#008599"/></svg>