<!-- by TradingView --><svg width="56" height="56" xmlns="http://www.w3.org/2000/svg"><path fill="#E7B426" d="M0 0h56v56H0z"/><path d="M20.381 25.384c-.73 1.38-1.204 2.6-1.204 2.6s.604 1.478 1.217 2.635c.612 1.157 1.535 2.491 1.535 2.491l6.506-5.125-6.584-5.13c0-.004-.739 1.149-1.47 2.529zM25.419 18.773c-1.302 1.25-2.388 2.567-2.388 2.567l6.996 5.47 7.144-5.525-9.438-4.431c-.004 0-1.016.66-2.314 1.919zM31.73 27.985l7.302 5.63 6.266-3.299C46.494 29.643 47 28.561 47 27.905c0-.804-.392-1.776-1.616-2.42l-6.23-3.22-7.425 5.72zM14.046 41.392s-.123 4.335 1.783 3.502c.078-.034 10.026-4.739 10.026-4.739s-1.14-.909-2.258-2.062c-1.122-1.162-2.049-2.251-2.049-2.251l-7.502 5.55zM23.027 34.634s1.086 1.309 2.388 2.567c1.302 1.258 2.314 1.999 2.314 1.999l9.32-4.613-7.021-5.424-7.001 5.47zM16.152 35.374c-1.118 2.058-1.629 3.279-1.629 3.279l5.932-4.326s-.555-.825-.927-1.398c-.367-.58-.804-1.43-.804-1.43s-1.45 1.813-2.572 3.875zM15.3 11.004C13.903 11.054 14 14.62 14 14.62l7.503 5.547s.927-1.099 2.05-2.256c1.122-1.153 2.26-1.978 2.26-1.978s-9.951-4.789-10.033-4.827a1.157 1.157 0 00-.42-.105H15.3M14.474 17.346s.51 1.225 1.633 3.287c1.118 2.062 2.572 3.876 2.572 3.876s.44-.85.812-1.431c.363-.58.918-1.397.918-1.397l-5.935-4.335z" fill="#fff"/></svg>