<!-- by TradingView --><svg xmlns="http://www.w3.org/2000/svg" width="56" height="56"><path fill="#F0F3FA" d="M0 0h56v56H0z"/><path fill-rule="evenodd" d="M16.5 13.5h23a3 3 0 013 3v23a3 3 0 01-3 3h-23a3 3 0 01-3-3v-23a3 3 0 013-3zm-3.5 3a3.5 3.5 0 013.5-3.5h23a3.5 3.5 0 013.5 3.5v23a3.5 3.5 0 01-3.5 3.5h-23a3.5 3.5 0 01-3.5-3.5v-23zm8 14.18c0 1.12.8 2.28 2.1 2.32.6.05 1.18.05 1.77-.05.17-.06.38.07.4.26l.02.03c.16.6.33 1.23.64 1.76.15.25.07.44-.25.59a3.1 3.1 0 01-1.02.31c-1.24.21-2.51.09-3.7-.36C18.72 34.62 18 32.23 18 30v-4.7c0-.21-.03-.29-.24-.29h-.5c-.2.01-.26-.02-.26-.24v-2.52c0-.18.03-.25.22-.24h.5c.18 0 .28-.04.28-.28V19.3c0-.22.05-.29.27-.29h2.47c.25 0 .26.13.26.31v2.41c0 .23.1.28.3.28h3.39c.25 0 .32.07.31.32v2.33c0 .28-.06.36-.35.35h-3.37c-.22 0-.28.07-.28.3v5.38zm18-2.42v5.92c0 .26-.16.58-.43.68a11.95 11.95 0 01-5 1.14c-1.08 0-2.1-.18-3.05-.64-1.94-1.02-2.53-3.2-2.52-5.25v-7.8c0-.24.05-.31.3-.3h2.43c.22 0 .27.05.27.29v7.79c-.02 1.23.42 2.85 1.91 2.88 1.06.09 1.81 0 2.85-.24.21-.05.24-.16.24-.37V22.34c0-.29.07-.35.32-.34h2.38c.24 0 .3.06.3.31v5.95z"/></svg>