<!-- by TradingView --><svg xmlns="http://www.w3.org/2000/svg" width="56" height="56"><path fill="#F0F3FA" d="M0 0h56v56H0z"/><path d="M16 23h3v-4H9v4h3v11.31c-.07 1.46.39 4.44 3.89 4.69h11.35c1.08-.01 3.48-.89 3.76-4v-4.93c-.01-.28-.13-1.18-.72-1.55l-5.92-3.82c-.14-.1-.38-.38-.36-.61v-.63c.03-.2.18-.46.64-.46H33v16h4v-8h4v8h5c-.32-.33-1.02-1.19-1-1.99v-5.88a3.28 3.28 0 00-1.22-2.33A5.13 5.13 0 0045 25.84v-4.07A2.97 2.97 0 0041.93 19H23.54c-1.1-.04-3.3.6-3.54 3.5v2.95c-.03.5.13 1.68 1.37 2.42l5.2 3.26c.16.1.45.44.43.9V34c-.02.25-.32.87-1.5 1h-8.56c-.32-.01-.97-.38-.94-1.37V23zm21 0h4v4h-4v-4z" fill="#0055A6"/></svg>