<!-- by TradingView --><svg width="56" height="56" xmlns="http://www.w3.org/2000/svg"><path fill="#CC2229" d="M0 0h56v56H0z"/><path d="M39.566 32.825c-.73.152-.938-.265-.938-.72v-1.857c0-2.35-1.389-2.88-2.535-3.26 1.076-.227 2.64-1.364 2.64-2.956 0-1.592-1.772-3.032-3.786-3.032h-7.133c-.399 0-.399.606.018.606.416 0 1.146.436 1.146 1.138v9.513c0 .7-.73 1.137-1.146 1.137-.417 0-.417.606-.018.606H34.2c.4 0 .4-.606-.017-.606-.417 0-1.183-.436-1.183-1.137v-4.7c1.5 0 1.947.417 1.947 1.289v2.804c0 1.971 1.771 2.35 2.778 2.35 1.007 0 1.701-.341 2.083-.606.417-.341.07-.645-.242-.569z" fill="#fff"/><path d="M34 26h-1v-4h1c.5 0 1 .614 1 1.908s-.261 2.043-1 2.092z" fill="#CC2229"/><path d="M13.27 34c.43 0 .43-.603-.019-.603-.448 0-1.24-.453-1.24-1.15v-9.57c-.018-.527.374-.81.691-.81.798 0 2.726.293 2.726 4.248l-.007 1.385c0 3.59 2.837 6.5 6.338 6.5 3.5 0 6.338-2.91 6.338-6.5S25.259 21 21.759 21c-2.429 0-4.695 1.444-5.759 3.5V21H4v4.897c0 .49.747.49.747 0 0-3.955 1.753-4.03 2.562-4.03.354 0 .71.283.691.81v9.57c0 .697-.784 1.15-1.232 1.15-.449 0-.449.603-.02.603h6.522zm32.392 0c3.5 0 6.338-2.91 6.338-6.5S49.162 21 45.662 21s-6.338 2.91-6.338 6.5S42.16 34 45.662 34z" fill="#fff"/><path d="M21.78 33c1.977 0 2.278-2.462 2.278-5.5 0-3.037-.3-5.5-2.279-5.5-1.978 0-2.28 2.463-2.28 5.5 0 3.038.302 5.5 2.28 5.5zm23.94-.133C47.603 32.734 48 30.538 48 27.5c0-3.037-.301-5.633-2.28-5.633-1.977 0-2.279 2.596-2.279 5.633 0 3.038.307 5.507 2.28 5.367z" fill="#CC2229"/></svg>