<!-- by TradingView --><svg xmlns="http://www.w3.org/2000/svg" width="56" height="56"><path fill="#F0F3FA" d="M0 0h56v56H0z"/><path fill-rule="evenodd" d="M30.5 12l.72.36c-.3 1.12-.9 3.6-.88 4.58.01 1.23.25 1.75.66 2.04-.03.07-.16.17-.43 0-.34-.2-.62-.98-.73-1.42-.11.47-.5 1.41-1.1 1.5-.76.1-.95-.93-.91-1.63.04-.7.65-2.08 1.5-2.08.13-.01.38 0 .6.34.1-.97.36-3.2.58-3.69zm-.85 3.99c.17.08.33.57-.15 1.57-.51 1.07-.8 1.12-.99 1.04-.2-.07-.33-.6 0-1.61.18-.42.65-1.22 1.14-1zm-5.72-.37c.42 0 .64.38.7.57-.33 0-1.25 0-1.26 1.54 0 1.23.44 1.56.66 1.58.16 0 .48-.25.48-1.14 0-.9-.32-1.32-.48-1.41l.48-.29c.32.12.7.09.85.06.18-.8.63-1.25.83-1.37.32-.2 1.03-.27 1.08.64.06.91-.81 1.61-1.25 1.85 0 .76.45.98.7.98.78 0 .72-1.13.55-1.62.79-.07.71 2.05-.63 2.05-1.1 0-1.32-1.56-1.28-2.3l-.3.32c.14 2.11-.6 2.52-1.03 2.52-.48 0-1.29-.41-1.29-2.01 0-1.44.67-1.98 1.2-1.97zm2.1 1.58c-.02-.54.14-1.7.68-1.64.22.02.15.92-.69 1.64zm-10.47 2.67c-.42-.32-1.5-.63-1.5.75 0 1.66 1.3 2.7 1.96 2.67.66-.03.5-1.24.42-1.5.08.14.38.43.9.49.53.05.67-.6.67-.93.15.15.51.41.79.23.34-.23.32-1.02.16-1.25v.03c-.01.21-.04.63-.27.77-.24.13-.6-.46-.75-.8L17 18.15l1.29-.8.77 2.08c.17.44.59 1.19 1.13 1.19.55 0 .58-.65.53-.97.15.19.55.53 1 .43.55-.13 1.1-.56.75-2.66l.25-.5c-.11.03-.43.06-.81 0l-.51.33c.23.1.7.58.69 1.67.01.25-.04.76-.37.85-.42.1-.8-.92-.85-1.72-.06-.8.29-1.41 1.04-1.4-.06-.16-.25-.48-.6-.51-.44-.03-1.12.43-1.12 1.67 0 1 .23 1.43.35 1.52 0 .3-.05.9-.35.83-.3-.07-.57-.8-.67-1.16l-.64-2 1.84-1.3v-.47l-1.93 1.15-.29-1.3h-.81l.4 1.5c-.12.14-.53.43-1.16.48l.07.41h-.14l-.37-1.25-.84.16.59 1.49c-.26.2-.88.56-1.29.5.07.21.22.63.62.63.04 0 .27-.04.48-.21l.44-.29c.3.7.98 2.18 1.2 2.47.08.25.12.77-.34.82-.1-.02-.37-.16-.55-.54l-.91-1.48-.32.1zm-.22.4c.27.37.8 1.3.82 2.05 0 .75-.44.53-.67.32a3.51 3.51 0 01-.76-1.9c-.01-.24.1-.67.61-.47zm-7.42 2.6a1.1 1.1 0 01-.92.34 1 1 0 00.92.65c1.09-.04 2.49-1.87 3.05-2.78l4.39 4.98h1.04l-5.09-5.54a47.35 47.35 0 012.74-3.5c.35-.3.47-.13.49 0 .56-.5.54-.99.46-1.17-.67-.6-2.6 1.16-4.12 3.27a31.3 31.3 0 01-2.96 3.75zm29.66-9.5c-1.62 0-4.7.97-4.7 4.12 0 1.15.77 3.4 3.73 3.4 1.07 0 2.07-.49 2.61-.97l-.13-.24.29-.2-.16-.2c-.23.2-1.05.79-2.1.79-1.32 0-3.69-.99-3.69-2.76 0-1.02.57-2.6 4.25-2.97.46-.02 1.55.07 2.2.53l-.66.38c-.17.1-.3.33-.3.67v.37c-.02.21.08.54.54.22l1.06-.68c.22-.14.43-.5 0-1.2-.41-.66-1.32-1.27-2.94-1.27zm5.52 2.1l-4.88 5.63.36.67c.42-.62 1.51-1.88 2.51-2.03.04.03.03.15-.28.43-.4.36-1.1 1.5-1 1.88.08.38.26.74 1.28.56-.28.59-.13 1.8 1.03 1.7.66-.06 1.02-.4 1.18-.82l-.2-.34c-.1.21-.32.63-.92.73-.62.1-.8-.4-.67-.73l.37-.54c.78.17 2.55.22 2.55-.84 0-.32-.28-.76-.99-.77-.85-.02-1.83.85-2.04 1.04l-.02.01c-.29.26-1.06.52-1 0 .04-.41 1.17-1.71 1.74-2.3l-.36-.5c-.33.08-1.15.32-1.8.69l3.14-3.62v-.84zm-.88 6.85c.37-.34 1.33-1.06 1.6-.61.27.42-.9.54-1.6.6zm6.51-.25l.27-.97-3.85 2.2-.68-.67v1.02l-3.59 1.83-.36.23c-.72.44-1.5.93-1.48 1.48.01.66.55.81.96.69a9.77 9.77 0 004.8-3.71l1.04 1.3.17-1-.6-.82 3.32-1.58zm-4.81 2.4c-1.2.59-3.74 1.94-4.41 2.7.84-.17 2.9-.96 4.4-2.7z"/><path d="M27.83 20.06c-1.75 0-2.93 1.75-3.05 2.43.42-.6 1.61-1.71 3.05-1.67 1.44.04 2.54 1.5 2.91 2.25-.38-2.33-1.94-3-2.91-3z" fill="url(#aniu1ftap)"/><path d="M27.76 20.06c.39-.3 1.34-.55 2.02.9-.26-.3-1.04-.9-2.02-.9z" fill="#CC1127"/><path d="M24.56 23.75c.04.44.35.75.5.85.07-.73.67-2.21 2.58-2.3 1.91-.09 2.74 1.63 2.92 2.5.44-.52.36-1.32.27-1.66-.44-.81-1.67-2.43-3.07-2.42-1.74.02-2.84 1.5-2.98 1.69-.11.14-.12.48-.11.63.02.1.06.31 0 .43a.98.98 0 00-.1.28z" fill="url(#bniu1ftap)"/><path d="M25.22 25.48c-.1-.2-.14-.66-.16-.87 0-.84.82-2.45 2.7-2.4 1.86.05 2.72 1.73 2.8 2.54l-.12.55a3.7 3.7 0 00-.56-1.9v.82l-.77-1.07.28.79-1.07-1.43.53 1.13-.53-.81-.12.32c.22.61 1.12.97 1.54 1.07-.71 0-1.25-.39-1.42-.58l.16.58a5.2 5.2 0 00-1.43-1.85l-1.01.62c0 .28-.3.67-.44.83l-.16.8h-.22v.86z"/><path fill-rule="evenodd" d="M30.27 24.97l-.24.16v.45c-.15.47-.6.75-1.03.73-.58-.04-.82-.35-.9-.73a1.69 1.69 0 010-.52.5.5 0 00-.48-.02c.02.16.02.36-.01.54-.08.38-.32.7-.9.73-.43.02-.88-.26-1.03-.73v-.45l-.23-.16v-.27h.44a1.6 1.6 0 011.67.07l.02.07a.78.78 0 01.55 0l.03-.07a1.6 1.6 0 011.67-.07h.44v.27zm-.44.03c-.25-.2-.95-.47-1.56 0v.5c.05.18.26.53.76.55a.8.8 0 00.8-.55V25zm-3.95 0c.25-.2.96-.47 1.56 0v.5a.78.78 0 01-.75.55.8.8 0 01-.8-.55V25z"/><path d="M26.18 28.47c-.2.12-.62.44-.6.71.01.34.17.54.71.86.54.32 1.02.74 1.02.95l-1.86.91c-.03 1.1-.05 3.49.12 4.3h.2c-.08-.59-.22-2.25-.12-4.16L28.03 31c.5-.2 1.8-1.15 2.06-1.55v.4l.45.2c-.01-.54-.19-1.63-.83-1.68.15.14.37.5.12.82v.01c-.32.4-.83 1.05-2.18 1.67-.18-.2-.64-.65-.96-.82-.4-.2-1.12-.65-.5-1.57zm-2.97.75c.4-.1 1.43-.29 2.24-.34.05.08-.16.27-1.37.34a1.4 1.4 0 00-.57.25l-.3-.25zm1.9 3.14l-.15 1.31.3.3.07-1.4-.22-.2zm-.32 2.78l.15-1.3.31.3-.06 1.38-.4-.38zm-.02.17l-.08.68h.48l.01-.36-.03.04-.38-.36zm.36-3.11l.2.2.16-3.34-.36 3.14zm5.19-.99l-.07-.43.48.22.1.69a3.05 3.05 0 00-.51-.48zm.03.2l.24 1.6a3.62 3.62 0 01.48.24l-.2-1.3a2.48 2.48 0 00-.52-.55zm.43 2.8l-.16-1.05a3.38 3.38 0 01.48.27l.16 1.06a3.21 3.21 0 00-.48-.27zm.03.17l.18 1.14a6.17 6.17 0 01.47.3l-.17-1.15a2.46 2.46 0 00-.48-.29zm.26 1.7l-.06-.4a5.48 5.48 0 01.48.33v.01l.04-.01c.23.57.14.95.07 1.06-.2-.16-.44-.05-.65.05l-.05.03v-.92l.43-.14h-.26zm-.36-5.23l-.48-.22-.1-.58.5.27.08.53zm-7.88 11V43h.27v-1.16h-.27zm.36-.05h.04V43h.27v-1.2h.13V43h.3v-1.32h.12V43h.44v-1.58l-.55.07c-.37-.29-.15-.74 0-.93v-.46c-.45.12-.41.89-.33 1.26l-.3-.21-.12.65zm1.43-.41V43h.47l.11-1.75c-.2.06-.4.1-.58.14zm.72-.18l-.12 1.8h.66l-.22-1.9a8.2 8.2 0 01-.32.1zm.45-.14l.23 1.93h.7l-.13-2.27a7 7 0 01-.8.34zM27.5 43h-.63l-.14-2.34.45-.27.34.17h-.03V43zm.12-2.39v2.4h.71v-2.07l-.7-.33zm1.65 2.4h-.8V41l.85.36h-.05V43zm.14-1.61V43h.53v-1.38h.04l-.57-.22zm1.17 1.6h-.5v-1.34l.5.18V43zm.14-1.12V43h.44v-.98l-.44-.14zM32.2 43h-.91v-.94l.45.11V43h.14v-.8l.32.05V43zm.53 0h-.4v-.74h.3l.1.74zm-6.7-10.36a.27.27 0 100-.53.27.27 0 000 .53zM26.3 34a.27.27 0 11-.53 0 .27.27 0 01.53 0zm-.12 1.77a.27.27 0 100-.53.27.27 0 000 .53zm5.07-6.07c-.06-.58-.27-.79-.37-.83.43 0 .58.32.6.48v.83l.09.38v1.28c-.15-.23-.41-.72-.32-.86.12-.16.08-.55 0-1.24v-.04zm.65-.59c.07.05.16.26 0 .7-.21.53.03.38.36.13-.06.17-.12.54.09.68.2.15-.06 1.38-.21 1.98.19-.23.54-1.05.44-2.47.03-.34-.07-1.02-.68-1.02zm1.54.47c-.61-.25-.77.1-.77.31l.47-.2-.1 1 .3-.8.23.69.44-.24-.27.7-.17.84-.43 1.05c.07.9-.03 1.55-.1 1.76.28-.22.32-.77.36-1.19 0-.15.02-.3.04-.4.06-.3.22-.85.3-1.08.02-.26.07-.8.07-.98 0-.16.33-.68.5-.92-.04-.08-.26-.3-.87-.54zm-.23 5.8c.42.07 1.44.39 2.15 1.17.04-1.42-.06-4.4-.74-4.98-.1-.03-.19.11.3.86-.02.82 0 2.65.3 3.43-.17-.24-.82-.67-2-.48zm-11.57-5.15c.27-.46.78-.61 1-.63l-.48.35c1.07-.16 1.26.25 1.22.48-.38-.33-.77-.33-.9-.28.65.52.7 1.12.65 1.35-.4-1.19-1.16-1.34-1.49-1.27zm-.08 1.1c.21.1.73.5 1.14 1.4-.2-.14-.73-.61-1.14-1.4zm-.36.44zm-.04.03c-.12.1-.29.4-.28.96.02.63.72 1 1.08 1.1.73.24.83.88.8 1.16a2.16 2.16 0 00-.67-.53c.13.19.33.79.41 1.06a7.42 7.42 0 00-1.45-1.77c-.7-.98-.24-1.71.1-1.98zm-.9 3.6zm-.14 2.3a9.8 9.8 0 01.05-2c-.23.87-.5 2.21-.12 2.28.1.02.34 0 .63-.28.3-.28.75-.18.95-.1.34-.04 1.08-.04 1.3.25-.09-.22-.43-.66-1.05-.7a3.6 3.6 0 00-1.76.55zm.94.92h.02-.02zm.02 0l.04-.05c.11-.14.38-.47 1.72-.32 0 .1-.22.76-.32 1.08v-.48l-.54.83c-.02-.23.02-.81.32-1.25-.2-.01-.72 0-1.22.18zm2.13 2.82c-.22.13-.76.36-1.15.2l.93-.39c-.04-.13-.3-.31-1.01 0l.52-.3c-.3-.08-.87-.35-.68-.88.05.16.24.48.56.5-.09-.2-.2-.63.12-.67-.03.2-.06.6.12.68.02-.41.13-1.24.37-1.3v.55c-.09.34-.16 1.13.22 1.6zm8.5-3.64c-.24-.39.11-.63.32-.7l-.09.37c.56-.03 1.76-.02 2.09.33.33.34.85.57 1.07.63.18-.24-.13-.66-.31-.84.41-.03.38-.16.3-.22.06.02.2.2.27.74.06.53-.35.44-.57.32a6.4 6.4 0 00-3.07-.63zm.25-1.2c.26-.02.98.08 1.81.61a6.76 6.76 0 01-1.8-.62zm1.97.75a.65.65 0 01.67.22c-.2 0-.6-.07-.67-.22zm-2.67 1.92c.43.14 1.4.82 1.85 2.43.09.25.37.78.78.88.49.13-.1-1.6-.34-1.94.21.27.59.77.63.95.1.04.29.02.2-.43h.17v-.66c.06-.05.16-.25.09-.69.13-.1.38-.47.35-.69h-.18v.31l-.26-.47v.66c-.22-.44-.86-1.28-1.72-1.13.28.04.98.35 1.54 1.32l-.69-.54.5.88c-.38-.45-1.42-1.32-2.58-1.19.84.18 2.51.8 2.5 1.9-.49-.65-1.72-1.87-2.84-1.59zm-5.6-2c.12.25.23.42.35.55v-1.45l-.33-.07v.98h-.02zm-.1-1l-.89-.26-.12.46c.2-.05.66.02 1 .6v-.8zm.59.13v1.55c.22.17.44.2.66.18v-1.6l-.66-.13zm.8.16v1.55l.64-.15v-1.32l-.65-.08zm.77.1v1.27l.77-.19v-1.06a6.6 6.6 0 01-.77-.03zm.9.01v1.04l.65-.18v-.92a7.6 7.6 0 01-.64.06zm.79-.08v.9l.47-.16.14-.02v-.84c-.2.05-.4.09-.61.12zm.74-.15v.84c.18-.02.38-.05.5-.05l.12-.02v-.93l-.62.16zm-7.17 2.66c.01-.11.06-.35.17-.4 0-.13.08-.38.28-.38-.03.09-.1.29-.15.38-.05.1-.22.3-.3.4z"/><path d="M23.85 36.15c-.22.1-.54.47-.13 1.04a.86.86 0 01.13-1.04z" fill="#8B8A89"/><path d="M26.36 38.2c-.25.6-.75 1.03-.96 1.17l1.8 1.02 1 .48c-.2-.76.1-1.47.56-1.86.37-.3.9-.25 1.12-.18-.07-.7-.69-1.13-.95-1.24l-1.2.34c-.5.21-1.12.27-1.37.27z" fill="#878787"/><path d="M23.56 38.67c.04.08.71.56 1.76.66-.5.03-1.54-.05-1.76-.66z" fill="#8B8A89"/><path d="M27.43 39.73c-.43-.2-.8.07-.96.22l1.13.64c.22-.36.1-.7-.17-.86z" fill="#494949"/><path d="M29.47 38.6l-.67-.77v.52l.67.25zm-2.53-.21c.33-.1 1.02-.1 1.1.76-.12-.25-.5-.76-1.1-.76z" fill="#F0F3FA"/><path fill-rule="evenodd" d="M31.14 40.32c0 .67-.47 1.22-1.1 1.35-.05 0-.08-.01-.1-.03a.17.17 0 00-.1-.03l-1.23-.54a1.37 1.37 0 112.53-.75zM30 39.46a.26.26 0 11-.53 0 .26.26 0 01.53 0zm.26.52a.26.26 0 100-.52.26.26 0 000 .52zm.48.29a.26.26 0 11-.53 0 .26.26 0 01.53 0zm-.43.82a.26.26 0 100-.53.26.26 0 000 .53zM30 40.9a.26.26 0 11-.53 0 .26.26 0 01.53 0zm-.84.07a.26.26 0 100-.52.26.26 0 000 .52zm.07-.79a.26.26 0 11-.53 0 .26.26 0 01.53 0zm-.1-.26a.26.26 0 100-.53.26.26 0 000 .53z" fill="#646464"/><circle cx="29.72" cy="40.19" r=".26"/><path d="M30.35 41.76c1.41-.7 1.11-1.98.75-2.5 1.08.14 1.5 1.2 1.65 1.44.13.2.46 1.2.64 1.68-.54.05-2.22-.37-3.04-.62z" fill="#878787"/><path d="M22.83 30.48l1.62 4.83-.62.22a.83.83 0 00-.52-.5 10.7 10.7 0 01-.92-3.78c.06-.65.32-.78.44-.77z" fill="#5F5E5C"/><path d="M27.24 40.52l-1.87-1.13.06-.11 1.88 1.12-.07.12zm1.78-1.87c-.94-.22-1.88-.38-2.46-.47l.02-.13c.58.08 1.53.25 2.47.47.94.22 2.16.54 2.75.83l-.06.12c-.57-.28-1.78-.6-2.72-.82z"/><path fill-rule="evenodd" d="M32.47 40.2a.84.84 0 00-.25-.04c-.43 0-.78.18-.78.41 0 .23.35.41.78.41a.75.75 0 00.49-.17.6.6 0 00.08-.07l-.32-.54zm.14.52l-.24-.41a1.04 1.04 0 00-.63.08c-.12.07-.16.13-.16.18 0 .05.04.12.16.18s.28.1.48.1a.6.6 0 00.39-.13z" fill="#F0F3FA"/><path fill-rule="evenodd" d="M32.58 41.82c.1-.07.15-.15.15-.22s-.04-.15-.15-.22a.8.8 0 00-.43-.11.8.8 0 00-.43.11c-.1.07-.15.15-.15.22s.05.15.15.22c.1.07.26.12.43.12a.8.8 0 00.43-.12zm-.43.25c.4 0 .72-.21.72-.47s-.32-.46-.72-.46c-.4 0-.71.2-.71.46s.32.47.71.47z" fill="#3F3F3F"/><path d="M24.5 41.42c-.26-.53-.02-1.63.13-2.11h.77l1.74 1.07c-.25.24-.64.45-1.06.6l.32-.13a.7.7 0 00-.41-.1c-.2.02-.29.32-.3.38-.46.14-.91.24-1.2.29zm.41-1.04c-.23.05-.17.3-.11.43 0-.25.41-.26.62-.23-.07-.09-.27-.24-.5-.2z" fill="#878787"/><path d="M25.17 40.89c.03-.13.14-.38.3-.33.18.05-.13.24-.3.33zm-1.35-5.38l.62-.24.26.82-.14.35a1.2 1.2 0 01-.1-.05c-.14-.07-.35-.18-.64-.2v-.68zm.36.52a.18.18 0 100-.37.18.18 0 000 .37z"/><defs><linearGradient id="aniu1ftap" x1="25.3" y1="21.57" x2="30.39" y2="21.57" gradientUnits="userSpaceOnUse"><stop stop-color="#8F1A22"/><stop offset="1" stop-color="#D03C4C"/></linearGradient><linearGradient id="bniu1ftap" x1="24.81" y1="22.76" x2="30.9" y2="23.32" gradientUnits="userSpaceOnUse"><stop stop-color="#8F1A22"/><stop offset="1" stop-color="#CB0F25"/></linearGradient></defs></svg>