<!-- by TradingView --><svg xmlns="http://www.w3.org/2000/svg" width="56" height="56"><path d="M0 28a28 28 0 1156 0 28 28 0 01-56 0z" fill="#F0F3FA"/><path d="M14.99 38H19v2h-1v4h-2v-4h-1v-2h-.01zM20 38h4v1.64h-2v.57h1.8v1.56H22v.59h2V44h-4v-6zm5 0h4v2h-1v4h-2v-4h-1v-2zm7 1.63h.18c.4 0 .74.06.74.51s-.37.5-.75.5H32v-1.01zM30 44h2v-2h.32l1.01 2H36l-1.19-1.67a2.52 2.52 0 00-.6-.64v-.05c.87-.27 1.24-.65 1.24-1.55 0-1.52-1.2-2.09-2.65-2.09H30v6zm8.58-2l.36-2h.08l.36 2h-.8zm-.23 1h1.15l.3 1H42l-1.94-6h-2.18L36 44h2.08l.27-1z"/><path d="M40.88 21H15c-.22.87-.46 2.07-.5 3h26.9c-.05-.93-.3-2.13-.52-3zM20.36 35.53h15.2a13.42 13.42 0 004.45-5.13h-24.1a13.7 13.7 0 004.45 5.13zM14.54 25c.03.59.13 1.42.24 2H41.2c.1-.58.16-1.41.2-2H14.53zm.9 4.34h25.02c.18-.45.3-.88.42-1.34H15c.13.48.26.89.44 1.34zM16.76 17c-.62.93-1.12 1.94-1.49 3h25.37a13.7 13.7 0 00-1.49-3H16.76zm.74-1a13.4 13.4 0 0120.91 0h-20.9z" fill="#0079C1"/><path d="M27.92 13.85l-3.4 17.63L42.06 36 27.92 13.85z" fill="#F0F3FA"/><path d="M24.52 31.48L42.06 36H13.78l10.74-4.52z" fill="#0079C1"/><path d="M27.92 13.85l-3.4 17.63L13.78 36l14.14-22.15z" fill="#7BACDC"/></svg>