<!-- by TradingView --><svg width="56" height="56" xmlns="http://www.w3.org/2000/svg"><path fill="#E01885" d="M0 0h56v56H0z"/><path fill-rule="evenodd" d="M34.488 16.29l-3.66 6.41c-.019 0-.11.019-.145 0-.018-.017-.037-.035-.073-.035-.018-.018-.035-.036-.073-.036a.134.134 0 00-.072-.037c-.018-.017-.054-.017-.073-.035-.018-.019-.035-.019-.054-.019 0-.072 0-.126-.018-.199v-.09c0-.018-.018-.055-.018-.09a2.476 2.476 0 00-.09-.345c-.037-.109 0-.109-.054-.217l.58-2.174c.109-.018.398.036.489.019l.272-.055a2.205 2.205 0 001.649-2.082c.018-1.177-.978-2.155-2.193-2.173-1.196 0-2.193.977-2.193 2.155 0 .127 0 .253.018.38.019.108.055.236.091.344.037.109.09.217.145.326.054.09.109.2.181.29.073.09.163.181.236.254.09.09.181.163.29.217.09.072.198.127.307.18l-.435 1.576c-.09-.054-.398-.253-.49-.307-.108-.054-.217-.09-.325-.127-.218-.055-.327-.11-.526-.091l-.018-5.758c.073 0 .2-.018.29-.036.055-.018.109-.055.164-.073.833-.308 1.431-1.122 1.45-2.082 0-.073 0-.145-.019-.218l-.326-.054h-.073c-.09-.018-.18-.018-.272-.036-.072 0-.144 0-.217-.018h-.145c-.109-.018-.198-.018-.29-.018-.036-.018-.053-.018-.09-.018h-.363c0-.018-.017-.018-.017-.018h-.833c-.11.018-.236.018-.363.018h-.073c-.11.018-.2.018-.308.036h-.127c-.091 0-.163.018-.236.018-.072.018-.145.018-.217.018-.055.018-.109.018-.163.036-.072 0-.163.018-.236.018 0 .072-.018.163-.018.236 0 .054 0 .109.018.163 0 .054 0 .109.019.163 0 .054.017.09.017.145.02.051.033.106.036.162.018.036.037.09.055.145.017.054.037.09.054.145.018.036.054.09.072.127.018.054.055.09.073.145.036.036.054.09.09.127.036.037.073.072.09.109.037.055.074.09.11.127a.494.494 0 00.108.09l.11.11c.053.035.09.054.127.09.054.018.09.055.126.073a.562.562 0 00.146.073c.29.144.326.2.67.2l-.018 5.812-.073.036c-.381.105-.73.304-1.014.58-.074.054 0 .035-.055.108l-.599-1.792c.907-.326 1.342-1.05 1.342-2.03 0-1.212-.997-2.19-2.211-2.19-1.233 0-2.23.978-2.23 2.173-.017 1.213.925 2.137 2.212 2.209h.236l-.018-.054.797 2.227c-.054.09-.036.18-.054.27-.037.091-.054.2-.074.29-.017.091-.017.145-.017.254 0-.018-.018 0 0-.018a1.05 1.05 0 01-.217.09l-.217.11c-.092.054-.092.072-.092.072-.38-.76-3.878-6.265-3.878-6.428 0-.036.236-.127.272-.163.018-.018.055-.037.091-.072a2.133 2.133 0 00.49-2.734c-.036-.073-.073-.128-.11-.2a1.92 1.92 0 01-.344.127l-.018.019c-.019 0-.037 0-.037.017l-.271.109c-.073.018-.128.054-.2.073-.054.018-.09.054-.144.072a1.81 1.81 0 00-.272.127c-.036 0-.054.018-.09.036-.11.037-.218.091-.327.145-.018.018-.018.018-.037.018-.108.073-.236.127-.362.2-.128.053-.236.126-.362.18l-.019.019c-.109.054-.218.127-.327.18-.035.018-.054.037-.072.055l-.271.163a.364.364 0 00-.11.072c-.072.037-.144.09-.217.127-.054.036-.11.073-.182.127-.05.027-.098.057-.144.09-.055.054-.128.091-.2.145.037.072.073.127.109.199.543.941 1.54 1.268 2.482 1.068l3.987 6.537c-.037.035-.218.127-.254.163a.683.683 0 00-.2-.11c-.09-.036-.181-.054-.271-.09-.072-.018-.163-.036-.254-.054-.145-.018-.163-.037-.308-.037l-1.595-1.484c.037-.055.055-.072.073-.127a.864.864 0 00.145-.29c.036-.109.073-.217.09-.326.018-.109.037-.218.037-.326.018-.109 0-.217 0-.326-.019-.109-.036-.236-.054-.344l-.11-.326a4.911 4.911 0 01-.163-.308c-.652-1.032-2.012-1.358-3.044-.724-1.015.652-1.268 1.937-.634 2.97.652 1.032 1.975 1.43 2.99.797.054-.037.18-.145.235-.182l1.214 1.141-.054.018c-.054.018-.109.054-.163.072-.054.037-.11.055-.163.09-.127.091-.254.182-.363.29a.815.815 0 00-.109.126c-.036.037-.072.092-.109.128-.037.054-.072.09-.072.127l-5-2.68c.055-.091-.017-.091.02-.2.035-.145.053-.29.053-.435.018-.145 0-.29-.018-.435a1.877 1.877 0 00-.109-.434c-.055-.145-.109-.29-.2-.417a2.144 2.144 0 00-1.123-.923 16.579 16.579 0 00-2.03 3.838c.725.525 1.704.617 2.483.128.127-.09.236-.163.327-.272l.217-.217c.054-.09.072-.11.127-.2l5.038 2.735c-.036.054-.054.109-.073.163-.017.054-.017.109-.035.163 0 .054-.019.109-.019.163 0 .072-.018.127-.018.181 0 .054 0 .109.018.163v.181c.018.054.018.11.037.163.017.073.036.127.054.2l-1.722-.308v-.235c0-.09 0-.163-.017-.236a1.05 1.05 0 00-.037-.236c-.017-.072-.036-.163-.072-.235a1.043 1.043 0 00-.09-.218l-.11-.217c-.652-1.032-2.012-1.358-3.045-.724-1.015.634-1.323 2.01-.67 3.042.635 1.032 2.012 1.359 3.027.725.156-.1.301-.215.434-.344.11-.126.327-.543.417-.688l2.356.453c.09.072.217.253.344.326-.018.055-.018.109-.035.163 0 .055-.019.109-.019.163 0 .054-.018.109-.018.163v.307l-7.575-.018c0-.308-.054-.253-.163-.507-.054-.109-.09-.2-.145-.29a1.41 1.41 0 00-.2-.254.882.882 0 00-.217-.235c-.073-.073-.163-.127-.254-.2-.072-.054-.181-.109-.272-.163a5.406 5.406 0 00-.308-.108 1.498 1.498 0 00-.308-.074 2.279 2.279 0 00-.344-.035c-.072 0-.145.018-.217.018a1.046 1.046 0 00-.037.235c-.018.055-.018.11-.018.164-.017.072-.017.145-.036.217 0 .072 0 .145-.018.236v.126c-.018.11-.018.2-.036.308v.072c0 .128 0 .236-.018.363v.851c0 .128.018.236.018.362v.09c0 .091.018.182.018.29 0 .054 0 .091.018.145 0 .073 0 .144.018.217 0 .09.018.181.018.272v.035c.018 0 .018.018.018.038 0 .109.018.217.036.326.072.017.145.017.217.017.454 0 .888-.126 1.25-.363.073-.053.146-.109.2-.162.073-.055.145-.128.2-.181l.163-.217a.898.898 0 00.144-.218c.055-.073.091-.163.128-.235.017-.091.054-.164.072-.254a.562.562 0 00.036-.308l7.611.036c0 .109.018.29.018.398-.326.127-.326.09-.525.344-.091.127-.127.2-.2.326l-2.102.543-.054-.109c-.054-.108-.127-.2-.181-.29a1.428 1.428 0 00-.236-.235c-.072-.09-.163-.144-.254-.217-.09-.055-.181-.127-.272-.164-.109-.053-.217-.109-.326-.144-.109-.018-.218-.054-.326-.073a2.29 2.29 0 00-.345-.036c-1.232 0-2.229.977-2.247 2.191 0 1.194.96 2.1 2.175 2.118 1.232 0 2.265-.904 2.283-2.1 0-.073-.036-.235-.036-.29l1.613-.434-.018.073c0 .053-.018.109-.018.162 0 .073-.018.128-.018.181 0 .164.018.308.054.472l.055.162c0 .055.036.109.054.163.018.054.072.163.09.2l-4.874 2.807c-.054-.09-.181-.128-.254-.2-.09-.108-.218-.199-.326-.29a1.983 1.983 0 00-.38-.217 3.708 3.708 0 00-.435-.144 1.884 1.884 0 00-.454-.054 2.31 2.31 0 00-1.395.471 16.142 16.142 0 002.193 3.748 2.214 2.214 0 001.413-2.028c0-.144-.019-.272-.055-.417-.018-.09-.036-.2-.073-.29-.036-.11.054.073.018-.018l4.984-2.88c.018.056-.036-.017 0 .02.037.053.072.09.127.126.037.036.091.072.128.11.054.035.09.07.144.09.055.036.091.072.145.089.055.037.11.055.163.092.036.018.091.036.145.053.073.018.127.036.199.055l-1.178 1.303c-.072-.053-.127-.09-.2-.144a11.954 11.954 0 00-.217-.108c-.054-.038-.145-.055-.217-.091l-.218-.055c-.09-.017-.163-.036-.253-.036-.073-.017-.163-.017-.236-.017-1.232 0-2.23.977-2.23 2.173-.017 1.212.98 2.191 2.212 2.191 1.214.018 2.23-.961 2.23-2.173a1.843 1.843 0 00-.073-.543c-.036-.164-.272-.562-.344-.724l1.63-1.757c.11-.018.509-.11.636-.164-.018 0-.018 0-.037.017a.8.8 0 00.2.146c.054.053.271.18.38.217-1.196 2.136-2.537 4.291-3.788 6.482-.109-.036-.163-.072-.29-.09a1.064 1.064 0 00-.343-.054c-.109-.017-.218 0-.344 0-.11.018-.218.036-.345.053a1.859 1.859 0 00-.398.164 1.286 1.286 0 00-.382.217 1.751 1.751 0 00-.326.308c-.11.111-.202.24-.272.38a1.954 1.954 0 00-.109.2c.073.053.128.09.2.144.038.036.08.067.127.09.054.054.11.091.181.127.055.055.128.09.182.144.037.02.072.037.109.073l.271.164c.018.018.037.036.055.036.11.073.199.145.308.2l.018.017c.108.073.235.126.344.2.127.072.236.126.345.199h.036c.109.055.217.126.308.181.036 0 .054.018.072.036.091.036.182.073.272.126.054.018.09.038.145.055a.84.84 0 00.18.09c.092.037.164.072.255.11.018.017.018.017.036.017s.018.018.036.018c.109.035.199.09.309.126.035-.053.09-.126.126-.18a2.307 2.307 0 00.182-1.793c-.036-.127-.091-.235-.145-.362-.073-.109-.145-.235-.218-.326a4.106 4.106 0 00-.417-.398l3.733-6.428c.181.09.326.163.49.235-.018.127.126.689.2.815l-.708 2.3c-.163 0-.634.017-.797.055a2.334 2.334 0 00-.49.217c-1.05.616-1.377 1.974-.76 3.024.634 1.05 1.975 1.412 3.026.797a2.2 2.2 0 00.743-3.024.787.787 0 00-.146-.2c-.035-.073-.09-.127-.144-.199a1.482 1.482 0 00-.182-.164c-.054-.053-.109-.09-.18-.144a1.334 1.334 0 01-.2-.126c-.073-.037-.145-.055-.217-.09l.525-1.667.126.126c.054.036.11.072.145.11.054.035.09.053.145.09.054.036.109.053.163.072.036.037.09.054.145.073a.684.684 0 00.163.073c.054 0 .109.017.163.036.054.018.09.017.145 0v5.758c-.11 0 .017-.018-.073 0-.109.037-.2.054-.308.092-.128.035-.254.109-.381.18a2.185 2.185 0 00-1.033 2.245c1.431.181 2.9.181 4.35-.036a2.382 2.382 0 00-.29-1.43 2.751 2.751 0 00-.29-.364 2.682 2.682 0 00-.345-.29 1.668 1.668 0 00-.38-.217 1.62 1.62 0 00-.417-.144.565.565 0 00-.254-.055l-.018-5.685c.036 0 .09-.019.145-.019.054-.017.108-.017.163-.035.073-.018.127-.036.181-.054.145-.037.271-.109.417-.181.054-.037.09-.073.145-.09.054-.036.09-.074.163-.145l.47 1.594c-.053.035-.199.073-.253.108-1.05.617-1.286 1.974-.67 3.025.634 1.05 1.884 1.412 2.936.797a2.2 2.2 0 00.743-3.024c-.054-.11-.127-.2-.199-.29-.072-.09-.163-.164-.236-.237-.091-.09-.18-.144-.272-.217a2.263 2.263 0 00-.29-.144 2.538 2.538 0 00-.326-.127c-.09-.017-.2-.054-.308-.054a1.116 1.116 0 00-.345-.018c-.054 0-.072 0-.127.018l-.598-2.1c.072-.127.054-.145.109-.29.054-.145.09-.29.109-.453v-.29c.037.017.054 0 .072-.018.055-.017.091-.036.128-.053.054-.02.09-.038.127-.055a.764.764 0 00.127-.055c.054-.036 3.57 6.05 3.842 6.556-.018.018-.018 0-.036.018-.018.036-.055.053-.091.071-.036.018-.054.055-.09.074l-.09.09c-.018.018-.055.055-.092.073-.017.036-.035.053-.072.09a2.125 2.125 0 00-.508 1.394c0 .453.128.87.363 1.214a15.74 15.74 0 003.842-2.173 2.242 2.242 0 00-1.975-1.231c-.091 0-.182.017-.254.017-.09.017-.163.017-.254.036-.072.019-.072.019-.145.055-.272-.472-3.878-6.573-3.86-6.59.018 0-.018-.02.037-.056a.36.36 0 00.109-.073c.035-.017.072-.053.109-.071.036-.038.09-.055.127-.09.036-.038.072-.056.109-.091h.018c.127.073.544.162.67.18L34 34.527c-.072.144-.307.543-.344.707a1.87 1.87 0 00-.072.543c-.019 1.214.978 2.191 2.21 2.191 1.215.018 2.229-.96 2.229-2.173 0-1.214-.997-2.191-2.21-2.191h-.255c-.09.017-.162.035-.235.053-.09 0-.163.037-.236.055a1.018 1.018 0 00-.218.09l-.218.11c-.054.035-.126.072-.198.143l-1.16-1.32c.073-.02.127-.038.18-.055l.164-.053c.054-.038.109-.055.163-.091.054-.017.09-.055.145-.073.055-.038.091-.073.145-.109.036-.037.09-.073.127-.109.037-.037.09-.073.127-.109.036-.055.073-.09.09-.145l4.984 2.843c-.054.09-.054.11-.09.2-.041.099-.072.202-.09.307a2.921 2.921 0 00-.038.417c0 .924.58 1.701 1.396 2.027a16.104 16.104 0 002.21-3.73 2.167 2.167 0 00-1.847-.435c-.145.036-.29.091-.417.144a1.725 1.725 0 00-.399.219c-.109.072-.217.18-.326.27-.072.09-.109.036-.163.11l-4.911-2.808c.017-.036.036-.09.073-.144l.054-.164a.516.516 0 00.036-.162c.036-.145.055-.307.055-.454v-.18c0-.054-.019-.127-.019-.18l-.017-.055 1.613.435c0 .072-.037.217-.037.289 0 1.214 1.033 2.102 2.247 2.12 1.232 0 2.193-.889 2.193-2.103 0-1.212-.997-2.19-2.212-2.19-.126 0-.235 0-.344.018a1.92 1.92 0 00-.344.072c-.109.037-.218.09-.308.126-.103.05-.2.111-.29.182a1.387 1.387 0 00-.255.2 1.59 1.59 0 00-.235.253c-.055.072-.127.163-.181.27-.018.056-.036.074-.054.127l-2.102-.578c-.073-.11-.091-.127-.181-.236a2.278 2.278 0 00-.453-.38.404.404 0 00-.127-.091v-.018c0-.036.018-.09.018-.145 0-.053 0-.09.019-.144 0-.054 0-.054.017-.109l7.358.036c0 .09.072.036.09.127.019.109.037.2.073.308a2.158 2.158 0 002.373 1.467c.236-1.413.254-2.88.092-4.329a2.231 2.231 0 00-1.432.254 1.89 1.89 0 00-.38.271c-.108.105-.211.213-.309.327-.072.127-.163.253-.218.38a1.65 1.65 0 00-.162.416c-.018.091-.09.073-.11.163l-7.392-.018v-.163c0-.036 0-.055-.019-.09v-.11c0-.036 0-.072-.018-.108v-.09c-.018-.018-.018-.037 0-.055.09-.054.163-.109.236-.163a1.1 1.1 0 00.217-.2l2.32-.615c.018.054.036.036.054.073.019.035.036.09.073.126a2.215 2.215 0 001.921 1.105c1.214 0 2.21-.979 2.229-2.173 0-1.213-.997-2.191-2.211-2.209-1.233 0-2.23.978-2.23 2.191v.145c0 .055 0 .09.019.144-.018-.054 0 .037 0 0l-1.667.435c.07-.18.113-.369.127-.561.018-.072.018-.127.018-.2 0-.09 0-.18-.019-.271l-.054-.271c-.018-.091-.054-.182-.072-.254l5.056-2.951c.072.09.054.072.109.127.055.055.109.109.163.145a.719.719 0 00.181.144c.37.267.814.412 1.27.417.434 0 .833-.127 1.177-.326-.562-1.377-1.196-2.825-2.102-3.983-.688.38-1.287 1.285-1.287 2.1 0 .109.019.217.019.307a1.3 1.3 0 00.072.29c.018.109.018.163.072.253l-5.055 2.934a.726.726 0 00-.2-.218 2.035 2.035 0 00-.887-.543c-.054-.017-.054 0-.11-.017l1.197-1.232c.018.036.036.054.054.054l.055.055c.017.018.035.018.054.036.018.018.036.018.055.036.343.218.76.326 1.195.307 1.214-.035 2.211-.977 2.23-2.172 0-1.213-.997-2.191-2.211-2.21-1.233 0-2.23.978-2.248 2.191 0 .145.018.29.055.417.019.143.055.283.108.417.055.127.182.326.272.434l-1.414 1.578c-.165 0-.33.018-.49.054a3.468 3.468 0 00-.598.235.25.25 0 01-.072-.054c-.018-.018-.054-.036-.073-.054-.018-.018-.036-.018-.054-.037-.036-.018-.036-.036-.09-.072-.055-.054 3.407-5.921 3.66-6.464a.19.19 0 01.09.037c.02 0 .055.017.073.017.028.014.06.02.09.018.018.018.037.018.073.036a2.215 2.215 0 002.41-1.014c.055-.054.073-.127.11-.199-.09-.073-.181-.145-.254-.2l-.036-.036s-.018 0-.018-.018h-.017l-.218-.163c-.055-.036-.11-.09-.164-.127-.035-.036-.072-.054-.126-.09-.072-.054-.163-.108-.236-.163-.018-.018-.054-.036-.072-.054-.09-.073-.2-.127-.29-.2-.018 0-.018 0-.036-.018-.11-.072-.217-.144-.326-.199-.128-.072-.236-.145-.345-.217h-.017a2.838 2.838 0 00-.327-.18c-.018-.019-.035-.019-.072-.037-.09-.054-.181-.09-.272-.145l-.11-.054-.216-.109c-.055-.036-.127-.054-.182-.09-.054-.018-.109-.054-.163-.073a1.056 1.056 0 00-.217-.09c-.036.054-.09.108-.127.18a.383.383 0 01-.054.091l-.055.109c-.018.036-.036.073-.036.109-.018.035-.036.054-.054.09 0 .037-.018.072-.036.11 0 .036-.017.072-.017.108-.019.037-.019.073-.037.109 0 .036 0 .072-.018.109v.109c-.019.036-.019.054-.019.09v.327a.226.226 0 01.019.109c0 .036.018.072.018.109 0 .036.017.072.017.09.019.036.019.073.037.11 0 .035.018.072.018.108.018.037.036.054.036.09l.054.11c0 .017.018.054.037.09.017.036.036.055.054.091.018.037.036.055.055.09.018.036.036.055.054.091.018.036.054.054.072.09.019.02.036.055.073.073.017.036.036.054.072.09l.072.073.074.073c.015-.004.052.013.07.032zm-2.645 12.405c.08-.042.702-.181.743-.181h.363c.057 0 .126.018.18.036.019-.162.019-.308.019-.453 0-.235 0-.453-.036-.67-.018 0-.055 0-.073.019-.108 0-.199.017-.308.017-1.214-.017-2.21-.996-2.21-2.21 0-.542.198-1.049.524-1.43a4.68 4.68 0 00-.815-.506c-.308.868-1.142 1.466-2.12 1.466a2.21 2.21 0 01-2.12-1.557 6.5 6.5 0 00-.852.489c.035.054.09.09.127.145.017.035.036.054.054.09.017.018.036.054.054.073.652 1.031.345 2.407-.67 3.042-.127.072-.254.144-.38.199-.126.038-.253.069-.382.09-.145.036-.271.036-.398.036-.145 0-.272 0-.398-.036-.073 0-.128-.018-.2-.036a4.882 4.882 0 00-.037 1.123c.145-.018.29-.036.435-.036 1.215 0 2.211.995 2.211 2.191 0 .144-.018.29-.036.417-.031.136-.074.269-.127.398a1.572 1.572 0 01-.181.343 1.923 1.923 0 01-.236.308c-.054.055-.091.09-.128.144.308.254.671.49 1.034.653.017 0 .307-.634.362-.707 1.05-1.376 3.317-.96 3.842.742.39-.173.756-.398 1.087-.669-1.032-1.014-.706-2.843.672-3.53zM28 30.144c1.214 0 2.21-.961 2.21-2.155a2.186 2.186 0 00-2.192-2.191c-1.214 0-2.21.977-2.21 2.173-.02 1.194.978 2.173 2.192 2.173z" fill="#fff"/></svg>