<!-- by TradingView --><svg width="56" height="56" xmlns="http://www.w3.org/2000/svg"><path fill="url(#paint0_linear)" d="M0 0h56v56H0z"/><path d="M47.466 31c-.383 1.056-.964 2.061-1.715 3h-8.573a12.688 12.688 0 001.319-3h8.969zm-10.96 4h8.355c-1.113 1.132-2.488 2.144-4.07 3h-7.546a11.683 11.683 0 003.261-3zm-11.583 4a9.8 9.8 0 006.173 0h7.58c-3.083 1.267-6.738 2-10.658 2-3.92 0-7.58-.733-10.669-2h7.574zm-2.152-1a11.716 11.716 0 01-3.269-3H11.15c1.117 1.132 2.496 2.144 4.082 3h7.54zM8.536 31c.385 1.056.967 2.061 1.72 3h8.572a12.675 12.675 0 01-1.323-3H8.536zm39.23-1h-9.021c.167-.813.255-1.65.255-2.5 0-.165-.005-.332-.016-.5h8.927c.059.338.089.672.089 1 0 .68-.08 1.348-.235 2zm-30.51 0A12.379 12.379 0 0117 27.5c0-.164.006-.33.018-.5H8.101A5.205 5.205 0 008 28c0 .68.08 1.348.236 2h9.02zm-.102-4H8.382a9.723 9.723 0 011.024-2h8.352a11.002 11.002 0 00-.604 2zM38.3 24c.255.667.446 1.34.563 2h8.793a9.432 9.432 0 00-.956-2h-8.4zm7.705-1h-8.14a13.782 13.782 0 00-1.19-2h7.486c.701.646 1.32 1.317 1.844 2zm-27.793 0c.343-.682.754-1.356 1.222-2H12.03a17.01 17.01 0 00-1.897 2h8.079zm2.975-4h-6.554c.532-.35 1.09-.684 1.672-1h6.074c-.416.308-.814.643-1.192 1zm20.395 0h-6.65c-.38-.358-.78-.693-1.2-1h6.176c.583.316 1.142.65 1.674 1zm-6.566-3c-2.183-.633-4.547-1-7.016-1-2.41 0-4.72.369-6.859 1h13.875z" fill="#fff"/><defs><linearGradient id="paint0_linear" x1="10.418" y1="9.712" x2="68.147" y2="76.017" gradientUnits="userSpaceOnUse"><stop stop-color="#1A1E21"/><stop offset="1" stop-color="#06060A"/></linearGradient></defs></svg>