<!-- by TradingView --><svg width="56" height="56" xmlns="http://www.w3.org/2000/svg"><path fill="#1576D4" d="M0 0h56v56H0z"/><path d="M19.265 16c-6.414 0-8.223 5.444-8.223 8h5.675c0-.873.698-2.264 2.549-2.264 2.072 0 2.652 2.182 1.912 3.304-.74 1.122-8.45 7.73-9.746 9.975C10.136 37.259 12.348 41 15 41h17.22c-2.764-1.446-4.504-4.566-4.813-6H19.08s3.516-2.79 6.045-5.596c1.113-1.472 1.81-2.927 1.85-4.364.041-1.439-.014-2.85-.554-4.177-1.099-2.7-3.6-4.863-7.155-4.863z" fill="#fff"/><path d="M34 16h-6v17.145C28 35.95 30.368 41 36.043 41 42.113 41 44 35.763 44 33.145V16h-6v17.145c0 .855-.273 2.306-2 2.306-1.727 0-2-1.451-2-2.306V16z" fill="#fff"/></svg>