<!-- by TradingView --><svg width="56" height="56" xmlns="http://www.w3.org/2000/svg"><path fill="#F0F3FA" d="M0 0h56v56H0z"/><path d="M13.965 26.405L4 29.343v5.655h14V31" fill="#F25C29"/><path d="M19 35l32.873-.001V20L19 20.003V35zm18.547-2.473h-.8v-4.811h.8v4.811zm6.727-4.812v.603h.016c.24-.516.658-.697 1.234-.697.449 0 .967.181 1.142.62.275-.516.725-.62 1.174-.62.52 0 1.348.114 1.348 1.248v3.658h-.801v-3.332c0-.489-.135-.934-.78-.934-.302 0-.394.008-.607.179-.233.192-.272.67-.272.852v3.235h-.794v-3.332c0-.489-.136-.934-.778-.934-.248 0-.58.141-.695.324a1.39 1.39 0 00-.187.707v3.235h-.802v-3.81c0-.335-.017-.667-.047-1.002h.85zm-5.409 0h.789v3.342c0 .572.274.965.845.965.43 0 .962-.312.962-1.11v-3.197h.804v3.809c0 .338.017.671.05 1.003h-.854v-.583h-.03c-.26.441-.734.68-1.246.68-.864 0-1.32-.42-1.32-1.241v-3.668zm-2.17-2.066h.898v.835h-.897v-.835zm-3.872 2.066v.62h.04c.314-.54.685-.714 1.321-.714 1.057 0 1.324.62 1.324 1.574v3.332h-.804v-3.332c0-.517-.188-.934-.87-.934-.883 0-1.011.762-1.011 1.421v2.845h-.796v-3.81c0-.335-.019-.667-.044-1.002h.84zm-3.864 0h.803v.725h.02c.33-.732.743-.82 1.526-.82v.811l-.22-.029c-.069-.008-.133-.02-.212-.02-.892 0-1.114.658-1.114 1.31v2.835h-.803v-4.812zm-2.82-.094c1.404 0 1.756.753 1.756 2.348v.41h-2.768c0 1.339.372 1.605.99 1.605.55 0 .833-.43.862-.907h.879c-.012 1.06-.686 1.547-1.72 1.547-1.04 0-1.87-.306-1.87-2.425 0-1.414.167-2.578 1.87-2.578zm-5.59-1.972h4.24v.76h-1.676v6.118h-.89v-6.118h-1.675v-.76z" fill="#7A7A80"/><path d="M26.063 28.214c-.507 0-.926.235-.935 1.575h1.92c0-1.407-.4-1.575-.985-1.575z" fill="#7A7A80"/><path d="M4 28.363l5.263-5.375L18 27.694v-7.69H4" fill="#FAAD42"/></svg>