<!-- by TradingView --><svg xmlns="http://www.w3.org/2000/svg" width="56" height="56"><path fill="#1D4686" d="M0 0h56v56H0z"/><path d="M8 24h2.5a.5.5 0 000-1h-6a.5.5 0 000 1H7v8.5a.5.5 0 001 0V24zm8.5 3.8l3.5-4.7a.5.5 0 01.8.62L17 28.79v3.7a.51.51 0 11-1.02 0v-3.7l-3.94-5.07a.5.5 0 01.8-.61l3.65 4.7zm7.2-4.21a.88.88 0 00-1.7.29v8.62a.5.5 0 001 0v-8l2.83 8.03a.7.7 0 001.34 0L30 24.5v8a.5.5 0 001 0v-8.62a.88.88 0 00-1.7-.3l-2.8 8.07-2.8-8.06zM33 24a1 1 0 011-1h4.5a.5.5 0 010 1h-4a.5.5 0 00-.5.5v3h3.5a.5.5 0 010 1H34v3c0 .28.22.5.5.5h4a.5.5 0 010 1H34a1 1 0 01-1-1v-8zm12.26-1.8L50 25.37v5.76l-4.74 3.17L40 31.14v-5.78l5.26-3.16zm-4.76 8.66l4.74 2.84 4.26-2.83v-5.24l-4.26-2.83-4.74 2.84v5.22z" fill="#fff"/><path d="M47.26 24.45L52 27.62v5.76l-4.74 3.17L42 33.39v-5.78l5.26-3.16zm-4.76 8.66l4.74 2.84 4.26-2.83v-5.24l-4.26-2.83-4.74 2.84v5.22z" fill="#fff"/></svg>