<!-- by TradingView --><svg width="56" height="56" xmlns="http://www.w3.org/2000/svg"><path fill="#FC0101" d="M0 0h56v56H0z"/><path d="M43.053 36.96c-1.12-.076-2.308-.334-3.266-.705-.458-.177-.69-1.462-.704-1.908-.03-.94-.042-1.878-.09-2.817h1.018l.102.714c.381 2.665 1.641 3.764 4.284 3.764 1.756 0 3.044-.68 3.592-1.968.444-1.045.28-1.922-.252-2.927-.457-.715-.987-1.236-3.459-2.146a34.16 34.16 0 01-1.935-.772c-2.16-1.006-3.229-2.434-3.225-4.303.006-2.392 1.446-4.118 3.956-4.742.874-.218 3.003-.194 3.914.043.854.223 1.984.637 2.103.771 0 0 .177 2.966.246 3.885h-.814l-.179-.843c-.416-1.962-1.378-2.721-3.06-2.98-1.361-.21-3.011.276-3.66 1.078-.494.61-.658.813-.658 1.785 0 1.282.642 2.069 1.807 2.619 1.628.77 3.421 1.097 4.968 2.052 1.24.766 1.932 1.794 2.178 3.24.301 1.768-.236 3.66-1.618 4.851-1.265 1.091-2.827 1.475-5.248 1.31zm-30.505-.105c-2.738-.485-4.033-1.818-4.393-4.523-.056-.417-.155-2.929-.155-6.54V20H6v-1h6.796l-.027.995h-1.772l.002 5.17c-.033 6.767.05 7.856.687 9.06.629 1.19 1.576 1.783 3.386 1.783 2.054 0 3.098-.678 3.716-2.334.395-1.06.216-1.65.217-7.885V20H17.07l.026-1h4.91v1h-2v6.31c-.004 6.372-.079 6.76-.143 7.056-.469 2.15-1.575 2.884-3.498 3.364-.898.225-2.887.29-3.817.125zM23.005 36h2.002V20h-2v-1h8.94c1.434 0 2.829 1.122 3.378 2.128.473.868.618 1.955.398 2.97-.237 1.09-.725 1.761-1.704 2.343-.662.394-1.088.557-1.912.73-.379.081-.72.172-.76.203-.039.03.194.08.516.11 3.323.313 4.779 1.667 4.779 4.446 0 1.53-.39 2.508-1.36 3.402-.593.549-1.304 1.03-2.32 1.294-.649.17-.893.348-5.264.374h-4.693v-1zm8.053-.108c1.468-.356 2.45-1.298 2.776-2.662.206-.857.136-2.43-.138-3.1-.332-.815-.815-1.373-1.498-1.74s-1.255-.39-2.86-.39h-1.33v8.01h1.199c.926 0 1.515-.037 1.85-.118zm-.005-8.952c1.422-.428 2.252-1.741 2.238-3.544-.015-1.88-1.097-3.396-2.598-3.396h-2.685v7s2.6.074 3.045-.06z" fill="#fff"/></svg>