<!-- by TradingView --><svg xmlns="http://www.w3.org/2000/svg" width="56" height="56"><path fill="url(#a0pdvbyrp)" d="M0 0h56v56H0z"/><path d="M6.02 28.63L6.7 22h3.73l-.67 6.63C9.58 30.9 11.87 31 13.25 31c3.58 0 3.76-1.18 3.89-2.37l.65-6.63h3.77l-.64 6.63c-.44 5.05-5.4 5.37-8.31 5.37-6.23 0-6.75-3.43-6.59-5.37zM43.46 22H50l-.35 3h-6.19c-1.29 0-3.42.92-3.46 3.07-.04 2.14 1.55 2.93 2.6 2.93h6.46l-.32 3h-6.4c-5.39 0-6.66-4.05-6.28-6.42.74-4.56 5.33-5.58 7.4-5.58zm-7.63 0H23.37l-.33 3h12.45l.34-3zm-13.5 9h12.46l-.34 3H21.99l.33-3zm9.44-4.5H22.9l-.35 3h8.93l.3-3z" fill="#fff"/><defs><linearGradient id="a0pdvbyrp" x1="28" y1="0" x2="28" y2="56" gradientUnits="userSpaceOnUse"><stop stop-color="#71B51D"/><stop offset="1" stop-color="#5B9317"/></linearGradient></defs></svg>