<!-- by TradingView --><svg width="56" height="56" xmlns="http://www.w3.org/2000/svg"><path fill="#002E6E" d="M0 0h56v56H0z"/><path d="M12 21v9.51c0 2.204.756 3.178 2.518 3.178 1.846 0 2.482-.852 2.482-3.177V21h5v9.51c0 2.503-.521 3.879-1.94 5.107-1.418 1.229-3.211 1.802-5.49 1.802-2.278 0-4.228-.599-5.604-1.776C7.469 34.389 7 33.166 7 30.51V21h5zM35.999 26.4a4.008 4.008 0 00-1.462-1.618 3.894 3.894 0 00-2.075-.595c-2.485 0-4.354 2.032-4.354 4.756 0 3.156 1.844 4.928 4.642 4.928 1.824 0 3.249-.532 3.537-1.87H32v-4h9v.89c0 5.189-3.688 8.77-8.548 8.77-4.738 0-8.451-3.555-8.451-8.538a8.78 8.78 0 011.76-5.379 8.47 8.47 0 014.643-3.113 8.32 8.32 0 015.533.487 8.556 8.556 0 014.053 3.879L35.999 26.4zM48 21h-5v16h5V21z" fill="#fff"/></svg>