<!-- by TradingView --><svg width="56" height="56" xmlns="http://www.w3.org/2000/svg"><path fill="#005696" d="M0 0h56v56H0z"/><path d="M12.066 29.232c.375-1.74.766-3.484 1.133-5.232h1.849c-.378 1.788-.772 3.573-1.135 5.365-.093.471.017.979.492 1.196.344.157.707.202 1.083.153.95-.123 1.354-.912 1.548-1.749C17.42 27.313 18.204 24 18.204 24h1.811c-.354 1.733-.725 3.463-1.088 5.194-.288 1.371-1.035 2.503-2.485 2.835-1.025.238-2.207.18-3.16-.287-.97-.48-1.444-1.479-1.216-2.51zM35.516 28.215c.054.036.087.06.123.081.36.225.53.548.555.95.06.919-.19 1.831-.077 2.75 0 0-1.09.006-1.623.004-.172 0-.255-.058-.269-.227a2.452 2.452 0 01.007-.415c.037-.44.441-2.358-.318-2.358h-2.376l-.773 3.002h-1.71L30.83 24s2.736-.011 4.053 0c.387.002.775.035 1.14.172.742.28 1.154.806 1.251 1.56.149 1.165-.641 1.963-1.616 2.414-.042.018-.082.04-.141.07zm-3.64-.743c.909.216 2.192.255 3-.21.468-.275.64-.701.567-1.204-.09-.623-.744-.705-1.232-.705-.62 0-1.248-.019-1.863.063-.158.682-.313 1.365-.471 2.056zM43.566 32.002h-1.627l-.345-1.524H38.98l-.822 1.524h-1.803l4.255-7.998h1.52c.507 2.66 1.436 7.998 1.436 7.998zm-2.508-5.805C40.63 27.052 39.71 29 39.71 29h1.733l-.386-2.803zM27.804 25.5L26.37 32h-1.826l1.406-6.5h-2.534l.356-1.501h6.727l-.335 1.5h-2.36z" fill="#fff"/><path d="M18.727 32l1.811-8h1.77l-1.444 6.5h3.617l-.318 1.502L18.727 32zM12.786 23l.832-2h12.67c.516 0 1.08-.178 1.346-.63.236.33.336.63.78.63h13.942l.857 2H28.012c-.331 0-.514-.272-.702-.503-.29.353-.581.483-1.033.503H12.786zM14.145 20l1.375-2c3.867 0 7.694.002 11.56 0 .513 0 .91-.123 1.191-.58.298.447.641.58 1.156.58h11.057c.4.515 1.361 2 1.361 2H28.632c-.324 0-.507-.264-.692-.489-.213.233-.358.44-.697.489-4.285.016-8.813 0-13.098 0zM16.388 17s1.662-1.5 2.284-2c3.073 0 6.012.026 9.085 0 .468-.008.836-.102 1.077-.523.306.444.593.523 1.105.523h7.373c.615.512 2.292 2 2.292 2s-6.962-.003-10.265 0c-.405 0-.604-.358-.839-.641-.313.376-.647.64-1.13.64-3.544.003-10.982 0-10.982 0zM35.685 14H29.97c-.407 0-.617-.218-.85-.507-.248.507-.8.507-1.288.507h-7.536c1.494-.786 3.527-1.545 5.193-1.804a16.13 16.13 0 015.002-.002c1.67.261 3.692 1.02 5.193 1.806zM13.62 35l-.828-2.003h11.496c.516 0 1.08-.178 1.346-.63.236.33.336.63.78.63h16.829l-.878 2H26.012c-.331 0-.514-.272-.702-.502-.29.352-.581.482-1.033.502-4.447.001-6.21.003-10.658.003zM15.508 38l-1.328-2c3.867 0 6.027-.003 9.894-.005.513 0 .91-.123 1.19-.58.298.447.642.58 1.156.58 3.686 0 15.423.005 15.423.005l-1.335 2s-10.634-.005-14.882-.005c-.324 0-.507-.265-.693-.49-.212.234-.357.441-.696.49-4.285.016-4.443.005-8.729.005zM18.724 41.005l-2.298-2c3.072 0 4.28.027 7.353 0 .468-.008.836-.102 1.076-.523.306.444.594.523 1.105.523h13.626l-2.31 2s-8.612-.002-11.916 0c-.404 0-.604-.358-.838-.64-.313.375-.647.64-1.13.64-3.544.002-4.668 0-4.668 0zM20.282 42h2.746c.407 0 .842-.275 1.02-.56.073.427.63.56 1.118.56h10.54c-1.493.786-3.531 1.545-5.196 1.804a16.13 16.13 0 01-5.003.002c-1.67-.261-3.725-1.02-5.225-1.806z" fill="#fff"/></svg>