<!-- by TradingView --><svg width="56" height="56" xmlns="http://www.w3.org/2000/svg"><path fill="#02A0DE" d="M0 0h56v56H0z"/><path d="M16 13h-2v2h2v-2zM19 22h-2v2h2v-2zM19 17h-2v2h2v-2zM21 15h-2v2h2v-2zM21 20h-2v2h2v-2zM23 17h-2v2h2v-2z" fill="#fff"/><path d="M14 18h2v10h1v-2h2v4h2v-7h2v13.586s-.026 5.448 5 8.414c-5.165-.016-14-2.373-14-12.956V18z" fill="#fff"/><path d="M24.235 38s.59 4.752 5.547 6.984C34.338 44.984 42 40.982 42 31.002c0 0-2.71 12.743-17.765 6.998z" fill="#fff"/><path d="M33 38.285s6.942-.741 9.005-10.247V13.005s-9.005 0-9.005 5.77v19.51z" fill="#fff"/></svg>