<!-- by TradingView --><svg width="56" height="56" xmlns="http://www.w3.org/2000/svg"><path fill="#18479F" d="M0 0h56v56H0z"/><path d="M17.003 30.14c0 3.065-1.938 3.86-6.503 3.86-4.585 0-6.5-.79-6.5-3.855v-7.14h4.002v6.432c0 1.387.4 2.563 2.498 2.563 2.098 0 2.5-1.182 2.5-2.568V23h4.003v7.14zM18 23h7l3 7.702L31 23h6.996v11H34v-7.702L30 34h-4l-4-7.702V34h-4V23zm34 10.59c-1.17.198-2.499.41-4.593.41C43.298 34 39 32.478 39 28.5c0-3.66 3.328-5.5 8.407-5.5 1.568 0 3.116.24 4.593.542v2.27c-1.324-.499-2.586-.612-4-.612-2.915 0-5.003 1.34-5.003 3.3 0 2.064 1.998 3.296 5.003 3.296 1.344 0 2.873-.168 4-.471v2.266z" fill="#fff"/></svg>