<!-- by TradingView --><svg width="56" height="56" xmlns="http://www.w3.org/2000/svg"><path fill="#00B194" d="M0 0h56v56H0z"/><path d="M10 25l-.97 4.703C8.945 30.636 8.475 32 10.124 32c1.146 0 1.657-1.396 1.851-2.297L12.995 25l2.002.002-1.048 4.908c-.5 2.338-2.511 3.09-4.12 3.09-2.017 0-3.188-1.224-2.744-3.297L8 25h2zM15 27h2l-.18 1.017A2.98 2.98 0 0119.076 27c1.135 0 1.861.696 1.924 1.1.074.476-.128.99-.363 1.99L20 32.998h-1.998l.81-3.542c.056-.296.062-.633 0-.787-.102-.258-.286-.432-.72-.432-.368 0-.761.06-1.004.339-.136.15-.355.53-.45.979L15.994 33l-1.992-.002L15 27zM22 27h2l-1.413 6h-1.971L22 27zm.5-2h2l-.425 1.433h-1.973L22.5 25zM31.385 27h2l-1.414 6h-1.97l1.384-6zm.5-2h2l-.425 1.433h-1.974L31.884 25zM25.272 25h5.748l-.307 1.5h-3.848l-.34 1.5h3.46l-.321 1.5h-3.38l-.872 3.5h-1.986l1.846-8zM34 27l2.077.005-.203 1.16c.322-.507.766-1.232 2.126-1.16l-.3 1.568c-1.687-.165-2.01.735-2.165 1.479l-.515 2.95-2.02-.006L34 27zM39.231 31.01c-.053.36.055.955.756.955.599 0 .954-.238 1.025-.576.055-.26-.038-.564-.655-.743l-.978-.281c-.435-.135-1.504-.463-1.255-1.625.235-1.105 1.408-1.74 2.888-1.74 1.423 0 2.026 1.077 2.026 2h-1.57c.09-.63-.498-.923-.76-.923-.452 0-.783.145-.859.495-.082.383.194.486.662.621l.958.258c.978.281 1.567.901 1.4 1.678-.208.98-1.48 1.872-3.255 1.872-.734 0-1.402-.157-1.806-.7-.288-.393-.198-1.031-.151-1.301h1.575v.01zM46.759 32.832A6.2 6.2 0 0145.4 33c-1.71 0-1.634-.991-1.53-1.434L44.443 29h-.958l.238-1h.959L45 26.57l1.998-.57-.477 2h1.48l-.214 1h-1.505l-.463 2.238c-.101.485-.171.79.586.79.252 0 .383-.01.595-.03l-.241.834z" fill="#fff"/></svg>