<!-- by TradingView --><svg width="56" height="56" xmlns="http://www.w3.org/2000/svg"><path fill="url(#paint0_linear)" d="M0 0h56v56H0z"/><path d="M15 18.003h1V25c0 .396.262 1 1 1s1-.579 1-1v-6.997h1v6.617c0 1.735-1.023 2.38-2 2.38-.94 0-2-.645-2-2.38v-6.617zM12.996 29H14v6.83c0 .396.32 1.17.996 1.17.676 0 1.004-.75 1.004-1.17V29h.996v6.618c0 1.736-1.023 2.38-2 2.38-.94 0-2-.644-2-2.38V29zM21.014 22h.768c.54 0 1.216-.391 1.216-1.445 0-1.053-.788-1.555-1.283-1.555h-.701v3zM20 18.003h1.67c1.396 0 2.318.657 2.318 2.552 0 .758-.202 1.77-.855 2.199L24 27h-1.002l-.904-3.867h-1.08V27H20v-8.997zM41 33h.874C42.42 33 43 32.436 43 31.47S42.306 30 41.806 30H41v3zm-1-4h1.76c1.411 0 2.24.643 2.24 2.545 0 .76-.102 1.762-.761 2.193l.761 4.26h-1L42.273 34H41v3.998h-1V29zM26 26c.877 0 2-.17 2-1.502 0-1.333-1.168-1.51-2-1.498v3zm0-4c.731 0 2-.227 2-1.567 0-1.34-1.269-1.446-2-1.433v3zm-.97-3.997h1.809c.9 0 1.98.556 1.98 2.274 0 1.011-.405 1.795-1.305 2.01v.025c1 .265 1.462 1.048 1.462 2.186 0 1.643-.99 2.502-2.07 2.502H25.03v-8.997zM32 19l-.74 5H32.7L32 19zm-1.002-.997H33L33.998 27H33l-.301-2H31.26l-.262 2H30l.998-8.997zM35 18.003h1l2 5v-5h1.01V27H38l-2-6v6h-1v-8.997zM8 34.412C8 36.285 8.63 37 9.5 37s1.5-.715 1.5-2.588v-1.824C11 30.715 10.26 30 9.5 30S8 30.715 8 32.588v1.824zM9.5 29c1.513 0 2.5 1.082 2.5 4.5 0 3.417-.987 4.5-2.5 4.5S7 36.917 7 33.5c0-3.418.987-4.5 2.5-4.5zM19 30h-1.282v-1h3.568v1H20v8h-1v-8zM29 30h-1.295v-1h3.568v1H30v8h-1v-8zM33 30h-1.215v-1h3.567v1H34v8h-1v-8zM21.996 29h3.002v1H23v3h1.998v1H23v4h-1.004v-9zM26.995 29h-1v9h1v-9zM36 29h2.695v1H37v3h1.695v1H37v3h1.695v.998H36V29zM46 35c0 .488.147 2 .997 2S48 36.132 48 35.778c0-1.549-2.771-1.866-2.771-4.44 0-1.305.62-2.338 1.8-2.338 1.599 0 1.938 1.438 1.971 3h-1c0-.488-.248-2-1.003-2-.756 0-.756.862-.756 1.338 0 1.476 2.759 1.744 2.759 4.27 0 1.33-.664 2.39-1.918 2.39C45.23 37.998 45 36.324 45 35h1z" fill="#fff"/><defs><linearGradient id="paint0_linear" x1="10.418" y1="9.712" x2="68.147" y2="76.017" gradientUnits="userSpaceOnUse"><stop stop-color="#1A1E21"/><stop offset="1" stop-color="#06060A"/></linearGradient></defs></svg>