<!-- by TradingView --><svg xmlns="http://www.w3.org/2000/svg" width="56" height="56"><path fill="#F0F3FA" d="M0 0h56v56H0z"/><circle cx="28" cy="28" r="16" fill="#00044C"/><circle cx="28" cy="28" r="15" fill="url(#a4fqss0uz)"/><path d="M15.6 18.72l1.52-2.39L23.6 13l-3.67 18.24c-.33 1.9 1.21 2.33 2.02 2.3 2.38-.06 3.3-2.17 3.42-3.2L27.85 19h6.77l-2.53 11.2a10.27 10.27 0 01-4.25 6.95c-3.21 2.35-7.53 1.9-9.85 1.6-1.98-.22-3.68-3.46-4.29-5.05l-.53-2.6 2.43-12.38z" fill="#00044C"/><path d="M14.24 31.43l3.02-15.29a15.6 15.6 0 015.27-3.18l-3.6 17.86c-.2.82-.49 3.5 2.94 3.74 2.73.2 4.05-2 4.37-3.13L28.79 20h4.54l-2.48 10.82c-.49 2.05-1.15 3.8-4.06 5.84-2.9 2.04-7.66 1.35-9.49.53-2.46-1.1-3.3-4.25-3.06-5.76z" fill="#F0F3FA"/><path d="M31.24 39l3.3-15h5.94l-.15.74a5.27 5.27 0 012.32-1.07l.8 5.33h-1.81c-1.43-.1-2.32 2.06-2.59 3.17L37.54 39h-6.3z" fill="#00044C"/><path d="M32.5 38l2.84-13h3.68l-.56 2.6h.56a7.74 7.74 0 014.61-3.06c.29.72.4 2.55.4 3.46h-2.3c-2.56 0-3.63 3.25-3.93 4.76L36.62 38H32.5z" fill="#F0F3FA"/><defs><linearGradient id="a4fqss0uz" x1="20.59" y1="15.91" x2="37.38" y2="36.53" gradientUnits="userSpaceOnUse"><stop stop-color="#F3DE23"/><stop offset="1" stop-color="#DA8421"/></linearGradient></defs></svg>