<!-- by TradingView --><svg width="56" height="56" xmlns="http://www.w3.org/2000/svg"><path fill="#F0F3FA" d="M0 0h56v56H0z"/><path fill="#003777" d="M4 21h20.003v10H4z"/><path d="M16.592 28.345L18.882 23h.168l2.302 5.345a.691.691 0 00.648.418V29h-2.224v-.237c.6 0 .63-.279.57-.418L19.844 27h-2.157l-.57 1.345c0 .361.38.429.57.418V29H16v-.237a.661.661 0 00.592-.418zM15.389 23h.255l.167 2h-.245c-.346-1.236-1.233-1.645-1.633-1.62-.278.012-.842.184-.877.785-.036.6 1.074 1.28 1.633 1.545.444.174 1.328.762 1.31 1.72-.022 1.197-1.1 1.523-1.844 1.567-.744.043-1.188-.349-1.377-.349-.151 0-.263.204-.3.305h-.2L12 27h.278c.322 1.371 1.51 1.648 1.877 1.648s.9-.26.923-.968c.022-.708-1.056-1.306-1.59-1.59-.532-.282-1.188-.794-1.21-1.653-.023-.86.822-1.437 1.51-1.437.69 0 1.145.316 1.356.316.17 0 .234-.21.245-.316z" fill="#fff"/><path d="M17.794 26.693l.952-2.34 1.008 2.34h-1.96z" fill="#003777"/><path fill="#BB1547" d="M24.003 21h28v1.003h-28zM24.003 24h28v1h-28zM24.003 27h28v1h-28zM24.003 29.996h28V31h-28z"/><path d="M6 23.197V23h3v.197c-.626 0-1.003.387-1 .58v3.166c-.03.537-.079 1.615 1.237 1.637 1.317.021 1.581-1.082 1.549-1.637v-3.058c0-.58-.516-.7-.786-.688V23h2v.197c-.71 0-.836.459-.81.688v3.058c.065.689-.073 2.064-1.953 2.057-1.879-.007-2.263-1.26-2.237-1.887.003-.903.007-2.834 0-3.335-.007-.5-.748-.596-1-.581z" fill="#fff"/><path d="M6.828 32l.076 1.3h-.076c-.1-.389-.245-.67-.432-.84a.963.963 0 00-.673-.257.984.984 0 00-.596.195c-.177.128-.317.333-.42.615-.1.282-.15.633-.15 1.052 0 .346.047.646.143.9.096.254.24.448.432.584.194.135.414.203.661.203.215 0 .405-.053.569-.158.164-.107.345-.319.542-.635l.075.056c-.166.34-.36.59-.58.748A1.32 1.32 0 015.61 36c-.548 0-.972-.235-1.273-.705-.225-.35-.337-.762-.337-1.236 0-.381.074-.732.222-1.052.148-.32.351-.567.61-.742.26-.177.544-.265.852-.265.239 0 .475.068.707.203.069.041.117.062.147.062a.15.15 0 00.114-.053.469.469 0 00.09-.212h.086zM10.305 32c.429 0 .8.189 1.115.567.315.376.473.846.473 1.41 0 .582-.159 1.064-.476 1.448-.317.383-.7.575-1.152.575-.455 0-.838-.187-1.149-.561-.309-.375-.463-.859-.463-1.453 0-.607.179-1.103.536-1.487.311-.333.683-.499 1.116-.499zm-.047.206a.832.832 0 00-.712.38c-.223.317-.335.78-.335 1.389 0 .624.116 1.105.347 1.441.177.256.411.384.703.384.31 0 .567-.14.768-.42.204-.28.305-.723.305-1.326 0-.655-.111-1.143-.334-1.464a.856.856 0 00-.742-.384zM15.457 35.913l-1.278-3.22v2.557c0 .235.022.381.066.44.06.079.155.118.285.118h.117v.105h-1.151v-.105h.117c.14 0 .239-.049.297-.147.036-.06.054-.197.054-.411v-2.5a.999.999 0 00-.049-.366.285.285 0 00-.127-.136c-.06-.037-.157-.056-.292-.056v-.105h.937l1.2 2.993 1.181-2.993h.937v.105h-.115c-.141 0-.241.049-.3.147-.035.06-.053.197-.053.411v2.5c0 .235.022.381.068.44.06.079.155.118.285.118h.115v.105h-1.405v-.105h.117c.141 0 .24-.049.297-.147.036-.06.054-.197.054-.411v-2.556l-1.276 3.219h-.08zM20.208 34.121v1.114c0 .241.022.39.068.45.062.082.155.123.28.123h.127v.105h-1.417v-.105h.124c.14 0 .24-.053.3-.158.033-.058.05-.196.05-.414v-2.471c0-.241-.023-.39-.067-.45-.063-.082-.157-.123-.283-.123h-.124v-.105h1.213c.296 0 .529.036.7.108a1.012 1.012 0 01.608.95c0 .313-.09.566-.269.762-.177.196-.429.293-.754.293-.08 0-.166-.006-.259-.02a2.953 2.953 0 01-.297-.059zm0-.16c.086.018.162.032.229.042.067.01.124.014.17.014.17 0 .316-.075.438-.226.123-.152.185-.349.185-.59 0-.165-.03-.318-.088-.46a.666.666 0 00-.249-.318.646.646 0 00-.366-.107c-.083 0-.19.018-.32.053v1.592zM26.666 35.913h-.883l-1.12-1.789c-.083.004-.15.006-.203.006h-.068l-.076-.006v1.111c0 .241.023.39.068.45.062.082.155.123.279.123h.129v.105h-1.418v-.105h.125c.14 0 .24-.053.3-.158.034-.058.051-.196.051-.414v-2.471c0-.241-.023-.39-.068-.45-.064-.082-.158-.123-.283-.123h-.125v-.105h1.206c.351 0 .61.03.776.09.167.059.309.168.424.328a.926.926 0 01.176.567c0 .235-.067.439-.2.612-.132.173-.337.295-.615.367l.683 1.097c.156.252.29.42.403.502a.921.921 0 00.439.158v.105zm-2.35-1.967c.031 0 .058.001.08.003h.057c.315 0 .553-.079.712-.237a.81.81 0 00.242-.603c0-.24-.065-.433-.195-.581a.64.64 0 00-.513-.226 1.88 1.88 0 00-.383.053v1.591zM28.99 32.296v1.512h.728c.189 0 .315-.033.378-.099.085-.086.132-.238.142-.457h.09v1.332h-.09a1.654 1.654 0 00-.069-.358.329.329 0 00-.144-.155.647.647 0 00-.307-.057h-.727v1.261c0 .17.006.273.02.31a.18.18 0 00.067.088c.033.02.095.03.186.03h.561c.187 0 .323-.014.408-.044a.604.604 0 00.244-.178c.1-.117.204-.293.31-.528h.097l-.285.96h-2.55v-.105h.117a.415.415 0 00.222-.065.224.224 0 00.105-.135c.02-.06.03-.183.03-.37v-2.485c0-.242-.022-.392-.064-.448-.059-.076-.156-.113-.293-.113h-.117v-.105h2.55l.036.838h-.095c-.034-.201-.072-.34-.114-.414a.4.4 0 00-.183-.172c-.066-.029-.18-.043-.345-.043h-.907zM34.617 32v1.323h-.09a1.817 1.817 0 00-.159-.606.877.877 0 00-.756-.491c-.17 0-.31.06-.42.18a.579.579 0 00-.166.406c0 .117.035.223.105.32.1.14.34.328.72.563.309.192.52.34.632.443.114.102.2.222.26.361.063.14.093.285.093.438 0 .29-.097.54-.292.75a.976.976 0 01-.75.313c-.095 0-.186-.008-.27-.025a2.587 2.587 0 01-.315-.102 1.223 1.223 0 00-.3-.09.123.123 0 00-.098.042c-.023.028-.04.087-.051.175h-.09v-1.312h.09c.042.275.1.48.17.618.072.136.181.248.328.339.148.09.31.135.485.135.204 0 .364-.062.481-.186a.615.615 0 00.178-.44.66.66 0 00-.068-.285.807.807 0 00-.208-.268 5.777 5.777 0 00-.52-.358 5.19 5.19 0 01-.604-.44 1.158 1.158 0 01-.271-.361 1.01 1.01 0 01-.093-.435c0-.274.091-.51.273-.708a.9.9 0 01.696-.299c.175 0 .362.05.559.15a.52.52 0 00.192.07.133.133 0 00.103-.042c.027-.03.05-.09.066-.178h.09zM38.723 32v1.323h-.09a1.817 1.817 0 00-.159-.606.877.877 0 00-.756-.491c-.17 0-.31.06-.42.18a.579.579 0 00-.166.406c0 .117.035.223.105.32.1.14.34.328.72.563.309.192.52.34.632.443.114.102.2.222.26.361.063.14.094.285.094.438 0 .29-.098.54-.293.75a.975.975 0 01-.75.313 1.38 1.38 0 01-.27-.025 2.58 2.58 0 01-.315-.102 1.223 1.223 0 00-.3-.09.123.123 0 00-.098.042c-.023.028-.04.087-.051.175h-.09v-1.312h.09c.042.275.1.48.17.618.072.136.181.248.328.339.148.09.31.135.485.135.204 0 .364-.062.481-.186a.615.615 0 00.178-.44.66.66 0 00-.068-.285.807.807 0 00-.207-.268 5.801 5.801 0 00-.52-.358 5.2 5.2 0 01-.605-.44 1.158 1.158 0 01-.271-.361 1.01 1.01 0 01-.093-.435c0-.274.091-.51.273-.708a.9.9 0 01.696-.299c.175 0 .362.05.559.15a.52.52 0 00.192.07.133.133 0 00.103-.042c.027-.03.05-.09.066-.178h.09zM42.08 35.808v.105h-1.418v-.105h.117c.137 0 .236-.046.298-.138.039-.06.059-.205.059-.434v-2.471c0-.194-.011-.322-.032-.384a.244.244 0 00-.1-.121.415.415 0 00-.225-.068h-.117v-.105h1.418v.105h-.12c-.135 0-.233.046-.295.138-.04.06-.061.205-.061.434v2.471c0 .194.01.322.032.384a.24.24 0 00.102.121c.07.046.144.068.222.068h.12zM45.354 32c.43 0 .801.189 1.115.567.316.376.473.846.473 1.41 0 .582-.158 1.064-.475 1.448-.318.383-.702.575-1.152.575-.456 0-.839-.187-1.15-.561-.309-.375-.463-.859-.463-1.453 0-.607.179-1.103.537-1.487.31-.333.682-.499 1.115-.499zm-.047.206a.832.832 0 00-.712.38c-.223.317-.334.78-.334 1.389 0 .624.115 1.105.346 1.441.178.256.412.384.703.384.31 0 .567-.14.768-.42.204-.28.305-.723.305-1.326 0-.655-.11-1.143-.334-1.464a.856.856 0 00-.742-.384zM48.396 32.087h.898l2.023 2.87V32.75c0-.235-.023-.381-.069-.44-.06-.079-.155-.118-.285-.118h-.115v-.105H52v.105h-.117c-.14 0-.24.049-.298.147-.036.06-.053.197-.053.411v3.225h-.088l-2.182-3.08v2.355c0 .235.022.381.066.44.062.079.157.118.286.118h.117v.105h-1.152v-.105h.115c.141 0 .241-.049.3-.147.036-.06.053-.197.053-.411v-2.66a1.59 1.59 0 00-.22-.257.738.738 0 00-.216-.116.679.679 0 00-.215-.025v-.105z" fill="#000"/></svg>