<!-- by TradingView --><svg width="56" height="56" fill="none" xmlns="http://www.w3.org/2000/svg"><path fill="#F0F3FA" d="M0 0h56v56H0z"/><path fill-rule="evenodd" clip-rule="evenodd" d="M23 28.407V23h-2.005v5.294c0 3.345 1.512 4.706 3.895 4.706 2.543 0 4.11-1.466 4.11-4.664V23h-2v5.407C27 30.232 26.231 31 24.982 31 23.77 31 23 30.189 23 28.407zm9.625 2.74c-1.059 0-2.04-.343-2.678-.682l-.494 1.864c.606.339 1.806.671 2.997.671 2.895 0 4.097-1.46 4.097-3.018 0-1.482-.894-2.34-2.733-2.935a116.47 116.47 0 00-.254-.081c-1.181-.376-2.013-.642-2.013-1.226 0-.488.814-.912 1.806-.912 1.062 0 1.846.315 2.261.5l.54-1.796c-.662-.3-1.517-.532-2.761-.532-2.335 0-3.846 1.24-3.846 2.92 0 1.588 1.25 2.421 2.945 2.913 1.259.368 2.055.794 2.055 1.355 0 .635-.888.96-1.922.96zm6.836-.81L38.755 33h-2.208L39.516 23h2.813l3.108 10h-2.322l-.783-2.662H39.46zm2.524-1.743L40.9 24.64l-1.112 3.953h2.197zM44 25h3v8h2v-8h3v-2l-8 .002V25z" fill="#005AAB"/><path fill="#F0F3FA" d="M4.307 25.75h17.505v4.438H4.307z"/><path fill-rule="evenodd" clip-rule="evenodd" d="M4.187 27.5H9.71v1H4.187v-1zm11.988 0h5.523v1h-5.523v-1z" fill="#B62043"/><path fill-rule="evenodd" clip-rule="evenodd" d="M17.331 30.5A4.998 4.998 0 0113 33a4.998 4.998 0 01-4.331-2.5H4.003v-5h4.666A4.998 4.998 0 0113 23a4.998 4.998 0 014.331 2.5H22v5h-4.669zm.253-.5H21.5v-4h-3.916c.268.613.416 1.289.416 2 0 .711-.148 1.387-.416 2zm-9.168-4H4.5v4h3.916A4.983 4.983 0 018 28c0-.711.148-1.387.416-2zM13 23.906l.937 2.883H17l-2.485 1.781.937 2.883L13 29.672l-2.452 1.781.937-2.883L9 26.79h3.063L13 23.906z" fill="#005AAB"/></svg>