<!-- by TradingView --><svg xmlns="http://www.w3.org/2000/svg" width="56" height="56"><path fill="#F0F3FA" d="M0 0h56v56H0z"/><path d="M10 27.98L19.1 41l.8-.97-8.35-12 2.3-3.4 8.55 12.32.82-1-9.38-13.52L10 27.98z" fill="#A9ACB2"/><path d="M31.67 40l1.7-1.94L34.73 40h-3.05zm-3.1-8.94l2.17 3.15-4.8 5.79h-4.62l7.25-8.94zm.79-.95l3.16-3.83 6.63 9.56-2.92 4.2-6.87-9.93zM19.08 41h7.57l4.71-5.7.08-.09 1.2 1.73-.07.07L29.3 41H37l3.6-5.2-8.02-11.58L19.08 41z" fill="#514F50"/><path d="M16.94 20.1l2-2.95 6.56 9.48-.06.07-2.13 2.6-6.37-9.2zm7.6 3.06l.04-.05L30.4 16h3.82l-7.94 9.67-1.74-2.51zM19.63 16h4.95l-2.72 3.19L19.63 16zm13.95 2.87L36 15.75l8.55 12.29-2.31 3.34-8.66-12.5zm-4-3.87l-5.8 7.05-1.19-1.7L27 15h-8.02l-3.53 5.1 7.8 11.28 9.52-11.53L42.2 33.5 46 28l-9-13h-7.43z" fill="#B0A159"/></svg>