<!-- by TradingView --><svg width="56" height="56" xmlns="http://www.w3.org/2000/svg"><path fill="#F6F8FD" d="M0 0h56v56H0z"/><path d="M42.935 40.002c-1.005-.38-1.43-.535-1.43-.94 0-.357.355-.598 1.004-.598.79 0 1.382.226 1.724.383l.45-1.512c-.521-.226-1.206-.393-2.15-.393-1.639 0-2.733.5-3.081 1.54-.858-1.354-2.648-1.48-4.147-1.48-.944 0-1.62.059-2.305.178v2.13c-.466-1.486-1.917-2.308-3.877-2.308-1.812 0-3.109.72-3.66 2.2-.491-1.433-1.699-2.2-3.61-2.2-2.15 0-3.472 1.12-3.89 2.998H15v-1h3v-2h-5v8h2v-3h2.98c.325 1.802 1.623 3 3.742 3h.013c1.83 0 3.152-.923 3.7-2.475.507 1.443 1.737 2.475 3.57 2.475 1.908 0 3.493-1.007 3.995-2.68v2.5c.412.073 1.08.145 2.105.145 1.56 0 2.657-.299 3.53-.992.753-.593 1.354-1.623 1.38-3.21.389.366.924.655 1.561.887.899.308 1.252.524 1.252.917 0 .405-.353.657-1.087.657-.433 0-.858-.074-1.234-.18a4.017 4.017 0 01-1.14 1.445c-.014.012-.03.022-.045.033.463.232 1.365.466 2.29.466 2.326 0 3.388-1.18 3.388-2.564 0-1.121-.636-1.884-2.065-2.422zM21.83 43.486h-.024c-1.027 0-1.932-1.045-1.92-2.487 0-1.397.893-2.393 1.92-2.393 1.041 0 1.906.996 1.906 2.38 0 1.455-.855 2.5-1.882 2.5zm7.294-.036c-1.028 0-1.897-1.009-1.886-2.451 0-1.397.858-2.393 1.886-2.393 1.04 0 2.006.996 2.006 2.38 0 1.455-.978 2.464-2.006 2.464zM35 43.306v-4.888h.554c1.276 0 2.209.74 2.209 2.312 0 1.795-1.132 2.576-2.763 2.576z" fill="#EC4025"/><path d="M44.957 36C43.693 36 43 35.097 43 34.023c0-1.127.773-2.023 2.023-2.023 1.312 0 1.977.925 1.977 1.96 0 1.246-.786 2.04-2.037 2.04M37.885 21.955c-2.562-1.035-3.362-1.49-3.362-2.587 0-.97.904-1.976 2.562-1.976 2.047 0 3.555 1.006 4.43 1.394l1.143-4.654c-1.354-.647-3.074-1.49-5.515-1.49-3.374 0-5.844 1.649-7.138 3.63V13H24v13.087c0 3.459-.252 4.947-2.423 4.947-2.14 0-2.577-1.681-2.577-4.979V13h-6v12.602c0 6.984 2.601 10.248 8.177 10.248 5.694 0 8.828-3.395 8.828-10.118v-2.41c.918 1.343 2.424 2.344 4.413 3.093 2.29.842 3.194 1.456 3.194 2.492 0 1.095-.88 1.776-2.745 1.776-.975 0-2.14-.189-3.243-.507a12.126 12.126 0 01-.997 2.546 9.557 9.557 0 01-1.373 1.948c1.786.565 3.798.833 5.3.833 5.935 0 8.633-3.236 8.633-6.987 0-3.04-1.657-5.107-5.302-6.561z" fill="#558618"/></svg>