<!-- by TradingView --><svg width="56" height="56" xmlns="http://www.w3.org/2000/svg"><path fill="#F0F3FA" d="M0 0h56v56H0z"/><path d="M40.261 22.554c-3.75-.782-8.855-1.25-13.127-1.147 1.72-3.23 3.96-6.355 6.148-8.282l-.573-.416s-5.522 3.333-9.48 12.24l1.823.573c.417-.937.937-1.928 1.406-2.864 3.855-.053 9.325.364 14.065 1.302-5.157.885-14.638 3.282-20.159 15.314 0 0 .99-5.939 3.647-11.2.573.209 1.77.73 1.77.73l1.407-1.199c-3.699-1.77-7.917-2.865-12.45-3.49 0 0 3.022-.938 8.335-1.302l.78-1.302c-8.437.365-14.95 2.76-13.699 3.125 1.46.366 5.678.573 11.669 2.657-3.699 8.126-4.376 17.607-2.97 18.388 1.356.73 4.48-9.949 10.731-14.95 0 0 5.522 2.762 10.054 7.24.156-.207.365-.364.625-.468-2.5-3.23-5.938-6.252-9.115-7.865 2.344-1.615 6.72-3.282 10.939-4.22 1.664-.364 5.31-1.458-1.826-2.864z" fill="#325E9E"/><path d="M41.303 40.889c.729 0 1.25-.572 1.25-1.25 0-.729-.521-1.25-1.25-1.25-.678 0-1.25.52-1.25 1.25 0 .678.572 1.25 1.25 1.25zM34.687 12.5c.677 0 1.25-.52 1.25-1.25 0-.677-.572-1.25-1.25-1.25-.677 0-1.25.573-1.25 1.25s.573 1.25 1.25 1.25z" fill="#C64A4C"/></svg>