<!-- by TradingView --><svg width="56" height="56" xmlns="http://www.w3.org/2000/svg"><path fill="#71787E" d="M0 0h56v56H0z"/><path d="M21.156 13.486c.091.13-.267.396-.343.473a4.575 4.575 0 01-1.48 1.052c-.267.13-.541.252-.762.397-.542.305-1.198 1.03-1.427.93-.045-.137.069-.244.176-.343.33-.303.684-.579 1.06-.824.762-.625 2.608-1.83 2.776-1.685zM13.758 20.715c.084.077 0 .298 0 .458 0 .16-.107.35-.16.503-.107.32-.374.862-.526.832-.153-.03.42-1.83.686-1.793zM25.656 14.058c.099.282-.641.762-1.007 1.007-.366.244-1.068.877-1.304.58-.23-.435.404-.847-.183-1.328-.404-.335-1.297.13-1.327.679 0 .297.22.45.183.763-.038.312-.55.549-.817.701a4.75 4.75 0 00-1.433 1.053c-.26.297-.595.907-.84.763-.243-.145.107-.687.336-1.19.092-.206.283-.526.107-.618-.175-.091-.35.198-.465.366a4.515 4.515 0 00-.664 2.029c0 .374 0 .763.26.839.411.114.762-.328.976-.557.213-.229.465-.763.907-.58.305.145.183.84.138 1.122-.168 1.075-.16 1.845.42 2.516.297.351.762.565 1.029.862.323.349.58.752.763 1.19.114.282.228.816 0 1.053-.23.236-1.411.305-1.96.328-1.007.053-2.037-.122-2.464-.71a2.624 2.624 0 01-.374-1.609c.073-.628.104-1.26.092-1.892-.092-.762-1.053-.907-1.167-1.609-.03-.25.017-.503.137-.724.206-.39.534-.542.282-1.076-.251-.534-.762-.19-1.075.138a1.243 1.243 0 00-.305.884c0 .275.366.48.373.68.008.197-.29.586-.396.724a2.73 2.73 0 00-.58 1.281c0 .137-.06.45-.236.488-.29.069-.496-.35-.58-.442a1.174 1.174 0 01-.16-1.472c.198-.374.534-.671.542-.954a.938.938 0 01.228-.861 9.62 9.62 0 01.862-.595c.442-.32.885-.695 1.35-1.03.709-.53 1.477-.975 2.288-1.327a4.158 4.158 0 001.678-.93c.343-.397.496-.832.976-1.053.713-.22 1.481-.18 2.167.114.404.122 1.075.046 1.243.397z" fill="#fff"/><path d="M30.133 16.903c-.534-.16-.282-1.35-.35-2.029-.047-.465-.375-.763-.763-.42-.39.344-.397 1.297-.397 2.12a7.476 7.476 0 01-.214 2.335c-.099.282-.29.625-.42.907-.205.443-.472 1.076-1.097 1.03-.626-.046-.778-.87-1.091-1.258-.119-.16-.26-.301-.42-.42-.51-.366-1.144-.32-1.075-1.213a4.332 4.332 0 011.823-2.959 24.185 24.185 0 012.22-1.373c.099-.053.22-.13.373-.236 0 0 .305-.183.282-.305-.023-.122-.488-.107-.61-.069-.538.263-1.11.45-1.7.557a7.343 7.343 0 01-1.656-.183c-.526-.1-1.373-.221-1.35-.465.023-.245.664-.245 1.045-.267a8.54 8.54 0 002.38-.176c.175-.068.343-.26.51-.328.535-.22 1.892-.19 1.961 0 .069.19-.618.1-.557.466.061.366.587.434 1.06.29.71-.214.946 0 1.022.762.098.588.339 1.144.702 1.617.305.343 1.686 1.41 1.838 1.25.153-.16-1.48-1.433-1.525-2.287 0-.283.038-.496.22-.565.428-.16.847.214 1.03.511.184.298.191.671.374.976.267.443.893.763 1.259 1.19.386.377.613.887.633 1.427-.054.518-.84-.054-1.19-.237-.473-.244-1.114-.229-1.525-.442-.191-.115-.412-.572-.809-.572-.808-.107-1.624.473-1.983.366z" fill="#fff"/><path d="M40.468 19.519c-.1.214-.504.839-.618.969-.397.427.32.251.458.595.137.343 0 .709.198 1.022.45.846 1.03.434 1.434.587.404.152.373.64.396 1.12.023.481.115 1.328-.16 1.35-.274.024-.549-.762-.763-1.052-.213-.29-.556-1.067-1.143-.976-.588.092-.847.702-1.167 1.19-.32.488-.763 1.358-1.526 1.19a1.236 1.236 0 01-.862-1.35 3.96 3.96 0 01.534-1.259c.61-1.098 1.61-2.158 2.029-3.356.088-.278.126-.57.114-.861 0-.214-.175-.84-.534-.816-.358.022-.251.503-.327.861a5.422 5.422 0 01-1.22 2.304 9.15 9.15 0 01-1.168 1.212c-.38.455-.933.732-1.525.763-.488-.71.244-1.243.42-1.891.213-.763-.138-1.686-.885-1.747-.757-.03-1.4.548-1.45 1.304-.053.526.13 1.282-.19 1.526a.862.862 0 01-.763-.046 3.364 3.364 0 01-1.121-1.915c-.137-.404-.267-.686-.397-1.12a2.075 2.075 0 01-.091-1.282c.183-.542 1.113-.542 1.83-.442 1.419.198 2.166.907 3.242 1.525.358.214 1.61 1.014 2.006.397.228-.367 0-1.091-.115-1.472a9.436 9.436 0 00-1.96-3.356 6.354 6.354 0 00-3.401-1.9l-.763-.152c-.351-.076-.656-.16-.588-.244.07-.084.481 0 .763 0 1.047.212 2.07.532 3.051.953.374.129.728.308 1.053.534.145.13.114.298.236.42.282.274.8.252.908.534.045.13 0 .32 0 .465.16 1.129 1.472 1.396 2.288 1.914.41.289.759.654 1.03 1.076.35.442.83 1.228.747 1.426z" fill="#fff"/><path d="M13.918 33.934c.153-.115 0-.877-.213-.961-.214-.084-.519.084-.526.336-.008.251.541.77.74.625zM26.205 30.532c.557-.656 1.106-.633 1.243-.968.138-.336-.495-.45-.762-1.091-.42-.923-.084-1.525.442-1.815a1.815 1.815 0 012.288 2.471c-.076.114-.35.717.13 2.143.572 1.686 1.09.526 1.16.206.309-1.277.43-2.593.358-3.905a19.96 19.96 0 00-1.19-4.76c-.214-.7-.473-1.769-1.259-1.723-.785.046-.892 1.213-1.7 1.213-.992 0-1.198-1.427-2.03-1.678a.686.686 0 00-.304 0c-.763.122-.275 1.464-.138 1.869.366 1.098.824 1.792 1.121 2.822.195.56.275 1.154.237 1.746a4.44 4.44 0 01-.976 1.96c-.343.465-1.076 1.709-1.526 2.448-.51.87.054.84.305.763a6.1 6.1 0 002.601-1.7z" fill="#fff"/><path d="M20.324 37.701c.427 1 .816 1.41 1.35.923 1.976-1.792 1.693-2.288 2.288-3.05.397-.496 1.358-.58 1.876-1.099.581-.653.913-1.49.938-2.364-.099-.267-.427-.06-.442-.053-1.96 1.464-3.096 1.372-4.675 1.93-.305.106-.618.205-.923.335-.305.13-.534.228-.503.594a.892.892 0 01-.366.877c-.29.351.19 1.282.457 1.907zM17.48 32.797c.221-.22.656.054.953.374.178.252.425.448.71.565.366.137 1.205-.237 1.7-.45.809-.336.992-.992 1.267-1.808l1.136-3.394c.122-.358.114-.824-.114-.953-.397-.221-1.06.099-1.35.213-.29.115-.527.206-.816.328-.29.122-1.427.412-1.427.84 0 .281.816.182.862.54.046.36-.816.275-1.03.275-.625 0-.518-.854-.953-.885a1.15 1.15 0 00-.488.138.679.679 0 00-.404.618c0 .267.679.206.671.58 0 .243-.763.266-1.03.22-.633-.13-.305-1.32-.373-2.074 0-.397-.244-.519-.42-.763a7.078 7.078 0 01-.58-2.143 4.445 4.445 0 00-.533-1.281 4.27 4.27 0 00-.763-1.053c-.118-.1-.252-.18-.397-.236-.625-.122-.976.823-.839 1.449.134.39.305.765.511 1.121.2.365.363.748.489 1.144.052.713.052 1.43 0 2.143.045.687 1.03.671 1.006 1.03-.023.358-1.16.32-1.403.198-.244-.122-.267-.374-.298-.763-.03-.389 0-1.03-.045-1.586-.046-.396-.191-1.121-.534-1.098-.214 0-.328.473-.374.656-.046.183-.053.259-.084.381-.03.122-.046.404-.175.389-.13-.015-.092-.32-.092-.48.133-.59.303-1.172.511-1.74.054-.358 0-.709-.26-.678-.258.03-.228.48-.281.762a15.625 15.625 0 00-.183 3.86c0 .152 0 .305.045.457.048.45.122.895.222 1.335.052.262.131.517.236.763.114.22.282.663.671.335.236-.246.491-.473.763-.678a3.28 3.28 0 01.64-.183c.367-.107.214-.68.473-1.038a.824.824 0 011.183-.206c.325.281.41.751.206 1.13-.374.602-.923.503-1.045.594-.122.091 0 .389 0 .389s.213.763.29 1.014a5.865 5.865 0 002.509 2.937c.282.198.633.19.518-.313a5.407 5.407 0 00-.404-1.136 10.5 10.5 0 00-.618-1.076c-.091-.099-.473-.549-.259-.763z" fill="#fff"/><path d="M39.423 16.742c-.122.107-.58-.29-.832-.48a7.021 7.021 0 01-1.044-.816c-.054-.053-.145-.183-.061-.29.084-.107.267.061.35.115.31.205.598.44.862.701.26.237.831.565.725.77zM42.893 22.34c-.473.153-.71-.8-1.121-1.235a2.097 2.097 0 00-.885-.465c-.29-.1-.823-.298-.61-.656.244-.19.763.343.885.213.122-.13-.221-.762-.42-1.075-.198-.313-.61-1.06-.434-1.19.175-.13 1.167 1.251 1.632 2.052.238.385.457.782.656 1.19.152.358.473 1.098.297 1.166zM42.49 29.54c-.344-.09-1.274-.823-1.526-.258-.168.373 1.251 1.258 1.678 1.357.656.16 1.045-.808 1.29-.465a3.577 3.577 0 01-.428 1.525c-.221.168-.671 0-1.098.069-1.106.114-1.144 1.38-1.373 2.448-.047.467-.224.91-.511 1.282-.107.091-.763.259-.763.488 0 .381.992.038 1.121-.046.565-.404.763-1.731 1.236-2.448.137-.214.45-.557.763-.374.312.183-.199 1.296-.305 1.525-.41.926-.921 1.804-1.526 2.616-.381.527-.96 1.343-1.525 1.03a2.41 2.41 0 01-1.007-2.448c.153-.427.618-.557.633-1.076a1.625 1.625 0 00-.511-.976 16.64 16.64 0 01-.656-.839c-.458-.64-.93-1.083-1.35-1.61a5.576 5.576 0 01-1.052-1.936c-.29-.916-.717-2.548-.183-3.524a.9.9 0 01.678-.534c.42 0 .656.503.84.763.182.259.495.709.884.701.389-.007.992-.762 1.258-1.075.267-.313.832-1 1.45-.885.41.135.668.54.617.969-.068.816-1.403 1.045-2.006 1.525-.519.365-.808.976-.762 1.61.152 1.014 1.045 1.525 1.395 2.288.119.235.151.505.092.762-.046.176-.229.29-.397.443-.167.152-.373.305-.305.51.069.207.71 0 .84-.09a1.06 1.06 0 00.632-.764 3.334 3.334 0 00-.488-1.632c-.175-.396-.549-1.228-.26-1.723.192-.32.703-.443 1.19-.534.482-.02.958-.1 1.42-.237.494-.403.799-.995.838-1.632.1-.541.115-1.464.351-1.472.237-.008.26.862.305 1.327.206 2.037-.64 3.57-1.48 3.34zM37.043 41.05c.1.29-.557.519-.907.725-.428.275-.88.51-1.35.701-.763.252-1.335-.091-2.19.16-.343.1-1.212.366-1.327-.045-.114-.412.534-.908.68-1.145.548-.9.22-2.082.045-3.218a5.904 5.904 0 01.092-2.166c.137-.587.29-1.312.488-1.96.198-.649.572-2.006 1.525-1.823.497.172.95.45 1.327.816.244.214.648.602.61.976-.038.374-.389.465-.633.557-.244.091-.648.145-.724.465-.033.332.078.663.305.908.34.463.731.885 1.167 1.258.122.107.48.488.762.374.283-.114.061-.725 0-.885-.06-.16-.343-.564-.328-.839a.465.465 0 01.42-.42c.343 0 .618.329.763.634a6.1 6.1 0 01.533 2.22c.039.411.13 1.136-.068 1.372a2.96 2.96 0 01-1.655.397c-.763-.038-1.152-.71-1.77-.93-.297-.108-.61-.077-.656.114-.084.343.534.709.763.885.288.27.618.491.976.655.557.206 1.091-.045 1.152.214z" fill="#fff"/><path d="M16.092 36.45a5.2 5.2 0 01-2.037-1.723c-.244-.244-.404 0-.282.328.148.374.324.736.526 1.083.443.685.926 1.342 1.45 1.968.526.663.762.328.869.083.106-.288.183-.587.229-.892.015-.389-.222-.595-.755-.846zM30.607 43.422c0-.206.114-1.152.152-1.342a9.757 9.757 0 00-.107-2.876c-.137-.946-.434-1.647-.572-2.494a13.189 13.189 0 01-.13-2.143c0-.923-.64-.397-.953.1-1.098 1.715-2.12 1.791-2.562 2.524a9.412 9.412 0 01-3.494 3.195c-.473.267-1.937 1.06-2.898.542-.96-.519-1.144-2.197-1.136-2.784.007-.587-.618-.305-.809 0-.099.153-.274.35-.404.587-.48.87.297 1.526.534 1.785a6.75 6.75 0 002.692 1.808c.565.259 2.288.762 3.47-.557.542-.626.565-.93.855-1.243.595-.649 1.205-.366 1.601-.763.145-.137.061-.61.168-.9a.877.877 0 011.144-.473.93.93 0 01.366 1.259c-.396.762-.968.389-1.205.991-.053.35-.19 1.7.359 1.777.29.038 1.334-.435 1.48-.137.144.297-1.617 1.197-2.037 1.052-.42-.145-.587-1.128-.824-1.205-.114 0-.328.176-.595.527-.602.762.71 1.182.992 1.228.738.097 1.483.136 2.227.114.534 0 1.998-.114 2.029-.633.046-.374-.305.397-.343.06z" fill="#fff"/></svg>