<!-- by TradingView --><svg width="56" height="56" xmlns="http://www.w3.org/2000/svg"><path fill="#34A6F7" d="M0 0h56v56H0z"/><path d="M7 24v-1h6v1h-.883c-.94 0-1.145.846-1.117 1.279v6.177c0 1.131.217 3.48 3.308 3.544 3.091.065 3.72-2.157 3.692-3.3V24.98c0-.67-.497-.981-.773-.981H16v-1h5v1h-.868c-.74 0-1.085.648-1.132.981v7.178c.019 1.225-.526 3.711-4.692 3.841-4.166.13-5.355-2.508-5.308-3.841v-6.88c0-.973-.768-1.252-1.076-1.279H7z" fill="#fff"/><path d="M27 23h1.145v4H27c0-2.841-2.648-3-3-3-.352 0-1.925.08-2 1.595-.06 1.213 1.166 2.011 2.098 2.49 1.684.865 4.942 2.219 4.902 4.516C28.95 35.47 25.782 36 24.65 36c-1.343 0-2.023-.665-3.041-.665-.523 0-.627.374-.61.665h-1v-4h1c.302 2.903 2.42 3.107 3.651 3 .746-.046 2.248-.369 2.349-1.802.1-1.433-1.857-2.288-2.902-2.89-1.45-.835-4.157-1.883-4.097-3.978.075-2.618 2.539-3.33 3.896-3.33 1.514 0 1.519.372 2.527.565.474.09.593-.312.576-.565z" fill="#fff"/><path d="M34.385 23.004H29V24c.996 0 .998.893 1 1.422v.007c.008 2.672 0 7.286 0 8.607 0 .812-.37.964-1 .964v1h4v-1c-.852 0-.984-.413-1-.964V30c.65.195 1.901.284 2.385.284 1.26 0 3.668-.875 3.614-3.652-.06-3.054-2.449-3.628-3.614-3.628z" fill="#fff"/><path d="M32 28.855v-4.8c.477 0 3.92-.655 3.999 2.552.063 2.567-2.64 2.568-3.999 2.248z" fill="#34A6F7"/><path d="M44.402 15L41 15.614v.372h.434c.127-.01.409.031.521.29.112.259.047.634 0 .789L37 36h2c1.115-4.76 3.655-7.783 4.92-8.529.16-.118.59-.32 1.017-.177.428.142.36.737.274 1.017-.362 1.102-1.198 3.59-1.653 4.73-.568 1.424-.593 3.112.568 2.959.93-.122 2.303-1.634 2.874-2.37l-.37-.366c-.1.188-.464.684-1.118 1.173-.655.489-.656.003-.575-.3l1.694-4.682c.369-1.051.856-3.18-.921-3.455-1.79-.276-4.457 2.87-5.586 4.625L44.402 15z" fill="#fff"/></svg>