<!-- by TradingView --><svg width="56" height="56" fill="none" xmlns="http://www.w3.org/2000/svg"><path fill="#AD0818" d="M0 0h56v56H0z"/><path fill-rule="evenodd" clip-rule="evenodd" d="M8.161 23l-1.06 4.464c-.139.586-.135.966.013 1.142.177.209.757.402 1.703.394h.57c.603 0 1.492-.058 1.955-.502.24-.228.331-.557.42-.874.018-.068.037-.135.057-.2L12.869 23h-1.593l-1.161 4.892c-.123.514-.436.771-.94.771-.557 0-.711-.232-.573-.811L9.754 23H8.161zm3.86 5.49c-.087.332.1.51.56.51.465 0 .74-.178.829-.51.085-.327-.104-.49-.57-.49-.46 0-.734.163-.82.49zm2.009-.349l.163-.641h1.382l-.152.592c-.081.368.068.617.412.617.383 0 .684-.122.832-.54.157-.447.252-.931.335-1.401.038-.282-.046-.556-.251-.643-.295-.125-.61-.119-.924-.112-.303.006-.605.013-.89-.099-.304-.164-.056-1.302.001-1.562.101-.462.24-.782.42-.961.34-.342.83-.363 1.273-.383l.158-.008c.772 0 1.333.054 2.102.13l-.202.463-.573-.178-.024-.006c-.473-.105-.903-.201-1.312.159-.184.162-.322.45-.412.86-.11.504-.146.832-.107.983.038.152.187.227.446.227l1.084.065c.356.055.573.166.648.338.075.17.056.513-.057 1.027l-.041.191C18.147 28.163 17.967 29 17 29h-1.75c-.226 0-.391-.009-.499-.025a2.258 2.258 0 01-.385-.101.536.536 0 01-.316-.248c-.06-.111-.068-.274-.021-.485zm32.654-.641H45.3c-.017.067-.04.143-.066.223-.094.296-.208.654-.075.903.201.374.794.374 1.174.374h1.776c.966 0 1.146-.838 1.34-1.74l.041-.192c.113-.514.131-.857.056-1.027-.075-.172-.291-.283-.647-.338l-1.085-.065c-.259 0-.407-.075-.446-.227-.039-.151-.002-.479.108-.982.09-.412.227-.699.411-.861.41-.36.84-.264 1.313-.159l.024.006.572.178.203-.462c-.77-.077-1.33-.131-2.102-.131l-.158.008c-.444.02-.933.041-1.274.383-.178.179-.318.499-.419.96-.057.26-.306 1.399 0 1.563.283.112.586.105.889.099.314-.007.628-.013.924.112.204.087.288.361.25.643-.082.47-.177.954-.334 1.4-.148.419-.45.54-.832.54-.345 0-.494-.248-.412-.616l.152-.592zm-24.21 1.499L22 29l1.252-1.999.12-.192c.168-.25.293-.411.377-.484a.679.679 0 01.353-.142l.683-.183h-.651c-.214 0-.338-.142-.375-.458l-.31-2.54h1.67l.29 2.288 1.33-2.289.466-.001-1.721 2.982.363 3.016h-1.663l-.285-2.274L22.474 29zM26.33 29h1.505l.63-2.741 1.11-.025.975-.096c.302-.038.524-.134.665-.288.142-.155.259-.435.35-.841.019-.103.042-.213.068-.329.02-.09.04-.184.064-.285l.02-.093c.085-.377.223-1.007-.28-1.188-.29-.106-.574-.114-.879-.114H27.7l-1.371 6zm2.311-5.397h-.297l.06-.26h.192c.854 0 1.353.069 1.497.204.142.135.19.417.032 1.117-.132.586-.277.957-.434 1.112-.157.154-.474.224-.95.224h-.215l.43-2.006c.06-.273-.027-.391-.315-.391zm3.953 5.396H31L32.438 23h2.678c.797 0 1.28.073 1.448.219.167.146.175.54.023 1.184l-.17.718c-.118.5-.601.636-1.037.699l-.995.14.962.1c.191 0 .207.178.22.312.001.024.003.047.006.067L35.582 29h-1.333c-.268 0-.314-.305-.335-.518l.009-2.2c-.016-.165-.19-.282-.34-.282h-.263l-.727 2.999zm.53-5.382c.05.007.105.009.163.01.124.005.257.01.352.057.09.043.166.18.127.346l-.376 1.712h.203c.263 0 .483-.023.658-.076.35-.104.5-.28.582-.492.096-.247.129-.436.165-.646.02-.117.041-.24.075-.383.069-.293.046-.638-.282-.723-.182-.046-.661-.07-1.44-.07h-.164l-.063.265zM36.5 29h3.278l.29-.533c-.63.146-1.252.18-1.898.166l.572-2.45c.433-.063.93-.024 1.398.058l.114-.492c-.47.085-.938.126-1.433.126l.418-1.792c.062-.453-.171-.48-.504-.52l-.111-.013.054-.233c.827 0 1.706.038 2.53.116V23h-3.306L36.5 29zM9.581 30H50v1H10.516l-1.047 4H8.295l1.286-5zm-3.28 0h1.79l-1.31 5H5l1.3-5zm34.357-1.859l.163-.641h1.382l-.152.592c-.081.368.068.617.412.617.383 0 .684-.122.832-.54.157-.447.252-.931.335-1.401.038-.282-.047-.556-.251-.643-.295-.125-.61-.119-.924-.112-.303.006-.605.013-.89-.099-.304-.164-.056-1.302.001-1.562.101-.462.24-.782.42-.961.34-.342.83-.363 1.273-.383l.158-.008c.772 0 1.333.054 2.102.13l-.202.463-.573-.178-.024-.006c-.473-.105-.903-.201-1.312.159-.185.162-.322.45-.412.86-.11.504-.146.832-.108.983.04.152.187.227.447.227l1.084.065c.356.055.573.166.648.338.075.17.056.513-.057 1.027l-.041.192c-.194.902-.374 1.74-1.34 1.74h-1.75c-.597 0-1.39-.091-1.221-.859zm-22.044.35c-.086.33.1.509.561.509.465 0 .74-.178.828-.51.086-.327-.103-.49-.568-.49-.462 0-.735.163-.82.49z" fill="#fff"/></svg>