<!-- by TradingView --><svg xmlns="http://www.w3.org/2000/svg" width="56" height="56"><path fill="#005A9B" d="M0 0h56v56H0z"/><path d="M33.45 31H27.4l.75-3h2.83c1.27-2.83-.02-3.97-.88-4-3.06-.03-3.89 4.77-4.3 6.35-.42 1.58-.85 3.04-.32 3.92.58.98 4 .73 5.77.44L30.09 38H24.9a3.96 3.96 0 01-3.86-4.56c.19-1.06.8-3.72 1.87-6.57 1.44-3.8 5.07-6.12 8.05-5.85 3.5.32 3.94 2.4 4.03 4.01.06 1.3-1 4.5-1.55 5.97zm3.43-6L33 38h3.88l2.08-7h4.22l.9-3h-4.2l.7-2.52A1.96 1.96 0 0142.31 24h4.44L48 21h-5.68c-3.46 0-4.9 2.36-5.44 4z" fill="#fff"/><path d="M32.36 19.98c.2.28.31.63.34 1.05l1-.06a2.95 2.95 0 00-.53-1.58 3.38 3.38 0 00-2.4-1.28c-1.01-.14-2.21-.02-3.52.3-2.6.65-5.73 2.16-8.78 4.35a27.06 27.06 0 00-6.92 6.96 9.7 9.7 0 00-1.41 3.24c-.2 1-.1 1.95.43 2.7.79 1.1 2.26 1.45 3.93 1.32a17.5 17.5 0 005.91-1.78l-.42-.9c-2.1.99-4.03 1.56-5.56 1.68-1.56.12-2.57-.24-3.04-.9-.33-.45-.44-1.1-.27-1.93.16-.83.59-1.82 1.27-2.89a26.08 26.08 0 016.66-6.69 25.95 25.95 0 018.44-4.18c1.23-.31 2.3-.4 3.14-.29.84.12 1.4.42 1.73.88z" fill="#FFC95B"/><path d="M12.37 24.8a26.05 26.05 0 006.67 6.67c.43.32.87.61 1.3.9l-.54.84c-.45-.3-.9-.6-1.34-.92a27.04 27.04 0 01-6.93-6.96 9.68 9.68 0 01-1.42-3.23c-.2-1-.1-1.95.44-2.7a3.35 3.35 0 012.34-1.28 9.27 9.27 0 013.4.25c2.53.6 5.56 2 8.54 4.08l-.57.82a25.24 25.24 0 00-8.2-3.92 8.3 8.3 0 00-3.02-.24c-.81.12-1.36.43-1.67.87-.33.45-.44 1.1-.27 1.93.16.83.59 1.81 1.27 2.89z" fill="#FFC95B"/></svg>