<!-- by TradingView --><svg width="56" height="56" xmlns="http://www.w3.org/2000/svg"><path fill="#F0F3FA" d="M0 0h56v56H0z"/><path d="M8 33H7v4h3v-1H8v-3zM48 36h-2v1h3v-4h-1v3zM7 20v4h1v-3h40v3h1v-4H7zM4 28.813V26h1v2.785C5 29.587 5.384 30 6 30s1-.4 1-1.181V26h1v2.778C8 30.268 7.22 31 5.987 31 4.754 31 4 30.262 4 28.813z" fill="#104C10"/><path d="M10.004 26H11l2 3v-3h1.003v5H13l-2-3v3h-.997v-5zM16 26h1v5h-1v-5z" fill="#3A8C4D"/><path d="M18.997 26H20l1.5 4 1.5-4h.997L22 31h-1l-2.003-5zM26 26h4v.979h-3V28h3.004v1H27v1h3.004v1H26v-5z" fill="#104C10"/><path d="M32 26.003h2.116a1.75 1.75 0 01.726.11c.232.086.444.222.622.397.272.314.415.737.397 1.157a1.58 1.58 0 01-.245.943c-.179.28-.44.492-.747.605L36 31h-1.13l-1.037-1.599H33V31h-1v-4.997zm2.05 2.427c.495 0 .78-.285.78-.706v-.015c0-.47-.304-.713-.8-.713H33v1.434h1.05zM37 30.224l.657-.757c.404.363.921.514 1.487.531.455 0 .856-.114.856-.4 0-.27-.184-.467-1.029-.676-1.018-.25-1.971-.476-1.971-1.441 0-.882.938-1.48 1.971-1.48a3.001 3.001 0 011.877.619l-.577.805c-.372-.282-.789-.395-1.271-.425-.426 0-.997.019-.997.48 0 .463.5.396 1.373.611 1.025.257 1.624.543 1.624 1.39 0 .965-.765 1.52-1.856 1.52A3.29 3.29 0 0137 30.224zM44.022 26h.957L47 31H46l-.442-1h-2.094L43 31h-1l2.022-5zm1.165 3l-.687-2-.666 2h1.353zM48 26h1v4h2v1h-3v-5z" fill="#3A8C4D"/><path d="M11.036 35h.425v2h-.425v-2zM12.129 35h.367l.846 1.231V35h.393v2h-.338l-.876-1.272V37h-.392v-2zM14.213 36.685l.235-.302a.803.803 0 00.54.235c.164 0 .262-.069.262-.182v-.006c0-.108-.062-.163-.365-.246-.364-.1-.6-.207-.6-.592v-.005a.596.596 0 01.19-.435.574.574 0 01.444-.15c.246-.003.485.085.673.247l-.207.321a.817.817 0 00-.471-.191c-.153 0-.233.075-.233.169v.005c0 .128.078.17.39.255.368.102.575.243.575.58v.006a.608.608 0 01-.197.455.586.586 0 01-.468.146c-.286 0-.56-.111-.768-.31zM16.079 36.124V35h.389v1.113c0 .32.144.486.381.486.238 0 .382-.16.382-.472V35h.389v1.11a.815.815 0 01-.186.641.733.733 0 01-.268.195.696.696 0 01-.322.052.686.686 0 01-.317-.051.722.722 0 01-.264-.192.803.803 0 01-.184-.631zM18.265 35.001h.792a.617.617 0 01.271.044c.087.035.167.089.233.159.102.125.155.29.149.457v.006a.665.665 0 01-.092.377.576.576 0 01-.28.242l.424.714h-.445l-.371-.64h-.3V37h-.38v-1.999zm.767.971a.235.235 0 00.11-.009.25.25 0 00.095-.059.282.282 0 00.065-.097.305.305 0 00.022-.117v-.006c0-.189-.114-.286-.3-.286h-.378v.574h.386zM20.829 35h.38l.805 2h-.432l-.171-.445h-.794l-.172.445h-.42l.804-2zm.434 1.169l-.25-.644-.248.644h.498zM22.375 35h.384l.887 1.231V35h.412v2h-.355l-.917-1.272V37h-.41v-2zM24.392 36.006V36a.947.947 0 01.269-.704.974.974 0 01.702-.295.95.95 0 01.734.298l-.26.312a.67.67 0 00-.477-.218.576.576 0 00-.399.188.56.56 0 00-.141.414V36a.553.553 0 00.14.416.57.57 0 00.4.191.663.663 0 00.49-.226l.26.273a.93.93 0 01-.763.345.98.98 0 01-.691-.297.95.95 0 01-.264-.696zM26.649 35H28v.392h-.96v.405h.845v.392h-.845v.42h.973V37h-1.365v-2zM30.004 35h.428v.791h.789V35h.427v2h-.427v-.803h-.789V37h-.428v-2zM32 35.999v-.006c0-.262.103-.515.29-.7a.999.999 0 011.702.695v.005a.985.985 0 01-.609.93 1 1 0 01-1.31-.541.986.986 0 01-.073-.383zm1.561 0v-.006a.58.58 0 00-.341-.563.591.591 0 00-.227-.053.58.58 0 00-.53.383.57.57 0 00-.032.228v.005a.578.578 0 00.341.564c.071.032.148.05.227.053a.582.582 0 00.53-.384.571.571 0 00.032-.227zM34.51 35h.428v1.6h.948v.4H34.51v-2zM36.202 35h.713a.9.9 0 01.693.279 1.006 1.006 0 01.278.716V36a1.009 1.009 0 01-.278.718.906.906 0 01-.694.281h-.712v-1.998zm.402.398v1.204h.31a.516.516 0 00.404-.17.56.56 0 00.148-.426V36a.58.58 0 00-.147-.428.538.538 0 00-.404-.174h-.31zM38.414 35h.439v2h-.44v-2zM39.29 35h.385l.892 1.231V35h.413v2h-.356l-.922-1.272V37h-.413v-2zM41.336 36.006v-.005a.937.937 0 01.28-.703 1.032 1.032 0 01.717-.296 1.047 1.047 0 01.747.264l-.264.323a.685.685 0 00-.497-.196.597.597 0 00-.4.193.557.557 0 00-.145.409V36a.549.549 0 00.15.428.585.585 0 00.425.185c.141.004.28-.036.394-.116v-.276h-.42v-.367h.825v.84a1.223 1.223 0 01-.813.306 1.008 1.008 0 01-.724-.286.914.914 0 01-.275-.708zM43.519 36.685l.244-.302c.15.145.35.229.56.235.168 0 .27-.069.27-.182v-.006c0-.108-.065-.163-.378-.246-.377-.1-.621-.207-.621-.592v-.005a.578.578 0 01.196-.435.599.599 0 01.46-.15c.255-.003.502.085.696.247l-.214.321a.863.863 0 00-.487-.191c-.158 0-.241.075-.241.169v.005c0 .128.08.17.404.255.38.102.594.243.594.58v.006a.589.589 0 01-.204.455.612.612 0 01-.484.146c-.295 0-.58-.111-.795-.31z" fill="#7F7F7F"/></svg>