<!-- by TradingView --><svg width="56" height="56" xmlns="http://www.w3.org/2000/svg"><path fill="#8B572A" d="M0 0h56v56H0z"/><path d="M38.223 22h-20.44l-.392 1h21.284l-.452-1zM39.29 27.5H16.743l-.433 1h23.478l-.498-1zM38.226 33h-20.24l-.124 1h20.364v-1z" fill="#fff"/><path d="M20.053 16.076c.505-.223.773.005.87.185.176.33-.21.574-.326.632-2.127 1.05-6.312 4.763-6.597 10.773-.285 6.01 4.282 10.192 6.597 11.517.073.102.32.342.145.6-.175.256-.532.233-.69.19-1.605-1.112-7.198-4.593-7.05-12.307.15-7.714 6.42-11.311 7.05-11.59zM35.919 16.093c-.508-.224-.776.004-.873.184-.177.33.21.574.326.632 2.136 1.049 6.337 4.76 6.624 10.766.286 6.006-4.299 10.185-6.624 11.508-.073.103-.32.342-.145.6.175.256.534.233.692.19 1.613-1.112 7.228-4.59 7.078-12.298-.15-7.709-6.444-11.304-7.078-11.582z" fill="#fff"/><path d="M12.265 20.182c.268-.33.62-.137.761 0 .232.252.19.54.14.653-3.85 7.946-.078 15.098 0 15.244v.002c.047.089.242.339-.14.741-.307.322-.636.134-.761 0-4.154-8.72-.336-16.228 0-16.64zM43.744 20.182c-.269-.33-.62-.137-.762 0a.623.623 0 00-.14.653c3.85 7.946.078 15.098.001 15.244v.002c-.048.089-.243.339.14.741.306.322.635.134.76 0 4.154-8.72.336-16.228 0-16.64zM8.258 24.397a.488.488 0 01.525-.395c.36.07.442.478.438.673-.544 3.72 0 6.513 0 6.748 0 .235-.156.54-.494.575-.272.028-.426-.276-.469-.431-.525-4.492-.103-6.731 0-7.17zM47.742 24.397a.488.488 0 00-.525-.395c-.36.07-.442.478-.438.673.544 3.72 0 6.513 0 6.748 0 .235.155.54.494.575.271.028.426-.276.469-.431.525-4.492.103-6.731 0-7.17z" fill="#fff"/><path fill-rule="evenodd" d="M28.035 39c6.097 0 11.034-4.928 11.034-11s-4.937-11-11.034-11S17 21.928 17 28s4.938 11 11.035 11zm0 1c6.646 0 12.034-5.373 12.034-12s-5.388-12-12.034-12C21.388 16 16 21.373 16 28s5.388 12 12.035 12z" fill="#fff"/><path fill-rule="evenodd" d="M33.639 35.883c1.493-1.982 2.447-4.766 2.447-7.883s-.953-5.901-2.447-7.884C32.145 18.135 30.157 17 28.043 17s-4.102 1.135-5.596 3.116C20.953 22.1 20 24.883 20 28s.953 5.901 2.447 7.883C23.941 37.865 25.93 39 28.043 39s4.102-1.135 5.596-3.117zM28.043 40c4.994 0 9.043-5.373 9.043-12s-4.049-12-9.043-12C23.049 16 19 21.373 19 28s4.049 12 9.043 12z" fill="#fff"/><path fill-rule="evenodd" d="M30.44 36.107c.826-2.024 1.36-4.89 1.36-8.107 0-3.217-.534-6.083-1.36-8.107-.415-1.015-.883-1.77-1.352-2.255-.465-.483-.867-.638-1.188-.638-.32 0-.722.155-1.188.638-.468.485-.936 1.24-1.35 2.255C24.533 21.917 24 24.783 24 28c0 3.217.534 6.083 1.361 8.107.415 1.015.883 1.77 1.351 2.255.466.483.868.638 1.188.638.321 0 .723-.155 1.189-.638.468-.485.936-1.24 1.35-2.255zM27.9 40c2.707 0 4.9-5.373 4.9-12s-2.193-12-4.9-12c-2.706 0-4.9 5.373-4.9 12s2.194 12 4.9 12z" fill="#fff"/><path d="M27.5 39.837V16.05h1v23.786h-1z" fill="#fff"/></svg>