<!-- by TradingView --><svg xmlns="http://www.w3.org/2000/svg" width="56" height="56"><path fill="#F0F3FA" d="M0 0h56v56H0z"/><path d="M44 22.32c.08 2.14-1.5 4.04-2.31 4.72.29-.9-.14-2.6-.42-3.08-2.36-4.83-6.17-5.44-8.64-5.6-2.47-.15-9 .46-8.9 4.88.08 3.54 5.07 5.62 7.56 6.22-12.55-1.15-15.42-6.58-15.28-9.15-.05-2.58 2.3-7.66 12.1-7.3 12.24.47 15.79 6.64 15.9 9.3z" fill="#5D9732"/><path d="M17.37 38.17c.18-4.73 2.8-8.6 4.1-9.94-1.37 3.31-2.71 9.82 2.84 9.37 6.94-.57 9.08-7.5 9.27-10.73.14-2.28-1.08-3.64-1.7-4.04 4.13.5 4.95 4.66 4.85 6.55-1.2 12.78-10.85 15.37-13.45 15.6-1.87.17-6.14-.9-5.91-6.81z" fill="#005568"/></svg>