<!-- by TradingView --><svg xmlns="http://www.w3.org/2000/svg" width="56" height="56"><path fill="url(#agvgz02v2)" d="M0 0h56v56H0z"/><path d="M42.5 33.5l4.5-6.43L48 36h2l-1.63-15-5.87 9-5.87-9L35 36h2l1-8.93 4.5 6.43zM6 21h2v8.73C8 31.82 9.18 34 12 34c2.82 0 4-2.17 4-4.27V21h2v8.96c0 3.52-2 6.04-6.02 6.04S6 33.46 6 29.94V21zm13 0h2l3 8.5 3.5-8.5 3.5 8.5 3-8.5h2l-5 15-3.5-9.7L24 36l-5-15z" fill="#fff"/><defs><linearGradient id="agvgz02v2" x1="49.39" y1="10.08" x2="8.03" y2="47.99" gradientUnits="userSpaceOnUse"><stop stop-color="#00609E"/><stop offset="1" stop-color="#009E99"/></linearGradient></defs></svg>