<!-- by TradingView --><svg width="56" height="56" xmlns="http://www.w3.org/2000/svg"><path fill="#6D6F73" d="M0 0h56v56H0z"/><path d="M12 27l-1.7 3h-.6L8 27h.584L10 29.5l1.416-2.5M13.14 30h-.565l1.648-3h.65l1.646 3h-.564l-1.403-2.572M21.006 27.735l-.442.153c-.297-.305-.712-.458-1.247-.458-.405 0-.735.1-.99.301a.935.935 0 00-.383.767c0 .32.126.58.379.776.252.197.593.296 1.022.296.518 0 .926-.155 1.223-.466l.417.223c-.21.238-.449.409-.714.514a2.581 2.581 0 01-.954.159c-.519 0-.95-.125-1.292-.376-.392-.286-.587-.662-.587-1.126 0-.457.198-.83.595-1.119.345-.252.773-.379 1.284-.379.734 0 1.297.245 1.689.735zM22.569 30h-.573l1.671-3h.659l1.67 3h-.572L24 27.428M30.004 27.447h-1.499V30h-.52v-2.553h-1.499V27h3.518M31.549 30h.464v-3h-.464v3zM37.364 27.383C36.997 27.128 36.542 27 36 27c-.539 0-.995.128-1.367.383-.425.292-.637.664-.637 1.117 0 .461.21.835.628 1.121.367.253.826.379 1.376.379.544 0 1-.125 1.367-.375.419-.287.628-.661.628-1.125 0-.453-.21-.825-.632-1.117zm-.303 1.89c-.265.198-.619.297-1.06.297-.444 0-.8-.098-1.066-.294a.918.918 0 01-.4-.776c0-.31.136-.566.408-.767.273-.202.625-.303 1.058-.303.395 0 .727.088.993.265.31.206.464.474.464.805a.922.922 0 01-.397.773zM42.852 30h-.645l-2.39-2.46V30H39.3v-3h.644l2.39 2.462V27h.52M47.554 27.743a2.648 2.648 0 00-1.25-.324c-.282 0-.498.034-.648.102-.15.07-.225.164-.225.285 0 .126.08.219.24.277.115.042.301.071.56.087.382.026.633.047.755.063.346.048.601.136.766.265.165.13.248.312.248.55a.79.79 0 01-.389.703c-.259.166-.631.249-1.117.249-.703 0-1.25-.16-1.642-.482l.251-.344c.432.274.897.41 1.395.41.323 0 .573-.045.751-.138.17-.089.255-.212.255-.367 0-.182-.112-.303-.335-.364-.117-.031-.432-.064-.945-.098-.455-.032-.774-.096-.957-.19-.213-.11-.32-.297-.32-.558 0-.269.121-.48.364-.636.242-.156.585-.233 1.027-.233.595 0 1.093.14 1.494.423M18.572 23h-.573l-1.422-2.572L15.143 23h-.572l1.67-3h.659l1.67 3zM31.488 23h.525v-3h-.525v3zM36.001 23c-.55 0-1.01-.126-1.376-.379-.418-.286-.628-.66-.628-1.121 0-.453.213-.826.637-1.117.372-.255.828-.383 1.367-.383.542 0 .996.128 1.363.383.421.291.632.664.632 1.117 0 .463-.21.839-.628 1.125-.367.25-.822.375-1.367.375zm0-2.57c-.433 0-.786.1-1.058.302-.272.202-.408.458-.408.768 0 .32.133.579.4.775.266.197.621.295 1.066.295.441 0 .795-.099 1.06-.297a.923.923 0 00.398-.773c0-.33-.155-.599-.465-.805-.267-.177-.597-.265-.993-.265zM41.338 23h-.525v-2.552h-1.514V20h3.553v.448h-1.514V23zM46.486 23h-.525v-2.552h-1.514V20H48v.448h-1.514V23zM28 25.129s18.804-.018 20-.14c-1.155-.14-20-.14-20-.14s-18.804.018-20 .14c1.155.14 20 .14 20 .14zM28 32.129s18.804-.017 20-.14c-1.155-.139-20-.139-20-.139s-18.804.017-20 .14c1.155.139 20 .139 20 .139zM12.996 23h-.583l-.794-2.512-.79 2.512h-.662l-.791-2.517L8.583 23H8l1.033-3h.678l.787 2.505.787-2.505h.67l1.041 3zM23.593 23h-.61l-.858-1.143h-.004v-.448h.3c.405 0 .607-.155.607-.464 0-.332-.218-.497-.656-.497h-1.847V23H20v-3h2.499c.332 0 .594.085.783.255.19.17.285.4.285.69 0 .254-.078.459-.232.613-.143.144-.34.235-.591.274L23.593 23zM29.267 23h-.61l-.858-1.143h-.003v-.448h.298c.406 0 .608-.155.608-.464 0-.332-.218-.497-.656-.497H26.2V23h-.525v-3h2.499c.333 0 .594.085.783.255.19.17.285.4.285.69 0 .254-.078.459-.232.613-.143.144-.34.235-.591.274L29.267 23zM11.963 37h-.678l-.787-2.508L9.711 37h-.67L8 33.996h.583l.794 2.516.79-2.516h.662l.791 2.52.793-2.52h.583L11.963 37zM16.004 37c-.55 0-1.01-.127-1.376-.38-.42-.286-.628-.66-.628-1.122 0-.453.212-.826.636-1.118.373-.256.829-.384 1.368-.384.542 0 .996.128 1.364.384.421.292.632.664.632 1.118 0 .464-.21.84-.628 1.127-.367.25-.823.375-1.368.375zm0-2.573c-.433 0-.786.1-1.058.303-.272.202-.409.458-.409.768 0 .32.134.58.4.776.267.197.623.296 1.067.296.441 0 .795-.1 1.06-.297a.924.924 0 00.398-.775c0-.33-.155-.6-.464-.805-.267-.178-.598-.266-.994-.266zM22.622 37h-.612l-.859-1.145h-.003v-.448h.3c.405 0 .608-.155.608-.464 0-.333-.219-.498-.657-.498H19.55V37h-.525v-3.004h2.501c.333 0 .594.085.784.256.19.17.285.4.285.69 0 .255-.077.46-.232.614-.143.144-.34.235-.591.274l.85 1.17zM26.664 37.004h-2.95V34h.52v2.556h2.43v.448zM29.8 37.004h-2.216v-3h2.11c.581 0 1.041.139 1.38.416.34.278.51.65.51 1.117 0 .428-.18.785-.54 1.07-.334.264-.749.397-1.243.397zm-1.663-2.552v2.104h1.71c.332 0 .604-.096.818-.288a.956.956 0 00.32-.743.977.977 0 00-.343-.778c-.23-.197-.53-.295-.901-.295h-1.604zM35.966 37h-.678l-.788-2.505L33.712 37h-.67L32 34h.584l.794 2.512.79-2.512h.664l.791 2.517.794-2.517H37l-1.034 3zM37.996 37h.49v-3h-.49v3zM42.217 37H40v-3h2.11c.581 0 1.041.139 1.38.417.34.277.51.65.51 1.116 0 .428-.18.785-.54 1.07-.334.264-.749.397-1.243.397zm-1.664-2.552v2.104h1.71c.332 0 .604-.096.818-.288a.956.956 0 00.32-.743.976.976 0 00-.344-.778c-.228-.197-.529-.295-.9-.295h-1.604zM48 37h-3.148v-3h3.031v.448H45.35v.77h1.76v.448h-1.76v.887H48V37z" fill="#fff"/></svg>