<!-- by TradingView --><svg xmlns="http://www.w3.org/2000/svg" width="56" height="56"><path fill="#036DB3" d="M0 0h56v56H0z"/><path d="M28.54 27.9c.3.9.58 1.85.86 2.86 4.4-10.7 8.17-13.4 9.99-14a16.3 16.3 0 00-1.31-1.19c-1.66.44-5.14 2.8-9.54 12.32zm13.2-8.1c-.33-.54-.67-1.05-1.05-1.54-2.06.68-5.83 3.58-11 13.6.25 1 .5 2.07.74 3.2 5.19-10.62 9.07-14.14 11.3-15.27zM28 26.31c3.06-8.5 6.64-11.21 8.3-12a16 16 0 00-16.6 0c1.65.79 5.23 3.5 8.3 12zm-1.4 4.45c.28-1.02.57-1.97.86-2.87-4.4-9.52-7.88-11.88-9.54-12.32-.46.37-.9.76-1.3 1.18 1.8.6 5.57 3.3 9.98 14zM28 40.4c-7.38-12.26-12.05-16.91-14.74-18.63a16 16 0 1029.48 0c-2.7 1.72-7.35 6.38-14.73 18.63zm-2.44-5.34c.24-1.13.5-2.2.75-3.2-5.17-10.02-8.94-12.92-11-13.6-.38.48-.72 1-1.04 1.53 2.23 1.13 6.12 4.65 11.3 15.26zm2.26-.18C27.4 34 27 33.19 26.6 32.4c-.34.85-.68 1.74-1.03 2.67.41.84.83 1.72 1.26 2.66.33-1 .66-1.95.99-2.86zm1.33 2.88c-.39-.87-.77-1.7-1.16-2.5l-1.16 2.5c.38.84.77 1.68 1.16 2.58l1.16-2.58zm-.09-6.17a87.8 87.8 0 00-1.07-2.5c-.34.79-.7 1.62-1.06 2.5.35.88.7 1.8 1.06 2.79.37-.99.73-1.92 1.08-2.8l-.01.01zm.1 6.16c-.31-.96-.64-1.92-.98-2.87.41-.86.81-1.68 1.21-2.46.34.84.68 1.73 1.03 2.66-.43.89-.85 1.77-1.26 2.67" fill="#94D4EB"/></svg>