<!-- by TradingView --><svg xmlns="http://www.w3.org/2000/svg" width="56" height="56"><path fill="#F0F3FA" d="M0 0h56v56H0z"/><path d="M28 25.6V31h-.28c-3 0-6.28.73-8.9-5.79a60.2 60.2 0 01-2.43-7.8C11.31 19.77 8 23.63 8 28c0 7.18 8.95 13 20 13s20-5.82 20-13c0-4-2.78-7.58-7.15-9.96-.26.97-.5 1.95-.74 2.92a72.54 72.54 0 01-2.92 9.83c-2.63 6.51-5.9 6.22-8.9 6.21H28v-6c2.61 0 3.45-3.04 4.04-5.65l.03-.14c.66-2.93 1.5-5.83 2.34-8.73l.21-.75a29.85 29.85 0 00-11.75-.3 98.65 98.65 0 011.09 4.35c.59 2.61 1.43 5.81 4.04 5.81z" fill="#0098D8"/></svg>