<!-- by TradingView --><svg xmlns="http://www.w3.org/2000/svg" width="56" height="56"><path fill="#15569C" d="M0 0h56v56H0z"/><path d="M14.96 31l5.79-9h-3.58l-4.1 5.78L14.96 31zm-3.32 4L4 22h.65l7.36 12.36-.37.64zm.91-1.19L5.5 22.01h.93l6.63 10.98-.5.82zm-5.24-11.8l6.59 11h32.07l.7-1.01H14.6L8.52 22H7.3zm13.2 3.27l-3.83 5.7h.82l4-5.98-1 .28zM22.68 31s-.42-4.67-.84-5.69l-.88 1.4.17 1.4h-1.11l-.42.67h1.62L21.5 31h1.2zm4.82-1.45c-.95 1.36-2.54 1.85-3.6 1.09-1.08-.79-1.2-2.61-.27-4.07.94-1.45 2.58-2 3.67-1.2.31.22.55.53.7.9l-.56.23c-.14-.48-.4-.76-.77-.9-.71-.24-1.76.45-2.22 1.8-.46 1.34-.15 2.7.6 2.98.67.26 1.57-.41 2.01-1.13l.44.3zm1.4 1.09c1.06.76 2.65.27 3.6-1.09l-.44-.3c-.44.72-1.34 1.4-2.01 1.13-.75-.28-1.06-1.64-.6-2.99.46-1.34 1.51-2.03 2.22-1.8.38.15.63.43.77.91l.56-.23a2.09 2.09 0 00-.7-.9c-1.09-.8-2.73-.25-3.67 1.2-.94 1.46-.81 3.28.28 4.07zm5.36-6.07l1.3-.57-.25.89-1.28.51.23-.83zm-.3 1.48l1.3-.57-.95 5.52h-1.18l.84-4.95zM35.69 31l.83-5c.07-.33.35-.98.97-1 .62-.02.91.6 1.06 1l.93 2.4c.05.13.18.24.23 0l.13-.8.45-2.6h.53l-.92 5.52c-.02.15-.13.45-.42.48-.36.03-.5-.38-.56-.55l-1.69-4.16c-.05-.15-.18-.18-.2 0-.03.25-.53 3.31-.77 4.71h-.57zm7.23-6H46l-.11.52h-2.05a.6.6 0 00-.57.4L43 27.49h2.14l-.11.63H42.9l-.37 1.9c-.03.36.23.45.37.44h2.23l-.11.54h-3.14c-.69-.03-.73-.58-.67-.86l.76-4.32c.16-.71.69-.84.93-.82zm3.59 0h1.48l.88 1.85 2.06-2.59L52 24l-2.82 3.56 1.6 3.44h-1.47l-.99-2.14L46.81 31H46l1.98-2.92L46.5 25z" fill="#fff"/></svg>