<!-- by TradingView --><svg width="56" height="56" xmlns="http://www.w3.org/2000/svg"><path fill="#EE2722" d="M0 0h56v56H0z"/><path d="M40.498 25c3.757-.006 8.757-.664 11.656-.754.004 0 .006-.003.006-.007 0-.003-.002-.005-.006-.005h-.002c-2.9-.09-7.898-1.227-11.654-1.234H15.393c-3.756.007-8.755 1.144-11.655 1.234h-.002a.005.005 0 00-.005.005c0 .004.002.006.006.006 2.899.09 7.899.749 11.656.755h25.105zM37.39 28c3.758-.006 8.758-.58 11.657-.67v-.002c.003 0 .006-.002.006-.005s-.003-.006-.006-.006l-.002.001c-2.9-.09-7.898-1.227-11.654-1.234H18.5c-3.757.007-8.755 1.144-11.655 1.234h-.002a.006.006 0 00-.006.005c0 .003.003.005.006.005v.002c2.9.09 7.9.664 11.657.67h18.89zM34.576 31c3.758-.006 8.754-.909 11.653-.999V30c.004 0 .006-.002.006-.006 0-.002-.002-.005-.006-.005h-.002c-2.9-.09-7.894-.982-11.65-.989H21.313c-3.756.007-8.755.898-11.654.988h-.003a.006.006 0 00-.005.005c0 .003.002.006.005.006V30c2.9.09 7.9.994 11.657 1h13.262zM31.273 34c3.758-.006 8.827-.91 11.727-1 .003 0 .006-.004.006-.006 0-.004-.003-.006-.006-.006h-.002c-2.9-.09-7.969-.981-11.725-.988h-6.655c-3.757.007-8.755.913-11.655 1.003h-.002c0-.003 0-.003 0 0v.01c2.9.09 7.9.98 11.657.987h6.655zM28.215 37c3.757-.006 8.756-.907 11.656-.997.003 0 .006-.003.006-.006 0-.004-.003-.006-.006-.006h-.002c-2.9-.09-7.898-.984-11.654-.991h-.539c-3.756.007-8.752.899-11.651.99l-.002-.001c-.003 0-.006.002-.006.006 0 .003.003.005.006.005 2.9.09 7.896.994 11.653 1h.539z" fill="#fff"/></svg>