<!-- by TradingView --><svg xmlns="http://www.w3.org/2000/svg" width="56" height="56"><path fill="#356680" d="M0 0h56v56H0z"/><path d="M15.9 23h-2.07a.1.1 0 00-.05.02.1.1 0 00-.04.04l-3.24 8.08-3.25-8.08a.1.1 0 00-.03-.04.1.1 0 00-.06-.02H5.1a.1.1 0 00-.09.05.1.1 0 000 .1l4.55 10.79.04.04a.1.1 0 00.06.02h1.69a.1.1 0 00.1-.06l4.54-10.8a.1.1 0 000-.1.1.1 0 00-.1-.04zm4 0h-1.8a.1.1 0 00-.1.1v10.8c0 .05.05.1.1.1h1.8a.1.1 0 00.1-.1V23.1a.1.1 0 00-.1-.1zm7.55 0A5.3 5.3 0 0022 28.5c0 2.73 1.98 5.5 5.76 5.5 1.84 0 3.36-.72 4.76-2.27a.1.1 0 00-.02-.15l-1.37-1.09a.1.1 0 00-.14.01 4.1 4.1 0 01-3.25 1.5c-1.85 0-3.33-1-3.66-2.72h8.82a.1.1 0 00.1-.06.1.1 0 000-.04c0-3.7-2.23-6.18-5.55-6.18zm-.01 2c1.74 0 3.12 1 3.34 2.62h-6.7c.2-1.3 1.23-2.62 3.36-2.62zm22.54-1.96a.1.1 0 00-.04-.03.1.1 0 00-.04-.01h-1.87a.1.1 0 00-.05.02.1.1 0 00-.04.05l-2.47 7.58-2.45-7.58a.1.1 0 00-.03-.05.1.1 0 00-.06-.02h-1.87a.1.1 0 00-.05.02.1.1 0 00-.04.05l-2.44 7.58-2.48-7.58a.1.1 0 00-.03-.05.1.1 0 00-.06-.02H34.1l-.05.01a.1.1 0 00-.03.03.1.1 0 00-.01.1l3.73 10.79c0 .02.02.03.04.05a.1.1 0 00.05.02h1.44a.1.1 0 00.05-.02.1.1 0 00.04-.06l2.64-8.2 2.64 8.2c.01.03.02.05.04.06a.1.1 0 00.06.02h1.43a.1.1 0 00.06-.02.1.1 0 00.03-.05L50 23.13a.11.11 0 00-.02-.09z" fill="#fff"/><path d="M19 20a1.25 1.25 0 100 2.5 1.25 1.25 0 000-2.5z" fill="#8DBBCA"/></svg>