<!-- by TradingView --><svg width="56" height="56" xmlns="http://www.w3.org/2000/svg"><path fill="#E02F79" d="M0 0h56v56H0z"/><path d="M41.203 24.196c-1.637 0-2.105.887-2.53 1.478.744-1.034 2.827-.886 2.976 1.33.099 1.474-.31 2.252-.744 2.956-.474.77-1.159 1.575-1.785 1.92-1.34.74-2.678.148-2.976-.147.744 1.182 2.53 1.92 4.612 1.034 2.083-.886 3.706-3.733 3.125-6.354-.248-1.116-1.072-2.217-2.678-2.217zM21.861 36.314c-1.488-3.448-4.344-10.403-5.059-11.231-.714-.827-2.826-1.034-3.868-1.034 0 0 .92.443 1.19 1.034 2.232 4.877 2.53 5.911 4.761 11.23.507 1.209 1.28 2.424 2.827 2.66 1.548.237 2.678-1.181 2.827-1.92-.1.098-.744.295-1.339.295-.607 0-1.091-.59-1.339-1.034zM30.49 36.314c1.488-3.448 4.345-10.403 5.059-11.231.714-.827 2.827-1.034 3.868-1.034 0 0-.625.326-.991.74-.053.06-.176.243-.199.294-2.232 4.877-2.53 5.911-4.761 11.23-.507 1.209-1.041 2.07-1.934 2.365-1.485.492-2.53.296-2.827.148.744-.296 1.181-1.432 1.785-2.512zM26.325 36.314c1.487-3.448 4.344-10.403 5.058-11.231.714-.827 2.827-1.034 3.868-1.034 0 0-.627.306-.997.74-.035.042-.146.192-.193.294-2.232 4.877-2.53 5.911-4.76 11.23-.507 1.209-1.042 2.07-1.935 2.365-1.485.492-2.53.296-2.827.148.744-.296 1.181-1.432 1.785-2.512z" fill="#fff"/><path d="M23.051 33.95c1.488-3.449 3.155-8.04 3.869-8.867.714-.827 2.38-1.034 3.868-.887 0 0-.466.227-.788.542a1.162 1.162 0 00-.253.345c-2.084 4.877-1.637 3.694-3.869 9.014-.506 1.208-1.041 2.66-1.934 2.956-1.485.491-2.083-1.626-2.232-1.921.893.295.735-.103 1.34-1.183zM43.75 23.9h-.47a.303.303 0 01-.233-.106c-.51-.596-3.154-3.549-6.754-5.065-3.778-1.592-8.63-1.773-13.093-.444-.4.12-2.41.694-4.166 1.774-2.193 1.348-4.166 3.25-4.166 3.25 1.786-1.92 2.825-2.96 4.613-3.99 5.76-3.317 12.14-2.996 16.812-1.33 3.712 1.325 6.213 3.77 7.577 5.683a.145.145 0 01-.12.229zM19.332 15.921c-1.34.296-1.042 2.512-1.042 2.512s.249-.797.596-1.182c.365-.405 1.19-.739 1.19-.739s-.665.7-.893 1.182c-.297.63-.149 1.626-.149 1.626s1.163-.554 1.637-1.182c.676-.898.595-2.66.595-2.66s-.917.219-1.934.443zM15.285 15.957c-.926 1.28 1.27 2.624 1.27 2.624s-.47-.759-.496-1.33c-.029-.602.277-1.495.277-1.495s.022 1.07.22 1.61c.257.706.99 1.51.99 1.51s.564-1.51.447-2.364C17.825 15.292 16.505 14 16.505 14s-.446.887-1.22 1.957z" fill="#fff"/><path d="M12.339 18.806c.473 1.359 3.124.81 3.124.81s-.818-.165-1.303-.473c-.512-.325-1.07-1.088-1.07-1.088s.787.627 1.332.822c.744.266 2.083.266 2.083.266s-1.066-1.598-1.837-1.995c-1.1-.568-3.222-.34-3.222-.34s.46.753.893 1.998z" fill="#fff"/><path d="M12.118 20.817c.525-1.34 3.048-.758 3.048-.758s-.843.154-1.34.443c-.523.305-.986 1.093-.986 1.093s.733-.604 1.284-.778c.754-.238 2.083-.167 2.083-.167s-1 1.405-1.785 1.773c-1.042.488-3.422.14-3.422.14s.636-.518 1.118-1.746z" fill="#fff"/></svg>