<!-- by TradingView --><svg xmlns="http://www.w3.org/2000/svg" width="56" height="56"><path fill="#2B2D2C" d="M0 0h56v56H0z"/><path d="M22.83 31.93C22.3 33.2 19.35 40.5 17.95 44l8.67-16.09 3.49.94c1.25 2.08 4.25 6.75 6.24 8.81a57.26 57.26 0 014.83 5.9l-9.74-14.38c3.08.67 9.44 2.05 10.19 2.18.75.14 5.9 1.02 8.37 1.44l-19.77-5.2L41 28l-11.71-1.83-.97-1.44 5.79-10.76c-.26-.01-.9.08-1.33.53-.44.46-.45 1.24-.4 1.58l-4.94 7.3L16.92 8l10.25 15.96-1.04 1.6L8 21.91c.44.11 1.46.38 1.97.57.64.24 4.49 1.81 6.13 2.38 1.3.46 6.49 1.91 8.91 2.58-.5.97-1.65 3.23-2.18 4.5z" fill="#78787A"/><path d="M31 43l-4-31 .21 9.69 1.74 13.08c.19 1.2.67 2.45 1.2 4.18.44 1.39.75 3.28.85 4.05z" fill="#FBFBFB"/><path d="M41 28L8 22c4.57 1.54 14.66 4.66 18.5 5.2 3.85.55 11.6.6 14.5.8z" fill="#78787A"/></svg>