<!-- by TradingView --><svg xmlns="http://www.w3.org/2000/svg" width="56" height="56"><path fill="#BBCF3B" d="M0 0h56v56H0z"/><path d="M15.08 23v10h-1v-9c0-.55.5-1 1-1zM4 23c-.01-.03.92-.08 1.07.33 1.52 4.17 3.02 8.22 3.02 8.22s1.75-4.55 3.1-8.22c.16-.45 1.1-.33 1.1-.33L8.61 33H7.56L4 23zm13.07.02c0-.03.92-.08 1.07.33l3.02 8.22s1.75-4.55 3.1-8.22c.16-.45 1.1-.33 1.1-.33l-3.66 10h-1.07l-3.56-10zm17.96 0c0-.03.92-.08 1.07.33l3.03 8.22s1.75-4.55 3.09-8.22c.16-.45 1.1-.33 1.1-.33l-3.66 10H38.6l-3.57-10zm-4.98-.27a4 4 0 00-4 4v2.5A4 4 0 0033.64 31h-1.16a2.99 2.99 0 01-2.43 1.25 3 3 0 01-3-3v-2.5a3 3 0 013-3 3 3 0 012.99 3V27h-3c-1 0-1 1-1 1h5v-1.25a4 4 0 00-4-4zm17.96 0a4 4 0 00-4 4v2.5A4 4 0 0051.6 31h-1.16a2.99 2.99 0 01-2.43 1.25 3 3 0 01-3-3v-2.5a3 3 0 013-3 3 3 0 013 3V27h-3c-1 0-1 1-1 1H52v-1.25a4 4 0 00-4-4z" fill="#fff"/></svg>