<!-- by TradingView --><svg xmlns="http://www.w3.org/2000/svg" width="56" height="56"><path fill="#093254" d="M0 0h56v56H0z"/><path fill-rule="evenodd" d="M35 30v-2h.68c.38 0 .57.19.57.5 0 .18-.1.37-.25.42v.02c.02 0 .35.1.35.5 0 .35-.23.56-.6.56H35zm.67-1.77h-.44v.63h.44c.2 0 .33-.14.33-.32s-.1-.3-.33-.3zm-.43 1.55v-.7h.23c.37 0 .64.04.64.37 0 .32-.26.33-.64.33h-.23z" fill="#FFFFFB"/><path d="M37.12 28h-.24v2h.24v-2zm2.49 1a1 1 0 10-2 0 1 1 0 002 0zm-.24 0a.76.76 0 01-1.52 0 .76.76 0 111.53 0zm.89-.5c0 .12.02.22.41.36.34.11.6.26.6.6 0 .28-.23.54-.6.54a.8.8 0 01-.71-.4l.18-.14c.09.12.27.32.53.3.2 0 .33-.14.33-.32 0-.2-.15-.28-.48-.4-.3-.1-.52-.24-.52-.55 0-.23.21-.49.57-.49.21 0 .45.05.65.27l-.2.14a.56.56 0 00-.45-.18c-.2.02-.31.14-.31.27zm2.39 1.27c.27 0 .47-.13.59-.31l.2.14a.92.92 0 01-.8.4c-.57 0-1.03-.44-1.03-1a1 1 0 011.03-1c.33 0 .6.15.76.37l-.2.15a.67.67 0 00-.55-.27.77.77 0 00-.79.77c0 .4.34.75.79.75zm1.5-1.77h-.24v2h.24v-2zm2.4 2v-2l1.34 1.42V28h.24v2l-1.34-1.41V30h-.24zm3.02-.23a.7.7 0 00.59-.31l.2.14a.92.92 0 01-.8.4 1 1 0 01-1.03-1 1 1 0 011.03-1c.32 0 .59.14.76.37l-.2.14a.67.67 0 00-.55-.27.77.77 0 00-.79.78c0 .4.35.75.79.75zM52 28.24h-1v.64h.79v.23h-.8v.65H52V30h-1.25v-2H52v.24zm-6 0h-1v.64h.79v.23H45v.65h1V30h-1.24v-2H46v.24zM21.46 33c-1.98 0-3.3-1.25-3.33-1.27a.43.43 0 01-.13-.3c0-.1.03-.2.1-.29a.4.4 0 01.3-.14c.09 0 .18.04.25.11s1.16 1.1 2.81 1.09c.85 0 1.84-.3 2.92-1.12a.37.37 0 01.55.1c.12.18.08.45-.1.58A5.55 5.55 0 0121.47 33z" fill="#FFFFFB"/><path d="M18.5 24.66a.5.5 0 01.51.5.5.5 0 01-.5.5.5.5 0 01-.5-.5c0-.28.22-.5.5-.5zM5 26v.6c.24-.3.68-.6 1.22-.6.52 0 1 .1 1.28.6.3-.35.92-.6 1.44-.6.85 0 1.56.33 1.56 1.85V30h-1v-1.92c0-.74-.32-1.08-.82-1.08a1 1 0 00-.9.61V30h-1v-1.93c0-.74-.32-1.07-.83-1.07-.43 0-.83.3-.95.62V30H4v-4h1zm10 2.4v-.52c0-.83-.67-1.88-2-1.88-1.28 0-2 1-2 1.98 0 .93.6 2.02 2 2.02.69 0 1.45-.31 1.81-.7l-.85-.59c-.25.24-.53.29-.94.29-.42 0-.84-.18-.97-.6H15zM13 27c.43 0 .92.27 1 .63h-2c.11-.37.5-.63 1-.63zm3.41-1v.62c.24-.3.67-.62 1.19-.62v1c-.55 0-1.19.32-1.19.77V30h-1v-4h1zM19 26h-1v4h1v-4zm5.5-1.34c.27 0 .5.22.5.5a.5.5 0 01-.5.5.5.5 0 01-.5-.5c0-.28.22-.5.5-.5zM25 26h-1v4h1v-4zm-2.64 3.52V30h1v-5.5h-1v2.03c-.2-.32-.7-.53-1.26-.53-.79 0-1.74.75-1.74 2 0 1.29.85 2 1.74 2 .56 0 1.04-.14 1.26-.48zm-2-1.52a1 1 0 011-1c.53 0 1 .46 1 1a1 1 0 01-2 0zm8.14 1.52V30h1v-4h-1v.4c-.29-.27-.64-.4-1.24-.4-.85 0-1.75.78-1.75 2.03 0 1.29.8 1.97 1.75 1.97.6 0 1-.14 1.23-.48zm-2-1.52a1 1 0 011-1 1 1 0 011 1c0 .57-.43 1-1 1a1 1 0 01-1-1zm4.5-2v.48c.24-.3.9-.48 1.43-.48.85 0 1.57.33 1.57 1.97V30h-1v-1.92c0-.74-.34-1.08-.85-1.08-.44 0-1.03.4-1.15.72V30h-1v-4h1z" fill="#fff"/></svg>