<!-- by TradingView --><svg width="56" height="56" xmlns="http://www.w3.org/2000/svg"><path fill="#006587" d="M0 0h56v56H0z"/><path d="M34.86 21.606c-1.395 2.477-5.931 9.75-5.931 9.75l-1.313-2.14c.818-1.373 3.95-6.589 5.292-8.818 0 0 .363-.748 2.142-.748H38s-2.125.158-3.14 1.956zm-7.117 17.67c-.584-.962-7.393-12.06-8.005-13.059C19.01 25.031 18 25 18 25h1.957c1.535 0 1.966.57 1.966.57L29.051 37.2l-1.308 2.077zM39.574 22H45v-5H33.335c-1.118.15-2.098.533-2.648 1.437-1.169 1.915-3.17 5.14-3.17 5.14s-1.253-5.589-5.392-6.409c-.333-.066-.672-.12-1.013-.168H11v3h9.924c1.884 0 2.969 3 2.969 3s-.922-1-2.687-1H11c-.024 1.833 0 6 0 6h5.085c.57 0 1.05.036 1.416.483C17.644 28.705 28 45 28 45s10.173-15.693 10.386-15.975c0 0 .586-1.025 2.21-1.025H45v-3h-5.385c-2.135 0-3.273.809-3.273.809l.996-2.085C38.016 22.296 39.574 22 39.574 22z" fill="#fff"/></svg>