<!-- by TradingView --><svg width="56" height="56" xmlns="http://www.w3.org/2000/svg"><path fill="#06296A" d="M0 0h56v56H0z"/><path d="M21.544 30c-.77.002-1.537-.464-1.544-1.498-.006-1.034.744-1.502 1.544-1.502S23 27.573 23 28.502s-.686 1.496-1.456 1.498zm0-5c-2 0-3.504 1.503-3.504 3.502 0 1.999 1.504 3.502 3.504 3.502s3.504-1.51 3.504-3.502c0-1.999-1.504-3.502-3.504-3.502zM45.518 28h-3.064c0-.816.571-1.463 1.576-1.451 1.004.012 1.488.67 1.488 1.45zm-1.48-3c-1.976 0-3.464 1.503-3.464 3.501 0 .992.352 1.883.992 2.51.664.652 1.584.992 2.664.992 1.16 0 2.056-.348 2.728-1.076l-1.08-1.124c-.368.318-.856.635-1.688.635-.928 0-1.544-.61-1.752-1.438h4.968c.072-1.24-.264-2.226-.944-2.985-.6-.667-1.44-1.015-2.424-1.015zM38.059 28h-3.136c0-.816.585-1.463 1.613-1.451 1.028.012 1.523.67 1.523 1.45zm-1.515-3C34.523 25 33 26.503 33 28.5c0 .992.36 1.883 1.015 2.51.68.652 1.62.992 2.726.992 1.187 0 2.103-.348 2.79-1.076l-1.104-1.124c-.377.318-.876.635-1.727.635-.95 0-1.58-.61-1.793-1.438h5.083c.074-1.24-.27-2.226-.966-2.985-.614-.667-1.473-1.015-2.48-1.015zM15.524 28H12.39c0-.815.585-1.463 1.613-1.45 1.027.012 1.522.67 1.522 1.45zm-1.514-3c-2.022 0-3.544 1.503-3.544 3.502 0 .992.36 1.883 1.014 2.51.68.651 1.621.992 2.726.992 1.187 0 2.104-.349 2.791-1.077l-1.105-1.123c-.376.317-.875.635-1.727.635-.95 0-1.58-.61-1.792-1.439h5.083c.073-1.24-.27-2.226-.966-2.985-.614-.666-1.473-1.015-2.48-1.015zM4 25l3.5 7.004L11 25H9l-1.5 3.457L6 25H4zM30 32.004h2v-3.65c0-1.82-.781-3.341-3-3.354-2.218-.012-3 1.541-3 3.354v3.65l2.002.024v-3.674c.015-.902.47-1.35.998-1.35.529 0 .985.456 1 1.318v3.682zM48 32.004h2v-3.4c.008-.958.492-1.596 1.402-1.604H52v-2h-.787C49.443 25 48 26.51 48 28.354v3.65z" fill="#fff"/></svg>