<!-- by TradingView --><svg width="56" height="56" xmlns="http://www.w3.org/2000/svg"><path fill="#F0F3FA" d="M0 0h56v56H0z"/><path d="M35.766 13.8c-1.766-.733-3.984-1.4-6.016-1.4-8.251 0-14.94 6.671-14.94 14.9 0 5.148 2.537 9.823 6.517 12.5-5.595-2.262-9.124-7.698-9.124-13.9 0-8.229 6.689-14.9 14.94-14.9 3.09 0 6.24 1.198 8.623 2.8z" fill="#252525"/><path d="M38.836 35.732A15.124 15.124 0 0127.344 41c-8.362 0-15.14-6.76-15.14-15.1a15 15 0 012.445-8.232A15.017 15.017 0 0011 27.5c0 8.34 6.779 15.1 15.14 15.1 5.318 0 9.995-2.733 12.696-6.868z" fill="#989898"/><path d="M28.046 45c9.303 0 16.845-7.522 16.845-16.8l-3.71-2.4v.081c0 2.013 0 4.39-.702 6.219-2.289 5.964-7.79 10.5-14.338 10.5-6.064 0-11.176-3.75-13.737-8.8C14.795 40.175 20.819 45 28.046 45z" fill="#222"/><path d="M40.88 39C43.435 36.35 45 32.78 45 28.852 45 20.678 38.204 12.4 29.842 12.4c-5.541 0-10.388 2.91-13.026 7.252C19.576 16.788 23.493 15 27.836 15c8.362 0 15.159 8.278 15.159 16.452A14.48 14.48 0 0140.88 39z" fill="#525252"/><path d="M40.64 31.764c1.148-.951 1.845-2.198 1.845-3.564 0-2.982-3.322-5.4-7.42-5.4-1.334 0-5.014 1.2-5.014 1.2-4.201-1.322-9.726-5.012-9.726-3v4.2l1.304-2 .485 2 .818-1.5 5.415 3.6c-.502 2-6.267 5.256-6.233 5.4 1.12 4.7 9.802-5.7 12.65-5.7 3.032 0 5.53 2.081 5.875 4.764z" fill="#222"/><ellipse cx="27.502" cy="24.466" rx=".5" ry=".499" fill="#F0F3FA"/></svg>