<!-- by TradingView --><svg width="56" height="56" xmlns="http://www.w3.org/2000/svg"><path fill="url(#paint0_linear)" d="M0 0h56v56H0z"/><circle cx="28" cy="28" r="28" fill="url(#paint1_linear)"/><path d="M22.572 21.87c-3.188 0-5.78 2.73-5.78 6.108 0 3.378 2.584 6.108 5.78 6.108 3.188 0 5.779-2.73 5.779-6.107 0-3.378-2.591-6.108-5.78-6.108zm0 10.152c-2.117 0-3.728-1.815-3.728-4.043 0-2.23 1.619-4.044 3.728-4.044 2.117 0 3.727 1.815 3.727 4.044 0 2.228-1.61 4.043-3.727 4.043z" fill="#fff"/><path d="M18.844 27.977c0-2.237 1.618-4.043 3.727-4.043 2.117 0 3.728 1.814 3.728 4.043 0 2.238-1.619 4.043-3.728 4.043s-3.727-1.814-3.727-4.043c0 3.119 2.051 5.65 4.7 5.65 2.648 0 4.798-2.531 4.798-5.65s-2.15-5.65-4.798-5.65c-2.649 0-4.7 2.531-4.7 5.65zM14.112 22.975c-.392.925-2.713 6.428-3.752 8.899.221.527.385.907.458 1.088.393.925.818 1.011.875 1.02h.008l5.027-11.836c-.196-.095-.523-.173-.883-.173-.645 0-1.406.233-1.733 1.002z" fill="#fff"/><path d="M10.817 32.954c-.425-1.002-3.703-8.786-4.201-9.978-.499-1.2-2.085-1.097-2.616-.838l4.561 10.79c.286.648.875 1.072 1.79 1.072h1.35s-.459-.044-.884-1.046zM46.972 22c-.057 0-.506.061-.874.96-.09.207-.254.613-.466 1.114 1.054 2.497 3.458 8.207 3.752 8.907.507 1.2 2.084 1.097 2.616.838L46.989 22h-.017z" fill="#fff"/><path d="M47.39 31.142l-.426-1.153c-.319-.76-.825-.99-1.463-.99H43.54s2.158-5.072 2.559-6.03c.4-.96.883-.96.883-.96h-1.35c-.89 0-1.487.372-1.79 1.054L39.257 33.82c.531.26 2.1.38 2.616-.83.515-1.209.94-1.99.94-1.99h3.637c.712-.016.94.143.94.143zM38.545 22.976c-.507 1.2-6.589 15.541-6.589 15.541.54.26 2.093.372 2.6-.829l6.596-15.55c-.196-.095-.523-.173-.883-.173-.645.009-1.397.242-1.724 1.01z" fill="#fff"/><path d="M35.243 32.954c-.425-1.011-3.686-8.752-4.201-9.979-.515-1.226-2.085-1.097-2.616-.829l4.561 10.782c.286.648.875 1.072 1.79 1.072h1.349c0-.009-.458-.035-.883-1.046z" fill="#fff"/><defs><linearGradient id="paint0_linear" x1="53.107" y1="30.796" x2="1.707" y2="30.994" gradientUnits="userSpaceOnUse"><stop stop-color="#F7941D"/><stop offset="1" stop-color="#F26322"/></linearGradient><linearGradient id="paint1_linear" x1="56" y1="28" x2="4.882" y2="28" gradientUnits="userSpaceOnUse"><stop stop-color="#F7941D"/><stop offset="1" stop-color="#F26322"/></linearGradient></defs></svg>