<!-- by TradingView --><svg width="56" height="56" xmlns="http://www.w3.org/2000/svg"><path fill="#F0F3FA" d="M0 0h56v56H0z"/><path d="M20.4 31c0 1.017.695 1.546 1.63 1.546.612 0 1.347-.015 1.347-.795 0-.824-.924-.97-2.093-1.27-1.18-.3-2.37-.738-2.37-2.17 0-1.562 1.535-2.311 2.972-2.311 1.658 0 3.182.421 3.182 2h-1.691c0-.411-.512-.634-1.347-.634-.556 0-1.217.199-1.217.84 0 .588.17.628 2.162 1.12.58.14 2.36.492 2.36 2.224 0 1.401-1.146 2.45-3.305 2.45-2.298.104-3.402-1.117-3.379-3H20.4zm5.6-5h2v3.5h3V26h2v8h-2v-3.5h-3V34h-2v-8zm10 0h2l3 8h-2l-.846-2h-2.398L35 34h-2l3-8zm0 5h2l-1-3.004L36 31zm6 0l-3-5h2l1.998 3.365L45 26h2l-3 5v3h-2v-3z" fill="#000"/><path d="M10.5 34h2l2.5-8h-1.832L11.5 31.792 9.833 26H8l2.5 8z" fill="#000"/><path d="M14 25l-5-8h38l-5 8H14zm23 10l-9 14-9-14h18z" fill="#0080C0"/><path fill="#000" d="M16 26.002h2v7.997h-2z"/></svg>