<!-- by TradingView --><svg width="56" height="56" xmlns="http://www.w3.org/2000/svg"><path fill="#013F6E" d="M0 0h56v56H0z"/><path d="M21.182 32.997c-1.16-.006-2.256-.235-3.196-.964a2.902 2.902 0 01-.954-1.349c-.059-.163-.054-.247.168-.26.825-.049 1.648-.12 2.471-.185a.461.461 0 01.455.17c.43.516 1.677.604 2.194.178a.498.498 0 00.183-.223c.064-.273.264-.286.481-.291.808-.022 1.617-.044 2.425-.073.16-.005.19.04.167.199-.193 1.3-1.025 2.035-2.195 2.458a6.027 6.027 0 01-2.199.34z" fill="#64A60A"/><path d="M25.318 28.431c-1.626.072-3.205.15-4.772.348a3.13 3.13 0 01-1.881-.401c-1.112-.567-1.56-1.618-1.256-2.896a2.792 2.792 0 011.676-2.006 5.565 5.565 0 014.547.02 2.695 2.695 0 011.62 2.102c.029.148-.002.166-.127.165-.862-.002-1.724-.002-2.587.002-.096 0-.136-.05-.19-.112a1.616 1.616 0 00-1.884-.295.49.49 0 00-.07.857c.228.17.488.293.764.36.829.256 1.692.386 2.508.69.604.191 1.144.546 1.558 1.025.026.033.047.07.094.141z" fill="#fff"/><path d="M38 30.427c.37-.017.739-.002 1.105.044.665.04 1.327.107 1.992.15a.272.272 0 01.235.174l.763 1.28c.035.058.078.112.139.198.173-.46.343-.884.49-1.317.053-.155.13-.18.275-.162.792.092 1.586.18 2.38.259.184.018.197.088.147.242a51.581 51.581 0 00-.469 1.525c-.048.168-.161.18-.286.18-1.048 0-2.096-.003-3.144 0-.622.002-1.127 0-1.865-.003a.353.353 0 01-.363-.196c-.428-.736-.87-1.464-1.308-2.195-.03-.05-.054-.106-.091-.18zM29.508 32.996c-.433 0-.866-.006-1.298.004-.164.004-.211-.056-.21-.227.007-.84.007-1.678 0-2.518 0-.177.048-.256.224-.255.866.006 1.731.008 2.596.004.144 0 .178.07.178.208-.003.868-.004 1.735.002 2.603.001.161-.07.183-.194.181-.433-.004-.865-.001-1.298-.001v.001z" fill="#64A60B"/><path d="M35.488 32.993c-.434 0-.868-.004-1.302.003-.133.002-.187-.037-.186-.194.006-.87.004-1.74.002-2.61 0-.12.01-.199.157-.192.849.044 1.698.085 2.547.11.245.008.299.115.294.365 0 1.025 0 1.525-.003 2.26.003.198-.04.272-.233.264-.425-.015-.85-.004-1.276-.004v-.002z" fill="#64A60A"/><path d="M15.091 32.997c-.426 0-.852-.007-1.278.003-.162.003-.215-.047-.212-.213.01-.53.012-1.058.002-1.587-.003-.167.067-.224.21-.238.883-.086 1.766-.17 2.647-.261.11-.012.145.026.145.127 0 .673-.001 1.345.004 2.017.001.145-.079.154-.187.153-.443-.002-.887 0-1.331-.001z" fill="#64A60B"/><path d="M8.553 32.993c-.488 0-.976-.007-1.464.004a.237.237 0 01-.275-.207c-.212-.69-.216-.683.48-.831 1.074-.229 2.16-.385 3.242-.572.171-.03.2.023.146.184-.136.406-.27.815-.382 1.228a.222.222 0 01-.167.193.217.217 0 01-.09.003c-.496-.008-.993-.003-1.49-.003z" fill="#64A60D"/><path d="M50.478 33c-.472 0-.893-.01-1.339 0-.158.004-.241-.046-.283-.208a22.65 22.65 0 00-.319-1.11c-.046-.15-.032-.187.136-.162.872.13 1.74.286 2.604.467.15.032.357-.025.44.14.12.249.217.51.29.777.043.146-.12.095-.176.096-.455.008-.897 0-1.353 0z" fill="#64A60E"/><path d="M8.616 29.075l.763-2.954.75-2.908c.027-.101.028-.21.187-.209.977.007 1.955.004 2.956.004l-.811 2.684c-.44 1.454-.885 2.907-1.318 4.363a.444.444 0 01-.125.224c-.062.06-.14.1-.225.113-1.392.362-2.76.815-4.098 1.356-.127.053-.169.049-.213-.106-.822-2.86-1.65-5.717-2.481-8.573-.003-.008.002-.018.004-.034.057-.053.13-.026.196-.026.862-.002 1.725.007 2.587-.008.197-.003.255.075.299.246.476 1.833.956 3.664 1.438 5.495l.09.333zM51.555 31.656c-.7-.242-1.36-.474-2.022-.697a18.096 18.096 0 00-1.095-.332.358.358 0 01-.19-.105.376.376 0 01-.1-.197c-.34-1.238-.69-2.473-1.036-3.708-.02-.07-.044-.14-.08-.257-.23.747-.447 1.452-.662 2.158-.128.418-.255.835-.377 1.255-.037.128-.078.197-.236.162-.822-.181-1.647-.35-2.489-.527l1.016-2.85c.398-1.114.801-2.224 1.192-3.34a.276.276 0 01.11-.17.261.261 0 01.196-.044c.835.008 1.671.005 2.507.002.12 0 .213-.002.266.15.992 2.82 1.989 5.64 3 8.5zM29.421 23.007c1.29 0 2.58.005 3.869-.005.203-.002.25.054.245.259a52.629 52.629 0 000 2.087c.003.201-.06.242-.24.24-.694-.01-1.328.01-2.02-.012-.249-.007-.288.078-.284.306.014.723 0 1.447.009 2.17.002.18-.04.221-.225.217-.844-.018-1.67-.02-2.514-.007-.22.003-.265-.068-.261-.277.012-.705-.003-1.41.01-2.116.004-.22-.044-.297-.274-.291-.702.016-1.484-.001-2.186.01-.183.003-.246-.047-.244-.24.009-.714.01-1.429-.001-2.143-.003-.19.076-.2.221-.2 1.299.004 2.597.002 3.895.002zM13.606 26.333c0-1.035.005-2.07-.004-3.104-.002-.184.05-.227.222-.225.863.008 1.725.008 2.588 0 .168-.002.206.05.206.216-.007 1.914-.008 3.828-.004 5.741 0 .177-.06.231-.222.259-.858.144-1.716.293-2.57.462-.199.04-.22-.015-.219-.19.005-1.053.003-2.106.003-3.16z" fill="#fff"/><path fill-rule="evenodd" d="M37.816 23.01c-.296.002-.577.003-.835-.002-.296 0-.576 0-.844.002-.663.002-1.258.004-1.851-.01-.25-.006-.296.077-.285.305.013.258.01.517.008.776l-.002.322a4653.313 4653.313 0 00-.002 3.785c-.004.106-.007.202.172.21 2.15.11 4.291.313 6.423.61a.897.897 0 00.652-.163c.854-.552 1.18-1.396 1.235-2.37.102-1.81-.683-3.268-2.847-3.426-.625-.046-1.252-.042-1.824-.039zm1.332 2.47a4.012 4.012 0 00-1.01-.082h-.342c-.234.002-.427.002-.62-.002-.123-.002-.178.028-.176.168.006.415.005.83.003 1.246v.342c0 .078 0 .145.108.142.222-.007.445-.002.667.003.456.01.912.02 1.362-.072a.806.806 0 00.522-.296.82.82 0 00.177-.577c.005-.477-.211-.749-.691-.873z" fill="#fff"/></svg>