<!-- by TradingView --><svg xmlns="http://www.w3.org/2000/svg" width="56" height="56"><path fill="#F0F3FA" d="M0 0h56v56H0z"/><path d="M45.77 21.57l-4.34-5.92c-.32-.43-.82-.43-1.14 0l-6.23 8.43L28 32.33V47l2.2-3 15.56-20.9c.32-.42.34-1.1.02-1.53z" fill="#FF753A"/><path d="M21.94 24.12l-6.23-8.47c-.31-.43-.82-.43-1.14 0l-4.34 5.92a1.4 1.4 0 000 1.54l4.88 6.56L28 47V32.35l-6.07-8.23z" fill="#FFB025"/><path d="M21.94 24.12L28 32.33l6.06-8.25 3.59-4.86-4.08-5.57c-.23-.3-.6-.3-.84 0l-.83 1.14c-.24.31-.61.31-.84 0l-2.61-3.56c-.23-.3-.6-.3-.84 0l-2.6 3.56c-.24.31-.61.31-.85 0l-.83-1.14c-.23-.3-.6-.3-.84 0l-4.18 5.54 3.63 4.93zm11.33-8.4c0-.37.17-.44.4-.13l1.66 2.24c.21.3.11.44-.23.32l-1.19-.4a1 1 0 01-.63-.89v-1.14h-.01zM28 13.49c0-.37.29-.43.5-.13l4.33 5.9c.22.29.12.43-.23.33l-1.54-.51c-.35-.12-.64.09-.64.47v1.02c0 .37-.17.43-.39.13l-1.52-2.18c-.22-.3-.51-.85-.51-1.22v-3.8zm-5 2.23c0-.37.21-.44.44-.13l1.66 2.24c.22.3.12.44-.23.32l-1.2-.4c-.34-.11-.67-.5-.67-.89v-1.14z" fill="#006DAE"/></svg>