<!-- by TradingView --><svg width="56" height="56" fill="none" xmlns="http://www.w3.org/2000/svg"><path fill="#F0F3FA" d="M0 0h56v56H0z"/><path fill-rule="evenodd" clip-rule="evenodd" d="M29.007 23.959C29.16 27.994 33.23 32 36.986 32c5.24 0 8.695-5.668 7.9-10.275-.476-2.763-3.096-5.543-6.759-5.71-6.304-.288-9.286 3.613-9.12 7.944zM33 21c0-.552.398-1 .889-1h6.222c.491 0 .889.448.889 1s-.398 1-.889 1H38v6.1c0 .497-.448.9-1 .9s-1-.403-1-.9V22h-2.111c-.491 0-.889-.448-.889-1zM12.007 21.456C12.16 25.743 16.23 30 19.985 30c5.24 0 8.696-6.022 7.901-10.917-.476-2.936-3.096-5.89-6.758-6.067-6.305-.306-9.287 3.839-9.121 8.44zm5.887-3.403a1 1 0 10-1.788.894l3 6a1 1 0 001.788 0l3-6a1 1 0 10-1.788-.894L20 22.264l-2.106-4.211zM18.007 37.959C18.16 41.994 22.23 46 25.985 46c5.24 0 8.696-5.668 7.901-10.275-.476-2.763-3.096-5.543-6.759-5.71-6.304-.288-9.286 3.613-9.12 7.944zm5.888-3.406a1 1 0 10-1.79.894l3 6a1 1 0 001.79 0l3-6a1 1 0 10-1.79-.894L26 38.763l-2.105-4.21z" fill="#1A429A"/></svg>