<!-- by TradingView --><svg width="56" height="56" fill="none" xmlns="http://www.w3.org/2000/svg"><path fill="url(#paint0_linear_3186)" d="M0 0h56v56H0z"/><path fill-rule="evenodd" clip-rule="evenodd" d="M14 27.11a1.09 1.09 0 01-.076.245l-2.517 4.412c-.145.248-.503.408-.912.408-.41 0-.768-.16-.913-.408l-2.536-4.49A.809.809 0 017 27.113V23H5.002v3.956c0 .557.267 1.104.49 1.465L8 32.775C8.453 33.531 9.5 34 10.495 34c1.047 0 2.003-.473 2.447-1.225l2.533-4.262c.283-.481.525-.963.525-1.557V23h-2v4.11zM18 34h2V23h-2v11zm20 0h-2V23h2v11zm-6.107-9H23v-2h11v1.11c.006.513.017 1.506-.75 2.522-.795 1.05-2.296 1.98-4.98 2.731-2.438.683-3.436 1.385-3.862 1.921-.184.232-.285.46-.34.716H34v2H22v-1.051c0-.742-.001-1.846.842-2.908.824-1.039 2.326-1.887 4.888-2.604 2.52-.705 3.518-1.476 3.924-2.012a1.67 1.67 0 00.239-.425zM43 25h5a1 1 0 011 1v5a1 1 0 01-1 1h-5a1 1 0 01-1-1v-5a1 1 0 011-1zm-3 1a3 3 0 013-3h5a3 3 0 013 3v5a3 3 0 01-3 3h-5a3 3 0 01-3-3v-5z" fill="#fff"/><defs><linearGradient id="paint0_linear_3186" x1="10.418" y1="9.712" x2="68.147" y2="76.017" gradientUnits="userSpaceOnUse"><stop stop-color="#1A1E21"/><stop offset="1" stop-color="#06060A"/></linearGradient></defs></svg>