<!-- by TradingView --><svg width="56" height="56" xmlns="http://www.w3.org/2000/svg"><path fill="#C50D2F" d="M0 0h56v56H0z"/><path d="M27 27l5.754 5.523c.161.159.336.304.535.483 1.151-.66 1.56-1.313 2.711-1.972V20l8.465 4.424c.645.386 1.26.887 1.75 1.454 1.112 1.293 1.03 3.022-.164 4.249-.447.46-.961.887-1.517 1.208-7.463 4.312-14.948 8.587-22.401 12.917-1.186.688-2.418.844-3.698.698-.939-.106-1.58-.795-1.923-1.636-.261-.64-.47-1.353-.481-2.037-.052-2.976-.032-6.295-.03-9.272 0-.088-.016.163 0 0l9.558 5.45c1.154-.665 2.308-1.33 3.483-2.005L27 27z" fill="#fff"/><path d="M31.996 19.002c0-.225.003-.562.004-.787a.737.737 0 00-.332-.54 112.657 112.657 0 00-3.021-1.812c-1.202-.703-2.41-1.394-3.615-2.09l-.011.001-2.28-1.356-.022-.003-.534-.333h-.015l-.753-.451-.016.001-.577-.288-.908-.265c-.355-.028-.71-.053-1.066-.079l-.657.118c-.63.166-1.097.555-1.436 1.118l-.427.794-.297 1.134L16 15.512v1.467l.001 1.58V28l7.573 4-1.242-5.315c-.218-.94-.435-1.881-.654-2.821l-.354-1.746c.095-.08.206-.17.317-.262l1.322-.798 1.038-.59.841-.445c.348.33.689.66 1.038.982.668.62 1.338 1.236 2.009 1.853.962.968 1.922 1.938 2.889 2.9.379.377.782.828 1.222 1.242v-2.008-1.466c.001-.414-.004-.827-.003-1.241l.002-1.017v-1.7c0-.188-.001-.378-.003-.566z" fill="#fff"/></svg>