<!-- by TradingView --><svg width="56" height="56" xmlns="http://www.w3.org/2000/svg"><path fill="#004684" d="M0 0h56v56H0z"/><path d="M44.365 25.616l-4.246 3.92-3.18-3.613c-.367-.278-1.3-.64-2.098.137-.8.777-.444 1.733-.167 2.113 1.421 1.506 4.373 4.589 4.812 4.875.44.287 1.038.12 1.282 0l5.145-5.744c.1-.222.197-.808-.216-1.38-.413-.573-1.06-.444-1.332-.308zM24.58 30.566l4.822 3.26-5.669.64c-.362.05-1.086.38-1.086 1.3s.724 1.225 1.086 1.263h9.038c.288-.013 1-.234 1.546-1.018.545-.784.055-1.872-.258-2.317l-6.405-6.52c-.675-.603-2.28-1.417-3.295.15-1.016 1.568-.276 2.815.22 3.242zM29.058 13l-6.767.24c-.32.095-.955.465-.936 1.174.019.71.632 1.079.936 1.175 1.608.151 5.006.47 5.737.527.73.057.99.296 1.03.407l2.107 2.637c1.054.647 1.569.431 2.342-.36.618-.633.148-1.637-.164-2.061l-2.576-2.924c-.506-.575-1.35-.783-1.71-.815zM33.567 20h-7.195c-.797.092-2.388.828-2.372 3.03.016 2.202 1.588 2.897 2.372 2.97h7.195c.784-.02 2.368-.642 2.431-2.97.064-2.329-1.594-2.99-2.431-3.03z" fill="#fff"/><path d="M19 24.372L20 33c-2.486 3.165-7.775 9.802-7.922 10.278-.185.596-.071 1.031.468 1.51.431.384 1.03.16 1.276 0 2.404-2.612 7.358-7.985 7.942-8.583.583-.597.885-1.584.963-2.002l1.226-9.831c.18-.887-.853-2.372-2.535-2.372-1.738 0-2.589 1.506-2.418 2.372zM41 20.5a2.5 2.5 0 11-5 0 2.5 2.5 0 015 0z" fill="#fff"/></svg>