<!-- by TradingView --><svg width="56" height="56" xmlns="http://www.w3.org/2000/svg"><path fill="#F0F3FA" d="M0 0h56v56H0z"/><path d="M27.983 45.86L12 29.879l15.983-15.982 15.983 15.982" fill="#2D7BD8"/><path d="M28.017 42.885L12.034 26.902l15.983-15.983L44 26.902" fill="#00674E"/><path d="M28.095 28.178L29.943 39h4.595l4.28-18h-4.8l-2.042 11.263-1.94-13.173H26.155l-1.94 13.173L22.172 21h-4.8l4.28 18h4.596" fill="#fff"/><path d="M35.524 20.72c0 .35.08 1.904.322 3.03-.107.232-.83.31-1.017.136-.724-1.806-2.438-2.777-5.035-2.777-2.972 0-6.158 1.844-6.158 5.708 0 3.865 3.078 5.942 6.293 5.942 3.238 0 4.739-1.69 5.461-3.01.215-.155.858-.097 1.018.137-.188 1.436-.643 2.6-1.018 3.047-1.446.292-3.346.719-5.435.719-2.624 0-5.302-.447-7.203-1.475-1.928-1.068-3.4-2.68-3.4-5.088 0-2.368 1.392-4.038 3.24-5.145 1.9-1.145 4.631-1.728 7.416-1.728 2.732 0 4.713.466 5.516.505z" fill="#2D7BD8"/><path d="M30.92 24.994l-.878-5.956h-3.88l-.877 5.958" fill="#fff"/></svg>