<!-- by TradingView --><svg width="56" height="56" xmlns="http://www.w3.org/2000/svg"><path fill="#002A4E" d="M0 0h56v56H0z"/><path d="M6.748 22.35H5V22h6.294v.35H9.021l4.022 11.714 2.972-7.168-1.748-4.546h-1.574V22h6.295v.35H16.54l4.196 11.714 4.546-11.714h-2.098V22h4.196v.35h-1.574l-5.77 15.036-3.671-9.791-4.022 9.791L6.748 22.35z" fill="#fff"/><path d="M34.374 22.01h6.469c2.156-.117 6.749.804 7.868 5.42 1.398 5.77-2.448 9.616-7.868 9.616h-6.82v-.35H36V22.36h-1.626v-.35zm3.626.342v14.32h3.717c1.748 0 5.07-1.864 5.07-7.32 0-5.454-3.322-7-5.07-7H38z" fill="#fff"/><path d="M28.285 26.226c.395-.48 1.062-.73 1.735-.73 1.604 0 2.362 1.613 1.618 2.715-.18.266-.448.505-.74.725-.236.179-.502.355-.768.529a75.663 75.663 0 002.102 2.162c.359-.783.52-1.662.52-2.234h.606c0 .704-.206 1.77-.671 2.684a126.44 126.44 0 001.166 1.133l.127.121.044.042-.21.217-.21.216-.046-.043a345.275 345.275 0 01-.595-.573l-.593-.579c-.494.714-1.211 1.278-2.198 1.278-1.359 0-2.211-.478-2.584-1.192-.366-.7-.22-1.531.212-2.13.334-.462.872-.861 1.406-1.218-.372-.414-.7-.8-.947-1.125l-.012-.016-.01-.018c-.429-.762-.365-1.46.048-1.964zm1.432 2.789c.294-.191.572-.373.813-.555.274-.207.48-.398.603-.582.47-.696.015-1.782-1.113-1.782-.541 0-1.012.202-1.263.507-.23.28-.318.7 0 1.278.248.325.581.714.96 1.134zm-.1.784c-.55.365-1.038.723-1.323 1.117-.326.452-.409 1.043-.167 1.506.234.447.823.868 2.045.868.75 0 1.331-.446 1.76-1.111l-.478-.477a74.822 74.822 0 01-1.837-1.903z" fill="#00BDF0"/></svg>