<!-- by TradingView --><svg width="56" height="56" xmlns="http://www.w3.org/2000/svg"><path fill="#267E44" d="M0 0h56v56H0z"/><path d="M28.205 39h9.696s1.873.233 3.086-1.578c1.542-2.36 6.335-9.333 6.335-9.333s1.488-1.592.055-3.897C46.11 22.215 42.584 17 42.584 17s.827 1.812-.385 3.623c-1.708 2.525-11.46 17.183-11.46 17.183s-.771 1.098-1.707.494c-.496-.33-.441-.768 0-1.537.44-.769 4.848-7.082 4.848-7.082s.77-.988.826-2.086c0-.878.055-.988-.55-1.976C33.438 24.466 28.04 17 28.04 17s-5.4 7.466-6.116 8.619c-.66 1.043-.55 1.098-.55 1.976 0 1.098.77 2.086.77 2.086s4.463 6.313 4.849 7.082c.44.769.496 1.208 0 1.537-.937.659-1.708-.494-1.708-.494s-9.751-14.712-11.46-17.238C12.615 18.812 13.44 17 13.44 17s-3.526 5.215-4.793 7.192c-1.487 2.305.055 3.897.055 3.897s4.793 6.972 6.336 9.333C16.25 39.288 18.123 39 18.123 39h10.082z" fill="#fff"/></svg>