<!-- by TradingView --><svg width="56" height="56" xmlns="http://www.w3.org/2000/svg"><path fill="#F6F8FD" d="M0 0h56v56H0z"/><circle cx="28" cy="28" r="16" fill="#0083CB"/><path opacity=".6" d="M42.656 33.955a10.5 10.5 0 00.119-1.578C42.775 25.54 36.16 20 28 20s-14.775 5.541-14.775 12.377c0 .534.04 1.061.12 1.578 3.857-1.458 9.003-2.348 14.655-2.348 5.652 0 10.798.89 14.656 2.348z" fill="#4BE9FF"/><path d="M42.774 34c-3.87-1.485-9.064-2.394-14.774-2.394-5.71 0-10.904.909-14.774 2.394.075-5.837 6.66-10.552 14.774-10.552 8.113 0 14.699 4.715 14.774 10.552z" fill="#fff"/></svg>