<!-- by TradingView --><svg xmlns="http://www.w3.org/2000/svg" width="56" height="56"><path d="M0 28a28 28 0 1156 0 28 28 0 01-56 0z" fill="#333F48"/><path fill-rule="evenodd" d="M14 24v6h1v-3.8l3.13 3.8h.37v-6h-1v3.8L14.39 24H14zm-2 6h1v-6h-1v6zm-2.76-2.12L10.26 24h1.26v.18L9.62 30h-.76L7.8 26.66h-.02L6.69 30h-.76L4 24.18V24h1.25l1.08 3.88h.02L7.5 24h.54l1.17 3.88h.03zM25 30v-6h3.5v1H26v1.5h2.5v1H26V29h2.5v1H25zm-5.5 0v-6h.39L23 27.7V24h1v6h-.37l-3.13-3.7V30h-1zm10-6h2.45a1.75 1.75 0 011.36 2.86A1.75 1.75 0 0132.25 30H29.5v-6zm1 2.5h1.45a.75.75 0 000-1.5H30.5v1.5zm0 1V29h1.75a.75.75 0 000-1.5H30.5zm6.4-3.5h.6l2.66 6h-1.1l-.44-1h-2.8l-.43 1H34.3l2.6-6zm.3 1.82l.97 2.18h-1.91l.95-2.18zM43 29c.6 0 1.2-.38 1.52-1H43v-1h2.75c0 1.66-1.23 3-2.75 3s-2.75-1.34-2.75-3 1.23-3 2.75-3c1.2 0 2.22.83 2.6 2h-1.08c-.32-.62-.91-1-1.52-1-.89 0-1.75.81-1.75 2s.86 2 1.75 2zm8-2c0 1.19-.86 2-1.75 2s-1.75-.81-1.75-2 .86-2 1.75-2 1.75.81 1.75 2zm1 0c0 1.66-1.23 3-2.75 3s-2.75-1.34-2.75-3 1.23-3 2.75-3S52 25.34 52 27z" fill="#fff"/><path d="M5.92 35h-.46v-3.6h.46V35zm5.57 0h-.47l-1.79-2.8V35h-.47v-3.6h.47l1.8 2.8v-2.8h.46V35zm2.81 0v-3.6h1c.31 0 .58.06.82.2s.42.33.55.58c.13.25.2.54.2.87v.23c0 .33-.07.68-.2.93s-.31.45-.55.58c-.24.14-.52.2-.84.21h-.98zm.47-3.22v2.84h.49c.36 0 .64-.12.84-.34.2-.22.3-.6.3-1.01v-.2c0-.41-.09-.73-.28-.95a1 1 0 00-.8-.34h-.55zM22 31.4v2.41c0 .34-.1.61-.32.82-.2.22-.49.34-.85.36h-.12c-.39 0-.7-.1-.93-.3-.23-.22-.35-.5-.35-.87v-2.43h.46v2.41c0 .26.07.46.21.6.14.14.35.21.6.21.27 0 .48-.07.62-.2a.8.8 0 00.2-.6v-2.42H22zm3.82 1.96c-.4-.11-.7-.25-.88-.42a.82.82 0 01-.27-.63c0-.28.1-.5.33-.69.23-.18.52-.27.87-.27.25 0 .47.04.66.14.19.1.34.22.44.39a1 1 0 01.16.54h-.47a.64.64 0 00-.2-.5.83.83 0 00-.59-.19.86.86 0 00-.54.15.5.5 0 00-.19.43c0 .14.06.26.18.37.13.1.34.19.63.27.3.08.53.17.7.28.16.1.29.21.37.34.08.14.12.3.12.48 0 .28-.12.51-.34.69-.22.17-.52.26-.9.26-.24 0-.47-.05-.68-.14-.22-.1-.38-.22-.5-.39a.94.94 0 01-.17-.55h.48c0 .21.07.38.23.5.16.13.37.2.64.2.25 0 .44-.06.57-.16a.5.5 0 00.2-.41c0-.17-.07-.3-.19-.4-.12-.1-.34-.2-.66-.29zm6.32-1.58H31V35h-.47v-3.22H29.4v-.39h2.75v.39zm3.84 1.73h-.84V35h-.47v-3.6h1.18c.4 0 .7.09.92.27.22.18.33.45.33.8 0 .21-.06.4-.19.57-.11.17-.28.29-.5.37l.84 1.56V35h-.5l-.77-1.49zm-.84-.38h.72a.8.8 0 00.56-.18.6.6 0 00.2-.49c0-.22-.06-.38-.2-.5-.12-.12-.31-.18-.56-.18h-.72v1.35zM40.23 35h-.47v-3.6h.47V35zm4.78-1.7h-1.54v1.32h1.79V35H43v-3.6h2.23v.38h-1.76v1.14H45v.39zm3.92.06c-.4-.11-.7-.25-.88-.42a.82.82 0 01-.27-.63c0-.28.11-.5.33-.69.23-.18.52-.27.88-.27.24 0 .46.04.65.14.2.1.34.22.44.39a1 1 0 01.16.54h-.47a.64.64 0 00-.2-.5.83.83 0 00-.58-.19.86.86 0 00-.54.15.5.5 0 00-.2.43c0 .14.06.26.19.37.12.1.33.19.62.27.3.08.53.17.7.28.16.1.29.21.37.34.08.14.12.3.12.48 0 .28-.11.51-.34.69-.22.17-.52.26-.9.26-.24 0-.47-.05-.68-.14-.21-.1-.38-.22-.5-.39a.94.94 0 01-.16-.55h.47c0 .21.08.38.23.5.16.13.38.2.64.2.25 0 .44-.06.57-.16a.5.5 0 00.2-.41c0-.17-.06-.3-.18-.4-.13-.1-.35-.2-.67-.29z" fill="#8C9DA6"/></svg>