<!-- by TradingView --><svg width="56" height="56" xmlns="http://www.w3.org/2000/svg"><path fill="#0065AB" d="M0 0h56v56H0z"/><path d="M9 24l1 .002 1 3.494 1.004-3.494H13l1 3.494 1-3.494h1l-1.463 4.996h-1.033L12.53 26l-.999 2.998h-1.043L9 24zM18.498 27.035l-2-3.033h1.062L19 26l1.458-1.998h1.04l-1.998 3.003v1.993h-1.003v-1.963zM21.998 24.002h1.006L24.998 27l.001-2.998h.992v4.996h-.993L23.004 26v2.998h-1.006v-4.996zM27 24.002h1.659c1.39 0 2.344 1.08 2.344 2.488v.01c0 1.407-.962 2.498-2.344 2.498H27v-4.996zM28.482 28C29.41 28 30 27.491 30 26.51v-.01c0-.982-.414-1.5-1.341-1.5H28v3h.482zM33 24v2h2v-2h1v4.998h-1v-1.994h-2v1.994h-1V24h1zM39.043 24h.75l2.031 4.988-.935.01L40.4 28h-1.963l-.438.998h-.996l1.02-2.5L39.043 24zm1.109 3.004l-.743-1.963-.663 1.963h1.406zM42 24h.95l1.545 2.365L46.051 24H47v4.998h-.998v-3.583l-1.507 2.356h-.02L43 25.435v3.563H42V24zM4 32s6.518-2.11 23.952-2.11C45.51 29.89 52 31.99 52 31.99S44.109 31 28 31 4 32 4 32z" fill="#fff"/></svg>