<!-- by TradingView --><svg width="56" height="56" xmlns="http://www.w3.org/2000/svg"><path fill="#ED3237" d="M0 0h56v56H0z"/><path d="M28 44c-8.818 0-16-7.174-16-16s7.182-16 16-16 16 7.174 16 16-7.174 16-16 16zm0-31c-8.178 0-15 6.813-15 15 0 8.178 6.813 15 15 15 8.187 0 15-6.813 15-15 0-8.178-6.822-15-15-15z" fill="#fff"/><path d="M27.003 32c-.372 0-.998-.124-1.752-.364C22.111 30.627 20 27.766 20 24.5c0-4.134 3.409-7.5 7.596-7.5 3.56 0 6.6 2.39 7.404 5.805l-.82.19c-.713-3.043-3.418-5.16-6.584-5.16-3.727 0-6.75 2.994-6.75 6.665 0 2.902 1.876 5.45 4.665 6.342.67.215.965.3 1.492.3V32z" fill="#fff"/><path d="M21.211 38c-1.072 0 2.261-1.155 3.637-1.083 1.886.096 3.825.271 6.152 0v-2.541c0-.27-1.237-.808-1.644-1.063 0 0-1.356-.713-1.356-1.44V26.71c0-.306.414-.711 1-.71.585.001 1 .426 1 .726v4.748c.544.247.554.28 1 .471v-9.162c0-.23.373-.79 1-.783.626.006 1 .5 1 .783v5.639L34 28v-2.702c0-.222.375-.81 1-.798.624.012 1 .5 1 .798v2.869c0 .43-.24.665-.555.934-.64.546-2.445 1.434-2.445 1.434v6.398c1.012.208 2.212.155 3 .067v1H21.21z" fill="#fff"/></svg>