<!-- by TradingView --><svg xmlns="http://www.w3.org/2000/svg" width="56" height="56"><path fill="url(#amv1p0qpm)" d="M0 0h56v56H0z"/><path d="M15.32 23l-2.47 9h-1.43l-1.75-6.54L7.9 32H6.47L4 23h1.5l1.68 6.25L8.95 23h1.41l1.84 6.25L13.87 23h1.45zm.68.12l1.5-.12v3.36a4.86 4.86 0 011.81-.36c1.15 0 1.9.51 1.9 2.47V32h-1.48v-3.38c0-1.17-.5-1.34-1.16-1.34-.38 0-.7.05-1.07.17V32H16v-8.88zm8.07.8c0-.49-.12-.92-.85-.92-.64 0-.8.43-.8.91 0 .49.17.93.8.93.7 0 .85-.44.85-.93zM24 26h-1.5v6H24v-6zm1 0h.97l.2.57h.08c.5-.38 1.11-.58 1.75-.57h.3v1.31a5.84 5.84 0 00-.8-.07c-.38 0-.67.09-1 .24V32H25v-6zm4-2.88V32h1.5v-9l-1.5.12zM40.53 26C42.3 26 43 27.09 43 29.01c0 1.8-.64 2.99-2.5 2.99-1.85 0-2.5-1.18-2.5-2.99 0-1.92.74-3.01 2.53-3.01zm.97 3.01c0-1.1-.26-1.68-.97-1.68s-1.03.55-1.03 1.68c0 1.05.35 1.64 1 1.64.67 0 1-.54 1-1.64zm7.5 0c0-1.92-.69-3.01-2.47-3.01-1.79 0-2.53 1.09-2.53 3.01 0 1.8.65 2.99 2.5 2.99 1.86 0 2.5-1.18 2.5-2.99zm-2.47-1.68c.71 0 .97.58.97 1.68s-.33 1.64-1 1.64c-.65 0-1-.59-1-1.64 0-1.13.32-1.68 1.03-1.68zM50.5 32v-8.88L52 23v9h-1.5zm-17.87-6H31.5v9l1.5-.15v-2.94c.4.07.8.08 1.2.09h.05c1.66 0 2.75-.84 2.75-2.95C37 26.9 35.96 26 34.67 26a4.6 4.6 0 00-1.93.53l-.11-.53zm.67 4.84H33v-3.36c.34-.12.66-.17 1.02-.18.93 0 1.48.32 1.48 1.53 0 1.76-.61 2.03-1.5 2.03l-.7-.02z" fill="#fff"/><path d="M38.58 21.5c-1.06-1.22-4.31-.16-8.08 2.45v.66c3.32-2.36 6.12-3.43 6.96-2.46 1.04 1.2-1.56 5.17-5.81 8.85-4.25 3.67-8.55 5.66-9.6 4.45-.54-.63-.02-1.77 1.13-3.45h-.67c-1.42 2.11-2.03 3.65-1.3 4.5 1.33 1.54 6.3-.57 11.09-4.71 4.8-4.14 7.61-8.74 6.28-10.28z" fill="#EEB111"/><defs><linearGradient id="amv1p0qpm" x1="10.42" y1="9.71" x2="68.15" y2="76.02" gradientUnits="userSpaceOnUse"><stop stop-color="#1A1E21"/><stop offset="1" stop-color="#06060A"/></linearGradient></defs></svg>