<!-- by TradingView --><svg xmlns="http://www.w3.org/2000/svg" width="56" height="56"><path fill="#F0F3FA" d="M0 0h56v56H0z"/><path d="M44 19v-2a4 4 0 00-4-4h-.77c.37.53.98 1.75.94 3.19-.06 1.93-1.08 4.2-3.69 6.43 1.9-.1 5.52-.85 5.52-3.62h2zm-8.33-6h-5.15c-1.25.87-3.47 3.44-3.4 7.64.06 4.38 1.14 7.1 1.67 7.9.54-1.75 2.29-5.61 4.96-7.06-.7-.8-1.9-2.98-1.25-5.3l1.37.35c-.2.81-.24 2.77 1.19 4.11.81-.56 2.47-2.17 2.59-4.11.09-1.45-1-2.73-1.98-3.53z" fill="#42718F"/><path d="M24.13 43c.98-1.85 2.55-5.64 2.59-9.06.01-1.45-.27-3.9-4.33-3.53-.38.21-1.36 1.06-2.7 2.48-1.73 1.82-5.61 1.94-7.01.13l.95-1.13c.98.87 3.55 1.88 5.92-1.04-1.63.37-5.37.7-7.55-.9V39a4 4 0 004 4h8.13z" fill="#7B9AAF"/><path d="M44 24.08v-4.23a6.23 6.23 0 01-3.83 3.93l-1.56.26c-2.02.32-4.56.72-5.42 1.57-1.12 1.1-2.6 4.28-2.76 6.3.6-1 2.86-3.26 7.14-4.35 4.05-1.03 5.92-2.67 6.43-3.48z" fill="#003B60"/><path d="M33.43 43H40a4 4 0 004-4v-7.5a8.96 8.96 0 00-5.07-1.84C35.95 29.6 31 31.57 31 36.51c0 .69.22 2.74 2.43 6.5zM44 29.08v-2.77l-2.4 1.78c.49.15 1.6.54 2.4.99zM27.78 13h-3.5c.43.95.83 2.91-.6 3.95l1.58 2.72c.07-1.53.68-4.96 2.52-6.67z" fill="#1B5A7D"/><path d="M21.9 13H16a4 4 0 00-4 4v10.2c.72.89 2.45 2.26 4.87 2.01.24-.58.55-2.03-.12-3.09-.79-1.25-2.21-1.3-2.98-1.34h-.14v-1.52c.9-.1 3.05.16 4.38 1.97.35-.38 1.45-1.06 3.05-.7l-.35 1.42c-.54-.1-1.71-.04-2.08 1.01.07.4.14 1.39-.1 2.04 1.54-.38 5.28-.89 7.93.21-.28-1.4-1.18-4.41-2.46-5.26a6.23 6.23 0 00-3.18-1.07c-2.45-.24-7.29-1.7-7-5.65l1.86.42c-.06.84.86 2.65 5.03 3.21.86.11 2.86.5 4.05 1.18-.81-2.25-3.17-6.76-6.13-6.76a7.23 7.23 0 00-2.46.48l-.49-1.4a7.27 7.27 0 013.41-.67c1.98.1 3.11 1.2 3.69 2.07.42-.52.81-1.77-.87-2.76z" fill="#1B5A7D"/><path d="M36 15.64c.63.81 1.35 2.6-.8 3.34-.62-.52-1.34-1.91.8-3.34zm-6.38 1.09c.47.79.91 2.47-1.08 2.88-.5-.53-.98-1.86 1.08-2.88zm-11.9.05c0 1.32.7 3.73 3.44 2.72.23-1.04-.14-3.04-3.43-2.72zm3.5 17.95c-.25-1.14-.12-3.33 2.42-3.02.4.85.47 2.63-2.42 3.02zm18.75-2.14c-.93.67-2.97 1.39-3.65-1.14.61-.69 2.2-1.44 3.65 1.14zm-26.63-6.65c0 .92.48 2.6 2.39 1.9.16-.73-.1-2.12-2.39-1.9zm9.98-.48c.15.9-.06 2.64-2.06 2.25-.27-.68-.23-2.1 2.06-2.25zm12.7.5c-.11.92-.8 2.51-2.6 1.57-.06-.74.36-2.08 2.6-1.57zm-5.48-6.4c-.27.71-.4 2.15 1.28 2.2.34-.51.55-1.66-1.28-2.2z" fill="#CDD90A"/></svg>