<!-- by TradingView --><svg width="56" height="56" fill="none" xmlns="http://www.w3.org/2000/svg"><path fill="#31B6EE" d="M0 0h56v56H0z"/><path d="M18.213 19.325l-6.685-2.833a1 1 0 00-1.31.53l-.677 1.595a3 3 0 001.592 3.933l5.019 2.127a1 1 0 01.602 1.044l-.791 6.331C15.435 36.272 18.726 40 22.979 40a7.065 7.065 0 005.496-2.623A8.518 8.518 0 0034.641 40a8.56 8.56 0 008.493-7.497l.977-7.817A1.5 1.5 0 0042.623 23h-2.536a1.5 1.5 0 00-1.486 1.3l-1.054 7.836a2.594 2.594 0 01-5.14-.69l.503-3.746a1.5 1.5 0 00-1.487-1.7h-2.618a1.5 1.5 0 00-1.487 1.3l-.65 4.836a2.594 2.594 0 11-5.14-.69l1.159-8.628a2 2 0 00-1.202-2.108l-3.271-1.386h-.001z" fill="#fff"/></svg>