<!-- by TradingView --><svg width="56" height="56" xmlns="http://www.w3.org/2000/svg"><path fill="#F0F3FA" d="M0 0h56v56H0z"/><mask id="a" maskUnits="userSpaceOnUse" x="15" y="13" width="32" height="32"><ellipse cx="45.283" cy="28.5" rx="1.717" ry="1.708" fill="#fff"/><ellipse cx="44.775" cy="24.751" rx="1.597" ry="1.59" fill="#fff"/><ellipse cx="43.292" cy="21.277" rx="1.411" ry="1.404" fill="#fff"/><ellipse cx="41.019" cy="18.275" rx="1.295" ry="1.289" fill="#fff"/><ellipse cx="38.011" cy="16.001" rx="1.191" ry="1.185" fill="#fff"/><ellipse cx="34.49" cy="14.554" rx="1.158" ry="1.152" fill="#fff"/><ellipse cx="30.731" cy="14.049" rx="1.054" ry="1.049" fill="#fff"/><ellipse cx="26.976" cy="14.554" rx=".987" ry=".982" fill="#fff"/><ellipse cx="23.443" cy="16" rx=".919" ry=".915" fill="#fff"/><ellipse cx="20.44" cy="18.299" rx=".843" ry=".838" fill="#fff"/><ellipse cx="18.114" cy="21.272" rx=".777" ry=".773" fill="#fff"/><ellipse cx="16.697" cy="24.577" rx=".751" ry=".747" fill="#fff"/><ellipse rx="1.597" ry="1.59" transform="matrix(1 0 0 -1 44.775 32.249)" fill="#fff"/><ellipse rx="1.411" ry="1.404" transform="matrix(1 0 0 -1 43.292 35.723)" fill="#fff"/><ellipse rx="1.295" ry="1.289" transform="matrix(1 0 0 -1 41.02 38.725)" fill="#fff"/><ellipse rx="1.191" ry="1.185" transform="matrix(1 0 0 -1 38.01 40.999)" fill="#fff"/><ellipse rx="1.158" ry="1.152" transform="matrix(1 0 0 -1 34.49 42.446)" fill="#fff"/><ellipse rx="1.054" ry="1.049" transform="matrix(1 0 0 -1 30.731 42.951)" fill="#fff"/><ellipse rx=".987" ry=".982" transform="matrix(1 0 0 -1 26.976 42.446)" fill="#fff"/><ellipse rx=".919" ry=".915" transform="matrix(1 0 0 -1 23.443 41)" fill="#fff"/><ellipse rx=".843" ry=".838" transform="matrix(1 0 0 -1 20.44 38.702)" fill="#fff"/><ellipse rx=".777" ry=".773" transform="matrix(1 0 0 -1 18.114 35.728)" fill="#fff"/><ellipse cx="41.096" cy="28.5" rx="1.219" ry="1.213" fill="#fff"/><ellipse cx="40.735" cy="25.838" rx="1.134" ry="1.129" fill="#fff"/><ellipse cx="39.683" cy="23.371" rx="1.002" ry=".997" fill="#fff"/><ellipse cx="38.069" cy="21.239" rx=".92" ry=".915" fill="#fff"/><ellipse cx="35.932" cy="19.625" rx=".846" ry=".842" fill="#fff"/><ellipse cx="33.433" cy="18.598" rx=".822" ry=".818" fill="#fff"/><ellipse cx="30.764" cy="18.239" rx=".749" ry=".745" fill="#fff"/><ellipse cx="28.097" cy="18.598" rx=".701" ry=".697" fill="#fff"/><ellipse cx="25.589" cy="19.624" rx=".653" ry=".65" fill="#fff"/><ellipse cx="23.457" cy="21.256" rx=".599" ry=".595" fill="#fff"/><ellipse cx="21.805" cy="23.368" rx=".552" ry=".549" fill="#fff"/><ellipse rx="1.134" ry="1.129" transform="matrix(1 0 0 -1 40.735 31.162)" fill="#fff"/><ellipse rx="1.002" ry=".997" transform="matrix(1 0 0 -1 39.683 33.629)" fill="#fff"/><ellipse rx=".92" ry=".915" transform="matrix(1 0 0 -1 38.069 35.76)" fill="#fff"/><ellipse rx=".846" ry=".842" transform="matrix(1 0 0 -1 35.932 37.375)" fill="#fff"/><ellipse rx=".822" ry=".818" transform="matrix(1 0 0 -1 33.433 38.402)" fill="#fff"/><ellipse rx=".749" ry=".745" transform="matrix(1 0 0 -1 30.764 38.761)" fill="#fff"/><ellipse rx=".701" ry=".697" transform="matrix(1 0 0 -1 28.097 38.402)" fill="#fff"/><ellipse rx=".653" ry=".65" transform="matrix(1 0 0 -1 25.59 37.376)" fill="#fff"/><ellipse rx=".599" ry=".595" transform="matrix(1 0 0 -1 23.457 35.743)" fill="#fff"/><ellipse rx=".552" ry=".549" transform="matrix(1 0 0 -1 21.805 33.632)" fill="#fff"/><ellipse cx="38.009" cy="28.5" rx=".857" ry=".853" fill="#fff"/><ellipse cx="37.755" cy="26.628" rx=".798" ry=".794" fill="#fff"/><ellipse cx="37.015" cy="24.893" rx=".705" ry=".701" fill="#fff"/><ellipse cx="35.88" cy="23.394" rx=".647" ry=".644" fill="#fff"/><ellipse cx="34.378" cy="22.259" rx=".595" ry=".592" fill="#fff"/><ellipse cx="32.62" cy="21.536" rx=".579" ry=".575" fill="#fff"/><ellipse cx="30.742" cy="21.284" rx=".527" ry=".524" fill="#fff"/><ellipse cx="28.868" cy="21.536" rx=".493" ry=".49" fill="#fff"/><ellipse cx="27.103" cy="22.258" rx=".459" ry=".457" fill="#fff"/><ellipse cx="25.605" cy="23.406" rx=".421" ry=".419" fill="#fff"/><ellipse cx="24.442" cy="24.891" rx=".388" ry=".386" fill="#fff"/><ellipse rx=".798" ry=".794" transform="matrix(1 0 0 -1 37.755 30.372)" fill="#fff"/><ellipse rx=".705" ry=".701" transform="matrix(1 0 0 -1 37.015 32.107)" fill="#fff"/><ellipse rx=".647" ry=".644" transform="matrix(1 0 0 -1 35.88 33.606)" fill="#fff"/><ellipse rx=".595" ry=".592" transform="matrix(1 0 0 -1 34.378 34.741)" fill="#fff"/><ellipse rx=".579" ry=".575" transform="matrix(1 0 0 -1 32.62 35.464)" fill="#fff"/><ellipse rx=".527" ry=".524" transform="matrix(1 0 0 -1 30.743 35.716)" fill="#fff"/><ellipse rx=".493" ry=".49" transform="matrix(1 0 0 -1 28.868 35.464)" fill="#fff"/><ellipse rx=".459" ry=".457" transform="matrix(1 0 0 -1 27.103 34.742)" fill="#fff"/><ellipse rx=".421" ry=".419" transform="matrix(1 0 0 -1 25.605 33.594)" fill="#fff"/><ellipse rx=".388" ry=".386" transform="matrix(1 0 0 -1 24.442 32.11)" fill="#fff"/><ellipse cx="35.485" cy="28.5" rx=".568" ry=".565" fill="#fff"/><ellipse cx="35.317" cy="27.26" rx=".529" ry=".526" fill="#fff"/><ellipse cx="34.826" cy="26.111" rx=".467" ry=".464" fill="#fff"/><ellipse cx="34.074" cy="25.118" rx=".429" ry=".426" fill="#fff"/><ellipse cx="33.08" cy="24.366" rx=".394" ry=".392" fill="#fff"/><ellipse cx="31.915" cy="23.888" rx=".383" ry=".381" fill="#fff"/><ellipse cx="30.672" cy="23.72" rx=".349" ry=".347" fill="#fff"/><ellipse cx="29.43" cy="23.887" rx=".327" ry=".325" fill="#fff"/><ellipse cx="28.262" cy="24.366" rx=".304" ry=".303" fill="#fff"/><ellipse cx="27.269" cy="25.126" rx=".279" ry=".277" fill="#fff"/><ellipse rx=".529" ry=".526" transform="matrix(1 0 0 -1 35.317 29.74)" fill="#fff"/><ellipse rx=".467" ry=".464" transform="matrix(1 0 0 -1 34.826 30.889)" fill="#fff"/><ellipse rx=".429" ry=".426" transform="matrix(1 0 0 -1 34.074 31.882)" fill="#fff"/><ellipse rx=".394" ry=".392" transform="matrix(1 0 0 -1 33.08 32.633)" fill="#fff"/><ellipse rx=".383" ry=".381" transform="matrix(1 0 0 -1 31.915 33.112)" fill="#fff"/><ellipse rx=".349" ry=".347" transform="matrix(1 0 0 -1 30.672 33.28)" fill="#fff"/><ellipse rx=".327" ry=".325" transform="matrix(1 0 0 -1 29.43 33.112)" fill="#fff"/><ellipse rx=".304" ry=".303" transform="matrix(1 0 0 -1 28.262 32.634)" fill="#fff"/><ellipse rx=".279" ry=".277" transform="matrix(1 0 0 -1 27.269 31.874)" fill="#fff"/></mask><g mask="url(#a)"><ellipse cx="31.019" cy="28.576" rx="16.328" ry="16.25" fill="url(#paint0_angular)"/></g><path d="M30.695 26.018c-1.382 0-2.502 1.145-2.502 2.557s1.12 2.558 2.502 2.558c1.381 0 2.496-1.146 2.496-2.558.005-1.412-1.115-2.557-2.497-2.557zm0 3.911c-.707 0-1.288-.604-1.288-1.349s.576-1.349 1.288-1.349c.706 0 1.282.604 1.282 1.35.005.739-.57 1.348-1.282 1.348zM11.58 27.972l1.538 3.032c.037.07.131.129.21.129h.136a.217.217 0 00.188-.14l1.502-4.776c.037-.113-.031-.217-.146-.217h-.921c-.079 0-.163.072-.189.147l-.759 2.415-1.303-2.57a.263.263 0 00-.21-.13h-.094a.263.263 0 00-.209.13l-1.303 2.57-.76-2.415c-.025-.075-.109-.147-.188-.147h-.915c-.116 0-.184.104-.147.216l1.502 4.777c.026.076.11.14.189.14h.136c.078 0 .172-.06.209-.129l1.534-3.032zM17.374 30.78c0 .119-.095.213-.215.213h-.927a.212.212 0 01-.215-.214v-4.545c0-.12.095-.214.215-.214h.927c.12 0 .215.094.215.214v4.545zM21.215 25.848c-.639 0-1.22.276-1.644.724l-.167-.448a.224.224 0 00-.194-.136h-.429a.212.212 0 00-.214.214v7.134c0 .12.094.214.214.214h1.004c.12 0 .215-.094.215-.214v-2.417c.392.136.76.214 1.22.214 1.303 0 2.355-1.316 2.355-2.728 0-1.411-1.057-2.557-2.36-2.557zm-.251 4.082c-.388 0-.676-.105-.964-.271V27.66c.225-.36.534-.599.964-.599.685 0 1.245.605 1.245 1.35 0 .739-.56 1.518-1.245 1.518zM26.998 25.848c-.895 0-1.413.748-1.413.748l-.168-.463a.225.225 0 00-.193-.14h-.43a.215.215 0 00-.214.221v4.557c0 .124.094.221.215.221h.926c.12 0 .215-.097.215-.22v-3.19a1.153 1.153 0 011.371-.388c.141.054.246-.01.288-.107l.32-.744c.083-.177-.027-.495-.917-.495z" fill="#301157"/><defs><radialGradient id="paint0_angular" cx="0" cy="0" r="1" gradientUnits="userSpaceOnUse" gradientTransform="matrix(0 16.2499 -16.3284 0 31.019 28.576)"><stop offset=".201" stop-color="#FEC604"/><stop offset=".37" stop-color="#46BC67"/><stop offset=".5" stop-color="#4693BC"/><stop offset=".745" stop-color="#15337E"/><stop offset=".875" stop-color="#B40F74"/><stop offset="1" stop-color="#E3574D"/></radialGradient></defs></svg>