<!-- by TradingView --><svg width="56" height="56" xmlns="http://www.w3.org/2000/svg"><path fill="#6C0" d="M0 0h56v56H0z"/><path d="M15.014 22l-2.94 8.521L10.833 27H8.837l2.292 6h2.125l4.002-11h-2.242zm-7.591 8.521L6.016 27H4l2.288 6H8.62l.921-2.83-1.01-2.784-1.107 3.135zm24.23-1.143L34.5 27H32l-2 1.686V24h-2v9h2v-3l2.71 3h2.576l-3.632-3.622zm-4.18-.526a1.767 1.767 0 00-.913-.166C25.873 28.69 25 29 25 30v3h-2v-6h2v.5h.027c.284-.631 1.864-.768 2.473-.5l-.027 1.852zM18.977 33c-2.094 0-3.675-1.25-3.675-3.272 0-2.021 1.585-3.268 3.675-3.268s3.671 1.247 3.671 3.287S21.071 33 18.977 33zm0-4.932c-.94 0-1.504.7-1.504 1.63 0 .93.552 1.635 1.504 1.635s1.503-.705 1.503-1.634c0-.93-.551-1.642-1.503-1.642v.011zM52 33h-2v-.815c-.235.253-.603.456-.927.594a2.599 2.599 0 01-1.032.206c-1.165 0-2.4-.594-2.4-2 0-1.357 1.351-1.87 2.575-1.92L50 29v-.139c0-.664-.618-1.01-1.477-1.01a4.444 4.444 0 00-2.028.564l-.563-1.328a6.947 6.947 0 012.812-.627c1.236 0 1.943.269 2.467.738.525.468.789 1.08.789 2.138V33zm-2-2.918l-1.194.063c-.66.026-1.048.299-1.048.764 0 .464.415.774 1.01.774.218-.002.432-.055.623-.154.192-.1.49-.355.609-.529v-.918zM45.5 27L43 33h-2l-2.5-6h2l1.5 3.5 1.5-3.5h2zM38 33h-2v-6h2v6zm-2-7v-2h2l-2 2z" fill="#fff"/></svg>