<!-- by TradingView --><svg width="56" height="56" xmlns="http://www.w3.org/2000/svg"><path fill="#164D85" d="M0 0h56v56H0z"/><path d="M27.109 35.165c-.503 1.194-1.035 2.383-1.49 3.597-2.338-6.213-6.422-19.015-6.422-19.015-.206-.514-.308-1.233.308-1.747H10c.963.963 1.83 1.514 2.26 2.93l6.834 20.761c.051.154.103.309.308.309h6.988c.205 0 .256-.103.205-.257-.103-.36-.154-.72-.257-1.08a1.163 1.163 0 01.052-.924c.462-.925.873-1.902 1.284-2.878l1.593 4.779c.051.206.154.36.41.36h7.296c-.154-.565-.256-1.13-.41-1.645a.5.5 0 01.05-.462c3.083-7.04 6.217-14.03 9.3-21.07.206-.515.051-.823-.514-.823H40.57c.616.206 1.233.36 1.798.617.72.308 1.13.822 1.182 1.644.051.668-.154 1.285-.411 1.902a7674.442 7674.442 0 01-7.242 16.479c-1.34-3.823-3.959-11.494-3.959-11.494s2.455-5.592 3.7-8.377c.205-.463 0-.771-.514-.771h-2.826c.49.139 1.695.435 1.695 1.233 0 .309-.154.566-.256.874-.62 1.384-2.415 5.293-2.415 5.293s-1.233-3.597-1.798-5.447c-.206-.668-.309-1.388.205-1.953h-9.453c1.233.617 1.952 1.696 2.312 2.878 1.579 4.738 2.988 9.534 4.52 14.287z" fill="#fff"/></svg>