<!-- by TradingView --><svg width="56" height="56" xmlns="http://www.w3.org/2000/svg"><path fill="#F0F3FA" d="M0 0h56v56H0z"/><path d="M16.5 33h1l1.5-5h-1.5l-.647 1.995L16 28h-1l-.788 1.995L13.5 28H12l1.5 5h1l1-3.005 1 3.005zM20.5 31h2v2H24v-5h-1.5v2h-2v-2H19v5h1.5v-2zM24.5 33H26v-5h-1.5v5zM31 29v-1h-4.5v1H28v4h1.5v-4H31zM33 28h-1.5v5H33v-5zM37 31l-2-3h-1.5v5H35v-3l2 3h1.5v-5H37v3zM43.694 29.223c-.413-.801-1.14-1.223-2.108-1.223C40.04 28 39 29.013 39 30.524 39 31.982 40.045 33 41.542 33c.847 0 1.528-.32 1.97-.924.43-.592.475-1.42.488-2.076h-2v1h.448c-.072.415-.245.897-.9.897-.763 0-1.048-.717-1.048-1.397 0-.669.287-1.35 1.03-1.35.407 0 .735.22.912.608l1.252-.535z" fill="#EE2922"/><path d="M33.996 34A6.917 6.917 0 0128 37.428c-2.57 0-4.809-1.381-5.995-3.428H17c1.436 4.63 5.817 8 11 8 5.182 0 9.564-3.37 11-8h-5.004zM22 27c1.76-2.6 5.098-3.945 6.004-7 .906 3.055 4.237 4.4 5.996 7h5c-2.174-5.623-8.888-5.739-11-17-2.113 11.261-8.827 11.377-11 17h5z" fill="#231F20"/></svg>