<!-- by TradingView --><svg width="56" height="56" xmlns="http://www.w3.org/2000/svg"><path fill="#E61A23" d="M0 0h56v56H0z"/><path d="M17.535 32.104c.31.488 1.123 1.896 1.797 1.896.76 0 1.519-1.494 1.813-2.03l2.22-4.44c.777-1.409 1.831-.737 1.831-1.678 0-.84-1.52-.852-2.106-.852-.57 0-2.109.029-2.109.869 0 .554.484.654.484 1.074 0 .117-.656 1.645-1.173 1.645-.38 0-1.037-1.31-1.037-1.645 0-.386.553-.437.553-1.04 0-.924-1.85-.903-2.505-.903-3.386 0-3.472.685-3.472 1.02 0 .62 1.07.62 1.07 1.427 0 .234-.482 1.108-.793 1.108-.433 0-1.226-1.495-1.226-1.78 0-.218.328-.37.328-.755 0-.99-2.09-1.02-2.764-1.02-.795 0-3.437.096-3.437 1.17 0 .856.846.336 1.4 1.226l3.271 5.412c.295.47.674 1.192 1.314 1.192.535 0 .828-.553 1.07-.94l1.261-2.13c.155-.27.397-.756.76-.756.26 0 .449.368.57.555l.88 1.375zM32.01 30c.553 0 .991-.245.991-1.353C33 27.387 31.767 25 28.83 25 26.24 25 24 27.068 24 29.654 24 31.82 25.584 34 28.692 34c1.554 0 3.99-.94 3.99-2.232 0-.319-.312-.838-.673-.838-.363 0-1.002.755-2.298.755-.812 0-1.917-.57-1.917-1.409 0-.285.277-.276.466-.276h3.749zm-3.282-1.706c-.45 0-1.037.134-1.037-.47 0-.538.467-1.109 1.037-1.109.638 0 1.02.47 1.02 1.076 0 .604-.553.503-1.02.503zM38 25.708c0-.353.14-.708-.378-.708-.173 0-4.622.472-4.622 1.666 0 .755.944.57 1.098 1.157.191.62.225 3.325 0 3.911-.207.522-.916.554-.916 1.16 0 .402.121 1.106 3.093 1.106.777 0 2.97-.05 2.97-1.192 0-.888-1.245-.167-1.245-2.148v-4.952zm.14-2.651c0-.839-.984-1.057-1.675-1.057-.881 0-3.162.453-3.162 1.562 0 .821.778 1.14 1.504 1.14.984 0 3.333-.336 3.333-1.645zM42.707 25c-1.778 0-3.194 1.057-3.194 2.734 0 2.77 3.377 3.078 3.377 4.068 0 .368-.328.537-.675.537-.967 0-1.658-1.662-2.418-1.662-.5 0-.656.353-.656.79 0 .637.45 1.744.88 2.214.243.267.416.319.762.319.223 0 .432-.066.674-.066.207 0 1.466.066 2.175.066C45.428 34 47 32.91 47 31.332c0-2.601-3.79-2.992-3.79-4.066 0-.32.31-.571.62-.571.76 0 1.312 1.326 2.298 1.326.45 0 .872-.336.872-.79 0-.688-.821-2.23-1.616-2.23-.328 0-.603.218-.931.218-.26 0-1.072-.219-1.746-.219z" fill="#fff"/></svg>