<!-- by TradingView --><svg width="56" height="56" xmlns="http://www.w3.org/2000/svg"><path fill="url(#paint0_linear)" d="M0 0h56v56H0z"/><path d="M49 20h2v3.995h-2c0-1.475-1.041-2.034-2.14-1.995-1.097.04-1.877.934-1.877 2.475 0 1.243 1.403 1.817 2.082 1.95 1.824.359 4.935 1.524 4.935 4.8C52 35.115 49.293 36 47.51 36c-1.611 0-2.103-.792-2.509-1.275V36h-2v-5h2c.164 1.9 1.129 2.991 2.509 3 1.38.008 2.491-.688 2.491-2.455 0-1.767-1.741-2.064-2.491-2.22-1.611-.335-4.824-1.39-5.03-4.35-.257-3.7 2.527-4.95 4.188-4.975 1.532-.023 2.006.725 2.333 1.1V20z" fill="#fff"/><path d="M28.995 20l-9.61 16H25v-2H23.53l1.15-2H31v-4h-3.912l3.412-6H32v12h-2v2h7.932c2.09-.18 6.22-2.065 6.03-8.176-.19-6.11-4.1-7.762-6.03-7.824h-8.937z" fill="#fff"/><path d="M34 33.99V22.01h2.916c1.657-.13 4.993.884 5.082 5.99.09 5.106-3.35 6.12-5.082 5.99H34z" fill="url(#paint1_linear)"/><path d="M26.364 20.74V20h2.156l-3.075 4.484V20.74h.92zM19 30.792v4.59l2.777-4.59h-.875l-.8 1.19v-1.19H19zM6 36v-1H5V21h1v-1H4v16h2zM8.483 36v-1H7.47V21h1.014v-1H6.476v16h2.007zM11 36v-1H9.99V21H11v-1H9v16h2zM13.405 36v-1h-1.014V21h1.014v-1h-2.007v16h2.007zM16 36v-1h-1.01V21H16v-1h-2v16h2zM18.526 36v-1h-1.014V21h1.014v-1H16.52v16h2.007zM19 29h.99v-8H21v-1h-2v9zM21.517 29h.993v-8h1.014v-1h-2.007v9z" fill="#fff"/><path d="M24 27.259l.99-1.62V21H26v-1h-2v7.259zM6.584 21H5.65v5h.935v-5zM9 21H8v5h1v-5zM11.547 21h-.962v5h.962v-5zM14 21h-1v5h1v-5zM16.636 21h-1.058v5h1.058v-5zM19.005 21h-1v5h1v-5zM21.576 21h-1.043v5h1.043v-5zM24 21h-1v5h1v-5zM6.584 34H5.98v-3h.604v3zM9.087 34h-.604v-3.208h.604V34zM12 34h-1v-3.415h1V34zM14.009 34h-.604v-3.415h.604V34zM17 34h-1v-3.415h1V34zM19 34h-.604v-3.415H19V34z" fill="#fff"/><path d="M31 29H4v2h27v-2z" fill="#7BBF46"/><defs><linearGradient id="paint0_linear" x1="10.418" y1="9.712" x2="68.147" y2="76.017" gradientUnits="userSpaceOnUse"><stop stop-color="#1A1E21"/><stop offset="1" stop-color="#06060A"/></linearGradient><linearGradient id="paint1_linear" x1="35.488" y1="24.081" x2="47.545" y2="33.313" gradientUnits="userSpaceOnUse"><stop stop-color="#1A1E21"/><stop offset="1" stop-color="#06060A"/></linearGradient></defs></svg>