<!-- by TradingView --><svg width="56" height="56" xmlns="http://www.w3.org/2000/svg"><path fill="url(#paint0_linear)" d="M0 0h56v56H0z"/><path d="M7.016 21.571c-.096-.503.262-.58.452-.554.418 0 1.367-.003 1.821-.014.454-.01.585.332.594.504L11.643 30c.666-2.67 2.028-8.068 2.151-8.493.124-.424.428-.513.564-.504h2.357c.427 0 .6.336.634.504L19.383 30c.543-2.66 1.66-7.92 1.779-8.429.118-.509.422-.59.559-.568h1.768c.467 0 .532.379.506.568-.93 4.14-2.816 12.512-2.91 12.882a.745.745 0 01-.574.538h-2.015a.706.706 0 01-.707-.538L15.492 25c-.733 2.934-2.227 8.996-2.343 9.453-.117.456-.455.55-.61.538-.572.007-1.809.016-2.172 0-.364-.015-.506-.365-.532-.538-.9-4.084-2.722-12.379-2.819-12.882zM25.009 21.527c.015-.458.427-.533.631-.512h1.661c.41 0 .607.286.699.43L33 29c-.005-2.623-.011-7.03 0-7.473.011-.443.35-.535.51-.526h1.988c.428 0 .513.35.501.526v12.888c0 .458-.372.583-.558.589H33.67c-.492 0-.592-.302-.67-.452L27.999 27v7.334a.644.644 0 01-.549.67h-1.84c-.543 0-.627-.447-.601-.67-.007-4.078-.016-12.35 0-12.807zM47.417 24.25c.134.59-.257.772-.469.75h-1.602c-.566-.007-.78-.384-.926-.615-.764-1.215-2.43-1.077-3.31-.749-1.57.843-.654 1.705 0 2.031.175.084.897.335 2.384.668 1.488.333 2.528.869 2.863 1.095.844.585 2.29 2.376 1.321 4.86-1.21 3.105-5.655 2.983-7.645 2.355-1.991-.63-2.761-2.897-2.979-3.66-.174-.611.088-.979.253-.985h1.756c.53-.04.789.415.852.63 1.58 4.034 9.47-.33 1.453-1.809-3.834-.707-4.117-3.609-3.78-4.971.138-.933 1.3-2.808 4.85-2.85 4.436-.05 4.812 2.514 4.979 3.25z" fill="#fff"/><path d="M29 35v-4.998L32 35h-3z" fill="#FF5333"/><defs><linearGradient id="paint0_linear" x1="10.418" y1="9.712" x2="68.147" y2="76.017" gradientUnits="userSpaceOnUse"><stop stop-color="#1A1E21"/><stop offset="1" stop-color="#06060A"/></linearGradient></defs></svg>