<!-- by TradingView --><svg width="56" height="56" xmlns="http://www.w3.org/2000/svg"><path fill="#F0F3FA" d="M0 0h56v56H0z"/><path d="M20.398 15H35.58a2.5 2.5 0 010 5H20.53c-.73.047-1.936.359-2.908 1.079-.888.658-1.62 1.667-1.621 3.423-.002 1.776.733 2.816 1.613 3.48.986.745 2.184 1.022 2.829 1.018h15.138a2.5 2.5 0 010 5H20.466c-1.679.01-3.957-.585-5.867-2.028-2.02-1.525-3.603-3.993-3.6-7.474.003-3.501 1.62-5.937 3.645-7.437 1.918-1.42 4.154-1.983 5.692-2.058l.06-.003z" fill="url(#paint0_linear)"/><path d="M35.777 22h-15.24a2.5 2.5 0 000 5h15.119c.668.042 1.821.363 2.768 1.102.873.682 1.577 1.71 1.576 3.397 0 1.712-.708 2.77-1.572 3.457-.959.763-2.099 1.048-2.691 1.044h-15.2a2.5 2.5 0 000 5h15.177c1.74.009 3.984-.665 5.828-2.132 1.942-1.546 3.457-3.995 3.458-7.367.001-3.396-1.55-5.818-3.499-7.34-1.853-1.447-4.058-2.087-5.668-2.159L35.777 22z" fill="url(#paint1_linear)"/><defs><linearGradient id="paint0_linear" x1="11.906" y1="25.263" x2="35.58" y2="25.263" gradientUnits="userSpaceOnUse"><stop stop-color="#8CC63E"/><stop offset="1" stop-color="#48B845"/></linearGradient><linearGradient id="paint1_linear" x1="44.276" y1="31.501" x2="20.537" y2="31.501" gradientUnits="userSpaceOnUse"><stop stop-color="#00AFE8"/><stop offset="1" stop-color="#00869A"/></linearGradient></defs></svg>