<!-- by TradingView --><svg width="56" height="56" xmlns="http://www.w3.org/2000/svg"><path fill="#20257D" d="M0 0h56v56H0z"/><path d="M42.094 24.317a.437.437 0 00-.448.436c0 .241.2.436.448.436a.436.436 0 00.448-.436c.008-.241-.192-.436-.448-.436zM42.094 22.97a.437.437 0 100 .872.436.436 0 00.448-.436c.008-.241-.192-.436-.448-.436zM42.094 21.654a.437.437 0 00-.448.436c0 .241.2.436.448.436a.436.436 0 100-.872zM42.094 28.304a.437.437 0 100 .872.436.436 0 00.448-.436c.008-.25-.192-.436-.448-.436zM42.094 26.956a.437.437 0 100 .873.436.436 0 00.448-.436c.008-.218-.192-.437-.448-.437zM42.094 25.64a.437.437 0 00-.448.437c0 .241.2.436.448.436a.436.436 0 100-.872zM42.094 29.62a.437.437 0 100 .872.436.436 0 100-.872zM48 22.316a.437.437 0 00-.449.436c0 .241.2.436.448.436a.436.436 0 00.448-.436c0-.241-.2-.436-.448-.436zM48 23.632a.437.437 0 100 .872.436.436 0 00.447-.436c0-.242-.2-.436-.448-.436zM48 28.957a.437.437 0 100 .873.436.436 0 00.447-.436c0-.242-.2-.436-.448-.436zM48 27.619a.436.436 0 100 .872.436.436 0 00.447-.436c0-.218-.2-.436-.448-.436zM49.183 21.654a.436.436 0 00-.448.436c0 .241.2.436.448.436a.441.441 0 00.449-.436.436.436 0 00-.449-.436zM49.183 24.317a.436.436 0 00-.448.436c0 .241.2.436.448.436a.441.441 0 00.449-.436.436.436 0 00-.449-.436zM49.183 25.64a.436.436 0 00-.448.437c0 .241.2.436.448.436a.441.441 0 00.449-.436.432.432 0 00-.449-.436zM49.183 22.97a.436.436 0 100 .872.441.441 0 00.449-.436.436.436 0 00-.449-.436zM46.807 22.97a.436.436 0 100 .872.437.437 0 00.448-.436c.008-.241-.192-.436-.448-.436zM48 21.164a.28.28 0 00-.28.272c0 .164.143.273.28.273a.28.28 0 00.28-.273c0-.163-.113-.272-.28-.272zM46.807 24.488a.28.28 0 00-.28.273c0 .163.144.272.28.272a.28.28 0 00.28-.272c.008-.164-.104-.273-.28-.273zM46.807 27.12a.28.28 0 00-.28.273c0 .163.144.272.28.272a.28.28 0 00.28-.272.274.274 0 00-.28-.273zM48 30.445a.28.28 0 00-.28.272c0 .164.143.273.28.273a.28.28 0 00.28-.273.28.28 0 00-.28-.272zM46.807 21.654a.436.436 0 00-.448.436c0 .241.2.436.448.436a.437.437 0 100-.872zM46.807 28.304a.436.436 0 100 .872.437.437 0 00.448-.436c.008-.25-.192-.436-.448-.436zM46.807 30.53a.437.437 0 100-.871.436.436 0 00-.448.436c0 .241.2.436.448.436zM45.623 31.021a.28.28 0 00.28-.272c0-.133-.144-.273-.28-.273a.28.28 0 00-.28.273c0 .132.144.272.28.272zM51.552 23.141a.28.28 0 00-.28.273c0 .163.144.272.28.272a.28.28 0 00.28-.272c0-.14-.136-.273-.28-.273zM50.368 29.674a.28.28 0 00.28-.273c0-.163-.144-.272-.28-.272a.28.28 0 00-.28.272c0 .164.112.273.28.273zM49.184 30.336a.28.28 0 00.28-.272c0-.164-.144-.273-.28-.273a.28.28 0 00-.28.273c-.008.163.112.272.28.272zM51.552 25.197A.436.436 0 0052 24.76c0-.242-.2-.436-.448-.436a.436.436 0 00-.448.436c-.032.249.192.436.448.436zM51.552 26.956a.436.436 0 100 .873.436.436 0 00.448-.436.452.452 0 00-.448-.437zM51.552 25.64a.436.436 0 00-.448.437c0 .241.2.436.448.436a.436.436 0 100-.872zM50.368 27.619a.436.436 0 100 .872.436.436 0 00.448-.436.451.451 0 00-.448-.436zM50.368 26.295a.436.436 0 00-.448.436c0 .241.2.436.448.436a.436.436 0 100-.872zM49.183 28.304a.436.436 0 100 .872.441.441 0 00.449-.436.432.432 0 00-.449-.436zM50.368 22.316a.436.436 0 00-.448.436c0 .241.2.436.448.436a.436.436 0 100-.872zM50.368 24.979a.436.436 0 00-.448.436c0 .241.2.436.448.436a.436.436 0 100-.872zM49.183 26.956a.436.436 0 100 .873.441.441 0 00.449-.436.452.452 0 00-.449-.437zM50.368 23.632a.436.436 0 100 .872.436.436 0 100-.872zM43.287 27.619a.436.436 0 100 .872.436.436 0 00.448-.436c0-.218-.2-.436-.448-.436zM42.094 30.936a.437.437 0 00-.448.436c0 .241.2.436.448.436a.436.436 0 00.448-.436c.008-.21-.192-.436-.448-.436zM43.287 28.957a.436.436 0 100 .873.437.437 0 00.448-.436c0-.242-.2-.436-.448-.436zM45.623 28.957a.437.437 0 100 .873.442.442 0 00.448-.436c.032-.242-.192-.436-.448-.436zM43.287 32.944a.436.436 0 00-.448.436c0 .242.2.436.448.436a.436.436 0 00.448-.436c0-.241-.2-.436-.448-.436zM43.287 30.281a.436.436 0 100 .872.436.436 0 100-.872zM43.287 24.979a.436.436 0 00-.448.436c0 .241.2.436.448.436a.437.437 0 00.448-.436c0-.241-.2-.436-.448-.436zM43.287 31.628a.436.436 0 00-.448.437c0 .24.2.436.448.436a.437.437 0 00.448-.436c0-.242-.2-.437-.448-.437zM43.287 22.316a.436.436 0 00-.448.436c0 .241.2.436.448.436a.437.437 0 00.448-.436c0-.241-.2-.436-.448-.436zM43.287 35a.28.28 0 00.28-.272c0-.164-.144-.273-.28-.273a.28.28 0 00-.28.273c-.032.14.104.272.28.272zM42.094 34.51a.436.436 0 00.448-.437c0-.241-.2-.436-.448-.436a.436.436 0 00-.448.436c-.032.218.2.436.448.436zM42.094 32.283a.437.437 0 00-.448.436c0 .241.2.436.448.436a.436.436 0 100-.872zM43.287 23.632a.436.436 0 100 .872.436.436 0 00.448-.436c0-.242-.2-.436-.448-.436zM43.287 21a.436.436 0 00-.448.436c0 .241.2.436.448.436a.437.437 0 00.448-.436c0-.241-.2-.436-.448-.436zM44.439 21.654a.436.436 0 00-.448.436c0 .241.2.436.448.436a.436.436 0 00.448-.436c.032-.241-.192-.436-.448-.436zM43.287 26.295a.436.436 0 00-.448.436c0 .241.2.436.448.436a.437.437 0 00.448-.436c0-.241-.2-.436-.448-.436zM45.623 21a.437.437 0 00-.448.436c0 .241.2.436.448.436a.442.442 0 00.448-.436.437.437 0 00-.448-.436zM45.623 22.316a.437.437 0 00-.448.436c0 .241.2.436.448.436a.442.442 0 00.448-.436c.032-.241-.192-.436-.448-.436zM44.439 34.51a.436.436 0 00.448-.437c0-.241-.2-.436-.448-.436a.441.441 0 00-.448.436c0 .218.192.436.448.436zM45.623 27.619a.436.436 0 100 .872.441.441 0 00.448-.436c.032-.218-.192-.436-.448-.436zM44.439 32.283a.436.436 0 00-.448.436c0 .241.2.436.448.436a.436.436 0 00.448-.436c.032-.242-.192-.436-.448-.436zM45.623 23.632a.437.437 0 100 .872.441.441 0 00.448-.436c.008-.242-.192-.436-.448-.436zM44.439 28.304a.436.436 0 100 .872.436.436 0 00.448-.436c.032-.25-.192-.436-.448-.436zM44.439 26.956a.436.436 0 100 .873.436.436 0 00.448-.436c.032-.218-.192-.437-.448-.437zM44.439 25.64a.436.436 0 00-.448.437c0 .241.2.436.448.436a.436.436 0 00.448-.436c.032-.25-.192-.436-.448-.436zM44.439 24.317a.436.436 0 00-.448.436c0 .241.2.436.448.436a.436.436 0 00.448-.436c.032-.241-.192-.436-.448-.436zM44.439 22.97a.436.436 0 100 .872.436.436 0 00.448-.436c.008-.241-.192-.436-.448-.436zM44.439 29.62a.436.436 0 100 .872.436.436 0 100-.872zM44.439 30.936a.436.436 0 00-.448.436c0 .241.2.436.448.436a.436.436 0 00.448-.436c.032-.21-.192-.436-.448-.436zM35.661 27.619a.436.436 0 100 .872.436.436 0 00.448-.436c.008-.218-.192-.436-.448-.436zM35.661 24.979a.437.437 0 00-.448.436c0 .241.2.436.448.436a.436.436 0 100-.872zM35.661 26.295a.437.437 0 00-.448.436c0 .241.2.436.448.436a.436.436 0 100-.872zM36.845 22.97a.437.437 0 100 .872.436.436 0 00.449-.436c.008-.241-.192-.436-.449-.436zM36.846 21.817a.28.28 0 00-.28.273c0 .163.143.272.28.272a.28.28 0 00.28-.272c0-.133-.136-.273-.28-.273zM35.661 29.837a.436.436 0 100-.872.437.437 0 100 .872zM35.661 23.632a.437.437 0 100 .872.436.436 0 00.448-.436c.008-.242-.192-.436-.448-.436zM34.477 28.304a.436.436 0 100 .872.436.436 0 100-.872zM34.477 27.696a.28.28 0 00.28-.272c0-.164-.144-.273-.28-.273a.28.28 0 00-.28.273c0 .14.112.272.28.272zM32.109 27.696a.28.28 0 00.28-.272c0-.164-.144-.273-.28-.273a.28.28 0 00-.28.273c-.008.14.136.272.28.272zM33.293 31.021a.28.28 0 00.28-.272c0-.133-.144-.273-.28-.273a.28.28 0 00-.28.273c0 .132.136.272.28.272zM34.477 24.488a.28.28 0 00-.28.273c0 .163.144.272.28.272a.28.28 0 00.28-.272c0-.164-.112-.273-.28-.273zM32.109 24.488a.28.28 0 00-.28.273c0 .163.144.272.28.272a.28.28 0 00.28-.272c0-.164-.112-.273-.28-.273zM35.661 22.316a.437.437 0 00-.448.436c0 .241.2.436.448.436a.436.436 0 100-.872zM35.661 21.164a.28.28 0 00-.28.272c0 .164.144.273.28.273a.28.28 0 00.28-.273.275.275 0 00-.28-.272zM34.477 30.53a.436.436 0 100-.871.436.436 0 100 .872zM36.845 25.64a.437.437 0 00-.448.437c0 .241.2.436.448.436a.436.436 0 100-.872zM38.03 26.295a.437.437 0 00-.449.436c0 .241.2.436.449.436a.441.441 0 00.448-.436.436.436 0 00-.448-.436zM29.732 26.956a.436.436 0 100 .873.441.441 0 00.448-.436c.032-.218-.192-.437-.448-.437zM36.845 29.184a.436.436 0 100-.873.436.436 0 00-.448.437c-.032.24.2.436.448.436zM38.03 24.979a.437.437 0 00-.449.436c0 .241.2.436.449.436a.441.441 0 00.448-.436.436.436 0 00-.448-.436zM34.477 22.97a.436.436 0 100 .872.436.436 0 100-.872zM36.845 26.956a.437.437 0 100 .873.436.436 0 00.449-.436c.008-.218-.192-.437-.449-.437zM38.03 28.358a.28.28 0 00.28-.273c0-.163-.144-.272-.28-.272-.136 0-.28.14-.28.273a.28.28 0 00.28.272zM38.03 23.632a.437.437 0 100 .872.441.441 0 00.448-.436c.008-.242-.192-.436-.448-.436zM30.924 30.281a.437.437 0 100 .872.436.436 0 00.448-.436c.032-.249-.2-.436-.448-.436zM30.924 24.979a.437.437 0 00-.448.436c0 .241.2.436.448.436a.437.437 0 00.448-.436c.032-.241-.2-.436-.448-.436zM34.477 21.654a.436.436 0 00-.448.436c0 .241.2.436.448.436a.436.436 0 100-.872zM30.924 22.316a.437.437 0 00-.448.436c0 .241.2.436.448.436a.437.437 0 00.448-.436c.032-.241-.2-.436-.448-.436zM30.924 21a.437.437 0 00-.448.436c0 .241.2.436.448.436a.437.437 0 00.448-.436c0-.241-.2-.436-.448-.436zM30.924 28.957a.437.437 0 100 .873.437.437 0 00.448-.436c.032-.242-.2-.436-.448-.436zM30.924 27.619a.436.436 0 100 .872.436.436 0 00.448-.436c.032-.218-.2-.436-.448-.436zM30.924 26.295a.437.437 0 00-.448.436c0 .241.2.436.448.436a.437.437 0 00.448-.436c.032-.241-.2-.436-.448-.436zM29.732 29.62a.436.436 0 100 .872.441.441 0 00.448-.436.436.436 0 00-.448-.436zM29.732 30.936a.436.436 0 00-.448.436c0 .241.2.436.448.436a.441.441 0 00.448-.436c.032-.21-.192-.436-.448-.436zM30.924 35a.28.28 0 00.28-.272c0-.164-.143-.273-.28-.273a.28.28 0 00-.28.273c0 .132.136.272.28.272zM29.732 28.304a.436.436 0 100 .872.441.441 0 00.448-.436c.032-.25-.192-.436-.448-.436zM29.732 32.283a.436.436 0 00-.448.436c0 .241.2.436.448.436a.441.441 0 00.448-.436c.032-.242-.192-.436-.448-.436zM29.732 34.51a.436.436 0 00.448-.437c0-.241-.2-.436-.448-.436a.441.441 0 00-.448.436c0 .218.2.436.448.436zM30.924 23.632a.437.437 0 100 .872.436.436 0 00.448-.436c0-.242-.2-.436-.448-.436zM33.293 22.316a.437.437 0 00-.448.436c0 .241.2.436.448.436a.437.437 0 100-.872zM33.293 23.632a.437.437 0 100 .872.436.436 0 100-.872zM33.293 21a.437.437 0 00-.448.436c0 .241.2.436.448.436a.437.437 0 100-.872zM32.109 30.53a.437.437 0 100-.871.437.437 0 100 .872zM30.924 31.628a.437.437 0 00-.448.437c0 .24.2.436.448.436a.437.437 0 00.448-.436c.032-.25-.2-.437-.448-.437zM33.293 27.619a.436.436 0 100 .872.436.436 0 00.448-.436.452.452 0 00-.448-.436zM33.293 29.837a.436.436 0 100-.872.436.436 0 00-.448.436c-.008.25.192.436.448.436zM32.109 22.97a.437.437 0 100 .872.437.437 0 00.448-.436c0-.241-.2-.436-.448-.436zM32.109 21.654a.437.437 0 00-.449.436c0 .241.2.436.449.436a.437.437 0 00.448-.436c.032-.241-.2-.436-.448-.436zM30.924 32.944a.437.437 0 00-.448.436c0 .242.2.436.448.436a.436.436 0 00.448-.436c.032-.241-.2-.436-.448-.436zM32.109 28.304a.437.437 0 100 .872.437.437 0 00.448-.436c.032-.25-.2-.436-.448-.436zM36.845 24.317a.437.437 0 00-.448.436c0 .241.2.436.448.436a.436.436 0 00.449-.436c.008-.241-.192-.436-.449-.436zM28.58 35a.28.28 0 00.28-.272c0-.164-.144-.273-.28-.273a.28.28 0 00-.28.273c-.032.14.112.272.28.272zM28.58 30.281a.436.436 0 100 .872.436.436 0 100-.872zM28.58 32.944a.436.436 0 00-.448.436c0 .242.2.436.448.436a.436.436 0 100-.872zM28.58 31.628a.436.436 0 00-.448.437c0 .24.2.436.448.436a.436.436 0 100-.873zM29.732 21.654a.436.436 0 00-.448.436c0 .241.2.436.448.436a.441.441 0 00.448-.436c.032-.241-.192-.436-.448-.436zM29.732 22.97a.436.436 0 100 .872.441.441 0 00.448-.436c.008-.241-.192-.436-.448-.436zM29.732 24.317a.436.436 0 00-.448.436c0 .241.2.436.448.436a.441.441 0 00.448-.436c.032-.241-.192-.436-.448-.436zM28.58 26.295a.436.436 0 00-.448.436c0 .241.2.436.448.436a.436.436 0 100-.872zM28.58 28.957a.436.436 0 100 .873.436.436 0 100-.872zM28.58 24.979a.436.436 0 00-.448.436c0 .241.2.436.448.436a.436.436 0 100-.872zM28.58 22.316a.436.436 0 00-.448.436c0 .241.2.436.448.436a.436.436 0 100-.872zM28.58 23.632a.436.436 0 100 .872.436.436 0 100-.872zM28.58 21a.436.436 0 00-.448.436c0 .241.2.436.448.436a.436.436 0 100-.872zM28.58 27.619a.436.436 0 100 .872.436.436 0 00.448-.436.452.452 0 00-.448-.436zM29.732 25.64a.436.436 0 00-.448.437c0 .241.2.436.448.436a.441.441 0 00.448-.436c.032-.25-.192-.436-.448-.436zM25.532 21.817a.28.28 0 00-.28.273c0 .163.143.272.28.272a.28.28 0 00.28-.272.28.28 0 00-.28-.273zM12.545 28.957a.436.436 0 100 .873.436.436 0 00.448-.436c.008-.242-.192-.436-.448-.436zM12.545 27.619a.436.436 0 100 .872.436.436 0 00.448-.436c.008-.25-.192-.436-.448-.436zM12.545 25.143a.28.28 0 00-.28.272c0 .164.144.273.28.273a.28.28 0 00.28-.273c.008-.163-.136-.272-.28-.272zM12.545 26.295a.436.436 0 00-.448.436c0 .241.2.436.448.436a.436.436 0 100-.872zM13.73 30.336a.28.28 0 00.28-.272c0-.164-.144-.273-.28-.273a.28.28 0 00-.28.273c-.024.163.112.272.28.272zM12.545 30.281a.436.436 0 100 .872.436.436 0 00.448-.436c.008-.249-.192-.436-.448-.436zM12.546 32.5a.436.436 0 00.448-.435c0-.242-.2-.437-.448-.437a.437.437 0 00-.449.437c-.032.249.2.436.449.436zM11.361 34.51a.436.436 0 00.448-.437c0-.241-.2-.436-.448-.436a.436.436 0 00-.448.436c-.032.218.192.436.448.436zM11.361 29.62a.436.436 0 100 .872.436.436 0 100-.872zM10.177 31.628a.437.437 0 00-.448.437c0 .24.2.436.448.436a.441.441 0 00.448-.436.436.436 0 00-.448-.437zM10.177 32.944a.437.437 0 00-.448.436c0 .242.2.436.448.436a.441.441 0 00.448-.436.436.436 0 00-.448-.436zM11.361 28.304a.436.436 0 100 .872.436.436 0 00.448-.436c.008-.25-.192-.436-.448-.436zM11.361 32.283a.436.436 0 00-.448.436c0 .241.2.436.448.436a.436.436 0 100-.872zM11.361 30.936a.436.436 0 00-.448.436c0 .241.2.436.448.436a.436.436 0 00.448-.436c.008-.21-.192-.436-.448-.436zM14.89 28.522a.436.436 0 100-.872.436.436 0 100 .872zM14.89 26.295a.436.436 0 00-.448.436c0 .241.2.436.448.436a.436.436 0 00.448-.436c.032-.241-.192-.436-.448-.436zM14.89 24.979a.436.436 0 00-.448.436c0 .241.2.436.448.436a.436.436 0 00.448-.436c.032-.241-.192-.436-.448-.436zM14.89 23.632a.436.436 0 100 .872.436.436 0 100-.872zM16.074 30.336a.28.28 0 00.28-.272c0-.164-.144-.273-.28-.273a.28.28 0 00-.28.273c0 .163.144.272.28.272zM16.074 22.97a.436.436 0 100 .872.436.436 0 00.448-.436c.008-.241-.192-.436-.448-.436zM13.73 22.97a.436.436 0 100 .872.441.441 0 00.448-.436c.008-.241-.192-.436-.448-.436zM14.89 22.316a.436.436 0 00-.448.436c0 .241.2.436.448.436a.436.436 0 00.448-.436c.032-.241-.192-.436-.448-.436zM13.73 24.317a.436.436 0 00-.449.436c0 .241.2.436.449.436a.441.441 0 00.448-.436c.008-.241-.192-.436-.448-.436zM13.73 26.956a.436.436 0 100 .873.441.441 0 00.448-.436c.008-.218-.192-.437-.448-.437zM13.73 25.64a.436.436 0 00-.449.437c0 .241.2.436.449.436a.441.441 0 00.448-.436.436.436 0 00-.448-.436zM13.73 28.304a.436.436 0 100 .872.441.441 0 00.448-.436c.008-.25-.192-.436-.448-.436zM14.89 21.164a.28.28 0 00-.28.272c0 .164.144.273.28.273a.28.28 0 00.28-.273c.032-.163-.112-.272-.28-.272zM13.73 21.817a.28.28 0 00-.28.273c0 .163.144.272.28.272a.28.28 0 00.28-.272c0-.133-.136-.273-.28-.273zM16.074 21.817a.28.28 0 00-.28.273c0 .163.144.272.28.272a.28.28 0 00.28-.272.28.28 0 00-.28-.273zM6.648 23.88a.437.437 0 100-.871.436.436 0 00-.448.436c0 .218.192.436.448.436zM7.809 22.316a.437.437 0 00-.449.436c0 .241.2.436.449.436a.436.436 0 00.448-.436c0-.241-.2-.436-.448-.436zM7.809 23.632a.437.437 0 100 .872.436.436 0 00.448-.436c0-.242-.2-.436-.448-.436zM7.809 26.295a.437.437 0 00-.449.436c0 .241.2.436.449.436a.436.436 0 00.448-.436c0-.241-.2-.436-.448-.436zM7.809 24.979a.436.436 0 00-.449.436c0 .241.2.436.449.436a.437.437 0 00.448-.436c0-.241-.2-.436-.448-.436zM6.648 26.544a.437.437 0 100-.872.436.436 0 00-.448.436c0 .218.192.436.448.436zM16.074 24.317a.436.436 0 00-.448.436c0 .241.2.436.448.436a.436.436 0 00.448-.436c.032-.241-.192-.436-.448-.436zM6.648 25.197a.436.436 0 00.448-.436c0-.242-.2-.436-.448-.436a.437.437 0 100 .872zM7.809 21a.436.436 0 00-.449.436c0 .241.2.436.449.436a.437.437 0 00.448-.436c0-.241-.2-.436-.448-.436zM5.464 22.316a.437.437 0 00-.448.436c0 .241.2.436.448.436a.441.441 0 00.448-.436c.032-.241-.192-.436-.448-.436zM5.464 21a.436.436 0 00-.448.436c0 .241.2.436.448.436a.437.437 0 100-.872zM4.28 21.817a.28.28 0 00-.28.273c0 .163.144.272.28.272a.28.28 0 00.28-.272c.032-.133-.112-.273-.28-.273zM5.464 23.632a.437.437 0 100 .872.436.436 0 100-.872zM6.648 21.654a.437.437 0 00-.448.436c0 .241.2.436.448.436a.436.436 0 100-.872zM7.809 29.674a.28.28 0 00.28-.273c0-.163-.144-.272-.28-.272a.28.28 0 00-.28.272c-.008.164.136.273.28.273zM8.993 23.141a.28.28 0 00-.28.273c0 .163.144.272.28.272a.28.28 0 00.28-.272.274.274 0 00-.28-.273zM10.177 35a.28.28 0 00.28-.272c0-.164-.144-.273-.28-.273a.28.28 0 00-.28.273.28.28 0 00.28.272zM10.177 26.459a.28.28 0 00-.28.272c0 .163.144.273.28.273a.28.28 0 00.28-.273c0-.132-.136-.273-.28-.273zM10.177 25.143a.28.28 0 00-.28.272c0 .164.144.273.28.273a.28.28 0 00.28-.273.275.275 0 00-.28-.272zM19.634 25.143a.28.28 0 00-.28.272c0 .164.145.273.28.273a.28.28 0 00.28-.273c0-.163-.111-.272-.28-.272zM11.361 27.12a.28.28 0 00-.28.273c0 .163.144.272.28.272a.28.28 0 00.28-.272c0-.133-.136-.273-.28-.273zM18.442 27.12a.28.28 0 00-.28.273c0 .163.144.272.28.272a.28.28 0 00.28-.272.274.274 0 00-.28-.273zM8.993 29.62a.437.437 0 100 .872.436.436 0 100-.872zM8.993 30.936a.437.437 0 00-.448.436c0 .241.2.436.448.436a.436.436 0 00.448-.436.457.457 0 00-.448-.436zM7.809 27.619a.436.436 0 100 .872.436.436 0 100-.872zM10.177 27.619a.436.436 0 100 .872.441.441 0 00.448-.436.432.432 0 00-.448-.436zM10.177 28.957a.437.437 0 100 .873.441.441 0 00.448-.436.436.436 0 00-.448-.436zM10.177 30.281a.437.437 0 100 .872.441.441 0 00.448-.436.432.432 0 00-.448-.436zM8.993 24.317a.436.436 0 00-.448.436c0 .241.2.436.448.436a.437.437 0 100-.872zM8.993 28.304a.437.437 0 100 .872.436.436 0 100-.872zM8.993 33a.28.28 0 00.28-.273c0-.164-.144-.273-.28-.273a.28.28 0 00-.28.273c0 .163.112.272.28.272zM8.993 26.956a.437.437 0 100 .873.436.436 0 00.448-.436.452.452 0 00-.448-.437zM8.993 25.64a.437.437 0 00-.448.437c0 .241.2.436.448.436a.436.436 0 100-.872zM20.819 33a.28.28 0 00.28-.273c0-.164-.144-.273-.28-.273-.136 0-.28.14-.28.273 0 .163.112.272.28.272zM23.187 24.317a.437.437 0 00-.448.436c0 .241.2.436.448.436a.436.436 0 00.448-.436c.008-.241-.192-.436-.448-.436zM23.187 22.97a.437.437 0 100 .872.436.436 0 00.448-.436c.008-.241-.192-.436-.448-.436zM23.187 26.544a.437.437 0 100-.872.436.436 0 00-.448.436c-.032.218.192.436.448.436zM24.371 24.543a.436.436 0 100-.872.437.437 0 100 .872zM23.187 21.654a.437.437 0 00-.448.436c0 .241.2.436.448.436a.436.436 0 100-.872zM24.371 22.316a.437.437 0 00-.448.436c0 .241.2.436.448.436a.436.436 0 100-.872zM24.371 21a.437.437 0 00-.448.436c0 .241.2.436.448.436a.436.436 0 100-.872zM22.003 26.295a.437.437 0 00-.448.436c0 .241.2.436.448.436a.442.442 0 00.448-.436.437.437 0 00-.448-.436zM22.003 23.632a.437.437 0 100 .872.441.441 0 00.448-.436.437.437 0 00-.448-.436zM22.003 22.316a.437.437 0 00-.448.436c0 .241.2.436.448.436a.442.442 0 00.448-.436.437.437 0 00-.448-.436zM22.003 21a.437.437 0 00-.448.436c0 .241.2.436.448.436a.442.442 0 00.448-.436.437.437 0 00-.448-.436zM22.003 29.674a.28.28 0 00.28-.273c0-.163-.144-.272-.28-.272a.28.28 0 00-.28.272c0 .164.112.273.28.273zM22.003 27.619a.436.436 0 100 .872.441.441 0 00.448-.436.432.432 0 00-.448-.436zM22.003 24.979a.437.437 0 00-.448.436c0 .241.2.436.448.436a.442.442 0 00.448-.436.437.437 0 00-.448-.436zM16.074 25.64a.436.436 0 00-.448.437c0 .241.2.436.448.436a.436.436 0 00.448-.436c.032-.25-.192-.436-.448-.436zM18.442 28.304a.436.436 0 100 .872.441.441 0 00.448-.436c.008-.25-.192-.436-.448-.436zM17.258 30.281a.436.436 0 100 .872.436.436 0 00.448-.436c.032-.249-.192-.436-.448-.436zM19.634 35a.28.28 0 00.28-.272c0-.164-.143-.273-.28-.273a.28.28 0 00-.28.273c0 .132.105.272.28.272zM18.442 29.62a.436.436 0 100 .872.441.441 0 00.448-.436.436.436 0 00-.448-.436zM18.442 34.51a.436.436 0 00.448-.437c0-.241-.2-.436-.448-.436a.441.441 0 00-.448.436c0 .218.2.436.448.436zM18.442 30.936a.436.436 0 00-.448.436c0 .241.2.436.448.436a.441.441 0 00.448-.436c.008-.21-.192-.436-.448-.436zM18.442 32.283a.436.436 0 00-.448.436c0 .241.2.436.448.436a.441.441 0 00.448-.436.436.436 0 00-.448-.436zM17.258 32.5a.436.436 0 00.448-.435c0-.242-.2-.437-.448-.437a.436.436 0 00-.448.437c0 .24.2.436.448.436zM17.258 25.143a.28.28 0 00-.28.272c0 .164.144.273.28.273a.28.28 0 00.28-.273c.008-.163-.104-.272-.28-.272zM16.074 28.304a.436.436 0 100 .872.436.436 0 00.448-.436c.032-.25-.192-.436-.448-.436zM16.074 26.956a.436.436 0 100 .873.436.436 0 00.448-.436c.032-.218-.192-.437-.448-.437zM17.258 28.957a.436.436 0 100 .873.436.436 0 00.448-.436c.032-.242-.192-.436-.448-.436zM17.258 26.295a.436.436 0 00-.448.436c0 .241.2.436.448.436a.436.436 0 00.448-.436c.032-.241-.192-.436-.448-.436zM17.258 27.619a.436.436 0 100 .872.436.436 0 00.448-.436c.008-.25-.192-.436-.448-.436zM20.819 26.956a.437.437 0 100 .873.441.441 0 00.448-.436.452.452 0 00-.448-.437zM20.819 25.64a.437.437 0 00-.448.437c0 .241.2.436.448.436a.442.442 0 00.448-.436.437.437 0 00-.448-.436zM20.819 30.936a.437.437 0 00-.448.436c0 .241.2.436.448.436a.441.441 0 00.448-.436.457.457 0 00-.448-.436zM19.634 26.459a.28.28 0 00-.28.272c0 .163.145.273.28.273a.28.28 0 00.28-.273.28.28 0 00-.28-.273zM20.819 29.62a.437.437 0 100 .872.441.441 0 00.448-.436.437.437 0 00-.448-.436zM20.819 28.304a.437.437 0 100 .872.442.442 0 00.448-.436.432.432 0 00-.448-.436zM20.819 23.141a.28.28 0 00-.28.273c0 .163.144.272.28.272.136 0 .28-.14.28-.272 0-.14-.144-.273-.28-.273zM20.819 24.317a.437.437 0 00-.448.436c0 .241.2.436.448.436a.442.442 0 00.448-.436.437.437 0 00-.448-.436zM19.635 28.957a.437.437 0 100 .873.442.442 0 00.448-.436c0-.242-.2-.436-.448-.436zM19.635 27.619a.436.436 0 100 .872.441.441 0 00.448-.436c0-.25-.2-.436-.448-.436zM19.635 30.281a.437.437 0 100 .872.441.441 0 00.448-.436c0-.249-.2-.436-.448-.436zM19.635 31.628a.437.437 0 00-.449.437c0 .24.2.436.449.436a.442.442 0 00.448-.436c0-.242-.2-.437-.448-.437zM19.635 32.944a.437.437 0 00-.449.436c0 .242.2.436.449.436a.441.441 0 00.448-.436c0-.241-.2-.436-.448-.436z" fill="#fff"/></svg>