<!-- by TradingView --><svg xmlns="http://www.w3.org/2000/svg" width="56" height="56"><path fill="#F0F3FA" d="M0 0h56v56H0z"/><path d="M14.39 36.47A16.27 16.27 0 0112 28.03a15.98 15.98 0 0125.87-12.59c-3.22 1.62-6.97 4.37-10.64 9.56h-7.68L16 30h7.03c-3.55 3.76-6.58 5.82-8.64 6.47z" fill="#00539B"/><path d="M18.06 40.56c3.55-1.62 7.55-4.98 11.42-10.56h7.23l3.68-5H33.8c3.22-3.44 5.93-4.95 7.74-5.6A16.02 16.02 0 0144 27.97C44 36.86 36.84 44 28.06 44a14.77 14.77 0 01-10-3.44z" fill="#CC2030"/></svg>