<!-- by TradingView --><svg xmlns="http://www.w3.org/2000/svg" width="56" height="56"><path fill="#E4D7B0" d="M0 0h56v56H0z"/><path d="M44 28a16.06 16.06 0 01-18.25 15.86c1.9-1.13 3.88-4.07 4.66-5.45l.24 1.1c.4-.04 1.28-.43 1.67-1.66a3.67 3.67 0 013.15-2.68 59.9 59.9 0 005.55-1.21c.45-.14 1.35-.68 1.35-1.79 0-1.1-1.07-1.1-1.6-.97-1.96.42-5.34.18-6.79 0 1.37-1.56 5.1-2.78 6.8-3.2.94-.36 1.45.53 1.59 1.01.55-.31 1.22-1.48 1.59-2.2.02.39.04.79.04 1.19zM26.49 39.73a32.37 32.37 0 01-3.38 3.56c-.6-.19-1.18-.4-1.75-.65l5.13-2.91zm.18-4.56c-2.62.57-5.27 4.74-6.37 6.95a16.16 16.16 0 01-3.13-2.17c2.46-.75 4.51-2.9 5.62-4.06.25-.27.46-.48.6-.61a6.1 6.1 0 014.6-1.36c1.64.18 3.64.08 4.44 0-1.32-.21-4.24-.78-5.4-1.32-1.15-.54-.47-1.18 0-1.43l5.82-3.92c-4.13 1.15-6.33.98-6.91.75-.37-.11-1.32-.35-2.17-.41-1.06-.08-2.77.19-4.67 1.88-1.39 1.25-4.58 3.05-6.37 3.99a15.8 15.8 0 01-.73-2.73c1.34-.2 4.38-.98 5.5-1.72 1.06-.7 1.55-.92 2.7-1.46l1-.49a4.44 4.44 0 013.35-.35c.51.22 1.84.66 3.05.6.84-.04 2.03-.25 2.98-.42a13.22 13.22 0 014.89-.18l-.76.47c-2.56 1.57-7 4.3-5.02 5.27 1.75.86 4.58 1.24 5.78 1.32-.3.4-3.77 1-5.39 1.07-1.3.06-2.81.25-3.41.33zm-11.82 2.24c.28.38.58.76.9 1.12 2.57-.84 4.3-2.21 4.88-2.85-.79.37-3.98 1.25-5.78 1.73zM27.88 12c-6.4 0-11.93 3.7-14.53 9.08 1.42-.08 4.6.03 7.16 1.08a5.7 5.7 0 003.41.42c1.67-.42 6.3-1.51 10.06 0 .57.18 3.11.3 8.84-.6A16.12 16.12 0 0027.88 12zm3.46 11.02c-3.27 1.07-4.14 1.92-4.25 2.25.64-.31 1.88-.43 2.41-.45 1.1-.04 3.22-.33 3.19-1.05-.03-.72-.74-.95-1.35-.75zm-17.47-1.17c1.88.14 5.94 1.01 5.94 2.05 0 1.18-1.35 1.33-2.18 1.18.41-.23 1.2-.94.4-1.39-.38-.2-1.24-.57-2.12-.94-.76-.33-1.54-.66-2.04-.9zm8.24 8.7c.38-.64 1.35-1.93 2.26-1.96.92-.04 1.25.5 1.3.78.12.3-.42.96-3.56 1.17z" fill="#A6610A"/></svg>