<!-- by TradingView --><svg width="56" height="56" xmlns="http://www.w3.org/2000/svg"><path fill="url(#paint0_linear)" d="M0 0h56v56H0z"/><path d="M13.003 20.345a1.185 1.185 0 00-.527.19.96.96 0 00-.25.248c-.074.118-.13.248-.165.386-.21.749-.454 1.624-.732 2.624-.278 1-.578 2.07-.899 3.207h-.413l-1.581-5.327L6.786 27h-.39l-.909-3.545L4.867 21a.862.862 0 00-.595-.6 1.46 1.46 0 00-.269-.056V20h2.563v.345a3.6 3.6 0 00-.57.073c-.16.034-.238.094-.238.179a.82.82 0 00.012.13c0 .052.017.095.023.129.067.286.187.758.36 1.416l.768 2.95L8.436 20h.434l1.635 5.338c.213-.809.396-1.513.55-2.113.152-.599.282-1.115.388-1.548.072-.302.116-.51.132-.622.016-.094.025-.19.027-.285a.346.346 0 00-.066-.173.301.301 0 00-.14-.105 1.801 1.801 0 00-.666-.15V20h2.273v.345zM16.477 27h-3v-.35l.366-.032c.115-.005.23-.025.34-.06a.468.468 0 00.218-.175.89.89 0 00.076-.383v-5a.67.67 0 00-.06-.277.424.424 0 00-.243-.196 2.386 2.386 0 00-.346-.104 2.246 2.246 0 00-.35-.062V20h3v.35a2.889 2.889 0 00-.697.12.363.363 0 00-.24.184.7.7 0 00-.062.294V26a.645.645 0 00.068.302.47.47 0 00.23.2c.105.038.212.068.322.088.123.029.25.046.376.053v.35l.002.007zM31.521 27h-3v-.35l.366-.032c.115-.005.229-.025.34-.06a.468.468 0 00.218-.175.89.89 0 00.076-.383v-5a.67.67 0 00-.06-.277.424.424 0 00-.244-.196 2.386 2.386 0 00-.346-.104 2.246 2.246 0 00-.35-.062V20h3v.35a2.889 2.889 0 00-.696.12.363.363 0 00-.241.184.7.7 0 00-.061.294V26a.645.645 0 00.067.302.47.47 0 00.23.2c.105.038.213.068.322.088.124.029.25.046.377.053v.35l.002.007zM22 25v2h-5v-.339c.427-.029 1.018-.07 1-.661v-5c.008-.474-.582-.602-1.001-.65V20H20v.35c-.42.03-1.002.158-1 .65v5c0 .327.297.629.966.629.17 0 .336-.009.503-.04.688-.126 1.024-1 1.232-1.589h.3zM28 25v2h-5v-.339c.427-.029 1.018-.07 1-.661v-5c.008-.474-.582-.602-1.001-.65V20H26v.35c-.42.03-1.002.158-1 .65v5c0 .327.297.629.966.629.17 0 .336-.009.503-.04.688-.126 1.024-1 1.232-1.589h.3zM38.459 27H36v-.344c.192-.01.237-.043.422-.098.152-.048.227-.108.227-.179a.79.79 0 000-.104.567.567 0 00-.027-.111l-.527-1.56h-2.193a20.02 20.02 0 00-.206.592 9.032 9.032 0 00-.14.467 3.625 3.625 0 00-.08.34c-.013.069-.02.138-.023.208a.37.37 0 00.093.202c.05.054.115.09.185.1.2.074.408.117.618.127v.344h-2.345v-.328c.096-.011.192-.03.285-.057a.888.888 0 00.284-.125c.105-.076.198-.172.274-.283.078-.123.142-.256.19-.397.316-.864 1.043-2.918 1.043-2.918L35 20h.336l2.2 5.942c.035.11.086.212.15.306.067.088.146.164.235.226.082.052.17.09.263.114.09.027.182.045.275.052V27zM36 24.003l-1-2.491-.92 2.491H36zM47 26.995h-2.856v-.35c.42-.007.875-.09.856-.645v-5l-2.12 5.883h-.223L40.491 21v3.973c-.008.309.015.618.07.92.026.174.1.334.212.46.127.1.272.167.425.198.134.046.271.079.41.1V27H39v-.354c.143-.015.285-.04.425-.074a.8.8 0 00.348-.163.741.741 0 00.212-.424 5.34 5.34 0 00.06-.952V21.45a1.581 1.581 0 00-.068-.508.8.8 0 00-.531-.518c-.13-.04-.31-.064-.446-.071V20h2.249l1.843 5.254L45 20l2 .002v.348c-.43.025-1.004.102-1 .65v5c-.012.564.578.62 1 .648v.35-.003zM41 35.995h-2.856v-.35c.42-.007.875-.09.856-.645v-5l-2.12 5.883h-.223L34.491 30v3.973c-.008.309.015.618.07.92.026.174.1.334.212.46.127.1.272.167.425.198.134.046.271.079.41.1V36H33v-.354c.143-.015.285-.04.425-.074a.8.8 0 00.348-.163.741.741 0 00.212-.423 5.34 5.34 0 00.06-.953V30.45a1.581 1.581 0 00-.068-.508.8.8 0 00-.531-.518c-.13-.04-.31-.064-.446-.071V29h2.249l1.843 5.254L39 29l2 .002v.348c-.43.025-1.004.102-1 .65v5c-.012.564.578.62 1 .648v.35-.003zM51.594 23.774c.135.152.24.33.307.523.07.213.103.436.098.66a1.9 1.9 0 01-.16.805 1.855 1.855 0 01-.483.656 2.284 2.284 0 01-1.585.581 2.86 2.86 0 01-.873-.139 3.327 3.327 0 01-.751-.34l-.194.479h-.369v-2.444h.303c.07.262.16.518.27.765.106.232.243.447.408.638.157.182.346.332.558.44.231.115.486.171.742.165a1.64 1.64 0 00.556-.085.923.923 0 00.373-.23.953.953 0 00.23-.378c.05-.156.073-.32.07-.484a1.37 1.37 0 00-.214-.748 1.366 1.366 0 00-.657-.526c-.197-.08-.425-.17-.684-.27-.259-.1-.481-.193-.667-.28a2.167 2.167 0 01-.858-.66 1.764 1.764 0 01-.305-1.078c0-.246.052-.488.155-.71a1.85 1.85 0 01.429-.59c.184-.168.397-.298.628-.385.242-.092.498-.14.755-.139a2.17 2.17 0 01.807.141c.224.09.44.2.644.33l.225-.47h.369v2.371h-.365a7.539 7.539 0 00-.227-.73 2.603 2.603 0 00-.328-.63 1.515 1.515 0 00-.483-.44 1.391 1.391 0 00-.7-.162 1.057 1.057 0 00-.744.288.909.909 0 00-.307.706c-.01.255.06.507.198.72.15.203.349.364.577.466.215.107.436.202.66.286.216.08.426.166.629.257.18.084.355.178.523.284.163.097.31.217.44.357zM12.072 32.775c.134.15.238.327.306.519.07.213.104.437.099.662.006.278-.049.555-.16.808a1.862 1.862 0 01-.482.658 2.272 2.272 0 01-1.583.577c-.295 0-.59-.048-.871-.14a3.32 3.32 0 01-.754-.335l-.195.34h-.368L8 33.565h.37c.07.263.16.52.27.769.105.232.242.448.407.64.156.183.345.333.557.442.23.115.484.171.74.165.189.004.376-.025.555-.086a.964.964 0 00.597-.618c.05-.157.074-.321.07-.486a1.377 1.377 0 00-.213-.75 1.362 1.362 0 00-.655-.529 76.19 76.19 0 01-.688-.26 10.227 10.227 0 01-.663-.278 2.163 2.163 0 01-.857-.663 1.777 1.777 0 01-.306-1.082c-.001-.246.05-.489.152-.711.103-.225.249-.426.428-.592.184-.168.397-.3.628-.387.242-.093.499-.14.758-.139.274-.004.547.044.805.142.223.09.438.2.642.33l.188-.322h.369l.036 2.231h-.362a7.497 7.497 0 00-.227-.733c-.08-.226-.19-.44-.327-.634a1.515 1.515 0 00-.482-.442 1.38 1.38 0 00-.698-.163 1.052 1.052 0 00-.743.287.939.939 0 00-.308.704c-.01.256.059.51.197.723.148.205.346.367.573.47.215.107.435.203.66.287.215.081.425.167.627.259.182.08.359.174.529.278.163.097.313.217.443.358zM18.97 29.957c.33.317.587.691.756 1.1.187.464.28.954.274 1.448.007.495-.088.986-.279 1.45a3.203 3.203 0 01-.772 1.1c-.315.3-.692.538-1.11.699a3.844 3.844 0 01-2.754-.016 3.275 3.275 0 01-1.1-.715 3.258 3.258 0 01-.72-1.115 3.694 3.694 0 01-.264-1.399 3.627 3.627 0 01.264-1.451 3.373 3.373 0 011.887-1.81 3.806 3.806 0 012.706 0c.42.162.8.403 1.113.709zm-.764 4.746c.198-.3.34-.63.42-.973a5.602 5.602 0 00-.015-2.478 3 3 0 00-.43-.983 1.994 1.994 0 00-1.695-.845c-.37-.01-.734.08-1.048.26a2.095 2.095 0 00-.688.691 3.147 3.147 0 00-.384.974 5.29 5.29 0 00-.125 1.17c-.004.412.041.823.135 1.226.08.344.222.673.422.974.172.265.412.488.7.65.306.16.654.242 1.007.233a2.07 2.07 0 00.993-.236c.294-.162.537-.39.708-.663z" fill="#F6F8FD"/><path d="M25.998 29.347a1.453 1.453 0 00-.337.077c-.114.031-.224.082-.326.153a.758.758 0 00-.183.47 6.477 6.477 0 00-.05.88V36h-.347l-3.376-5.673v3.575c-.007.31.014.62.06.924a.95.95 0 00.184.456c.108.1.233.168.366.2.12.046.242.078.366.099V36H20v-.415c.124-.019.334-.05.454-.096a.849.849 0 00.315-.155.78.78 0 00.183-.42c.042-.317.06-.638.052-.96v-3.408c0-.155-.021-.31-.063-.456a.896.896 0 00-.168-.347 1.163 1.163 0 00-.383-.276 1.155 1.155 0 00-.39-.125V29h1.586l3.132 5.288v-3.3a5.226 5.226 0 00-.062-.93.802.802 0 00-.183-.433 1.175 1.175 0 00-.367-.18 1.622 1.622 0 00-.379-.098V29H26v.347h-.002zM31.97 29.956c.329.317.586.691.756 1.1.187.463.28.953.274 1.446.007.495-.088.986-.279 1.448a3.201 3.201 0 01-.773 1.101c-.316.3-.694.537-1.112.698a3.855 3.855 0 01-2.746 0 3.271 3.271 0 01-1.105-.729 3.254 3.254 0 01-.72-1.114A3.686 3.686 0 0126 32.51c-.01-.496.084-.989.276-1.453a3.372 3.372 0 011.89-1.809 3.818 3.818 0 012.71 0 3.29 3.29 0 011.092.709zm-.757 4.743c.198-.3.34-.63.42-.973.18-.818.176-1.66-.014-2.476a2.995 2.995 0 00-.43-.982 1.995 1.995 0 00-1.698-.845 2.01 2.01 0 00-1.05.26 2.095 2.095 0 00-.704.693 3.14 3.14 0 00-.384.973 5.27 5.27 0 00-.125 1.169c-.002.411.046.822.142 1.223.08.344.223.673.422.973.173.266.414.488.702.65.306.16.655.242 1.009.233.346.004.688-.078.99-.236.297-.16.546-.388.72-.662zM47.998 36H45.59v-.347c.179-.01.356-.043.528-.097.14-.048.21-.108.21-.18a.863.863 0 000-.103.594.594 0 00-.024-.112l-.482-1.545h-2.055c-.077.227-.14.424-.191.592a9.483 9.483 0 00-.13.466c-.03.112-.055.226-.075.34-.012.069-.02.139-.021.209.01.076.04.147.087.201.046.055.106.09.171.1.185.074.379.117.574.127v.344H42v-.344c.09-.01.177-.03.264-.057a.796.796 0 00.264-.124c.097-.074.183-.167.255-.274.072-.123.13-.257.175-.397.294-.864.617-1.837.969-2.919.352-1.081.796-2.041 1.073-2.88h.234l1.909 5.942c.033.11.08.212.14.306.062.088.136.164.218.226a.836.836 0 00.245.116c.083.027.168.045.254.052v.344l-.002.014zm-2.356-2.99l-.776-2.486-.876 2.486h1.651z" fill="#F6F8FD"/><defs><linearGradient id="paint0_linear" x1="10.418" y1="9.712" x2="68.147" y2="76.017" gradientUnits="userSpaceOnUse"><stop stop-color="#1A1E21"/><stop offset="1" stop-color="#06060A"/></linearGradient></defs></svg>