<!-- by TradingView --><svg width="56" height="56" xmlns="http://www.w3.org/2000/svg"><path fill="#24249C" d="M0 0h56v56H0z"/><path d="M52 28.767c-.025-.113-.043-.232-.068-.345a2.6 2.6 0 00-.49-1.125 2.77 2.77 0 00-.99-.83 3.627 3.627 0 00-.988-.308c-.46-.082-.927-.07-1.394-.07-.467 0-.934-.005-1.394 0-.7.014-1.351.22-1.91.655-.522.396-.847.93-.97 1.596-.086.477-.062.955-.062 1.44-.006.571.08 1.124.264 1.665.019.044.031.088.056.15-.043 0-.08.007-.11.007-1.346 0-2.69.006-4.035-.006a1.51 1.51 0 01-.989-.378c-.3-.264-.454-.61-.522-.993a3.648 3.648 0 01-.068-.685c.007-.396.05-.792.24-1.15.246-.477.633-.78 1.136-.93.258-.075.516-.094.786-.094.83.006 1.658 0 2.493.006.074 0 .105-.025.142-.088.202-.358.41-.716.614-1.068.036-.063.073-.132.11-.208-.037-.006-.068-.006-.098-.006-1.167 0-2.334-.013-3.494.006a3.415 3.415 0 00-1.793.547c-.498.32-.879.748-1.124 1.295a2.99 2.99 0 00-.283 1.03c-.024.352-.061.704-.043 1.056.037.692.221 1.345.633 1.898.411.56.964.912 1.64 1.05.257.05.521.088.785.088 3.022.006 6.043.012 9.058 0 .657 0 1.265-.214 1.787-.641.547-.44.854-1.025.989-1.716.037-.195.049-.396.067-.59 0-.02.013-.032.019-.045.006-.402.006-.804.006-1.213zm-4.649 2.835c-.43 0-.865-.013-1.295.006-.221.013-.375-.082-.516-.226-.32-.315-.442-.723-.46-1.157-.025-.515 0-1.03.018-1.546.012-.257.135-.477.3-.672.344-.384.787-.54 1.278-.547.688-.013 1.375 0 2.063 0 .32 0 .633.044.94.157.442.17.773.459.915.937.037.125.061.257.055.383-.012.515.055 1.03-.086 1.534-.166.596-.528.942-1.124 1.08-.227.05-.454.063-.688.05-.46-.012-.927 0-1.4 0zM27.393 24.002l-.769 1.074-.79 1.071-.814 1.098-.024.022h1.006v.168c0 1.306-.006 2.619.006 3.925 0 .436.152.827.437 1.149.243.271.559.423.917.454.177.02.353.026.529.026 2.448 0 4.984.002 7.433-.004.553 0 .941-.328 1.142-.833.133-.341.182-.694.176-1.06 0-.202.006-.404 0-.606-.018-.53-.182-.998-.571-1.357a1.832 1.832 0 00-.917-.448c-.195-.038-.401-.045-.596-.05-1.014-.007-2.029-.014-3.037.005-.304.007-.48-.265-.486-.505-.006-.088 0-.176 0-.265-.013-.252.164-.53.413-.574.067-.012.134-.019.206-.025h4.065c.212-.435.419-.82.631-1.25-.048-.006-.085-.006-.115-.006h-5.292c-.267 0-.504.114-.71.297-.371.328-.565.77-.62 1.256-.043.384-.012.782-.006 1.167 0 .12.018.24.042.36.091.442.371.72.76.89.249.107.504.145.777.139 1.07-.007 2.145 0 3.214-.007.438-.006.699.278.754.682.036.315-.207.7-.505.789-.036.012-.073 0-.11 0-2.107 0-4.31-.003-6.417.01-.34 0-.517-.183-.596-.492a.913.913 0 01-.024-.221v-3.434-.18h1.288c.08 0 .128-.019.17-.095l.638-1.12.024-.063h-2.12c-.006-.019-.012-.031-.012-.038-.006-.378.006-.207 0-.579-.006-.404-.012-.808-.024-1.212 0-.05-.013-.094-.018-.145-.043-.013-.05-.013-.055-.013zM13.003 32.998c.08-.144.152-.295.237-.44.292-.501.584-.997.881-1.499.322-.552.65-1.11.972-1.663.286-.496.577-.992.863-1.488.334-.577.674-1.154 1.008-1.732.03-.05.055-.1.092-.169h-.31c-.347 0-.693.006-1.04 0-.072 0-.102.031-.139.081l-.911 1.47-1.458 2.352c-.049.076-.097.151-.146.233-.832-1.35-1.665-2.693-2.515-4.06-.857 1.33-1.707 2.648-2.558 3.978l-.632-1.035c-.376-.628-.759-1.25-1.136-1.877-.218-.358-.437-.709-.65-1.067-.03-.056-.073-.069-.133-.069H4v.07c.024.03.049.056.067.087.146.264.298.527.443.79.219.396.444.785.663 1.18.2.352.4.71.595 1.061.219.39.443.779.662 1.168l.602 1.073c.218.395.437.784.662 1.18.067.125.14.244.218.383.881-1.425 1.744-2.825 2.619-4.237l.461.81c.213.37.42.74.632 1.105l.76 1.33c.188.333.376.659.57.992.019-.007.037-.007.05-.007zM24.828 32.998v-4.353c0-.257-.067-.496-.152-.728a2.558 2.558 0 00-.547-.88 2.628 2.628 0 00-.997-.684 7.628 7.628 0 00-.91-.27 1.991 1.991 0 00-.475-.05c-.759-.013-1.512-.02-2.272-.026-.364-.006-.71.088-1.045.226a2.883 2.883 0 00-1.142.823c-.267.32-.443.691-.522 1.1a3.094 3.094 0 00-.067.621 69.89 69.89 0 000 1.954c.006.464.164.88.45 1.243.382.49.899.748 1.47.886.28.07.57.082.856.12.025 0 .043.012.067.025h3.208c.261-.396.516-.786.796-1.207v1.207c.425-.007.856-.007 1.282-.007zm-1.282-1.413h-4.07c-.317 0-.627-.044-.918-.163-.358-.151-.571-.34-.559-.804.012-.635.006-1.263 0-1.897 0-.195.043-.37.128-.54.273-.528.729-.786 1.281-.817.578-.031 1.155-.006 1.732-.006.316 0 .632 0 .948.063.443.088.844.257 1.154.615.194.226.31.49.31.804-.006.867 0 1.734 0 2.607-.006.038-.006.075-.006.138z" fill="#fff"/></svg>