<!-- by TradingView --><svg xmlns="http://www.w3.org/2000/svg" width="56" height="56"><path fill="#F0F3FA" d="M0 0h56v56H0z"/><path fill-rule="evenodd" d="M7.42 24h1.16L12 32h-1.07l-.87-2H5.94l-.87 2H4l3.42-8zM8 25.3L9.62 29H6.38L8 25.3zm4.5-1.3v8h1v-8h-1zm12 8v-8h1v8h-1zm2.5-6h-1v6h1v-6zm.5 0h1v1a2.5 2.5 0 014.5 1.5V32h-1v-3.2a1.8 1.8 0 00-3.5-.6V32h-1v-6zM26 25v-1h1v1h-1zm-12 7v-8h1v4.98L17.92 26h1.4l-2.69 2.74 2.5 3.26h-1.26l-1.94-2.54-.93.94V32h-1zm10 0v-3.5c0-.76-.23-1.44-.71-1.89a2.51 2.51 0 00-1.75-.61c-.78 0-1.6.22-2.26.55l.44.9c.71-.36 1.6-.54 2.27-.4.76.14 1 .71 1.01 1.45a5.5 5.5 0 00-2.2-.1c-1.2.2-1.82.88-1.78 1.8.02.45.2.9.54 1.24.35.34.84.55 1.43.56a3.8 3.8 0 002.01-.54V32h1zm-1-1.56c-.74.45-2.05.96-2.73.29a.85.85 0 01-.25-.57c-.05-1.34 1.92-1.01 2.98-.77v1.05zm15-.1c-.33.4-1 .66-1.6.66a1.9 1.9 0 01-1.84-1.5h4.4c.03-.16.04-.33.04-.5 0-1.66-1.23-3-2.75-3s-2.75 1.34-2.75 3 1.28 3 2.9 3c.92 0 1.86-.4 2.36-1.02l-.76-.64zM36.25 27c-.76 0-1.5.59-1.7 1.5h3.4c-.2-.91-.94-1.5-1.7-1.5z" fill="#0A7AC2"/><path d="M45.22 28.55c-.19-.3-.46-.56-.8-.75.26-.18.47-.4.61-.66a2 2 0 00.22-.93 2 2 0 00-1.33-1.93A3.5 3.5 0 0042.5 24c-.54 0-1.01.1-1.42.28a2 2 0 00-1.31 1.93c0 .35.07.66.2.93.15.26.35.48.62.66-.35.2-.62.44-.8.75-.19.31-.28.67-.28 1.07 0 .48.12.9.37 1.26s.6.63 1.04.83c.46.2.98.29 1.58.29.6 0 1.12-.1 1.58-.29.45-.2.8-.47 1.05-.83s.38-.78.38-1.26a2 2 0 00-.28-1.07zm-3.53-2.97c.2-.18.47-.27.8-.27.34 0 .61.1.81.27.2.17.3.4.3.7 0 .3-.1.53-.3.7-.2.17-.47.26-.81.26-.34 0-.6-.09-.8-.26a.87.87 0 01-.3-.7c0-.3.1-.53.3-.7zm1.78 4.8c-.24.2-.57.3-.98.3-.4 0-.73-.1-.97-.3a1 1 0 01-.35-.81 1 1 0 01.35-.8c.24-.2.56-.3.97-.3.41 0 .74.1.98.3.24.2.36.46.36.8s-.12.61-.36.82zm8.25-1.83c-.19-.3-.46-.56-.8-.75.26-.18.47-.4.61-.66a2 2 0 00.22-.93 2 2 0 00-1.33-1.93A3.5 3.5 0 0049 24c-.54 0-1.01.1-1.42.28a2 2 0 00-1.31 1.93c0 .35.07.66.2.93.15.26.35.48.62.66-.35.2-.62.44-.8.75-.19.31-.28.67-.28 1.07 0 .48.12.9.37 1.26s.6.63 1.04.83c.46.2.98.29 1.58.29.6 0 1.12-.1 1.58-.29.45-.2.8-.47 1.05-.83s.38-.78.38-1.26a2 2 0 00-.28-1.07zm-3.53-2.97c.2-.18.47-.27.8-.27.34 0 .61.1.81.27.2.17.3.4.3.7 0 .3-.1.53-.3.7-.2.17-.47.26-.81.26-.34 0-.6-.09-.8-.26a.87.87 0 01-.3-.7c0-.3.1-.53.3-.7zm1.78 4.8c-.24.2-.57.3-.98.3-.4 0-.73-.1-.97-.3a1 1 0 01-.35-.81 1 1 0 01.35-.8c.24-.2.56-.3.97-.3.41 0 .74.1.98.3.24.2.36.46.36.8s-.12.61-.36.82z" fill="#F48909"/></svg>