<!-- by TradingView --><svg xmlns="http://www.w3.org/2000/svg" width="56" height="56"><path fill="#F0F3FA" d="M0 0h56v56H0z"/><mask id="a" maskUnits="userSpaceOnUse" x="14" y="20" width="28" height="24"><path d="M14 20.01h28V44H14V20.01z" fill="#fff"/></mask><g mask="url(#a)"><path d="M20.24 20.04a12.14 12.14 0 00-2.34 5.73c-.87 6.51 3.15 12.55 9.86 13.31a11.8 11.8 0 0013-10.28c.2-1.46.14-2.94-.2-4.38 1.53 4.55 1.61 6.18 1.28 8.78-.73 5.7-6.82 11.6-14.96 10.71-7.4-.81-13.35-6-12.85-14.09.25-4 3.35-7.58 6.24-9.81" fill="#2D6FB7"/></g><path d="M15.15 25s.84-10.68 10.87-12.8c0 0 5.95-1.29 10.36 2.76 0 0 3.88 3.42 3.35 9 0 0-.61 7.98-10.75 8.81 0 0 9-2.6 5.89-11.32 0 0-2.06-6.25-9.46-5.34 0 0-6.12.67-10.26 8.89" fill="#7FC241"/><path d="M19.21 26.88s-1-5.68 5.62-7.87c0 0 4.2-1.22 7.32 1.45 0 0 3.88 2.98 1.91 7.67 0 0-.73 2.4-5.18 4.08 0 0 4.78-2.49 3.05-7.1 0 0-1.3-3.58-6.13-3.59 0 0-5.71.01-6.59 5.36z" fill="#7FC241"/><path d="M28.05 33.66s9.96 1.28 12.3-7.06c0 0-.88 10.84-11.72 10.66 0 0-5.4 0-7.93-4.3 0 0-3.03-5.4 1.62-9.03 0 0 3.94-3.14 8.14.48 0 0-1.98-1.77-4.98-.67 0 0-4.57 1.73-3 5.9 0 0 .83 3.07 5.58 4.02z" fill="#2D6FB7"/></svg>