<!-- by TradingView --><svg width="56" height="56" xmlns="http://www.w3.org/2000/svg"><path fill="url(#paint0_linear)" d="M0 0h56v56H0z"/><path d="M12.27 40.565c2.619-2.55 8.88-4.595 15.47-5.451a69.703 69.703 0 013.633-.373c.044-.004.405-.02.405-.02l.546 1.268.665-1.348.528-.035c3.362-.165 6.37-.099 8.445.05-.536 1.163-1.715 3.688-1.715 3.688-1.949-.642-8.001-1.346-13.867-.862-7.141.59-13.378 2.804-14.109 3.083" fill="#EE2624"/><path d="M32.335 35.84L27.886 24.86l-4.448 10.978-10.665-21.921 4.133 11.554 6.399 16.64 4.581-10.43 4.582 10.43 6.398-16.64L43 13.918 32.335 35.839z" fill="#fff"/><path d="M40.767 13.95L32.53 24.83 27.9 14.25l-4.628 10.58-8.238-10.88 8.3 16.46L27.9 18.627l4.567 11.783 8.299-16.46z" fill="#fff"/><defs><linearGradient id="paint0_linear" x1="10.418" y1="9.712" x2="68.147" y2="76.017" gradientUnits="userSpaceOnUse"><stop stop-color="#1A1E21"/><stop offset="1" stop-color="#06060A"/></linearGradient></defs></svg>