<!-- by TradingView --><svg width="56" height="56" xmlns="http://www.w3.org/2000/svg"><path fill="#0058AA" d="M0 0h56v56H0z"/><path d="M28 44c-8.838 0-15.998-7.163-16-16 .002-8.839 7.162-16 16-16 8.836 0 15.998 7.161 16 16-.002 8.837-7.164 16-16 16zm0-29.642C20.467 14.37 14.373 20.465 14.36 28c.012 7.533 6.106 13.629 13.64 13.642 7.532-.013 13.627-6.109 13.64-13.642-.013-7.535-6.108-13.63-13.64-13.642zm8.712 9.641c.004-.665-.347-1.206-1.195-1.21-.198 0-.368.015-.514.046-.26.058-.5.334-.553.47-.012.03-.148.42-.143.762.005.342.098.692.257.87.408.456 1.518.905 1.607.95.924.457 1.592.752 2.19 1.31.006.007.004.014-.008.021.449.448.87 1.15.87 2.294 0 2.25-.943 3.659-3.768 3.606-2.764-.05-3.385-1.64-3.455-3.005l-.012-1.711h2.278v1.433c0 .667.478 1.204 1.327 1.204.195 0 .366-.019.514-.05.258-.056.498-.337.55-.472.01-.03.146-.42.138-.763-.006-.342-.1-.69-.26-.866-.41-.457-1.524-.9-1.613-.945-.477-.243-.923-.45-1.329-.681-.036-.014-.064-.025-.087-.04a2.772 2.772 0 01-.279-.188c-.177-.118-.311-.26-.467-.404-.011-.01-.036-.005-.009-.017-.467-.495-.878-1.24-.874-2.314.013-2.253.962-3.657 3.788-3.59 2.764.066 3.274 1.658 3.335 3.02l-.018 1.713-2.276-.009.006-1.434zM28 36c-2.529 0-3.43-1.636-3.5-3v-1.602H27v1.382c0 .72.266 1.23 1.116 1.23.195 0 .365-.018.514-.05.257-.056.497-.335.549-.473.012-.029.147-.417.138-.762-.005-.343-.101-.69-.259-.867-.411-.457-1.523-.898-1.611-.944-.48-.242-.928-.45-1.337-.684-.031-.012-.06-.023-.083-.036a4.201 4.201 0 01-.291-.198c-.1-.067-.171-.14-.265-.215-.542-.494-1.075-1.288-1.07-2.512.011-2.25.96-3.654 3.786-3.586 2.765.061 3.074 1.98 3.074 3.019L31.264 28h-2.276l.007-1.032c.003-.667-.374-1.207-.957-1.207-.195 0-.366.014-.512.048-.26.056-.5.332-.553.467-.012.03-.147.42-.142.763.004.344.097.69.255.869.407.456 1.518.908 1.608.95.925.456 1.593.753 2.19 1.312.007.005-.012-.012-.023-.005.449.447.885 1.175.885 2.319C31.746 34.734 30.5 36 28 36zm-8-3c-2.12 0-2.983-1.239-2.983-3.545L17 22h2v7.455C19 29.997 19 31 20 31s1-1.064 1-1.545V22h2v7.455c.01 1.853-.437 3.545-3 3.545z" fill="#fff"/></svg>