<!-- by TradingView --><svg width="56" height="56" xmlns="http://www.w3.org/2000/svg"><path fill="#F0F3FA" d="M0 0h56v56H0z"/><path d="M4.011 27.839L4 35h32l1.966-1.97c.946-.929 2.566-2.516 3.594-3.527l1.88-1.847-.387-1.487-.393-1.493.912-.016c.503-.006.918-.006.929 0 .006.01.094.453.188.984.094.53.182.978.199.99.022.021 6.084-5.557 6.112-5.634-.01.013-9.744 0-23.72 0H4l.011 6.839zm8.78-3.163c.325.078.663.188.663.222 0 .01-.67 1.265-.686 1.282a1.463 1.463 0 01-.27-.116c-.576-.293-1.576-.32-2.279-.066-.868.315-1.454.94-1.774 1.896-.376 1.111-.05 1.802.918 1.957.42.066 1.15-.017 1.675-.194.315-.105.37-.11.342-.038l-.486 1.255s-.481.171-1.156.248c-1.547.172-2.697-.32-3.095-1.326-.248-.634-.143-1.442.066-2.068.553-1.642 1.863-2.78 3.582-3.107.537-.1 1.98-.072 2.5.055zm3.421-.027C15.46 26.418 13.41 31 13.41 31h-1.685c.896-2.12 1.78-4.25 2.72-6.351h1.768zm3.71.01c0 .018-.83 4.236-.83 4.236 0 .01.658-.93 1.46-2.096l1.454-2.123 2.759-.016-2.781 6.352h-1.642l2.217-5.07c-.006-.005-.818 1.145-1.802 2.555l-1.74 2.486c-.546.012-1.092.017-1.638.017l.868-5.058c-.011-.01-.52 1.128-1.128 2.538L16.013 31H14.5s1.886-4.4 2.74-6.351c.283 0 2.682-.006 2.682.01zM29.154 31h-1.73c.04-.44.082-.88.135-1.32H25.09L24.006 31h-1.773c1.596-2.194 3.415-4.237 5.125-6.346l2.178-.005s-.382 4.245-.382 6.351zm6.446-6.224c1.103.362 1.104 1.612.382 2.41-.26.282-.84.575-1.333.67-.31.06-.359.082-.265.12.06.029.16.134.221.227.4.682.144 2.797.144 2.797H33s.352-1.865-.02-2.316c-.185-.225-.598-.138-.863-.138L31 31h-1.613a92.604 92.604 0 011.304-3.117c.466-1.081 1.393-3.245 1.393-3.245s2.465-.195 3.516.138zm6.761-.1s-.378.809-.53 1.161l-2.825.028c-.184.428-.413.873-.586 1.305H41.107l-.548 1.21-2.653.028-.58 1.404h2.885L39.68 31c-.511 0-4.58-.009-4.583 0 0 0 2.006-4.662 2.73-6.351.61 0 4.533.027 4.533.027z" fill="#000"/><path d="M26.976 27.23l-.923 1.206.785.016c.431.006.79.006.801 0 .023-.027.288-2.388.271-2.41-.01-.011-.43.525-.934 1.188zM33.195 25.987c-.027.072-.165.392-.298.718l-.254.597h.458c1.012 0 1.582-.326 1.582-.912 0-.42-.188-.525-.951-.525-.46 0-.492.011-.537.122z" fill="#000"/><path d="M51.419 22.504c-.862.823-2.6 2.333-3.673 3.344-1.067 1.018-1.935 1.88-1.918 1.913.022.067.796 3.2.796 3.239h-1.852c-.017-.072-.116-.646-.221-1.204-.1-.559-.194-1.018-.205-1.029-.022-.016-6.088 6.139-6.11 6.205-.012.028 3.252.028 7.476.028H53v-7.149c0-3.77.017-6.851.006-6.851-.006 0-.725.674-1.587 1.504z" fill="#BE3A34"/></svg>