<!-- by TradingView --><svg xmlns="http://www.w3.org/2000/svg" width="56" height="56"><path fill="#F0F3FA" d="M0 0h56v56H0z"/><path fill-rule="evenodd" d="M31.12 27.12c3.67 3.6 5.88 5.76 5.88 9.76A9.06 9.06 0 0128 46c-4.97 0-9-4.08-9-9.12 0-3.97 2.25-6.18 5.85-9.7.96-.95 2.01-1.99 3.15-3.18 1.13 1.17 2.17 2.2 3.12 3.12zm-1.95 6.08c1.38 1.36 2.2 2.17 2.2 3.68A3.4 3.4 0 0128 40.3a3.4 3.4 0 01-3.38-3.43c0-1.58.92-2.47 2.41-3.91L28 32l1.17 1.2z" fill="#1B84A2"/><path fill-rule="evenodd" d="M27.12 24.88c3.6-3.67 5.76-5.88 9.76-5.88A9.06 9.06 0 0146 28c0 4.97-4.08 9-9.12 9-4.04 0-6.34-2.47-9.96-6.07-.88-.9-1.84-1.89-2.92-2.93 1.17-1.13 2.2-2.17 3.12-3.12zm6.07 1.95c1.37-1.38 2.19-2.2 3.71-2.2A3.42 3.42 0 0140.37 28a3.42 3.42 0 01-3.47 3.38c-1.6 0-2.49-.92-3.94-2.41L32 28c.45-.42.84-.82 1.19-1.17z" fill="#6B5681"/><path fill-rule="evenodd" d="M28.88 24.88c-3.7-3.66-5.76-5.88-9.76-5.88A9.06 9.06 0 0010 28c0 4.97 4.08 9 9.12 9 4.02 0 6.26-2.35 9.9-6 .9-.93 1.87-1.93 2.98-3-1.17-1.13-2.2-2.17-3.12-3.12zm-6.05 1.95c-1.34-1.38-2.28-2.2-3.78-2.2A3.4 3.4 0 0015.63 28a3.4 3.4 0 003.42 3.38c1.57 0 2.58-.92 4.01-2.41.3-.3.6-.63.95-.97-.44-.42-.83-.81-1.18-1.17z" fill="#E28D0E"/><path fill-rule="evenodd" d="M31.12 28.87c3.67-3.6 5.88-5.75 5.88-9.75A9.06 9.06 0 0028 10c-4.97 0-9 4.08-9 9.12 0 4 2.34 6.3 5.95 9.83.94.92 1.96 1.92 3.05 3.05 1.13-1.18 2.17-2.2 3.12-3.13zm-1.95-6.05c1.38-1.35 2.2-2.21 2.2-3.71A3.4 3.4 0 0028 15.69a3.4 3.4 0 00-3.38 3.42c0 1.57.92 2.5 2.41 3.94.3.29.63.6.97.95.42-.44.82-.83 1.17-1.18z" fill="#C34256"/><path d="M29.99 26.01c-.63-.62-1.3-1.29-1.99-2.01-.91.91-1.78 1.74-2.57 2.51-.71.68-1.32 1.39-1.93 2l-.5.52-.54.55C20.3 31.9 19 33.9 19 36.88V37h.12c2.96 0 4.99-1.28 7.28-3.42l.63-.61a79.78 79.78 0 001.98-1.98c.9-.92 1.88-1.92 2.99-2.99-.72-.7-1.39-1.36-2.01-1.99z" fill="#4A6940"/><path d="M27.49 24.5l-.37.38c-.92.95-1.95 2-3.12 3.12 1.08 1.04 2.04 2.03 2.92 2.93L28 32l.52.54c2.77 2.75 4.94 4.46 8.36 4.46H37v-.12c0-2.97-1.22-4.93-3.35-7.21l-.7-.7c-.29-.3-.6-.63-.95-.97l-.88-.88c-.95-.92-2-1.95-3.12-3.12l-.51.5z" fill="#2C4A64"/><path d="M32 28l-.88.87c-.95.93-2 1.95-3.12 3.13a125.24 125.24 0 00-1.08-1.07c-.88-.9-1.84-1.89-2.92-2.93 1.17-1.13 2.2-2.17 3.12-3.12 3.6-3.67 5.76-5.88 9.76-5.88H37v.12c0 3.54-1.74 5.65-4.7 8.58l-.3.3z" fill="#71254A"/><path d="M30.38 29.6c.5-.51 1.05-1.05 1.62-1.6-1.17-1.13-2.2-2.17-3.12-3.12l-.87-.89L28 24c-.34-.35-.67-.66-.97-.95l-.84-.83C23.97 20.17 22.03 19 19.12 19H19v.12c0 3.52 1.82 5.72 4.72 8.62L24 28l.96.95c.93.92 1.95 1.92 3.04 3.05.84-.88 1.63-1.67 2.38-2.4z" fill="#A63223"/><path d="M24 28l4-4 4 4-4 4-4-4z"/></svg>