<!-- by TradingView --><svg xmlns="http://www.w3.org/2000/svg" width="56" height="56"><path fill="#012A4D" d="M0 0h56v56H0z"/><path d="M22 33v-9.63a.37.37 0 01.37-.37h6.13v2H24v2h4v2h-4v4h-2zm7 0V23h1.65c.1 0 .18.04.25.1.06.06.1.15.1.24V33h-2zm3.84-6.3a4.13 4.13 0 00-.84 2.72c0 .52.08 1.03.24 1.51.11.39.31.75.58 1.05.24.26.53.47.85.63.3.15.62.25.95.31a6.63 6.63 0 003.93-.55V31c-.85.36-1.76.55-2.68.54-1.06.05-1.78-.43-1.87-1.54h4.97c.02-.19.03-.48.03-.88.02-.9-.3-1.77-.9-2.44-.58-.66-1.45-1-2.6-1-1.22.01-2.1.35-2.66 1.03zM37 28.82h-3c0-.77.35-1.81 1.4-1.81 1.03 0 1.6.68 1.6 1.81zm3.49-2.1a4.13 4.13 0 00-.84 2.71c0 .52.08 1.03.24 1.51.12.39.32.75.58 1.05.25.26.54.47.85.63.3.15.62.25.95.31a6.63 6.63 0 003.93-.55V31c-.84.36-1.75.55-2.67.54-1.07.05-1.78-.43-1.88-1.54h4.97c.02-.19.03-.48.03-.88.03-.9-.3-1.77-.89-2.44-.59-.66-1.46-1-2.6-1-1.23.01-2.11.35-2.67 1.03zm4.16 2.1h-3c0-.77.36-1.81 1.4-1.81s1.6.68 1.6 1.81zM47 26v1.5h1v3.23c-.08 1.43 1.46 2.27 2.77 2.27.42 0 .83-.06 1.23-.2v-1.37c-.29.1-.59.16-.89.15-.48.05-1.19-.18-1.11-.75V27.5h2V26h-2v-2h-1.65a.36.36 0 00-.35.34V26h-1zm-33-3v10h7.6v-1.57a.44.44 0 00-.43-.43H16v-7.64c0-.2-.22-.36-.4-.36H14z" fill="#fff"/><path d="M7.82 28l3.77-4.65a.9.9 0 01.7-.35h2.13l-4.05 5H7.82zm3.93 4.61L8.03 28h2.56l4.05 5h-2.06a1.1 1.1 0 01-.83-.39z" fill="#fff"/><path d="M4.06 32.56L7.82 28h2.55l-4.1 5h-2a.3.3 0 01-.14-.04.27.27 0 01-.1-.11.26.26 0 01.03-.29" fill="#F05123"/><path d="M4.32 23.47L8 28h2.59l-4.06-5H4.54a.28.28 0 00-.25.17.3.3 0 00.04.3" fill="#CBDB2A"/><path d="M9.2 26.29L10.59 28H7.82l1.38-1.71z" fill="#B4282D"/></svg>