<!-- by TradingView --><svg width="56" height="56" xmlns="http://www.w3.org/2000/svg"><path fill="#F0F3FA" d="M0 0h56v56H0z"/><path d="M25.127 34.462c-1.018.015-1.654.398-1.88.589v.369c.24.201.888.602 1.88.58.992-.023 1.58-.396 1.791-.58v-.413c-.196-.188-.773-.56-1.791-.545z" fill="#000"/><path d="M17.216 22.36c.154-.217.405-.36.771-.36.294 0 .504.1.643.237a.716.716 0 01.21.41l-.298.034a.424.424 0 00-.124-.236c-.08-.078-.211-.15-.43-.15-.277 0-.433.102-.526.234-.099.14-.14.334-.14.529 0 .341.26.635.67.647a.557.557 0 00.424-.167.58.58 0 00.101-.136c.02-.037.024-.056.024-.056v.004h.3c0 .06-.027.13-.058.188a.86.86 0 01-.8.462c-.572-.016-.96-.442-.96-.942 0-.227.045-.488.193-.698zm17.163 0c.154-.217.405-.36.771-.36.294 0 .504.1.643.237a.716.716 0 01.21.41l-.298.034a.424.424 0 00-.124-.236c-.08-.078-.211-.15-.43-.15-.277 0-.432.102-.526.234-.099.14-.14.334-.14.529 0 .341.26.635.67.647a.557.557 0 00.424-.167.58.58 0 00.101-.136c.02-.037.024-.056.024-.056v.004h.3c0 .06-.027.13-.057.188a.86.86 0 01-.8.462c-.572-.016-.961-.442-.961-.942 0-.227.045-.488.193-.698z" fill="#000"/><path d="M9.81 25c3.854.047 4.565 1.841 4.438 2.733h-2.922c-.108-.592-.848-.898-1.515-.955-.668-.058-1.606.113-1.606.592 0 .363-.198.707 3.23 1.223 2.76.415 3.138 2.07 2.994 2.77-.012.892-1 2.667-4.853 2.637-3.853-.031-4.648-1.975-4.564-2.943h2.995c.144.688.721 1.07 1.804 1.109 1.082.038 1.66-.363 1.623-.803-.036-.44-.433-.707-3.572-1.26-2.51-.444-2.946-1.854-2.85-2.504-.006-.885.945-2.644 4.799-2.598zm38.958 4c1.852.026 2.193 1.023 2.133 1.518h-1.405c-.052-.329-.407-.498-.728-.53-.32-.032-.772.063-.772.329 0 .201-.095.392 1.552.679 1.327.23 1.509 1.15 1.44 1.539-.006.495-.48 1.482-2.333 1.465-1.851-.017-2.233-1.097-2.193-1.635h1.44c.069.382.346.595.866.616.52.021.798-.202.78-.446-.017-.244-.208-.393-1.716-.7-1.207-.247-1.416-1.03-1.37-1.391-.003-.492.454-1.469 2.306-1.444zm-30.865 4.277l-1.027 1.028h.744l.283-.372v-.656z" fill="#000"/><path fill-rule="evenodd" d="M15 25h6.889c.254.508 1.12 1.573 2.55 1.776.071.141.213.559.213 1.1 0 .677-.142 2.825-3.596 2.96H18v.982L15.795 34H15v-9zm3 2h2.188c.36.017 1.05.377 1.05 1 0 .778-.713 1-1.05 1H18v-2z" fill="#000"/><path d="M25.664 34v-7.195c1.52-.235 2.384-1.301 2.627-1.805h2.814C33.31 25 36 26.263 36 29.489c0 2.634-1.26 3.722-2.104 3.992l-1.9-1.895c.939-.577 1.032-1.555 1.004-2.097-.097-1.896-1.465-2.459-2.293-2.489h-1.97v4.158c-.094-.145-.34-.293-.61-.293-.835 0-1.673 2-2.205 3.135h-.258z" fill="#000"/><path d="M30.768 32h-1.27l.416.628.854-.628z" fill="#000"/><path fill-rule="evenodd" d="M37 34v-8.997h6.37c1.159-.046 3.468.464 3.437 2.869-.008.644-.251 2.037-1.95 2.693L47 34h-3.533l-1.814-3H40v3h-3zm3-7h2.989c.33.008.993.207 1.01.94.018.732-.57 1.06-1.01 1.06H40v-2zM8.018 22.217c.131-.134.34-.23.654-.216.499.022.758.293.827.467l-.279.108c-.024-.06-.174-.264-.561-.28-.24-.011-.362.06-.425.125a.316.316 0 00-.087.178c.007.024.063.197.532.239.587.051.867.323.88.602.007.141-.063.286-.215.391-.148.102-.37.165-.676.169-.528.007-.85-.305-.952-.48l.261-.146c.058.1.288.337.686.331.272-.003.427-.059.508-.115.078-.053.09-.107.089-.136-.003-.062-.087-.277-.608-.323-.581-.051-.824-.325-.806-.556a.605.605 0 01.172-.358zm21.546 0c.131-.134.34-.23.654-.216.5.022.758.293.828.467l-.28.108c-.023-.06-.174-.264-.561-.28-.24-.011-.362.06-.425.125a.317.317 0 00-.087.178c.007.024.063.197.532.239.587.051.867.323.88.602.007.141-.063.286-.215.391-.148.102-.37.165-.676.169-.528.007-.85-.305-.951-.48l.26-.146c.059.1.288.337.686.331.273-.003.427-.059.509-.115.077-.053.09-.107.088-.136-.003-.062-.087-.277-.608-.323-.58-.051-.824-.325-.806-.556a.605.605 0 01.172-.358zM10.384 22h1.572v.306h-1.272v.541h1v.306h-1v.541h1.272V24h-1.572v-2zm21.546 0h1.572v.306H32.23v.541h1v.306h-1v.541h1.272V24H31.93v-2zm-17.163 0h1.572v.306h-1.272v.541h1v.306h-1v.541h1.272V24h-1.572v-2zm-2.01.022h.3v1.636h1.098v.298h-1.398v-1.934zm7.225.285h-.666V22h1.632v.307h-.666V24h-.3v-1.693zm17.136 0h-.665V22h1.631v.307h-.666V24h-.3v-1.693zm2.495 1.403a.711.711 0 00.713-.71.711.711 0 00-.713-.71.711.711 0 00-.713.71c0 .392.32.71.713.71zm0 .29c.556 0 1.006-.448 1.006-1s-.45-1-1.006-1c-.555 0-1.005.448-1.005 1s.45 1 1.005 1zm1.859-2h1.02c.11.012.274.05.416.13.142.079.29.22.29.44a.542.542 0 01-.226.439.798.798 0 01-.164.095l.376.767-.27.129-.41-.836h-.732v.771h-.3V22zm.3.867h.811a.55.55 0 00.205-.093c.068-.052.11-.117.11-.204 0-.068-.041-.128-.138-.183a.838.838 0 00-.292-.09h-.696v.57zM24.953 34.275v-7.76h.3v7.76h-.3z" fill="#000"/><path d="M17.957 32.275L14.574 36h.284l3.26-3.194c.187-.158.489-.066.617 0l4.395 2.05.235-.149-4.507-2.642c-.375-.257-.757.033-.901.21zm14.293-.013L35.633 36h-.284l-3.26-3.207c-.188-.158-.49-.066-.617 0l-4.396 2.05-.235-.148 4.507-2.643c.376-.256.757.033.901.21z" fill="#000"/><path d="M18.463 33.695L16.426 36h.29l1.825-1.757c.211-.184.55-.105.659-.053l3.837 1.195v-.334a642.977 642.977 0 01-3.837-1.537c-.344-.144-.635.06-.737.18zm13.28.012L33.781 36h-.29l-1.826-1.745c-.211-.184-.55-.105-.659-.053l-3.837 1.195v-.334a645.716 645.716 0 003.837-1.537c.344-.144.635.06.737.18z" fill="#000"/><path d="M19.367 34.234L18.102 36h.246l1.291-1.678-.272-.088zm11.511.008L32.142 36h-.246l-1.29-1.67.271-.088zm-10.308.343L19.498 36h.255l1.098-1.31-.281-.105zm9.104.008L30.746 36h-.255l-1.097-1.302.28-.105zm-8.191-3.177l-1.607 2.168.307.115c.37-.448 1.165-1.405 1.397-1.651.231-.246.488-.103.588 0 .323.218 1.317 1.718 1.774 2.44l.166-.078c-.43-.849-1.387-2.636-1.773-2.994-.387-.359-.73-.15-.852 0zm7.194 0l1.653 2.168-.316.115c-.38-.448-1.198-1.405-1.436-1.651-.239-.246-.503-.103-.606 0-.332.218-1.355 1.718-1.825 2.44l-.171-.078c.443-.849 1.427-2.636 1.825-2.994.397-.359.75-.15.876 0z" fill="#000"/><path d="M21.703 33.154l-.694.86.298.176c.041-.023.178-.145.396-.447.217-.303.535-.18.667-.08l1.203.958.228-.123c-.322-.343-1.048-1.091-1.378-1.344-.33-.253-.618-.105-.72 0zm6.801 0l.693.86-.298.176c-.041-.023-.178-.145-.395-.447-.218-.303-.536-.18-.668-.08l-1.203.958-.228-.123c.322-.343 1.048-1.091 1.379-1.344.33-.253.617-.105.72 0z" fill="#000"/><path d="M28.118 32.242l-.744.968c.79-.71 1.321-.269 1.488.04l.345-.23c-.149-.165-.49-.55-.663-.778-.173-.227-.356-.095-.426 0zm3.417.763l-.976.457c.976-.457 1.639.252 1.896.708l.644-.135c-.258-.242-.82-.774-1.005-.962-.185-.189-.45-.124-.559-.068z" fill="#000"/><path d="M25.003 23v-2.994c.621 0 1.2.18 1.687.489L25.003 23z" fill="#E4BC40"/><path d="M25 23.004v-3.002c-.622 0-1.18.18-1.667.489L25 23.004z" fill="#A52924"/><path d="M25.008 22.996l-1.637-2.505c-.517.344-.9.815-1.133 1.343l2.77 1.162z" fill="#9FBB4D"/><path d="M25 22.996l1.69-2.505c.517.344.9.815 1.132 1.343L25 22.996z" fill="#D68A39"/><path d="M25 22.996l2.823-1.181c.243.572.303 1.175.208 1.744L25 22.996z" fill="#7A2E7F"/><path d="M25.089 23.022l-2.852-1.207a3.133 3.133 0 00-.207 1.744l3.059-.537z" fill="#459FD7"/><path d="M25.003 22.996l-3.05.537c.108.612.385 1.152.775 1.577l2.275-2.114z" fill="#936399"/><path d="M25 22.996l3.094.537a3.134 3.134 0 01-.775 1.577L25 22.996z" fill="#7B85B4"/><path d="M25 22.984l2.338 2.14a3.134 3.134 0 01-1.515.89L25 22.983z" fill="#449BAB"/><path d="M25.008 22.992l-2.331 2.132c.427.451.955.749 1.514.89l.817-3.022z" fill="#8FB5D5"/><path d="M25 23l-.885 3.065a3.1 3.1 0 001.773-.004L25 23z" fill="#C7CC49"/><path fill-rule="evenodd" d="M25.02 25.991a2.893 2.893 0 100-5.785 2.893 2.893 0 000 5.785zm0 .2a3.093 3.093 0 100-6.185 3.093 3.093 0 000 6.185z" fill="#000"/></svg>