<!-- by TradingView --><svg width="56" height="56" xmlns="http://www.w3.org/2000/svg"><path fill="#3981A3" d="M0 0h56v56H0z"/><path d="M25.56 30H5l17.05 2.446L25.56 30zM34.157 37.885c-1.423-3.697-8.314-4.712-11.582-4.758l-3.92 2.636c10.57.051 13.732 3.516 13.991 5.242l1.511-3.12zM37.036 31.763c-1.724-2.496-5.523-3.461-7.207-3.632l-3.43 2.456c6.118.6 8.686 3.069 9.206 4.228l1.431-3.052zM32.02 25.725L14 26l14.855 2.188 3.164-2.463zM39.9 25.771c-1.524-1.674-3.15-2.279-3.772-2.372l-3 2.289c3.399.882 4.97 2.414 5.33 3.07l1.443-2.987zM38.977 21.144L44 17l-2.726 5.771c-1.09-1.094-1.986-1.54-2.297-1.627zM38 21l-14 .484 11.045 1.915L38 21z" fill="#fff"/></svg>