<!-- by TradingView --><svg xmlns="http://www.w3.org/2000/svg" width="56" height="56"><path fill="url(#arrkdcir0)" d="M0 0h56v56H0z"/><path d="M21 22h1v10h-1V22zm11 3h-1v7h1v-7zm0-2h-1v1h1v-1zM6.49 25c.62-.02 1.21.31 1.51.79V25h1v12H8v-5.62c-.37.41-1.08.65-1.68.63-1.12 0-2.32-.92-2.32-3.5 0-1.18.27-2.1.8-2.72.2-.24.44-.43.74-.57.3-.14.62-.21.95-.22zM8 30.26v-3.48c-.15-.46-.76-.76-1.31-.78-.95 0-1.69.83-1.69 2.5 0 1.73.68 2.5 1.63 2.5A1.6 1.6 0 008 30.26zm31.77-3.57c0 .57.47.85 1.12 1.17.85.43 1.8.92 1.8 2.18.03.53-.17 1.05-.57 1.42-.4.38-.93.57-1.48.54-1.29 0-2.1-.85-2.14-2.2v-.05h.97v.04c.02.77.5 1.21 1.17 1.21.56.02 1.08-.34 1.06-.91 0-.7-.64-1.04-1.32-1.4-.68-.34-1.61-.82-1.61-1.94 0-1.03.78-1.75 1.9-1.75a1.92 1.92 0 011.4.54c.39.43.58 1 .53 1.56v.05h-.97v-.05c.1-.6-.44-1.1-.96-1.1s-.9.34-.9.7zm-3.3 3.07c.02.63-.36 1.26-1.06 1.24-.86 0-1.41-.78-1.41-2.49 0-1.7.57-2.51 1.42-2.51.65-.01 1.01.56 1 1.14h1.05c.03-.6-.19-1.19-.62-1.64a1.9 1.9 0 00-.64-.39c-.24-.08-.5-.12-.75-.1-1.59 0-2.46 1.23-2.46 3.5 0 2.25.85 3.49 2.39 3.49 1.24 0 2.01-.83 2.11-2.24h-1.02zm-7.97-3.78V25h-1v7h1v-4.95c.48-.94 1.2-1.05 1.8-1.05v-1.02c-.75 0-1.31.3-1.8 1zM24 23h1v2h1.5v1H25v4.33c0 .31.1.67.56.67.27-.01.53-.1.73-.27l.07-.05v1.02l-.02.02c-.31.18-.67.27-1.04.28-.88 0-1.3-.55-1.3-1.54V26h-1v-1h1v-2zm-4.74 7.43c0 .36.06.57.35.57.14 0 .26-.06.39-.13v1c-.2.08-.4.13-.6.13a1.1 1.1 0 01-1.09-.8 2.1 2.1 0 01-1.58.8C15.7 32 15 31.27 15 30.18c0-1.23.84-1.7 2.11-2.3l1.13-.52v-.34c0-.6-.3-1.02-.87-1.02a1.1 1.1 0 00-1.11 1.16h-.95c.01-1.05.65-2.16 2.06-2.16 1.18 0 1.89.73 1.89 1.96v3.47zm-1.02-.24v-1.94l-.84.38c-.64.3-1.4.74-1.4 1.56 0 .49.37.8.94.81a1.5 1.5 0 001.3-.8zM13 30.12c-.38.57-.83.88-1.25.88-.55 0-.75-.55-.75-1.06V25h-1v5.12c0 1.2.53 1.88 1.45 1.88a1.9 1.9 0 001.55-.82V32h1v-7h-1v5.12zm36.79-4.25l.77-2.87H52v4h-1v-2.71l-.82 2.7h-.84l-.84-2.7V27h-1.7l-.92-1.4L45 27h-1l1.38-2.11L44.12 23h1.09l.77 1.2.73-1.2h2.23l.85 2.87zm-2.29-2.51l-1.04 1.53 1.04 1.62v-3.15z" fill="#fff"/><defs><linearGradient id="arrkdcir0" x1="6.92" y1="10.44" x2="48.24" y2="46.92" gradientUnits="userSpaceOnUse"><stop stop-color="#21DBAA"/><stop offset=".38" stop-color="#00B0EE"/><stop offset="1" stop-color="#5F1AE5"/></linearGradient></defs></svg>