<!-- by TradingView --><svg xmlns="http://www.w3.org/2000/svg" width="56" height="56"><path fill="#F0F3FA" d="M0 0h56v56H0z"/><path d="M26.8 13.38L31 12v7.22l-7.02 9.35L31 37.79V44l-5.3-1.4-5.81-8.5-4.33 5.79-3.56-.94v-4.01l4.25-6.26-4.25-6.1V17.9l3.03-.91 4.9 6.06 6.87-9.66z" fill="url(#aimli4b1q)"/><path d="M22.7 19.15l-7.68-2.18 4.88 6.11 2.8-3.93z" fill="url(#bimli4b1q)"/><path d="M22.62 38.07l-7.07 1.81 4.36-5.82 2.7 4.01z" fill="url(#cimli4b1q)"/><path d="M41 18.46L31 12v7.21l5 1.72V36.3l-5 1.5V44l13-7.16v-3.21l-3 .95V18.46z" fill="url(#dimli4b1q)"/><path d="M44 33.63l-3-.2v1.18l3-.98z" fill="url(#eimli4b1q)"/><path d="M36 36.26V20.94l-3 3.84v7.66l3 3.82z" fill="url(#fimli4b1q)"/><path d="M31 37.82l5.02-1.53L30 28.57h-6.06L31 37.82z" fill="url(#gimli4b1q)"/><path d="M29.99 28.59l6.04-7.63L31 19.2l-7.06 9.39H30z" fill="url(#himli4b1q)"/><defs><linearGradient id="aimli4b1q" x1="12" y1="17.42" x2="31.75" y2="43.51" gradientUnits="userSpaceOnUse"><stop stop-color="#C8C7C7"/><stop offset=".2" stop-color="#D0D0D0"/><stop offset=".41" stop-color="#989FA5"/><stop offset="1" stop-color="#B6BABD"/></linearGradient><linearGradient id="bimli4b1q" x1="20.46" y1="17.62" x2="19.49" y2="21.1" gradientUnits="userSpaceOnUse"><stop stop-color="#DEE1E3"/><stop offset="1" stop-color="#3C4952"/></linearGradient><linearGradient id="cimli4b1q" x1="19.08" y1="35.3" x2="22.16" y2="38.31" gradientUnits="userSpaceOnUse"><stop stop-color="#222B30"/><stop offset="1" stop-color="#A9B2B7"/></linearGradient><linearGradient id="dimli4b1q" x1="37.56" y1="12" x2="37.56" y2="43.97" gradientUnits="userSpaceOnUse"><stop stop-color="#659436"/><stop offset=".36" stop-color="#79AB44"/><stop offset="1" stop-color="#5D9233"/></linearGradient><linearGradient id="eimli4b1q" x1="41.04" y1="34.01" x2="43.99" y2="33.45" gradientUnits="userSpaceOnUse"><stop stop-color="#32602B"/><stop offset=".72" stop-color="#ADC893"/></linearGradient><linearGradient id="fimli4b1q" x1="34.17" y1="20.94" x2="34.17" y2="36.26" gradientUnits="userSpaceOnUse"><stop stop-color="#28452E"/><stop offset=".88" stop-color="#92B276"/></linearGradient><linearGradient id="gimli4b1q" x1="25.23" y1="29.59" x2="35.89" y2="34.62" gradientUnits="userSpaceOnUse"><stop offset=".39" stop-color="#606970"/><stop offset=".92" stop-color="#A2BB93"/></linearGradient><linearGradient id="himli4b1q" x1="35.32" y1="20.98" x2="23.77" y2="28.7" gradientUnits="userSpaceOnUse"><stop stop-color="#1E262C"/><stop offset=".85" stop-color="#697279"/></linearGradient></defs></svg>