<!-- by TradingView --><svg width="56" height="56" xmlns="http://www.w3.org/2000/svg"><path fill="url(#paint0_linear)" d="M0 0h56v56H0z"/><path d="M26.999 25.38v.816c.015.257-.1.775-.683.794-.584.018-5.738.008-8.241 0-.22-.008-.782-.136-1.272-.584-.49-.448-4.363-4.325-6.24-6.208-.376-.357-.891-1.228-.282-1.89.486-.527 1.492-.275 1.978 0l13.845 5.998c.298.085.895.42.895 1.073zm2.002 0v.816c-.015.257.1.775.683.794.584.018 5.738.008 8.241 0 .22-.008.782-.136 1.272-.584.49-.448 4.363-4.325 6.24-6.208.376-.357.891-1.228.282-1.89-.486-.527-1.492-.275-1.978 0l-13.845 5.998c-.298.085-.895.42-.895 1.073zM27 29.8v.817c0 .653-.597.988-.895 1.073L12.26 37.688c-.486.275-1.492.528-1.978 0-.609-.662-.094-1.532.283-1.89 1.876-1.883 5.75-5.76 6.24-6.208.49-.448 1.051-.576 1.27-.584 2.504-.007 7.658-.018 8.242 0 .584.02.698.537.683.794zm2.002.82v-.816c-.015-.257.1-.775.683-.794.584-.018 5.738-.008 8.241 0 .22.008.782.136 1.272.584.49.448 4.363 4.325 6.24 6.208.376.357.891 1.228.282 1.89-.486.527-1.492.275-1.978 0l-13.845-5.998c-.298-.085-.895-.42-.895-1.073z" fill="#fff"/><defs><linearGradient id="paint0_linear" x1="10.418" y1="9.712" x2="68.147" y2="76.017" gradientUnits="userSpaceOnUse"><stop stop-color="#1A1E21"/><stop offset="1" stop-color="#06060A"/></linearGradient></defs></svg>