<!-- by TradingView --><svg width="56" height="56" xmlns="http://www.w3.org/2000/svg"><path fill="#C00" d="M0 0h56v56H0z"/><path d="M22.271 24.141h-1.738v5.348h4.11v-1.397h-2.372v-3.951z" fill="#fff"/><path d="M28.96 27.41c-.041-1.128-.919-1.893-2.175-1.893-1.303 0-2.203.816-2.203 1.99s.891 1.982 2.186 1.982c1.279 0 2.182-.806 2.194-1.974l-.003-.09v-.015zm-2.191 1.066c-.438 0-.646-.339-.646-.969 0-.63.2-.96.629-.96.454 0 .718.336.718.958 0 .652-.256.971-.701.971z" fill="#fff"/><path d="M31.743 26.108c-.281-.43-.558-.597-1.086-.597-1.027 0-1.692.894-1.699 2.055.001.029.004.057.004.087v.025c.034 1.124.66 1.791 1.695 1.791.494 0 .797-.14 1.102-.497v.434c0 .557-.149.758-.608.758-.453 0-.538-.166-.621-.509h-1.432c.126 1.009.536 1.345 2.045 1.345.94 0 1.504-.24 1.843-.77.189-.29.255-.572.255-1.086v-3.516h-1.5l.002.48zm-.616 2.315c-.462 0-.67-.295-.67-.85 0-.489.24-.932.67-.932.429 0 .662.465.662.995 0 .497-.233.787-.663.787zm4.003-.21l-.003-.019h.003v-2.679h-1.554l-.002 3.974h1.553l.003-1.276zm5.584-4.075l-1.57 1.519v2.455c0 .456.032.604.148.82.214.398.646.555 1.421.555.264 0 .712-.017 1.091-.05v-1.076h-.514c-.512 0-.572-.067-.585-.547l.008-1.006h1.1v-1.151h-1.1v-1.52zm1.441 1.373h1.554v3.976h-1.554v-3.976zm3.75 2.88c-.44 0-.664-.279-.664-.892 0-.688.218-.916.657-.916.306 0 .514.22.556.543h1.474c-.066-.961-.891-1.615-2.039-1.615-1.318 0-2.179.908-2.179 2.184 0 1.234.886 1.792 2.18 1.792 1.171 0 1.946-.486 2.087-1.563h-1.474c-.066.406-.36.467-.598.467z" fill="#fff"/><path d="M50.434 26.965c-.784-.132-.869-.18-.869-.359 0-.156.127-.248.415-.248.347 0 .456.083.514.35h1.399c-.082-.838-.676-1.197-1.955-1.197-1.213 0-1.88.43-1.88 1.197 0 .375.18.688.504.868.247.14.461.203 1.162.344.734.148.77.22.77.38 0 .188-.205.305-.481.305-.526 0-.548-.264-.58-.59h-1.458c.074.92.54 1.476 2.02 1.476 1.263 0 2.005-.485 2.005-1.32 0-.181-.041-.353-.115-.509-.173-.345-.594-.548-1.451-.697zm-13.285 2.526c1.261 0 2.003-.485 2.003-1.32 0-.181-.04-.353-.115-.509-.173-.344-.594-.548-1.451-.696-.784-.133-.869-.18-.869-.36 0-.156.127-.247.415-.247.346 0 .457.095.514.348h1.4c-.083-.823-.677-1.195-1.955-1.195-1.214 0-1.882.43-1.882 1.196 0 .375.182.688.504.868.248.14.462.203 1.163.344.734.148.77.22.77.38 0 .188-.205.305-.482.305-.525 0-.547-.276-.58-.589H35.13v.018c.08.896.548 1.457 2.02 1.457zM9.894 24.141h-2s-.816 1.293-.906 1.494c-.124-.273-1.018-1.494-1.018-1.494H4l1.998 2.514-1.996 2.834h2.015l.46-.843c.162-.256.308-.521.437-.794.123.296.214.465.404.77l.536.867h2.04L7.92 26.655l1.974-2.514zm4 .33c-.379-.25-.791-.33-1.69-.33h-2.31v5.348h1.74v-1.646h.982c.726 0 1.18-.152 1.534-.49.355-.345.545-.795.545-1.317 0-.674-.29-1.236-.8-1.566zm-1.586 2.111h-.674v-1.124h.641c.495 0 .726.185.726.57 0 .385-.206.563-.693.554z" fill="#fff"/><path d="M17.47 24c-1.707 0-2.829 1.092-2.829 2.749s1.13 2.74 2.813 2.74c1.65 0 2.763-1.091 2.763-2.732 0-1.642-1.105-2.757-2.746-2.757zm-.016 4.202c-.7 0-1.056-.543-1.056-1.477 0-.887.372-1.437 1.048-1.437.668 0 1.023.518 1.023 1.398 0 .99-.33 1.516-1.015 1.516z" fill="#fff"/></svg>