<!-- by TradingView --><svg width="56" height="56" xmlns="http://www.w3.org/2000/svg"><path fill="url(#paint0_linear)" d="M0 0h56v56H0z"/><path d="M5.984 31.546H4.1L9.651 24h1.906l-5.573 7.546zm2.12-2.281l1.614 2.281h1.895l-2.544-3.588-.965 1.307z" fill="#fff"/><path d="M7.926 26.346l.93 1.312-.965 1.306-.927-1.31.962-1.308zm-.214-.301L6.262 24H4.38l2.372 3.352.961-1.307zm7.546 5.635c-.676 0-1.23-.275-1.661-.825V34H12v-8h1.597v.68c.424-.543.977-.814 1.66-.814.707 0 1.279.253 1.717.758.446.498.67 1.348.67 2.225s-.224 1.568-.67 2.073c-.438.505-1.01.758-1.716.758zm-.446-1.26c.409 0 .736-.145.98-.434.254-.29.38-.67.38-1.137 0-.461-.127-.999-.38-1.288-.244-.29-.571-.435-.98-.435-.23 0-.46.06-.691.178a1.42 1.42 0 00-.524.435v2.068c.119.171.293.316.524.435.238.119.468.178.69.178zM20 31.546h-1.416V26H20v.736c.396-.5 1.177-.87 1.812-.87v1.382c-.585-.135-1.474.062-1.812.58v3.718zm5.227.134c-1.731 0-2.876-1.295-2.876-2.994 0-.795.26-1.464.78-2.006.528-.543 1.197-.814 2.007-.814.802 0 1.452.275 1.95.825.498.543.747 1.256.747 2.14v.312h-4.002c.108.857.677 1.411 1.55 1.411.495 0 1.082-.179 1.438-.535l.624.914c-.542.498-1.282.747-2.218.747zm1.237-3.495a1.349 1.349 0 00-.368-.825c-.215-.245-.535-.368-.958-.368-.402 0-.714.123-.937.368a1.427 1.427 0 00-.39.825h2.653zm4.333 3.495a4.1 4.1 0 01-1.349-.223 3.011 3.011 0 01-1.058-.613l.613-.992c.208.193.49.364.847.513a2.65 2.65 0 001.014.223c.605 0 .903-.23.903-.58 0-.63-1.173-.729-1.605-.842-.84-.227-1.594-.649-1.594-1.605 0-.476.197-.877.59-1.204.394-.327.933-.49 1.617-.49.832 0 1.557.244 2.174.735l-.569.97a1.984 1.984 0 00-.691-.446 2.302 2.302 0 00-.903-.178c-.322 0-.847.124-.847.535 0 .235.345.393.825.468.238.037.494.096.769.178.94.254 1.594.757 1.594 1.823 0 .506-.208.922-.624 1.249-.41.32-.977.479-1.706.479zm6.048 0c-1.323 0-2.37-.394-3.143-1.181l.858-1.204c.639.668 1.427 1.003 2.363 1.003.409 0 .724-.078.947-.234.23-.164.346-.36.346-.591 0-.2-.108-.368-.323-.502a2.199 2.199 0 00-.792-.29 10.323 10.323 0 01-2.062-.635 1.946 1.946 0 01-.791-.669c-.208-.304-.312-.676-.312-1.114 0-.64.256-1.174.769-1.605.513-.439 1.196-.658 2.05-.658 1.182 0 2.148.346 2.899 1.037l-.88 1.159c-.588-.543-1.309-.814-2.163-.814-.334 0-.595.067-.78.2a.638.638 0 00-.28.547c0 .178.105.33.313.457.216.119.48.208.791.268.32.059.662.148 1.026.267a7.18 7.18 0 011.025.39c.32.141.584.368.792.68.215.305.323.673.323 1.104 0 .713-.256 1.289-.769 1.727-.505.439-1.241.658-2.207.658zm7.085 0c-.676 0-1.23-.275-1.661-.825V34h-1.416v-8h1.416v.68c.424-.543.977-.814 1.66-.814.707 0 1.279.253 1.717.758.446.498.67 1.186.67 2.062 0 .877-.224 1.73-.67 2.236-.438.505-1.01.758-1.716.758zm-.446-1.26c.409 0 .736-.145.98-.434.254-.29.38-.832.38-1.3 0-.46-.127-.836-.38-1.125-.244-.29-.571-.435-.98-.435-.23 0-.46.06-.691.178a1.42 1.42 0 00-.524.435v2.068c.119.171.294.316.524.435.238.119.468.178.691.178zM52 31.546h-1.416v-.557c-.386.46-.955.691-1.705.691-.483 0-.918-.156-1.304-.468-.38-.32-.569-.92-.569-1.478 0-.58.186-1.014.558-1.304.379-.29.817-.435 1.315-.435.765 0 1.334.22 1.705.658v-.725a.783.783 0 00-.323-.657c-.215-.164-.501-.245-.858-.245-.587 0-1.111.211-1.572.635l-.535-.948c.64-.564 1.423-.847 2.352-.847.691 0 1.256.16 1.694.48.439.32.658.84.658 1.56v3.64zm-2.553-.825c.528 0 .907-.156 1.137-.468v-.831c-.23-.312-.609-.468-1.137-.468-.487 0-1.014.268-1.014.814 0 .616.423.953 1.014.953z" fill="#fff"/><defs><linearGradient id="paint0_linear" x1="10.418" y1="9.712" x2="68.147" y2="76.017" gradientUnits="userSpaceOnUse"><stop stop-color="#1A1E21"/><stop offset="1" stop-color="#06060A"/></linearGradient></defs></svg>