<!-- by TradingView --><svg width="56" height="56" xmlns="http://www.w3.org/2000/svg"><path fill="#08090D" d="M0 0h56v56H0z"/><path d="M11.718 30.998h-3.12v-.361c.155-.01.955-.028.955-.29a.688.688 0 00-.042-.23l-.591-1.64H6.296c-.098.238-.21.465-.274.641-.114.337-.285.708-.285 1.07 0 .397 1.002.436 1.263.449v.361H4v-.361c.595-.045 1.005-.343 1.235-.892.838-2.018 1.644-4.05 2.46-6.078h.422l2.497 6.236c.186.466.61.714 1.104.734v.361zM8.73 28l-1.167-2.759L6.481 28H8.73zM14.743 30.998h-2.539v-.356c.372.015.796-.037.796-.5V24.21c0-.6-.508-.737-1-.77v-.326l1.893-.117.107.077v7.008c0 .437.375.555.743.581v.336zM17.837 30.998h-2.54v-.336c.368-.03.703-.043.703-.52V24.21c0-.6-.508-.737-1-.77v-.326l1.867-.117.133.077v7.008c0 .437.469.555.837.581v.336zM23.008 29.816c-.218.401-.51.72-.877.958-.95.617-2.407.44-3.14-.438-.846-1.013-.804-2.694.026-3.699.642-.772 1.802-1.024 2.724-.631.993.423 1.14 1.468 1.14 2.422h-3.447c0 .33.032.529.095.797.263 1.054 1.433 1.764 2.45 1.136.228-.142.448-.397.66-.764l.369.22zM21.84 28c0-.74-.135-1.785-1.087-1.785-.955 0-1.288.984-1.32 1.785h2.407zM28.07 30.479c.14.129.252.275.333.438.08.163.121.365.121.606s-.055.467-.164.677a1.53 1.53 0 01-.496.556c-.236.16-.517.283-.844.372-.328.088-.732.132-1.215.132-.788 0-1.377-.112-1.768-.336-.39-.22-.586-.545-.586-.973 0-.346.14-.62.422-.82.282-.2.641-.31 1.077-.326v-.072a3.774 3.774 0 01-.327-.112 1.355 1.355 0 01-.29-.163.89.89 0 01-.222-.25.719.719 0 01-.084-.361c0-.18.065-.345.195-.494.134-.153.334-.284.602-.393v-.076c-.338-.153-.6-.348-.787-.586a1.328 1.328 0 01-.28-.835c0-.476.183-.866.55-1.172.369-.306.84-.459 1.414-.459.158 0 .315.016.47.046.158.03.318.075.48.122h1.676v.485h-1.085v.03a1.534 1.534 0 01.385 1.004c0 .441-.186.815-.559 1.12-.37.306-.8.459-1.293.459h-.639a.833.833 0 00-.253.148.354.354 0 00-.132.29c0 .126.037.223.11.29a.602.602 0 00.27.133c.102.027.22.044.354.05.137.008.278.013.422.016.155.004.366.014.633.03.271.018.463.028.576.031a1.565 1.565 0 01.934.392zm-1.425-2.98c0-.398-.085-.714-.253-.948a.805.805 0 00-.703-.357.853.853 0 00-.427.102.767.767 0 00-.285.28 1.2 1.2 0 00-.153.408 2.72 2.72 0 00-.043.484c0 .377.085.684.254.922.172.238.394.357.665.357.303 0 .535-.118.697-.352.165-.238.248-.537.248-.897zm1.013 4.212a.761.761 0 00-.137-.468.7.7 0 00-.417-.25 9.367 9.367 0 00-.607-.046 19.506 19.506 0 00-1.066-.025c-.38.071-.651.19-.813.356a.918.918 0 00-.238.652c0 .12.027.233.08.342a.814.814 0 00.274.3c.123.089.288.16.496.214.208.058.461.087.76.087.518 0 .924-.097 1.22-.29.299-.19.448-.481.448-.872zM35 30.998h-2.555v-.336c.375-.031.803-.03.803-.52V27.56c0-.539-.291-1.116-.898-1.116-.558 0-1.064.287-1.351.759v2.888c0 .443.438.546.802.571v.336h-2.555v-.336c.38-.032.754-.046.754-.52v-5.948c0-.626-.489-.704-1.002-.74v-.325l1.927-.117.074.076v3.605h.02c.346-.333.694-.632 1.162-.774 1.135-.337 2.059.366 2.059 1.57v2.613c0 .432.397.537.76.56v.336zM40.082 30.907a6.297 6.297 0 01-.438.137 1.458 1.458 0 01-.422.056c-.275 0-.495-.061-.66-.183a.868.868 0 01-.312-.545h-.031a2.55 2.55 0 01-.74.56c-.26.129-.575.194-.944.194-.39 0-.713-.116-.966-.347-.25-.23-.375-.533-.375-.907 0-.193.028-.366.084-.52.057-.152.141-.29.254-.412.088-.102.204-.192.348-.27.145-.082.28-.146.407-.194.158-.057.478-.164.96-.32.486-.157.813-.279.982-.367v-.505c0-.044-.01-.129-.031-.254a1 1 0 00-.423-.683c-.126-.095-.308-.143-.543-.143a1.25 1.25 0 00-.454.082.802.802 0 00-.29.163c0 .068.015.168.047.3.035.133.053.255.053.367 0 .12-.057.228-.17.326-.108.099-.261.148-.459.148-.176 0-.306-.06-.39-.178a.714.714 0 01.047-.856c.116-.143.266-.27.449-.382.158-.095.35-.175.575-.24a2.28 2.28 0 01.66-.102c.296 0 .553.02.77.062.223.037.423.12.603.25.18.125.315.296.406.514.095.214.143.49.143.83 0 .486-.006.917-.016 1.294-.01.374-.016.783-.016 1.228 0 .132.023.238.069.316a.59.59 0 00.221.198c.053.031.136.048.248.051.117.004.234.006.354.006v.326zm-1.842-2.69c-.3.085-.562.168-.787.25a3.235 3.235 0 00-.628.305 1.393 1.393 0 00-.417.413 1.002 1.002 0 00-.153.56c0 .282.076.489.227.621a.87.87 0 00.586.2c.25 0 .47-.059.66-.174.19-.119.35-.258.48-.418l.032-1.757zM46.262 30.998h-2.55v-.336c.081-.007.17-.014.264-.02.099-.007.18-.02.243-.041a.37.37 0 00.216-.158.555.555 0 00.074-.3v-2.584c0-.356-.088-.631-.264-.825a.816.816 0 00-.633-.29c-.187 0-.357.029-.512.086a1.762 1.762 0 00-.412.204c-.116.078-.21.163-.28.255-.066.088-.116.16-.147.214v2.888c0 .116.024.211.073.286.05.074.124.132.222.173.074.034.153.06.238.076.088.017.114.03.206.036v.336h-2.487v-.336l.248-.02a.999.999 0 00.227-.041.37.37 0 00.217-.158.555.555 0 00.074-.3V27.04a.64.64 0 00-.08-.316.614.614 0 00-.21-.24.699.699 0 00-.238-.086 1.929 1.929 0 00-.296-.04v-.332l1.732-.112.074.071v.708h.026c.084-.081.19-.178.317-.29a2.63 2.63 0 01.359-.28c.13-.082.285-.15.464-.204.18-.054.382-.082.607-.082.5 0 .87.152 1.109.454.243.299.364.698.364 1.197v2.614c0 .119.021.215.063.29a.421.421 0 00.217.168c.084.034.157.058.216.071.064.014.15.024.259.031v.336zM46.505 32.639c0-.17.047-.31.142-.418a.48.48 0 01.364-.158c.113 0 .21.02.29.061.082.04.154.093.217.158.053.051.11.12.17.209.06.088.107.161.142.219.176-.092.385-.331.628-.718.246-.387.424-.727.533-1.02a267.81 267.81 0 00-1.758-4.13c-.134-.314-.491-.482-.813-.53V26h2.376v.332a1.673 1.673 0 00-.38.066c-.148.037-.222.081-.222.132 0 .02.007.055.021.102l.058.148c.398 1 .853 1.975 1.251 2.975.363-.832.73-1.663 1.067-2.506.024-.065.06-.153.105-.265a.829.829 0 00.069-.296c0-.088-.081-.17-.243-.244A1.774 1.774 0 0050 26.3V26h2v.29a1.303 1.303 0 00-.417.18.916.916 0 00-.385.422c-.633 1.415-1.205 2.859-1.858 4.264-.222.476-.421.846-.597 1.11a3.263 3.263 0 01-.507.632c-.162.143-.31.238-.443.286-.13.05-.266.076-.407.076-.274 0-.49-.063-.649-.188-.155-.126-.232-.27-.232-.433z" fill="#fff"/></svg>