<!-- by TradingView --><svg xmlns="http://www.w3.org/2000/svg" width="56" height="56"><path fill="#FE8103" d="M0 0h56v56H0z"/><path d="M5.45 21.01c17.53-1.25 27.82-1.26 45.35 0a1.75 1.75 0 011.6 2.05l-2.08 11.83a1.76 1.76 0 01-1.67 1.45 516.4 516.4 0 01-41.18 0 1.75 1.75 0 01-1.67-1.46L3.84 23.04a1.75 1.75 0 011.61-2.03zm45.24 1.5c-17.46-1.26-27.68-1.25-45.13 0a.25.25 0 00-.24.29l1.96 11.83c.01.12.12.2.24.21 15.9.56 25.17.53 41.08 0 .12 0 .22-.1.24-.2l2.08-11.84a.25.25 0 00-.23-.3z"/><path fill-rule="evenodd" d="M12.84 24h-2l1.58 6v3h2v-3l1.59-6h-2l-.59 2.22-.58-2.22zM19 24h-2v9h4v-2h-2v-1.5h2v-2h-2V26h2v-2h-2zm3 0h2v7h2v2h-4v-9zm7 0h-2v9h4v-2h-2v-7zm8.48 0h1.9l.63 3.62.64-3.62h2.06l.66 3.78.67-3.78h1.84l-1.59 9h-1.84l-.7-3.95-.69 3.95h-2l-1.58-9zM37 28.5c0 3.17-.88 4.5-2.75 4.5s-2.75-1.24-2.75-4.5c0-3.02.96-4.5 2.75-4.5 1.8 0 2.75 1.33 2.75 4.5zm-2 0c0 1.76-.24 2.5-.75 2.5-.5 0-.75-.7-.75-2.5 0-1.68.26-2.5.75-2.5s.75.74.75 2.5z"/></svg>