<!-- by TradingView --><svg width="56" height="56" xmlns="http://www.w3.org/2000/svg"><path fill="#D32323" d="M0 0h56v56H0z"/><path d="M39.737 32.364c-.491-.362-.572-.417-3.527-1.365 2.56-.613 2.67-.679 3.123-.97a3.309 3.309 0 001.496-3.022l-.01-.133c-.208-1.956-2.795-5.647-4.537-6.476-1.149-.534-2.426-.46-3.432.2-.474.305-.538.347-2.483 2.933-.19-3.022-.555-8.352-.644-8.85l-.02-.115-.028-.111c-.333-1.171-1.276-2.05-2.524-2.355-2.084-.506-7.596 1.007-9.075 2.492-.868.882-1.202 2.07-.902 3.185l.06.221.103.206c.142.284.514.886 3.713 5.776l1.18 1.81c-2.864-1.142-2.978-1.146-3.571-1.15-1.129-.049-2.26.54-2.941 1.58l-.013.019c-.351.551-.544 1.936-.679 2.722 0 0-.232 5.505.692 6.513 1.015 1.108 4.99.466 4.99.466.528.271-3.018 3.435-1.737 4.67 1.28 1.236 2.468 1.792 2.468 1.792 1.865 1.022 4.59 1.797 6.048 1.553 1.256-.217 2.246-1.005 2.664-2.11l.022-.055c.177-.502.206-.596.218-3.434 1.598 2.515 1.681 2.581 2.13 2.926.964.732 2.232.894 3.402.435 1.88-.736 4.751-4.291 5.04-6.243a3.66 3.66 0 00.037-.51 3.262 3.262 0 00-1.263-2.6zm-3.811 9.353h-.003l-.009.004.012-.004z" fill="#fff"/><path d="M17.764 27.491c-.455.71-.647 2.948-.489 4.433.056.49.147.898.28 1.142.181.337.487.538.836.55.224.011.363-.025 4.569-1.343 0 0 1.87-.58 1.877-.585.466-.115.78-.533.81-1.066.03-.546-.26-1.03-.737-1.204l-1.32-.523c-4.52-1.816-4.724-1.888-4.951-1.89-.349-.014-.659.157-.875.486zM27.875 41.022c.073-.207.082-.348.095-4.653l.011-1.92c.03-.467-.28-.892-.786-1.081-.522-.196-1.084-.076-1.4.307 0 0-.923 1.067-.925 1.067-3.166 3.623-3.299 3.79-3.376 4.005a.858.858 0 00-.05.395c.018.192.108.382.256.559.734.85 4.255 2.111 5.38 1.924.39-.069.675-.283.795-.603zM35.018 39.524c1.062-.413 3.377-3.283 3.54-4.387.057-.384-.067-.715-.338-.927-.179-.13-.314-.181-4.517-1.526 0 0-1.844-.593-1.868-.604-.447-.169-.956-.013-1.298.399-.357.422-.41.98-.125 1.4l.741 1.178c2.495 3.947 2.686 4.227 2.866 4.363.278.213.632.248 1 .104zM32.846 29.361c4.777-1.128 4.961-1.187 5.15-1.307.29-.19.434-.508.41-.894 0-.013.002-.026 0-.04-.123-1.142-2.178-4.114-3.19-4.597-.36-.168-.719-.156-1.017.038-.184.117-.32.294-2.878 3.702 0 0-1.155 1.533-1.169 1.548-.304.36-.31.878-.011 1.321.308.46.829.683 1.307.554l-.024.04c.235-.087.656-.188 1.422-.365zM28.054 25.519c-.082-1.845-.652-10.057-.719-10.437-.096-.345-.373-.591-.77-.689-1.22-.294-5.88.978-6.743 1.846-.278.282-.38.63-.297.937.136.272 5.91 9.123 5.91 9.123.854 1.348 1.55 1.14 1.779 1.069.226-.068.919-.277.84-1.85z" fill="#D32323"/></svg>