<!-- by TradingView --><svg width="56" height="56" xmlns="http://www.w3.org/2000/svg"><path fill="url(#paint0_linear)" d="M0 0h56v56H0z"/><path d="M23.55 23.76l-2.969-3.148-.727.686 3.201 3.395v3.313h1v-3.318l3.093-3.396-.74-.674-2.859 3.141zM28.057 29.015h8v1h-3.545v6h-1v-6h-3.455v-1z" fill="#fff"/><path d="M24.186 32.481l2.87 2.87-.664.664-2.87-2.87-2.87 2.87-.664-.664 2.87-2.87-2.87-2.87.664-.664 2.87 2.87 2.87-2.87.664.664-2.87 2.87z" fill="#fff"/><path fill-rule="evenodd" d="M30.375 26.5a3 3 0 004.682-2.484h1a4 4 0 11-1.146-2.803l-.002.002.025.018.354.353-4.913 4.913zm-1.318-2.485a3 3 0 014.794-2.404l-4.2 4.197a2.987 2.987 0 01-.594-1.793z" fill="#fff"/><path fill-rule="evenodd" d="M28 44c8.837 0 16-7.163 16-16s-7.163-16-16-16-16 7.163-16 16 7.163 16 16 16zm0 1c9.389 0 17-7.611 17-17s-7.611-17-17-17-17 7.611-17 17 7.611 17 17 17z" fill="#fff"/><defs><linearGradient id="paint0_linear" x1="10.418" y1="9.712" x2="68.147" y2="76.017" gradientUnits="userSpaceOnUse"><stop stop-color="#1A1E21"/><stop offset="1" stop-color="#06060A"/></linearGradient></defs></svg>