<!-- by TradingView --><svg width="56" height="56" xmlns="http://www.w3.org/2000/svg"><path fill="#0070B8" d="M0 0h56v56H0z"/><path d="M52 22H39.793l.207.362v11.313l-.207.325 2.546-.015 2.596.008.065-.34V29h5.543l.457.2v-2.343l-.563.143H45v-3h6.682l.318.238V22zM9 22H4l.342.266L9 29.414v4.261L8.563 34H14.4L14 33.675v-4.26l4.694-7.075L19 22h-5l-2.5 4.525L9 22z" fill="#fff"/><path d="M22.785 22h4.759c4.571.002 5.978.08 6.52.251.696.218 1.548.76 1.96 1.248.533.632.677 1.196.636 2.466-.021.662-.188 1.482-.516 1.935-.437.604-1.105 1.252-2.245 1.642-.478.115-1.854.44-4.113.495H28v3.586l.187.377h-5.473l.283-.436v-11.04L22.785 22zm5.947 1.824H28v4.188h1.078c.58 0 1.23-.031 1.443-.066.516-.086 1.071-.36 1.266-.628.472-.646.426-1.493.248-2.231-.096-.398-.506-.832-.955-1.005-.404-.155-1.336-.258-2.348-.258z" fill="#fff"/></svg>