<!-- by TradingView --><svg width="56" height="56" xmlns="http://www.w3.org/2000/svg"><path fill="#F0F3FA" d="M0 0h56v56H0z"/><path d="M32.127 12.537L21 30.802v11.59a15.936 15.936 0 007 1.609V32.855l-3.678 1.661-.776-3.232L28.384 29H32v14.497a15.87 15.87 0 001.807-.583A12.02 12.02 0 0133 38.53c0-5.263 3.229-9.53 7.212-9.53 1.322 0 2.56.47 3.625 1.29.108-.748.163-1.512.163-2.29 0-7.41-5.037-13.643-11.873-15.463z" fill="#23AD4E"/><path d="M42.5 34.772C41.964 33.102 41.045 32 40 32c-1.657 0-3 2.774-3 6.196 0 1.01.117 1.965.325 2.808a16.065 16.065 0 005.176-6.232z" fill="#23AD4E"/><path d="M15.057 18.587l3.466 7.483 8.41-14.035c-4.879.316-9.162 2.824-11.876 6.552zM16 38.591v-7.788l-3.474-6.89A16.049 16.049 0 0012 28c0 4.061 1.51 7.769 4 10.59z" fill="#FBAE42"/></svg>