<!-- by TradingView --><svg xmlns="http://www.w3.org/2000/svg" width="56" height="56"><path fill="url(#a1w3t5qun)" d="M0 0h56v56H0z"/><path fill-rule="evenodd" d="M14 13h1v7h2v1h-3v-8zm6 0h-1v8h1v-8zm16 0h-1v8h1v-8zm-.5 11v8h-1v-8h1zm-9.25 12.75a1.75 1.75 0 113.5 0v4.5a1.75 1.75 0 11-3.5 0v-4.5zm1 0a.75.75 0 111.5 0v4.5a.75.75 0 01-1.5 0v-4.5zM40.6 13h-2.1v8h2.1c.77 0 1.4-.63 1.4-1.4v-5.2c0-.77-.63-1.4-1.4-1.4zm-.2 1h-.9v6h.9a.6.6 0 00.6-.6v-4.8a.6.6 0 00-.6-.6zM28 24h2.1c.77 0 1.4.63 1.4 1.4v5.2c0 .77-.63 1.4-1.4 1.4H28v-8zm1 1h.9c.33 0 .6.27.6.6v4.8a.6.6 0 01-.6.6H29v-6zm9.5 10h2.1c.77 0 1.4.63 1.4 1.4v2.2c0 .77-.63 1.4-1.4 1.4h-1.1v3h-1v-8zm1 1h.9c.33 0 .6.27.6.6v1.8a.6.6 0 01-.6.6h-.9v-3zM29 13h1v6.4c0 .33.27.6.6.6h.3a.6.6 0 00.6-.6V13h1v6.6c0 .77-.63 1.4-1.4 1.4h-.7a1.4 1.4 0 01-1.4-1.4V13zm4.5 22h-1v6.6c0 .77.63 1.4 1.4 1.4h.7c.77 0 1.4-.63 1.4-1.4V35h-1v6.4a.6.6 0 01-.6.6h-.3a.6.6 0 01-.6-.6V35zm-18.1 0c-.77 0-1.4.63-1.4 1.4v5.2c0 .77.63 1.4 1.4 1.4h.7c.77 0 1.4-.63 1.4-1.4V39H16v1h.5v1.4a.6.6 0 01-.6.6h-.3a.6.6 0 01-.6-.6v-4.8c0-.33.27-.6.6-.6h.3c.33 0 .6.27.6.6V38h1v-1.6c0-.77-.63-1.4-1.4-1.4h-.7zM22 24h3v1h-2v2.5h2v1h-2V31h2v1h-3v-8zm1-9.6c0-.77.63-1.4 1.4-1.4h.7c.77 0 1.4.63 1.4 1.4v5.2c0 .14-.02.27-.06.4H27v1h-2.6a1.4 1.4 0 01-1.4-1.4v-5.2zm1.74 5.6h.16a.6.6 0 00.6-.6v-4.8a.6.6 0 00-.6-.6h-.3a.6.6 0 00-.6.6v4.8c0 .33.27.6.6.6h.14zM14 32v-8h1.54l.98 6.17.93-6.17H19v8h-1v-6.09L16.98 32h-.96L15 25.91V32h-1zm24 0l1.33-8h1.28L42 32h-1.04l-.22-1.4h-1.48l-.23 1.4H38zm1.37-2.3l.63-4.2.6 4.2h-1.23zM20 35h2.1c.77 0 1.4.63 1.4 1.4v1.48a1.4 1.4 0 01-.82 1.27c.7.13.82.6.82 1.12v2.71h-1v-2.61c0-.64-.44-.74-.74-.74H21V43h-1v-8zm1 1h.9c.33 0 .6.27.6.6v1.38a.6.6 0 01-.6.6H21V36z" fill="#fff"/><defs><linearGradient id="a1w3t5qun" x1="10.42" y1="9.71" x2="68.15" y2="76.02" gradientUnits="userSpaceOnUse"><stop stop-color="#1A1E21"/><stop offset="1" stop-color="#06060A"/></linearGradient></defs></svg>