<!-- by TradingView --><svg width="56" height="56" fill="none" xmlns="http://www.w3.org/2000/svg"><path fill="url(#paint0_linear_3186)" d="M0 0h56v56H0z"/><path fill-rule="evenodd" clip-rule="evenodd" d="M18.766 16.379a.499.499 0 01.483-.379h18.053c8.366 0 10.312 8.296 7.477 14.647C42.29 36.22 37.754 40 30.324 40H13.517a.5.5 0 01-.483-.621L15.37 30H8.5a.5.5 0 01-.479-.644l1.2-4A.5.5 0 019.699 25h6.918l2.149-8.621zM23.844 21h10.328c5.124 0 5.946 3.151 5.232 6.493C38.47 31.872 35.807 35 30.147 35h-9.792l3.49-14z" fill="#fff"/><defs><linearGradient id="paint0_linear_3186" x1="51" y1="41.5" x2="7.5" y2="12" gradientUnits="userSpaceOnUse"><stop stop-color="#4B2C87"/><stop offset=".407" stop-color="#6C35A4"/><stop offset=".989" stop-color="#BE42CE"/></linearGradient></defs></svg>