<!-- by TradingView --><svg xmlns="http://www.w3.org/2000/svg" width="56" height="56"><path fill="#E70036" d="M0 0h56v56H0z"/><path fill-rule="evenodd" d="M7 21h2v3h3a3 3 0 013 3v7h-2v-6.5c0-.83-.67-1.5-1.5-1.5H9v8H7V21zm17 12a1 1 0 01-1 1h-4a3 3 0 01-3-3v-7h8v9zm-2-1h-2.5a1.5 1.5 0 01-1.5-1.5V24h4v8zm17-8h4a3 3 0 013 3v7h-2v-7a1 1 0 00-1-1h-2v8h-2v-8h-3v8h-2v-9a1 1 0 011-1h4zm-9 0h-4v2h4a1 1 0 011 1v.5h-3a3 3 0 00-3 3v.5a3 3 0 003 3h4a1 1 0 001-1v-6a3 3 0 00-3-3zm-2.5 5.5a.5.5 0 00-.5.5v1.5c0 .28.22.5.5.5H31v-2.5h-3.5zM47 21h2v2h-2v-2zm2 3h-2v10h2V24z" fill="#fff"/></svg>