<!-- by TradingView --><svg width="56" height="56" xmlns="http://www.w3.org/2000/svg"><path fill="#500269" d="M0 0h56v56H0z"/><path d="M13.39 25.06c-2.04.405-3.33 2.687-3.33 4.814 0 1.577.697 3.096 1.96 3.847 1.237.736 2.932.778 4.221.107 1.018-.533 1.722-1.428 2.036-2.585.16-.602.16-2.591 0-3.194-.389-1.439-1.423-2.505-2.835-2.904-.517-.15-1.524-.187-2.052-.085zm1.69 1.13a2.887 2.887 0 011.753 1.486c.9 1.834.053 4.889-1.79 5.438-.491.149-1.28.128-1.765-.043-1.241-.437-2.004-1.79-2.004-3.197 0-2.125 1.488-4.362 3.806-3.685zM22.556 25.06c-.932.18-1.588.527-2.243 1.177-.533.528-.81 1.244-1.045 1.98-.106.346-.122.51-.122 1.225 0 .703.016 1.254.122 1.616.203.698.56 1.539 1.077 2.056.746.757 1.647 1.14 2.803 1.21.965.058 2.62-.396 3.495-.801L27 33.33v-4.168l-.464-.09c-.26-.054-.472.262-.536.246v3.495l-.295.135c-.432.186-1.683.293-2.27.293-.479-.006-.628-.027-1.022-.166-1.285-.447-2.068-2.206-2.068-3.634 0-.629.106-1.323.362-1.814a2.92 2.92 0 012.569-1.545c.533 0 .885.074 1.45.32.612.271 1.13.218 1.47-.15l.123-.133-.299-.272c-.602-.533-1.39-.804-2.451-.836-.41-.016-.773 0-1.012.048zM4.16 25.184c.048.314.202.483.426.632l.267.184H8.47l-2.19 3.264C5.077 30.895 4 33.09 4 33.142c0 .272.25.629.544.783.117.06.612.075 2.765.075h2.622l-.032-.218c-.042-.304-.255-.523-.527-.657-.23-.106-.296-.125-2.044-.125H5.492s1.077-2.27 2.281-3.912c2.02-2.755 2.19-3.195 2.159-3.35a.943.943 0 00-.464-.629c-.192-.101-.32-.106-2.771-.106H4.128l.032.18zM28 27v2c.005 0 .122.277.372.32.25.042.575 0 .628 0V26h1.5c.678.002 1.232-.006 1.5 0 .551.013.975-.187.975-.855v-.133L28 25.002V27zM34.112 25.625C34.05 25.752 34 26 34 26.5v7.421h.16c.341 0 .712-.08.84-.42v-3.816-2.899a70.72 70.72 0 012.505 3.352c2.334 3.352 2.274 4.049 2.759 3.862a1.2 1.2 0 00.736-.906v-8.082l-.24.026a.99.99 0 00-.76.533v5.907s-1.195-1.489-2.367-3.178c-2.465-2.99-2.529-3.278-2.705-3.288-.466-.025-.628.228-.816.613zM42 33.227c.281.412.484.773 1 .773v-8.384c-.176-.298-.42-.555-.728-.587L42 25.003v8.224zM44.636 25.038c-.096.043-.176.102-.176.134 0 .031.842 1.119 1.572 2.131.735 1.007 1.332 1.86 1.332 1.892 0 0-2.96 4.49-2.96 4.581 0 .09.356.224.596.224.261 0 .58-.133.815-.33.263-.217 2.306-3.446 2.306-3.446l2.59 3.52c.23.235.88.312 1.161.128.128-.08.165-.128.128-.176-.218-.271-3.144-4.469-3.144-4.5 0-.022.39-.577.869-1.232.474-.655 1.219-1.704 1.49-2.082l.491-.677c-.222-.146-.395-.214-.672-.202-.58.032-.84.355-1.927 1.847-.523.72-.965 1.311-.986 1.316-.022.006-.421-.522-.89-1.172a32.733 32.733 0 00-1.253-1.604c-.32-.368-.938-.528-1.343-.352zM28 34h5.228c0-.325-.29-.737-.6-.886-.207-.101-.33-.107-1.934-.107H29v-3.112l-.379.022a18.85 18.85 0 01-.56-.064l-.061-.03V34z" fill="#fff"/><path d="M25.141 28.307c-2.046-.235-3.268.64-3.65 1.146-.1.133-.08.32.213.16.493-.27 1.199-.454 1.918-.454.576 0 1.706.294 2.585.453.506.093 1.572.38 3.277.427 1.972.053 3.438-1.599 3.518-1.679.08-.08.08-.293-.08-.266-.205.034-.96 1.065-3.437.959-1.571-.068-1.786-.453-4.344-.746z" fill="#61BD00"/></svg>