<!-- by TradingView --><svg xmlns="http://www.w3.org/2000/svg" width="56" height="56"><path fill="url(#anw2rqfyw)" d="M0 0h56v56H0z"/><path fill-rule="evenodd" d="M46 15.5a.5.5 0 11-1 0 .5.5 0 011 0zM43 19a1 1 0 100-2 1 1 0 000 2zm4 2.5a1.5 1.5 0 11-3 0 1.5 1.5 0 013 0zM13.4 27c.1 0 .14.14.06.19L6.53 31.2c-.42.25-.53.57-.53.96 0 .46.41.83.95.83h10.13a1 1 0 00.92-.93 1 1 0 00-.92-1.07H11a.1.1 0 01-.06-.18l6.5-3.89c.37-.25.56-.57.56-.99 0-.44-.3-.94-.92-.94H6.84A1 1 0 006 26.03c0 .45.29.88.84.97h6.57zm6.6 5v-6s0-1 1-1 1 1 1 1v6s0 1-1 1-1-1-1-1zm15.64-6.72c.44.4.48 1.08.1 1.53l-5.16 5.9c-.35.4-.96.4-1.3 0l-5.02-5.9a1.1 1.1 0 01.11-1.53c.46-.4 1.13-.34 1.52.11l3.9 4.8c.04.05.1.07.16.07a.2.2 0 00.16-.07l4-4.82c.4-.45 1.08-.5 1.53-.1zM50 29c0 1.97-1.5 4-3.88 4H41c-2.53 0-4-2-4-4s1.75-4 4-4h5.12c2.5 0 3.88 2.04 3.88 4zm-2 0c0 .96-.6 2-2.23 2h-4.5C39.72 31 39 30 39 29c0-.98.74-2 2.27-2h4.5c1.54 0 2.23 1.05 2.23 2z" fill="#fff"/><defs><linearGradient id="anw2rqfyw" x1="51" y1="-11" x2="0" y2="69" gradientUnits="userSpaceOnUse"><stop offset=".31" stop-color="#56C3DF"/><stop offset=".72" stop-color="#9CCC9C"/></linearGradient></defs></svg>