<!-- by TradingView --><svg width="56" height="56" xmlns="http://www.w3.org/2000/svg"><path fill="#DC0605" d="M0 0h56v56H0z"/><path d="M34.362 13.117s2.066-.196 3.685.868c.586-.028 1.06.225 1.367.785.308.56.866 1.904.42 2.716-.14.168-.448-.504-.448-.504s-.223.813-.642 1.12c.056 1.681-.613 2.857-.809 3.25-.084.224-.028.42.056.644.084.224 1.2 4.172 1.145 5.489-.056 1.316-.726 2.885-1.257 3.416.112 1.092-.39 2.017-.642 2.465-.25.448-.809 2.128-.949 2.913-.14.784-.195 1.624-.028 1.876.168.252.922 1.036.866 1.428-.056.392-.866.84-1.256.84-.391 0-1.2-.251-1.396-.784-.195-.532-.223-1.456-.084-1.988.14-.532 1.089-4.425.53-6.722-1.367.616-3.656.589-3.656.589s-.39 2.044-.865 3.22c-.168.28-.14 2.185-.14 3.389 0 1.205.419 3.08.419 3.08s.586.42.502.953c-.084.532-.753.84-1.34.84-.586 0-1.367-.448-1.367-1.176s.111-2.38.055-3.585c-.055-1.204-.027-1.988-.223-2.745-.195-.756-.753-2.744-.81-4.285-.194 0-.39-.14-.39-.14s-.92 1.065-1.563 1.68c.084.42.307 1.177.307 1.345 0 .168.168.308.447.42.28.112 1.144.588 1.116 1.064-.028.477-1.117.56-2.066.14-.223-.111-1.032-2.828-1.144-3.192-.112-.365-.196-.56-.056-.869.14-.308.53-1.316.475-1.904-.056-.588-1.144-1.512-1.87-1.512-.559 0-1.412.855-2.038 1.344-.754.588-1.619 1.484-1.842 1.624-.224.14-1.982 3.333-2.317 4.257-.14.364-.419 2.185-1.898 2.129-.67-.056-1.284-.784.614-2.1.482-1.114 1.152-2.27 1.194-2.5.041-.232.544-3.11 1.381-5.84.838-2.73 2.073-4.033 2.303-4.222.189-.147.293-.231.105-.336-.189-.105-2.177-1.806-1.8-5.42.062-.42.25-.314.376.652s.9 3.235 2.617 3.949c.167.063 1.402-.882 7.704-1.344.042-1.114.21-2.29.21-2.29s-.44-.336-.503-1.008c-.21.336-.335.42-.607.378-.273-.042-.252-1.344-.189-2.269.063-.924 1.13-1.323 1.528-1.365.524-.273 1.089-.23 1.089-.23s.963-.98 3.684-.533z" fill="#fff"/></svg>