<!-- by TradingView --><svg width="56" height="56" xmlns="http://www.w3.org/2000/svg"><path fill="#0093D0" d="M0 0h56v56H0z"/><path d="M8 40h25.697L44 14H33.697L8 40z" fill="#fff"/><path d="M36.524 27.03c0-1.116-.742-2.009-2.285-2.009-1.023 0-2.225.873-2.225 3.085v3.288c.44-.304 1.062-.568 1.383-.568V27.76c0-1.177.842-1.522 1.223-1.522-.221.203-.361.446-.361.791 0 .63.5 1.137 1.122 1.137.642 0 1.123-.467 1.143-1.137zm-12.689 0c0-1.116.742-2.009 2.285-2.009 1.022 0 2.245.873 2.245 3.085v3.288c-.441-.304-1.062-.568-1.383-.568V27.76c0-1.177-.842-1.522-1.223-1.522.22.203.361.446.361.791a1.14 1.14 0 01-1.123 1.137c-.66 0-1.142-.467-1.162-1.137z" fill="#ED1B2F"/><path d="M30.19 34.621c2.565 0 3.146-2.171 3.226-2.74v-.73c-.801.203-1.503.629-1.984 1.278-.16-.75-.642-1.38-1.243-1.806a3.056 3.056 0 00-1.243 1.806c-.48-.649-1.182-1.075-1.984-1.278v.73c.06.569.641 2.74 3.227 2.74zm.18-11.508v.914c.441.06.822.365.963.73a2.83 2.83 0 00-1.143 1.522 2.83 2.83 0 00-1.143-1.522c.16-.365.521-.67.962-.73v-.914a.845.845 0 01-.641-.812.83.83 0 01.822-.832.82.82 0 01.822.832c0 .386-.28.731-.642.812z" fill="#ED1B2F"/><path d="M28.105 23.763v.954c1.123.223 1.925 1.42 1.925 2.537v3.085c-.522.304-1.043.934-1.203 1.441-.04-.04-.08-.102-.14-.142V27.66c0-1.198-.642-2.416-1.765-2.801 0 0 .36-.163.822-.163v-.954a.827.827 0 01-.642-.811c0-.467.361-.832.822-.832.462 0 .822.365.822.832 0 .406-.28.73-.641.832zm4.53 0v.933a2.2 2.2 0 01.822.163c-1.142.406-1.764 1.624-1.764 2.8v3.979l-.14.142c-.16-.528-.682-1.157-1.203-1.441v-3.085c0-1.117.802-2.314 1.924-2.537v-.974a.827.827 0 01-.641-.812c0-.467.36-.832.822-.832.461 0 .822.365.822.832a.81.81 0 01-.642.832z" fill="#ED1B2F"/></svg>