<!-- by TradingView --><svg width="56" height="56" xmlns="http://www.w3.org/2000/svg"><path fill="#008CFE" d="M0 0h56v56H0z"/><path d="M23.6 20H12l-2 3h7L8 33l-2 4h14.924l1.374-3H13l9-11 1.6-3z" fill="#fff"/><mask id="a" maskUnits="userSpaceOnUse" x="20" y="20" width="29" height="18"><path fill-rule="evenodd" d="M21.412 24l2.141-4h15.123l-.767 1.818c3.239-2.344 7.105-2.23 9.079-.614 2.602 2.129 2.591 7.92-.661 11.96-3.252 4.04-7.942 4.827-11.117 2.67-2.99-2.302-2.642-7.81.467-11.834h-3.59l-5.894 13h-5.28l5.864-13h-5.365zm22.383 5.825c-1.139 2.556-3.205 3.773-4.83 3.278-1.579-.608-1.868-3.45-.728-6.006 1.213-2.724 3.585-3.793 4.853-3.251 1.362.582 1.845 3.422.705 5.979z" fill="#fff"/></mask><g mask="url(#a)" fill="#fff"><path d="M19.781 20h30v1h-30zM19.781 22h30v1h-30zM19.781 24h30v1h-30zM19.781 26h30v1h-30zM19.781 28h30v1h-30zM19.781 30h30v1h-30zM19.781 32h30v1h-30zM19.781 34h30v1h-30zM19.781 36h30v1h-30z"/></g></svg>