<!-- by TradingView --><svg width="56" height="56" xmlns="http://www.w3.org/2000/svg"><path fill="#3D5266" d="M0 0h56v56H0z"/><path d="M29.5 33.004a4.5 4.5 0 114.5-4.5c0 2.485-2.026 4.5-4.5 4.5zm0-7.007c-1.38 0-2.5 1.127-2.5 2.507C27 29.884 28.11 31 29.5 31c1.38 0 2.5-1.116 2.5-2.496s-1.12-2.507-2.5-2.507zM17.302 24h1.416c.166 0 .282.156.282.342v4.765c0 1.092.055 1.893 1.04 1.893 1.44 0 1.96-.92 1.96-3.085v-3.573c0-.186.151-.342.317-.342h1.375c.166 0 .308.156.308.342v8.316c0 .186-.142.342-.308.342h-1.375c-.166 0-.317-.156-.317-.342v-.655c-.355.655-1.133.997-2.497.997C17.79 33 17 32.003 17 29.566v-5.224c.01-.175.136-.342.302-.342zM35.33 24h1.394c.166 0 .276.156.276.342V25s.072-.967 2.284-1c-.01 0 .01 0 0 0 .176 0 .362.178.333.375l-.157 1.41c0 .185-.137.327-.294.316h-.176c-.851 0-1.425.634-1.806 1.968A5.262 5.262 0 0037 29.532v3.136c0 .186-.31.328-.476.328h-1.203a.328.328 0 01-.32-.328v-8.327c.009-.175.163-.342.33-.342z" fill="#fff"/><path d="M47.995 28.333c-.043-1.117-.457-2.092-1.23-2.913-1.468-1.578-3.785-1.83-5.526-.811a4.532 4.532 0 00-2.153 4.786 4.525 4.525 0 003.34 3.527c2.784.438 3.628-1.117 3.574-1.095.022-.011 0 .832 0 .832 0 .187.178.341.363.341h1.295a.353.353 0 00.342-.34l-.005-4.327zM41 28.508c.01-1.38 1.164-2.508 2.546-2.508 1.338.011 2.465 1.161 2.454 2.53.01 1.413-1.203 2.492-2.53 2.47-1.35-.022-2.48-1.123-2.47-2.492zM16.959 32.77c-.44-.35-.597-.963-.806-1.697-.01-.055-.1-.077-.153-.077h-4.376c-.105 0-.157-.12-.095-.208L16 25.303c-.01.033.02-.022 0 0v-1.106c0 .022 0-.022 0 0 .01.011 0-.022 0 0-.042-.12-.119-.197-.39-.197H8.401a.407.407 0 00-.397.416v1.194c0 .23.177.39.397.39h4.205c.104 0 .157.146.094.234l-4.038 4.948c-.366.438-.743.865-.648 1.336.02.143.083.274.167.383a.253.253 0 00.199.099h8.504c.105-.01.157-.153.073-.23z" fill="#fff"/></svg>