<!-- by TradingView --><svg xmlns="http://www.w3.org/2000/svg" width="56" height="56"><path fill="#4C1767" d="M0 0h56v56H0z"/><path d="M33.1 24.53c-7.06-3.38-15.28-3.66-18.5-3.38l2.35 1.84a19.9 19.9 0 018.6.91C16.14 26.1 9.93 32.22 8 35h2.93C25.9 23.9 43.4 30.06 50 34.38c-12.66-9.5-27.3-6.9-33.05-4.4 2.67-2.74 11.88-4.77 16.16-5.45z" fill="#fff"/><path d="M17.18 20.13c.21-1.73 1.8-2.12 2.56-2.13-1.28.6-1.42 1.65-1.31 2.13 1.48 6.71 11.34 12.33 14.72 12.02.6-.05 1.84-.51 1.92-1.93.07-1.41-1.25-3.58-1.92-4.49 1.03 1.2 3.1 4.14 3.1 6.26s-1.93 2.46-2.78 2.42c-6.82-.26-16.83-9.85-16.29-14.28z" fill="#009F9B"/></svg>